<svg xmlns="http://www.w3.org/2000/svg" xmlns:xlink="http://www.w3.org/1999/xlink" fill="none" version="1.1" width="24" height="24" viewBox="0 0 24 24"><defs><clipPath id="master_svg0_3_1427"><rect x="0" y="0" width="24" height="24" rx="0"/></clipPath></defs><g clip-path="url(#master_svg0_3_1427)"><path d="M12.47281797265625,2.4960084480390625C12.32341767265625,2.4319646810390627,12.16256997265625,2.3989410400390625,12.00001807265625,2.3989410400390625C11.83747867265625,2.3989410400390625,11.67661857265625,2.4319646810390627,11.52721787265625,2.4960084480390625C11.52721787265625,2.4960084480390625,3.12722039265625,6.096009040039062,3.12722039265625,6.096009040039062C2.91075241265625,6.188229340039062,2.72617081265625,6.342045040039062,2.59643158265625,6.538329140039062C2.46669309565625,6.734625340039062,2.3975219726562496,6.964713140039063,2.39752197265625,7.200008840039063C2.3975219726562496,7.435305140039063,2.46669309565625,7.665393340039063,2.59643158265625,7.861689140039062C2.72617081265625,8.057972940039061,2.91075241265625,8.211789140039063,3.12722039265625,8.304008940039061C3.12722039265625,8.304008940039061,6.3000180726562505,9.661209140039063,6.3000180726562505,9.661209140039063C6.41778607265625,9.527997040039063,6.56370637265625,9.422661340039063,6.72721817265625,9.352809440039064C6.72721817265625,9.352809440039064,11.52721787265625,7.296009540039062,11.52721787265625,7.296009540039062C11.67246627265625,7.231268840039062,11.82913877265625,7.196049240039063,11.98812577265625,7.192389040039062C12.14710237265625,7.188729240039063,12.30523777265625,7.2167134400390625,12.45330597265625,7.274697340039062C12.60138597265625,7.332681640039063,12.73645797265625,7.419525140039062,12.85067497265625,7.530165240039063C12.96489097265625,7.640817140039062,13.05598197265625,7.773068940039063,13.11864697265625,7.919217540039062C13.18131097265625,8.065377240039062,13.21429797265625,8.222541340039061,13.21568997265625,8.381553140039063C13.21708297265625,8.540577440039062,13.18685397265625,8.698281740039063,13.12675797265625,8.845521440039063C13.06667397265625,8.992749740039063,12.97790997265625,9.126573040039062,12.86564997265625,9.239205340039064C12.75339097265625,9.351837140039063,12.61985397265625,9.441033340039063,12.47281797265625,9.501609340039064C12.47281797265625,9.501609340039064,9.20041797265625,10.905609140039063,9.20041797265625,10.905609140039063C9.20041797265625,10.905609140039063,11.52841857265625,11.902809140039063,11.52841857265625,11.902809140039063C11.67765047265625,11.966685340039062,11.83829407265625,11.999626140039062,12.00061797265625,11.999626140039062C12.16294197265625,11.999626140039062,12.32358647265625,11.966685340039062,12.47281797265625,11.902809140039063C12.47281797265625,11.902809140039063,20.87284297265625,8.302809240039062,20.87284297265625,8.302809240039062C21.08860197265625,8.210253240039062,21.27244397265625,8.056437540039063,21.40168197265625,7.860417340039063C21.53080197265625,7.6643972400390625,21.59968397265625,7.434777240039063,21.59968397265625,7.200008840039063C21.59968397265625,6.965240940039062,21.53080197265625,6.7356209400390625,21.40168197265625,6.539601340039063C21.27244397265625,6.343581240039063,21.08860197265625,6.189765240039062,20.87284297265625,6.097209240039062C20.87284297265625,6.097209240039062,12.47281797265625,2.4972085650390623,12.47281797265625,2.4972085650390623C12.47281797265625,2.4972085650390623,12.47281797265625,2.4960084480390625,12.47281797265625,2.4960084480390625C12.47281797265625,2.4960084480390625,12.47281797265625,2.4960084480390625,12.47281797265625,2.4960084480390625ZM3.97201817265625,11.276409140039062C3.97201817265625,11.276409140039062,6.00001807265625,12.144008640039063,6.00001807265625,12.144008640039063C6.00001807265625,12.144008640039063,6.00001807265625,17.066422040039065,6.00001807265625,17.066422040039065C5.584517972656251,16.971982040039062,5.16378597265625,16.902261040039065,4.740018172656249,16.857621040039064C4.46659807265625,16.828822040039064,4.21132207265625,16.707142040039063,4.01692197265625,16.512742040039065C3.82250997265625,16.318341040039062,3.70075797265625,16.06298204003906,3.67201807265625,15.789622040039063C3.5142072726562503,14.278702040039063,3.61566607265625,12.751941040039062,3.97201817265625,11.275209440039063C3.97201817265625,11.275209440039063,3.97201817265625,11.276409140039062,3.97201817265625,11.276409140039062C3.97201817265625,11.276409140039062,3.97201817265625,11.276409140039062,3.97201817265625,11.276409140039062ZM11.16001887265625,19.887623040039063C10.34884217265625,19.091661040039064,9.41743807265625,18.428301040039063,8.40001817265625,17.922021040039063C8.40001817265625,17.922021040039063,8.40001817265625,13.173610040039062,8.40001817265625,13.173610040039062C8.40001817265625,13.173610040039062,10.58161827265625,14.109610040039062,10.58161827265625,14.109610040039062C11.02981857265625,14.301741040039062,11.51237397265625,14.400862040039062,12.00001807265625,14.400862040039062C12.48766197265625,14.400862040039062,12.97021897265625,14.301741040039062,13.41841897265625,14.109610040039062C13.41841897265625,14.109610040039062,20.02804197265625,11.276409140039062,20.02804197265625,11.276409140039062C20.38648197265625,12.752829040039062,20.48800297265625,14.279949040039062,20.32804297265625,15.790821040039063C20.29924397265625,16.064181040039063,20.17756297265625,16.31954204003906,19.98316397265625,16.513942040039062C19.78876297265625,16.70834304003906,19.53340197265625,16.83002204003906,19.26004197265625,16.858822040039062C16.83904297265625,17.113221040039065,14.57584197265625,18.180982040039062,12.84001797265625,19.887623040039063C12.61570297265625,20.107462040039064,12.31411837265625,20.230581040039063,12.00001807265625,20.230581040039063C11.68591877265625,20.230581040039063,11.38433457265625,20.107462040039064,11.16001887265625,19.887623040039063C11.16001887265625,19.887623040039063,11.16001887265625,19.887623040039063,11.16001887265625,19.887623040039063C11.16001887265625,19.887623040039063,11.16001887265625,19.887623040039063,11.16001887265625,19.887623040039063ZM7.20001797265625,21.600021040039064C7.51828237265625,21.600021040039064,7.82350207265625,21.473541040039063,8.048550172656249,21.248543040039063C8.27358627265625,21.02354204003906,8.40001817265625,20.71826204003906,8.40001817265625,20.40002204003906C8.40001817265625,20.40002204003906,8.40001817265625,17.922021040039063,8.40001817265625,17.922021040039063C7.63681797265625,17.542821040039062,6.83112617265625,17.256022040039063,6.00001807265625,17.067621040039064C6.00001807265625,17.067621040039064,6.00001807265625,20.40002204003906,6.00001807265625,20.40002204003906C6.00001807265625,20.71826204003906,6.12645007265625,21.02354204003906,6.35149817265625,21.248543040039063C6.57653427265625,21.473541040039063,6.88176627265625,21.600021040039064,7.20001797265625,21.600021040039064C7.20001797265625,21.600021040039064,7.20001797265625,21.600021040039064,7.20001797265625,21.600021040039064Z" fill="#0A0A28" fill-opacity="1"/></g></svg>