<svg xmlns="http://www.w3.org/2000/svg" xmlns:xlink="http://www.w3.org/1999/xlink" fill="none" version="1.1" width="24" height="24" viewBox="0 0 24 24"><defs><clipPath id="master_svg0_3_2265"><rect x="0" y="0" width="24" height="24" rx="0"/></clipPath></defs><g clip-path="url(#master_svg0_3_2265)"><path d="M12,14C12,14,11.7571802,14.4371,11.7571802,14.4371C11.7571802,14.4371,12,14.572,12,14.572C12,14.572,12.2428198,14.4371,12.2428198,14.4371C12.2428198,14.4371,12,14,12,14C12,14,12,14,12,14ZM21,9C21,9,21.2428,9.4370799,21.2428,9.4370799C21.2428,9.4370799,22.0296,9,22.0296,9C22.0296,9,21.2428,8.5629201,21.2428,8.5629201C21.2428,8.5629201,21,9,21,9C21,9,21,9,21,9ZM12,4C12,4,12.2428198,3.56292099,12.2428198,3.56292099C12.2428198,3.56292099,12,3.42802101,12,3.42802101C12,3.42802101,11.7571802,3.56292099,11.7571802,3.56292099C11.7571802,3.56292099,12,4,12,4C12,4,12,4,12,4ZM3,9C3,9,2.75717901,8.5629201,2.75717901,8.5629201C2.75717901,8.5629201,1.97044,9,1.97044,9C1.97044,9,2.75717901,9.4370799,2.75717901,9.4370799C2.75717901,9.4370799,3,9,3,9C3,9,3,9,3,9ZM12.2428198,14.4371C12.2428198,14.4371,21.2428,9.4370799,21.2428,9.4370799C21.2428,9.4370799,20.7572,8.5629201,20.7572,8.5629201C20.7572,8.5629201,11.7571802,13.5629196,11.7571802,13.5629196C11.7571802,13.5629196,12.2428198,14.4371,12.2428198,14.4371C12.2428198,14.4371,12.2428198,14.4371,12.2428198,14.4371ZM21.2428,8.5629201C21.2428,8.5629201,12.2428198,3.56292099,12.2428198,3.56292099C12.2428198,3.56292099,11.7571802,4.43707901,11.7571802,4.43707901C11.7571802,4.43707901,20.7572,9.4370799,20.7572,9.4370799C20.7572,9.4370799,21.2428,8.5629201,21.2428,8.5629201C21.2428,8.5629201,21.2428,8.5629201,21.2428,8.5629201ZM11.7571802,3.56292099C11.7571802,3.56292099,2.75717901,8.5629201,2.75717901,8.5629201C2.75717901,8.5629201,3.24282099,9.4370799,3.24282099,9.4370799C3.24282099,9.4370799,12.2428198,4.43707901,12.2428198,4.43707901C12.2428198,4.43707901,11.7571802,3.56292099,11.7571802,3.56292099C11.7571802,3.56292099,11.7571802,3.56292099,11.7571802,3.56292099ZM2.75717901,9.4370799C2.75717901,9.4370799,11.7571802,14.4371,11.7571802,14.4371C11.7571802,14.4371,12.2428198,13.5629196,12.2428198,13.5629196C12.2428198,13.5629196,3.24282099,8.5629201,3.24282099,8.5629201C3.24282099,8.5629201,2.75717901,9.4370799,2.75717901,9.4370799C2.75717901,9.4370799,2.75717901,9.4370799,2.75717901,9.4370799Z" fill="#0A0A28" fill-opacity="1"/><path d="M12.00000141046753,13.99999996866455C12.00000141046753,13.99999996866455,11.757161610467529,14.437070168664551,11.757161610467529,14.437070168664551C11.757161610467529,14.437070168664551,11.99998141046753,14.57197996866455,11.99998141046753,14.57197996866455C11.99998141046753,14.57197996866455,12.242811710467528,14.43709016866455,12.242811710467528,14.43709016866455C12.242811710467528,14.43709016866455,12.00000141046753,13.99999996866455,12.00000141046753,13.99999996866455C12.00000141046753,13.99999996866455,12.00000141046753,13.99999996866455,12.00000141046753,13.99999996866455ZM18.160011510467527,10.57800006866455C18.160011510467527,10.57800006866455,18.62521151046753,10.39478607866455,18.62521151046753,10.39478607866455C18.62521151046753,10.39478607866455,18.41611151046753,9.86376309866455,18.41611151046753,9.86376309866455C18.41611151046753,9.86376309866455,17.91721151046753,10.140915068664551,17.91721151046753,10.140915068664551C17.91721151046753,10.140915068664551,18.160011510467527,10.57800006866455,18.160011510467527,10.57800006866455C18.160011510467527,10.57800006866455,18.160011510467527,10.57800006866455,18.160011510467527,10.57800006866455ZM18.82501151046753,17.05700016866455C18.82501151046753,17.05700016866455,18.87331151046753,17.55465986866455,18.87331151046753,17.55465986866455C18.87331151046753,17.55465986866455,19.25301151046753,17.51780986866455,19.25301151046753,17.51780986866455C19.25301151046753,17.51780986866455,19.31771151046753,17.14189006866455,19.31771151046753,17.14189006866455C19.31771151046753,17.14189006866455,18.82501151046753,17.05700016866455,18.82501151046753,17.05700016866455C18.82501151046753,17.05700016866455,18.82501151046753,17.05700016866455,18.82501151046753,17.05700016866455ZM12.00000141046753,20.05500026866455C12.00000141046753,20.05500026866455,11.666171510467528,20.42724036866455,11.666171510467528,20.42724036866455C11.666171510467528,20.42724036866455,11.99999141046753,20.726600068664553,11.99999141046753,20.726600068664553C11.99999141046753,20.726600068664553,12.33382131046753,20.42724036866455,12.33382131046753,20.42724036866455C12.33382131046753,20.42724036866455,12.00000141046753,20.05500026866455,12.00000141046753,20.05500026866455C12.00000141046753,20.05500026866455,12.00000141046753,20.05500026866455,12.00000141046753,20.05500026866455ZM5.17600051046753,17.05700016866455C5.17600051046753,17.05700016866455,4.6832685204675295,17.14195016866455,4.6832685204675295,17.14195016866455C4.6832685204675295,17.14195016866455,4.7480625204675295,17.517780268664552,4.7480625204675295,17.517780268664552C4.7480625204675295,17.517780268664552,5.127651510467529,17.55465986866455,5.127651510467529,17.55465986866455C5.127651510467529,17.55465986866455,5.17600051046753,17.05700016866455,5.17600051046753,17.05700016866455C5.17600051046753,17.05700016866455,5.17600051046753,17.05700016866455,5.17600051046753,17.05700016866455ZM5.841000500467529,10.57800006866455C5.841000500467529,10.57800006866455,6.0838416104675295,10.140931068664552,6.0838416104675295,10.140931068664552C6.0838416104675295,10.140931068664552,5.584977510467529,9.86375903866455,5.584977510467529,9.86375903866455C5.584977510467529,9.86375903866455,5.375798520467529,10.39473206866455,5.375798520467529,10.39473206866455C5.375798520467529,10.39473206866455,5.841000500467529,10.57800006866455,5.841000500467529,10.57800006866455C5.841000500467529,10.57800006866455,5.841000500467529,10.57800006866455,5.841000500467529,10.57800006866455ZM12.242811710467528,14.43709016866455C12.242811710467528,14.43709016866455,18.40281151046753,11.01508506866455,18.40281151046753,11.01508506866455C18.40281151046753,11.01508506866455,17.91721151046753,10.140915068664551,17.91721151046753,10.140915068664551C17.91721151046753,10.140915068664551,11.75719161046753,13.56291006866455,11.75719161046753,13.56291006866455C11.75719161046753,13.56291006866455,12.242811710467528,14.43709016866455,12.242811710467528,14.43709016866455C12.242811710467528,14.43709016866455,12.242811710467528,14.43709016866455,12.242811710467528,14.43709016866455ZM17.69481151046753,10.761214058664551C18.47171151046753,12.73414016866455,18.69221151046753,14.88249016866455,18.33221151046753,16.97211026866455C18.33221151046753,16.97211026866455,19.31771151046753,17.14189006866455,19.31771151046753,17.14189006866455C19.708811510467527,14.87186006866455,19.469311510467527,12.53804006866455,18.62521151046753,10.39478607866455C18.62521151046753,10.39478607866455,17.69481151046753,10.761214058664551,17.69481151046753,10.761214058664551C17.69481151046753,10.761214058664551,17.69481151046753,10.761214058664551,17.69481151046753,10.761214058664551ZM18.77671151046753,16.559339968664553C16.134111510467527,16.81582016866455,13.642761710467529,17.910200168664552,11.666181610467529,19.682760268664552C11.666181610467529,19.682760268664552,12.33382131046753,20.42724036866455,12.33382131046753,20.42724036866455C14.15166141046753,18.79703996866455,16.443011510467528,17.79054016866455,18.87331151046753,17.55465986866455C18.87331151046753,17.55465986866455,18.77671151046753,16.559339968664553,18.77671151046753,16.559339968664553C18.77671151046753,16.559339968664553,18.77671151046753,16.559339968664553,18.77671151046753,16.559339968664553ZM12.33382131046753,19.682760268664552C10.357521510467528,17.910409968664553,7.866531610467529,16.81604006866455,5.22434851046753,16.559339968664553C5.22434851046753,16.559339968664553,5.127651510467529,17.55465986866455,5.127651510467529,17.55465986866455C7.55764151046753,17.79073996866455,9.84859131046753,18.797220268664553,11.666171510467528,20.42724036866455C11.666171510467528,20.42724036866455,12.33382131046753,19.682760268664552,12.33382131046753,19.682760268664552C12.33382131046753,19.682760268664552,12.33382131046753,19.682760268664552,12.33382131046753,19.682760268664552ZM5.668731510467529,16.972050168664552C5.308489500467529,14.88248016866455,5.528997480467529,12.734100068664551,6.306201410467529,10.76126806866455C6.306201410467529,10.76126806866455,5.375798520467529,10.39473206866455,5.375798520467529,10.39473206866455C4.5314655004675295,12.537960068664551,4.29191250046753,14.871890068664552,4.6832685204675295,17.14195016866455C4.6832685204675295,17.14195016866455,5.668731510467529,16.972050168664552,5.668731510467529,16.972050168664552C5.668731510467529,16.972050168664552,5.668731510467529,16.972050168664552,5.668731510467529,16.972050168664552ZM5.59816050046753,11.01506906866455C5.59816050046753,11.01506906866455,11.757161610467529,14.437070168664551,11.757161610467529,14.437070168664551C11.757161610467529,14.437070168664551,12.24284171046753,13.562930068664551,12.24284171046753,13.562930068664551C12.24284171046753,13.562930068664551,6.0838416104675295,10.140931068664552,6.0838416104675295,10.140931068664552C6.0838416104675295,10.140931068664552,5.59816050046753,11.01506906866455,5.59816050046753,11.01506906866455C5.59816050046753,11.01506906866455,5.59816050046753,11.01506906866455,5.59816050046753,11.01506906866455Z" fill="#0A0A28" fill-opacity="1"/><path d="M12,14C12,14,11.5143604,14.8742,11.5143604,14.8742C11.81637,15.0419,12.1836004,15.0419,12.4856195,14.8742C12.4856195,14.8742,12,14,12,14C12,14,12,14,12,14ZM21,9C21,9,21.4856,9.874159800000001,21.4856,9.874159800000001C21.803101,9.697790099999999,22,9.3631701,22,9C22,8.6368299,21.803101,8.302209900000001,21.4856,8.125840199999999C21.4856,8.125840199999999,21,9,21,9C21,9,21,9,21,9ZM12,4C12,4,12.4856396,3.1258429899999998,12.4856396,3.1258429899999998C12.1836205,2.95805,11.8163795,2.95805,11.5143604,3.1258429899999998C11.5143604,3.1258429899999998,12,4,12,4C12,4,12,4,12,4ZM3,9C3,9,2.514357,8.125840199999999,2.514357,8.125840199999999C2.19689202,8.302209900000001,2,8.6368299,2,9C2,9.3631701,2.19689202,9.697790099999999,2.514357,9.874159800000001C2.514357,9.874159800000001,3,9,3,9C3,9,3,9,3,9ZM18.16,10.5780001C18.16,10.5780001,19.090401,10.2115698,19.090401,10.2115698C18.9849,9.94347,18.7688,9.7339401,18.497500000000002,9.6366801C18.226300000000002,9.5394301,17.926299999999998,9.5639,17.6744,9.703829800000001C17.6744,9.703829800000001,18.16,10.5780001,18.16,10.5780001C18.16,10.5780001,18.16,10.5780001,18.16,10.5780001ZM18.825,17.057000000000002C18.825,17.057000000000002,18.921599999999998,18.052300000000002,18.921599999999998,18.052300000000002C19.370001,18.0088,19.733999,17.6708,19.810499,17.2268C19.810499,17.2268,18.825,17.057000000000002,18.825,17.057000000000002C18.825,17.057000000000002,18.825,17.057000000000002,18.825,17.057000000000002ZM12,20.055C12,20.055,11.3323498,20.7995,11.3323498,20.7995C11.7122498,21.1402,12.2877302,21.1402,12.6676397,20.7995C12.6676397,20.7995,12,20.055,12,20.055C12,20.055,12,20.055,12,20.055ZM5.1760000999999995,17.057000000000002C5.1760000999999995,17.057000000000002,4.19054,17.2269,4.19054,17.2269C4.2670701,17.6708,4.63095,18.0088,5.0792999000000005,18.052300000000002C5.0792999000000005,18.052300000000002,5.1760000999999995,17.057000000000002,5.1760000999999995,17.057000000000002C5.1760000999999995,17.057000000000002,5.1760000999999995,17.057000000000002,5.1760000999999995,17.057000000000002ZM5.8410001000000005,10.5780001C5.8410001000000005,10.5780001,6.3266799,9.7038598,6.3266799,9.7038598C6.074809999999999,9.56392,5.7748101,9.539420100000001,5.5035701,9.6366501C5.2323301,9.73388,5.0162101,9.9433799,4.9105999,10.2114601C4.9105999,10.2114601,5.8410001000000005,10.5780001,5.8410001000000005,10.5780001C5.8410001000000005,10.5780001,5.8410001000000005,10.5780001,5.8410001000000005,10.5780001ZM7,20C7,20.552299,7.4477201,21,8,21C8.5522799,21,9,20.552299,9,20C9,20,7,20,7,20C7,20,7,20,7,20ZM8,12.5C8,12.5,7.51439,11.6258202,7.51439,11.6258202C7.1969099,11.8021898,7,12.1368198,7,12.5C7,12.5,8,12.5,8,12.5C8,12.5,8,12.5,8,12.5ZM12.48561,11.1521802C12.9684,10.8839898,13.1424,10.2751899,12.8741798,9.7923899C12.6059904,9.3095999,11.9971905,9.1356301,11.51439,9.40382C11.51439,9.40382,12.48561,11.1521802,12.48561,11.1521802C12.48561,11.1521802,12.48561,11.1521802,12.48561,11.1521802ZM12.4856396,14.8742C12.4856396,14.8742,21.4856,9.874159800000001,21.4856,9.874159800000001C21.4856,9.874159800000001,20.5144,8.125840199999999,20.5144,8.125840199999999C20.5144,8.125840199999999,11.5143604,13.1258402,11.5143604,13.1258402C11.5143604,13.1258402,12.4856396,14.8742,12.4856396,14.8742C12.4856396,14.8742,12.4856396,14.8742,12.4856396,14.8742ZM21.4856,8.125840199999999C21.4856,8.125840199999999,12.4856396,3.1258429899999998,12.4856396,3.1258429899999998C12.4856396,3.1258429899999998,11.5143604,4.87415701,11.5143604,4.87415701C11.5143604,4.87415701,20.5144,9.874159800000001,20.5144,9.874159800000001C20.5144,9.874159800000001,21.4856,8.125840199999999,21.4856,8.125840199999999C21.4856,8.125840199999999,21.4856,8.125840199999999,21.4856,8.125840199999999ZM11.5143604,3.1258429899999998C11.5143604,3.1258429899999998,2.514357,8.125840199999999,2.514357,8.125840199999999C2.514357,8.125840199999999,3.485643,9.874159800000001,3.485643,9.874159800000001C3.485643,9.874159800000001,12.4856396,4.87415701,12.4856396,4.87415701C12.4856396,4.87415701,11.5143604,3.1258429899999998,11.5143604,3.1258429899999998C11.5143604,3.1258429899999998,11.5143604,3.1258429899999998,11.5143604,3.1258429899999998ZM2.514357,9.874159800000001C2.514357,9.874159800000001,11.5143604,14.8742,11.5143604,14.8742C11.5143604,14.8742,12.4856396,13.1258402,12.4856396,13.1258402C12.4856396,13.1258402,3.485643,8.125840199999999,3.485643,8.125840199999999C3.485643,8.125840199999999,2.514357,9.874159800000001,2.514357,9.874159800000001C2.514357,9.874159800000001,2.514357,9.874159800000001,2.514357,9.874159800000001ZM12.4856195,14.8742C12.4856195,14.8742,18.6456,11.452169900000001,18.6456,11.452169900000001C18.6456,11.452169900000001,17.6744,9.703829800000001,17.6744,9.703829800000001C17.6744,9.703829800000001,11.5143805,13.1258297,11.5143805,13.1258297C11.5143805,13.1258297,12.4856195,14.8742,12.4856195,14.8742C12.4856195,14.8742,12.4856195,14.8742,12.4856195,14.8742ZM17.229599999999998,10.9444299C17.973,12.8321896,18.183999999999997,14.8878,17.8395,16.8872C17.8395,16.8872,19.810499,17.2268,19.810499,17.2268C20.2171,14.8665,19.968,12.43999,19.090401,10.2115698C19.090401,10.2115698,17.229599999999998,10.9444299,17.229599999999998,10.9444299C17.229599999999998,10.9444299,17.229599999999998,10.9444299,17.229599999999998,10.9444299ZM18.7284,16.061700000000002C15.9797,16.3285,13.3883,17.4668,11.3323603,19.310499999999998C11.3323603,19.310499999999998,12.6676397,20.7995,12.6676397,20.7995C14.4061,19.2405,16.5974,18.277900000000002,18.921599999999998,18.052300000000002C18.921599999999998,18.052300000000002,18.7284,16.061700000000002,18.7284,16.061700000000002C18.7284,16.061700000000002,18.7284,16.061700000000002,18.7284,16.061700000000002ZM12.6676502,19.310499999999998C10.611989999999999,17.467,8.0209699,16.328699999999998,5.2727001,16.061700000000002C5.2727001,16.061700000000002,5.0792999000000005,18.052300000000002,5.0792999000000005,18.052300000000002C7.4032001,18.278100000000002,9.59412,19.2406,11.3323498,20.7995C11.3323498,20.7995,12.6676502,19.310499999999998,12.6676502,19.310499999999998C12.6676502,19.310499999999998,12.6676502,19.310499999999998,12.6676502,19.310499999999998ZM6.1614599000000005,16.8871C5.8167801,14.8878,6.02776,12.8321695,6.7714,10.94454C6.7714,10.94454,4.9105999,10.2114601,4.9105999,10.2114601C4.0326999,12.4398899,3.78362399,14.8666,4.19054,17.2269C4.19054,17.2269,6.1614599000000005,16.8871,6.1614599000000005,16.8871C6.1614599000000005,16.8871,6.1614599000000005,16.8871,6.1614599000000005,16.8871ZM5.35532,11.452139899999999C5.35532,11.452139899999999,11.5143204,14.8741,11.5143204,14.8741C11.5143204,14.8741,12.4856796,13.1258602,12.4856796,13.1258602C12.4856796,13.1258602,6.3266799,9.7038598,6.3266799,9.7038598C6.3266799,9.7038598,5.35532,11.452139899999999,5.35532,11.452139899999999C5.35532,11.452139899999999,5.35532,11.452139899999999,5.35532,11.452139899999999ZM9,20C9,20,9,12.5,9,12.5C9,12.5,7,12.5,7,12.5C7,12.5,7,20,7,20C7,20,9,20,9,20C9,20,9,20,9,20ZM8.485610000000001,13.3741798C8.485610000000001,13.3741798,12.48561,11.1521802,12.48561,11.1521802C12.48561,11.1521802,11.51439,9.40382,11.51439,9.40382C11.51439,9.40382,7.51439,11.6258202,7.51439,11.6258202C7.51439,11.6258202,8.485610000000001,13.3741798,8.485610000000001,13.3741798C8.485610000000001,13.3741798,8.485610000000001,13.3741798,8.485610000000001,13.3741798Z" fill="#0A0A28" fill-opacity="1"/></g></svg>