<svg xmlns="http://www.w3.org/2000/svg" xmlns:xlink="http://www.w3.org/1999/xlink" fill="none" version="1.1" width="24" height="24" viewBox="0 0 24 24"><defs><clipPath id="master_svg0_3_1888"><rect x="0" y="0" width="24" height="24" rx="0"/></clipPath></defs><g clip-path="url(#master_svg0_3_1888)"><path d="M13,4C13,3.4477149799999998,12.55229,3,12,3C11.4477201,3,11,3.4477149799999998,11,4C11,4,13,4,13,4C13,4,13,4,13,4ZM8,16C8,16,9,16,9,16C9,16,8,16,8,16C8,16,8,16,8,16ZM6,14C6,14,6,15,6,15C6,15,6,14,6,14C6,14,6,14,6,14ZM4,16C4,16,3,16,3,16C3,16,4,16,4,16C4,16,4,16,4,16ZM5,20C5,20.552299,5.4477201,21,6,21C6.5522799,21,7,20.552299,7,20C7,20,5,20,5,20C5,20,5,20,5,20ZM7,4C7,3.4477149799999998,6.5522799,3,6,3C5.4477201,3,5,3.4477149799999998,5,4C5,4,7,4,7,4C7,4,7,4,7,4ZM11,20C11,20.552299,11.4477201,21,12,21C12.55229,21,13,20.552299,13,20C13,20,11,20,11,20C11,20,11,20,11,20ZM18,14C18,14,18,15,18,15C18,15,18,14,18,14C18,14,18,14,18,14ZM16,16C16,16,17,16,17,16C17,16,16,16,16,16C16,16,16,16,16,16ZM17,20C17,20.552299,17.447699999999998,21,18,21C18.552300000000002,21,19,20.552299,19,20C19,20,17,20,17,20C17,20,17,20,17,20ZM19,4C19,3.4477149799999998,18.552300000000002,3,18,3C17.447699999999998,3,17,3.4477149799999998,17,4C17,4,19,4,19,4C19,4,19,4,19,4ZM13,6C13,6,13,4,13,4C13,4,11,4,11,4C11,4,11,6,11,6C11,6,13,6,13,6C13,6,13,6,13,6ZM12,5C11.20435,5,10.441289900000001,5.31607,9.8786802,5.87868C9.8786802,5.87868,11.292890100000001,7.2928901,11.292890100000001,7.2928901C11.4804301,7.10536,11.7347798,7,12,7C12,7,12,5,12,5C12,5,12,5,12,5ZM9.8786802,5.87868C9.316070100000001,6.4412899,9,7.20435,9,8C9,8,11,8,11,8C11,7.7347801,11.105360000000001,7.4804299,11.292890100000001,7.2928901C11.292890100000001,7.2928901,9.8786802,5.87868,9.8786802,5.87868C9.8786802,5.87868,9.8786802,5.87868,9.8786802,5.87868ZM9,8C9,8.79565,9.316070100000001,9.558710099999999,9.8786802,10.1213198C9.8786802,10.1213198,11.292890100000001,8.707109899999999,11.292890100000001,8.707109899999999C11.105360000000001,8.5195699,11,8.2652202,11,8C11,8,9,8,9,8C9,8,9,8,9,8ZM9.8786802,10.1213198C10.441289900000001,10.683929899999999,11.20435,11,12,11C12,11,12,9,12,9C11.7347798,9,11.4804301,8.894639999999999,11.292890100000001,8.707109899999999C11.292890100000001,8.707109899999999,9.8786802,10.1213198,9.8786802,10.1213198C9.8786802,10.1213198,9.8786802,10.1213198,9.8786802,10.1213198ZM12,7C12.2652197,7,12.5195704,7.10536,12.7071104,7.2928901C12.7071104,7.2928901,14.1213,5.87868,14.1213,5.87868C13.5587101,5.31607,12.7956495,5,12,5C12,5,12,7,12,7C12,7,12,7,12,7ZM12.7071104,7.2928901C12.89464,7.4804299,13,7.7347801,13,8C13,8,15,8,15,8C15,7.20435,14.6839,6.4412899,14.1213,5.87868C14.1213,5.87868,12.7071104,7.2928901,12.7071104,7.2928901C12.7071104,7.2928901,12.7071104,7.2928901,12.7071104,7.2928901ZM13,8C13,8.2652202,12.89464,8.5195699,12.7071104,8.707109899999999C12.7071104,8.707109899999999,14.1213,10.1213198,14.1213,10.1213198C14.6839,9.558710099999999,15,8.79565,15,8C15,8,13,8,13,8C13,8,13,8,13,8ZM12.7071104,8.707109899999999C12.5195704,8.894639999999999,12.2652197,9,12,9C12,9,12,11,12,11C12.7956495,11,13.5587101,10.683929899999999,14.1213,10.1213198C14.1213,10.1213198,12.7071104,8.707109899999999,12.7071104,8.707109899999999C12.7071104,8.707109899999999,12.7071104,8.707109899999999,12.7071104,8.707109899999999ZM6,19C6.79565,19,7.5587101,18.6839,8.1213198,18.121299999999998C8.1213198,18.121299999999998,6.7071099,16.7071,6.7071099,16.7071C6.5195701,16.8946,6.2652199,17,6,17C6,17,6,19,6,19C6,19,6,19,6,19ZM8.1213198,18.121299999999998C8.683929899999999,17.5587,9,16.7956,9,16C9,16,7,16,7,16C7,16.2652,6.89464,16.5196,6.7071099,16.7071C6.7071099,16.7071,8.1213198,18.121299999999998,8.1213198,18.121299999999998C8.1213198,18.121299999999998,8.1213198,18.121299999999998,8.1213198,18.121299999999998ZM9,16C9,15.2044,8.683929899999999,14.4413,8.1213198,13.8786802C8.1213198,13.8786802,6.7071099,15.2929,6.7071099,15.2929C6.89464,15.4804,7,15.7348,7,16C7,16,9,16,9,16C9,16,9,16,9,16ZM8.1213198,13.8786802C7.5587101,13.3160696,6.79565,13,6,13C6,13,6,15,6,15C6.2652199,15,6.5195701,15.1054,6.7071099,15.2929C6.7071099,15.2929,8.1213198,13.8786802,8.1213198,13.8786802C8.1213198,13.8786802,8.1213198,13.8786802,8.1213198,13.8786802ZM6,17C5.73478,17,5.48043,16.8946,5.29289,16.7071C5.29289,16.7071,3.87868,18.121299999999998,3.87868,18.121299999999998C4.44128799,18.6839,5.20435,19,6,19C6,19,6,17,6,17C6,17,6,17,6,17ZM5.29289,16.7071C5.10536,16.5196,5,16.2652,5,16C5,16,3,16,3,16C3,16.7956,3.3160700199999997,17.5587,3.87868,18.121299999999998C3.87868,18.121299999999998,5.29289,16.7071,5.29289,16.7071C5.29289,16.7071,5.29289,16.7071,5.29289,16.7071ZM5,16C5,15.7348,5.10536,15.4804,5.29289,15.2929C5.29289,15.2929,3.87868,13.8786802,3.87868,13.8786802C3.3160700199999997,14.4413,3,15.2044,3,16C3,16,5,16,5,16C5,16,5,16,5,16ZM5.29289,15.2929C5.48043,15.1054,5.73478,15,6,15C6,15,6,13,6,13C5.20435,13,4.44128799,13.3160696,3.87868,13.8786802C3.87868,13.8786802,5.29289,15.2929,5.29289,15.2929C5.29289,15.2929,5.29289,15.2929,5.29289,15.2929ZM5,18C5,18,5,20,5,20C5,20,7,20,7,20C7,20,7,18,7,18C7,18,5,18,5,18C5,18,5,18,5,18ZM7,14C7,14,7,4,7,4C7,4,5,4,5,4C5,4,5,14,5,14C5,14,7,14,7,14C7,14,7,14,7,14ZM11,10C11,10,11,20,11,20C11,20,13,20,13,20C13,20,13,10,13,10C13,10,11,10,11,10C11,10,11,10,11,10ZM18,19C18.7957,19,19.5587,18.6839,20.1213,18.121299999999998C20.1213,18.121299999999998,18.7071,16.7071,18.7071,16.7071C18.5196,16.8946,18.2652,17,18,17C18,17,18,19,18,19C18,19,18,19,18,19ZM20.1213,18.121299999999998C20.683901,17.5587,21,16.7957,21,16C21,16,19,16,19,16C19,16.2652,18.8946,16.5196,18.7071,16.7071C18.7071,16.7071,20.1213,18.121299999999998,20.1213,18.121299999999998C20.1213,18.121299999999998,20.1213,18.121299999999998,20.1213,18.121299999999998ZM21,16C21,15.2043,20.683901,14.4413,20.1213,13.8786802C20.1213,13.8786802,18.7071,15.2929,18.7071,15.2929C18.8946,15.4804,19,15.7348,19,16C19,16,21,16,21,16C21,16,21,16,21,16ZM20.1213,13.8786802C19.5587,13.3160696,18.7957,13,18,13C18,13,18,15,18,15C18.2652,15,18.5196,15.1054,18.7071,15.2929C18.7071,15.2929,20.1213,13.8786802,20.1213,13.8786802C20.1213,13.8786802,20.1213,13.8786802,20.1213,13.8786802ZM18,17C17.7348,17,17.4804,16.8946,17.2929,16.7071C17.2929,16.7071,15.8787,18.121299999999998,15.8787,18.121299999999998C16.4413,18.6839,17.2043,19,18,19C18,19,18,17,18,17C18,17,18,17,18,17ZM17.2929,16.7071C17.1054,16.5196,17,16.2652,17,16C17,16,15,16,15,16C15,16.7957,15.3161,17.5587,15.8787,18.121299999999998C15.8787,18.121299999999998,17.2929,16.7071,17.2929,16.7071C17.2929,16.7071,17.2929,16.7071,17.2929,16.7071ZM17,16C17,15.7348,17.1054,15.4804,17.2929,15.2929C17.2929,15.2929,15.8787,13.8786802,15.8787,13.8786802C15.3161,14.4413,15,15.2043,15,16C15,16,17,16,17,16C17,16,17,16,17,16ZM17.2929,15.2929C17.4804,15.1054,17.7348,15,18,15C18,15,18,13,18,13C17.2043,13,16.4413,13.3160696,15.8787,13.8786802C15.8787,13.8786802,17.2929,15.2929,17.2929,15.2929C17.2929,15.2929,17.2929,15.2929,17.2929,15.2929ZM17,18C17,18,17,20,17,20C17,20,19,20,19,20C19,20,19,18,19,18C19,18,17,18,17,18C17,18,17,18,17,18ZM19,14C19,14,19,4,19,4C19,4,17,4,17,4C17,4,17,14,17,14C17,14,19,14,19,14C19,14,19,14,19,14Z" fill="#0A0A28" fill-opacity="1"/></g></svg>