<svg xmlns="http://www.w3.org/2000/svg" xmlns:xlink="http://www.w3.org/1999/xlink" fill="none" version="1.1" width="24" height="24" viewBox="0 0 24 24"><defs><clipPath id="master_svg0_3_1718"><rect x="0" y="0" width="24" height="24" rx="0"/></clipPath></defs><g clip-path="url(#master_svg0_3_1718)"><path d="M5.99997784921875,4.800006103515625C5.99997784921875,4.481746973515625,5.87355784921875,4.176522133515625,5.64850974921875,3.951477703515625C5.4234616492187495,3.726434513515625,5.11824154921875,3.600006103515626,4.799977549218751,3.600006103515625C4.48172544921875,3.600006103515626,4.17649354921875,3.726434513515625,3.95145754921875,3.951477703515625C3.72640954921875,4.176522133515625,3.59997984921875,4.481746973515625,3.59997984921875,4.800006103515625C3.59997984921875,4.800006103515625,3.59997984921875,13.521606403515625,3.59997984921875,13.521606403515625C3.2351618392187502,13.732254103515626,2.93221830921875,14.035231103515626,2.72159426921875,14.400055103515625C2.51096964921875,14.764891103515625,2.40008544921875,15.178735103515624,2.40008544921875,15.600006103515625C2.4000854492187504,16.021327103515624,2.51096964921875,16.435086103515623,2.72159426921875,16.800007103515625C2.93221830921875,17.164806103515623,3.2351618392187502,17.467807103515625,3.59997984921875,17.678407103515624C3.59997984921875,17.678407103515624,3.59997984921875,19.200006103515626,3.59997984921875,19.200006103515626C3.59997984921875,19.518247103515627,3.72640954921875,19.823526103515626,3.95145754921875,20.048527103515625C4.17649354921875,20.273527103515626,4.48172544921875,20.400007103515627,4.799977549218751,20.400007103515627C5.11824154921875,20.400007103515627,5.4234616492187495,20.273527103515626,5.64850974921875,20.048527103515625C5.87355784921875,19.823526103515626,5.99997784921875,19.518247103515627,5.99997784921875,19.200006103515626C5.99997784921875,19.200006103515626,5.99997784921875,17.678407103515624,5.99997784921875,17.678407103515624C6.36480164921875,17.467807103515625,6.66774174921875,17.164806103515623,6.87836554921875,16.800007103515625C7.08898974921875,16.435086103515623,7.19986964921875,16.021327103515624,7.19986964921875,15.600006103515625C7.19986964921875,15.178735103515624,7.08898974921875,14.764891103515625,6.87836554921875,14.400055103515625C6.66774174921875,14.035231103515626,6.36480164921875,13.732254103515626,5.99997784921875,13.521606403515625C5.99997784921875,13.521606403515625,5.99997784921875,4.800006103515625,5.99997784921875,4.800006103515625C5.99997784921875,4.800006103515625,5.99997784921875,4.800006103515625,5.99997784921875,4.800006103515625ZM13.19997744921875,4.800006103515625C13.19997744921875,4.481746973515625,13.07355744921875,4.176522133515625,12.84850944921875,3.951477703515625C12.62346144921875,3.726434513515625,12.31824204921875,3.600006103515626,11.99997804921875,3.600006103515625C11.68172644921875,3.600006103515626,11.37649344921875,3.726434513515625,11.15145774921875,3.951477703515625C10.92640974921875,4.176522133515625,10.79997734921875,4.481746973515625,10.79997734921875,4.800006103515625C10.79997734921875,4.800006103515625,10.79997734921875,6.321606203515625,10.79997734921875,6.321606203515625C10.43516544921875,6.532254203515625,10.13221354921875,6.8352301035156255,9.921589849218751,7.200054403515625C9.71096564921875,7.564890103515625,9.60008574921875,7.978734503515625,9.60008574921875,8.400006303515624C9.60008574921875,8.821278103515624,9.71096564921875,9.235122203515626,9.921589849218751,9.599958403515625C10.13221354921875,9.964782203515625,10.43516544921875,10.267758403515625,10.79997734921875,10.478406403515624C10.79997734921875,10.478406403515624,10.79997734921875,19.200006103515626,10.79997734921875,19.200006103515626C10.79997734921875,19.518247103515627,10.92640974921875,19.823526103515626,11.15145774921875,20.048527103515625C11.37649344921875,20.273527103515626,11.68172644921875,20.400007103515627,11.99997804921875,20.400007103515627C12.31824204921875,20.400007103515627,12.62346144921875,20.273527103515626,12.84850944921875,20.048527103515625C13.07355744921875,19.823526103515626,13.19997744921875,19.518247103515627,13.19997744921875,19.200006103515626C13.19997744921875,19.200006103515626,13.19997744921875,10.478406403515624,13.19997744921875,10.478406403515624C13.56480244921875,10.267758403515625,13.86774244921875,9.964782203515625,14.07836644921875,9.599958403515625C14.28899044921875,9.235122203515626,14.39986944921875,8.821278103515624,14.39986944921875,8.400006303515624C14.39986944921875,7.978734503515625,14.28899044921875,7.564890103515625,14.07836644921875,7.200054403515625C13.86774244921875,6.8352301035156255,13.56480244921875,6.532254203515625,13.19997744921875,6.321606203515625C13.19997744921875,6.321606203515625,13.19997744921875,4.800006103515625,13.19997744921875,4.800006103515625C13.19997744921875,4.800006103515625,13.19997744921875,4.800006103515625,13.19997744921875,4.800006103515625ZM19.19996644921875,3.600006103515625C19.51820544921875,3.6000061035156254,19.82348644921875,3.726434513515625,20.04848644921875,3.951477703515625C20.27360544921875,4.176522133515625,20.39996544921875,4.481746973515625,20.39996544921875,4.800006103515625C20.39996544921875,4.800006103515625,20.39996544921875,13.521606403515625,20.39996544921875,13.521606403515625C20.76476644921875,13.732254103515626,21.06776644921875,14.035231103515626,21.27836644921875,14.400055103515625C21.48896644921875,14.764891103515625,21.59984544921875,15.178735103515624,21.59984544921875,15.600006103515625C21.59984544921875,16.021327103515624,21.48896644921875,16.435086103515623,21.27836644921875,16.800007103515625C21.06776644921875,17.164806103515623,20.76476644921875,17.467807103515625,20.39996544921875,17.678407103515624C20.39996544921875,17.678407103515624,20.39996544921875,19.200006103515626,20.39996544921875,19.200006103515626C20.39996544921875,19.518247103515627,20.27360544921875,19.823526103515626,20.04848644921875,20.048527103515625C19.82348644921875,20.273527103515626,19.51820544921875,20.400007103515627,19.19996644921875,20.400007103515627C18.88172744921875,20.400007103515627,18.57644644921875,20.273527103515626,18.35144644921875,20.048527103515625C18.12644544921875,19.823526103515626,17.99996544921875,19.518247103515627,17.99996544921875,19.200006103515626C17.99996544921875,19.200006103515626,17.99996544921875,17.678407103515624,17.99996544921875,17.678407103515624C17.63516644921875,17.467807103515625,17.33216644921875,17.164806103515623,17.12156644921875,16.800007103515625C16.91096544921875,16.435086103515623,16.80008644921875,16.021327103515624,16.80008644921875,15.600006103515625C16.80008644921875,15.178735103515624,16.91096544921875,14.764891103515625,17.12156644921875,14.400055103515625C17.33216644921875,14.035231103515626,17.63516644921875,13.732254103515626,17.99996544921875,13.521606403515625C17.99996544921875,13.521606403515625,17.99996544921875,4.800006103515625,17.99996544921875,4.800006103515625C17.99996544921875,4.481746973515625,18.12644544921875,4.176522133515625,18.35144644921875,3.951477703515625C18.57644644921875,3.726434513515625,18.88172744921875,3.6000061035156254,19.19996644921875,3.600006103515625C19.19996644921875,3.600006103515625,19.19996644921875,3.600006103515625,19.19996644921875,3.600006103515625C19.19996644921875,3.600006103515625,19.19996644921875,3.600006103515625,19.19996644921875,3.600006103515625Z" fill="#0A0A28" fill-opacity="1"/></g></svg>