<svg xmlns="http://www.w3.org/2000/svg" xmlns:xlink="http://www.w3.org/1999/xlink" fill="none" version="1.1" width="24" height="24" viewBox="0 0 24 24"><defs><clipPath id="master_svg0_3_1998"><rect x="0" y="0" width="24" height="24" rx="0"/></clipPath></defs><g clip-path="url(#master_svg0_3_1998)"><path d="M7,7C6.4477201,7,6,7.4477201,6,8C6,8.5522799,6.4477201,9,7,9C7,9,7,7,7,7C7,7,7,7,7,7ZM17,9C17.552300000000002,9,18,8.5522799,18,8C18,7.4477201,17.552300000000002,7,17,7C17,7,17,9,17,9C17,9,17,9,17,9ZM7,11C6.4477201,11,6,11.4477201,6,12C6,12.55229,6.4477201,13,7,13C7,13,7,11,7,11C7,11,7,11,7,11ZM11,13C11.55229,13,12,12.55229,12,12C12,11.4477201,11.55229,11,11,11C11,11,11,13,11,13C11,13,11,13,11,13ZM12,20C12,20,11.2928896,20.7071,11.2928896,20.7071C11.6834202,21.097601,12.3165798,21.097601,12.7071104,20.7071C12.7071104,20.7071,12,20,12,20C12,20,12,20,12,20ZM8,16C8,16,8.707109899999999,15.2929,8.707109899999999,15.2929C8.5195699,15.1054,8.2652202,15,8,15C8,15,8,16,8,16C8,16,8,16,8,16ZM3,14C3,14,2,14,2,14C2,14,3,14,3,14C3,14,3,14,3,14ZM5,4C5,4,5,3,5,3C5,3,5,4,5,4C5,4,5,4,5,4ZM19,4C19,4,19,3,19,3C19,3,19,4,19,4C19,4,19,4,19,4ZM16,16C16,16,16,15,16,15C15.7348,15,15.4804,15.1054,15.2929,15.2929C15.2929,15.2929,16,16,16,16C16,16,16,16,16,16ZM7,9C7,9,17,9,17,9C17,9,17,7,17,7C17,7,7,7,7,7C7,7,7,9,7,9C7,9,7,9,7,9ZM7,13C7,13,11,13,11,13C11,13,11,11,11,11C11,11,7,11,7,11C7,11,7,13,7,13C7,13,7,13,7,13ZM12.7071104,19.2929C12.7071104,19.2929,8.707109899999999,15.2929,8.707109899999999,15.2929C8.707109899999999,15.2929,7.2928901,16.7071,7.2928901,16.7071C7.2928901,16.7071,11.2928896,20.7071,11.2928896,20.7071C11.2928896,20.7071,12.7071104,19.2929,12.7071104,19.2929C12.7071104,19.2929,12.7071104,19.2929,12.7071104,19.2929ZM8,15C8,15,5,15,5,15C5,15,5,17,5,17C5,17,8,17,8,17C8,17,8,15,8,15C8,15,8,15,8,15ZM5,15C4.73478,15,4.48043,14.8946,4.29289,14.7071C4.29289,14.7071,2.87868,16.121299999999998,2.87868,16.121299999999998C3.44128799,16.6839,4.20435,17,5,17C5,17,5,15,5,15C5,15,5,15,5,15ZM4.29289,14.7071C4.10536,14.5196,4,14.2652,4,14C4,14,2,14,2,14C2,14.7956,2.3160700199999997,15.5587,2.87868,16.121299999999998C2.87868,16.121299999999998,4.29289,14.7071,4.29289,14.7071C4.29289,14.7071,4.29289,14.7071,4.29289,14.7071ZM4,14C4,14,4,6,4,6C4,6,2,6,2,6C2,6,2,14,2,14C2,14,4,14,4,14C4,14,4,14,4,14ZM4,6C4,5.73478,4.10536,5.48043,4.29289,5.29289C4.29289,5.29289,2.87868,3.87868,2.87868,3.87868C2.3160700199999997,4.44128901,2,5.20435,2,6C2,6,4,6,4,6C4,6,4,6,4,6ZM4.29289,5.29289C4.48043,5.10536,4.73478,5,5,5C5,5,5,3,5,3C4.20435,3,3.44128901,3.3160700199999997,2.87868,3.87868C2.87868,3.87868,4.29289,5.29289,4.29289,5.29289C4.29289,5.29289,4.29289,5.29289,4.29289,5.29289ZM5,5C5,5,19,5,19,5C19,5,19,3,19,3C19,3,5,3,5,3C5,3,5,5,5,5C5,5,5,5,5,5ZM19,5C19.2652,5,19.5196,5.10536,19.7071,5.29289C19.7071,5.29289,21.1213,3.87868,21.1213,3.87868C20.558701,3.3160700199999997,19.7957,3,19,3C19,3,19,5,19,5C19,5,19,5,19,5ZM19.7071,5.29289C19.8946,5.48043,20,5.73478,20,6C20,6,22,6,22,6C22,5.20435,21.683901,4.44128799,21.1213,3.87868C21.1213,3.87868,19.7071,5.29289,19.7071,5.29289C19.7071,5.29289,19.7071,5.29289,19.7071,5.29289ZM20,6C20,6,20,14,20,14C20,14,22,14,22,14C22,14,22,6,22,6C22,6,20,6,20,6C20,6,20,6,20,6ZM20,14C20,14.2652,19.8946,14.5196,19.7071,14.7071C19.7071,14.7071,21.1213,16.121299999999998,21.1213,16.121299999999998C21.683901,15.5587,22,14.7957,22,14C22,14,20,14,20,14C20,14,20,14,20,14ZM19.7071,14.7071C19.5196,14.8946,19.2652,15,19,15C19,15,19,17,19,17C19.7957,17,20.558701,16.6839,21.1213,16.121299999999998C21.1213,16.121299999999998,19.7071,14.7071,19.7071,14.7071C19.7071,14.7071,19.7071,14.7071,19.7071,14.7071ZM19,15C19,15,16,15,16,15C16,15,16,17,16,17C16,17,19,17,19,17C19,17,19,15,19,15C19,15,19,15,19,15ZM15.2929,15.2929C15.2929,15.2929,11.2928896,19.2929,11.2928896,19.2929C11.2928896,19.2929,12.7071104,20.7071,12.7071104,20.7071C12.7071104,20.7071,16.7071,16.7071,16.7071,16.7071C16.7071,16.7071,15.2929,15.2929,15.2929,15.2929C15.2929,15.2929,15.2929,15.2929,15.2929,15.2929Z" fill="#0A0A28" fill-opacity="1"/></g></svg>