<svg xmlns="http://www.w3.org/2000/svg" xmlns:xlink="http://www.w3.org/1999/xlink" fill="none" version="1.1" width="24" height="24" viewBox="0 0 24 24"><defs><clipPath id="master_svg0_3_1822"><rect x="0" y="0" width="24" height="24" rx="0"/></clipPath></defs><g clip-path="url(#master_svg0_3_1822)"><path d="M21.6000254140625,15.600006103515625C21.6000254140625,15.600006103515625,21.6000254140625,6.000006203515625,21.6000254140625,6.000006203515625C21.6000254140625,5.363490203515625,21.3471854140625,4.753037003515625,20.8970644140625,4.302949313515625C20.4469454140625,3.852862923515625,19.8365054140625,3.6000061035156254,19.2000254140625,3.600006103515625C19.2000254140625,3.600006103515625,4.8000245140625,3.600006103515625,4.8000245140625,3.600006103515625C4.1635085140625,3.6000061035156254,3.5530553140625,3.852862923515625,3.1029676240625,4.302949313515625C2.6528812340625,4.753037003515625,2.4000244140625004,5.363490203515625,2.4000244140625,6.000006203515625C2.4000244140625,6.000006203515625,2.4000244140625,15.600006103515625,2.4000244140625,15.600006103515625C2.4000244140625004,16.236487103515625,2.6528812340625,16.846927103515625,3.1029676240625,17.297047103515624C3.5530553140625,17.747167103515626,4.1635085140625,18.000007103515625,4.8000245140625,18.000007103515625C4.8000245140625,18.000007103515625,8.4000244140625,18.000007103515625,8.4000244140625,18.000007103515625C8.4000244140625,18.000007103515625,12.0000248140625,21.600006103515625,12.0000248140625,21.600006103515625C12.0000248140625,21.600006103515625,15.6000254140625,18.000007103515625,15.6000254140625,18.000007103515625C15.6000254140625,18.000007103515625,19.2000254140625,18.000007103515625,19.2000254140625,18.000007103515625C19.8365054140625,18.000007103515625,20.4469454140625,17.747167103515626,20.8970644140625,17.297047103515624C21.3471854140625,16.846927103515625,21.6000254140625,16.236487103515625,21.6000254140625,15.600006103515625C21.6000254140625,15.600006103515625,21.6000254140625,15.600006103515625,21.6000254140625,15.600006103515625ZM6.0000245140625,8.400006303515624C6.0000245140625,8.081742303515625,6.1264565140625,7.776522203515625,6.3514926140625,7.551474303515625C6.5765405140625,7.326438203515625,6.8817606140625,7.200006203515625,7.2000246140625,7.200006203515625C7.2000246140625,7.200006203515625,16.8000254140625,7.200006203515625,16.8000254140625,7.200006203515625C17.1182644140625,7.200006203515625,17.423544414062498,7.326438203515625,17.6485454140625,7.551474303515625C17.8735444140625,7.776522203515625,18.0000244140625,8.081742303515625,18.0000244140625,8.400006303515624C18.0000244140625,8.718270303515624,17.8735444140625,9.023489903515625,17.6485454140625,9.248538003515625C17.423544414062498,9.473574203515625,17.1182644140625,9.600006103515625,16.8000254140625,9.600006103515625C16.8000254140625,9.600006103515625,7.2000246140625,9.600006103515625,7.2000246140625,9.600006103515625C6.8817606140625,9.600006103515625,6.5765405140625,9.473574203515625,6.3514926140625,9.248538003515625C6.1264565140625,9.023489903515625,6.0000245140625,8.718270303515624,6.0000245140625,8.400006303515624C6.0000245140625,8.400006303515624,6.0000245140625,8.400006303515624,6.0000245140625,8.400006303515624ZM7.2000246140625,12.000006703515625C6.8817606140625,12.000006703515625,6.5765405140625,12.126438103515625,6.3514926140625,12.351474803515625C6.1264565140625,12.576522803515624,6.0000245140625,12.881742503515625,6.0000245140625,13.200006503515626C6.0000245140625,13.518270503515625,6.1264565140625,13.823491103515625,6.3514926140625,14.048539103515624C6.5765405140625,14.273575103515626,6.8817606140625,14.400006103515626,7.2000246140625,14.400006103515626C7.2000246140625,14.400006103515626,10.8000250140625,14.400006103515626,10.8000250140625,14.400006103515626C11.1182890140625,14.400006103515626,11.4235086140625,14.273575103515626,11.6485567140625,14.048539103515624C11.8735924140625,13.823491103515625,12.0000248140625,13.518270503515625,12.0000248140625,13.200006503515626C12.0000248140625,12.881742503515625,11.8735924140625,12.576522803515624,11.6485567140625,12.351474803515625C11.4235086140625,12.126438103515625,11.1182890140625,12.000006703515625,10.8000250140625,12.000006703515625C10.8000250140625,12.000006703515625,7.2000246140625,12.000006703515625,7.2000246140625,12.000006703515625C7.2000246140625,12.000006703515625,7.2000246140625,12.000006703515625,7.2000246140625,12.000006703515625Z" fill-rule="evenodd" fill="#0A0A28" fill-opacity="1"/></g></svg>