<svg xmlns="http://www.w3.org/2000/svg" xmlns:xlink="http://www.w3.org/1999/xlink" fill="none" version="1.1" width="24" height="24" viewBox="0 0 24 24"><defs><clipPath id="master_svg0_3_1586"><rect x="0" y="0" width="24" height="24" rx="0"/></clipPath></defs><g clip-path="url(#master_svg0_3_1586)"><path d="M4.8000245140625,3.600006103515625C4.1635085140625,3.6000061035156254,3.5530553140625,3.852862923515625,3.1029676240625,4.302949313515625C2.6528812340625,4.753037003515625,2.4000244140625004,5.363490203515625,2.4000244140625,6.000006203515625C2.4000244140625004,6.636522303515624,2.6528812340625,7.2469742035156255,3.1029676240625,7.697058203515625C3.5530553140625,8.147154303515624,4.1635085140625,8.400006303515624,4.8000245140625,8.400006303515624C4.8000245140625,8.400006303515624,19.2000254140625,8.400006303515624,19.2000254140625,8.400006303515624C19.8365054140625,8.400006303515624,20.4469454140625,8.147154303515624,20.8970644140625,7.697058203515625C21.3471854140625,7.2469742035156255,21.6000254140625,6.636522303515624,21.6000254140625,6.000006203515625C21.6000254140625,5.363490203515625,21.3471854140625,4.753037003515625,20.8970644140625,4.302949313515625C20.4469454140625,3.852862923515625,19.8365054140625,3.6000061035156254,19.2000254140625,3.600006103515625C19.2000254140625,3.600006103515625,4.8000245140625,3.600006103515625,4.8000245140625,3.600006103515625C4.8000245140625,3.600006103515625,4.8000245140625,3.600006103515625,4.8000245140625,3.600006103515625Z" fill="#0A0A28" fill-opacity="1"/><path d="M3.5999755859375,9.600006103515625C3.5999755859375,9.600006103515625,20.3999765859375,9.600006103515625,20.3999765859375,9.600006103515625C20.3999765859375,9.600006103515625,20.3999765859375,18.000006703515623,20.3999765859375,18.000006703515623C20.3999765859375,18.636522303515626,20.1471365859375,19.246974003515625,19.6970155859375,19.697059103515627C19.2468955859375,20.147155103515622,18.636456585937502,20.400006103515626,17.9999765859375,20.400006103515626C17.9999765859375,20.400006103515626,5.9999756859375,20.400006103515626,5.9999756859375,20.400006103515626C5.3634596859375,20.400006103515626,4.7530064859375,20.147155103515622,4.3029187959375,19.697059103515627C3.8528324059375,19.246974003515625,3.5999755859375004,18.636522303515626,3.5999755859375,18.000006703515623C3.5999755859375,18.000006703515623,3.5999755859375,9.600006103515625,3.5999755859375,9.600006103515625C3.5999755859375,9.600006103515625,3.5999755859375,9.600006103515625,3.5999755859375,9.600006103515625ZM9.5999755859375,13.200006203515624C9.5999755859375,12.881742203515625,9.726407985937499,12.576522103515625,9.9514441859375,12.351474303515625C10.1764921859375,12.126438103515625,10.4817118859375,12.000006203515625,10.7999758859375,12.000006203515625C10.7999758859375,12.000006203515625,13.1999759859375,12.000006203515625,13.1999759859375,12.000006203515625C13.5182399859375,12.000006203515625,13.8234605859375,12.126438103515625,14.0485085859375,12.351474303515625C14.2735445859375,12.576522103515625,14.3999755859375,12.881742203515625,14.3999755859375,13.200006203515624C14.3999755859375,13.518270303515624,14.2735445859375,13.823490603515625,14.0485085859375,14.048538203515626C13.8234605859375,14.273574303515625,13.5182399859375,14.400006303515624,13.1999759859375,14.400006303515624C13.1999759859375,14.400006303515624,10.7999758859375,14.400006303515624,10.7999758859375,14.400006303515624C10.4817118859375,14.400006303515624,10.1764921859375,14.273574303515625,9.9514441859375,14.048538203515626C9.726407985937499,13.823490603515625,9.5999755859375,13.518270303515624,9.5999755859375,13.200006203515624C9.5999755859375,13.200006203515624,9.5999755859375,13.200006203515624,9.5999755859375,13.200006203515624Z" fill-rule="evenodd" fill="#0A0A28" fill-opacity="1"/></g></svg>