<svg xmlns="http://www.w3.org/2000/svg" xmlns:xlink="http://www.w3.org/1999/xlink" fill="none" version="1.1" width="24" height="24" viewBox="0 0 24 24"><defs><clipPath id="master_svg0_3_1947"><rect x="0" y="0" width="24" height="24" rx="0"/></clipPath></defs><g clip-path="url(#master_svg0_3_1947)"><path d="M3,6C3,6,2,6,2,6C2,6,3,6,3,6C3,6,3,6,3,6ZM5,4C5,4,5,3,5,3C5,3,5,4,5,4C5,4,5,4,5,4ZM19,4C19,4,19,3,19,3C19,3,19,4,19,4C19,4,19,4,19,4ZM5,18C5,18,4,18,4,18C4,18,5,18,5,18C5,18,5,18,5,18ZM10,11C9.4477201,11,9,11.4477201,9,12C9,12.55229,9.4477201,13,10,13C10,13,10,11,10,11C10,11,10,11,10,11ZM14,13C14.5523,13,15,12.55229,15,12C15,11.4477201,14.5523,11,14,11C14,11,14,13,14,13C14,13,14,13,14,13ZM5,9C5,9,19,9,19,9C19,9,19,7,19,7C19,7,5,7,5,7C5,7,5,9,5,9C5,9,5,9,5,9ZM5,7C4.73478,7,4.48043,6.89464,4.29289,6.7071099C4.29289,6.7071099,2.87868,8.1213198,2.87868,8.1213198C3.44128901,8.683929899999999,4.20435,9,5,9C5,9,5,7,5,7C5,7,5,7,5,7ZM4.29289,6.7071099C4.10536,6.5195701,4,6.2652199,4,6C4,6,2,6,2,6C2,6.79565,2.3160700199999997,7.5587101,2.87868,8.1213198C2.87868,8.1213198,4.29289,6.7071099,4.29289,6.7071099C4.29289,6.7071099,4.29289,6.7071099,4.29289,6.7071099ZM4,6C4,5.73478,4.10536,5.48043,4.29289,5.29289C4.29289,5.29289,2.87868,3.87868,2.87868,3.87868C2.3160700199999997,4.44128901,2,5.20435,2,6C2,6,4,6,4,6C4,6,4,6,4,6ZM4.29289,5.29289C4.48043,5.10536,4.73478,5,5,5C5,5,5,3,5,3C4.20435,3,3.44128901,3.3160700199999997,2.87868,3.87868C2.87868,3.87868,4.29289,5.29289,4.29289,5.29289C4.29289,5.29289,4.29289,5.29289,4.29289,5.29289ZM5,5C5,5,19,5,19,5C19,5,19,3,19,3C19,3,5,3,5,3C5,3,5,5,5,5C5,5,5,5,5,5ZM19,5C19.2652,5,19.5196,5.10536,19.7071,5.29289C19.7071,5.29289,21.1213,3.87868,21.1213,3.87868C20.558701,3.3160700199999997,19.7957,3,19,3C19,3,19,5,19,5C19,5,19,5,19,5ZM19.7071,5.29289C19.8946,5.48043,20,5.73478,20,6C20,6,22,6,22,6C22,5.20435,21.683901,4.44128799,21.1213,3.87868C21.1213,3.87868,19.7071,5.29289,19.7071,5.29289C19.7071,5.29289,19.7071,5.29289,19.7071,5.29289ZM20,6C20,6.2652199,19.8946,6.5195701,19.7071,6.7071099C19.7071,6.7071099,21.1213,8.1213198,21.1213,8.1213198C21.683901,7.5587101,22,6.79565,22,6C22,6,20,6,20,6C20,6,20,6,20,6ZM19.7071,6.7071099C19.5196,6.89464,19.2652,7,19,7C19,7,19,9,19,9C19.7957,9,20.558701,8.683929899999999,21.1213,8.1213198C21.1213,8.1213198,19.7071,6.7071099,19.7071,6.7071099C19.7071,6.7071099,19.7071,6.7071099,19.7071,6.7071099ZM4,8C4,8,4,18,4,18C4,18,6,18,6,18C6,18,6,8,6,8C6,8,4,8,4,8C4,8,4,8,4,8ZM4,18C4,18.7956,4.31607,19.5587,4.87868,20.1213C4.87868,20.1213,6.2928901,18.7071,6.2928901,18.7071C6.10536,18.5196,6,18.2652,6,18C6,18,4,18,4,18C4,18,4,18,4,18ZM4.87868,20.1213C5.4412899,20.683901,6.20435,21,7,21C7,21,7,19,7,19C6.7347801,19,6.4804299,18.8946,6.2928901,18.7071C6.2928901,18.7071,4.87868,20.1213,4.87868,20.1213C4.87868,20.1213,4.87868,20.1213,4.87868,20.1213ZM7,21C7,21,17,21,17,21C17,21,17,19,17,19C17,19,7,19,7,19C7,19,7,21,7,21C7,21,7,21,7,21ZM17,21C17.7957,21,18.5587,20.683901,19.1213,20.1213C19.1213,20.1213,17.7071,18.7071,17.7071,18.7071C17.5196,18.8946,17.2652,19,17,19C17,19,17,21,17,21C17,21,17,21,17,21ZM19.1213,20.1213C19.683901,19.5587,20,18.7957,20,18C20,18,18,18,18,18C18,18.2652,17.8946,18.5196,17.7071,18.7071C17.7071,18.7071,19.1213,20.1213,19.1213,20.1213C19.1213,20.1213,19.1213,20.1213,19.1213,20.1213ZM20,18C20,18,20,8,20,8C20,8,18,8,18,8C18,8,18,18,18,18C18,18,20,18,20,18C20,18,20,18,20,18ZM10,13C10,13,14,13,14,13C14,13,14,11,14,11C14,11,10,11,10,11C10,11,10,13,10,13C10,13,10,13,10,13Z" fill="#0A0A28" fill-opacity="1"/></g></svg>