<svg xmlns="http://www.w3.org/2000/svg" xmlns:xlink="http://www.w3.org/1999/xlink" fill="none" version="1.1" width="24" height="24" viewBox="0 0 24 24"><defs><clipPath id="master_svg0_3_2051"><rect x="0" y="0" width="24" height="24" rx="0"/></clipPath></defs><g clip-path="url(#master_svg0_3_2051)"><path d="M3,8C3,8.5522799,3.4477149799999998,9,4,9C4.55228502,9,5,8.5522799,5,8C5,8,3,8,3,8C3,8,3,8,3,8ZM5,4C5,3.4477149799999998,4.55228502,3,4,3C3.4477149799999998,3,3,3.4477149799999998,3,4C3,4,5,4,5,4C5,4,5,4,5,4ZM4,3C3.4477149799999998,3,3,3.4477149799999998,3,4C3,4.55228502,3.4477149799999998,5,4,5C4,5,4,3,4,3C4,3,4,3,4,3ZM8,5C8.5522799,5,9,4.55228502,9,4C9,3.4477149799999998,8.5522799,3,8,3C8,3,8,5,8,5C8,5,8,5,8,5ZM4.70710701,3.29289299C4.31658301,2.90237,3.68341699,2.90237,3.29289299,3.29289299C2.90237,3.68341699,2.90237,4.31658301,3.29289299,4.70710701C3.29289299,4.70710701,4.70710701,3.29289299,4.70710701,3.29289299C4.70710701,3.29289299,4.70710701,3.29289299,4.70710701,3.29289299ZM8.292890100000001,9.707109899999999C8.6834202,10.097629999999999,9.3165798,10.097629999999999,9.707109899999999,9.707109899999999C10.097629999999999,9.3165798,10.097629999999999,8.6834202,9.707109899999999,8.292890100000001C9.707109899999999,8.292890100000001,8.292890100000001,9.707109899999999,8.292890100000001,9.707109899999999C8.292890100000001,9.707109899999999,8.292890100000001,9.707109899999999,8.292890100000001,9.707109899999999ZM19,8C19,8.5522799,19.447699999999998,9,20,9C20.552299,9,21,8.5522799,21,8C21,8,19,8,19,8C19,8,19,8,19,8ZM21,4C21,3.4477149799999998,20.552299,3,20,3C19.447699999999998,3,19,3.4477149799999998,19,4C19,4,21,4,21,4C21,4,21,4,21,4ZM20,5C20.552299,5,21,4.55228502,21,4C21,3.4477149799999998,20.552299,3,20,3C20,3,20,5,20,5C20,5,20,5,20,5ZM16,3C15.4477,3,15,3.4477149799999998,15,4C15,4.55228502,15.4477,5,16,5C16,5,16,3,16,3C16,3,16,3,16,3ZM20.7071,4.70710701C21.097601,4.31658301,21.097601,3.68341699,20.7071,3.29289299C20.316601,2.90237,19.6834,2.90237,19.2929,3.29289299C19.2929,3.29289299,20.7071,4.70710701,20.7071,4.70710701C20.7071,4.70710701,20.7071,4.70710701,20.7071,4.70710701ZM14.2929,8.292890100000001C13.9023705,8.6834202,13.9023705,9.3165798,14.2929,9.707109899999999C14.6834,10.097629999999999,15.3166,10.097629999999999,15.7071,9.707109899999999C15.7071,9.707109899999999,14.2929,8.292890100000001,14.2929,8.292890100000001C14.2929,8.292890100000001,14.2929,8.292890100000001,14.2929,8.292890100000001ZM5,16C5,15.4477,4.55228502,15,4,15C3.4477149799999998,15,3,15.4477,3,16C3,16,5,16,5,16C5,16,5,16,5,16ZM3,20C3,20.552299,3.4477149799999998,21,4,21C4.55228502,21,5,20.552299,5,20C5,20,3,20,3,20C3,20,3,20,3,20ZM4,19C3.4477149799999998,19,3,19.447699999999998,3,20C3,20.552299,3.4477149799999998,21,4,21C4,21,4,19,4,19C4,19,4,19,4,19ZM8,21C8.5522799,21,9,20.552299,9,20C9,19.447699999999998,8.5522799,19,8,19C8,19,8,21,8,21C8,21,8,21,8,21ZM3.29289299,19.2929C2.90237,19.6834,2.90237,20.316601,3.29289299,20.7071C3.68341699,21.097601,4.31658301,21.097601,4.70710701,20.7071C4.70710701,20.7071,3.29289299,19.2929,3.29289299,19.2929C3.29289299,19.2929,3.29289299,19.2929,3.29289299,19.2929ZM9.707109899999999,15.7071C10.097629999999999,15.3166,10.097629999999999,14.6834,9.707109899999999,14.2929C9.3165798,13.9023705,8.6834202,13.9023705,8.292890100000001,14.2929C8.292890100000001,14.2929,9.707109899999999,15.7071,9.707109899999999,15.7071C9.707109899999999,15.7071,9.707109899999999,15.7071,9.707109899999999,15.7071ZM19.2929,20.7071C19.6834,21.097601,20.316601,21.097601,20.7071,20.7071C21.097601,20.316601,21.097601,19.6834,20.7071,19.2929C20.7071,19.2929,19.2929,20.7071,19.2929,20.7071C19.2929,20.7071,19.2929,20.7071,19.2929,20.7071ZM15.7071,14.2929C15.3166,13.9023705,14.6834,13.9023705,14.2929,14.2929C13.9023705,14.6834,13.9023705,15.3166,14.2929,15.7071C14.2929,15.7071,15.7071,14.2929,15.7071,14.2929C15.7071,14.2929,15.7071,14.2929,15.7071,14.2929ZM19,20C19,20.552299,19.447699999999998,21,20,21C20.552299,21,21,20.552299,21,20C21,20,19,20,19,20C19,20,19,20,19,20ZM21,16C21,15.4477,20.552299,15,20,15C19.447699999999998,15,19,15.4477,19,16C19,16,21,16,21,16C21,16,21,16,21,16ZM20,21C20.552299,21,21,20.552299,21,20C21,19.447699999999998,20.552299,19,20,19C20,19,20,21,20,21C20,21,20,21,20,21ZM16,19C15.4477,19,15,19.447699999999998,15,20C15,20.552299,15.4477,21,16,21C16,21,16,19,16,19C16,19,16,19,16,19ZM5,8C5,8,5,4,5,4C5,4,3,4,3,4C3,4,3,8,3,8C3,8,5,8,5,8C5,8,5,8,5,8ZM3,4C3,4,3,8,3,8C3,8,5,8,5,8C5,8,5,4,5,4C5,4,3,4,3,4C3,4,3,4,3,4ZM4,5C4,5,8,5,8,5C8,5,8,3,8,3C8,3,4,3,4,3C4,3,4,5,4,5C4,5,4,5,4,5ZM8,3C8,3,4,3,4,3C4,3,4,5,4,5C4,5,8,5,8,5C8,5,8,3,8,3C8,3,8,3,8,3ZM3.29289299,4.70710701C3.29289299,4.70710701,8.292890100000001,9.707109899999999,8.292890100000001,9.707109899999999C8.292890100000001,9.707109899999999,9.707109899999999,8.292890100000001,9.707109899999999,8.292890100000001C9.707109899999999,8.292890100000001,4.70710701,3.29289299,4.70710701,3.29289299C4.70710701,3.29289299,3.29289299,4.70710701,3.29289299,4.70710701C3.29289299,4.70710701,3.29289299,4.70710701,3.29289299,4.70710701ZM9.707109899999999,8.292890100000001C9.707109899999999,8.292890100000001,4.70710701,3.29289299,4.70710701,3.29289299C4.70710701,3.29289299,3.29289299,4.70710701,3.29289299,4.70710701C3.29289299,4.70710701,8.292890100000001,9.707109899999999,8.292890100000001,9.707109899999999C8.292890100000001,9.707109899999999,9.707109899999999,8.292890100000001,9.707109899999999,8.292890100000001C9.707109899999999,8.292890100000001,9.707109899999999,8.292890100000001,9.707109899999999,8.292890100000001ZM21,8C21,8,21,4,21,4C21,4,19,4,19,4C19,4,19,8,19,8C19,8,21,8,21,8C21,8,21,8,21,8ZM19,4C19,4,19,8,19,8C19,8,21,8,21,8C21,8,21,4,21,4C21,4,19,4,19,4C19,4,19,4,19,4ZM20,3C20,3,16,3,16,3C16,3,16,5,16,5C16,5,20,5,20,5C20,5,20,3,20,3C20,3,20,3,20,3ZM16,5C16,5,20,5,20,5C20,5,20,3,20,3C20,3,16,3,16,3C16,3,16,5,16,5C16,5,16,5,16,5ZM19.2929,3.29289299C19.2929,3.29289299,14.2929,8.292890100000001,14.2929,8.292890100000001C14.2929,8.292890100000001,15.7071,9.707109899999999,15.7071,9.707109899999999C15.7071,9.707109899999999,20.7071,4.70710701,20.7071,4.70710701C20.7071,4.70710701,19.2929,3.29289299,19.2929,3.29289299C19.2929,3.29289299,19.2929,3.29289299,19.2929,3.29289299ZM15.7071,9.707109899999999C15.7071,9.707109899999999,20.7071,4.70710701,20.7071,4.70710701C20.7071,4.70710701,19.2929,3.29289299,19.2929,3.29289299C19.2929,3.29289299,14.2929,8.292890100000001,14.2929,8.292890100000001C14.2929,8.292890100000001,15.7071,9.707109899999999,15.7071,9.707109899999999C15.7071,9.707109899999999,15.7071,9.707109899999999,15.7071,9.707109899999999ZM3,16C3,16,3,20,3,20C3,20,5,20,5,20C5,20,5,16,5,16C5,16,3,16,3,16C3,16,3,16,3,16ZM5,20C5,20,5,16,5,16C5,16,3,16,3,16C3,16,3,20,3,20C3,20,5,20,5,20C5,20,5,20,5,20ZM4,21C4,21,8,21,8,21C8,21,8,19,8,19C8,19,4,19,4,19C4,19,4,21,4,21C4,21,4,21,4,21ZM8,19C8,19,4,19,4,19C4,19,4,21,4,21C4,21,8,21,8,21C8,21,8,19,8,19C8,19,8,19,8,19ZM4.70710701,20.7071C4.70710701,20.7071,9.707109899999999,15.7071,9.707109899999999,15.7071C9.707109899999999,15.7071,8.292890100000001,14.2929,8.292890100000001,14.2929C8.292890100000001,14.2929,3.29289299,19.2929,3.29289299,19.2929C3.29289299,19.2929,4.70710701,20.7071,4.70710701,20.7071C4.70710701,20.7071,4.70710701,20.7071,4.70710701,20.7071ZM8.292890100000001,14.2929C8.292890100000001,14.2929,3.29289299,19.2929,3.29289299,19.2929C3.29289299,19.2929,4.70710701,20.7071,4.70710701,20.7071C4.70710701,20.7071,9.707109899999999,15.7071,9.707109899999999,15.7071C9.707109899999999,15.7071,8.292890100000001,14.2929,8.292890100000001,14.2929C8.292890100000001,14.2929,8.292890100000001,14.2929,8.292890100000001,14.2929ZM20.7071,19.2929C20.7071,19.2929,15.7071,14.2929,15.7071,14.2929C15.7071,14.2929,14.2929,15.7071,14.2929,15.7071C14.2929,15.7071,19.2929,20.7071,19.2929,20.7071C19.2929,20.7071,20.7071,19.2929,20.7071,19.2929C20.7071,19.2929,20.7071,19.2929,20.7071,19.2929ZM14.2929,15.7071C14.2929,15.7071,19.2929,20.7071,19.2929,20.7071C19.2929,20.7071,20.7071,19.2929,20.7071,19.2929C20.7071,19.2929,15.7071,14.2929,15.7071,14.2929C15.7071,14.2929,14.2929,15.7071,14.2929,15.7071C14.2929,15.7071,14.2929,15.7071,14.2929,15.7071ZM21,20C21,20,21,16,21,16C21,16,19,16,19,16C19,16,19,20,19,20C19,20,21,20,21,20C21,20,21,20,21,20ZM19,16C19,16,19,20,19,20C19,20,21,20,21,20C21,20,21,16,21,16C21,16,19,16,19,16C19,16,19,16,19,16ZM20,19C20,19,16,19,16,19C16,19,16,21,16,21C16,21,20,21,20,21C20,21,20,19,20,19C20,19,20,19,20,19Z" fill="#0A0A28" fill-opacity="1"/></g></svg>