<svg xmlns="http://www.w3.org/2000/svg" xmlns:xlink="http://www.w3.org/1999/xlink" fill="none" version="1.1" width="24" height="24" viewBox="0 0 24 24"><defs><clipPath id="master_svg0_3_2078"><rect x="0" y="0" width="24" height="24" rx="0"/></clipPath></defs><g clip-path="url(#master_svg0_3_2078)"><path d="M6.2928901,16.707110399999998C6.6834199000000005,17.0976295,7.3165798,17.0976295,7.7071099,16.707110399999998C8.097629999999999,16.3165798,8.097629999999999,15.6834202,7.7071099,15.292890100000001C7.7071099,15.292890100000001,6.2928901,16.707110399999998,6.2928901,16.707110399999998C6.2928901,16.707110399999998,6.2928901,16.707110399999998,6.2928901,16.707110399999998ZM3.70710701,11.292890100000001C3.31658301,10.90237,2.68341699,10.90237,2.29289299,11.292890100000001C1.90237,11.6834199,1.90237,12.3165798,2.29289299,12.707109899999999C2.29289299,12.707109899999999,3.70710701,11.292890100000001,3.70710701,11.292890100000001C3.70710701,11.292890100000001,3.70710701,11.292890100000001,3.70710701,11.292890100000001ZM2.29289299,11.292890100000001C1.90237,11.6834199,1.90237,12.3165798,2.29289299,12.707109899999999C2.68341699,13.097629999999999,3.31658301,13.097629999999999,3.70710701,12.707109899999999C3.70710701,12.707109899999999,2.29289299,11.292890100000001,2.29289299,11.292890100000001C2.29289299,11.292890100000001,2.29289299,11.292890100000001,2.29289299,11.292890100000001ZM7.7071099,8.70710701C8.097629999999999,8.31658301,8.097629999999999,7.68341699,7.7071099,7.29289299C7.3165798,6.9023699999999995,6.6834199000000005,6.9023699999999995,6.2928901,7.29289299C6.2928901,7.29289299,7.7071099,8.70710701,7.7071099,8.70710701C7.7071099,8.70710701,7.7071099,8.70710701,7.7071099,8.70710701ZM3,11C2.4477149799999998,11,2,11.4477201,2,12C2,12.5522799,2.4477149799999998,13,3,13C3,13,3,11,3,11C3,11,3,11,3,11ZM21,13C21.552299,13,22,12.5522799,22,12C22,11.4477201,21.552299,11,21,11C21,11,21,13,21,13C21,13,21,13,21,13ZM7.7071099,15.292890100000001C7.7071099,15.292890100000001,3.70710701,11.292890100000001,3.70710701,11.292890100000001C3.70710701,11.292890100000001,2.29289299,12.707109899999999,2.29289299,12.707109899999999C2.29289299,12.707109899999999,6.2928901,16.707110399999998,6.2928901,16.707110399999998C6.2928901,16.707110399999998,7.7071099,15.292890100000001,7.7071099,15.292890100000001C7.7071099,15.292890100000001,7.7071099,15.292890100000001,7.7071099,15.292890100000001ZM2.29289299,12.707109899999999C2.29289299,12.707109899999999,6.2928901,16.707110399999998,6.2928901,16.707110399999998C6.2928901,16.707110399999998,7.7071099,15.292890100000001,7.7071099,15.292890100000001C7.7071099,15.292890100000001,3.70710701,11.292890100000001,3.70710701,11.292890100000001C3.70710701,11.292890100000001,2.29289299,12.707109899999999,2.29289299,12.707109899999999C2.29289299,12.707109899999999,2.29289299,12.707109899999999,2.29289299,12.707109899999999ZM3.70710701,12.707109899999999C3.70710701,12.707109899999999,7.7071099,8.70710701,7.7071099,8.70710701C7.7071099,8.70710701,6.2928901,7.29289299,6.2928901,7.29289299C6.2928901,7.29289299,2.29289299,11.292890100000001,2.29289299,11.292890100000001C2.29289299,11.292890100000001,3.70710701,12.707109899999999,3.70710701,12.707109899999999C3.70710701,12.707109899999999,3.70710701,12.707109899999999,3.70710701,12.707109899999999ZM6.2928901,7.29289299C6.2928901,7.29289299,2.29289299,11.292890100000001,2.29289299,11.292890100000001C2.29289299,11.292890100000001,3.70710701,12.707109899999999,3.70710701,12.707109899999999C3.70710701,12.707109899999999,7.7071099,8.70710701,7.7071099,8.70710701C7.7071099,8.70710701,6.2928901,7.29289299,6.2928901,7.29289299C6.2928901,7.29289299,6.2928901,7.29289299,6.2928901,7.29289299ZM3,13C3,13,21,13,21,13C21,13,21,11,21,11C21,11,3,11,3,11C3,11,3,13,3,13C3,13,3,13,3,13Z" fill="#0A0A28" fill-opacity="1"/></g></svg>