<svg xmlns="http://www.w3.org/2000/svg" xmlns:xlink="http://www.w3.org/1999/xlink" fill="none" version="1.1" width="24" height="24" viewBox="0 0 24 24"><defs><clipPath id="master_svg0_3_2126"><rect x="0" y="0" width="24" height="24" rx="0"/></clipPath></defs><g clip-path="url(#master_svg0_3_2126)"><path d="M11.999994296484376,21.599994896484375C14.546034896484375,21.599994896484375,16.987913896484375,20.588513896484375,18.788274896484374,18.788274896484374C20.588513896484375,16.987913896484375,21.599994896484375,14.546034896484375,21.599994896484375,11.999994296484376C21.599994896484375,9.453918496484375,20.588513896484375,7.012122196484375,18.788274896484374,5.211773896484376C16.987913896484375,3.411419896484375,14.546034896484375,2.3999938964843763,11.999994296484376,2.399993896484375C9.453918496484375,2.3999938964843768,7.012122196484375,3.411419896484375,5.211773896484376,5.211773896484376C3.411419896484375,7.012122196484375,2.399993896484377,9.453918496484375,2.399993896484375,11.999994296484376C2.3999938964843768,14.546034896484375,3.411419896484375,16.987913896484375,5.211773896484376,18.788274896484374C7.012122196484375,20.588513896484375,9.453918496484375,21.599994896484375,11.999994296484376,21.599994896484375C11.999994296484376,21.599994896484375,11.999994296484376,21.599994896484375,11.999994296484376,21.599994896484375C11.999994296484376,21.599994896484375,11.999994296484376,21.599994896484375,11.999994296484376,21.599994896484375ZM16.448393896484376,11.151594196484375C16.448393896484376,11.151594196484375,12.848393896484374,7.551594296484375,12.848393896484374,7.551594296484375C12.623358896484374,7.326629596484375,12.318185796484375,7.200245896484375,11.999994296484376,7.200245896484375C11.681801796484375,7.200245896484375,11.376629796484375,7.326629596484375,11.151594196484375,7.551594296484375C11.151594196484375,7.551594296484375,7.551594296484375,11.151594196484375,7.551594296484375,11.151594196484375C7.333002096484375,11.377914396484375,7.212053796484375,11.681034096484375,7.214790296484375,11.995674096484375C7.217513996484375,12.310314196484375,7.343718096484375,12.611285896484375,7.566210296484375,12.833777896484374C7.788701996484375,13.056270896484374,8.089673996484375,13.182473896484375,8.404314496484375,13.185197896484375C8.718954096484374,13.187934896484375,9.022074196484375,13.066985896484375,9.248393996484374,12.848393896484374C9.248393996484374,12.848393896484374,10.799994496484375,11.296793896484376,10.799994496484375,11.296793896484376C10.799994496484375,11.296793896484376,10.799994496484375,15.599994896484375,10.799994496484375,15.599994896484375C10.799994496484375,15.918233896484375,10.926425896484375,16.223514896484375,11.151462596484375,16.448513896484375C11.376510596484374,16.673513896484373,11.681730296484375,16.799994896484375,11.999994296484376,16.799994896484375C12.318258296484375,16.799994896484375,12.623478896484375,16.673513896484373,12.848526896484374,16.448513896484375C13.073562896484376,16.223514896484375,13.199993896484376,15.918233896484375,13.199993896484376,15.599994896484375C13.199993896484376,15.599994896484375,13.199993896484376,11.296793896484376,13.199993896484376,11.296793896484376C13.199993896484376,11.296793896484376,14.751594896484375,12.848393896484374,14.751594896484375,12.848393896484374C14.977913896484376,13.066985896484375,15.281033896484375,13.187934896484375,15.595674896484375,13.185197896484375C15.910314896484374,13.182473896484375,16.211274896484376,13.056270896484374,16.433754896484373,12.833777896484374C16.656234896484374,12.611285896484375,16.782474896484374,12.310314196484375,16.785235896484373,11.995674096484375C16.787993896484373,11.681034096484375,16.667034896484374,11.377914396484375,16.448393896484376,11.151594196484375C16.448393896484376,11.151594196484375,16.448393896484376,11.151594196484375,16.448393896484376,11.151594196484375C16.448393896484376,11.151594196484375,16.448393896484376,11.151594196484375,16.448393896484376,11.151594196484375Z" fill-rule="evenodd" fill="#0A0A28" fill-opacity="1"/></g></svg>