<svg xmlns="http://www.w3.org/2000/svg" xmlns:xlink="http://www.w3.org/1999/xlink" fill="none" version="1.1" width="24" height="24" viewBox="0 0 24 24"><defs><clipPath id="master_svg0_3_1802"><rect x="0" y="0" width="24" height="24" rx="0"/></clipPath></defs><g clip-path="url(#master_svg0_3_1802)"><path d="M17.7071,7.29289299C17.3166,6.9023699999999995,16.6834,6.9023699999999995,16.2929,7.29289299C15.9024,7.68341699,15.9024,8.31658301,16.2929,8.70710701C16.2929,8.70710701,17.7071,7.29289299,17.7071,7.29289299C17.7071,7.29289299,17.7071,7.29289299,17.7071,7.29289299ZM21,12C21,12,21.7071,12.707109899999999,21.7071,12.707109899999999C22.097601,12.3165798,22.097601,11.6834199,21.7071,11.292890100000001C21.7071,11.292890100000001,21,12,21,12C21,12,21,12,21,12ZM16.2929,15.292890100000001C15.9024,15.6834202,15.9024,16.3165798,16.2929,16.707110399999998C16.6834,17.0976295,17.3166,17.0976295,17.7071,16.707110399999998C17.7071,16.707110399999998,16.2929,15.292890100000001,16.2929,15.292890100000001C16.2929,15.292890100000001,16.2929,15.292890100000001,16.2929,15.292890100000001ZM3,11C2.4477149799999998,11,2,11.4477201,2,12C2,12.5522799,2.4477149799999998,13,3,13C3,13,3,11,3,11C3,11,3,11,3,11ZM16.2929,8.70710701C16.2929,8.70710701,20.2929,12.707109899999999,20.2929,12.707109899999999C20.2929,12.707109899999999,21.7071,11.292890100000001,21.7071,11.292890100000001C21.7071,11.292890100000001,17.7071,7.29289299,17.7071,7.29289299C17.7071,7.29289299,16.2929,8.70710701,16.2929,8.70710701C16.2929,8.70710701,16.2929,8.70710701,16.2929,8.70710701ZM20.2929,11.292890100000001C20.2929,11.292890100000001,16.2929,15.292890100000001,16.2929,15.292890100000001C16.2929,15.292890100000001,17.7071,16.707110399999998,17.7071,16.707110399999998C17.7071,16.707110399999998,21.7071,12.707109899999999,21.7071,12.707109899999999C21.7071,12.707109899999999,20.2929,11.292890100000001,20.2929,11.292890100000001C20.2929,11.292890100000001,20.2929,11.292890100000001,20.2929,11.292890100000001ZM21,11C21,11,3,11,3,11C3,11,3,13,3,13C3,13,21,13,21,13C21,13,21,11,21,11C21,11,21,11,21,11Z" fill="#0A0A28" fill-opacity="1"/></g></svg>