<svg xmlns="http://www.w3.org/2000/svg" xmlns:xlink="http://www.w3.org/1999/xlink" fill="none" version="1.1" width="24" height="24" viewBox="0 0 24 24"><defs><clipPath id="master_svg0_3_2232"><rect x="0" y="0" width="24" height="24" rx="0"/></clipPath></defs><g clip-path="url(#master_svg0_3_2232)"><path d="M19.7071,14.7071C20.0976,14.3166,20.0976,13.6834,19.7071,13.2929C19.3166,12.9023705,18.6834,12.9023705,18.2929,13.2929C18.2929,13.2929,19.7071,14.7071,19.7071,14.7071C19.7071,14.7071,19.7071,14.7071,19.7071,14.7071ZM12,21C12,21,11.292890100000001,21.7071,11.292890100000001,21.7071C11.6834202,22.097601,12.3165798,22.097601,12.707109899999999,21.7071C12.707109899999999,21.7071,12,21,12,21C12,21,12,21,12,21ZM5.70710701,13.2929C5.31658301,12.9023705,4.68341699,12.9023705,4.29289299,13.2929C3.90237,13.6834,3.90237,14.3166,4.29289299,14.7071C4.29289299,14.7071,5.70710701,13.2929,5.70710701,13.2929C5.70710701,13.2929,5.70710701,13.2929,5.70710701,13.2929ZM13,3C13,2.4477149799999998,12.5522799,2,12,2C11.4477201,2,11,2.4477149799999998,11,3C11,3,13,3,13,3C13,3,13,3,13,3ZM18.2929,13.2929C18.2929,13.2929,11.292890100000001,20.2929,11.292890100000001,20.2929C11.292890100000001,20.2929,12.707109899999999,21.7071,12.707109899999999,21.7071C12.707109899999999,21.7071,19.7071,14.7071,19.7071,14.7071C19.7071,14.7071,18.2929,13.2929,18.2929,13.2929C18.2929,13.2929,18.2929,13.2929,18.2929,13.2929ZM12.707109899999999,20.2929C12.707109899999999,20.2929,5.70710701,13.2929,5.70710701,13.2929C5.70710701,13.2929,4.29289299,14.7071,4.29289299,14.7071C4.29289299,14.7071,11.292890100000001,21.7071,11.292890100000001,21.7071C11.292890100000001,21.7071,12.707109899999999,20.2929,12.707109899999999,20.2929C12.707109899999999,20.2929,12.707109899999999,20.2929,12.707109899999999,20.2929ZM13,21C13,21,13,3,13,3C13,3,11,3,11,3C11,3,11,21,11,21C11,21,13,21,13,21C13,21,13,21,13,21Z" fill="#0A0A28" fill-opacity="1"/></g></svg>