<svg xmlns="http://www.w3.org/2000/svg" xmlns:xlink="http://www.w3.org/1999/xlink" fill="none" version="1.1" width="24" height="24" viewBox="0 0 24 24"><defs><clipPath id="master_svg0_3_1878"><rect x="0" y="0" width="24" height="24" rx="0"/></clipPath></defs><g clip-path="url(#master_svg0_3_1878)"><path d="M11.6484165546875,20.04838709375C11.4233808546875,20.27338809375,11.1182088546875,20.39974809375,10.8000173546875,20.39974809375C10.4818134546875,20.39974809375,10.1766409546875,20.27338809375,9.9516167546875,20.04838709375C9.9516167546875,20.04838709375,2.7516117646875,12.84839819375,2.7516117646875,12.84839819375C2.5266465546875,12.62336249375,2.4002685546875004,12.31820299375,2.4002685546875,11.99999809375C2.4002685546874996,11.68180659375,2.5266465546875,11.376634093749999,2.7516117646875,11.15159849375C2.7516117646875,11.15159849375,9.9516167546875,3.95160052375,9.9516167546875,3.95160052375C10.1779370546875,3.73301053375,10.4810571546875,3.61205734965,10.7956972546875,3.614791456872C11.1103248546875,3.61752555775,11.4113092546875,3.74372810375,11.6337890546875,3.96621769375C11.8562812546875,4.18870729375,11.9824848546875,4.48968291375,11.9852209546875,4.8043181937499995C11.9879569546875,5.11895809375,11.8669967546875,5.42207809375,11.6484165546875,5.648398193749999C11.6484165546875,5.648398193749999,6.4968166546875,10.79999829375,6.4968166546875,10.79999829375C6.4968166546875,10.79999829375,20.4000285546875,10.79999829375,20.4000285546875,10.79999829375C20.7182695546875,10.79999829375,21.0235485546875,10.92643019375,21.2485485546875,11.15147829375C21.4735485546875,11.37651439375,21.6000285546875,11.68174649375,21.6000285546875,11.99999809375C21.6000285546875,12.31826309375,21.4735485546875,12.62348269375,21.2485485546875,12.84853079375C21.0235485546875,13.07356639375,20.7182695546875,13.19999889375,20.4000285546875,13.19999889375C20.4000285546875,13.19999889375,6.4968166546875,13.19999889375,6.4968166546875,13.19999889375C6.4968166546875,13.19999889375,11.6484165546875,18.35158609375,11.6484165546875,18.35158609375C11.8733806546875,18.57658709375,11.9997529546875,18.88174609375,11.9997529546875,19.19998709375C11.9997529546875,19.51822709375,11.8733806546875,19.82338709375,11.6484165546875,20.04838709375C11.6484165546875,20.04838709375,11.6484165546875,20.04838709375,11.6484165546875,20.04838709375C11.6484165546875,20.04838709375,11.6484165546875,20.04838709375,11.6484165546875,20.04838709375Z" fill-rule="evenodd" fill="#0A0A28" fill-opacity="1"/></g></svg>