<svg xmlns="http://www.w3.org/2000/svg" xmlns:xlink="http://www.w3.org/1999/xlink" fill="none" version="1.1" width="24" height="24" viewBox="0 0 24 24"><defs><clipPath id="master_svg0_3_2193"><rect x="0" y="0" width="24" height="24" rx="0"/></clipPath></defs><g clip-path="url(#master_svg0_3_2193)"><path d="M10.448538303515626,8.751474403515626L7.697058203515625,6.000006203515625L9.600006103515625,6.000006203515625C10.262742503515625,6.000006203515625,10.800006403515624,5.462742103515625,10.800006403515624,4.800006103515625C10.800006403515624,4.137264133515625,10.262742503515625,3.600006103515625,9.600006103515625,3.600006103515625L4.800006103515625,3.600006103515625C4.637298103515625,3.600006103515625,4.482153713515625,3.632388703515625,4.340665343515625,3.691060550515625C4.199131313515625,3.749619703515625,4.066530133515625,3.836426513515625,3.951477703515625,3.951477703515625C3.717163423515625,4.185792143515625,3.600006103515625,4.493107373515625,3.600006103515625,4.800210103515625L3.600006103515625,9.600006103515625C3.600006103515625,10.262742503515625,4.137264133515625,10.800006403515624,4.800006103515625,10.800006403515624C5.462742103515625,10.800006403515624,6.000006203515625,10.262742503515625,6.000006203515625,9.600006103515625L6.000006203515625,7.697058203515625L8.751474403515626,10.448538303515626C9.220110403515626,10.917162403515626,9.979902303515626,10.917162403515626,10.448538303515626,10.448538303515626C10.917162403515626,9.979902303515626,10.917162403515626,9.220110403515626,10.448538303515626,8.751474403515626ZM13.200006503515626,4.800006103515625C13.200006503515626,5.462742103515625,13.737270103515625,6.000006203515625,14.400006103515626,6.000006203515625L16.302967103515627,6.000006203515625L13.551473603515625,8.751474403515626C13.082850503515624,9.220110403515626,13.082850503515624,9.979902303515626,13.551473603515625,10.448538303515626C14.020111103515625,10.917162403515626,14.779902103515624,10.917162403515626,15.248539103515625,10.448538303515626L18.000007103515625,7.697058203515625L18.000007103515625,9.600006103515625C18.000007103515625,10.262742503515625,18.537246103515624,10.800006403515624,19.200006103515626,10.800006403515624C19.862768103515624,10.800006403515624,20.400007103515627,10.262742503515625,20.400007103515627,9.600006103515625L20.400007103515627,4.796407303515625C20.399526103515626,4.641294103515625,20.369167103515625,4.486254153515625,20.308927103515625,4.340665343515625C20.250847103515625,4.200175343515625,20.164806103515627,4.068486123515625,20.051046103515624,3.954026523515625L20.046007103515624,3.948937323515625C19.931526103515626,3.835147303515625,19.799887103515626,3.749188913515625,19.659367103515624,3.691060662515625C19.517887103515626,3.632388826515625,19.362487103515626,3.600006103515625,19.199766103515625,3.600006103515625L14.400006103515626,3.600006103515625C13.737270103515625,3.600006103515625,13.200006503515626,4.137264133515625,13.200006503515626,4.800006103515625ZM4.800006103515625,13.200006503515626C4.137264133515625,13.200006503515626,3.600006103515625,13.737270103515625,3.600006103515625,14.400006103515626L3.600006103515625,19.200006103515626C3.600006103515625,19.362727103515624,3.632388703515625,19.517887103515626,3.691060550515625,19.659367103515624C3.749188913515625,19.799887103515626,3.835147303515625,19.931526103515626,3.948937323515625,20.046007103515624L3.954026523515625,20.051046103515624C4.064034103515625,20.160486103515623,4.195125703515625,20.248567103515626,4.340665343515625,20.308927103515625C4.481109733515625,20.367247103515624,4.635011003515625,20.399526103515626,4.796407303515625,20.400007103515627L9.600006103515625,20.400007103515627C10.262742503515625,20.400007103515627,10.800006403515624,19.862768103515624,10.800006403515624,19.200006103515626C10.800006403515624,18.537246103515624,10.262742503515625,18.000007103515625,9.600006103515625,18.000007103515625L7.697058203515625,18.000007103515625L10.448538303515626,15.248539103515625C10.917162403515626,14.779902103515624,10.917162403515626,14.020111103515625,10.448538303515626,13.551473603515625C9.979902303515626,13.082850503515624,9.220110403515626,13.082850503515624,8.751474403515626,13.551473603515625L6.000006203515625,16.302967103515627L6.000006203515625,14.400006103515626C6.000006203515625,13.737270103515625,5.462742103515625,13.200006503515626,4.800006103515625,13.200006503515626ZM13.200006503515626,19.200006103515626C13.200006503515626,19.862768103515624,13.737270103515625,20.400007103515627,14.400006103515626,20.400007103515627L19.200006103515626,20.400007103515627C19.362727103515624,20.400007103515627,19.517887103515626,20.367607103515624,19.659367103515624,20.308927103515625C19.799887103515626,20.250847103515625,19.931526103515626,20.164806103515627,20.046007103515624,20.051046103515624L20.051046103515624,20.046007103515624C20.160486103515623,19.935966103515625,20.248567103515626,19.804926103515626,20.308927103515625,19.659367103515624C20.367247103515624,19.518847103515625,20.399526103515626,19.365006103515626,20.400007103515627,19.203607103515623L20.400007103515627,14.400006103515626C20.400007103515627,13.737270103515625,19.862768103515624,13.200006503515626,19.200006103515626,13.200006503515626C18.537246103515624,13.200006503515626,18.000007103515625,13.737270103515625,18.000007103515625,14.400006103515626L18.000007103515625,16.302967103515627L15.248539103515625,13.551473603515625C14.779902103515624,13.082850503515624,14.020111103515625,13.082850503515624,13.551473603515625,13.551473603515625C13.082850503515624,14.020111103515625,13.082850503515624,14.779902103515624,13.551473603515625,15.248539103515625L16.302967103515627,18.000007103515625L14.400006103515626,18.000007103515625C13.737270103515625,18.000007103515625,13.200006503515626,18.537246103515624,13.200006503515626,19.200006103515626Z" fill-rule="evenodd" fill="#0A0A28" fill-opacity="1"/></g></svg>