<svg xmlns="http://www.w3.org/2000/svg" xmlns:xlink="http://www.w3.org/1999/xlink" fill="none" version="1.1" width="24" height="24" viewBox="0 0 24 24"><defs><clipPath id="master_svg0_3_1781"><rect x="0" y="0" width="24" height="24" rx="0"/></clipPath></defs><g clip-path="url(#master_svg0_3_1781)"><path d="M14.7071,4.29289299C14.3166,3.90237,13.6834,3.90237,13.2929,4.29289299C12.9023705,4.68341699,12.9023705,5.31658301,13.2929,5.70710701C13.2929,5.70710701,14.7071,4.29289299,14.7071,4.29289299C14.7071,4.29289299,14.7071,4.29289299,14.7071,4.29289299ZM21,12C21,12,21.7071,12.707109899999999,21.7071,12.707109899999999C22.097601,12.3165798,22.097601,11.6834202,21.7071,11.292890100000001C21.7071,11.292890100000001,21,12,21,12C21,12,21,12,21,12ZM13.2929,18.2929C12.9023705,18.6834,12.9023705,19.3166,13.2929,19.7071C13.6834,20.0976,14.3166,20.0976,14.7071,19.7071C14.7071,19.7071,13.2929,18.2929,13.2929,18.2929C13.2929,18.2929,13.2929,18.2929,13.2929,18.2929ZM3,11C2.4477149799999998,11,2,11.4477201,2,12C2,12.5522799,2.4477149799999998,13,3,13C3,13,3,11,3,11C3,11,3,11,3,11ZM13.2929,5.70710701C13.2929,5.70710701,20.2929,12.707109899999999,20.2929,12.707109899999999C20.2929,12.707109899999999,21.7071,11.292890100000001,21.7071,11.292890100000001C21.7071,11.292890100000001,14.7071,4.29289299,14.7071,4.29289299C14.7071,4.29289299,13.2929,5.70710701,13.2929,5.70710701C13.2929,5.70710701,13.2929,5.70710701,13.2929,5.70710701ZM20.2929,11.292890100000001C20.2929,11.292890100000001,13.2929,18.2929,13.2929,18.2929C13.2929,18.2929,14.7071,19.7071,14.7071,19.7071C14.7071,19.7071,21.7071,12.707109899999999,21.7071,12.707109899999999C21.7071,12.707109899999999,20.2929,11.292890100000001,20.2929,11.292890100000001C20.2929,11.292890100000001,20.2929,11.292890100000001,20.2929,11.292890100000001ZM21,11C21,11,3,11,3,11C3,11,3,13,3,13C3,13,21,13,21,13C21,13,21,11,21,11C21,11,21,11,21,11Z" fill="#0A0A28" fill-opacity="1"/></g></svg>