<svg xmlns="http://www.w3.org/2000/svg" xmlns:xlink="http://www.w3.org/1999/xlink" fill="none" version="1.1" width="24" height="24" viewBox="0 0 24 24"><defs><clipPath id="master_svg0_3_2261"><rect x="0" y="0" width="24" height="24" rx="0"/></clipPath></defs><g clip-path="url(#master_svg0_3_2261)"><path d="M10.292890100000001,15.707099761581421C10.6834202,16.09759976158142,11.3165798,16.09759976158142,11.7071104,15.707099761581421C12.0976295,15.31659976158142,12.0976295,14.683399761581422,11.7071104,14.29289976158142C11.7071104,14.29289976158142,10.292890100000001,15.707099761581421,10.292890100000001,15.707099761581421C10.292890100000001,15.707099761581421,10.292890100000001,15.707099761581421,10.292890100000001,15.707099761581421ZM8,11.999999761581421C8,11.999999761581421,7.2928901,11.292889361581421,7.2928901,11.292889361581421C6.9023699999999995,11.683419961581421,6.9023699999999995,12.31657956158142,7.2928901,12.70711016158142C7.2928901,12.70711016158142,8,11.999999761581421,8,11.999999761581421C8,11.999999761581421,8,11.999999761581421,8,11.999999761581421ZM11.7071104,9.70710966158142C12.0976295,9.31657956158142,12.0976295,8.683419961581421,11.7071104,8.292889861581422C11.3165798,7.902369761581421,10.6834202,7.902369761581421,10.292890100000001,8.292889861581422C10.292890100000001,8.292889861581422,11.7071104,9.70710966158142,11.7071104,9.70710966158142C11.7071104,9.70710966158142,11.7071104,9.70710966158142,11.7071104,9.70710966158142ZM16,12.999999761581421C16.552300000000002,12.999999761581421,17,12.55228976158142,17,11.999999761581421C17,11.447709761581422,16.552300000000002,10.999999761581421,16,10.999999761581421C16,10.999999761581421,16,12.999999761581421,16,12.999999761581421C16,12.999999761581421,16,12.999999761581421,16,12.999999761581421ZM12,2.999999761581421C12,2.999999761581421,12,1.999999761581421,12,1.999999761581421C12,1.999999761581421,12,2.999999761581421,12,2.999999761581421C12,2.999999761581421,12,2.999999761581421,12,2.999999761581421ZM21,11.999999761581421C21,11.999999761581421,20,11.999999761581421,20,11.999999761581421C20,11.999999761581421,21,11.999999761581421,21,11.999999761581421C21,11.999999761581421,21,11.999999761581421,21,11.999999761581421ZM12,20.99999976158142C12,20.99999976158142,12,19.99999976158142,12,19.99999976158142C12,19.99999976158142,12,20.99999976158142,12,20.99999976158142C12,20.99999976158142,12,20.99999976158142,12,20.99999976158142ZM11.7071104,14.29289976158142C11.7071104,14.29289976158142,8.707109899999999,11.292889361581421,8.707109899999999,11.292889361581421C8.707109899999999,11.292889361581421,7.2928901,12.70711016158142,7.2928901,12.70711016158142C7.2928901,12.70711016158142,10.292890100000001,15.707099761581421,10.292890100000001,15.707099761581421C10.292890100000001,15.707099761581421,11.7071104,14.29289976158142,11.7071104,14.29289976158142C11.7071104,14.29289976158142,11.7071104,14.29289976158142,11.7071104,14.29289976158142ZM8.707109899999999,12.70711016158142C8.707109899999999,12.70711016158142,11.7071104,9.70710966158142,11.7071104,9.70710966158142C11.7071104,9.70710966158142,10.292890100000001,8.292889861581422,10.292890100000001,8.292889861581422C10.292890100000001,8.292889861581422,7.2928901,11.292889361581421,7.2928901,11.292889361581421C7.2928901,11.292889361581421,8.707109899999999,12.70711016158142,8.707109899999999,12.70711016158142C8.707109899999999,12.70711016158142,8.707109899999999,12.70711016158142,8.707109899999999,12.70711016158142ZM8,12.999999761581421C8,12.999999761581421,16,12.999999761581421,16,12.999999761581421C16,12.999999761581421,16,10.999999761581421,16,10.999999761581421C16,10.999999761581421,8,10.999999761581421,8,10.999999761581421C8,10.999999761581421,8,12.999999761581421,8,12.999999761581421C8,12.999999761581421,8,12.999999761581421,8,12.999999761581421ZM4,11.999999761581421C4,10.94942976158142,4.20693,9.909139861581421,4.60896,8.938529761581421C4.60896,8.938529761581421,2.761205,8.173169861581421,2.761205,8.173169861581421C2.25865799,9.38641956158142,2,10.68677976158142,2,11.999999761581421C2,11.999999761581421,4,11.999999761581421,4,11.999999761581421C4,11.999999761581421,4,11.999999761581421,4,11.999999761581421ZM4.60896,8.938529761581421C5.0109999,7.967929561581421,5.60028,7.086009761581421,6.3431499,6.343149661581421C6.3431499,6.343149661581421,4.92893,4.928929761581421,4.92893,4.928929761581421C4.00035,5.857519861581421,3.26375201,6.95990966158142,2.761205,8.173169861581421C2.761205,8.173169861581421,4.60896,8.938529761581421,4.60896,8.938529761581421C4.60896,8.938529761581421,4.60896,8.938529761581421,4.60896,8.938529761581421ZM6.3431499,6.343149661581421C7.08601,5.600279761581421,7.9679298,5.010999661581421,8.93853,4.608959761581421C8.93853,4.608959761581421,8.1731701,2.761204761581421,8.1731701,2.761204761581421C6.9599098999999995,3.263751771581421,5.8575201,4.000349761581421,4.92893,4.928929761581421C4.92893,4.928929761581421,6.3431499,6.343149661581421,6.3431499,6.343149661581421C6.3431499,6.343149661581421,6.3431499,6.343149661581421,6.3431499,6.343149661581421ZM8.93853,4.608959761581421C9.9091401,4.206929761581421,10.94943,3.999999761581421,12,3.999999761581421C12,3.999999761581421,12,1.999999761581421,12,1.999999761581421C10.686779999999999,1.999999761581421,9.386419799999999,2.258657751581421,8.1731701,2.761204761581421C8.1731701,2.761204761581421,8.93853,4.608959761581421,8.93853,4.608959761581421C8.93853,4.608959761581421,8.93853,4.608959761581421,8.93853,4.608959761581421ZM12,3.999999761581421C13.0506,3.999999761581421,14.0909,4.206929761581421,15.0615,4.608959761581421C15.0615,4.608959761581421,15.8268,2.761204761581421,15.8268,2.761204761581421C14.6136,2.258657751581421,13.3132,1.999999761581421,12,1.999999761581421C12,1.999999761581421,12,3.999999761581421,12,3.999999761581421C12,3.999999761581421,12,3.999999761581421,12,3.999999761581421ZM15.0615,4.608959761581421C16.0321,5.010999661581421,16.914,5.600279761581421,17.6569,6.343149661581421C17.6569,6.343149661581421,19.0711,4.928929761581421,19.0711,4.928929761581421C18.1425,4.000349761581421,17.040100000000002,3.263751771581421,15.8268,2.761204761581421C15.8268,2.761204761581421,15.0615,4.608959761581421,15.0615,4.608959761581421C15.0615,4.608959761581421,15.0615,4.608959761581421,15.0615,4.608959761581421ZM17.6569,6.343149661581421C18.3997,7.086019761581421,18.989,7.967929561581421,19.391001,8.938529761581421C19.391001,8.938529761581421,21.2388,8.173169861581421,21.2388,8.173169861581421C20.7362,6.95990966158142,19.999701,5.857519861581421,19.0711,4.928929761581421C19.0711,4.928929761581421,17.6569,6.343149661581421,17.6569,6.343149661581421C17.6569,6.343149661581421,17.6569,6.343149661581421,17.6569,6.343149661581421ZM19.391001,8.938529761581421C19.7931,9.909139861581421,20,10.94941976158142,20,11.999999761581421C20,11.999999761581421,22,11.999999761581421,22,11.999999761581421C22,10.68677976158142,21.741301,9.38641956158142,21.2388,8.173169861581421C21.2388,8.173169861581421,19.391001,8.938529761581421,19.391001,8.938529761581421C19.391001,8.938529761581421,19.391001,8.938529761581421,19.391001,8.938529761581421ZM20,11.999999761581421C20,14.121699761581421,19.157101,16.15659976158142,17.6569,17.65689976158142C17.6569,17.65689976158142,19.0711,19.071099761581422,19.0711,19.071099761581422C20.9464,17.195699761581423,22,14.652199761581421,22,11.999999761581421C22,11.999999761581421,20,11.999999761581421,20,11.999999761581421C20,11.999999761581421,20,11.999999761581421,20,11.999999761581421ZM17.6569,17.65689976158142C16.156599999999997,19.15710076158142,14.1217,19.99999976158142,12,19.99999976158142C12,19.99999976158142,12,21.99999976158142,12,21.99999976158142C14.6522,21.99999976158142,17.195700000000002,20.94639976158142,19.0711,19.071099761581422C19.0711,19.071099761581422,17.6569,17.65689976158142,17.6569,17.65689976158142C17.6569,17.65689976158142,17.6569,17.65689976158142,17.6569,17.65689976158142ZM12,19.99999976158142C9.8782701,19.99999976158142,7.8434401,19.15710076158142,6.3431499,17.65689976158142C6.3431499,17.65689976158142,4.92893,19.071099761581422,4.92893,19.071099761581422C6.8043001,20.94639976158142,9.3478398,21.99999976158142,12,21.99999976158142C12,21.99999976158142,12,19.99999976158142,12,19.99999976158142C12,19.99999976158142,12,19.99999976158142,12,19.99999976158142ZM6.3431499,17.65689976158142C4.84285,16.15659976158142,4,14.121699761581421,4,11.999999761581421C4,11.999999761581421,2,11.999999761581421,2,11.999999761581421C2,14.652199761581421,3.0535683,17.195699761581423,4.92893,19.071099761581422C4.92893,19.071099761581422,6.3431499,17.65689976158142,6.3431499,17.65689976158142C6.3431499,17.65689976158142,6.3431499,17.65689976158142,6.3431499,17.65689976158142Z" fill="#0A0A28" fill-opacity="1"/></g></svg>