<svg xmlns="http://www.w3.org/2000/svg" xmlns:xlink="http://www.w3.org/1999/xlink" fill="none" version="1.1" width="24" height="24" viewBox="0 0 24 24"><defs><clipPath id="master_svg0_3_2295"><rect x="0" y="0" width="24" height="24" rx="0"/></clipPath></defs><g clip-path="url(#master_svg0_3_2295)"><path d="M12.0000248140625,21.599994896484375C14.5460654140625,21.599994896484375,16.9879444140625,20.588513896484375,18.7883054140625,18.788274896484374C20.5885444140625,16.987913896484375,21.6000254140625,14.546034896484375,21.6000254140625,11.999994296484376C21.6000254140625,9.453918496484375,20.5885444140625,7.012122196484375,18.7883054140625,5.211773896484376C16.9879444140625,3.411419896484375,14.5460654140625,2.3999938964843763,12.0000248140625,2.399993896484375C9.4539490140625,2.3999938964843768,7.0121527140625,3.411419896484375,5.211804414062501,5.211773896484376C3.4114504140625,7.012122196484375,2.400024414062502,9.453918496484375,2.4000244140625,11.999994296484376C2.4000244140625018,14.546034896484375,3.4114504140625,16.987913896484375,5.211804414062501,18.788274896484374C7.0121527140625,20.588513896484375,9.4539490140625,21.599994896484375,12.0000248140625,21.599994896484375C12.0000248140625,21.599994896484375,12.0000248140625,21.599994896484375,12.0000248140625,21.599994896484375C12.0000248140625,21.599994896484375,12.0000248140625,21.599994896484375,12.0000248140625,21.599994896484375ZM13.2000244140625,8.399993896484375C13.2000244140625,8.081729896484376,13.0735934140625,7.776510196484375,12.8485574140625,7.551462196484375C12.6235094140625,7.326425996484375,12.3182888140625,7.199994096484375,12.0000248140625,7.199994096484375C11.6817608140625,7.199994096484375,11.3765411140625,7.326425996484375,11.1514931140625,7.551462196484375C10.9264564140625,7.776510196484375,10.8000250140625,8.081729896484376,10.8000250140625,8.399993896484375C10.8000250140625,8.399993896484375,10.8000250140625,12.703194896484375,10.8000250140625,12.703194896484375C10.8000250140625,12.703194896484375,9.2484245140625,11.151594196484375,9.2484245140625,11.151594196484375C9.0221047140625,10.933002496484375,8.7189846140625,10.812053696484375,8.4043450140625,10.814790696484375C8.0897045140625,10.817514396484375,7.7887325140625,10.943717996484375,7.5662408140625,11.166210196484375C7.3437486140625,11.388702396484375,7.2175445140625,11.689674396484374,7.2148208140625,12.004314396484375C7.2120843140625,12.318954496484375,7.3330326140625,12.622073896484375,7.5516248140625,12.848393896484374C7.5516248140625,12.848393896484374,11.1516247140625,16.448393896484376,11.1516247140625,16.448393896484376C11.3766603140625,16.673393896484377,11.6818323140625,16.799753896484376,12.0000248140625,16.799753896484376C12.3182163140625,16.799753896484376,12.6233894140625,16.673393896484377,12.8484244140625,16.448393896484376C12.8484244140625,16.448393896484376,16.4484244140625,12.848393896484374,16.4484244140625,12.848393896484374C16.6670654140625,12.622073896484375,16.788024414062498,12.318954496484375,16.785266414062498,12.004314396484375C16.7825054140625,11.689674396484374,16.6562654140625,11.388702396484375,16.4337854140625,11.166210196484375C16.2113054140625,10.943717996484375,15.9103454140625,10.817514396484375,15.5957054140625,10.814790696484375C15.2810644140625,10.812053696484375,14.9779444140625,10.933002496484375,14.7516254140625,11.151594196484375C14.7516254140625,11.151594196484375,13.2000244140625,12.703194896484375,13.2000244140625,12.703194896484375C13.2000244140625,12.703194896484375,13.2000244140625,8.399993896484375,13.2000244140625,8.399993896484375C13.2000244140625,8.399993896484375,13.2000244140625,8.399993896484375,13.2000244140625,8.399993896484375Z" fill-rule="evenodd" fill="#0A0A28" fill-opacity="1"/></g></svg>