<svg xmlns="http://www.w3.org/2000/svg" xmlns:xlink="http://www.w3.org/1999/xlink" fill="none" version="1.1" width="24" height="24" viewBox="0 0 24 24"><defs><clipPath id="master_svg0_3_1870"><rect x="0" y="0" width="24" height="24" rx="0"/></clipPath></defs><g clip-path="url(#master_svg0_3_1870)"><path d="M4.29289299,9.292890100000001C3.90237,9.6834202,3.90237,10.3165798,4.29289299,10.707109899999999C4.68341699,11.0976295,5.31658301,11.0976295,5.70710701,10.707109899999999C5.70710701,10.707109899999999,4.29289299,9.292890100000001,4.29289299,9.292890100000001C4.29289299,9.292890100000001,4.29289299,9.292890100000001,4.29289299,9.292890100000001ZM12,3C12,3,12.707109899999999,2.29289299,12.707109899999999,2.29289299C12.3165798,1.90237,11.6834202,1.90237,11.292890100000001,2.29289299C11.292890100000001,2.29289299,12,3,12,3C12,3,12,3,12,3ZM18.2929,10.707109899999999C18.6834,11.0976295,19.3166,11.0976295,19.7071,10.707109899999999C20.0976,10.3165798,20.0976,9.6834202,19.7071,9.292890100000001C19.7071,9.292890100000001,18.2929,10.707109899999999,18.2929,10.707109899999999C18.2929,10.707109899999999,18.2929,10.707109899999999,18.2929,10.707109899999999ZM11,21C11,21.552299,11.4477201,22,12,22C12.5522799,22,13,21.552299,13,21C13,21,11,21,11,21C11,21,11,21,11,21ZM5.70710701,10.707109899999999C5.70710701,10.707109899999999,12.707109899999999,3.70710701,12.707109899999999,3.70710701C12.707109899999999,3.70710701,11.292890100000001,2.29289299,11.292890100000001,2.29289299C11.292890100000001,2.29289299,4.29289299,9.292890100000001,4.29289299,9.292890100000001C4.29289299,9.292890100000001,5.70710701,10.707109899999999,5.70710701,10.707109899999999C5.70710701,10.707109899999999,5.70710701,10.707109899999999,5.70710701,10.707109899999999ZM11.292890100000001,3.70710701C11.292890100000001,3.70710701,18.2929,10.707109899999999,18.2929,10.707109899999999C18.2929,10.707109899999999,19.7071,9.292890100000001,19.7071,9.292890100000001C19.7071,9.292890100000001,12.707109899999999,2.29289299,12.707109899999999,2.29289299C12.707109899999999,2.29289299,11.292890100000001,3.70710701,11.292890100000001,3.70710701C11.292890100000001,3.70710701,11.292890100000001,3.70710701,11.292890100000001,3.70710701ZM11,3C11,3,11,21,11,21C11,21,13,21,13,21C13,21,13,3,13,3C13,3,11,3,11,3C11,3,11,3,11,3Z" fill="#0A0A28" fill-opacity="1"/></g></svg>