<svg xmlns="http://www.w3.org/2000/svg" xmlns:xlink="http://www.w3.org/1999/xlink" fill="none" version="1.1" width="24" height="24" viewBox="0 0 24 24"><defs><clipPath id="master_svg0_3_1572"><rect x="0" y="0" width="24" height="24" rx="0"/></clipPath></defs><g clip-path="url(#master_svg0_3_1572)"><path d="M12.3516254140625,3.951593454140625C12.5766604140625,3.726628244140625,12.8818334140625,3.6002502441406254,13.2000244140625,3.600250244140625C13.5182164140625,3.600250244140625,13.8233894140625,3.726628244140625,14.0484244140625,3.951593454140625C14.0484244140625,3.951593454140625,21.2484244140625,11.151598444140625,21.2484244140625,11.151598444140625C21.4734244140625,11.376622644140625,21.5997844140625,11.681795144140626,21.5997844140625,11.999999044140624C21.5997844140625,12.318190544140625,21.4734244140625,12.623362544140624,21.2484244140625,12.848398244140625C21.2484244140625,12.848398244140625,14.0484244140625,20.048412244140625,14.0484244140625,20.048412244140625C13.8221054140625,20.266931244140626,13.5189854140625,20.387892244140627,13.2043444140625,20.385252244140624C12.8897044140625,20.382490244140627,12.5887324140625,20.256250244140624,12.3662405140625,20.033771244140624C12.1437492140625,19.811290244140626,12.0175447140625,19.510331244140623,12.0148210140625,19.195690244140625C12.0120849140625,18.881051244140625,12.1330328140625,18.577930244140624,12.3516254140625,18.351611244140624C12.3516254140625,18.351611244140624,17.5032254140625,13.199998844140625,17.5032254140625,13.199998844140625C17.5032254140625,13.199998844140625,3.6000244140625,13.199998844140625,3.6000244140625,13.199998844140625C3.2817652840625,13.199998844140625,2.9765404440625,13.073566444140624,2.7514960140625,12.848518344140626C2.5264528240625,12.623482744140626,2.400024414062501,12.318250644140624,2.4000244140625,11.999999044140624C2.4000244140625004,11.681735044140625,2.5264528240625,11.376514444140625,2.7514960140625,11.151466344140626C2.9765404440625,10.926418744140625,3.2817652840625,10.799998744140625,3.6000244140625,10.799998744140625C3.6000244140625,10.799998744140625,17.5032254140625,10.799998744140625,17.5032254140625,10.799998744140625C17.5032254140625,10.799998744140625,12.3516254140625,5.648398444140625,12.3516254140625,5.648398444140625C12.1266603140625,5.4233623441406245,12.0002766140625,5.118190444140625,12.0002766140625,4.799993544140625C12.0002766140625,4.481796684140625,12.1266603140625,4.176627044140625,12.3516254140625,3.951593454140625C12.3516254140625,3.951593454140625,12.3516254140625,3.951593454140625,12.3516254140625,3.951593454140625C12.3516254140625,3.951593454140625,12.3516254140625,3.951593454140625,12.3516254140625,3.951593454140625Z" fill-rule="evenodd" fill="#0A0A28" fill-opacity="1"/></g></svg>