<svg xmlns="http://www.w3.org/2000/svg" xmlns:xlink="http://www.w3.org/1999/xlink" fill="none" version="1.1" width="24" height="24" viewBox="0 0 24 24"><defs><clipPath id="master_svg0_3_2199"><rect x="0" y="0" width="24" height="24" rx="0"/></clipPath></defs><g clip-path="url(#master_svg0_3_2199)"><path d="M9.2484168546875,17.648422507812498C9.0233807546875,17.873387507812502,8.718208754687499,17.9997715078125,8.400016754687499,17.9997715078125C8.081812854687499,17.9997715078125,7.7766408546875,17.873387507812502,7.5516166546875,17.648422507812498C7.5516166546875,17.648422507812498,2.7516117646875,12.8484225078125,2.7516117646875,12.8484225078125C2.5266465546875,12.623386907812499,2.4002685546875004,12.3182268078125,2.4002685546875,12.0000229078125C2.4002685546874996,11.6818304078125,2.5266465546875,11.3766584078125,2.7516117646875,11.151622807812501C2.7516117646875,11.151622807812501,7.5516166546875,6.3516249378125,7.5516166546875,6.3516249378125C7.7779369546875,6.1330355578125,8.0810570546875,6.0120817637125,8.3956966546875,6.0148158708145C8.7103247546875,6.0175499718125,9.011309154687499,6.1437525178125,9.233788954687501,6.3662433278125C9.456281154687499,6.5887329578125,9.5824847546875,6.8897073278125,9.585220854687499,7.2043438078125C9.587956954687499,7.5189825078125,9.466996654687499,7.8221025078125,9.2484168546875,8.0484226078125C9.2484168546875,8.0484226078125,6.4968166546875,10.800022607812501,6.4968166546875,10.800022607812501C6.4968166546875,10.800022607812501,20.4000285546875,10.800022607812501,20.4000285546875,10.800022607812501C20.7182695546875,10.800022607812501,21.0235485546875,10.926454507812501,21.2485485546875,11.1515026078125C21.4735485546875,11.3765387078125,21.6000285546875,11.6817703078125,21.6000285546875,12.0000229078125C21.6000285546875,12.3182869078125,21.4735485546875,12.6235065078125,21.2485485546875,12.848554607812499C21.0235485546875,13.0735907078125,20.7182695546875,13.2000227078125,20.4000285546875,13.2000227078125C20.4000285546875,13.2000227078125,6.4968166546875,13.2000227078125,6.4968166546875,13.2000227078125C6.4968166546875,13.2000227078125,9.2484168546875,15.9516230078125,9.2484168546875,15.9516230078125C9.4733805546875,16.176658507812498,9.5997528546875,16.4818315078125,9.5997528546875,16.8000235078125C9.5997528546875,17.1182265078125,9.4733805546875,17.4233875078125,9.2484168546875,17.648422507812498C9.2484168546875,17.648422507812498,9.2484168546875,17.648422507812498,9.2484168546875,17.648422507812498Z" fill-rule="evenodd" fill="#0A0A28" fill-opacity="1"/></g></svg>