<svg xmlns="http://www.w3.org/2000/svg" xmlns:xlink="http://www.w3.org/1999/xlink" fill="none" version="1.1" width="24" height="24" viewBox="0 0 24 24"><defs><clipPath id="master_svg0_3_2214"><rect x="0" y="0" width="24" height="24" rx="0"/></clipPath></defs><g clip-path="url(#master_svg0_3_2214)"><path d="M8.29289033841858,10.292890100000001C7.902370238418579,10.6834202,7.902370238418579,11.3165798,8.29289033841858,11.7071104C8.68342043841858,12.0976295,9.316580038418579,12.0976295,9.707110138418578,11.7071104C9.707110138418578,11.7071104,8.29289033841858,10.292890100000001,8.29289033841858,10.292890100000001C8.29289033841858,10.292890100000001,8.29289033841858,10.292890100000001,8.29289033841858,10.292890100000001ZM12.000000238418579,8C12.000000238418579,8,12.707110638418579,7.2928901,12.707110638418579,7.2928901C12.316580038418579,6.9023699999999995,11.68342043841858,6.9023699999999995,11.29288983841858,7.2928901C11.29288983841858,7.2928901,12.000000238418579,8,12.000000238418579,8C12.000000238418579,8,12.000000238418579,8,12.000000238418579,8ZM14.292900238418579,11.7071104C14.68340023841858,12.0976295,15.316600238418578,12.0976295,15.70710023841858,11.7071104C16.09760023841858,11.3165798,16.09760023841858,10.6834202,15.70710023841858,10.292890100000001C15.70710023841858,10.292890100000001,14.292900238418579,11.7071104,14.292900238418579,11.7071104C14.292900238418579,11.7071104,14.292900238418579,11.7071104,14.292900238418579,11.7071104ZM11.000000238418579,16C11.000000238418579,16.552300000000002,11.44771023841858,17,12.000000238418579,17C12.552290238418578,17,13.000000238418579,16.552300000000002,13.000000238418579,16C13.000000238418579,16,11.000000238418579,16,11.000000238418579,16C11.000000238418579,16,11.000000238418579,16,11.000000238418579,16ZM12.000000238418579,21C12.000000238418579,21,12.000000238418579,22,12.000000238418579,22C12.000000238418579,22,12.000000238418579,21,12.000000238418579,21C12.000000238418579,21,12.000000238418579,21,12.000000238418579,21ZM3.000000238418579,12C3.000000238418579,12,4.000000238418579,12,4.000000238418579,12C4.000000238418579,12,3.000000238418579,12,3.000000238418579,12C3.000000238418579,12,3.000000238418579,12,3.000000238418579,12ZM9.707110138418578,11.7071104C9.707110138418578,11.7071104,12.707110638418579,8.707109899999999,12.707110638418579,8.707109899999999C12.707110638418579,8.707109899999999,11.29288983841858,7.2928901,11.29288983841858,7.2928901C11.29288983841858,7.2928901,8.29289033841858,10.292890100000001,8.29289033841858,10.292890100000001C8.29289033841858,10.292890100000001,9.707110138418578,11.7071104,9.707110138418578,11.7071104C9.707110138418578,11.7071104,9.707110138418578,11.7071104,9.707110138418578,11.7071104ZM11.29288983841858,8.707109899999999C11.29288983841858,8.707109899999999,14.292900238418579,11.7071104,14.292900238418579,11.7071104C14.292900238418579,11.7071104,15.70710023841858,10.292890100000001,15.70710023841858,10.292890100000001C15.70710023841858,10.292890100000001,12.707110638418579,7.2928901,12.707110638418579,7.2928901C12.707110638418579,7.2928901,11.29288983841858,8.707109899999999,11.29288983841858,8.707109899999999C11.29288983841858,8.707109899999999,11.29288983841858,8.707109899999999,11.29288983841858,8.707109899999999ZM11.000000238418579,8C11.000000238418579,8,11.000000238418579,16,11.000000238418579,16C11.000000238418579,16,13.000000238418579,16,13.000000238418579,16C13.000000238418579,16,13.000000238418579,8,13.000000238418579,8C13.000000238418579,8,11.000000238418579,8,11.000000238418579,8C11.000000238418579,8,11.000000238418579,8,11.000000238418579,8ZM12.000000238418579,4C13.050600238418578,4,14.090900238418579,4.20693,15.06150023841858,4.60896C15.06150023841858,4.60896,15.82680023841858,2.761205,15.82680023841858,2.761205C14.613600238418579,2.25865799,13.31320023841858,2,12.000000238418579,2C12.000000238418579,2,12.000000238418579,4,12.000000238418579,4C12.000000238418579,4,12.000000238418579,4,12.000000238418579,4ZM15.06150023841858,4.60896C16.03210023841858,5.0109999,16.91400023841858,5.60028,17.65690023841858,6.3431499C17.65690023841858,6.3431499,19.07110023841858,4.92893,19.07110023841858,4.92893C18.142500238418577,4.00035,17.04010023841858,3.26375201,15.82680023841858,2.761205C15.82680023841858,2.761205,15.06150023841858,4.60896,15.06150023841858,4.60896C15.06150023841858,4.60896,15.06150023841858,4.60896,15.06150023841858,4.60896ZM17.65690023841858,6.3431499C18.39970023841858,7.08601,18.98900023841858,7.9679298,19.39100123841858,8.93853C19.39100123841858,8.93853,21.23880023841858,8.1731701,21.23880023841858,8.1731701C20.73620023841858,6.9599098999999995,19.99970123841858,5.8575201,19.07110023841858,4.92893C19.07110023841858,4.92893,17.65690023841858,6.3431499,17.65690023841858,6.3431499C17.65690023841858,6.3431499,17.65690023841858,6.3431499,17.65690023841858,6.3431499ZM19.39100123841858,8.93853C19.793100238418578,9.9091401,20.00000023841858,10.94942,20.00000023841858,12C20.00000023841858,12,22.00000023841858,12,22.00000023841858,12C22.00000023841858,10.686779999999999,21.74130123841858,9.386419799999999,21.23880023841858,8.1731701C21.23880023841858,8.1731701,19.39100123841858,8.93853,19.39100123841858,8.93853C19.39100123841858,8.93853,19.39100123841858,8.93853,19.39100123841858,8.93853ZM20.00000023841858,12C20.00000023841858,13.0506,19.793100238418578,14.0909,19.39100123841858,15.0615C19.39100123841858,15.0615,21.23880023841858,15.8268,21.23880023841858,15.8268C21.74130123841858,14.6136,22.00000023841858,13.3132,22.00000023841858,12C22.00000023841858,12,20.00000023841858,12,20.00000023841858,12C20.00000023841858,12,20.00000023841858,12,20.00000023841858,12ZM19.39100123841858,15.0615C18.98900023841858,16.0321,18.39970023841858,16.914,17.65690023841858,17.6569C17.65690023841858,17.6569,19.07110023841858,19.0711,19.07110023841858,19.0711C19.99970123841858,18.1425,20.73620023841858,17.040100000000002,21.23880023841858,15.8268C21.23880023841858,15.8268,19.39100123841858,15.0615,19.39100123841858,15.0615C19.39100123841858,15.0615,19.39100123841858,15.0615,19.39100123841858,15.0615ZM17.65690023841858,17.6569C16.91400023841858,18.3997,16.03210023841858,18.989,15.06150023841858,19.391001C15.06150023841858,19.391001,15.82680023841858,21.2388,15.82680023841858,21.2388C17.04010023841858,20.7362,18.142500238418577,19.999701,19.07110023841858,19.0711C19.07110023841858,19.0711,17.65690023841858,17.6569,17.65690023841858,17.6569C17.65690023841858,17.6569,17.65690023841858,17.6569,17.65690023841858,17.6569ZM15.06150023841858,19.391001C14.090900238418579,19.7931,13.050600238418578,20,12.000000238418579,20C12.000000238418579,20,12.000000238418579,22,12.000000238418579,22C13.31320023841858,22,14.613600238418579,21.741301,15.82680023841858,21.2388C15.82680023841858,21.2388,15.06150023841858,19.391001,15.06150023841858,19.391001C15.06150023841858,19.391001,15.06150023841858,19.391001,15.06150023841858,19.391001ZM12.000000238418579,20C9.878270338418579,20,7.843440338418579,19.157101,6.343150138418579,17.6569C6.343150138418579,17.6569,4.928930238418579,19.0711,4.928930238418579,19.0711C6.804300338418579,20.9464,9.347840038418578,22,12.000000238418579,22C12.000000238418579,22,12.000000238418579,20,12.000000238418579,20C12.000000238418579,20,12.000000238418579,20,12.000000238418579,20ZM6.343150138418579,17.6569C4.842850238418579,16.156599999999997,4.000000238418579,14.1217,4.000000238418579,12C4.000000238418579,12,2.000000238418579,12,2.000000238418579,12C2.000000238418579,14.6522,3.053568840418579,17.195700000000002,4.928930238418579,19.0711C4.928930238418579,19.0711,6.343150138418579,17.6569,6.343150138418579,17.6569C6.343150138418579,17.6569,6.343150138418579,17.6569,6.343150138418579,17.6569ZM4.000000238418579,12C4.000000238418579,9.8782701,4.842850238418579,7.8434401,6.343150138418579,6.3431499C6.343150138418579,6.3431499,4.928930238418579,4.92893,4.928930238418579,4.92893C3.053568739418579,6.8043001,2.000000238418579,9.3478398,2.000000238418579,12C2.000000238418579,12,4.000000238418579,12,4.000000238418579,12C4.000000238418579,12,4.000000238418579,12,4.000000238418579,12ZM6.343150138418579,6.3431499C7.843440338418579,4.84285,9.878270338418579,4,12.000000238418579,4C12.000000238418579,4,12.000000238418579,2,12.000000238418579,2C9.347840038418578,2,6.804300338418579,3.053568199,4.928930238418579,4.92893C4.928930238418579,4.92893,6.343150138418579,6.3431499,6.343150138418579,6.3431499C6.343150138418579,6.3431499,6.343150138418579,6.3431499,6.343150138418579,6.3431499Z" fill="#0A0A28" fill-opacity="1"/></g></svg>