<svg xmlns="http://www.w3.org/2000/svg" xmlns:xlink="http://www.w3.org/1999/xlink" fill="none" version="1.1" width="24" height="24" viewBox="0 0 24 24"><defs><clipPath id="master_svg0_3_1763"><rect x="0" y="0" width="24" height="24" rx="0"/></clipPath></defs><g clip-path="url(#master_svg0_3_1763)"><path d="M12.0000248140625,21.599994896484375C14.5460654140625,21.599994896484375,16.9879444140625,20.588513896484375,18.7883054140625,18.788274896484374C20.5885444140625,16.987913896484375,21.6000254140625,14.546034896484375,21.6000254140625,11.999994296484376C21.6000254140625,9.453918496484375,20.5885444140625,7.012122196484375,18.7883054140625,5.211773896484376C16.9879444140625,3.411419896484375,14.5460654140625,2.3999938964843763,12.0000248140625,2.399993896484375C9.4539490140625,2.3999938964843768,7.0121527140625,3.411419896484375,5.211804414062501,5.211773896484376C3.4114504140625,7.012122196484375,2.400024414062502,9.453918496484375,2.4000244140625,11.999994296484376C2.4000244140625018,14.546034896484375,3.4114504140625,16.987913896484375,5.211804414062501,18.788274896484374C7.0121527140625,20.588513896484375,9.4539490140625,21.599994896484375,12.0000248140625,21.599994896484375C12.0000248140625,21.599994896484375,12.0000248140625,21.599994896484375,12.0000248140625,21.599994896484375C12.0000248140625,21.599994896484375,12.0000248140625,21.599994896484375,12.0000248140625,21.599994896484375ZM12.8484244140625,9.248393996484374C13.0670164140625,9.022074196484375,13.1879654140625,8.718954096484374,13.1852284140625,8.404314496484375C13.1825044140625,8.089673996484375,13.0563014140625,7.788701996484375,12.8338084140625,7.566210296484375C12.6113164140625,7.343718096484375,12.3103447140625,7.217513996484375,11.9957046140625,7.214790296484375C11.6810646140625,7.212053796484375,11.3779449140625,7.333002096484375,11.1516247140625,7.551594296484375C11.1516247140625,7.551594296484375,7.5516248140625,11.151594196484375,7.5516248140625,11.151594196484375C7.3266601140625,11.376629796484375,7.2002764140625,11.681801796484375,7.2002764140625,11.999994296484376C7.2002764140625,12.318185796484375,7.3266601140625,12.623358896484374,7.5516248140625,12.848393896484374C7.5516248140625,12.848393896484374,11.1516247140625,16.448393896484376,11.1516247140625,16.448393896484376C11.3779449140625,16.667034896484374,11.6810646140625,16.787993896484373,11.9957046140625,16.785235896484373C12.3103447140625,16.782474896484374,12.6113164140625,16.656234896484374,12.8338084140625,16.433754896484373C13.0563014140625,16.211274896484376,13.1825044140625,15.910314896484374,13.1852284140625,15.595674896484375C13.1879654140625,15.281033896484375,13.0670164140625,14.977913896484376,12.8484244140625,14.751594896484375C12.8484244140625,14.751594896484375,11.2968244140625,13.199993896484376,11.2968244140625,13.199993896484376C11.2968244140625,13.199993896484376,15.6000254140625,13.199993896484376,15.6000254140625,13.199993896484376C15.9182644140625,13.199993896484376,16.2235454140625,13.073562896484376,16.4485444140625,12.848526896484374C16.673544414062498,12.623478896484375,16.8000254140625,12.318258296484375,16.8000254140625,11.999994296484376C16.8000254140625,11.681730296484375,16.673544414062498,11.376510596484374,16.4485444140625,11.151462596484375C16.2235454140625,10.926425896484375,15.9182644140625,10.799994496484375,15.6000254140625,10.799994496484375C15.6000254140625,10.799994496484375,11.2968244140625,10.799994496484375,11.2968244140625,10.799994496484375C11.2968244140625,10.799994496484375,12.8484244140625,9.248393996484374,12.8484244140625,9.248393996484374C12.8484244140625,9.248393996484374,12.8484244140625,9.248393996484374,12.8484244140625,9.248393996484374C12.8484244140625,9.248393996484374,12.8484244140625,9.248393996484374,12.8484244140625,9.248393996484374Z" fill-rule="evenodd" fill="#0A0A28" fill-opacity="1"/></g></svg>