<svg xmlns="http://www.w3.org/2000/svg" xmlns:xlink="http://www.w3.org/1999/xlink" fill="none" version="1.1" width="24" height="24" viewBox="0 0 24 24"><defs><clipPath id="master_svg0_3_1589"><rect x="0" y="0" width="24" height="24" rx="0"/></clipPath></defs><g clip-path="url(#master_svg0_3_1589)"><path d="M3.95162397171875,11.6484165546875C3.72665876171875,11.4233808546875,3.6002807617187504,11.1182088546875,3.60028076171875,10.8000173546875C3.6002807617187496,10.4818134546875,3.72665876171875,10.1766409546875,3.95162397171875,9.9516167546875C3.95162397171875,9.9516167546875,11.15162896171875,2.7516117646875,11.15162896171875,2.7516117646875C11.37665316171875,2.5266465546875,11.68182566171875,2.4002685546875004,12.00002956171875,2.4002685546875C12.31822106171875,2.4002685546875,12.62339306171875,2.5266465546875,12.84842876171875,2.7516117646875C12.84842876171875,2.7516117646875,20.04844276171875,9.9516167546875,20.04844276171875,9.9516167546875C20.26696176171875,10.1779370546875,20.38792276171875,10.4810571546875,20.38528276171875,10.7956972546875C20.38252076171875,11.1103248546875,20.25628076171875,11.4113092546875,20.03380176171875,11.6337890546875C19.81132076171875,11.8562812546875,19.510361761718748,11.9824848546875,19.19572076171875,11.9852209546875C18.88108176171875,11.9879569546875,18.57796076171875,11.8669967546875,18.35164176171875,11.6484165546875C18.35164176171875,11.6484165546875,13.20002936171875,6.4968166546875,13.20002936171875,6.4968166546875C13.20002936171875,6.4968166546875,13.20002936171875,20.4000285546875,13.20002936171875,20.4000285546875C13.20002936171875,20.7182695546875,13.07359696171875,21.0235485546875,12.84854886171875,21.2485485546875C12.62351326171875,21.4735485546875,12.31828116171875,21.6000285546875,12.00002956171875,21.6000285546875C11.68176556171875,21.6000285546875,11.37654496171875,21.4735485546875,11.151496861718751,21.2485485546875C10.92644926171875,21.0235485546875,10.80002926171875,20.7182695546875,10.80002926171875,20.4000285546875C10.80002926171875,20.4000285546875,10.80002926171875,6.4968166546875,10.80002926171875,6.4968166546875C10.80002926171875,6.4968166546875,5.64842896171875,11.6484165546875,5.64842896171875,11.6484165546875C5.4233928617187495,11.8733806546875,5.11822096171875,11.9997529546875,4.80002406171875,11.9997529546875C4.48182720171875,11.9997529546875,4.17665756171875,11.8733806546875,3.95162397171875,11.6484165546875C3.95162397171875,11.6484165546875,3.95162397171875,11.6484165546875,3.95162397171875,11.6484165546875C3.95162397171875,11.6484165546875,3.95162397171875,11.6484165546875,3.95162397171875,11.6484165546875Z" fill-rule="evenodd" fill="#0A0A28" fill-opacity="1"/></g></svg>