<svg xmlns="http://www.w3.org/2000/svg" xmlns:xlink="http://www.w3.org/1999/xlink" fill="none" version="1.1" width="24" height="24" viewBox="0 0 24 24"><defs><clipPath id="master_svg0_3_1945"><rect x="0" y="0" width="24" height="24" rx="0"/></clipPath></defs><g clip-path="url(#master_svg0_3_1945)"><path d="M15.707099761581421,13.7071C16.09759976158142,13.3166,16.09759976158142,12.6834202,15.707099761581421,12.2928896C15.31659976158142,11.9023705,14.683399761581422,11.9023705,14.29289976158142,12.2928896C14.29289976158142,12.2928896,15.707099761581421,13.7071,15.707099761581421,13.7071C15.707099761581421,13.7071,15.707099761581421,13.7071,15.707099761581421,13.7071ZM11.999999761581421,16C11.999999761581421,16,11.292889361581421,16.7071,11.292889361581421,16.7071C11.683419961581421,17.0976,12.31657956158142,17.0976,12.70711016158142,16.7071C12.70711016158142,16.7071,11.999999761581421,16,11.999999761581421,16C11.999999761581421,16,11.999999761581421,16,11.999999761581421,16ZM9.70710966158142,12.2928896C9.31657956158142,11.9023705,8.683419961581421,11.9023705,8.292889861581422,12.2928896C7.902369761581421,12.6834202,7.902369761581421,13.3166,8.292889861581422,13.7071C8.292889861581422,13.7071,9.70710966158142,12.2928896,9.70710966158142,12.2928896C9.70710966158142,12.2928896,9.70710966158142,12.2928896,9.70710966158142,12.2928896ZM12.999999761581421,8C12.999999761581421,7.4477201,12.55228976158142,7,11.999999761581421,7C11.447709761581422,7,10.999999761581421,7.4477201,10.999999761581421,8C10.999999761581421,8,12.999999761581421,8,12.999999761581421,8C12.999999761581421,8,12.999999761581421,8,12.999999761581421,8ZM2.999999761581421,12C2.999999761581421,12,1.999999761581421,12,1.999999761581421,12C1.999999761581421,12,2.999999761581421,12,2.999999761581421,12C2.999999761581421,12,2.999999761581421,12,2.999999761581421,12ZM11.999999761581421,3.000000000000001C11.999999761581421,3.000000000000001,11.999999761581421,4,11.999999761581421,4C11.999999761581421,4,11.999999761581421,3.000000000000001,11.999999761581421,3.000000000000001C11.999999761581421,3.000000000000001,11.999999761581421,3.000000000000001,11.999999761581421,3.000000000000001ZM20.99999976158142,12C20.99999976158142,12,19.99999976158142,12,19.99999976158142,12C19.99999976158142,12,20.99999976158142,12,20.99999976158142,12C20.99999976158142,12,20.99999976158142,12,20.99999976158142,12ZM14.29289976158142,12.2928896C14.29289976158142,12.2928896,11.292889361581421,15.2929,11.292889361581421,15.2929C11.292889361581421,15.2929,12.70711016158142,16.7071,12.70711016158142,16.7071C12.70711016158142,16.7071,15.707099761581421,13.7071,15.707099761581421,13.7071C15.707099761581421,13.7071,14.29289976158142,12.2928896,14.29289976158142,12.2928896C14.29289976158142,12.2928896,14.29289976158142,12.2928896,14.29289976158142,12.2928896ZM12.70711016158142,15.2929C12.70711016158142,15.2929,9.70710966158142,12.2928896,9.70710966158142,12.2928896C9.70710966158142,12.2928896,8.292889861581422,13.7071,8.292889861581422,13.7071C8.292889861581422,13.7071,11.292889361581421,16.7071,11.292889361581421,16.7071C11.292889361581421,16.7071,12.70711016158142,15.2929,12.70711016158142,15.2929C12.70711016158142,15.2929,12.70711016158142,15.2929,12.70711016158142,15.2929ZM12.999999761581421,16C12.999999761581421,16,12.999999761581421,8,12.999999761581421,8C12.999999761581421,8,10.999999761581421,8,10.999999761581421,8C10.999999761581421,8,10.999999761581421,16,10.999999761581421,16C10.999999761581421,16,12.999999761581421,16,12.999999761581421,16C12.999999761581421,16,12.999999761581421,16,12.999999761581421,16ZM11.999999761581421,20C10.94941976158142,20,9.909139861581421,19.7931,8.938529761581421,19.391001C8.938529761581421,19.391001,8.173169861581421,21.2388,8.173169861581421,21.2388C9.38641956158142,21.741301,10.68677976158142,22,11.999999761581421,22C11.999999761581421,22,11.999999761581421,20,11.999999761581421,20C11.999999761581421,20,11.999999761581421,20,11.999999761581421,20ZM8.938529761581421,19.391001C7.967929561581421,18.989,7.086019761581421,18.3997,6.343149661581421,17.6569C6.343149661581421,17.6569,4.928929761581421,19.0711,4.928929761581421,19.0711C5.857519861581421,19.999701,6.95990966158142,20.7362,8.173169861581421,21.2388C8.173169861581421,21.2388,8.938529761581421,19.391001,8.938529761581421,19.391001C8.938529761581421,19.391001,8.938529761581421,19.391001,8.938529761581421,19.391001ZM6.343149661581421,17.6569C5.600279761581421,16.914,5.010999661581421,16.0321,4.608959761581421,15.0615C4.608959761581421,15.0615,2.761204761581421,15.8268,2.761204761581421,15.8268C3.263751771581421,17.040100000000002,4.000349761581421,18.1425,4.928929761581421,19.0711C4.928929761581421,19.0711,6.343149661581421,17.6569,6.343149661581421,17.6569C6.343149661581421,17.6569,6.343149661581421,17.6569,6.343149661581421,17.6569ZM4.608959761581421,15.0615C4.206929761581421,14.0909,3.999999761581421,13.0506,3.999999761581421,12C3.999999761581421,12,1.999999761581421,12,1.999999761581421,12C1.999999761581421,13.3132,2.258657751581421,14.6136,2.761204761581421,15.8268C2.761204761581421,15.8268,4.608959761581421,15.0615,4.608959761581421,15.0615C4.608959761581421,15.0615,4.608959761581421,15.0615,4.608959761581421,15.0615ZM3.999999761581421,12C3.999999761581421,10.94943,4.206929761581421,9.9091401,4.608959761581421,8.93853C4.608959761581421,8.93853,2.761204761581421,8.1731701,2.761204761581421,8.1731701C2.258657751581421,9.386419799999999,1.999999761581421,10.686779999999999,1.999999761581421,12C1.999999761581421,12,3.999999761581421,12,3.999999761581421,12C3.999999761581421,12,3.999999761581421,12,3.999999761581421,12ZM4.608959761581421,8.93853C5.010999661581421,7.9679298,5.600279761581421,7.08601,6.343149661581421,6.3431499C6.343149661581421,6.3431499,4.928929761581421,4.92893,4.928929761581421,4.92893C4.000349761581421,5.8575201,3.263751771581421,6.9599098999999995,2.761204761581421,8.1731701C2.761204761581421,8.1731701,4.608959761581421,8.93853,4.608959761581421,8.93853C4.608959761581421,8.93853,4.608959761581421,8.93853,4.608959761581421,8.93853ZM6.343149661581421,6.3431499C7.086009761581421,5.60028,7.967929561581421,5.0109999,8.938529761581421,4.60896C8.938529761581421,4.60896,8.173169861581421,2.761205,8.173169861581421,2.761205C6.95990966158142,3.26375201,5.857519861581421,4.00035,4.928929761581421,4.92893C4.928929761581421,4.92893,6.343149661581421,6.3431499,6.343149661581421,6.3431499C6.343149661581421,6.3431499,6.343149661581421,6.3431499,6.343149661581421,6.3431499ZM8.938529761581421,4.60896C9.909139861581421,4.20693,10.94942976158142,4,11.999999761581421,4C11.999999761581421,4,11.999999761581421,2,11.999999761581421,2C10.68677976158142,2,9.38641956158142,2.25865799,8.173169861581421,2.761205C8.173169861581421,2.761205,8.938529761581421,4.60896,8.938529761581421,4.60896C8.938529761581421,4.60896,8.938529761581421,4.60896,8.938529761581421,4.60896ZM11.999999761581421,4C14.121699761581421,4,16.15659976158142,4.84285,17.65689976158142,6.3431499C17.65689976158142,6.3431499,19.071099761581422,4.92893,19.071099761581422,4.92893C17.195699761581423,3.0535683,14.652199761581421,2,11.999999761581421,2C11.999999761581421,2,11.999999761581421,4,11.999999761581421,4C11.999999761581421,4,11.999999761581421,4,11.999999761581421,4ZM17.65689976158142,6.3431499C19.15710076158142,7.8434401,19.99999976158142,9.8782701,19.99999976158142,12C19.99999976158142,12,21.99999976158142,12,21.99999976158142,12C21.99999976158142,9.3478398,20.94639976158142,6.8043001,19.071099761581422,4.92893C19.071099761581422,4.92893,17.65689976158142,6.3431499,17.65689976158142,6.3431499C17.65689976158142,6.3431499,17.65689976158142,6.3431499,17.65689976158142,6.3431499ZM19.99999976158142,12C19.99999976158142,14.1217,19.15710076158142,16.156599999999997,17.65689976158142,17.6569C17.65689976158142,17.6569,19.071099761581422,19.0711,19.071099761581422,19.0711C20.94639976158142,17.195700000000002,21.99999976158142,14.6522,21.99999976158142,12C21.99999976158142,12,19.99999976158142,12,19.99999976158142,12C19.99999976158142,12,19.99999976158142,12,19.99999976158142,12ZM17.65689976158142,17.6569C16.15659976158142,19.157101,14.121699761581421,20,11.999999761581421,20C11.999999761581421,20,11.999999761581421,22,11.999999761581421,22C14.652199761581421,22,17.195699761581423,20.9464,19.071099761581422,19.0711C19.071099761581422,19.0711,17.65689976158142,17.6569,17.65689976158142,17.6569C17.65689976158142,17.6569,17.65689976158142,17.6569,17.65689976158142,17.6569Z" fill="#0A0A28" fill-opacity="1"/></g></svg>