<svg xmlns="http://www.w3.org/2000/svg" xmlns:xlink="http://www.w3.org/1999/xlink" fill="none" version="1.1" width="24" height="24" viewBox="0 0 24 24"><defs><clipPath id="master_svg0_3_2017"><rect x="0" y="0" width="24" height="24" rx="0"/></clipPath></defs><g clip-path="url(#master_svg0_3_2017)"><path d="M7.29289299,6.2928901C6.9023699999999995,6.6834199000000005,6.9023699999999995,7.3165798,7.29289299,7.7071099C7.68341699,8.097629999999999,8.31658301,8.097629999999999,8.70710701,7.7071099C8.70710701,7.7071099,7.29289299,6.2928901,7.29289299,6.2928901C7.29289299,6.2928901,7.29289299,6.2928901,7.29289299,6.2928901ZM12,3C12,3,12.707109899999999,2.29289299,12.707109899999999,2.29289299C12.3165798,1.90237,11.6834199,1.90237,11.292890100000001,2.29289299C11.292890100000001,2.29289299,12,3,12,3C12,3,12,3,12,3ZM15.292890100000001,7.7071099C15.6834202,8.097629999999999,16.3165798,8.097629999999999,16.707110399999998,7.7071099C17.0976295,7.3165798,17.0976295,6.6834199000000005,16.707110399999998,6.2928901C16.707110399999998,6.2928901,15.292890100000001,7.7071099,15.292890100000001,7.7071099C15.292890100000001,7.7071099,15.292890100000001,7.7071099,15.292890100000001,7.7071099ZM11,21C11,21.552299,11.4477201,22,12,22C12.5522799,22,13,21.552299,13,21C13,21,11,21,11,21C11,21,11,21,11,21ZM8.70710701,7.7071099C8.70710701,7.7071099,12.707109899999999,3.70710701,12.707109899999999,3.70710701C12.707109899999999,3.70710701,11.292890100000001,2.29289299,11.292890100000001,2.29289299C11.292890100000001,2.29289299,7.29289299,6.2928901,7.29289299,6.2928901C7.29289299,6.2928901,8.70710701,7.7071099,8.70710701,7.7071099C8.70710701,7.7071099,8.70710701,7.7071099,8.70710701,7.7071099ZM11.292890100000001,3.70710701C11.292890100000001,3.70710701,15.292890100000001,7.7071099,15.292890100000001,7.7071099C15.292890100000001,7.7071099,16.707110399999998,6.2928901,16.707110399999998,6.2928901C16.707110399999998,6.2928901,12.707109899999999,2.29289299,12.707109899999999,2.29289299C12.707109899999999,2.29289299,11.292890100000001,3.70710701,11.292890100000001,3.70710701C11.292890100000001,3.70710701,11.292890100000001,3.70710701,11.292890100000001,3.70710701ZM11,3C11,3,11,21,11,21C11,21,13,21,13,21C13,21,13,3,13,3C13,3,11,3,11,3C11,3,11,3,11,3Z" fill="#0A0A28" fill-opacity="1"/></g></svg>