<svg xmlns="http://www.w3.org/2000/svg" xmlns:xlink="http://www.w3.org/1999/xlink" fill="none" version="1.1" width="24" height="24" viewBox="0 0 24 24"><defs><clipPath id="master_svg0_3_1633"><rect x="0" y="0" width="24" height="24" rx="0"/></clipPath></defs><g clip-path="url(#master_svg0_3_1633)"><path d="M11.999994296484376,21.599994896484375C14.546034896484375,21.599994896484375,16.987913896484375,20.588513896484375,18.788274896484374,18.788274896484374C20.588513896484375,16.987913896484375,21.599994896484375,14.546034896484375,21.599994896484375,11.999994296484376C21.599994896484375,9.453918496484375,20.588513896484375,7.012122196484375,18.788274896484374,5.211773896484376C16.987913896484375,3.411419896484375,14.546034896484375,2.3999938964843763,11.999994296484376,2.399993896484375C9.453918496484375,2.3999938964843768,7.012122196484375,3.411419896484375,5.211773896484376,5.211773896484376C3.411419896484375,7.012122196484375,2.399993896484377,9.453918496484375,2.399993896484375,11.999994296484376C2.3999938964843768,14.546034896484375,3.411419896484375,16.987913896484375,5.211773896484376,18.788274896484374C7.012122196484375,20.588513896484375,9.453918496484375,21.599994896484375,11.999994296484376,21.599994896484375C11.999994296484376,21.599994896484375,11.999994296484376,21.599994896484375,11.999994296484376,21.599994896484375C11.999994296484376,21.599994896484375,11.999994296484376,21.599994896484375,11.999994296484376,21.599994896484375ZM16.448393896484376,11.151594196484375C16.448393896484376,11.151594196484375,12.848393896484374,7.551594296484375,12.848393896484374,7.551594296484375C12.622073896484375,7.333002096484375,12.318954496484375,7.212053796484375,12.004314396484375,7.214790296484375C11.689674396484374,7.217513996484375,11.388702396484375,7.343718096484375,11.166210196484375,7.566210296484375C10.943717996484375,7.788701996484375,10.817514396484375,8.089673996484375,10.814790696484375,8.404314496484375C10.812053696484375,8.718954096484374,10.933002496484375,9.022074196484375,11.151594196484375,9.248393996484374C11.151594196484375,9.248393996484374,12.703194896484375,10.799994496484375,12.703194896484375,10.799994496484375C12.703194896484375,10.799994496484375,8.399993896484375,10.799994496484375,8.399993896484375,10.799994496484375C8.081729896484376,10.799994496484375,7.776510196484375,10.926425896484375,7.551462196484375,11.151462596484375C7.326425996484375,11.376510596484374,7.199994096484375,11.681730296484375,7.199994096484375,11.999994296484376C7.199994096484375,12.318258296484375,7.326425996484375,12.623478896484375,7.551462196484375,12.848526896484374C7.776510196484375,13.073562896484376,8.081729896484376,13.199993896484376,8.399993896484375,13.199993896484376C8.399993896484375,13.199993896484376,12.703194896484375,13.199993896484376,12.703194896484375,13.199993896484376C12.703194896484375,13.199993896484376,11.151594196484375,14.751594896484375,11.151594196484375,14.751594896484375C11.036982496484375,14.862233896484375,10.945566196484375,14.994713896484376,10.882674196484375,15.141114896484375C10.819782296484375,15.287514896484375,10.786674496484375,15.444954896484376,10.785294496484376,15.604314896484375C10.783914596484374,15.763674896484375,10.814273796484375,15.921713896484375,10.874609996484375,16.069193896484375C10.934946096484374,16.216673896484373,11.024045896484376,16.350594896484374,11.136726396484375,16.463274896484375C11.249394396484375,16.575954896484376,11.383374196484375,16.664993896484376,11.530854196484375,16.725354896484376C11.678321796484376,16.785713896484374,11.836337996484374,16.816073896484376,11.995674096484375,16.814753896484376C12.155010196484374,16.813314896484375,12.312474296484375,16.780193896484377,12.458873896484375,16.717314896484375C12.605285896484375,16.654434896484375,12.737693896484375,16.562993896484375,12.848393896484374,16.448393896484376C12.848393896484374,16.448393896484376,16.448393896484376,12.848393896484374,16.448393896484376,12.848393896484374C16.673393896484377,12.623358896484374,16.799753896484376,12.318185796484375,16.799753896484376,11.999994296484376C16.799753896484376,11.681801796484375,16.673393896484377,11.376629796484375,16.448393896484376,11.151594196484375C16.448393896484376,11.151594196484375,16.448393896484376,11.151594196484375,16.448393896484376,11.151594196484375C16.448393896484376,11.151594196484375,16.448393896484376,11.151594196484375,16.448393896484376,11.151594196484375Z" fill-rule="evenodd" fill="#0A0A28" fill-opacity="1"/></g></svg>