<svg xmlns="http://www.w3.org/2000/svg" xmlns:xlink="http://www.w3.org/1999/xlink" fill="none" version="1.1" width="24" height="24" viewBox="0 0 24 24"><defs><clipPath id="master_svg0_3_1637"><rect x="0" y="0" width="24" height="24" rx="0"/></clipPath></defs><g clip-path="url(#master_svg0_3_1637)"><path d="M6.35164958578125,9.2484168546875C6.12668438578125,9.0233807546875,6.00030517578125,8.718208754687499,6.00030517578125,8.400016754687499C6.00030517578125,8.081812854687499,6.12668438578125,7.7766408546875,6.35164958578125,7.5516166546875C6.35164958578125,7.5516166546875,11.15165327578125,2.7516117646875,11.15165327578125,2.7516117646875C11.37667747578125,2.5266465546875,11.681849475781249,2.4002685546875004,12.000053375781249,2.4002685546875C12.318245375781249,2.4002685546875,12.62341737578125,2.5266465546875,12.84845347578125,2.7516117646875C12.84845347578125,2.7516117646875,17.64845417578125,7.5516166546875,17.64845417578125,7.5516166546875C17.867033175781252,7.7779369546875,17.98799417578125,8.0810570546875,17.98525817578125,8.3956966546875C17.98252117578125,8.7103247546875,17.85631717578125,9.011309154687499,17.63382517578125,9.233788954687501C17.41134517578125,9.456281154687499,17.11036117578125,9.5824847546875,16.79573317578125,9.585220854687499C16.48109317578125,9.587956954687499,16.17797417578125,9.466996654687499,15.95165447578125,9.2484168546875C15.95165447578125,9.2484168546875,13.20005367578125,6.4968166546875,13.20005367578125,6.4968166546875C13.20005367578125,6.4968166546875,13.20005367578125,20.4000285546875,13.20005367578125,20.4000285546875C13.20005367578125,20.7182695546875,13.07362177578125,21.0235485546875,12.84857367578125,21.2485485546875C12.62353757578125,21.4735485546875,12.31830547578125,21.6000285546875,12.000053375781249,21.6000285546875C11.68178937578125,21.6000285546875,11.37656927578125,21.4735485546875,11.15152117578125,21.2485485546875C10.92647357578125,21.0235485546875,10.80005307578125,20.7182695546875,10.80005307578125,20.4000285546875C10.80005307578125,20.4000285546875,10.80005307578125,6.4968166546875,10.80005307578125,6.4968166546875C10.80005307578125,6.4968166546875,8.04845337578125,9.2484168546875,8.04845337578125,9.2484168546875C7.8234172757812495,9.4733805546875,7.51824537578125,9.5997528546875,7.20004847578125,9.5997528546875C6.88185161578125,9.5997528546875,6.57668197578125,9.4733805546875,6.35164958578125,9.2484168546875C6.35164958578125,9.2484168546875,6.35164958578125,9.2484168546875,6.35164958578125,9.2484168546875C6.35164958578125,9.2484168546875,6.35164958578125,9.2484168546875,6.35164958578125,9.2484168546875Z" fill-rule="evenodd" fill="#0A0A28" fill-opacity="1"/></g></svg>