<svg xmlns="http://www.w3.org/2000/svg" xmlns:xlink="http://www.w3.org/1999/xlink" fill="none" version="1.1" width="24" height="24" viewBox="0 0 24 24"><defs><clipPath id="master_svg0_3_1629"><rect x="0" y="0" width="24" height="24" rx="0"/></clipPath></defs><g clip-path="url(#master_svg0_3_1629)"><path d="M14.7516254140625,6.351588550625C14.9766254140625,6.126623350625,15.2817854140625,6.000244140625,15.6000254140625,6.000244140625C15.9182644140625,6.000244140625,16.2234244140625,6.126623350625,16.4484244140625,6.351588550625C16.4484244140625,6.351588550625,21.2484244140625,11.151592240625,21.2484244140625,11.151592240625C21.4734244140625,11.376616440625,21.5997844140625,11.681788440624999,21.5997844140625,11.999992340624999C21.5997844140625,12.318184340624999,21.4734244140625,12.623356340625,21.2484244140625,12.848392440625C21.2484244140625,12.848392440625,16.4484244140625,17.648393140625,16.4484244140625,17.648393140625C16.2221054140625,17.866972140625002,15.9189854140625,17.987933140625,15.6043454140625,17.985197140625C15.2897044140625,17.982460140625,14.9887444140625,17.856256140625,14.7662654140625,17.633764140625C14.5437844140625,17.411284140625,14.4175444140625,17.110300140625,14.4147844140625,16.795672140625C14.4120254140625,16.481032140625,14.5329844140625,16.177913140625,14.7516254140625,15.951593440625C14.7516254140625,15.951593440625,17.5032254140625,13.199992640625,17.5032254140625,13.199992640625C17.5032254140625,13.199992640625,3.6000244140625,13.199992640625,3.6000244140625,13.199992640625C3.2817652840625,13.199992640625,2.9765404440625,13.073560740625,2.7514960140625,12.848512640625C2.5264528240625,12.623476540625,2.400024414062501,12.318244440625,2.4000244140625,11.999992340624999C2.4000244140625004,11.681728340625,2.5264528240625,11.376508240625,2.7514960140625,11.151460140625C2.9765404440625,10.926412540625,3.2817652840625,10.799992040625,3.6000244140625,10.799992040625C3.6000244140625,10.799992040625,17.5032254140625,10.799992040625,17.5032254140625,10.799992040625C17.5032254140625,10.799992040625,14.7516254140625,8.048392340625,14.7516254140625,8.048392340625C14.5266254140625,7.8233562406249995,14.4002654140625,7.518184340625,14.4002654140625,7.199987440625C14.4002654140625,6.881790580625,14.5266254140625,6.576620940625,14.7516254140625,6.351588550625C14.7516254140625,6.351588550625,14.7516254140625,6.351588550625,14.7516254140625,6.351588550625C14.7516254140625,6.351588550625,14.7516254140625,6.351588550625,14.7516254140625,6.351588550625Z" fill-rule="evenodd" fill="#0A0A28" fill-opacity="1"/></g></svg>