<svg xmlns="http://www.w3.org/2000/svg" xmlns:xlink="http://www.w3.org/1999/xlink" fill="none" version="1.1" width="24" height="24" viewBox="0 0 24 24"><defs><clipPath id="master_svg0_3_1874"><rect x="0" y="0" width="24" height="24" rx="0"/></clipPath></defs><g clip-path="url(#master_svg0_3_1874)"><path d="M9.292890100000001,19.7071C9.6834202,20.0976,10.3165798,20.0976,10.707109899999999,19.7071C11.0976295,19.3166,11.0976295,18.6834,10.707109899999999,18.2929C10.707109899999999,18.2929,9.292890100000001,19.7071,9.292890100000001,19.7071C9.292890100000001,19.7071,9.292890100000001,19.7071,9.292890100000001,19.7071ZM3,12C3,12,2.29289299,11.292890100000001,2.29289299,11.292890100000001C1.90237,11.6834202,1.90237,12.3165798,2.29289299,12.707109899999999C2.29289299,12.707109899999999,3,12,3,12C3,12,3,12,3,12ZM10.707109899999999,5.70710701C11.0976295,5.31658301,11.0976295,4.68341699,10.707109899999999,4.29289299C10.3165798,3.90237,9.6834202,3.90237,9.292890100000001,4.29289299C9.292890100000001,4.29289299,10.707109899999999,5.70710701,10.707109899999999,5.70710701C10.707109899999999,5.70710701,10.707109899999999,5.70710701,10.707109899999999,5.70710701ZM21,13C21.552299,13,22,12.5522799,22,12C22,11.4477201,21.552299,11,21,11C21,11,21,13,21,13C21,13,21,13,21,13ZM10.707109899999999,18.2929C10.707109899999999,18.2929,3.70710701,11.292890100000001,3.70710701,11.292890100000001C3.70710701,11.292890100000001,2.29289299,12.707109899999999,2.29289299,12.707109899999999C2.29289299,12.707109899999999,9.292890100000001,19.7071,9.292890100000001,19.7071C9.292890100000001,19.7071,10.707109899999999,18.2929,10.707109899999999,18.2929C10.707109899999999,18.2929,10.707109899999999,18.2929,10.707109899999999,18.2929ZM3.70710701,12.707109899999999C3.70710701,12.707109899999999,10.707109899999999,5.70710701,10.707109899999999,5.70710701C10.707109899999999,5.70710701,9.292890100000001,4.29289299,9.292890100000001,4.29289299C9.292890100000001,4.29289299,2.29289299,11.292890100000001,2.29289299,11.292890100000001C2.29289299,11.292890100000001,3.70710701,12.707109899999999,3.70710701,12.707109899999999C3.70710701,12.707109899999999,3.70710701,12.707109899999999,3.70710701,12.707109899999999ZM3,13C3,13,21,13,21,13C21,13,21,11,21,11C21,11,3,11,3,11C3,11,3,13,3,13C3,13,3,13,3,13Z" fill="#0A0A28" fill-opacity="1"/></g></svg>