<svg xmlns="http://www.w3.org/2000/svg" xmlns:xlink="http://www.w3.org/1999/xlink" fill="none" version="1.1" width="24" height="24" viewBox="0 0 24 24"><defs><clipPath id="master_svg0_3_2021"><rect x="0" y="0" width="24" height="24" rx="0"/></clipPath></defs><g clip-path="url(#master_svg0_3_2021)"><path d="M16.707110399999998,17.7071C17.0976295,17.3166,17.0976295,16.6834,16.707110399999998,16.2929C16.3165798,15.9024,15.6834202,15.9024,15.292890100000001,16.2929C15.292890100000001,16.2929,16.707110399999998,17.7071,16.707110399999998,17.7071C16.707110399999998,17.7071,16.707110399999998,17.7071,16.707110399999998,17.7071ZM12,21C12,21,11.292890100000001,21.7071,11.292890100000001,21.7071C11.6834199,22.097601,12.3165798,22.097601,12.707109899999999,21.7071C12.707109899999999,21.7071,12,21,12,21C12,21,12,21,12,21ZM8.70710701,16.2929C8.31658301,15.9024,7.68341699,15.9024,7.29289299,16.2929C6.9023699999999995,16.6834,6.9023699999999995,17.3166,7.29289299,17.7071C7.29289299,17.7071,8.70710701,16.2929,8.70710701,16.2929C8.70710701,16.2929,8.70710701,16.2929,8.70710701,16.2929ZM13,3C13,2.4477149799999998,12.5522799,2,12,2C11.4477201,2,11,2.4477149799999998,11,3C11,3,13,3,13,3C13,3,13,3,13,3ZM15.292890100000001,16.2929C15.292890100000001,16.2929,11.292890100000001,20.2929,11.292890100000001,20.2929C11.292890100000001,20.2929,12.707109899999999,21.7071,12.707109899999999,21.7071C12.707109899999999,21.7071,16.707110399999998,17.7071,16.707110399999998,17.7071C16.707110399999998,17.7071,15.292890100000001,16.2929,15.292890100000001,16.2929C15.292890100000001,16.2929,15.292890100000001,16.2929,15.292890100000001,16.2929ZM12.707109899999999,20.2929C12.707109899999999,20.2929,8.70710701,16.2929,8.70710701,16.2929C8.70710701,16.2929,7.29289299,17.7071,7.29289299,17.7071C7.29289299,17.7071,11.292890100000001,21.7071,11.292890100000001,21.7071C11.292890100000001,21.7071,12.707109899999999,20.2929,12.707109899999999,20.2929C12.707109899999999,20.2929,12.707109899999999,20.2929,12.707109899999999,20.2929ZM13,21C13,21,13,3,13,3C13,3,11,3,11,3C11,3,11,21,11,21C11,21,13,21,13,21C13,21,13,21,13,21Z" fill="#0A0A28" fill-opacity="1"/></g></svg>