<svg xmlns="http://www.w3.org/2000/svg" xmlns:xlink="http://www.w3.org/1999/xlink" fill="none" version="1.1" width="24" height="24" viewBox="0 0 24 24"><defs><clipPath id="master_svg0_3_1752"><rect x="0" y="0" width="24" height="24" rx="0"/></clipPath></defs><g clip-path="url(#master_svg0_3_1752)"><path d="M20.048396595703124,12.351594896484375C20.273397595703123,12.576629896484375,20.399757595703125,12.881802896484375,20.399757595703125,13.199993896484376C20.399757595703125,13.518185896484376,20.273397595703123,13.823358896484375,20.048396595703124,14.048393896484376C20.048396595703124,14.048393896484376,12.848383895703124,21.248393896484377,12.848383895703124,21.248393896484377C12.623348195703125,21.473393896484374,12.318176295703125,21.599753896484376,11.999983795703125,21.599753896484376C11.681779895703125,21.599753896484376,11.376619795703125,21.473393896484374,11.151584195703126,21.248393896484377C11.151584195703126,21.248393896484377,3.951581175703125,14.048393896484376,3.951581175703125,14.048393896484376C3.836969195703125,13.937694896484375,3.745550815703125,13.805286896484375,3.682659879703125,13.658873896484375C3.619769077703125,13.512473896484375,3.586665479703125,13.355009896484376,3.585280903746125,13.195673896484376C3.583896323703125,13.036337896484374,3.614258436703125,12.878322896484375,3.674595519703125,12.730853896484374C3.734932005703125,12.583373896484375,3.824036805703125,12.449393896484375,3.936707195703125,12.336726196484374C4.049378845703125,12.224046696484375,4.183361235703125,12.134946796484375,4.330836415703125,12.074609796484374C4.478312785703125,12.014274596484375,4.636327595703125,11.983914396484375,4.795663595703125,11.985294296484374C4.954999595703125,11.986674296484376,5.112463695703125,12.019782096484375,5.258863695703125,12.082673996484376C5.405275695703125,12.145566896484375,5.537683695703125,12.236982296484374,5.648383595703125,12.351594896484375C5.648383595703125,12.351594896484375,10.799983995703126,17.503194896484374,10.799983995703126,17.503194896484374C10.799983995703126,17.503194896484374,10.799983995703126,3.599993896484375,10.799983995703126,3.599993896484375C10.799983995703126,3.281734766484375,10.926415895703126,2.976509926484375,11.151452095703124,2.751465496484375C11.376500095703125,2.526422306484375,11.681719795703126,2.3999938964843754,11.999983795703125,2.399993896484375C12.318236395703124,2.3999938964843754,12.623467395703125,2.526422306484375,12.848504095703126,2.751465496484375C13.073552095703125,2.976509926484375,13.199983595703126,3.281734766484375,13.199983595703126,3.599993896484375C13.199983595703126,3.599993896484375,13.199983595703126,17.503194896484374,13.199983595703126,17.503194896484374C13.199983595703126,17.503194896484374,18.351595595703124,12.351594896484375,18.351595595703124,12.351594896484375C18.576596595703123,12.126629796484375,18.881755595703126,12.000246096484375,19.199995595703125,12.000246096484375C19.518236595703126,12.000246096484375,19.823396595703127,12.126629796484375,20.048396595703124,12.351594896484375C20.048396595703124,12.351594896484375,20.048396595703124,12.351594896484375,20.048396595703124,12.351594896484375C20.048396595703124,12.351594896484375,20.048396595703124,12.351594896484375,20.048396595703124,12.351594896484375Z" fill-rule="evenodd" fill="#0A0A28" fill-opacity="1"/></g></svg>