<svg xmlns="http://www.w3.org/2000/svg" xmlns:xlink="http://www.w3.org/1999/xlink" fill="none" version="1.1" width="24" height="24" viewBox="0 0 24 24"><defs><clipPath id="master_svg0_3_1615"><rect x="0" y="0" width="24" height="24" rx="0"/></clipPath></defs><g clip-path="url(#master_svg0_3_1615)"><path d="M17.64843852734375,14.751594896484375C17.87340352734375,14.976594896484375,17.999811527343752,15.281754896484374,17.999811527343752,15.599994896484375C17.999811527343752,15.918233896484375,17.87340352734375,16.223393896484374,17.64843852734375,16.448393896484376C17.64843852734375,16.448393896484376,12.848438727343751,21.248393896484377,12.848438727343751,21.248393896484377C12.62340302734375,21.473393896484374,12.31823112734375,21.599753896484376,12.00003862734375,21.599753896484376C11.68183472734375,21.599753896484376,11.37667462734375,21.473393896484374,11.15163902734375,21.248393896484377C11.15163902734375,21.248393896484377,6.35163610734375,16.448393896484376,6.35163610734375,16.448393896484376C6.23702412734375,16.337754896484377,6.14560574734375,16.205274896484376,6.08271481134375,16.058873896484375C6.01982400934375,15.912474896484374,5.98672041134375,15.755034896484375,5.98533583586675,15.595674896484375C5.98395125534375,15.436314896484374,6.01431300834375,15.278274896484374,6.07465009434375,15.130794896484375C6.13498693734375,14.983314896484375,6.22409052734375,14.849394896484375,6.33676212734375,14.736713896484375C6.44943377734375,14.624033896484375,6.58341616734375,14.534994896484376,6.73089134734375,14.474633896484375C6.87836771734375,14.414273896484374,7.03638252734375,14.383913896484374,7.19571852734375,14.385293896484376C7.35505452734375,14.386674896484376,7.51251862734375,14.419794896484374,7.65891862734375,14.482674896484374C7.80533062734375,14.545553896484375,7.93773862734375,14.636993896484375,8.04843852734375,14.751594896484375C8.04843852734375,14.751594896484375,10.80003882734375,17.503194896484374,10.80003882734375,17.503194896484374C10.80003882734375,17.503194896484374,10.80003882734375,3.599993896484375,10.80003882734375,3.599993896484375C10.80003882734375,3.281734766484375,10.92647072734375,2.976509926484375,11.15150692734375,2.751465496484375C11.37655492734375,2.526422306484375,11.68177462734375,2.3999938964843754,12.00003862734375,2.399993896484375C12.31829122734375,2.3999938964843754,12.623522727343751,2.526422306484375,12.848558927343749,2.751465496484375C13.07360692734375,2.976509926484375,13.200038927343751,3.281734766484375,13.200038927343751,3.599993896484375C13.200038927343751,3.599993896484375,13.200038927343751,17.503194896484374,13.200038927343751,17.503194896484374C13.200038927343751,17.503194896484374,15.95163912734375,14.751594896484375,15.95163912734375,14.751594896484375C16.17667452734375,14.526594896484376,16.48183452734375,14.400234896484376,16.80003952734375,14.400234896484376C17.118230527343748,14.400234896484376,17.42340252734375,14.526594896484376,17.64843852734375,14.751594896484375C17.64843852734375,14.751594896484375,17.64843852734375,14.751594896484375,17.64843852734375,14.751594896484375C17.64843852734375,14.751594896484375,17.64843852734375,14.751594896484375,17.64843852734375,14.751594896484375Z" fill-rule="evenodd" fill="#0A0A28" fill-opacity="1"/></g></svg>