<svg xmlns="http://www.w3.org/2000/svg" xmlns:xlink="http://www.w3.org/1999/xlink" fill="none" version="1.1" width="24" height="24" viewBox="0 0 24 24"><defs><clipPath id="master_svg0_3_1453"><rect x="0" y="0" width="24" height="24" rx="0"/></clipPath></defs><g clip-path="url(#master_svg0_3_1453)"><path d="M17.091594896484374,6.9084114875C16.130394896484376,5.9477154875,14.916834896484374,5.2787031875,13.591313896484374,4.9787032875C12.265818596484374,4.6787151875,10.882482496484375,4.7599792875,9.601230096484375,5.2131232875C8.319978196484374,5.6662795875,7.193142396484375,6.4727873875,6.350981996484375,7.5394315875C5.508833896484375,8.6060633875,4.985753996484375,9.889271687499999,4.842222196484375,11.2406997875C4.698702096484375,12.5921281875,4.940586096484375,13.9565751875,5.539914096484376,15.1763281875C6.139241896484375,16.3960071875,7.071546096484375,17.4212871875,8.229042096484374,18.1333671875C9.386538496484375,18.8455681875,10.721945796484375,19.2155281875,12.080886796484375,19.2006471875C13.439825896484376,19.1857681875,14.766834896484376,18.7865271875,15.908394896484374,18.049248187499998C16.040513896484377,17.9586481875,16.189553896484377,17.8954071875,16.346514896484376,17.863248187499998C16.503473896484373,17.8310881875,16.665354896484374,17.8308481875,16.822434896484374,17.8622871875C16.979513896484377,17.8936081875,17.128794896484376,17.9562481875,17.261274896484373,18.046248187499998C17.393873896484376,18.1363681875,17.507033896484373,18.2520481875,17.594154896484376,18.3864481875C17.681274896484375,18.5209671875,17.740554896484376,18.6715681875,17.768514896484376,18.8292481875C17.796593896484374,18.9870471875,17.792633896484375,19.1488071875,17.757114896484374,19.3050481875C17.721593896484375,19.4612881875,17.655113896484373,19.6088871875,17.561633896484373,19.7389681875C17.468153896484374,19.8691691875,17.349474896484374,19.9792081875,17.212793896484374,20.0628491875C15.420834896484376,21.2215691875,13.293918896484374,21.7501681875,11.167998296484376,21.5652481875C9.042089896484374,21.3803271875,7.038390196484375,20.4923281875,5.473445896484375,19.0415291875C3.908513896484375,17.590728187499998,2.871565106484375,15.6599281875,2.526412696484375,13.5541071875C2.181260276484375,11.4482640875,2.547585506484375,9.2874354875,3.567514796484375,7.4130115875C4.587449996484375,5.5385872875,6.202830096484375,4.0574153875,8.158482096484375,3.2034940075C10.114122396484376,2.3495754225,12.298541996484374,2.1715911775,14.366633896484375,2.6976579975C16.434713896484375,3.2237259775,18.268553896484377,4.4238593875,19.578473896484375,6.108443487500001C20.888393896484374,7.7930392875,21.599753896484376,9.866063587500001,21.599994896484375,12.0000114875C21.600234896484373,12.6686761875,21.414233896484376,13.3241881875,21.062873896484376,13.8930711875C20.711392896484377,14.4619671875,20.208594896484374,14.9216881875,19.610515896484376,15.2208481875C19.012435896484376,15.5200081875,18.342954896484375,15.6467271875,17.676953896484378,15.5867271875C17.011074896484374,15.5267281875,16.374953896484374,15.2824071875,15.839994896484376,14.8812481875C15.156234896484374,15.7930081875,14.170241896484375,16.431648187500002,13.058585896484376,16.6830471875C11.946942296484375,16.9343271875,10.782126396484376,16.7819281875,9.772565796484376,16.253088187499998C8.762993796484375,15.7242481875,7.974558396484375,14.8532881875,7.548329796484375,13.7963391875C7.122090296484375,12.7393321875,7.085862196484375,11.5651549875,7.446138396484375,10.4838828875C7.806414096484375,9.4026116875,8.539673796484376,8.4848155875,9.514709996484374,7.8947028875C10.489758496484376,7.3046035875,11.642970096484374,7.0806955875,12.767994896484375,7.2630476875C13.893018896484374,7.4453873875,14.916473896484375,8.0221070875,15.655193896484375,8.8899831875C16.393913896484374,9.7578715875,16.799753896484376,10.8602990875,16.799994896484375,12.0000114875C16.799994896484375,12.3182639875,16.926474896484375,12.6234961875,17.151474896484373,12.8485321875C17.376473896484377,13.0735801875,17.681754896484374,13.2000111875,17.999993896484376,13.2000111875C18.318234896484377,13.2000111875,18.623513896484376,13.0735801875,18.848514896484375,12.8485321875C19.073634896484375,12.6234961875,19.199994896484377,12.3182639875,19.199994896484377,12.0000114875C19.199994896484377,10.1556114875,18.496793896484377,8.3160113875,17.091594896484374,6.9084114875C17.091594896484374,6.9084114875,17.091594896484374,6.9084114875,17.091594896484374,6.9084114875ZM14.399993896484375,12.0000114875C14.399993896484375,11.3634833875,14.147153896484374,10.7530440875,13.697057896484376,10.3029474875C13.246974896484375,9.8528632875,12.636521896484375,9.6000113875,12.000005696484376,9.6000113875C11.363490096484375,9.6000113875,10.753038396484374,9.8528632875,10.302954196484375,10.3029474875C9.852870496484375,10.7530440875,9.600006096484375,11.3634833875,9.600006096484375,12.0000114875C9.600006096484375,12.6365271875,9.852870496484375,13.2469791875,10.302954196484375,13.6970631875C10.753038396484374,14.1471471875,11.363490096484375,14.4000111875,12.000005696484376,14.4000111875C12.636521896484375,14.4000111875,13.246974896484375,14.1471471875,13.697057896484376,13.6970631875C14.147153896484374,13.2469791875,14.399993896484375,12.6365271875,14.399993896484375,12.0000114875C14.399993896484375,12.0000114875,14.399993896484375,12.0000114875,14.399993896484375,12.0000114875Z" fill-rule="evenodd" fill="#0A0A28" fill-opacity="1"/></g></svg>