<svg xmlns="http://www.w3.org/2000/svg" xmlns:xlink="http://www.w3.org/1999/xlink" fill="none" version="1.1" width="24" height="24" viewBox="0 0 24 24"><defs><clipPath id="master_svg0_3_2108"><rect x="0" y="0" width="24" height="24" rx="0"/></clipPath></defs><g clip-path="url(#master_svg0_3_2108)"><path d="M15.999995946884155,11.999995946884155C15.999995946884155,11.999995946884155,16.999995946884155,11.999995946884155,16.999995946884155,11.999995946884155C16.999995946884155,11.999995946884155,15.999995946884155,11.999995946884155,15.999995946884155,11.999995946884155C15.999995946884155,11.999995946884155,15.999995946884155,11.999995946884155,15.999995946884155,11.999995946884155ZM11.999995946884155,7.999995946884155C11.999995946884155,7.999995946884155,11.999995946884155,6.999995946884155,11.999995946884155,6.999995946884155C11.999995946884155,6.999995946884155,11.999995946884155,7.999995946884155,11.999995946884155,7.999995946884155C11.999995946884155,7.999995946884155,11.999995946884155,7.999995946884155,11.999995946884155,7.999995946884155ZM7.999995946884155,11.999995946884155C7.999995946884155,11.999995946884155,6.999995946884155,11.999995946884155,6.999995946884155,11.999995946884155C6.999995946884155,11.999995946884155,7.999995946884155,11.999995946884155,7.999995946884155,11.999995946884155C7.999995946884155,11.999995946884155,7.999995946884155,11.999995946884155,7.999995946884155,11.999995946884155ZM11.999995946884155,15.999995946884155C11.999995946884155,15.999995946884155,11.999995946884155,16.999995946884155,11.999995946884155,16.999995946884155C11.999995946884155,16.999995946884155,11.999995946884155,15.999995946884155,11.999995946884155,15.999995946884155C11.999995946884155,15.999995946884155,11.999995946884155,15.999995946884155,11.999995946884155,15.999995946884155ZM15.999995946884155,13.499995946884155C15.999995946884155,13.499995946884155,16.999995946884155,13.499995946884155,16.999995946884155,13.499995946884155C16.999995946884155,13.499995946884155,15.999995946884155,13.499995946884155,15.999995946884155,13.499995946884155C15.999995946884155,13.499995946884155,15.999995946884155,13.499995946884155,15.999995946884155,13.499995946884155ZM11.999995946884155,20.999995946884155C11.999995946884155,20.999995946884155,12.000985846884156,19.999995946884155,12.000985846884156,19.999995946884155C12.000985846884156,19.999995946884155,11.999995946884155,19.999995946884155,11.999995946884155,19.999995946884155C11.999995946884155,19.999995946884155,11.999995946884155,20.999995946884155,11.999995946884155,20.999995946884155C11.999995946884155,20.999995946884155,11.999995946884155,20.999995946884155,11.999995946884155,20.999995946884155ZM17.001295946884156,20.659295946884157C17.479195946884154,20.382396946884157,17.642095946884155,19.770594946884156,17.365295946884153,19.292695946884155C17.088395946884155,18.814795946884153,16.476595946884153,18.651895946884153,15.998695946884155,18.928695946884154C15.998695946884155,18.928695946884154,17.001295946884156,20.659295946884157,17.001295946884156,20.659295946884157C17.001295946884156,20.659295946884157,17.001295946884156,20.659295946884157,17.001295946884156,20.659295946884157ZM16.999995946884155,11.999995946884155C16.999995946884155,10.673916146884157,16.473195946884154,9.402146146884157,15.535495946884156,8.464465846884156C15.535495946884156,8.464465846884156,14.121295946884155,9.878676146884155,14.121295946884155,9.878676146884155C14.683895946884155,10.441285846884156,14.999995946884155,11.204346446884156,14.999995946884155,11.999995946884155C14.999995946884155,11.999995946884155,16.999995946884155,11.999995946884155,16.999995946884155,11.999995946884155C16.999995946884155,11.999995946884155,16.999995946884155,11.999995946884155,16.999995946884155,11.999995946884155ZM15.535495946884156,8.464465846884156C14.597895946884154,7.526786046884156,13.326095946884156,6.999995946884155,11.999995946884155,6.999995946884155C11.999995946884155,6.999995946884155,11.999995946884155,8.999995946884155,11.999995946884155,8.999995946884155C12.795645446884155,8.999995946884155,13.558695946884155,9.316066046884156,14.121295946884155,9.878676146884155C14.121295946884155,9.878676146884155,15.535495946884156,8.464465846884156,15.535495946884156,8.464465846884156C15.535495946884156,8.464465846884156,15.535495946884156,8.464465846884156,15.535495946884156,8.464465846884156ZM11.999995946884155,6.999995946884155C10.673916146884157,6.999995946884155,9.402146146884157,7.526786046884156,8.464465846884156,8.464465846884156C8.464465846884156,8.464465846884156,9.878676146884155,9.878676146884155,9.878676146884155,9.878676146884155C10.441285846884156,9.316066046884156,11.204346446884156,8.999995946884155,11.999995946884155,8.999995946884155C11.999995946884155,8.999995946884155,11.999995946884155,6.999995946884155,11.999995946884155,6.999995946884155C11.999995946884155,6.999995946884155,11.999995946884155,6.999995946884155,11.999995946884155,6.999995946884155ZM8.464465846884156,8.464465846884156C7.526786046884156,9.402146146884157,6.999995946884155,10.673916146884157,6.999995946884155,11.999995946884155C6.999995946884155,11.999995946884155,8.999995946884155,11.999995946884155,8.999995946884155,11.999995946884155C8.999995946884155,11.204346446884156,9.316066046884156,10.441285846884156,9.878676146884155,9.878676146884155C9.878676146884155,9.878676146884155,8.464465846884156,8.464465846884156,8.464465846884156,8.464465846884156C8.464465846884156,8.464465846884156,8.464465846884156,8.464465846884156,8.464465846884156,8.464465846884156ZM6.999995946884155,11.999995946884155C6.999995946884155,13.326095946884156,7.526786046884156,14.597895946884154,8.464465846884156,15.535495946884156C8.464465846884156,15.535495946884156,9.878676146884155,14.121295946884155,9.878676146884155,14.121295946884155C9.316066046884156,13.558695946884155,8.999995946884155,12.795645446884155,8.999995946884155,11.999995946884155C8.999995946884155,11.999995946884155,6.999995946884155,11.999995946884155,6.999995946884155,11.999995946884155C6.999995946884155,11.999995946884155,6.999995946884155,11.999995946884155,6.999995946884155,11.999995946884155ZM8.464465846884156,15.535495946884156C9.402146146884157,16.473195946884154,10.673916146884157,16.999995946884155,11.999995946884155,16.999995946884155C11.999995946884155,16.999995946884155,11.999995946884155,14.999995946884155,11.999995946884155,14.999995946884155C11.204346446884156,14.999995946884155,10.441285846884156,14.683895946884155,9.878676146884155,14.121295946884155C9.878676146884155,14.121295946884155,8.464465846884156,15.535495946884156,8.464465846884156,15.535495946884156C8.464465846884156,15.535495946884156,8.464465846884156,15.535495946884156,8.464465846884156,15.535495946884156ZM11.999995946884155,16.999995946884155C13.326095946884156,16.999995946884155,14.597895946884154,16.473195946884154,15.535495946884156,15.535495946884156C15.535495946884156,15.535495946884156,14.121295946884155,14.121295946884155,14.121295946884155,14.121295946884155C13.558695946884155,14.683895946884155,12.795645446884155,14.999995946884155,11.999995946884155,14.999995946884155C11.999995946884155,14.999995946884155,11.999995946884155,16.999995946884155,11.999995946884155,16.999995946884155C11.999995946884155,16.999995946884155,11.999995946884155,16.999995946884155,11.999995946884155,16.999995946884155ZM15.535495946884156,15.535495946884156C16.473195946884154,14.597895946884154,16.999995946884155,13.326095946884156,16.999995946884155,11.999995946884155C16.999995946884155,11.999995946884155,14.999995946884155,11.999995946884155,14.999995946884155,11.999995946884155C14.999995946884155,12.795645446884155,14.683895946884155,13.558695946884155,14.121295946884155,14.121295946884155C14.121295946884155,14.121295946884155,15.535495946884156,15.535495946884156,15.535495946884156,15.535495946884156C15.535495946884156,15.535495946884156,15.535495946884156,15.535495946884156,15.535495946884156,15.535495946884156ZM14.999995946884155,11.999995946884155C14.999995946884155,11.999995946884155,14.999995946884155,13.499995946884155,14.999995946884155,13.499995946884155C14.999995946884155,13.499995946884155,16.999995946884155,13.499995946884155,16.999995946884155,13.499995946884155C16.999995946884155,13.499995946884155,16.999995946884155,11.999995946884155,16.999995946884155,11.999995946884155C16.999995946884155,11.999995946884155,14.999995946884155,11.999995946884155,14.999995946884155,11.999995946884155C14.999995946884155,11.999995946884155,14.999995946884155,11.999995946884155,14.999995946884155,11.999995946884155ZM14.999995946884155,13.499995946884155C14.999995946884155,14.428295946884155,15.368795946884156,15.318495946884156,16.025095946884157,15.974895946884155C16.025095946884157,15.974895946884155,17.439295946884155,14.560695946884156,17.439295946884155,14.560695946884156C17.157995946884157,14.279395946884156,16.999995946884155,13.897795946884155,16.999995946884155,13.499995946884155C16.999995946884155,13.499995946884155,14.999995946884155,13.499995946884155,14.999995946884155,13.499995946884155C14.999995946884155,13.499995946884155,14.999995946884155,13.499995946884155,14.999995946884155,13.499995946884155ZM16.025095946884157,15.974895946884155C16.681495946884155,16.631295946884155,17.571695946884155,16.999995946884155,18.499995946884155,16.999995946884155C18.499995946884155,16.999995946884155,18.499995946884155,14.999995946884155,18.499995946884155,14.999995946884155C18.102195946884155,14.999995946884155,17.720595946884153,14.841995946884156,17.439295946884155,14.560695946884156C17.439295946884155,14.560695946884156,16.025095946884157,15.974895946884155,16.025095946884157,15.974895946884155C16.025095946884157,15.974895946884155,16.025095946884157,15.974895946884155,16.025095946884157,15.974895946884155ZM18.499995946884155,16.999995946884155C19.428296946884156,16.999995946884155,20.318496946884157,16.631295946884155,20.974894946884156,15.974895946884155C20.974894946884156,15.974895946884155,19.560694946884155,14.560695946884156,19.560694946884155,14.560695946884156C19.279395946884154,14.841995946884156,18.897795946884155,14.999995946884155,18.499995946884155,14.999995946884155C18.499995946884155,14.999995946884155,18.499995946884155,16.999995946884155,18.499995946884155,16.999995946884155C18.499995946884155,16.999995946884155,18.499995946884155,16.999995946884155,18.499995946884155,16.999995946884155ZM20.974894946884156,15.974895946884155C21.631295946884155,15.318495946884156,21.999995946884155,14.428295946884155,21.999995946884155,13.499995946884155C21.999995946884155,13.499995946884155,19.999995946884155,13.499995946884155,19.999995946884155,13.499995946884155C19.999995946884155,13.897795946884155,19.841994946884157,14.279395946884156,19.560694946884155,14.560695946884156C19.560694946884155,14.560695946884156,20.974894946884156,15.974895946884155,20.974894946884156,15.974895946884155C20.974894946884156,15.974895946884155,20.974894946884156,15.974895946884155,20.974894946884156,15.974895946884155ZM21.999995946884155,13.499995946884155C21.999995946884155,13.499995946884155,21.999995946884155,11.999995946884155,21.999995946884155,11.999995946884155C21.999995946884155,11.999995946884155,19.999995946884155,11.999995946884155,19.999995946884155,11.999995946884155C19.999995946884155,11.999995946884155,19.999995946884155,13.499995946884155,19.999995946884155,13.499995946884155C19.999995946884155,13.499995946884155,21.999995946884155,13.499995946884155,21.999995946884155,13.499995946884155C21.999995946884155,13.499995946884155,21.999995946884155,13.499995946884155,21.999995946884155,13.499995946884155ZM21.999995946884155,11.999995946884155C21.999995946884155,10.022186046884155,21.413495946884154,8.088785846884155,20.314694946884156,6.444295846884155C20.314694946884156,6.444295846884155,18.651795946884157,7.555435846884155,18.651795946884157,7.555435846884155C19.530795946884155,8.871035846884155,19.999995946884155,10.417745846884156,19.999995946884155,11.999995946884155C19.999995946884155,11.999995946884155,21.999995946884155,11.999995946884155,21.999995946884155,11.999995946884155C21.999995946884155,11.999995946884155,21.999995946884155,11.999995946884155,21.999995946884155,11.999995946884155ZM20.314694946884156,6.444295846884155C19.215895946884157,4.7998060468841555,17.654095946884155,3.5180809468841554,15.826795946884156,2.7612049468841553C15.826795946884156,2.7612049468841553,15.061495946884156,4.6089659468841555,15.061495946884156,4.6089659468841555C16.523295946884154,5.214465846884155,17.772695946884156,6.239845946884156,18.651795946884157,7.555435846884155C18.651795946884157,7.555435846884155,20.314694946884156,6.444295846884155,20.314694946884156,6.444295846884155C20.314694946884156,6.444295846884155,20.314694946884156,6.444295846884155,20.314694946884156,6.444295846884155ZM15.826795946884156,2.7612049468841553C13.999595946884154,2.0043279568841554,11.988905646884156,1.8062959468841553,10.049095846884155,2.192146956884155C10.049095846884155,2.192146956884155,10.439275946884155,4.153715946884155,10.439275946884155,4.153715946884155C11.991125846884156,3.845035966884155,13.599695946884156,4.003465846884155,15.061495946884156,4.6089659468841555C15.061495946884156,4.6089659468841555,15.826795946884156,2.7612049468841553,15.826795946884156,2.7612049468841553C15.826795946884156,2.7612049468841553,15.826795946884156,2.7612049468841553,15.826795946884156,2.7612049468841553ZM10.049095846884155,2.192146956884155C8.109286046884154,2.577998936884155,6.327456046884155,3.530406956884155,4.928936046884155,4.928936046884155C4.928936046884155,4.928936046884155,6.3431458468841555,6.3431458468841555,6.3431458468841555,6.3431458468841555C7.461965846884155,5.224325846884155,8.887426146884156,4.462395946884155,10.439275946884155,4.153715946884155C10.439275946884155,4.153715946884155,10.049095846884155,2.192146956884155,10.049095846884155,2.192146956884155C10.049095846884155,2.192146956884155,10.049095846884155,2.192146956884155,10.049095846884155,2.192146956884155ZM4.928936046884155,4.928936046884155C3.530406956884155,6.327456046884155,2.577998936884155,8.109286046884154,2.192146956884155,10.049095846884155C2.192146956884155,10.049095846884155,4.153715946884155,10.439275946884155,4.153715946884155,10.439275946884155C4.462395946884155,8.887426146884156,5.224325846884155,7.461965846884155,6.3431458468841555,6.3431458468841555C6.3431458468841555,6.3431458468841555,4.928936046884155,4.928936046884155,4.928936046884155,4.928936046884155C4.928936046884155,4.928936046884155,4.928936046884155,4.928936046884155,4.928936046884155,4.928936046884155ZM2.192146956884155,10.049095846884155C1.8062959468841553,11.988905646884156,2.0043279568841554,13.999595946884154,2.7612049468841553,15.826795946884156C2.7612049468841553,15.826795946884156,4.6089659468841555,15.061495946884156,4.6089659468841555,15.061495946884156C4.003465846884155,13.599695946884156,3.845035966884155,11.991125846884156,4.153715946884155,10.439275946884155C4.153715946884155,10.439275946884155,2.192146956884155,10.049095846884155,2.192146956884155,10.049095846884155C2.192146956884155,10.049095846884155,2.192146956884155,10.049095846884155,2.192146956884155,10.049095846884155ZM2.7612049468841553,15.826795946884156C3.5180809468841554,17.654095946884155,4.7998060468841555,19.215895946884157,6.444295846884155,20.314694946884156C6.444295846884155,20.314694946884156,7.555435846884155,18.651795946884157,7.555435846884155,18.651795946884157C6.239845946884156,17.772695946884156,5.214465846884155,16.523295946884154,4.6089659468841555,15.061495946884156C4.6089659468841555,15.061495946884156,2.7612049468841553,15.826795946884156,2.7612049468841553,15.826795946884156C2.7612049468841553,15.826795946884156,2.7612049468841553,15.826795946884156,2.7612049468841553,15.826795946884156ZM6.444295846884155,20.314694946884156C8.088785846884155,21.413495946884154,10.022186046884155,21.999995946884155,11.999995946884155,21.999995946884155C11.999995946884155,21.999995946884155,11.999995946884155,19.999995946884155,11.999995946884155,19.999995946884155C10.417745846884156,19.999995946884155,8.871035846884155,19.530795946884155,7.555435846884155,18.651795946884157C7.555435846884155,18.651795946884157,6.444295846884155,20.314694946884156,6.444295846884155,20.314694946884156C6.444295846884155,20.314694946884156,6.444295846884155,20.314694946884156,6.444295846884155,20.314694946884156ZM15.998695946884155,18.928695946884154C14.784395946884155,19.632195946884156,13.405195946884156,20.001395946884156,12.000985846884156,19.999995946884155C12.000985846884156,19.999995946884155,11.999006046884155,21.999995946884155,11.999006046884155,21.999995946884155C13.755195946884156,22.001694946884154,15.480995946884155,21.540095946884154,17.001295946884156,20.659295946884157C17.001295946884156,20.659295946884157,15.998695946884155,18.928695946884154,15.998695946884155,18.928695946884154C15.998695946884155,18.928695946884154,15.998695946884155,18.928695946884154,15.998695946884155,18.928695946884154Z" fill="#0A0A28" fill-opacity="1"/></g></svg>