<svg xmlns="http://www.w3.org/2000/svg" xmlns:xlink="http://www.w3.org/1999/xlink" fill="none" version="1.1" width="24" height="24" viewBox="0 0 24 24"><defs><clipPath id="master_svg0_3_2332"><rect x="0" y="0" width="24" height="24" rx="0"/></clipPath></defs><g clip-path="url(#master_svg0_3_2332)"><path d="M11.2928896,13.2928896C10.902370000000001,13.6834202,10.902370000000001,14.3165798,11.2928896,14.7071104C11.6834202,15.0976,12.3165798,15.0976,12.7071104,14.7071104C12.7071104,14.7071104,11.2928896,13.2928896,11.2928896,13.2928896C11.2928896,13.2928896,11.2928896,13.2928896,11.2928896,13.2928896ZM16.7071,10.707109899999999C17.0976,10.3165798,17.0976,9.6834202,16.7071,9.292890100000001C16.3166,8.90237,15.6834,8.90237,15.2929,9.292890100000001C15.2929,9.292890100000001,16.7071,10.707109899999999,16.7071,10.707109899999999C16.7071,10.707109899999999,16.7071,10.707109899999999,16.7071,10.707109899999999ZM12.7071104,9.292890100000001C12.3165798,8.90237,11.6834202,8.90237,11.2928896,9.292890100000001C10.902370000000001,9.6834202,10.902370000000001,10.3165798,11.2928896,10.707109899999999C11.2928896,10.707109899999999,12.7071104,9.292890100000001,12.7071104,9.292890100000001C12.7071104,9.292890100000001,12.7071104,9.292890100000001,12.7071104,9.292890100000001ZM15.2929,14.7071104C15.6834,15.0976,16.3166,15.0976,16.7071,14.7071104C17.0976,14.3165798,17.0976,13.6834202,16.7071,13.2928896C16.7071,13.2928896,15.2929,14.7071104,15.2929,14.7071104C15.2929,14.7071104,15.2929,14.7071104,15.2929,14.7071104ZM3,12C3,12,2.29289299,11.292890100000001,2.29289299,11.292890100000001C1.90237,11.6834202,1.90237,12.3165798,2.29289299,12.707109899999999C2.29289299,12.707109899999999,3,12,3,12C3,12,3,12,3,12ZM9.414,18.414C9.414,18.414,10.121210099999999,17.707,10.121210099999999,17.707C10.121210099999999,17.707,10.12111,17.706899999999997,10.12111,17.706899999999997C10.12111,17.706899999999997,9.414,18.414,9.414,18.414C9.414,18.414,9.414,18.414,9.414,18.414ZM10.8280001,19C10.8280001,19,10.8277898,20,10.8277898,20C10.8277898,20,10.8280001,20,10.8280001,20C10.8280001,20,10.8280001,19,10.8280001,19C10.8280001,19,10.8280001,19,10.8280001,19ZM19,5C19,5,19,4,19,4C19,4,19,5,19,5C19,5,19,5,19,5ZM10.8280001,5C10.8280001,5,10.8280001,4,10.8280001,4C10.8280001,4,10.8277898,4,10.8277898,4C10.8277898,4,10.8280001,5,10.8280001,5C10.8280001,5,10.8280001,5,10.8280001,5ZM9.414,5.58600003C9.414,5.58600003,10.12111,6.29311,10.12111,6.29311C10.12111,6.29311,10.121210099999999,6.293,10.121210099999999,6.293C10.121210099999999,6.293,9.414,5.58600003,9.414,5.58600003C9.414,5.58600003,9.414,5.58600003,9.414,5.58600003ZM12.7071104,14.7071104C12.7071104,14.7071104,14.7071,12.707109899999999,14.7071,12.707109899999999C14.7071,12.707109899999999,13.2929,11.292890100000001,13.2929,11.292890100000001C13.2929,11.292890100000001,11.2928896,13.2928896,11.2928896,13.2928896C11.2928896,13.2928896,12.7071104,14.7071104,12.7071104,14.7071104C12.7071104,14.7071104,12.7071104,14.7071104,12.7071104,14.7071104ZM14.7071,12.707109899999999C14.7071,12.707109899999999,16.7071,10.707109899999999,16.7071,10.707109899999999C16.7071,10.707109899999999,15.2929,9.292890100000001,15.2929,9.292890100000001C15.2929,9.292890100000001,13.2929,11.292890100000001,13.2929,11.292890100000001C13.2929,11.292890100000001,14.7071,12.707109899999999,14.7071,12.707109899999999C14.7071,12.707109899999999,14.7071,12.707109899999999,14.7071,12.707109899999999ZM14.7071,11.292890100000001C14.7071,11.292890100000001,12.7071104,9.292890100000001,12.7071104,9.292890100000001C12.7071104,9.292890100000001,11.2928896,10.707109899999999,11.2928896,10.707109899999999C11.2928896,10.707109899999999,13.2929,12.707109899999999,13.2929,12.707109899999999C13.2929,12.707109899999999,14.7071,11.292890100000001,14.7071,11.292890100000001C14.7071,11.292890100000001,14.7071,11.292890100000001,14.7071,11.292890100000001ZM13.2929,12.707109899999999C13.2929,12.707109899999999,15.2929,14.7071104,15.2929,14.7071104C15.2929,14.7071104,16.7071,13.2928896,16.7071,13.2928896C16.7071,13.2928896,14.7071,11.292890100000001,14.7071,11.292890100000001C14.7071,11.292890100000001,13.2929,12.707109899999999,13.2929,12.707109899999999C13.2929,12.707109899999999,13.2929,12.707109899999999,13.2929,12.707109899999999ZM2.29289299,12.707109899999999C2.29289299,12.707109899999999,8.706890099999999,19.1211,8.706890099999999,19.1211C8.706890099999999,19.1211,10.12111,17.706899999999997,10.12111,17.706899999999997C10.12111,17.706899999999997,3.70710701,11.292890100000001,3.70710701,11.292890100000001C3.70710701,11.292890100000001,2.29289299,12.707109899999999,2.29289299,12.707109899999999C2.29289299,12.707109899999999,2.29289299,12.707109899999999,2.29289299,12.707109899999999ZM8.70679,19.121000000000002C9.2692599,19.6836,10.0321999,19.9998,10.8277898,20C10.8277898,20,10.828209900000001,18,10.828209900000001,18C10.5630202,17.9999,10.308710099999999,17.8945,10.121210099999999,17.707C10.121210099999999,17.707,8.70679,19.121000000000002,8.70679,19.121000000000002C8.70679,19.121000000000002,8.70679,19.121000000000002,8.70679,19.121000000000002ZM10.8280001,20C10.8280001,20,19,20,19,20C19,20,19,18,19,18C19,18,10.8280001,18,10.8280001,18C10.8280001,18,10.8280001,20,10.8280001,20C10.8280001,20,10.8280001,20,10.8280001,20ZM19,20C19.7957,20,20.558701,19.6839,21.1213,19.121299999999998C21.1213,19.121299999999998,19.7071,17.7071,19.7071,17.7071C19.5196,17.8946,19.2652,18,19,18C19,18,19,20,19,20C19,20,19,20,19,20ZM21.1213,19.121299999999998C21.683901,18.5587,22,17.7957,22,17C22,17,20,17,20,17C20,17.2652,19.8946,17.5196,19.7071,17.7071C19.7071,17.7071,21.1213,19.121299999999998,21.1213,19.121299999999998C21.1213,19.121299999999998,21.1213,19.121299999999998,21.1213,19.121299999999998ZM22,17C22,17,22,7,22,7C22,7,20,7,20,7C20,7,20,17,20,17C20,17,22,17,22,17C22,17,22,17,22,17ZM22,7C22,6.20435,21.683901,5.44128799,21.1213,4.87868C21.1213,4.87868,19.7071,6.29289,19.7071,6.29289C19.8946,6.48043,20,6.73478,20,7C20,7,22,7,22,7C22,7,22,7,22,7ZM21.1213,4.87868C20.558701,4.31607002,19.7957,4,19,4C19,4,19,6,19,6C19.2652,6,19.5196,6.10536,19.7071,6.29289C19.7071,6.29289,21.1213,4.87868,21.1213,4.87868C21.1213,4.87868,21.1213,4.87868,21.1213,4.87868ZM19,4C19,4,10.8280001,4,10.8280001,4C10.8280001,4,10.8280001,6,10.8280001,6C10.8280001,6,19,6,19,6C19,6,19,4,19,4C19,4,19,4,19,4ZM10.8277898,4C10.0321999,4.00016999,9.2692599,4.31635201,8.70679,4.879C8.70679,4.879,10.121210099999999,6.293,10.121210099999999,6.293C10.308710099999999,6.10545,10.5630202,6.0000599999999995,10.828209900000001,6C10.828209900000001,6,10.8277898,4,10.8277898,4C10.8277898,4,10.8277898,4,10.8277898,4ZM8.706890099999999,4.878893C8.706890099999999,4.878893,2.29289299,11.292890100000001,2.29289299,11.292890100000001C2.29289299,11.292890100000001,3.70710701,12.707109899999999,3.70710701,12.707109899999999C3.70710701,12.707109899999999,10.12111,6.29311,10.12111,6.29311C10.12111,6.29311,8.706890099999999,4.878893,8.706890099999999,4.878893C8.706890099999999,4.878893,8.706890099999999,4.878893,8.706890099999999,4.878893Z" fill="#0A0A28" fill-opacity="1"/></g></svg>