<svg xmlns="http://www.w3.org/2000/svg" xmlns:xlink="http://www.w3.org/1999/xlink" fill="none" version="1.1" width="24" height="24" viewBox="0 0 24 24"><defs><clipPath id="master_svg0_3_1731"><rect x="0" y="0" width="24" height="24" rx="0"/></clipPath></defs><g clip-path="url(#master_svg0_3_1731)"><path d="M8.0484166546875,5.85478779296875C8.7233805546875,5.17961022296875,9.6389088546875,4.80019168737875,10.5936164546875,4.79998779296875C10.5936164546875,4.79998779296875,18.0000285546875,4.79998779296875,18.0000285546875,4.79998779296875C18.9547485546875,4.79998779296875,19.8704695546875,5.17927301296875,20.5455895546875,5.85440389296875C21.2207085546875,6.52953589296875,21.6000285546875,7.44520779296875,21.6000285546875,8.399987892968749C21.6000285546875,8.399987892968749,21.6000285546875,15.59998779296875,21.6000285546875,15.59998779296875C21.6000285546875,16.55476779296875,21.2207085546875,17.47042779296875,20.5455895546875,18.14554779296875C19.8704695546875,18.82066779296875,18.9547485546875,19.19998879296875,18.0000285546875,19.19998879296875C18.0000285546875,19.19998879296875,10.5936164546875,19.19998879296875,10.5936164546875,19.19998879296875C9.6393284546875,19.19950879296875,8.7242927546875,18.820068792968748,8.0496168546875,18.14518879296875C8.0496168546875,18.14518879296875,2.7516117646875,12.84838769296875,2.7516117646875,12.84838769296875C2.5266465546875,12.623352492968749,2.4002685546875004,12.318180092968749,2.4002685546875,11.99998809296875C2.4002685546874996,11.68179609296875,2.5266465546875,11.37662359296875,2.7516117646875,11.151588392968751C2.7516117646875,11.151588392968751,8.0484166546875,5.85478779296875,8.0484166546875,5.85478779296875C8.0484166546875,5.85478779296875,8.0484166546875,5.85478779296875,8.0484166546875,5.85478779296875C8.0484166546875,5.85478779296875,8.0484166546875,5.85478779296875,8.0484166546875,5.85478779296875ZM12.8484175546875,8.75158789296875C12.6220845546875,8.53299589296875,12.3189649546875,8.41204809296875,12.0043373546875,8.41478399296875C11.6896972546875,8.41750789296875,11.3887243546875,8.54371189296875,11.1662330546875,8.76620409296875C10.9437408546875,8.98869609296875,10.8175373546875,9.28966809296875,10.8148012546875,9.60430809296875C10.8120651546875,9.918948192968749,10.9330253546875,10.22206829296875,11.1516170546875,10.44838759296875C11.1516170546875,10.44838759296875,12.7032165546875,11.99998809296875,12.7032165546875,11.99998809296875C12.7032165546875,11.99998809296875,11.1516170546875,13.55158809296875,11.1516170546875,13.55158809296875C11.0370044546875,13.66228869296875,10.9455766546875,13.79469679296875,10.8826847546875,13.94110779296875C10.8198051546875,14.08750819296875,10.7866964546875,14.24497219296875,10.7853164546875,14.40430829296875C10.7839250546875,14.56364439296875,10.8142852546875,14.72165969296875,10.8746213546875,14.86912779296875C10.9349689546875,15.01660779296875,11.0240688546875,15.15058779296875,11.1367368546875,15.26325579296875C11.2494049546875,15.37593579296875,11.3833970546875,15.46503679296875,11.5308647546875,15.52537279296875C11.6783447546875,15.58570879296875,11.8363609546875,15.61606779296875,11.9956970546875,15.61468779296875C12.1550331546875,15.61330779296875,12.3124971546875,15.58019979296875,12.4588965546875,15.51730779296875C12.6052975546875,15.45441579296875,12.7377165546875,15.36300079296875,12.8484175546875,15.24838779296875C12.8484175546875,15.24838779296875,14.4000165546875,13.69678779296875,14.4000165546875,13.69678779296875C14.4000165546875,13.69678779296875,15.9516285546875,15.24838779296875,15.9516285546875,15.24838779296875C16.1779485546875,15.46697979296875,16.4810695546875,15.58792879296875,16.7957085546875,15.58519179296875C17.110348554687498,15.58246779296875,17.4113095546875,15.45626479296875,17.6337895546875,15.23377179296875C17.8562685546875,15.01127979296875,17.9825085546875,14.71030809296875,17.9852695546875,14.39566799296875C17.987909554687498,14.08102799296875,17.8669495546875,13.77790829296875,17.6484295546875,13.55158809296875C17.6484295546875,13.55158809296875,16.096829554687503,11.99998809296875,16.096829554687503,11.99998809296875C16.096829554687503,11.99998809296875,17.6484295546875,10.44838759296875,17.6484295546875,10.44838759296875C17.8669495546875,10.22206829296875,17.987909554687498,9.918948192968749,17.9852695546875,9.60430809296875C17.9825085546875,9.28966809296875,17.8562685546875,8.98869609296875,17.6337895546875,8.76620409296875C17.4113095546875,8.54371189296875,17.110348554687498,8.41750789296875,16.7957085546875,8.41478399296875C16.4810695546875,8.41204809296875,16.1779485546875,8.53299589296875,15.9516285546875,8.75158789296875C15.9516285546875,8.75158789296875,14.4000165546875,10.30318789296875,14.4000165546875,10.30318789296875C14.4000165546875,10.30318789296875,12.8484175546875,8.75158789296875,12.8484175546875,8.75158789296875C12.8484175546875,8.75158789296875,12.8484175546875,8.75158789296875,12.8484175546875,8.75158789296875C12.8484175546875,8.75158789296875,12.8484175546875,8.75158789296875,12.8484175546875,8.75158789296875Z" fill-rule="evenodd" fill="#0A0A28" fill-opacity="1"/></g></svg>