<svg xmlns="http://www.w3.org/2000/svg" xmlns:xlink="http://www.w3.org/1999/xlink" fill="none" version="1.1" width="24" height="24" viewBox="0 0 24 24"><defs><clipPath id="master_svg0_3_2378"><rect x="0" y="0" width="24" height="24" rx="0"/></clipPath></defs><g clip-path="url(#master_svg0_3_2378)"><path d="M21.000043925308226,12.000005025308228C21.000043925308226,12.000005025308228,20.000043925308226,12.000005025308228,20.000043925308226,12.000005025308228C20.000043925308226,12.000005025308228,21.000043925308226,12.000005025308228,21.000043925308226,12.000005025308228C21.000043925308226,12.000005025308228,21.000043925308226,12.000005025308228,21.000043925308226,12.000005025308228ZM12.000005025308228,21.000043925308226C12.000005025308228,21.000043925308226,12.000005025308228,20.000043925308226,12.000005025308228,20.000043925308226C12.000005025308228,20.000043925308226,12.000005025308228,21.000043925308226,12.000005025308228,21.000043925308226C12.000005025308228,21.000043925308226,12.000005025308228,21.000043925308226,12.000005025308228,21.000043925308226ZM2.999944925308228,12.000005025308228C2.999944925308228,12.000005025308228,3.9999449253082275,12.000005025308228,3.9999449253082275,12.000005025308228C3.9999449253082275,12.000005025308228,2.999944925308228,12.000005025308228,2.999944925308228,12.000005025308228C2.999944925308228,12.000005025308228,2.999944925308228,12.000005025308228,2.999944925308228,12.000005025308228ZM19.071143925308228,19.071143925308228C20.94644592530823,17.195744925308226,22.000043925308226,14.652144925308228,22.000043925308226,12.000005025308228C22.000043925308226,12.000005025308228,20.000043925308226,12.000005025308228,20.000043925308226,12.000005025308228C20.000043925308226,14.121744925308228,19.157144925308227,16.156544925308225,17.656844925308228,17.656844925308228C17.656844925308228,17.656844925308228,19.071143925308228,19.071143925308228,19.071143925308228,19.071143925308228C19.071143925308228,19.071143925308228,19.071143925308228,19.071143925308228,19.071143925308228,19.071143925308228ZM22.000043925308226,12.000005025308228C22.000043925308226,9.347824825308226,20.94644592530823,6.8042650253082275,19.071143925308228,4.928894925308228C19.071143925308228,4.928894925308228,17.656844925308228,6.343104825308227,17.656844925308228,6.343104825308227C19.157144925308227,7.843405025308227,20.000043925308226,9.878255125308227,20.000043925308226,12.000005025308228C20.000043925308226,12.000005025308228,22.000043925308226,12.000005025308228,22.000043925308226,12.000005025308228C22.000043925308226,12.000005025308228,22.000043925308226,12.000005025308228,22.000043925308226,12.000005025308228ZM19.071143925308228,4.928894925308228C17.195744925308226,3.0535192263082274,14.652144925308228,1.9999449253082275,12.000005025308228,1.9999449253082275C12.000005025308228,1.9999449253082275,12.000005025308228,3.9999449253082275,12.000005025308228,3.9999449253082275C14.121744925308228,3.9999449253082275,16.156544925308225,4.8428049253082275,17.656844925308228,6.343104825308227C17.656844925308228,6.343104825308227,19.071143925308228,4.928894925308228,19.071143925308228,4.928894925308228C19.071143925308228,4.928894925308228,19.071143925308228,4.928894925308228,19.071143925308228,4.928894925308228ZM12.000005025308228,1.9999449253082275C9.347824825308226,1.9999449253082275,6.8042650253082275,3.0535193233082274,4.928894925308228,4.928894925308228C4.928894925308228,4.928894925308228,6.343104825308227,6.343104825308227,6.343104825308227,6.343104825308227C7.843405025308227,4.8428049253082275,9.878255125308227,3.9999449253082275,12.000005025308228,3.9999449253082275C12.000005025308228,3.9999449253082275,12.000005025308228,1.9999449253082275,12.000005025308228,1.9999449253082275C12.000005025308228,1.9999449253082275,12.000005025308228,1.9999449253082275,12.000005025308228,1.9999449253082275ZM4.928894925308228,6.343104825308227C4.928894925308228,6.343104825308227,17.656844925308228,19.071143925308228,17.656844925308228,19.071143925308228C17.656844925308228,19.071143925308228,19.071143925308228,17.656844925308228,19.071143925308228,17.656844925308228C19.071143925308228,17.656844925308228,6.343104825308227,4.928894925308228,6.343104825308227,4.928894925308228C6.343104825308227,4.928894925308228,4.928894925308228,6.343104825308227,4.928894925308228,6.343104825308227C4.928894925308228,6.343104825308227,4.928894925308228,6.343104825308227,4.928894925308228,6.343104825308227ZM17.656844925308228,17.656844925308228C16.156544925308225,19.157144925308227,14.121744925308228,20.000043925308226,12.000005025308228,20.000043925308226C12.000005025308228,20.000043925308226,12.000005025308228,22.000043925308226,12.000005025308228,22.000043925308226C14.652144925308228,22.000043925308226,17.195744925308226,20.94644592530823,19.071143925308228,19.071143925308228C19.071143925308228,19.071143925308228,17.656844925308228,17.656844925308228,17.656844925308228,17.656844925308228C17.656844925308228,17.656844925308228,17.656844925308228,17.656844925308228,17.656844925308228,17.656844925308228ZM12.000005025308228,20.000043925308226C9.878255125308227,20.000043925308226,7.843405025308227,19.157144925308227,6.343104825308227,17.656844925308228C6.343104825308227,17.656844925308228,4.928894925308228,19.071143925308228,4.928894925308228,19.071143925308228C6.8042650253082275,20.94644592530823,9.347824825308226,22.000043925308226,12.000005025308228,22.000043925308226C12.000005025308228,22.000043925308226,12.000005025308228,20.000043925308226,12.000005025308228,20.000043925308226C12.000005025308228,20.000043925308226,12.000005025308228,20.000043925308226,12.000005025308228,20.000043925308226ZM6.343104825308227,17.656844925308228C4.8428049253082275,16.156544925308225,3.9999449253082275,14.121744925308228,3.9999449253082275,12.000005025308228C3.9999449253082275,12.000005025308228,1.9999449253082275,12.000005025308228,1.9999449253082275,12.000005025308228C1.9999449253082275,14.652144925308228,3.0535192263082274,17.195744925308226,4.928894925308228,19.071143925308228C4.928894925308228,19.071143925308228,6.343104825308227,17.656844925308228,6.343104825308227,17.656844925308228C6.343104825308227,17.656844925308228,6.343104825308227,17.656844925308228,6.343104825308227,17.656844925308228ZM3.9999449253082275,12.000005025308228C3.9999449253082275,9.878255125308227,4.8428049253082275,7.843405025308227,6.343104825308227,6.343104825308227C6.343104825308227,6.343104825308227,4.928894925308228,4.928894925308228,4.928894925308228,4.928894925308228C3.0535193233082274,6.8042650253082275,1.9999449253082275,9.347824825308226,1.9999449253082275,12.000005025308228C1.9999449253082275,12.000005025308228,3.9999449253082275,12.000005025308228,3.9999449253082275,12.000005025308228C3.9999449253082275,12.000005025308228,3.9999449253082275,12.000005025308228,3.9999449253082275,12.000005025308228Z" fill="#0A0A28" fill-opacity="1"/></g></svg>