<svg xmlns="http://www.w3.org/2000/svg" xmlns:xlink="http://www.w3.org/1999/xlink" fill="none" version="1.1" width="24" height="24" viewBox="0 0 24 24"><defs><clipPath id="master_svg0_3_1639"><rect x="0" y="0" width="24" height="24" rx="0"/></clipPath></defs><g clip-path="url(#master_svg0_3_1639)"><path d="M16.172425414062502,17.867994896484376C14.7855844140625,18.853673896484374,13.0945814140625,19.316514896484374,11.3991251140625,19.174193896484375C9.7036567140625,19.031993896484376,8.1133442140625,18.293993896484373,6.9101887140625,17.090874896484372C5.7070327140625,15.887873896484376,4.9687805140625,14.297693896484375,4.8263404140625,12.602249896484375C4.683888714062499,10.906805996484374,5.1464646140625,9.215693996484376,6.1320245140625005,7.828794496484375C6.1320245140625005,7.828794496484375,16.172425414062502,17.870394896484378,16.172425414062502,17.870394896484378C16.172425414062502,17.870394896484378,16.172425414062502,17.867994896484376,16.172425414062502,17.867994896484376C16.172425414062502,17.867994896484376,16.172425414062502,17.867994896484376,16.172425414062502,17.867994896484376ZM17.8692244140625,16.171193896484375C17.8692244140625,16.171193896484375,7.8288250140625,6.1319939964843755,7.8288250140625,6.1319939964843755C9.215676814062501,5.145605796484375,10.9071007140625,4.682357996484376,12.6030134140625,4.824438096484375C14.2989244140625,4.966518196484375,15.8897044140625,5.7047340964843745,17.0930644140625,6.908130196484375C18.2964244140625,8.111526496484375,19.0346644140625,9.702293896484374,19.1767464140625,11.398205796484374C19.3188244140625,13.094117896484375,18.8556254140625,14.785553896484375,17.8692244140625,16.172394896484377C17.8692244140625,16.172394896484377,17.8692244140625,16.171193896484375,17.8692244140625,16.171193896484375C17.8692244140625,16.171193896484375,17.8692244140625,16.171193896484375,17.8692244140625,16.171193896484375ZM21.6000254140625,11.999994296484376C21.6000254140625,14.546034896484375,20.5885444140625,16.987913896484375,18.7883054140625,18.788274896484374C16.9879444140625,20.588513896484375,14.5460654140625,21.599994896484375,12.0000248140625,21.599994896484375C9.4539490140625,21.599994896484375,7.0121527140625,20.588513896484375,5.211804414062501,18.788274896484374C3.4114504140625,16.987913896484375,2.4000244140625018,14.546034896484375,2.4000244140625,11.999994296484376C2.4000244140625004,9.453918496484375,3.4114504140625,7.012122196484375,5.211804414062501,5.211773896484376C7.0121527140625,3.411419896484375,9.4539490140625,2.3999938964843777,12.0000248140625,2.399993896484375C14.5460654140625,2.3999938964843768,16.9879444140625,3.411419896484375,18.7883054140625,5.211773896484376C20.5885444140625,7.012122196484375,21.6000254140625,9.453918496484375,21.6000254140625,11.999994296484376C21.6000254140625,11.999994296484376,21.6000254140625,11.999994296484376,21.6000254140625,11.999994296484376C21.6000254140625,11.999994296484376,21.6000254140625,11.999994296484376,21.6000254140625,11.999994296484376Z" fill-rule="evenodd" fill="#0A0A28" fill-opacity="1"/></g></svg>