<svg xmlns="http://www.w3.org/2000/svg" xmlns:xlink="http://www.w3.org/1999/xlink" fill="none" version="1.1" width="24" height="24" viewBox="0 0 24 24"><defs><clipPath id="master_svg0_3_1553"><rect x="0" y="0" width="24" height="24" rx="0"/></clipPath></defs><g clip-path="url(#master_svg0_3_1553)"><path d="M8.399971978125,2.399993896484375C8.162671578125,2.400044565645375,7.930711778125,2.470450818484375,7.733419878125,2.602311506484375C7.536127578125,2.734173506484375,7.382359478125,2.921569106484375,7.291555878125,3.140807866484375C7.200751778125,3.360047936484375,7.176991978125,3.601289996484375,7.223263778125,3.834029896484375C7.269547978125,4.066769996484375,7.383800078125,4.2805739964843745,7.551571878125,4.448394096484375C7.551571878125,4.448394096484375,8.399971978125,5.296793896484375,8.399971978125,5.296793896484375C8.399971978125,5.296793896484375,8.399971978125,9.806394096484375,8.399971978125,9.806394096484375C8.399899978125,10.124622296484375,8.273431778125001,10.429806696484375,8.048371278125,10.654794696484375C8.048371278125,10.654794696484375,3.248369178125,15.454793896484375,3.248369178125,15.454793896484375C0.980371578125,17.722794896484373,2.5871691981250002,21.599994896484375,5.793571678125,21.599994896484375C5.793571678125,21.599994896484375,18.205207578125,21.599994896484375,18.205207578125,21.599994896484375C21.412807578125,21.599994896484375,23.019609578125,17.722794896484373,20.751607578125,15.454793896484375C20.751607578125,15.454793896484375,15.951608578125,10.654794696484375,15.951608578125,10.654794696484375C15.726488578125,10.429806696484375,15.600007578125,10.124622296484375,15.600007578125,9.806394096484375C15.600007578125,9.806394096484375,15.600007578125,5.296793896484375,15.600007578125,5.296793896484375C15.600007578125,5.296793896484375,16.448408578124997,4.448394096484375,16.448408578124997,4.448394096484375C16.616167578125,4.2805739964843745,16.730408578125,4.066769996484375,16.776728578125002,3.834029896484375C16.822928578125,3.601289996484375,16.799168578125,3.360047936484375,16.708328578125,3.140807866484375C16.617607578125,2.921569106484375,16.463767578125,2.734173506484375,16.266487578125002,2.602311506484375C16.069208578125,2.470450818484375,15.837247578125,2.400044565645375,15.600007578125,2.399993896484375C15.600007578125,2.399993896484375,8.399971978125,2.399993896484375,8.399971978125,2.399993896484375C8.399971978125,2.399993896484375,8.399971978125,2.399993896484375,8.399971978125,2.399993896484375ZM10.799971578125,9.806394096484375C10.799971578125,9.806394096484375,10.799971578125,4.799993996484375,10.799971578125,4.799993996484375C10.799971578125,4.799993996484375,13.199971578125,4.799993996484375,13.199971578125,4.799993996484375C13.199971578125,4.799993996484375,13.199971578125,9.806394096484375,13.199971578125,9.806394096484375C13.200487578125,10.760682096484375,13.579879578125,11.675718296484375,14.254807578125,12.350394296484374C14.254807578125,12.350394296484374,15.487208578125,13.583993896484374,15.487208578125,13.583993896484374C14.624168578125,13.383569896484374,13.722428578125,13.425929896484375,12.881972578125,13.706393896484375C12.881972578125,13.706393896484375,12.317972578125,13.893594896484375,12.317972578125,13.893594896484375C11.332628278125,14.222070896484375,10.267315878125,14.222070896484375,9.281971978125,13.893594896484375C9.281971978125,13.893594896484375,8.606371878125,13.669193896484375,8.606371878125,13.669193896484375C8.561203478125,13.653832896484374,8.515580178125,13.639830896484375,8.469572078125001,13.627194896484376C8.469572078125001,13.627194896484376,9.745171578125,12.351594896484375,9.745171578125,12.351594896484375C10.420351978125,11.676617596484375,10.799767478125,10.761090296484374,10.799971578125,9.806394096484375C10.799971578125,9.806394096484375,10.799971578125,9.806394096484375,10.799971578125,9.806394096484375C10.799971578125,9.806394096484375,10.799971578125,9.806394096484375,10.799971578125,9.806394096484375Z" fill-rule="evenodd" fill="#0A0A28" fill-opacity="1"/></g></svg>