<svg xmlns="http://www.w3.org/2000/svg" xmlns:xlink="http://www.w3.org/1999/xlink" fill="none" version="1.1" width="24" height="24" viewBox="0 0 24 24"><defs><clipPath id="master_svg0_3_1650"><rect x="0" y="0" width="24" height="24" rx="0"/></clipPath></defs><g clip-path="url(#master_svg0_3_1650)"><path d="M18.720879990386962,16.1351C19.11137999038696,16.5256,19.744579990386963,16.5256,20.135080990386964,16.1351C20.525579990386962,15.7446,20.525678990386965,15.1115,20.135179990386963,14.7209C20.135179990386963,14.7209,18.720879990386962,16.1351,18.720879990386962,16.1351C18.720879990386962,16.1351,18.720879990386962,16.1351,18.720879990386962,16.1351ZM18.40597999038696,14.881C18.40597999038696,14.881,18.602179990386965,13.9004202,18.602179990386965,13.9004202C18.602179990386965,13.9004202,18.601979990386965,13.9003897,18.601979990386965,13.9003897C18.601979990386965,13.9003897,18.40597999038696,14.881,18.40597999038696,14.881C18.40597999038696,14.881,18.40597999038696,14.881,18.40597999038696,14.881ZM16.018979990386963,14.404C16.018979990386963,14.404,15.822879990386962,15.3846,15.822879990386962,15.3846C15.822879990386962,15.3846,15.823079990386963,15.3846,15.823079990386963,15.3846C15.823079990386963,15.3846,16.018979990386963,14.404,16.018979990386963,14.404C16.018979990386963,14.404,16.018979990386963,14.404,16.018979990386963,14.404ZM12.158999890386962,14.921C12.158999890386962,14.921,12.603959590386962,15.8166,12.603959590386962,15.8166C12.603959590386962,15.8166,12.606230290386963,15.8154,12.606230290386963,15.8154C12.606230290386963,15.8154,12.158999890386962,14.921,12.158999890386962,14.921C12.158999890386962,14.921,12.158999890386962,14.921,12.158999890386962,14.921ZM11.841000090386963,15.079C11.841000090386963,15.079,11.396040390386963,14.1834,11.396040390386963,14.1834C11.396040390386963,14.1834,11.393769790386964,14.1846,11.393769790386964,14.1846C11.393769790386964,14.1846,11.841000090386963,15.079,11.841000090386963,15.079C11.841000090386963,15.079,11.841000090386963,15.079,11.841000090386963,15.079ZM7.980999990386963,15.596C7.980999990386963,15.596,8.177100190386962,14.6154,8.177100190386962,14.6154C8.177100190386962,14.6154,8.177020090386963,14.6154,8.177020090386963,14.6154C8.177020090386963,14.6154,7.980999990386963,15.596,7.980999990386963,15.596C7.980999990386963,15.596,7.980999990386963,15.596,7.980999990386963,15.596ZM6.049999990386963,15.21C6.049999990386963,15.21,6.246020090386963,14.2294,6.246020090386963,14.2294C6.246020090386963,14.2294,6.245909890386963,14.2294,6.245909890386963,14.2294C6.245909890386963,14.2294,6.049999990386963,15.21,6.049999990386963,15.21C6.049999990386963,15.21,6.049999990386963,15.21,6.049999990386963,15.21ZM3.536908980386963,15.0499C3.1463759803869626,15.4404,3.146361980386963,16.0736,3.536877990386963,16.464100000000002C3.927389990386963,16.854599999999998,4.560559990386963,16.854599999999998,4.951090090386963,16.464100000000002C4.951090090386963,16.464100000000002,3.536908980386963,15.0499,3.536908980386963,15.0499C3.536908980386963,15.0499,3.536908980386963,15.0499,3.536908980386963,15.0499ZM7.9999999903869625,4C7.9999999903869625,4,7.9999999903869625,3,7.9999999903869625,3C7.5955400903869625,3,7.230899790386963,3.24364197,7.076119890386963,3.61731699C6.921339990386963,3.99099096,7.006899790386963,4.4211089900000005,7.292890090386963,4.70710701C7.292890090386963,4.70710701,7.9999999903869625,4,7.9999999903869625,4C7.9999999903869625,4,7.9999999903869625,4,7.9999999903869625,4ZM15.999979990386963,4C15.999979990386963,4,16.707079990386962,4.70710701,16.707079990386962,4.70710701C16.993079990386963,4.4211089900000005,17.078679990386963,3.99099096,16.923879990386965,3.61731699C16.769079990386963,3.24364197,16.40447999038696,3,15.999979990386963,3C15.999979990386963,3,15.999979990386963,4,15.999979990386963,4C15.999979990386963,4,15.999979990386963,4,15.999979990386963,4ZM14.999979990386963,5C14.999979990386963,5,14.292879990386963,4.29289299,14.292879990386963,4.29289299C14.105379990386963,4.48043001,13.999979990386963,4.73478401,13.999979990386963,5C13.999979990386963,5,14.999979990386963,5,14.999979990386963,5C14.999979990386963,5,14.999979990386963,5,14.999979990386963,5ZM14.999979990386963,10.1719999C14.999979990386963,10.1719999,13.999979990386963,10.1719999,13.999979990386963,10.1719999C13.999979990386963,10.1719999,13.999979990386963,10.1722102,13.999979990386963,10.1722102C13.999979990386963,10.1722102,14.999979990386963,10.1719999,14.999979990386963,10.1719999C14.999979990386963,10.1719999,14.999979990386963,10.1719999,14.999979990386963,10.1719999ZM15.585979990386964,11.586C15.585979990386964,11.586,16.293079990386964,10.87889,16.293079990386964,10.87889C16.293079990386964,10.87889,16.29297999038696,10.878789900000001,16.29297999038696,10.878789900000001C16.29297999038696,10.878789900000001,15.585979990386964,11.586,15.585979990386964,11.586C15.585979990386964,11.586,15.585979990386964,11.586,15.585979990386964,11.586ZM3.413999970386963,16.586C3.413999970386963,16.586,4.121109990386962,17.293100000000003,4.121109990386962,17.293100000000003C4.121109990386962,17.293100000000003,4.121109990386962,17.293100000000003,4.121109990386962,17.293100000000003C4.121109990386962,17.293100000000003,3.413999970386963,16.586,3.413999970386963,16.586C3.413999970386963,16.586,3.413999970386963,16.586,3.413999970386963,16.586ZM8.413999990386962,11.586C8.413999990386962,11.586,7.706999790386963,10.878789900000001,7.706999790386963,10.878789900000001C7.706999790386963,10.878789900000001,7.706890090386963,10.87889,7.706890090386963,10.87889C7.706890090386963,10.87889,8.413999990386962,11.586,8.413999990386962,11.586C8.413999990386962,11.586,8.413999990386962,11.586,8.413999990386962,11.586ZM8.999999990386963,10.1719999C8.999999990386963,10.1719999,9.999999990386963,10.1722102,9.999999990386963,10.1722102C9.999999990386963,10.1722102,9.999999990386963,10.1719999,9.999999990386963,10.1719999C9.999999990386963,10.1719999,8.999999990386963,10.1719999,8.999999990386963,10.1719999C8.999999990386963,10.1719999,8.999999990386963,10.1719999,8.999999990386963,10.1719999ZM8.999999990386963,5C8.999999990386963,5,9.999999990386963,5,9.999999990386963,5C9.999999990386963,4.73478401,9.894639990386963,4.48043001,9.707109890386963,4.29289299C9.707109890386963,4.29289299,8.999999990386963,5,8.999999990386963,5C8.999999990386963,5,8.999999990386963,5,8.999999990386963,5ZM20.135179990386963,14.7209C19.71637999038696,14.3021,19.18297999038696,14.0166,18.602179990386965,13.9004202C18.602179990386965,13.9004202,18.209879990386963,15.8616,18.209879990386963,15.8616C18.403479990386963,15.9003,18.58127999038696,15.9955,18.720879990386962,16.1351C18.720879990386962,16.1351,20.135179990386963,14.7209,20.135179990386963,14.7209C20.135179990386963,14.7209,20.135179990386963,14.7209,20.135179990386963,14.7209ZM18.601979990386965,13.9003897C18.601979990386965,13.9003897,16.214979990386965,13.4233904,16.214979990386965,13.4233904C16.214979990386965,13.4233904,15.823079990386963,15.3846,15.823079990386963,15.3846C15.823079990386963,15.3846,18.210079990386962,15.8616,18.210079990386962,15.8616C18.210079990386962,15.8616,18.601979990386965,13.9003897,18.601979990386965,13.9003897C18.601979990386965,13.9003897,18.601979990386965,13.9003897,18.601979990386965,13.9003897ZM16.21507999038696,13.42342C14.688679990386962,13.1181602,13.104079990386962,13.3304005,11.711769590386963,14.0266C11.711769590386963,14.0266,12.606230290386963,15.8154,12.606230290386963,15.8154C13.600679990386963,15.3181,14.732579990386963,15.1665,15.822879990386962,15.3846C15.822879990386962,15.3846,16.21507999038696,13.42342,16.21507999038696,13.42342C16.21507999038696,13.42342,16.21507999038696,13.42342,16.21507999038696,13.42342ZM11.714040290386963,14.0254C11.714040290386963,14.0254,11.396040390386963,14.1835,11.396040390386963,14.1835C11.396040390386963,14.1835,12.285959690386964,15.9746,12.285959690386964,15.9746C12.285959690386964,15.9746,12.603959590386962,15.8165,12.603959590386962,15.8165C12.603959590386962,15.8165,11.714040290386963,14.0254,11.714040290386963,14.0254C11.714040290386963,14.0254,11.714040290386963,14.0254,11.714040290386963,14.0254ZM11.393769790386964,14.1846C10.399270090386963,14.6819,9.267399790386964,14.8335,8.177100190386962,14.6154C8.177100190386962,14.6154,7.784900190386963,16.5766,7.784900190386963,16.5766C9.311319790386964,16.8818,10.895940290386964,16.669600000000003,12.288230390386962,15.9734C12.288230390386962,15.9734,11.393769790386964,14.1846,11.393769790386964,14.1846C11.393769790386964,14.1846,11.393769790386964,14.1846,11.393769790386964,14.1846ZM8.177020090386963,14.6154C8.177020090386963,14.6154,6.246020090386963,14.2294,6.246020090386963,14.2294C6.246020090386963,14.2294,5.853980090386963,16.1906,5.853980090386963,16.1906C5.853980090386963,16.1906,7.784979790386963,16.5766,7.784979790386963,16.5766C7.784979790386963,16.5766,8.177020090386963,14.6154,8.177020090386963,14.6154C8.177020090386963,14.6154,8.177020090386963,14.6154,8.177020090386963,14.6154ZM6.245909890386963,14.2294C5.761709890386963,14.1326,5.261120090386963,14.1569,4.788559990386963,14.3001C4.788559990386963,14.3001,5.3683099903869635,16.214199999999998,5.3683099903869635,16.214199999999998C5.525829990386963,16.1665,5.692689890386963,16.1584,5.854089990386963,16.1906C5.854089990386963,16.1906,6.245909890386963,14.2294,6.245909890386963,14.2294C6.245909890386963,14.2294,6.245909890386963,14.2294,6.245909890386963,14.2294ZM4.788559990386963,14.3001C4.315989990386963,14.4432,3.886059990386963,14.7007,3.536908980386963,15.0499C3.536908980386963,15.0499,4.951090090386963,16.464100000000002,4.951090090386963,16.464100000000002C5.0674800903869635,16.3477,5.2107898903869625,16.2619,5.3683099903869635,16.214199999999998C5.3683099903869635,16.214199999999998,4.788559990386963,14.3001,4.788559990386963,14.3001C4.788559990386963,14.3001,4.788559990386963,14.3001,4.788559990386963,14.3001ZM7.9999999903869625,5C7.9999999903869625,5,15.999979990386963,5,15.999979990386963,5C15.999979990386963,5,15.999979990386963,3,15.999979990386963,3C15.999979990386963,3,7.9999999903869625,3,7.9999999903869625,3C7.9999999903869625,3,7.9999999903869625,5,7.9999999903869625,5C7.9999999903869625,5,7.9999999903869625,5,7.9999999903869625,5ZM15.292879990386963,3.29289299C15.292879990386963,3.29289299,14.292879990386963,4.29289299,14.292879990386963,4.29289299C14.292879990386963,4.29289299,15.707079990386962,5.70711,15.707079990386962,5.70711C15.707079990386962,5.70711,16.707079990386962,4.70710701,16.707079990386962,4.70710701C16.707079990386962,4.70710701,15.292879990386963,3.29289299,15.292879990386963,3.29289299C15.292879990386963,3.29289299,15.292879990386963,3.29289299,15.292879990386963,3.29289299ZM13.999979990386963,5C13.999979990386963,5,13.999979990386963,10.1719999,13.999979990386963,10.1719999C13.999979990386963,10.1719999,15.999979990386963,10.1719999,15.999979990386963,10.1719999C15.999979990386963,10.1719999,15.999979990386963,5,15.999979990386963,5C15.999979990386963,5,13.999979990386963,5,13.999979990386963,5C13.999979990386963,5,13.999979990386963,5,13.999979990386963,5ZM13.999979990386963,10.1722102C14.000179990386963,10.9678001,14.316379990386963,11.7307401,14.878979990386963,12.29321C14.878979990386963,12.29321,16.29297999038696,10.878789900000001,16.29297999038696,10.878789900000001C16.10547999038696,10.691289900000001,16.000079990386965,10.4369798,15.999979990386963,10.171790099999999C15.999979990386963,10.171790099999999,13.999979990386963,10.1722102,13.999979990386963,10.1722102C13.999979990386963,10.1722102,13.999979990386963,10.1722102,13.999979990386963,10.1722102ZM14.878879990386963,12.2931099C14.878879990386963,12.2931099,19.878879990386963,17.293100000000003,19.878879990386963,17.293100000000003C19.878879990386963,17.293100000000003,21.293079990386964,15.8789,21.293079990386964,15.8789C21.293079990386964,15.8789,16.293079990386964,10.87889,16.293079990386964,10.87889C16.293079990386964,10.87889,14.878879990386963,12.2931099,14.878879990386963,12.2931099C14.878879990386963,12.2931099,14.878879990386963,12.2931099,14.878879990386963,12.2931099ZM19.878879990386963,17.293100000000003C20.508279990386963,17.9225,20.062978990386963,19,19.170980990386962,19C19.170980990386962,19,19.170980990386962,21,19.170980990386962,21C21.84297999038696,21,23.183679990386963,17.7695,21.293079990386964,15.8789C21.293079990386964,15.8789,19.878879990386963,17.293100000000003,19.878879990386963,17.293100000000003C19.878879990386963,17.293100000000003,19.878879990386963,17.293100000000003,19.878879990386963,17.293100000000003ZM19.170980990386962,19C19.170980990386962,19,4.828000090386963,19,4.828000090386963,19C4.828000090386963,19,4.828000090386963,21,4.828000090386963,21C4.828000090386963,21,19.170980990386962,21,19.170980990386962,21C19.170980990386962,21,19.170980990386962,19,19.170980990386962,19C19.170980990386962,19,19.170980990386962,19,19.170980990386962,19ZM4.828000090386963,19C3.937089990386963,19,3.490943010386963,17.923299999999998,4.121109990386962,17.293100000000003C4.121109990386962,17.293100000000003,2.706892990386963,15.8789,2.706892990386963,15.8789C0.8170599903869631,17.768700000000003,2.154913010386963,21,4.828000090386963,21C4.828000090386963,21,4.828000090386963,19,4.828000090386963,19C4.828000090386963,19,4.828000090386963,19,4.828000090386963,19ZM4.121109990386962,17.293100000000003C4.121109990386962,17.293100000000003,9.121109990386962,12.2931099,9.121109990386962,12.2931099C9.121109990386962,12.2931099,7.706890090386963,10.87889,7.706890090386963,10.87889C7.706890090386963,10.87889,2.706892990386963,15.8789,2.706892990386963,15.8789C2.706892990386963,15.8789,4.121109990386962,17.293100000000003,4.121109990386962,17.293100000000003C4.121109990386962,17.293100000000003,4.121109990386962,17.293100000000003,4.121109990386962,17.293100000000003ZM9.120999790386964,12.29321C9.683649990386963,11.7307401,9.999829790386963,10.9678001,9.999999990386963,10.1722102C9.999999990386963,10.1722102,7.9999999903869625,10.171790099999999,7.9999999903869625,10.171790099999999C7.999939890386963,10.4369798,7.894549890386963,10.691289900000001,7.706999790386963,10.878789900000001C7.706999790386963,10.878789900000001,9.120999790386964,12.29321,9.120999790386964,12.29321C9.120999790386964,12.29321,9.120999790386964,12.29321,9.120999790386964,12.29321ZM9.999999990386963,10.1719999C9.999999990386963,10.1719999,9.999999990386963,5,9.999999990386963,5C9.999999990386963,5,7.9999999903869625,5,7.9999999903869625,5C7.9999999903869625,5,7.9999999903869625,10.1719999,7.9999999903869625,10.1719999C7.9999999903869625,10.1719999,9.999999990386963,10.1719999,9.999999990386963,10.1719999C9.999999990386963,10.1719999,9.999999990386963,10.1719999,9.999999990386963,10.1719999ZM9.707109890386963,4.29289299C9.707109890386963,4.29289299,8.707109890386963,3.29289299,8.707109890386963,3.29289299C8.707109890386963,3.29289299,7.292890090386963,4.70710701,7.292890090386963,4.70710701C7.292890090386963,4.70710701,8.292890090386962,5.70711,8.292890090386962,5.70711C8.292890090386962,5.70711,9.707109890386963,4.29289299,9.707109890386963,4.29289299C9.707109890386963,4.29289299,9.707109890386963,4.29289299,9.707109890386963,4.29289299Z" fill="#0A0A28" fill-opacity="1"/></g></svg>