<svg xmlns="http://www.w3.org/2000/svg" xmlns:xlink="http://www.w3.org/1999/xlink" fill="none" version="1.1" width="24" height="24" viewBox="0 0 24 24"><defs><clipPath id="master_svg0_3_2222"><rect x="0" y="0" width="24" height="24" rx="0"/></clipPath></defs><g clip-path="url(#master_svg0_3_2222)"><path d="M20,17C20,17,20,18,20,18C20.404499,18,20.7691,17.7564,20.923901,17.3827C21.078699,17.009,20.993099,16.5789,20.7071,16.2929C20.7071,16.2929,20,17,20,17C20,17,20,17,20,17ZM18.595,15.595C18.595,15.595,17.8878,16.302,17.8878,16.302C17.8878,16.302,17.887900000000002,16.3021,17.887900000000002,16.3021C17.887900000000002,16.3021,18.595,15.595,18.595,15.595C18.595,15.595,18.595,15.595,18.595,15.595ZM18,14.158C18,14.158,19,14.1582,19,14.1582C19,14.1582,19,14.158,19,14.158C19,14.158,18,14.158,18,14.158C18,14.158,18,14.158,18,14.158ZM18,11C18,11,17,10.9998798,17,10.9998798C17,10.9998798,17,11,17,11C17,11,18,11,18,11C18,11,18,11,18,11ZM14,5.3410001000000005C14,5.3410001000000005,13,5.3410001000000005,13,5.3410001000000005C13,5.7646999,13.2670097,6.1424,13.66644,6.28373C13.66644,6.28373,14,5.3410001000000005,14,5.3410001000000005C14,5.3410001000000005,14,5.3410001000000005,14,5.3410001000000005ZM12,3C12,3,12,2,12,2C12,2,12,3,12,3C12,3,12,3,12,3ZM10,5.3410001000000005C10,5.3410001000000005,10.3334098,6.2837800999999995,10.3334098,6.2837800999999995C10.732920199999999,6.1424999,11,5.764749999999999,11,5.3410001000000005C11,5.3410001000000005,10,5.3410001000000005,10,5.3410001000000005C10,5.3410001000000005,10,5.3410001000000005,10,5.3410001000000005ZM5.405,15.595C5.405,15.595,6.1121099,16.3021,6.1121099,16.3021C6.1121099,16.3021,6.1121099,16.3021,6.1121099,16.3021C6.1121099,16.3021,5.405,15.595,5.405,15.595C5.405,15.595,5.405,15.595,5.405,15.595ZM4,17C4,17,3.29289299,16.2929,3.29289299,16.2929C3.00689501,16.5789,2.92134,17.009,3.07612002,17.3827C3.2309010000000002,17.7564,3.59553799,18,4,18C4,18,4,17,4,17C4,17,4,17,4,17ZM12,21C12,21,12,22,12,22C12,22,12,21,12,21C12,21,12,21,12,21ZM15,18C15,18,20,18,20,18C20,18,20,16,20,16C20,16,15,16,15,16C15,16,15,18,15,18C15,18,15,18,15,18ZM20.7071,16.2929C20.7071,16.2929,19.3021,14.8879,19.3021,14.8879C19.3021,14.8879,17.887900000000002,16.3021,17.887900000000002,16.3021C17.887900000000002,16.3021,19.2929,17.7071,19.2929,17.7071C19.2929,17.7071,20.7071,16.2929,20.7071,16.2929C20.7071,16.2929,20.7071,16.2929,20.7071,16.2929ZM19.3022,14.888C19.206400000000002,14.7921,19.1304,14.6783,19.0785,14.5531C19.0785,14.5531,17.230600000000003,15.3182,17.230600000000003,15.3182C17.383,15.6861,17.606299999999997,16.020400000000002,17.8878,16.302C17.8878,16.302,19.3022,14.888,19.3022,14.888C19.3022,14.888,19.3022,14.888,19.3022,14.888ZM19.0785,14.5531C19.026699999999998,14.4279,19,14.2937,19,14.1582C19,14.1582,17,14.1578,17,14.1578C16.9999,14.556,17.0783,14.9503,17.230600000000003,15.3182C17.230600000000003,15.3182,19.0785,14.5531,19.0785,14.5531C19.0785,14.5531,19.0785,14.5531,19.0785,14.5531ZM19,14.158C19,14.158,19,11,19,11C19,11,17,11,17,11C17,11,17,14.158,17,14.158C17,14.158,19,14.158,19,14.158C19,14.158,19,14.158,19,14.158ZM19,11.0001202C19.0002,9.5522799,18.5515,8.1399899,17.7158,6.95768C17.7158,6.95768,16.0826,8.1120901,16.0826,8.1120901C16.6796,8.9566898,17.0001,9.965589999999999,17,10.9998798C17,10.9998798,19,11.0001202,19,11.0001202C19,11.0001202,19,11.0001202,19,11.0001202ZM17.7158,6.95768C16.8801,5.7753799,15.6985,4.8812,14.3336,4.39827C14.3336,4.39827,13.66644,6.28373,13.66644,6.28373C14.6415,6.6287199999999995,15.4856,7.2674899,16.0826,8.1120901C16.0826,8.1120901,17.7158,6.95768,17.7158,6.95768C17.7158,6.95768,17.7158,6.95768,17.7158,6.95768ZM15,5.3410001000000005C15,5.3410001000000005,15,5,15,5C15,5,13,5,13,5C13,5,13,5.3410001000000005,13,5.3410001000000005C13,5.3410001000000005,15,5.3410001000000005,15,5.3410001000000005C15,5.3410001000000005,15,5.3410001000000005,15,5.3410001000000005ZM15,5C15,4.20435,14.6839,3.44128799,14.1213,2.87868C14.1213,2.87868,12.7071104,4.29289,12.7071104,4.29289C12.89464,4.48043,13,4.73478,13,5C13,5,15,5,15,5C15,5,15,5,15,5ZM14.1213,2.87868C13.5587101,2.3160700199999997,12.7956495,2,12,2C12,2,12,4,12,4C12.2652197,4,12.5195704,4.10536,12.7071104,4.29289C12.7071104,4.29289,14.1213,2.87868,14.1213,2.87868C14.1213,2.87868,14.1213,2.87868,14.1213,2.87868ZM12,2C11.20435,2,10.441289900000001,2.3160700199999997,9.8786802,2.87868C9.8786802,2.87868,11.292890100000001,4.29289,11.292890100000001,4.29289C11.4804301,4.10536,11.7347798,4,12,4C12,4,12,2,12,2C12,2,12,2,12,2ZM9.8786802,2.87868C9.316070100000001,3.44128799,9,4.20435,9,5C9,5,11,5,11,5C11,4.73478,11.105360000000001,4.48043,11.292890100000001,4.29289C11.292890100000001,4.29289,9.8786802,2.87868,9.8786802,2.87868C9.8786802,2.87868,9.8786802,2.87868,9.8786802,2.87868ZM9,5C9,5,9,5.3410001000000005,9,5.3410001000000005C9,5.3410001000000005,11,5.3410001000000005,11,5.3410001000000005C11,5.3410001000000005,11,5,11,5C11,5,9,5,9,5C9,5,9,5,9,5ZM9.6665902,4.3982199C6.9497199,5.359030000000001,5,7.9509902,5,11C5,11,7,11,7,11C7,8.8250098,8.3902798,6.9709699,10.3334098,6.2837800999999995C10.3334098,6.2837800999999995,9.6665902,4.3982199,9.6665902,4.3982199C9.6665902,4.3982199,9.6665902,4.3982199,9.6665902,4.3982199ZM5,11C5,11,5,14.159,5,14.159C5,14.159,7,14.159,7,14.159C7,14.159,7,11,7,11C7,11,5,11,5,11C5,11,5,11,5,11ZM5,14.159C5,14.4318,4.89137501,14.6944,4.69789302,14.8879C4.69789302,14.8879,6.1121099,16.3021,6.1121099,16.3021C6.68063,15.7336,7,14.9622,7,14.159C7,14.159,5,14.159,5,14.159C5,14.159,5,14.159,5,14.159ZM4.69789398,14.8879C4.69789398,14.8879,3.29289299,16.2929,3.29289299,16.2929C3.29289299,16.2929,4.70710701,17.7071,4.70710701,17.7071C4.70710701,17.7071,6.1121099,16.3021,6.1121099,16.3021C6.1121099,16.3021,4.69789398,14.8879,4.69789398,14.8879C4.69789398,14.8879,4.69789398,14.8879,4.69789398,14.8879ZM4,18C4,18,9,18,9,18C9,18,9,16,9,16C9,16,4,16,4,16C4,16,4,18,4,18C4,18,4,18,4,18ZM9,18C9,18,15,18,15,18C15,18,15,16,15,16C15,16,9,16,9,16C9,16,9,18,9,18C9,18,9,18,9,18ZM14,17C14,17,14,18,14,18C14,18,16,18,16,18C16,18,16,17,16,17C16,17,14,17,14,17C14,17,14,17,14,17ZM14,18C14,18.5304,13.7892904,19.039101,13.4142103,19.4142C13.4142103,19.4142,14.8284,20.8284,14.8284,20.8284C15.5786,20.0783,16,19.0609,16,18C16,18,14,18,14,18C14,18,14,18,14,18ZM13.4142103,19.4142C13.0391397,19.789301,12.5304298,20,12,20C12,20,12,22,12,22C13.0608702,22,14.0783,21.5786,14.8284,20.8284C14.8284,20.8284,13.4142103,19.4142,13.4142103,19.4142C13.4142103,19.4142,13.4142103,19.4142,13.4142103,19.4142ZM12,20C11.4695702,20,10.9608598,19.789301,10.5857902,19.4142C10.5857902,19.4142,9.1715698,20.8284,9.1715698,20.8284C9.92172,21.5786,10.9391298,22,12,22C12,22,12,20,12,20C12,20,12,20,12,20ZM10.5857902,19.4142C10.210709999999999,19.039101,10,18.5304,10,18C10,18,8,18,8,18C8,19.0609,8.4214301,20.0783,9.1715698,20.8284C9.1715698,20.8284,10.5857902,19.4142,10.5857902,19.4142C10.5857902,19.4142,10.5857902,19.4142,10.5857902,19.4142ZM10,18C10,18,10,17,10,17C10,17,8,17,8,17C8,17,8,18,8,18C8,18,10,18,10,18C10,18,10,18,10,18Z" fill="#0A0A28" fill-opacity="1"/></g></svg>