<svg xmlns="http://www.w3.org/2000/svg" xmlns:xlink="http://www.w3.org/1999/xlink" fill="none" version="1.1" width="24" height="24" viewBox="0 0 24 24"><defs><clipPath id="master_svg0_3_2303"><rect x="0" y="0" width="24" height="24" rx="0"/></clipPath></defs><g clip-path="url(#master_svg0_3_2303)"><path d="M11.9999695265625,2.399993896484375C10.0904088265625,2.3999938964843768,8.2590523265625,3.158563136484375,6.9088001265625,4.508825996484375C5.5585359265625005,5.859090096484374,4.7999643265625,7.690433996484375,4.7999643265625,9.599994196484374C4.7999643265625,9.599994196484374,4.7999643265625,13.903194896484376,4.7999643265625,13.903194896484376C4.7999643265625,13.903194896484376,3.9515641665625,14.751594896484375,3.9515641665625,14.751594896484375C3.7837921565625,14.919474896484376,3.6695449355625,15.133194896484374,3.6232639305625,15.365994896484375C3.5769828035625,15.598674896484376,3.6007464678225,15.839994896484376,3.6915505375625,16.059234896484377C3.7823545465625,16.278474896484376,3.9361213465625,16.465794896484375,4.1334134365625,16.597673896484373C4.3307054665625,16.729554896484373,4.5626642665625,16.799994896484375,4.7999643265625,16.799994896484375C4.7999643265625,16.799994896484375,19.1999817265625,16.799994896484375,19.1999817265625,16.799994896484375C19.4372227265625,16.799994896484375,19.6691817265625,16.729554896484373,19.8664607265625,16.597673896484373C20.0638617265625,16.465794896484375,20.2175827265625,16.278474896484376,20.3084217265625,16.059234896484377C20.3991417265625,15.839994896484376,20.4229007265625,15.598674896484376,20.3767017265625,15.365994896484375C20.3303817265625,15.133194896484374,20.2161407265625,14.919474896484376,20.0483817265625,14.751594896484375C20.0483817265625,14.751594896484375,19.1999817265625,13.903194896484376,19.1999817265625,13.903194896484376C19.1999817265625,13.903194896484376,19.1999817265625,9.599994196484374,19.1999817265625,9.599994196484374C19.1999817265625,7.690433996484375,18.4413427265625,5.859090096484374,17.0911017265625,4.508825996484375C15.7408607265625,3.158563136484375,13.9095297265625,2.399993896484376,11.9999695265625,2.399993896484375C11.9999695265625,2.399993896484375,11.9999695265625,2.399993896484375,11.9999695265625,2.399993896484375C11.9999695265625,2.399993896484375,11.9999695265625,2.399993896484375,11.9999695265625,2.399993896484375ZM11.9999695265625,21.599994896484375C11.0451889265625,21.599994896484375,10.1295166265625,21.220674896484375,9.4543843265625,20.545554896484376C8.7792520265625,19.870433896484375,8.3999681265625,18.954713896484375,8.3999681265625,17.999993896484376C8.3999681265625,17.999993896484376,15.5999697265625,17.999993896484376,15.5999697265625,17.999993896484376C15.5999697265625,18.954713896484375,15.2206847265625,19.870433896484375,14.5455527265625,20.545554896484376C13.8704217265625,21.220674896484375,12.9547491265625,21.599994896484375,11.9999695265625,21.599994896484375C11.9999695265625,21.599994896484375,11.9999695265625,21.599994896484375,11.9999695265625,21.599994896484375Z" fill="#0A0A28" fill-opacity="1"/></g></svg>