<svg xmlns="http://www.w3.org/2000/svg" xmlns:xlink="http://www.w3.org/1999/xlink" fill="none" version="1.1" width="24" height="24" viewBox="0 0 24 24"><defs><clipPath id="master_svg0_601_07232"><rect x="0" y="0" width="24" height="24" rx="0"/></clipPath></defs><g clip-path="url(#master_svg0_601_07232)"><path d="M22.94529929296875,7.96875005C22.94529929296875,7.47656245,22.54686129296875,7.07812505,22.05467429296875,7.07812505C21.64451829296875,7.07812505,21.29998829296875,7.35468725,21.19686329296875,7.72968725C21.12889329296875,7.89140605,20.92029929296875,8.33671855,20.52655029296875,8.86874965L17.16326929296875,5.50781245C16.816394292968752,5.16093735,16.25154929296875,5.16093735,15.90467429296875,5.50781245C15.55780029296875,5.85468725,15.55780029296875,6.41953135,15.90467429296875,6.76640605L19.27967429296875,10.14140605C18.85545529296875,10.46718695,18.39842429296875,10.73203085,17.90858029296875,10.94062515L15.55076929296875,8.58515595C15.20389329296875,8.23828125,14.63904929296875,8.23828125,14.29217529296875,8.58515595C13.94530029296875,8.93203115,13.94530029296875,9.49687485,14.29217529296875,9.84375005L15.89998729296875,11.45156225C14.94139429296875,11.55468725,13.89139329296875,11.49374925,12.75701929296875,11.26875025C12.20389329296875,8.47734355,12.60467529296875,6.22734355,13.94764329296875,4.570312449999999C15.01639329296875,3.25312495,16.32889329296875,2.80078125,16.34295629296875,2.79609375L16.33826829296875,2.7984374499999998C16.68514329296875,2.67656245,16.93358129296875,2.34609375,16.93358129296875,1.95703125C16.93358129296875,1.46484375,16.535144292968752,1.06640625,16.04295629296875,1.06640625C15.92342429296875,1.06640625,15.81092429296875,1.08984375,15.70545529296875,1.132031247C15.34686229296875,1.265625,13.87967529296875,1.87265623,12.63280029296875,3.36328125C11.81248729296875,4.34531235,11.24998729296875,5.50546885,10.96170619296875,6.81796885C10.68983169296875,8.05078125,10.66405009296875,9.41718765,10.88201909296875,10.88906195C9.41014389296875,10.66406245,8.04608149296875,10.68515585,6.81092499296875,10.95234395C5.49842499296875,11.23593725,4.33358149296875,11.79375025,3.34920649296875,12.60937525C1.82108152296875,13.87500025,1.21405029296875,15.37500025,1.09686279296875,15.69374925C1.04998779296875,15.80156225,1.02655029296875,15.91875025,1.02655029296875,16.04296825C1.02655029296875,16.53515625,1.42498779296875,16.93359425,1.91717529296875,16.93359425C2.31561279296875,16.93359425,2.65311279296875,16.67109325,2.76795649296875,16.31015625L2.77030029296875,16.31015625L2.76561269296875,16.31250025C2.76795649296875,16.30312425,2.95311269296875,15.78046825,3.41717529296875,15.12890625L6.78748749296875,18.49921825C6.96092509296875,18.67265525,7.18826909296875,18.75937425,7.41795639296875,18.75937425C7.64764409296875,18.75937425,7.87498759296875,18.67265525,8.04842519296875,18.49921825C8.395299892968751,18.15234425,8.395299892968751,17.58749925,8.04842519296875,17.24062525L4.65467529296875,13.84453125C5.07654999296875,13.51875025,5.53592539296875,13.25390625,6.03045649296875,13.04765625L8.39061259296875,15.40781225C8.56405019296875,15.58124925,8.79139379296875,15.66796825,9.02108149296875,15.66796825C9.25076869296875,15.66796825,9.47811219296875,15.58124925,9.65155029296875,15.40781225C9.99842549296875,15.06093725,9.99842549296875,14.49609425,9.65155029296875,14.14921825L8.05545619296875,12.55312425C9.02811239296875,12.45703125,10.09686279296875,12.52734425,11.25701929296875,12.76171825C11.78436229296875,15.47812425,11.37186229296875,17.69999925,10.02889349296875,19.37343825C8.95076899296875,20.71406125,7.63358119296875,21.20624925,7.61951879296875,21.21093725L7.62420649296875,21.20859325L7.62655019296875,21.21328125C7.28436279296875,21.33749925,7.04061269296875,21.66562425,7.04061269296875,22.04999925C7.04061269296875,22.54218625,7.43905019296875,22.94062425,7.93123769296875,22.94062425C8.08358149296875,22.94062425,8.22655009296875,22.90312425,8.35311269296875,22.83515525C8.78436279296875,22.65703025,10.16483119296875,22.00546825,11.35311229296875,20.56875025C12.17108129296875,19.57734325,12.73358129296875,18.41484225,13.02655029296875,17.11406125C13.29842429296875,15.89999925,13.33358129296875,14.56640625,13.12967529296875,13.13437425C14.55936229296875,13.34531225,15.89530029296875,13.31718725,17.10936129296875,13.04765625C17.39295529296875,12.98437525,17.66951929296875,12.90937525,17.93905029296875,12.82265525C17.95780029296875,12.81796825,17.97420729296875,12.81093725,17.99061229296875,12.80624925C18.94217529296875,12.48984325,19.80701829296875,12.01640625,20.57108129296875,11.39062525C20.76326929296875,11.23359425,20.94139329296875,11.07187425,21.10545529296875,10.91015625C21.14530029296875,10.88203145,21.18280029296875,10.84921835,21.22030029296875,10.81406215C21.26014329296875,10.77421855,21.29529929296875,10.73203085,21.32576929296875,10.68750005C22.45311129296875,9.49687485,22.88201929296875,8.32734345,22.90311229296875,8.26874975L22.89842429296875,8.26640605C22.92655029296875,8.17499975,22.94529929296875,8.07421875,22.94529929296875,7.96875005Z" fill="#0A0A28" fill-opacity="1"/></g></svg>