<svg xmlns="http://www.w3.org/2000/svg" xmlns:xlink="http://www.w3.org/1999/xlink" fill="none" version="1.1" width="24" height="24" viewBox="0 0 24 24"><defs><clipPath id="master_svg0_3_1852"><rect x="0" y="0" width="24" height="24" rx="0"/></clipPath></defs><g clip-path="url(#master_svg0_3_1852)"><path d="M10.8000250140625,5.76479864296875C9.491676814062501,5.12778940296875,8.0552044140625,4.79781003296875,6.6000247140625,4.79999860882075C5.0940244140625,4.79999860882075,3.6684245140625,5.14799860296875,2.4000244140625,5.76479864296875C2.4000244140625,5.76479864296875,2.4000244140625,17.76478879296875,2.4000244140625,17.76478879296875C3.7083844140625,17.12782879296875,5.144856414062501,16.797852792968747,6.6000247140625,16.79998779296875C8.6028247140625,16.79998779296875,10.4616251140625,17.411987792968752,12.0000248140625,18.46198879296875C13.5913214140625,17.37622879296875,15.4736654140625,16.79695179296875,17.400025414062497,16.79998779296875C18.9060254140625,16.79998779296875,20.3316254140625,17.14798879296875,21.6000254140625,17.76478879296875C21.6000254140625,17.76478879296875,21.6000254140625,5.76479864296875,21.6000254140625,5.76479864296875C20.2916664140625,5.12778940296875,18.8551444140625,4.79781003296875,17.400025414062497,4.79999860882075C15.8940244140625,4.79999860882075,14.4684244140625,5.14799860296875,13.2000244140625,5.76479864296875C13.2000244140625,5.76479864296875,13.2000244140625,14.39999959296875,13.2000244140625,14.39999959296875C13.2000244140625,14.71826459296875,13.0735934140625,15.02348379296875,12.8485574140625,15.24853279296875C12.6235094140625,15.47356879296875,12.3182888140625,15.59999979296875,12.0000248140625,15.59999979296875C11.6817608140625,15.59999979296875,11.3765411140625,15.47356879296875,11.1514931140625,15.24853279296875C10.9264564140625,15.02348379296875,10.8000250140625,14.71826459296875,10.8000250140625,14.39999959296875C10.8000250140625,14.39999959296875,10.8000250140625,5.76479864296875,10.8000250140625,5.76479864296875C10.8000250140625,5.76479864296875,10.8000250140625,5.76479864296875,10.8000250140625,5.76479864296875Z" fill="#0A0A28" fill-opacity="1"/></g></svg>