<svg xmlns="http://www.w3.org/2000/svg" xmlns:xlink="http://www.w3.org/1999/xlink" fill="none" version="1.1" width="24" height="24" viewBox="0 0 24 24"><defs><clipPath id="master_svg0_3_2230"><rect x="0" y="0" width="24" height="24" rx="0"/></clipPath></defs><g clip-path="url(#master_svg0_3_2230)"><path d="M16,4C16,4,17,4,17,4C17,3.4477149799999998,16.552300000000002,3,16,3C16,3,16,4,16,4C16,4,16,4,16,4ZM16,16C16,16,15.5528,16.894399999999997,15.5528,16.894399999999997C15.8628,17.0494,16.2309,17.032899999999998,16.5257,16.8507C16.8205,16.6684,17,16.346600000000002,17,16C17,16,16,16,16,16C16,16,16,16,16,16ZM12,14C12,14,12.4472103,13.1055698,12.4472103,13.1055698C12.1656904,12.9648104,11.8343101,12.9648104,11.5527902,13.1055698C11.5527902,13.1055698,12,14,12,14C12,14,12,14,12,14ZM8,16C8,16,7,16,7,16C7,16.346600000000002,7.17945,16.6684,7.4742701,16.8507C7.7690899,17.032899999999998,8.137229900000001,17.0494,8.4472098,16.894399999999997C8.4472098,16.894399999999997,8,16,8,16C8,16,8,16,8,16ZM8,4C8,4,8,3,8,3C7.4477201,3,7,3.4477149799999998,7,4C7,4,8,4,8,4C8,4,8,4,8,4ZM18,4C18,4,18,3,18,3C18,3,18,4,18,4C18,4,18,4,18,4ZM6,4C6,4,6,3,6,3C6,3,6,4,6,4C6,4,6,4,6,4ZM4,6C4,6,3,6,3,6C3,6,4,6,4,6C4,6,4,6,4,6ZM4,18C4,18,3,18,3,18C3,18,4,18,4,18C4,18,4,18,4,18ZM15,4C15,4,15,16,15,16C15,16,17,16,17,16C17,16,17,4,17,4C17,4,15,4,15,4C15,4,15,4,15,4ZM16.447200000000002,15.1056C16.447200000000002,15.1056,12.4472103,13.1055698,12.4472103,13.1055698C12.4472103,13.1055698,11.5527902,14.8944,11.5527902,14.8944C11.5527902,14.8944,15.5528,16.894399999999997,15.5528,16.894399999999997C15.5528,16.894399999999997,16.447200000000002,15.1056,16.447200000000002,15.1056C16.447200000000002,15.1056,16.447200000000002,15.1056,16.447200000000002,15.1056ZM11.5527902,13.1055698C11.5527902,13.1055698,7.5527899000000005,15.1056,7.5527899000000005,15.1056C7.5527899000000005,15.1056,8.4472098,16.894399999999997,8.4472098,16.894399999999997C8.4472098,16.894399999999997,12.4472103,14.8944,12.4472103,14.8944C12.4472103,14.8944,11.5527902,13.1055698,11.5527902,13.1055698C11.5527902,13.1055698,11.5527902,13.1055698,11.5527902,13.1055698ZM9,16C9,16,9,4,9,4C9,4,7,4,7,4C7,4,7,16,7,16C7,16,9,16,9,16C9,16,9,16,9,16ZM8,5C8,5,16,5,16,5C16,5,16,3,16,3C16,3,8,3,8,3C8,3,8,5,8,5C8,5,8,5,8,5ZM6,21C6,21,18,21,18,21C18,21,18,19,18,19C18,19,6,19,6,19C6,19,6,21,6,21C6,21,6,21,6,21ZM18,21C18.7957,21,19.5587,20.683901,20.1213,20.1213C20.1213,20.1213,18.7071,18.7071,18.7071,18.7071C18.5196,18.8946,18.2652,19,18,19C18,19,18,21,18,21C18,21,18,21,18,21ZM20.1213,20.1213C20.683901,19.5587,21,18.7957,21,18C21,18,19,18,19,18C19,18.2652,18.8946,18.5196,18.7071,18.7071C18.7071,18.7071,20.1213,20.1213,20.1213,20.1213C20.1213,20.1213,20.1213,20.1213,20.1213,20.1213ZM21,18C21,18,21,6,21,6C21,6,19,6,19,6C19,6,19,18,19,18C19,18,21,18,21,18C21,18,21,18,21,18ZM21,6C21,5.20435,20.683901,4.44128799,20.1213,3.87868C20.1213,3.87868,18.7071,5.29289,18.7071,5.29289C18.8946,5.48043,19,5.73478,19,6C19,6,21,6,21,6C21,6,21,6,21,6ZM20.1213,3.87868C19.5587,3.3160700199999997,18.7956,3,18,3C18,3,18,5,18,5C18.2652,5,18.5196,5.10536,18.7071,5.29289C18.7071,5.29289,20.1213,3.87868,20.1213,3.87868C20.1213,3.87868,20.1213,3.87868,20.1213,3.87868ZM18,3C18,3,6,3,6,3C6,3,6,5,6,5C6,5,18,5,18,5C18,5,18,3,18,3C18,3,18,3,18,3ZM6,3C5.20435,3,4.44128901,3.3160700199999997,3.87868,3.87868C3.87868,3.87868,5.29289,5.29289,5.29289,5.29289C5.48043,5.10536,5.73478,5,6,5C6,5,6,3,6,3C6,3,6,3,6,3ZM3.87868,3.87868C3.3160700199999997,4.44128901,3,5.20435,3,6C3,6,5,6,5,6C5,5.73478,5.10536,5.48043,5.29289,5.29289C5.29289,5.29289,3.87868,3.87868,3.87868,3.87868C3.87868,3.87868,3.87868,3.87868,3.87868,3.87868ZM3,6C3,6,3,18,3,18C3,18,5,18,5,18C5,18,5,6,5,6C5,6,3,6,3,6C3,6,3,6,3,6ZM3,18C3,18.7956,3.3160700199999997,19.5587,3.87868,20.1213C3.87868,20.1213,5.29289,18.7071,5.29289,18.7071C5.10536,18.5196,5,18.2652,5,18C5,18,3,18,3,18C3,18,3,18,3,18ZM3.87868,20.1213C4.44128799,20.683901,5.20435,21,6,21C6,21,6,19,6,19C5.73478,19,5.48043,18.8946,5.29289,18.7071C5.29289,18.7071,3.87868,20.1213,3.87868,20.1213C3.87868,20.1213,3.87868,20.1213,3.87868,20.1213Z" fill="#0A0A28" fill-opacity="1"/></g></svg>