<svg xmlns="http://www.w3.org/2000/svg" xmlns:xlink="http://www.w3.org/1999/xlink" fill="none" version="1.1" width="24" height="24" viewBox="0 0 24 24"><defs><clipPath id="master_svg0_3_2037"><rect x="0" y="0" width="24" height="24" rx="0"/></clipPath></defs><g clip-path="url(#master_svg0_3_2037)"><path d="M3.5999755859375,6.000006203515625C3.5999755859375,5.363490203515625,3.8528324059375,4.753037003515625,4.3029187959375,4.302949313515625C4.7530064859375,3.852862923515625,5.3634596859375,3.6000061035156254,5.9999756859375,3.600006103515625C5.9999756859375,3.600006103515625,17.9999765859375,3.600006103515625,17.9999765859375,3.600006103515625C18.636456585937502,3.6000061035156254,19.2468955859375,3.852862923515625,19.6970155859375,4.302949313515625C20.1471365859375,4.753037003515625,20.3999765859375,5.363490203515625,20.3999765859375,6.000006203515625C20.3999765859375,6.000006203515625,20.3999765859375,18.000007103515625,20.3999765859375,18.000007103515625C20.3999765859375,18.636487103515627,20.1471365859375,19.246926103515626,19.6970155859375,19.697046103515625C19.2468955859375,20.147167103515624,18.636456585937502,20.400007103515627,17.9999765859375,20.400007103515627C17.9999765859375,20.400007103515627,5.9999756859375,20.400007103515627,5.9999756859375,20.400007103515627C5.3634596859375,20.400007103515627,4.7530064859375,20.147167103515624,4.3029187959375,19.697046103515625C3.8528324059375,19.246926103515626,3.5999755859375004,18.636487103515627,3.5999755859375,18.000007103515625C3.5999755859375,18.000007103515625,3.5999755859375,6.000006203515625,3.5999755859375,6.000006203515625C3.5999755859375,6.000006203515625,3.5999755859375,6.000006203515625,3.5999755859375,6.000006203515625ZM16.7999765859375,7.200006203515625C16.7999765859375,7.200006203515625,7.1999756859375,7.200006203515625,7.1999756859375,7.200006203515625C7.1999756859375,7.200006203515625,7.1999756859375,16.800007103515625,7.1999756859375,16.800007103515625C7.1999756859375,16.800007103515625,11.9999761859375,14.400006103515626,11.9999761859375,14.400006103515626C11.9999761859375,14.400006103515626,16.7999765859375,16.800007103515625,16.7999765859375,16.800007103515625C16.7999765859375,16.800007103515625,16.7999765859375,7.200006203515625,16.7999765859375,7.200006203515625C16.7999765859375,7.200006203515625,16.7999765859375,7.200006203515625,16.7999765859375,7.200006203515625Z" fill-rule="evenodd" fill="#0A0A28" fill-opacity="1"/></g></svg>