<svg xmlns="http://www.w3.org/2000/svg" xmlns:xlink="http://www.w3.org/1999/xlink" fill="none" version="1.1" width="24" height="24" viewBox="0 0 24 24"><defs><clipPath id="master_svg0_3_2384"><rect x="0" y="0" width="24" height="24" rx="0"/></clipPath></defs><g clip-path="url(#master_svg0_3_2384)"><path d="M12,19.253C12,19.253,11.44662,20.085900000000002,11.44662,20.085900000000002C11.7819099,20.3087,12.2180901,20.3087,12.55338,20.085900000000002C12.55338,20.085900000000002,12,19.253,12,19.253C12,19.253,12,19.253,12,19.253ZM3,6.253C3,6.253,2.4466170099999998,5.420073,2.4466170099999998,5.420073C2.16765797,5.60540801,2,5.91808599,2,6.253C2,6.253,3,6.253,3,6.253C3,6.253,3,6.253,3,6.253ZM3,19.253C3,19.253,2,19.253,2,19.253C2,19.621499999999997,2.20267498,19.9602,2.5274449900000002,20.1343C2.85221399,20.3084,3.24643999,20.2899,3.5533829900000002,20.085900000000002C3.5533829900000002,20.085900000000002,3,19.253,3,19.253C3,19.253,3,19.253,3,19.253ZM21,6.253C21,6.253,22,6.253,22,6.253C22,5.91808599,21.8323,5.60540801,21.5534,5.420073C21.5534,5.420073,21,6.253,21,6.253C21,6.253,21,6.253,21,6.253ZM21,19.253C21,19.253,20.4466,20.085900000000002,20.4466,20.085900000000002C20.753599,20.2899,21.1478,20.3084,21.472601,20.1343C21.7973,19.9602,22,19.621499999999997,22,19.253C22,19.253,21,19.253,21,19.253C21,19.253,21,19.253,21,19.253ZM11,6.253C11,6.253,11,19.253,11,19.253C11,19.253,13,19.253,13,19.253C13,19.253,13,6.253,13,6.253C13,6.253,11,6.253,11,6.253C11,6.253,11,6.253,11,6.253ZM12.55338,5.420073C11.2030401,4.522928,9.419640099999999,4,7.5,4C7.5,4,7.5,6,7.5,6C9.07236,6,10.460959899999999,6.43107,11.44662,7.085930100000001C11.44662,7.085930100000001,12.55338,5.420073,12.55338,5.420073C12.55338,5.420073,12.55338,5.420073,12.55338,5.420073ZM7.5,4C5.5803598999999995,4,3.79695898,4.522928,2.4466170099999998,5.420073C2.4466170099999998,5.420073,3.5533829900000002,7.085930100000001,3.5533829900000002,7.085930100000001C4.53904,6.43107,5.92764,6,7.5,6C7.5,6,7.5,4,7.5,4C7.5,4,7.5,4,7.5,4ZM2,6.253C2,6.253,2,19.253,2,19.253C2,19.253,4,19.253,4,19.253C4,19.253,4,6.253,4,6.253C4,6.253,2,6.253,2,6.253C2,6.253,2,6.253,2,6.253ZM3.5533829900000002,20.085900000000002C4.53904,19.4311,5.92764,19,7.5,19C7.5,19,7.5,17,7.5,17C5.5803598999999995,17,3.79695898,17.5229,2.4466170099999998,18.420099999999998C2.4466170099999998,18.420099999999998,3.5533829900000002,20.085900000000002,3.5533829900000002,20.085900000000002C3.5533829900000002,20.085900000000002,3.5533829900000002,20.085900000000002,3.5533829900000002,20.085900000000002ZM7.5,19C9.07236,19,10.460959899999999,19.4311,11.44662,20.085900000000002C11.44662,20.085900000000002,12.55338,18.420099999999998,12.55338,18.420099999999998C11.2030401,17.5229,9.419640099999999,17,7.5,17C7.5,17,7.5,19,7.5,19C7.5,19,7.5,19,7.5,19ZM12.55338,7.085930100000001C13.539,6.43107,14.9276,6,16.5,6C16.5,6,16.5,4,16.5,4C14.5804,4,12.7969599,4.522928,11.44662,5.420073C11.44662,5.420073,12.55338,7.085930100000001,12.55338,7.085930100000001C12.55338,7.085930100000001,12.55338,7.085930100000001,12.55338,7.085930100000001ZM16.5,6C18.0733,6,19.460899,6.43104,20.4466,7.085930100000001C20.4466,7.085930100000001,21.5534,5.420073,21.5534,5.420073C20.2031,4.52295899,18.4207,4,16.5,4C16.5,4,16.5,6,16.5,6C16.5,6,16.5,6,16.5,6ZM20,6.253C20,6.253,20,19.253,20,19.253C20,19.253,22,19.253,22,19.253C22,19.253,22,6.253,22,6.253C22,6.253,20,6.253,20,6.253C20,6.253,20,6.253,20,6.253ZM21.5534,18.420099999999998C20.2031,17.523,18.4207,17,16.5,17C16.5,17,16.5,19,16.5,19C18.0733,19,19.460899,19.430999999999997,20.4466,20.085900000000002C20.4466,20.085900000000002,21.5534,18.420099999999998,21.5534,18.420099999999998C21.5534,18.420099999999998,21.5534,18.420099999999998,21.5534,18.420099999999998ZM16.5,17C14.5804,17,12.7969599,17.5229,11.44662,18.420099999999998C11.44662,18.420099999999998,12.55338,20.085900000000002,12.55338,20.085900000000002C13.539,19.4311,14.9276,19,16.5,19C16.5,19,16.5,17,16.5,17C16.5,17,16.5,17,16.5,17Z" fill="#0A0A28" fill-opacity="1"/></g></svg>