<svg xmlns="http://www.w3.org/2000/svg" xmlns:xlink="http://www.w3.org/1999/xlink" fill="none" version="1.1" width="24" height="24" viewBox="0 0 24 24"><defs><clipPath id="master_svg0_3_1707"><rect x="0" y="0" width="24" height="24" rx="0"/></clipPath></defs><g clip-path="url(#master_svg0_3_1707)"><path d="M6,4.799993996484375C6,4.163477996484375,6.25285682,3.553024796484375,6.70294321,3.102937106484375C7.1530309,2.652850716484375,7.7634841,2.3999938964843754,8.4000001,2.399993896484375C8.4000001,2.399993896484375,15.6000004,2.399993896484375,15.6000004,2.399993896484375C16.236516,2.3999938964843754,16.846968,2.652850716484375,17.297052,3.102937106484375C17.747149,3.553024796484375,18,4.163477996484375,18,4.799993996484375C18,4.799993996484375,18,21.599994896484375,18,21.599994896484375C18,21.599994896484375,12,18.599994896484375,12,18.599994896484375C12,18.599994896484375,6,21.599994896484375,6,21.599994896484375C6,21.599994896484375,6,4.799993996484375,6,4.799993996484375C6,4.799993996484375,6,4.799993996484375,6,4.799993996484375Z" fill="#0A0A28" fill-opacity="1"/></g></svg>