<svg xmlns="http://www.w3.org/2000/svg" xmlns:xlink="http://www.w3.org/1999/xlink" fill="none" version="1.1" width="24" height="24" viewBox="0 0 24 24"><defs><clipPath id="master_svg0_3_2147"><rect x="0" y="0" width="24" height="24" rx="0"/></clipPath></defs><g clip-path="url(#master_svg0_3_2147)"><path d="M7,3C7,3,7,2,7,2C7,2,7,3,7,3C7,3,7,3,7,3ZM17,3C17,3,17,2,17,2C17,2,17,3,17,3C17,3,17,3,17,3ZM19,21C19,21,18.552799999999998,21.8944,18.552799999999998,21.8944C18.8628,22.0494,19.2309,22.0329,19.5257,21.8507C19.8205,21.6684,20,21.3466,20,21C20,21,19,21,19,21C19,21,19,21,19,21ZM12,17.5C12,17.5,12.4472098,16.605600000000003,12.4472098,16.605600000000003C12.1656899,16.4648,11.8343101,16.4648,11.5527902,16.605600000000003C11.5527902,16.605600000000003,12,17.5,12,17.5C12,17.5,12,17.5,12,17.5ZM5,21C5,21,4,21,4,21C4,21.3466,4.1794519999999995,21.6684,4.47426897,21.8507C4.769085,22.0329,5.137225,22.0494,5.44721401,21.8944C5.44721401,21.8944,5,21,5,21C5,21,5,21,5,21ZM6,5C6,4.73478,6.10536,4.48043,6.29289,4.29289C6.29289,4.29289,4.87868,2.87868,4.87868,2.87868C4.31607002,3.44128901,4,4.20435,4,5C4,5,6,5,6,5C6,5,6,5,6,5ZM6.29289,4.29289C6.48043,4.10536,6.73478,4,7,4C7,4,7,2,7,2C6.20435,2,5.44128901,2.3160700199999997,4.87868,2.87868C4.87868,2.87868,6.29289,4.29289,6.29289,4.29289C6.29289,4.29289,6.29289,4.29289,6.29289,4.29289ZM7,4C7,4,17,4,17,4C17,4,17,2,17,2C17,2,7,2,7,2C7,2,7,4,7,4C7,4,7,4,7,4ZM17,4C17.2652,4,17.5196,4.10536,17.7071,4.29289C17.7071,4.29289,19.121299999999998,2.87868,19.121299999999998,2.87868C18.5587,2.3160700199999997,17.7956,2,17,2C17,2,17,4,17,4C17,4,17,4,17,4ZM17.7071,4.29289C17.8946,4.48043,18,4.73478,18,5C18,5,20,5,20,5C20,4.20435,19.6839,3.44128799,19.121299999999998,2.87868C19.121299999999998,2.87868,17.7071,4.29289,17.7071,4.29289C17.7071,4.29289,17.7071,4.29289,17.7071,4.29289ZM18,5C18,5,18,21,18,21C18,21,20,21,20,21C20,21,20,5,20,5C20,5,18,5,18,5C18,5,18,5,18,5ZM19.447200000000002,20.1056C19.447200000000002,20.1056,12.4472098,16.605600000000003,12.4472098,16.605600000000003C12.4472098,16.605600000000003,11.5527902,18.394399999999997,11.5527902,18.394399999999997C11.5527902,18.394399999999997,18.552799999999998,21.8944,18.552799999999998,21.8944C18.552799999999998,21.8944,19.447200000000002,20.1056,19.447200000000002,20.1056C19.447200000000002,20.1056,19.447200000000002,20.1056,19.447200000000002,20.1056ZM11.5527902,16.605600000000003C11.5527902,16.605600000000003,4.55278599,20.1056,4.55278599,20.1056C4.55278599,20.1056,5.44721401,21.8944,5.44721401,21.8944C5.44721401,21.8944,12.4472098,18.394399999999997,12.4472098,18.394399999999997C12.4472098,18.394399999999997,11.5527902,16.605600000000003,11.5527902,16.605600000000003C11.5527902,16.605600000000003,11.5527902,16.605600000000003,11.5527902,16.605600000000003ZM6,21C6,21,6,5,6,5C6,5,4,5,4,5C4,5,4,21,4,21C4,21,6,21,6,21C6,21,6,21,6,21Z" fill="#0A0A28" fill-opacity="1"/></g></svg>