<svg xmlns="http://www.w3.org/2000/svg" xmlns:xlink="http://www.w3.org/1999/xlink" fill="none" version="1.1" width="24" height="24" viewBox="0 0 24 24"><defs><clipPath id="master_svg0_3_2236"><rect x="0" y="0" width="24" height="24" rx="0"/></clipPath></defs><g clip-path="url(#master_svg0_3_2236)"><path d="M21.374901,14.1821C21.8869,13.9751,22.1341,13.3922,21.927099,12.8801C21.7201,12.3681,21.137199,12.1209,20.625099,12.3279C20.625099,12.3279,21.374901,14.1821,21.374901,14.1821C21.374901,14.1821,21.374901,14.1821,21.374901,14.1821ZM12,15C12,15,12.0012197,14,12.0012197,14C12.0012197,14,12,14,12,14C12,14,12,15,12,15C12,15,12,15,12,15ZM3.3751249899999998,12.328C2.863171,12.1209,2.28020102,12.3679,2.073026,12.8799C1.86585,13.3918,2.11292201,13.9748,2.6248750100000002,14.182C2.6248750100000002,14.182,3.3751249899999998,12.328,3.3751249899999998,12.328C3.3751249899999998,12.328,3.3751249899999998,12.328,3.3751249899999998,12.328ZM16,6C16,6,16,7,16,7C16.552300000000002,7,17,6.5522799,17,6C17,6,16,6,16,6C16,6,16,6,16,6ZM14,2C14,2,14,1,14,1C14,1,14,2,14,2C14,2,14,2,14,2ZM10,2C10,2,10,1,10,1C10,1,10,2,10,2C10,2,10,2,10,2ZM8,4C8,4,7,4,7,4C7,4,8,4,8,4C8,4,8,4,8,4ZM8,6C8,6,7,6,7,6C7,6.5522799,7.4477201,7,8,7C8,7,8,6,8,6C8,6,8,6,8,6ZM12,11C11.44771,11,11,11.44771,11,12C11,12.5523,11.44771,13,12,13C12,13,12,11,12,11C12,11,12,11,12,11ZM12.0100002,13C12.5622902,13,13.01,12.5523,13.01,12C13.01,11.44771,12.5622902,11,12.0100002,11C12.0100002,11,12.0100002,13,12.0100002,13C12.0100002,13,12.0100002,13,12.0100002,13ZM19,6C19,6,19,5,19,5C19,5,19,6,19,6C19,6,19,6,19,6ZM5,6C5,6,5,5,5,5C5,5,5,6,5,6C5,6,5,6,5,6ZM3,8C3,8,2,8,2,8C2,8,3,8,3,8C3,8,3,8,3,8ZM3,18C3,18,2,18,2,18C2,18,3,18,3,18C3,18,3,18,3,18ZM20.625099,12.3279C17.8851,13.4358,14.9568,14.0036,12.0012197,14C12.0012197,14,11.9987803,16,11.9987803,16C15.2121,16.0039,18.395899999999997,15.3866,21.374901,14.1821C21.374901,14.1821,20.625099,12.3279,20.625099,12.3279C20.625099,12.3279,20.625099,12.3279,20.625099,12.3279ZM12,14C8.9479299,14,6.0381401,13.4057,3.3751249899999998,12.328C3.3751249899999998,12.328,2.6248750100000002,14.182,2.6248750100000002,14.182C5.5218599,15.3543,8.68607,16,12,16C12,16,12,14,12,14C12,14,12,14,12,14ZM17,6C17,6,17,4,17,4C17,4,15,4,15,4C15,4,15,6,15,6C15,6,17,6,17,6C17,6,17,6,17,6ZM17,4C17,3.20435,16.6839,2.44128799,16.121299999999998,1.87868C16.121299999999998,1.87868,14.7071,3.29289,14.7071,3.29289C14.8946,3.48043,15,3.7347799999999998,15,4C15,4,17,4,17,4C17,4,17,4,17,4ZM16.121299999999998,1.87868C15.5587,1.31607002,14.7956,1,14,1C14,1,14,3,14,3C14.2652,3,14.5196,3.10536,14.7071,3.29289C14.7071,3.29289,16.121299999999998,1.87868,16.121299999999998,1.87868C16.121299999999998,1.87868,16.121299999999998,1.87868,16.121299999999998,1.87868ZM14,1C14,1,10,1,10,1C10,1,10,3,10,3C10,3,14,3,14,3C14,3,14,1,14,1C14,1,14,1,14,1ZM10,1C9.20435,1,8.441289900000001,1.31607002,7.8786802,1.87868C7.8786802,1.87868,9.292890100000001,3.29289,9.292890100000001,3.29289C9.4804301,3.10536,9.7347798,3,10,3C10,3,10,1,10,1C10,1,10,1,10,1ZM7.8786802,1.87868C7.3160701,2.44128799,7,3.20435,7,4C7,4,9,4,9,4C9,3.7347799999999998,9.105360000000001,3.48043,9.292890100000001,3.29289C9.292890100000001,3.29289,7.8786802,1.87868,7.8786802,1.87868C7.8786802,1.87868,7.8786802,1.87868,7.8786802,1.87868ZM7,4C7,4,7,6,7,6C7,6,9,6,9,6C9,6,9,4,9,4C9,4,7,4,7,4C7,4,7,4,7,4ZM8,7C8,7,16,7,16,7C16,7,16,5,16,5C16,5,8,5,8,5C8,5,8,7,8,7C8,7,8,7,8,7ZM12,13C12,13,12.0100002,13,12.0100002,13C12.0100002,13,12.0100002,11,12.0100002,11C12.0100002,11,12,11,12,11C12,11,12,13,12,13C12,13,12,13,12,13ZM5,21C5,21,19,21,19,21C19,21,19,19,19,19C19,19,5,19,5,19C5,19,5,21,5,21C5,21,5,21,5,21ZM19,21C19.7957,21,20.558701,20.683901,21.1213,20.1213C21.1213,20.1213,19.7071,18.7071,19.7071,18.7071C19.5196,18.8946,19.2652,19,19,19C19,19,19,21,19,21C19,21,19,21,19,21ZM21.1213,20.1213C21.683901,19.558701,22,18.7957,22,18C22,18,20,18,20,18C20,18.2652,19.8946,18.5196,19.7071,18.7071C19.7071,18.7071,21.1213,20.1213,21.1213,20.1213C21.1213,20.1213,21.1213,20.1213,21.1213,20.1213ZM22,18C22,18,22,8,22,8C22,8,20,8,20,8C20,8,20,18,20,18C20,18,22,18,22,18C22,18,22,18,22,18ZM22,8C22,7.20435,21.683901,6.4412899,21.1213,5.87868C21.1213,5.87868,19.7071,7.2928901,19.7071,7.2928901C19.8946,7.4804301,20,7.7347798,20,8C20,8,22,8,22,8C22,8,22,8,22,8ZM21.1213,5.87868C20.558701,5.3160701,19.7957,5,19,5C19,5,19,7,19,7C19.2652,7,19.5196,7.10536,19.7071,7.2928901C19.7071,7.2928901,21.1213,5.87868,21.1213,5.87868C21.1213,5.87868,21.1213,5.87868,21.1213,5.87868ZM19,5C19,5,5,5,5,5C5,5,5,7,5,7C5,7,19,7,19,7C19,7,19,5,19,5C19,5,19,5,19,5ZM5,5C4.20435,5,3.44128901,5.3160701,2.87868,5.87868C2.87868,5.87868,4.29289,7.2928901,4.29289,7.2928901C4.48043,7.10536,4.73478,7,5,7C5,7,5,5,5,5C5,5,5,5,5,5ZM2.87868,5.87868C2.3160700199999997,6.4412899,2,7.20435,2,8C2,8,4,8,4,8C4,7.7347798,4.10536,7.4804301,4.29289,7.2928901C4.29289,7.2928901,2.87868,5.87868,2.87868,5.87868C2.87868,5.87868,2.87868,5.87868,2.87868,5.87868ZM2,8C2,8,2,18,2,18C2,18,4,18,4,18C4,18,4,8,4,8C4,8,2,8,2,8C2,8,2,8,2,8ZM2,18C2,18.7957,2.3160700199999997,19.558701,2.87868,20.1213C2.87868,20.1213,4.29289,18.7071,4.29289,18.7071C4.10536,18.5196,4,18.2652,4,18C4,18,2,18,2,18C2,18,2,18,2,18ZM2.87868,20.1213C3.44128799,20.683901,4.20435,21,5,21C5,21,5,19,5,19C4.73478,19,4.48043,18.8946,4.29289,18.7071C4.29289,18.7071,2.87868,20.1213,2.87868,20.1213C2.87868,20.1213,2.87868,20.1213,2.87868,20.1213Z" fill="#0A0A28" fill-opacity="1"/></g></svg>