<svg xmlns="http://www.w3.org/2000/svg" xmlns:xlink="http://www.w3.org/1999/xlink" fill="none" version="1.1" width="24" height="24" viewBox="0 0 24 24"><defs><clipPath id="master_svg0_3_1811"><rect x="0" y="0" width="24" height="24" rx="0"/></clipPath></defs><g clip-path="url(#master_svg0_3_1811)"><path d="M7.199994096484375,7.199994096484375C7.199994096484375,7.199994096484375,7.199994096484375,5.999993996484375,7.199994096484375,5.999993996484375C7.199994096484375,5.045213896484375,7.579277996484375,4.129541996484375,8.254410296484375,3.454409996484375C8.929542096484376,2.779279116484375,9.845214396484375,2.399993896484376,10.799994496484375,2.399993896484375C10.799994496484375,2.399993896484375,13.199993896484376,2.399993896484375,13.199993896484376,2.399993896484375C14.154773896484375,2.399993896484376,15.070433896484374,2.779279116484375,15.745553896484376,3.454409996484375C16.420673896484374,4.129541996484375,16.799994896484375,5.045213896484375,16.799994896484375,5.999993996484375C16.799994896484375,5.999993996484375,16.799994896484375,7.199994096484375,16.799994896484375,7.199994096484375C16.799994896484375,7.199994096484375,19.199994896484377,7.199994096484375,19.199994896484377,7.199994096484375C19.836474896484376,7.199994096484375,20.446914896484376,7.452846096484375,20.897033896484373,7.902942196484375C21.347154896484376,8.353025896484375,21.599994896484375,8.963478596484375,21.599994896484375,9.599994196484374C21.599994896484375,9.599994196484374,21.599994896484375,13.883993896484375,21.599994896484375,13.883993896484375C18.527515896484374,15.022433896484374,15.276594896484376,15.603594896484376,11.999994296484376,15.599994896484375C8.723393896484374,15.603594896484376,5.472438096484375,15.022554896484374,2.399993896484375,13.883993896484375C2.399993896484375,13.883993896484375,2.399993896484375,9.599994196484374,2.399993896484375,9.599994196484374C2.3999938964843746,8.963478596484375,2.652850716484375,8.353025896484375,3.102937106484375,7.902942196484375C3.553024796484375,7.452846096484375,4.163477996484375,7.199994096484375,4.799993996484375,7.199994096484375C4.799993996484375,7.199994096484375,7.199994096484375,7.199994096484375,7.199994096484375,7.199994096484375C7.199994096484375,7.199994096484375,7.199994096484375,7.199994096484375,7.199994096484375,7.199994096484375ZM9.599994196484374,5.999993996484375C9.599994196484374,5.681729996484375,9.726426096484374,5.376509896484375,9.951462296484376,5.151462096484375C10.176510296484375,4.926425896484375,10.481730496484374,4.799993996484375,10.799994496484375,4.799993996484375C10.799994496484375,4.799993996484375,13.199993896484376,4.799993996484375,13.199993896484376,4.799993996484375C13.518257896484375,4.799993996484375,13.823478896484374,4.926425896484375,14.048526896484375,5.151462096484375C14.273562896484375,5.376509896484375,14.399993896484375,5.681729996484375,14.399993896484375,5.999993996484375C14.399993896484375,5.999993996484375,14.399993896484375,7.199994096484375,14.399993896484375,7.199994096484375C14.399993896484375,7.199994096484375,9.599994196484374,7.199994096484375,9.599994196484374,7.199994096484375C9.599994196484374,7.199994096484375,9.599994196484374,5.999993996484375,9.599994196484374,5.999993996484375C9.599994196484374,5.999993996484375,9.599994196484374,5.999993996484375,9.599994196484374,5.999993996484375ZM10.799994496484375,11.999994296484376C10.799994496484375,11.681730296484375,10.926425896484375,11.376510596484374,11.151462596484375,11.151462596484375C11.376510596484374,10.926425896484375,11.681730296484375,10.799994496484375,11.999994296484376,10.799994496484375C11.999994296484376,10.799994496484375,12.011994396484376,10.799994496484375,12.011994396484376,10.799994496484375C12.330258396484375,10.799994496484375,12.635477896484375,10.926425896484375,12.860525896484376,11.151462596484375C13.085562896484374,11.376510596484374,13.211993896484374,11.681730296484375,13.211993896484374,11.999994296484376C13.211993896484374,12.318258296484375,13.085562896484374,12.623478896484375,12.860525896484376,12.848526896484374C12.635477896484375,13.073562896484376,12.330258396484375,13.199993896484376,12.011994396484376,13.199993896484376C12.011994396484376,13.199993896484376,11.999994296484376,13.199993896484376,11.999994296484376,13.199993896484376C11.681730296484375,13.199993896484376,11.376510596484374,13.073562896484376,11.151462596484375,12.848526896484374C10.926425896484375,12.623478896484375,10.799994496484375,12.318258296484375,10.799994496484375,11.999994296484376C10.799994496484375,11.999994296484376,10.799994496484375,11.999994296484376,10.799994496484375,11.999994296484376Z" fill-rule="evenodd" fill="#0A0A28" fill-opacity="1"/><path d="M2.399993896484375,16.430389404296875C2.399993896484375,16.430389404296875,2.399993896484375,19.199989604296874,2.399993896484375,19.199989604296874C2.3999938964843754,19.836505404296876,2.652850716484375,20.446957604296877,3.102937106484375,20.897041304296874C3.553024796484375,21.347137404296873,4.163477996484375,21.599989904296876,4.799993996484375,21.599989904296876C4.799993996484375,21.599989904296876,19.199994896484377,21.599989904296876,19.199994896484377,21.599989904296876C19.836474896484376,21.599989904296876,20.446914896484376,21.347137404296873,20.897033896484373,20.897041304296874C21.347154896484376,20.446957604296877,21.599994896484375,19.836505404296876,21.599994896484375,19.199989604296874C21.599994896484375,19.199989604296874,21.599994896484375,16.430389404296875,21.599994896484375,16.430389404296875C18.506875896484374,17.472902704296875,15.264114896484376,18.003085504296877,11.999994296484376,17.999989404296876C8.644793996484374,17.999989404296876,5.415594096484375,17.447989504296874,2.399993896484375,16.430389404296875C2.399993896484375,16.430389404296875,2.399993896484375,16.430389404296875,2.399993896484375,16.430389404296875Z" fill="#0A0A28" fill-opacity="1"/></g></svg>