<svg xmlns="http://www.w3.org/2000/svg" xmlns:xlink="http://www.w3.org/1999/xlink" fill="none" version="1.1" width="24" height="24" viewBox="0 0 24 24"><defs><clipPath id="master_svg0_3_2201"><rect x="0" y="0" width="24" height="24" rx="0"/></clipPath></defs><g clip-path="url(#master_svg0_3_2201)"><path d="M21,16.546C21.552299,16.546,22,16.098300000000002,22,15.546C22,14.9937,21.552299,14.546,21,14.546C21,14.546,21,16.546,21,16.546C21,16.546,21,16.546,21,16.546ZM19.5,16C19.5,16,20.054701,16.832,20.054701,16.832C20.054701,16.832,20.055099,16.8318,20.055099,16.8318C20.055099,16.8318,19.5,16,19.5,16C19.5,16,19.5,16,19.5,16ZM18,16.4542C18,16.4542,18,15.4542,18,15.4542C18,15.4542,18,16.4542,18,16.4542C18,16.4542,18,16.4542,18,16.4542ZM15,15.5458C15,15.5458,15,14.5458,15,14.5458C15,14.5458,15,15.5458,15,15.5458C15,15.5458,15,15.5458,15,15.5458ZM12,16.4542C12,16.4542,12,15.4542,12,15.4542C12,15.4542,12,16.4542,12,16.4542C12,16.4542,12,16.4542,12,16.4542ZM6,16.4542C6,16.4542,6,15.4542,6,15.4542C6,15.4542,6,16.4542,6,16.4542C6,16.4542,6,16.4542,6,16.4542ZM4.5,16C4.5,16,3.9450950000000002,16.831899999999997,3.9450950000000002,16.831899999999997C3.9450950000000002,16.831899999999997,3.94526601,16.832,3.94526601,16.832C3.94526601,16.832,4.5,16,4.5,16C4.5,16,4.5,16,4.5,16ZM2.99955470301,14.546C2.4472699799999997,14.5462,1.99975,14.9942,2,15.5464C2.00024599,16.0987,2.4481610099999997,16.5462,3.00044529699,16.546C3.00044529699,16.546,2.99955470301,14.546,2.99955470301,14.546C2.99955470301,14.546,2.99955470301,14.546,2.99955470301,14.546ZM10,6C10,5.4477201,9.5522799,5,9,5C8.4477201,5,8,5.4477201,8,6C8,6,10,6,10,6C10,6,10,6,10,6ZM8,8C8,8.5522799,8.4477201,9,9,9C9.5522799,9,10,8.5522799,10,8C10,8,8,8,8,8C8,8,8,8,8,8ZM13,6C13,5.4477201,12.55229,5,12,5C11.44771,5,11,5.4477201,11,6C11,6,13,6,13,6C13,6,13,6,13,6ZM11,8C11,8.5522799,11.44771,9,12,9C12.55229,9,13,8.5522799,13,8C13,8,11,8,11,8C11,8,11,8,11,8ZM16,6C16,5.4477201,15.5523,5,15,5C14.4477,5,14,5.4477201,14,6C14,6,16,6,16,6C16,6,16,6,16,6ZM14,8C14,8.5522799,14.4477,9,15,9C15.5523,9,16,8.5522799,16,8C16,8,14,8,14,8C14,8,14,8,14,8ZM9,2C8.4477201,2,8,2.4477149799999998,8,3C8,3.5522850200000002,8.4477201,4,9,4C9,4,9,2,9,2C9,2,9,2,9,2ZM9.0100002,4C9.5622802,4,10.0100002,3.5522850200000002,10.0100002,3C10.0100002,2.4477149799999998,9.5622802,2,9.0100002,2C9.0100002,2,9.0100002,4,9.0100002,4C9.0100002,4,9.0100002,4,9.0100002,4ZM12,2C11.44771,2,11,2.4477149799999998,11,3C11,3.5522850200000002,11.44771,4,12,4C12,4,12,2,12,2C12,2,12,2,12,2ZM12.0100002,4C12.5622902,4,13.01,3.5522850200000002,13.01,3C13.01,2.4477149799999998,12.5622902,2,12.0100002,2C12.0100002,2,12.0100002,4,12.0100002,4C12.0100002,4,12.0100002,4,12.0100002,4ZM15,2C14.4477,2,14,2.4477149799999998,14,3C14,3.5522850200000002,14.4477,4,15,4C15,4,15,2,15,2C15,2,15,2,15,2ZM15.01,4C15.5623,4,16.009999999999998,3.5522850200000002,16.009999999999998,3C16.009999999999998,2.4477149799999998,15.5623,2,15.01,2C15.01,2,15.01,4,15.01,4C15.01,4,15.01,4,15.01,4ZM21,21C21,21,21,22,21,22C21.552299,22,22,21.552299,22,21C22,21,21,21,21,21C21,21,21,21,21,21ZM3,14C3,14,2,14,2,14C2,14,3,14,3,14C3,14,3,14,3,14ZM3,21C3,21,2,21,2,21C2,21.552299,2.4477149799999998,22,3.0000000000000004,22C3.0000000000000004,22,3,21,3,21C3,21,3,21,3,21ZM18,12C18,12,18,13,18,13C18.552300000000002,13,19,12.55229,19,12C19,12,18,12,18,12C18,12,18,12,18,12ZM16,8C16,8,16,7,16,7C16,7,16,8,16,8C16,8,16,8,16,8ZM6,10C6,10,5,10,5,10C5,10,6,10,6,10C6,10,6,10,6,10ZM6,12C6,12,5,12,5,12C5,12.55229,5.4477201,13,6,13C6,13,6,12,6,12C6,12,6,12,6,12ZM21,14.546C20.2845,14.546,19.5674,14.7527,18.9449,15.1682C18.9449,15.1682,20.055099,16.8318,20.055099,16.8318C20.340599,16.6413,20.6695,16.546,21,16.546C21,16.546,21,14.546,21,14.546C21,14.546,21,14.546,21,14.546ZM18.9453,15.168C18.665300000000002,15.3546,18.336399999999998,15.4542,18,15.4542C18,15.4542,18,17.4542,18,17.4542C18.731299999999997,17.4542,19.446301,17.2377,20.054701,16.832C20.054701,16.832,18.9453,15.168,18.9453,15.168C18.9453,15.168,18.9453,15.168,18.9453,15.168ZM18,15.4542C17.663600000000002,15.4542,17.334699999999998,15.3546,17.0547,15.168C17.0547,15.168,15.9453,16.832,15.9453,16.832C16.5537,17.2377,17.268700000000003,17.4542,18,17.4542C18,17.4542,18,15.4542,18,15.4542C18,15.4542,18,15.4542,18,15.4542ZM17.0547,15.168C16.4463,14.7623,15.7313,14.5458,15,14.5458C15,14.5458,15,16.5458,15,16.5458C15.3364,16.5458,15.6653,16.645400000000002,15.9453,16.832C15.9453,16.832,17.0547,15.168,17.0547,15.168C17.0547,15.168,17.0547,15.168,17.0547,15.168ZM15,14.5458C14.2687,14.5458,13.5537,14.7623,12.9452696,15.168C12.9452696,15.168,14.0547,16.832,14.0547,16.832C14.3347,16.645400000000002,14.6636,16.5458,15,16.5458C15,16.5458,15,14.5458,15,14.5458C15,14.5458,15,14.5458,15,14.5458ZM12.9452696,15.168C12.6653404,15.3546,12.3364401,15.4542,12,15.4542C12,15.4542,12,17.4542,12,17.4542C12.7313099,17.4542,13.4463,17.2377,14.0547,16.832C14.0547,16.832,12.9452696,15.168,12.9452696,15.168C12.9452696,15.168,12.9452696,15.168,12.9452696,15.168ZM12,15.4542C11.6635599,15.4542,11.3346596,15.3546,11.0547304,15.168C11.0547304,15.168,9.9452701,16.832,9.9452701,16.832C10.553740000000001,17.2377,11.2686901,17.4542,12,17.4542C12,17.4542,12,15.4542,12,15.4542C12,15.4542,12,15.4542,12,15.4542ZM11.0547304,15.168C10.446259999999999,14.7623,9.7313099,14.5458,9,14.5458C9,14.5458,9,16.5458,9,16.5458C9.3364401,16.5458,9.6653399,16.645400000000002,9.9452701,16.832C9.9452701,16.832,11.0547304,15.168,11.0547304,15.168C11.0547304,15.168,11.0547304,15.168,11.0547304,15.168ZM9,14.5458C8.2686901,14.5458,7.55374,14.7623,6.9452701,15.168C6.9452701,15.168,8.0547299,16.832,8.0547299,16.832C8.3346601,16.645400000000002,8.6635599,16.5458,9,16.5458C9,16.5458,9,14.5458,9,14.5458C9,14.5458,9,14.5458,9,14.5458ZM6.9452701,15.168C6.6653399,15.3546,6.3364401,15.4542,6,15.4542C6,15.4542,6,17.4542,6,17.4542C6.731309899999999,17.4542,7.44626,17.2377,8.0547299,16.832C8.0547299,16.832,6.9452701,15.168,6.9452701,15.168C6.9452701,15.168,6.9452701,15.168,6.9452701,15.168ZM6,15.4542C5.6635599,15.4542,5.3346601,15.3546,5.0547299,15.168C5.0547299,15.168,3.94526601,16.832,3.94526601,16.832C4.5537399999999995,17.2377,5.268690100000001,17.4542,6,17.4542C6,17.4542,6,15.4542,6,15.4542C6,15.4542,6,15.4542,6,15.4542ZM5.054899900000001,15.1681C4.44633,14.7622,3.73109603,14.5457,2.99955470301,14.546C2.99955470301,14.546,3.00044529699,16.546,3.00044529699,16.546C3.336665,16.5458,3.6653890000000002,16.6453,3.9450950000000002,16.831899999999997C3.9450950000000002,16.831899999999997,5.054899900000001,15.1681,5.054899900000001,15.1681C5.054899900000001,15.1681,5.054899900000001,15.1681,5.054899900000001,15.1681ZM8,6C8,6,8,8,8,8C8,8,10,8,10,8C10,8,10,6,10,6C10,6,8,6,8,6C8,6,8,6,8,6ZM11,6C11,6,11,8,11,8C11,8,13,8,13,8C13,8,13,6,13,6C13,6,11,6,11,6C11,6,11,6,11,6ZM14,6C14,6,14,8,14,8C14,8,16,8,16,8C16,8,16,6,16,6C16,6,14,6,14,6C14,6,14,6,14,6ZM9,4C9,4,9.0100002,4,9.0100002,4C9.0100002,4,9.0100002,2,9.0100002,2C9.0100002,2,9,2,9,2C9,2,9,4,9,4C9,4,9,4,9,4ZM12,4C12,4,12.0100002,4,12.0100002,4C12.0100002,4,12.0100002,2,12.0100002,2C12.0100002,2,12,2,12,2C12,2,12,4,12,4C12,4,12,4,12,4ZM15,4C15,4,15.01,4,15.01,4C15.01,4,15.01,2,15.01,2C15.01,2,15,2,15,2C15,2,15,4,15,4C15,4,15,4,15,4ZM22,21C22,21,22,14,22,14C22,14,20,14,20,14C20,14,20,21,20,21C20,21,22,21,22,21C22,21,22,21,22,21ZM22,14C22,13.2043,21.683901,12.4412899,21.1213,11.8786802C21.1213,11.8786802,19.7071,13.2929,19.7071,13.2929C19.8946,13.4804,20,13.7348,20,14C20,14,22,14,22,14C22,14,22,14,22,14ZM21.1213,11.8786802C20.558701,11.3160696,19.7957,11,19,11C19,11,19,13,19,13C19.2652,13,19.5196,13.1054,19.7071,13.2929C19.7071,13.2929,21.1213,11.8786802,21.1213,11.8786802C21.1213,11.8786802,21.1213,11.8786802,21.1213,11.8786802ZM19,11C19,11,5,11,5,11C5,11,5,13,5,13C5,13,19,13,19,13C19,13,19,11,19,11C19,11,19,11,19,11ZM5,11C4.20435,11,3.44128799,11.3160696,2.87868,11.8786802C2.87868,11.8786802,4.29289,13.2929,4.29289,13.2929C4.48043,13.1054,4.73478,13,5,13C5,13,5,11,5,11C5,11,5,11,5,11ZM2.87868,11.8786802C2.3160700199999997,12.4412899,2,13.2044,2,14C2,14,4,14,4,14C4,13.7348,4.10536,13.4804,4.29289,13.2929C4.29289,13.2929,2.87868,11.8786802,2.87868,11.8786802C2.87868,11.8786802,2.87868,11.8786802,2.87868,11.8786802ZM2,14C2,14,2,21,2,21C2,21,4,21,4,21C4,21,4,14,4,14C4,14,2,14,2,14C2,14,2,14,2,14ZM3,22C3,22,21,22,21,22C21,22,21,20,21,20C21,20,3,20,3,20C3,20,3,22,3,22C3,22,3,22,3,22ZM19,12C19,12,19,10,19,10C19,10,17,10,17,10C17,10,17,12,17,12C17,12,19,12,19,12C19,12,19,12,19,12ZM19,10C19,9.20435,18.6839,8.441289900000001,18.121299999999998,7.8786802C18.121299999999998,7.8786802,16.7071,9.292890100000001,16.7071,9.292890100000001C16.8946,9.4804301,17,9.7347798,17,10C17,10,19,10,19,10C19,10,19,10,19,10ZM18.121299999999998,7.8786802C17.5587,7.3160701,16.7957,7,16,7C16,7,16,9,16,9C16.2652,9,16.5196,9.105360000000001,16.7071,9.292890100000001C16.7071,9.292890100000001,18.121299999999998,7.8786802,18.121299999999998,7.8786802C18.121299999999998,7.8786802,18.121299999999998,7.8786802,18.121299999999998,7.8786802ZM16,7C16,7,8,7,8,7C8,7,8,9,8,9C8,9,16,9,16,9C16,9,16,7,16,7C16,7,16,7,16,7ZM8,7C7.20435,7,6.4412899,7.3160701,5.87868,7.8786802C5.87868,7.8786802,7.2928901,9.292890100000001,7.2928901,9.292890100000001C7.4804301,9.105360000000001,7.7347798,9,8,9C8,9,8,7,8,7C8,7,8,7,8,7ZM5.87868,7.8786802C5.3160701,8.441289900000001,5,9.20435,5,10C5,10,7,10,7,10C7,9.7347798,7.10536,9.4804301,7.2928901,9.292890100000001C7.2928901,9.292890100000001,5.87868,7.8786802,5.87868,7.8786802C5.87868,7.8786802,5.87868,7.8786802,5.87868,7.8786802ZM5,10C5,10,5,12,5,12C5,12,7,12,7,12C7,12,7,10,7,10C7,10,5,10,5,10C5,10,5,10,5,10ZM6,13C6,13,18,13,18,13C18,13,18,11,18,11C18,11,6,11,6,11C6,11,6,13,6,13C6,13,6,13,6,13Z" fill="#0A0A28" fill-opacity="1"/></g></svg>