<svg xmlns="http://www.w3.org/2000/svg" xmlns:xlink="http://www.w3.org/1999/xlink" fill="none" version="1.1" width="24" height="24" viewBox="0 0 24 24"><defs><clipPath id="master_svg0_3_1488"><rect x="0" y="0" width="24" height="24" rx="0"/></clipPath></defs><g clip-path="url(#master_svg0_3_1488)"><path d="M7.199994096484375,3.599993896484375C7.199994096484375,3.281734766484375,7.326425996484375,2.976509926484375,7.551462196484375,2.751465496484375C7.776510196484375,2.526422306484375,8.081729896484376,2.3999938964843754,8.399993896484375,2.399993896484375C8.399993896484375,2.399993896484375,8.411994496484375,2.399993896484375,8.411994496484375,2.399993896484375C8.730257996484376,2.3999938964843754,9.035478096484375,2.526422306484375,9.260526196484374,2.751465496484375C9.485562296484375,2.976509926484375,9.611994296484376,3.281734766484375,9.611994296484376,3.599993896484375C9.611994296484376,3.918258096484375,9.485562296484375,4.223477996484375,9.260526196484374,4.448526096484375C9.035478096484375,4.673562096484375,8.730257996484376,4.799993996484375,8.411994496484375,4.799993996484375C8.411994496484375,4.799993996484375,8.399993896484375,4.799993996484375,8.399993896484375,4.799993996484375C8.081729896484376,4.799993996484375,7.776510196484375,4.673562096484375,7.551462196484375,4.448526096484375C7.326425996484375,4.223477996484375,7.199994096484375,3.918258096484375,7.199994096484375,3.599993896484375C7.199994096484375,3.599993896484375,7.199994096484375,3.599993896484375,7.199994096484375,3.599993896484375ZM9.599994196484374,7.199994096484375C9.599994196484374,6.881730096484375,9.473562196484375,6.576509996484375,9.248526096484376,6.351462096484375C9.023477996484374,6.126425996484375,8.718258396484375,5.999993996484375,8.399993896484375,5.999993996484375C8.081729896484376,5.999993996484375,7.776510196484375,6.126425996484375,7.551462196484375,6.351462096484375C7.326425996484375,6.576509996484375,7.199994096484375,6.881730096484375,7.199994096484375,7.199994096484375C7.199994096484375,7.199994096484375,7.199994096484375,8.399993896484375,7.199994096484375,8.399993896484375C6.563477996484375,8.399993896484375,5.9530260964843755,8.652846296484375,5.502941896484375,9.102942496484374C5.0528459964843755,9.553025696484376,4.799993996484375,10.163478396484376,4.799993996484375,10.799994496484375C4.799993996484375,10.799994496484375,4.799993996484375,11.999994296484376,4.799993996484375,11.999994296484376C4.163477996484375,11.999994296484376,3.553024796484375,12.252845796484374,3.102937106484375,12.702941896484376C2.652850716484375,13.153026896484375,2.3999938964843754,13.763477896484375,2.399993896484375,14.399993896484375C2.399993896484375,14.399993896484375,2.399993896484375,15.219593896484374,2.399993896484375,15.219593896484374C2.849993916484375,15.345714896484376,3.277253926484375,15.542154896484375,3.665993896484375,15.801594896484374C4.001837996484375,16.025394896484375,4.3963979964843745,16.144795896484375,4.799993996484375,16.144795896484375C5.203589896484376,16.144795896484375,5.598149996484375,16.025394896484375,5.9339940964843745,15.801594896484374C6.664229896484375,15.314634896484375,7.522290196484375,15.054833896484375,8.399993896484375,15.054833896484375C9.277697996484374,15.054833896484375,10.135757896484375,15.314634896484375,10.865994496484374,15.801594896484374C11.201838496484376,16.025394896484375,11.596398396484375,16.144795896484375,11.999994296484376,16.144795896484375C12.403590896484374,16.144795896484375,12.798149896484375,16.025394896484375,13.133993896484375,15.801594896484374C13.864229896484375,15.314634896484375,14.722314896484376,15.054833896484375,15.599994896484375,15.054833896484375C16.477673896484376,15.054833896484375,17.335794896484373,15.314634896484375,18.065994896484376,15.801594896484374C18.401874896484376,16.025394896484375,18.796434896484374,16.144795896484375,19.199994896484377,16.144795896484375C19.603553896484375,16.144795896484375,19.998115896484375,16.025394896484375,20.333993896484376,15.801594896484374C20.722674896484374,15.542154896484375,21.149993896484375,15.345714896484376,21.599994896484375,15.219593896484374C21.599994896484375,15.219593896484374,21.599994896484375,14.399993896484375,21.599994896484375,14.399993896484375C21.599994896484375,13.763477896484375,21.347154896484376,13.153026896484375,20.897033896484373,12.702941896484376C20.446914896484376,12.252845796484374,19.836474896484376,11.999994296484376,19.199994896484377,11.999994296484376C19.199994896484377,11.999994296484376,19.199994896484377,10.799994496484375,19.199994896484377,10.799994496484375C19.199994896484377,10.163478396484376,18.947154896484374,9.553025696484376,18.497033896484375,9.102942496484374C18.046913896484376,8.652846296484375,17.436474896484377,8.399993896484375,16.799994896484375,8.399993896484375C16.799994896484375,8.399993896484375,16.799994896484375,7.199994096484375,16.799994896484375,7.199994096484375C16.799994896484375,6.881730096484375,16.673513896484373,6.576509996484375,16.448513896484375,6.351462096484375C16.223514896484375,6.126425996484375,15.918233896484375,5.999993996484375,15.599994896484375,5.999993996484375C15.281754896484374,5.999993996484375,14.976474896484374,6.126425996484375,14.751473896484375,6.351462096484375C14.526474896484375,6.576509996484375,14.399993896484375,6.881730096484375,14.399993896484375,7.199994096484375C14.399993896484375,7.199994096484375,14.399993896484375,8.399993896484375,14.399993896484375,8.399993896484375C14.399993896484375,8.399993896484375,13.199993896484376,8.399993896484375,13.199993896484376,8.399993896484375C13.199993896484376,8.399993896484375,13.199993896484376,7.199994096484375,13.199993896484376,7.199994096484375C13.199993896484376,6.881730096484375,13.073562896484376,6.576509996484375,12.848526896484374,6.351462096484375C12.623478896484375,6.126425996484375,12.318258296484375,5.999993996484375,11.999994296484376,5.999993996484375C11.681730296484375,5.999993996484375,11.376510596484374,6.126425996484375,11.151462596484375,6.351462096484375C10.926425896484375,6.576509996484375,10.799994496484375,6.881730096484375,10.799994496484375,7.199994096484375C10.799994496484375,7.199994096484375,10.799994496484375,8.399993896484375,10.799994496484375,8.399993896484375C10.799994496484375,8.399993896484375,9.599994196484374,8.399993896484375,9.599994196484374,8.399993896484375C9.599994196484374,8.399993896484375,9.599994196484374,7.199994096484375,9.599994196484374,7.199994096484375C9.599994196484374,7.199994096484375,9.599994196484374,7.199994096484375,9.599994196484374,7.199994096484375ZM21.599994896484375,17.841594896484374C20.872554896484374,18.308273896484373,20.024753896484373,18.552714896484375,19.160514896484376,18.545034896484374C18.296273896484376,18.537353896484376,17.453034896484375,18.277913896484375,16.733994896484376,17.798393896484377C16.398113896484375,17.574594896484374,16.003553896484377,17.455193896484374,15.599994896484375,17.455193896484374C15.196434896484375,17.455193896484374,14.801873896484375,17.574594896484374,14.465994896484375,17.798393896484377C13.735758896484375,18.285353896484374,12.877697896484374,18.545154896484377,11.999994296484376,18.545154896484377C11.122290596484374,18.545154896484377,10.264230296484374,18.285353896484374,9.533994196484375,17.798393896484377C9.198150196484374,17.574594896484374,8.803590296484375,17.455193896484374,8.399993896484375,17.455193896484374C7.996397996484375,17.455193896484374,7.601838096484375,17.574594896484374,7.265994096484375,17.798393896484377C6.546930296484375,18.277913896484375,5.703678096484375,18.537353896484376,4.839425996484374,18.545034896484374C3.9751859964843748,18.552714896484375,3.127453146484375,18.308273896484373,2.399993896484375,17.841594896484374C2.399993896484375,17.841594896484374,2.399993896484375,20.399993896484375,2.399993896484375,20.399993896484375C2.3999938964843754,20.718234896484375,2.526422306484375,21.023513896484374,2.751465496484375,21.248513896484376C2.976509926484375,21.473514896484375,3.281734766484375,21.599994896484375,3.599993896484375,21.599994896484375C3.599993896484375,21.599994896484375,20.399993896484375,21.599994896484375,20.399993896484375,21.599994896484375C20.718234896484375,21.599994896484375,21.023513896484374,21.473514896484375,21.248513896484376,21.248513896484376C21.473514896484375,21.023513896484374,21.599994896484375,20.718234896484375,21.599994896484375,20.399993896484375C21.599994896484375,20.399993896484375,21.599994896484375,17.841594896484374,21.599994896484375,17.841594896484374C21.599994896484375,17.841594896484374,21.599994896484375,17.841594896484374,21.599994896484375,17.841594896484374ZM10.799994496484375,3.599993896484375C10.799994496484375,3.281734766484375,10.926425896484375,2.976509926484375,11.151462596484375,2.751465496484375C11.376510596484374,2.526422306484375,11.681730296484375,2.3999938964843754,11.999994296484376,2.399993896484375C11.999994296484376,2.399993896484375,12.011994396484376,2.399993896484375,12.011994396484376,2.399993896484375C12.330258396484375,2.3999938964843754,12.635477896484375,2.526422306484375,12.860525896484376,2.751465496484375C13.085562896484374,2.976509926484375,13.211993896484374,3.281734766484375,13.211993896484374,3.599993896484375C13.211993896484374,3.918258096484375,13.085562896484374,4.223477996484375,12.860525896484376,4.448526096484375C12.635477896484375,4.673562096484375,12.330258396484375,4.799993996484375,12.011994396484376,4.799993996484375C12.011994396484376,4.799993996484375,11.999994296484376,4.799993996484375,11.999994296484376,4.799993996484375C11.681730296484375,4.799993996484375,11.376510596484374,4.673562096484375,11.151462596484375,4.448526096484375C10.926425896484375,4.223477996484375,10.799994496484375,3.918258096484375,10.799994496484375,3.599993896484375C10.799994496484375,3.599993896484375,10.799994496484375,3.599993896484375,10.799994496484375,3.599993896484375ZM14.399993896484375,3.599993896484375C14.399993896484375,3.281734766484375,14.526474896484375,2.976509926484375,14.751473896484375,2.751465496484375C14.976474896484374,2.526422306484375,15.281754896484374,2.3999938964843754,15.599994896484375,2.399993896484375C15.599994896484375,2.399993896484375,15.611994896484376,2.399993896484375,15.611994896484376,2.399993896484375C15.930233896484374,2.3999938964843754,16.235514896484375,2.526422306484375,16.460514896484376,2.751465496484375C16.685514896484374,2.976509926484375,16.811994896484375,3.281734766484375,16.811994896484375,3.599993896484375C16.811994896484375,3.918258096484375,16.685514896484374,4.223477996484375,16.460514896484376,4.448526096484375C16.235514896484375,4.673562096484375,15.930233896484374,4.799993996484375,15.611994896484376,4.799993996484375C15.611994896484376,4.799993996484375,15.599994896484375,4.799993996484375,15.599994896484375,4.799993996484375C15.281754896484374,4.799993996484375,14.976474896484374,4.673562096484375,14.751473896484375,4.448526096484375C14.526474896484375,4.223477996484375,14.399993896484375,3.918258096484375,14.399993896484375,3.599993896484375C14.399993896484375,3.599993896484375,14.399993896484375,3.599993896484375,14.399993896484375,3.599993896484375Z" fill-rule="evenodd" fill="#0A0A28" fill-opacity="1"/></g></svg>