<svg xmlns="http://www.w3.org/2000/svg" xmlns:xlink="http://www.w3.org/1999/xlink" fill="none" version="1.1" width="24" height="24" viewBox="0 0 24 24"><defs><clipPath id="master_svg0_3_1599"><rect x="0" y="0" width="24" height="24" rx="0"/></clipPath></defs><g clip-path="url(#master_svg0_3_1599)"><path d="M7.19998789296875,2.399993896484375C6.56347189296875,2.3999938964843754,5.95301869296875,2.652850716484375,5.50293100296875,3.102937106484375C5.05284461296875,3.553024796484375,4.799987792968752,4.163477996484375,4.79998779296875,4.799993996484375C4.79998779296875,4.799993996484375,4.79998779296875,19.199994896484377,4.79998779296875,19.199994896484377C4.799987792968751,19.836474896484376,5.05284461296875,20.446914896484376,5.50293100296875,20.897033896484373C5.95301869296875,21.347154896484376,6.56347189296875,21.599994896484375,7.19998789296875,21.599994896484375C7.19998789296875,21.599994896484375,16.79998779296875,21.599994896484375,16.79998779296875,21.599994896484375C17.43646879296875,21.599994896484375,18.04690879296875,21.347154896484376,18.49702879296875,20.897033896484373C18.94714879296875,20.446914896484376,19.19998879296875,19.836474896484376,19.19998879296875,19.199994896484377C19.19998879296875,19.199994896484377,19.19998879296875,4.799993996484375,19.19998879296875,4.799993996484375C19.19998879296875,4.163477996484375,18.94714879296875,3.553024796484375,18.49702879296875,3.102937106484375C18.04690879296875,2.652850716484375,17.43646879296875,2.3999938964843754,16.79998779296875,2.399993896484375C16.79998779296875,2.399993896484375,7.19998789296875,2.399993896484375,7.19998789296875,2.399993896484375C7.19998789296875,2.399993896484375,7.19998789296875,2.399993896484375,7.19998789296875,2.399993896484375ZM8.399987892968749,4.799993996484375C8.08172389296875,4.799993996484375,7.77650379296875,4.926425896484375,7.55145599296875,5.151462096484375C7.32641979296875,5.376509896484375,7.19998789296875,5.681729996484375,7.19998789296875,5.999993996484375C7.19998789296875,6.318258096484374,7.32641979296875,6.623478396484375,7.55145599296875,6.848525996484375C7.77650379296875,7.073562096484375,8.08172389296875,7.199994096484375,8.399987892968749,7.199994096484375C8.399987892968749,7.199994096484375,15.59998779296875,7.199994096484375,15.59998779296875,7.199994096484375C15.91825179296875,7.199994096484375,16.22347279296875,7.073562096484375,16.44852079296875,6.848525996484375C16.67355679296875,6.623478396484375,16.79998779296875,6.318258096484374,16.79998779296875,5.999993996484375C16.79998779296875,5.681729996484375,16.67355679296875,5.376509896484375,16.44852079296875,5.151462096484375C16.22347279296875,4.926425896484375,15.91825179296875,4.799993996484375,15.59998779296875,4.799993996484375C15.59998779296875,4.799993996484375,8.399987892968749,4.799993996484375,8.399987892968749,4.799993996484375C8.399987892968749,4.799993996484375,8.399987892968749,4.799993996484375,8.399987892968749,4.799993996484375ZM15.59998779296875,13.199993896484376C15.91825179296875,13.199993896484376,16.22347279296875,13.326426896484374,16.44852079296875,13.551461896484374C16.67355679296875,13.776509896484376,16.79998779296875,14.081730896484375,16.79998779296875,14.399993896484375C16.79998779296875,14.399993896484375,16.79998779296875,17.999993896484376,16.79998779296875,17.999993896484376C16.79998779296875,18.318234896484377,16.67355679296875,18.623513896484376,16.44852079296875,18.848514896484375C16.22347279296875,19.073514896484376,15.91825179296875,19.199994896484377,15.59998779296875,19.199994896484377C15.28172479296875,19.199994896484377,14.97650379296875,19.073514896484376,14.75145529296875,18.848514896484375C14.52642059296875,18.623513896484376,14.39998819296875,18.318234896484377,14.39998819296875,17.999993896484376C14.39998819296875,17.999993896484376,14.39998819296875,14.399993896484375,14.39998819296875,14.399993896484375C14.39998819296875,14.081730896484375,14.52642059296875,13.776509896484376,14.75145529296875,13.551461896484374C14.97650379296875,13.326426896484374,15.28172479296875,13.199993896484376,15.59998779296875,13.199993896484376C15.59998779296875,13.199993896484376,15.59998779296875,13.199993896484376,15.59998779296875,13.199993896484376C15.59998779296875,13.199993896484376,15.59998779296875,13.199993896484376,15.59998779296875,13.199993896484376ZM11.99998809296875,16.799994896484375C11.68172409296875,16.799994896484375,11.37650439296875,16.926474896484375,11.15145639296875,17.151474896484373C10.926420192968749,17.376473896484377,10.79998779296875,17.681754896484374,10.79998779296875,17.999993896484376C10.79998779296875,18.318234896484377,10.926420192968749,18.623513896484376,11.15145639296875,18.848514896484375C11.37650439296875,19.073514896484376,11.68172409296875,19.199994896484377,11.99998809296875,19.199994896484377C11.99998809296875,19.199994896484377,12.01198819296875,19.199994896484377,12.01198819296875,19.199994896484377C12.33025219296875,19.199994896484377,12.63547229296875,19.073514896484376,12.86052039296875,18.848514896484375C13.08555599296875,18.623513896484376,13.21198849296875,18.318234896484377,13.21198849296875,17.999993896484376C13.21198849296875,17.681754896484374,13.08555599296875,17.376473896484377,12.86052039296875,17.151474896484373C12.63547229296875,16.926474896484375,12.33025219296875,16.799994896484375,12.01198819296875,16.799994896484375C12.01198819296875,16.799994896484375,11.99998809296875,16.799994896484375,11.99998809296875,16.799994896484375C11.99998809296875,16.799994896484375,11.99998809296875,16.799994896484375,11.99998809296875,16.799994896484375ZM7.19998789296875,17.999993896484376C7.19998789296875,17.681754896484374,7.32641979296875,17.376473896484377,7.55145599296875,17.151474896484373C7.77650379296875,16.926474896484375,8.08172389296875,16.799994896484375,8.399987892968749,16.799994896484375C8.399987892968749,16.799994896484375,8.41198799296875,16.799994896484375,8.41198799296875,16.799994896484375C8.730251792968751,16.799994896484375,9.03547189296875,16.926474896484375,9.26051999296875,17.151474896484373C9.48555609296875,17.376473896484377,9.611988092968751,17.681754896484374,9.611988092968751,17.999993896484376C9.611988092968751,18.318234896484377,9.48555609296875,18.623513896484376,9.26051999296875,18.848514896484375C9.03547189296875,19.073514896484376,8.730251792968751,19.199994896484377,8.41198799296875,19.199994896484377C8.41198799296875,19.199994896484377,8.399987892968749,19.199994896484377,8.399987892968749,19.199994896484377C8.08172389296875,19.199994896484377,7.77650379296875,19.073514896484376,7.55145599296875,18.848514896484375C7.32641979296875,18.623513896484376,7.19998789296875,18.318234896484377,7.19998789296875,17.999993896484376C7.19998789296875,17.999993896484376,7.19998789296875,17.999993896484376,7.19998789296875,17.999993896484376ZM8.399987892968749,13.199993896484376C8.08172389296875,13.199993896484376,7.77650379296875,13.326426896484374,7.55145599296875,13.551461896484374C7.32641979296875,13.776509896484376,7.19998789296875,14.081730896484375,7.19998789296875,14.399993896484375C7.19998789296875,14.718233896484374,7.32641979296875,15.023514896484375,7.55145599296875,15.248513896484376C7.77650379296875,15.473514896484375,8.08172389296875,15.599994896484375,8.399987892968749,15.599994896484375C8.399987892968749,15.599994896484375,8.41198799296875,15.599994896484375,8.41198799296875,15.599994896484375C8.730251792968751,15.599994896484375,9.03547189296875,15.473514896484375,9.26051999296875,15.248513896484376C9.48555609296875,15.023514896484375,9.611988092968751,14.718233896484374,9.611988092968751,14.399993896484375C9.611988092968751,14.081730896484375,9.48555609296875,13.776509896484376,9.26051999296875,13.551461896484374C9.03547189296875,13.326426896484374,8.730251792968751,13.199993896484376,8.41198799296875,13.199993896484376C8.41198799296875,13.199993896484376,8.399987892968749,13.199993896484376,8.399987892968749,13.199993896484376C8.399987892968749,13.199993896484376,8.399987892968749,13.199993896484376,8.399987892968749,13.199993896484376ZM10.79998779296875,14.399993896484375C10.79998779296875,14.081730896484375,10.926420192968749,13.776509896484376,11.15145639296875,13.551461896484374C11.37650439296875,13.326426896484374,11.68172409296875,13.199993896484376,11.99998809296875,13.199993896484376C11.99998809296875,13.199993896484376,12.01198819296875,13.199993896484376,12.01198819296875,13.199993896484376C12.33025219296875,13.199993896484376,12.63547229296875,13.326426896484374,12.86052039296875,13.551461896484374C13.08555599296875,13.776509896484376,13.21198849296875,14.081730896484375,13.21198849296875,14.399993896484375C13.21198849296875,14.718233896484374,13.08555599296875,15.023514896484375,12.86052039296875,15.248513896484376C12.63547229296875,15.473514896484375,12.33025219296875,15.599994896484375,12.01198819296875,15.599994896484375C12.01198819296875,15.599994896484375,11.99998809296875,15.599994896484375,11.99998809296875,15.599994896484375C11.68172409296875,15.599994896484375,11.37650439296875,15.473514896484375,11.15145639296875,15.248513896484376C10.926420192968749,15.023514896484375,10.79998779296875,14.718233896484374,10.79998779296875,14.399993896484375C10.79998779296875,14.399993896484375,10.79998779296875,14.399993896484375,10.79998779296875,14.399993896484375ZM15.59998779296875,9.599994196484374C15.28172479296875,9.599994196484374,14.97650379296875,9.726426096484374,14.75145529296875,9.951462296484376C14.52642059296875,10.176510296484375,14.39998819296875,10.481730496484374,14.39998819296875,10.799994496484375C14.39998819296875,11.118258496484374,14.52642059296875,11.423478096484375,14.75145529296875,11.648526196484376C14.97650379296875,11.873561896484375,15.28172479296875,11.999994296484376,15.59998779296875,11.999994296484376C15.59998779296875,11.999994296484376,15.61198779296875,11.999994296484376,15.61198779296875,11.999994296484376C15.93025179296875,11.999994296484376,16.235471792968752,11.873561896484375,16.46051979296875,11.648526196484376C16.68555679296875,11.423478096484375,16.811988792968748,11.118258496484374,16.811988792968748,10.799994496484375C16.811988792968748,10.481730496484374,16.68555679296875,10.176510296484375,16.46051979296875,9.951462296484376C16.235471792968752,9.726426096484374,15.93025179296875,9.599994196484374,15.61198779296875,9.599994196484374C15.61198779296875,9.599994196484374,15.59998779296875,9.599994196484374,15.59998779296875,9.599994196484374C15.59998779296875,9.599994196484374,15.59998779296875,9.599994196484374,15.59998779296875,9.599994196484374ZM10.79998779296875,10.799994496484375C10.79998779296875,10.481730496484374,10.926420192968749,10.176510296484375,11.15145639296875,9.951462296484376C11.37650439296875,9.726426096484374,11.68172409296875,9.599994196484374,11.99998809296875,9.599994196484374C11.99998809296875,9.599994196484374,12.01198819296875,9.599994196484374,12.01198819296875,9.599994196484374C12.33025219296875,9.599994196484374,12.63547229296875,9.726426096484374,12.86052039296875,9.951462296484376C13.08555599296875,10.176510296484375,13.21198849296875,10.481730496484374,13.21198849296875,10.799994496484375C13.21198849296875,11.118258496484374,13.08555599296875,11.423478096484375,12.86052039296875,11.648526196484376C12.63547229296875,11.873561896484375,12.33025219296875,11.999994296484376,12.01198819296875,11.999994296484376C12.01198819296875,11.999994296484376,11.99998809296875,11.999994296484376,11.99998809296875,11.999994296484376C11.68172409296875,11.999994296484376,11.37650439296875,11.873561896484375,11.15145639296875,11.648526196484376C10.926420192968749,11.423478096484375,10.79998779296875,11.118258496484374,10.79998779296875,10.799994496484375C10.79998779296875,10.799994496484375,10.79998779296875,10.799994496484375,10.79998779296875,10.799994496484375ZM8.399987892968749,9.599994196484374C8.08172389296875,9.599994196484374,7.77650379296875,9.726426096484374,7.55145599296875,9.951462296484376C7.32641979296875,10.176510296484375,7.19998789296875,10.481730496484374,7.19998789296875,10.799994496484375C7.19998789296875,11.118258496484374,7.32641979296875,11.423478096484375,7.55145599296875,11.648526196484376C7.77650379296875,11.873561896484375,8.08172389296875,11.999994296484376,8.399987892968749,11.999994296484376C8.399987892968749,11.999994296484376,8.41198799296875,11.999994296484376,8.41198799296875,11.999994296484376C8.730251792968751,11.999994296484376,9.03547189296875,11.873561896484375,9.26051999296875,11.648526196484376C9.48555609296875,11.423478096484375,9.611988092968751,11.118258496484374,9.611988092968751,10.799994496484375C9.611988092968751,10.481730496484374,9.48555609296875,10.176510296484375,9.26051999296875,9.951462296484376C9.03547189296875,9.726426096484374,8.730251792968751,9.599994196484374,8.41198799296875,9.599994196484374C8.41198799296875,9.599994196484374,8.399987892968749,9.599994196484374,8.399987892968749,9.599994196484374C8.399987892968749,9.599994196484374,8.399987892968749,9.599994196484374,8.399987892968749,9.599994196484374Z" fill-rule="evenodd" fill="#0A0A28" fill-opacity="1"/></g></svg>