<svg xmlns="http://www.w3.org/2000/svg" xmlns:xlink="http://www.w3.org/1999/xlink" fill="none" version="1.1" width="24" height="24" viewBox="0 0 24 24"><defs><clipPath id="master_svg0_3_1977"><rect x="0" y="0" width="24" height="24" rx="0"/></clipPath></defs><g clip-path="url(#master_svg0_3_1977)"><path d="M9,6C8.4477201,6,8,6.4477201,8,7C8,7.5522799,8.4477201,8,9,8C9,8,9,6,9,6C9,6,9,6,9,6ZM15,8C15.5523,8,16,7.5522799,16,7C16,6.4477201,15.5523,6,15,6C15,6,15,8,15,8C15,8,15,8,15,8ZM14,17C14,17.552300000000002,14.44771,18,15,18C15.5523,18,16,17.552300000000002,16,17C16,17,14,17,14,17C14,17,14,17,14,17ZM16,14C16,13.4477,15.5523,13,15,13C14.44771,13,14,13.4477,14,14C14,14,16,14,16,14C16,14,16,14,16,14ZM12,16C11.4477201,16,11,16.447699999999998,11,17C11,17.552300000000002,11.4477201,18,12,18C12,18,12,16,12,16C12,16,12,16,12,16ZM12.0100002,18C12.5622802,18,13.0100002,17.552300000000002,13.0100002,17C13.0100002,16.447699999999998,12.5622802,16,12.0100002,16C12.0100002,16,12.0100002,18,12.0100002,18C12.0100002,18,12.0100002,18,12.0100002,18ZM9,16C8.4477201,16,8,16.447699999999998,8,17C8,17.552300000000002,8.4477201,18,9,18C9,18,9,16,9,16C9,16,9,16,9,16ZM9.0100002,18C9.5622802,18,10.0100002,17.552300000000002,10.0100002,17C10.0100002,16.447699999999998,9.5622802,16,9.0100002,16C9.0100002,16,9.0100002,18,9.0100002,18C9.0100002,18,9.0100002,18,9.0100002,18ZM9,13C8.4477201,13,8,13.4477,8,14C8,14.5523,8.4477201,15,9,15C9,15,9,13,9,13C9,13,9,13,9,13ZM9.0100002,15C9.5622802,15,10.0100002,14.5523,10.0100002,14C10.0100002,13.4477,9.5622802,13,9.0100002,13C9.0100002,13,9.0100002,15,9.0100002,15C9.0100002,15,9.0100002,15,9.0100002,15ZM12,13C11.4477201,13,11,13.4477,11,14C11,14.5523,11.4477201,15,12,15C12,15,12,13,12,13C12,13,12,13,12,13ZM12.0100002,15C12.5622802,15,13.0100002,14.5523,13.0100002,14C13.0100002,13.4477,12.5622802,13,12.0100002,13C12.0100002,13,12.0100002,15,12.0100002,15C12.0100002,15,12.0100002,15,12.0100002,15ZM15,10C14.44771,10,14,10.4477201,14,11C14,11.55229,14.44771,12,15,12C15,12,15,10,15,10C15,10,15,10,15,10ZM15.01,12C15.5623,12,16.009999999999998,11.55229,16.009999999999998,11C16.009999999999998,10.4477201,15.5623,10,15.01,10C15.01,10,15.01,12,15.01,12C15.01,12,15.01,12,15.01,12ZM12,10C11.4477201,10,11,10.4477201,11,11C11,11.55229,11.4477201,12,12,12C12,12,12,10,12,10C12,10,12,10,12,10ZM12.0100002,12C12.5622802,12,13.0100002,11.55229,13.0100002,11C13.0100002,10.4477201,12.5622802,10,12.0100002,10C12.0100002,10,12.0100002,12,12.0100002,12C12.0100002,12,12.0100002,12,12.0100002,12ZM9,10C8.4477201,10,8,10.4477201,8,11C8,11.55229,8.4477201,12,9,12C9,12,9,10,9,10C9,10,9,10,9,10ZM9.0100002,12C9.5622802,12,10.0100002,11.55229,10.0100002,11C10.0100002,10.4477201,9.5622802,10,9.0100002,10C9.0100002,10,9.0100002,12,9.0100002,12C9.0100002,12,9.0100002,12,9.0100002,12ZM17,3C17,3,17,2,17,2C17,2,17,3,17,3C17,3,17,3,17,3ZM7,3C7,3,7,2,7,2C7,2,7,3,7,3C7,3,7,3,7,3ZM5,5C5,5,4,5,4,5C4,5,5,5,5,5C5,5,5,5,5,5ZM5,19C5,19,4,19,4,19C4,19,5,19,5,19C5,19,5,19,5,19ZM9,8C9,8,15,8,15,8C15,8,15,6,15,6C15,6,9,6,9,6C9,6,9,8,9,8C9,8,9,8,9,8ZM16,17C16,17,16,14,16,14C16,14,14,14,14,14C14,14,14,17,14,17C14,17,16,17,16,17C16,17,16,17,16,17ZM12,18C12,18,12.0100002,18,12.0100002,18C12.0100002,18,12.0100002,16,12.0100002,16C12.0100002,16,12,16,12,16C12,16,12,18,12,18C12,18,12,18,12,18ZM9,18C9,18,9.0100002,18,9.0100002,18C9.0100002,18,9.0100002,16,9.0100002,16C9.0100002,16,9,16,9,16C9,16,9,18,9,18C9,18,9,18,9,18ZM9,15C9,15,9.0100002,15,9.0100002,15C9.0100002,15,9.0100002,13,9.0100002,13C9.0100002,13,9,13,9,13C9,13,9,15,9,15C9,15,9,15,9,15ZM12,15C12,15,12.0100002,15,12.0100002,15C12.0100002,15,12.0100002,13,12.0100002,13C12.0100002,13,12,13,12,13C12,13,12,15,12,15C12,15,12,15,12,15ZM15,12C15,12,15.01,12,15.01,12C15.01,12,15.01,10,15.01,10C15.01,10,15,10,15,10C15,10,15,12,15,12C15,12,15,12,15,12ZM12,12C12,12,12.0100002,12,12.0100002,12C12.0100002,12,12.0100002,10,12.0100002,10C12.0100002,10,12,10,12,10C12,10,12,12,12,12C12,12,12,12,12,12ZM9,12C9,12,9.0100002,12,9.0100002,12C9.0100002,12,9.0100002,10,9.0100002,10C9.0100002,10,9,10,9,10C9,10,9,12,9,12C9,12,9,12,9,12ZM7,22C7,22,17,22,17,22C17,22,17,20,17,20C17,20,7,20,7,20C7,20,7,22,7,22C7,22,7,22,7,22ZM17,22C17.7957,22,18.5587,21.683901,19.121299999999998,21.1213C19.121299999999998,21.1213,17.7071,19.7071,17.7071,19.7071C17.5196,19.8946,17.2652,20,17,20C17,20,17,22,17,22C17,22,17,22,17,22ZM19.121299999999998,21.1213C19.6839,20.558701,20,19.7957,20,19C20,19,18,19,18,19C18,19.2652,17.8946,19.5196,17.7071,19.7071C17.7071,19.7071,19.121299999999998,21.1213,19.121299999999998,21.1213C19.121299999999998,21.1213,19.121299999999998,21.1213,19.121299999999998,21.1213ZM20,19C20,19,20,5,20,5C20,5,18,5,18,5C18,5,18,19,18,19C18,19,20,19,20,19C20,19,20,19,20,19ZM20,5C20,4.20435,19.6839,3.44128799,19.121299999999998,2.87868C19.121299999999998,2.87868,17.7071,4.29289,17.7071,4.29289C17.8946,4.48043,18,4.73478,18,5C18,5,20,5,20,5C20,5,20,5,20,5ZM19.121299999999998,2.87868C18.5587,2.3160700199999997,17.7956,2,17,2C17,2,17,4,17,4C17.2652,4,17.5196,4.10536,17.7071,4.29289C17.7071,4.29289,19.121299999999998,2.87868,19.121299999999998,2.87868C19.121299999999998,2.87868,19.121299999999998,2.87868,19.121299999999998,2.87868ZM17,2C17,2,7,2,7,2C7,2,7,4,7,4C7,4,17,4,17,4C17,4,17,2,17,2C17,2,17,2,17,2ZM7,2C6.20435,2,5.44128901,2.3160700199999997,4.87868,2.87868C4.87868,2.87868,6.29289,4.29289,6.29289,4.29289C6.48043,4.10536,6.73478,4,7,4C7,4,7,2,7,2C7,2,7,2,7,2ZM4.87868,2.87868C4.31607002,3.44128901,4,4.20435,4,5C4,5,6,5,6,5C6,4.73478,6.10536,4.48043,6.29289,4.29289C6.29289,4.29289,4.87868,2.87868,4.87868,2.87868C4.87868,2.87868,4.87868,2.87868,4.87868,2.87868ZM4,5C4,5,4,19,4,19C4,19,6,19,6,19C6,19,6,5,6,5C6,5,4,5,4,5C4,5,4,5,4,5ZM4,19C4,19.7957,4.31607002,20.558701,4.87868,21.1213C4.87868,21.1213,6.29289,19.7071,6.29289,19.7071C6.10536,19.5196,6,19.2652,6,19C6,19,4,19,4,19C4,19,4,19,4,19ZM4.87868,21.1213C5.44128799,21.683901,6.20435,22,7,22C7,22,7,20,7,20C6.73478,20,6.48043,19.8946,6.29289,19.7071C6.29289,19.7071,4.87868,21.1213,4.87868,21.1213C4.87868,21.1213,4.87868,21.1213,4.87868,21.1213Z" fill="#0A0A28" fill-opacity="1"/></g></svg>