<svg xmlns="http://www.w3.org/2000/svg" xmlns:xlink="http://www.w3.org/1999/xlink" fill="none" version="1.1" width="24" height="24" viewBox="0 0 24 24"><defs><clipPath id="master_svg0_3_2023"><rect x="0" y="0" width="24" height="24" rx="0"/></clipPath></defs><g clip-path="url(#master_svg0_3_2023)"><path d="M7,7C7,7.5522799,7.4477201,8,8,8C8.5522799,8,9,7.5522799,9,7C9,7,7,7,7,7C7,7,7,7,7,7ZM9,3C9,2.4477149799999998,8.5522799,2,8,2C7.4477201,2,7,2.4477149799999998,7,3C7,3,9,3,9,3C9,3,9,3,9,3ZM15,7C15,7.5522799,15.4477,8,16,8C16.552300000000002,8,17,7.5522799,17,7C17,7,15,7,15,7C15,7,15,7,15,7ZM17,3C17,2.4477149799999998,16.552300000000002,2,16,2C15.4477,2,15,2.4477149799999998,15,3C15,3,17,3,17,3C17,3,17,3,17,3ZM7,10C6.4477201,10,6,10.4477201,6,11C6,11.55229,6.4477201,12,7,12C7,12,7,10,7,10C7,10,7,10,7,10ZM17,12C17.552300000000002,12,18,11.55229,18,11C18,10.4477201,17.552300000000002,10,17,10C17,10,17,12,17,12C17,12,17,12,17,12ZM19,5C19,5,19,4,19,4C19,4,19,5,19,5C19,5,19,5,19,5ZM5,5C5,5,5,4,5,4C5,4,5,5,5,5C5,5,5,5,5,5ZM3,7C3,7,2,7,2,7C2,7,3,7,3,7C3,7,3,7,3,7ZM3,19C3,19,2,19,2,19C2,19,3,19,3,19C3,19,3,19,3,19ZM9,7C9,7,9,3,9,3C9,3,7,3,7,3C7,3,7,7,7,7C7,7,9,7,9,7C9,7,9,7,9,7ZM17,7C17,7,17,3,17,3C17,3,15,3,15,3C15,3,15,7,15,7C15,7,17,7,17,7C17,7,17,7,17,7ZM7,12C7,12,17,12,17,12C17,12,17,10,17,10C17,10,7,10,7,10C7,10,7,12,7,12C7,12,7,12,7,12ZM5,22C5,22,19,22,19,22C19,22,19,20,19,20C19,20,5,20,5,20C5,20,5,22,5,22C5,22,5,22,5,22ZM19,22C19.7957,22,20.558701,21.683901,21.1213,21.1213C21.1213,21.1213,19.7071,19.7071,19.7071,19.7071C19.5196,19.8946,19.2652,20,19,20C19,20,19,22,19,22C19,22,19,22,19,22ZM21.1213,21.1213C21.683901,20.558701,22,19.7957,22,19C22,19,20,19,20,19C20,19.2652,19.8946,19.5196,19.7071,19.7071C19.7071,19.7071,21.1213,21.1213,21.1213,21.1213C21.1213,21.1213,21.1213,21.1213,21.1213,21.1213ZM22,19C22,19,22,7,22,7C22,7,20,7,20,7C20,7,20,19,20,19C20,19,22,19,22,19C22,19,22,19,22,19ZM22,7C22,6.20435,21.683901,5.4412899,21.1213,4.87868C21.1213,4.87868,19.7071,6.2928901,19.7071,6.2928901C19.8946,6.4804299,20,6.7347801,20,7C20,7,22,7,22,7C22,7,22,7,22,7ZM21.1213,4.87868C20.558701,4.31607,19.7957,4,19,4C19,4,19,6,19,6C19.2652,6,19.5196,6.10536,19.7071,6.2928901C19.7071,6.2928901,21.1213,4.87868,21.1213,4.87868C21.1213,4.87868,21.1213,4.87868,21.1213,4.87868ZM19,4C19,4,5,4,5,4C5,4,5,6,5,6C5,6,19,6,19,6C19,6,19,4,19,4C19,4,19,4,19,4ZM5,4C4.20435,4,3.44128901,4.31607,2.87868,4.87868C2.87868,4.87868,4.29289,6.2928901,4.29289,6.2928901C4.48043,6.10536,4.73478,6,5,6C5,6,5,4,5,4C5,4,5,4,5,4ZM2.87868,4.87868C2.3160700199999997,5.4412899,2,6.20435,2,7C2,7,4,7,4,7C4,6.7347801,4.10536,6.4804299,4.29289,6.2928901C4.29289,6.2928901,2.87868,4.87868,2.87868,4.87868C2.87868,4.87868,2.87868,4.87868,2.87868,4.87868ZM2,7C2,7,2,19,2,19C2,19,4,19,4,19C4,19,4,7,4,7C4,7,2,7,2,7C2,7,2,7,2,7ZM2,19C2,19.7957,2.3160700199999997,20.558701,2.87868,21.1213C2.87868,21.1213,4.29289,19.7071,4.29289,19.7071C4.10536,19.5196,4,19.2652,4,19C4,19,2,19,2,19C2,19,2,19,2,19ZM2.87868,21.1213C3.44128799,21.683901,4.20435,22,5,22C5,22,5,20,5,20C4.73478,20,4.48043,19.8946,4.29289,19.7071C4.29289,19.7071,2.87868,21.1213,2.87868,21.1213C2.87868,21.1213,2.87868,21.1213,2.87868,21.1213Z" fill="#0A0A28" fill-opacity="1"/></g></svg>