<svg xmlns="http://www.w3.org/2000/svg" xmlns:xlink="http://www.w3.org/1999/xlink" fill="none" version="1.1" width="24" height="24" viewBox="0 0 24 24"><defs><clipPath id="master_svg0_3_1844"><rect x="0" y="0" width="24" height="24" rx="0"/></clipPath></defs><g clip-path="url(#master_svg0_3_1844)"><path d="M7.199994096484375,2.399993896484375C6.881730096484375,2.3999938964843754,6.576509996484375,2.526422306484375,6.351462096484375,2.751465496484375C6.126425996484375,2.976509926484375,5.999993996484375,3.281734766484375,5.999993996484375,3.599993896484375C5.999993996484375,3.599993896484375,5.999993996484375,4.799993996484375,5.999993996484375,4.799993996484375C5.999993996484375,4.799993996484375,4.799993996484375,4.799993996484375,4.799993996484375,4.799993996484375C4.163477996484375,4.799993996484375,3.553024796484375,5.0528459964843755,3.102937106484375,5.502941896484375C2.652850716484375,5.9530260964843755,2.3999938964843754,6.563477996484375,2.399993896484375,7.199994096484375C2.399993896484375,7.199994096484375,2.399993896484375,19.199994896484377,2.399993896484375,19.199994896484377C2.3999938964843754,19.836474896484376,2.652850716484375,20.446914896484376,3.102937106484375,20.897033896484373C3.553024796484375,21.347154896484376,4.163477996484375,21.599994896484375,4.799993996484375,21.599994896484375C4.799993996484375,21.599994896484375,19.199994896484377,21.599994896484375,19.199994896484377,21.599994896484375C19.836474896484376,21.599994896484375,20.446914896484376,21.347154896484376,20.897033896484373,20.897033896484373C21.347154896484376,20.446914896484376,21.599994896484375,19.836474896484376,21.599994896484375,19.199994896484377C21.599994896484375,19.199994896484377,21.599994896484375,7.199994096484375,21.599994896484375,7.199994096484375C21.599994896484375,6.563477996484375,21.347154896484376,5.9530260964843755,20.897033896484373,5.502941896484375C20.446914896484376,5.0528459964843755,19.836474896484376,4.799993996484375,19.199994896484377,4.799993996484375C19.199994896484377,4.799993996484375,17.999993896484376,4.799993996484375,17.999993896484376,4.799993996484375C17.999993896484376,4.799993996484375,17.999993896484376,3.599993896484375,17.999993896484376,3.599993896484375C17.999993896484376,3.281734766484375,17.873513896484376,2.976509926484375,17.648514896484375,2.751465496484375C17.423513896484373,2.526422306484375,17.118233896484377,2.399993896484376,16.799994896484375,2.399993896484375C16.481754896484375,2.399993896484376,16.176474896484375,2.526422306484375,15.951473896484375,2.751465496484375C15.726474896484374,2.976509926484375,15.599994896484375,3.281734766484375,15.599994896484375,3.599993896484375C15.599994896484375,3.599993896484375,15.599994896484375,4.799993996484375,15.599994896484375,4.799993996484375C15.599994896484375,4.799993996484375,8.399993896484375,4.799993996484375,8.399993896484375,4.799993996484375C8.399993896484375,4.799993996484375,8.399993896484375,3.599993896484375,8.399993896484375,3.599993896484375C8.399993896484375,3.281734766484375,8.273561996484375,2.976509926484375,8.048525796484375,2.751465496484375C7.823477696484375,2.526422306484375,7.518258096484375,2.399993896484376,7.199994096484375,2.399993896484375C7.199994096484375,2.399993896484375,7.199994096484375,2.399993896484375,7.199994096484375,2.399993896484375C7.199994096484375,2.399993896484375,7.199994096484375,2.399993896484375,7.199994096484375,2.399993896484375ZM7.199994096484375,8.399993896484375C6.881730096484375,8.399993896484375,6.576509996484375,8.526426296484374,6.351462096484375,8.751462496484375C6.126425996484375,8.976510496484375,5.999993996484375,9.281730196484375,5.999993996484375,9.599994196484374C5.999993996484375,9.918258196484375,6.126425996484375,10.223477796484374,6.351462096484375,10.448526396484375C6.576509996484375,10.673562096484375,6.881730096484375,10.799994496484375,7.199994096484375,10.799994496484375C7.199994096484375,10.799994496484375,16.799994896484375,10.799994496484375,16.799994896484375,10.799994496484375C17.118233896484377,10.799994496484375,17.423513896484373,10.673562096484375,17.648514896484375,10.448526396484375C17.873513896484376,10.223477796484374,17.999993896484376,9.918258196484375,17.999993896484376,9.599994196484374C17.999993896484376,9.281730196484375,17.873513896484376,8.976510496484375,17.648514896484375,8.751462496484375C17.423513896484373,8.526426296484374,17.118233896484377,8.399993896484375,16.799994896484375,8.399993896484375C16.799994896484375,8.399993896484375,7.199994096484375,8.399993896484375,7.199994096484375,8.399993896484375C7.199994096484375,8.399993896484375,7.199994096484375,8.399993896484375,7.199994096484375,8.399993896484375Z" fill-rule="evenodd" fill="#0A0A28" fill-opacity="1"/></g></svg>