<svg xmlns="http://www.w3.org/2000/svg" xmlns:xlink="http://www.w3.org/1999/xlink" fill="none" version="1.1" width="24" height="24" viewBox="0 0 24 24"><defs><clipPath id="master_svg0_3_2097"><rect x="0" y="0" width="24" height="24" rx="0"/></clipPath></defs><g clip-path="url(#master_svg0_3_2097)"><path d="M5,7C5,7,5,6,5,6C5,6,5,7,5,7C5,7,5,7,5,7ZM5.9300001,7C5.9300001,7,5.930149999999999,6,5.930149999999999,6C5.930149999999999,6,5.9300001,6,5.9300001,6C5.9300001,6,5.9300001,7,5.9300001,7C5.9300001,7,5.9300001,7,5.9300001,7ZM7.5939999,6.1099999C7.5939999,6.1099999,8.4258499,6.665,8.4258499,6.665C8.4258499,6.665,8.4264698,6.664069899999999,8.4264698,6.664069899999999C8.4264698,6.664069899999999,7.5939999,6.1099999,7.5939999,6.1099999C7.5939999,6.1099999,7.5939999,6.1099999,7.5939999,6.1099999ZM8.4060001,4.88999999C8.4060001,4.88999999,7.5741501,4.33500001,7.5741501,4.33500001C7.5741501,4.33500001,7.5735302,4.33592999,7.5735302,4.33592999C7.5735302,4.33592999,8.4060001,4.88999999,8.4060001,4.88999999C8.4060001,4.88999999,8.4060001,4.88999999,8.4060001,4.88999999ZM10.070000199999999,4.000000022398799C10.070000199999999,4.000000022398799,10.069849999999999,5,10.069849999999999,5C10.069849999999999,5,10.070000199999999,5,10.070000199999999,5C10.070000199999999,5,10.070000199999999,4.000000022398799,10.070000199999999,4.000000022398799C10.070000199999999,4.000000022398799,10.070000199999999,4.000000022398799,10.070000199999999,4.000000022398799ZM13.93,4.000000022398799C13.93,4.000000022398799,13.93,5,13.93,5C13.93,5,13.9302,5,13.9302,5C13.9302,5,13.93,4.000000022398799,13.93,4.000000022398799C13.93,4.000000022398799,13.93,4.000000022398799,13.93,4.000000022398799ZM15.594,4.88999999C15.594,4.88999999,16.4265,4.33592901,16.4265,4.33592901C16.4265,4.33592901,16.425800000000002,4.33500001,16.425800000000002,4.33500001C16.425800000000002,4.33500001,15.594,4.88999999,15.594,4.88999999C15.594,4.88999999,15.594,4.88999999,15.594,4.88999999ZM16.406,6.1099999C16.406,6.1099999,15.5735,6.664069899999999,15.5735,6.664069899999999C15.5735,6.664069899999999,15.5742,6.665,15.5742,6.665C15.5742,6.665,16.406,6.1099999,16.406,6.1099999C16.406,6.1099999,16.406,6.1099999,16.406,6.1099999ZM18.07,7C18.07,7,18.07,6,18.07,6C18.07,6,18.0698,6,18.0698,6C18.0698,6,18.07,7,18.07,7C18.07,7,18.07,7,18.07,7ZM19,7C19,7,19,6,19,6C19,6,19,7,19,7C19,7,19,7,19,7ZM3,18C3,18,2,18,2,18C2,18,3,18,3,18C3,18,3,18,3,18ZM4,9C4,8.7347798,4.10536,8.4804301,4.29289,8.292890100000001C4.29289,8.292890100000001,2.87868,6.87868,2.87868,6.87868C2.3160700199999997,7.4412899,2,8.20435,2,9C2,9,4,9,4,9C4,9,4,9,4,9ZM4.29289,8.292890100000001C4.48043,8.105360000000001,4.73478,8,5,8C5,8,5,6,5,6C4.20435,6,3.44128901,6.3160701,2.87868,6.87868C2.87868,6.87868,4.29289,8.292890100000001,4.29289,8.292890100000001C4.29289,8.292890100000001,4.29289,8.292890100000001,4.29289,8.292890100000001ZM5,8C5,8,5.9300001,8,5.9300001,8C5.9300001,8,5.9300001,6,5.9300001,6C5.9300001,6,5,6,5,6C5,6,5,8,5,8C5,8,5,8,5,8ZM5.9298500999999995,8C6.42363,8.0000701,6.90979,7.878269899999999,7.3452001,7.645379999999999C7.3452001,7.645379999999999,6.4019300999999995,5.8817900000000005,6.4019300999999995,5.8817900000000005C6.2567999,5.95942,6.0947399,6.00002,5.930149999999999,6C5.930149999999999,6,5.9298500999999995,8,5.9298500999999995,8C5.9298500999999995,8,5.9298500999999995,8,5.9298500999999995,8ZM7.3452001,7.645379999999999C7.7806101,7.4124999,8.1518002,7.0757501000000005,8.4258499,6.665C8.4258499,6.665,6.76215,5.5549999,6.76215,5.5549999C6.6708,5.69192,6.54707,5.80417,6.4019300999999995,5.8817900000000005C6.4019300999999995,5.8817900000000005,7.3452001,7.645379999999999,7.3452001,7.645379999999999C7.3452001,7.645379999999999,7.3452001,7.645379999999999,7.3452001,7.645379999999999ZM8.4264698,6.664069899999999C8.4264698,6.664069899999999,9.2384701,5.44407,9.2384701,5.44407C9.2384701,5.44407,7.5735302,4.33592999,7.5735302,4.33592999C7.5735302,4.33592999,6.7615299,5.55593,6.7615299,5.55593C6.7615299,5.55593,8.4264698,6.664069899999999,8.4264698,6.664069899999999C8.4264698,6.664069899999999,8.4264698,6.664069899999999,8.4264698,6.664069899999999ZM9.2378502,5.4450001C9.3291998,5.30808,9.45293,5.19583,9.598070100000001,5.1182099999999995C9.598070100000001,5.1182099999999995,8.6547999,3.35461497,8.6547999,3.35461497C8.2193899,3.587497,7.8481998,3.924251601,7.5741501,4.33500001C7.5741501,4.33500001,9.2378502,5.4450001,9.2378502,5.4450001C9.2378502,5.4450001,9.2378502,5.4450001,9.2378502,5.4450001ZM9.598070100000001,5.1182099999999995C9.7431998,5.04058,9.9052601,4.99997503,10.069849999999999,5C10.069849999999999,5,10.0701499,3,10.0701499,3C9.5763698,2.99993,9.090209999999999,3.12173402,8.6547999,3.35461497C8.6547999,3.35461497,9.598070100000001,5.1182099999999995,9.598070100000001,5.1182099999999995C9.598070100000001,5.1182099999999995,9.598070100000001,5.1182099999999995,9.598070100000001,5.1182099999999995ZM10.070000199999999,5C10.070000199999999,5,13.93,5,13.93,5C13.93,5,13.93,3,13.93,3C13.93,3,10.070000199999999,3,10.070000199999999,3C10.070000199999999,3,10.070000199999999,5,10.070000199999999,5C10.070000199999999,5,10.070000199999999,5,10.070000199999999,5ZM13.9302,5C14.0947,4.99997503,14.2568,5.04058,14.4019,5.1182099999999995C14.4019,5.1182099999999995,15.3452,3.35461497,15.3452,3.35461497C14.9098,3.12173402,14.4236,2.99993,13.9299,3C13.9299,3,13.9302,5,13.9302,5C13.9302,5,13.9302,5,13.9302,5ZM14.4019,5.1182099999999995C14.5471,5.19583,14.6708,5.30808,14.7621,5.4450001C14.7621,5.4450001,16.425800000000002,4.33500001,16.425800000000002,4.33500001C16.1518,3.924251601,15.7806,3.587497,15.3452,3.35461497C15.3452,3.35461497,14.4019,5.1182099999999995,14.4019,5.1182099999999995C14.4019,5.1182099999999995,14.4019,5.1182099999999995,14.4019,5.1182099999999995ZM14.7615,5.44407C14.7615,5.44407,15.5735,6.664069899999999,15.5735,6.664069899999999C15.5735,6.664069899999999,17.238500000000002,5.55593,17.238500000000002,5.55593C17.238500000000002,5.55593,16.4265,4.33592999,16.4265,4.33592999C16.4265,4.33592999,14.7615,5.44407,14.7615,5.44407C14.7615,5.44407,14.7615,5.44407,14.7615,5.44407ZM15.5742,6.665C15.8482,7.0757501000000005,16.2194,7.4124999,16.6548,7.645379999999999C16.6548,7.645379999999999,17.598100000000002,5.8817900000000005,17.598100000000002,5.8817900000000005C17.4529,5.80417,17.3292,5.69192,17.2379,5.5549999C17.2379,5.5549999,15.5742,6.665,15.5742,6.665C15.5742,6.665,15.5742,6.665,15.5742,6.665ZM16.6548,7.645379999999999C17.0902,7.878269899999999,17.5764,8.0000701,18.0701,8C18.0701,8,18.0698,6,18.0698,6C17.9053,6.00002,17.7432,5.95942,17.598100000000002,5.8817900000000005C17.598100000000002,5.8817900000000005,16.6548,7.645379999999999,16.6548,7.645379999999999C16.6548,7.645379999999999,16.6548,7.645379999999999,16.6548,7.645379999999999ZM18.07,8C18.07,8,19,8,19,8C19,8,19,6,19,6C19,6,18.07,6,18.07,6C18.07,6,18.07,8,18.07,8C18.07,8,18.07,8,18.07,8ZM19,8C19.2652,8,19.5196,8.105360000000001,19.7071,8.292890100000001C19.7071,8.292890100000001,21.1213,6.87868,21.1213,6.87868C20.558701,6.3160701,19.7957,6,19,6C19,6,19,8,19,8C19,8,19,8,19,8ZM19.7071,8.292890100000001C19.8946,8.4804301,20,8.7347798,20,9C20,9,22,9,22,9C22,8.20435,21.683901,7.4412899,21.1213,6.87868C21.1213,6.87868,19.7071,8.292890100000001,19.7071,8.292890100000001C19.7071,8.292890100000001,19.7071,8.292890100000001,19.7071,8.292890100000001ZM20,9C20,9,20,18,20,18C20,18,22,18,22,18C22,18,22,9,22,9C22,9,20,9,20,9C20,9,20,9,20,9ZM20,18C20,18.2652,19.8946,18.5196,19.7071,18.7071C19.7071,18.7071,21.1213,20.1213,21.1213,20.1213C21.683901,19.5587,22,18.7957,22,18C22,18,20,18,20,18C20,18,20,18,20,18ZM19.7071,18.7071C19.5196,18.8946,19.2652,19,19,19C19,19,19,21,19,21C19.7957,21,20.558701,20.683901,21.1213,20.1213C21.1213,20.1213,19.7071,18.7071,19.7071,18.7071C19.7071,18.7071,19.7071,18.7071,19.7071,18.7071ZM19,19C19,19,5,19,5,19C5,19,5,21,5,21C5,21,19,21,19,21C19,21,19,19,19,19C19,19,19,19,19,19ZM5,19C4.73478,19,4.48043,18.8946,4.29289,18.7071C4.29289,18.7071,2.87868,20.1213,2.87868,20.1213C3.44128799,20.683901,4.20435,21,5,21C5,21,5,19,5,19C5,19,5,19,5,19ZM4.29289,18.7071C4.10536,18.5196,4,18.2652,4,18C4,18,2,18,2,18C2,18.7956,2.3160700199999997,19.5587,2.87868,20.1213C2.87868,20.1213,4.29289,18.7071,4.29289,18.7071C4.29289,18.7071,4.29289,18.7071,4.29289,18.7071ZM4,18C4,18,4,9,4,9C4,9,2,9,2,9C2,9,2,18,2,18C2,18,4,18,4,18C4,18,4,18,4,18Z" fill="#0A0A28" fill-opacity="1"/><path d="M15,13C15,13,16,13,16,13C16,13,15,13,15,13C15,13,15,13,15,13ZM12,10C12,10,12,9,12,9C12,9,12,10,12,10C12,10,12,10,12,10ZM14,13C14,13.5304301,13.789290000000001,14.0391402,13.4142098,14.4142098C13.4142098,14.4142098,14.8284302,15.8284302,14.8284302,15.8284302C15.5785699,15.07828,16,14.0608702,16,13C16,13,14,13,14,13C14,13,14,13,14,13ZM13.4142098,14.4142098C13.0391402,14.789290000000001,12.5304301,15,12,15C12,15,12,17,12,17C13.0608702,17,14.07828,16.578569899999998,14.8284302,15.8284302C14.8284302,15.8284302,13.4142098,14.4142098,13.4142098,14.4142098C13.4142098,14.4142098,13.4142098,14.4142098,13.4142098,14.4142098ZM12,15C11.4695699,15,10.96086,14.789290000000001,10.58579,14.4142098C10.58579,14.4142098,9.171572,15.8284302,9.171572,15.8284302C9.921718,16.578569899999998,10.9391299,17,12,17C12,17,12,15,12,15C12,15,12,15,12,15ZM10.58579,14.4142098C10.21071,14.0391402,10,13.5304301,10,13C10,13,8,13,8,13C8,14.0608702,8.42142701,15.07828,9.171572,15.8284302C9.171572,15.8284302,10.58579,14.4142098,10.58579,14.4142098C10.58579,14.4142098,10.58579,14.4142098,10.58579,14.4142098ZM10,13C10,12.4695699,10.21071,11.96086,10.58579,11.58579C10.58579,11.58579,9.171572,10.171572,9.171572,10.171572C8.42142701,10.921718,8,11.9391299,8,13C8,13,10,13,10,13C10,13,10,13,10,13ZM10.58579,11.58579C10.96086,11.21071,11.4695699,11,12,11C12,11,12,9,12,9C10.9391299,9,9.921718,9.42142701,9.171572,10.171572C9.171572,10.171572,10.58579,11.58579,10.58579,11.58579C10.58579,11.58579,10.58579,11.58579,10.58579,11.58579ZM12,11C12.5304301,11,13.0391402,11.21071,13.4142098,11.58579C13.4142098,11.58579,14.8284302,10.171572,14.8284302,10.171572C14.07828,9.42142701,13.0608702,9,12,9C12,9,12,11,12,11C12,11,12,11,12,11ZM13.4142098,11.58579C13.789290000000001,11.96086,14,12.4695699,14,13C14,13,16,13,16,13C16,11.9391299,15.5785699,10.921718,14.8284302,10.171572C14.8284302,10.171572,13.4142098,11.58579,13.4142098,11.58579C13.4142098,11.58579,13.4142098,11.58579,13.4142098,11.58579Z" fill="#0A0A28" fill-opacity="1"/></g></svg>