<svg xmlns="http://www.w3.org/2000/svg" xmlns:xlink="http://www.w3.org/1999/xlink" fill="none" version="1.1" width="24" height="24" viewBox="0 0 24 24"><defs><clipPath id="master_svg0_3_1846"><rect x="0" y="0" width="24" height="24" rx="0"/></clipPath></defs><g clip-path="url(#master_svg0_3_1846)"><path d="M4.8000245140625,6.000006203515625C4.1635085140625,6.000006203515625,3.5530553140625,6.2528582035156255,3.1029676240625,6.702954103515625C2.6528812340625,7.1530383035156255,2.4000244140625004,7.763490203515625,2.4000244140625,8.400006303515624C2.4000244140625,8.400006303515624,2.4000244140625,18.000007103515625,2.4000244140625,18.000007103515625C2.4000244140625004,18.636487103515627,2.6528812340625,19.246926103515626,3.1029676240625,19.697046103515625C3.5530553140625,20.147167103515624,4.1635085140625,20.400007103515627,4.8000245140625,20.400007103515627C4.8000245140625,20.400007103515627,19.2000254140625,20.400007103515627,19.2000254140625,20.400007103515627C19.8365054140625,20.400007103515627,20.4469454140625,20.147167103515624,20.8970644140625,19.697046103515625C21.3471854140625,19.246926103515626,21.6000254140625,18.636487103515627,21.6000254140625,18.000007103515625C21.6000254140625,18.000007103515625,21.6000254140625,8.400006303515624,21.6000254140625,8.400006303515624C21.6000254140625,7.763490203515625,21.3471854140625,7.1530383035156255,20.8970644140625,6.702954103515625C20.4469454140625,6.2528582035156255,19.8365054140625,6.000006203515625,19.2000254140625,6.000006203515625C19.2000254140625,6.000006203515625,17.2968244140625,6.000006203515625,17.2968244140625,6.000006203515625C16.9785854140625,5.999934203515625,16.673424414062502,5.873466203515624,16.4484244140625,5.648406303515625C16.4484244140625,5.648406303515625,15.1032254140625,4.3032061435156255,15.1032254140625,4.3032061435156255C14.6532254140625,3.853087333515625,14.0428924140625,3.600142033525625,13.4064244140625,3.600006103515625C13.4064244140625,3.600006103515625,10.5936251140625,3.600006103515625,10.5936251140625,3.600006103515625C9.9571566140625,3.600142033525625,9.3468127140625,3.853087333515625,8.8968248140625,4.3032061435156255C8.8968248140625,4.3032061435156255,7.5516248140625,5.648406303515625,7.5516248140625,5.648406303515625C7.3266368140625,5.873466203515624,7.0214529140625,5.999934203515625,6.7032246140625,6.000006203515625C6.7032246140625,6.000006203515625,4.8000245140625,6.000006203515625,4.8000245140625,6.000006203515625C4.8000245140625,6.000006203515625,4.8000245140625,6.000006203515625,4.8000245140625,6.000006203515625ZM12.0000248140625,16.800007103515625C12.4727874140625,16.800007103515625,12.9409084140625,16.706887103515626,13.3776854140625,16.525926103515623C13.8144604140625,16.345087103515624,14.2113134140625,16.079887103515624,14.5455844140625,15.745566103515625C14.8799054140625,15.411295103515625,15.1451054140625,15.014442103515625,15.3259444140625,14.577667103515624C15.5069054140625,14.140890103515625,15.6000254140625,13.672769103515625,15.6000254140625,13.200006503515626C15.6000254140625,12.727242503515624,15.5069054140625,12.259122803515625,15.3259444140625,11.822346703515626C15.1451054140625,11.385570003515625,14.8799054140625,10.988718503515624,14.5455844140625,10.654422803515626C14.2113134140625,10.320126503515624,13.8144604140625,10.054962203515625,13.3776854140625,9.874038703515625C12.9409084140625,9.693126203515625,12.4727874140625,9.600006103515625,12.0000248140625,9.600006103515625C11.0452452140625,9.600006103515625,10.129572414062501,9.979290503515625,9.4544411140625,10.654422803515626C8.7793088140625,11.329554103515626,8.4000244140625,12.245226903515626,8.4000244140625,13.200006503515626C8.4000244140625,14.154786103515624,8.7793088140625,15.070458103515625,9.4544411140625,15.745566103515625C10.129572414062501,16.420687103515625,11.0452452140625,16.800007103515625,12.0000248140625,16.800007103515625C12.0000248140625,16.800007103515625,12.0000248140625,16.800007103515625,12.0000248140625,16.800007103515625C12.0000248140625,16.800007103515625,12.0000248140625,16.800007103515625,12.0000248140625,16.800007103515625Z" fill-rule="evenodd" fill="#0A0A28" fill-opacity="1"/></g></svg>