<svg xmlns="http://www.w3.org/2000/svg" xmlns:xlink="http://www.w3.org/1999/xlink" fill="none" version="1.1" width="24" height="24" viewBox="0 0 24 24"><defs><clipPath id="master_svg0_3_1512"><rect x="0" y="0" width="24" height="24" rx="0"/></clipPath></defs><g clip-path="url(#master_svg0_3_1512)"><path d="M16,9C16,9.5522799,16.447699999999998,10,17,10C17.552300000000002,10,18,9.5522799,18,9C18,9,16,9,16,9C16,9,16,9,16,9ZM15,5C15,5,15,4,15,4C15,4,15,5,15,5C15,5,15,5,15,5ZM5,5C5,5,5,4,5,4C5,4,5,5,5,5C5,5,5,5,5,5ZM3,7C3,7,2,7,2,7C2,7,3,7,3,7C3,7,3,7,3,7ZM3,13C3,13,2,13,2,13C2,13,3,13,3,13C3,13,3,13,3,13ZM7,16C7.5522799,16,8,15.5523,8,15C8,14.44771,7.5522799,14,7,14C7,14,7,16,7,16C7,16,7,16,7,16ZM7,11C7,11,6,11,6,11C6,11,7,11,7,11C7,11,7,11,7,11ZM7,17C7,17,6,17,6,17C6,17,7,17,7,17C7,17,7,17,7,17ZM16,14C16,14,15,14,15,14C15,14,16,14,16,14C16,14,16,14,16,14ZM14,12C14,12,14,13,14,13C14,13,14,12,14,12C14,12,14,12,14,12ZM18,9C18,9,18,7,18,7C18,7,16,7,16,7C16,7,16,9,16,9C16,9,18,9,18,9C18,9,18,9,18,9ZM18,7C18,6.20435,17.6839,5.44128799,17.121299999999998,4.87868C17.121299999999998,4.87868,15.7071,6.29289,15.7071,6.29289C15.8946,6.48043,16,6.73478,16,7C16,7,18,7,18,7C18,7,18,7,18,7ZM17.121299999999998,4.87868C16.5587,4.31607002,15.7956,4,15,4C15,4,15,6,15,6C15.2652,6,15.5196,6.10536,15.7071,6.29289C15.7071,6.29289,17.121299999999998,4.87868,17.121299999999998,4.87868C17.121299999999998,4.87868,17.121299999999998,4.87868,17.121299999999998,4.87868ZM15,4C15,4,5,4,5,4C5,4,5,6,5,6C5,6,15,6,15,6C15,6,15,4,15,4C15,4,15,4,15,4ZM5,4C4.20435,4,3.44128901,4.31607002,2.87868,4.87868C2.87868,4.87868,4.29289,6.29289,4.29289,6.29289C4.48043,6.10536,4.73478,6,5,6C5,6,5,4,5,4C5,4,5,4,5,4ZM2.87868,4.87868C2.3160700199999997,5.44128901,2,6.20435,2,7C2,7,4,7,4,7C4,6.73478,4.10536,6.48043,4.29289,6.29289C4.29289,6.29289,2.87868,4.87868,2.87868,4.87868C2.87868,4.87868,2.87868,4.87868,2.87868,4.87868ZM2,7C2,7,2,13,2,13C2,13,4,13,4,13C4,13,4,7,4,7C4,7,2,7,2,7C2,7,2,7,2,7ZM2,13C2,13.7956495,2.3160700199999997,14.5587101,2.87868,15.1213C2.87868,15.1213,4.29289,13.7071104,4.29289,13.7071104C4.10536,13.5195704,4,13.2652197,4,13C4,13,2,13,2,13C2,13,2,13,2,13ZM2.87868,15.1213C3.44128799,15.6839,4.20435,16,5,16C5,16,5,14,5,14C4.73478,14,4.48043,13.89464,4.29289,13.7071104C4.29289,13.7071104,2.87868,15.1213,2.87868,15.1213C2.87868,15.1213,2.87868,15.1213,2.87868,15.1213ZM5,16C5,16,7,16,7,16C7,16,7,14,7,14C7,14,5,14,5,14C5,14,5,16,5,16C5,16,5,16,5,16ZM9,20C9,20,19,20,19,20C19,20,19,18,19,18C19,18,9,18,9,18C9,18,9,20,9,20C9,20,9,20,9,20ZM19,20C19.7957,20,20.558701,19.6839,21.1213,19.121299999999998C21.1213,19.121299999999998,19.7071,17.7071,19.7071,17.7071C19.5196,17.8946,19.2652,18,19,18C19,18,19,20,19,20C19,20,19,20,19,20ZM21.1213,19.121299999999998C21.683901,18.5587,22,17.7957,22,17C22,17,20,17,20,17C20,17.2652,19.8946,17.5196,19.7071,17.7071C19.7071,17.7071,21.1213,19.121299999999998,21.1213,19.121299999999998C21.1213,19.121299999999998,21.1213,19.121299999999998,21.1213,19.121299999999998ZM22,17C22,17,22,11,22,11C22,11,20,11,20,11C20,11,20,17,20,17C20,17,22,17,22,17C22,17,22,17,22,17ZM22,11C22,10.20435,21.683901,9.441289900000001,21.1213,8.87868C21.1213,8.87868,19.7071,10.292890100000001,19.7071,10.292890100000001C19.8946,10.4804301,20,10.7347798,20,11C20,11,22,11,22,11C22,11,22,11,22,11ZM21.1213,8.87868C20.558701,8.316070100000001,19.7957,8,19,8C19,8,19,10,19,10C19.2652,10,19.5196,10.105360000000001,19.7071,10.292890100000001C19.7071,10.292890100000001,21.1213,8.87868,21.1213,8.87868C21.1213,8.87868,21.1213,8.87868,21.1213,8.87868ZM19,8C19,8,9,8,9,8C9,8,9,10,9,10C9,10,19,10,19,10C19,10,19,8,19,8C19,8,19,8,19,8ZM9,8C8.20435,8,7.4412899,8.316070100000001,6.87868,8.87868C6.87868,8.87868,8.292890100000001,10.292890100000001,8.292890100000001,10.292890100000001C8.4804301,10.105360000000001,8.7347798,10,9,10C9,10,9,8,9,8C9,8,9,8,9,8ZM6.87868,8.87868C6.3160701,9.441289900000001,6,10.20435,6,11C6,11,8,11,8,11C8,10.7347798,8.105360000000001,10.4804301,8.292890100000001,10.292890100000001C8.292890100000001,10.292890100000001,6.87868,8.87868,6.87868,8.87868C6.87868,8.87868,6.87868,8.87868,6.87868,8.87868ZM6,11C6,11,6,17,6,17C6,17,8,17,8,17C8,17,8,11,8,11C8,11,6,11,6,11C6,11,6,11,6,11ZM6,17C6,17.7956,6.3160701,18.5587,6.87868,19.121299999999998C6.87868,19.121299999999998,8.292890100000001,17.7071,8.292890100000001,17.7071C8.105360000000001,17.5196,8,17.2652,8,17C8,17,6,17,6,17C6,17,6,17,6,17ZM6.87868,19.121299999999998C7.4412899,19.6839,8.20435,20,9,20C9,20,9,18,9,18C8.7347798,18,8.4804301,17.8946,8.292890100000001,17.7071C8.292890100000001,17.7071,6.87868,19.121299999999998,6.87868,19.121299999999998C6.87868,19.121299999999998,6.87868,19.121299999999998,6.87868,19.121299999999998ZM15,14C15,14.2652197,14.8946,14.5195704,14.7071,14.7071104C14.7071,14.7071104,16.121299999999998,16.121299999999998,16.121299999999998,16.121299999999998C16.6839,15.5587,17,14.7956495,17,14C17,14,15,14,15,14C15,14,15,14,15,14ZM14.7071,14.7071104C14.5196,14.89464,14.2652,15,14,15C14,15,14,17,14,17C14.7957,17,15.5587,16.6839,16.121299999999998,16.121299999999998C16.121299999999998,16.121299999999998,14.7071,14.7071104,14.7071,14.7071104C14.7071,14.7071104,14.7071,14.7071104,14.7071,14.7071104ZM14,15C13.7348,15,13.4804,14.89464,13.2929,14.7071104C13.2929,14.7071104,11.8786802,16.121299999999998,11.8786802,16.121299999999998C12.4412899,16.6839,13.2043,17,14,17C14,17,14,15,14,15C14,15,14,15,14,15ZM13.2929,14.7071104C13.1054,14.5195704,13,14.2652197,13,14C13,14,11,14,11,14C11,14.7956495,11.3160696,15.5587,11.8786802,16.121299999999998C11.8786802,16.121299999999998,13.2929,14.7071104,13.2929,14.7071104C13.2929,14.7071104,13.2929,14.7071104,13.2929,14.7071104ZM13,14C13,13.7347803,13.1054,13.4804296,13.2929,13.2928896C13.2929,13.2928896,11.8786802,11.8786802,11.8786802,11.8786802C11.3160696,12.441289900000001,11,13.2043505,11,14C11,14,13,14,13,14C13,14,13,14,13,14ZM13.2929,13.2928896C13.4804,13.10536,13.7348,13,14,13C14,13,14,11,14,11C13.2043,11,12.4412899,11.316070100000001,11.8786802,11.8786802C11.8786802,11.8786802,13.2929,13.2928896,13.2929,13.2928896C13.2929,13.2928896,13.2929,13.2928896,13.2929,13.2928896ZM14,13C14.2652,13,14.5196,13.10536,14.7071,13.2928896C14.7071,13.2928896,16.121299999999998,11.8786802,16.121299999999998,11.8786802C15.5587,11.316070100000001,14.7957,11,14,11C14,11,14,13,14,13C14,13,14,13,14,13ZM14.7071,13.2928896C14.8946,13.4804296,15,13.7347803,15,14C15,14,17,14,17,14C17,13.2043505,16.6839,12.441289900000001,16.121299999999998,11.8786802C16.121299999999998,11.8786802,14.7071,13.2928896,14.7071,13.2928896C14.7071,13.2928896,14.7071,13.2928896,14.7071,13.2928896Z" fill="#0A0A28" fill-opacity="1"/></g></svg>