<svg xmlns="http://www.w3.org/2000/svg" xmlns:xlink="http://www.w3.org/1999/xlink" fill="none" version="1.1" width="24" height="24" viewBox="0 0 24 24"><defs><clipPath id="master_svg0_3_2145"><rect x="0" y="0" width="24" height="24" rx="0"/></clipPath></defs><g clip-path="url(#master_svg0_3_2145)"><path d="M4.8000245140625,4.79998779296875C4.1635085140625,4.799987792968751,3.5530553140625,5.05284461296875,3.1029676240625,5.50293100296875C2.6528812340625,5.95301869296875,2.4000244140625004,6.56347189296875,2.4000244140625,7.19998789296875C2.4000244140625,7.19998789296875,2.4000244140625,11.99998809296875,2.4000244140625,11.99998809296875C2.4000244140625004,12.63650369296875,2.6528812340625,13.24695679296875,3.1029676240625,13.69703959296875C3.5530553140625,14.14713569296875,4.1635085140625,14.39998819296875,4.8000245140625,14.39998819296875C4.8000245140625,14.39998819296875,4.8000245140625,7.19998789296875,4.8000245140625,7.19998789296875C4.8000245140625,7.19998789296875,16.8000254140625,7.19998789296875,16.8000254140625,7.19998789296875C16.8000254140625,6.56347189296875,16.5471854140625,5.95301869296875,16.0970654140625,5.50293100296875C15.6469454140625,5.05284461296875,15.0365054140625,4.799987792968752,14.4000244140625,4.79998779296875C14.4000244140625,4.79998779296875,4.8000245140625,4.79998779296875,4.8000245140625,4.79998779296875C4.8000245140625,4.79998779296875,4.8000245140625,4.79998779296875,4.8000245140625,4.79998779296875ZM7.2000246140625,11.99998809296875C7.2000246140625,11.36347249296875,7.4528766140625,10.75301979296875,7.9029727140625,10.30293609296875C8.3530564140625,9.85283999296875,8.9635091140625,9.59998799296875,9.6000247140625,9.59998799296875C9.6000247140625,9.59998799296875,19.2000254140625,9.59998799296875,19.2000254140625,9.59998799296875C19.8365054140625,9.59998799296875,20.4469454140625,9.85283999296875,20.8970644140625,10.30293609296875C21.3471854140625,10.75301979296875,21.6000254140625,11.36347249296875,21.6000254140625,11.99998809296875C21.6000254140625,11.99998809296875,21.6000254140625,16.79998779296875,21.6000254140625,16.79998779296875C21.6000254140625,17.43646879296875,21.3471854140625,18.04690879296875,20.8970644140625,18.49702879296875C20.4469454140625,18.94714879296875,19.8365054140625,19.19998879296875,19.2000254140625,19.19998879296875C19.2000254140625,19.19998879296875,9.6000247140625,19.19998879296875,9.6000247140625,19.19998879296875C8.9635091140625,19.19998879296875,8.3530564140625,18.94714879296875,7.9029727140625,18.49702879296875C7.4528766140625,18.04690879296875,7.2000246140625,17.43646879296875,7.2000246140625,16.79998779296875C7.2000246140625,16.79998779296875,7.2000246140625,11.99998809296875,7.2000246140625,11.99998809296875C7.2000246140625,11.99998809296875,7.2000246140625,11.99998809296875,7.2000246140625,11.99998809296875ZM14.4000244140625,16.79998779296875C15.0365054140625,16.79998779296875,15.6469454140625,16.54713679296875,16.0970654140625,16.09703979296875C16.5471854140625,15.64695579296875,16.8000254140625,15.03650379296875,16.8000254140625,14.39998819296875C16.8000254140625,13.76347259296875,16.5471854140625,13.15301989296875,16.0970654140625,12.70293619296875C15.6469454140625,12.252839992968749,15.0365054140625,11.99998809296875,14.4000244140625,11.99998809296875C13.7635084140625,11.99998809296875,13.1530574140625,12.252839992968749,12.7029724140625,12.70293619296875C12.2528763140625,13.15301989296875,12.0000248140625,13.76347259296875,12.0000248140625,14.39998819296875C12.0000248140625,15.03650379296875,12.2528763140625,15.64695579296875,12.7029724140625,16.09703979296875C13.1530574140625,16.54713679296875,13.7635084140625,16.79998779296875,14.4000244140625,16.79998779296875C14.4000244140625,16.79998779296875,14.4000244140625,16.79998779296875,14.4000244140625,16.79998779296875Z" fill-rule="evenodd" fill="#0A0A28" fill-opacity="1"/></g></svg>