<svg xmlns="http://www.w3.org/2000/svg" xmlns:xlink="http://www.w3.org/1999/xlink" fill="none" version="1.1" width="24" height="24" viewBox="0 0 24 24"><defs><clipPath id="master_svg0_3_1627"><rect x="0" y="0" width="24" height="24" rx="0"/></clipPath></defs><g clip-path="url(#master_svg0_3_1627)"><path d="M2.4000244140625,13.200006503515626C2.4000244140625,12.881742503515625,2.5264528240625,12.576522803515624,2.7514960140625,12.351474803515625C2.9765404440625,12.126438103515625,3.2817652840625,12.000006703515625,3.6000244140625,12.000006703515625C3.6000244140625,12.000006703515625,6.0000245140625,12.000006703515625,6.0000245140625,12.000006703515625C6.318288614062499,12.000006703515625,6.6235089140625,12.126438103515625,6.8485565140625,12.351474803515625C7.0735926140625,12.576522803515624,7.2000246140625,12.881742503515625,7.2000246140625,13.200006503515626C7.2000246140625,13.200006503515626,7.2000246140625,19.200006103515626,7.2000246140625,19.200006103515626C7.2000246140625,19.518247103515627,7.0735926140625,19.823526103515626,6.8485565140625,20.048527103515625C6.6235089140625,20.273527103515626,6.318288614062499,20.400007103515627,6.0000245140625,20.400007103515627C6.0000245140625,20.400007103515627,3.6000244140625,20.400007103515627,3.6000244140625,20.400007103515627C3.2817652840625,20.400007103515627,2.9765404440625,20.273527103515626,2.7514960140625,20.048527103515625C2.5264528240625,19.823526103515626,2.400024414062501,19.518247103515627,2.4000244140625,19.200006103515626C2.4000244140625,19.200006103515626,2.4000244140625,13.200006503515626,2.4000244140625,13.200006503515626C2.4000244140625,13.200006503515626,2.4000244140625,13.200006503515626,2.4000244140625,13.200006503515626ZM9.6000247140625,8.400006303515624C9.6000247140625,8.081742303515625,9.7264566140625,7.776522203515625,9.951492814062501,7.551474303515625C10.1765408140625,7.326438203515625,10.4817610140625,7.200006203515625,10.8000250140625,7.200006203515625C10.8000250140625,7.200006203515625,13.2000244140625,7.200006203515625,13.2000244140625,7.200006203515625C13.5182884140625,7.200006203515625,13.8235094140625,7.326438203515625,14.0485574140625,7.551474303515625C14.2735934140625,7.776522203515625,14.4000244140625,8.081742303515625,14.4000244140625,8.400006303515624C14.4000244140625,8.400006303515624,14.4000244140625,19.200006103515626,14.4000244140625,19.200006103515626C14.4000244140625,19.518247103515627,14.2735934140625,19.823526103515626,14.0485574140625,20.048527103515625C13.8235094140625,20.273527103515626,13.5182884140625,20.400007103515627,13.2000244140625,20.400007103515627C13.2000244140625,20.400007103515627,10.8000250140625,20.400007103515627,10.8000250140625,20.400007103515627C10.4817610140625,20.400007103515627,10.1765408140625,20.273527103515626,9.951492814062501,20.048527103515625C9.7264566140625,19.823526103515626,9.6000247140625,19.518247103515627,9.6000247140625,19.200006103515626C9.6000247140625,19.200006103515626,9.6000247140625,8.400006303515624,9.6000247140625,8.400006303515624C9.6000247140625,8.400006303515624,9.6000247140625,8.400006303515624,9.6000247140625,8.400006303515624ZM16.8000254140625,4.800006103515625C16.8000254140625,4.481746973515625,16.9265054140625,4.176522133515625,17.1515054140625,3.951477703515625C17.376504414062502,3.726434513515625,17.6817854140625,3.6000061035156254,18.0000244140625,3.600006103515625C18.0000244140625,3.600006103515625,20.4000244140625,3.600006103515625,20.4000244140625,3.600006103515625C20.7182654140625,3.6000061035156254,21.0235444140625,3.726434513515625,21.2485444140625,3.951477703515625C21.4735454140625,4.176522133515625,21.6000254140625,4.481746973515625,21.6000254140625,4.800006103515625C21.6000254140625,4.800006103515625,21.6000254140625,19.200006103515626,21.6000254140625,19.200006103515626C21.6000254140625,19.518247103515627,21.4735454140625,19.823526103515626,21.2485444140625,20.048527103515625C21.0235444140625,20.273527103515626,20.7182654140625,20.400007103515627,20.4000244140625,20.400007103515627C20.4000244140625,20.400007103515627,18.0000244140625,20.400007103515627,18.0000244140625,20.400007103515627C17.6817854140625,20.400007103515627,17.376504414062502,20.273527103515626,17.1515054140625,20.048527103515625C16.9265054140625,19.823526103515626,16.8000254140625,19.518247103515627,16.8000254140625,19.200006103515626C16.8000254140625,19.200006103515626,16.8000254140625,4.800006103515625,16.8000254140625,4.800006103515625C16.8000254140625,4.800006103515625,16.8000254140625,4.800006103515625,16.8000254140625,4.800006103515625Z" fill="#0A0A28" fill-opacity="1"/></g></svg>