<svg xmlns="http://www.w3.org/2000/svg" xmlns:xlink="http://www.w3.org/1999/xlink" fill="none" version="1.1" width="24" height="24" viewBox="0 0 24 24"><defs><clipPath id="master_svg0_3_2049"><rect x="0" y="0" width="24" height="24" rx="0"/></clipPath></defs><g clip-path="url(#master_svg0_3_2049)"><path d="M17,8C17,7.4477201,16.552300000000002,7,16,7C15.4477,7,15,7.4477201,15,8C15,8,17,8,17,8C17,8,17,8,17,8ZM15,16C15,16.552300000000002,15.4477,17,16,17C16.552300000000002,17,17,16.552300000000002,17,16C17,16,15,16,15,16C15,16,15,16,15,16ZM13,11C13,10.4477201,12.55229,10,12,10C11.4477201,10,11,10.4477201,11,11C11,11,13,11,13,11C13,11,13,11,13,11ZM11,16C11,16.552300000000002,11.4477201,17,12,17C12.55229,17,13,16.552300000000002,13,16C13,16,11,16,11,16C11,16,11,16,11,16ZM9,14C9,13.44771,8.5522799,13,8,13C7.4477201,13,7,13.44771,7,14C7,14,9,14,9,14C9,14,9,14,9,14ZM7,16C7,16.552300000000002,7.4477201,17,8,17C8.5522799,17,9,16.552300000000002,9,16C9,16,7,16,7,16C7,16,7,16,7,16ZM18,4C18,4,18,3,18,3C18,3,18,4,18,4C18,4,18,4,18,4ZM6,4C6,4,6,3,6,3C6,3,6,4,6,4C6,4,6,4,6,4ZM4,6C4,6,3,6,3,6C3,6,4,6,4,6C4,6,4,6,4,6ZM4,18C4,18,3,18,3,18C3,18,4,18,4,18C4,18,4,18,4,18ZM15,8C15,8,15,16,15,16C15,16,17,16,17,16C17,16,17,8,17,8C17,8,15,8,15,8C15,8,15,8,15,8ZM11,11C11,11,11,16,11,16C11,16,13,16,13,16C13,16,13,11,13,11C13,11,11,11,11,11C11,11,11,11,11,11ZM7,14C7,14,7,16,7,16C7,16,9,16,9,16C9,16,9,14,9,14C9,14,7,14,7,14C7,14,7,14,7,14ZM6,21C6,21,18,21,18,21C18,21,18,19,18,19C18,19,6,19,6,19C6,19,6,21,6,21C6,21,6,21,6,21ZM18,21C18.7957,21,19.5587,20.683901,20.1213,20.1213C20.1213,20.1213,18.7071,18.7071,18.7071,18.7071C18.5196,18.8946,18.2652,19,18,19C18,19,18,21,18,21C18,21,18,21,18,21ZM20.1213,20.1213C20.683901,19.5587,21,18.7957,21,18C21,18,19,18,19,18C19,18.2652,18.8946,18.5196,18.7071,18.7071C18.7071,18.7071,20.1213,20.1213,20.1213,20.1213C20.1213,20.1213,20.1213,20.1213,20.1213,20.1213ZM21,18C21,18,21,6,21,6C21,6,19,6,19,6C19,6,19,18,19,18C19,18,21,18,21,18C21,18,21,18,21,18ZM21,6C21,5.20435,20.683901,4.44128799,20.1213,3.87868C20.1213,3.87868,18.7071,5.29289,18.7071,5.29289C18.8946,5.48043,19,5.73478,19,6C19,6,21,6,21,6C21,6,21,6,21,6ZM20.1213,3.87868C19.5587,3.3160700199999997,18.7956,3,18,3C18,3,18,5,18,5C18.2652,5,18.5196,5.10536,18.7071,5.29289C18.7071,5.29289,20.1213,3.87868,20.1213,3.87868C20.1213,3.87868,20.1213,3.87868,20.1213,3.87868ZM18,3C18,3,6,3,6,3C6,3,6,5,6,5C6,5,18,5,18,5C18,5,18,3,18,3C18,3,18,3,18,3ZM6,3C5.20435,3,4.44128901,3.3160700199999997,3.87868,3.87868C3.87868,3.87868,5.29289,5.29289,5.29289,5.29289C5.48043,5.10536,5.73478,5,6,5C6,5,6,3,6,3C6,3,6,3,6,3ZM3.87868,3.87868C3.3160700199999997,4.44128901,3,5.20435,3,6C3,6,5,6,5,6C5,5.73478,5.10536,5.48043,5.29289,5.29289C5.29289,5.29289,3.87868,3.87868,3.87868,3.87868C3.87868,3.87868,3.87868,3.87868,3.87868,3.87868ZM3,6C3,6,3,18,3,18C3,18,5,18,5,18C5,18,5,6,5,6C5,6,3,6,3,6C3,6,3,6,3,6ZM3,18C3,18.7956,3.3160700199999997,19.5587,3.87868,20.1213C3.87868,20.1213,5.29289,18.7071,5.29289,18.7071C5.10536,18.5196,5,18.2652,5,18C5,18,3,18,3,18C3,18,3,18,3,18ZM3.87868,20.1213C4.44128799,20.683901,5.20435,21,6,21C6,21,6,19,6,19C5.73478,19,5.48043,18.8946,5.29289,18.7071C5.29289,18.7071,3.87868,20.1213,3.87868,20.1213C3.87868,20.1213,3.87868,20.1213,3.87868,20.1213Z" fill="#0A0A28" fill-opacity="1"/></g></svg>