<svg xmlns="http://www.w3.org/2000/svg" xmlns:xlink="http://www.w3.org/1999/xlink" fill="none" version="1.1" width="24" height="24" viewBox="0 0 24 24"><defs><clipPath id="master_svg0_3_2053"><rect x="0" y="0" width="24" height="24" rx="0"/></clipPath></defs><g clip-path="url(#master_svg0_3_2053)"><path d="M2.4000244140625,11.999994296484376C2.4000244140625004,9.453918496484375,3.4114504140625,7.012122196484375,5.211804414062501,5.211773896484376C7.0121527140625,3.411419896484375,9.4539490140625,2.3999938964843777,12.0000248140625,2.399993896484375C12.0000248140625,2.399993896484375,12.0000248140625,11.999994296484376,12.0000248140625,11.999994296484376C12.0000248140625,11.999994296484376,21.6000254140625,11.999994296484376,21.6000254140625,11.999994296484376C21.6000254140625,14.546034896484375,20.5885444140625,16.987913896484375,18.7883054140625,18.788274896484374C16.9879444140625,20.588513896484375,14.5460654140625,21.599994896484375,12.0000248140625,21.599994896484375C9.4539490140625,21.599994896484375,7.0121527140625,20.588513896484375,5.211804414062501,18.788274896484374C3.4114504140625,16.987913896484375,2.4000244140625018,14.546034896484375,2.4000244140625,11.999994296484376C2.4000244140625,11.999994296484376,2.4000244140625,11.999994296484376,2.4000244140625,11.999994296484376C2.4000244140625,11.999994296484376,2.4000244140625,11.999994296484376,2.4000244140625,11.999994296484376Z" fill="#0A0A28" fill-opacity="1"/><path d="M14.4000244140625,2.702423095703125C16.0603806140625,3.132578705703125,17.5754764140625,3.998963195703125,18.7882805140625,5.211767195703125C20.0010848140625,6.4245712957031245,20.8674731140625,7.939667195703125,21.297625114062498,9.600023795703125C21.297625114062498,9.600023795703125,14.4000244140625,9.600023795703125,14.4000244140625,9.600023795703125C14.4000244140625,9.600023795703125,14.4000244140625,2.702423095703125,14.4000244140625,2.702423095703125C14.4000244140625,2.702423095703125,14.4000244140625,2.702423095703125,14.4000244140625,2.702423095703125Z" fill="#0A0A28" fill-opacity="1"/></g></svg>