<svg xmlns="http://www.w3.org/2000/svg" xmlns:xlink="http://www.w3.org/1999/xlink" fill="none" version="1.1" width="24" height="24" viewBox="0 0 24 24"><defs><clipPath id="master_svg0_3_2093"><rect x="0" y="0" width="24" height="24" rx="0"/></clipPath></defs><g clip-path="url(#master_svg0_3_2093)"><path d="M3,13C3,13,2,13,2,13C2,13,3,13,3,13C3,13,3,13,3,13ZM3,19C3,19,2,19,2,19C2,19,3,19,3,19C3,19,3,19,3,19ZM11,7C11,7,11,6,11,6C11,6,11,7,11,7C11,7,11,7,11,7ZM13,7C13,7,13,6,13,6C13,6,13,7,13,7C13,7,13,7,13,7ZM17,3C17,3,17,2,17,2C17,2,17,3,17,3C17,3,17,3,17,3ZM19,3C19,3,19,2,19,2C19,2,19,3,19,3C19,3,19,3,19,3ZM10,19C10,19,10,13,10,13C10,13,8,13,8,13C8,13,8,19,8,19C8,19,10,19,10,19C10,19,10,19,10,19ZM10,13C10,12.2043505,9.683929899999999,11.4412899,9.1213198,10.8786802C9.1213198,10.8786802,7.7071099,12.2928896,7.7071099,12.2928896C7.89464,12.4804296,8,12.7347803,8,13C8,13,10,13,10,13C10,13,10,13,10,13ZM9.1213198,10.8786802C8.558710099999999,10.316070100000001,7.79565,10,7,10C7,10,7,12,7,12C7.2652202,12,7.5195699,12.10536,7.7071099,12.2928896C7.7071099,12.2928896,9.1213198,10.8786802,9.1213198,10.8786802C9.1213198,10.8786802,9.1213198,10.8786802,9.1213198,10.8786802ZM7,10C7,10,5,10,5,10C5,10,5,12,5,12C5,12,7,12,7,12C7,12,7,10,7,10C7,10,7,10,7,10ZM5,10C4.20435,10,3.44128799,10.316070100000001,2.87868,10.8786802C2.87868,10.8786802,4.29289,12.2928896,4.29289,12.2928896C4.48043,12.10536,4.73478,12,5,12C5,12,5,10,5,10C5,10,5,10,5,10ZM2.87868,10.8786802C2.3160700199999997,11.4412899,2,12.2043505,2,13C2,13,4,13,4,13C4,12.7347803,4.10536,12.4804296,4.29289,12.2928896C4.29289,12.2928896,2.87868,10.8786802,2.87868,10.8786802C2.87868,10.8786802,2.87868,10.8786802,2.87868,10.8786802ZM2,13C2,13,2,19,2,19C2,19,4,19,4,19C4,19,4,13,4,13C4,13,2,13,2,13C2,13,2,13,2,13ZM2,19C2,19.7957,2.3160700199999997,20.558701,2.87868,21.1213C2.87868,21.1213,4.29289,19.7071,4.29289,19.7071C4.10536,19.5196,4,19.2652,4,19C4,19,2,19,2,19C2,19,2,19,2,19ZM2.87868,21.1213C3.44128799,21.683901,4.20435,22,5,22C5,22,5,20,5,20C4.73478,20,4.48043,19.8946,4.29289,19.7071C4.29289,19.7071,2.87868,21.1213,2.87868,21.1213C2.87868,21.1213,2.87868,21.1213,2.87868,21.1213ZM5,22C5,22,7,22,7,22C7,22,7,20,7,20C7,20,5,20,5,20C5,20,5,22,5,22C5,22,5,22,5,22ZM7,22C7.79565,22,8.558710099999999,21.683901,9.1213198,21.1213C9.1213198,21.1213,7.7071099,19.7071,7.7071099,19.7071C7.5195699,19.8946,7.2652202,20,7,20C7,20,7,22,7,22C7,22,7,22,7,22ZM9.1213198,21.1213C9.683929899999999,20.558701,10,19.7957,10,19C10,19,8,19,8,19C8,19.2652,7.89464,19.5196,7.7071099,19.7071C7.7071099,19.7071,9.1213198,21.1213,9.1213198,21.1213C9.1213198,21.1213,9.1213198,21.1213,9.1213198,21.1213ZM10,19C10,19,10,9,10,9C10,9,8,9,8,9C8,9,8,19,8,19C8,19,10,19,10,19C10,19,10,19,10,19ZM10,9C10,8.7347798,10.105360000000001,8.4804301,10.292890100000001,8.292890100000001C10.292890100000001,8.292890100000001,8.8786802,6.87868,8.8786802,6.87868C8.316070100000001,7.4412899,8,8.20435,8,9C8,9,10,9,10,9C10,9,10,9,10,9ZM10.292890100000001,8.292890100000001C10.4804301,8.105360000000001,10.7347798,8,11,8C11,8,11,6,11,6C10.20435,6,9.441289900000001,6.3160701,8.8786802,6.87868C8.8786802,6.87868,10.292890100000001,8.292890100000001,10.292890100000001,8.292890100000001C10.292890100000001,8.292890100000001,10.292890100000001,8.292890100000001,10.292890100000001,8.292890100000001ZM11,8C11,8,13,8,13,8C13,8,13,6,13,6C13,6,11,6,11,6C11,6,11,8,11,8C11,8,11,8,11,8ZM13,8C13.2652,8,13.5196,8.105360000000001,13.7071,8.292890100000001C13.7071,8.292890100000001,15.1213,6.87868,15.1213,6.87868C14.5587,6.3160701,13.7956,6,13,6C13,6,13,8,13,8C13,8,13,8,13,8ZM13.7071,8.292890100000001C13.8946,8.4804301,14,8.7347798,14,9C14,9,16,9,16,9C16,8.20435,15.6839,7.4412899,15.1213,6.87868C15.1213,6.87868,13.7071,8.292890100000001,13.7071,8.292890100000001C13.7071,8.292890100000001,13.7071,8.292890100000001,13.7071,8.292890100000001ZM14,9C14,9,14,19,14,19C14,19,16,19,16,19C16,19,16,9,16,9C16,9,14,9,14,9C14,9,14,9,14,9ZM8,19C8,19.7957,8.316070100000001,20.558701,8.8786802,21.1213C8.8786802,21.1213,10.292890100000001,19.7071,10.292890100000001,19.7071C10.105360000000001,19.5196,10,19.2652,10,19C10,19,8,19,8,19C8,19,8,19,8,19ZM8.8786802,21.1213C9.441289900000001,21.683901,10.20435,22,11,22C11,22,11,20,11,20C10.7347798,20,10.4804301,19.8946,10.292890100000001,19.7071C10.292890100000001,19.7071,8.8786802,21.1213,8.8786802,21.1213C8.8786802,21.1213,8.8786802,21.1213,8.8786802,21.1213ZM11,22C11,22,13,22,13,22C13,22,13,20,13,20C13,20,11,20,11,20C11,20,11,22,11,22C11,22,11,22,11,22ZM13,22C13.7957,22,14.5587,21.683901,15.1213,21.1213C15.1213,21.1213,13.7071,19.7071,13.7071,19.7071C13.5196,19.8946,13.2652,20,13,20C13,20,13,22,13,22C13,22,13,22,13,22ZM15.1213,21.1213C15.6839,20.558701,16,19.7957,16,19C16,19,14,19,14,19C14,19.2652,13.8946,19.5196,13.7071,19.7071C13.7071,19.7071,15.1213,21.1213,15.1213,21.1213C15.1213,21.1213,15.1213,21.1213,15.1213,21.1213ZM16,19C16,19,16,5,16,5C16,5,14,5,14,5C14,5,14,19,14,19C14,19,16,19,16,19C16,19,16,19,16,19ZM16,5C16,4.73478,16.1054,4.48043,16.2929,4.29289C16.2929,4.29289,14.8787,2.87868,14.8787,2.87868C14.3161,3.44128799,14,4.20435,14,5C14,5,16,5,16,5C16,5,16,5,16,5ZM16.2929,4.29289C16.4804,4.10536,16.7348,4,17,4C17,4,17,2,17,2C16.2044,2,15.4413,2.3160700199999997,14.8787,2.87868C14.8787,2.87868,16.2929,4.29289,16.2929,4.29289C16.2929,4.29289,16.2929,4.29289,16.2929,4.29289ZM17,4C17,4,19,4,19,4C19,4,19,2,19,2C19,2,17,2,17,2C17,2,17,4,17,4C17,4,17,4,17,4ZM19,4C19.2652,4,19.5196,4.10536,19.7071,4.29289C19.7071,4.29289,21.1213,2.87868,21.1213,2.87868C20.558701,2.3160700199999997,19.7957,2,19,2C19,2,19,4,19,4C19,4,19,4,19,4ZM19.7071,4.29289C19.8946,4.48043,20,4.73478,20,5C20,5,22,5,22,5C22,4.20435,21.683901,3.44128799,21.1213,2.87868C21.1213,2.87868,19.7071,4.29289,19.7071,4.29289C19.7071,4.29289,19.7071,4.29289,19.7071,4.29289ZM20,5C20,5,20,19,20,19C20,19,22,19,22,19C22,19,22,5,22,5C22,5,20,5,20,5C20,5,20,5,20,5ZM20,19C20,19.2652,19.8946,19.5196,19.7071,19.7071C19.7071,19.7071,21.1213,21.1213,21.1213,21.1213C21.683901,20.558701,22,19.7957,22,19C22,19,20,19,20,19C20,19,20,19,20,19ZM19.7071,19.7071C19.5196,19.8946,19.2652,20,19,20C19,20,19,22,19,22C19.7957,22,20.558701,21.683901,21.1213,21.1213C21.1213,21.1213,19.7071,19.7071,19.7071,19.7071C19.7071,19.7071,19.7071,19.7071,19.7071,19.7071ZM19,20C19,20,17,20,17,20C17,20,17,22,17,22C17,22,19,22,19,22C19,22,19,20,19,20C19,20,19,20,19,20ZM17,20C16.7348,20,16.4804,19.8946,16.2929,19.7071C16.2929,19.7071,14.8787,21.1213,14.8787,21.1213C15.4413,21.683901,16.2043,22,17,22C17,22,17,20,17,20C17,20,17,20,17,20ZM16.2929,19.7071C16.1054,19.5196,16,19.2652,16,19C16,19,14,19,14,19C14,19.7957,14.3161,20.558701,14.8787,21.1213C14.8787,21.1213,16.2929,19.7071,16.2929,19.7071C16.2929,19.7071,16.2929,19.7071,16.2929,19.7071Z" fill="#0A0A28" fill-opacity="1"/></g></svg>