<svg xmlns="http://www.w3.org/2000/svg" xmlns:xlink="http://www.w3.org/1999/xlink" fill="none" version="1.1" width="24" height="24" viewBox="0 0 24 24"><defs><clipPath id="master_svg0_3_1563"><rect x="0" y="0" width="24" height="24" rx="0"/></clipPath></defs><g clip-path="url(#master_svg0_3_1563)"><path d="M10.999995898373413,3.055000066757202C10.999995898373413,3.055000066757202,11.999995898373413,3.055000066757202,11.999995898373413,3.055000066757202C11.999995898373413,2.770446066757202,11.878775398373413,2.499368066757202,11.666685798373413,2.3096600767572024C11.454595298373413,2.119952086757202,11.171725998373413,2.029580066757202,10.888935798373414,2.061187086757202C10.888935798373414,2.061187086757202,10.999995898373413,3.055000066757202,10.999995898373413,3.055000066757202C10.999995898373413,3.055000066757202,10.999995898373413,3.055000066757202,10.999995898373413,3.055000066757202ZM20.94498659837341,12.999999766757202C20.94498659837341,12.999999766757202,21.938785598373414,13.111100066757203,21.938785598373414,13.111100066757203C21.970386598373413,12.828269766757202,21.88008459837341,12.545409966757202,21.690385598373414,12.333320366757203C21.500585598373412,12.121229866757202,21.22958559837341,11.999999766757202,20.94498659837341,11.999999766757202C20.94498659837341,11.999999766757202,20.94498659837341,12.999999766757202,20.94498659837341,12.999999766757202C20.94498659837341,12.999999766757202,20.94498659837341,12.999999766757202,20.94498659837341,12.999999766757202ZM10.999995898373413,12.999999766757202C10.999995898373413,12.999999766757202,9.999995498373412,12.999999766757202,9.999995498373412,12.999999766757202C9.999995498373412,13.552300066757201,10.447715498373412,14.000000066757202,10.999995898373413,14.000000066757202C10.999995898373413,14.000000066757202,10.999995898373413,12.999999766757202,10.999995898373413,12.999999766757202C10.999995898373413,12.999999766757202,10.999995898373413,12.999999766757202,10.999995898373413,12.999999766757202ZM10.888935798373414,2.061187086757202C9.017275598373413,2.270355046757202,7.2427155983734135,3.003755565757202,5.769485698373414,4.176980066757202C5.769485698373414,4.176980066757202,7.015395398373413,5.7414901667572025,7.015395398373413,5.7414901667572025C8.194015698373413,4.802890066757202,9.613695398373412,4.216150066757202,11.111065598373413,4.048813046757202C11.111065598373413,4.048813046757202,10.888935798373414,2.061187086757202,10.888935798373414,2.061187086757202C10.888935798373414,2.061187086757202,10.888935798373414,2.061187086757202,10.888935798373414,2.061187086757202ZM5.769485698373414,4.176980066757202C4.296245598373413,5.350209966757202,3.184231598373413,6.915570066757202,2.561407598373413,8.692919966757202C2.561407598373413,8.692919966757202,4.448875498373413,9.354330266757202,4.448875498373413,9.354330266757202C4.947145598373413,7.932419966757202,5.836785598373413,6.680089966757202,7.015395398373413,5.7414901667572025C7.015395398373413,5.7414901667572025,5.769485698373414,4.176980066757202,5.769485698373414,4.176980066757202C5.769485698373414,4.176980066757202,5.769485698373414,4.176980066757202,5.769485698373414,4.176980066757202ZM2.561407598373413,8.692919966757202C1.938585598373413,10.470259866757203,1.830265598373413,12.387349866757202,2.2489286083734132,14.223500066757202C2.2489286083734132,14.223500066757202,4.198885598373413,13.778900066757203,4.198885598373413,13.778900066757203C3.863948588373413,12.309949666757202,3.950602588373413,10.776240066757202,4.448875498373413,9.354330266757202C4.448875498373413,9.354330266757202,2.561407598373413,8.692919966757202,2.561407598373413,8.692919966757202C2.561407598373413,8.692919966757202,2.561407598373413,8.692919966757202,2.561407598373413,8.692919966757202ZM2.2489286083734132,14.223500066757202C2.667589608373413,16.059700066757202,3.596209588373413,17.740400066757203,4.9279155983734135,19.072099066757204C4.9279155983734135,19.072099066757204,6.342125698373414,17.6579000667572,6.342125698373414,17.6579000667572C5.276735498373413,16.592500066757204,4.533825598373413,15.247900066757202,4.198885598373413,13.778900066757203C4.198885598373413,13.778900066757203,2.2489286083734132,14.223500066757202,2.2489286083734132,14.223500066757202C2.2489286083734132,14.223500066757202,2.2489286083734132,14.223500066757202,2.2489286083734132,14.223500066757202ZM4.9279155983734135,19.072099066757204C6.259615698373413,20.403801066757204,7.940275398373413,21.3323990667572,9.776465698373414,21.751100066757203C9.776465698373414,21.751100066757203,10.221065798373413,19.801099066757203,10.221065798373413,19.801099066757203C8.752075398373414,19.466200066757203,7.407515798373413,18.723300066757204,6.342125698373414,17.6579000667572C6.342125698373414,17.6579000667572,4.9279155983734135,19.072099066757204,4.9279155983734135,19.072099066757204C4.9279155983734135,19.072099066757204,4.9279155983734135,19.072099066757204,4.9279155983734135,19.072099066757204ZM9.776465698373414,21.751100066757203C11.612655398373413,22.1697000667572,13.529785598373413,22.0613990667572,15.307085598373414,21.438600066757203C15.307085598373414,21.438600066757203,14.645685598373413,19.551099066757203,14.645685598373413,19.551099066757203C13.223785598373412,20.0494000667572,11.690055598373412,20.1361000667572,10.221065798373413,19.801099066757203C10.221065798373413,19.801099066757203,9.776465698373414,21.751100066757203,9.776465698373414,21.751100066757203C9.776465698373414,21.751100066757203,9.776465698373414,21.751100066757203,9.776465698373414,21.751100066757203ZM15.307085598373414,21.438600066757203C17.084385598373412,20.8157990667572,18.649785598373413,19.703800066757204,19.82298659837341,18.2305000667572C19.82298659837341,18.2305000667572,18.25848559837341,16.984600066757203,18.25848559837341,16.984600066757203C17.31988559837341,18.163200066757202,16.067585598373412,19.052900066757203,14.645685598373413,19.551099066757203C14.645685598373413,19.551099066757203,15.307085598373414,21.438600066757203,15.307085598373414,21.438600066757203C15.307085598373414,21.438600066757203,15.307085598373414,21.438600066757203,15.307085598373414,21.438600066757203ZM19.82298659837341,18.2305000667572C20.996286598373413,16.757300066757203,21.729686598373412,14.982700066757202,21.938785598373414,13.111100066757203C21.938785598373414,13.111100066757203,19.951184598373413,12.888939666757203,19.951184598373413,12.888939666757203C19.783885598373413,14.386300066757203,19.197085598373413,15.806000066757202,18.25848559837341,16.984600066757203C18.25848559837341,16.984600066757203,19.82298659837341,18.2305000667572,19.82298659837341,18.2305000667572C19.82298659837341,18.2305000667572,19.82298659837341,18.2305000667572,19.82298659837341,18.2305000667572ZM20.94498659837341,11.999999766757202C20.94498659837341,11.999999766757202,10.999995898373413,11.999999766757202,10.999995898373413,11.999999766757202C10.999995898373413,11.999999766757202,10.999995898373413,14.000000066757202,10.999995898373413,14.000000066757202C10.999995898373413,14.000000066757202,20.94498659837341,14.000000066757202,20.94498659837341,14.000000066757202C20.94498659837341,14.000000066757202,20.94498659837341,11.999999766757202,20.94498659837341,11.999999766757202C20.94498659837341,11.999999766757202,20.94498659837341,11.999999766757202,20.94498659837341,11.999999766757202ZM11.999995898373413,12.999999766757202C11.999995898373413,12.999999766757202,11.999995898373413,3.055000066757202,11.999995898373413,3.055000066757202C11.999995898373413,3.055000066757202,9.999995498373412,3.055000066757202,9.999995498373412,3.055000066757202C9.999995498373412,3.055000066757202,9.999995498373412,12.999999766757202,9.999995498373412,12.999999766757202C9.999995498373412,12.999999766757202,11.999995898373413,12.999999766757202,11.999995898373413,12.999999766757202C11.999995898373413,12.999999766757202,11.999995898373413,12.999999766757202,11.999995898373413,12.999999766757202Z" fill="#0A0A28" fill-opacity="1"/><path d="M20.4879999,8.99999998392334C20.4879999,8.99999998392334,20.4879999,9.99999998392334,20.4879999,9.99999998392334C20.812829999999998,9.99999998392334,21.117420199999998,9.842230283923339,21.30481,9.57690998392334C21.4922099,9.31158018392334,21.5390601,8.971770283923341,21.43045,8.66563988392334C21.43045,8.66563988392334,20.4879999,8.99999998392334,20.4879999,8.99999998392334C20.4879999,8.99999998392334,20.4879999,8.99999998392334,20.4879999,8.99999998392334ZM15,8.99999998392334C15,8.99999998392334,14,8.99999998392334,14,8.99999998392334C14,9.55227998392334,14.44771498,9.99999998392334,15,9.99999998392334C15,9.99999998392334,15,8.99999998392334,15,8.99999998392334C15,8.99999998392334,15,8.99999998392334,15,8.99999998392334ZM15,3.51200008392334C15,3.51200008392334,15.33435801,2.56955409392334,15.33435801,2.56955409392334C15.028225999,2.46095018392334,14.68841499,2.50780008392334,14.42309302,2.6951900739233396C14.157772,2.88258409392334,14,3.18717309392334,14,3.51200008392334C14,3.51200008392334,15,3.51200008392334,15,3.51200008392334C15,3.51200008392334,15,3.51200008392334,15,3.51200008392334ZM20.4879999,7.99999998392334C20.4879999,7.99999998392334,15,7.99999998392334,15,7.99999998392334C15,7.99999998392334,15,9.99999998392334,15,9.99999998392334C15,9.99999998392334,20.4879999,9.99999998392334,20.4879999,9.99999998392334C20.4879999,9.99999998392334,20.4879999,7.99999998392334,20.4879999,7.99999998392334C20.4879999,7.99999998392334,20.4879999,7.99999998392334,20.4879999,7.99999998392334ZM16,8.99999998392334C16,8.99999998392334,16,3.51200008392334,16,3.51200008392334C16,3.51200008392334,14,3.51200008392334,14,3.51200008392334C14,3.51200008392334,14,8.99999998392334,14,8.99999998392334C14,8.99999998392334,16,8.99999998392334,16,8.99999998392334C16,8.99999998392334,16,8.99999998392334,16,8.99999998392334ZM14.66564199,4.454446073923339C15.79081702,4.85363008392334,16.81275,5.49884008392334,17.656950000000002,6.34304998392334C17.656950000000002,6.34304998392334,19.0711699,4.92882998392334,19.0711699,4.92882998392334C18.0165701,3.87423208392334,16.7399499,3.06822508392334,15.33435801,2.56955409392334C15.33435801,2.56955409392334,14.66564199,4.454446073923339,14.66564199,4.454446073923339C14.66564199,4.454446073923339,14.66564199,4.454446073923339,14.66564199,4.454446073923339ZM17.656950000000002,6.34304998392334C18.5011599,7.187250183923339,19.1463699,8.20917988392334,19.5455499,9.33436008392334C19.5455499,9.33436008392334,21.43045,8.66563988392334,21.43045,8.66563988392334C20.931779900000002,7.26005008392334,20.1257701,5.98343018392334,19.0711699,4.92882998392334C19.0711699,4.92882998392334,17.656950000000002,6.34304998392334,17.656950000000002,6.34304998392334C17.656950000000002,6.34304998392334,17.656950000000002,6.34304998392334,17.656950000000002,6.34304998392334Z" fill="#0A0A28" fill-opacity="1"/></g></svg>