<svg xmlns="http://www.w3.org/2000/svg" xmlns:xlink="http://www.w3.org/1999/xlink" fill="none" version="1.1" width="24" height="24" viewBox="0 0 24 24"><defs><clipPath id="master_svg0_3_1759"><rect x="0" y="0" width="24" height="24" rx="0"/></clipPath></defs><g clip-path="url(#master_svg0_3_1759)"><path d="M5.9999756859375,3.600006103515625C5.3634596859375,3.6000061035156254,4.7530064859375,3.852862923515625,4.3029187959375,4.302949313515625C3.8528324059375,4.753037003515625,3.5999755859375004,5.363490203515625,3.5999755859375,6.000006203515625C3.5999755859375,6.000006203515625,3.5999755859375,18.000007103515625,3.5999755859375,18.000007103515625C3.5999755859375004,18.636487103515627,3.8528324059375,19.246926103515626,4.3029187959375,19.697046103515625C4.7530064859375,20.147167103515624,5.3634596859375,20.400007103515627,5.9999756859375,20.400007103515627C5.9999756859375,20.400007103515627,17.9999765859375,20.400007103515627,17.9999765859375,20.400007103515627C18.636456585937502,20.400007103515627,19.2468955859375,20.147167103515624,19.6970155859375,19.697046103515625C20.1471365859375,19.246926103515626,20.3999765859375,18.636487103515627,20.3999765859375,18.000007103515625C20.3999765859375,18.000007103515625,20.3999765859375,6.000006203515625,20.3999765859375,6.000006203515625C20.3999765859375,5.363490203515625,20.1471365859375,4.753037003515625,19.6970155859375,4.302949313515625C19.2468955859375,3.852862923515625,18.636456585937502,3.6000061035156254,17.9999765859375,3.600006103515625C17.9999765859375,3.600006103515625,5.9999756859375,3.600006103515625,5.9999756859375,3.600006103515625C5.9999756859375,3.600006103515625,5.9999756859375,3.600006103515625,5.9999756859375,3.600006103515625ZM16.7999765859375,8.400006303515624C16.7999765859375,8.081742303515625,16.6734965859375,7.776522203515625,16.4484955859375,7.551474303515625C16.2234965859375,7.326438203515625,15.9182155859375,7.200006203515625,15.5999755859375,7.200006203515625C15.2817125859375,7.200006203515625,14.9764915859375,7.326438203515625,14.7514435859375,7.551474303515625C14.5264085859375,7.776522203515625,14.3999755859375,8.081742303515625,14.3999755859375,8.400006303515624C14.3999755859375,8.400006303515624,14.3999755859375,15.600006103515625,14.3999755859375,15.600006103515625C14.3999755859375,15.918246103515624,14.5264085859375,16.223527103515625,14.7514435859375,16.448526103515626C14.9764915859375,16.673527103515625,15.2817125859375,16.800007103515625,15.5999755859375,16.800007103515625C15.9182155859375,16.800007103515625,16.2234965859375,16.673527103515625,16.4484955859375,16.448526103515626C16.6734965859375,16.223527103515625,16.7999765859375,15.918246103515624,16.7999765859375,15.600006103515625C16.7999765859375,15.600006103515625,16.7999765859375,8.400006303515624,16.7999765859375,8.400006303515624C16.7999765859375,8.400006303515624,16.7999765859375,8.400006303515624,16.7999765859375,8.400006303515624ZM13.1999759859375,10.800006403515624C13.1999759859375,10.481742403515625,13.0735435859375,10.176522703515625,12.8485078859375,9.951474703515625C12.6234597859375,9.726438503515624,12.3182401859375,9.600006103515625,11.9999761859375,9.600006103515625C11.6817121859375,9.600006103515625,11.3764919859375,9.726438503515624,11.151443985937501,9.951474703515625C10.9264077859375,10.176522703515625,10.7999758859375,10.481742403515625,10.7999758859375,10.800006403515624C10.7999758859375,10.800006403515624,10.7999758859375,15.600006103515625,10.7999758859375,15.600006103515625C10.7999758859375,15.918246103515624,10.9264077859375,16.223527103515625,11.151443985937501,16.448526103515626C11.3764919859375,16.673527103515625,11.6817121859375,16.800007103515625,11.9999761859375,16.800007103515625C12.3182401859375,16.800007103515625,12.6234597859375,16.673527103515625,12.8485078859375,16.448526103515626C13.0735435859375,16.223527103515625,13.1999759859375,15.918246103515624,13.1999759859375,15.600006103515625C13.1999759859375,15.600006103515625,13.1999759859375,10.800006403515624,13.1999759859375,10.800006403515624C13.1999759859375,10.800006403515624,13.1999759859375,10.800006403515624,13.1999759859375,10.800006403515624ZM9.5999755859375,14.400006103515626C9.5999755859375,14.081743103515626,9.4735436859375,13.776522103515624,9.2485074859375,13.551473603515625C9.0234593859375,13.326438903515625,8.718239785937499,13.200006503515626,8.3999757859375,13.200006503515626C8.0817117859375,13.200006503515626,7.7764916859375,13.326438903515625,7.5514437859375,13.551473603515625C7.3264076859375,13.776522103515624,7.1999756859375,14.081743103515626,7.1999756859375,14.400006103515626C7.1999756859375,14.400006103515626,7.1999756859375,15.600006103515625,7.1999756859375,15.600006103515625C7.1999756859375,15.918246103515624,7.3264076859375,16.223527103515625,7.5514437859375,16.448526103515626C7.7764916859375,16.673527103515625,8.0817117859375,16.800007103515625,8.3999757859375,16.800007103515625C8.718239785937499,16.800007103515625,9.0234593859375,16.673527103515625,9.2485074859375,16.448526103515626C9.4735436859375,16.223527103515625,9.5999755859375,15.918246103515624,9.5999755859375,15.600006103515625C9.5999755859375,15.600006103515625,9.5999755859375,14.400006103515626,9.5999755859375,14.400006103515626C9.5999755859375,14.400006103515626,9.5999755859375,14.400006103515626,9.5999755859375,14.400006103515626Z" fill-rule="evenodd" fill="#0A0A28" fill-opacity="1"/></g></svg>