<svg xmlns="http://www.w3.org/2000/svg" xmlns:xlink="http://www.w3.org/1999/xlink" fill="none" version="1.1" width="24" height="24" viewBox="0 0 24 24"><defs><clipPath id="master_svg0_3_2076"><rect x="0" y="0" width="24" height="24" rx="0"/></clipPath></defs><g clip-path="url(#master_svg0_3_2076)"><path d="M8,11C7.4477201,11,7,11.4477201,7,12C7,12.55229,7.4477201,13,8,13C8,13,8,11,8,11C8,11,8,11,8,11ZM8.0100002,13C8.5622802,13,9.0100002,12.55229,9.0100002,12C9.0100002,11.4477201,8.5622802,11,8.0100002,11C8.0100002,11,8.0100002,13,8.0100002,13C8.0100002,13,8.0100002,13,8.0100002,13ZM12,11C11.44771,11,11,11.4477201,11,12C11,12.55229,11.44771,13,12,13C12,13,12,11,12,11C12,11,12,11,12,11ZM12.0100002,13C12.5622902,13,13.01,12.55229,13.01,12C13.01,11.4477201,12.5622902,11,12.0100002,11C12.0100002,11,12.0100002,13,12.0100002,13C12.0100002,13,12.0100002,13,12.0100002,13ZM16,11C15.4477,11,15,11.4477201,15,12C15,12.55229,15.4477,13,16,13C16,13,16,11,16,11C16,11,16,11,16,11ZM16.009999999999998,13C16.5623,13,17.009999999999998,12.55229,17.009999999999998,12C17.009999999999998,11.4477201,16.5623,11,16.009999999999998,11C16.009999999999998,11,16.009999999999998,13,16.009999999999998,13C16.009999999999998,13,16.009999999999998,13,16.009999999999998,13ZM12,20C12,20,12,19,12,19C12,19,11.9966002,19,11.9966002,19C11.9966002,19,12,20,12,20C12,20,12,20,12,20ZM7.7449999,19.051000000000002C7.7449999,19.051000000000002,8.1730099,18.147199999999998,8.1730099,18.147199999999998C7.9786401,18.0552,7.7597699,18.0282,7.5488801,18.0704C7.5488801,18.0704,7.7449999,19.051000000000002,7.7449999,19.051000000000002C7.7449999,19.051000000000002,7.7449999,19.051000000000002,7.7449999,19.051000000000002ZM3,20C3,20,2.06367099,19.648899999999998,2.06367099,19.648899999999998C1.93618,19.988799999999998,2.00298703,20.371201,2.23820102,20.6478C2.47341502,20.9244,2.840077,21.0518,3.196116,20.9806C3.196116,20.9806,3,20,3,20C3,20,3,20,3,20ZM4.395,16.28C4.395,16.28,5.331330100000001,16.6311,5.331330100000001,16.6311C5.4481699,16.319499999999998,5.4023699999999995,15.9702,5.20913,15.6993C5.20913,15.6993,4.395,16.28,4.395,16.28C4.395,16.28,4.395,16.28,4.395,16.28ZM8,13C8,13,8.0100002,13,8.0100002,13C8.0100002,13,8.0100002,11,8.0100002,11C8.0100002,11,8,11,8,11C8,11,8,13,8,13C8,13,8,13,8,13ZM12,13C12,13,12.0100002,13,12.0100002,13C12.0100002,13,12.0100002,11,12.0100002,11C12.0100002,11,12,11,12,11C12,11,12,13,12,13C12,13,12,13,12,13ZM16,13C16,13,16.009999999999998,13,16.009999999999998,13C16.009999999999998,13,16.009999999999998,11,16.009999999999998,11C16.009999999999998,11,16,11,16,11C16,11,16,13,16,13C16,13,16,13,16,13ZM20,12C20,15.7582,16.5317,19,12,19C12,19,12,21,12,21C17.4083,21,22,17.0778,22,12C22,12,20,12,20,12C20,12,20,12,20,12ZM11.9966002,19C10.6744099,19.0045,9.36797,18.7131,8.1730099,18.147199999999998C8.1730099,18.147199999999998,7.3169899,19.9548,7.3169899,19.9548C8.78161,20.648399,10.3828602,21.005501,12.0033998,21C12.0033998,21,11.9966002,19,11.9966002,19C11.9966002,19,11.9966002,19,11.9966002,19ZM7.5488801,18.0704C7.5488801,18.0704,2.803884,19.019399999999997,2.803884,19.019399999999997C2.803884,19.019399999999997,3.196116,20.9806,3.196116,20.9806C3.196116,20.9806,7.9411201,20.031601,7.9411201,20.031601C7.9411201,20.031601,7.5488801,18.0704,7.5488801,18.0704C7.5488801,18.0704,7.5488801,18.0704,7.5488801,18.0704ZM3.93632901,20.351101C3.93632901,20.351101,5.331330100000001,16.6311,5.331330100000001,16.6311C5.331330100000001,16.6311,3.458671,15.9289,3.458671,15.9289C3.458671,15.9289,2.06367099,19.648899999999998,2.06367099,19.648899999999998C2.06367099,19.648899999999998,3.93632901,20.351101,3.93632901,20.351101C3.93632901,20.351101,3.93632901,20.351101,3.93632901,20.351101ZM5.20913,15.6993C4.4383,14.6186,4,13.3512697,4,12C4,12,2,12,2,12C2,13.79673,2.585702,15.4654,3.58086699,16.8607C3.58086699,16.8607,5.20913,15.6993,5.20913,15.6993C5.20913,15.6993,5.20913,15.6993,5.20913,15.6993ZM4,12C4,8.2417798,7.4682798,5,12,5C12,5,12,3,12,3C6.5917201,3,2,6.922219999999999,2,12C2,12,4,12,4,12C4,12,4,12,4,12ZM12,5C16.5317,5,20,8.2417798,20,12C20,12,22,12,22,12C22,6.922219999999999,17.4083,3,12,3C12,3,12,5,12,5C12,5,12,5,12,5Z" fill="#0A0A28" fill-opacity="1"/></g></svg>