<svg xmlns="http://www.w3.org/2000/svg" xmlns:xlink="http://www.w3.org/1999/xlink" fill="none" version="1.1" width="24" height="24" viewBox="0 0 24 24"><defs><clipPath id="master_svg0_3_2376"><rect x="0" y="0" width="24" height="24" rx="0"/></clipPath></defs><g clip-path="url(#master_svg0_3_2376)"><path d="M21.599994896484375,12.000006703515625C21.599994896484375,16.639207103515623,17.301594896484374,20.400007103515627,11.999994296484376,20.400007103515627C10.296054396484376,20.407205103515626,8.615454196484375,20.003767103515624,7.100394296484375,19.224008103515626C7.100394296484375,19.224008103515626,2.399993896484375,20.400007103515627,2.399993896484375,20.400007103515627C2.399993896484375,20.400007103515627,4.005593996484375,16.652407103515625,4.005593996484375,16.652407103515625C2.991593896484375,15.320407103515626,2.399993896484375,13.720806103515624,2.399993896484375,12.000006703515625C2.399993896484375,7.360806203515625,6.698394296484375,3.600006103515625,11.999994296484376,3.600006103515625C17.301594896484374,3.600006103515625,21.599994896484375,7.360806203515625,21.599994896484375,12.000006703515625C21.599994896484375,12.000006703515625,21.599994896484375,12.000006703515625,21.599994896484375,12.000006703515625ZM8.399993896484375,10.800006403515624C8.399993896484375,10.800006403515624,5.999993996484375,10.800006403515624,5.999993996484375,10.800006403515624C5.999993996484375,10.800006403515624,5.999993996484375,13.200006503515626,5.999993996484375,13.200006503515626C5.999993996484375,13.200006503515626,8.399993896484375,13.200006503515626,8.399993896484375,13.200006503515626C8.399993896484375,13.200006503515626,8.399993896484375,10.800006403515624,8.399993896484375,10.800006403515624C8.399993896484375,10.800006403515624,8.399993896484375,10.800006403515624,8.399993896484375,10.800006403515624ZM17.999993896484376,10.800006403515624C17.999993896484376,10.800006403515624,15.599994896484375,10.800006403515624,15.599994896484375,10.800006403515624C15.599994896484375,10.800006403515624,15.599994896484375,13.200006503515626,15.599994896484375,13.200006503515626C15.599994896484375,13.200006503515626,17.999993896484376,13.200006503515626,17.999993896484376,13.200006503515626C17.999993896484376,13.200006503515626,17.999993896484376,10.800006403515624,17.999993896484376,10.800006403515624C17.999993896484376,10.800006403515624,17.999993896484376,10.800006403515624,17.999993896484376,10.800006403515624ZM10.799994496484375,10.800006403515624C10.799994496484375,10.800006403515624,13.199993896484376,10.800006403515624,13.199993896484376,10.800006403515624C13.199993896484376,10.800006403515624,13.199993896484376,13.200006503515626,13.199993896484376,13.200006503515626C13.199993896484376,13.200006503515626,10.799994496484375,13.200006503515626,10.799994496484375,13.200006503515626C10.799994496484375,13.200006503515626,10.799994496484375,10.800006403515624,10.799994496484375,10.800006403515624C10.799994496484375,10.800006403515624,10.799994496484375,10.800006403515624,10.799994496484375,10.800006403515624Z" fill-rule="evenodd" fill="#0A0A28" fill-opacity="1"/></g></svg>