<svg xmlns="http://www.w3.org/2000/svg" xmlns:xlink="http://www.w3.org/1999/xlink" fill="none" version="1.1" width="24" height="24" viewBox="0 0 24 24"><defs><clipPath id="master_svg0_3_2372"><rect x="0" y="0" width="24" height="24" rx="0"/></clipPath></defs><g clip-path="url(#master_svg0_3_2372)"><path d="M17,7C16.447699999999998,7,16,7.4477201,16,8C16,8.5522799,16.447699999999998,9,17,9C17,9,17,7,17,7C17,7,17,7,17,7ZM17,18C17,18,17,17,17,17C16.447699999999998,17,16,17.447699999999998,16,18C16,18,17,18,17,18C17,18,17,18,17,18ZM17,22C17,22,16.2929,22.7071,16.2929,22.7071C16.5789,22.993099,17.009,23.078699,17.3827,22.923901C17.7564,22.7691,18,22.404499,18,22C18,22,17,22,17,22C17,22,17,22,17,22ZM13,18C13,18,13.7071,17.2929,13.7071,17.2929C13.5196,17.1054,13.2652,17,13,17C13,17,13,18,13,18C13,18,13,18,13,18ZM9,18C9,18,9,17,9,17C9,17,8.99897,17,8.99897,17C8.99897,17,9,18,9,18C9,18,9,18,9,18ZM7.586,17.414C7.586,17.414,6.87889,16.706899999999997,6.87889,16.706899999999997C6.87889,16.706899999999997,6.87889,16.706899999999997,6.87889,16.706899999999997C6.87889,16.706899999999997,7.586,17.414,7.586,17.414C7.586,17.414,7.586,17.414,7.586,17.414ZM11,14C11,14,11,13,11,13C10.7347798,13,10.4804301,13.10536,10.292890100000001,13.2928896C10.292890100000001,13.2928896,11,14,11,14C11,14,11,14,11,14ZM15,4C15,4,15,3,15,3C15,3,15,4,15,4C15,4,15,4,15,4ZM5,4C5,4,5,3,5,3C5,3,5,4,5,4C5,4,5,4,5,4ZM3,6C3,6,2,6,2,6C2,6,3,6,3,6C3,6,3,6,3,6ZM3,12C3,12,2,12,2,12C2,12,3,12,3,12C3,12,3,12,3,12ZM7,14C7,14,8,14,8,14C8,13.44771,7.5522799,13,7,13C7,13,7,14,7,14C7,14,7,14,7,14ZM7,18C7,18,6,18,6,18C6,18.4045,6.2436399,18.7691,6.617320100000001,18.9239C6.990989900000001,19.078699999999998,7.4211102,18.9931,7.7071099,18.7071C7.7071099,18.7071,7,18,7,18C7,18,7,18,7,18ZM17,9C17,9,19,9,19,9C19,9,19,7,19,7C19,7,17,7,17,7C17,7,17,9,17,9C17,9,17,9,17,9ZM19,9C19.2652,9,19.5196,9.105360000000001,19.7071,9.292890100000001C19.7071,9.292890100000001,21.1213,7.87868,21.1213,7.87868C20.558701,7.3160701,19.7957,7,19,7C19,7,19,9,19,9C19,9,19,9,19,9ZM19.7071,9.292890100000001C19.8946,9.4804301,20,9.7347798,20,10C20,10,22,10,22,10C22,9.20435,21.683901,8.441289900000001,21.1213,7.87868C21.1213,7.87868,19.7071,9.292890100000001,19.7071,9.292890100000001C19.7071,9.292890100000001,19.7071,9.292890100000001,19.7071,9.292890100000001ZM20,10C20,10,20,16,20,16C20,16,22,16,22,16C22,16,22,10,22,10C22,10,20,10,20,10C20,10,20,10,20,10ZM20,16C20,16.2652,19.8946,16.5196,19.7071,16.7071C19.7071,16.7071,21.1213,18.121299999999998,21.1213,18.121299999999998C21.683901,17.5587,22,16.7957,22,16C22,16,20,16,20,16C20,16,20,16,20,16ZM19.7071,16.7071C19.5196,16.8946,19.2652,17,19,17C19,17,19,19,19,19C19.7957,19,20.558701,18.6839,21.1213,18.121299999999998C21.1213,18.121299999999998,19.7071,16.7071,19.7071,16.7071C19.7071,16.7071,19.7071,16.7071,19.7071,16.7071ZM19,17C19,17,17,17,17,17C17,17,17,19,17,19C17,19,19,19,19,19C19,19,19,17,19,17C19,17,19,17,19,17ZM16,18C16,18,16,22,16,22C16,22,18,22,18,22C18,22,18,18,18,18C18,18,16,18,16,18C16,18,16,18,16,18ZM17.7071,21.2929C17.7071,21.2929,13.7071,17.2929,13.7071,17.2929C13.7071,17.2929,12.2928896,18.7071,12.2928896,18.7071C12.2928896,18.7071,16.2929,22.7071,16.2929,22.7071C16.2929,22.7071,17.7071,21.2929,17.7071,21.2929C17.7071,21.2929,17.7071,21.2929,17.7071,21.2929ZM13,17C13,17,9,17,9,17C9,17,9,19,9,19C9,19,13,19,13,19C13,19,13,17,13,17C13,17,13,17,13,17ZM8.99897,17C8.8680301,17.0001,8.7383499,16.9744,8.6173902,16.924300000000002C8.6173902,16.924300000000002,7.8516798,18.771900000000002,7.8516798,18.771900000000002C8.216030100000001,18.9229,8.6066298,19.0004,9.00103,19C9.00103,19,8.99897,17,8.99897,17C8.99897,17,8.99897,17,8.99897,17ZM8.6173902,16.924300000000002C8.4964199,16.8741,8.3865499,16.8006,8.2940898,16.707900000000002C8.2940898,16.707900000000002,6.877909900000001,18.1201,6.877909900000001,18.1201C7.1564002,18.3994,7.48733,18.6209,7.8516798,18.771900000000002C7.8516798,18.771900000000002,8.6173902,16.924300000000002,8.6173902,16.924300000000002C8.6173902,16.924300000000002,8.6173902,16.924300000000002,8.6173902,16.924300000000002ZM8.293109900000001,18.1211C8.293109900000001,18.1211,11.7071104,14.7071,11.7071104,14.7071C11.7071104,14.7071,10.292890100000001,13.2928896,10.292890100000001,13.2928896C10.292890100000001,13.2928896,6.87889,16.706899999999997,6.87889,16.706899999999997C6.87889,16.706899999999997,8.293109900000001,18.1211,8.293109900000001,18.1211C8.293109900000001,18.1211,8.293109900000001,18.1211,8.293109900000001,18.1211ZM11,15C11,15,15,15,15,15C15,15,15,13,15,13C15,13,11,13,11,13C11,13,11,15,11,15C11,15,11,15,11,15ZM15,15C15.7957,15,16.5587,14.6839,17.121299999999998,14.1213C17.121299999999998,14.1213,15.7071,12.7071104,15.7071,12.7071104C15.5196,12.89464,15.2652,13,15,13C15,13,15,15,15,15C15,15,15,15,15,15ZM17.121299999999998,14.1213C17.6839,13.5587101,18,12.7956495,18,12C18,12,16,12,16,12C16,12.2652197,15.8946,12.5195704,15.7071,12.7071104C15.7071,12.7071104,17.121299999999998,14.1213,17.121299999999998,14.1213C17.121299999999998,14.1213,17.121299999999998,14.1213,17.121299999999998,14.1213ZM18,12C18,12,18,6,18,6C18,6,16,6,16,6C16,6,16,12,16,12C16,12,18,12,18,12C18,12,18,12,18,12ZM18,6C18,5.20435,17.6839,4.44128799,17.121299999999998,3.87868C17.121299999999998,3.87868,15.7071,5.29289,15.7071,5.29289C15.8946,5.48043,16,5.73478,16,6C16,6,18,6,18,6C18,6,18,6,18,6ZM17.121299999999998,3.87868C16.5587,3.3160700199999997,15.7956,3,15,3C15,3,15,5,15,5C15.2652,5,15.5196,5.10536,15.7071,5.29289C15.7071,5.29289,17.121299999999998,3.87868,17.121299999999998,3.87868C17.121299999999998,3.87868,17.121299999999998,3.87868,17.121299999999998,3.87868ZM15,3C15,3,5,3,5,3C5,3,5,5,5,5C5,5,15,5,15,5C15,5,15,3,15,3C15,3,15,3,15,3ZM5,3C4.20435,3,3.44128901,3.3160700199999997,2.87868,3.87868C2.87868,3.87868,4.29289,5.29289,4.29289,5.29289C4.48043,5.10536,4.73478,5,5,5C5,5,5,3,5,3C5,3,5,3,5,3ZM2.87868,3.87868C2.3160700199999997,4.44128901,2,5.20435,2,6C2,6,4,6,4,6C4,5.73478,4.10536,5.48043,4.29289,5.29289C4.29289,5.29289,2.87868,3.87868,2.87868,3.87868C2.87868,3.87868,2.87868,3.87868,2.87868,3.87868ZM2,6C2,6,2,12,2,12C2,12,4,12,4,12C4,12,4,6,4,6C4,6,2,6,2,6C2,6,2,6,2,6ZM2,12C2,12.7956495,2.3160700199999997,13.5587101,2.87868,14.1213C2.87868,14.1213,4.29289,12.7071104,4.29289,12.7071104C4.10536,12.5195704,4,12.2652197,4,12C4,12,2,12,2,12C2,12,2,12,2,12ZM2.87868,14.1213C3.44128799,14.6839,4.20435,15,5,15C5,15,5,13,5,13C4.73478,13,4.48043,12.89464,4.29289,12.7071104C4.29289,12.7071104,2.87868,14.1213,2.87868,14.1213C2.87868,14.1213,2.87868,14.1213,2.87868,14.1213ZM5,15C5,15,7,15,7,15C7,15,7,13,7,13C7,13,5,13,5,13C5,13,5,15,5,15C5,15,5,15,5,15ZM6,14C6,14,6,18,6,18C6,18,8,18,8,18C8,18,8,14,8,14C8,14,6,14,6,14C6,14,6,14,6,14ZM7.7071099,18.7071C7.7071099,18.7071,8.293109900000001,18.1211,8.293109900000001,18.1211C8.293109900000001,18.1211,6.87889,16.706899999999997,6.87889,16.706899999999997C6.87889,16.706899999999997,6.2928901,17.2929,6.2928901,17.2929C6.2928901,17.2929,7.7071099,18.7071,7.7071099,18.7071C7.7071099,18.7071,7.7071099,18.7071,7.7071099,18.7071Z" fill="#0A0A28" fill-opacity="1"/></g></svg>