<svg xmlns="http://www.w3.org/2000/svg" xmlns:xlink="http://www.w3.org/1999/xlink" fill="none" version="1.1" width="24" height="24" viewBox="0 0 24 24"><defs><clipPath id="master_svg0_3_1742"><rect x="0" y="0" width="24" height="24" rx="0"/></clipPath></defs><g clip-path="url(#master_svg0_3_1742)"><path d="M21.599994896484375,6.000006203515625C21.599994896484375,6.000006203515625,21.599994896484375,15.600006103515625,21.599994896484375,15.600006103515625C21.599994896484375,16.236487103515625,21.347154896484376,16.846927103515625,20.897033896484373,17.297047103515624C20.446914896484376,17.747167103515626,19.836474896484376,18.000007103515625,19.199994896484377,18.000007103515625C19.199994896484377,18.000007103515625,13.199993896484376,18.000007103515625,13.199993896484376,18.000007103515625C13.199993896484376,18.000007103515625,7.199994096484375,22.800007103515625,7.199994096484375,22.800007103515625C7.199994096484375,22.800007103515625,7.199994096484375,18.000007103515625,7.199994096484375,18.000007103515625C7.199994096484375,18.000007103515625,4.799993996484375,18.000007103515625,4.799993996484375,18.000007103515625C4.163477996484375,18.000007103515625,3.553024796484375,17.747167103515626,3.102937106484375,17.297047103515624C2.652850716484375,16.846927103515625,2.3999938964843754,16.236487103515625,2.399993896484375,15.600006103515625C2.399993896484375,15.600006103515625,2.399993896484375,6.000006203515625,2.399993896484375,6.000006203515625C2.3999938964843746,5.363490203515625,2.652850716484375,4.753037003515625,3.102937106484375,4.302949313515625C3.553024796484375,3.852862923515625,4.163477996484375,3.6000061035156254,4.799993996484375,3.600006103515625C4.799993996484375,3.600006103515625,19.199994896484377,3.600006103515625,19.199994896484377,3.600006103515625C19.836474896484376,3.6000061035156254,20.446914896484376,3.852862923515625,20.897033896484373,4.302949313515625C21.347154896484376,4.753037003515625,21.599994896484375,5.363490203515625,21.599994896484375,6.000006203515625C21.599994896484375,6.000006203515625,21.599994896484375,6.000006203515625,21.599994896484375,6.000006203515625ZM8.399993896484375,9.600006103515625C8.399993896484375,9.600006103515625,5.999993996484375,9.600006103515625,5.999993996484375,9.600006103515625C5.999993996484375,9.600006103515625,5.999993996484375,12.000006703515625,5.999993996484375,12.000006703515625C5.999993996484375,12.000006703515625,8.399993896484375,12.000006703515625,8.399993896484375,12.000006703515625C8.399993896484375,12.000006703515625,8.399993896484375,9.600006103515625,8.399993896484375,9.600006103515625C8.399993896484375,9.600006103515625,8.399993896484375,9.600006103515625,8.399993896484375,9.600006103515625ZM10.799994496484375,9.600006103515625C10.799994496484375,9.600006103515625,13.199993896484376,9.600006103515625,13.199993896484376,9.600006103515625C13.199993896484376,9.600006103515625,13.199993896484376,12.000006703515625,13.199993896484376,12.000006703515625C13.199993896484376,12.000006703515625,10.799994496484375,12.000006703515625,10.799994496484375,12.000006703515625C10.799994496484375,12.000006703515625,10.799994496484375,9.600006103515625,10.799994496484375,9.600006103515625C10.799994496484375,9.600006103515625,10.799994496484375,9.600006103515625,10.799994496484375,9.600006103515625ZM17.999993896484376,9.600006103515625C17.999993896484376,9.600006103515625,15.599994896484375,9.600006103515625,15.599994896484375,9.600006103515625C15.599994896484375,9.600006103515625,15.599994896484375,12.000006703515625,15.599994896484375,12.000006703515625C15.599994896484375,12.000006703515625,17.999993896484376,12.000006703515625,17.999993896484376,12.000006703515625C17.999993896484376,12.000006703515625,17.999993896484376,9.600006103515625,17.999993896484376,9.600006103515625C17.999993896484376,9.600006103515625,17.999993896484376,9.600006103515625,17.999993896484376,9.600006103515625Z" fill-rule="evenodd" fill="#0A0A28" fill-opacity="1"/></g></svg>