<svg xmlns="http://www.w3.org/2000/svg" xmlns:xlink="http://www.w3.org/1999/xlink" fill="none" version="1.1" width="24" height="24" viewBox="0 0 24 24"><defs><clipPath id="master_svg0_3_1850"><rect x="0" y="0" width="24" height="24" rx="0"/></clipPath></defs><g clip-path="url(#master_svg0_3_1850)"><path d="M8,9C7.4477201,9,7,9.4477201,7,10C7,10.5522799,7.4477201,11,8,11C8,11,8,9,8,9C8,9,8,9,8,9ZM8.0100002,11C8.5622802,11,9.0100002,10.5522799,9.0100002,10C9.0100002,9.4477201,8.5622802,9,8.0100002,9C8.0100002,9,8.0100002,11,8.0100002,11C8.0100002,11,8.0100002,11,8.0100002,11ZM12,9C11.44771,9,11,9.4477201,11,10C11,10.5522799,11.44771,11,12,11C12,11,12,9,12,9C12,9,12,9,12,9ZM12.0100002,11C12.5622902,11,13.01,10.5522799,13.01,10C13.01,9.4477201,12.5622902,9,12.0100002,9C12.0100002,9,12.0100002,11,12.0100002,11C12.0100002,11,12.0100002,11,12.0100002,11ZM16,9C15.4477,9,15,9.4477201,15,10C15,10.5522799,15.4477,11,16,11C16,11,16,9,16,9C16,9,16,9,16,9ZM16.009999999999998,11C16.5623,11,17.009999999999998,10.5522799,17.009999999999998,10C17.009999999999998,9.4477201,16.5623,9,16.009999999999998,9C16.009999999999998,9,16.009999999999998,11,16.009999999999998,11C16.009999999999998,11,16.009999999999998,11,16.009999999999998,11ZM9,16C9,16,10,16,10,16C10,15.4477,9.5522799,15,9,15C9,15,9,16,9,16C9,16,9,16,9,16ZM3,14C3,14,2,14,2,14C2,14,3,14,3,14C3,14,3,14,3,14ZM5,4C5,4,5,3,5,3C5,3,5,4,5,4C5,4,5,4,5,4ZM19,4C19,4,19,3,19,3C19,3,19,4,19,4C19,4,19,4,19,4ZM14,16C14,16,14,15,14,15C13.7348,15,13.4804,15.1054,13.2929,15.2929C13.2929,15.2929,14,16,14,16C14,16,14,16,14,16ZM9,21C9,21,8,21,8,21C8,21.404499,8.2436399,21.7691,8.6173201,21.923901C8.990990199999999,22.078699,9.421110200000001,21.993099,9.707109899999999,21.7071C9.707109899999999,21.7071,9,21,9,21C9,21,9,21,9,21ZM8,11C8,11,8.0100002,11,8.0100002,11C8.0100002,11,8.0100002,9,8.0100002,9C8.0100002,9,8,9,8,9C8,9,8,11,8,11C8,11,8,11,8,11ZM12,11C12,11,12.0100002,11,12.0100002,11C12.0100002,11,12.0100002,9,12.0100002,9C12.0100002,9,12,9,12,9C12,9,12,11,12,11C12,11,12,11,12,11ZM16,11C16,11,16.009999999999998,11,16.009999999999998,11C16.009999999999998,11,16.009999999999998,9,16.009999999999998,9C16.009999999999998,9,16,9,16,9C16,9,16,11,16,11C16,11,16,11,16,11ZM9,15C9,15,5,15,5,15C5,15,5,17,5,17C5,17,9,17,9,17C9,17,9,15,9,15C9,15,9,15,9,15ZM5,15C4.73478,15,4.48043,14.8946,4.29289,14.7071C4.29289,14.7071,2.87868,16.121299999999998,2.87868,16.121299999999998C3.44128799,16.6839,4.20435,17,5,17C5,17,5,15,5,15C5,15,5,15,5,15ZM4.29289,14.7071C4.10536,14.5196,4,14.2652,4,14C4,14,2,14,2,14C2,14.7956,2.3160700199999997,15.5587,2.87868,16.121299999999998C2.87868,16.121299999999998,4.29289,14.7071,4.29289,14.7071C4.29289,14.7071,4.29289,14.7071,4.29289,14.7071ZM4,14C4,14,4,6,4,6C4,6,2,6,2,6C2,6,2,14,2,14C2,14,4,14,4,14C4,14,4,14,4,14ZM4,6C4,5.73478,4.10536,5.48043,4.29289,5.29289C4.29289,5.29289,2.87868,3.87868,2.87868,3.87868C2.3160700199999997,4.44128901,2,5.20435,2,6C2,6,4,6,4,6C4,6,4,6,4,6ZM4.29289,5.29289C4.48043,5.10536,4.73478,5,5,5C5,5,5,3,5,3C4.20435,3,3.44128901,3.3160700199999997,2.87868,3.87868C2.87868,3.87868,4.29289,5.29289,4.29289,5.29289C4.29289,5.29289,4.29289,5.29289,4.29289,5.29289ZM5,5C5,5,19,5,19,5C19,5,19,3,19,3C19,3,5,3,5,3C5,3,5,5,5,5C5,5,5,5,5,5ZM19,5C19.2652,5,19.5196,5.10536,19.7071,5.29289C19.7071,5.29289,21.1213,3.87868,21.1213,3.87868C20.558701,3.3160700199999997,19.7957,3,19,3C19,3,19,5,19,5C19,5,19,5,19,5ZM19.7071,5.29289C19.8946,5.48043,20,5.73478,20,6C20,6,22,6,22,6C22,5.20435,21.683901,4.44128799,21.1213,3.87868C21.1213,3.87868,19.7071,5.29289,19.7071,5.29289C19.7071,5.29289,19.7071,5.29289,19.7071,5.29289ZM20,6C20,6,20,14,20,14C20,14,22,14,22,14C22,14,22,6,22,6C22,6,20,6,20,6C20,6,20,6,20,6ZM20,14C20,14.2652,19.8946,14.5196,19.7071,14.7071C19.7071,14.7071,21.1213,16.121299999999998,21.1213,16.121299999999998C21.683901,15.5587,22,14.7957,22,14C22,14,20,14,20,14C20,14,20,14,20,14ZM19.7071,14.7071C19.5196,14.8946,19.2652,15,19,15C19,15,19,17,19,17C19.7957,17,20.558701,16.6839,21.1213,16.121299999999998C21.1213,16.121299999999998,19.7071,14.7071,19.7071,14.7071C19.7071,14.7071,19.7071,14.7071,19.7071,14.7071ZM19,15C19,15,14,15,14,15C14,15,14,17,14,17C14,17,19,17,19,17C19,17,19,15,19,15C19,15,19,15,19,15ZM13.2929,15.2929C13.2929,15.2929,8.292890100000001,20.2929,8.292890100000001,20.2929C8.292890100000001,20.2929,9.707109899999999,21.7071,9.707109899999999,21.7071C9.707109899999999,21.7071,14.7071,16.7071,14.7071,16.7071C14.7071,16.7071,13.2929,15.2929,13.2929,15.2929C13.2929,15.2929,13.2929,15.2929,13.2929,15.2929ZM10,21C10,21,10,16,10,16C10,16,8,16,8,16C8,16,8,21,8,21C8,21,10,21,10,21C10,21,10,21,10,21Z" fill="#0A0A28" fill-opacity="1"/></g></svg>