<svg xmlns="http://www.w3.org/2000/svg" xmlns:xlink="http://www.w3.org/1999/xlink" fill="none" version="1.1" width="24" height="24" viewBox="0 0 24 24"><defs><clipPath id="master_svg0_3_1528"><rect x="0" y="0" width="24" height="24" rx="0"/></clipPath></defs><g clip-path="url(#master_svg0_3_1528)"><path d="M11.999994296484376,21.599994896484375C14.546034896484375,21.599994896484375,16.987913896484375,20.588513896484375,18.788274896484374,18.788274896484374C20.588513896484375,16.987913896484375,21.599994896484375,14.546034896484375,21.599994896484375,11.999994296484376C21.599994896484375,9.453918496484375,20.588513896484375,7.012122196484375,18.788274896484374,5.211773896484376C16.987913896484375,3.411419896484375,14.546034896484375,2.3999938964843763,11.999994296484376,2.399993896484375C9.453918496484375,2.3999938964843768,7.012122196484375,3.411419896484375,5.211773896484376,5.211773896484376C3.411419896484375,7.012122196484375,2.399993896484377,9.453918496484375,2.399993896484375,11.999994296484376C2.3999938964843768,14.546034896484375,3.411419896484375,16.987913896484375,5.211773896484376,18.788274896484374C7.012122196484375,20.588513896484375,9.453918496484375,21.599994896484375,11.999994296484376,21.599994896484375C11.999994296484376,21.599994896484375,11.999994296484376,21.599994896484375,11.999994296484376,21.599994896484375C11.999994296484376,21.599994896484375,11.999994296484376,21.599994896484375,11.999994296484376,21.599994896484375ZM16.448393896484376,10.448393796484375C16.667034896484374,10.222074496484375,16.787993896484373,9.918954396484375,16.785235896484373,9.604314296484375C16.782474896484374,9.289673796484376,16.656234896484374,8.988702296484375,16.433754896484373,8.766210096484375C16.211274896484376,8.543718296484375,15.910314896484374,8.417513896484376,15.595674896484375,8.414790196484375C15.281033896484375,8.412054096484376,14.977913896484376,8.533001896484375,14.751594896484375,8.751594496484376C14.751594896484375,8.751594496484376,10.799994496484375,12.703194896484375,10.799994496484375,12.703194896484375C10.799994496484375,12.703194896484375,9.248393996484374,11.151594196484375,9.248393996484374,11.151594196484375C9.022074196484375,10.933002496484375,8.718954096484374,10.812053696484375,8.404314496484375,10.814790696484375C8.089673996484375,10.817514396484375,7.788701996484375,10.943717996484375,7.566210296484375,11.166210196484375C7.343718096484375,11.388702396484375,7.217513996484375,11.689674396484374,7.214790296484375,12.004314396484375C7.212053796484375,12.318954496484375,7.333002096484375,12.622073896484375,7.551594296484375,12.848393896484374C7.551594296484375,12.848393896484374,9.951594396484374,15.248393896484375,9.951594396484374,15.248393896484375C10.176629996484376,15.473393896484374,10.481801996484375,15.599753896484374,10.799994496484375,15.599753896484374C11.118185996484375,15.599753896484374,11.423358896484375,15.473393896484374,11.648393596484375,15.248393896484375C11.648393596484375,15.248393896484375,16.448393896484376,10.448393796484375,16.448393896484376,10.448393796484375C16.448393896484376,10.448393796484375,16.448393896484376,10.448393796484375,16.448393896484376,10.448393796484375C16.448393896484376,10.448393796484375,16.448393896484376,10.448393796484375,16.448393896484376,10.448393796484375Z" fill-rule="evenodd" fill="#0A0A28" fill-opacity="1"/></g></svg>