<svg xmlns="http://www.w3.org/2000/svg" xmlns:xlink="http://www.w3.org/1999/xlink" fill="none" version="1.1" width="24" height="24" viewBox="0 0 24 24"><defs><clipPath id="master_svg0_3_1641"><rect x="0" y="0" width="24" height="24" rx="0"/></clipPath></defs><g clip-path="url(#master_svg0_3_1641)"><path d="M20.04838709375,6.351588550625C20.27338809375,6.576620940625,20.39974809375,6.881790580625,20.39974809375,7.199987440625C20.39974809375,7.518184340625,20.27338809375,7.8233562406249995,20.04838709375,8.048392340625C20.04838709375,8.048392340625,10.44839809375,17.648393140625,10.44839809375,17.648393140625C10.223362493749999,17.873357140625,9.91820239375,17.999728140625002,9.59999849375,17.999728140625002C9.28180599375,17.999728140625002,8.97663399375,17.873357140625,8.751598393750001,17.648393140625C8.751598393750001,17.648393140625,3.95160052375,12.848392440625,3.95160052375,12.848392440625C3.73301053375,12.622060340625,3.61205734965,12.318940640625,3.614791456872,12.004312040624999C3.61752555775,11.689672440625,3.74372810375,11.388700040625,3.96621769375,11.166208240625C4.18870729375,10.943716040624999,4.48968291375,10.817512540625,4.8043181937499995,10.814776440625C5.11895809375,10.812040340625,5.42207809375,10.933000540624999,5.648398193749999,11.151592240625C5.648398193749999,11.151592240625,9.59999849375,15.103192340625,9.59999849375,15.103192340625C9.59999849375,15.103192340625,18.35158609375,6.351588550625,18.35158609375,6.351588550625C18.57658709375,6.126623350625,18.88174609375,6.000244140624999,19.19998709375,6.000244140625C19.51822709375,6.000244140624999,19.82338709375,6.126623350625,20.04838709375,6.351588550625C20.04838709375,6.351588550625,20.04838709375,6.351588550625,20.04838709375,6.351588550625Z" fill-rule="evenodd" fill="#0A0A28" fill-opacity="1"/></g></svg>