<svg xmlns="http://www.w3.org/2000/svg" xmlns:xlink="http://www.w3.org/1999/xlink" fill="none" version="1.1" width="24" height="24" viewBox="0 0 24 24"><defs><clipPath id="master_svg0_3_1725"><rect x="0" y="0" width="24" height="24" rx="0"/></clipPath></defs><g clip-path="url(#master_svg0_3_1725)"><path d="M5.70710701,12.292890100000001C5.31658301,11.902370000000001,4.68341699,11.902370000000001,4.29289299,12.292890100000001C3.90237,12.6834202,3.90237,13.3165798,4.29289299,13.707109899999999C4.29289299,13.707109899999999,5.70710701,12.292890100000001,5.70710701,12.292890100000001C5.70710701,12.292890100000001,5.70710701,12.292890100000001,5.70710701,12.292890100000001ZM9,17C9,17,8.292890100000001,17.7071,8.292890100000001,17.7071C8.6834199,18.0976,9.3165798,18.0976,9.707109899999999,17.7071C9.707109899999999,17.7071,9,17,9,17C9,17,9,17,9,17ZM19.7071,7.70710701C20.0976,7.31658301,20.0976,6.68341699,19.7071,6.29289299C19.3166,5.9023699999999995,18.6834,5.9023699999999995,18.2929,6.29289299C18.2929,6.29289299,19.7071,7.70710701,19.7071,7.70710701C19.7071,7.70710701,19.7071,7.70710701,19.7071,7.70710701ZM4.29289299,13.707109899999999C4.29289299,13.707109899999999,8.292890100000001,17.7071,8.292890100000001,17.7071C8.292890100000001,17.7071,9.707109899999999,16.292889600000002,9.707109899999999,16.292889600000002C9.707109899999999,16.292889600000002,5.70710701,12.292890100000001,5.70710701,12.292890100000001C5.70710701,12.292890100000001,4.29289299,13.707109899999999,4.29289299,13.707109899999999C4.29289299,13.707109899999999,4.29289299,13.707109899999999,4.29289299,13.707109899999999ZM9.707109899999999,17.7071C9.707109899999999,17.7071,19.7071,7.70710701,19.7071,7.70710701C19.7071,7.70710701,18.2929,6.29289299,18.2929,6.29289299C18.2929,6.29289299,8.292890100000001,16.292889600000002,8.292890100000001,16.292889600000002C8.292890100000001,16.292889600000002,9.707109899999999,17.7071,9.707109899999999,17.7071C9.707109899999999,17.7071,9.707109899999999,17.7071,9.707109899999999,17.7071Z" fill="#0A0A28" fill-opacity="1"/></g></svg>