<svg xmlns="http://www.w3.org/2000/svg" xmlns:xlink="http://www.w3.org/1999/xlink" fill="none" version="1.1" width="24" height="24" viewBox="0 0 24 24"><defs><clipPath id="master_svg0_3_1767"><rect x="0" y="0" width="24" height="24" rx="0"/></clipPath></defs><g clip-path="url(#master_svg0_3_1767)"><path d="M6.35164958578125,8.75159948625C6.57668197578125,8.52663430625,6.88185161578125,8.40025606725,7.20004847578125,8.40025606725C7.51824537578125,8.40025606725,7.8234172757812495,8.52663430625,8.04845337578125,8.75159948625C8.04845337578125,8.75159948625,12.000053375781249,12.703202206250001,12.000053375781249,12.703202206250001C12.000053375781249,12.703202206250001,15.95165447578125,8.75159948625,15.95165447578125,8.75159948625C16.06234217578125,8.63698750625,16.19476217578125,8.54556912625,16.34116217578125,8.48267819025C16.48757317578125,8.41978738825,16.645037175781248,8.38668379025,16.80437417578125,8.385299214773C16.96369717578125,8.38391463425,17.121713175781252,8.41427638725,17.26919317578125,8.47461347325C17.41667317578125,8.53495031625,17.55065317578125,8.62405390625,17.66332117578125,8.73672550625C17.77598917578125,8.84939715625,17.86510217578125,8.98337954625,17.925437175781248,9.13085472625C17.985774175781252,9.27833109625,18.01614617578125,9.43634590625,18.014705175781252,9.59568190625C18.013385175781252,9.75501790625,17.98026517578125,9.91248200625,17.91737317578125,10.05888200625C17.85448217578125,10.20529400625,17.763066175781248,10.33770200625,17.64845417578125,10.44840190625C17.64845417578125,10.44840190625,12.84845347578125,15.248402106250001,12.84845347578125,15.248402106250001C12.62341737578125,15.47336630625,12.318245375781249,15.59973860625,12.000053375781249,15.59973860625C11.681849475781249,15.59973860625,11.37667747578125,15.47336630625,11.15165327578125,15.248402106250001C11.15165327578125,15.248402106250001,6.35164958578125,10.44840190625,6.35164958578125,10.44840190625C6.12668438578125,10.22336590625,6.00030517578125,9.91819390625,6.00030517578125,9.60000190625C6.00030517578125,9.28180277625,6.12668438578125,8.97663313625,6.35164958578125,8.75159948625C6.35164958578125,8.75159948625,6.35164958578125,8.75159948625,6.35164958578125,8.75159948625C6.35164958578125,8.75159948625,6.35164958578125,8.75159948625,6.35164958578125,8.75159948625Z" fill-rule="evenodd" fill="#0A0A28" fill-opacity="1"/></g></svg>