<svg xmlns="http://www.w3.org/2000/svg" xmlns:xlink="http://www.w3.org/1999/xlink" fill="none" version="1.1" width="24" height="24" viewBox="0 0 24 24"><defs><clipPath id="master_svg0_3_1652"><rect x="0" y="0" width="24" height="24" rx="0"/></clipPath></defs><g clip-path="url(#master_svg0_3_1652)"><path d="M12.35163739734375,18.848408802734376C12.12667214734375,18.623408802734374,12.00029328934375,18.318248802734374,12.00029328934375,18.000007802734373C12.00029328934375,17.681768802734375,12.12667214734375,17.376607802734377,12.35163739734375,17.151608802734373C12.35163739734375,17.151608802734373,17.50323912734375,11.999996202734376,17.50323912734375,11.999996202734376C17.50323912734375,11.999996202734376,12.35163739734375,6.848395802734375,12.35163739734375,6.848395802734375C12.23702534734375,6.737695902734375,12.14560575734375,6.605287902734375,12.08271481834375,6.458875902734375C12.01982400934375,6.312475902734375,11.98672041144375,6.155011802734375,11.98533583418975,5.995675802734375C11.98395125524375,5.836339802734375,12.01431421234375,5.678324992734375,12.07465130134375,5.530848622734375C12.13498814734375,5.383373442734375,12.22409175734375,5.249391052734375,12.33676337734375,5.136719402734375C12.44943499734375,5.024047802734375,12.58341622734375,4.934944212734375,12.73089265734375,4.874607369734375C12.87836783734375,4.814270283734375,13.03638262734375,4.783908530734375,13.19571862734375,4.785293111257375C13.35505462734375,4.786677686734375,13.51251872734375,4.819781284734375,13.65891882734375,4.882672086734375C13.80533082734375,4.945563022734375,13.93773872734375,5.036981402734375,14.04843882734375,5.151593382734375C14.04843882734375,5.151593382734375,20.04843902734375,11.151596502734375,20.04843902734375,11.151596502734375C20.273404127343753,11.376631702734375,20.39977552734375,11.681791802734374,20.39977552734375,11.999996202734376C20.39977552734375,12.318188202734376,20.273404127343753,12.623360202734375,20.04843902734375,12.848396302734375C20.04843902734375,12.848396302734375,14.04843882734375,18.848408802734376,14.04843882734375,18.848408802734376C13.82340272734375,19.073408802734377,13.51823062734375,19.199768802734376,13.20003862734375,19.199768802734376C12.88184070734375,19.199768802734376,12.57667100734375,19.073408802734377,12.35163739734375,18.848408802734376C12.35163739734375,18.848408802734376,12.35163739734375,18.848408802734376,12.35163739734375,18.848408802734376Z" fill-rule="evenodd" fill="#0A0A28" fill-opacity="1"/><path d="M5.15163737875,18.84839930078125C4.92667217875,18.62339830078125,4.80029296875,18.31823930078125,4.80029296875,17.999999300781248C4.800292968749999,17.681759300781252,4.92667217875,17.37659830078125,5.15163737875,17.15159930078125C5.15163737875,17.15159930078125,10.30324126875,12.00001050078125,10.30324126875,12.00001050078125C10.30324126875,12.00001050078125,5.15163737875,6.848410400781249,5.15163737875,6.848410400781249C4.93304776875,6.62209030078125,4.81209343275,6.31897030078125,4.81482748875,6.00433160078125C4.81756168975,5.68969512078125,4.94376498875,5.38872075078125,5.16625457875,5.16623112078125C5.38874417875,4.94374031078125,5.68971860875,4.81753776478125,6.00436086875,4.81480366378325C6.31898916875,4.81206955668125,6.6221090687499995,4.93302335078125,6.84844116875,5.15161273078125C6.84844116875,5.15161273078125,12.84844116875,11.15161090078125,12.84844116875,11.15161090078125C13.07340526875,11.37664650078125,13.19977756875,11.681818500781251,13.19977756875,12.00001050078125C13.19977756875,12.31821490078125,13.07340526875,12.62337490078125,12.84844116875,12.84841060078125C12.84844116875,12.84841060078125,6.84844116875,18.84839930078125,6.84844116875,18.84839930078125C6.6234050687499995,19.07339930078125,6.31823316875,19.199759300781253,6.00003626875,19.199759300781253C5.68183940875,19.199759300781253,5.37666976875,19.07339930078125,5.15163737875,18.84839930078125C5.15163737875,18.84839930078125,5.15163737875,18.84839930078125,5.15163737875,18.84839930078125C5.15163737875,18.84839930078125,5.15163737875,18.84839930078125,5.15163737875,18.84839930078125Z" fill-rule="evenodd" fill="#0A0A28" fill-opacity="1"/></g></svg>