<svg xmlns="http://www.w3.org/2000/svg" xmlns:xlink="http://www.w3.org/1999/xlink" fill="none" version="1.1" width="24" height="24" viewBox="0 0 24 24"><defs><clipPath id="master_svg0_3_1601"><rect x="0" y="0" width="24" height="24" rx="0"/></clipPath></defs><g clip-path="url(#master_svg0_3_1601)"><path d="M10.292890100000001,19.7071C10.6834202,20.0976,11.3165798,20.0976,11.707109899999999,19.7071C12.0976295,19.3166,12.0976295,18.6834,11.707109899999999,18.2929C11.707109899999999,18.2929,10.292890100000001,19.7071,10.292890100000001,19.7071C10.292890100000001,19.7071,10.292890100000001,19.7071,10.292890100000001,19.7071ZM4,12C4,12,3.29289299,11.292890100000001,3.29289299,11.292890100000001C2.90237,11.6834202,2.90237,12.3165798,3.29289299,12.707109899999999C3.29289299,12.707109899999999,4,12,4,12C4,12,4,12,4,12ZM11.707109899999999,5.70710701C12.0976295,5.31658301,12.0976295,4.68341699,11.707109899999999,4.29289299C11.3165798,3.90237,10.6834202,3.90237,10.292890100000001,4.29289299C10.292890100000001,4.29289299,11.707109899999999,5.70710701,11.707109899999999,5.70710701C11.707109899999999,5.70710701,11.707109899999999,5.70710701,11.707109899999999,5.70710701ZM18.2929,19.7071C18.6834,20.0976,19.3166,20.0976,19.7071,19.7071C20.097601,19.3166,20.097601,18.6834,19.7071,18.2929C19.7071,18.2929,18.2929,19.7071,18.2929,19.7071C18.2929,19.7071,18.2929,19.7071,18.2929,19.7071ZM12,12C12,12,11.292890100000001,11.292890100000001,11.292890100000001,11.292890100000001C10.902370000000001,11.6834202,10.902370000000001,12.3165798,11.292890100000001,12.707109899999999C11.292890100000001,12.707109899999999,12,12,12,12C12,12,12,12,12,12ZM19.7071,5.70710701C20.097601,5.31658301,20.097601,4.68341699,19.7071,4.29289299C19.3166,3.90237,18.6834,3.90237,18.2929,4.29289299C18.2929,4.29289299,19.7071,5.70710701,19.7071,5.70710701C19.7071,5.70710701,19.7071,5.70710701,19.7071,5.70710701ZM11.707109899999999,18.2929C11.707109899999999,18.2929,4.70710701,11.292890100000001,4.70710701,11.292890100000001C4.70710701,11.292890100000001,3.29289299,12.707109899999999,3.29289299,12.707109899999999C3.29289299,12.707109899999999,10.292890100000001,19.7071,10.292890100000001,19.7071C10.292890100000001,19.7071,11.707109899999999,18.2929,11.707109899999999,18.2929C11.707109899999999,18.2929,11.707109899999999,18.2929,11.707109899999999,18.2929ZM4.70710701,12.707109899999999C4.70710701,12.707109899999999,11.707109899999999,5.70710701,11.707109899999999,5.70710701C11.707109899999999,5.70710701,10.292890100000001,4.29289299,10.292890100000001,4.29289299C10.292890100000001,4.29289299,3.29289299,11.292890100000001,3.29289299,11.292890100000001C3.29289299,11.292890100000001,4.70710701,12.707109899999999,4.70710701,12.707109899999999C4.70710701,12.707109899999999,4.70710701,12.707109899999999,4.70710701,12.707109899999999ZM19.7071,18.2929C19.7071,18.2929,12.7071104,11.292890100000001,12.7071104,11.292890100000001C12.7071104,11.292890100000001,11.292890100000001,12.707109899999999,11.292890100000001,12.707109899999999C11.292890100000001,12.707109899999999,18.2929,19.7071,18.2929,19.7071C18.2929,19.7071,19.7071,18.2929,19.7071,18.2929C19.7071,18.2929,19.7071,18.2929,19.7071,18.2929ZM12.7071104,12.707109899999999C12.7071104,12.707109899999999,19.7071,5.70710701,19.7071,5.70710701C19.7071,5.70710701,18.2929,4.29289299,18.2929,4.29289299C18.2929,4.29289299,11.292890100000001,11.292890100000001,11.292890100000001,11.292890100000001C11.292890100000001,11.292890100000001,12.7071104,12.707109899999999,12.7071104,12.707109899999999C12.7071104,12.707109899999999,12.7071104,12.707109899999999,12.7071104,12.707109899999999Z" fill="#0A0A28" fill-opacity="1"/></g></svg>