<svg xmlns="http://www.w3.org/2000/svg" xmlns:xlink="http://www.w3.org/1999/xlink" fill="none" version="1.1" width="24" height="24" viewBox="0 0 24 24"><defs><clipPath id="master_svg0_3_1868"><rect x="0" y="0" width="24" height="24" rx="0"/></clipPath></defs><g clip-path="url(#master_svg0_3_1868)"><path d="M8.7516129646875,17.648422507812498C8.5266477646875,17.4233875078125,8.4002685546875,17.1182265078125,8.4002685546875,16.8000235078125C8.4002685546875,16.4818315078125,8.5266477646875,16.176658507812498,8.7516129646875,15.9516230078125C8.7516129646875,15.9516230078125,12.7032165546875,12.0000229078125,12.7032165546875,12.0000229078125C12.7032165546875,12.0000229078125,8.7516129646875,8.0484226078125,8.7516129646875,8.0484226078125C8.5330233546875,7.8221025078125,8.4120690186875,7.5189825078125,8.4148030746875,7.2043438078125C8.4175372756875,6.8897073278125,8.5437405746875,6.5887329578125,8.7662301646875,6.3662433278125C8.9887197646875,6.1437525178125,9.2896953846875,6.0175499718125,9.6043364546875,6.0148158708145C9.9189647546875,6.0120817637125,10.2220846546875,6.1330355578125,10.4484167546875,6.3516249378125C10.4484167546875,6.3516249378125,15.2484168546875,11.151622807812501,15.2484168546875,11.151622807812501C15.4733805546875,11.3766584078125,15.5997528546875,11.6818304078125,15.5997528546875,12.0000229078125C15.5997528546875,12.3182268078125,15.4733805546875,12.623386907812499,15.2484168546875,12.8484225078125C15.2484168546875,12.8484225078125,10.4484167546875,17.648422507812498,10.4484167546875,17.648422507812498C10.2233806546875,17.873387507812502,9.9182087546875,17.9997715078125,9.6000118546875,17.9997715078125C9.2818149946875,17.9997715078125,8.9766453546875,17.873387507812502,8.7516129646875,17.648422507812498C8.7516129646875,17.648422507812498,8.7516129646875,17.648422507812498,8.7516129646875,17.648422507812498Z" fill-rule="evenodd" fill="#0A0A28" fill-opacity="1"/></g></svg>