<svg xmlns="http://www.w3.org/2000/svg" xmlns:xlink="http://www.w3.org/1999/xlink" fill="none" version="1.1" width="24" height="24" viewBox="0 0 24 24"><defs><clipPath id="master_svg0_3_1659"><rect x="0" y="0" width="24" height="24" rx="0"/></clipPath></defs><g clip-path="url(#master_svg0_3_1659)"><path d="M17.648422507812498,15.2484168546875C17.4233875078125,15.4733805546875,17.1182265078125,15.5997528546875,16.8000235078125,15.5997528546875C16.4818315078125,15.5997528546875,16.176658507812498,15.4733805546875,15.9516230078125,15.2484168546875C15.9516230078125,15.2484168546875,12.0000229078125,11.2968165546875,12.0000229078125,11.2968165546875C12.0000229078125,11.2968165546875,8.0484226078125,15.2484168546875,8.0484226078125,15.2484168546875C7.8221025078125,15.466996654687499,7.5189825078125,15.587956954687499,7.2043438078125,15.585220854687499C6.8897073278125,15.5824847546875,6.5887329578125,15.456281154687499,6.3662433278125,15.233788954687501C6.1437525178125,15.011309154687499,6.0175499718125,14.7103247546875,6.0148158708145,14.3956966546875C6.0120817637125,14.0810570546875,6.1330355578125,13.777936954687501,6.3516249378125,13.5516166546875C6.3516249378125,13.5516166546875,11.151622807812501,8.7516129646875,11.151622807812501,8.7516129646875C11.3766584078125,8.5266477646875,11.6818304078125,8.4002685546875,12.0000229078125,8.4002685546875C12.3182268078125,8.4002685546875,12.623386907812499,8.5266477646875,12.8484225078125,8.7516129646875C12.8484225078125,8.7516129646875,17.648422507812498,13.5516166546875,17.648422507812498,13.5516166546875C17.873387507812502,13.7766408546875,17.9997715078125,14.081812854687499,17.9997715078125,14.400016754687499C17.9997715078125,14.718208754687499,17.873387507812502,15.0233807546875,17.648422507812498,15.2484168546875C17.648422507812498,15.2484168546875,17.648422507812498,15.2484168546875,17.648422507812498,15.2484168546875C17.648422507812498,15.2484168546875,17.648422507812498,15.2484168546875,17.648422507812498,15.2484168546875Z" fill-rule="evenodd" fill="#0A0A28" fill-opacity="1"/></g></svg>