<svg xmlns="http://www.w3.org/2000/svg" xmlns:xlink="http://www.w3.org/1999/xlink" fill="none" version="1.1" width="24" height="24" viewBox="0 0 24 24"><defs><clipPath id="master_svg0_3_2151"><rect x="0" y="0" width="24" height="24" rx="0"/></clipPath></defs><g clip-path="url(#master_svg0_3_2151)"><path d="M19.7071,13.7071104C20.0976,13.3165798,20.0976,12.6834202,19.7071,12.292890100000001C19.3166,11.902370000000001,18.6834,11.902370000000001,18.2929,12.292890100000001C18.2929,12.292890100000001,19.7071,13.7071104,19.7071,13.7071104C19.7071,13.7071104,19.7071,13.7071104,19.7071,13.7071104ZM12,20C12,20,11.292890100000001,20.7071,11.292890100000001,20.7071C11.6834202,21.097601,12.3165798,21.097601,12.707109899999999,20.7071C12.707109899999999,20.7071,12,20,12,20C12,20,12,20,12,20ZM5.70710701,12.292890100000001C5.31658301,11.902370000000001,4.68341699,11.902370000000001,4.29289299,12.292890100000001C3.90237,12.6834202,3.90237,13.3165798,4.29289299,13.7071104C4.29289299,13.7071104,5.70710701,12.292890100000001,5.70710701,12.292890100000001C5.70710701,12.292890100000001,5.70710701,12.292890100000001,5.70710701,12.292890100000001ZM19.7071,5.70710701C20.0976,5.31658301,20.0976,4.68341699,19.7071,4.29289299C19.3166,3.90237,18.6834,3.90237,18.2929,4.29289299C18.2929,4.29289299,19.7071,5.70710701,19.7071,5.70710701C19.7071,5.70710701,19.7071,5.70710701,19.7071,5.70710701ZM12,12C12,12,11.292890100000001,12.707109899999999,11.292890100000001,12.707109899999999C11.6834202,13.0976295,12.3165798,13.0976295,12.707109899999999,12.707109899999999C12.707109899999999,12.707109899999999,12,12,12,12C12,12,12,12,12,12ZM5.70710701,4.29289299C5.31658301,3.90237,4.68341699,3.90237,4.29289299,4.29289299C3.90237,4.68341699,3.90237,5.31658301,4.29289299,5.70710701C4.29289299,5.70710701,5.70710701,4.29289299,5.70710701,4.29289299C5.70710701,4.29289299,5.70710701,4.29289299,5.70710701,4.29289299ZM18.2929,12.292890100000001C18.2929,12.292890100000001,11.292890100000001,19.2929,11.292890100000001,19.2929C11.292890100000001,19.2929,12.707109899999999,20.7071,12.707109899999999,20.7071C12.707109899999999,20.7071,19.7071,13.7071104,19.7071,13.7071104C19.7071,13.7071104,18.2929,12.292890100000001,18.2929,12.292890100000001C18.2929,12.292890100000001,18.2929,12.292890100000001,18.2929,12.292890100000001ZM12.707109899999999,19.2929C12.707109899999999,19.2929,5.70710701,12.292890100000001,5.70710701,12.292890100000001C5.70710701,12.292890100000001,4.29289299,13.7071104,4.29289299,13.7071104C4.29289299,13.7071104,11.292890100000001,20.7071,11.292890100000001,20.7071C11.292890100000001,20.7071,12.707109899999999,19.2929,12.707109899999999,19.2929C12.707109899999999,19.2929,12.707109899999999,19.2929,12.707109899999999,19.2929ZM18.2929,4.29289299C18.2929,4.29289299,11.292890100000001,11.292890100000001,11.292890100000001,11.292890100000001C11.292890100000001,11.292890100000001,12.707109899999999,12.707109899999999,12.707109899999999,12.707109899999999C12.707109899999999,12.707109899999999,19.7071,5.70710701,19.7071,5.70710701C19.7071,5.70710701,18.2929,4.29289299,18.2929,4.29289299C18.2929,4.29289299,18.2929,4.29289299,18.2929,4.29289299ZM12.707109899999999,11.292890100000001C12.707109899999999,11.292890100000001,5.70710701,4.29289299,5.70710701,4.29289299C5.70710701,4.29289299,4.29289299,5.70710701,4.29289299,5.70710701C4.29289299,5.70710701,11.292890100000001,12.707109899999999,11.292890100000001,12.707109899999999C11.292890100000001,12.707109899999999,12.707109899999999,11.292890100000001,12.707109899999999,11.292890100000001C12.707109899999999,11.292890100000001,12.707109899999999,11.292890100000001,12.707109899999999,11.292890100000001Z" fill="#0A0A28" fill-opacity="1"/></g></svg>