<svg xmlns="http://www.w3.org/2000/svg" xmlns:xlink="http://www.w3.org/1999/xlink" fill="none" version="1.1" width="24" height="24" viewBox="0 0 24 24"><defs><clipPath id="master_svg0_3_1992"><rect x="0" y="0" width="24" height="24" rx="0"/></clipPath></defs><g clip-path="url(#master_svg0_3_1992)"><path d="M18.8484393203125,5.151606861171875C19.073439320312502,5.376639251171875,19.1997993203125,5.681808891171875,19.1997993203125,6.000005751171875C19.1997993203125,6.318202651171875,19.073439320312502,6.6233745511718745,18.8484393203125,6.848410651171875C18.8484393203125,6.848410651171875,12.8484268203125,12.848410651171875,12.8484268203125,12.848410651171875C12.6233907203125,13.073374751171874,12.318218720312501,13.199747051171874,12.000026720312501,13.199747051171874C11.681822320312499,13.199747051171874,11.3766622203125,13.073374751171874,11.1516270203125,12.848410651171875C11.1516270203125,12.848410651171875,5.1516239003125,6.848410651171875,5.1516239003125,6.848410651171875C4.9330343303125,6.6220785511718745,4.8120809213125,6.318958651171875,4.8148150013125,6.004330351171875C4.8175492023125,5.689688091171875,4.9437527403125,5.388713661171875,5.1662423603125,5.166224061171875C5.3887319603125,4.943734471171875,5.6897063803125,4.817531172171875,6.0043464203125,4.814796971171875C6.3189744203125,4.812062915171875,6.6221063203125,4.933017251171875,6.8484263203125,5.151606861171875C6.8484263203125,5.151606861171875,12.000026720312501,10.303210751171875,12.000026720312501,10.303210751171875C12.000026720312501,10.303210751171875,17.151639320312498,5.151606861171875,17.151639320312498,5.151606861171875C17.3766383203125,4.926641661171875,17.6817993203125,4.800262451171875,18.0000383203125,4.800262451171875C18.3182793203125,4.800262451171875,18.6234393203125,4.926641661171875,18.8484393203125,5.151606861171875C18.8484393203125,5.151606861171875,18.8484393203125,5.151606861171875,18.8484393203125,5.151606861171875ZM18.8484393203125,12.351610651171875C19.073439320312502,12.576634851171875,19.1997993203125,12.881807351171876,19.1997993203125,13.200011251171874C19.1997993203125,13.518202751171875,19.073439320312502,13.823374751171874,18.8484393203125,14.048410451171875C18.8484393203125,14.048410451171875,12.8484268203125,20.048423451171875,12.8484268203125,20.048423451171875C12.6233907203125,20.273423451171873,12.318218720312501,20.399783451171874,12.000026720312501,20.399783451171874C11.681822320312499,20.399783451171874,11.3766622203125,20.273423451171873,11.1516270203125,20.048423451171875C11.1516270203125,20.048423451171875,5.1516239003125,14.048410451171875,5.1516239003125,14.048410451171875C5.0370119203125,13.937710751171876,4.9455935403125,13.805291151171875,4.8827026043125,13.658890751171874C4.8198118023125,13.512491251171875,4.7867082043125,13.355027151171875,4.7853236288355,13.195691151171875C4.7839390483125,13.036355051171874,4.8143008013125,12.878338851171875,4.8746378873125,12.730858851171874C4.9349747303125,12.583390751171876,5.0240783203125,12.449398551171875,5.1367499203125,12.336730451171874C5.2494215703125,12.224062951171874,5.3834039603125,12.134962551171874,5.5308791403125,12.074615051171875C5.6783555103125,12.014278851171875,5.8363703203125,11.983918651171875,5.9957063203125,11.985310551171874C6.1550423203125,11.986690551171876,6.3125064203125,12.019798751171875,6.4589064203125,12.082678351171875C6.6053184203125,12.145570751171874,6.7377264203125,12.236998551171876,6.8484263203125,12.351610651171875C6.8484263203125,12.351610651171875,12.000026720312501,17.503223451171877,12.000026720312501,17.503223451171877C12.000026720312501,17.503223451171877,17.151639320312498,12.351610651171875,17.151639320312498,12.351610651171875C17.3766383203125,12.126646551171875,17.6817993203125,12.000262751171874,18.0000383203125,12.000262751171874C18.3182793203125,12.000262751171874,18.6234393203125,12.126646551171875,18.8484393203125,12.351610651171875C18.8484393203125,12.351610651171875,18.8484393203125,12.351610651171875,18.8484393203125,12.351610651171875C18.8484393203125,12.351610651171875,18.8484393203125,12.351610651171875,18.8484393203125,12.351610651171875Z" fill-rule="evenodd" fill="#0A0A28" fill-opacity="1"/></g></svg>