<svg xmlns="http://www.w3.org/2000/svg" xmlns:xlink="http://www.w3.org/1999/xlink" fill="none" version="1.1" width="24" height="24" viewBox="0 0 24 24"><defs><clipPath id="master_svg0_3_2005"><rect x="0" y="0" width="24" height="24" rx="0"/></clipPath></defs><g clip-path="url(#master_svg0_3_2005)"><path d="M4.29289299,10.292890100000001C3.90237,10.6834202,3.90237,11.3165798,4.29289299,11.707109899999999C4.68341699,12.0976295,5.31658301,12.0976295,5.70710701,11.707109899999999C5.70710701,11.707109899999999,4.29289299,10.292890100000001,4.29289299,10.292890100000001C4.29289299,10.292890100000001,4.29289299,10.292890100000001,4.29289299,10.292890100000001ZM12,4C12,4,12.707109899999999,3.29289299,12.707109899999999,3.29289299C12.3165798,2.90237,11.6834202,2.90237,11.292890100000001,3.29289299C11.292890100000001,3.29289299,12,4,12,4C12,4,12,4,12,4ZM18.2929,11.707109899999999C18.6834,12.0976295,19.3166,12.0976295,19.7071,11.707109899999999C20.0976,11.3165798,20.0976,10.6834202,19.7071,10.292890100000001C19.7071,10.292890100000001,18.2929,11.707109899999999,18.2929,11.707109899999999C18.2929,11.707109899999999,18.2929,11.707109899999999,18.2929,11.707109899999999ZM4.29289299,18.2929C3.90237,18.6834,3.90237,19.3166,4.29289299,19.7071C4.68341699,20.097601,5.31658301,20.097601,5.70710701,19.7071C5.70710701,19.7071,4.29289299,18.2929,4.29289299,18.2929C4.29289299,18.2929,4.29289299,18.2929,4.29289299,18.2929ZM12,12C12,12,12.707109899999999,11.292890100000001,12.707109899999999,11.292890100000001C12.3165798,10.902370000000001,11.6834202,10.902370000000001,11.292890100000001,11.292890100000001C11.292890100000001,11.292890100000001,12,12,12,12C12,12,12,12,12,12ZM18.2929,19.7071C18.6834,20.097601,19.3166,20.097601,19.7071,19.7071C20.0976,19.3166,20.0976,18.6834,19.7071,18.2929C19.7071,18.2929,18.2929,19.7071,18.2929,19.7071C18.2929,19.7071,18.2929,19.7071,18.2929,19.7071ZM5.70710701,11.707109899999999C5.70710701,11.707109899999999,12.707109899999999,4.70710701,12.707109899999999,4.70710701C12.707109899999999,4.70710701,11.292890100000001,3.29289299,11.292890100000001,3.29289299C11.292890100000001,3.29289299,4.29289299,10.292890100000001,4.29289299,10.292890100000001C4.29289299,10.292890100000001,5.70710701,11.707109899999999,5.70710701,11.707109899999999C5.70710701,11.707109899999999,5.70710701,11.707109899999999,5.70710701,11.707109899999999ZM11.292890100000001,4.70710701C11.292890100000001,4.70710701,18.2929,11.707109899999999,18.2929,11.707109899999999C18.2929,11.707109899999999,19.7071,10.292890100000001,19.7071,10.292890100000001C19.7071,10.292890100000001,12.707109899999999,3.29289299,12.707109899999999,3.29289299C12.707109899999999,3.29289299,11.292890100000001,4.70710701,11.292890100000001,4.70710701C11.292890100000001,4.70710701,11.292890100000001,4.70710701,11.292890100000001,4.70710701ZM5.70710701,19.7071C5.70710701,19.7071,12.707109899999999,12.7071104,12.707109899999999,12.7071104C12.707109899999999,12.7071104,11.292890100000001,11.292890100000001,11.292890100000001,11.292890100000001C11.292890100000001,11.292890100000001,4.29289299,18.2929,4.29289299,18.2929C4.29289299,18.2929,5.70710701,19.7071,5.70710701,19.7071C5.70710701,19.7071,5.70710701,19.7071,5.70710701,19.7071ZM11.292890100000001,12.7071104C11.292890100000001,12.7071104,18.2929,19.7071,18.2929,19.7071C18.2929,19.7071,19.7071,18.2929,19.7071,18.2929C19.7071,18.2929,12.707109899999999,11.292890100000001,12.707109899999999,11.292890100000001C12.707109899999999,11.292890100000001,11.292890100000001,12.7071104,11.292890100000001,12.7071104C11.292890100000001,12.7071104,11.292890100000001,12.7071104,11.292890100000001,12.7071104Z" fill="#0A0A28" fill-opacity="1"/></g></svg>