<svg xmlns="http://www.w3.org/2000/svg" xmlns:xlink="http://www.w3.org/1999/xlink" fill="none" version="1.1" width="24" height="24" viewBox="0 0 24 24"><defs><clipPath id="master_svg0_3_1934"><rect x="0" y="0" width="24" height="24" rx="0"/></clipPath></defs><g clip-path="url(#master_svg0_3_1934)"><path d="M9.70710701,4.29289299C9.31658301,3.90237,8.68341699,3.90237,8.29289299,4.29289299C7.9023699999999995,4.68341699,7.9023699999999995,5.31658301,8.29289299,5.70710701C8.29289299,5.70710701,9.70710701,4.29289299,9.70710701,4.29289299C9.70710701,4.29289299,9.70710701,4.29289299,9.70710701,4.29289299ZM16,12C16,12,16.7071099,12.707109899999999,16.7071099,12.707109899999999C17.0976295,12.3165798,17.0976295,11.6834202,16.7071099,11.292890100000001C16.7071099,11.292890100000001,16,12,16,12C16,12,16,12,16,12ZM8.29289299,18.2929C7.9023699999999995,18.6834,7.9023699999999995,19.3166,8.29289299,19.7071C8.68341699,20.0976,9.31658301,20.0976,9.70710701,19.7071C9.70710701,19.7071,8.29289299,18.2929,8.29289299,18.2929C8.29289299,18.2929,8.29289299,18.2929,8.29289299,18.2929ZM8.29289299,5.70710701C8.29289299,5.70710701,15.292890100000001,12.707109899999999,15.292890100000001,12.707109899999999C15.292890100000001,12.707109899999999,16.7071099,11.292890100000001,16.7071099,11.292890100000001C16.7071099,11.292890100000001,9.70710701,4.29289299,9.70710701,4.29289299C9.70710701,4.29289299,8.29289299,5.70710701,8.29289299,5.70710701C8.29289299,5.70710701,8.29289299,5.70710701,8.29289299,5.70710701ZM15.292890100000001,11.292890100000001C15.292890100000001,11.292890100000001,8.29289299,18.2929,8.29289299,18.2929C8.29289299,18.2929,9.70710701,19.7071,9.70710701,19.7071C9.70710701,19.7071,16.7071099,12.707109899999999,16.7071099,12.707109899999999C16.7071099,12.707109899999999,15.292890100000001,11.292890100000001,15.292890100000001,11.292890100000001C15.292890100000001,11.292890100000001,15.292890100000001,11.292890100000001,15.292890100000001,11.292890100000001Z" fill="#0A0A28" fill-opacity="1"/></g></svg>