<svg xmlns="http://www.w3.org/2000/svg" xmlns:xlink="http://www.w3.org/1999/xlink" fill="none" version="1.1" width="24" height="24" viewBox="0 0 24 24"><defs><clipPath id="master_svg0_3_1928"><rect x="0" y="0" width="24" height="24" rx="0"/></clipPath></defs><g clip-path="url(#master_svg0_3_1928)"><path d="M4.29289299,14.292890100000001C3.90237,14.6834202,3.90237,15.3165798,4.29289299,15.707109899999999C4.68341699,16.0976295,5.31658301,16.0976295,5.70710701,15.707109899999999C5.70710701,15.707109899999999,4.29289299,14.292890100000001,4.29289299,14.292890100000001C4.29289299,14.292890100000001,4.29289299,14.292890100000001,4.29289299,14.292890100000001ZM12,8C12,8,12.707109899999999,7.29289299,12.707109899999999,7.29289299C12.3165798,6.9023699999999995,11.6834202,6.9023699999999995,11.292890100000001,7.29289299C11.292890100000001,7.29289299,12,8,12,8C12,8,12,8,12,8ZM18.2929,15.707109899999999C18.6834,16.0976295,19.3166,16.0976295,19.7071,15.707109899999999C20.0976,15.3165798,20.0976,14.6834202,19.7071,14.292890100000001C19.7071,14.292890100000001,18.2929,15.707109899999999,18.2929,15.707109899999999C18.2929,15.707109899999999,18.2929,15.707109899999999,18.2929,15.707109899999999ZM5.70710701,15.707109899999999C5.70710701,15.707109899999999,12.707109899999999,8.70710701,12.707109899999999,8.70710701C12.707109899999999,8.70710701,11.292890100000001,7.29289299,11.292890100000001,7.29289299C11.292890100000001,7.29289299,4.29289299,14.292890100000001,4.29289299,14.292890100000001C4.29289299,14.292890100000001,5.70710701,15.707109899999999,5.70710701,15.707109899999999C5.70710701,15.707109899999999,5.70710701,15.707109899999999,5.70710701,15.707109899999999ZM11.292890100000001,8.70710701C11.292890100000001,8.70710701,18.2929,15.707109899999999,18.2929,15.707109899999999C18.2929,15.707109899999999,19.7071,14.292890100000001,19.7071,14.292890100000001C19.7071,14.292890100000001,12.707109899999999,7.29289299,12.707109899999999,7.29289299C12.707109899999999,7.29289299,11.292890100000001,8.70710701,11.292890100000001,8.70710701C11.292890100000001,8.70710701,11.292890100000001,8.70710701,11.292890100000001,8.70710701Z" fill="#0A0A28" fill-opacity="1"/></g></svg>