<svg xmlns="http://www.w3.org/2000/svg" xmlns:xlink="http://www.w3.org/1999/xlink" fill="none" version="1.1" width="24" height="24" viewBox="0 0 24 24"><defs><clipPath id="master_svg0_3_1605"><rect x="0" y="0" width="24" height="24" rx="0"/></clipPath></defs><g clip-path="url(#master_svg0_3_1605)"><path d="M5.15163737875,18.848411244140625C4.92667217875,18.623411244140627,4.80029296875,18.318251244140626,4.80029296875,18.000010244140626C4.800292968749999,17.681771244140627,4.92667217875,17.376611244140626,5.15163737875,17.151610244140628C5.15163737875,17.151610244140628,11.15164136875,11.151598444140625,11.15164136875,11.151598444140625C11.37666506875,10.926634344140625,11.68183756875,10.800250544140624,12.00004146875,10.800250544140624C12.31823296875,10.800250544140624,12.62340496875,10.926634344140625,12.84844116875,11.151598444140625C12.84844116875,11.151598444140625,18.848454968749998,17.151610244140628,18.848454968749998,17.151610244140628C19.06697396875,17.377930244140625,19.187933968750002,17.681051244140626,19.185293968750003,17.995690244140626C19.18253296875,18.310330244140623,19.056293968749998,18.611291244140624,18.83381396875,18.833771244140625C18.61133396875,19.056250244140625,18.310372968750002,19.182490244140624,17.995732968749998,19.185251244140623C17.681093968749998,19.187891244140623,17.37797296875,19.066931244140626,17.15165296875,18.848411244140625C17.15165296875,18.848411244140625,12.00004146875,13.696798244140625,12.00004146875,13.696798244140625C12.00004146875,13.696798244140625,6.84844116875,18.848411244140625,6.84844116875,18.848411244140625C6.6234050687499995,19.073411244140623,6.31823316875,19.199771244140624,6.00003626875,19.199771244140624C5.68183940875,19.199771244140624,5.37666976875,19.073411244140623,5.15163737875,18.848411244140625C5.15163737875,18.848411244140625,5.15163737875,18.848411244140625,5.15163737875,18.848411244140625C5.15163737875,18.848411244140625,5.15163737875,18.848411244140625,5.15163737875,18.848411244140625ZM5.15163737875,11.648398444140625C4.92667217875,11.423362244140625,4.80029296875,11.118190244140624,4.80029296875,10.799998744140625C4.800292968749999,10.481794844140625,4.92667217875,10.176622344140625,5.15163737875,9.951598644140624C5.15163737875,9.951598644140624,11.15164136875,3.951593454140625,11.15164136875,3.951593454140625C11.37666506875,3.726628244140625,11.68183756875,3.6002502441406254,12.00004146875,3.600250244140625C12.31823296875,3.600250244140625,12.62340496875,3.726628244140625,12.84844116875,3.951593454140625C12.84844116875,3.951593454140625,18.848454968749998,9.951598644140624,18.848454968749998,9.951598644140624C19.06697396875,10.177918444140625,19.187933968750002,10.481038544140624,19.185293968750003,10.795678644140626C19.18253296875,11.110306244140624,19.056293968749998,11.411290644140625,18.83381396875,11.633770944140625C18.61133396875,11.856263144140625,18.310372968750002,11.982466744140625,17.995732968749998,11.985202744140626C17.681093968749998,11.987938844140626,17.37797296875,11.866978644140625,17.15165296875,11.648398444140625C17.15165296875,11.648398444140625,12.00004146875,6.496798244140625,12.00004146875,6.496798244140625C12.00004146875,6.496798244140625,6.84844116875,11.648398444140625,6.84844116875,11.648398444140625C6.6234050687499995,11.873362544140624,6.31823316875,11.999734844140624,6.00003626875,11.999734844140624C5.68183940875,11.999734844140624,5.37666976875,11.873362544140624,5.15163737875,11.648398444140625C5.15163737875,11.648398444140625,5.15163737875,11.648398444140625,5.15163737875,11.648398444140625C5.15163737875,11.648398444140625,5.15163737875,11.648398444140625,5.15163737875,11.648398444140625Z" fill-rule="evenodd" fill="#0A0A28" fill-opacity="1"/></g></svg>