<svg xmlns="http://www.w3.org/2000/svg" xmlns:xlink="http://www.w3.org/1999/xlink" fill="none" version="1.1" width="24" height="24" viewBox="0 0 24 24"><defs><clipPath id="master_svg0_3_1793"><rect x="0" y="0" width="24" height="24" rx="0"/></clipPath></defs><g clip-path="url(#master_svg0_3_1793)"><path d="M18.84844176171875,18.848408802734376C18.62344176171875,19.073408802734377,18.31828176171875,19.199768802734376,18.00004076171875,19.199768802734376C17.681801761718752,19.199768802734376,17.37664176171875,19.073408802734377,17.151640761718753,18.848408802734376C17.151640761718753,18.848408802734376,11.15162896171875,12.848396302734375,11.15162896171875,12.848396302734375C10.92666486171875,12.623360202734375,10.80028106171875,12.318188202734376,10.80028106171875,11.999996202734376C10.80028106171875,11.681791802734374,10.92666486171875,11.376631702734375,11.15162896171875,11.151596502734375C11.15162896171875,11.151596502734375,17.151640761718753,5.151593382734375,17.151640761718753,5.151593382734375C17.26228176171875,5.036981402734375,17.394761761718748,4.945563022734375,17.541161761718747,4.882672086734375C17.68756076171875,4.819781284734375,17.84500076171875,4.786677686734375,18.00436076171875,4.785293111257375C18.16372076171875,4.783908530734375,18.32164176171875,4.814270283734375,18.46912176171875,4.874607369734375C18.616601761718748,4.934944212734375,18.75064176171875,5.024047802734375,18.86332176171875,5.136719402734375C18.97600076171875,5.249391052734375,19.06504076171875,5.383373442734375,19.12540176171875,5.530848622734375C19.18576176171875,5.678324992734375,19.21612076171875,5.836339802734375,19.21468176171875,5.995675802734375C19.21336076171875,6.155011802734375,19.18024176171875,6.312475902734375,19.11736076171875,6.458875902734375C19.054481761718748,6.605287902734375,18.96304176171875,6.737695902734375,18.84844176171875,6.848395802734375C18.84844176171875,6.848395802734375,13.69682876171875,11.999996202734376,13.69682876171875,11.999996202734376C13.69682876171875,11.999996202734376,18.84844176171875,17.151608802734373,18.84844176171875,17.151608802734373C19.073441761718748,17.376607802734377,19.19980176171875,17.681768802734375,19.19980176171875,18.000007802734373C19.19980176171875,18.318248802734374,19.073441761718748,18.623408802734374,18.84844176171875,18.848408802734376C18.84844176171875,18.848408802734376,18.84844176171875,18.848408802734376,18.84844176171875,18.848408802734376C18.84844176171875,18.848408802734376,18.84844176171875,18.848408802734376,18.84844176171875,18.848408802734376ZM11.64842896171875,18.848408802734376C11.42339276171875,19.073408802734377,11.11822076171875,19.199768802734376,10.80002926171875,19.199768802734376C10.48182536171875,19.199768802734376,10.17665286171875,19.073408802734377,9.95162916171875,18.848408802734376C9.95162916171875,18.848408802734376,3.95162397171875,12.848396302734375,3.95162397171875,12.848396302734375C3.72665876171875,12.623360202734375,3.6002807617187504,12.318188202734376,3.60028076171875,11.999996202734376C3.6002807617187496,11.681791802734374,3.72665876171875,11.376631702734375,3.95162397171875,11.151596502734375C3.95162397171875,11.151596502734375,9.95162916171875,5.151593382734375,9.95162916171875,5.151593382734375C10.17794896171875,4.933003812734375,10.481069061718749,4.812050403734375,10.79570916171875,4.814784483734375C11.110336761718749,4.817518684734375,11.41132116171875,4.943722222734375,11.63380146171875,5.166211842734375C11.85629366171875,5.388701442734375,11.98249726171875,5.689675862734375,11.98523326171875,6.004315902734375C11.98796936171875,6.318943902734375,11.86700916171875,6.622075802734375,11.64842896171875,6.848395802734375C11.64842896171875,6.848395802734375,6.49682876171875,11.999996202734376,6.49682876171875,11.999996202734376C6.49682876171875,11.999996202734376,11.64842896171875,17.151608802734373,11.64842896171875,17.151608802734373C11.87339306171875,17.376607802734377,11.99976536171875,17.681768802734375,11.99976536171875,18.000007802734373C11.99976536171875,18.318248802734374,11.87339306171875,18.623408802734374,11.64842896171875,18.848408802734376C11.64842896171875,18.848408802734376,11.64842896171875,18.848408802734376,11.64842896171875,18.848408802734376C11.64842896171875,18.848408802734376,11.64842896171875,18.848408802734376,11.64842896171875,18.848408802734376Z" fill-rule="evenodd" fill="#0A0A28" fill-opacity="1"/></g></svg>