<svg xmlns="http://www.w3.org/2000/svg" xmlns:xlink="http://www.w3.org/1999/xlink" fill="none" version="1.1" width="24" height="24" viewBox="0 0 24 24"><defs><clipPath id="master_svg0_3_2368"><rect x="0" y="0" width="24" height="24" rx="0"/></clipPath></defs><g clip-path="url(#master_svg0_3_2368)"><path d="M14.292890100000001,19.7071C14.6834202,20.0976,15.3165798,20.0976,15.707109899999999,19.7071C16.0976295,19.3166,16.0976295,18.6834,15.707109899999999,18.2929C15.707109899999999,18.2929,14.292890100000001,19.7071,14.292890100000001,19.7071C14.292890100000001,19.7071,14.292890100000001,19.7071,14.292890100000001,19.7071ZM8,12C8,12,7.29289299,11.292890100000001,7.29289299,11.292890100000001C6.9023699999999995,11.6834202,6.9023699999999995,12.3165798,7.29289299,12.707109899999999C7.29289299,12.707109899999999,8,12,8,12C8,12,8,12,8,12ZM15.707109899999999,5.70710701C16.0976295,5.31658301,16.0976295,4.68341699,15.707109899999999,4.29289299C15.3165798,3.90237,14.6834202,3.90237,14.292890100000001,4.29289299C14.292890100000001,4.29289299,15.707109899999999,5.70710701,15.707109899999999,5.70710701C15.707109899999999,5.70710701,15.707109899999999,5.70710701,15.707109899999999,5.70710701ZM15.707109899999999,18.2929C15.707109899999999,18.2929,8.70710701,11.292890100000001,8.70710701,11.292890100000001C8.70710701,11.292890100000001,7.29289299,12.707109899999999,7.29289299,12.707109899999999C7.29289299,12.707109899999999,14.292890100000001,19.7071,14.292890100000001,19.7071C14.292890100000001,19.7071,15.707109899999999,18.2929,15.707109899999999,18.2929C15.707109899999999,18.2929,15.707109899999999,18.2929,15.707109899999999,18.2929ZM8.70710701,12.707109899999999C8.70710701,12.707109899999999,15.707109899999999,5.70710701,15.707109899999999,5.70710701C15.707109899999999,5.70710701,14.292890100000001,4.29289299,14.292890100000001,4.29289299C14.292890100000001,4.29289299,7.29289299,11.292890100000001,7.29289299,11.292890100000001C7.29289299,11.292890100000001,8.70710701,12.707109899999999,8.70710701,12.707109899999999C8.70710701,12.707109899999999,8.70710701,12.707109899999999,8.70710701,12.707109899999999Z" fill="#0A0A28" fill-opacity="1"/></g></svg>