<svg xmlns="http://www.w3.org/2000/svg" xmlns:xlink="http://www.w3.org/1999/xlink" fill="none" version="1.1" width="24" height="24" viewBox="0 0 24 24"><defs><clipPath id="master_svg0_3_2206"><rect x="0" y="0" width="24" height="24" rx="0"/></clipPath></defs><g clip-path="url(#master_svg0_3_2206)"><path d="M13.7071104,4.29289299C13.3165798,3.90237,12.6834202,3.90237,12.292890100000001,4.29289299C11.902370000000001,4.68341699,11.902370000000001,5.31658301,12.292890100000001,5.70710701C12.292890100000001,5.70710701,13.7071104,4.29289299,13.7071104,4.29289299C13.7071104,4.29289299,13.7071104,4.29289299,13.7071104,4.29289299ZM20,12C20,12,20.7071,12.707109899999999,20.7071,12.707109899999999C21.097601,12.3165798,21.097601,11.6834202,20.7071,11.292890100000001C20.7071,11.292890100000001,20,12,20,12C20,12,20,12,20,12ZM12.292890100000001,18.2929C11.902370000000001,18.6834,11.902370000000001,19.3166,12.292890100000001,19.7071C12.6834202,20.0976,13.3165798,20.0976,13.7071104,19.7071C13.7071104,19.7071,12.292890100000001,18.2929,12.292890100000001,18.2929C12.292890100000001,18.2929,12.292890100000001,18.2929,12.292890100000001,18.2929ZM5.70710701,4.29289299C5.31658301,3.90237,4.68341699,3.90237,4.29289299,4.29289299C3.90237,4.68341699,3.90237,5.31658301,4.29289299,5.70710701C4.29289299,5.70710701,5.70710701,4.29289299,5.70710701,4.29289299C5.70710701,4.29289299,5.70710701,4.29289299,5.70710701,4.29289299ZM12,12C12,12,12.707109899999999,12.707109899999999,12.707109899999999,12.707109899999999C13.0976295,12.3165798,13.0976295,11.6834202,12.707109899999999,11.292890100000001C12.707109899999999,11.292890100000001,12,12,12,12C12,12,12,12,12,12ZM4.29289299,18.2929C3.90237,18.6834,3.90237,19.3166,4.29289299,19.7071C4.68341699,20.0976,5.31658301,20.0976,5.70710701,19.7071C5.70710701,19.7071,4.29289299,18.2929,4.29289299,18.2929C4.29289299,18.2929,4.29289299,18.2929,4.29289299,18.2929ZM12.292890100000001,5.70710701C12.292890100000001,5.70710701,19.2929,12.707109899999999,19.2929,12.707109899999999C19.2929,12.707109899999999,20.7071,11.292890100000001,20.7071,11.292890100000001C20.7071,11.292890100000001,13.7071104,4.29289299,13.7071104,4.29289299C13.7071104,4.29289299,12.292890100000001,5.70710701,12.292890100000001,5.70710701C12.292890100000001,5.70710701,12.292890100000001,5.70710701,12.292890100000001,5.70710701ZM19.2929,11.292890100000001C19.2929,11.292890100000001,12.292890100000001,18.2929,12.292890100000001,18.2929C12.292890100000001,18.2929,13.7071104,19.7071,13.7071104,19.7071C13.7071104,19.7071,20.7071,12.707109899999999,20.7071,12.707109899999999C20.7071,12.707109899999999,19.2929,11.292890100000001,19.2929,11.292890100000001C19.2929,11.292890100000001,19.2929,11.292890100000001,19.2929,11.292890100000001ZM4.29289299,5.70710701C4.29289299,5.70710701,11.292890100000001,12.707109899999999,11.292890100000001,12.707109899999999C11.292890100000001,12.707109899999999,12.707109899999999,11.292890100000001,12.707109899999999,11.292890100000001C12.707109899999999,11.292890100000001,5.70710701,4.29289299,5.70710701,4.29289299C5.70710701,4.29289299,4.29289299,5.70710701,4.29289299,5.70710701C4.29289299,5.70710701,4.29289299,5.70710701,4.29289299,5.70710701ZM11.292890100000001,11.292890100000001C11.292890100000001,11.292890100000001,4.29289299,18.2929,4.29289299,18.2929C4.29289299,18.2929,5.70710701,19.7071,5.70710701,19.7071C5.70710701,19.7071,12.707109899999999,12.707109899999999,12.707109899999999,12.707109899999999C12.707109899999999,12.707109899999999,11.292890100000001,11.292890100000001,11.292890100000001,11.292890100000001C11.292890100000001,11.292890100000001,11.292890100000001,11.292890100000001,11.292890100000001,11.292890100000001Z" fill="#0A0A28" fill-opacity="1"/></g></svg>