<svg xmlns="http://www.w3.org/2000/svg" xmlns:xlink="http://www.w3.org/1999/xlink" fill="none" version="1.1" width="24" height="24" viewBox="0 0 24 24"><defs><clipPath id="master_svg0_3_2159"><rect x="0" y="0" width="24" height="24" rx="0"/></clipPath></defs><g clip-path="url(#master_svg0_3_2159)"><path d="M19.7071,9.70710701C20.0976,9.31658301,20.0976,8.68341699,19.7071,8.29289299C19.3166,7.9023699999999995,18.6834,7.9023699999999995,18.2929,8.29289299C18.2929,8.29289299,19.7071,9.70710701,19.7071,9.70710701C19.7071,9.70710701,19.7071,9.70710701,19.7071,9.70710701ZM12,16C12,16,11.292890100000001,16.7071099,11.292890100000001,16.7071099C11.6834202,17.0976295,12.3165798,17.0976295,12.707109899999999,16.7071099C12.707109899999999,16.7071099,12,16,12,16C12,16,12,16,12,16ZM5.70710701,8.29289299C5.31658301,7.9023699999999995,4.68341699,7.9023699999999995,4.29289299,8.29289299C3.90237,8.68341699,3.90237,9.31658301,4.29289299,9.70710701C4.29289299,9.70710701,5.70710701,8.29289299,5.70710701,8.29289299C5.70710701,8.29289299,5.70710701,8.29289299,5.70710701,8.29289299ZM18.2929,8.29289299C18.2929,8.29289299,11.292890100000001,15.292890100000001,11.292890100000001,15.292890100000001C11.292890100000001,15.292890100000001,12.707109899999999,16.7071099,12.707109899999999,16.7071099C12.707109899999999,16.7071099,19.7071,9.70710701,19.7071,9.70710701C19.7071,9.70710701,18.2929,8.29289299,18.2929,8.29289299C18.2929,8.29289299,18.2929,8.29289299,18.2929,8.29289299ZM12.707109899999999,15.292890100000001C12.707109899999999,15.292890100000001,5.70710701,8.29289299,5.70710701,8.29289299C5.70710701,8.29289299,4.29289299,9.70710701,4.29289299,9.70710701C4.29289299,9.70710701,11.292890100000001,16.7071099,11.292890100000001,16.7071099C11.292890100000001,16.7071099,12.707109899999999,15.292890100000001,12.707109899999999,15.292890100000001C12.707109899999999,15.292890100000001,12.707109899999999,15.292890100000001,12.707109899999999,15.292890100000001Z" fill="#0A0A28" fill-opacity="1"/></g></svg>