<svg xmlns="http://www.w3.org/2000/svg" xmlns:xlink="http://www.w3.org/1999/xlink" fill="none" version="1.1" width="24" height="24" viewBox="0 0 24 24"><defs><clipPath id="master_svg0_3_1668"><rect x="0" y="0" width="24" height="24" rx="0"/></clipPath></defs><g clip-path="url(#master_svg0_3_1668)"><path d="M15.2484168546875,6.351588550625C15.4733805546875,6.576620940625,15.5997528546875,6.881790580625,15.5997528546875,7.199987440625C15.5997528546875,7.518184340625,15.4733805546875,7.8233562406249995,15.2484168546875,8.048392340625C15.2484168546875,8.048392340625,11.2968165546875,11.999992340624999,11.2968165546875,11.999992340624999C11.2968165546875,11.999992340624999,15.2484168546875,15.951593440625,15.2484168546875,15.951593440625C15.466996654687499,16.177913140625,15.587956954687499,16.481032140625,15.585220854687499,16.795672140625C15.5824847546875,17.110300140625,15.456281154687499,17.411284140625,15.233788954687501,17.633764140625C15.011309154687499,17.856256140625,14.7103247546875,17.982460140625,14.3956966546875,17.985197140625C14.0810570546875,17.987933140625,13.777936954687501,17.866972140625002,13.5516166546875,17.648393140625C13.5516166546875,17.648393140625,8.7516129646875,12.848392440625,8.7516129646875,12.848392440625C8.5266477646875,12.623356340625,8.4002685546875,12.318184340624999,8.4002685546875,11.999992340624999C8.4002685546875,11.681788440624999,8.5266477646875,11.376616440625,8.7516129646875,11.151592240625C8.7516129646875,11.151592240625,13.5516166546875,6.351588550625,13.5516166546875,6.351588550625C13.7766408546875,6.126623350625,14.081812854687499,6.000244140625,14.400016754687499,6.000244140625C14.718208754687499,6.000244140625,15.0233807546875,6.126623350625,15.2484168546875,6.351588550625C15.2484168546875,6.351588550625,15.2484168546875,6.351588550625,15.2484168546875,6.351588550625C15.2484168546875,6.351588550625,15.2484168546875,6.351588550625,15.2484168546875,6.351588550625Z" fill-rule="evenodd" fill="#0A0A28" fill-opacity="1"/></g></svg>