<svg xmlns="http://www.w3.org/2000/svg" xmlns:xlink="http://www.w3.org/1999/xlink" fill="none" version="1.1" width="24" height="24" viewBox="0 0 24 24"><defs><clipPath id="master_svg0_3_1994"><rect x="0" y="0" width="24" height="24" rx="0"/></clipPath></defs><g clip-path="url(#master_svg0_3_1994)"><path d="M10,3C10,2.4477149799999998,9.5522799,2,9,2C8.4477201,2,8,2.4477149799999998,8,3C8,3,10,3,10,3C10,3,10,3,10,3ZM8,5C8,5.5522799,8.4477201,6,9,6C9.5522799,6,10,5.5522799,10,5C10,5,8,5,8,5C8,5,8,5,8,5ZM16,3C16,2.4477149799999998,15.5523,2,15,2C14.4477,2,14,2.4477149799999998,14,3C14,3,16,3,16,3C16,3,16,3,16,3ZM14,5C14,5.5522799,14.4477,6,15,6C15.5523,6,16,5.5522799,16,5C16,5,14,5,14,5C14,5,14,5,14,5ZM10,19C10,18.447699999999998,9.5522799,18,9,18C8.4477201,18,8,18.447699999999998,8,19C8,19,10,19,10,19C10,19,10,19,10,19ZM8,21C8,21.552299,8.4477201,22,9,22C9.5522799,22,10,21.552299,10,21C10,21,8,21,8,21C8,21,8,21,8,21ZM16,19C16,18.447699999999998,15.5523,18,15,18C14.4477,18,14,18.447699999999998,14,19C14,19,16,19,16,19C16,19,16,19,16,19ZM14,21C14,21.552299,14.4477,22,15,22C15.5523,22,16,21.552299,16,21C16,21,14,21,14,21C14,21,14,21,14,21ZM5,10C5.5522799,10,6,9.5522799,6,9C6,8.4477201,5.5522799,8,5,8C5,8,5,10,5,10C5,10,5,10,5,10ZM3,8C2.4477149799999998,8,2,8.4477201,2,9C2,9.5522799,2.4477149799999998,10,3,10C3,10,3,8,3,8C3,8,3,8,3,8ZM5,16C5.5522799,16,6,15.5523,6,15C6,14.4477,5.5522799,14,5,14C5,14,5,16,5,16C5,16,5,16,5,16ZM3,14C2.4477149799999998,14,2,14.4477,2,15C2,15.5523,2.4477149799999998,16,3,16C3,16,3,14,3,14C3,14,3,14,3,14ZM21,10C21.552299,10,22,9.5522799,22,9C22,8.4477201,21.552299,8,21,8C21,8,21,10,21,10C21,10,21,10,21,10ZM19,8C18.447699999999998,8,18,8.4477201,18,9C18,9.5522799,18.447699999999998,10,19,10C19,10,19,8,19,8C19,8,19,8,19,8ZM21,16C21.552299,16,22,15.5523,22,15C22,14.4477,21.552299,14,21,14C21,14,21,16,21,16C21,16,21,16,21,16ZM19,14C18.447699999999998,14,18,14.4477,18,15C18,15.5523,18.447699999999998,16,19,16C19,16,19,14,19,14C19,14,19,14,19,14ZM17,5C17,5,17,4,17,4C17,4,17,5,17,5C17,5,17,5,17,5ZM7,5C7,5,7,4,7,4C7,4,7,5,7,5C7,5,7,5,7,5ZM5,7C5,7,4,7,4,7C4,7,5,7,5,7C5,7,5,7,5,7ZM5,17C5,17,4,17,4,17C4,17,5,17,5,17C5,17,5,17,5,17ZM9,9C9,9,9,8,9,8C8.4477201,8,8,8.4477201,8,9C8,9,9,9,9,9C9,9,9,9,9,9ZM15,9C15,9,16,9,16,9C16,8.4477201,15.5523,8,15,8C15,8,15,9,15,9C15,9,15,9,15,9ZM15,15C15,15,15,16,15,16C15.5523,16,16,15.5523,16,15C16,15,15,15,15,15C15,15,15,15,15,15ZM9,15C9,15,8,15,8,15C8,15.5523,8.4477201,16,9,16C9,16,9,15,9,15C9,15,9,15,9,15ZM8,3C8,3,8,5,8,5C8,5,10,5,10,5C10,5,10,3,10,3C10,3,8,3,8,3C8,3,8,3,8,3ZM14,3C14,3,14,5,14,5C14,5,16,5,16,5C16,5,16,3,16,3C16,3,14,3,14,3C14,3,14,3,14,3ZM8,19C8,19,8,21,8,21C8,21,10,21,10,21C10,21,10,19,10,19C10,19,8,19,8,19C8,19,8,19,8,19ZM14,19C14,19,14,21,14,21C14,21,16,21,16,21C16,21,16,19,16,19C16,19,14,19,14,19C14,19,14,19,14,19ZM5,8C5,8,3,8,3,8C3,8,3,10,3,10C3,10,5,10,5,10C5,10,5,8,5,8C5,8,5,8,5,8ZM5,14C5,14,3,14,3,14C3,14,3,16,3,16C3,16,5,16,5,16C5,16,5,14,5,14C5,14,5,14,5,14ZM21,8C21,8,19,8,19,8C19,8,19,10,19,10C19,10,21,10,21,10C21,10,21,8,21,8C21,8,21,8,21,8ZM21,14C21,14,19,14,19,14C19,14,19,16,19,16C19,16,21,16,21,16C21,16,21,14,21,14C21,14,21,14,21,14ZM7,20C7,20,17,20,17,20C17,20,17,18,17,18C17,18,7,18,7,18C7,18,7,20,7,20C7,20,7,20,7,20ZM17,20C17.7957,20,18.5587,19.683901,19.1213,19.1213C19.1213,19.1213,17.7071,17.7071,17.7071,17.7071C17.5196,17.8946,17.2652,18,17,18C17,18,17,20,17,20C17,20,17,20,17,20ZM19.1213,19.1213C19.683901,18.5587,20,17.7957,20,17C20,17,18,17,18,17C18,17.2652,17.8946,17.5196,17.7071,17.7071C17.7071,17.7071,19.1213,19.1213,19.1213,19.1213C19.1213,19.1213,19.1213,19.1213,19.1213,19.1213ZM20,17C20,17,20,7,20,7C20,7,18,7,18,7C18,7,18,17,18,17C18,17,20,17,20,17C20,17,20,17,20,17ZM20,7C20,6.20435,19.683901,5.4412899,19.1213,4.87868C19.1213,4.87868,17.7071,6.2928901,17.7071,6.2928901C17.8946,6.4804299,18,6.7347801,18,7C18,7,20,7,20,7C20,7,20,7,20,7ZM19.1213,4.87868C18.5587,4.31607,17.7956,4,17,4C17,4,17,6,17,6C17.2652,6,17.5196,6.10536,17.7071,6.2928901C17.7071,6.2928901,19.1213,4.87868,19.1213,4.87868C19.1213,4.87868,19.1213,4.87868,19.1213,4.87868ZM17,4C17,4,7,4,7,4C7,4,7,6,7,6C7,6,17,6,17,6C17,6,17,4,17,4C17,4,17,4,17,4ZM7,4C6.20435,4,5.4412899,4.31607,4.87868,4.87868C4.87868,4.87868,6.2928901,6.2928901,6.2928901,6.2928901C6.4804299,6.10536,6.7347801,6,7,6C7,6,7,4,7,4C7,4,7,4,7,4ZM4.87868,4.87868C4.31607,5.4412899,4,6.20435,4,7C4,7,6,7,6,7C6,6.7347801,6.10536,6.4804299,6.2928901,6.2928901C6.2928901,6.2928901,4.87868,4.87868,4.87868,4.87868C4.87868,4.87868,4.87868,4.87868,4.87868,4.87868ZM4,7C4,7,4,17,4,17C4,17,6,17,6,17C6,17,6,7,6,7C6,7,4,7,4,7C4,7,4,7,4,7ZM4,17C4,17.7956,4.31607,18.5587,4.87868,19.1213C4.87868,19.1213,6.2928901,17.7071,6.2928901,17.7071C6.10536,17.5196,6,17.2652,6,17C6,17,4,17,4,17C4,17,4,17,4,17ZM4.87868,19.1213C5.4412899,19.683901,6.20435,20,7,20C7,20,7,18,7,18C6.7347801,18,6.4804299,17.8946,6.2928901,17.7071C6.2928901,17.7071,4.87868,19.1213,4.87868,19.1213C4.87868,19.1213,4.87868,19.1213,4.87868,19.1213ZM9,10C9,10,15,10,15,10C15,10,15,8,15,8C15,8,9,8,9,8C9,8,9,10,9,10C9,10,9,10,9,10ZM14,9C14,9,14,15,14,15C14,15,16,15,16,15C16,15,16,9,16,9C16,9,14,9,14,9C14,9,14,9,14,9ZM15,14C15,14,9,14,9,14C9,14,9,16,9,16C9,16,15,16,15,16C15,16,15,14,15,14C15,14,15,14,15,14ZM10,15C10,15,10,9,10,9C10,9,8,9,8,9C8,9,8,15,8,15C8,15,10,15,10,15C10,15,10,15,10,15Z" fill="#0A0A28" fill-opacity="1"/></g></svg>