<svg xmlns="http://www.w3.org/2000/svg" xmlns:xlink="http://www.w3.org/1999/xlink" fill="none" version="1.1" width="24" height="24" viewBox="0 0 24 24"><defs><clipPath id="master_svg0_3_1795"><rect x="0" y="0" width="24" height="24" rx="0"/></clipPath></defs><g clip-path="url(#master_svg0_3_1795)"><path d="M15.599994196484374,8.399993896484375C15.599994196484374,8.399993896484375,8.399993896484375,8.399993896484375,8.399993896484375,8.399993896484375C8.399993896484375,8.399993896484375,8.399993896484375,15.599994196484374,8.399993896484375,15.599994196484374C8.399993896484375,15.599994196484374,15.599994196484374,15.599994196484374,15.599994196484374,15.599994196484374C15.599994196484374,15.599994196484374,15.599994196484374,8.399993896484375,15.599994196484374,8.399993896484375C15.599994196484374,8.399993896484375,15.599994196484374,8.399993896484375,15.599994196484374,8.399993896484375Z" fill="#0A0A28" fill-opacity="1"/><path d="M8.40001250703125,2.40001220703125C8.40001250703125,2.08175307703125,8.52644440703125,1.77652823703125,8.751480607031251,1.55148380703125C8.97652860703125,1.32644061703125,9.28174880703125,1.2000122070312502,9.60001280703125,1.20001220703125C9.91827680703125,1.2000122070312504,10.22349640703125,1.32644061703125,10.44854450703125,1.55148380703125C10.67358020703125,1.77652823703125,10.80001260703125,2.08175307703125,10.80001260703125,2.40001220703125C10.80001260703125,2.40001220703125,10.80001260703125,3.60001230703125,10.80001260703125,3.60001230703125C10.80001260703125,3.60001230703125,13.20001220703125,3.60001230703125,13.20001220703125,3.60001230703125C13.20001220703125,3.60001230703125,13.20001220703125,2.40001220703125,13.20001220703125,2.40001220703125C13.20001220703125,2.08175307703125,13.32649320703125,1.77652823703125,13.55149220703125,1.55148380703125C13.77649320703125,1.32644061703125,14.08177320703125,1.2000122070312502,14.40001320703125,1.20001220703125C14.71825220703125,1.2000122070312504,15.02353320703125,1.32644061703125,15.24853220703125,1.55148380703125C15.47353220703125,1.77652823703125,15.60001320703125,2.08175307703125,15.60001320703125,2.40001220703125C15.60001320703125,2.40001220703125,15.60001320703125,3.60001230703125,15.60001320703125,3.60001230703125C15.60001320703125,3.60001230703125,18.00001320703125,3.60001230703125,18.00001320703125,3.60001230703125C18.63649320703125,3.60001230703125,19.24693320703125,3.85286430703125,19.69705220703125,4.30296020703125C20.14717320703125,4.7530444070312505,20.40001320703125,5.36349630703125,20.40001320703125,6.00001240703125C20.40001320703125,6.00001240703125,20.40001320703125,8.40001250703125,20.40001320703125,8.40001250703125C20.40001320703125,8.40001250703125,21.60001420703125,8.40001250703125,21.60001420703125,8.40001250703125C21.91825320703125,8.40001250703125,22.22353320703125,8.52644440703125,22.44853220703125,8.751480607031251C22.67353220703125,8.97652860703125,22.80001220703125,9.28174880703125,22.80001220703125,9.60001280703125C22.80001220703125,9.91827680703125,22.67353220703125,10.22349640703125,22.44853220703125,10.44854450703125C22.22353320703125,10.67358020703125,21.91825320703125,10.80001260703125,21.60001420703125,10.80001260703125C21.60001420703125,10.80001260703125,20.40001320703125,10.80001260703125,20.40001320703125,10.80001260703125C20.40001320703125,10.80001260703125,20.40001320703125,13.20001220703125,20.40001320703125,13.20001220703125C20.40001320703125,13.20001220703125,21.60001420703125,13.20001220703125,21.60001420703125,13.20001220703125C21.91825320703125,13.20001220703125,22.22353320703125,13.32649320703125,22.44853220703125,13.55149220703125C22.67353220703125,13.77649320703125,22.80001220703125,14.08177320703125,22.80001220703125,14.40001320703125C22.80001220703125,14.71825220703125,22.67353220703125,15.02353320703125,22.44853220703125,15.24853220703125C22.22353320703125,15.47353220703125,21.91825320703125,15.60001320703125,21.60001420703125,15.60001320703125C21.60001420703125,15.60001320703125,20.40001320703125,15.60001320703125,20.40001320703125,15.60001320703125C20.40001320703125,15.60001320703125,20.40001320703125,18.00001320703125,20.40001320703125,18.00001320703125C20.40001320703125,18.63649320703125,20.14717320703125,19.24693320703125,19.69705220703125,19.69705220703125C19.24693320703125,20.14717320703125,18.63649320703125,20.40001320703125,18.00001320703125,20.40001320703125C18.00001320703125,20.40001320703125,15.60001320703125,20.40001320703125,15.60001320703125,20.40001320703125C15.60001320703125,20.40001320703125,15.60001320703125,21.60001420703125,15.60001320703125,21.60001420703125C15.60001320703125,21.91825320703125,15.47353220703125,22.22353320703125,15.24853220703125,22.44853220703125C15.02353320703125,22.67353220703125,14.71825220703125,22.80001220703125,14.40001320703125,22.80001220703125C14.08177320703125,22.80001220703125,13.77649320703125,22.67353220703125,13.55149220703125,22.44853220703125C13.32649320703125,22.22353320703125,13.20001220703125,21.91825320703125,13.20001220703125,21.60001420703125C13.20001220703125,21.60001420703125,13.20001220703125,20.40001320703125,13.20001220703125,20.40001320703125C13.20001220703125,20.40001320703125,10.80001260703125,20.40001320703125,10.80001260703125,20.40001320703125C10.80001260703125,20.40001320703125,10.80001260703125,21.60001420703125,10.80001260703125,21.60001420703125C10.80001260703125,21.91825320703125,10.67358020703125,22.22353320703125,10.44854450703125,22.44853220703125C10.22349640703125,22.67353220703125,9.91827680703125,22.80001220703125,9.60001280703125,22.80001220703125C9.28174880703125,22.80001220703125,8.97652860703125,22.67353220703125,8.751480607031251,22.44853220703125C8.52644440703125,22.22353320703125,8.40001250703125,21.91825320703125,8.40001250703125,21.60001420703125C8.40001250703125,21.60001420703125,8.40001250703125,20.40001320703125,8.40001250703125,20.40001320703125C8.40001250703125,20.40001320703125,6.00001240703125,20.40001320703125,6.00001240703125,20.40001320703125C5.36349630703125,20.40001320703125,4.7530444070312505,20.14717320703125,4.30296020703125,19.69705220703125C3.85286430703125,19.24693320703125,3.60001230703125,18.63649320703125,3.60001230703125,18.00001320703125C3.60001230703125,18.00001320703125,3.60001230703125,15.60001320703125,3.60001230703125,15.60001320703125C3.60001230703125,15.60001320703125,2.40001220703125,15.60001320703125,2.40001220703125,15.60001320703125C2.08175307703125,15.60001320703125,1.77652823703125,15.47353220703125,1.55148380703125,15.24853220703125C1.32644061703125,15.02353320703125,1.2000122070312502,14.71825220703125,1.20001220703125,14.40001320703125C1.2000122070312498,14.08177320703125,1.32644061703125,13.77649320703125,1.55148380703125,13.55149220703125C1.77652823703125,13.32649320703125,2.08175307703125,13.20001220703125,2.40001220703125,13.20001220703125C2.40001220703125,13.20001220703125,3.60001230703125,13.20001220703125,3.60001230703125,13.20001220703125C3.60001230703125,13.20001220703125,3.60001230703125,10.80001260703125,3.60001230703125,10.80001260703125C3.60001230703125,10.80001260703125,2.40001220703125,10.80001260703125,2.40001220703125,10.80001260703125C2.08175307703125,10.80001260703125,1.77652823703125,10.67358020703125,1.55148380703125,10.44854450703125C1.32644061703125,10.22349640703125,1.2000122070312502,9.91827680703125,1.20001220703125,9.60001280703125C1.2000122070312498,9.28174880703125,1.32644061703125,8.97652860703125,1.55148380703125,8.751480607031251C1.77652823703125,8.52644440703125,2.08175307703125,8.40001250703125,2.40001220703125,8.40001250703125C2.40001220703125,8.40001250703125,3.60001230703125,8.40001250703125,3.60001230703125,8.40001250703125C3.60001230703125,8.40001250703125,3.60001230703125,6.00001240703125,3.60001230703125,6.00001240703125C3.60001230703125,5.36349630703125,3.85286430703125,4.7530444070312505,4.30296020703125,4.30296020703125C4.7530444070312505,3.85286430703125,5.36349630703125,3.60001230703125,6.00001240703125,3.60001230703125C6.00001240703125,3.60001230703125,8.40001250703125,3.60001230703125,8.40001250703125,3.60001230703125C8.40001250703125,3.60001230703125,8.40001250703125,2.40001220703125,8.40001250703125,2.40001220703125C8.40001250703125,2.40001220703125,8.40001250703125,2.40001220703125,8.40001250703125,2.40001220703125ZM6.00001240703125,6.00001240703125C6.00001240703125,6.00001240703125,18.00001320703125,6.00001240703125,18.00001320703125,6.00001240703125C18.00001320703125,6.00001240703125,18.00001320703125,18.00001320703125,18.00001320703125,18.00001320703125C18.00001320703125,18.00001320703125,6.00001240703125,18.00001320703125,6.00001240703125,18.00001320703125C6.00001240703125,18.00001320703125,6.00001240703125,6.00001240703125,6.00001240703125,6.00001240703125C6.00001240703125,6.00001240703125,6.00001240703125,6.00001240703125,6.00001240703125,6.00001240703125Z" fill-rule="evenodd" fill="#0A0A28" fill-opacity="1"/></g></svg>