<svg xmlns="http://www.w3.org/2000/svg" xmlns:xlink="http://www.w3.org/1999/xlink" fill="none" version="1.1" width="24" height="24" viewBox="0 0 24 24"><defs><clipPath id="master_svg0_3_1467"><rect x="0" y="0" width="24" height="24" rx="0"/></clipPath></defs><g clip-path="url(#master_svg0_3_1467)"><path d="M10.7999755859375,2.399993896484375C10.4817164559375,2.3999938964843754,10.1764916159375,2.526422306484375,9.9514471859375,2.751465496484375C9.7264039959375,2.976509926484375,9.599975585937498,3.281734766484375,9.5999755859375,3.599993896484375C9.599975585937498,3.918258096484375,9.7264039959375,4.223477996484375,9.9514471859375,4.448526096484375C10.1764916159375,4.673562096484375,10.4817164559375,4.799993996484375,10.7999755859375,4.799993996484375C10.7999755859375,4.799993996484375,13.199975685937499,4.799993996484375,13.199975685937499,4.799993996484375C13.5182397859375,4.799993996484375,13.8234600859375,4.673562096484375,14.048507685937501,4.448526096484375C14.2735437859375,4.223477996484375,14.3999757859375,3.918258096484375,14.3999757859375,3.599993896484375C14.3999757859375,3.281734766484375,14.2735437859375,2.976509926484375,14.048507685937501,2.751465496484375C13.8234600859375,2.526422306484375,13.5182397859375,2.399993896484376,13.199975685937499,2.399993896484375C13.199975685937499,2.399993896484375,10.7999755859375,2.399993896484375,10.7999755859375,2.399993896484375C10.7999755859375,2.399993896484375,10.7999755859375,2.399993896484375,10.7999755859375,2.399993896484375Z" fill="#0A0A28" fill-opacity="1"/><path d="M4.79998779296875,6.000006203515625C4.79998779296875,5.363490203515625,5.05284461296875,4.753037003515625,5.50293100296875,4.302949313515625C5.95301869296875,3.852862923515625,6.56347189296875,3.6000061035156254,7.19998789296875,3.600006103515625C7.19998789296875,4.554784953515625,7.57927199296875,5.470458103515625,8.25440379296875,6.145590303515625C8.929535892968751,6.8207221035156245,9.84520819296875,7.200006203515625,10.79998779296875,7.200006203515625C10.79998779296875,7.200006203515625,13.19998839296875,7.200006203515625,13.19998839296875,7.200006203515625C14.15476799296875,7.200006203515625,15.07043979296875,6.8207221035156245,15.74557179296875,6.145590303515625C16.42070479296875,5.470458103515625,16.79998779296875,4.554784953515625,16.79998779296875,3.600006103515625C17.43646879296875,3.6000061035156254,18.04690879296875,3.852862923515625,18.49702879296875,4.302949313515625C18.94714879296875,4.753037003515625,19.19998879296875,5.363490203515625,19.19998879296875,6.000006203515625C19.19998879296875,6.000006203515625,19.19998879296875,19.200006103515626,19.19998879296875,19.200006103515626C19.19998879296875,19.836487103515626,18.94714879296875,20.446926103515626,18.49702879296875,20.897047103515625C18.04690879296875,21.347166103515626,17.43646879296875,21.600006103515625,16.79998779296875,21.600006103515625C16.79998779296875,21.600006103515625,7.19998789296875,21.600006103515625,7.19998789296875,21.600006103515625C6.56347189296875,21.600006103515625,5.95301869296875,21.347166103515626,5.50293100296875,20.897047103515625C5.05284461296875,20.446926103515626,4.799987792968752,19.836487103515626,4.79998779296875,19.200006103515626C4.79998779296875,19.200006103515626,4.79998779296875,6.000006203515625,4.79998779296875,6.000006203515625C4.79998779296875,6.000006203515625,4.79998779296875,6.000006203515625,4.79998779296875,6.000006203515625ZM8.399987892968749,10.800006403515624C8.08172389296875,10.800006403515624,7.77650379296875,10.926438303515624,7.55145599296875,11.151474503515626C7.32641979296875,11.376522503515625,7.19998789296875,11.681742703515624,7.19998789296875,12.000006703515625C7.19998789296875,12.318270703515624,7.32641979296875,12.623490303515625,7.55145599296875,12.848538403515626C7.77650379296875,13.073574103515625,8.08172389296875,13.200006503515626,8.399987892968749,13.200006503515626C8.399987892968749,13.200006503515626,8.41198799296875,13.200006503515626,8.41198799296875,13.200006503515626C8.730251792968751,13.200006503515626,9.03547189296875,13.073574103515625,9.26051999296875,12.848538403515626C9.48555609296875,12.623490303515625,9.611988092968751,12.318270703515624,9.611988092968751,12.000006703515625C9.611988092968751,11.681742703515624,9.48555609296875,11.376522503515625,9.26051999296875,11.151474503515626C9.03547189296875,10.926438303515624,8.730251792968751,10.800006403515624,8.41198799296875,10.800006403515624C8.41198799296875,10.800006403515624,8.399987892968749,10.800006403515624,8.399987892968749,10.800006403515624C8.399987892968749,10.800006403515624,8.399987892968749,10.800006403515624,8.399987892968749,10.800006403515624ZM11.99998809296875,10.800006403515624C11.68172409296875,10.800006403515624,11.37650439296875,10.926438303515624,11.15145639296875,11.151474503515626C10.926420192968749,11.376522503515625,10.79998779296875,11.681742703515624,10.79998779296875,12.000006703515625C10.79998779296875,12.318270703515624,10.926420192968749,12.623490303515625,11.15145639296875,12.848538403515626C11.37650439296875,13.073574103515625,11.68172409296875,13.200006503515626,11.99998809296875,13.200006503515626C11.99998809296875,13.200006503515626,15.59998779296875,13.200006503515626,15.59998779296875,13.200006503515626C15.91825179296875,13.200006503515626,16.22347279296875,13.073574103515625,16.44852079296875,12.848538403515626C16.67355679296875,12.623490303515625,16.79998779296875,12.318270703515624,16.79998779296875,12.000006703515625C16.79998779296875,11.681742703515624,16.67355679296875,11.376522503515625,16.44852079296875,11.151474503515626C16.22347279296875,10.926438303515624,15.91825179296875,10.800006403515624,15.59998779296875,10.800006403515624C15.59998779296875,10.800006403515624,11.99998809296875,10.800006403515624,11.99998809296875,10.800006403515624C11.99998809296875,10.800006403515624,11.99998809296875,10.800006403515624,11.99998809296875,10.800006403515624ZM8.399987892968749,15.600006103515625C8.08172389296875,15.600006103515625,7.77650379296875,15.726487103515625,7.55145599296875,15.951486103515625C7.32641979296875,16.176487103515626,7.19998789296875,16.481767103515622,7.19998789296875,16.800007103515625C7.19998789296875,17.118246103515624,7.32641979296875,17.423527103515625,7.55145599296875,17.648526103515625C7.77650379296875,17.873526103515623,8.08172389296875,18.000007103515625,8.399987892968749,18.000007103515625C8.399987892968749,18.000007103515625,8.41198799296875,18.000007103515625,8.41198799296875,18.000007103515625C8.730251792968751,18.000007103515625,9.03547189296875,17.873526103515623,9.26051999296875,17.648526103515625C9.48555609296875,17.423527103515625,9.611988092968751,17.118246103515624,9.611988092968751,16.800007103515625C9.611988092968751,16.481767103515622,9.48555609296875,16.176487103515626,9.26051999296875,15.951486103515625C9.03547189296875,15.726487103515625,8.730251792968751,15.600006103515625,8.41198799296875,15.600006103515625C8.41198799296875,15.600006103515625,8.399987892968749,15.600006103515625,8.399987892968749,15.600006103515625C8.399987892968749,15.600006103515625,8.399987892968749,15.600006103515625,8.399987892968749,15.600006103515625ZM11.99998809296875,15.600006103515625C11.68172409296875,15.600006103515625,11.37650439296875,15.726487103515625,11.15145639296875,15.951486103515625C10.926420192968749,16.176487103515626,10.79998779296875,16.481767103515622,10.79998779296875,16.800007103515625C10.79998779296875,17.118246103515624,10.926420192968749,17.423527103515625,11.15145639296875,17.648526103515625C11.37650439296875,17.873526103515623,11.68172409296875,18.000007103515625,11.99998809296875,18.000007103515625C11.99998809296875,18.000007103515625,15.59998779296875,18.000007103515625,15.59998779296875,18.000007103515625C15.91825179296875,18.000007103515625,16.22347279296875,17.873526103515623,16.44852079296875,17.648526103515625C16.67355679296875,17.423527103515625,16.79998779296875,17.118246103515624,16.79998779296875,16.800007103515625C16.79998779296875,16.481767103515622,16.67355679296875,16.176487103515626,16.44852079296875,15.951486103515625C16.22347279296875,15.726487103515625,15.91825179296875,15.600006103515625,15.59998779296875,15.600006103515625C15.59998779296875,15.600006103515625,11.99998809296875,15.600006103515625,11.99998809296875,15.600006103515625C11.99998809296875,15.600006103515625,11.99998809296875,15.600006103515625,11.99998809296875,15.600006103515625Z" fill-rule="evenodd" fill="#0A0A28" fill-opacity="1"/></g></svg>