<svg xmlns="http://www.w3.org/2000/svg" xmlns:xlink="http://www.w3.org/1999/xlink" fill="none" version="1.1" width="24" height="24" viewBox="0 0 24 24"><defs><clipPath id="master_svg0_3_2000"><rect x="0" y="0" width="24" height="24" rx="0"/></clipPath></defs><g clip-path="url(#master_svg0_3_2000)"><path d="M9.6000244140625,2.399993896484375C9.2817652840625,2.3999938964843754,8.9765404440625,2.526422306484375,8.7514960140625,2.751465496484375C8.5264528240625,2.976509926484375,8.4000244140625,3.281734766484375,8.4000244140625,3.599993896484375C8.4000244140625,3.918258096484375,8.5264528240625,4.223477996484375,8.7514960140625,4.448526096484375C8.9765404440625,4.673562096484375,9.2817652840625,4.799993996484375,9.6000244140625,4.799993996484375C9.6000244140625,4.799993996484375,12.000024514062499,4.799993996484375,12.000024514062499,4.799993996484375C12.3182886140625,4.799993996484375,12.6235089140625,4.673562096484375,12.848556514062501,4.448526096484375C13.0735926140625,4.223477996484375,13.2000246140625,3.918258096484375,13.2000246140625,3.599993896484375C13.2000246140625,3.281734766484375,13.0735926140625,2.976509926484375,12.848556514062501,2.751465496484375C12.6235089140625,2.526422306484375,12.3182886140625,2.399993896484376,12.000024514062499,2.399993896484375C12.000024514062499,2.399993896484375,9.6000244140625,2.399993896484375,9.6000244140625,2.399993896484375C9.6000244140625,2.399993896484375,9.6000244140625,2.399993896484375,9.6000244140625,2.399993896484375Z" fill="#0A0A28" fill-opacity="1"/><path d="M3.5999755859375,6.000006203515625C3.5999755859375,5.363490203515625,3.8528324059375,4.753037003515625,4.3029187959375,4.302949313515625C4.7530064859375,3.852862923515625,5.3634596859375,3.6000061035156254,5.9999756859375,3.600006103515625C5.9999756859375,4.554784953515625,6.3792597859375,5.470458103515625,7.0543915859375,6.145590303515625C7.7295236859375,6.8207221035156245,8.6451959859375,7.200006203515625,9.5999755859375,7.200006203515625C9.5999755859375,7.200006203515625,11.9999761859375,7.200006203515625,11.9999761859375,7.200006203515625C12.9547557859375,7.200006203515625,13.8704275859375,6.8207221035156245,14.5455595859375,6.145590303515625C15.2206925859375,5.470458103515625,15.5999755859375,4.554784953515625,15.5999755859375,3.600006103515625C16.2364565859375,3.6000061035156254,16.8468965859375,3.852862923515625,17.2970165859375,4.302949313515625C17.7471365859375,4.753037003515625,17.9999765859375,5.363490203515625,17.9999765859375,6.000006203515625C17.9999765859375,6.000006203515625,17.9999765859375,13.200006503515626,17.9999765859375,13.200006503515626C17.9999765859375,13.200006503515626,12.4967755859375,13.200006503515626,12.4967755859375,13.200006503515626C12.4967755859375,13.200006503515626,14.0483755859375,11.648406003515625,14.0483755859375,11.648406003515625C14.2669675859375,11.422086703515625,14.3879165859375,11.118966603515625,14.3851795859375,10.804326503515625C14.3824555859375,10.489686003515626,14.2562525859375,10.188714503515625,14.0337595859375,9.966222303515625C13.8112675859375,9.743730503515625,13.5102958859375,9.617526103515626,13.1956557859375,9.614802403515625C12.8810157859375,9.612066303515626,12.5778960859375,9.733014103515625,12.3515758859375,9.951606703515626C12.3515758859375,9.951606703515626,8.7515759859375,13.551607103515625,8.7515759859375,13.551607103515625C8.5266112859375,13.776642103515625,8.4002275859375,14.081815103515625,8.4002275859375,14.400006103515626C8.4002275859375,14.718198103515626,8.5266112859375,15.023371103515625,8.7515759859375,15.248406103515626C8.7515759859375,15.248406103515626,12.3515758859375,18.848407103515626,12.3515758859375,18.848407103515626C12.5778960859375,19.067047103515627,12.8810157859375,19.188006103515626,13.1956557859375,19.185247103515625C13.5102958859375,19.182486103515625,13.8112675859375,19.056247103515624,14.0337595859375,18.833767103515626C14.2562525859375,18.611287103515625,14.3824555859375,18.310326103515624,14.3851795859375,17.995686103515624C14.3879165859375,17.681046103515627,14.2669675859375,17.377927103515624,14.0483755859375,17.151606103515626C14.0483755859375,17.151606103515626,12.4967755859375,15.600006103515625,12.4967755859375,15.600006103515625C12.4967755859375,15.600006103515625,17.9999765859375,15.600006103515625,17.9999765859375,15.600006103515625C17.9999765859375,15.600006103515625,17.9999765859375,19.200006103515626,17.9999765859375,19.200006103515626C17.9999765859375,19.836487103515626,17.7471365859375,20.446926103515626,17.2970165859375,20.897047103515625C16.8468965859375,21.347166103515626,16.2364565859375,21.600006103515625,15.5999755859375,21.600006103515625C15.5999755859375,21.600006103515625,5.9999756859375,21.600006103515625,5.9999756859375,21.600006103515625C5.3634596859375,21.600006103515625,4.7530064859375,21.347166103515626,4.3029187959375,20.897047103515625C3.8528324059375,20.446926103515626,3.5999755859375004,19.836487103515626,3.5999755859375,19.200006103515626C3.5999755859375,19.200006103515626,3.5999755859375,6.000006203515625,3.5999755859375,6.000006203515625C3.5999755859375,6.000006203515625,3.5999755859375,6.000006203515625,3.5999755859375,6.000006203515625ZM17.9999765859375,13.200006503515626C17.9999765859375,13.200006503515626,20.3999765859375,13.200006503515626,20.3999765859375,13.200006503515626C20.7182155859375,13.200006503515626,21.0234965859375,13.326438903515625,21.2484965859375,13.551473603515625C21.4734955859375,13.776522103515624,21.5999755859375,14.081743103515626,21.5999755859375,14.400006103515626C21.5999755859375,14.718270103515625,21.4734955859375,15.023491103515624,21.2484965859375,15.248539103515625C21.0234965859375,15.473575103515625,20.7182155859375,15.600006103515625,20.3999765859375,15.600006103515625C20.3999765859375,15.600006103515625,17.9999765859375,15.600006103515625,17.9999765859375,15.600006103515625C17.9999765859375,15.600006103515625,17.9999765859375,13.200006503515626,17.9999765859375,13.200006503515626C17.9999765859375,13.200006503515626,17.9999765859375,13.200006503515626,17.9999765859375,13.200006503515626Z" fill="#0A0A28" fill-opacity="1"/></g></svg>