<svg xmlns="http://www.w3.org/2000/svg" xmlns:xlink="http://www.w3.org/1999/xlink" fill="none" version="1.1" width="24" height="24" viewBox="0 0 24 24"><defs><clipPath id="master_svg0_3_2169"><rect x="0" y="0" width="24" height="24" rx="0"/></clipPath></defs><g clip-path="url(#master_svg0_3_2169)"><path d="M9.5999755859375,3.599993896484375C9.599975585937498,3.281734766484375,9.7264039959375,2.976509926484375,9.9514471859375,2.751465496484375C10.1764916159375,2.526422306484375,10.4817164559375,2.3999938964843754,10.7999755859375,2.399993896484375C10.7999755859375,2.399993896484375,13.199975685937499,2.399993896484375,13.199975685937499,2.399993896484375C13.5182397859375,2.3999938964843754,13.8234600859375,2.526422306484375,14.048507685937501,2.751465496484375C14.2735437859375,2.976509926484375,14.3999757859375,3.281734766484375,14.3999757859375,3.599993896484375C14.3999757859375,3.918258096484375,14.2735437859375,4.223477996484375,14.048507685937501,4.448526096484375C13.8234600859375,4.673562096484375,13.5182397859375,4.799993996484375,13.199975685937499,4.799993996484375C13.199975685937499,4.799993996484375,10.7999755859375,4.799993996484375,10.7999755859375,4.799993996484375C10.4817164559375,4.799993996484375,10.1764916159375,4.673562096484375,9.9514471859375,4.448526096484375C9.7264039959375,4.223477996484375,9.599975585937498,3.918258096484375,9.5999755859375,3.599993896484375C9.5999755859375,3.599993896484375,9.5999755859375,3.599993896484375,9.5999755859375,3.599993896484375Z" fill="#0A0A28" fill-opacity="1"/><path d="M7.19998789296875,3.600006103515625C6.56347189296875,3.6000061035156254,5.95301869296875,3.852862923515625,5.50293100296875,4.302949313515625C5.05284461296875,4.753037003515625,4.799987792968752,5.363490203515625,4.79998779296875,6.000006203515625C4.79998779296875,6.000006203515625,4.79998779296875,19.200006103515626,4.79998779296875,19.200006103515626C4.799987792968751,19.836487103515626,5.05284461296875,20.446926103515626,5.50293100296875,20.897047103515625C5.95301869296875,21.347166103515626,6.56347189296875,21.600006103515625,7.19998789296875,21.600006103515625C7.19998789296875,21.600006103515625,16.79998779296875,21.600006103515625,16.79998779296875,21.600006103515625C17.43646879296875,21.600006103515625,18.04690879296875,21.347166103515626,18.49702879296875,20.897047103515625C18.94714879296875,20.446926103515626,19.19998879296875,19.836487103515626,19.19998879296875,19.200006103515626C19.19998879296875,19.200006103515626,19.19998879296875,6.000006203515625,19.19998879296875,6.000006203515625C19.19998879296875,5.363490203515625,18.94714879296875,4.753037003515625,18.49702879296875,4.302949313515625C18.04690879296875,3.852862923515625,17.43646879296875,3.6000061035156254,16.79998779296875,3.600006103515625C16.79998779296875,4.554784953515625,16.42070479296875,5.470458103515625,15.74557179296875,6.145590303515625C15.07043979296875,6.8207221035156245,14.15476799296875,7.200006203515625,13.19998839296875,7.200006203515625C13.19998839296875,7.200006203515625,10.79998779296875,7.200006203515625,10.79998779296875,7.200006203515625C9.84520819296875,7.200006203515625,8.929535892968751,6.8207221035156245,8.25440379296875,6.145590303515625C7.57927199296875,5.470458103515625,7.19998789296875,4.554784953515625,7.19998789296875,3.600006103515625C7.19998789296875,3.600006103515625,7.19998789296875,3.600006103515625,7.19998789296875,3.600006103515625C7.19998789296875,3.600006103515625,7.19998789296875,3.600006103515625,7.19998789296875,3.600006103515625Z" fill="#0A0A28" fill-opacity="1"/></g></svg>