<svg xmlns="http://www.w3.org/2000/svg" xmlns:xlink="http://www.w3.org/1999/xlink" fill="none" version="1.1" width="24" height="24" viewBox="0 0 24 24"><defs><clipPath id="master_svg0_3_2360"><rect x="0" y="0" width="24" height="24" rx="0"/></clipPath></defs><g clip-path="url(#master_svg0_3_2360)"><path d="M6,5C6,5,6,4,6,4C6,4,6,5,6,5C6,5,6,5,6,5ZM4,7C4,7,3,7,3,7C3,7,4,7,4,7C4,7,4,7,4,7ZM4,19C4,19,3,19,3,19C3,19,4,19,4,19C4,19,4,19,4,19ZM19,18C19,17.447699999999998,18.552300000000002,17,18,17C17.447699999999998,17,17,17.447699999999998,17,18C17,18,19,18,19,18C19,18,19,18,19,18ZM10,7C10,7,10,8,10,8C10,8,10,7,10,7C10,7,10,7,10,7ZM12,7C12,7,12,8,12,8C12,8,12,7,12,7C12,7,12,7,12,7ZM10,3C10,3,10,2,10,2C10,2,10,3,10,3C10,3,10,3,10,3ZM12,3C12,3,12,2,12,2C12,2,12,3,12,3C12,3,12,3,12,3ZM16,5C16,5,16,4,16,4C16,4,16,5,16,5C16,5,16,5,16,5ZM17,10C17,10.5522799,17.447699999999998,11,18,11C18.552300000000002,11,19,10.5522799,19,10C19,10,17,10,17,10C17,10,17,10,17,10ZM20,15C20.552299,15,21,14.5523,21,14C21,13.4477,20.552299,13,20,13C20,13,20,15,20,15C20,15,20,15,20,15ZM10,14C10,14,9.292890100000001,13.2929,9.292890100000001,13.2929C8.902370000000001,13.6834,8.902370000000001,14.3166,9.292890100000001,14.7071C9.292890100000001,14.7071,10,14,10,14C10,14,10,14,10,14ZM13.7071104,11.7071104C14.0976,11.3165798,14.0976,10.6834202,13.7071104,10.292890100000001C13.3165798,9.902370000000001,12.6834202,9.902370000000001,12.2928896,10.292890100000001C12.2928896,10.292890100000001,13.7071104,11.7071104,13.7071104,11.7071104C13.7071104,11.7071104,13.7071104,11.7071104,13.7071104,11.7071104ZM12.2928896,17.7071C12.6834202,18.0976,13.3165798,18.0976,13.7071104,17.7071C14.0976,17.3166,14.0976,16.6834,13.7071104,16.2929C13.7071104,16.2929,12.2928896,17.7071,12.2928896,17.7071C12.2928896,17.7071,12.2928896,17.7071,12.2928896,17.7071ZM8,4C8,4,6,4,6,4C6,4,6,6,6,6C6,6,8,6,8,6C8,6,8,4,8,4C8,4,8,4,8,4ZM6,4C5.20435,4,4.44128901,4.31607,3.87868,4.87868C3.87868,4.87868,5.29289,6.2928901,5.29289,6.2928901C5.48043,6.10536,5.73478,6,6,6C6,6,6,4,6,4C6,4,6,4,6,4ZM3.87868,4.87868C3.3160700199999997,5.4412899,3,6.20435,3,7C3,7,5,7,5,7C5,6.7347801,5.10536,6.4804299,5.29289,6.2928901C5.29289,6.2928901,3.87868,4.87868,3.87868,4.87868C3.87868,4.87868,3.87868,4.87868,3.87868,4.87868ZM3,7C3,7,3,19,3,19C3,19,5,19,5,19C5,19,5,7,5,7C5,7,3,7,3,7C3,7,3,7,3,7ZM3,19C3,19.7957,3.3160700199999997,20.558701,3.87868,21.1213C3.87868,21.1213,5.29289,19.7071,5.29289,19.7071C5.10536,19.5196,5,19.2652,5,19C5,19,3,19,3,19C3,19,3,19,3,19ZM3.87868,21.1213C4.44128799,21.683901,5.20435,22,6,22C6,22,6,20,6,20C5.73478,20,5.48043,19.8946,5.29289,19.7071C5.29289,19.7071,3.87868,21.1213,3.87868,21.1213C3.87868,21.1213,3.87868,21.1213,3.87868,21.1213ZM6,22C6,22,16,22,16,22C16,22,16,20,16,20C16,20,6,20,6,20C6,20,6,22,6,22C6,22,6,22,6,22ZM16,22C16.7957,22,17.5587,21.683901,18.121299999999998,21.1213C18.121299999999998,21.1213,16.7071,19.7071,16.7071,19.7071C16.5196,19.8946,16.2652,20,16,20C16,20,16,22,16,22C16,22,16,22,16,22ZM18.121299999999998,21.1213C18.6839,20.558701,19,19.7957,19,19C19,19,17,19,17,19C17,19.2652,16.8946,19.5196,16.7071,19.7071C16.7071,19.7071,18.121299999999998,21.1213,18.121299999999998,21.1213C18.121299999999998,21.1213,18.121299999999998,21.1213,18.121299999999998,21.1213ZM19,19C19,19,19,18,19,18C19,18,17,18,17,18C17,18,17,19,17,19C17,19,19,19,19,19C19,19,19,19,19,19ZM7,5C7,5.79565,7.3160701,6.5587101,7.87868,7.1213198C7.87868,7.1213198,9.292890100000001,5.7071099,9.292890100000001,5.7071099C9.105360000000001,5.5195701,9,5.2652199,9,5C9,5,7,5,7,5C7,5,7,5,7,5ZM7.87868,7.1213198C8.441289900000001,7.6839299,9.20435,8,10,8C10,8,10,6,10,6C9.7347798,6,9.4804301,5.89464,9.292890100000001,5.7071099C9.292890100000001,5.7071099,7.87868,7.1213198,7.87868,7.1213198C7.87868,7.1213198,7.87868,7.1213198,7.87868,7.1213198ZM10,8C10,8,12,8,12,8C12,8,12,6,12,6C12,6,10,6,10,6C10,6,10,8,10,8C10,8,10,8,10,8ZM12,8C12.7956495,8,13.5587101,7.6839299,14.1213,7.1213198C14.1213,7.1213198,12.7071104,5.7071099,12.7071104,5.7071099C12.5195704,5.89464,12.2652197,6,12,6C12,6,12,8,12,8C12,8,12,8,12,8ZM14.1213,7.1213198C14.6839,6.5587101,15,5.79565,15,5C15,5,13,5,13,5C13,5.2652199,12.89464,5.5195701,12.7071104,5.7071099C12.7071104,5.7071099,14.1213,7.1213198,14.1213,7.1213198C14.1213,7.1213198,14.1213,7.1213198,14.1213,7.1213198ZM9,5C9,4.73478,9.105360000000001,4.48043,9.292890100000001,4.29289C9.292890100000001,4.29289,7.87868,2.87868,7.87868,2.87868C7.3160701,3.44128799,7,4.20435,7,5C7,5,9,5,9,5C9,5,9,5,9,5ZM9.292890100000001,4.29289C9.4804301,4.10536,9.7347798,4,10,4C10,4,10,2,10,2C9.20435,2,8.441289900000001,2.3160700199999997,7.87868,2.87868C7.87868,2.87868,9.292890100000001,4.29289,9.292890100000001,4.29289C9.292890100000001,4.29289,9.292890100000001,4.29289,9.292890100000001,4.29289ZM10,4C10,4,12,4,12,4C12,4,12,2,12,2C12,2,10,2,10,2C10,2,10,4,10,4C10,4,10,4,10,4ZM12,4C12.2652197,4,12.5195704,4.10536,12.7071104,4.29289C12.7071104,4.29289,14.1213,2.87868,14.1213,2.87868C13.5587101,2.3160700199999997,12.7956495,2,12,2C12,2,12,4,12,4C12,4,12,4,12,4ZM12.7071104,4.29289C12.89464,4.48043,13,4.73478,13,5C13,5,15,5,15,5C15,4.20435,14.6839,3.44128799,14.1213,2.87868C14.1213,2.87868,12.7071104,4.29289,12.7071104,4.29289C12.7071104,4.29289,12.7071104,4.29289,12.7071104,4.29289ZM14,6C14,6,16,6,16,6C16,6,16,4,16,4C16,4,14,4,14,4C14,4,14,6,14,6C14,6,14,6,14,6ZM16,6C16.2652,6,16.5196,6.10536,16.7071,6.2928901C16.7071,6.2928901,18.121299999999998,4.87868,18.121299999999998,4.87868C17.5587,4.31607,16.7956,4,16,4C16,4,16,6,16,6C16,6,16,6,16,6ZM16.7071,6.2928901C16.8946,6.4804299,17,6.7347801,17,7C17,7,19,7,19,7C19,6.20435,18.6839,5.4412899,18.121299999999998,4.87868C18.121299999999998,4.87868,16.7071,6.2928901,16.7071,6.2928901C16.7071,6.2928901,16.7071,6.2928901,16.7071,6.2928901ZM17,7C17,7,17,10,17,10C17,10,19,10,19,10C19,10,19,7,19,7C19,7,17,7,17,7C17,7,17,7,17,7ZM20,13C20,13,10,13,10,13C10,13,10,15,10,15C10,15,20,15,20,15C20,15,20,13,20,13C20,13,20,13,20,13ZM10.707109899999999,14.7071C10.707109899999999,14.7071,13.7071104,11.7071104,13.7071104,11.7071104C13.7071104,11.7071104,12.2928896,10.292890100000001,12.2928896,10.292890100000001C12.2928896,10.292890100000001,9.292890100000001,13.2929,9.292890100000001,13.2929C9.292890100000001,13.2929,10.707109899999999,14.7071,10.707109899999999,14.7071C10.707109899999999,14.7071,10.707109899999999,14.7071,10.707109899999999,14.7071ZM9.292890100000001,14.7071C9.292890100000001,14.7071,12.2928896,17.7071,12.2928896,17.7071C12.2928896,17.7071,13.7071104,16.2929,13.7071104,16.2929C13.7071104,16.2929,10.707109899999999,13.2929,10.707109899999999,13.2929C10.707109899999999,13.2929,9.292890100000001,14.7071,9.292890100000001,14.7071C9.292890100000001,14.7071,9.292890100000001,14.7071,9.292890100000001,14.7071Z" fill="#0A0A28" fill-opacity="1"/></g></svg>