<svg xmlns="http://www.w3.org/2000/svg" xmlns:xlink="http://www.w3.org/1999/xlink" fill="none" version="1.1" width="24" height="24" viewBox="0 0 24 24"><defs><clipPath id="master_svg0_3_1854"><rect x="0" y="0" width="24" height="24" rx="0"/></clipPath></defs><g clip-path="url(#master_svg0_3_1854)"><path d="M7,5C7,5,7,4,7,4C7,4,7,5,7,5C7,5,7,5,7,5ZM5,7C5,7,4,7,4,7C4,7,5,7,5,7C5,7,5,7,5,7ZM5,19C5,19,4,19,4,19C4,19,5,19,5,19C5,19,5,19,5,19ZM17,5C17,5,17,4,17,4C17,4,17,5,17,5C17,5,17,5,17,5ZM11,7C11,7,11,8,11,8C11,8,11,7,11,7C11,7,11,7,11,7ZM13,7C13,7,13,8,13,8C13,8,13,7,13,7C13,7,13,7,13,7ZM11,3C11,3,11,2,11,2C11,2,11,3,11,3C11,3,11,3,11,3ZM13,3C13,3,13,2,13,2C13,2,13,3,13,3C13,3,13,3,13,3ZM9,4C9,4,7,4,7,4C7,4,7,6,7,6C7,6,9,6,9,6C9,6,9,4,9,4C9,4,9,4,9,4ZM7,4C6.20435,4,5.44128901,4.31607,4.87868,4.87868C4.87868,4.87868,6.29289,6.2928901,6.29289,6.2928901C6.48043,6.10536,6.73478,6,7,6C7,6,7,4,7,4C7,4,7,4,7,4ZM4.87868,4.87868C4.31607002,5.4412899,4,6.20435,4,7C4,7,6,7,6,7C6,6.7347801,6.10536,6.4804299,6.29289,6.2928901C6.29289,6.2928901,4.87868,4.87868,4.87868,4.87868C4.87868,4.87868,4.87868,4.87868,4.87868,4.87868ZM4,7C4,7,4,19,4,19C4,19,6,19,6,19C6,19,6,7,6,7C6,7,4,7,4,7C4,7,4,7,4,7ZM4,19C4,19.7957,4.31607002,20.558701,4.87868,21.1213C4.87868,21.1213,6.29289,19.7071,6.29289,19.7071C6.10536,19.5196,6,19.2652,6,19C6,19,4,19,4,19C4,19,4,19,4,19ZM4.87868,21.1213C5.44128799,21.683901,6.20435,22,7,22C7,22,7,20,7,20C6.73478,20,6.48043,19.8946,6.29289,19.7071C6.29289,19.7071,4.87868,21.1213,4.87868,21.1213C4.87868,21.1213,4.87868,21.1213,4.87868,21.1213ZM7,22C7,22,17,22,17,22C17,22,17,20,17,20C17,20,7,20,7,20C7,20,7,22,7,22C7,22,7,22,7,22ZM17,22C17.7957,22,18.5587,21.683901,19.121299999999998,21.1213C19.121299999999998,21.1213,17.7071,19.7071,17.7071,19.7071C17.5196,19.8946,17.2652,20,17,20C17,20,17,22,17,22C17,22,17,22,17,22ZM19.121299999999998,21.1213C19.6839,20.558701,20,19.7957,20,19C20,19,18,19,18,19C18,19.2652,17.8946,19.5196,17.7071,19.7071C17.7071,19.7071,19.121299999999998,21.1213,19.121299999999998,21.1213C19.121299999999998,21.1213,19.121299999999998,21.1213,19.121299999999998,21.1213ZM20,19C20,19,20,7,20,7C20,7,18,7,18,7C18,7,18,19,18,19C18,19,20,19,20,19C20,19,20,19,20,19ZM20,7C20,6.20435,19.6839,5.4412899,19.121299999999998,4.87868C19.121299999999998,4.87868,17.7071,6.2928901,17.7071,6.2928901C17.8946,6.4804299,18,6.7347801,18,7C18,7,20,7,20,7C20,7,20,7,20,7ZM19.121299999999998,4.87868C18.5587,4.31607,17.7956,4,17,4C17,4,17,6,17,6C17.2652,6,17.5196,6.10536,17.7071,6.2928901C17.7071,6.2928901,19.121299999999998,4.87868,19.121299999999998,4.87868C19.121299999999998,4.87868,19.121299999999998,4.87868,19.121299999999998,4.87868ZM17,4C17,4,15,4,15,4C15,4,15,6,15,6C15,6,17,6,17,6C17,6,17,4,17,4C17,4,17,4,17,4ZM8,5C8,5.79565,8.316070100000001,6.5587101,8.87868,7.1213198C8.87868,7.1213198,10.292890100000001,5.7071099,10.292890100000001,5.7071099C10.105360000000001,5.5195701,10,5.2652199,10,5C10,5,8,5,8,5C8,5,8,5,8,5ZM8.87868,7.1213198C9.441289900000001,7.6839299,10.20435,8,11,8C11,8,11,6,11,6C10.7347798,6,10.4804301,5.89464,10.292890100000001,5.7071099C10.292890100000001,5.7071099,8.87868,7.1213198,8.87868,7.1213198C8.87868,7.1213198,8.87868,7.1213198,8.87868,7.1213198ZM11,8C11,8,13,8,13,8C13,8,13,6,13,6C13,6,11,6,11,6C11,6,11,8,11,8C11,8,11,8,11,8ZM13,8C13.7956495,8,14.5587101,7.6839299,15.1213,7.1213198C15.1213,7.1213198,13.7071104,5.7071099,13.7071104,5.7071099C13.5195704,5.89464,13.2652197,6,13,6C13,6,13,8,13,8C13,8,13,8,13,8ZM15.1213,7.1213198C15.6839,6.5587101,16,5.79565,16,5C16,5,14,5,14,5C14,5.2652199,13.89464,5.5195701,13.7071104,5.7071099C13.7071104,5.7071099,15.1213,7.1213198,15.1213,7.1213198C15.1213,7.1213198,15.1213,7.1213198,15.1213,7.1213198ZM10,5C10,4.73478,10.105360000000001,4.48043,10.292890100000001,4.29289C10.292890100000001,4.29289,8.87868,2.87868,8.87868,2.87868C8.316070100000001,3.44128799,8,4.20435,8,5C8,5,10,5,10,5C10,5,10,5,10,5ZM10.292890100000001,4.29289C10.4804301,4.10536,10.7347798,4,11,4C11,4,11,2,11,2C10.20435,2,9.441289900000001,2.3160700199999997,8.87868,2.87868C8.87868,2.87868,10.292890100000001,4.29289,10.292890100000001,4.29289C10.292890100000001,4.29289,10.292890100000001,4.29289,10.292890100000001,4.29289ZM11,4C11,4,13,4,13,4C13,4,13,2,13,2C13,2,11,2,11,2C11,2,11,4,11,4C11,4,11,4,11,4ZM13,4C13.2652197,4,13.5195704,4.10536,13.7071104,4.29289C13.7071104,4.29289,15.1213,2.87868,15.1213,2.87868C14.5587101,2.3160700199999997,13.7956495,2,13,2C13,2,13,4,13,4C13,4,13,4,13,4ZM13.7071104,4.29289C13.89464,4.48043,14,4.73478,14,5C14,5,16,5,16,5C16,4.20435,15.6839,3.44128799,15.1213,2.87868C15.1213,2.87868,13.7071104,4.29289,13.7071104,4.29289C13.7071104,4.29289,13.7071104,4.29289,13.7071104,4.29289Z" fill="#0A0A28" fill-opacity="1"/></g></svg>