<svg xmlns="http://www.w3.org/2000/svg" xmlns:xlink="http://www.w3.org/1999/xlink" fill="none" version="1.1" width="24" height="24" viewBox="0 0 24 24"><defs><clipPath id="master_svg0_3_1470"><rect x="0" y="0" width="24" height="24" rx="0"/></clipPath></defs><g clip-path="url(#master_svg0_3_1470)"><path d="M10.800006103515624,2.399993896484375C10.481746973515625,2.3999938964843754,10.176522133515626,2.526422306484375,9.951477703515625,2.751465496484375C9.726434513515626,2.976509926484375,9.600006103515623,3.281734766484375,9.600006103515625,3.599993896484375C9.600006103515623,3.918258096484375,9.726434513515626,4.223477996484375,9.951477703515625,4.448526096484375C10.176522133515626,4.673562096484375,10.481746973515625,4.799993996484375,10.800006103515624,4.799993996484375C10.800006103515624,4.799993996484375,13.200006203515624,4.799993996484375,13.200006203515624,4.799993996484375C13.518270303515624,4.799993996484375,13.823490603515625,4.673562096484375,14.048538203515626,4.448526096484375C14.273574303515625,4.223477996484375,14.400006303515624,3.918258096484375,14.400006303515624,3.599993896484375C14.400006303515624,3.281734766484375,14.273574303515625,2.976509926484375,14.048538203515626,2.751465496484375C13.823490603515625,2.526422306484375,13.518270303515624,2.399993896484376,13.200006203515624,2.399993896484375C13.200006203515624,2.399993896484375,10.800006103515624,2.399993896484375,10.800006103515624,2.399993896484375C10.800006103515624,2.399993896484375,10.800006103515624,2.399993896484375,10.800006103515624,2.399993896484375Z" fill="#0A0A28" fill-opacity="1"/><path d="M4.79998779296875,6.000006203515625C4.79998779296875,5.363490203515625,5.05284461296875,4.753037003515625,5.50293100296875,4.302949313515625C5.95301869296875,3.852862923515625,6.56347189296875,3.6000061035156254,7.19998789296875,3.600006103515625C7.19998789296875,4.554784953515625,7.57927199296875,5.470458103515625,8.25440379296875,6.145590303515625C8.929535892968751,6.8207221035156245,9.84520819296875,7.200006203515625,10.79998779296875,7.200006203515625C10.79998779296875,7.200006203515625,13.19998839296875,7.200006203515625,13.19998839296875,7.200006203515625C14.15476799296875,7.200006203515625,15.07043979296875,6.8207221035156245,15.74557179296875,6.145590303515625C16.42070479296875,5.470458103515625,16.79998779296875,4.554784953515625,16.79998779296875,3.600006103515625C17.43646879296875,3.6000061035156254,18.04690879296875,3.852862923515625,18.49702879296875,4.302949313515625C18.94714879296875,4.753037003515625,19.19998879296875,5.363490203515625,19.19998879296875,6.000006203515625C19.19998879296875,6.000006203515625,19.19998879296875,19.200006103515626,19.19998879296875,19.200006103515626C19.19998879296875,19.836487103515626,18.94714879296875,20.446926103515626,18.49702879296875,20.897047103515625C18.04690879296875,21.347166103515626,17.43646879296875,21.600006103515625,16.79998779296875,21.600006103515625C16.79998779296875,21.600006103515625,7.19998789296875,21.600006103515625,7.19998789296875,21.600006103515625C6.56347189296875,21.600006103515625,5.95301869296875,21.347166103515626,5.50293100296875,20.897047103515625C5.05284461296875,20.446926103515626,4.799987792968752,19.836487103515626,4.79998779296875,19.200006103515626C4.79998779296875,19.200006103515626,4.79998779296875,6.000006203515625,4.79998779296875,6.000006203515625C4.79998779296875,6.000006203515625,4.79998779296875,6.000006203515625,4.79998779296875,6.000006203515625ZM16.448387792968752,12.848405803515625C16.66698079296875,12.622086503515625,16.78792879296875,12.318966903515625,16.78519279296875,12.004326803515625C16.78246879296875,11.689685803515625,16.65626479296875,11.388714303515625,16.43377279296875,11.166222603515624C16.21127979296875,10.943730403515625,15.91030879296875,10.817526303515624,15.59566779296875,10.814802603515625C15.28102779296875,10.812066103515626,14.97790779296875,10.933014403515624,14.75158879296875,11.151606603515624C14.75158879296875,11.151606603515624,10.79998779296875,15.103207103515626,10.79998779296875,15.103207103515626C10.79998779296875,15.103207103515626,9.24838779296875,13.551607103515625,9.24838779296875,13.551607103515625C9.02206799296875,13.333014503515624,8.71894789296875,13.212066603515625,8.40430779296875,13.214802703515625C8.08966799296875,13.217526403515626,7.78869609296875,13.343730903515626,7.56620409296875,13.566222203515625C7.34371189296875,13.788714103515625,7.21750779296875,14.089686103515625,7.21478389296875,14.404326103515626C7.21204809296875,14.718967103515626,7.33299589296875,15.022087103515625,7.55158779296875,15.248406103515626C7.55158779296875,15.248406103515626,9.95158819296875,17.648406103515626,9.95158819296875,17.648406103515626C10.176623792968751,17.873406103515627,10.48179579296875,17.999766103515626,10.79998779296875,17.999766103515626C11.11818029296875,17.999766103515626,11.42335219296875,17.873406103515627,11.64838789296875,17.648406103515626C11.64838789296875,17.648406103515626,16.448387792968752,12.848405803515625,16.448387792968752,12.848405803515625C16.448387792968752,12.848405803515625,16.448387792968752,12.848405803515625,16.448387792968752,12.848405803515625C16.448387792968752,12.848405803515625,16.448387792968752,12.848405803515625,16.448387792968752,12.848405803515625Z" fill-rule="evenodd" fill="#0A0A28" fill-opacity="1"/></g></svg>