<svg xmlns="http://www.w3.org/2000/svg" xmlns:xlink="http://www.w3.org/1999/xlink" fill="none" version="1.1" width="24" height="24" viewBox="0 0 24 24"><defs><clipPath id="master_svg0_3_1570"><rect x="0" y="0" width="24" height="24" rx="0"/></clipPath></defs><g clip-path="url(#master_svg0_3_1570)"><path d="M12.0000248140625,21.599994896484375C14.5460654140625,21.599994896484375,16.9879444140625,20.588513896484375,18.7883054140625,18.788274896484374C20.5885444140625,16.987913896484375,21.6000254140625,14.546034896484375,21.6000254140625,11.999994296484376C21.6000254140625,9.453918496484375,20.5885444140625,7.012122196484375,18.7883054140625,5.211773896484376C16.9879444140625,3.411419896484375,14.5460654140625,2.3999938964843763,12.0000248140625,2.399993896484375C9.4539490140625,2.3999938964843768,7.0121527140625,3.411419896484375,5.211804414062501,5.211773896484376C3.4114504140625,7.012122196484375,2.400024414062502,9.453918496484375,2.4000244140625,11.999994296484376C2.4000244140625018,14.546034896484375,3.4114504140625,16.987913896484375,5.211804414062501,18.788274896484374C7.0121527140625,20.588513896484375,9.4539490140625,21.599994896484375,12.0000248140625,21.599994896484375C12.0000248140625,21.599994896484375,12.0000248140625,21.599994896484375,12.0000248140625,21.599994896484375C12.0000248140625,21.599994896484375,12.0000248140625,21.599994896484375,12.0000248140625,21.599994896484375ZM13.2000244140625,7.199994096484375C13.2000244140625,6.881730096484375,13.0735934140625,6.576509996484375,12.8485574140625,6.351462096484375C12.6235094140625,6.126425996484375,12.3182888140625,5.999993996484375,12.0000248140625,5.999993996484375C11.6817608140625,5.999993996484375,11.3765411140625,6.126425996484375,11.1514931140625,6.351462096484375C10.9264564140625,6.576509996484375,10.8000250140625,6.881730096484375,10.8000250140625,7.199994096484375C10.8000250140625,7.199994096484375,10.8000250140625,11.999994296484376,10.8000250140625,11.999994296484376C10.8000965140625,12.318221996484375,10.9265652140625,12.623406896484376,11.1516247140625,12.848393896484374C11.1516247140625,12.848393896484374,14.5452254140625,16.243194896484376,14.5452254140625,16.243194896484376C14.6567044140625,16.354673896484375,14.7890644140625,16.443113896484377,14.9347444140625,16.503473896484373C15.0804254140625,16.563833896484375,15.2365444140625,16.594914896484376,15.3942254140625,16.594914896484376C15.5519044140625,16.594914896484376,15.7080254140625,16.563833896484375,15.8537054140625,16.503473896484373C15.9993844140625,16.443113896484377,16.1317454140625,16.354673896484375,16.2432254140625,16.243194896484376C16.3547044140625,16.131714896484375,16.443144414062502,15.999353896484376,16.503504414062498,15.853674896484375C16.5638644140625,15.707994896484376,16.5949454140625,15.551873896484375,16.5949454140625,15.394194896484375C16.5949454140625,15.236513896484375,16.5638644140625,15.080394896484375,16.503504414062498,14.934713896484375C16.443144414062502,14.789033896484375,16.3547044140625,14.656673896484374,16.2432254140625,14.545194896484375C16.2432254140625,14.545194896484375,13.2000244140625,11.503193896484374,13.2000244140625,11.503193896484374C13.2000244140625,11.503193896484374,13.2000244140625,7.199994096484375,13.2000244140625,7.199994096484375C13.2000244140625,7.199994096484375,13.2000244140625,7.199994096484375,13.2000244140625,7.199994096484375Z" fill-rule="evenodd" fill="#0A0A28" fill-opacity="1"/></g></svg>