<svg xmlns="http://www.w3.org/2000/svg" xmlns:xlink="http://www.w3.org/1999/xlink" fill="none" version="1.1" width="24" height="24" viewBox="0 0 24 24"><defs><clipPath id="master_svg0_3_2167"><rect x="0" y="0" width="24" height="24" rx="0"/></clipPath></defs><g clip-path="url(#master_svg0_3_2167)"><path d="M6.599997478125,19.200048685546875C5.5254337781250005,19.198608685546873,4.492269778124999,18.785327685546875,3.713121578125,18.045287685546874C2.933977188125,17.305367685546877,2.468107417125,16.294800685546875,2.411379050425,15.221723685546875C2.354650773125,14.148660685546876,2.7113795881250002,13.094652185546876,3.408159578125,12.276612285546875C4.104945678125,11.458559985546875,5.088765878125,10.938707785546875,6.157197678125,10.823999885546876C5.8425936781250005,9.590267685546875,6.030981778125,8.282087785546874,6.680913878125,7.187255585546875C7.330833878125,6.092411785546875,8.389065778125001,5.300598885546875,9.622797978125,4.985999685546875C10.856530178125,4.671399275546875,12.164710078125,4.859783444546875,13.259553578125,5.509709715546875C14.354385578125,6.159635785546875,15.146158578125,7.217867885546875,15.460798578125,8.451599885546875C16.194477578125,8.349431785546875,16.941478578125,8.399339685546876,17.655117578125,8.598191785546875C18.368637578125,8.797055985546875,19.033798578125,9.140627885546875,19.608957578125,9.607535885546875C20.184118578125,10.074443785546876,20.657039578125,10.654704085546875,20.998319578125,11.312219585546874C21.339599578125,11.969724185546875,21.541917578125,12.690431585546875,21.592798578125,13.429499585546875C21.643558578125,14.168567685546876,21.541799578125,14.910192685546875,21.293758578125,15.608243685546874C21.045717578125,16.306283685546873,20.656679578125,16.945848685546874,20.150878578125,17.487047685546877C19.644958578125,18.028367685546876,19.033197578125,18.459648685546874,18.353518578124998,18.754368685546876C17.673838578125,19.049088685546877,16.940758578125,19.200768685546876,16.199998578124998,19.200048685546875C16.199998578124998,19.200048685546875,6.599997478125,19.200048685546875,6.599997478125,19.200048685546875C6.599997478125,19.200048685546875,6.599997478125,19.200048685546875,6.599997478125,19.200048685546875Z" fill="#0A0A28" fill-opacity="1"/></g></svg>