<svg xmlns="http://www.w3.org/2000/svg" xmlns:xlink="http://www.w3.org/1999/xlink" fill="none" version="1.1" width="24" height="24" viewBox="0 0 24 24"><defs><clipPath id="master_svg0_3_1938"><rect x="0" y="0" width="24" height="24" rx="0"/></clipPath></defs><g clip-path="url(#master_svg0_3_1938)"><path d="M6.599997478125,15.60004258203125C5.5254337781250005,15.59860258203125,4.492269778124999,15.18532158203125,3.713121578125,14.44528158203125C2.933977188125,13.70536158203125,2.468107417125,12.69479458203125,2.411379050425,11.62171758203125C2.354650773125,10.54865458203125,2.7113795881250002,9.49464608203125,3.408159578125,8.67660618203125C4.104945678125,7.85855388203125,5.088765878125,7.33870168203125,6.157197678125,7.22399378203125C5.8425936781250005,5.99026158203125,6.030981778125,4.682081682031249,6.680913878125,3.58724948203125C7.330833878125,2.49240568203125,8.389065778125001,1.70059278203125,9.622797978125,1.38599358203125C10.856530178125,1.07139317203125,12.164710078125,1.25977770403125,13.259553578125,1.90970361203125C14.354385578125,2.5596296820312503,15.146158578125,3.61786178203125,15.460798578125,4.85159378203125C16.194477578125,4.74942568203125,16.941478578125,4.799333582031251,17.655117578125,4.9981856820312505C18.368637578125,5.19704988203125,19.033798578125,5.54062178203125,19.608957578125,6.00752978203125C20.184118578125,6.47443768203125,20.657039578125,7.05469798203125,20.998319578125,7.71221348203125C21.339599578125,8.36971808203125,21.541917578125,9.09042548203125,21.592798578125,9.82949348203125C21.643558578125,10.56856158203125,21.541799578125,11.31018658203125,21.293758578125,12.00823758203125C21.045717578125,12.70627758203125,20.656679578125,13.34584258203125,20.150878578125,13.88704158203125C19.644958578125,14.42836158203125,19.033197578125,14.85964258203125,18.353518578124998,15.15436258203125C17.673838578125,15.44908258203125,16.940758578125,15.60076258203125,16.199998578124998,15.60004258203125C16.199998578124998,15.60004258203125,13.199998578125,15.60004258203125,13.199998578125,15.60004258203125C13.199998578125,15.60004258203125,13.199998578125,11.29559458203125,13.199998578125,11.29559458203125C13.199998578125,11.29559458203125,14.751597578125,12.84719458203125,14.751597578125,12.84719458203125C14.977918578125,13.06578558203125,15.281038578125,13.18673358203125,15.595678578125,13.18399858203125C15.910317578125,13.18127358203125,16.211277578125,13.05507058203125,16.433757578125,12.83257758203125C16.656237578125,12.61008658203125,16.782477578125,12.30911358203125,16.785238578125,11.99447458203125C16.787998578125,11.67983458203125,16.667037578125,11.37671458203125,16.448398578125,11.15039348203125C16.448398578125,11.15039348203125,12.848398578125,7.55039408203125,12.848398578125,7.55039408203125C12.623361578125,7.32542948203125,12.318201078125,7.19904568203125,11.999998078125,7.19904568203125C11.681805578125,7.19904568203125,11.376634578125,7.32542948203125,11.151597978125,7.55039408203125C11.151597978125,7.55039408203125,7.551598078125,11.15039348203125,7.551598078125,11.15039348203125C7.333005478125,11.37671458203125,7.212057578125,11.67983458203125,7.214793678125,11.99447458203125C7.217529278125,12.30911358203125,7.343721878125,12.61008658203125,7.566213578125,12.83257758203125C7.788705778125,13.05507058203125,8.089677778125,13.18127358203125,8.404317878125,13.18399858203125C8.718957878125,13.18673358203125,9.022078078125,13.06578558203125,9.248398278125,12.84719458203125C9.248398278125,12.84719458203125,10.799998278125,11.29679458203125,10.799998278125,11.29679458203125C10.799998278125,11.29679458203125,10.799998278125,15.60004258203125,10.799998278125,15.60004258203125C10.799998278125,15.60004258203125,6.599997478125,15.60004258203125,6.599997478125,15.60004258203125C6.599997478125,15.60004258203125,6.599997478125,15.60004258203125,6.599997478125,15.60004258203125Z" fill="#0A0A28" fill-opacity="1"/><path d="M10.79998779296875,15.600006103515625C10.79998779296875,15.600006103515625,13.19998789296875,15.600006103515625,13.19998789296875,15.600006103515625C13.19998789296875,15.600006103515625,13.19998789296875,21.600006103515625,13.19998789296875,21.600006103515625C13.19998789296875,21.918270603515623,13.07355599296875,22.223490203515624,12.84851999296875,22.448538303515626C12.62347189296875,22.673574403515623,12.31825199296875,22.800006403515624,11.99998779296875,22.800006403515624C11.68172866296875,22.800006403515624,11.37650382296875,22.673574403515623,11.15145939296875,22.448538303515626C10.92641620296875,22.223490203515624,10.79998779296875,21.918270603515623,10.79998779296875,21.600006103515625C10.79998779296875,21.600006103515625,10.79998779296875,15.600006103515625,10.79998779296875,15.600006103515625C10.79998779296875,15.600006103515625,10.79998779296875,15.600006103515625,10.79998779296875,15.600006103515625Z" fill="#0A0A28" fill-opacity="1"/></g></svg>