<svg xmlns="http://www.w3.org/2000/svg" xmlns:xlink="http://www.w3.org/1999/xlink" fill="none" version="1.1" width="24" height="24" viewBox="0 0 24 24"><defs><clipPath id="master_svg0_3_2058"><rect x="0" y="0" width="24" height="24" rx="0"/></clipPath></defs><g clip-path="url(#master_svg0_3_2058)"><path d="M7.00111098215332,17.000035863113403C7.55340098215332,16.9993358631134,8.00061128215332,16.5511358631134,8.00000098215332,15.998835863113403C7.99938108215332,15.446635863113404,7.55117128215332,14.999335863113403,6.99888088215332,15.000035863113403C6.99888088215332,15.000035863113403,7.00111098215332,17.000035863113403,7.00111098215332,17.000035863113403C7.00111098215332,17.000035863113403,7.00111098215332,17.000035863113403,7.00111098215332,17.000035863113403ZM6.120001082153321,8.096996063113403C6.120001082153321,8.096996063113403,6.33888098215332,9.072746063113403,6.33888098215332,9.072746063113403C6.874181082153321,8.952676063113405,7.2127909821533205,8.423755863113403,7.097771182153321,7.887346063113403C7.097771182153321,7.887346063113403,6.120001082153321,8.096996063113403,6.120001082153321,8.096996063113403C6.120001082153321,8.096996063113403,6.120001082153321,8.096996063113403,6.120001082153321,8.096996063113403ZM15.90003108215332,5.999995963113403C15.90003108215332,5.999995963113403,14.92223108215332,6.209655963113403,14.92223108215332,6.209655963113403C15.02103108215332,6.670665963113404,15.42853108215332,6.999995963113403,15.90003108215332,6.999995963113403C15.90003108215332,6.999995963113403,15.90003108215332,5.999995963113403,15.90003108215332,5.999995963113403C15.90003108215332,5.999995963113403,15.90003108215332,5.999995963113403,15.90003108215332,5.999995963113403ZM16.00003108215332,5.999995963113403C16.00003108215332,5.999995963113403,16.00003108215332,6.999995963113403,16.00003108215332,6.999995963113403C16.00003108215332,6.999995963113403,16.001031082153318,6.999995963113403,16.001031082153318,6.999995963113403C16.001031082153318,6.999995963113403,16.00003108215332,5.999995963113403,16.00003108215332,5.999995963113403C16.00003108215332,5.999995963113403,16.00003108215332,5.999995963113403,16.00003108215332,5.999995963113403ZM16.801031082153322,14.920035863113403C16.259731082153323,15.029935863113403,15.91013108215332,15.557735863113404,16.02003108215332,16.099035863113404C16.12993108215332,16.640235863113404,16.65773108215332,16.989935863113402,17.19903108215332,16.880035863113406C17.19903108215332,16.880035863113406,16.801031082153322,14.920035863113403,16.801031082153322,14.920035863113403C16.801031082153322,14.920035863113403,16.801031082153322,14.920035863113403,16.801031082153322,14.920035863113403ZM9.70711088215332,18.292935863113403C9.31658128215332,17.902335863113404,8.683421182153321,17.902335863113404,8.29289098215332,18.292935863113403C7.9023708821533205,18.683436863113403,7.9023708821533205,19.316534863113404,8.29289098215332,19.707135863113404C8.29289098215332,19.707135863113404,9.70711088215332,18.292935863113403,9.70711088215332,18.292935863113403C9.70711088215332,18.292935863113403,9.70711088215332,18.292935863113403,9.70711088215332,18.292935863113403ZM12.00000098215332,22.000035863113403C12.00000098215332,22.000035863113403,11.29289148215332,22.707135863113404,11.29289148215332,22.707135863113404C11.683421182153321,23.097636863113404,12.31658078215332,23.097636863113404,12.70711138215332,22.707135863113404C12.70711138215332,22.707135863113404,12.00000098215332,22.000035863113403,12.00000098215332,22.000035863113403C12.00000098215332,22.000035863113403,12.00000098215332,22.000035863113403,12.00000098215332,22.000035863113403ZM15.707131082153321,19.707135863113404C16.09763108215332,19.316534863113404,16.09763108215332,18.683436863113403,15.707131082153321,18.292935863113403C15.31663108215332,17.902335863113404,14.683431082153321,17.902335863113404,14.29293108215332,18.292935863113403C14.29293108215332,18.292935863113403,15.707131082153321,19.707135863113404,15.707131082153321,19.707135863113404C15.707131082153321,19.707135863113404,15.707131082153321,19.707135863113404,15.707131082153321,19.707135863113404ZM13.00003108215332,9.999995963113403C13.00003108215332,9.447715963113403,12.55228138215332,8.999995963113403,12.00000098215332,8.999995963113403C11.447710982153321,8.999995963113403,11.00000098215332,9.447715963113403,11.00000098215332,9.999995963113403C11.00000098215332,9.999995963113403,13.00003108215332,9.999995963113403,13.00003108215332,9.999995963113403C13.00003108215332,9.999995963113403,13.00003108215332,9.999995963113403,13.00003108215332,9.999995963113403ZM6.99888088215332,15.000035863113403C6.260141182153321,15.000835863113403,5.54707098215332,14.729035863113403,4.99629118215332,14.236735863113402C4.99629118215332,14.236735863113402,3.6634510721533204,15.727935863113403,3.6634510721533204,15.727935863113403C4.581430982153321,16.548435863113404,5.76988098215332,17.001335863113404,7.00111098215332,17.000035863113403C7.00111098215332,17.000035863113403,6.99888088215332,15.000035863113403,6.99888088215332,15.000035863113403C6.99888088215332,15.000035863113403,6.99888088215332,15.000035863113403,6.99888088215332,15.000035863113403ZM4.99629118215332,14.236735863113402C4.445501082153321,13.744435863113404,4.09572108215332,13.066235863113404,4.01397108215332,12.332035863113404C4.01397108215332,12.332035863113404,2.0262520921533205,12.553335863113404,2.0262520921533205,12.553335863113404C2.1625080721533205,13.777035863113403,2.7454690921533205,14.907335863113403,3.6634510721533204,15.727935863113403C3.6634510721533204,15.727935863113403,4.99629118215332,14.236735863113402,4.99629118215332,14.236735863113402C4.99629118215332,14.236735863113402,4.99629118215332,14.236735863113402,4.99629118215332,14.236735863113402ZM4.01397108215332,12.332035863113404C3.9322140821533202,11.597795763113403,4.124231082153321,10.859245563113403,4.553231082153321,10.257835663113402C4.553231082153321,10.257835663113402,2.92503198215332,9.096395763113403,2.92503198215332,9.096395763113403C2.21002710215332,10.098736063113403,1.8900010821533204,11.329665463113404,2.0262520921533205,12.553335863113404C2.0262520921533205,12.553335863113404,4.01397108215332,12.332035863113404,4.01397108215332,12.332035863113404C4.01397108215332,12.332035863113404,4.01397108215332,12.332035863113404,4.01397108215332,12.332035863113404ZM4.553231082153321,10.257835663113402C4.982241082153321,9.656425763113404,5.61806108215332,9.234445763113403,6.33888098215332,9.072746063113403C6.33888098215332,9.072746063113403,5.901111082153321,7.121246063113404,5.901111082153321,7.121246063113404C4.69974108215332,7.390745863113404,3.6400370621533202,8.094045863113404,2.92503198215332,9.096395763113403C2.92503198215332,9.096395763113403,4.553231082153321,10.257835663113402,4.553231082153321,10.257835663113402C4.553231082153321,10.257835663113402,4.553231082153321,10.257835663113402,4.553231082153321,10.257835663113402ZM7.097771182153321,7.887346063113403C6.875301082153321,6.849766063113403,7.074110982153321,5.766295863113403,7.65048118215332,4.875295863113403C7.65048118215332,4.875295863113403,5.97121118215332,3.7890058631134034,5.97121118215332,3.7890058631134034C5.10673118215332,5.125375763113404,4.8085410821533205,6.750426063113403,5.1422209821533205,8.306655663113403C5.1422209821533205,8.306655663113403,7.097771182153321,7.887346063113403,7.097771182153321,7.887346063113403C7.097771182153321,7.887346063113403,7.097771182153321,7.887346063113403,7.097771182153321,7.887346063113403ZM7.65048118215332,4.875295863113403C8.22685098215332,3.9842958631134033,9.13356118215332,3.3587558631134034,10.17115118215332,3.1362758631134033C10.17115118215332,3.1362758631134033,9.751851082153319,1.1807238431134033,9.751851082153319,1.1807238431134033C8.19562098215332,1.5144068631134033,6.83568118215332,2.4526328731134033,5.97121118215332,3.7890058631134034C5.97121118215332,3.7890058631134034,7.65048118215332,4.875295863113403,7.65048118215332,4.875295863113403C7.65048118215332,4.875295863113403,7.65048118215332,4.875295863113403,7.65048118215332,4.875295863113403ZM10.17115118215332,3.1362758631134033C11.20874118215332,2.9137998831134033,12.292201082153321,3.1126158631134033,13.18323108215332,3.6889858631134036C13.18323108215332,3.6889858631134036,14.26953108215332,2.009707965113403,14.26953108215332,2.009707965113403C12.933120682153321,1.1452358331134032,11.30808068215332,0.8470458631134032,9.751851082153319,1.1807238431134033C9.751851082153319,1.1807238431134033,10.17115118215332,3.1362758631134033,10.17115118215332,3.1362758631134033C10.17115118215332,3.1362758631134033,10.17115118215332,3.1362758631134033,10.17115118215332,3.1362758631134033ZM13.18323108215332,3.6889858631134036C14.07423108215332,4.265355863113403,14.69973108215332,5.172065963113403,14.92223108215332,6.209655963113403C14.92223108215332,6.209655963113403,16.877731082153318,5.790345863113403,16.877731082153318,5.790345863113403C16.54413108215332,4.234115863113404,15.60583108215332,2.8741798431134034,14.26953108215332,2.009707965113403C14.26953108215332,2.009707965113403,13.18323108215332,3.6889858631134036,13.18323108215332,3.6889858631134036C13.18323108215332,3.6889858631134036,13.18323108215332,3.6889858631134036,13.18323108215332,3.6889858631134036ZM15.90003108215332,6.999995963113403C15.90003108215332,6.999995963113403,16.00003108215332,6.999995963113403,16.00003108215332,6.999995963113403C16.00003108215332,6.999995963113403,16.00003108215332,4.999995963113403,16.00003108215332,4.999995963113403C16.00003108215332,4.999995963113403,15.90003108215332,4.999995963113403,15.90003108215332,4.999995963113403C15.90003108215332,4.999995963113403,15.90003108215332,6.999995963113403,15.90003108215332,6.999995963113403C15.90003108215332,6.999995963113403,15.90003108215332,6.999995963113403,15.90003108215332,6.999995963113403ZM16.001031082153318,6.999995963113403C16.99293108215332,6.999006063113403,17.94993108215332,7.3666260631134035,18.68603108215332,8.031495763113403C18.68603108215332,8.031495763113403,20.02663008215332,6.547245763113403,20.02663008215332,6.547245763113403C18.92233108215332,5.5499358631134035,17.48693108215332,4.998505863113403,15.999031082153321,4.999995963113403C15.999031082153321,4.999995963113403,16.001031082153318,6.999995963113403,16.001031082153318,6.999995963113403C16.001031082153318,6.999995963113403,16.001031082153318,6.999995963113403,16.001031082153318,6.999995963113403ZM18.68603108215332,8.031495763113403C19.42223208215332,8.696376063113403,19.88513208215332,9.611065663113404,19.98473208215332,10.598005563113404C19.98473208215332,10.598005563113404,21.974630082153322,10.397006263113404,21.974630082153322,10.397006263113404C21.825130082153322,8.916595663113403,21.13083108215332,7.544555863113404,20.02663008215332,6.547245763113403C20.02663008215332,6.547245763113403,18.68603108215332,8.031495763113403,18.68603108215332,8.031495763113403C18.68603108215332,8.031495763113403,18.68603108215332,8.031495763113403,18.68603108215332,8.031495763113403ZM19.98473208215332,10.598005563113404C20.08443108215332,11.584945963113404,19.81393008215332,12.573735863113404,19.22553108215332,13.372335863113403C19.22553108215332,13.372335863113403,20.83583108215332,14.558535863113404,20.83583108215332,14.558535863113404C21.71833008215332,13.360535863113403,22.12423108215332,11.877415863113404,21.974630082153322,10.397006263113404C21.974630082153322,10.397006263113404,19.98473208215332,10.598005563113404,19.98473208215332,10.598005563113404C19.98473208215332,10.598005563113404,19.98473208215332,10.598005563113404,19.98473208215332,10.598005563113404ZM19.22553108215332,13.372335863113403C18.63723108215332,14.171035863113403,17.77313108215332,14.722635863113403,16.801031082153322,14.920035863113403C16.801031082153322,14.920035863113403,17.19903108215332,16.880035863113406,17.19903108215332,16.880035863113406C18.65713108215332,16.583935863113403,19.95333108215332,15.756535863113402,20.83583108215332,14.558535863113404C20.83583108215332,14.558535863113404,19.22553108215332,13.372335863113403,19.22553108215332,13.372335863113403C19.22553108215332,13.372335863113403,19.22553108215332,13.372335863113403,19.22553108215332,13.372335863113403ZM8.29289098215332,19.707135863113404C8.29289098215332,19.707135863113404,11.29289148215332,22.707135863113404,11.29289148215332,22.707135863113404C11.29289148215332,22.707135863113404,12.70711138215332,21.292935863113403,12.70711138215332,21.292935863113403C12.70711138215332,21.292935863113403,9.70711088215332,18.292935863113403,9.70711088215332,18.292935863113403C9.70711088215332,18.292935863113403,8.29289098215332,19.707135863113404,8.29289098215332,19.707135863113404C8.29289098215332,19.707135863113404,8.29289098215332,19.707135863113404,8.29289098215332,19.707135863113404ZM12.70711138215332,22.707135863113404C12.70711138215332,22.707135863113404,15.707131082153321,19.707135863113404,15.707131082153321,19.707135863113404C15.707131082153321,19.707135863113404,14.29293108215332,18.292935863113403,14.29293108215332,18.292935863113403C14.29293108215332,18.292935863113403,11.29289148215332,21.292935863113403,11.29289148215332,21.292935863113403C11.29289148215332,21.292935863113403,12.70711138215332,22.707135863113404,12.70711138215332,22.707135863113404C12.70711138215332,22.707135863113404,12.70711138215332,22.707135863113404,12.70711138215332,22.707135863113404ZM13.00003108215332,22.000035863113403C13.00003108215332,22.000035863113403,13.00003108215332,9.999995963113403,13.00003108215332,9.999995963113403C13.00003108215332,9.999995963113403,11.00000098215332,9.999995963113403,11.00000098215332,9.999995963113403C11.00000098215332,9.999995963113403,11.00000098215332,22.000035863113403,11.00000098215332,22.000035863113403C11.00000098215332,22.000035863113403,13.00003108215332,22.000035863113403,13.00003108215332,22.000035863113403C13.00003108215332,22.000035863113403,13.00003108215332,22.000035863113403,13.00003108215332,22.000035863113403Z" fill="#0A0A28" fill-opacity="1"/></g></svg>