<svg xmlns="http://www.w3.org/2000/svg" xmlns:xlink="http://www.w3.org/1999/xlink" fill="none" version="1.1" width="24" height="24" viewBox="0 0 24 24"><defs><clipPath id="master_svg0_3_2003"><rect x="0" y="0" width="24" height="24" rx="0"/></clipPath></defs><g clip-path="url(#master_svg0_3_2003)"><path d="M3.00000000505303,14.99999571685791C3.00000000505303,14.99999571685791,4,14.99999571685791,4,14.99999571685791C4,14.99999571685791,4,14.99999571685791,4,14.99999571685791C4,14.99999571685791,3.00000000505303,14.99999571685791,3.00000000505303,14.99999571685791C3.00000000505303,14.99999571685791,3.00000000505303,14.99999571685791,3.00000000505303,14.99999571685791ZM16,18.99999571685791C16,18.99999571685791,16,19.99999571685791,16,19.99999571685791C16,19.99999571685791,16,19.99999571685791,16,19.99999571685791C16,19.99999571685791,16,18.99999571685791,16,18.99999571685791C16,18.99999571685791,16,18.99999571685791,16,18.99999571685791ZM15.9,9.00099561685791C15.9,9.00099561685791,14.9183,9.19136571685791,14.9183,9.19136571685791C15.0109,9.66889571685791,15.4337,10.01052571685791,15.92,10.00079581685791C15.92,10.00079581685791,15.9,9.00099561685791,15.9,9.00099561685791C15.9,9.00099561685791,15.9,9.00099561685791,15.9,9.00099561685791ZM6.1199999,11.096995816857909C6.1199999,11.096995816857909,6.3401899,12.07245591685791,6.3401899,12.07245591685791C6.6003699000000005,12.013725716857909,6.8262999,11.85348561685791,6.9677701,11.62736561685791C7.10923,11.40124561685791,7.1545,11.12798591685791,7.0935001,10.86833571685791C7.0935001,10.86833571685791,6.1199999,11.096995816857909,6.1199999,11.096995816857909C6.1199999,11.096995816857909,6.1199999,11.096995816857909,6.1199999,11.096995816857909ZM2,14.99999571685791C2,16.32609571685791,2.526784,17.59789571685791,3.4644660099999998,18.53549571685791C3.4644660099999998,18.53549571685791,4.87868,17.121295716857908,4.87868,17.121295716857908C4.31607,16.558695716857912,4,15.79569571685791,4,14.99999571685791C4,14.99999571685791,2,14.99999571685791,2,14.99999571685791C2,14.99999571685791,2,14.99999571685791,2,14.99999571685791ZM3.4644660099999998,18.53549571685791C4.40215,19.47319571685791,5.6739199,19.99999571685791,7,19.99999571685791C7,19.99999571685791,7,17.99999571685791,7,17.99999571685791C6.20435,17.99999571685791,5.4412899,17.68389571685791,4.87868,17.121295716857908C4.87868,17.121295716857908,3.4644660099999998,18.53549571685791,3.4644660099999998,18.53549571685791C3.4644660099999998,18.53549571685791,3.4644660099999998,18.53549571685791,3.4644660099999998,18.53549571685791ZM7,19.99999571685791C7,19.99999571685791,16,19.99999571685791,16,19.99999571685791C16,19.99999571685791,16,17.99999571685791,16,17.99999571685791C16,17.99999571685791,7,17.99999571685791,7,17.99999571685791C7,17.99999571685791,7,19.99999571685791,7,19.99999571685791C7,19.99999571685791,7,19.99999571685791,7,19.99999571685791ZM16,19.99999571685791C16.793,19.99999571685791,17.5781,19.84279571685791,18.310000000000002,19.53749571685791C18.310000000000002,19.53749571685791,17.54,17.69169571685791,17.54,17.69169571685791C17.0521,17.895195716857913,16.5287,17.99999571685791,16,17.99999571685791C16,17.99999571685791,16,19.99999571685791,16,19.99999571685791C16,19.99999571685791,16,19.99999571685791,16,19.99999571685791ZM18.310000000000002,19.53749571685791C19.0418,19.23219571685791,19.7059,18.78489571685791,20.2638,18.221395716857913C20.2638,18.221395716857913,18.8425,16.81429571685791,18.8425,16.81429571685791C18.470599999999997,17.18989571685791,18.027900000000002,17.48819571685791,17.54,17.69169571685791C17.54,17.69169571685791,18.310000000000002,19.53749571685791,18.310000000000002,19.53749571685791C18.310000000000002,19.53749571685791,18.310000000000002,19.53749571685791,18.310000000000002,19.53749571685791ZM20.2638,18.221395716857913C20.821699,17.657895716857908,21.2624,16.98929571685791,21.560301,16.25449571685791C21.560301,16.25449571685791,19.7069,15.50299571685791,19.7069,15.50299571685791C19.508301,15.99289571685791,19.2145,16.43859571685791,18.8425,16.81429571685791C18.8425,16.81429571685791,20.2638,18.221395716857913,20.2638,18.221395716857913C20.2638,18.221395716857913,20.2638,18.221395716857913,20.2638,18.221395716857913ZM21.560301,16.25449571685791C21.858299,15.51959571685791,22.007601,14.73293591685791,21.999701,13.93999571685791C21.999701,13.93999571685791,19.9998,13.95999531685791,19.9998,13.95999531685791C20.0051,14.48862551685791,19.9055,15.01309571685791,19.7069,15.50299571685791C19.7069,15.50299571685791,21.560301,16.25449571685791,21.560301,16.25449571685791C21.560301,16.25449571685791,21.560301,16.25449571685791,21.560301,16.25449571685791ZM21.999701,13.93999571685791C21.9918,13.14705561685791,21.8267,12.36355591685791,21.514099,11.634785616857911C21.514099,11.634785616857911,19.6761,12.423195816857909,19.6761,12.423195816857909C19.884501,12.909035716857911,19.994499,13.43137551685791,19.9998,13.95999531685791C19.9998,13.95999531685791,21.999701,13.93999571685791,21.999701,13.93999571685791C21.999701,13.93999571685791,21.999701,13.93999571685791,21.999701,13.93999571685791ZM21.514099,11.634785616857911C21.2015,10.90601591685791,20.747601,10.24644561685791,20.178499,9.69419571685791C20.178499,9.69419571685791,18.7857,11.12946561685791,18.7857,11.12946561685791C19.1651,11.49762581685791,19.467699,11.93734551685791,19.6761,12.423195816857909C19.6761,12.423195816857909,21.514099,11.634785616857911,21.514099,11.634785616857911C21.514099,11.634785616857911,21.514099,11.634785616857911,21.514099,11.634785616857911ZM20.178499,9.69419571685791C19.6094,9.141945816857909,18.9366,8.70798561685791,18.198700000000002,8.41739581685791C18.198700000000002,8.41739581685791,17.4658,10.27825591685791,17.4658,10.27825591685791C17.957700000000003,10.47198581685791,18.4063,10.76129581685791,18.7857,11.12946561685791C18.7857,11.12946561685791,20.178499,9.69419571685791,20.178499,9.69419571685791C20.178499,9.69419571685791,20.178499,9.69419571685791,20.178499,9.69419571685791ZM18.198700000000002,8.41739581685791C17.460900000000002,8.12679581685791,16.672800000000002,7.98534561685791,15.88,8.00119571685791C15.88,8.00119571685791,15.92,10.00079581685791,15.92,10.00079581685791C16.4485,9.99022581685791,16.9739,10.08453561685791,17.4658,10.27825591685791C17.4658,10.27825591685791,18.198700000000002,8.41739581685791,18.198700000000002,8.41739581685791C18.198700000000002,8.41739581685791,18.198700000000002,8.41739581685791,18.198700000000002,8.41739581685791ZM16.881700000000002,8.81063581685791C16.729799999999997,8.02714561685791,16.423099999999998,7.28181581685791,15.9797,6.61826571685791C15.9797,6.61826571685791,14.3168,7.72953581685791,14.3168,7.72953581685791C14.6125,8.17197561685791,14.817,8.66894581685791,14.9183,9.19136571685791C14.9183,9.19136571685791,16.881700000000002,8.81063581685791,16.881700000000002,8.81063581685791C16.881700000000002,8.81063581685791,16.881700000000002,8.81063581685791,16.881700000000002,8.81063581685791ZM15.9797,6.61826571685791C15.5362,5.95471571685791,14.9649,5.38626670685791,14.2991,4.94618103695791C14.2991,4.94618103695791,13.1963,6.61462571685791,13.1963,6.61462571685791C13.6402,6.9080657168579105,14.0212,7.28709581685791,14.3168,7.72953581685791C14.3168,7.72953581685791,15.9797,6.61826571685791,15.9797,6.61826571685791C15.9797,6.61826571685791,15.9797,6.61826571685791,15.9797,6.61826571685791ZM14.2991,4.94618103695791C13.6333,4.50609570685791,12.8864698,4.20320969685791,12.1022196,4.05524772685791C12.1022196,4.05524772685791,11.7314196,6.02057571685791,11.7314196,6.02057571685791C12.2543497,6.11923571685791,12.7523403,6.32118571685791,13.1963,6.61462571685791C13.1963,6.61462571685791,14.2991,4.94618103695791,14.2991,4.94618103695791C14.2991,4.94618103695791,14.2991,4.94618103695791,14.2991,4.94618103695791ZM12.1022196,4.05524772685791C11.3179598,3.9072857168579103,10.5120802,3.9172157168579105,9.73171,4.08446073685791C9.73171,4.08446073685791,10.1508198,6.0400557168579105,10.1508198,6.0400557168579105C10.6711502,5.92853873685791,11.2084999,5.92191672685791,11.7314196,6.02057571685791C11.7314196,6.02057571685791,12.1022196,4.05524772685791,12.1022196,4.05524772685791C12.1022196,4.05524772685791,12.1022196,4.05524772685791,12.1022196,4.05524772685791ZM9.73171,4.08446073685791C8.9513402,4.25170469685791,8.2121701,4.57290470685791,7.5574298,5.02926361585791C7.5574298,5.02926361585791,8.7010598,6.670025716857911,8.7010598,6.670025716857911C9.13763,6.36573581685791,9.6304898,6.15156571685791,10.1508198,6.0400557168579105C10.1508198,6.0400557168579105,9.73171,4.08446073685791,9.73171,4.08446073685791C9.73171,4.08446073685791,9.73171,4.08446073685791,9.73171,4.08446073685791ZM7.5574298,5.02926361585791C6.9026899,5.48562270685791,6.34554,6.0679757168579105,5.9185801,6.74225571685791C5.9185801,6.74225571685791,7.6083202,7.81221581685791,7.6083202,7.81221581685791C7.8930001,7.36261581685791,8.2645001,6.97431561685791,8.7010598,6.670025716857911C8.7010598,6.670025716857911,7.5574298,5.02926361585791,7.5574298,5.02926361585791C7.5574298,5.02926361585791,7.5574298,5.02926361585791,7.5574298,5.02926361585791ZM5.9185801,6.74225571685791C5.4916201000000004,7.41653561685791,5.2034299,8.16918561685791,5.0708499,8.95618581685791C5.0708499,8.95618581685791,7.0430698,9.288415916857911,7.0430698,9.288415916857911C7.1314602,8.76365561685791,7.3236299,8.26180581685791,7.6083202,7.81221581685791C7.6083202,7.81221581685791,5.9185801,6.74225571685791,5.9185801,6.74225571685791C5.9185801,6.74225571685791,5.9185801,6.74225571685791,5.9185801,6.74225571685791ZM5.0708499,8.95618581685791C4.93828,9.74318551685791,4.964,10.54872561685791,5.1465001,11.325665916857911C5.1465001,11.325665916857911,7.0935001,10.86833571685791,7.0935001,10.86833571685791C6.9718201,10.350285516857909,6.95467,9.81316561685791,7.0430698,9.288415916857911C7.0430698,9.288415916857911,5.0708499,8.95618581685791,5.0708499,8.95618581685791C5.0708499,8.95618581685791,5.0708499,8.95618581685791,5.0708499,8.95618581685791ZM5.8998001,10.12154581685791C4.7926400000000005,10.37147571685791,3.80341703,10.99058581685791,3.094703503,11.87716581685791C3.094703503,11.87716581685791,4.6569099000000005,13.12596611685791,4.6569099000000005,13.12596611685791C5.082190000000001,12.59395551685791,5.6758001,12.222435916857911,6.3401899,12.07245591685791C6.3401899,12.07245591685791,5.8998001,10.12154581685791,5.8998001,10.12154581685791C5.8998001,10.12154581685791,5.8998001,10.12154581685791,5.8998001,10.12154581685791ZM3.094703503,11.87716581685791C2.38599002,12.76373581685791,1.99994,13.86502551685791,2,15.00009571685791C2,15.00009571685791,4,14.99999571685791,4,14.99999571685791C3.99996603,14.31884571685791,4.2316199999999995,13.65798571685791,4.6569099000000005,13.12596611685791C4.6569099000000005,13.12596611685791,3.094703503,11.87716581685791,3.094703503,11.87716581685791C3.094703503,11.87716581685791,3.094703503,11.87716581685791,3.094703503,11.87716581685791Z" fill="#0A0A28" fill-opacity="1"/></g></svg>