<svg xmlns="http://www.w3.org/2000/svg" xmlns:xlink="http://www.w3.org/1999/xlink" fill="none" version="1.1" width="24" height="24" viewBox="0 0 24 24"><defs><clipPath id="master_svg0_3_2191"><rect x="0" y="0" width="24" height="24" rx="0"/></clipPath></defs><g clip-path="url(#master_svg0_3_2191)"><path d="M2.400024457989101,11.399996201171875C2.400024457989101,12.513909201171876,2.8425232140625,13.582136201171876,3.6301805140625003,14.369817201171875C4.4178245140625005,15.157496201171876,5.4861123140625,15.600056201171874,6.6000247140625,15.600056201171874C6.6000247140625,15.600056201171874,10.8000250140625,15.600056201171874,10.8000250140625,15.600056201171874C10.8000250140625,15.600056201171874,10.8000250140625,18.703256201171875,10.8000250140625,18.703256201171875C10.8000250140625,18.703256201171875,9.2484245140625,17.151657201171876,9.2484245140625,17.151657201171876C9.0221047140625,16.933017201171875,8.7189846140625,16.812057201171875,8.4043450140625,16.814816201171872C8.0897045140625,16.817576201171875,7.7887325140625,16.943696201171875,7.5662408140625,17.166176201171876C7.3437486140625,17.388656201171877,7.2175445140625,17.689737201171877,7.2148208140625,18.004377201171874C7.2120843140625,18.318897201171875,7.3330326140625,18.622017201171875,7.5516248140625,18.848457201171875C7.5516248140625,18.848457201171875,11.1516247140625,22.448458201171874,11.1516247140625,22.448458201171874C11.3766603140625,22.673336201171875,11.6818323140625,22.799698201171875,12.0000248140625,22.799698201171875C12.3182163140625,22.799698201171875,12.6233894140625,22.673336201171875,12.8484244140625,22.448458201171874C12.8484244140625,22.448458201171874,16.4484244140625,18.848457201171875,16.4484244140625,18.848457201171875C16.6670654140625,18.622017201171875,16.788024414062498,18.318897201171875,16.785266414062498,18.004377201171874C16.7825054140625,17.689737201171877,16.6562654140625,17.388656201171877,16.4337854140625,17.166176201171876C16.2113054140625,16.943696201171875,15.9103454140625,16.817576201171875,15.5957054140625,16.814816201171872C15.2810644140625,16.812057201171875,14.9779444140625,16.933017201171875,14.7516254140625,17.151657201171876C14.7516254140625,17.151657201171876,13.2000244140625,18.703256201171875,13.2000244140625,18.703256201171875C13.2000244140625,18.703256201171875,13.2000244140625,15.600056201171874,13.2000244140625,15.600056201171874C13.2000244140625,15.600056201171874,16.2000244140625,15.600056201171874,16.2000244140625,15.600056201171874C16.940065414062502,15.599576201171875,17.6721854140625,15.447057201171875,18.350905414062503,15.151857201171875C19.0295044140625,14.856657201171876,19.6401864140625,14.425016201171875,20.1451454140625,13.883937201171875C20.6499844140625,13.342856201171875,21.0383054140625,12.703676201171875,21.2858654140625,12.006223201171874C21.5334244140625,11.308773201171874,21.6349454140625,10.567880601171876,21.5841844140625,9.829545001171875C21.5334244140625,9.091208501171874,21.3313444140625,8.371184301171876,20.9906654140625,7.714184301171875C20.6499844140625,7.057172801171875,20.1779064140625,6.477212401171875,19.6037044140625,6.010304401171875C19.0295044140625,5.543396501171875,18.365424414062502,5.199488201171875,17.6527454140625,4.999964201171875C16.940065414062502,4.800428201171875,16.1940254140625,4.749524401171875,15.4608254140625,4.850396401171875C15.3191044140625,4.224704301171875,15.0534254140625,3.633740201171875,14.6795044140625,3.112412501171875C14.3056674140625,2.591072301171875,13.8311044140625,2.149946201171875,13.2839044140625,1.815061031171875C12.7366924140625,1.480175821171875,12.1279335140625,1.2583246111718749,11.4935646140625,1.162607442171875C10.8591966140625,1.066890281171875,10.212084314062501,1.099247368971875,9.5904369140625,1.257767811171875C8.9687767140625,1.416289001171875,8.385180514062501,1.697759811171875,7.8741126140625,2.085560261171875C7.3630447140625,2.473364201171875,6.9348607140625,2.959628201171875,6.6148329140625,3.515660301171875C6.2948046140625,4.071692201171874,6.0894368140625,4.686200401171876,6.0108366140625,5.322920301171875C5.932236714062499,5.959628601171875,5.9820125140625,6.605636101171875,6.1572246140625,7.222796901171875C5.1256564140625,7.332164301171875,4.1710565140625,7.819412701171875,3.4773413140625,8.590676301171875C2.7836248540625,9.361940401171875,2.3998745100525,10.362645101171875,2.400024457989101,11.399996201171875C2.400024457989101,11.399996201171875,2.400024457989101,11.399996201171875,2.400024457989101,11.399996201171875C2.400024457989101,11.399996201171875,2.400024457989101,11.399996201171875,2.400024457989101,11.399996201171875ZM13.2000244140625,15.600056201171874C13.2000244140625,15.600056201171874,10.8000250140625,15.600056201171874,10.8000250140625,15.600056201171874C10.8000250140625,15.600056201171874,10.8000250140625,9.599996601171876,10.8000250140625,9.599996601171876C10.8000250140625,9.281745001171876,10.9264564140625,8.976512401171874,11.1514931140625,8.751464801171874C11.3765411140625,8.526428701171875,11.6817608140625,8.399996801171875,12.0000248140625,8.399996801171875C12.3182888140625,8.399996801171875,12.6235094140625,8.526428701171875,12.8485574140625,8.751464801171874C13.0735934140625,8.976512401171874,13.2000244140625,9.281745001171876,13.2000244140625,9.599996601171876C13.2000244140625,9.599996601171876,13.2000244140625,15.600056201171874,13.2000244140625,15.600056201171874C13.2000244140625,15.600056201171874,13.2000244140625,15.600056201171874,13.2000244140625,15.600056201171874Z" fill-rule="evenodd" fill="#0A0A28" fill-opacity="1"/></g></svg>