<svg xmlns="http://www.w3.org/2000/svg" xmlns:xlink="http://www.w3.org/1999/xlink" fill="none" version="1.1" width="24" height="24" viewBox="0 0 24 24"><defs><clipPath id="master_svg0_3_1914"><rect x="0" y="0" width="24" height="24" rx="0"/></clipPath></defs><g clip-path="url(#master_svg0_3_1914)"><path d="M9.02986,19.7575C8.8959098,20.293301,9.2216702,20.836201,9.7574601,20.9701C10.2932596,21.104099,10.8361902,20.778299,10.9701405,20.2425C10.9701405,20.2425,9.02986,19.7575,9.02986,19.7575C9.02986,19.7575,9.02986,19.7575,9.02986,19.7575ZM14.9701,4.24253599C15.1041,3.70674101,14.7783,3.16380602,14.2425,3.02985799C13.7067,2.8959099999999998,13.1638,3.22166902,13.0299,3.75746401C13.0299,3.75746401,14.9701,4.24253599,14.9701,4.24253599C14.9701,4.24253599,14.9701,4.24253599,14.9701,4.24253599ZM18.7071,7.2928901C18.316601,6.9023699999999995,17.6834,6.9023699999999995,17.2929,7.2928901C16.9024,7.6834199000000005,16.9024,8.3165798,17.2929,8.707109899999999C17.2929,8.707109899999999,18.7071,7.2928901,18.7071,7.2928901C18.7071,7.2928901,18.7071,7.2928901,18.7071,7.2928901ZM22,12C22,12,22.7071,12.7071104,22.7071,12.7071104C23.097601,12.3165798,23.097601,11.6834202,22.7071,11.292890100000001C22.7071,11.292890100000001,22,12,22,12C22,12,22,12,22,12ZM17.2929,15.2929C16.9024,15.6834,16.9024,16.3166,17.2929,16.7071C17.6834,17.0976,18.316601,17.0976,18.7071,16.7071C18.7071,16.7071,17.2929,15.2929,17.2929,15.2929C17.2929,15.2929,17.2929,15.2929,17.2929,15.2929ZM5.2928901,16.7071C5.6834199000000005,17.0976,6.3165798,17.0976,6.7071099,16.7071C7.09763,16.3166,7.09763,15.6834,6.7071099,15.2929C6.7071099,15.2929,5.2928901,16.7071,5.2928901,16.7071C5.2928901,16.7071,5.2928901,16.7071,5.2928901,16.7071ZM2,12C2,12,1.29289299,11.292890100000001,1.29289299,11.292890100000001C0.9023699999999999,11.6834202,0.9023699999999999,12.3165798,1.29289299,12.7071104C1.29289299,12.7071104,2,12,2,12C2,12,2,12,2,12ZM6.7071099,8.707109899999999C7.09763,8.3165798,7.09763,7.6834199000000005,6.7071099,7.2928901C6.3165798,6.9023699999999995,5.6834199000000005,6.9023699999999995,5.2928901,7.2928901C5.2928901,7.2928901,6.7071099,8.707109899999999,6.7071099,8.707109899999999C6.7071099,8.707109899999999,6.7071099,8.707109899999999,6.7071099,8.707109899999999ZM10.9701405,20.2425C10.9701405,20.2425,14.9701,4.24253599,14.9701,4.24253599C14.9701,4.24253599,13.0299,3.75746401,13.0299,3.75746401C13.0299,3.75746401,9.02986,19.7575,9.02986,19.7575C9.02986,19.7575,10.9701405,20.2425,10.9701405,20.2425C10.9701405,20.2425,10.9701405,20.2425,10.9701405,20.2425ZM17.2929,8.707109899999999C17.2929,8.707109899999999,21.2929,12.7071104,21.2929,12.7071104C21.2929,12.7071104,22.7071,11.292890100000001,22.7071,11.292890100000001C22.7071,11.292890100000001,18.7071,7.2928901,18.7071,7.2928901C18.7071,7.2928901,17.2929,8.707109899999999,17.2929,8.707109899999999C17.2929,8.707109899999999,17.2929,8.707109899999999,17.2929,8.707109899999999ZM21.2929,11.292890100000001C21.2929,11.292890100000001,17.2929,15.2929,17.2929,15.2929C17.2929,15.2929,18.7071,16.7071,18.7071,16.7071C18.7071,16.7071,22.7071,12.7071104,22.7071,12.7071104C22.7071,12.7071104,21.2929,11.292890100000001,21.2929,11.292890100000001C21.2929,11.292890100000001,21.2929,11.292890100000001,21.2929,11.292890100000001ZM6.7071099,15.2929C6.7071099,15.2929,2.70710701,11.292890100000001,2.70710701,11.292890100000001C2.70710701,11.292890100000001,1.29289299,12.7071104,1.29289299,12.7071104C1.29289299,12.7071104,5.2928901,16.7071,5.2928901,16.7071C5.2928901,16.7071,6.7071099,15.2929,6.7071099,15.2929C6.7071099,15.2929,6.7071099,15.2929,6.7071099,15.2929ZM2.70710701,12.7071104C2.70710701,12.7071104,6.7071099,8.707109899999999,6.7071099,8.707109899999999C6.7071099,8.707109899999999,5.2928901,7.2928901,5.2928901,7.2928901C5.2928901,7.2928901,1.29289299,11.292890100000001,1.29289299,11.292890100000001C1.29289299,11.292890100000001,2.70710701,12.7071104,2.70710701,12.7071104C2.70710701,12.7071104,2.70710701,12.7071104,2.70710701,12.7071104Z" fill="#0A0A28" fill-opacity="1"/></g></svg>