<svg xmlns="http://www.w3.org/2000/svg" xmlns:xlink="http://www.w3.org/1999/xlink" fill="none" version="1.1" width="24" height="24" viewBox="0 0 24 24"><defs><clipPath id="master_svg0_3_1954"><rect x="0" y="0" width="24" height="24" rx="0"/></clipPath></defs><g clip-path="url(#master_svg0_3_1954)"><path d="M14.77921634765625,3.66121745815625C14.92873634765625,3.71098375015625,15.06709734765625,3.78973123015625,15.18625634765625,3.89296004015625C15.30529734765625,3.99619007015625,15.40297734765625,4.12187928015625,15.47353634765625,4.26284814015625C15.54397634765625,4.40381694015625,15.58609634765625,4.55730176015625,15.59725734765625,4.71453531015625C15.60853634765625,4.87176671015625,15.58861734765625,5.02967451015625,15.53881734765625,5.17921861015625C15.53881734765625,5.17921861015625,10.73880484765625,19.57923341015625,10.73880484765625,19.57923341015625C10.63823314765625,19.88127341015625,10.42180064765625,20.13099241015625,10.13711264765625,20.27343341015625C9.85243604765625,20.41587241015625,9.52283284765625,20.43939241015625,9.22080514765625,20.33883241015625C8.91877654765625,20.23827341015625,8.66906884765625,20.02179141015625,8.52661654765625,19.73715241015625C8.384164347656249,19.452512410156253,8.36063244765625,19.122872410156248,8.46120454765625,18.82083341015625C8.46120454765625,18.82083341015625,13.26121734765625,4.4208173201562495,13.26121734765625,4.4208173201562495C13.31101734765625,4.2712469101562505,13.38973734765625,4.13294691015625,13.49293734765625,4.01381928015625C13.59613734765625,3.89469045015625,13.72189734765625,3.79706804015625,13.86277634765625,3.72652723015625C14.00377634765625,3.65598773615625,14.15725634765625,3.61391273215625,14.31457734765625,3.60270662655625C14.47177734765625,3.59150047325625,14.62969634765625,3.61138277115625,14.77921634765625,3.66121745815625C14.77921634765625,3.66121745815625,14.77921634765625,3.66121745815625,14.77921634765625,3.66121745815625C14.77921634765625,3.66121745815625,14.77921634765625,3.66121745815625,14.77921634765625,3.66121745815625ZM6.84840444765625,7.55161881015625C7.07336854765625,7.77665471015625,7.19974044765625,8.08181521015625,7.19974044765625,8.40001921015625C7.19974044765625,8.71821121015625,7.07336854765625,9.02338311015625,6.84840444765625,9.248419310156251C6.84840444765625,9.248419310156251,4.09680434765625,12.00001911015625,4.09680434765625,12.00001911015625C4.09680434765625,12.00001911015625,6.84840444765625,14.75162041015625,6.84840444765625,14.75162041015625C6.96301654765625,14.86232041015625,7.05443234765625,14.99472841015625,7.11732484765625,15.14112741015625C7.18021674765625,15.28754041015625,7.21331264765625,15.44500441015625,7.21470494765625,15.60435241015625C7.21608444765625,15.76371241015625,7.18572424765625,15.92163141015625,7.12538864765625,16.06911141015625C7.06505254765625,16.216591410156248,6.97594024765625,16.35063241015625,6.86327264765625,16.46331241015625C6.75060464765625,16.57599141015625,6.61662434765625,16.66503241015625,6.46914434765625,16.72539241015625C6.32166434765625,16.78575341015625,6.16364864765625,16.81611141015625,6.00432444765625,16.81467241015625C5.84498834765625,16.81335241015625,5.68752434765625,16.780232410156252,5.54111244765625,16.717352410156252C5.39471244765625,16.654472410156252,5.26229234765625,16.56303241015625,5.151604447656251,16.44843241015625C5.151604447656251,16.44843241015625,1.55159955765625,12.84842011015625,1.55159955765625,12.84842011015625C1.3266343476562499,12.62338351015625,1.2002563476562502,12.31821151015625,1.20025634765625,12.00001911015625C1.2002563476562502,11.68181511015625,1.3266343476562499,11.37665561015625,1.55159955765625,11.15161941015625C1.55159955765625,11.15161941015625,5.151604447656251,7.55161881015625,5.151604447656251,7.55161881015625C5.37662844765625,7.32665491015625,5.68180084765625,7.2002709101562505,6.00000424765625,7.2002709101562505C6.31819624765625,7.2002709101562505,6.62336824765625,7.32665491015625,6.84840444765625,7.55161881015625C6.84840444765625,7.55161881015625,6.84840444765625,7.55161881015625,6.84840444765625,7.55161881015625C6.84840444765625,7.55161881015625,6.84840444765625,7.55161881015625,6.84840444765625,7.55161881015625ZM17.15161734765625,7.55161881015625C17.37661734765625,7.32665491015625,17.68177834765625,7.2002709101562505,18.00001734765625,7.2002709101562505C18.31825834765625,7.2002709101562505,18.62341734765625,7.32665491015625,18.84841734765625,7.55161881015625C18.84841734765625,7.55161881015625,22.44841734765625,11.15161941015625,22.44841734765625,11.15161941015625C22.67341834765625,11.37665561015625,22.79977634765625,11.68181511015625,22.79977634765625,12.00001911015625C22.79977634765625,12.31821151015625,22.67341834765625,12.62338351015625,22.44841734765625,12.84842011015625C22.44841734765625,12.84842011015625,18.84841734765625,16.44843241015625,18.84841734765625,16.44843241015625C18.73765734765625,16.56303241015625,18.60529734765625,16.654472410156252,18.45889634765625,16.717352410156252C18.31249634765625,16.780232410156252,18.15505634765625,16.81335241015625,17.99569734765625,16.81467241015625C17.83633834765625,16.81611141015625,17.67829734765625,16.78575341015625,17.53081734765625,16.72539241015625C17.38333734765625,16.66503241015625,17.24941634765625,16.57599141015625,17.13673734765625,16.46331241015625C17.02405634765625,16.35063241015625,16.93489634765625,16.216591410156248,16.87465734765625,16.06911141015625C16.81429634765625,15.92163141015625,16.78393634765625,15.76371241015625,16.78525734765625,15.60435241015625C16.78669634765625,15.44500441015625,16.819817347656247,15.28754041015625,16.88269734765625,15.14112741015625C16.94557734765625,14.99472841015625,17.03701734765625,14.86232041015625,17.15161734765625,14.75162041015625C17.15161734765625,14.75162041015625,19.90321734765625,12.00001911015625,19.90321734765625,12.00001911015625C19.90321734765625,12.00001911015625,17.15161734765625,9.248419310156251,17.15161734765625,9.248419310156251C16.92661634765625,9.02338311015625,16.80025634765625,8.71821121015625,16.80025634765625,8.40001921015625C16.80025634765625,8.08181521015625,16.92661634765625,7.77665471015625,17.15161734765625,7.55161881015625C17.15161734765625,7.55161881015625,17.15161734765625,7.55161881015625,17.15161734765625,7.55161881015625C17.15161734765625,7.55161881015625,17.15161734765625,7.55161881015625,17.15161734765625,7.55161881015625Z" fill-rule="evenodd" fill="#0A0A28" fill-opacity="1"/></g></svg>