<svg xmlns="http://www.w3.org/2000/svg" xmlns:xlink="http://www.w3.org/1999/xlink" fill="none" version="1.1" width="24" height="24" viewBox="0 0 24 24"><defs><clipPath id="master_svg0_3_2128"><rect x="0" y="0" width="24" height="24" rx="0"/></clipPath></defs><g clip-path="url(#master_svg0_3_2128)"><path d="M10.3249998,4.317C10.3249998,4.317,11.2966805,4.5532900000000005,11.2966805,4.5532900000000005C11.2966805,4.5532900000000005,11.2968102,4.55276,11.2968102,4.55276C11.2968102,4.55276,10.3249998,4.317,10.3249998,4.317C10.3249998,4.317,10.3249998,4.317,10.3249998,4.317ZM13.675,4.317C13.675,4.317,14.6469,4.08152,14.6469,4.08152C14.6469,4.08152,14.6468,4.0812401000000005,14.6468,4.0812401000000005C14.6468,4.0812401000000005,13.675,4.317,13.675,4.317C13.675,4.317,13.675,4.317,13.675,4.317ZM16.247999999999998,5.3829999C16.247999999999998,5.3829999,15.7277,4.52899,15.7277,4.52899C15.7277,4.52899,15.7274,4.5291899,15.7274,4.5291899C15.7274,4.5291899,16.247999999999998,5.3829999,16.247999999999998,5.3829999C16.247999999999998,5.3829999,16.247999999999998,5.3829999,16.247999999999998,5.3829999ZM18.618000000000002,7.7529998C18.618000000000002,7.7529998,19.472,8.2732,19.472,8.2732C19.472,8.2732,19.4722,8.2730198,19.4722,8.2730198C19.4722,8.2730198,18.618000000000002,7.7529998,18.618000000000002,7.7529998C18.618000000000002,7.7529998,18.618000000000002,7.7529998,18.618000000000002,7.7529998ZM19.683001,10.3249998C19.683001,10.3249998,19.446699,11.2966805,19.446699,11.2966805C19.446699,11.2966805,19.447201,11.2968102,19.447201,11.2968102C19.447201,11.2968102,19.683001,10.3249998,19.683001,10.3249998C19.683001,10.3249998,19.683001,10.3249998,19.683001,10.3249998ZM19.683001,13.675C19.683001,13.675,19.918501,14.6469,19.918501,14.6469C19.918501,14.6469,19.9188,14.6468,19.9188,14.6468C19.9188,14.6468,19.683001,13.675,19.683001,13.675C19.683001,13.675,19.683001,13.675,19.683001,13.675ZM18.617,16.247999999999998C18.617,16.247999999999998,19.471001,15.7277,19.471001,15.7277C19.471001,15.7277,19.4708,15.7274,19.4708,15.7274C19.4708,15.7274,18.617,16.247999999999998,18.617,16.247999999999998C18.617,16.247999999999998,18.617,16.247999999999998,18.617,16.247999999999998ZM16.247,18.618000000000002C16.247,18.618000000000002,15.7268,19.472,15.7268,19.472C15.7268,19.472,15.727,19.4722,15.727,19.4722C15.727,19.4722,16.247,18.618000000000002,16.247,18.618000000000002C16.247,18.618000000000002,16.247,18.618000000000002,16.247,18.618000000000002ZM13.675,19.683001C13.675,19.683001,12.7033195,19.446699,12.7033195,19.446699C12.7033195,19.446699,12.7031898,19.447201,12.7031898,19.447201C12.7031898,19.447201,13.675,19.683001,13.675,19.683001C13.675,19.683001,13.675,19.683001,13.675,19.683001ZM10.3249998,19.683001C10.3249998,19.683001,9.3531199,19.918501,9.3531199,19.918501C9.3531199,19.918501,9.3531899,19.9188,9.3531899,19.9188C9.3531899,19.9188,10.3249998,19.683001,10.3249998,19.683001C10.3249998,19.683001,10.3249998,19.683001,10.3249998,19.683001ZM7.7519999,18.617C7.7519999,18.617,8.2722602,19.471001,8.2722602,19.471001C8.2722602,19.471001,8.272580099999999,19.4708,8.272580099999999,19.4708C8.272580099999999,19.4708,7.7519999,18.617,7.7519999,18.617C7.7519999,18.617,7.7519999,18.617,7.7519999,18.617ZM5.382,16.247C5.382,16.247,4.52795,15.7268,4.52795,15.7268C4.52795,15.7268,4.52784,15.727,4.52784,15.727C4.52784,15.727,5.382,16.247,5.382,16.247C5.382,16.247,5.382,16.247,5.382,16.247ZM4.317,13.675C4.317,13.675,4.5533,12.7033195,4.5533,12.7033195C4.5533,12.7033195,4.55276,12.7031898,4.55276,12.7031898C4.55276,12.7031898,4.317,13.675,4.317,13.675C4.317,13.675,4.317,13.675,4.317,13.675ZM4.317,10.3249998C4.317,10.3249998,4.08152,9.3531199,4.08152,9.3531199C4.08152,9.3531199,4.0812401000000005,9.3531899,4.0812401000000005,9.3531899C4.0812401000000005,9.3531899,4.317,10.3249998,4.317,10.3249998C4.317,10.3249998,4.317,10.3249998,4.317,10.3249998ZM5.3829999,7.7519999C5.3829999,7.7519999,4.52899,8.2722602,4.52899,8.2722602C4.52899,8.2722602,4.5291899,8.272580099999999,4.5291899,8.272580099999999C4.5291899,8.272580099999999,5.3829999,7.7519999,5.3829999,7.7519999C5.3829999,7.7519999,5.3829999,7.7519999,5.3829999,7.7519999ZM7.7529998,5.382C7.7529998,5.382,8.2740302,4.52846,8.2740302,4.52846C8.2740302,4.52846,8.2730198,4.52784,8.2730198,4.52784C8.2730198,4.52784,7.7529998,5.382,7.7529998,5.382C7.7529998,5.382,7.7529998,5.382,7.7529998,5.382ZM11.2968102,4.55276C11.4756098,3.81574702,12.5243902,3.81574702,12.7031898,4.55276C12.7031898,4.55276,14.6468,4.0812401000000005,14.6468,4.0812401000000005C13.9736,1.30625,10.0263901,1.30625,9.3531899,4.0812401000000005C9.3531899,4.0812401000000005,11.2968102,4.55276,11.2968102,4.55276C11.2968102,4.55276,11.2968102,4.55276,11.2968102,4.55276ZM12.7031202,4.55248C12.8041096,4.9693000000000005,13.0021,5.35638,13.281,5.68222C13.281,5.68222,14.8005,4.38178,14.8005,4.38178C14.7263,4.29518,14.6737,4.1922999999999995,14.6469,4.08152C14.6469,4.08152,12.7031202,4.55248,12.7031202,4.55248C12.7031202,4.55248,12.7031202,4.55248,12.7031202,4.55248ZM13.281,5.68222C13.5598,6.00805,13.9117,6.2634399,14.3079,6.427599900000001C14.3079,6.427599900000001,15.0734,4.5799,15.0734,4.5799C14.9681,4.53627,14.8746,4.46839,14.8005,4.38178C14.8005,4.38178,13.281,5.68222,13.281,5.68222C13.281,5.68222,13.281,5.68222,13.281,5.68222ZM14.3079,6.427599900000001C14.7041,6.5917499,15.1335,6.6600299,15.5611,6.6268799000000005C15.5611,6.6268799000000005,15.4065,4.6328599,15.4065,4.6328599C15.2928,4.6416699999999995,15.1787,4.62353,15.0734,4.5799C15.0734,4.5799,14.3079,6.427599900000001,14.3079,6.427599900000001C14.3079,6.427599900000001,14.3079,6.427599900000001,14.3079,6.427599900000001ZM15.5611,6.6268799000000005C15.9887,6.593719999999999,16.4024,6.4600799,16.7686,6.23681C16.7686,6.23681,15.7274,4.5291899,15.7274,4.5291899C15.6301,4.5885299,15.5201,4.62405,15.4065,4.6328599C15.4065,4.6328599,15.5611,6.6268799000000005,15.5611,6.6268799000000005C15.5611,6.6268799000000005,15.5611,6.6268799000000005,15.5611,6.6268799000000005ZM16.7683,6.23701C17.416,5.84238,18.1589,6.5841401,17.7638,7.2329798C17.7638,7.2329798,19.4722,8.2730198,19.4722,8.2730198C20.9571,5.8338599,18.166,3.043623101,15.7277,4.52899C15.7277,4.52899,16.7683,6.23701,16.7683,6.23701C16.7683,6.23701,16.7683,6.23701,16.7683,6.23701ZM17.764,7.2328C17.541,7.5988302,17.407600000000002,8.0123,17.374499999999998,8.4396C17.374499999999998,8.4396,19.3685,8.5939498,19.3685,8.5939498C19.3773,8.4803801,19.4128,8.3704801,19.472,8.2732C19.472,8.2732,17.764,7.2328,17.764,7.2328C17.764,7.2328,17.764,7.2328,17.764,7.2328ZM17.374499999999998,8.4396C17.3414,8.866900000000001,17.409599999999998,9.29598,17.5736,9.6919498C17.5736,9.6919498,19.421499,8.926809800000001,19.421499,8.926809800000001C19.377899,8.8215599,19.359699,8.707519999999999,19.3685,8.5939498C19.3685,8.5939498,17.374499999999998,8.4396,17.374499999999998,8.4396C17.374499999999998,8.4396,17.374499999999998,8.4396,17.374499999999998,8.4396ZM17.5736,9.6919498C17.7376,10.087930199999999,17.9927,10.439630000000001,18.3181,10.718470100000001C18.3181,10.718470100000001,19.619301,9.1996398,19.619301,9.1996398C19.532801,9.125529799999999,19.465,9.0320501,19.421499,8.926809800000001C19.421499,8.926809800000001,17.5736,9.6919498,17.5736,9.6919498C17.5736,9.6919498,17.5736,9.6919498,17.5736,9.6919498ZM18.3181,10.718470100000001C18.6436,10.9973001,19.0303,11.1954098,19.446699,11.2966805C19.446699,11.2966805,19.9193,9.353320100000001,19.9193,9.353320100000001C19.808599,9.3263998,19.705799,9.273749800000001,19.619301,9.1996398C19.619301,9.1996398,18.3181,10.718470100000001,18.3181,10.718470100000001C18.3181,10.718470100000001,18.3181,10.718470100000001,18.3181,10.718470100000001ZM19.447201,11.2968102C20.184299,11.4756098,20.184299,12.5243902,19.447201,12.7031898C19.447201,12.7031898,19.9188,14.6468,19.9188,14.6468C22.693701,13.9736,22.693701,10.0263901,19.9188,9.3531899C19.9188,9.3531899,19.447201,11.2968102,19.447201,11.2968102C19.447201,11.2968102,19.447201,11.2968102,19.447201,11.2968102ZM19.4475,12.7031202C19.030701,12.8041096,18.6436,13.0021,18.3178,13.281C18.3178,13.281,19.6182,14.8005,19.6182,14.8005C19.7048,14.7263,19.807699,14.6737,19.918501,14.6469C19.918501,14.6469,19.4475,12.7031202,19.4475,12.7031202C19.4475,12.7031202,19.4475,12.7031202,19.4475,12.7031202ZM18.3178,13.281C17.9919,13.5598,17.7366,13.9117,17.572400000000002,14.3079C17.572400000000002,14.3079,19.420099,15.0734,19.420099,15.0734C19.463699,14.9681,19.531601,14.8746,19.6182,14.8005C19.6182,14.8005,18.3178,13.281,18.3178,13.281C18.3178,13.281,18.3178,13.281,18.3178,13.281ZM17.572400000000002,14.3079C17.4082,14.7041,17.34,15.1335,17.3731,15.5611C17.3731,15.5611,19.3671,15.4065,19.3671,15.4065C19.358299,15.2928,19.376499,15.1787,19.420099,15.0734C19.420099,15.0734,17.572400000000002,14.3079,17.572400000000002,14.3079C17.572400000000002,14.3079,17.572400000000002,14.3079,17.572400000000002,14.3079ZM17.3731,15.5611C17.4063,15.9887,17.5399,16.4024,17.763199999999998,16.7686C17.763199999999998,16.7686,19.4708,15.7274,19.4708,15.7274C19.411501,15.6301,19.3759,15.5201,19.3671,15.4065C19.3671,15.4065,17.3731,15.5611,17.3731,15.5611C17.3731,15.5611,17.3731,15.5611,17.3731,15.5611ZM17.762999999999998,16.7683C18.157600000000002,17.416,17.4159,18.1589,16.767,17.7638C16.767,17.7638,15.727,19.4722,15.727,19.4722C18.1661,20.9571,20.9564,18.166,19.471001,15.7277C19.471001,15.7277,17.762999999999998,16.7683,17.762999999999998,16.7683C17.762999999999998,16.7683,17.762999999999998,16.7683,17.762999999999998,16.7683ZM16.767200000000003,17.764C16.4012,17.541,15.9877,17.407600000000002,15.5604,17.374499999999998C15.5604,17.374499999999998,15.4061,19.3685,15.4061,19.3685C15.5196,19.3773,15.6295,19.4128,15.7268,19.472C15.7268,19.472,16.767200000000003,17.764,16.767200000000003,17.764C16.767200000000003,17.764,16.767200000000003,17.764,16.767200000000003,17.764ZM15.5604,17.374499999999998C15.1331,17.3414,14.704,17.409599999999998,14.308,17.5736C14.308,17.5736,15.0732,19.421499,15.0732,19.421499C15.1784,19.377899,15.2925,19.359699,15.4061,19.3685C15.4061,19.3685,15.5604,17.374499999999998,15.5604,17.374499999999998C15.5604,17.374499999999998,15.5604,17.374499999999998,15.5604,17.374499999999998ZM14.308,17.5736C13.9121,17.7376,13.5604,17.9927,13.2815,18.3181C13.2815,18.3181,14.8004,19.619301,14.8004,19.619301C14.8745,19.532801,14.9679,19.465,15.0732,19.421499C15.0732,19.421499,14.308,17.5736,14.308,17.5736C14.308,17.5736,14.308,17.5736,14.308,17.5736ZM13.2815,18.3181C13.0027,18.6436,12.8045902,19.0303,12.7033195,19.446699C12.7033195,19.446699,14.6467,19.9193,14.6467,19.9193C14.6736,19.808599,14.7263,19.705799,14.8004,19.619301C14.8004,19.619301,13.2815,18.3181,13.2815,18.3181C13.2815,18.3181,13.2815,18.3181,13.2815,18.3181ZM12.7031898,19.447201C12.5243902,20.184299,11.4756098,20.184299,11.2968102,19.447201C11.2968102,19.447201,9.3531899,19.9188,9.3531899,19.9188C10.0263901,22.693701,13.9736,22.693701,14.6468,19.9188C14.6468,19.9188,12.7031898,19.447201,12.7031898,19.447201C12.7031898,19.447201,12.7031898,19.447201,12.7031898,19.447201ZM11.2968798,19.4475C11.1958904,19.030701,10.9979,18.6436,10.7190399,18.3178C10.7190399,18.3178,9.1995401,19.6182,9.1995401,19.6182C9.2736602,19.7048,9.3262801,19.807699,9.3531199,19.918501C9.3531199,19.918501,11.2968798,19.4475,11.2968798,19.4475C11.2968798,19.4475,11.2968798,19.4475,11.2968798,19.4475ZM10.7190399,18.3178C10.4401798,17.9919,10.0883198,17.7366,9.6921,17.572400000000002C9.6921,17.572400000000002,8.926590000000001,19.420099,8.926590000000001,19.420099C9.031899899999999,19.463699,9.1254201,19.531601,9.1995401,19.6182C9.1995401,19.6182,10.7190399,18.3178,10.7190399,18.3178C10.7190399,18.3178,10.7190399,18.3178,10.7190399,18.3178ZM9.6921,17.572400000000002C9.295889899999999,17.4082,8.8665099,17.34,8.43891,17.3731C8.43891,17.3731,8.5935202,19.3671,8.5935202,19.3671C8.70716,19.358299,8.821290000000001,19.376499,8.926590000000001,19.420099C8.926590000000001,19.420099,9.6921,17.572400000000002,9.6921,17.572400000000002C9.6921,17.572400000000002,9.6921,17.572400000000002,9.6921,17.572400000000002ZM8.43891,17.3731C8.011320099999999,17.4063,7.5976,17.5399,7.23142,17.763199999999998C7.23142,17.763199999999998,8.272580099999999,19.4708,8.272580099999999,19.4708C8.3699098,19.411501,8.4798698,19.3759,8.5935202,19.3671C8.5935202,19.3671,8.43891,17.3731,8.43891,17.3731C8.43891,17.3731,8.43891,17.3731,8.43891,17.3731ZM7.23174,17.762999999999998C6.5839601000000005,18.157600000000002,5.84113,17.4159,6.23616,16.767C6.23616,16.767,4.52784,15.727,4.52784,15.727C3.042866401,18.1661,5.8340399000000005,20.9564,8.2722602,19.471001C8.2722602,19.471001,7.23174,17.762999999999998,7.23174,17.762999999999998C7.23174,17.762999999999998,7.23174,17.762999999999998,7.23174,17.762999999999998ZM6.236049899999999,16.767200000000003C6.458990099999999,16.4012,6.5924301,15.9877,6.625500000000001,15.5604C6.625500000000001,15.5604,4.63147,15.4061,4.63147,15.4061C4.6226799,15.5196,4.5872101,15.6295,4.52795,15.7268C4.52795,15.7268,6.236049899999999,16.767200000000003,6.236049899999999,16.767200000000003C6.236049899999999,16.767200000000003,6.236049899999999,16.767200000000003,6.236049899999999,16.767200000000003ZM6.625500000000001,15.5604C6.6585801,15.1331,6.5903599,14.704,6.4263999,14.308C6.4263999,14.308,4.57855,15.0732,4.57855,15.0732C4.62213,15.1784,4.64026,15.2925,4.63147,15.4061C4.63147,15.4061,6.625500000000001,15.5604,6.625500000000001,15.5604C6.625500000000001,15.5604,6.625500000000001,15.5604,6.625500000000001,15.5604ZM6.4263999,14.308C6.26243,13.9121,6.007350000000001,13.5604,5.68188,13.2815C5.68188,13.2815,4.38067,14.8004,4.38067,14.8004C4.46717,14.8745,4.5349699999999995,14.9679,4.57855,15.0732C4.57855,15.0732,6.4263999,14.308,6.4263999,14.308C6.4263999,14.308,6.4263999,14.308,6.4263999,14.308ZM5.68188,13.2815C5.35641,13.0027,4.96974,12.8045902,4.5533,12.7033195C4.5533,12.7033195,4.0807,14.6467,4.0807,14.6467C4.19139,14.6736,4.29416,14.7263,4.38067,14.8004C4.38067,14.8004,5.68188,13.2815,5.68188,13.2815C5.68188,13.2815,5.68188,13.2815,5.68188,13.2815ZM4.55276,12.7031898C3.81574702,12.5243902,3.81574702,11.4756098,4.55276,11.2968102C4.55276,11.2968102,4.0812401000000005,9.3531899,4.0812401000000005,9.3531899C1.30625,10.0263901,1.30625,13.9736,4.0812401000000005,14.6468C4.0812401000000005,14.6468,4.55276,12.7031898,4.55276,12.7031898C4.55276,12.7031898,4.55276,12.7031898,4.55276,12.7031898ZM4.55248,11.2968798C4.9693000000000005,11.1958904,5.35638,10.9979,5.68222,10.7190399C5.68222,10.7190399,4.38178,9.1995401,4.38178,9.1995401C4.29518,9.2736602,4.1922999999999995,9.3262801,4.08152,9.3531199C4.08152,9.3531199,4.55248,11.2968798,4.55248,11.2968798C4.55248,11.2968798,4.55248,11.2968798,4.55248,11.2968798ZM5.68222,10.7190399C6.00805,10.4401798,6.2634399,10.0883198,6.427599900000001,9.6921C6.427599900000001,9.6921,4.5799,8.926590000000001,4.5799,8.926590000000001C4.53627,9.031899899999999,4.46839,9.1254201,4.38178,9.1995401C4.38178,9.1995401,5.68222,10.7190399,5.68222,10.7190399C5.68222,10.7190399,5.68222,10.7190399,5.68222,10.7190399ZM6.427599900000001,9.6921C6.5917499,9.2958798,6.6600299,8.8665099,6.6268799000000005,8.43891C6.6268799000000005,8.43891,4.6328599,8.5935202,4.6328599,8.5935202C4.6416699999999995,8.70716,4.62353,8.821290000000001,4.5799,8.926590000000001C4.5799,8.926590000000001,6.427599900000001,9.6921,6.427599900000001,9.6921C6.427599900000001,9.6921,6.427599900000001,9.6921,6.427599900000001,9.6921ZM6.6268799000000005,8.43891C6.593719999999999,8.011320099999999,6.4600799,7.5976,6.23681,7.23142C6.23681,7.23142,4.5291899,8.272580099999999,4.5291899,8.272580099999999C4.5885299,8.3699098,4.62405,8.4798698,4.6328599,8.5935202C4.6328599,8.5935202,6.6268799000000005,8.43891,6.6268799000000005,8.43891C6.6268799000000005,8.43891,6.6268799000000005,8.43891,6.6268799000000005,8.43891ZM6.23701,7.23174C5.84238,6.5839601000000005,6.5841401,5.84113,7.2329798,6.23616C7.2329798,6.23616,8.2730198,4.52784,8.2730198,4.52784C5.8338599,3.042865802,3.043622401,5.8340399000000005,4.52899,8.2722602C4.52899,8.2722602,6.23701,7.23174,6.23701,7.23174C6.23701,7.23174,6.23701,7.23174,6.23701,7.23174ZM7.2319698,6.2355399C8.8069801,7.19699,10.8608398,6.3455999,11.2966805,4.5532900000000005C11.2966805,4.5532900000000005,9.353320100000001,4.0807101,9.353320100000001,4.0807101C9.2371602,4.5584,8.69102,4.78301,8.2740302,4.52846C8.2740302,4.52846,7.2319698,6.2355399,7.2319698,6.2355399C7.2319698,6.2355399,7.2319698,6.2355399,7.2319698,6.2355399Z" fill="#0A0A28" fill-opacity="1"/><path d="M15,12C15,12,16,12,16,12C16,12,15,12,15,12C15,12,15,12,15,12ZM12,9C12,9,12,8,12,8C12,8,12,9,12,9C12,9,12,9,12,9ZM14,12C14,12.5304301,13.789290000000001,13.0391402,13.4142098,13.4142098C13.4142098,13.4142098,14.8284302,14.8284302,14.8284302,14.8284302C15.5785699,14.07828,16,13.0608702,16,12C16,12,14,12,14,12C14,12,14,12,14,12ZM13.4142098,13.4142098C13.0391402,13.789290000000001,12.5304301,14,12,14C12,14,12,16,12,16C13.0608702,16,14.07828,15.5785699,14.8284302,14.8284302C14.8284302,14.8284302,13.4142098,13.4142098,13.4142098,13.4142098C13.4142098,13.4142098,13.4142098,13.4142098,13.4142098,13.4142098ZM12,14C11.4695699,14,10.96086,13.789290000000001,10.58579,13.4142098C10.58579,13.4142098,9.171572,14.8284302,9.171572,14.8284302C9.921718,15.5785699,10.9391299,16,12,16C12,16,12,14,12,14C12,14,12,14,12,14ZM10.58579,13.4142098C10.21071,13.0391402,10,12.5304301,10,12C10,12,8,12,8,12C8,13.0608702,8.42142701,14.07828,9.171572,14.8284302C9.171572,14.8284302,10.58579,13.4142098,10.58579,13.4142098C10.58579,13.4142098,10.58579,13.4142098,10.58579,13.4142098ZM10,12C10,11.4695699,10.21071,10.96086,10.58579,10.58579C10.58579,10.58579,9.171572,9.171572,9.171572,9.171572C8.42142701,9.921718,8,10.9391299,8,12C8,12,10,12,10,12C10,12,10,12,10,12ZM10.58579,10.58579C10.96086,10.21071,11.4695699,10,12,10C12,10,12,8,12,8C10.9391299,8,9.921718,8.42142701,9.171572,9.171572C9.171572,9.171572,10.58579,10.58579,10.58579,10.58579C10.58579,10.58579,10.58579,10.58579,10.58579,10.58579ZM12,10C12.5304301,10,13.0391402,10.21071,13.4142098,10.58579C13.4142098,10.58579,14.8284302,9.171572,14.8284302,9.171572C14.07828,8.42142701,13.0608702,8,12,8C12,8,12,10,12,10C12,10,12,10,12,10ZM13.4142098,10.58579C13.789290000000001,10.96086,14,11.4695699,14,12C14,12,16,12,16,12C16,10.9391299,15.5785699,9.921718,14.8284302,9.171572C14.8284302,9.171572,13.4142098,10.58579,13.4142098,10.58579C13.4142098,10.58579,13.4142098,10.58579,13.4142098,10.58579Z" fill="#0A0A28" fill-opacity="1"/></g></svg>