<svg xmlns="http://www.w3.org/2000/svg" xmlns:xlink="http://www.w3.org/1999/xlink" fill="none" version="1.1" width="24" height="24" viewBox="0 0 24 24"><defs><clipPath id="master_svg0_3_2104"><rect x="0" y="0" width="24" height="24" rx="0"/></clipPath></defs><g clip-path="url(#master_svg0_3_2104)"><path d="M13.787999072265626,3.803993896484375C13.331999072265624,1.931993906484375,10.667999272265625,1.931993906484375,10.211999372265625,3.803993896484375C10.143923272265624,4.085297896484375,10.010387372265626,4.3465499964843755,9.822263272265625,4.566486096484375C9.634151472265625,4.786433896484375,9.396755172265625,4.9588498964843755,9.129407372265625,5.069718096484375C8.862071472265626,5.180585896484375,8.572331472265624,5.226761796484375,8.283767672265625,5.204502096484375C7.995202972265625,5.182242196484375,7.715975272265625,5.092157796484376,7.468799572265625,4.9415940964843745C5.822399172265625,3.938393996484375,3.938399072265625,5.822394096484375,4.941599172265625,7.468793896484375C5.5895991722656255,8.531994296484374,5.014799072265625,9.919193696484374,3.805199172265625,10.213194396484376C1.931999062265625,10.667994496484376,1.931999062265625,13.333194896484375,3.805199172265625,13.786794896484375C4.086575172265625,13.854965896484375,4.347875072265625,13.988622896484374,4.567811272265625,14.176877896484376C4.787759072265625,14.365145896484375,4.9601270722656245,14.602673896484376,5.070887372265625,14.870153896484375C5.181647272265625,15.137634896484375,5.227667072265625,15.427554896484375,5.2052030722656255,15.716153896484375C5.182739272265625,16.004754896484375,5.092415072265625,16.284113896484374,4.941599172265625,16.531194896484376C3.938399072265625,18.177593896484375,5.822399172265625,20.061595896484373,7.468799572265625,19.058394896484376C7.715927172265625,18.907554896484374,7.995179172265625,18.817313896484375,8.283814872265625,18.794753896484377C8.572463072265625,18.772315896484375,8.862323272265625,18.818395896484375,9.129815572265624,18.929153896484376C9.397307372265626,19.039914896484376,9.634847172265625,19.212234896484375,9.823115372265626,19.432193896484375C10.011371172265626,19.652154896484376,10.145027172265625,19.913394896484377,10.213199172265625,20.194795896484376C10.667999272265625,22.067992896484373,13.333199072265625,22.067992896484373,13.786800072265626,20.194795896484376C13.855199072265625,19.913514896484376,13.988987072265624,19.652394896484374,14.177292072265624,19.432674896484375C14.365595072265625,19.212834896484374,14.603099072265625,19.040633896484376,14.870459072265625,18.929874896484375C15.137940072265625,18.819114896484376,15.427620072265626,18.773034896484376,15.716219072265625,18.795354896484376C16.004820072265623,18.817794896484376,16.284060072265625,18.907794896484376,16.531259072265627,19.058394896484376C18.177540072265625,20.061595896484373,20.061661072265625,18.177593896484375,19.058460072265625,16.531194896484376C18.907860072265624,16.283993896484375,18.817739072265624,16.004754896484375,18.795420072265625,15.716273896484376C18.773100072265624,15.427673896484375,18.819179072265626,15.137873896484376,18.929939072265626,14.870514896484375C19.040581072265624,14.603033896484375,19.212900072265626,14.365589896484375,19.432619072265624,14.177285896484374C19.652460072265626,13.988981896484376,19.913580072265624,13.855193896484375,20.194860072265627,13.786794896484375C22.068058072265625,13.331993896484375,22.068058072265625,10.666793796484376,20.194860072265627,10.213194396484376C19.913460072265625,10.145021896484375,19.652100072265625,10.011366396484375,19.432140072265625,9.823110096484374C19.212299072265626,9.634841896484375,19.039860072265625,9.397302196484375,18.929100072265626,9.129810296484376C18.818340072265624,8.862318496484374,18.772381072265624,8.572458296484374,18.794819072265625,8.283810096484375C18.817261072265627,7.995174396484375,18.907619072265625,7.715922396484375,19.058460072265625,7.468793896484375C20.061661072265625,5.822394096484375,18.177540072265625,3.938393996484375,16.531259072265627,4.9415940964843745C16.284060072265625,5.092410096484375,16.004820072265623,5.182733996484375,15.716219072265625,5.205198096484375C15.427500072265625,5.227662096484375,15.137700072265625,5.181641796484374,14.870219072265625,5.070881796484375C14.602740072265625,4.960122096484374,14.365151072265625,4.787754096484376,14.176884072265626,4.567805996484375C13.988628072265625,4.347869996484375,13.854971072265625,4.086569996484375,13.786800072265626,3.805193896484375C13.786800072265626,3.805193896484375,13.787999072265626,3.803993896484375,13.787999072265626,3.803993896484375C13.787999072265626,3.803993896484375,13.787999072265626,3.803993896484375,13.787999072265626,3.803993896484375ZM11.999999972265625,15.599994896484375C12.954779072265625,15.599994896484375,13.870452072265625,15.220674896484375,14.545620072265624,14.545553896484375C15.220739072265625,13.870445896484375,15.600059072265624,12.954773896484374,15.600059072265624,11.999994296484376C15.600059072265624,11.045214696484376,15.220739072265625,10.129541896484376,14.545620072265624,9.454410596484376C13.870452072265625,8.779278296484375,12.954779072265625,8.399993896484375,11.999999972265625,8.399993896484375C11.045219372265626,8.399993896484375,10.129547572265626,8.779278296484375,9.454415272265624,9.454410596484376C8.779283572265625,10.129541896484376,8.399999572265624,11.045214696484376,8.399999572265624,11.999994296484376C8.399999572265624,12.954773896484374,8.779283572265625,13.870445896484375,9.454415272265624,14.545553896484375C10.129547572265626,15.220674896484375,11.045219372265626,15.599994896484375,11.999999972265625,15.599994896484375C11.999999972265625,15.599994896484375,11.999999972265625,15.599994896484375,11.999999972265625,15.599994896484375C11.999999972265625,15.599994896484375,11.999999972265625,15.599994896484375,11.999999972265625,15.599994896484375Z" fill-rule="evenodd" fill="#0A0A28" fill-opacity="1"/></g></svg>