<svg xmlns="http://www.w3.org/2000/svg" xmlns:xlink="http://www.w3.org/1999/xlink" fill="none" version="1.1" width="24" height="24" viewBox="0 0 24 24"><defs><clipPath id="master_svg0_3_2244"><rect x="0" y="0" width="24" height="24" rx="0"/></clipPath></defs><g clip-path="url(#master_svg0_3_2244)"><path d="M5,11C5,11,5,12,5,12C5,12,5,11,5,11C5,11,5,11,5,11ZM3,19C3,19,2,19,2,19C2,19,3,19,3,19C3,19,3,19,3,19ZM9,3C9,3,9,2,9,2C9,2,9,3,9,3C9,3,9,3,9,3ZM15,3C15,3,15,2,15,2C15,2,15,3,15,3C15,3,15,3,15,3ZM19,10C19,10,5,10,5,10C5,10,5,12,5,12C5,12,19,12,19,12C19,12,19,10,19,10C19,10,19,10,19,10ZM19,12C19.2652,12,19.5196,12.10536,19.7071,12.2928896C19.7071,12.2928896,21.1213,10.8786802,21.1213,10.8786802C20.558701,10.316070100000001,19.7957,10,19,10C19,10,19,12,19,12C19,12,19,12,19,12ZM19.7071,12.2928896C19.8946,12.4804296,20,12.7347803,20,13C20,13,22,13,22,13C22,12.2043505,21.683901,11.4412899,21.1213,10.8786802C21.1213,10.8786802,19.7071,12.2928896,19.7071,12.2928896C19.7071,12.2928896,19.7071,12.2928896,19.7071,12.2928896ZM20,13C20,13,20,19,20,19C20,19,22,19,22,19C22,19,22,13,22,13C22,13,20,13,20,13C20,13,20,13,20,13ZM20,19C20,19.2652,19.8946,19.5196,19.7071,19.7071C19.7071,19.7071,21.1213,21.1213,21.1213,21.1213C21.683901,20.558701,22,19.7957,22,19C22,19,20,19,20,19C20,19,20,19,20,19ZM19.7071,19.7071C19.5196,19.8946,19.2652,20,19,20C19,20,19,22,19,22C19.7957,22,20.558701,21.683901,21.1213,21.1213C21.1213,21.1213,19.7071,19.7071,19.7071,19.7071C19.7071,19.7071,19.7071,19.7071,19.7071,19.7071ZM19,20C19,20,5,20,5,20C5,20,5,22,5,22C5,22,19,22,19,22C19,22,19,20,19,20C19,20,19,20,19,20ZM5,20C4.73478,20,4.48043,19.8946,4.29289,19.7071C4.29289,19.7071,2.87868,21.1213,2.87868,21.1213C3.44128799,21.683901,4.20435,22,5,22C5,22,5,20,5,20C5,20,5,20,5,20ZM4.29289,19.7071C4.10536,19.5196,4,19.2652,4,19C4,19,2,19,2,19C2,19.7957,2.3160700199999997,20.558701,2.87868,21.1213C2.87868,21.1213,4.29289,19.7071,4.29289,19.7071C4.29289,19.7071,4.29289,19.7071,4.29289,19.7071ZM4,19C4,19,4,13,4,13C4,13,2,13,2,13C2,13,2,19,2,19C2,19,4,19,4,19C4,19,4,19,4,19ZM4,13C4,12.7347803,4.10536,12.4804296,4.29289,12.2928896C4.29289,12.2928896,2.87868,10.8786802,2.87868,10.8786802C2.3160700199999997,11.4412899,2,12.2043505,2,13C2,13,4,13,4,13C4,13,4,13,4,13ZM4.29289,12.2928896C4.48043,12.10536,4.73478,12,5,12C5,12,5,10,5,10C4.20435,10,3.44128799,10.316070100000001,2.87868,10.8786802C2.87868,10.8786802,4.29289,12.2928896,4.29289,12.2928896C4.29289,12.2928896,4.29289,12.2928896,4.29289,12.2928896ZM20,11C20,11,20,9,20,9C20,9,18,9,18,9C18,9,18,11,18,11C18,11,20,11,20,11C20,11,20,11,20,11ZM20,9C20,8.20435,19.683901,7.4412899,19.1213,6.87868C19.1213,6.87868,17.7071,8.292890100000001,17.7071,8.292890100000001C17.8946,8.4804301,18,8.7347798,18,9C18,9,20,9,20,9C20,9,20,9,20,9ZM19.1213,6.87868C18.5587,6.3160701,17.7956,6,17,6C17,6,17,8,17,8C17.2652,8,17.5196,8.105360000000001,17.7071,8.292890100000001C17.7071,8.292890100000001,19.1213,6.87868,19.1213,6.87868C19.1213,6.87868,19.1213,6.87868,19.1213,6.87868ZM6,11C6,11,6,9,6,9C6,9,4,9,4,9C4,9,4,11,4,11C4,11,6,11,6,11C6,11,6,11,6,11ZM6,9C6,8.7347798,6.10536,8.4804301,6.2928901,8.292890100000001C6.2928901,8.292890100000001,4.87868,6.87868,4.87868,6.87868C4.31607,7.4412899,4,8.20435,4,9C4,9,6,9,6,9C6,9,6,9,6,9ZM6.2928901,8.292890100000001C6.4804299,8.105360000000001,6.7347801,8,7,8C7,8,7,6,7,6C6.20435,6,5.4412899,6.3160701,4.87868,6.87868C4.87868,6.87868,6.2928901,8.292890100000001,6.2928901,8.292890100000001C6.2928901,8.292890100000001,6.2928901,8.292890100000001,6.2928901,8.292890100000001ZM8,7C8,7,8,5,8,5C8,5,6,5,6,5C6,5,6,7,6,7C6,7,8,7,8,7C8,7,8,7,8,7ZM8,5C8,4.73478,8.105360000000001,4.48043,8.292890100000001,4.29289C8.292890100000001,4.29289,6.87868,2.87868,6.87868,2.87868C6.3160701,3.44128901,6,4.20435,6,5C6,5,8,5,8,5C8,5,8,5,8,5ZM8.292890100000001,4.29289C8.4804301,4.10536,8.7347798,4,9,4C9,4,9,2,9,2C8.20435,2,7.4412899,2.3160700199999997,6.87868,2.87868C6.87868,2.87868,8.292890100000001,4.29289,8.292890100000001,4.29289C8.292890100000001,4.29289,8.292890100000001,4.29289,8.292890100000001,4.29289ZM9,4C9,4,15,4,15,4C15,4,15,2,15,2C15,2,9,2,9,2C9,2,9,4,9,4C9,4,9,4,9,4ZM15,4C15.2652,4,15.5196,4.10536,15.7071,4.29289C15.7071,4.29289,17.121299999999998,2.87868,17.121299999999998,2.87868C16.5587,2.3160700199999997,15.7956,2,15,2C15,2,15,4,15,4C15,4,15,4,15,4ZM15.7071,4.29289C15.8946,4.48043,16,4.73478,16,5C16,5,18,5,18,5C18,4.20435,17.6839,3.44128799,17.121299999999998,2.87868C17.121299999999998,2.87868,15.7071,4.29289,15.7071,4.29289C15.7071,4.29289,15.7071,4.29289,15.7071,4.29289ZM16,5C16,5,16,7,16,7C16,7,18,7,18,7C18,7,18,5,18,5C18,5,16,5,16,5C16,5,16,5,16,5ZM17,6C17,6,7,6,7,6C7,6,7,8,7,8C7,8,17,8,17,8C17,8,17,6,17,6C17,6,17,6,17,6Z" fill="#0A0A28" fill-opacity="1"/></g></svg>