<svg xmlns="http://www.w3.org/2000/svg" xmlns:xlink="http://www.w3.org/1999/xlink" fill="none" version="1.1" width="24" height="24" viewBox="0 0 24 24"><defs><clipPath id="master_svg0_3_2135"><rect x="0" y="0" width="24" height="24" rx="0"/></clipPath></defs><g clip-path="url(#master_svg0_3_2135)"><path d="M8.399993896484375,3.600006103515625C8.081729896484376,3.6000061035156254,7.776510196484375,3.726434513515625,7.551462196484375,3.951477703515625C7.326425996484375,4.176522133515625,7.199994096484375,4.481746973515625,7.199994096484375,4.800006103515625C7.199994096484375,5.118270303515625,7.326425996484375,5.423490203515625,7.551462196484375,5.648538303515625C7.776510196484375,5.873574303515625,8.081729896484376,6.000006203515625,8.399993896484375,6.000006203515625C8.399993896484375,6.000006203515625,15.599994896484375,6.000006203515625,15.599994896484375,6.000006203515625C15.918233896484375,6.000006203515625,16.223514896484375,5.873574303515625,16.448513896484375,5.648538303515625C16.673513896484373,5.423490203515625,16.799994896484375,5.118270303515625,16.799994896484375,4.800006103515625C16.799994896484375,4.481746973515625,16.673513896484373,4.176522133515625,16.448513896484375,3.951477703515625C16.223514896484375,3.726434513515625,15.918233896484375,3.600006103515626,15.599994896484375,3.600006103515625C15.599994896484375,3.600006103515625,8.399993896484375,3.600006103515625,8.399993896484375,3.600006103515625C8.399993896484375,3.600006103515625,8.399993896484375,3.600006103515625,8.399993896484375,3.600006103515625ZM4.799993996484375,8.400006303515624C4.799993996484375,8.081742303515625,4.926425896484375,7.776522203515625,5.151462096484375,7.551474303515625C5.376509896484375,7.326438203515625,5.681729996484375,7.200006203515625,5.999993996484375,7.200006203515625C5.999993996484375,7.200006203515625,17.999993896484376,7.200006203515625,17.999993896484376,7.200006203515625C18.318234896484377,7.200006203515625,18.623513896484376,7.326438203515625,18.848514896484375,7.551474303515625C19.073514896484376,7.776522203515625,19.199994896484377,8.081742303515625,19.199994896484377,8.400006303515624C19.199994896484377,8.718270303515624,19.073514896484376,9.023489903515625,18.848514896484375,9.248538003515625C18.623513896484376,9.473574203515625,18.318234896484377,9.600006103515625,17.999993896484376,9.600006103515625C17.999993896484376,9.600006103515625,5.999993996484375,9.600006103515625,5.999993996484375,9.600006103515625C5.681729996484375,9.600006103515625,5.376509896484375,9.473574203515625,5.151462096484375,9.248538003515625C4.926425896484375,9.023489903515625,4.799993996484375,8.718270303515624,4.799993996484375,8.400006303515624C4.799993996484375,8.400006303515624,4.799993996484375,8.400006303515624,4.799993996484375,8.400006303515624ZM2.399993896484375,13.200006503515626C2.3999938964843746,12.563490903515625,2.652850716484375,11.953038203515625,3.102937106484375,11.502954503515625C3.553024796484375,11.052858303515624,4.163477996484375,10.800006403515624,4.799993996484375,10.800006403515624C4.799993996484375,10.800006403515624,19.199994896484377,10.800006403515624,19.199994896484377,10.800006403515624C19.836474896484376,10.800006403515624,20.446914896484376,11.052858303515624,20.897033896484373,11.502954503515625C21.347154896484376,11.953038203515625,21.599994896484375,12.563490903515625,21.599994896484375,13.200006503515626C21.599994896484375,13.200006503515626,21.599994896484375,18.000007103515625,21.599994896484375,18.000007103515625C21.599994896484375,18.636487103515627,21.347154896484376,19.246926103515626,20.897033896484373,19.697046103515625C20.446914896484376,20.147167103515624,19.836474896484376,20.400007103515627,19.199994896484377,20.400007103515627C19.199994896484377,20.400007103515627,4.799993996484375,20.400007103515627,4.799993996484375,20.400007103515627C4.163477996484375,20.400007103515627,3.553024796484375,20.147167103515624,3.102937106484375,19.697046103515625C2.652850716484375,19.246926103515626,2.3999938964843754,18.636487103515627,2.399993896484375,18.000007103515625C2.399993896484375,18.000007103515625,2.399993896484375,13.200006503515626,2.399993896484375,13.200006503515626C2.399993896484375,13.200006503515626,2.399993896484375,13.200006503515626,2.399993896484375,13.200006503515626Z" fill="#0A0A28" fill-opacity="1"/></g></svg>