<svg xmlns="http://www.w3.org/2000/svg" xmlns:xlink="http://www.w3.org/1999/xlink" fill="none" version="1.1" width="24" height="24" viewBox="0 0 24 24"><defs><clipPath id="master_svg0_3_1559"><rect x="0" y="0" width="24" height="24" rx="0"/></clipPath></defs><g clip-path="url(#master_svg0_3_1559)"><path d="M4.8000245140625,2.4000244140625C4.1635085140625,2.4000244140625004,3.5530553140625,2.6528812340625,3.1029676240625,3.1029676240625C2.6528812340625,3.5530553140625,2.4000244140625004,4.1635085140625,2.4000244140625,4.8000245140625C2.4000244140625,4.8000245140625,2.4000244140625,18.0000244140625,2.4000244140625,18.0000244140625C2.400024414062501,18.9547444140625,2.7793096340625,19.8704644140625,3.4544405140625,20.5455854140625C4.1295725140625,21.2207054140625,5.0452444140625,21.6000254140625,6.0000245140625,21.6000254140625C6.9548044140625,21.6000254140625,7.8704767140625,21.2207054140625,8.5456085140625,20.5455854140625C9.2207408140625,19.8704644140625,9.6000247140625,18.9547444140625,9.6000247140625,18.0000244140625C9.6000247140625,18.0000244140625,9.6000247140625,4.8000245140625,9.6000247140625,4.8000245140625C9.6000247140625,4.1635085140625,9.3471727140625,3.5530553140625,8.897076614062499,3.1029676240625C8.4469929140625,2.6528812340625,7.8365402140625,2.4000244140625004,7.2000246140625,2.4000244140625C7.2000246140625,2.4000244140625,4.8000245140625,2.4000244140625,4.8000245140625,2.4000244140625C4.8000245140625,2.4000244140625,4.8000245140625,2.4000244140625,4.8000245140625,2.4000244140625ZM6.0000245140625,19.2000254140625C6.318288614062499,19.2000254140625,6.6235089140625,19.0735454140625,6.8485565140625,18.8485454140625C7.0735926140625,18.6235444140625,7.2000246140625,18.318265414062502,7.2000246140625,18.0000244140625C7.2000246140625,17.6817854140625,7.0735926140625,17.376504414062502,6.8485565140625,17.1515054140625C6.6235089140625,16.9265054140625,6.318288614062499,16.8000254140625,6.0000245140625,16.8000254140625C5.6817605140625,16.8000254140625,5.3765404140625,16.9265054140625,5.1514926140625,17.1515054140625C4.9264564140625,17.376504414062502,4.8000245140625,17.6817854140625,4.8000245140625,18.0000244140625C4.8000245140625,18.318265414062502,4.9264564140625,18.6235444140625,5.1514926140625,18.8485454140625C5.3765404140625,19.0735454140625,5.6817605140625,19.2000254140625,6.0000245140625,19.2000254140625C6.0000245140625,19.2000254140625,6.0000245140625,19.2000254140625,6.0000245140625,19.2000254140625ZM12.0000248140625,17.0916254140625C12.0000248140625,17.0916254140625,17.8800244140625,11.2116251140625,17.8800244140625,11.2116251140625C18.3299054140625,10.7615642140625,18.5827464140625,10.151220814062501,18.5827464140625,9.514824414062499C18.5827464140625,8.8784289140625,18.3299054140625,8.2680964140625,17.8800244140625,7.8180246140625C17.8800244140625,7.8180246140625,16.1820254140625,6.120024414062501,16.1820254140625,6.120024414062501C15.7319064140625,5.6700966140624995,15.1215844140625,5.4173405140625,14.4852244140625,5.4173405140625C13.8488294140625,5.4173405140625,13.2384854140625,5.6700966140624995,12.7884244140625,6.120024414062501C12.7884244140625,6.120024414062501,12.0000248140625,6.9084244140625,12.0000248140625,6.9084244140625C12.0000248140625,6.9084244140625,12.0000248140625,17.0916254140625,12.0000248140625,17.0916254140625C12.0000248140625,17.0916254140625,12.0000248140625,17.0916254140625,12.0000248140625,17.0916254140625ZM19.2000254140625,21.6000254140625C19.2000254140625,21.6000254140625,10.8852253140625,21.6000254140625,10.8852253140625,21.6000254140625C10.8852253140625,21.6000254140625,18.0852254140625,14.4000244140625,18.0852254140625,14.4000244140625C18.0852254140625,14.4000244140625,19.2000254140625,14.4000244140625,19.2000254140625,14.4000244140625C19.8365054140625,14.4000244140625,20.4469454140625,14.6528654140625,20.8970644140625,15.1029854140625C21.3471854140625,15.5531054140625,21.6000254140625,16.1635444140625,21.6000254140625,16.8000254140625C21.6000254140625,16.8000254140625,21.6000254140625,19.2000254140625,21.6000254140625,19.2000254140625C21.6000254140625,19.8365054140625,21.3471854140625,20.4469454140625,20.8970644140625,20.8970644140625C20.4469454140625,21.3471854140625,19.8365054140625,21.6000254140625,19.2000254140625,21.6000254140625C19.2000254140625,21.6000254140625,19.2000254140625,21.6000254140625,19.2000254140625,21.6000254140625C19.2000254140625,21.6000254140625,19.2000254140625,21.6000254140625,19.2000254140625,21.6000254140625Z" fill-rule="evenodd" fill="#0A0A28" fill-opacity="1"/></g></svg>