<svg xmlns="http://www.w3.org/2000/svg" xmlns:xlink="http://www.w3.org/1999/xlink" fill="none" version="1.1" width="24" height="24" viewBox="0 0 24 24"><defs><clipPath id="master_svg0_3_1905"><rect x="0" y="0" width="24" height="24" rx="0"/></clipPath></defs><g clip-path="url(#master_svg0_3_1905)"><path d="M3,17C3,17,2,17,2,17C2,17,3,17,3,17C3,17,3,17,3,17ZM5,3C5,3,5,2,5,2C5,2,5,3,5,3C5,3,5,3,5,3ZM9,3C9,3,9,2,9,2C9,2,9,3,9,3C9,3,9,3,9,3ZM11,17C11,17,12,17,12,17C12,17,11,17,11,17C11,17,11,17,11,17ZM16.657,12C16.1047,12,15.657,12.44771,15.657,13C15.657,13.5523,16.1047,14,16.657,14C16.657,14,16.657,12,16.657,12C16.657,12,16.657,12,16.657,12ZM10.292890100000001,6.63589C9.902370000000001,7.0264201,9.902370000000001,7.6595802,10.292890100000001,8.050109899999999C10.6834202,8.440629999999999,11.3165798,8.440629999999999,11.7071104,8.050109899999999C11.7071104,8.050109899999999,10.292890100000001,6.63589,10.292890100000001,6.63589C10.292890100000001,6.63589,10.292890100000001,6.63589,10.292890100000001,6.63589ZM12.6569996,5.686000099999999C12.6569996,5.686000099999999,11.9499998,4.97879,11.9499998,4.97879C11.9499998,4.97879,11.9498901,4.9788899,11.9498901,4.9788899C11.9498901,4.9788899,12.6569996,5.686000099999999,12.6569996,5.686000099999999C12.6569996,5.686000099999999,12.6569996,5.686000099999999,12.6569996,5.686000099999999ZM15.485,5.686000099999999C15.485,5.686000099999999,16.1921,4.9788899,16.1921,4.9788899C16.1921,4.9788899,16.192,4.97879,16.192,4.97879C16.192,4.97879,15.485,5.686000099999999,15.485,5.686000099999999C15.485,5.686000099999999,15.485,5.686000099999999,15.485,5.686000099999999ZM18.314,8.5149999C18.314,8.5149999,19.0212,7.8080001,19.0212,7.8080001C19.0212,7.8080001,19.021099,7.8078899,19.021099,7.8078899C19.021099,7.8078899,18.314,8.5149999,18.314,8.5149999C18.314,8.5149999,18.314,8.5149999,18.314,8.5149999ZM18.314,11.3430004C18.314,11.3430004,19.021099,12.0501099,19.021099,12.0501099C19.021099,12.0501099,19.0212,12.0500002,19.0212,12.0500002C19.0212,12.0500002,18.314,11.3430004,18.314,11.3430004C18.314,11.3430004,18.314,11.3430004,18.314,11.3430004ZM7,16C6.4477201,16,6,16.447699999999998,6,17C6,17.552300000000002,6.4477201,18,7,18C7,18,7,16,7,16C7,16,7,16,7,16ZM7.0100002,18C7.5622802,18,8.0100002,17.552300000000002,8.0100002,17C8.0100002,16.447699999999998,7.5622802,16,7.0100002,16C7.0100002,16,7.0100002,18,7.0100002,18C7.0100002,18,7.0100002,18,7.0100002,18ZM7,20C6.20435,20,5.4412899,19.683901,4.87868,19.1213C4.87868,19.1213,3.4644660099999998,20.5355,3.4644660099999998,20.5355C4.40215,21.4732,5.6739199,22,7,22C7,22,7,20,7,20C7,20,7,20,7,20ZM4.87868,19.1213C4.31607,18.5587,4,17.7956,4,17C4,17,2,17,2,17C2,18.3261,2.526784,19.5979,3.4644660099999998,20.5355C3.4644660099999998,20.5355,4.87868,19.1213,4.87868,19.1213C4.87868,19.1213,4.87868,19.1213,4.87868,19.1213ZM4,17C4,17,4,5,4,5C4,5,2,5,2,5C2,5,2,17,2,17C2,17,4,17,4,17C4,17,4,17,4,17ZM4,5C4,4.73478,4.10536,4.48043,4.29289,4.29289C4.29289,4.29289,2.87868,2.87868,2.87868,2.87868C2.3160700199999997,3.44128901,2,4.20435,2,5C2,5,4,5,4,5C4,5,4,5,4,5ZM4.29289,4.29289C4.48043,4.10536,4.73478,4,5,4C5,4,5,2,5,2C4.20435,2,3.44128901,2.3160700199999997,2.87868,2.87868C2.87868,2.87868,4.29289,4.29289,4.29289,4.29289C4.29289,4.29289,4.29289,4.29289,4.29289,4.29289ZM5,4C5,4,9,4,9,4C9,4,9,2,9,2C9,2,5,2,5,2C5,2,5,4,5,4C5,4,5,4,5,4ZM9,4C9.2652202,4,9.5195699,4.10536,9.707109899999999,4.29289C9.707109899999999,4.29289,11.1213198,2.87868,11.1213198,2.87868C10.558710099999999,2.3160700199999997,9.79565,2,9,2C9,2,9,4,9,4C9,4,9,4,9,4ZM9.707109899999999,4.29289C9.894639999999999,4.48043,10,4.73478,10,5C10,5,12,5,12,5C12,4.20435,11.6839304,3.44128799,11.1213198,2.87868C11.1213198,2.87868,9.707109899999999,4.29289,9.707109899999999,4.29289C9.707109899999999,4.29289,9.707109899999999,4.29289,9.707109899999999,4.29289ZM10,5C10,5,10,17,10,17C10,17,12,17,12,17C12,17,12,5,12,5C12,5,10,5,10,5C10,5,10,5,10,5ZM10,17C10,17.7956,9.683929899999999,18.5587,9.1213198,19.1213C9.1213198,19.1213,10.535530099999999,20.5355,10.535530099999999,20.5355C11.4732199,19.5979,12,18.3261,12,17C12,17,10,17,10,17C10,17,10,17,10,17ZM9.1213198,19.1213C8.558710099999999,19.683901,7.79565,20,7,20C7,20,7,22,7,22C8.326079799999999,22,9.597849799999999,21.4732,10.535530099999999,20.5355C10.535530099999999,20.5355,9.1213198,19.1213,9.1213198,19.1213C9.1213198,19.1213,9.1213198,19.1213,9.1213198,19.1213ZM7,22C7,22,19,22,19,22C19,22,19,20,19,20C19,20,7,20,7,20C7,20,7,22,7,22C7,22,7,22,7,22ZM19,22C19.7957,22,20.558701,21.683901,21.1213,21.1213C21.1213,21.1213,19.7071,19.7071,19.7071,19.7071C19.5196,19.8946,19.2652,20,19,20C19,20,19,22,19,22C19,22,19,22,19,22ZM21.1213,21.1213C21.683901,20.558701,22,19.7957,22,19C22,19,20,19,20,19C20,19.2652,19.8946,19.5196,19.7071,19.7071C19.7071,19.7071,21.1213,21.1213,21.1213,21.1213C21.1213,21.1213,21.1213,21.1213,21.1213,21.1213ZM22,19C22,19,22,15,22,15C22,15,20,15,20,15C20,15,20,19,20,19C20,19,22,19,22,19C22,19,22,19,22,19ZM22,15C22,14.2043,21.683901,13.4413,21.1213,12.8786802C21.1213,12.8786802,19.7071,14.2929,19.7071,14.2929C19.8946,14.4804,20,14.7348,20,15C20,15,22,15,22,15C22,15,22,15,22,15ZM21.1213,12.8786802C20.558701,12.3160696,19.7957,12,19,12C19,12,19,14,19,14C19.2652,14,19.5196,14.1054,19.7071,14.2929C19.7071,14.2929,21.1213,12.8786802,21.1213,12.8786802C21.1213,12.8786802,21.1213,12.8786802,21.1213,12.8786802ZM19,12C19,12,16.657,12,16.657,12C16.657,12,16.657,14,16.657,14C16.657,14,19,14,19,14C19,14,19,12,19,12C19,12,19,12,19,12ZM11.7071104,8.050109899999999C11.7071104,8.050109899999999,13.3641,6.39311,13.3641,6.39311C13.3641,6.39311,11.9498901,4.9788899,11.9498901,4.9788899C11.9498901,4.9788899,10.292890100000001,6.63589,10.292890100000001,6.63589C10.292890100000001,6.63589,11.7071104,8.050109899999999,11.7071104,8.050109899999999C11.7071104,8.050109899999999,11.7071104,8.050109899999999,11.7071104,8.050109899999999ZM13.364,6.3932099000000004C13.5515,6.2057400000000005,13.8058,6.100429999999999,14.071,6.100429999999999C14.071,6.100429999999999,14.071,4.10043,14.071,4.10043C13.2755,4.10043,12.5125799,4.41637,11.9499998,4.97879C11.9499998,4.97879,13.364,6.3932099000000004,13.364,6.3932099000000004C13.364,6.3932099000000004,13.364,6.3932099000000004,13.364,6.3932099000000004ZM14.071,6.100429999999999C14.3362,6.100429999999999,14.5905,6.2057400000000005,14.778,6.3932099000000004C14.778,6.3932099000000004,16.192,4.97879,16.192,4.97879C15.6294,4.41637,14.8665,4.10043,14.071,4.10043C14.071,4.10043,14.071,6.100429999999999,14.071,6.100429999999999C14.071,6.100429999999999,14.071,6.100429999999999,14.071,6.100429999999999ZM14.7779,6.39311C14.7779,6.39311,17.6069,9.2221098,17.6069,9.2221098C17.6069,9.2221098,19.021099,7.8078899,19.021099,7.8078899C19.021099,7.8078899,16.1921,4.9788899,16.1921,4.9788899C16.1921,4.9788899,14.7779,6.39311,14.7779,6.39311C14.7779,6.39311,14.7779,6.39311,14.7779,6.39311ZM17.6068,9.222000099999999C17.7943,9.409530199999999,17.8996,9.6638398,17.8996,9.9289999C17.8996,9.9289999,19.899599,9.9289999,19.899599,9.9289999C19.899599,9.133510099999999,19.583599,8.3705802,19.0212,7.8080001C19.0212,7.8080001,17.6068,9.222000099999999,17.6068,9.222000099999999C17.6068,9.222000099999999,17.6068,9.222000099999999,17.6068,9.222000099999999ZM17.8996,9.9289999C17.8996,10.19416,17.7943,10.4484701,17.6068,10.6360002C17.6068,10.6360002,19.0212,12.0500002,19.0212,12.0500002C19.583599,11.4874201,19.899599,10.7244902,19.899599,9.9289999C19.899599,9.9289999,17.8996,9.9289999,17.8996,9.9289999C17.8996,9.9289999,17.8996,9.9289999,17.8996,9.9289999ZM17.6069,10.63589C17.6069,10.63589,9.1213298,19.1213,9.1213298,19.1213C9.1213298,19.1213,10.535530099999999,20.5355,10.535530099999999,20.5355C10.535530099999999,20.5355,19.021099,12.0501099,19.021099,12.0501099C19.021099,12.0501099,17.6069,10.63589,17.6069,10.63589C17.6069,10.63589,17.6069,10.63589,17.6069,10.63589ZM7,18C7,18,7.0100002,18,7.0100002,18C7.0100002,18,7.0100002,16,7.0100002,16C7.0100002,16,7,16,7,16C7,16,7,18,7,18C7,18,7,18,7,18Z" fill="#0A0A28" fill-opacity="1"/></g></svg>