<svg xmlns="http://www.w3.org/2000/svg" xmlns:xlink="http://www.w3.org/1999/xlink" fill="none" version="1.1" width="24" height="24" viewBox="0 0 24 24"><defs><clipPath id="master_svg0_3_2324"><rect x="0" y="0" width="24" height="24" rx="0"/></clipPath></defs><g clip-path="url(#master_svg0_3_2324)"><path d="M3,9C2.4477149799999998,9,2,9.4477201,2,10C2,10.5522799,2.4477149799999998,11,3,11C3,11,3,9,3,9C3,9,3,9,3,9ZM21,11C21.552299,11,22,10.5522799,22,10C22,9.4477201,21.552299,9,21,9C21,9,21,11,21,11C21,11,21,11,21,11ZM7,14C6.4477201,14,6,14.44771,6,15C6,15.5523,6.4477201,16,7,16C7,16,7,14,7,14C7,14,7,14,7,14ZM8,16C8.5522799,16,9,15.5523,9,15C9,14.44771,8.5522799,14,8,14C8,14,8,16,8,16C8,16,8,16,8,16ZM12,14C11.44771,14,11,14.44771,11,15C11,15.5523,11.44771,16,12,16C12,16,12,14,12,14C12,14,12,14,12,14ZM13,16C13.5523,16,14,15.5523,14,15C14,14.44771,13.5523,14,13,14C13,14,13,16,13,16C13,16,13,16,13,16ZM6,19C6,19,6,20,6,20C6,20,6,19,6,19C6,19,6,19,6,19ZM18,19C18,19,18,20,18,20C18,20,18,19,18,19C18,19,18,19,18,19ZM21,16C21,16,22,16,22,16C22,16,21,16,21,16C21,16,21,16,21,16ZM21,8C21,8,22,8,22,8C22,8,21,8,21,8C21,8,21,8,21,8ZM3,8C3,8,2,8,2,8C2,8,3,8,3,8C3,8,3,8,3,8ZM3,16C3,16,2,16,2,16C2,16,3,16,3,16C3,16,3,16,3,16ZM3,11C3,11,21,11,21,11C21,11,21,9,21,9C21,9,3,9,3,9C3,9,3,11,3,11C3,11,3,11,3,11ZM7,16C7,16,8,16,8,16C8,16,8,14,8,14C8,14,7,14,7,14C7,14,7,16,7,16C7,16,7,16,7,16ZM12,16C12,16,13,16,13,16C13,16,13,14,13,14C13,14,12,14,12,14C12,14,12,16,12,16C12,16,12,16,12,16ZM6,20C6,20,18,20,18,20C18,20,18,18,18,18C18,18,6,18,6,18C6,18,6,20,6,20C6,20,6,20,6,20ZM18,20C19.0609,20,20.0783,19.5786,20.8284,18.828400000000002C20.8284,18.828400000000002,19.4142,17.4142,19.4142,17.4142C19.039101,17.7893,18.5304,18,18,18C18,18,18,20,18,20C18,20,18,20,18,20ZM20.8284,18.828400000000002C21.5786,18.0783,22,17.0609,22,16C22,16,20,16,20,16C20,16.5304,19.789301,17.039099999999998,19.4142,17.4142C19.4142,17.4142,20.8284,18.828400000000002,20.8284,18.828400000000002C20.8284,18.828400000000002,20.8284,18.828400000000002,20.8284,18.828400000000002ZM22,16C22,16,22,8,22,8C22,8,20,8,20,8C20,8,20,16,20,16C20,16,22,16,22,16C22,16,22,16,22,16ZM22,8C22,6.9391299,21.5786,5.92171901,20.8284,5.171573C20.8284,5.171573,19.4142,6.58579,19.4142,6.58579C19.789301,6.96086,20,7.4695699,20,8C20,8,22,8,22,8C22,8,22,8,22,8ZM20.8284,5.171573C20.0783,4.42142701,19.0609,4,18,4C18,4,18,6,18,6C18.5304,6,19.039101,6.21071,19.4142,6.58579C19.4142,6.58579,20.8284,5.171573,20.8284,5.171573C20.8284,5.171573,20.8284,5.171573,20.8284,5.171573ZM18,4C18,4,6,4,6,4C6,4,6,6,6,6C6,6,18,6,18,6C18,6,18,4,18,4C18,4,18,4,18,4ZM6,4C4.9391299,4,3.9217180000000003,4.4214280200000005,3.171573,5.171573C3.171573,5.171573,4.58579,6.58579,4.58579,6.58579C4.96086,6.21071,5.4695699,6,6,6C6,6,6,4,6,4C6,4,6,4,6,4ZM3.171573,5.171573C2.42142802,5.921718,2,6.9391299,2,8C2,8,4,8,4,8C4,7.4695699,4.21071,6.96086,4.58579,6.58579C4.58579,6.58579,3.171573,5.171573,3.171573,5.171573C3.171573,5.171573,3.171573,5.171573,3.171573,5.171573ZM2,8C2,8,2,16,2,16C2,16,4,16,4,16C4,16,4,8,4,8C4,8,2,8,2,8C2,8,2,8,2,8ZM2,16C2,17.0609,2.42142701,18.0783,3.171573,18.828400000000002C3.171573,18.828400000000002,4.58579,17.4142,4.58579,17.4142C4.21071,17.039099999999998,4,16.5304,4,16C4,16,2,16,2,16C2,16,2,16,2,16ZM3.171573,18.828400000000002C3.92171901,19.5786,4.9391299,20,6,20C6,20,6,18,6,18C5.4695699,18,4.96086,17.7893,4.58579,17.4142C4.58579,17.4142,3.171573,18.828400000000002,3.171573,18.828400000000002C3.171573,18.828400000000002,3.171573,18.828400000000002,3.171573,18.828400000000002Z" fill="#0A0A28" fill-opacity="1"/></g></svg>