<svg xmlns="http://www.w3.org/2000/svg" xmlns:xlink="http://www.w3.org/1999/xlink" fill="none" version="1.1" width="24" height="24" viewBox="0 0 24 24"><defs><clipPath id="master_svg0_3_1475"><rect x="0" y="0" width="24" height="24" rx="0"/></clipPath></defs><g clip-path="url(#master_svg0_3_1475)"><path d="M4.8000245140625,4.79998779296875C4.1635085140625,4.799987792968751,3.5530553140625,5.05284461296875,3.1029676240625,5.50293100296875C2.6528812340625,5.95301869296875,2.4000244140625004,6.56347189296875,2.4000244140625,7.19998789296875C2.4000244140625,7.19998789296875,2.4000244140625,8.399987892968749,2.4000244140625,8.399987892968749C2.4000244140625,8.399987892968749,21.6000254140625,8.399987892968749,21.6000254140625,8.399987892968749C21.6000254140625,8.399987892968749,21.6000254140625,7.19998789296875,21.6000254140625,7.19998789296875C21.6000254140625,6.56347189296875,21.3471854140625,5.95301869296875,20.8970644140625,5.50293100296875C20.4469454140625,5.05284461296875,19.8365054140625,4.799987792968752,19.2000254140625,4.79998779296875C19.2000254140625,4.79998779296875,4.8000245140625,4.79998779296875,4.8000245140625,4.79998779296875C4.8000245140625,4.79998779296875,4.8000245140625,4.79998779296875,4.8000245140625,4.79998779296875Z" fill="#0A0A28" fill-opacity="1"/><path d="M21.6000254140625,10.79998779296875C21.6000254140625,10.79998779296875,2.4000244140625,10.79998779296875,2.4000244140625,10.79998779296875C2.4000244140625,10.79998779296875,2.4000244140625,16.79998779296875,2.4000244140625,16.79998779296875C2.4000244140625004,17.43650389296875,2.6528812340625,18.04695649296875,3.1029676240625,18.49703979296875C3.5530553140625,18.947135892968753,4.1635085140625,19.19998839296875,4.8000245140625,19.19998839296875C4.8000245140625,19.19998839296875,19.2000254140625,19.19998839296875,19.2000254140625,19.19998839296875C19.8365054140625,19.19998839296875,20.4469454140625,18.947135892968753,20.8970644140625,18.49703979296875C21.3471854140625,18.04695649296875,21.6000254140625,17.43650389296875,21.6000254140625,16.79998779296875C21.6000254140625,16.79998779296875,21.6000254140625,10.79998779296875,21.6000254140625,10.79998779296875C21.6000254140625,10.79998779296875,21.6000254140625,10.79998779296875,21.6000254140625,10.79998779296875ZM4.8000245140625,15.59998799296875C4.8000245140625,15.28172399296875,4.9264564140625,14.97650389296875,5.1514926140625,14.75145599296875C5.3765404140625,14.52641989296875,5.6817605140625,14.399987892968749,6.0000245140625,14.399987892968749C6.0000245140625,14.399987892968749,7.2000246140625,14.399987892968749,7.2000246140625,14.399987892968749C7.5182886140625,14.399987892968749,7.8235082140625,14.52641989296875,8.0485563140625,14.75145599296875C8.2735925140625,14.97650389296875,8.4000244140625,15.28172399296875,8.4000244140625,15.59998799296875C8.4000244140625,15.918251992968749,8.2735925140625,16.22347159296875,8.0485563140625,16.448519692968752C7.8235082140625,16.67355589296875,7.5182886140625,16.79998779296875,7.2000246140625,16.79998779296875C7.2000246140625,16.79998779296875,6.0000245140625,16.79998779296875,6.0000245140625,16.79998779296875C5.6817605140625,16.79998779296875,5.3765404140625,16.67355589296875,5.1514926140625,16.448519692968752C4.9264564140625,16.22347159296875,4.8000245140625,15.918251992968749,4.8000245140625,15.59998799296875C4.8000245140625,15.59998799296875,4.8000245140625,15.59998799296875,4.8000245140625,15.59998799296875ZM10.8000250140625,14.399987892968749C10.4817610140625,14.399987892968749,10.1765408140625,14.52641989296875,9.951492814062501,14.75145599296875C9.7264566140625,14.97650389296875,9.6000247140625,15.28172399296875,9.6000247140625,15.59998799296875C9.6000247140625,15.918251992968749,9.7264566140625,16.22347159296875,9.951492814062501,16.448519692968752C10.1765408140625,16.67355589296875,10.4817610140625,16.79998779296875,10.8000250140625,16.79998779296875C10.8000250140625,16.79998779296875,12.0000248140625,16.79998779296875,12.0000248140625,16.79998779296875C12.3182888140625,16.79998779296875,12.6235094140625,16.67355589296875,12.8485574140625,16.448519692968752C13.0735934140625,16.22347159296875,13.2000244140625,15.918251992968749,13.2000244140625,15.59998799296875C13.2000244140625,15.28172399296875,13.0735934140625,14.97650389296875,12.8485574140625,14.75145599296875C12.6235094140625,14.52641989296875,12.3182888140625,14.399987892968749,12.0000248140625,14.399987892968749C12.0000248140625,14.399987892968749,10.8000250140625,14.399987892968749,10.8000250140625,14.399987892968749C10.8000250140625,14.399987892968749,10.8000250140625,14.399987892968749,10.8000250140625,14.399987892968749Z" fill-rule="evenodd" fill="#0A0A28" fill-opacity="1"/></g></svg>