<svg xmlns="http://www.w3.org/2000/svg" xmlns:xlink="http://www.w3.org/1999/xlink" fill="none" version="1.1" width="24" height="24" viewBox="0 0 24 24"><defs><clipPath id="master_svg0_3_2157"><rect x="0" y="0" width="24" height="24" rx="0"/></clipPath></defs><g clip-path="url(#master_svg0_3_2157)"><path d="M11.4048252140625,1.35839202796875C11.5861082140625,1.25484294096875,11.7912607140625,1.20037841796875,12.0000248140625,1.20037841796875C12.2088003140625,1.20037841796875,12.4139524140625,1.25484294096875,12.5952364140625,1.35839202796875C12.5952364140625,1.35839202796875,14.6952254140625,2.55839441796875,14.6952254140625,2.55839441796875C14.8359854140625,2.63445041796875,14.9600644140625,2.73789051796875,15.0602654140625,2.86260651796875C15.1604654140625,2.9873345179687503,15.2346254140625,3.13083051796875,15.2785444140625,3.28465841796875C15.3224654140625,3.43849851796875,15.3351854140625,3.59955051796875,15.3159844140625,3.75837041796875C15.2967854140625,3.91717841796875,15.2459054140625,4.07055041796875,15.1665854140625,4.20945051796875C15.0872644140625,4.34835071796875,14.9808254140625,4.469970417968749,14.8538644140625,4.56717061796875C14.7267844140625,4.66437081796875,14.5815854140625,4.73519441796875,14.4266644140625,4.77545451796875C14.2718774140625,4.81571461796875,14.1105604140625,4.82461861796875,13.9522444140625,4.80162641796875C13.7939284140625,4.77863451796875,13.6418174140625,4.72422651796875,13.5048244140625,4.6415946179687495C13.5048244140625,4.6415946179687495,12.0000248140625,3.78239441796875,12.0000248140625,3.78239441796875C12.0000248140625,3.78239441796875,10.4952364140625,4.6415946179687495,10.4952364140625,4.6415946179687495C10.3582444140625,4.72422651796875,10.2061329140625,4.77863451796875,10.047816714062499,4.80162641796875C9.8895006140625,4.82461861796875,9.7281847140625,4.81571461796875,9.573360414062499,4.77545451796875C9.4185247140625,4.73519441796875,9.273312614062501,4.66437081796875,9.1462569140625,4.56717061796875C9.0192003140625,4.469970417968749,8.9128566140625,4.34835071796875,8.8334885140625,4.20945051796875C8.754108914062499,4.07055041796875,8.7033124140625,3.91717841796875,8.6840768140625,3.75837041796875C8.6648412140625,3.59955051796875,8.6775603140625,3.43849851796875,8.721480814062499,3.28465841796875C8.7653890140625,3.13083051796875,8.8396211140625,2.9873345179687503,8.9398088140625,2.86260651796875C9.0399847140625,2.73789051796875,9.164088714062501,2.63445041796875,9.3048248140625,2.55839441796875C9.3048248140625,2.55839441796875,11.4048252140625,1.35839202796875,11.4048252140625,1.35839202796875C11.4048252140625,1.35839202796875,11.4048252140625,1.35839202796875,11.4048252140625,1.35839202796875C11.4048252140625,1.35839202796875,11.4048252140625,1.35839202796875,11.4048252140625,1.35839202796875ZM6.7416248140625,5.40479471796875C6.8994007140625,5.68105891796875,6.9409928140625,6.00867031796875,6.8572926140625,6.31560661796875C6.7735805140625,6.62254241796875,6.5714168140625,6.88367461796875,6.2952247140625,7.04159451796875C6.2952247140625,7.04159451796875,6.0192246140625,7.19999451796875,6.0192246140625,7.19999451796875C6.0192246140625,7.19999451796875,6.2952247140625,7.35839461796875,6.2952247140625,7.35839461796875C6.4359727140625,7.43445061796875,6.5600767140625,7.53789091796875,6.6602526140625,7.66260671796875C6.7604408140625,7.78733491796875,6.8346724140625,7.93083051796875,6.8785806140625,8.08465861796875C6.9225006140625,8.23849871796875,6.9352207140625,8.39955091796875,6.9159846140625,8.55837061796875C6.8967485140625,8.717178817968751,6.8459525140625,8.87055061796875,6.7665725140625,9.00945041796875C6.6872043140625,9.14835071796875,6.5808606140625,9.26997091796875,6.4538045140625,9.36717031796875C6.326748614062501,9.46437071796875,6.1815364140625,9.53519531796875,6.0267005140625,9.57545471796875C5.8718765140624996,9.61571501796875,5.7105605140625,9.62461851796875,5.5522444140625,9.60162641796875C5.3939285140625,9.57863521796875,5.2418165140625,9.52422711796875,5.1048245140625,9.44159511796875C5.1048245140625,9.44159511796875,4.8000245140625,9.26759531796875,4.8000245140625,9.26759531796875C4.8000245140625,9.26759531796875,4.8000245140625,9.59999461796875,4.8000245140625,9.59999461796875C4.8000245140625,9.91824721796875,4.6736045140625,10.22347831796875,4.4485566140625,10.44851491796875C4.2235205140625,10.67356301796875,3.9182886140625,10.79999451796875,3.6000244140625,10.79999451796875C3.2817700540625,10.79999451796875,2.9765452140625,10.67356301796875,2.7515020340625,10.44851491796875C2.5264588140625,10.22347831796875,2.4000302165787,9.91824721796875,2.4000302165787,9.59999461796875C2.4000302165787,9.59999461796875,2.4000302165787,7.19999451796875,2.4000302165787,7.19999451796875C2.3993586012525,6.98442701796875,2.4570008960625,6.77268651796875,2.5668520340625,6.58721451796875C2.6767024140625,6.40173051796875,2.8346728340625,6.24941441796875,3.0240304440625,6.14639421796875C3.0240304440625,6.14639421796875,5.1048245140625,4.95839451796875,5.1048245140625,4.95839451796875C5.3811006140625,4.80063061796875,5.708712614062501,4.75902651796875,6.0156486140625,4.842738617968751C6.3225846140624995,4.92643861796875,6.5837045140625,5.128614617968751,6.7416248140625,5.40479471796875C6.7416248140625,5.40479471796875,6.7416248140625,5.40479471796875,6.7416248140625,5.40479471796875C6.7416248140625,5.40479471796875,6.7416248140625,5.40479471796875,6.7416248140625,5.40479471796875ZM17.2584244140625,5.40479471796875C17.416345414062498,5.128614617968751,17.6774654140625,4.92643861796875,17.9844254140625,4.842738617968751C18.2913844140625,4.75902651796875,18.6189864140625,4.80063061796875,18.8952254140625,4.95839451796875C18.8952254140625,4.95839451796875,20.9748244140625,6.14639421796875,20.9748244140625,6.14639421796875C21.1639444140625,6.24985881796875,21.3217454140625,6.40223451796875,21.4316654140625,6.58759831796875C21.5417044140625,6.77295021796875,21.5997844140625,6.98446221796875,21.6000254140625,7.19999451796875C21.6000254140625,7.19999451796875,21.6000254140625,9.59999461796875,21.6000254140625,9.59999461796875C21.6000254140625,9.91824721796875,21.4735454140625,10.22347831796875,21.2485444140625,10.44851491796875C21.0235444140625,10.67356301796875,20.7182654140625,10.79999451796875,20.4000244140625,10.79999451796875C20.0817854140625,10.79999451796875,19.7765044140625,10.67356301796875,19.5515064140625,10.44851491796875C19.3265054140625,10.22347831796875,19.2000254140625,9.91824721796875,19.2000254140625,9.59999461796875C19.2000254140625,9.59999461796875,19.2000254140625,9.26759531796875,19.2000254140625,9.26759531796875C19.2000254140625,9.26759531796875,18.8952254140625,9.44159511796875,18.8952254140625,9.44159511796875C18.7583044140625,9.52422711796875,18.6061454140625,9.57863521796875,18.4478664140625,9.60162641796875C18.289465414062498,9.62461851796875,18.1281854140625,9.61571501796875,17.9733854140625,9.57545471796875C17.8185844140625,9.53519531796875,17.6732654140625,9.46437071796875,17.5463044140625,9.36717031796875C17.419224414062498,9.26997091796875,17.3129044140625,9.14835071796875,17.2334654140625,9.00945041796875C17.154145414062498,8.87055061796875,17.1032644140625,8.717178817968751,17.0840654140625,8.55837061796875C17.0648654140625,8.39955091796875,17.0775854140625,8.23849871796875,17.1215054140625,8.08465861796875C17.1654244140625,7.93083051796875,17.2395854140625,7.78733491796875,17.3397844140625,7.66260671796875C17.439985414062498,7.53789091796875,17.564065414062497,7.43445061796875,17.7048244140625,7.35839461796875C17.7048244140625,7.35839461796875,17.9808254140625,7.19999451796875,17.9808254140625,7.19999451796875C17.9808254140625,7.19999451796875,17.7048244140625,7.04159451796875,17.7048244140625,7.04159451796875C17.4287054140625,6.88367461796875,17.2265054140625,6.62254241796875,17.1427454140625,6.31560661796875C17.0591054140625,6.00867031796875,17.1006254140625,5.68105891796875,17.2584244140625,5.40479471796875C17.2584244140625,5.40479471796875,17.2584244140625,5.40479471796875,17.2584244140625,5.40479471796875C17.2584244140625,5.40479471796875,17.2584244140625,5.40479471796875,17.2584244140625,5.40479471796875ZM8.8584246140625,10.20479491796875C9.016356514062501,9.92861461796875,9.2774768140625,9.72643851796875,9.5844126140625,9.64273831796875C9.8913488140625,9.55902671796875,10.2189607140625,9.60063071796875,10.4952364140625,9.75839521796875C10.4952364140625,9.75839521796875,12.0000248140625,10.61759471796875,12.0000248140625,10.61759471796875C12.0000248140625,10.61759471796875,13.5048244140625,9.75839521796875,13.5048244140625,9.75839521796875C13.6418174140625,9.67576311796875,13.7939284140625,9.62134261796875,13.9522444140625,9.59836291796875C14.1105604140625,9.57537081796875,14.2718774140625,9.58426281796875,14.4266644140625,9.62453461796875C14.5815854140625,9.66479491796875,14.7267844140625,9.73560711796875,14.8538644140625,9.83280661796875C14.9808254140625,9.93000701796875,15.0872644140625,10.05163861796875,15.1665854140625,10.19053841796875C15.2459054140625,10.32943911796875,15.2967854140625,10.48279861796875,15.3159844140625,10.64161871796875C15.3351854140625,10.80042651796875,15.3224654140625,10.96149061796875,15.2785444140625,11.11531921796875C15.2346254140625,11.26914741796875,15.1604654140625,11.41264241796875,15.0602654140625,11.53737041796875C14.9600644140625,11.66209841796875,14.8359854140625,11.76552641796875,14.6952254140625,11.84159441796875C14.6952254140625,11.84159441796875,13.2000244140625,12.69599541796875,13.2000244140625,12.69599541796875C13.2000244140625,12.69599541796875,13.2000244140625,14.40001841796875,13.2000244140625,14.40001841796875C13.2000244140625,14.71825841796875,13.0736054140625,15.02341941796875,12.8485574140625,15.24854041796875C12.6235204140625,15.47353941796875,12.3182888140625,15.60001841796875,12.0000248140625,15.60001841796875C11.6817722140625,15.60001841796875,11.3765411140625,15.47353941796875,11.1515045140625,15.24854041796875C10.9264564140625,15.02341941796875,10.8000250140625,14.71825841796875,10.8000250140625,14.40001841796875C10.8000250140625,14.40001841796875,10.8000250140625,12.69599541796875,10.8000250140625,12.69599541796875C10.8000250140625,12.69599541796875,9.3048248140625,11.84159441796875,9.3048248140625,11.84159441796875C9.0286445140625,11.68367441796875,8.8264809140625,11.42254241796875,8.7427688140625,11.11560631796875C8.6590686140625,10.80867101796875,8.7006602140625,10.48105911796875,8.8584246140625,10.20479491796875C8.8584246140625,10.20479491796875,8.8584246140625,10.20479491796875,8.8584246140625,10.20479491796875C8.8584246140625,10.20479491796875,8.8584246140625,10.20479491796875,8.8584246140625,10.20479491796875ZM3.6000244140625,13.19999441796875C3.9182886140625,13.19999441796875,4.2235205140625,13.32637841796875,4.4485566140625,13.55149841796875C4.6736045140625,13.77649841796875,4.8000245140625,14.08177841796875,4.8000245140625,14.40001841796875C4.8000245140625,14.40001841796875,4.8000245140625,16.10401841796875,4.8000245140625,16.10401841796875C4.8000245140625,16.10401841796875,6.2952247140625,16.95841841796875,6.2952247140625,16.95841841796875C6.4359727140625,17.03449941796875,6.5600767140625,17.137938417968748,6.6602526140625,17.26261941796875C6.7604408140625,17.38730041796875,6.8346724140625,17.53081941796875,6.8785806140625,17.68466041796875C6.9225006140625,17.83849941796875,6.9352207140625,17.99953841796875,6.9159846140625,18.15841841796875C6.8967485140625,18.31717841796875,6.8459525140625,18.47053941796875,6.7665725140625,18.60949941796875C6.6872043140625,18.74833841796875,6.5808606140625,18.87001941796875,6.4538045140625,18.96722041796875C6.326748614062501,19.06441841796875,6.1815364140625,19.13521941796875,6.0267005140625,19.17541841796875C5.8718765140624996,19.21574041796875,5.7105605140625,19.22461841796875,5.5522444140625,19.20158041796875C5.3939285140625,19.17865941796875,5.2418165140625,19.12417841796875,5.1048245140625,19.04161841796875C5.1048245140625,19.04161841796875,3.0048304840625,17.84161941796875,3.0048304840625,17.84161941796875C2.8211656240625,17.73674041796875,2.6684932140625,17.58506041796875,2.5622836240625,17.40217941796875C2.4560731760625,17.21929941796875,2.4000984414595,17.01145941796875,2.4000302165787,16.80001841796875C2.4000302165787,16.80001841796875,2.4000302165787,14.40001841796875,2.4000302165787,14.40001841796875C2.4000302165787,14.08177841796875,2.5264588140625,13.77649841796875,2.7515020340625,13.55149841796875C2.9765452140625,13.32637841796875,3.2817700540625,13.19999441796875,3.6000244140625,13.19999441796875C3.6000244140625,13.19999441796875,3.6000244140625,13.19999441796875,3.6000244140625,13.19999441796875C3.6000244140625,13.19999441796875,3.6000244140625,13.19999441796875,3.6000244140625,13.19999441796875ZM20.4000244140625,13.19999441796875C20.7182654140625,13.19999441796875,21.0235444140625,13.32637841796875,21.2485444140625,13.55149841796875C21.4735454140625,13.77649841796875,21.6000254140625,14.08177841796875,21.6000254140625,14.40001841796875C21.6000254140625,14.40001841796875,21.6000254140625,16.80001841796875,21.6000254140625,16.80001841796875C21.5999054140625,17.01145941796875,21.5439854140625,17.21929941796875,21.4377864140625,17.40217941796875C21.3315854140625,17.58506041796875,21.1789454140625,17.73674041796875,20.9952254140625,17.84161941796875C20.9952254140625,17.84161941796875,18.8952254140625,19.04161841796875,18.8952254140625,19.04161841796875C18.7583044140625,19.12417841796875,18.6061454140625,19.17865941796875,18.4478664140625,19.20158041796875C18.289465414062498,19.22461841796875,18.1281854140625,19.21574041796875,17.9733854140625,19.17541841796875C17.8185844140625,19.13521941796875,17.6732654140625,19.06441841796875,17.5463044140625,18.96722041796875C17.419224414062498,18.87001941796875,17.3129044140625,18.74833841796875,17.2334654140625,18.60949941796875C17.154145414062498,18.47053941796875,17.1032644140625,18.31717841796875,17.0840654140625,18.15841841796875C17.0648654140625,17.99953841796875,17.0775854140625,17.83849941796875,17.1215054140625,17.68466041796875C17.1654244140625,17.53081941796875,17.2395854140625,17.38730041796875,17.3397844140625,17.26261941796875C17.439985414062498,17.137938417968748,17.564065414062497,17.03449941796875,17.7048244140625,16.95841841796875C17.7048244140625,16.95841841796875,19.2000254140625,16.10401841796875,19.2000254140625,16.10401841796875C19.2000254140625,16.10401841796875,19.2000254140625,14.40001841796875,19.2000254140625,14.40001841796875C19.2000254140625,14.08177841796875,19.3265054140625,13.77649841796875,19.5515064140625,13.55149841796875C19.7765044140625,13.32637841796875,20.0817854140625,13.19999441796875,20.4000244140625,13.19999441796875C20.4000244140625,13.19999441796875,20.4000244140625,13.19999441796875,20.4000244140625,13.19999441796875ZM8.8584246140625,19.80481941796875C9.016356514062501,19.52857941796875,9.2774768140625,19.32649841796875,9.5844126140625,19.24273841796875C9.8913488140625,19.15897941796875,10.2189607140625,19.20061841796875,10.4952364140625,19.35841941796875C10.4952364140625,19.35841941796875,10.8000250140625,19.53241941796875,10.8000250140625,19.53241941796875C10.8000250140625,19.53241941796875,10.8000250140625,19.20001841796875,10.8000250140625,19.20001841796875C10.8000250140625,18.88177841796875,10.9264564140625,18.57649841796875,11.1515045140625,18.35149941796875C11.3765411140625,18.12637941796875,11.6817722140625,18.00001941796875,12.0000248140625,18.00001941796875C12.3182888140625,18.00001941796875,12.6235204140625,18.12637941796875,12.8485574140625,18.35149941796875C13.0736054140625,18.57649841796875,13.2000244140625,18.88177841796875,13.2000244140625,19.20001841796875C13.2000244140625,19.20001841796875,13.2000244140625,19.53241941796875,13.2000244140625,19.53241941796875C13.2000244140625,19.53241941796875,13.5048244140625,19.35841941796875,13.5048244140625,19.35841941796875C13.6418174140625,19.27573941796875,13.7939284140625,19.22137841796875,13.9522444140625,19.19833941796875C14.1105604140625,19.17541841796875,14.2718774140625,19.18429941796875,14.4266644140625,19.22449841796875C14.5815854140625,19.26482041796875,14.7267844140625,19.33561941796875,14.8538644140625,19.43281941796875C14.9808254140625,19.53001941796875,15.0872644140625,19.65157841796875,15.1665854140625,19.79053841796875C15.2459054140625,19.92937841796875,15.2967854140625,20.08285941796875,15.3159844140625,20.24161941796875C15.3351854140625,20.40037941796875,15.3224654140625,20.56153841796875,15.2785444140625,20.71537941796875C15.2346254140625,20.86909841796875,15.1604654140625,21.01261941796875,15.0602654140625,21.13742041796875C14.9600644140625,21.26209841796875,14.8359854140625,21.36553941796875,14.6952254140625,21.44161941796875C14.6952254140625,21.44161941796875,12.6132244140625,22.63201941796875,12.6132244140625,22.63201941796875C12.4279204140625,22.74290041796875,12.2160015140625,22.80146041796875,12.0000248140625,22.80146041796875C11.7840614140625,22.80146041796875,11.5721407140625,22.74290041796875,11.3868370140625,22.63201941796875C11.3868370140625,22.63201941796875,9.3048248140625,21.44161941796875,9.3048248140625,21.44161941796875C9.0286445140625,21.28369941796875,8.8264809140625,21.02257941796875,8.7427688140625,20.71561841796875C8.6590686140625,20.40866041796875,8.7006602140625,20.08105841796875,8.8584246140625,19.80481941796875C8.8584246140625,19.80481941796875,8.8584246140625,19.80481941796875,8.8584246140625,19.80481941796875C8.8584246140625,19.80481941796875,8.8584246140625,19.80481941796875,8.8584246140625,19.80481941796875Z" fill-rule="evenodd" fill="#0A0A28" fill-opacity="1"/></g></svg>