<svg xmlns="http://www.w3.org/2000/svg" xmlns:xlink="http://www.w3.org/1999/xlink" fill="none" version="1.1" width="24" height="24" viewBox="0 0 24 24"><defs><clipPath id="master_svg0_3_1526"><rect x="0" y="0" width="24" height="24" rx="0"/></clipPath></defs><g clip-path="url(#master_svg0_3_1526)"><path d="M13.1999759859375,20.400035765625C13.2000836859375,20.604514765625,13.2524404859375,20.805515765625,13.3520640859375,20.984075765625C13.4517001859375,21.162635765625,13.5953044859375,21.312755765625,13.7692445859375,21.420274765625C13.9431965859375,21.527675765625,14.1417235859375,21.588994765625,14.3459885859375,21.598115765625C14.5502515859375,21.607354765625,14.7534725859375,21.564155765625,14.9363755859375,21.472835765625C14.9363755859375,21.472835765625,19.7363755859375,19.072835765625,19.7363755859375,19.072835765625C19.9356955859375,18.973235765625,20.1033365859375,18.820115765625,20.2204565859375,18.630634765625C20.3376955859375,18.441154765625,20.3998565859375,18.222754765624998,20.3999765859375,18.000035765625C20.3999765859375,18.000035765625,20.3999765859375,11.083198565625,20.3999765859375,11.083198565625C20.3998565859375,10.878719365625,20.3475365859375,10.677671465625,20.2479365859375,10.499123565625C20.1482165859375,10.320562865625,20.0046955859375,10.170431165625,19.8306965859375,10.062959165625C19.6566965859375,9.955487265624999,19.4582165859375,9.894250865625,19.2539755859375,9.885046965625001C19.049735585937498,9.875854965624999,18.8464565859375,9.918994865624999,18.6635765859375,10.010398865625C18.6635765859375,10.010398865625,13.8635765859375,12.410398765625,13.8635765859375,12.410398765625C13.6642795859375,12.509987765625,13.4966401859375,12.663082765625,13.3794364859375,12.852562765625C13.2622317859375,13.042042765625,13.2000960859375,13.260394765625,13.1999759859375,13.483198765625C13.1999759859375,13.483198765625,13.1999759859375,20.400035765625,13.1999759859375,20.400035765625C13.1999759859375,20.400035765625,13.1999759859375,20.400035765625,13.1999759859375,20.400035765625ZM18.2531765859375,7.531198465625C18.452256585937498,7.431430865625,18.6196565859375,7.278251165625,18.7365355859375,7.088782765625C18.8535355859375,6.899326765625,18.9154565859375,6.681058865625,18.9154565859375,6.458398865625C18.9154565859375,6.235738965625,18.8535355859375,6.017470865625,18.7365355859375,5.828002665625C18.6196565859375,5.638546965625,18.452256585937498,5.485354865625,18.2531765859375,5.385598665625C18.2531765859375,5.385598665625,12.5363759859375,2.527193975625,12.5363759859375,2.527193975625C12.3698157859375,2.443963646625,12.1861676859375,2.4006347656250004,11.9999761859375,2.400634765625C11.8137836859375,2.4006347656250004,11.6301364859375,2.443963646625,11.4635758859375,2.527193975625C11.4635758859375,2.527193975625,5.7467755859375,5.385598665625,5.7467755859375,5.385598665625C5.5477195859375,5.485354865625,5.3803435859375,5.638546965625,5.2633796859375,5.828002665625C5.1464036859375,6.017470865625,5.0844595859375,6.235738965625,5.0844595859375,6.458398865625C5.0844595859375,6.681058865625,5.1464036859375,6.899326765625,5.2633796859375,7.088782765625C5.3803435859375,7.278251165625,5.5477195859375,7.431430865625,5.7467755859375,7.531198465625C5.7467755859375,7.531198465625,11.4635758859375,10.389599365625,11.4635758859375,10.389599365625C11.6301364859375,10.472819365625,11.8137836859375,10.516151465625,11.9999761859375,10.516151465625C12.1861676859375,10.516151465625,12.3698157859375,10.472819365625,12.5363759859375,10.389599365625C12.5363759859375,10.389599365625,18.2531765859375,7.531198465625,18.2531765859375,7.531198465625C18.2531765859375,7.531198465625,18.2531765859375,7.531198465625,18.2531765859375,7.531198465625C18.2531765859375,7.531198465625,18.2531765859375,7.531198465625,18.2531765859375,7.531198465625ZM5.3363756859375,10.010398865625C5.1534715859375,9.918994865624999,4.9502395859375,9.875854965624999,4.7459828859375,9.885046965625001C4.5417200359375,9.894250865625,4.3431968659375,9.955487265624999,4.1692484059375,10.062959165625C3.9953012159375,10.170431165625,3.8516983959375,10.320562865625,3.7520683959375,10.499123565625C3.6524382679375,10.677671465625,3.6000847492175,10.878719365625,3.5999755859375,11.083198565625C3.5999755859375,11.083198565625,3.5999755859375,18.000035765625,3.5999755859375,18.000035765625C3.6000945642675,18.222754765624998,3.6622353089375,18.441154765625,3.7794379859375,18.630634765625C3.8966419959375,18.820115765625,4.0642783959375,18.973235765625,4.2635755559375,19.072835765625C4.2635755559375,19.072835765625,9.0635757859375,21.472835765625,9.0635757859375,21.472835765625C9.246479985937501,21.564155765625,9.4496998859375,21.607354765625,9.653964085937499,21.598115765625C9.8582276859375,21.588994765625,10.0567559859375,21.527675765625,10.2307076859375,21.420274765625C10.404647785937499,21.312755765625,10.5482515859375,21.162635765625,10.6478876859375,20.984075765625C10.747512385937501,20.805515765625,10.7998675859375,20.604514765625,10.7999758859375,20.400035765625C10.7999758859375,20.400035765625,10.7999758859375,13.483198765625,10.7999758859375,13.483198765625C10.7998556859375,13.260394765625,10.737719985937499,13.042042765625,10.6205157859375,12.852562765625C10.5033115859375,12.663082765625,10.3356718859375,12.509987765625,10.1363758859375,12.410398765625C10.1363758859375,12.410398765625,5.3363756859375,10.010398865625,5.3363756859375,10.010398865625C5.3363756859375,10.010398865625,5.3363756859375,10.010398865625,5.3363756859375,10.010398865625C5.3363756859375,10.010398865625,5.3363756859375,10.010398865625,5.3363756859375,10.010398865625Z" fill="#0A0A28" fill-opacity="1"/></g></svg>