<svg xmlns="http://www.w3.org/2000/svg" xmlns:xlink="http://www.w3.org/1999/xlink" fill="none" version="1.1" width="24" height="24" viewBox="0 0 24 24"><defs><clipPath id="master_svg0_3_2047"><rect x="0" y="0" width="24" height="24" rx="0"/></clipPath></defs><g clip-path="url(#master_svg0_3_2047)"><path d="M14.4472,10.8944302C14.9412,10.64744,15.1414,10.0467601,14.8944,9.5527902C14.6474,9.0588102,14.0468,8.858580100000001,13.5527897,9.1055698C13.5527897,9.1055698,14.4472,10.8944302,14.4472,10.8944302C14.4472,10.8944302,14.4472,10.8944302,14.4472,10.8944302ZM10.4472098,9.1055698C9.9532399,8.858580100000001,9.35256,9.0588102,9.1055698,9.5527902C8.858580100000001,10.0467601,9.0588102,10.64744,9.5527902,10.8944302C9.5527902,10.8944302,10.4472098,9.1055698,10.4472098,9.1055698C10.4472098,9.1055698,10.4472098,9.1055698,10.4472098,9.1055698ZM11,13.5C11,14.0523,11.4477201,14.5,12,14.5C12.55229,14.5,13,14.0523,13,13.5C13,13.5,11,13.5,11,13.5C11,13.5,11,13.5,11,13.5ZM20,7C20,7,21,7,21,7C21,6.6212298999999994,20.785999,6.27496,20.447201,6.1055701C20.447201,6.1055701,20,7,20,7C20,7,20,7,20,7ZM17.552799999999998,7.1055698C17.058799999999998,7.35256,16.8586,7.9532399,17.105600000000003,8.4472098C17.352600000000002,8.9411898,17.953200000000002,9.141419899999999,18.447200000000002,8.8944302C18.447200000000002,8.8944302,17.552799999999998,7.1055698,17.552799999999998,7.1055698C17.552799999999998,7.1055698,17.552799999999998,7.1055698,17.552799999999998,7.1055698ZM18.447200000000002,5.1055701C17.953200000000002,4.85858,17.352600000000002,5.058809999999999,17.105600000000003,5.5527899000000005C16.8586,6.0467601,17.058799999999998,6.64744,17.552799999999998,6.8944299C17.552799999999998,6.8944299,18.447200000000002,5.1055701,18.447200000000002,5.1055701C18.447200000000002,5.1055701,18.447200000000002,5.1055701,18.447200000000002,5.1055701ZM19,9.5C19,10.0522799,19.447699999999998,10.5,20,10.5C20.552299,10.5,21,10.0522799,21,9.5C21,9.5,19,9.5,19,9.5C19,9.5,19,9.5,19,9.5ZM13.5527897,4.89443C14.0468,5.1414199,14.6474,4.94119,14.8944,4.44721C15.1414,3.95323497,14.9412,3.3525620099999998,14.4472,3.105573C14.4472,3.105573,13.5527897,4.89443,13.5527897,4.89443C13.5527897,4.89443,13.5527897,4.89443,13.5527897,4.89443ZM12,3C12,3,12.4472103,2.105573,12.4472103,2.105573C12.1656904,1.96481,11.8343101,1.96481,11.5527902,2.105573C11.5527902,2.105573,12,3,12,3C12,3,12,3,12,3ZM9.5527902,3.105573C9.0588102,3.3525620099999998,8.858580100000001,3.95323497,9.1055698,4.44721C9.35256,4.94119,9.9532399,5.1414199,10.4472098,4.89443C10.4472098,4.89443,9.5527902,3.105573,9.5527902,3.105573C9.5527902,3.105573,9.5527902,3.105573,9.5527902,3.105573ZM4,7C4,7,3.55278599,6.1055701,3.55278599,6.1055701C3.2140020099999997,6.27496,3,6.6212298999999994,3,7C3,7,4,7,4,7C4,7,4,7,4,7ZM6.4472100999999995,6.8944299C6.941190000000001,6.64744,7.1414199,6.0467601,6.8944299,5.5527899000000005C6.64744,5.058809999999999,6.0467601,4.85858,5.55279,5.1055701C5.55279,5.1055701,6.4472100999999995,6.8944299,6.4472100999999995,6.8944299C6.4472100999999995,6.8944299,6.4472100999999995,6.8944299,6.4472100999999995,6.8944299ZM5.55279,8.8944302C6.0467601,9.141419899999999,6.64744,8.9411898,6.8944299,8.4472098C7.1414199,7.9532399,6.941190000000001,7.35256,6.4472100999999995,7.1055698C6.4472100999999995,7.1055698,5.55279,8.8944302,5.55279,8.8944302C5.55279,8.8944302,5.55279,8.8944302,5.55279,8.8944302ZM3,9.5C3,10.0522799,3.4477149799999998,10.5,4,10.5C4.55228502,10.5,5,10.0522799,5,9.5C5,9.5,3,9.5,3,9.5C3,9.5,3,9.5,3,9.5ZM12,21C12,21,11.5527902,21.8944,11.5527902,21.8944C11.8343101,22.0352,12.1656904,22.0352,12.4472103,21.8944C12.4472103,21.8944,12,21,12,21C12,21,12,21,12,21ZM10.4472098,19.1056C9.9532399,18.8586,9.35256,19.0588,9.1055698,19.552799C8.858580100000001,20.046801,9.0588102,20.6474,9.5527902,20.8944C9.5527902,20.8944,10.4472098,19.1056,10.4472098,19.1056C10.4472098,19.1056,10.4472098,19.1056,10.4472098,19.1056ZM14.4472,20.8944C14.9412,20.6474,15.1414,20.046801,14.8944,19.552799C14.6474,19.0588,14.0468,18.8586,13.5527897,19.1056C13.5527897,19.1056,14.4472,20.8944,14.4472,20.8944C14.4472,20.8944,14.4472,20.8944,14.4472,20.8944ZM13,18.5C13,17.947699999999998,12.55229,17.5,12,17.5C11.4477201,17.5,11,17.947699999999998,11,18.5C11,18.5,13,18.5,13,18.5C13,18.5,13,18.5,13,18.5ZM5.55279,18.894399999999997C6.0467601,19.141399,6.64744,18.941200000000002,6.8944299,18.447200000000002C7.1414199,17.953200000000002,6.941190000000001,17.352600000000002,6.4472100999999995,17.105600000000003C6.4472100999999995,17.105600000000003,5.55279,18.894399999999997,5.55279,18.894399999999997C5.55279,18.894399999999997,5.55279,18.894399999999997,5.55279,18.894399999999997ZM4,17C4,17,3,17,3,17C3,17.3788,3.2140020099999997,17.725,3.55278599,17.894399999999997C3.55278599,17.894399999999997,4,17,4,17C4,17,4,17,4,17ZM5,14.5C5,13.9477,4.55228502,13.5,4,13.5C3.4477149799999998,13.5,3,13.9477,3,14.5C3,14.5,5,14.5,5,14.5C5,14.5,5,14.5,5,14.5ZM17.552799999999998,17.105600000000003C17.058799999999998,17.352600000000002,16.8586,17.953200000000002,17.105600000000003,18.447200000000002C17.352600000000002,18.941200000000002,17.953200000000002,19.141399,18.447200000000002,18.894399999999997C18.447200000000002,18.894399999999997,17.552799999999998,17.105600000000003,17.552799999999998,17.105600000000003C17.552799999999998,17.105600000000003,17.552799999999998,17.105600000000003,17.552799999999998,17.105600000000003ZM20,17C20,17,20.447201,17.894399999999997,20.447201,17.894399999999997C20.785999,17.725,21,17.3788,21,17C21,17,20,17,20,17C20,17,20,17,20,17ZM21,14.5C21,13.9477,20.552299,13.5,20,13.5C19.447699999999998,13.5,19,13.9477,19,14.5C19,14.5,21,14.5,21,14.5C21,14.5,21,14.5,21,14.5ZM13.5527897,9.1055698C13.5527897,9.1055698,11.5527902,10.1055698,11.5527902,10.1055698C11.5527902,10.1055698,12.4472103,11.8944302,12.4472103,11.8944302C12.4472103,11.8944302,14.4472,10.8944302,14.4472,10.8944302C14.4472,10.8944302,13.5527897,9.1055698,13.5527897,9.1055698C13.5527897,9.1055698,13.5527897,9.1055698,13.5527897,9.1055698ZM12.4472103,10.1055698C12.4472103,10.1055698,10.4472098,9.1055698,10.4472098,9.1055698C10.4472098,9.1055698,9.5527902,10.8944302,9.5527902,10.8944302C9.5527902,10.8944302,11.5527902,11.8944302,11.5527902,11.8944302C11.5527902,11.8944302,12.4472103,10.1055698,12.4472103,10.1055698C12.4472103,10.1055698,12.4472103,10.1055698,12.4472103,10.1055698ZM11,11C11,11,11,13.5,11,13.5C11,13.5,13,13.5,13,13.5C13,13.5,13,11,13,11C13,11,11,11,11,11C11,11,11,11,11,11ZM19.552799999999998,6.1055701C19.552799999999998,6.1055701,17.552799999999998,7.1055698,17.552799999999998,7.1055698C17.552799999999998,7.1055698,18.447200000000002,8.8944302,18.447200000000002,8.8944302C18.447200000000002,8.8944302,20.447201,7.8944302,20.447201,7.8944302C20.447201,7.8944302,19.552799999999998,6.1055701,19.552799999999998,6.1055701C19.552799999999998,6.1055701,19.552799999999998,6.1055701,19.552799999999998,6.1055701ZM20.447201,6.1055701C20.447201,6.1055701,18.447200000000002,5.1055701,18.447200000000002,5.1055701C18.447200000000002,5.1055701,17.552799999999998,6.8944299,17.552799999999998,6.8944299C17.552799999999998,6.8944299,19.552799999999998,7.8944302,19.552799999999998,7.8944302C19.552799999999998,7.8944302,20.447201,6.1055701,20.447201,6.1055701C20.447201,6.1055701,20.447201,6.1055701,20.447201,6.1055701ZM19,7C19,7,19,9.5,19,9.5C19,9.5,21,9.5,21,9.5C21,9.5,21,7,21,7C21,7,19,7,19,7C19,7,19,7,19,7ZM14.4472,3.105573C14.4472,3.105573,12.4472103,2.105573,12.4472103,2.105573C12.4472103,2.105573,11.5527902,3.894427,11.5527902,3.894427C11.5527902,3.894427,13.5527897,4.89443,13.5527897,4.89443C13.5527897,4.89443,14.4472,3.105573,14.4472,3.105573C14.4472,3.105573,14.4472,3.105573,14.4472,3.105573ZM11.5527902,2.105573C11.5527902,2.105573,9.5527902,3.105573,9.5527902,3.105573C9.5527902,3.105573,10.4472098,4.89443,10.4472098,4.89443C10.4472098,4.89443,12.4472103,3.894427,12.4472103,3.894427C12.4472103,3.894427,11.5527902,2.105573,11.5527902,2.105573C11.5527902,2.105573,11.5527902,2.105573,11.5527902,2.105573ZM4.44721401,7.8944302C4.44721401,7.8944302,6.4472100999999995,6.8944299,6.4472100999999995,6.8944299C6.4472100999999995,6.8944299,5.55279,5.1055701,5.55279,5.1055701C5.55279,5.1055701,3.55278599,6.1055701,3.55278599,6.1055701C3.55278599,6.1055701,4.44721401,7.8944302,4.44721401,7.8944302C4.44721401,7.8944302,4.44721401,7.8944302,4.44721401,7.8944302ZM3.55278599,7.8944302C3.55278599,7.8944302,5.55279,8.8944302,5.55279,8.8944302C5.55279,8.8944302,6.4472100999999995,7.1055698,6.4472100999999995,7.1055698C6.4472100999999995,7.1055698,4.44721401,6.1055701,4.44721401,6.1055701C4.44721401,6.1055701,3.55278599,7.8944302,3.55278599,7.8944302C3.55278599,7.8944302,3.55278599,7.8944302,3.55278599,7.8944302ZM3,7C3,7,3,9.5,3,9.5C3,9.5,5,9.5,5,9.5C5,9.5,5,7,5,7C5,7,3,7,3,7C3,7,3,7,3,7ZM12.4472103,20.1056C12.4472103,20.1056,10.4472098,19.1056,10.4472098,19.1056C10.4472098,19.1056,9.5527902,20.8944,9.5527902,20.8944C9.5527902,20.8944,11.5527902,21.8944,11.5527902,21.8944C11.5527902,21.8944,12.4472103,20.1056,12.4472103,20.1056C12.4472103,20.1056,12.4472103,20.1056,12.4472103,20.1056ZM12.4472103,21.8944C12.4472103,21.8944,14.4472,20.8944,14.4472,20.8944C14.4472,20.8944,13.5527897,19.1056,13.5527897,19.1056C13.5527897,19.1056,11.5527902,20.1056,11.5527902,20.1056C11.5527902,20.1056,12.4472103,21.8944,12.4472103,21.8944C12.4472103,21.8944,12.4472103,21.8944,12.4472103,21.8944ZM13,21C13,21,13,18.5,13,18.5C13,18.5,11,18.5,11,18.5C11,18.5,11,21,11,21C11,21,13,21,13,21C13,21,13,21,13,21ZM6.4472100999999995,17.105600000000003C6.4472100999999995,17.105600000000003,4.44721401,16.105600000000003,4.44721401,16.105600000000003C4.44721401,16.105600000000003,3.55278599,17.894399999999997,3.55278599,17.894399999999997C3.55278599,17.894399999999997,5.55279,18.894399999999997,5.55279,18.894399999999997C5.55279,18.894399999999997,6.4472100999999995,17.105600000000003,6.4472100999999995,17.105600000000003C6.4472100999999995,17.105600000000003,6.4472100999999995,17.105600000000003,6.4472100999999995,17.105600000000003ZM5,17C5,17,5,14.5,5,14.5C5,14.5,3,14.5,3,14.5C3,14.5,3,17,3,17C3,17,5,17,5,17C5,17,5,17,5,17ZM18.447200000000002,18.894399999999997C18.447200000000002,18.894399999999997,20.447201,17.894399999999997,20.447201,17.894399999999997C20.447201,17.894399999999997,19.552799999999998,16.105600000000003,19.552799999999998,16.105600000000003C19.552799999999998,16.105600000000003,17.552799999999998,17.105600000000003,17.552799999999998,17.105600000000003C17.552799999999998,17.105600000000003,18.447200000000002,18.894399999999997,18.447200000000002,18.894399999999997C18.447200000000002,18.894399999999997,18.447200000000002,18.894399999999997,18.447200000000002,18.894399999999997ZM21,17C21,17,21,14.5,21,14.5C21,14.5,19,14.5,19,14.5C19,14.5,19,17,19,17C19,17,21,17,21,17C21,17,21,17,21,17Z" fill="#0A0A28" fill-opacity="1"/></g></svg>