<svg xmlns="http://www.w3.org/2000/svg" xmlns:xlink="http://www.w3.org/1999/xlink" fill="none" version="1.1" width="24" height="24" viewBox="0 0 24 24"><defs><clipPath id="master_svg0_3_2013"><rect x="0" y="0" width="24" height="24" rx="0"/></clipPath></defs><g clip-path="url(#master_svg0_3_2013)"><path d="M20,7C20,7,21,7,21,7C21,6.6212298999999994,20.785999,6.27496,20.447201,6.1055701C20.447201,6.1055701,20,7,20,7C20,7,20,7,20,7ZM12,3C12,3,12.4472103,2.105573,12.4472103,2.105573C12.1656904,1.96481,11.8343101,1.96481,11.5527902,2.105573C11.5527902,2.105573,12,3,12,3C12,3,12,3,12,3ZM4,7C4,7,3.55278599,6.1055701,3.55278599,6.1055701C3.2140020099999997,6.27496,3,6.6212298999999994,3,7C3,7,4,7,4,7C4,7,4,7,4,7ZM20,17C20,17,20.447201,17.894399999999997,20.447201,17.894399999999997C20.785999,17.725,21,17.3788,21,17C21,17,20,17,20,17C20,17,20,17,20,17ZM12,21C12,21,11.5527902,21.8944,11.5527902,21.8944C11.8343101,22.0352,12.1656904,22.0352,12.4472103,21.8944C12.4472103,21.8944,12,21,12,21C12,21,12,21,12,21ZM4,17C4,17,3,17,3,17C3,17.3788,3.2140020099999997,17.725,3.55278599,17.894399999999997C3.55278599,17.894399999999997,4,17,4,17C4,17,4,17,4,17ZM20.447201,6.1055701C20.447201,6.1055701,12.4472103,2.105573,12.4472103,2.105573C12.4472103,2.105573,11.5527902,3.894427,11.5527902,3.894427C11.5527902,3.894427,19.552799999999998,7.8944302,19.552799999999998,7.8944302C19.552799999999998,7.8944302,20.447201,6.1055701,20.447201,6.1055701C20.447201,6.1055701,20.447201,6.1055701,20.447201,6.1055701ZM11.5527902,2.105573C11.5527902,2.105573,3.55278599,6.1055701,3.55278599,6.1055701C3.55278599,6.1055701,4.44721401,7.8944302,4.44721401,7.8944302C4.44721401,7.8944302,12.4472103,3.894427,12.4472103,3.894427C12.4472103,3.894427,11.5527902,2.105573,11.5527902,2.105573C11.5527902,2.105573,11.5527902,2.105573,11.5527902,2.105573ZM19.552799999999998,6.1055701C19.552799999999998,6.1055701,11.5527902,10.1055698,11.5527902,10.1055698C11.5527902,10.1055698,12.4472103,11.8944302,12.4472103,11.8944302C12.4472103,11.8944302,20.447201,7.8944302,20.447201,7.8944302C20.447201,7.8944302,19.552799999999998,6.1055701,19.552799999999998,6.1055701C19.552799999999998,6.1055701,19.552799999999998,6.1055701,19.552799999999998,6.1055701ZM19,7C19,7,19,17,19,17C19,17,21,17,21,17C21,17,21,7,21,7C21,7,19,7,19,7C19,7,19,7,19,7ZM19.552799999999998,16.105600000000003C19.552799999999998,16.105600000000003,11.5527902,20.1056,11.5527902,20.1056C11.5527902,20.1056,12.4472103,21.8944,12.4472103,21.8944C12.4472103,21.8944,20.447201,17.894399999999997,20.447201,17.894399999999997C20.447201,17.894399999999997,19.552799999999998,16.105600000000003,19.552799999999998,16.105600000000003C19.552799999999998,16.105600000000003,19.552799999999998,16.105600000000003,19.552799999999998,16.105600000000003ZM12.4472103,10.1055698C12.4472103,10.1055698,4.44721401,6.1055701,4.44721401,6.1055701C4.44721401,6.1055701,3.55278599,7.8944302,3.55278599,7.8944302C3.55278599,7.8944302,11.5527902,11.8944302,11.5527902,11.8944302C11.5527902,11.8944302,12.4472103,10.1055698,12.4472103,10.1055698C12.4472103,10.1055698,12.4472103,10.1055698,12.4472103,10.1055698ZM11,11C11,11,11,21,11,21C11,21,13,21,13,21C13,21,13,11,13,11C13,11,11,11,11,11C11,11,11,11,11,11ZM3,7C3,7,3,17,3,17C3,17,5,17,5,17C5,17,5,7,5,7C5,7,3,7,3,7C3,7,3,7,3,7ZM3.55278599,17.894399999999997C3.55278599,17.894399999999997,11.5527902,21.8944,11.5527902,21.8944C11.5527902,21.8944,12.4472103,20.1056,12.4472103,20.1056C12.4472103,20.1056,4.44721401,16.105600000000003,4.44721401,16.105600000000003C4.44721401,16.105600000000003,3.55278599,17.894399999999997,3.55278599,17.894399999999997C3.55278599,17.894399999999997,3.55278599,17.894399999999997,3.55278599,17.894399999999997Z" fill="#0A0A28" fill-opacity="1"/></g></svg>