<svg xmlns="http://www.w3.org/2000/svg" xmlns:xlink="http://www.w3.org/1999/xlink" fill="none" version="1.1" width="24" height="24" viewBox="0 0 24 24"><defs><clipPath id="master_svg0_3_1506"><rect x="0" y="0" width="24" height="24" rx="0"/></clipPath></defs><g clip-path="url(#master_svg0_3_1506)"><path d="M11.999994296484376,21.6000254140625C14.546034896484375,21.6000254140625,16.987913896484375,20.5885444140625,18.788274896484374,18.7883054140625C20.588513896484375,16.9879444140625,21.599994896484375,14.5460654140625,21.599994896484375,12.0000248140625C21.599994896484375,9.4539490140625,20.588513896484375,7.0121527140625,18.788274896484374,5.211804414062501C16.987913896484375,3.4114504140625,14.546034896484375,2.4000244140625013,11.999994296484376,2.4000244140625C9.453918496484375,2.4000244140625018,7.012122196484375,3.4114504140625,5.211773896484376,5.211804414062501C3.411419896484375,7.0121527140625,2.399993896484377,9.4539490140625,2.399993896484375,12.0000248140625C2.3999938964843768,14.5460654140625,3.411419896484375,16.9879444140625,5.211773896484376,18.7883054140625C7.012122196484375,20.5885444140625,9.453918496484375,21.6000254140625,11.999994296484376,21.6000254140625C11.999994296484376,21.6000254140625,11.999994296484376,21.6000254140625,11.999994296484376,21.6000254140625C11.999994296484376,21.6000254140625,11.999994296484376,21.6000254140625,11.999994296484376,21.6000254140625ZM8.399993896484375,6.0000245140625C8.081729896484376,6.0000245140625,7.776510196484375,6.1264565140625,7.551462196484375,6.3514926140625C7.326425996484375,6.5765405140625,7.199994096484375,6.8817606140625,7.199994096484375,7.2000246140625C7.199994096484375,7.5182886140625,7.326425996484375,7.8235082140625,7.551462196484375,8.0485563140625C7.776510196484375,8.2735925140625,8.081729896484376,8.4000244140625,8.399993896484375,8.4000244140625C8.399993896484375,8.4000244140625,9.599994196484374,8.4000244140625,9.599994196484374,8.4000244140625C10.021265996484374,8.4000368140625,10.435122496484375,8.5109410140625,10.799958196484376,8.7215767140625C11.164793996484375,8.9322247140625,11.467758196484375,9.235188914062501,11.678394296484376,9.6000247140625C11.678394296484376,9.6000247140625,8.399993896484375,9.6000247140625,8.399993896484375,9.6000247140625C8.081729896484376,9.6000247140625,7.776510196484375,9.7264566140625,7.551462196484375,9.951492814062501C7.326425996484375,10.1765408140625,7.199994096484375,10.4817610140625,7.199994096484375,10.8000250140625C7.199994096484375,11.1182890140625,7.326425996484375,11.4235086140625,7.551462196484375,11.6485567140625C7.776510196484375,11.8735924140625,8.081729896484376,12.0000248140625,8.399993896484375,12.0000248140625C8.399993896484375,12.0000248140625,11.678394296484376,12.0000248140625,11.678394296484376,12.0000248140625C11.467758196484375,12.3648615140625,11.164793996484375,12.6678254140625,10.799958196484376,12.8784734140625C10.435122496484375,13.0891084140625,10.021265996484374,13.2000134140625,9.599994196484374,13.2000244140625C9.599994196484374,13.2000244140625,8.399993896484375,13.2000244140625,8.399993896484375,13.2000244140625C8.162693996484375,13.2000734140625,7.930734196484375,13.2704774140625,7.733442296484375,13.4023444140625C7.536149996484375,13.5342004140625,7.382381896484375,13.7216054140625,7.291578296484375,13.9408444140625C7.200774196484375,14.1600844140625,7.177013896484375,14.4013444140625,7.223298096484375,14.6340244140625C7.269570396484375,14.8668254140625,7.383822396484375,15.0805444140625,7.551594296484375,15.2484244140625C7.551594296484375,15.2484244140625,11.151594196484375,18.8484244140625,11.151594196484375,18.8484244140625C11.377914396484375,19.0670664140625,11.681034096484375,19.1880244140625,11.995674096484375,19.1852664140625C12.310314196484375,19.1825044140625,12.611285896484375,19.0562644140625,12.833777896484374,18.8337864140625C13.056270896484374,18.6113054140625,13.182473896484375,18.3103454140625,13.185197896484375,17.9957044140625C13.187934896484375,17.6810644140625,13.066985896484375,17.377945414062502,12.848393896484374,17.1516254140625C12.848393896484374,17.1516254140625,11.068794296484375,15.3708244140625,11.068794296484375,15.3708244140625C11.839841796484375,15.1223054140625,12.535601896484375,14.6829844140625,13.091525896484375,14.0936654140625C13.647450896484376,13.5043924140625,14.045526896484375,12.7842364140625,14.248793896484376,12.0000248140625C14.248793896484376,12.0000248140625,15.599994896484375,12.0000248140625,15.599994896484375,12.0000248140625C15.918233896484375,12.0000248140625,16.223514896484375,11.8735924140625,16.448513896484375,11.6485567140625C16.673513896484373,11.4235086140625,16.799994896484375,11.1182890140625,16.799994896484375,10.8000250140625C16.799994896484375,10.4817610140625,16.673513896484373,10.1765408140625,16.448513896484375,9.951492814062501C16.223514896484375,9.7264566140625,15.918233896484375,9.6000247140625,15.599994896484375,9.6000247140625C15.599994896484375,9.6000247140625,14.248793896484376,9.6000247140625,14.248793896484376,9.6000247140625C14.140182896484376,9.1794968140625,13.974653896484375,8.775768714062501,13.756793896484375,8.4000244140625C13.756793896484375,8.4000244140625,15.599994896484375,8.4000244140625,15.599994896484375,8.4000244140625C15.918233896484375,8.4000244140625,16.223514896484375,8.2735925140625,16.448513896484375,8.0485563140625C16.673513896484373,7.8235082140625,16.799994896484375,7.5182886140625,16.799994896484375,7.2000246140625C16.799994896484375,6.8817606140625,16.673513896484373,6.5765405140625,16.448513896484375,6.3514926140625C16.223514896484375,6.1264565140625,15.918233896484375,6.0000245140625,15.599994896484375,6.0000245140625C15.599994896484375,6.0000245140625,8.399993896484375,6.0000245140625,8.399993896484375,6.0000245140625C8.399993896484375,6.0000245140625,8.399993896484375,6.0000245140625,8.399993896484375,6.0000245140625Z" fill-rule="evenodd" fill="#0A0A28" fill-opacity="1"/></g></svg>