<svg xmlns="http://www.w3.org/2000/svg" xmlns:xlink="http://www.w3.org/1999/xlink" fill="none" version="1.1" width="24" height="24" viewBox="0 0 24 24"><defs><clipPath id="master_svg0_3_1703"><rect x="0" y="0" width="24" height="24" rx="0"/></clipPath></defs><g clip-path="url(#master_svg0_3_1703)"><path d="M11.999994296484376,21.6000254140625C14.546034896484375,21.6000254140625,16.987913896484375,20.5885444140625,18.788274896484374,18.7883054140625C20.588513896484375,16.9879444140625,21.599994896484375,14.5460654140625,21.599994896484375,12.0000248140625C21.599994896484375,9.4539490140625,20.588513896484375,7.0121527140625,18.788274896484374,5.211804414062501C16.987913896484375,3.4114504140625,14.546034896484375,2.4000244140625013,11.999994296484376,2.4000244140625C9.453918496484375,2.4000244140625018,7.012122196484375,3.4114504140625,5.211773896484376,5.211804414062501C3.411419896484375,7.0121527140625,2.399993896484377,9.4539490140625,2.399993896484375,12.0000248140625C2.3999938964843768,14.5460654140625,3.411419896484375,16.9879444140625,5.211773896484376,18.7883054140625C7.012122196484375,20.5885444140625,9.453918496484375,21.6000254140625,11.999994296484376,21.6000254140625C11.999994296484376,21.6000254140625,11.999994296484376,21.6000254140625,11.999994296484376,21.6000254140625C11.999994296484376,21.6000254140625,11.999994296484376,21.6000254140625,11.999994296484376,21.6000254140625ZM13.199993896484376,4.8000245140625C12.245214496484374,4.8000245140625,11.329542196484375,5.1793086140625,10.654410396484375,5.8544404140625C9.979278096484375,6.5295725140625,9.599994196484374,7.4452448140625,9.599994196484374,8.4000244140625C9.599994196484374,8.4000244140625,9.599994196484374,10.8000250140625,9.599994196484374,10.8000250140625C9.599994196484374,10.8000250140625,8.399993896484375,10.8000250140625,8.399993896484375,10.8000250140625C8.081729896484376,10.8000250140625,7.776510196484375,10.9264564140625,7.551462196484375,11.1514931140625C7.326425996484375,11.3765411140625,7.199994096484375,11.6817608140625,7.199994096484375,12.0000248140625C7.199994096484375,12.3182888140625,7.326425996484375,12.6235094140625,7.551462196484375,12.8485574140625C7.776510196484375,13.0735934140625,8.081729896484376,13.2000244140625,8.399993896484375,13.2000244140625C8.399993896484375,13.2000244140625,9.599994196484374,13.2000244140625,9.599994196484374,13.2000244140625C9.599994196484374,13.2000244140625,9.599994196484374,14.4000244140625,9.599994196484374,14.4000244140625C9.599994196484374,14.7182644140625,9.473562196484375,15.0235454140625,9.248526096484376,15.2485444140625C9.023477996484374,15.4735454140625,8.718258396484375,15.6000254140625,8.399993896484375,15.6000254140625C8.081729896484376,15.6000254140625,7.776510196484375,15.7265054140625,7.551462196484375,15.9515044140625C7.326425996484375,16.1765054140625,7.199994096484375,16.4817854140625,7.199994096484375,16.8000254140625C7.199994096484375,17.1182644140625,7.326425996484375,17.423544414062498,7.551462196484375,17.6485454140625C7.776510196484375,17.8735444140625,8.081729896484376,18.0000244140625,8.399993896484375,18.0000244140625C8.399993896484375,18.0000244140625,15.599994896484375,18.0000244140625,15.599994896484375,18.0000244140625C15.918233896484375,18.0000244140625,16.223514896484375,17.8735444140625,16.448513896484375,17.6485454140625C16.673513896484373,17.423544414062498,16.799994896484375,17.1182644140625,16.799994896484375,16.8000254140625C16.799994896484375,16.4817854140625,16.673513896484373,16.1765054140625,16.448513896484375,15.9515044140625C16.223514896484375,15.7265054140625,15.918233896484375,15.6000254140625,15.599994896484375,15.6000254140625C15.599994896484375,15.6000254140625,11.795993796484375,15.6000254140625,11.795993796484375,15.6000254140625C11.927994696484374,15.2244254140625,11.999994296484376,14.8200254140625,11.999994296484376,14.4000244140625C11.999994296484376,14.4000244140625,11.999994296484376,13.2000244140625,11.999994296484376,13.2000244140625C11.999994296484376,13.2000244140625,13.199993896484376,13.2000244140625,13.199993896484376,13.2000244140625C13.518257896484375,13.2000244140625,13.823478896484374,13.0735934140625,14.048526896484375,12.8485574140625C14.273562896484375,12.6235094140625,14.399993896484375,12.3182888140625,14.399993896484375,12.0000248140625C14.399993896484375,11.6817608140625,14.273562896484375,11.3765411140625,14.048526896484375,11.1514931140625C13.823478896484374,10.9264564140625,13.518257896484375,10.8000250140625,13.199993896484376,10.8000250140625C13.199993896484376,10.8000250140625,11.999994296484376,10.8000250140625,11.999994296484376,10.8000250140625C11.999994296484376,10.8000250140625,11.999994296484376,8.4000244140625,11.999994296484376,8.4000244140625C11.999994296484376,8.0817604140625,12.126426696484375,7.7765407140625,12.351461396484375,7.5514927140625C12.576509896484374,7.3264565140625,12.881730896484376,7.2000246140625,13.199993896484376,7.2000246140625C13.518257896484375,7.2000246140625,13.823478896484374,7.3264565140625,14.048526896484375,7.5514927140625C14.273562896484375,7.7765407140625,14.399993896484375,8.0817604140625,14.399993896484375,8.4000244140625C14.399993896484375,8.7182889140625,14.526474896484375,9.023508514062499,14.751473896484375,9.248556614062501C14.976474896484374,9.4735927140625,15.281754896484374,9.6000247140625,15.599994896484375,9.6000247140625C15.918233896484375,9.6000247140625,16.223514896484375,9.4735927140625,16.448513896484375,9.248556614062501C16.673513896484373,9.023508514062499,16.799994896484375,8.7182889140625,16.799994896484375,8.4000244140625C16.799994896484375,7.4452448140625,16.420673896484374,6.5295725140625,15.745553896484376,5.8544404140625C15.070433896484374,5.1793086140625,14.154773896484375,4.8000245140625,13.199993896484376,4.8000245140625C13.199993896484376,4.8000245140625,13.199993896484376,4.8000245140625,13.199993896484376,4.8000245140625C13.199993896484376,4.8000245140625,13.199993896484376,4.8000245140625,13.199993896484376,4.8000245140625Z" fill-rule="evenodd" fill="#0A0A28" fill-opacity="1"/></g></svg>