<svg xmlns="http://www.w3.org/2000/svg" xmlns:xlink="http://www.w3.org/1999/xlink" fill="none" version="1.1" width="24" height="24" viewBox="0 0 24 24"><defs><clipPath id="master_svg0_3_1483"><rect x="0" y="0" width="24" height="24" rx="0"/></clipPath></defs><g clip-path="url(#master_svg0_3_1483)"><path d="M10.1195756159375,8.9015767578125C10.3055756059375,8.7779767678125,10.5347756159375,8.6663767618125,10.7999755859375,8.5811767578125C10.7999755859375,8.5811767578125,10.7999755859375,10.6187767578125,10.7999755859375,10.6187767578125C10.5596468459375,10.5434527578125,10.3307300259375,10.4356568578125,10.1195756159375,10.2983767578125C9.6839751079375,10.0079767578125,9.5999755859375,9.736776857812501,9.5999755859375,9.5999767578125C9.5999755859375,9.4631767878125,9.6839751079375,9.1919767878125,10.1195756159375,8.9015767578125C10.1195756159375,8.9015767578125,10.1195756159375,8.9015767578125,10.1195756159375,8.9015767578125ZM13.199975685937499,15.4187769578125C13.199975685937499,15.4187769578125,13.199975685937499,13.3811769578125,13.199975685937499,13.3811769578125C13.4639756859375,13.4663772578125,13.694375485937499,13.5779771578125,13.8803758859375,13.701577157812501C14.3171758859375,13.9931774578125,14.3999757859375,14.263176957812501,14.3999757859375,14.3999767578125C14.3999757859375,14.5367765578125,14.315975685937499,14.8079771578125,13.8803758859375,15.098377257812501C13.6692237859375,15.2356572578125,13.4402997859375,15.343452957812499,13.199975685937499,15.4187769578125C13.199975685937499,15.4187769578125,13.199975685937499,15.4187769578125,13.199975685937499,15.4187769578125Z" fill="#0A0A28" fill-opacity="1"/><path d="M12.0000248140625,21.6000254140625C14.5460654140625,21.6000254140625,16.9879444140625,20.5885444140625,18.7883054140625,18.7883054140625C20.5885444140625,16.9879444140625,21.6000254140625,14.5460654140625,21.6000254140625,12.0000248140625C21.6000254140625,9.4539490140625,20.5885444140625,7.0121527140625,18.7883054140625,5.211804414062501C16.9879444140625,3.4114504140625,14.5460654140625,2.4000244140625013,12.0000248140625,2.4000244140625C9.4539490140625,2.4000244140625018,7.0121527140625,3.4114504140625,5.211804414062501,5.211804414062501C3.4114504140625,7.0121527140625,2.400024414062502,9.4539490140625,2.4000244140625,12.0000248140625C2.4000244140625018,14.5460654140625,3.4114504140625,16.9879444140625,5.211804414062501,18.7883054140625C7.0121527140625,20.5885444140625,9.4539490140625,21.6000254140625,12.0000248140625,21.6000254140625C12.0000248140625,21.6000254140625,12.0000248140625,21.6000254140625,12.0000248140625,21.6000254140625C12.0000248140625,21.6000254140625,12.0000248140625,21.6000254140625,12.0000248140625,21.6000254140625ZM13.2000244140625,6.0000245140625C13.2000244140625,5.6817605140625,13.0735934140625,5.3765404140625,12.8485574140625,5.1514926140625C12.6235094140625,4.9264564140625,12.3182888140625,4.8000245140625,12.0000248140625,4.8000245140625C11.6817608140625,4.8000245140625,11.3765411140625,4.9264564140625,11.1514931140625,5.1514926140625C10.9264564140625,5.3765404140625,10.8000250140625,5.6817605140625,10.8000250140625,6.0000245140625C10.8000250140625,6.0000245140625,10.8000250140625,6.1104245140625,10.8000250140625,6.1104245140625C10.0832405140625,6.2380204140625,9.3993363140625,6.5081525140625,8.788824514062501,6.9048247140625C7.9224248140625,7.4808249140625,7.2000246140625,8.4108243140625,7.2000246140625,9.6000247140625C7.2000246140625,10.7880249140625,7.9224248140625,11.7180242140625,8.788824514062501,12.2952251140625C9.3648248140625,12.6792254140625,10.0536246140625,12.9492254140625,10.8000250140625,13.0896244140625C10.8000250140625,13.0896244140625,10.8000250140625,15.4188254140625,10.8000250140625,15.4188254140625C10.330824814062499,15.2664254140625,9.9840250140625,15.0384244140625,9.7884250140625,14.8140254140625C9.686904914062499,14.6894654140625,9.5614090140625,14.5865054140625,9.4193649140625,14.5113854140625C9.2773089140625,14.4362654140625,9.1216206140625,14.3903764140625,8.961516414062501,14.3765404140625C8.8014126140625,14.3627044140625,8.6401687140625,14.3811604140625,8.4873366140625,14.4308644140625C8.3345051140625,14.4805444140625,8.1932049140625,14.5603454140625,8.0718126140625,14.6657054140625C7.9504328140625,14.7709454140625,7.8514328140625,14.8995844140625,7.7806926140625,15.0438254140625C7.7099528140625,15.1881854140625,7.6689243140625,15.3451444140625,7.6600323140625,15.5057044140625C7.6511283140625,15.6661454140625,7.6745529140625,15.8267054140625,7.7289009140625,15.9779054140625C7.7832489140625,16.1292244140625,7.8674288140625,16.267944414062498,7.9764242140625,16.3860244140625C8.6508250140625,17.1648244140625,9.6720247140625,17.677225414062498,10.8000250140625,17.8896244140625C10.8000250140625,17.8896244140625,10.8000250140625,18.0000244140625,10.8000250140625,18.0000244140625C10.8000250140625,18.318265414062502,10.9264564140625,18.6235444140625,11.1514931140625,18.8485454140625C11.3765411140625,19.0735454140625,11.6817608140625,19.2000254140625,12.0000248140625,19.2000254140625C12.3182888140625,19.2000254140625,12.6235094140625,19.0735454140625,12.8485574140625,18.8485454140625C13.0735934140625,18.6235444140625,13.2000244140625,18.318265414062502,13.2000244140625,18.0000244140625C13.2000244140625,18.0000244140625,13.2000244140625,17.8896244140625,13.2000244140625,17.8896244140625C13.9168204140625,17.762065414062498,14.6006654140625,17.4919454140625,15.2112244140625,17.0952254140625C16.077624414062498,16.5192254140625,16.8000254140625,15.5892244140625,16.8000254140625,14.4000244140625C16.8000254140625,13.2120244140625,16.077624414062498,12.2820244140625,15.2112244140625,11.7048254140625C14.6006654140625,11.3081531140625,13.9168204140625,11.0380211140625,13.2000244140625,10.9104252140625C13.2000244140625,10.9104252140625,13.2000244140625,8.5812249140625,13.2000244140625,8.5812249140625C13.6692244140625,8.7336244140625,14.0160254140625,8.9616246140625,14.2116254140625,9.186025114062499C14.3140924140625,9.3075967140625,14.4397454140625,9.4076047140625,14.5811054140625,9.4802165140625C14.7225844140625,9.5528288140625,14.8770244140625,9.596616714062499,15.0355454140625,9.609013114062499C15.1940654140625,9.6214204140625,15.3534254140625,9.6022086140625,15.5045044140625,9.5524807140625C15.6554654140625,9.5027528140625,15.7951444140625,9.423516714062501,15.9152654140625,9.3193688140625C16.0353844140625,9.2152085140625,16.1336654140625,9.0882249140625,16.2042244140625,8.945785014062501C16.274905414062502,8.8033328140625,16.3165454140625,8.6482806140625,16.3267454140625,8.4896045140625C16.336945414062498,8.3309407140625,16.3154654140625,8.1718330140625,16.2636254140625,8.0215206140625C16.2117854140625,7.8712087140625,16.1306644140625,7.7326927140625,16.024825414062498,7.6140241140625C15.3492254140625,6.8352246140625,14.3292244140625,6.3228247140625005,13.2000244140625,6.1104245140625C13.2000244140625,6.1104245140625,13.2000244140625,6.0000245140625,13.2000244140625,6.0000245140625C13.2000244140625,6.0000245140625,13.2000244140625,6.0000245140625,13.2000244140625,6.0000245140625Z" fill-rule="evenodd" fill="#0A0A28" fill-opacity="1"/></g></svg>