<svg xmlns="http://www.w3.org/2000/svg" xmlns:xlink="http://www.w3.org/1999/xlink" fill="none" version="1.1" width="24" height="24" viewBox="0 0 24 24"><defs><clipPath id="master_svg0_3_2182"><rect x="0" y="0" width="24" height="24" rx="0"/></clipPath></defs><g clip-path="url(#master_svg0_3_2182)"><path d="M9,7.000000238418579C8.4477201,7.000000238418579,8,7.447720338418579,8,8.000000238418579C8,8.55228013841858,8.4477201,9.000000238418579,9,9.000000238418579C9,9.000000238418579,9,7.000000238418579,9,7.000000238418579C9,7.000000238418579,9,7.000000238418579,9,7.000000238418579ZM15,9.000000238418579C15.5523,9.000000238418579,16,8.55228013841858,16,8.000000238418579C16,7.447720338418579,15.5523,7.000000238418579,15,7.000000238418579C15,7.000000238418579,15,9.000000238418579,15,9.000000238418579C15,9.000000238418579,15,9.000000238418579,15,9.000000238418579ZM10,7.000000238418579C9.4477201,7.000000238418579,9,7.447720338418579,9,8.000000238418579C9,8.55228013841858,9.4477201,9.000000238418579,10,9.000000238418579C10,9.000000238418579,10,7.000000238418579,10,7.000000238418579C10,7.000000238418579,10,7.000000238418579,10,7.000000238418579ZM10,14.000000238418579C10,14.000000238418579,10,13.000000238418579,10,13.000000238418579C10,13.000000238418579,10,13.000000238418579,10,13.000000238418579C10,13.000000238418579,10,14.000000238418579,10,14.000000238418579C10,14.000000238418579,10,14.000000238418579,10,14.000000238418579ZM9,14.000000238418579C9,14.000000238418579,9,13.000000238418579,9,13.000000238418579C8.59554,13.000000238418579,8.2308998,13.24360023841858,8.0761199,13.61730023841858C7.92134,13.991000238418579,8.0068998,14.421100238418578,8.292890100000001,14.70710023841858C8.292890100000001,14.70710023841858,9,14.000000238418579,9,14.000000238418579C9,14.000000238418579,9,14.000000238418579,9,14.000000238418579ZM11.2928896,17.70710023841858C11.6834202,18.09760023841858,12.3165798,18.09760023841858,12.7071104,17.70710023841858C13.0976,17.31660023841858,13.0976,16.683400238418578,12.7071104,16.29290023841858C12.7071104,16.29290023841858,11.2928896,17.70710023841858,11.2928896,17.70710023841858C11.2928896,17.70710023841858,11.2928896,17.70710023841858,11.2928896,17.70710023841858ZM9,10.000000238418579C8.4477201,10.000000238418579,8,10.447720338418579,8,11.000000238418579C8,11.552290238418578,8.4477201,12.000000238418579,9,12.000000238418579C9,12.000000238418579,9,10.000000238418579,9,10.000000238418579C9,10.000000238418579,9,10.000000238418579,9,10.000000238418579ZM15,12.000000238418579C15.5523,12.000000238418579,16,11.552290238418578,16,11.000000238418579C16,10.447720338418579,15.5523,10.000000238418579,15,10.000000238418579C15,10.000000238418579,15,12.000000238418579,15,12.000000238418579C15,12.000000238418579,15,12.000000238418579,15,12.000000238418579ZM12,3.000000238418579C12,3.000000238418579,12,4.000000238418579,12,4.000000238418579C12,4.000000238418579,12,3.000000238418579,12,3.000000238418579C12,3.000000238418579,12,3.000000238418579,12,3.000000238418579ZM9,9.000000238418579C9,9.000000238418579,15,9.000000238418579,15,9.000000238418579C15,9.000000238418579,15,7.000000238418579,15,7.000000238418579C15,7.000000238418579,9,7.000000238418579,9,7.000000238418579C9,7.000000238418579,9,9.000000238418579,9,9.000000238418579C9,9.000000238418579,9,9.000000238418579,9,9.000000238418579ZM10,9.000000238418579C10.262640000000001,9.000000238418579,10.5227199,9.051730438418579,10.7653699,9.15224003841858C10.7653699,9.15224003841858,11.5307302,7.304480338418579,11.5307302,7.304480338418579C11.0454302,7.1034600384185795,10.52529,7.000000238418579,10,7.000000238418579C10,7.000000238418579,10,9.000000238418579,10,9.000000238418579C10,9.000000238418579,10,9.000000238418579,10,9.000000238418579ZM10.7653699,9.15224003841858C11.0080204,9.25275013841858,11.2285004,9.40007043841858,11.4142103,9.585790438418579C11.4142103,9.585790438418579,12.8284302,8.17157003841858,12.8284302,8.17157003841858C12.4569902,7.800140138418579,12.0160398,7.505500038418579,11.5307302,7.304480338418579C11.5307302,7.304480338418579,10.7653699,9.15224003841858,10.7653699,9.15224003841858C10.7653699,9.15224003841858,10.7653699,9.15224003841858,10.7653699,9.15224003841858ZM11.4142103,9.585790438418579C11.5999298,9.77150033841858,11.7472496,9.991980338418578,11.8477602,10.23463033841858C11.8477602,10.23463033841858,13.6955,9.46927043841858,13.6955,9.46927043841858C13.4945,8.98396043841858,13.1999,8.54301043841858,12.8284302,8.17157003841858C12.8284302,8.17157003841858,11.4142103,9.585790438418579,11.4142103,9.585790438418579C11.4142103,9.585790438418579,11.4142103,9.585790438418579,11.4142103,9.585790438418579ZM11.8477602,10.23463033841858C11.9482698,10.477280338418579,12,10.737360238418578,12,11.000000238418579C12,11.000000238418579,14,11.000000238418579,14,11.000000238418579C14,10.474710238418579,13.8965,9.954570038418579,13.6955,9.46927043841858C13.6955,9.46927043841858,11.8477602,10.23463033841858,11.8477602,10.23463033841858C11.8477602,10.23463033841858,11.8477602,10.23463033841858,11.8477602,10.23463033841858ZM12,11.000000238418579C12,11.262640238418578,11.9482698,11.522720538418579,11.8477602,11.76537063841858C11.8477602,11.76537063841858,13.6955,12.53073043841858,13.6955,12.53073043841858C13.8965,12.04543043841858,14,11.525289738418579,14,11.000000238418579C14,11.000000238418579,12,11.000000238418579,12,11.000000238418579C12,11.000000238418579,12,11.000000238418579,12,11.000000238418579ZM11.8477602,11.76537063841858C11.7472496,12.008020638418579,11.5999298,12.228500638418579,11.4142103,12.41421053841858C11.4142103,12.41421053841858,12.8284302,13.82840023841858,12.8284302,13.82840023841858C13.1999,13.45700023841858,13.4945,13.01600023841858,13.6955,12.53073043841858C13.6955,12.53073043841858,11.8477602,11.76537063841858,11.8477602,11.76537063841858C11.8477602,11.76537063841858,11.8477602,11.76537063841858,11.8477602,11.76537063841858ZM11.4142103,12.41421053841858C11.2285004,12.599930038418579,11.0080204,12.747249838418579,10.7653699,12.847760438418579C10.7653699,12.847760438418579,11.5307302,14.695500238418578,11.5307302,14.695500238418578C12.0160398,14.49450023841858,12.4569902,14.199900238418579,12.8284302,13.82840023841858C12.8284302,13.82840023841858,11.4142103,12.41421053841858,11.4142103,12.41421053841858C11.4142103,12.41421053841858,11.4142103,12.41421053841858,11.4142103,12.41421053841858ZM10.7653699,12.847760438418579C10.5227199,12.94827003841858,10.262640000000001,13.000000238418579,10,13.000000238418579C10,13.000000238418579,10,15.000000238418579,10,15.000000238418579C10.52529,15.000000238418579,11.0454302,14.896500238418579,11.5307302,14.695500238418578C11.5307302,14.695500238418578,10.7653699,12.847760438418579,10.7653699,12.847760438418579C10.7653699,12.847760438418579,10.7653699,12.847760438418579,10.7653699,12.847760438418579ZM10,13.000000238418579C10,13.000000238418579,9,13.000000238418579,9,13.000000238418579C9,13.000000238418579,9,15.000000238418579,9,15.000000238418579C9,15.000000238418579,10,15.000000238418579,10,15.000000238418579C10,15.000000238418579,10,13.000000238418579,10,13.000000238418579C10,13.000000238418579,10,13.000000238418579,10,13.000000238418579ZM8.292890100000001,14.70710023841858C8.292890100000001,14.70710023841858,11.2928896,17.70710023841858,11.2928896,17.70710023841858C11.2928896,17.70710023841858,12.7071104,16.29290023841858,12.7071104,16.29290023841858C12.7071104,16.29290023841858,9.707109899999999,13.292900238418579,9.707109899999999,13.292900238418579C9.707109899999999,13.292900238418579,8.292890100000001,14.70710023841858,8.292890100000001,14.70710023841858C8.292890100000001,14.70710023841858,8.292890100000001,14.70710023841858,8.292890100000001,14.70710023841858ZM9,12.000000238418579C9,12.000000238418579,15,12.000000238418579,15,12.000000238418579C15,12.000000238418579,15,10.000000238418579,15,10.000000238418579C15,10.000000238418579,9,10.000000238418579,9,10.000000238418579C9,10.000000238418579,9,12.000000238418579,9,12.000000238418579C9,12.000000238418579,9,12.000000238418579,9,12.000000238418579ZM20,12.000000238418579C20,13.050600238418578,19.7931,14.090900238418579,19.391001,15.06150023841858C19.391001,15.06150023841858,21.2388,15.82680023841858,21.2388,15.82680023841858C21.741301,14.613600238418579,22,13.31320023841858,22,12.000000238418579C22,12.000000238418579,20,12.000000238418579,20,12.000000238418579C20,12.000000238418579,20,12.000000238418579,20,12.000000238418579ZM19.391001,15.06150023841858C18.989,16.03210023841858,18.3997,16.91400023841858,17.6569,17.65690023841858C17.6569,17.65690023841858,19.0711,19.07110023841858,19.0711,19.07110023841858C19.999701,18.142500238418577,20.7362,17.04010023841858,21.2388,15.82680023841858C21.2388,15.82680023841858,19.391001,15.06150023841858,19.391001,15.06150023841858C19.391001,15.06150023841858,19.391001,15.06150023841858,19.391001,15.06150023841858ZM17.6569,17.65690023841858C16.914,18.39970023841858,16.0321,18.98900023841858,15.0615,19.39100123841858C15.0615,19.39100123841858,15.8268,21.23880023841858,15.8268,21.23880023841858C17.040100000000002,20.73620023841858,18.1425,19.99970123841858,19.0711,19.07110023841858C19.0711,19.07110023841858,17.6569,17.65690023841858,17.6569,17.65690023841858C17.6569,17.65690023841858,17.6569,17.65690023841858,17.6569,17.65690023841858ZM15.0615,19.39100123841858C14.0909,19.793100238418578,13.0506,20.00000023841858,12,20.00000023841858C12,20.00000023841858,12,22.00000023841858,12,22.00000023841858C13.3132,22.00000023841858,14.6136,21.74130123841858,15.8268,21.23880023841858C15.8268,21.23880023841858,15.0615,19.39100123841858,15.0615,19.39100123841858C15.0615,19.39100123841858,15.0615,19.39100123841858,15.0615,19.39100123841858ZM12,20.00000023841858C10.94942,20.00000023841858,9.9091401,19.793100238418578,8.93853,19.39100123841858C8.93853,19.39100123841858,8.1731701,21.23880023841858,8.1731701,21.23880023841858C9.386419799999999,21.74130123841858,10.686779999999999,22.00000023841858,12,22.00000023841858C12,22.00000023841858,12,20.00000023841858,12,20.00000023841858C12,20.00000023841858,12,20.00000023841858,12,20.00000023841858ZM8.93853,19.39100123841858C7.9679298,18.98900023841858,7.08601,18.39970023841858,6.3431499,17.65690023841858C6.3431499,17.65690023841858,4.92893,19.07110023841858,4.92893,19.07110023841858C5.8575201,19.99970123841858,6.9599098999999995,20.73620023841858,8.1731701,21.23880023841858C8.1731701,21.23880023841858,8.93853,19.39100123841858,8.93853,19.39100123841858C8.93853,19.39100123841858,8.93853,19.39100123841858,8.93853,19.39100123841858ZM6.3431499,17.65690023841858C5.60028,16.91400023841858,5.0109999,16.03210023841858,4.60896,15.06150023841858C4.60896,15.06150023841858,2.761205,15.82680023841858,2.761205,15.82680023841858C3.26375201,17.04010023841858,4.00035,18.142500238418577,4.92893,19.07110023841858C4.92893,19.07110023841858,6.3431499,17.65690023841858,6.3431499,17.65690023841858C6.3431499,17.65690023841858,6.3431499,17.65690023841858,6.3431499,17.65690023841858ZM4.60896,15.06150023841858C4.20693,14.090900238418579,4,13.050600238418578,4,12.000000238418579C4,12.000000238418579,2,12.000000238418579,2,12.000000238418579C2,13.31320023841858,2.25865799,14.613600238418579,2.761205,15.82680023841858C2.761205,15.82680023841858,4.60896,15.06150023841858,4.60896,15.06150023841858C4.60896,15.06150023841858,4.60896,15.06150023841858,4.60896,15.06150023841858ZM4,12.000000238418579C4,9.878270338418579,4.84285,7.843440338418579,6.3431499,6.343150138418579C6.3431499,6.343150138418579,4.92893,4.928930238418579,4.92893,4.928930238418579C3.053568199,6.804300338418579,2,9.347840038418578,2,12.000000238418579C2,12.000000238418579,4,12.000000238418579,4,12.000000238418579C4,12.000000238418579,4,12.000000238418579,4,12.000000238418579ZM6.3431499,6.343150138418579C7.8434401,4.842850238418579,9.8782701,4.000000238418579,12,4.000000238418579C12,4.000000238418579,12,2.000000238418579,12,2.000000238418579C9.3478398,2.000000238418579,6.8043001,3.053568739418579,4.92893,4.928930238418579C4.92893,4.928930238418579,6.3431499,6.343150138418579,6.3431499,6.343150138418579C6.3431499,6.343150138418579,6.3431499,6.343150138418579,6.3431499,6.343150138418579ZM12,4.000000238418579C14.1217,4.000000238418579,16.156599999999997,4.842850238418579,17.6569,6.343150138418579C17.6569,6.343150138418579,19.0711,4.928930238418579,19.0711,4.928930238418579C17.195700000000002,3.053568840418579,14.6522,2.000000238418579,12,2.000000238418579C12,2.000000238418579,12,4.000000238418579,12,4.000000238418579C12,4.000000238418579,12,4.000000238418579,12,4.000000238418579ZM17.6569,6.343150138418579C19.157101,7.843440338418579,20,9.878270338418579,20,12.000000238418579C20,12.000000238418579,22,12.000000238418579,22,12.000000238418579C22,9.347840038418578,20.9464,6.804300338418579,19.0711,4.928930238418579C19.0711,4.928930238418579,17.6569,6.343150138418579,17.6569,6.343150138418579C17.6569,6.343150138418579,17.6569,6.343150138418579,17.6569,6.343150138418579Z" fill="#0A0A28" fill-opacity="1"/></g></svg>