<svg xmlns="http://www.w3.org/2000/svg" xmlns:xlink="http://www.w3.org/1999/xlink" fill="none" version="1.1" width="24" height="24" viewBox="0 0 24 24"><defs><clipPath id="master_svg0_3_1557"><rect x="0" y="0" width="24" height="24" rx="0"/></clipPath></defs><g clip-path="url(#master_svg0_3_1557)"><path d="M12.0000248140625,21.6000254140625C14.5460654140625,21.6000254140625,16.9879444140625,20.5885444140625,18.7883054140625,18.7883054140625C20.5885444140625,16.9879444140625,21.6000254140625,14.5460654140625,21.6000254140625,12.0000248140625C21.6000254140625,9.4539490140625,20.5885444140625,7.0121527140625,18.7883054140625,5.211804414062501C16.9879444140625,3.4114504140625,14.5460654140625,2.4000244140625013,12.0000248140625,2.4000244140625C9.4539490140625,2.4000244140625018,7.0121527140625,3.4114504140625,5.211804414062501,5.211804414062501C3.4114504140625,7.0121527140625,2.400024414062502,9.4539490140625,2.4000244140625,12.0000248140625C2.4000244140625018,14.5460654140625,3.4114504140625,16.9879444140625,5.211804414062501,18.7883054140625C7.0121527140625,20.5885444140625,9.4539490140625,21.6000254140625,12.0000248140625,21.6000254140625C12.0000248140625,21.6000254140625,12.0000248140625,21.6000254140625,12.0000248140625,21.6000254140625C12.0000248140625,21.6000254140625,12.0000248140625,21.6000254140625,12.0000248140625,21.6000254140625ZM8.4000244140625,4.8000245140625C8.0817604140625,4.8000245140625,7.7765407140625,4.9264564140625,7.5514927140625,5.1514926140625C7.3264565140625,5.3765404140625,7.2000246140625,5.6817605140625,7.2000246140625,6.0000245140625C7.2000246140625,6.318288614062499,7.3264565140625,6.6235089140625,7.5514927140625,6.8485565140625C7.7765407140625,7.0735926140625,8.0817604140625,7.2000246140625,8.4000244140625,7.2000246140625C8.7182889140625,7.2000246140625,9.023508514062499,7.3264565140625,9.248556614062501,7.5514927140625C9.4735927140625,7.7765407140625,9.6000247140625,8.0817604140625,9.6000247140625,8.4000244140625C9.6000247140625,8.4000244140625,9.6000247140625,9.6000247140625,9.6000247140625,9.6000247140625C9.6000247140625,9.6000247140625,8.4000244140625,9.6000247140625,8.4000244140625,9.6000247140625C8.0817604140625,9.6000247140625,7.7765407140625,9.7264566140625,7.5514927140625,9.951492814062501C7.3264565140625,10.1765408140625,7.2000246140625,10.4817610140625,7.2000246140625,10.8000250140625C7.2000246140625,11.1182890140625,7.3264565140625,11.4235086140625,7.5514927140625,11.6485567140625C7.7765407140625,11.8735924140625,8.0817604140625,12.0000248140625,8.4000244140625,12.0000248140625C8.4000244140625,12.0000248140625,9.6000247140625,12.0000248140625,9.6000247140625,12.0000248140625C9.6000247140625,12.0000248140625,9.6000247140625,15.6000254140625,9.6000247140625,15.6000254140625C9.6000247140625,16.0728254140625,9.6931448140625,16.5409444140625,9.874056814062499,16.9777454140625C10.0549807140625,17.414424414062502,10.3201446140625,17.8112654140625,10.6544409140625,18.145585414062502C10.9887371140625,18.4799064140625,11.3855886140625,18.7451054140625,11.8223648140625,18.9259454140625C12.2591410140625,19.1069054140625,12.7272614140625,19.2000254140625,13.2000244140625,19.2000254140625C13.6727884140625,19.2000254140625,14.1409094140625,19.1069054140625,14.5777444140625,18.9259454140625C15.0144254140625,18.7451054140625,15.4112654140625,18.4799064140625,15.7455844140625,18.145585414062502C16.0799054140625,17.8112654140625,16.345105414062502,17.414424414062502,16.5259444140625,16.9777454140625C16.7069054140625,16.5409444140625,16.8000254140625,16.0728254140625,16.8000254140625,15.6000254140625C16.8000254140625,15.6000254140625,16.8000254140625,14.4000244140625,16.8000254140625,14.4000244140625C16.8000254140625,14.0817614140625,16.673544414062498,13.7765404140625,16.4485444140625,13.5514924140625C16.2235454140625,13.3264574140625,15.9182644140625,13.2000244140625,15.6000254140625,13.2000244140625C15.2817854140625,13.2000244140625,14.9765054140625,13.3264574140625,14.7515044140625,13.5514924140625C14.5265054140625,13.7765404140625,14.4000244140625,14.0817614140625,14.4000244140625,14.4000244140625C14.4000244140625,14.4000244140625,14.4000244140625,15.6000254140625,14.4000244140625,15.6000254140625C14.4000244140625,15.9182644140625,14.2735934140625,16.2235454140625,14.0485574140625,16.4485444140625C13.8235094140625,16.673544414062498,13.5182884140625,16.8000254140625,13.2000244140625,16.8000254140625C12.8817614140625,16.8000254140625,12.5765404140625,16.673544414062498,12.3514919140625,16.4485444140625C12.1264572140625,16.2235454140625,12.0000248140625,15.9182644140625,12.0000248140625,15.6000254140625C12.0000248140625,15.6000254140625,12.0000248140625,12.0000248140625,12.0000248140625,12.0000248140625C12.0000248140625,12.0000248140625,15.6000254140625,12.0000248140625,15.6000254140625,12.0000248140625C15.9182644140625,12.0000248140625,16.2235454140625,11.8735924140625,16.4485444140625,11.6485567140625C16.673544414062498,11.4235086140625,16.8000254140625,11.1182890140625,16.8000254140625,10.8000250140625C16.8000254140625,10.4817610140625,16.673544414062498,10.1765408140625,16.4485444140625,9.951492814062501C16.2235454140625,9.7264566140625,15.9182644140625,9.6000247140625,15.6000254140625,9.6000247140625C15.6000254140625,9.6000247140625,12.0000248140625,9.6000247140625,12.0000248140625,9.6000247140625C12.0000248140625,9.6000247140625,12.0000248140625,8.4000244140625,12.0000248140625,8.4000244140625C12.0000248140625,7.4452448140625,11.6207409140625,6.5295725140625,10.9456081140625,5.8544404140625C10.2704768140625,5.1793086140625,9.3548045140625,4.8000245140625,8.4000244140625,4.8000245140625C8.4000244140625,4.8000245140625,8.4000244140625,4.8000245140625,8.4000244140625,4.8000245140625C8.4000244140625,4.8000245140625,8.4000244140625,4.8000245140625,8.4000244140625,4.8000245140625Z" fill-rule="evenodd" fill="#0A0A28" fill-opacity="1"/></g></svg>