<svg xmlns="http://www.w3.org/2000/svg" xmlns:xlink="http://www.w3.org/1999/xlink" fill="none" version="1.1" width="24" height="24" viewBox="0 0 24 24"><defs><clipPath id="master_svg0_3_1576"><rect x="0" y="0" width="24" height="24" rx="0"/></clipPath></defs><g clip-path="url(#master_svg0_3_1576)"><path d="M11.999994296484376,21.6000254140625C14.546034896484375,21.6000254140625,16.987913896484375,20.5885444140625,18.788274896484374,18.7883054140625C20.588513896484375,16.9879444140625,21.599994896484375,14.5460654140625,21.599994896484375,12.0000248140625C21.599994896484375,9.4539490140625,20.588513896484375,7.0121527140625,18.788274896484374,5.211804414062501C16.987913896484375,3.4114504140625,14.546034896484375,2.4000244140625013,11.999994296484376,2.4000244140625C9.453918496484375,2.4000244140625018,7.012122196484375,3.4114504140625,5.211773896484376,5.211804414062501C3.411419896484375,7.0121527140625,2.399993896484377,9.4539490140625,2.399993896484375,12.0000248140625C2.3999938964843768,14.5460654140625,3.411419896484375,16.9879444140625,5.211773896484376,18.7883054140625C7.012122196484375,20.5885444140625,9.453918496484375,21.6000254140625,11.999994296484376,21.6000254140625C11.999994296484376,21.6000254140625,11.999994296484376,21.6000254140625,11.999994296484376,21.6000254140625C11.999994296484376,21.6000254140625,11.999994296484376,21.6000254140625,11.999994296484376,21.6000254140625ZM9.429593996484375,6.5820246140625C9.265685996484375,6.3091206140625005,9.000090096484374,6.1125004140625006,8.691210296484375,6.0354245140625C8.382342296484374,5.9583366140625,8.055498096484374,6.0071165140625,7.782593696484375,6.1710245140625C7.509690296484375,6.334932614062501,7.313070296484375,6.6005287140625,7.235994296484375,6.9094086140625C7.158905996484375,7.2182770140625,7.207686396484375,7.5451207140625,7.371594396484375,7.8180246140625C7.371594396484375,7.8180246140625,9.159594096484376,10.8000250140625,9.159594096484376,10.8000250140625C9.159594096484376,10.8000250140625,8.399993896484375,10.8000250140625,8.399993896484375,10.8000250140625C8.081729896484376,10.8000250140625,7.776510196484375,10.9264564140625,7.551462196484375,11.1514931140625C7.326425996484375,11.3765411140625,7.199994096484375,11.6817608140625,7.199994096484375,12.0000248140625C7.199994096484375,12.3182888140625,7.326425996484375,12.6235094140625,7.551462196484375,12.8485574140625C7.776510196484375,13.0735934140625,8.081729896484376,13.2000244140625,8.399993896484375,13.2000244140625C8.399993896484375,13.2000244140625,10.600794796484376,13.2000244140625,10.600794796484376,13.2000244140625C10.600794796484376,13.2000244140625,10.799994496484375,13.5324254140625,10.799994496484375,13.5324254140625C10.799994496484375,13.5324254140625,10.799994496484375,14.4000244140625,10.799994496484375,14.4000244140625C10.799994496484375,14.4000244140625,8.399993896484375,14.4000244140625,8.399993896484375,14.4000244140625C8.081729896484376,14.4000244140625,7.776510196484375,14.5265054140625,7.551462196484375,14.7515044140625C7.326425996484375,14.9765054140625,7.199994096484375,15.2817854140625,7.199994096484375,15.6000254140625C7.199994096484375,15.9182644140625,7.326425996484375,16.2235454140625,7.551462196484375,16.4485444140625C7.776510196484375,16.673544414062498,8.081729896484376,16.8000254140625,8.399993896484375,16.8000254140625C8.399993896484375,16.8000254140625,10.799994496484375,16.8000254140625,10.799994496484375,16.8000254140625C10.799994496484375,16.8000254140625,10.799994496484375,18.0000244140625,10.799994496484375,18.0000244140625C10.799994496484375,18.318265414062502,10.926425896484375,18.6235444140625,11.151462596484375,18.8485454140625C11.376510596484374,19.0735454140625,11.681730296484375,19.2000254140625,11.999994296484376,19.2000254140625C12.318258296484375,19.2000254140625,12.623478896484375,19.0735454140625,12.848526896484374,18.8485454140625C13.073562896484376,18.6235444140625,13.199993896484376,18.318265414062502,13.199993896484376,18.0000244140625C13.199993896484376,18.0000244140625,13.199993896484376,16.8000254140625,13.199993896484376,16.8000254140625C13.199993896484376,16.8000254140625,15.599994896484375,16.8000254140625,15.599994896484375,16.8000254140625C15.918233896484375,16.8000254140625,16.223514896484375,16.673544414062498,16.448513896484375,16.4485444140625C16.673513896484373,16.2235454140625,16.799994896484375,15.9182644140625,16.799994896484375,15.6000254140625C16.799994896484375,15.2817854140625,16.673513896484373,14.9765054140625,16.448513896484375,14.7515044140625C16.223514896484375,14.5265054140625,15.918233896484375,14.4000244140625,15.599994896484375,14.4000244140625C15.599994896484375,14.4000244140625,13.199993896484376,14.4000244140625,13.199993896484376,14.4000244140625C13.199993896484376,14.4000244140625,13.199993896484376,13.5324254140625,13.199993896484376,13.5324254140625C13.199993896484376,13.5324254140625,13.399194896484374,13.2000244140625,13.399194896484374,13.2000244140625C13.399194896484374,13.2000244140625,15.599994896484375,13.2000244140625,15.599994896484375,13.2000244140625C15.918233896484375,13.2000244140625,16.223514896484375,13.0735934140625,16.448513896484375,12.8485574140625C16.673513896484373,12.6235094140625,16.799994896484375,12.3182888140625,16.799994896484375,12.0000248140625C16.799994896484375,11.6817608140625,16.673513896484373,11.3765411140625,16.448513896484375,11.1514931140625C16.223514896484375,10.9264564140625,15.918233896484375,10.8000250140625,15.599994896484375,10.8000250140625C15.599994896484375,10.8000250140625,14.839193896484375,10.8000250140625,14.839193896484375,10.8000250140625C14.839193896484375,10.8000250140625,16.629593896484373,7.8168244140625,16.629593896484373,7.8168244140625C16.793394896484376,7.5437527140625,16.841873896484373,7.2168245140625,16.764593896484374,6.9079566140625C16.687314896484374,6.5990887140625,16.490513896484373,6.3335645140625,16.217393896484374,6.169824614062501C15.944273896484376,6.006084414062499,15.617394896484376,5.9575207140625,15.308514896484375,6.0348246140625C14.999633896484376,6.1121166140625,14.734193896484374,6.3089526140625,14.570394896484375,6.5820246140625C14.570394896484375,6.5820246140625,12.040794396484374,10.8000250140625,12.040794396484374,10.8000250140625C12.040794396484374,10.8000250140625,11.959194196484376,10.8000250140625,11.959194196484376,10.8000250140625C11.959194196484376,10.8000250140625,9.429593996484375,6.5820246140625,9.429593996484375,6.5820246140625C9.429593996484375,6.5820246140625,9.429593996484375,6.5820246140625,9.429593996484375,6.5820246140625Z" fill-rule="evenodd" fill="#0A0A28" fill-opacity="1"/></g></svg>