<svg xmlns="http://www.w3.org/2000/svg" xmlns:xlink="http://www.w3.org/1999/xlink" fill="none" version="1.1" width="24" height="24" viewBox="0 0 24 24"><defs><clipPath id="master_svg0_3_1798"><rect x="0" y="0" width="24" height="24" rx="0"/></clipPath></defs><g clip-path="url(#master_svg0_3_1798)"><path d="M11.999994296484376,21.6000254140625C14.546034896484375,21.6000254140625,16.987913896484375,20.5885444140625,18.788274896484374,18.7883054140625C20.588513896484375,16.9879444140625,21.599994896484375,14.5460654140625,21.599994896484375,12.0000248140625C21.599994896484375,9.4539490140625,20.588513896484375,7.0121527140625,18.788274896484374,5.211804414062501C16.987913896484375,3.4114504140625,14.546034896484375,2.4000244140625013,11.999994296484376,2.4000244140625C9.453918496484375,2.4000244140625018,7.012122196484375,3.4114504140625,5.211773896484376,5.211804414062501C3.411419896484375,7.0121527140625,2.399993896484377,9.4539490140625,2.399993896484375,12.0000248140625C2.3999938964843768,14.5460654140625,3.411419896484375,16.9879444140625,5.211773896484376,18.7883054140625C7.012122196484375,20.5885444140625,9.453918496484375,21.6000254140625,11.999994296484376,21.6000254140625C11.999994296484376,21.6000254140625,11.999994296484376,21.6000254140625,11.999994296484376,21.6000254140625C11.999994296484376,21.6000254140625,11.999994296484376,21.6000254140625,11.999994296484376,21.6000254140625ZM10.483194396484375,8.3748245140625C11.049594896484376,7.4316244140625,11.635194796484376,7.2000246140625,11.999994296484376,7.2000246140625C12.364793796484374,7.2000246140625,12.950393896484375,7.4316244140625,13.516793896484375,8.3748245140625C13.680533896484375,8.647728414062499,13.945986896484374,8.844420414062501,14.254745896484375,8.921604614062499C14.563554896484375,8.9988007140625,14.890313896484376,8.9501643140625,15.163193896484374,8.7864246140625C15.436074896484374,8.6226849140625,15.632753896484376,8.357233014062501,15.710033896484376,8.0484724140625C15.787193896484375,7.7397127140625,15.738594896484376,7.4129286140625,15.574794896484375,7.1400246140625C14.734794896484376,5.7408244140625,13.478394896484374,4.8000245140625,11.999994296484376,4.8000245140625C10.521594096484375,4.8000245140625,9.265194396484375,5.7408244140625,8.425194296484374,7.1400246140625C8.083194296484375,7.7100248140625,7.816793896484375,8.340024514062499,7.621193896484375,9.000024814062499C7.621193896484375,9.000024814062499,7.199994096484375,9.000024814062499,7.199994096484375,9.000024814062499C6.881730096484375,9.000024814062499,6.576509996484375,9.126456714062499,6.351462096484375,9.3514929140625C6.126425996484375,9.5765409140625,5.999993996484375,9.8817606140625,5.999993996484375,10.2000246140625C5.999993996484375,10.5182886140625,6.126425996484375,10.8235082140625,6.351462096484375,11.0485563140625C6.576509996484375,11.2735929140625,6.881730096484375,11.4000244140625,7.199994096484375,11.4000244140625C7.199994096484375,11.4000244140625,7.215594296484375,11.4000244140625,7.215594296484375,11.4000244140625C7.194210096484375,11.7997446140625,7.194210096484375,12.2003040140625,7.215594296484375,12.6000254140625C7.215594296484375,12.6000254140625,7.199994096484375,12.6000254140625,7.199994096484375,12.6000254140625C6.881730096484375,12.6000254140625,6.576509996484375,12.7264564140625,6.351462096484375,12.9514924140625C6.126425996484375,13.1765404140625,5.999993996484375,13.4817614140625,5.999993996484375,13.8000254140625C5.999993996484375,14.1182884140625,6.126425996484375,14.4235444140625,6.351462096484375,14.6485454140625C6.576509996484375,14.8735444140625,6.881730096484375,15.0000244140625,7.199994096484375,15.0000244140625C7.199994096484375,15.0000244140625,7.621193896484375,15.0000244140625,7.621193896484375,15.0000244140625C7.816793896484375,15.6600254140625,8.083194296484375,16.2900244140625,8.425194296484374,16.8600254140625C9.265194396484375,18.2592244140625,10.521594096484375,19.2000254140625,11.999994296484376,19.2000254140625C13.478394896484374,19.2000254140625,14.734794896484376,18.2592244140625,15.574794896484375,16.8600254140625C15.655914896484376,16.724905414062498,15.709554896484375,16.5751444140625,15.732714896484374,16.4192644140625C15.755874896484375,16.2633844140625,15.748194896484375,16.1045044140625,15.710033896484376,15.9516244140625C15.671754896484375,15.7987454140625,15.603833896484375,15.6548654140625,15.509994896484375,15.5282654140625C15.416153896484374,15.4015454140625,15.298313896484375,15.2947444140625,15.163193896484374,15.2136254140625C15.028074896484375,15.1325054140625,14.878313896484375,15.0788644140625,14.722433896484375,15.0557054140625C14.566553896484375,15.0325444140625,14.407674896484375,15.0402254140625,14.254745896484375,15.0783854140625C14.101866896484376,15.1166654140625,13.958009896484375,15.1845844140625,13.831386896484375,15.2784254140625C13.704773896484374,15.3722644140625,13.597865896484375,15.4901044140625,13.516793896484375,15.6252254140625C12.950393896484375,16.5684254140625,12.364793796484374,16.8000254140625,11.999994296484376,16.8000254140625C11.635194796484376,16.8000254140625,11.049594896484376,16.5684254140625,10.483194396484375,15.6252254140625C10.363434296484375,15.4243444140625,10.257582196484375,15.2154244140625,10.166394196484376,15.0000244140625C10.166394196484376,15.0000244140625,11.999994296484376,15.0000244140625,11.999994296484376,15.0000244140625C12.318258296484375,15.0000244140625,12.623478896484375,14.8735444140625,12.848526896484374,14.6485454140625C13.073562896484376,14.4235444140625,13.199993896484376,14.1182884140625,13.199993896484376,13.8000254140625C13.199993896484376,13.4817614140625,13.073562896484376,13.1765404140625,12.848526896484374,12.9514924140625C12.623478896484375,12.7264564140625,12.318258296484375,12.6000254140625,11.999994296484376,12.6000254140625C11.999994296484376,12.6000254140625,9.620394196484375,12.6000254140625,9.620394196484375,12.6000254140625C9.593190196484375,12.2004852140625,9.593190196484375,11.7995653140625,9.620394196484375,11.4000244140625C9.620394196484375,11.4000244140625,11.999994296484376,11.4000244140625,11.999994296484376,11.4000244140625C12.318258296484375,11.4000244140625,12.623478896484375,11.2735929140625,12.848526896484374,11.0485563140625C13.073562896484376,10.8235082140625,13.199993896484376,10.5182886140625,13.199993896484376,10.2000246140625C13.199993896484376,9.8817606140625,13.073562896484376,9.5765409140625,12.848526896484374,9.3514929140625C12.623478896484375,9.126456714062499,12.318258296484375,9.000024814062499,11.999994296484376,9.000024814062499C11.999994296484376,9.000024814062499,10.166394196484376,9.000024814062499,10.166394196484376,9.000024814062499C10.262394396484375,8.7780247140625,10.366794096484375,8.5680246140625,10.483194396484375,8.3748245140625C10.483194396484375,8.3748245140625,10.483194396484375,8.3748245140625,10.483194396484375,8.3748245140625C10.483194396484375,8.3748245140625,10.483194396484375,8.3748245140625,10.483194396484375,8.3748245140625Z" fill-rule="evenodd" fill="#0A0A28" fill-opacity="1"/></g></svg>