<svg xmlns="http://www.w3.org/2000/svg" xmlns:xlink="http://www.w3.org/1999/xlink" fill="none" version="1.1" width="24" height="24" viewBox="0 0 24 24"><defs><clipPath id="master_svg0_3_1912"><rect x="0" y="0" width="24" height="24" rx="0"/></clipPath></defs><g clip-path="url(#master_svg0_3_1912)"><path d="M9.8574901,7.485500138418579C9.5733399,7.011920238418579,8.959080199999999,6.85836033841858,8.4854999,7.142510138418579C8.01192,7.426660338418579,7.8583598,8.04092003841858,8.1425099,8.514500338418578C8.1425099,8.514500338418578,9.8574901,7.485500138418579,9.8574901,7.485500138418579C9.8574901,7.485500138418579,9.8574901,7.485500138418579,9.8574901,7.485500138418579ZM15.8575,8.514500338418578C16.1416,8.04092003841858,15.9881,7.426660338418579,15.5145,7.142510138418579C15.0409,6.85836033841858,14.4267,7.011920238418579,14.1425,7.485500138418579C14.1425,7.485500138418579,15.8575,8.514500338418578,15.8575,8.514500338418578C15.8575,8.514500338418578,15.8575,8.514500338418578,15.8575,8.514500338418578ZM11,17.00000023841858C11,17.55230023841858,11.44771,18.00000023841858,12,18.00000023841858C12.55229,18.00000023841858,13,17.55230023841858,13,17.00000023841858C13,17.00000023841858,11,17.00000023841858,11,17.00000023841858C11,17.00000023841858,11,17.00000023841858,11,17.00000023841858ZM9,11.000000238418579C8.4477201,11.000000238418579,8,11.44771023841858,8,12.000000238418579C8,12.552290238418578,8.4477201,13.000000238418579,9,13.000000238418579C9,13.000000238418579,9,11.000000238418579,9,11.000000238418579C9,11.000000238418579,9,11.000000238418579,9,11.000000238418579ZM15,13.000000238418579C15.5523,13.000000238418579,16,12.552290238418578,16,12.000000238418579C16,11.44771023841858,15.5523,11.000000238418579,15,11.000000238418579C15,11.000000238418579,15,13.000000238418579,15,13.000000238418579C15,13.000000238418579,15,13.000000238418579,15,13.000000238418579ZM9,14.000000238418579C8.4477201,14.000000238418579,8,14.447700238418578,8,15.000000238418579C8,15.55230023841858,8.4477201,16.00000023841858,9,16.00000023841858C9,16.00000023841858,9,14.000000238418579,9,14.000000238418579C9,14.000000238418579,9,14.000000238418579,9,14.000000238418579ZM15,16.00000023841858C15.5523,16.00000023841858,16,15.55230023841858,16,15.000000238418579C16,14.447700238418578,15.5523,14.000000238418579,15,14.000000238418579C15,14.000000238418579,15,16.00000023841858,15,16.00000023841858C15,16.00000023841858,15,16.00000023841858,15,16.00000023841858ZM12,3.000000238418579C12,3.000000238418579,12,4.000000238418579,12,4.000000238418579C12,4.000000238418579,12,3.000000238418579,12,3.000000238418579C12,3.000000238418579,12,3.000000238418579,12,3.000000238418579ZM8.1425099,8.514500338418578C8.1425099,8.514500338418578,11.1425104,13.514500238418579,11.1425104,13.514500238418579C11.1425104,13.514500238418579,12.8574896,12.485500538418579,12.8574896,12.485500538418579C12.8574896,12.485500538418579,9.8574901,7.485500138418579,9.8574901,7.485500138418579C9.8574901,7.485500138418579,8.1425099,8.514500338418578,8.1425099,8.514500338418578C8.1425099,8.514500338418578,8.1425099,8.514500338418578,8.1425099,8.514500338418578ZM12.8574896,13.514500238418579C12.8574896,13.514500238418579,15.8575,8.514500338418578,15.8575,8.514500338418578C15.8575,8.514500338418578,14.1425,7.485500138418579,14.1425,7.485500138418579C14.1425,7.485500138418579,11.1425104,12.485500538418579,11.1425104,12.485500538418579C11.1425104,12.485500538418579,12.8574896,13.514500238418579,12.8574896,13.514500238418579C12.8574896,13.514500238418579,12.8574896,13.514500238418579,12.8574896,13.514500238418579ZM11,13.000000238418579C11,13.000000238418579,11,17.00000023841858,11,17.00000023841858C11,17.00000023841858,13,17.00000023841858,13,17.00000023841858C13,17.00000023841858,13,13.000000238418579,13,13.000000238418579C13,13.000000238418579,11,13.000000238418579,11,13.000000238418579C11,13.000000238418579,11,13.000000238418579,11,13.000000238418579ZM9,13.000000238418579C9,13.000000238418579,15,13.000000238418579,15,13.000000238418579C15,13.000000238418579,15,11.000000238418579,15,11.000000238418579C15,11.000000238418579,9,11.000000238418579,9,11.000000238418579C9,11.000000238418579,9,13.000000238418579,9,13.000000238418579C9,13.000000238418579,9,13.000000238418579,9,13.000000238418579ZM9,16.00000023841858C9,16.00000023841858,15,16.00000023841858,15,16.00000023841858C15,16.00000023841858,15,14.000000238418579,15,14.000000238418579C15,14.000000238418579,9,14.000000238418579,9,14.000000238418579C9,14.000000238418579,9,16.00000023841858,9,16.00000023841858C9,16.00000023841858,9,16.00000023841858,9,16.00000023841858ZM20,12.000000238418579C20,13.050600238418578,19.7931,14.090900238418579,19.391001,15.06150023841858C19.391001,15.06150023841858,21.2388,15.82680023841858,21.2388,15.82680023841858C21.741301,14.613600238418579,22,13.31320023841858,22,12.000000238418579C22,12.000000238418579,20,12.000000238418579,20,12.000000238418579C20,12.000000238418579,20,12.000000238418579,20,12.000000238418579ZM19.391001,15.06150023841858C18.989,16.03210023841858,18.3997,16.91400023841858,17.6569,17.65690023841858C17.6569,17.65690023841858,19.0711,19.07110023841858,19.0711,19.07110023841858C19.999701,18.142500238418577,20.7362,17.04010023841858,21.2388,15.82680023841858C21.2388,15.82680023841858,19.391001,15.06150023841858,19.391001,15.06150023841858C19.391001,15.06150023841858,19.391001,15.06150023841858,19.391001,15.06150023841858ZM17.6569,17.65690023841858C16.914,18.39970023841858,16.0321,18.98900023841858,15.0615,19.39100123841858C15.0615,19.39100123841858,15.8268,21.23880023841858,15.8268,21.23880023841858C17.040100000000002,20.73620023841858,18.1425,19.99970123841858,19.0711,19.07110023841858C19.0711,19.07110023841858,17.6569,17.65690023841858,17.6569,17.65690023841858C17.6569,17.65690023841858,17.6569,17.65690023841858,17.6569,17.65690023841858ZM15.0615,19.39100123841858C14.0909,19.793100238418578,13.0506,20.00000023841858,12,20.00000023841858C12,20.00000023841858,12,22.00000023841858,12,22.00000023841858C13.3132,22.00000023841858,14.6136,21.74130123841858,15.8268,21.23880023841858C15.8268,21.23880023841858,15.0615,19.39100123841858,15.0615,19.39100123841858C15.0615,19.39100123841858,15.0615,19.39100123841858,15.0615,19.39100123841858ZM12,20.00000023841858C10.94942,20.00000023841858,9.9091401,19.793100238418578,8.93853,19.39100123841858C8.93853,19.39100123841858,8.1731701,21.23880023841858,8.1731701,21.23880023841858C9.386419799999999,21.74130123841858,10.686779999999999,22.00000023841858,12,22.00000023841858C12,22.00000023841858,12,20.00000023841858,12,20.00000023841858C12,20.00000023841858,12,20.00000023841858,12,20.00000023841858ZM8.93853,19.39100123841858C7.9679298,18.98900023841858,7.08601,18.39970023841858,6.3431499,17.65690023841858C6.3431499,17.65690023841858,4.92893,19.07110023841858,4.92893,19.07110023841858C5.8575201,19.99970123841858,6.9599098999999995,20.73620023841858,8.1731701,21.23880023841858C8.1731701,21.23880023841858,8.93853,19.39100123841858,8.93853,19.39100123841858C8.93853,19.39100123841858,8.93853,19.39100123841858,8.93853,19.39100123841858ZM6.3431499,17.65690023841858C5.60028,16.91400023841858,5.0109999,16.03210023841858,4.60896,15.06150023841858C4.60896,15.06150023841858,2.761205,15.82680023841858,2.761205,15.82680023841858C3.26375201,17.04010023841858,4.00035,18.142500238418577,4.92893,19.07110023841858C4.92893,19.07110023841858,6.3431499,17.65690023841858,6.3431499,17.65690023841858C6.3431499,17.65690023841858,6.3431499,17.65690023841858,6.3431499,17.65690023841858ZM4.60896,15.06150023841858C4.20693,14.090900238418579,4,13.050600238418578,4,12.000000238418579C4,12.000000238418579,2,12.000000238418579,2,12.000000238418579C2,13.31320023841858,2.25865799,14.613600238418579,2.761205,15.82680023841858C2.761205,15.82680023841858,4.60896,15.06150023841858,4.60896,15.06150023841858C4.60896,15.06150023841858,4.60896,15.06150023841858,4.60896,15.06150023841858ZM4,12.000000238418579C4,9.878270338418579,4.84285,7.843440338418579,6.3431499,6.343150138418579C6.3431499,6.343150138418579,4.92893,4.928930238418579,4.92893,4.928930238418579C3.053568199,6.804300338418579,2,9.347840038418578,2,12.000000238418579C2,12.000000238418579,4,12.000000238418579,4,12.000000238418579C4,12.000000238418579,4,12.000000238418579,4,12.000000238418579ZM6.3431499,6.343150138418579C7.8434401,4.842850238418579,9.8782701,4.000000238418579,12,4.000000238418579C12,4.000000238418579,12,2.000000238418579,12,2.000000238418579C9.3478398,2.000000238418579,6.8043001,3.053568739418579,4.92893,4.928930238418579C4.92893,4.928930238418579,6.3431499,6.343150138418579,6.3431499,6.343150138418579C6.3431499,6.343150138418579,6.3431499,6.343150138418579,6.3431499,6.343150138418579ZM12,4.000000238418579C14.1217,4.000000238418579,16.156599999999997,4.842850238418579,17.6569,6.343150138418579C17.6569,6.343150138418579,19.0711,4.928930238418579,19.0711,4.928930238418579C17.195700000000002,3.053568840418579,14.6522,2.000000238418579,12,2.000000238418579C12,2.000000238418579,12,4.000000238418579,12,4.000000238418579C12,4.000000238418579,12,4.000000238418579,12,4.000000238418579ZM17.6569,6.343150138418579C19.157101,7.843440338418579,20,9.878270338418579,20,12.000000238418579C20,12.000000238418579,22,12.000000238418579,22,12.000000238418579C22,9.347840038418578,20.9464,6.804300338418579,19.0711,4.928930238418579C19.0711,4.928930238418579,17.6569,6.343150138418579,17.6569,6.343150138418579C17.6569,6.343150138418579,17.6569,6.343150138418579,17.6569,6.343150138418579Z" fill="#0A0A28" fill-opacity="1"/></g></svg>