<svg xmlns="http://www.w3.org/2000/svg" xmlns:xlink="http://www.w3.org/1999/xlink" fill="none" version="1.1" width="24" height="24" viewBox="0 0 24 24"><defs><clipPath id="master_svg0_3_2068"><rect x="0" y="0" width="24" height="24" rx="0"/></clipPath></defs><g clip-path="url(#master_svg0_3_2068)"><path d="M9,6.000000238418579C8.4477201,6.000000238418579,8,6.447720338418579,8,7.000000238418579C8,7.552280138418579,8.4477201,8.000000238418579,9,8.000000238418579C9,8.000000238418579,9,6.000000238418579,9,6.000000238418579C9,6.000000238418579,9,6.000000238418579,9,6.000000238418579ZM16,14.000000238418579C16,13.447700238418578,15.5523,13.000000238418579,15,13.000000238418579C14.4477,13.000000238418579,14,13.447700238418578,14,14.000000238418579C14,14.000000238418579,16,14.000000238418579,16,14.000000238418579C16,14.000000238418579,16,14.000000238418579,16,14.000000238418579ZM9,10.000000238418579C8.4477201,10.000000238418579,8,10.447720338418579,8,11.000000238418579C8,11.552290238418578,8.4477201,12.000000238418579,9,12.000000238418579C9,12.000000238418579,9,10.000000238418579,9,10.000000238418579C9,10.000000238418579,9,10.000000238418579,9,10.000000238418579ZM15,12.000000238418579C15.5523,12.000000238418579,16,11.552290238418578,16,11.000000238418579C16,10.447720338418579,15.5523,10.000000238418579,15,10.000000238418579C15,10.000000238418579,15,12.000000238418579,15,12.000000238418579C15,12.000000238418579,15,12.000000238418579,15,12.000000238418579ZM12,3.000000238418579C12,3.000000238418579,12,4.000000238418579,12,4.000000238418579C12,4.000000238418579,12,3.000000238418579,12,3.000000238418579C12,3.000000238418579,12,3.000000238418579,12,3.000000238418579ZM12,11.000000238418579C12,11.000000238418579,12,9.000000238418579,12,9.000000238418579C12,9.000000238418579,10,9.000000238418579,10,9.000000238418579C10,9.000000238418579,10,11.000000238418579,10,11.000000238418579C10,11.000000238418579,12,11.000000238418579,12,11.000000238418579C12,11.000000238418579,12,11.000000238418579,12,11.000000238418579ZM12,9.000000238418579C12,8.204350238418579,11.6839304,7.441290138418579,11.1213198,6.878680238418579C11.1213198,6.878680238418579,9.707109899999999,8.29289033841858,9.707109899999999,8.29289033841858C9.894639999999999,8.480430338418579,10,8.73478003841858,10,9.000000238418579C10,9.000000238418579,12,9.000000238418579,12,9.000000238418579C12,9.000000238418579,12,9.000000238418579,12,9.000000238418579ZM11.1213198,6.878680238418579C10.558710099999999,6.316070338418579,9.79565,6.000000238418579,9,6.000000238418579C9,6.000000238418579,9,8.000000238418579,9,8.000000238418579C9.2652202,8.000000238418579,9.5195699,8.10536023841858,9.707109899999999,8.29289033841858C9.707109899999999,8.29289033841858,11.1213198,6.878680238418579,11.1213198,6.878680238418579C11.1213198,6.878680238418579,11.1213198,6.878680238418579,11.1213198,6.878680238418579ZM10,11.000000238418579C10,11.000000238418579,10,15.000000238418579,10,15.000000238418579C10,15.000000238418579,12,15.000000238418579,12,15.000000238418579C12,15.000000238418579,12,11.000000238418579,12,11.000000238418579C12,11.000000238418579,10,11.000000238418579,10,11.000000238418579C10,11.000000238418579,10,11.000000238418579,10,11.000000238418579ZM10,15.000000238418579C10,15.79570023841858,10.316070100000001,16.55870023841858,10.8786802,17.121300238418577C10.8786802,17.121300238418577,12.2928896,15.70710023841858,12.2928896,15.70710023841858C12.10536,15.51960023841858,12,15.26520023841858,12,15.000000238418579C12,15.000000238418579,10,15.000000238418579,10,15.000000238418579C10,15.000000238418579,10,15.000000238418579,10,15.000000238418579ZM10.8786802,17.121300238418577C11.4412899,17.68390023841858,12.2043505,18.00000023841858,13,18.00000023841858C13,18.00000023841858,13,16.00000023841858,13,16.00000023841858C12.7347803,16.00000023841858,12.4804296,15.89460023841858,12.2928896,15.70710023841858C12.2928896,15.70710023841858,10.8786802,17.121300238418577,10.8786802,17.121300238418577C10.8786802,17.121300238418577,10.8786802,17.121300238418577,10.8786802,17.121300238418577ZM13,18.00000023841858C13.7957,18.00000023841858,14.5587,17.68390023841858,15.1213,17.121300238418577C15.1213,17.121300238418577,13.7071,15.70710023841858,13.7071,15.70710023841858C13.5196,15.89460023841858,13.2652,16.00000023841858,13,16.00000023841858C13,16.00000023841858,13,18.00000023841858,13,18.00000023841858C13,18.00000023841858,13,18.00000023841858,13,18.00000023841858ZM15.1213,17.121300238418577C15.6839,16.55870023841858,16,15.79570023841858,16,15.000000238418579C16,15.000000238418579,14,15.000000238418579,14,15.000000238418579C14,15.26520023841858,13.8946,15.51960023841858,13.7071,15.70710023841858C13.7071,15.70710023841858,15.1213,17.121300238418577,15.1213,17.121300238418577C15.1213,17.121300238418577,15.1213,17.121300238418577,15.1213,17.121300238418577ZM16,15.000000238418579C16,15.000000238418579,16,14.000000238418579,16,14.000000238418579C16,14.000000238418579,14,14.000000238418579,14,14.000000238418579C14,14.000000238418579,14,15.000000238418579,14,15.000000238418579C14,15.000000238418579,16,15.000000238418579,16,15.000000238418579C16,15.000000238418579,16,15.000000238418579,16,15.000000238418579ZM11,10.000000238418579C11,10.000000238418579,9,10.000000238418579,9,10.000000238418579C9,10.000000238418579,9,12.000000238418579,9,12.000000238418579C9,12.000000238418579,11,12.000000238418579,11,12.000000238418579C11,12.000000238418579,11,10.000000238418579,11,10.000000238418579C11,10.000000238418579,11,10.000000238418579,11,10.000000238418579ZM11,12.000000238418579C11,12.000000238418579,15,12.000000238418579,15,12.000000238418579C15,12.000000238418579,15,10.000000238418579,15,10.000000238418579C15,10.000000238418579,11,10.000000238418579,11,10.000000238418579C11,10.000000238418579,11,12.000000238418579,11,12.000000238418579C11,12.000000238418579,11,12.000000238418579,11,12.000000238418579ZM20,12.000000238418579C20,13.050600238418578,19.7931,14.090900238418579,19.391001,15.06150023841858C19.391001,15.06150023841858,21.2388,15.82680023841858,21.2388,15.82680023841858C21.741301,14.613600238418579,22,13.31320023841858,22,12.000000238418579C22,12.000000238418579,20,12.000000238418579,20,12.000000238418579C20,12.000000238418579,20,12.000000238418579,20,12.000000238418579ZM19.391001,15.06150023841858C18.989,16.03210023841858,18.3997,16.91400023841858,17.6569,17.65690023841858C17.6569,17.65690023841858,19.0711,19.07110023841858,19.0711,19.07110023841858C19.999701,18.142500238418577,20.7362,17.04010023841858,21.2388,15.82680023841858C21.2388,15.82680023841858,19.391001,15.06150023841858,19.391001,15.06150023841858C19.391001,15.06150023841858,19.391001,15.06150023841858,19.391001,15.06150023841858ZM17.6569,17.65690023841858C16.914,18.39970023841858,16.0321,18.98900023841858,15.0615,19.39100123841858C15.0615,19.39100123841858,15.8268,21.23880023841858,15.8268,21.23880023841858C17.040100000000002,20.73620023841858,18.1425,19.99970123841858,19.0711,19.07110023841858C19.0711,19.07110023841858,17.6569,17.65690023841858,17.6569,17.65690023841858C17.6569,17.65690023841858,17.6569,17.65690023841858,17.6569,17.65690023841858ZM15.0615,19.39100123841858C14.0909,19.793100238418578,13.0506,20.00000023841858,12,20.00000023841858C12,20.00000023841858,12,22.00000023841858,12,22.00000023841858C13.3132,22.00000023841858,14.6136,21.74130123841858,15.8268,21.23880023841858C15.8268,21.23880023841858,15.0615,19.39100123841858,15.0615,19.39100123841858C15.0615,19.39100123841858,15.0615,19.39100123841858,15.0615,19.39100123841858ZM12,20.00000023841858C10.94942,20.00000023841858,9.9091401,19.793100238418578,8.93853,19.39100123841858C8.93853,19.39100123841858,8.1731701,21.23880023841858,8.1731701,21.23880023841858C9.386419799999999,21.74130123841858,10.686779999999999,22.00000023841858,12,22.00000023841858C12,22.00000023841858,12,20.00000023841858,12,20.00000023841858C12,20.00000023841858,12,20.00000023841858,12,20.00000023841858ZM8.93853,19.39100123841858C7.9679298,18.98900023841858,7.08601,18.39970023841858,6.3431499,17.65690023841858C6.3431499,17.65690023841858,4.92893,19.07110023841858,4.92893,19.07110023841858C5.8575201,19.99970123841858,6.9599098999999995,20.73620023841858,8.1731701,21.23880023841858C8.1731701,21.23880023841858,8.93853,19.39100123841858,8.93853,19.39100123841858C8.93853,19.39100123841858,8.93853,19.39100123841858,8.93853,19.39100123841858ZM6.3431499,17.65690023841858C5.60028,16.91400023841858,5.0109999,16.03210023841858,4.60896,15.06150023841858C4.60896,15.06150023841858,2.761205,15.82680023841858,2.761205,15.82680023841858C3.26375201,17.04010023841858,4.00035,18.142500238418577,4.92893,19.07110023841858C4.92893,19.07110023841858,6.3431499,17.65690023841858,6.3431499,17.65690023841858C6.3431499,17.65690023841858,6.3431499,17.65690023841858,6.3431499,17.65690023841858ZM4.60896,15.06150023841858C4.20693,14.090900238418579,4,13.050600238418578,4,12.000000238418579C4,12.000000238418579,2,12.000000238418579,2,12.000000238418579C2,13.31320023841858,2.25865799,14.613600238418579,2.761205,15.82680023841858C2.761205,15.82680023841858,4.60896,15.06150023841858,4.60896,15.06150023841858C4.60896,15.06150023841858,4.60896,15.06150023841858,4.60896,15.06150023841858ZM4,12.000000238418579C4,9.878270338418579,4.84285,7.843440338418579,6.3431499,6.343150138418579C6.3431499,6.343150138418579,4.92893,4.928930238418579,4.92893,4.928930238418579C3.053568199,6.804300338418579,2,9.347840038418578,2,12.000000238418579C2,12.000000238418579,4,12.000000238418579,4,12.000000238418579C4,12.000000238418579,4,12.000000238418579,4,12.000000238418579ZM6.3431499,6.343150138418579C7.8434401,4.842850238418579,9.8782701,4.000000238418579,12,4.000000238418579C12,4.000000238418579,12,2.000000238418579,12,2.000000238418579C9.3478398,2.000000238418579,6.8043001,3.053568739418579,4.92893,4.928930238418579C4.92893,4.928930238418579,6.3431499,6.343150138418579,6.3431499,6.343150138418579C6.3431499,6.343150138418579,6.3431499,6.343150138418579,6.3431499,6.343150138418579ZM12,4.000000238418579C14.1217,4.000000238418579,16.156599999999997,4.842850238418579,17.6569,6.343150138418579C17.6569,6.343150138418579,19.0711,4.928930238418579,19.0711,4.928930238418579C17.195700000000002,3.053568840418579,14.6522,2.000000238418579,12,2.000000238418579C12,2.000000238418579,12,4.000000238418579,12,4.000000238418579C12,4.000000238418579,12,4.000000238418579,12,4.000000238418579ZM17.6569,6.343150138418579C19.157101,7.843440338418579,20,9.878270338418579,20,12.000000238418579C20,12.000000238418579,22,12.000000238418579,22,12.000000238418579C22,9.347840038418578,20.9464,6.804300338418579,19.0711,4.928930238418579C19.0711,4.928930238418579,17.6569,6.343150138418579,17.6569,6.343150138418579C17.6569,6.343150138418579,17.6569,6.343150138418579,17.6569,6.343150138418579Z" fill="#0A0A28" fill-opacity="1"/></g></svg>