<svg xmlns="http://www.w3.org/2000/svg" xmlns:xlink="http://www.w3.org/1999/xlink" fill="none" version="1.1" width="24" height="24" viewBox="0 0 24 24"><defs><clipPath id="master_svg0_3_1661"><rect x="0" y="0" width="24" height="24" rx="0"/></clipPath></defs><g clip-path="url(#master_svg0_3_1661)"><path d="M14.9785,16.05040023841858C15.2626,15.57680023841858,15.109,14.96260023841858,14.6354,14.678500238418579C14.1618,14.394400238418578,13.5476,14.54800023841858,13.2635,15.021600238418578C13.2635,15.021600238418578,14.9785,16.05040023841858,14.9785,16.05040023841858C14.9785,16.05040023841858,14.9785,16.05040023841858,14.9785,16.05040023841858ZM9.8790002,15.536000238418579C9.8790002,15.536000238418579,9.0215502,16.05060023841858,9.0215502,16.05060023841858C9.0215502,16.05060023841858,9.0216599,16.05080023841858,9.0216599,16.05080023841858C9.0216599,16.05080023841858,9.8790002,15.536000238418579,9.8790002,15.536000238418579C9.8790002,15.536000238418579,9.8790002,15.536000238418579,9.8790002,15.536000238418579ZM9.8790002,8.46400043841858C9.8790002,8.46400043841858,10.7364502,8.978560238418579,10.7364502,8.978560238418579C10.7364502,8.978560238418579,10.7365298,8.97843003841858,10.7365298,8.97843003841858C10.7365298,8.97843003841858,9.8790002,8.46400043841858,9.8790002,8.46400043841858C9.8790002,8.46400043841858,9.8790002,8.46400043841858,9.8790002,8.46400043841858ZM13.2637,8.97875043841858C13.548,9.452250238418578,14.1623,9.60563013841858,14.6358,9.32134033841858C15.1092,9.03705003841858,15.2626,8.42274023841858,14.9783,7.949250438418579C14.9783,7.949250438418579,13.2637,8.97875043841858,13.2637,8.97875043841858C13.2637,8.97875043841858,13.2637,8.97875043841858,13.2637,8.97875043841858ZM8,9.500000238418579C7.4477201,9.500000238418579,7,9.947720338418579,7,10.500000238418579C7,11.052290238418578,7.4477201,11.500000238418579,8,11.500000238418579C8,11.500000238418579,8,9.500000238418579,8,9.500000238418579C8,9.500000238418579,8,9.500000238418579,8,9.500000238418579ZM12,11.500000238418579C12.55229,11.500000238418579,13,11.052290238418578,13,10.500000238418579C13,9.947720338418579,12.55229,9.500000238418579,12,9.500000238418579C12,9.500000238418579,12,11.500000238418579,12,11.500000238418579C12,11.500000238418579,12,11.500000238418579,12,11.500000238418579ZM8,12.500000238418579C7.4477201,12.500000238418579,7,12.94771023841858,7,13.500000238418579C7,14.05230023841858,7.4477201,14.500000238418579,8,14.500000238418579C8,14.500000238418579,8,12.500000238418579,8,12.500000238418579C8,12.500000238418579,8,12.500000238418579,8,12.500000238418579ZM12,14.500000238418579C12.55229,14.500000238418579,13,14.05230023841858,13,13.500000238418579C13,12.94771023841858,12.55229,12.500000238418579,12,12.500000238418579C12,12.500000238418579,12,14.500000238418579,12,14.500000238418579C12,14.500000238418579,12,14.500000238418579,12,14.500000238418579ZM12,3.000000238418579C12,3.000000238418579,12,4.000000238418579,12,4.000000238418579C12,4.000000238418579,12,3.000000238418579,12,3.000000238418579C12,3.000000238418579,12,3.000000238418579,12,3.000000238418579ZM13.2635,15.021600238418578C12.7920303,15.807400238418579,12.3040705,16.00000023841858,12.00037,16.00000023841858C11.6965704,16.00000023841858,11.2082996,15.807300238418579,10.73634,15.02120023841858C10.73634,15.02120023841858,9.0216599,16.05080023841858,9.0216599,16.05080023841858C9.7217002,17.21670023841858,10.768930000000001,18.00000023841858,12.00037,18.00000023841858C13.2319,18.00000023841858,14.279,17.21660023841858,14.9785,16.05040023841858C14.9785,16.05040023841858,13.2635,15.021600238418578,13.2635,15.021600238418578C13.2635,15.021600238418578,13.2635,15.021600238418578,13.2635,15.021600238418578ZM10.7364502,15.021400238418579C10.2648902,14.235600238418579,10,13.14460023841858,10,12.000000238418579C10,10.855440338418578,10.2648902,9.764370238418579,10.7364502,8.978560238418579C10.7364502,8.978560238418579,9.0215502,7.949440238418579,9.0215502,7.949440238418579C8.3211098,9.11663033841858,8,10.585060338418579,8,12.000000238418579C8,13.414900238418578,8.3211098,14.883400238418579,9.0215502,16.05060023841858C9.0215502,16.05060023841858,10.7364502,15.021400238418579,10.7364502,15.021400238418579C10.7364502,15.021400238418579,10.7364502,15.021400238418579,10.7364502,15.021400238418579ZM10.7365298,8.97843003841858C11.2079697,8.192560438418578,11.6959295,8.000000238418579,11.99963,8.000000238418579C12.3034296,8.000000238418579,12.7917004,8.19269013841858,13.2637,8.97875043841858C13.2637,8.97875043841858,14.9783,7.949250438418579,14.9783,7.949250438418579C14.2783,6.783310138418579,13.2311,6.000000238418579,11.99963,6.000000238418579C10.7680702,6.000000238418579,9.721030200000001,6.783440338418579,9.0214701,7.949570438418579C9.0214701,7.949570438418579,10.7365298,8.97843003841858,10.7365298,8.97843003841858C10.7365298,8.97843003841858,10.7365298,8.97843003841858,10.7365298,8.97843003841858ZM8,11.500000238418579C8,11.500000238418579,12,11.500000238418579,12,11.500000238418579C12,11.500000238418579,12,9.500000238418579,12,9.500000238418579C12,9.500000238418579,8,9.500000238418579,8,9.500000238418579C8,9.500000238418579,8,11.500000238418579,8,11.500000238418579C8,11.500000238418579,8,11.500000238418579,8,11.500000238418579ZM8,14.500000238418579C8,14.500000238418579,12,14.500000238418579,12,14.500000238418579C12,14.500000238418579,12,12.500000238418579,12,12.500000238418579C12,12.500000238418579,8,12.500000238418579,8,12.500000238418579C8,12.500000238418579,8,14.500000238418579,8,14.500000238418579C8,14.500000238418579,8,14.500000238418579,8,14.500000238418579ZM20,12.000000238418579C20,13.050600238418578,19.7931,14.090900238418579,19.391001,15.06150023841858C19.391001,15.06150023841858,21.2388,15.82680023841858,21.2388,15.82680023841858C21.741301,14.613600238418579,22,13.31320023841858,22,12.000000238418579C22,12.000000238418579,20,12.000000238418579,20,12.000000238418579C20,12.000000238418579,20,12.000000238418579,20,12.000000238418579ZM19.391001,15.06150023841858C18.989,16.03210023841858,18.3997,16.91400023841858,17.6569,17.65690023841858C17.6569,17.65690023841858,19.0711,19.07110023841858,19.0711,19.07110023841858C19.999701,18.142500238418577,20.7362,17.04010023841858,21.2388,15.82680023841858C21.2388,15.82680023841858,19.391001,15.06150023841858,19.391001,15.06150023841858C19.391001,15.06150023841858,19.391001,15.06150023841858,19.391001,15.06150023841858ZM17.6569,17.65690023841858C16.914,18.39970023841858,16.0321,18.98900023841858,15.0615,19.39100123841858C15.0615,19.39100123841858,15.8268,21.23880023841858,15.8268,21.23880023841858C17.040100000000002,20.73620023841858,18.1425,19.99970123841858,19.0711,19.07110023841858C19.0711,19.07110023841858,17.6569,17.65690023841858,17.6569,17.65690023841858C17.6569,17.65690023841858,17.6569,17.65690023841858,17.6569,17.65690023841858ZM15.0615,19.39100123841858C14.0909,19.793100238418578,13.0506,20.00000023841858,12,20.00000023841858C12,20.00000023841858,12,22.00000023841858,12,22.00000023841858C13.3132,22.00000023841858,14.6136,21.74130123841858,15.8268,21.23880023841858C15.8268,21.23880023841858,15.0615,19.39100123841858,15.0615,19.39100123841858C15.0615,19.39100123841858,15.0615,19.39100123841858,15.0615,19.39100123841858ZM12,20.00000023841858C10.94942,20.00000023841858,9.9091401,19.793100238418578,8.93853,19.39100123841858C8.93853,19.39100123841858,8.1731701,21.23880023841858,8.1731701,21.23880023841858C9.386419799999999,21.74130123841858,10.686779999999999,22.00000023841858,12,22.00000023841858C12,22.00000023841858,12,20.00000023841858,12,20.00000023841858C12,20.00000023841858,12,20.00000023841858,12,20.00000023841858ZM8.93853,19.39100123841858C7.9679298,18.98900023841858,7.08601,18.39970023841858,6.3431499,17.65690023841858C6.3431499,17.65690023841858,4.92893,19.07110023841858,4.92893,19.07110023841858C5.8575201,19.99970123841858,6.9599098999999995,20.73620023841858,8.1731701,21.23880023841858C8.1731701,21.23880023841858,8.93853,19.39100123841858,8.93853,19.39100123841858C8.93853,19.39100123841858,8.93853,19.39100123841858,8.93853,19.39100123841858ZM6.3431499,17.65690023841858C5.60028,16.91400023841858,5.0109999,16.03210023841858,4.60896,15.06150023841858C4.60896,15.06150023841858,2.761205,15.82680023841858,2.761205,15.82680023841858C3.26375201,17.04010023841858,4.00035,18.142500238418577,4.92893,19.07110023841858C4.92893,19.07110023841858,6.3431499,17.65690023841858,6.3431499,17.65690023841858C6.3431499,17.65690023841858,6.3431499,17.65690023841858,6.3431499,17.65690023841858ZM4.60896,15.06150023841858C4.20693,14.090900238418579,4,13.050600238418578,4,12.000000238418579C4,12.000000238418579,2,12.000000238418579,2,12.000000238418579C2,13.31320023841858,2.25865799,14.613600238418579,2.761205,15.82680023841858C2.761205,15.82680023841858,4.60896,15.06150023841858,4.60896,15.06150023841858C4.60896,15.06150023841858,4.60896,15.06150023841858,4.60896,15.06150023841858ZM4,12.000000238418579C4,9.878270338418579,4.84285,7.843440338418579,6.3431499,6.343150138418579C6.3431499,6.343150138418579,4.92893,4.928930238418579,4.92893,4.928930238418579C3.053568199,6.804300338418579,2,9.347840038418578,2,12.000000238418579C2,12.000000238418579,4,12.000000238418579,4,12.000000238418579C4,12.000000238418579,4,12.000000238418579,4,12.000000238418579ZM6.3431499,6.343150138418579C7.8434401,4.842850238418579,9.8782701,4.000000238418579,12,4.000000238418579C12,4.000000238418579,12,2.000000238418579,12,2.000000238418579C9.3478398,2.000000238418579,6.8043001,3.053568739418579,4.92893,4.928930238418579C4.92893,4.928930238418579,6.3431499,6.343150138418579,6.3431499,6.343150138418579C6.3431499,6.343150138418579,6.3431499,6.343150138418579,6.3431499,6.343150138418579ZM12,4.000000238418579C14.1217,4.000000238418579,16.156599999999997,4.842850238418579,17.6569,6.343150138418579C17.6569,6.343150138418579,19.0711,4.928930238418579,19.0711,4.928930238418579C17.195700000000002,3.053568840418579,14.6522,2.000000238418579,12,2.000000238418579C12,2.000000238418579,12,4.000000238418579,12,4.000000238418579C12,4.000000238418579,12,4.000000238418579,12,4.000000238418579ZM17.6569,6.343150138418579C19.157101,7.843440338418579,20,9.878270338418579,20,12.000000238418579C20,12.000000238418579,22,12.000000238418579,22,12.000000238418579C22,9.347840038418578,20.9464,6.804300338418579,19.0711,4.928930238418579C19.0711,4.928930238418579,17.6569,6.343150138418579,17.6569,6.343150138418579C17.6569,6.343150138418579,17.6569,6.343150138418579,17.6569,6.343150138418579Z" fill="#0A0A28" fill-opacity="1"/></g></svg>