<svg xmlns="http://www.w3.org/2000/svg" xmlns:xlink="http://www.w3.org/1999/xlink" fill="none" version="1.1" width="24" height="24" viewBox="0 0 24 24"><defs><clipPath id="master_svg0_3_1445"><rect x="0" y="0" width="24" height="24" rx="0"/></clipPath></defs><g clip-path="url(#master_svg0_3_1445)"><path d="M3.5999755859375,14.4000244140625C3.5999755859375,14.4000244140625,3.5999755859375,18.0000245140625,3.5999755859375,18.0000245140625C3.5999755859375,19.9884248140625,7.3607756859375,21.6000247140625,11.9999761859375,21.6000247140625C16.6391765859375,21.6000247140625,20.3999765859375,19.9884248140625,20.3999765859375,18.0000245140625C20.3999765859375,18.0000245140625,20.3999765859375,14.4000244140625,20.3999765859375,14.4000244140625C20.3999765859375,16.3884244140625,16.6391765859375,18.0000245140625,11.9999761859375,18.0000245140625C7.3607756859375,18.0000245140625,3.5999755859375,16.3884244140625,3.5999755859375,14.4000244140625C3.5999755859375,14.4000244140625,3.5999755859375,14.4000244140625,3.5999755859375,14.4000244140625Z" fill="#0A0A28" fill-opacity="1"/><path d="M3.5999755859375,8.4000244140625C3.5999755859375,8.4000244140625,3.5999755859375,12.000024514062499,3.5999755859375,12.000024514062499C3.5999755859375,13.988424814062501,7.3607756859375,15.6000247140625,11.9999761859375,15.6000247140625C16.6391765859375,15.6000247140625,20.3999765859375,13.988424814062501,20.3999765859375,12.000024514062499C20.3999765859375,12.000024514062499,20.3999765859375,8.4000244140625,20.3999765859375,8.4000244140625C20.3999765859375,10.3884244140625,16.6391765859375,12.000024514062499,11.9999761859375,12.000024514062499C7.3607756859375,12.000024514062499,3.5999755859375,10.3884244140625,3.5999755859375,8.4000244140625C3.5999755859375,8.4000244140625,3.5999755859375,8.4000244140625,3.5999755859375,8.4000244140625Z" fill="#0A0A28" fill-opacity="1"/><path d="M20.3999765859375,6.0000245140625C20.3999765859375,7.9884248140625,16.6391765859375,9.6000247140625,11.9999761859375,9.6000247140625C7.3607756859375,9.6000247140625,3.5999755859375,7.9884248140625,3.5999755859375,6.0000245140625C3.5999755859375,4.0116246140625,7.3607756859375,2.4000244140625,11.9999761859375,2.4000244140625C16.6391765859375,2.4000244140625,20.3999765859375,4.0116246140625,20.3999765859375,6.0000245140625C20.3999765859375,6.0000245140625,20.3999765859375,6.0000245140625,20.3999765859375,6.0000245140625Z" fill="#0A0A28" fill-opacity="1"/></g></svg>