<svg xmlns="http://www.w3.org/2000/svg" xmlns:xlink="http://www.w3.org/1999/xlink" fill="none" version="1.1" width="24" height="24" viewBox="0 0 24 24"><defs><clipPath id="master_svg0_3_1969"><rect x="0" y="0" width="24" height="24" rx="0"/></clipPath></defs><g clip-path="url(#master_svg0_3_1969)"><path d="M21,12C21,11.44771,20.552299,11,20,11C19.447699999999998,11,19,11.44771,19,12C19,12,21,12,21,12C21,12,21,12,21,12ZM5,12C5,11.44771,4.55228502,11,4,11C3.4477149799999998,11,3,11.44771,3,12C3,12,5,12,5,12C5,12,5,12,5,12ZM3,7C3,7,3,17,3,17C3,17,5,17,5,17C5,17,5,7,5,7C5,7,3,7,3,7C3,7,3,7,3,7ZM3,17C3,18.6878,4.34193501,19.946301,5.8961,20.7232C7.5099800000000005,21.530001,9.6694899,22,12,22C12,22,12,20,12,20C9.9125099,20,8.0720201,19.575001,6.7904,18.9343C5.44906,18.2637,5,17.522199999999998,5,17C5,17,3,17,3,17C3,17,3,17,3,17ZM12,22C14.3305,22,16.490000000000002,21.530001,18.1039,20.7232C19.658099999999997,19.946301,21,18.6878,21,17C21,17,19,17,19,17C19,17.522199999999998,18.5509,18.2637,17.209600000000002,18.9343C15.928,19.575001,14.0875,20,12,20C12,20,12,22,12,22C12,22,12,22,12,22ZM21,17C21,17,21,7,21,7C21,7,19,7,19,7C19,7,19,17,19,17C19,17,21,17,21,17C21,17,21,17,21,17ZM3,7C3,8.6877999,4.34193501,9.946259999999999,5.8961,10.7232099C7.5099800000000005,11.5300102,9.6694899,12,12,12C12,12,12,10,12,10C9.9125099,10,8.0720201,9.5749898,6.7904,8.9342899C5.44906,8.2637401,5,7.5222001,5,7C5,7,3,7,3,7C3,7,3,7,3,7ZM12,12C14.3305,12,16.490000000000002,11.5300102,18.1039,10.7232099C19.658099999999997,9.946259999999999,21,8.6877999,21,7C21,7,19,7,19,7C19,7.5222001,18.5509,8.2637401,17.209600000000002,8.9342899C15.928,9.5749898,14.0875,10,12,10C12,10,12,12,12,12C12,12,12,12,12,12ZM5,7C5,6.4777999,5.44906,5.7362599,6.7904,5.0657101C8.0720201,4.42501,9.9125099,4,12,4C12,4,12,2,12,2C9.6694899,2,7.5099800000000005,2.46998799,5.8961,3.27679199C4.34193501,4.0537399999999995,3,5.3122001,3,7C3,7,5,7,5,7C5,7,5,7,5,7ZM12,4C14.0875,4,15.928,4.42501,17.209600000000002,5.0657101C18.5509,5.7362599,19,6.4777999,19,7C19,7,21,7,21,7C21,5.3122001,19.658099999999997,4.0537399999999995,18.1039,3.27679199C16.490000000000002,2.46998799,14.3305,2,12,2C12,2,12,4,12,4C12,4,12,4,12,4ZM19,12C19,12.5221996,18.5509,13.2637,17.209600000000002,13.9343C15.928,14.575,14.0875,15,12,15C12,15,12,17,12,17C14.3305,17,16.490000000000002,16.53,18.1039,15.7232C19.658099999999997,14.9463,21,13.6878,21,12C21,12,19,12,19,12C19,12,19,12,19,12ZM12,15C9.9125099,15,8.0720201,14.575,6.7904,13.9343C5.44906,13.2637,5,12.5221996,5,12C5,12,3,12,3,12C3,13.6878,4.34193501,14.9463,5.8961,15.7232C7.5099800000000005,16.53,9.6694899,17,12,17C12,17,12,15,12,15C12,15,12,15,12,15Z" fill="#0A0A28" fill-opacity="1"/></g></svg>