<svg xmlns="http://www.w3.org/2000/svg" xmlns:xlink="http://www.w3.org/1999/xlink" fill="none" version="1.1" width="24" height="24" viewBox="0 0 24 24"><defs><clipPath id="master_svg0_3_1864"><rect x="0" y="0" width="24" height="24" rx="0"/></clipPath></defs><g clip-path="url(#master_svg0_3_1864)"><path d="M3.5999755859375,5.9999756859375C3.5999755859375,5.3634596859375,3.8528324059375,4.7530064859375,4.3029187959375,4.3029187959375C4.7530064859375,3.8528324059375,5.3634596859375,3.5999755859375004,5.9999756859375,3.5999755859375C5.9999756859375,3.5999755859375,17.9999765859375,3.5999755859375,17.9999765859375,3.5999755859375C18.636456585937502,3.5999755859375004,19.2468955859375,3.8528324059375,19.6970155859375,4.3029187959375C20.1471365859375,4.7530064859375,20.3999765859375,5.3634596859375,20.3999765859375,5.9999756859375C20.3999765859375,5.9999756859375,20.3999765859375,15.5999755859375,20.3999765859375,15.5999755859375C20.3999765859375,16.2364565859375,20.1471365859375,16.8468965859375,19.6970155859375,17.2970165859375C19.2468955859375,17.7471365859375,18.636456585937502,17.9999765859375,17.9999765859375,17.9999765859375C17.9999765859375,17.9999765859375,15.3359755859375,17.9999765859375,15.3359755859375,17.9999765859375C15.3359755859375,17.9999765859375,15.4835755859375,18.5867765859375,15.4835755859375,18.5867765859375C15.4835755859375,18.5867765859375,16.448375585937498,19.5515765859375,16.448375585937498,19.5515765859375C16.6161355859375,19.7194575859375,16.7303765859375,19.9331755859375,16.7766965859375,20.1659775859375C16.823016585937502,20.3986565859375,16.7991365859375,20.6399765859375,16.7084165859375,20.8592165859375C16.6175755859375,21.0784565859375,16.4638565859375,21.2657775859375,16.266575585937503,21.3976555859375C16.0691755859375,21.5295375859375,15.8373355859375,21.5999755859375,15.5999755859375,21.5999755859375C15.5999755859375,21.5999755859375,8.3999757859375,21.5999755859375,8.3999757859375,21.5999755859375C8.1626758859375,21.5999755859375,7.9307155859375,21.5295375859375,7.7334236859375,21.3976555859375C7.5361315859375,21.2657775859375,7.3823635859375,21.0784565859375,7.2915596859375,20.8592165859375C7.2007555859375,20.6399765859375,7.1769957859375,20.3986565859375,7.2232796859375,20.1659775859375C7.2695517859375,19.9331755859375,7.3838035859375,19.7194575859375,7.5515756859375,19.5515765859375C7.5515756859375,19.5515765859375,8.5163759859375,18.5867765859375,8.5163759859375,18.5867765859375C8.5163759859375,18.5867765859375,8.663975685937501,17.9999765859375,8.663975685937501,17.9999765859375C8.663975685937501,17.9999765859375,5.9999756859375,17.9999765859375,5.9999756859375,17.9999765859375C5.3634596859375,17.9999765859375,4.7530064859375,17.7471365859375,4.3029187959375,17.2970165859375C3.8528324059375,16.8468965859375,3.5999755859375004,16.2364565859375,3.5999755859375,15.5999755859375C3.5999755859375,15.5999755859375,3.5999755859375,5.9999756859375,3.5999755859375,5.9999756859375C3.5999755859375,5.9999756859375,3.5999755859375,5.9999756859375,3.5999755859375,5.9999756859375ZM10.5251755859375,14.3999755859375C10.5251755859375,14.3999755859375,5.9999756859375,14.3999755859375,5.9999756859375,14.3999755859375C5.9999756859375,14.3999755859375,5.9999756859375,5.9999756859375,5.9999756859375,5.9999756859375C5.9999756859375,5.9999756859375,17.9999765859375,5.9999756859375,17.9999765859375,5.9999756859375C17.9999765859375,5.9999756859375,17.9999765859375,14.3999755859375,17.9999765859375,14.3999755859375C17.9999765859375,14.3999755859375,10.5251755859375,14.3999755859375,10.5251755859375,14.3999755859375C10.5251755859375,14.3999755859375,10.5251755859375,14.3999755859375,10.5251755859375,14.3999755859375Z" fill-rule="evenodd" fill="#0A0A28" fill-opacity="1"/></g></svg>