<svg xmlns="http://www.w3.org/2000/svg" xmlns:xlink="http://www.w3.org/1999/xlink" fill="none" version="1.1" width="24" height="24" viewBox="0 0 24 24"><defs><clipPath id="master_svg0_3_2176"><rect x="0" y="0" width="24" height="24" rx="0"/></clipPath></defs><g clip-path="url(#master_svg0_3_2176)"><path d="M9.75,17C9.75,17,9.75,16,9.75,16C9.2911301,16,8.89115,16.3123,8.77986,16.7575C8.77986,16.7575,9.75,17,9.75,17C9.75,17,9.75,17,9.75,17ZM9,20C9,20,9.707109899999999,20.7071,9.707109899999999,20.7071C9.8352699,20.578899,9.926179900000001,20.4184,9.97014,20.2425C9.97014,20.2425,9,20,9,20C9,20,9,20,9,20ZM8,21C8,21,7.2928901,20.2929,7.2928901,20.2929C7.0068998,20.578899,6.92134,21.009001,7.0761199,21.3827C7.2308998,21.756399,7.59554,22,8,22C8,22,8,21,8,21C8,21,8,21,8,21ZM16,21C16,21,16,22,16,22C16.4045,22,16.7691,21.756399,16.9239,21.3827C17.078699999999998,21.009001,16.9931,20.578899,16.7071,20.2929C16.7071,20.2929,16,21,16,21C16,21,16,21,16,21ZM15,20C15,20,14.0299,20.2425,14.0299,20.2425C14.0738,20.4184,14.1647,20.578899,14.2929,20.7071C14.2929,20.7071,15,20,15,20C15,20,15,20,15,20ZM14.25,17C14.25,17,15.2201,16.7575,15.2201,16.7575C15.1089,16.3123,14.7089,16,14.25,16C14.25,16,14.25,17,14.25,17C14.25,17,14.25,17,14.25,17ZM3,12C2.4477149799999998,12,2,12.44771,2,13C2,13.5523,2.4477149799999998,14,3,14C3,14,3,12,3,12C3,12,3,12,3,12ZM21,14C21.552299,14,22,13.5523,22,13C22,12.44771,21.552299,12,21,12C21,12,21,14,21,14C21,14,21,14,21,14ZM19,3C19,3,19,2,19,2C19,2,19,3,19,3C19,3,19,3,19,3ZM5,3C5,3,5,2,5,2C5,2,5,3,5,3C5,3,5,3,5,3ZM3,5C3,5,2,5,2,5C2,5,3,5,3,5C3,5,3,5,3,5ZM3,15C3,15,2,15,2,15C2,15,3,15,3,15C3,15,3,15,3,15ZM8.77986,16.7575C8.77986,16.7575,8.02986,19.7575,8.02986,19.7575C8.02986,19.7575,9.97014,20.2425,9.97014,20.2425C9.97014,20.2425,10.72014,17.2425,10.72014,17.2425C10.72014,17.2425,8.77986,16.7575,8.77986,16.7575C8.77986,16.7575,8.77986,16.7575,8.77986,16.7575ZM8.292890100000001,19.2929C8.292890100000001,19.2929,7.2928901,20.2929,7.2928901,20.2929C7.2928901,20.2929,8.707109899999999,21.7071,8.707109899999999,21.7071C8.707109899999999,21.7071,9.707109899999999,20.7071,9.707109899999999,20.7071C9.707109899999999,20.7071,8.292890100000001,19.2929,8.292890100000001,19.2929C8.292890100000001,19.2929,8.292890100000001,19.2929,8.292890100000001,19.2929ZM8,22C8,22,16,22,16,22C16,22,16,20,16,20C16,20,8,20,8,20C8,20,8,22,8,22C8,22,8,22,8,22ZM16.7071,20.2929C16.7071,20.2929,15.7071,19.2929,15.7071,19.2929C15.7071,19.2929,14.2929,20.7071,14.2929,20.7071C14.2929,20.7071,15.2929,21.7071,15.2929,21.7071C15.2929,21.7071,16.7071,20.2929,16.7071,20.2929C16.7071,20.2929,16.7071,20.2929,16.7071,20.2929ZM15.9701,19.7575C15.9701,19.7575,15.2201,16.7575,15.2201,16.7575C15.2201,16.7575,13.2799,17.2425,13.2799,17.2425C13.2799,17.2425,14.0299,20.2425,14.0299,20.2425C14.0299,20.2425,15.9701,19.7575,15.9701,19.7575C15.9701,19.7575,15.9701,19.7575,15.9701,19.7575ZM14.25,16C14.25,16,9.75,16,9.75,16C9.75,16,9.75,18,9.75,18C9.75,18,14.25,18,14.25,18C14.25,18,14.25,16,14.25,16C14.25,16,14.25,16,14.25,16ZM3,14C3,14,21,14,21,14C21,14,21,12,21,12C21,12,3,12,3,12C3,12,3,14,3,14C3,14,3,14,3,14ZM5,18C5,18,19,18,19,18C19,18,19,16,19,16C19,16,5,16,5,16C5,16,5,18,5,18C5,18,5,18,5,18ZM19,18C19.7957,18,20.558701,17.6839,21.1213,17.121299999999998C21.1213,17.121299999999998,19.7071,15.7071,19.7071,15.7071C19.5196,15.8946,19.2652,16,19,16C19,16,19,18,19,18C19,18,19,18,19,18ZM21.1213,17.121299999999998C21.683901,16.5587,22,15.7957,22,15C22,15,20,15,20,15C20,15.2652,19.8946,15.5196,19.7071,15.7071C19.7071,15.7071,21.1213,17.121299999999998,21.1213,17.121299999999998C21.1213,17.121299999999998,21.1213,17.121299999999998,21.1213,17.121299999999998ZM22,15C22,15,22,5,22,5C22,5,20,5,20,5C20,5,20,15,20,15C20,15,22,15,22,15C22,15,22,15,22,15ZM22,5C22,4.20435,21.683901,3.44128799,21.1213,2.87868C21.1213,2.87868,19.7071,4.29289,19.7071,4.29289C19.8946,4.48043,20,4.73478,20,5C20,5,22,5,22,5C22,5,22,5,22,5ZM21.1213,2.87868C20.558701,2.3160700199999997,19.7957,2,19,2C19,2,19,4,19,4C19.2652,4,19.5196,4.10536,19.7071,4.29289C19.7071,4.29289,21.1213,2.87868,21.1213,2.87868C21.1213,2.87868,21.1213,2.87868,21.1213,2.87868ZM19,2C19,2,5,2,5,2C5,2,5,4,5,4C5,4,19,4,19,4C19,4,19,2,19,2C19,2,19,2,19,2ZM5,2C4.20435,2,3.44128901,2.3160700199999997,2.87868,2.87868C2.87868,2.87868,4.29289,4.29289,4.29289,4.29289C4.48043,4.10536,4.73478,4,5,4C5,4,5,2,5,2C5,2,5,2,5,2ZM2.87868,2.87868C2.3160700199999997,3.44128901,2,4.20435,2,5C2,5,4,5,4,5C4,4.73478,4.10536,4.48043,4.29289,4.29289C4.29289,4.29289,2.87868,2.87868,2.87868,2.87868C2.87868,2.87868,2.87868,2.87868,2.87868,2.87868ZM2,5C2,5,2,15,2,15C2,15,4,15,4,15C4,15,4,5,4,5C4,5,2,5,2,5C2,5,2,5,2,5ZM2,15C2,15.7956,2.3160700199999997,16.5587,2.87868,17.121299999999998C2.87868,17.121299999999998,4.29289,15.7071,4.29289,15.7071C4.10536,15.5196,4,15.2652,4,15C4,15,2,15,2,15C2,15,2,15,2,15ZM2.87868,17.121299999999998C3.44128799,17.6839,4.20435,18,5,18C5,18,5,16,5,16C4.73478,16,4.48043,15.8946,4.29289,15.7071C4.29289,15.7071,2.87868,17.121299999999998,2.87868,17.121299999999998C2.87868,17.121299999999998,2.87868,17.121299999999998,2.87868,17.121299999999998Z" fill="#0A0A28" fill-opacity="1"/></g></svg>