<svg xmlns="http://www.w3.org/2000/svg" xmlns:xlink="http://www.w3.org/1999/xlink" fill="none" version="1.1" width="24" height="24" viewBox="0 0 24 24"><defs><clipPath id="master_svg0_3_1655"><rect x="0" y="0" width="24" height="24" rx="0"/></clipPath></defs><g clip-path="url(#master_svg0_3_1655)"><path d="M7.19998789296875,2.4000244140625C6.56347189296875,2.4000244140625004,5.95301869296875,2.6528812340625,5.50293100296875,3.1029676240625C5.05284461296875,3.5530553140625,4.799987792968752,4.1635085140625,4.79998779296875,4.8000245140625C4.79998779296875,4.8000245140625,4.79998779296875,19.2000254140625,4.79998779296875,19.2000254140625C4.799987792968751,19.8365054140625,5.05284461296875,20.4469454140625,5.50293100296875,20.8970644140625C5.95301869296875,21.3471854140625,6.56347189296875,21.6000254140625,7.19998789296875,21.6000254140625C7.19998789296875,21.6000254140625,16.79998779296875,21.6000254140625,16.79998779296875,21.6000254140625C17.43646879296875,21.6000254140625,18.04690879296875,21.3471854140625,18.49702879296875,20.8970644140625C18.94714879296875,20.4469454140625,19.19998879296875,19.8365054140625,19.19998879296875,19.2000254140625C19.19998879296875,19.2000254140625,19.19998879296875,4.8000245140625,19.19998879296875,4.8000245140625C19.19998879296875,4.1635085140625,18.94714879296875,3.5530553140625,18.49702879296875,3.1029676240625C18.04690879296875,2.6528812340625,17.43646879296875,2.4000244140625004,16.79998779296875,2.4000244140625C16.79998779296875,2.4000244140625,7.19998789296875,2.4000244140625,7.19998789296875,2.4000244140625C7.19998789296875,2.4000244140625,7.19998789296875,2.4000244140625,7.19998789296875,2.4000244140625ZM11.99998809296875,19.2000254140625C12.31825209296875,19.2000254140625,12.62347169296875,19.0735454140625,12.84852029296875,18.8485454140625C13.07355599296875,18.6235444140625,13.19998839296875,18.318265414062502,13.19998839296875,18.0000244140625C13.19998839296875,17.6817854140625,13.07355599296875,17.376504414062502,12.84852029296875,17.1515054140625C12.62347169296875,16.9265054140625,12.31825209296875,16.8000254140625,11.99998809296875,16.8000254140625C11.68172409296875,16.8000254140625,11.37650439296875,16.9265054140625,11.15145639296875,17.1515054140625C10.926420192968749,17.376504414062502,10.79998779296875,17.6817854140625,10.79998779296875,18.0000244140625C10.79998779296875,18.318265414062502,10.926420192968749,18.6235444140625,11.15145639296875,18.8485454140625C11.37650439296875,19.0735454140625,11.68172409296875,19.2000254140625,11.99998809296875,19.2000254140625C11.99998809296875,19.2000254140625,11.99998809296875,19.2000254140625,11.99998809296875,19.2000254140625C11.99998809296875,19.2000254140625,11.99998809296875,19.2000254140625,11.99998809296875,19.2000254140625Z" fill-rule="evenodd" fill="#0A0A28" fill-opacity="1"/></g></svg>