<svg xmlns="http://www.w3.org/2000/svg" xmlns:xlink="http://www.w3.org/1999/xlink" fill="none" version="1.1" width="24" height="24" viewBox="0 0 24 24"><defs><clipPath id="master_svg0_3_2338"><rect x="0" y="0" width="24" height="24" rx="0"/></clipPath></defs><g clip-path="url(#master_svg0_3_2338)"><path d="M12,17C11.4477201,17,11,17.447699999999998,11,18C11,18.552300000000002,11.4477201,19,12,19C12,19,12,17,12,17C12,17,12,17,12,17ZM12.0100002,19C12.5622802,19,13.0100002,18.552300000000002,13.0100002,18C13.0100002,17.447699999999998,12.5622802,17,12.0100002,17C12.0100002,17,12.0100002,19,12.0100002,19C12.0100002,19,12.0100002,19,12.0100002,19ZM17,3C17,3,17,2,17,2C17,2,17,3,17,3C17,3,17,3,17,3ZM7,3C7,3,7,2,7,2C7,2,7,3,7,3C7,3,7,3,7,3ZM5,5C5,5,4,5,4,5C4,5,5,5,5,5C5,5,5,5,5,5ZM5,19C5,19,4,19,4,19C4,19,5,19,5,19C5,19,5,19,5,19ZM12,19C12,19,12.0100002,19,12.0100002,19C12.0100002,19,12.0100002,17,12.0100002,17C12.0100002,17,12,17,12,17C12,17,12,19,12,19C12,19,12,19,12,19ZM7,22C7,22,17,22,17,22C17,22,17,20,17,20C17,20,7,20,7,20C7,20,7,22,7,22C7,22,7,22,7,22ZM17,22C17.7957,22,18.5587,21.683901,19.121299999999998,21.1213C19.121299999999998,21.1213,17.7071,19.7071,17.7071,19.7071C17.5196,19.8946,17.2652,20,17,20C17,20,17,22,17,22C17,22,17,22,17,22ZM19.121299999999998,21.1213C19.6839,20.558701,20,19.7957,20,19C20,19,18,19,18,19C18,19.2652,17.8946,19.5196,17.7071,19.7071C17.7071,19.7071,19.121299999999998,21.1213,19.121299999999998,21.1213C19.121299999999998,21.1213,19.121299999999998,21.1213,19.121299999999998,21.1213ZM20,19C20,19,20,5,20,5C20,5,18,5,18,5C18,5,18,19,18,19C18,19,20,19,20,19C20,19,20,19,20,19ZM20,5C20,4.20435,19.6839,3.44128799,19.121299999999998,2.87868C19.121299999999998,2.87868,17.7071,4.29289,17.7071,4.29289C17.8946,4.48043,18,4.73478,18,5C18,5,20,5,20,5C20,5,20,5,20,5ZM19.121299999999998,2.87868C18.5587,2.3160700199999997,17.7956,2,17,2C17,2,17,4,17,4C17.2652,4,17.5196,4.10536,17.7071,4.29289C17.7071,4.29289,19.121299999999998,2.87868,19.121299999999998,2.87868C19.121299999999998,2.87868,19.121299999999998,2.87868,19.121299999999998,2.87868ZM17,2C17,2,7,2,7,2C7,2,7,4,7,4C7,4,17,4,17,4C17,4,17,2,17,2C17,2,17,2,17,2ZM7,2C6.20435,2,5.44128901,2.3160700199999997,4.87868,2.87868C4.87868,2.87868,6.29289,4.29289,6.29289,4.29289C6.48043,4.10536,6.73478,4,7,4C7,4,7,2,7,2C7,2,7,2,7,2ZM4.87868,2.87868C4.31607002,3.44128901,4,4.20435,4,5C4,5,6,5,6,5C6,4.73478,6.10536,4.48043,6.29289,4.29289C6.29289,4.29289,4.87868,2.87868,4.87868,2.87868C4.87868,2.87868,4.87868,2.87868,4.87868,2.87868ZM4,5C4,5,4,19,4,19C4,19,6,19,6,19C6,19,6,5,6,5C6,5,4,5,4,5C4,5,4,5,4,5ZM4,19C4,19.7957,4.31607002,20.558701,4.87868,21.1213C4.87868,21.1213,6.29289,19.7071,6.29289,19.7071C6.10536,19.5196,6,19.2652,6,19C6,19,4,19,4,19C4,19,4,19,4,19ZM4.87868,21.1213C5.44128799,21.683901,6.20435,22,7,22C7,22,7,20,7,20C6.73478,20,6.48043,19.8946,6.29289,19.7071C6.29289,19.7071,4.87868,21.1213,4.87868,21.1213C4.87868,21.1213,4.87868,21.1213,4.87868,21.1213Z" fill="#0A0A28" fill-opacity="1"/></g></svg>