<svg xmlns="http://www.w3.org/2000/svg" xmlns:xlink="http://www.w3.org/1999/xlink" fill="none" version="1.1" width="24" height="24" viewBox="0 0 24 24"><defs><clipPath id="master_svg0_3_2033"><rect x="0" y="0" width="24" height="24" rx="0"/></clipPath></defs><g clip-path="url(#master_svg0_3_2033)"><path d="M8.4000001,2.4000244140625C7.7634841,2.4000244140625004,7.1530309,2.6528812340625,6.70294321,3.1029676240625C6.25285682,3.5530553140625,6.000000000000002,4.1635085140625,6,4.8000245140625C6,4.8000245140625,6,19.2000254140625,6,19.2000254140625C6.000000000000001,19.8365054140625,6.25285682,20.4469454140625,6.70294321,20.8970644140625C7.1530309,21.3471854140625,7.7634841,21.6000254140625,8.4000001,21.6000254140625C8.4000001,21.6000254140625,15.6000004,21.6000254140625,15.6000004,21.6000254140625C16.236516,21.6000254140625,16.846968,21.3471854140625,17.297052,20.8970644140625C17.747149,20.4469454140625,18,19.8365054140625,18,19.2000254140625C18,19.2000254140625,18,4.8000245140625,18,4.8000245140625C18,4.1635085140625,17.747149,3.5530553140625,17.297052,3.1029676240625C16.846968,2.6528812340625,16.236516,2.4000244140625004,15.6000004,2.4000244140625C15.6000004,2.4000244140625,8.4000001,2.4000244140625,8.4000001,2.4000244140625C8.4000001,2.4000244140625,8.4000001,2.4000244140625,8.4000001,2.4000244140625ZM12,19.2000254140625C12.3182645,19.2000254140625,12.623484099999999,19.0735454140625,12.848532200000001,18.8485454140625C13.0735683,18.6235444140625,13.2000003,18.318265414062502,13.2000003,18.0000244140625C13.2000003,17.6817854140625,13.0735683,17.376504414062502,12.848532200000001,17.1515054140625C12.623484099999999,16.9265054140625,12.3182645,16.8000254140625,12,16.8000254140625C11.681736,16.8000254140625,11.376516299999999,16.9265054140625,11.151468300000001,17.1515054140625C10.9264321,17.376504414062502,10.8000002,17.6817854140625,10.8000002,18.0000244140625C10.8000002,18.318265414062502,10.9264321,18.6235444140625,11.151468300000001,18.8485454140625C11.376516299999999,19.0735454140625,11.681736,19.2000254140625,12,19.2000254140625C12,19.2000254140625,12,19.2000254140625,12,19.2000254140625C12,19.2000254140625,12,19.2000254140625,12,19.2000254140625Z" fill-rule="evenodd" fill="#0A0A28" fill-opacity="1"/></g></svg>