<svg xmlns="http://www.w3.org/2000/svg" xmlns:xlink="http://www.w3.org/1999/xlink" fill="none" version="1.1" width="24" height="24" viewBox="0 0 24 24"><defs><clipPath id="master_svg0_3_2019"><rect x="0" y="0" width="24" height="24" rx="0"/></clipPath></defs><g clip-path="url(#master_svg0_3_2019)"><path d="M12,17C11.4477201,17,11,17.447699999999998,11,18C11,18.552300000000002,11.4477201,19,12,19C12,19,12,17,12,17C12,17,12,17,12,17ZM12.0100002,19C12.5622802,19,13.0100002,18.552300000000002,13.0100002,18C13.0100002,17.447699999999998,12.5622802,17,12.0100002,17C12.0100002,17,12.0100002,19,12.0100002,19C12.0100002,19,12.0100002,19,12.0100002,19ZM16,3C16,3,16,2,16,2C16,2,16,3,16,3C16,3,16,3,16,3ZM8,3C8,3,8,2,8,2C8,2,8,3,8,3C8,3,8,3,8,3ZM6,5C6,5,5,5,5,5C5,5,6,5,6,5C6,5,6,5,6,5ZM6,19C6,19,5,19,5,19C5,19,6,19,6,19C6,19,6,19,6,19ZM12,19C12,19,12.0100002,19,12.0100002,19C12.0100002,19,12.0100002,17,12.0100002,17C12.0100002,17,12,17,12,17C12,17,12,19,12,19C12,19,12,19,12,19ZM8,22C8,22,16,22,16,22C16,22,16,20,16,20C16,20,8,20,8,20C8,20,8,22,8,22C8,22,8,22,8,22ZM16,22C16.7957,22,17.5587,21.683901,18.121299999999998,21.1213C18.121299999999998,21.1213,16.7071,19.7071,16.7071,19.7071C16.5196,19.8946,16.2652,20,16,20C16,20,16,22,16,22C16,22,16,22,16,22ZM18.121299999999998,21.1213C18.6839,20.558701,19,19.7957,19,19C19,19,17,19,17,19C17,19.2652,16.8946,19.5196,16.7071,19.7071C16.7071,19.7071,18.121299999999998,21.1213,18.121299999999998,21.1213C18.121299999999998,21.1213,18.121299999999998,21.1213,18.121299999999998,21.1213ZM19,19C19,19,19,5,19,5C19,5,17,5,17,5C17,5,17,19,17,19C17,19,19,19,19,19C19,19,19,19,19,19ZM19,5C19,4.20435,18.6839,3.44128799,18.121299999999998,2.87868C18.121299999999998,2.87868,16.7071,4.29289,16.7071,4.29289C16.8946,4.48043,17,4.73478,17,5C17,5,19,5,19,5C19,5,19,5,19,5ZM18.121299999999998,2.87868C17.5587,2.3160700199999997,16.7956,2,16,2C16,2,16,4,16,4C16.2652,4,16.5196,4.10536,16.7071,4.29289C16.7071,4.29289,18.121299999999998,2.87868,18.121299999999998,2.87868C18.121299999999998,2.87868,18.121299999999998,2.87868,18.121299999999998,2.87868ZM16,2C16,2,8,2,8,2C8,2,8,4,8,4C8,4,16,4,16,4C16,4,16,2,16,2C16,2,16,2,16,2ZM8,2C7.20435,2,6.44128901,2.3160700199999997,5.87868,2.87868C5.87868,2.87868,7.29289,4.29289,7.29289,4.29289C7.48043,4.10536,7.73478,4,8,4C8,4,8,2,8,2C8,2,8,2,8,2ZM5.87868,2.87868C5.31607002,3.44128901,5,4.20435,5,5C5,5,7,5,7,5C7,4.73478,7.10536,4.48043,7.29289,4.29289C7.29289,4.29289,5.87868,2.87868,5.87868,2.87868C5.87868,2.87868,5.87868,2.87868,5.87868,2.87868ZM5,5C5,5,5,19,5,19C5,19,7,19,7,19C7,19,7,5,7,5C7,5,5,5,5,5C5,5,5,5,5,5ZM5,19C5,19.7957,5.31607002,20.558701,5.87868,21.1213C5.87868,21.1213,7.29289,19.7071,7.29289,19.7071C7.10536,19.5196,7,19.2652,7,19C7,19,5,19,5,19C5,19,5,19,5,19ZM5.87868,21.1213C6.44128799,21.683901,7.20435,22,8,22C8,22,8,20,8,20C7.73478,20,7.48043,19.8946,7.29289,19.7071C7.29289,19.7071,5.87868,21.1213,5.87868,21.1213C5.87868,21.1213,5.87868,21.1213,5.87868,21.1213Z" fill="#0A0A28" fill-opacity="1"/></g></svg>