<svg xmlns="http://www.w3.org/2000/svg" xmlns:xlink="http://www.w3.org/1999/xlink" fill="none" version="1.1" width="24" height="24" viewBox="0 0 24 24"><defs><clipPath id="master_svg0_3_1748"><rect x="0" y="0" width="24" height="24" rx="0"/></clipPath></defs><g clip-path="url(#master_svg0_3_1748)"><path d="M7.19998789296875,2.4000244140625C6.56347189296875,2.4000244140625004,5.95301869296875,2.6528812340625,5.50293100296875,3.1029676240625C5.05284461296875,3.5530553140625,4.799987792968752,4.1635085140625,4.79998779296875,4.8000245140625C4.79998779296875,4.8000245140625,4.79998779296875,19.2000254140625,4.79998779296875,19.2000254140625C4.799987792968751,19.8365054140625,5.05284461296875,20.4469454140625,5.50293100296875,20.8970644140625C5.95301869296875,21.3471854140625,6.56347189296875,21.6000254140625,7.19998789296875,21.6000254140625C7.19998789296875,21.6000254140625,16.79998779296875,21.6000254140625,16.79998779296875,21.6000254140625C17.43646879296875,21.6000254140625,18.04690879296875,21.3471854140625,18.49702879296875,20.8970644140625C18.94714879296875,20.4469454140625,19.19998879296875,19.8365054140625,19.19998879296875,19.2000254140625C19.19998879296875,19.2000254140625,19.19998879296875,8.8968248140625,19.19998879296875,8.8968248140625C19.19986779296875,8.2603564140625,18.94690779296875,7.6500125140625,18.49678779296875,7.2000246140625C18.49678779296875,7.2000246140625,14.39998819296875,3.1032244540625,14.39998819296875,3.1032244540625C13.94999979296875,2.6531056440625,13.33965679296875,2.4001603440725,12.70318789296875,2.4000244140625C12.70318789296875,2.4000244140625,7.19998789296875,2.4000244140625,7.19998789296875,2.4000244140625C7.19998789296875,2.4000244140625,7.19998789296875,2.4000244140625,7.19998789296875,2.4000244140625ZM9.59998799296875,14.4000244140625C9.59998799296875,14.0817614140625,9.47355599296875,13.7765404140625,9.248519892968751,13.5514924140625C9.02347229296875,13.3264574140625,8.71825199296875,13.2000244140625,8.399987892968749,13.2000244140625C8.08172389296875,13.2000244140625,7.77650379296875,13.3264574140625,7.55145599296875,13.5514924140625C7.32641979296875,13.7765404140625,7.19998789296875,14.0817614140625,7.19998789296875,14.4000244140625C7.19998789296875,14.4000244140625,7.19998789296875,18.0000244140625,7.19998789296875,18.0000244140625C7.19998789296875,18.318265414062502,7.32641979296875,18.6235444140625,7.55145599296875,18.8485454140625C7.77650379296875,19.0735454140625,8.08172389296875,19.2000254140625,8.399987892968749,19.2000254140625C8.71825199296875,19.2000254140625,9.02347229296875,19.0735454140625,9.248519892968751,18.8485454140625C9.47355599296875,18.6235444140625,9.59998799296875,18.318265414062502,9.59998799296875,18.0000244140625C9.59998799296875,18.0000244140625,9.59998799296875,14.4000244140625,9.59998799296875,14.4000244140625C9.59998799296875,14.4000244140625,9.59998799296875,14.4000244140625,9.59998799296875,14.4000244140625ZM11.99998809296875,10.8000250140625C12.31825209296875,10.8000250140625,12.62347169296875,10.9264564140625,12.84852029296875,11.1514931140625C13.07355599296875,11.3765411140625,13.19998839296875,11.6817608140625,13.19998839296875,12.0000248140625C13.19998839296875,12.0000248140625,13.19998839296875,18.0000244140625,13.19998839296875,18.0000244140625C13.19998839296875,18.318265414062502,13.07355599296875,18.6235444140625,12.84852029296875,18.8485454140625C12.62347169296875,19.0735454140625,12.31825209296875,19.2000254140625,11.99998809296875,19.2000254140625C11.68172409296875,19.2000254140625,11.37650439296875,19.0735454140625,11.15145639296875,18.8485454140625C10.926420192968749,18.6235444140625,10.79998779296875,18.318265414062502,10.79998779296875,18.0000244140625C10.79998779296875,18.0000244140625,10.79998779296875,12.0000248140625,10.79998779296875,12.0000248140625C10.79998779296875,11.6817608140625,10.926420192968749,11.3765411140625,11.15145639296875,11.1514931140625C11.37650439296875,10.9264564140625,11.68172409296875,10.8000250140625,11.99998809296875,10.8000250140625C11.99998809296875,10.8000250140625,11.99998809296875,10.8000250140625,11.99998809296875,10.8000250140625C11.99998809296875,10.8000250140625,11.99998809296875,10.8000250140625,11.99998809296875,10.8000250140625ZM16.79998779296875,9.6000247140625C16.79998779296875,9.2817607140625,16.67355679296875,8.9765410140625,16.44852079296875,8.7514930140625C16.22347279296875,8.526456814062499,15.91825179296875,8.4000244140625,15.59998779296875,8.4000244140625C15.28172479296875,8.4000244140625,14.97650379296875,8.526456814062499,14.75145529296875,8.7514930140625C14.52642059296875,8.9765410140625,14.39998819296875,9.2817607140625,14.39998819296875,9.6000247140625C14.39998819296875,9.6000247140625,14.39998819296875,18.0000244140625,14.39998819296875,18.0000244140625C14.39998819296875,18.318265414062502,14.52642059296875,18.6235444140625,14.75145529296875,18.8485454140625C14.97650379296875,19.0735454140625,15.28172479296875,19.2000254140625,15.59998779296875,19.2000254140625C15.91825179296875,19.2000254140625,16.22347279296875,19.0735454140625,16.44852079296875,18.8485454140625C16.67355679296875,18.6235444140625,16.79998779296875,18.318265414062502,16.79998779296875,18.0000244140625C16.79998779296875,18.0000244140625,16.79998779296875,9.6000247140625,16.79998779296875,9.6000247140625C16.79998779296875,9.6000247140625,16.79998779296875,9.6000247140625,16.79998779296875,9.6000247140625Z" fill-rule="evenodd" fill="#0A0A28" fill-opacity="1"/></g></svg>