<svg xmlns="http://www.w3.org/2000/svg" xmlns:xlink="http://www.w3.org/1999/xlink" fill="none" version="1.1" width="24" height="24" viewBox="0 0 24 24"><defs><clipPath id="master_svg0_3_1545"><rect x="0" y="0" width="24" height="24" rx="0"/></clipPath></defs><g clip-path="url(#master_svg0_3_1545)"><path d="M4.79998779296875,4.8000245140625C4.79998779296875,4.1635085140625,5.05284461296875,3.5530553140625,5.50293100296875,3.1029676240625C5.95301869296875,2.6528812340625,6.56347189296875,2.4000244140625004,7.19998789296875,2.4000244140625C7.19998789296875,2.4000244140625,12.70318789296875,2.4000244140625,12.70318789296875,2.4000244140625C13.33965679296875,2.4001603440725,13.94999979296875,2.6531056440625,14.39998819296875,3.1032244540625C14.39998819296875,3.1032244540625,18.49678779296875,7.2000246140625,18.49678779296875,7.2000246140625C18.94690779296875,7.6500125140625,19.19986779296875,8.2603564140625,19.19998879296875,8.8968248140625C19.19998879296875,8.8968248140625,19.19998879296875,19.2000254140625,19.19998879296875,19.2000254140625C19.19998879296875,19.8365054140625,18.94714879296875,20.4469454140625,18.49702879296875,20.8970644140625C18.04690879296875,21.3471854140625,17.43646879296875,21.6000254140625,16.79998779296875,21.6000254140625C16.79998779296875,21.6000254140625,14.96638879296875,21.6000254140625,14.96638879296875,21.6000254140625C16.19255979296875,20.2283054140625,16.847147792968748,18.4392264140625,16.79563279296875,16.6001044140625C16.74416379296875,14.7609854140625,15.99058679296875,13.0113614140625,14.68961999296875,11.7103929140625C13.38864039296875,10.4094248140625,11.63899229296875,9.6558490140625,9.79987239296875,9.6043811140625C7.96073989296875,9.5529127140625,6.17168379296875,10.2074523140625,4.79998779296875,11.4336243140625C4.79998779296875,11.4336243140625,4.79998779296875,4.8000245140625,4.79998779296875,4.8000245140625C4.79998779296875,4.8000245140625,4.79998779296875,4.8000245140625,4.79998779296875,4.8000245140625Z" fill="#0A0A28" fill-opacity="1"/><path d="M9.60003228046875,12.000000049049039C8.75363638046875,11.9998790664,7.92224078046875,12.22356841,7.19018078046875,12.64838767C6.45810868046875,13.073208,5.85138868046875,13.6840562,5.43153258046875,14.4189842C5.01167658046875,15.1539121,4.79361498046875,15.986784199999999,4.79946498046875,16.833168C4.8053126804687505,17.6795526,5.03486048046875,18.509340299999998,5.46483268046875,19.2384005C5.46483268046875,19.2384005,3.95163608046875,20.750400499999998,3.95163608046875,20.750400499999998C3.84014289046875,20.8618088,3.75168729046875,20.9940968,3.69131816146875,21.1396923C3.63094880246875,21.2853003,3.59984827291175,21.441360500000002,3.599792555466479,21.5989799C3.59973683790675,21.7565889,3.63072704146875,21.9126835,3.69099344346875,22.058329C3.75126009046875,22.203960000000002,3.83962208046875,22.336308000000002,3.95103610046875,22.447801C4.06244892046875,22.559292,4.19473213046875,22.647745,4.34033054046875,22.708117C4.48592895046875,22.768487999999998,4.64199378046875,22.799592,4.79961128046875,22.79964C4.95723248046875,22.799701,5.11331668046875,22.768704,5.2589605804687505,22.708441C5.4046045804687495,22.648176,5.53694058046875,22.559821,5.648432780468751,22.4484C5.648432780468751,22.4484,7.1616325804687495,20.9352007,7.1616325804687495,20.9352007C7.79745248046875,21.3099365,8.51111698046875,21.5330162,9.247160880468751,21.587101C9.983204880468751,21.641172400000002,10.72181658046875,21.5247965,11.40557668046875,21.247008299999997C12.08932498046875,20.9692087,12.69981288046875,20.5374966,13.18959238046875,19.9854002C13.67937248046875,19.4332919,14.03523348046875,18.775692499999998,14.22953748046875,18.0636964C14.42384048046875,17.3517003,14.45134548046875,16.604496,14.30991348046875,15.8801401C14.16846848046875,15.1557844,13.86191748046875,14.4738002,13.41405298046875,13.887192C12.96618848046875,13.3005841,12.38908478046875,12.82515359,11.72759728046875,12.49784762C11.06612058046875,12.17054161,10.33806898046875,12.00017900641,9.60003228046875,12.000000049049039C9.60003228046875,12.000000049049039,9.60003228046875,12.000000049049039,9.60003228046875,12.000000049049039ZM7.20003268046875,16.8000002C7.20003268046875,16.163484099999998,7.452896880468749,15.5530322,7.90298078046875,15.102948C8.35306458046875,14.6528521,8.96351668046875,14.4000001,9.60003228046875,14.4000001C10.23656078046875,14.4000001,10.84700058046875,14.6528521,11.29709668046875,15.102948C11.74718098046875,15.5530322,12.00003238046875,16.163484099999998,12.00003238046875,16.8000002C12.00003238046875,17.4365158,11.74718098046875,18.0469685,11.29709668046875,18.4970522C10.84700058046875,18.947148300000002,10.23656078046875,19.2000003,9.60003228046875,19.2000003C8.96351668046875,19.2000003,8.35306458046875,18.947148300000002,7.90298078046875,18.4970522C7.452896880468749,18.0469685,7.20003268046875,17.4365158,7.20003268046875,16.8000002C7.20003268046875,16.8000002,7.20003268046875,16.8000002,7.20003268046875,16.8000002Z" fill-rule="evenodd" fill="#0A0A28" fill-opacity="1"/></g></svg>