<svg xmlns="http://www.w3.org/2000/svg" xmlns:xlink="http://www.w3.org/1999/xlink" fill="none" version="1.1" width="24" height="24" viewBox="0 0 24 24"><defs><clipPath id="master_svg0_3_1522"><rect x="0" y="0" width="24" height="24" rx="0"/></clipPath></defs><g clip-path="url(#master_svg0_3_1522)"><path d="M7.19998789296875,2.4000244140625C6.56347189296875,2.4000244140625004,5.95301869296875,2.6528812340625,5.50293100296875,3.1029676240625C5.05284461296875,3.5530553140625,4.799987792968752,4.1635085140625,4.79998779296875,4.8000245140625C4.79998779296875,4.8000245140625,4.79998779296875,19.2000254140625,4.79998779296875,19.2000254140625C4.799987792968751,19.8365054140625,5.05284461296875,20.4469454140625,5.50293100296875,20.8970644140625C5.95301869296875,21.3471854140625,6.56347189296875,21.6000254140625,7.19998789296875,21.6000254140625C7.19998789296875,21.6000254140625,16.79998779296875,21.6000254140625,16.79998779296875,21.6000254140625C17.43646879296875,21.6000254140625,18.04690879296875,21.3471854140625,18.49702879296875,20.8970644140625C18.94714879296875,20.4469454140625,19.19998879296875,19.8365054140625,19.19998879296875,19.2000254140625C19.19998879296875,19.2000254140625,19.19998879296875,8.8968248140625,19.19998879296875,8.8968248140625C19.19986779296875,8.2603564140625,18.94690779296875,7.6500125140625,18.49678779296875,7.2000246140625C18.49678779296875,7.2000246140625,14.39998819296875,3.1032244540625,14.39998819296875,3.1032244540625C13.94999979296875,2.6531056440625,13.33965679296875,2.4001603440725,12.70318789296875,2.4000244140625C12.70318789296875,2.4000244140625,7.19998789296875,2.4000244140625,7.19998789296875,2.4000244140625C7.19998789296875,2.4000244140625,7.19998789296875,2.4000244140625,7.19998789296875,2.4000244140625ZM13.19998839296875,9.6000247140625C13.19998839296875,9.2817607140625,13.07355599296875,8.9765410140625,12.84852029296875,8.7514930140625C12.62347169296875,8.526456814062499,12.31825209296875,8.4000244140625,11.99998809296875,8.4000244140625C11.68172409296875,8.4000244140625,11.37650439296875,8.526456814062499,11.15145639296875,8.7514930140625C10.926420192968749,8.9765410140625,10.79998779296875,9.2817607140625,10.79998779296875,9.6000247140625C10.79998779296875,9.6000247140625,10.79998779296875,13.9032254140625,10.79998779296875,13.9032254140625C10.79998779296875,13.9032254140625,9.24838779296875,12.3516254140625,9.24838779296875,12.3516254140625C9.13768769296875,12.2370128140625,9.005279992968749,12.1455974140625,8.85886809296875,12.0827045140625C8.71246789296875,12.0198126140625,8.55500389296875,11.9867048140625,8.39566799296875,11.9853248140625C8.23633189296875,11.9839449140625,8.07831599296875,12.0143051140625,7.93084789296875,12.0746403140625C7.78336789296875,12.1349773140625,7.64938779296875,12.2240772140625,7.536707892968749,12.3367567140625C7.42403979296875,12.4494244140625,7.334939692968749,12.5834044140625,7.27460389296875,12.7308844140625C7.21426769296875,12.8783534140625,7.18390799296875,13.0363684140625,7.18528799296875,13.1957044140625C7.1866678929687495,13.3550404140625,7.21977589296875,13.5125044140625,7.28266809296875,13.6589044140625C7.34555979296875,13.8053174140625,7.436975992968749,13.9377254140625,7.55158779296875,14.0484244140625C7.55158779296875,14.0484244140625,11.151588392968751,17.6484254140625,11.151588392968751,17.6484254140625C11.37662359296875,17.873424414062498,11.68179609296875,17.9997844140625,11.99998809296875,17.9997844140625C12.318180092968749,17.9997844140625,12.623352492968749,17.873424414062498,12.84838769296875,17.6484254140625C12.84838769296875,17.6484254140625,16.448387792968752,14.0484244140625,16.448387792968752,14.0484244140625C16.66698079296875,13.8221054140625,16.78792879296875,13.5189854140625,16.78519279296875,13.2043444140625C16.78246879296875,12.8897044140625,16.65626479296875,12.5887324140625,16.43377279296875,12.3662405140625C16.21127979296875,12.1437492140625,15.91030879296875,12.0175447140625,15.59566779296875,12.0148210140625C15.28102779296875,12.0120849140625,14.97790779296875,12.1330328140625,14.75158879296875,12.3516254140625C14.75158879296875,12.3516254140625,13.19998839296875,13.9032254140625,13.19998839296875,13.9032254140625C13.19998839296875,13.9032254140625,13.19998839296875,9.6000247140625,13.19998839296875,9.6000247140625C13.19998839296875,9.6000247140625,13.19998839296875,9.6000247140625,13.19998839296875,9.6000247140625Z" fill-rule="evenodd" fill="#0A0A28" fill-opacity="1"/></g></svg>