<svg xmlns="http://www.w3.org/2000/svg" xmlns:xlink="http://www.w3.org/1999/xlink" fill="none" version="1.1" width="24" height="24" viewBox="0 0 24 24"><defs><clipPath id="master_svg0_3_1826"><rect x="0" y="0" width="24" height="24" rx="0"/></clipPath></defs><g clip-path="url(#master_svg0_3_1826)"><path d="M4.79998779296875,4.8000245140625C4.79998779296875,4.1635085140625,5.05284461296875,3.5530553140625,5.50293100296875,3.1029676240625C5.95301869296875,2.6528812340625,6.56347189296875,2.4000244140625004,7.19998789296875,2.4000244140625C7.19998789296875,2.4000244140625,12.70318789296875,2.4000244140625,12.70318789296875,2.4000244140625C13.33965679296875,2.4001603440725,13.94999979296875,2.6531056440625,14.39998819296875,3.1032244540625C14.39998819296875,3.1032244540625,18.49678779296875,7.2000246140625,18.49678779296875,7.2000246140625C18.94690779296875,7.6500125140625,19.19986779296875,8.2603564140625,19.19998879296875,8.8968248140625C19.19998879296875,8.8968248140625,19.19998879296875,19.2000254140625,19.19998879296875,19.2000254140625C19.19998879296875,19.8365054140625,18.94714879296875,20.4469454140625,18.49702879296875,20.8970644140625C18.04690879296875,21.3471854140625,17.43646879296875,21.6000254140625,16.79998779296875,21.6000254140625C16.79998779296875,21.6000254140625,7.19998789296875,21.6000254140625,7.19998789296875,21.6000254140625C6.56347189296875,21.6000254140625,5.95301869296875,21.3471854140625,5.50293100296875,20.8970644140625C5.05284461296875,20.4469454140625,4.799987792968752,19.8365054140625,4.79998779296875,19.2000254140625C4.79998779296875,19.2000254140625,4.79998779296875,4.8000245140625,4.79998779296875,4.8000245140625C4.79998779296875,4.8000245140625,4.79998779296875,4.8000245140625,4.79998779296875,4.8000245140625ZM7.19998789296875,12.0000248140625C7.19998789296875,11.6817608140625,7.32641979296875,11.3765411140625,7.55145599296875,11.1514931140625C7.77650379296875,10.9264564140625,8.08172389296875,10.8000250140625,8.399987892968749,10.8000250140625C8.399987892968749,10.8000250140625,15.59998779296875,10.8000250140625,15.59998779296875,10.8000250140625C15.91825179296875,10.8000250140625,16.22347279296875,10.9264564140625,16.44852079296875,11.1514931140625C16.67355679296875,11.3765411140625,16.79998779296875,11.6817608140625,16.79998779296875,12.0000248140625C16.79998779296875,12.3182888140625,16.67355679296875,12.6235094140625,16.44852079296875,12.8485574140625C16.22347279296875,13.0735934140625,15.91825179296875,13.2000244140625,15.59998779296875,13.2000244140625C15.59998779296875,13.2000244140625,8.399987892968749,13.2000244140625,8.399987892968749,13.2000244140625C8.08172389296875,13.2000244140625,7.77650379296875,13.0735934140625,7.55145599296875,12.8485574140625C7.32641979296875,12.6235094140625,7.19998789296875,12.3182888140625,7.19998789296875,12.0000248140625C7.19998789296875,12.0000248140625,7.19998789296875,12.0000248140625,7.19998789296875,12.0000248140625ZM8.399987892968749,15.6000254140625C8.08172389296875,15.6000254140625,7.77650379296875,15.7265054140625,7.55145599296875,15.9515044140625C7.32641979296875,16.1765054140625,7.19998789296875,16.4817854140625,7.19998789296875,16.8000254140625C7.19998789296875,17.1182644140625,7.32641979296875,17.423544414062498,7.55145599296875,17.6485454140625C7.77650379296875,17.8735444140625,8.08172389296875,18.0000244140625,8.399987892968749,18.0000244140625C8.399987892968749,18.0000244140625,15.59998779296875,18.0000244140625,15.59998779296875,18.0000244140625C15.91825179296875,18.0000244140625,16.22347279296875,17.8735444140625,16.44852079296875,17.6485454140625C16.67355679296875,17.423544414062498,16.79998779296875,17.1182644140625,16.79998779296875,16.8000254140625C16.79998779296875,16.4817854140625,16.67355679296875,16.1765054140625,16.44852079296875,15.9515044140625C16.22347279296875,15.7265054140625,15.91825179296875,15.6000254140625,15.59998779296875,15.6000254140625C15.59998779296875,15.6000254140625,8.399987892968749,15.6000254140625,8.399987892968749,15.6000254140625C8.399987892968749,15.6000254140625,8.399987892968749,15.6000254140625,8.399987892968749,15.6000254140625Z" fill-rule="evenodd" fill="#0A0A28" fill-opacity="1"/></g></svg>