<svg xmlns="http://www.w3.org/2000/svg" xmlns:xlink="http://www.w3.org/1999/xlink" fill="none" version="1.1" width="24" height="24" viewBox="0 0 24 24"><defs><clipPath id="master_svg0_3_2250"><rect x="0" y="0" width="24" height="24" rx="0"/></clipPath></defs><g clip-path="url(#master_svg0_3_2250)"><path d="M10,3C10,3,10,2,10,2C10,2,10,3,10,3C10,3,10,3,10,3ZM14.586,3C14.586,3,14.5862,2,14.5862,2C14.5862,2,14.586,2,14.586,2C14.586,2,14.586,3,14.586,3C14.586,3,14.586,3,14.586,3ZM15.293,3.29300001C15.293,3.29300001,14.5858,4,14.5858,4C14.5858,4,14.5859,4.00011,14.5859,4.00011C14.5859,4.00011,15.293,3.29300001,15.293,3.29300001C15.293,3.29300001,15.293,3.29300001,15.293,3.29300001ZM19.707,7.7069998C19.707,7.7069998,18.9999,8.4141102,18.9999,8.4141102C18.9999,8.4141102,19,8.4142098,19,8.4142098C19,8.4142098,19.707,7.7069998,19.707,7.7069998C19.707,7.7069998,19.707,7.7069998,19.707,7.7069998ZM20,8.414C20,8.414,21,8.414,21,8.414C21,8.414,21,8.413790200000001,21,8.413790200000001C21,8.413790200000001,20,8.414,20,8.414C20,8.414,20,8.414,20,8.414ZM6,7C6,7,6,6,6,6C6,6,6,7,6,7C6,7,6,7,6,7ZM4,9C4,9,3,9,3,9C3,9,4,9,4,9C4,9,4,9,4,9ZM4,19C4,19,3,19,3,19C3,19,4,19,4,19C4,19,4,19,4,19ZM7,7C7,7,7,15,7,15C7,15,9,15,9,15C9,15,9,7,9,7C9,7,7,7,7,7C7,7,7,7,7,7ZM7,15C7,15.7957,7.3160701,16.5587,7.87868,17.121299999999998C7.87868,17.121299999999998,9.292890100000001,15.7071,9.292890100000001,15.7071C9.105360000000001,15.5196,9,15.2652,9,15C9,15,7,15,7,15C7,15,7,15,7,15ZM7.87868,17.121299999999998C8.441289900000001,17.6839,9.20435,18,10,18C10,18,10,16,10,16C9.7347798,16,9.4804301,15.8946,9.292890100000001,15.7071C9.292890100000001,15.7071,7.87868,17.121299999999998,7.87868,17.121299999999998C7.87868,17.121299999999998,7.87868,17.121299999999998,7.87868,17.121299999999998ZM10,18C10,18,16,18,16,18C16,18,16,16,16,16C16,16,10,16,10,16C10,16,10,18,10,18C10,18,10,18,10,18ZM9,7C9,7,9,5,9,5C9,5,7,5,7,5C7,5,7,7,7,7C7,7,9,7,9,7C9,7,9,7,9,7ZM9,5C9,4.73478,9.105360000000001,4.48043,9.292890100000001,4.29289C9.292890100000001,4.29289,7.87868,2.87868,7.87868,2.87868C7.3160701,3.44128799,7,4.20435,7,5C7,5,9,5,9,5C9,5,9,5,9,5ZM9.292890100000001,4.29289C9.4804301,4.10536,9.7347798,4,10,4C10,4,10,2,10,2C9.20435,2,8.441289900000001,2.3160700199999997,7.87868,2.87868C7.87868,2.87868,9.292890100000001,4.29289,9.292890100000001,4.29289C9.292890100000001,4.29289,9.292890100000001,4.29289,9.292890100000001,4.29289ZM10,4C10,4,14.586,4,14.586,4C14.586,4,14.586,2,14.586,2C14.586,2,10,2,10,2C10,2,10,4,10,4C10,4,10,4,10,4ZM14.5858,4C14.5858,4,14.5858,4,14.5858,4C14.5858,4,16.0002,2.586,16.0002,2.586C15.6252,2.21090102,15.1166,2.0001130099999997,14.5862,2C14.5862,2,14.5858,4,14.5858,4C14.5858,4,14.5858,4,14.5858,4ZM14.5859,4.00011C14.5859,4.00011,18.9999,8.4141102,18.9999,8.4141102C18.9999,8.4141102,20.414101,6.9998901,20.414101,6.9998901C20.414101,6.9998901,16.0001,2.58589301,16.0001,2.58589301C16.0001,2.58589301,14.5859,4.00011,14.5859,4.00011C14.5859,4.00011,14.5859,4.00011,14.5859,4.00011ZM19,8.4142098C19,8.4142098,19,8.4142098,19,8.4142098C19,8.4142098,21,8.413790200000001,21,8.413790200000001C20.999901,7.8834,20.789101,7.3747702,20.414,6.99979C20.414,6.99979,19,8.4142098,19,8.4142098C19,8.4142098,19,8.4142098,19,8.4142098ZM19,8.414C19,8.414,19,15,19,15C19,15,21,15,21,15C21,15,21,8.414,21,8.414C21,8.414,19,8.414,19,8.414C19,8.414,19,8.414,19,8.414ZM19,15C19,15.2652,18.8946,15.5196,18.7071,15.7071C18.7071,15.7071,20.1213,17.121299999999998,20.1213,17.121299999999998C20.683901,16.5587,21,15.7957,21,15C21,15,19,15,19,15C19,15,19,15,19,15ZM18.7071,15.7071C18.5196,15.8946,18.2652,16,18,16C18,16,18,18,18,18C18.7957,18,19.5587,17.6839,20.1213,17.121299999999998C20.1213,17.121299999999998,18.7071,15.7071,18.7071,15.7071C18.7071,15.7071,18.7071,15.7071,18.7071,15.7071ZM18,16C18,16,16,16,16,16C16,16,16,18,16,18C16,18,18,18,18,18C18,18,18,16,18,16C18,16,18,16,18,16ZM8,6C8,6,6,6,6,6C6,6,6,8,6,8C6,8,8,8,8,8C8,8,8,6,8,6C8,6,8,6,8,6ZM6,6C5.20435,6,4.44128901,6.3160701,3.87868,6.87868C3.87868,6.87868,5.29289,8.292890100000001,5.29289,8.292890100000001C5.48043,8.105360000000001,5.73478,8,6,8C6,8,6,6,6,6C6,6,6,6,6,6ZM3.87868,6.87868C3.3160700199999997,7.4412899,3,8.20435,3,9C3,9,5,9,5,9C5,8.7347798,5.10536,8.4804301,5.29289,8.292890100000001C5.29289,8.292890100000001,3.87868,6.87868,3.87868,6.87868C3.87868,6.87868,3.87868,6.87868,3.87868,6.87868ZM3,9C3,9,3,19,3,19C3,19,5,19,5,19C5,19,5,9,5,9C5,9,3,9,3,9C3,9,3,9,3,9ZM3,19C3,19.7957,3.3160700199999997,20.558701,3.87868,21.1213C3.87868,21.1213,5.29289,19.7071,5.29289,19.7071C5.10536,19.5196,5,19.2652,5,19C5,19,3,19,3,19C3,19,3,19,3,19ZM3.87868,21.1213C4.44128799,21.683901,5.20435,22,6,22C6,22,6,20,6,20C5.73478,20,5.48043,19.8946,5.29289,19.7071C5.29289,19.7071,3.87868,21.1213,3.87868,21.1213C3.87868,21.1213,3.87868,21.1213,3.87868,21.1213ZM6,22C6,22,14,22,14,22C14,22,14,20,14,20C14,20,6,20,6,20C6,20,6,22,6,22C6,22,6,22,6,22ZM14,22C14.7957,22,15.5587,21.683901,16.121299999999998,21.1213C16.121299999999998,21.1213,14.7071,19.7071,14.7071,19.7071C14.5196,19.8946,14.2652,20,14,20C14,20,14,22,14,22C14,22,14,22,14,22ZM16.121299999999998,21.1213C16.6839,20.558701,17,19.7957,17,19C17,19,15,19,15,19C15,19.2652,14.8946,19.5196,14.7071,19.7071C14.7071,19.7071,16.121299999999998,21.1213,16.121299999999998,21.1213C16.121299999999998,21.1213,16.121299999999998,21.1213,16.121299999999998,21.1213ZM17,19C17,19,17,17,17,17C17,17,15,17,15,17C15,17,15,19,15,19C15,19,17,19,17,19C17,19,17,19,17,19Z" fill="#0A0A28" fill-opacity="1"/></g></svg>