<svg xmlns="http://www.w3.org/2000/svg" xmlns:xlink="http://www.w3.org/1999/xlink" fill="none" version="1.1" width="24" height="24" viewBox="0 0 24 24"><defs><clipPath id="master_svg0_3_1722"><rect x="0" y="0" width="24" height="24" rx="0"/></clipPath></defs><g clip-path="url(#master_svg0_3_1722)"><path d="M10.799993996484375,2.4000244140625C10.163477996484374,2.4000244140625004,9.553024796484376,2.6528812340625,9.102937106484376,3.1029676240625C8.652850716484375,3.5530553140625,8.399993896484377,4.1635085140625,8.399993896484375,4.8000245140625C8.399993896484375,4.8000245140625,8.399993896484375,14.4000244140625,8.399993896484375,14.4000244140625C8.399993896484377,15.0365054140625,8.652850716484375,15.6469454140625,9.102937106484376,16.0970654140625C9.553024796484376,16.5471854140625,10.163477996484374,16.8000254140625,10.799993996484375,16.8000254140625C10.799993996484375,16.8000254140625,17.999994296484374,16.8000254140625,17.999994296484374,16.8000254140625C18.636509896484377,16.8000254140625,19.246961896484375,16.5471854140625,19.697045896484376,16.0970654140625C20.147142896484375,15.6469454140625,20.399993896484375,15.0365054140625,20.399993896484375,14.4000244140625C20.399993896484375,14.4000244140625,20.399993896484375,7.6968245140625,20.399993896484375,7.6968245140625C20.399861896484374,7.0603566140625,20.146913896484374,6.4500127140625,19.696793896484373,6.0000245140625C19.696793896484373,6.0000245140625,16.799994496484373,3.1032244540625,16.799994496484373,3.1032244540625C16.350006096484375,2.6531056440625,15.739662696484375,2.4001603440725,15.103194196484374,2.4000244140625C15.103194196484374,2.4000244140625,10.799993996484375,2.4000244140625,10.799993996484375,2.4000244140625C10.799993996484375,2.4000244140625,10.799993996484375,2.4000244140625,10.799993996484375,2.4000244140625Z" fill="#0A0A28" fill-opacity="1"/><path d="M3.600006103515625,9.60001230703125C3.600006103515625,8.96349630703125,3.852862923515625,8.353043107031251,4.302949313515625,7.90295541703125C4.753037003515625,7.45286902703125,5.363490203515625,7.200012207031251,6.000006203515625,7.20001220703125C6.000006203515625,7.20001220703125,6.000006203515625,19.20001220703125,6.000006203515625,19.20001220703125C6.000006203515625,19.20001220703125,15.600006103515625,19.20001220703125,15.600006103515625,19.20001220703125C15.600006103515625,19.83649320703125,15.347155103515625,20.44693320703125,14.897058103515626,20.89705320703125C14.446974103515625,21.34717320703125,13.836522103515625,21.60001320703125,13.200006503515626,21.60001320703125C13.200006503515626,21.60001320703125,6.000006203515625,21.60001320703125,6.000006203515625,21.60001320703125C5.363490203515625,21.60001320703125,4.753037003515625,21.34717320703125,4.302949313515625,20.89705320703125C3.852862923515625,20.44693320703125,3.6000061035156254,19.83649320703125,3.600006103515625,19.20001220703125C3.600006103515625,19.20001220703125,3.600006103515625,9.60001230703125,3.600006103515625,9.60001230703125C3.600006103515625,9.60001230703125,3.600006103515625,9.60001230703125,3.600006103515625,9.60001230703125Z" fill="#0A0A28" fill-opacity="1"/></g></svg>