<svg xmlns="http://www.w3.org/2000/svg" xmlns:xlink="http://www.w3.org/1999/xlink" fill="none" version="1.1" width="24" height="24" viewBox="0 0 24 24"><defs><clipPath id="master_svg0_3_2118"><rect x="0" y="0" width="24" height="24" rx="0"/></clipPath></defs><g clip-path="url(#master_svg0_3_2118)"><path d="M9,11C8.4477201,11,8,11.44771,8,12C8,12.55229,8.4477201,13,9,13C9,13,9,11,9,11C9,11,9,11,9,11ZM15,13C15.5523,13,16,12.55229,16,12C16,11.44771,15.5523,11,15,11C15,11,15,13,15,13C15,13,15,13,15,13ZM9,15C8.4477201,15,8,15.4477,8,16C8,16.552300000000002,8.4477201,17,9,17C9,17,9,15,9,15C9,15,9,15,9,15ZM15,17C15.5523,17,16,16.552300000000002,16,16C16,15.4477,15.5523,15,15,15C15,15,15,17,15,17C15,17,15,17,15,17ZM5,19C5,19,4,19,4,19C4,19,5,19,5,19C5,19,5,19,5,19ZM7,3C7,3,7,2,7,2C7,2,7,3,7,3C7,3,7,3,7,3ZM12.586,3C12.586,3,12.586209799999999,2,12.586209799999999,2C12.586209799999999,2,12.586,2,12.586,2C12.586,2,12.586,3,12.586,3C12.586,3,12.586,3,12.586,3ZM13.2930002,3.29300001C13.2930002,3.29300001,12.5857902,4,12.5857902,4C12.5857902,4,12.5858898,4.00011,12.5858898,4.00011C12.5858898,4.00011,13.2930002,3.29300001,13.2930002,3.29300001C13.2930002,3.29300001,13.2930002,3.29300001,13.2930002,3.29300001ZM18.707,8.7069998C18.707,8.7069998,17.9999,9.4141102,17.9999,9.4141102C17.9999,9.4141102,18,9.4142098,18,9.4142098C18,9.4142098,18.707,8.7069998,18.707,8.7069998C18.707,8.7069998,18.707,8.7069998,18.707,8.7069998ZM19,9.414C19,9.414,20,9.414,20,9.414C20,9.414,20,9.413790200000001,20,9.413790200000001C20,9.413790200000001,19,9.414,19,9.414C19,9.414,19,9.414,19,9.414ZM9,13C9,13,15,13,15,13C15,13,15,11,15,11C15,11,9,11,9,11C9,11,9,13,9,13C9,13,9,13,9,13ZM9,17C9,17,15,17,15,17C15,17,15,15,15,15C15,15,9,15,9,15C9,15,9,17,9,17C9,17,9,17,9,17ZM17,20C17,20,7,20,7,20C7,20,7,22,7,22C7,22,17,22,17,22C17,22,17,20,17,20C17,20,17,20,17,20ZM7,20C6.73478,20,6.48043,19.8946,6.29289,19.7071C6.29289,19.7071,4.87868,21.1213,4.87868,21.1213C5.44128799,21.683901,6.20435,22,7,22C7,22,7,20,7,20C7,20,7,20,7,20ZM6.29289,19.7071C6.10536,19.5196,6,19.2652,6,19C6,19,4,19,4,19C4,19.7957,4.31607002,20.558701,4.87868,21.1213C4.87868,21.1213,6.29289,19.7071,6.29289,19.7071C6.29289,19.7071,6.29289,19.7071,6.29289,19.7071ZM6,19C6,19,6,5,6,5C6,5,4,5,4,5C4,5,4,19,4,19C4,19,6,19,6,19C6,19,6,19,6,19ZM6,5C6,4.73478,6.10536,4.48043,6.29289,4.29289C6.29289,4.29289,4.87868,2.87868,4.87868,2.87868C4.31607002,3.44128901,4,4.20435,4,5C4,5,6,5,6,5C6,5,6,5,6,5ZM6.29289,4.29289C6.48043,4.10536,6.73478,4,7,4C7,4,7,2,7,2C6.20435,2,5.44128901,2.3160700199999997,4.87868,2.87868C4.87868,2.87868,6.29289,4.29289,6.29289,4.29289C6.29289,4.29289,6.29289,4.29289,6.29289,4.29289ZM7,4C7,4,12.586,4,12.586,4C12.586,4,12.586,2,12.586,2C12.586,2,7,2,7,2C7,2,7,4,7,4C7,4,7,4,7,4ZM12.5857902,4C12.5857902,4,12.5857902,4,12.5857902,4C12.5857902,4,14.0002098,2.586,14.0002098,2.586C13.6252298,2.21090102,13.1166,2.0001130099999997,12.586209799999999,2C12.586209799999999,2,12.5857902,4,12.5857902,4C12.5857902,4,12.5857902,4,12.5857902,4ZM12.5858898,4.00011C12.5858898,4.00011,17.9999,9.4141102,17.9999,9.4141102C17.9999,9.4141102,19.414099999999998,7.9998899,19.414099999999998,7.9998899C19.414099999999998,7.9998899,14.0001097,2.58589301,14.0001097,2.58589301C14.0001097,2.58589301,12.5858898,4.00011,12.5858898,4.00011C12.5858898,4.00011,12.5858898,4.00011,12.5858898,4.00011ZM18,9.4142098C18,9.4142098,18,9.4142098,18,9.4142098C18,9.4142098,20,9.413790200000001,20,9.413790200000001C19.9999,8.8834,19.789099999999998,8.3747702,19.414,7.9997902C19.414,7.9997902,18,9.4142098,18,9.4142098C18,9.4142098,18,9.4142098,18,9.4142098ZM18,9.414C18,9.414,18,19,18,19C18,19,20,19,20,19C20,19,20,9.414,20,9.414C20,9.414,18,9.414,18,9.414C18,9.414,18,9.414,18,9.414ZM18,19C18,19.2652,17.8946,19.5196,17.7071,19.7071C17.7071,19.7071,19.121299999999998,21.1213,19.121299999999998,21.1213C19.6839,20.558701,20,19.7957,20,19C20,19,18,19,18,19C18,19,18,19,18,19ZM17.7071,19.7071C17.5196,19.8946,17.2652,20,17,20C17,20,17,22,17,22C17.7957,22,18.5587,21.683901,19.121299999999998,21.1213C19.121299999999998,21.1213,17.7071,19.7071,17.7071,19.7071C17.7071,19.7071,17.7071,19.7071,17.7071,19.7071Z" fill="#0A0A28" fill-opacity="1"/></g></svg>