<svg xmlns="http://www.w3.org/2000/svg" xmlns:xlink="http://www.w3.org/1999/xlink" fill="none" version="1.1" width="24" height="24" viewBox="0 0 24 24"><defs><clipPath id="master_svg0_3_1916"><rect x="0" y="0" width="24" height="24" rx="0"/></clipPath></defs><g clip-path="url(#master_svg0_3_1916)"><path d="M10,20C9.4477201,20,9,20.447701,9,21C9,21.552299,9.4477201,22,10,22C10,22,10,20,10,20C10,20,10,20,10,20ZM19,9.414C19,9.414,20,9.414,20,9.414C20,9.414,20,9.413790200000001,20,9.413790200000001C20,9.413790200000001,19,9.414,19,9.414C19,9.414,19,9.414,19,9.414ZM18.707,8.7069998C18.707,8.7069998,17.9999,9.4141102,17.9999,9.4141102C17.9999,9.4141102,18,9.4142098,18,9.4142098C18,9.4142098,18.707,8.7069998,18.707,8.7069998C18.707,8.7069998,18.707,8.7069998,18.707,8.7069998ZM13.2930002,3.29300001C13.2930002,3.29300001,12.5857902,4,12.5857902,4C12.5857902,4,12.5858898,4.00011,12.5858898,4.00011C12.5858898,4.00011,13.2930002,3.29300001,13.2930002,3.29300001C13.2930002,3.29300001,13.2930002,3.29300001,13.2930002,3.29300001ZM12.586,3C12.586,3,12.586209799999999,2,12.586209799999999,2C12.586209799999999,2,12.586,2,12.586,2C12.586,2,12.586,3,12.586,3C12.586,3,12.586,3,12.586,3ZM7,3C7,3,7,2,7,2C7,2,7,3,7,3C7,3,7,3,7,3ZM5,5C5,5,4,5,4,5C4,5,5,5,5,5C5,5,5,5,5,5ZM4,16C4,16.552300000000002,4.44771498,17,5,17C5.55228502,17,6,16.552300000000002,6,16C6,16,4,16,4,16C4,16,4,16,4,16ZM4.29289299,20.2929C3.90237,20.683399,3.90237,21.316601,4.29289299,21.7071C4.68341699,22.097601,5.31658301,22.097601,5.70710701,21.7071C5.70710701,21.7071,4.29289299,20.2929,4.29289299,20.2929C4.29289299,20.2929,4.29289299,20.2929,4.29289299,20.2929ZM9.8790002,16.121000000000002C9.8790002,16.121000000000002,10.5919199,15.4198,10.5919199,15.4198C10.5919199,15.4198,10.5919199,15.4198,10.5919199,15.4198C10.5919199,15.4198,9.8790002,16.121000000000002,9.8790002,16.121000000000002C9.8790002,16.121000000000002,9.8790002,16.121000000000002,9.8790002,16.121000000000002ZM14.1219997,11.8789997C14.1219997,11.8789997,13.4205904,12.5917597,13.4205904,12.5917597C13.4205904,12.5917597,14.1219997,11.8789997,14.1219997,11.8789997C14.1219997,11.8789997,14.1219997,11.8789997,14.1219997,11.8789997ZM10,22C10,22,17,22,17,22C17,22,17,20,17,20C17,20,10,20,10,20C10,20,10,22,10,22C10,22,10,22,10,22ZM17,22C17.7957,22,18.5587,21.683901,19.121299999999998,21.1213C19.121299999999998,21.1213,17.7071,19.7071,17.7071,19.7071C17.5196,19.8946,17.2652,20,17,20C17,20,17,22,17,22C17,22,17,22,17,22ZM19.121299999999998,21.1213C19.6839,20.558701,20,19.7957,20,19C20,19,18,19,18,19C18,19.2652,17.8946,19.5196,17.7071,19.7071C17.7071,19.7071,19.121299999999998,21.1213,19.121299999999998,21.1213C19.121299999999998,21.1213,19.121299999999998,21.1213,19.121299999999998,21.1213ZM20,19C20,19,20,9.414,20,9.414C20,9.414,18,9.414,18,9.414C18,9.414,18,19,18,19C18,19,20,19,20,19C20,19,20,19,20,19ZM20,9.413790200000001C19.9999,8.8834,19.789099999999998,8.3747702,19.414,7.9997902C19.414,7.9997902,18,9.4142098,18,9.4142098C18,9.4142098,18,9.4142098,18,9.4142098C18,9.4142098,20,9.413790200000001,20,9.413790200000001C20,9.413790200000001,20,9.413790200000001,20,9.413790200000001ZM19.414099999999998,7.9998899C19.414099999999998,7.9998899,14.0001097,2.58589301,14.0001097,2.58589301C14.0001097,2.58589301,12.5858898,4.00011,12.5858898,4.00011C12.5858898,4.00011,17.9999,9.4141102,17.9999,9.4141102C17.9999,9.4141102,19.414099999999998,7.9998899,19.414099999999998,7.9998899C19.414099999999998,7.9998899,19.414099999999998,7.9998899,19.414099999999998,7.9998899ZM14.0002098,2.586C13.6252298,2.21090102,13.1166,2.0001130099999997,12.586209799999999,2C12.586209799999999,2,12.5857902,4,12.5857902,4C12.5857902,4,12.5857902,4,12.5857902,4C12.5857902,4,14.0002098,2.586,14.0002098,2.586C14.0002098,2.586,14.0002098,2.586,14.0002098,2.586ZM12.586,2C12.586,2,7,2,7,2C7,2,7,4,7,4C7,4,12.586,4,12.586,4C12.586,4,12.586,2,12.586,2C12.586,2,12.586,2,12.586,2ZM7,2C6.20435,2,5.44128901,2.3160700199999997,4.87868,2.87868C4.87868,2.87868,6.29289,4.29289,6.29289,4.29289C6.48043,4.10536,6.73478,4,7,4C7,4,7,2,7,2C7,2,7,2,7,2ZM4.87868,2.87868C4.31607002,3.44128901,4,4.20435,4,5C4,5,6,5,6,5C6,4.73478,6.10536,4.48043,6.29289,4.29289C6.29289,4.29289,4.87868,2.87868,4.87868,2.87868C4.87868,2.87868,4.87868,2.87868,4.87868,2.87868ZM4,5C4,5,4,16,4,16C4,16,6,16,6,16C6,16,6,5,6,5C6,5,4,5,4,5C4,5,4,5,4,5ZM5.70710701,21.7071C5.70710701,21.7071,10.586110099999999,16.8281,10.586110099999999,16.8281C10.586110099999999,16.8281,9.171889799999999,15.4139,9.171889799999999,15.4139C9.171889799999999,15.4139,4.29289299,20.2929,4.29289299,20.2929C4.29289299,20.2929,5.70710701,21.7071,5.70710701,21.7071C5.70710701,21.7071,5.70710701,21.7071,5.70710701,21.7071ZM9.166080000000001,16.822200000000002C9.5363498,17.198700000000002,9.9775,17.4981,10.464059800000001,17.703200000000002C10.464059800000001,17.703200000000002,11.2409201,15.8602,11.2409201,15.8602C10.9976301,15.7577,10.777059999999999,15.608,10.5919199,15.4198C10.5919199,15.4198,9.166080000000001,16.822200000000002,9.166080000000001,16.822200000000002C9.166080000000001,16.822200000000002,9.166080000000001,16.822200000000002,9.166080000000001,16.822200000000002ZM10.464059800000001,17.703200000000002C10.950630199999999,17.9083,11.47299,18.015,12.0010099,18.017200000000003C12.0010099,18.017200000000003,12.0093899,16.0173,12.0093899,16.0173C11.7453799,16.016199999999998,11.484200000000001,15.9628,11.2409201,15.8602C11.2409201,15.8602,10.464059800000001,17.703200000000002,10.464059800000001,17.703200000000002C10.464059800000001,17.703200000000002,10.464059800000001,17.703200000000002,10.464059800000001,17.703200000000002ZM12.0010099,18.017200000000003C12.5290399,18.0195,13.0522804,17.917099999999998,13.5405397,17.7161C13.5405397,17.7161,12.779160000000001,15.8667,12.779160000000001,15.8667C12.5350199,15.9672,12.2733998,16.0184,12.0093899,16.0173C12.0093899,16.0173,12.0010099,18.017200000000003,12.0010099,18.017200000000003C12.0010099,18.017200000000003,12.0010099,18.017200000000003,12.0010099,18.017200000000003ZM13.5405397,17.7161C14.0288095,17.5151,14.4724503,17.2194,14.84587,16.846C14.84587,16.846,13.4318199,15.4317,13.4318199,15.4317C13.2451096,15.6183,13.0232897,15.7662,12.779160000000001,15.8667C12.779160000000001,15.8667,13.5405397,17.7161,13.5405397,17.7161C13.5405397,17.7161,13.5405397,17.7161,13.5405397,17.7161ZM14.84587,16.846C15.2193,16.4727,15.5151,16.0291,15.7162,15.5409C15.7162,15.5409,13.8669901,14.7791,13.8669901,14.7791C13.7664299,15.0232,13.6185303,15.245,13.4318199,15.4317C13.4318199,15.4317,14.84587,16.846,14.84587,16.846C14.84587,16.846,14.84587,16.846,14.84587,16.846ZM15.7162,15.5409C15.9174,15.0527,16.0198,14.5295,16.017699999999998,14.0015C16.017699999999998,14.0015,14.0177603,14.0094,14.0177603,14.0094C14.0187998,14.2734,13.9675598,14.535,13.8669901,14.7791C13.8669901,14.7791,15.7162,15.5409,15.7162,15.5409C15.7162,15.5409,15.7162,15.5409,15.7162,15.5409ZM16.017699999999998,14.0015C16.015700000000002,13.4734,15.909,12.9510498,15.7041,12.4644403C15.7041,12.4644403,13.8609104,13.2409,13.8609104,13.2409C13.9634104,13.4842,14.0167103,13.7454,14.0177603,14.0094C14.0177603,14.0094,16.017699999999998,14.0015,16.017699999999998,14.0015C16.017699999999998,14.0015,16.017699999999998,14.0015,16.017699999999998,14.0015ZM15.7041,12.4644403C15.4991,11.9778204,15.1998,11.5366096,14.82341,11.1662397C14.82341,11.1662397,13.4205904,12.5917597,13.4205904,12.5917597C13.6087704,12.7769403,13.75842,12.99755,13.8609104,13.2409C13.8609104,13.2409,15.7041,12.4644403,15.7041,12.4644403C15.7041,12.4644403,15.7041,12.4644403,15.7041,12.4644403ZM14.82341,11.1662397C14.07129,10.4260998,13.0571699,10.013130199999999,12.0019598,10.0173101C12.0019598,10.0173101,12.00986,12.0172901,12.00986,12.0172901C12.5374699,12.0152102,13.0445299,12.2216902,13.4205904,12.5917597C13.4205904,12.5917597,14.82341,11.1662397,14.82341,11.1662397C14.82341,11.1662397,14.82341,11.1662397,14.82341,11.1662397ZM12.0019598,10.0173101C10.9467402,10.0214801,9.9359198,10.442450000000001,9.1896801,11.1885099C9.1896801,11.1885099,10.6037202,12.6028996,10.6037202,12.6028996C10.976849999999999,12.2298603,11.482260199999999,12.0193796,12.00986,12.0172901C12.00986,12.0172901,12.0019598,10.0173101,12.0019598,10.0173101C12.0019598,10.0173101,12.0019598,10.0173101,12.0019598,10.0173101ZM9.1896801,11.1885099C8.4434299,11.9345798,8.0222299,12.9453001,8.0178101,14.0005C8.0178101,14.0005,10.0177898,14.0089,10.0177898,14.0089C10.02,13.4813,10.2305999,12.9759302,10.6037202,12.6028996C10.6037202,12.6028996,9.1896801,11.1885099,9.1896801,11.1885099C9.1896801,11.1885099,9.1896801,11.1885099,9.1896801,11.1885099ZM8.0178101,14.0005C8.0133901,15.0557,8.42611,16.0699,9.166080000000001,16.822200000000002C9.166080000000001,16.822200000000002,10.5919199,15.4198,10.5919199,15.4198C10.22194,15.0436,10.015580199999999,14.5365,10.0177898,14.0089C10.0177898,14.0089,8.0178101,14.0005,8.0178101,14.0005C8.0178101,14.0005,8.0178101,14.0005,8.0178101,14.0005Z" fill="#0A0A28" fill-opacity="1"/></g></svg>