<svg xmlns="http://www.w3.org/2000/svg" xmlns:xlink="http://www.w3.org/1999/xlink" fill="none" version="1.1" width="24" height="24" viewBox="0 0 24 24"><defs><clipPath id="master_svg0_3_2082"><rect x="0" y="0" width="24" height="24" rx="0"/></clipPath></defs><g clip-path="url(#master_svg0_3_2082)"><path d="M9,12C8.4477201,12,8,12.44771,8,13C8,13.5523,8.4477201,14,9,14C9,14,9,12,9,12C9,12,9,12,9,12ZM15,14C15.5523,14,16,13.5523,16,13C16,12.44771,15.5523,12,15,12C15,12,15,14,15,14C15,14,15,14,15,14ZM13,10C13,9.4477201,12.5522799,9,12,9C11.4477201,9,11,9.4477201,11,10C11,10,13,10,13,10C13,10,13,10,13,10ZM11,16C11,16.552300000000002,11.4477201,17,12,17C12.5522799,17,13,16.552300000000002,13,16C13,16,11,16,11,16C11,16,11,16,11,16ZM5,19C5,19,4,19,4,19C4,19,5,19,5,19C5,19,5,19,5,19ZM7,3C7,3,7,2,7,2C7,2,7,3,7,3C7,3,7,3,7,3ZM12.586,3C12.586,3,12.586209799999999,2,12.586209799999999,2C12.586209799999999,2,12.586,2,12.586,2C12.586,2,12.586,3,12.586,3C12.586,3,12.586,3,12.586,3ZM13.2930002,3.29300001C13.2930002,3.29300001,12.5857902,4,12.5857902,4C12.5857902,4,12.5858898,4.00011,12.5858898,4.00011C12.5858898,4.00011,13.2930002,3.29300001,13.2930002,3.29300001C13.2930002,3.29300001,13.2930002,3.29300001,13.2930002,3.29300001ZM18.707,8.7069998C18.707,8.7069998,17.9999,9.4141102,17.9999,9.4141102C17.9999,9.4141102,18,9.4142098,18,9.4142098C18,9.4142098,18.707,8.7069998,18.707,8.7069998C18.707,8.7069998,18.707,8.7069998,18.707,8.7069998ZM19,9.414C19,9.414,20,9.414,20,9.414C20,9.414,20,9.413790200000001,20,9.413790200000001C20,9.413790200000001,19,9.414,19,9.414C19,9.414,19,9.414,19,9.414ZM9,14C9,14,15,14,15,14C15,14,15,12,15,12C15,12,9,12,9,12C9,12,9,14,9,14C9,14,9,14,9,14ZM11,10C11,10,11,16,11,16C11,16,13,16,13,16C13,16,13,10,13,10C13,10,11,10,11,10C11,10,11,10,11,10ZM17,20C17,20,7,20,7,20C7,20,7,22,7,22C7,22,17,22,17,22C17,22,17,20,17,20C17,20,17,20,17,20ZM7,20C6.73478,20,6.48043,19.8946,6.29289,19.7071C6.29289,19.7071,4.87868,21.1213,4.87868,21.1213C5.44128799,21.683901,6.20435,22,7,22C7,22,7,20,7,20C7,20,7,20,7,20ZM6.29289,19.7071C6.10536,19.5196,6,19.2652,6,19C6,19,4,19,4,19C4,19.7957,4.31607002,20.558701,4.87868,21.1213C4.87868,21.1213,6.29289,19.7071,6.29289,19.7071C6.29289,19.7071,6.29289,19.7071,6.29289,19.7071ZM6,19C6,19,6,5,6,5C6,5,4,5,4,5C4,5,4,19,4,19C4,19,6,19,6,19C6,19,6,19,6,19ZM6,5C6,4.73478,6.10536,4.48043,6.29289,4.29289C6.29289,4.29289,4.87868,2.87868,4.87868,2.87868C4.31607002,3.44128901,4,4.20435,4,5C4,5,6,5,6,5C6,5,6,5,6,5ZM6.29289,4.29289C6.48043,4.10536,6.73478,4,7,4C7,4,7,2,7,2C6.20435,2,5.44128901,2.3160700199999997,4.87868,2.87868C4.87868,2.87868,6.29289,4.29289,6.29289,4.29289C6.29289,4.29289,6.29289,4.29289,6.29289,4.29289ZM7,4C7,4,12.586,4,12.586,4C12.586,4,12.586,2,12.586,2C12.586,2,7,2,7,2C7,2,7,4,7,4C7,4,7,4,7,4ZM12.5857902,4C12.5857902,4,12.5857902,4,12.5857902,4C12.5857902,4,14.0002098,2.586,14.0002098,2.586C13.6252298,2.21090102,13.1166,2.0001130099999997,12.586209799999999,2C12.586209799999999,2,12.5857902,4,12.5857902,4C12.5857902,4,12.5857902,4,12.5857902,4ZM12.5858898,4.00011C12.5858898,4.00011,17.9999,9.4141102,17.9999,9.4141102C17.9999,9.4141102,19.414099999999998,7.9998899,19.414099999999998,7.9998899C19.414099999999998,7.9998899,14.0001097,2.58589301,14.0001097,2.58589301C14.0001097,2.58589301,12.5858898,4.00011,12.5858898,4.00011C12.5858898,4.00011,12.5858898,4.00011,12.5858898,4.00011ZM18,9.4142098C18,9.4142098,18,9.4142098,18,9.4142098C18,9.4142098,20,9.413790200000001,20,9.413790200000001C19.9999,8.8834,19.789099999999998,8.3747702,19.414,7.9997902C19.414,7.9997902,18,9.4142098,18,9.4142098C18,9.4142098,18,9.4142098,18,9.4142098ZM18,9.414C18,9.414,18,19,18,19C18,19,20,19,20,19C20,19,20,9.414,20,9.414C20,9.414,18,9.414,18,9.414C18,9.414,18,9.414,18,9.414ZM18,19C18,19.2652,17.8946,19.5196,17.7071,19.7071C17.7071,19.7071,19.121299999999998,21.1213,19.121299999999998,21.1213C19.6839,20.558701,20,19.7957,20,19C20,19,18,19,18,19C18,19,18,19,18,19ZM17.7071,19.7071C17.5196,19.8946,17.2652,20,17,20C17,20,17,22,17,22C17.7957,22,18.5587,21.683901,19.121299999999998,21.1213C19.121299999999998,21.1213,17.7071,19.7071,17.7071,19.7071C17.7071,19.7071,17.7071,19.7071,17.7071,19.7071Z" fill="#0A0A28" fill-opacity="1"/></g></svg>