<svg xmlns="http://www.w3.org/2000/svg" xmlns:xlink="http://www.w3.org/1999/xlink" fill="none" version="1.1" width="24" height="24" viewBox="0 0 24 24"><defs><clipPath id="master_svg0_3_1729"><rect x="0" y="0" width="24" height="24" rx="0"/></clipPath></defs><g clip-path="url(#master_svg0_3_1729)"><path d="M12.0000248140625,21.6000254140625C14.5460654140625,21.6000254140625,16.9879444140625,20.5885444140625,18.7883054140625,18.7883054140625C20.5885444140625,16.9879444140625,21.6000254140625,14.5460654140625,21.6000254140625,12.0000248140625C21.6000254140625,9.4539490140625,20.5885444140625,7.0121527140625,18.7883054140625,5.211804414062501C16.9879444140625,3.4114504140625,14.5460654140625,2.4000244140625013,12.0000248140625,2.4000244140625C9.4539490140625,2.4000244140625018,7.0121527140625,3.4114504140625,5.211804414062501,5.211804414062501C3.4114504140625,7.0121527140625,2.400024414062502,9.4539490140625,2.4000244140625,12.0000248140625C2.4000244140625018,14.5460654140625,3.4114504140625,16.9879444140625,5.211804414062501,18.7883054140625C7.0121527140625,20.5885444140625,9.4539490140625,21.6000254140625,12.0000248140625,21.6000254140625C12.0000248140625,21.6000254140625,12.0000248140625,21.6000254140625,12.0000248140625,21.6000254140625C12.0000248140625,21.6000254140625,12.0000248140625,21.6000254140625,12.0000248140625,21.6000254140625ZM8.4000244140625,10.8000250140625C8.4000244140625,10.8000250140625,6.0000245140625,10.8000250140625,6.0000245140625,10.8000250140625C6.0000245140625,10.8000250140625,6.0000245140625,13.2000244140625,6.0000245140625,13.2000244140625C6.0000245140625,13.2000244140625,8.4000244140625,13.2000244140625,8.4000244140625,13.2000244140625C8.4000244140625,13.2000244140625,8.4000244140625,10.8000250140625,8.4000244140625,10.8000250140625C8.4000244140625,10.8000250140625,8.4000244140625,10.8000250140625,8.4000244140625,10.8000250140625ZM18.0000244140625,10.8000250140625C18.0000244140625,10.8000250140625,15.6000254140625,10.8000250140625,15.6000254140625,10.8000250140625C15.6000254140625,10.8000250140625,15.6000254140625,13.2000244140625,15.6000254140625,13.2000244140625C15.6000254140625,13.2000244140625,18.0000244140625,13.2000244140625,18.0000244140625,13.2000244140625C18.0000244140625,13.2000244140625,18.0000244140625,10.8000250140625,18.0000244140625,10.8000250140625C18.0000244140625,10.8000250140625,18.0000244140625,10.8000250140625,18.0000244140625,10.8000250140625ZM10.8000250140625,10.8000250140625C10.8000250140625,10.8000250140625,13.2000244140625,10.8000250140625,13.2000244140625,10.8000250140625C13.2000244140625,10.8000250140625,13.2000244140625,13.2000244140625,13.2000244140625,13.2000244140625C13.2000244140625,13.2000244140625,10.8000250140625,13.2000244140625,10.8000250140625,13.2000244140625C10.8000250140625,13.2000244140625,10.8000250140625,10.8000250140625,10.8000250140625,10.8000250140625C10.8000250140625,10.8000250140625,10.8000250140625,10.8000250140625,10.8000250140625,10.8000250140625Z" fill-rule="evenodd" fill="#0A0A28" fill-opacity="1"/></g></svg>