<svg xmlns="http://www.w3.org/2000/svg" xmlns:xlink="http://www.w3.org/1999/xlink" fill="none" version="1.1" width="24" height="24" viewBox="0 0 24 24"><defs><clipPath id="master_svg0_3_1979"><rect x="0" y="0" width="24" height="24" rx="0"/></clipPath></defs><g clip-path="url(#master_svg0_3_1979)"><path d="M7.2000246140625,11.9999756859375C7.2000246140625,12.6364917859375,6.9471726140625,13.2469436859375,6.4970765140625,13.697027685937499C6.0469925140625005,14.147123785937499,5.436540614062499,14.3999757859375,4.8000245140625,14.3999757859375C4.1635085140625,14.3999757859375,3.5530553140625,14.147123785937499,3.1029676240625,13.697027685937499C2.6528812340625,13.2469436859375,2.4000244140625004,12.6364917859375,2.4000244140625,11.9999756859375C2.4000244140624996,11.3634596859375,2.6528812340625,10.7530076859375,3.1029676240625,10.3029199859375C3.5530553140625,9.8528324059375,4.1635085140625,9.599975585937498,4.8000245140625,9.5999755859375C5.436540614062499,9.599975585937498,6.0469925140625005,9.8528324059375,6.4970765140625,10.3029199859375C6.9471726140625,10.7530076859375,7.2000246140625,11.3634596859375,7.2000246140625,11.9999756859375C7.2000246140625,11.9999756859375,7.2000246140625,11.9999756859375,7.2000246140625,11.9999756859375ZM14.4000244140625,11.9999756859375C14.4000244140625,12.6364917859375,14.1471734140625,13.2469436859375,13.6970764140625,13.697027685937499C13.2469924140625,14.147123785937499,12.6365404140625,14.3999757859375,12.0000248140625,14.3999757859375C11.3635092140625,14.3999757859375,10.7530565140625,14.147123785937499,10.3029728140625,13.697027685937499C9.852876614062499,13.2469436859375,9.6000247140625,12.6364917859375,9.6000247140625,11.9999756859375C9.6000247140625,11.3634596859375,9.852876614062499,10.7530076859375,10.3029728140625,10.3029199859375C10.7530565140625,9.8528324059375,11.3635092140625,9.599975585937498,12.0000248140625,9.5999755859375C12.6365404140625,9.599975585937498,13.2469924140625,9.8528324059375,13.6970764140625,10.3029199859375C14.1471734140625,10.7530076859375,14.4000244140625,11.3634596859375,14.4000244140625,11.9999756859375C14.4000244140625,11.9999756859375,14.4000244140625,11.9999756859375,14.4000244140625,11.9999756859375C14.4000244140625,11.9999756859375,14.4000244140625,11.9999756859375,14.4000244140625,11.9999756859375ZM19.2000254140625,14.3999757859375C19.8365054140625,14.3999757859375,20.4469454140625,14.147123785937499,20.8970644140625,13.697027685937499C21.3471854140625,13.2469436859375,21.6000254140625,12.6364917859375,21.6000254140625,11.9999756859375C21.6000254140625,11.3634596859375,21.3471854140625,10.7530076859375,20.8970644140625,10.3029199859375C20.4469454140625,9.8528324059375,19.8365054140625,9.599975585937502,19.2000254140625,9.5999755859375C18.5635454140625,9.599975585937502,17.9531054140625,9.8528324059375,17.5029854140625,10.3029199859375C17.052865414062502,10.7530076859375,16.8000254140625,11.3634596859375,16.8000254140625,11.9999756859375C16.8000254140625,12.6364917859375,17.052865414062502,13.2469436859375,17.5029854140625,13.697027685937499C17.9531054140625,14.147123785937499,18.5635454140625,14.3999757859375,19.2000254140625,14.3999757859375C19.2000254140625,14.3999757859375,19.2000254140625,14.3999757859375,19.2000254140625,14.3999757859375Z" fill="#0A0A28" fill-opacity="1"/></g></svg>