<svg xmlns="http://www.w3.org/2000/svg" xmlns:xlink="http://www.w3.org/1999/xlink" fill="none" version="1.1" width="24" height="24" viewBox="0 0 24 24"><defs><clipPath id="master_svg0_3_2382"><rect x="0" y="0" width="24" height="24" rx="0"/></clipPath></defs><g clip-path="url(#master_svg0_3_2382)"><path d="M13,5C13,4.44771501,12.5522799,4,12,4C11.44771501,4,11,4.44771501,11,5C11,5,13,5,13,5C13,5,13,5,13,5ZM11,5.01C11,5.5622801,11.44771501,6.01,12,6.01C12.5522799,6.01,13,5.5622801,13,5.01C13,5.01,11,5.01,11,5.01C11,5.01,11,5.01,11,5.01ZM13,12C13,11.4477201,12.5522799,11,12,11C11.44771501,11,11,11.4477201,11,12C11,12,13,12,13,12C13,12,13,12,13,12ZM11,12.0100002C11,12.5622902,11.44771501,13.0100002,12,13.0100002C12.5522799,13.0100002,13,12.5622902,13,12.0100002C13,12.0100002,11,12.0100002,11,12.0100002C11,12.0100002,11,12.0100002,11,12.0100002ZM13,19C13,18.447699999999998,12.5522799,18,12,18C11.44771501,18,11,18.447699999999998,11,19C11,19,13,19,13,19C13,19,13,19,13,19ZM11,19.009999999999998C11,19.5623,11.44771501,20.01,12,20.01C12.5522799,20.01,13,19.5623,13,19.009999999999998C13,19.009999999999998,11,19.009999999999998,11,19.009999999999998C11,19.009999999999998,11,19.009999999999998,11,19.009999999999998ZM12,4C12,4,12,5,12,5C12,5,12,4,12,4C12,4,12,4,12,4ZM11,5C11,5,11,5.01,11,5.01C11,5.01,13,5.01,13,5.01C13,5.01,13,5,13,5C13,5,11,5,11,5C11,5,11,5,11,5ZM11,12C11,12,11,12.0100002,11,12.0100002C11,12.0100002,13,12.0100002,13,12.0100002C13,12.0100002,13,12,13,12C13,12,11,12,11,12C11,12,11,12,11,12ZM11,19C11,19,11,19.009999999999998,11,19.009999999999998C11,19.009999999999998,13,19.009999999999998,13,19.009999999999998C13,19.009999999999998,13,19,13,19C13,19,11,19,11,19C11,19,11,19,11,19ZM12,5C12,5,12,5,12,5C12,5,10.585787,6.4142101,10.585787,6.4142101C10.9608589,6.789289999999999,11.46956599,7,12,7C12,7,12,5,12,5C12,5,12,5,12,5ZM12,5C12,5,12,5,12,5C12,5,10,5,10,5C10,5.53043,10.21071398,6.03914,10.585787,6.4142101C10.585787,6.4142101,12,5,12,5C12,5,12,5,12,5ZM12,5C12,5,12,5,12,5C12,5,10.585787,3.585787,10.585787,3.585787C10.21071398,3.9608589,10,4.4695659899999995,10,5C10,5,12,5,12,5C12,5,12,5,12,5ZM12,5C12,5,12,5,12,5C12,5,12,3,12,3C11.46956599,3,10.9608589,3.21071398,10.585787,3.585787C10.585787,3.585787,12,5,12,5C12,5,12,5,12,5ZM12,5C12,5,12,5,12,5C12,5,13.4142101,3.585787,13.4142101,3.585787C13.03914,3.21071398,12.530429999999999,3,12,3C12,3,12,5,12,5C12,5,12,5,12,5ZM12,5C12,5,12,5,12,5C12,5,14,5,14,5C14,4.4695659899999995,13.78929,3.9608589,13.4142101,3.585787C13.4142101,3.585787,12,5,12,5C12,5,12,5,12,5ZM12,5C12,5,12,5,12,5C12,5,13.4142101,6.4142101,13.4142101,6.4142101C13.78929,6.03914,14,5.53043,14,5C14,5,12,5,12,5C12,5,12,5,12,5ZM12,5C12,5,12,5,12,5C12,5,12,7,12,7C12.530429999999999,7,13.03914,6.789289999999999,13.4142101,6.4142101C13.4142101,6.4142101,12,5,12,5C12,5,12,5,12,5ZM12,12C12,12,12,12,12,12C12,12,10.585787,13.4142103,10.585787,13.4142103C10.9608589,13.7892904,11.46956599,14,12,14C12,14,12,12,12,12C12,12,12,12,12,12ZM12,12C12,12,12,12,12,12C12,12,10,12,10,12C10,12.5304298,10.21071398,13.0391397,10.585787,13.4142103C10.585787,13.4142103,12,12,12,12C12,12,12,12,12,12ZM12,12C12,12,12,12,12,12C12,12,10.585787,10.5857902,10.585787,10.5857902C10.21071398,10.9608598,10,11.4695702,10,12C10,12,12,12,12,12C12,12,12,12,12,12ZM12,12C12,12,12,12,12,12C12,12,12,10,12,10C11.46956599,10,10.9608589,10.210709999999999,10.585787,10.5857902C10.585787,10.5857902,12,12,12,12C12,12,12,12,12,12ZM12,12C12,12,12,12,12,12C12,12,13.4142101,10.5857902,13.4142101,10.5857902C13.03914,10.210709999999999,12.530429999999999,10,12,10C12,10,12,12,12,12C12,12,12,12,12,12ZM12,12C12,12,12,12,12,12C12,12,14,12,14,12C14,11.4695702,13.78929,10.9608598,13.4142101,10.5857902C13.4142101,10.5857902,12,12,12,12C12,12,12,12,12,12ZM12,12C12,12,12,12,12,12C12,12,13.4142101,13.4142103,13.4142101,13.4142103C13.78929,13.0391397,14,12.5304298,14,12C14,12,12,12,12,12C12,12,12,12,12,12ZM12,12C12,12,12,12,12,12C12,12,12,14,12,14C12.530429999999999,14,13.03914,13.7892904,13.4142101,13.4142103C13.4142101,13.4142103,12,12,12,12C12,12,12,12,12,12ZM12,19C12,19,12,19,12,19C12,19,10.585787,20.4142,10.585787,20.4142C10.960860599,20.789301,11.469569,21,12,21C12,21,12,19,12,19C12,19,12,19,12,19ZM12,19C12,19,12,19,12,19C12,19,10,19,10,19C10,19.5304,10.21071398,20.039101,10.585787,20.4142C10.585787,20.4142,12,19,12,19C12,19,12,19,12,19ZM12,19C12,19,12,19,12,19C12,19,10.585787,17.5858,10.585787,17.5858C10.21071398,17.960900000000002,10,18.4696,10,19C10,19,12,19,12,19C12,19,12,19,12,19ZM12,19C12,19,12,19,12,19C12,19,12,17,12,17C11.469569,17,10.960860599,17.2107,10.585787,17.5858C10.585787,17.5858,12,19,12,19C12,19,12,19,12,19ZM12,19C12,19,12,19,12,19C12,19,13.4142101,17.5858,13.4142101,17.5858C13.03914,17.2107,12.530429999999999,17,12,17C12,17,12,19,12,19C12,19,12,19,12,19ZM12,19C12,19,12,19,12,19C12,19,14,19,14,19C14,18.4696,13.78929,17.960900000000002,13.4142101,17.5858C13.4142101,17.5858,12,19,12,19C12,19,12,19,12,19ZM12,19C12,19,12,19,12,19C12,19,13.4142101,20.4142,13.4142101,20.4142C13.78929,20.039101,14,19.5304,14,19C14,19,12,19,12,19C12,19,12,19,12,19ZM12,19C12,19,12,19,12,19C12,19,12,21,12,21C12.530429999999999,21,13.03914,20.789301,13.4142101,20.4142C13.4142101,20.4142,12,19,12,19C12,19,12,19,12,19Z" fill="#0A0A28" fill-opacity="1"/></g></svg>