<svg xmlns="http://www.w3.org/2000/svg" xmlns:xlink="http://www.w3.org/1999/xlink" fill="none" version="1.1" width="24" height="24" viewBox="0 0 24 24"><defs><clipPath id="master_svg0_166_04706"><rect x="0" y="0" width="24" height="24" rx="0"/></clipPath></defs><g clip-path="url(#master_svg0_166_04706)"><g><path d="M14,6L14,5Q13.999999500000001,4.90150857,14.0192142,4.80490965Q14.0384283,4.70831072,14.0761194,4.6173164799999995Q14.1138105,4.52632231,14.1685295,4.44442973Q14.2232485,4.36253715,14.2928925,4.2928932Q14.3625364,4.22324926,14.4444289,4.16853037Q14.5263214,4.11381148,14.6173158,4.076120459Q14.7083101,4.038429435,14.8049092,4.019214718Q14.9015083,4,15,4L16,4Q16.0984917,4,16.1950893,4.019214718Q16.2916889,4.038429435,16.382682799999998,4.076120459Q16.4736767,4.11381148,16.5555696,4.16853037Q16.6374626,4.22324926,16.7071066,4.2928932Q16.7767506,4.36253715,16.8314686,4.44442976Q16.8861876,4.52632231,16.9238787,4.6173164799999995Q16.9615698,4.70831072,16.980785400000002,4.80490965Q17,4.90150857,17,5L17,6Q17,6.0984912,16.980785400000002,6.1950903Q16.9615698,6.2916889000000005,16.9238787,6.3826833Q16.8861876,6.4736774,16.8314686,6.555570100000001Q16.7767506,6.6374626,16.7071066,6.7071065999999995Q16.6374626,6.7767506,16.555568700000002,6.8314691Q16.4736767,6.886188000000001,16.382682799999998,6.923879100000001Q16.2916889,6.9615703,16.1950893,6.9807851Q16.0984917,7,16,7L15,7Q14.9015083,7,14.8049092,6.9807849Q14.7083101,6.9615703,14.6173158,6.923879100000001Q14.5263214,6.886188000000001,14.4444289,6.8314693Q14.3625364,6.7767506,14.2928929,6.7071065999999995Q14.2232485,6.6374626,14.1685295,6.555570100000001Q14.1138105,6.4736774,14.0761194,6.3826833Q14.0384283,6.2916889000000005,14.0192142,6.1950903Q13.999999500000001,6.0984912,14,6ZM7,6L7,5Q7,4.90150857,7.019214718,4.80490965Q7.038429435,4.70831072,7.076120459,4.6173164799999995Q7.11381148,4.52632231,7.16853037,4.44442973Q7.22324926,4.36253715,7.2928932,4.2928932Q7.36253715,4.22324926,7.44442976,4.16853037Q7.52632231,4.11381148,7.6173164799999995,4.076120459Q7.70831072,4.038429435,7.80490965,4.019214718Q7.90150857,4,8,4L9,4Q9.0984912,4,9.1950903,4.019214718Q9.2916889,4.038429435,9.3826833,4.076120459Q9.4736774,4.11381148,9.5555701,4.16853037Q9.6374626,4.22324926,9.7071066,4.2928932Q9.7767506,4.36253715,9.8314691,4.44442976Q9.886188,4.52632231,9.9238791,4.6173164799999995Q9.9615703,4.70831072,9.9807851,4.80490965Q10,4.90150857,10,5L10,6Q10,6.0984912,9.9807849,6.1950903Q9.9615703,6.2916889000000005,9.9238791,6.3826833Q9.886188,6.4736774,9.8314693,6.555570100000001Q9.7767506,6.6374626,9.7071066,6.7071065999999995Q9.6374626,6.7767506,9.5555701,6.8314691Q9.4736774,6.886188000000001,9.3826833,6.923879100000001Q9.2916889,6.9615703,9.1950903,6.9807851Q9.0984912,7,9,7L8,7Q7.90150857,7,7.80490965,6.9807849Q7.70831072,6.9615703,7.6173164799999995,6.923879100000001Q7.52632231,6.886188000000001,7.44442973,6.8314693Q7.36253715,6.7767506,7.2928932,6.7071065999999995Q7.22324926,6.6374626,7.16853037,6.555570100000001Q7.11381148,6.4736774,7.076120459,6.3826833Q7.038429435,6.2916889000000005,7.019214718,6.1950903Q7,6.0984912,7,6ZM14,12L14,11Q13.999999500000001,10.9015083,14.0192142,10.8049088Q14.0384283,10.7083101,14.0761194,10.6173158Q14.1138105,10.5263214,14.1685295,10.4444289Q14.2232485,10.3625369,14.2928925,10.2928934Q14.3625364,10.2232494,14.4444289,10.16853Q14.5263214,10.1138115,14.6173158,10.0761199Q14.7083101,10.0384293,14.8049092,10.0192146Q14.9015083,10,15,10L16,10Q16.0984917,10,16.1950893,10.0192146Q16.2916889,10.0384293,16.382682799999998,10.0761199Q16.4736767,10.113811,16.5555696,10.16853Q16.6374626,10.2232485,16.7071066,10.2928929Q16.7767506,10.3625364,16.8314686,10.4444289Q16.8861876,10.5263214,16.9238787,10.6173158Q16.9615698,10.7083101,16.980785400000002,10.8049092Q17,10.9015083,17,11L17,12Q17,12.0984917,16.980785400000002,12.1950903Q16.9615698,12.2916889,16.9238787,12.3826828Q16.8861876,12.4736767,16.8314686,12.5555706Q16.7767506,12.6374626,16.7071066,12.7071066Q16.6374626,12.7767506,16.555568700000002,12.8314686Q16.4736767,12.8861876,16.382682799999998,12.9238787Q16.2916889,12.9615698,16.1950893,12.9807854Q16.0984917,13,16,13L15,13Q14.9015083,13,14.8049092,12.9807854Q14.7083101,12.9615698,14.6173158,12.9238787Q14.5263214,12.8861876,14.4444289,12.8314686Q14.3625364,12.7767506,14.2928929,12.7071066Q14.2232485,12.6374626,14.1685295,12.5555696Q14.1138105,12.4736767,14.0761194,12.3826828Q14.0384283,12.2916889,14.0192142,12.1950893Q13.999999500000001,12.0984917,14,12ZM7,12L7,11Q7,10.9015083,7.019214718,10.8049088Q7.038429435,10.7083101,7.076120459,10.6173158Q7.11381148,10.5263214,7.16853037,10.4444289Q7.22324926,10.3625369,7.2928932,10.2928934Q7.36253715,10.2232494,7.44442976,10.16853Q7.52632231,10.1138115,7.6173164799999995,10.0761199Q7.70831072,10.0384293,7.80490965,10.0192146Q7.90150857,10,8,10L9,10Q9.0984912,10,9.1950903,10.0192146Q9.2916889,10.0384293,9.3826833,10.0761199Q9.4736774,10.113811,9.5555701,10.16853Q9.6374626,10.2232485,9.7071066,10.2928929Q9.7767506,10.3625364,9.8314691,10.4444289Q9.886188,10.5263214,9.9238791,10.6173158Q9.9615703,10.7083101,9.9807851,10.8049092Q10,10.9015083,10,11L10,12Q10,12.0984917,9.9807849,12.1950903Q9.9615703,12.2916889,9.9238791,12.3826828Q9.886188,12.4736767,9.8314693,12.5555706Q9.7767506,12.6374626,9.7071066,12.7071066Q9.6374626,12.7767506,9.5555701,12.8314686Q9.4736774,12.8861876,9.3826833,12.9238787Q9.2916889,12.9615698,9.1950903,12.9807854Q9.0984912,13,9,13L8,13Q7.90150857,13,7.80490965,12.9807854Q7.70831072,12.9615698,7.6173164799999995,12.9238787Q7.52632231,12.8861876,7.44442973,12.8314686Q7.36253715,12.7767506,7.2928932,12.7071066Q7.22324926,12.6374626,7.16853037,12.5555696Q7.11381148,12.4736767,7.076120459,12.3826828Q7.038429435,12.2916889,7.019214718,12.1950893Q7,12.0984917,7,12ZM14,18L14,17Q13.999999500000001,16.901508,14.0192142,16.804909000000002Q14.0384283,16.708309,14.0761194,16.617314999999998Q14.1138105,16.526321,14.1685295,16.444428000000002Q14.2232485,16.362535,14.2928925,16.292892000000002Q14.3625364,16.223247999999998,14.4444289,16.168529Q14.5263214,16.11381,14.6173158,16.076119Q14.7083101,16.038429,14.8049092,16.019213999999998Q14.9015083,16,15,16L16,16Q16.0984917,16,16.1950893,16.019215000000003Q16.2916889,16.038429,16.382682799999998,16.076119Q16.4736767,16.11381,16.5555696,16.16853Q16.6374626,16.223247999999998,16.7071066,16.292892000000002Q16.7767506,16.362535,16.8314686,16.444426999999997Q16.8861876,16.526321,16.9238787,16.617314999999998Q16.9615698,16.708309,16.980785400000002,16.804909000000002Q17,16.901508,17,17L17,18Q17,18.098491,16.980785400000002,18.195089Q16.9615698,18.291688999999998,16.9238787,18.382683Q16.8861876,18.473677000000002,16.8314686,18.555569Q16.7767506,18.637461000000002,16.7071066,18.707106Q16.6374626,18.776749000000002,16.555568700000002,18.831467Q16.4736767,18.886187,16.382682799999998,18.923878000000002Q16.2916889,18.961569,16.1950893,18.980783000000002Q16.0984917,18.999999000000003,16,19L15,19Q14.9015083,18.999999000000003,14.8049092,18.980783000000002Q14.7083101,18.961569,14.6173158,18.923878000000002Q14.5263214,18.886187,14.4444289,18.831468Q14.3625364,18.776749000000002,14.2928929,18.707106Q14.2232485,18.637461000000002,14.1685295,18.555569Q14.1138105,18.473675999999998,14.0761194,18.382682000000003Q14.0384283,18.291688,14.0192142,18.195089Q13.999999500000001,18.098491,14,18ZM7,18L7,17Q7,16.901508,7.019214718,16.804909000000002Q7.038429435,16.708309,7.076120459,16.617314999999998Q7.11381148,16.526321,7.16853037,16.444428000000002Q7.22324926,16.362535,7.2928932,16.292892000000002Q7.36253715,16.223247999999998,7.44442976,16.168529Q7.52632231,16.11381,7.6173164799999995,16.076119Q7.70831072,16.038429,7.80490965,16.019213999999998Q7.90150857,16,8,16L9,16Q9.0984912,16,9.1950903,16.019215000000003Q9.2916889,16.038429,9.3826833,16.076119Q9.4736774,16.11381,9.5555701,16.16853Q9.6374626,16.223247999999998,9.7071066,16.292892000000002Q9.7767506,16.362535,9.8314691,16.444426999999997Q9.886188,16.526321,9.9238791,16.617314999999998Q9.9615703,16.708309,9.9807851,16.804909000000002Q10,16.901508,10,17L10,18Q10,18.098491,9.9807849,18.195089Q9.9615703,18.291688999999998,9.9238791,18.382683Q9.886188,18.473677000000002,9.8314693,18.555569Q9.7767506,18.637461000000002,9.7071066,18.707106Q9.6374626,18.776749000000002,9.5555701,18.831467Q9.4736774,18.886187,9.3826833,18.923878000000002Q9.2916889,18.961569,9.1950903,18.980783000000002Q9.0984912,18.999999000000003,9,19L8,19Q7.90150857,18.999999000000003,7.80490965,18.980783000000002Q7.70831072,18.961569,7.6173164799999995,18.923878000000002Q7.52632231,18.886187,7.44442973,18.831468Q7.36253715,18.776749000000002,7.2928932,18.707106Q7.22324926,18.637461000000002,7.16853037,18.555569Q7.11381148,18.473675999999998,7.076120459,18.382682000000003Q7.038429435,18.291688,7.019214718,18.195089Q7,18.098491,7,18Z" fill="#0A0A28" fill-opacity="1"/></g></g></svg>