<svg xmlns="http://www.w3.org/2000/svg" xmlns:xlink="http://www.w3.org/1999/xlink" fill="none" version="1.1" width="24" height="24" viewBox="0 0 24 24"><defs><clipPath id="master_svg0_3_2122"><rect x="0" y="0" width="24" height="24" rx="0"/></clipPath></defs><g clip-path="url(#master_svg0_3_2122)"><path d="M5,11C4.44771501,11,4,11.44771501,4,12C4,12.5522799,4.44771501,13,5,13C5,13,5,11,5,11C5,11,5,11,5,11ZM5.01,13C5.5622801,13,6.01,12.5522799,6.01,12C6.01,11.44771501,5.5622801,11,5.01,11C5.01,11,5.01,13,5.01,13C5.01,13,5.01,13,5.01,13ZM12,11C11.4477201,11,11,11.44771501,11,12C11,12.5522799,11.4477201,13,12,13C12,13,12,11,12,11C12,11,12,11,12,11ZM12.0100002,13C12.5622902,13,13.0100002,12.5522799,13.0100002,12C13.0100002,11.44771501,12.5622902,11,12.0100002,11C12.0100002,11,12.0100002,13,12.0100002,13C12.0100002,13,12.0100002,13,12.0100002,13ZM19,11C18.447699999999998,11,18,11.44771501,18,12C18,12.5522799,18.447699999999998,13,19,13C19,13,19,11,19,11C19,11,19,11,19,11ZM19.009999999999998,13C19.5623,13,20.01,12.5522799,20.01,12C20.01,11.44771501,19.5623,11,19.009999999999998,11C19.009999999999998,11,19.009999999999998,13,19.009999999999998,13C19.009999999999998,13,19.009999999999998,13,19.009999999999998,13ZM6,12C6,12,5,12,5,12C5,12,6,12,6,12C6,12,6,12,6,12ZM5,13C5,13,5.01,13,5.01,13C5.01,13,5.01,11,5.01,11C5.01,11,5,11,5,11C5,11,5,13,5,13C5,13,5,13,5,13ZM12,13C12,13,12.0100002,13,12.0100002,13C12.0100002,13,12.0100002,11,12.0100002,11C12.0100002,11,12,11,12,11C12,11,12,13,12,13C12,13,12,13,12,13ZM19,13C19,13,19.009999999999998,13,19.009999999999998,13C19.009999999999998,13,19.009999999999998,11,19.009999999999998,11C19.009999999999998,11,19,11,19,11C19,11,19,13,19,13C19,13,19,13,19,13ZM5,12C5,12,5,12,5,12C5,12,6.4142101,13.4142101,6.4142101,13.4142101C6.789289999999999,13.03914,7,12.530429999999999,7,12C7,12,5,12,5,12C5,12,5,12,5,12ZM5,12C5,12,5,12,5,12C5,12,5,14,5,14C5.53043,14,6.03914,13.78929,6.4142101,13.4142101C6.4142101,13.4142101,5,12,5,12C5,12,5,12,5,12ZM5,12C5,12,5,12,5,12C5,12,3.585787,13.4142101,3.585787,13.4142101C3.9608589,13.78929,4.4695659899999995,14,5,14C5,14,5,12,5,12C5,12,5,12,5,12ZM5,12C5,12,5,12,5,12C5,12,3,12,3,12C3,12.530429999999999,3.21071398,13.03914,3.585787,13.4142101C3.585787,13.4142101,5,12,5,12C5,12,5,12,5,12ZM5,12C5,12,5,12,5,12C5,12,3.585787,10.585787,3.585787,10.585787C3.21071398,10.9608589,3,11.46956599,3,12C3,12,5,12,5,12C5,12,5,12,5,12ZM5,12C5,12,5,12,5,12C5,12,5,10,5,10C4.4695659899999995,10,3.9608589,10.21071398,3.585787,10.585787C3.585787,10.585787,5,12,5,12C5,12,5,12,5,12ZM5,12C5,12,5,12,5,12C5,12,6.4142101,10.585787,6.4142101,10.585787C6.03914,10.21071398,5.53043,10,5,10C5,10,5,12,5,12C5,12,5,12,5,12ZM5,12C5,12,5,12,5,12C5,12,7,12,7,12C7,11.46956599,6.789289999999999,10.9608589,6.4142101,10.585787C6.4142101,10.585787,5,12,5,12C5,12,5,12,5,12ZM12,12C12,12,12,12,12,12C12,12,13.4142103,13.4142101,13.4142103,13.4142101C13.7892904,13.03914,14,12.530429999999999,14,12C14,12,12,12,12,12C12,12,12,12,12,12ZM12,12C12,12,12,12,12,12C12,12,12,14,12,14C12.5304298,14,13.0391397,13.78929,13.4142103,13.4142101C13.4142103,13.4142101,12,12,12,12C12,12,12,12,12,12ZM12,12C12,12,12,12,12,12C12,12,10.5857902,13.4142101,10.5857902,13.4142101C10.9608598,13.78929,11.4695702,14,12,14C12,14,12,12,12,12C12,12,12,12,12,12ZM12,12C12,12,12,12,12,12C12,12,10,12,10,12C10,12.530429999999999,10.210709999999999,13.03914,10.5857902,13.4142101C10.5857902,13.4142101,12,12,12,12C12,12,12,12,12,12ZM12,12C12,12,12,12,12,12C12,12,10.5857902,10.585787,10.5857902,10.585787C10.210709999999999,10.9608589,10,11.46956599,10,12C10,12,12,12,12,12C12,12,12,12,12,12ZM12,12C12,12,12,12,12,12C12,12,12,10,12,10C11.4695702,10,10.9608598,10.21071398,10.5857902,10.585787C10.5857902,10.585787,12,12,12,12C12,12,12,12,12,12ZM12,12C12,12,12,12,12,12C12,12,13.4142103,10.585787,13.4142103,10.585787C13.0391397,10.21071398,12.5304298,10,12,10C12,10,12,12,12,12C12,12,12,12,12,12ZM12,12C12,12,12,12,12,12C12,12,14,12,14,12C14,11.46956599,13.7892904,10.9608589,13.4142103,10.585787C13.4142103,10.585787,12,12,12,12C12,12,12,12,12,12ZM19,12C19,12,19,12,19,12C19,12,20.4142,13.4142101,20.4142,13.4142101C20.789301,13.03914,21,12.530429999999999,21,12C21,12,19,12,19,12C19,12,19,12,19,12ZM19,12C19,12,19,12,19,12C19,12,19,14,19,14C19.5304,14,20.039101,13.78929,20.4142,13.4142101C20.4142,13.4142101,19,12,19,12C19,12,19,12,19,12ZM19,12C19,12,19,12,19,12C19,12,17.5858,13.4142101,17.5858,13.4142101C17.960900000000002,13.78929,18.4696,14,19,14C19,14,19,12,19,12C19,12,19,12,19,12ZM19,12C19,12,19,12,19,12C19,12,17,12,17,12C17,12.530429999999999,17.2107,13.03914,17.5858,13.4142101C17.5858,13.4142101,19,12,19,12C19,12,19,12,19,12ZM19,12C19,12,19,12,19,12C19,12,17.5858,10.585787,17.5858,10.585787C17.2107,10.960860599,17,11.469569,17,12C17,12,19,12,19,12C19,12,19,12,19,12ZM19,12C19,12,19,12,19,12C19,12,19,10,19,10C18.4696,10,17.960900000000002,10.21071398,17.5858,10.585787C17.5858,10.585787,19,12,19,12C19,12,19,12,19,12ZM19,12C19,12,19,12,19,12C19,12,20.4142,10.585787,20.4142,10.585787C20.039101,10.21071398,19.5304,10,19,10C19,10,19,12,19,12C19,12,19,12,19,12ZM19,12C19,12,19,12,19,12C19,12,21,12,21,12C21,11.469569,20.789301,10.960860599,20.4142,10.585787C20.4142,10.585787,19,12,19,12C19,12,19,12,19,12Z" fill="#0A0A28" fill-opacity="1"/></g></svg>