<svg xmlns="http://www.w3.org/2000/svg" xmlns:xlink="http://www.w3.org/1999/xlink" fill="none" version="1.1" width="24" height="24" viewBox="0 0 24 24"><defs><clipPath id="master_svg0_3_2305"><rect x="0" y="0" width="24" height="24" rx="0"/></clipPath></defs><g clip-path="url(#master_svg0_3_2305)"><path d="M5,16C5,15.4477,4.55228502,15,4,15C3.4477149799999998,15,3,15.4477,3,16C3,16,5,16,5,16C5,16,5,16,5,16ZM7,20C7,20,7,21,7,21C7,21,7,20,7,20C7,20,7,20,7,20ZM17,20C17,20,17,21,17,21C17,21,17,20,17,20C17,20,17,20,17,20ZM20,17C20,17,21,17,21,17C21,17,20,17,20,17C20,17,20,17,20,17ZM21,16C21,15.4477,20.552299,15,20,15C19.447699999999998,15,19,15.4477,19,16C19,16,21,16,21,16C21,16,21,16,21,16ZM16.7071,12.7071104C17.0976,12.3165798,17.0976,11.6834202,16.7071,11.292890100000001C16.3166,10.902370000000001,15.6834,10.902370000000001,15.2929,11.292890100000001C15.2929,11.292890100000001,16.7071,12.7071104,16.7071,12.7071104C16.7071,12.7071104,16.7071,12.7071104,16.7071,12.7071104ZM12,16C12,16,11.292890100000001,16.7071,11.292890100000001,16.7071C11.6834202,17.0976,12.3165798,17.0976,12.7071104,16.7071C12.7071104,16.7071,12,16,12,16C12,16,12,16,12,16ZM8.707109899999999,11.292890100000001C8.3165798,10.902370000000001,7.6834199000000005,10.902370000000001,7.2928901,11.292890100000001C6.9023699999999995,11.6834202,6.9023699999999995,12.3165798,7.2928901,12.7071104C7.2928901,12.7071104,8.707109899999999,11.292890100000001,8.707109899999999,11.292890100000001C8.707109899999999,11.292890100000001,8.707109899999999,11.292890100000001,8.707109899999999,11.292890100000001ZM13,4C13,3.4477149799999998,12.55229,3,12,3C11.4477201,3,11,3.4477149799999998,11,4C11,4,13,4,13,4C13,4,13,4,13,4ZM3,16C3,16,3,17,3,17C3,17,5,17,5,17C5,17,5,16,5,16C5,16,3,16,3,16C3,16,3,16,3,16ZM3,17C3,18.0609,3.42142701,19.0783,4.171573,19.828400000000002C4.171573,19.828400000000002,5.58579,18.4142,5.58579,18.4142C5.21071,18.039099999999998,5,17.5304,5,17C5,17,3,17,3,17C3,17,3,17,3,17ZM4.171573,19.828400000000002C4.92171901,20.5786,5.9391299,21,7,21C7,21,7,19,7,19C6.4695699,19,5.96086,18.7893,5.58579,18.4142C5.58579,18.4142,4.171573,19.828400000000002,4.171573,19.828400000000002C4.171573,19.828400000000002,4.171573,19.828400000000002,4.171573,19.828400000000002ZM7,21C7,21,17,21,17,21C17,21,17,19,17,19C17,19,7,19,7,19C7,19,7,21,7,21C7,21,7,21,7,21ZM17,21C18.0609,21,19.0783,20.5786,19.828400000000002,19.828400000000002C19.828400000000002,19.828400000000002,18.4142,18.4142,18.4142,18.4142C18.039099999999998,18.7893,17.5304,19,17,19C17,19,17,21,17,21C17,21,17,21,17,21ZM19.828400000000002,19.828400000000002C20.5786,19.0783,21,18.0609,21,17C21,17,19,17,19,17C19,17.5304,18.7893,18.039099999999998,18.4142,18.4142C18.4142,18.4142,19.828400000000002,19.828400000000002,19.828400000000002,19.828400000000002C19.828400000000002,19.828400000000002,19.828400000000002,19.828400000000002,19.828400000000002,19.828400000000002ZM21,17C21,17,21,16,21,16C21,16,19,16,19,16C19,16,19,17,19,17C19,17,21,17,21,17C21,17,21,17,21,17ZM15.2929,11.292890100000001C15.2929,11.292890100000001,11.292890100000001,15.2929,11.292890100000001,15.2929C11.292890100000001,15.2929,12.7071104,16.7071,12.7071104,16.7071C12.7071104,16.7071,16.7071,12.7071104,16.7071,12.7071104C16.7071,12.7071104,15.2929,11.292890100000001,15.2929,11.292890100000001C15.2929,11.292890100000001,15.2929,11.292890100000001,15.2929,11.292890100000001ZM12.7071104,15.2929C12.7071104,15.2929,8.707109899999999,11.292890100000001,8.707109899999999,11.292890100000001C8.707109899999999,11.292890100000001,7.2928901,12.7071104,7.2928901,12.7071104C7.2928901,12.7071104,11.292890100000001,16.7071,11.292890100000001,16.7071C11.292890100000001,16.7071,12.7071104,15.2929,12.7071104,15.2929C12.7071104,15.2929,12.7071104,15.2929,12.7071104,15.2929ZM13,16C13,16,13,4,13,4C13,4,11,4,11,4C11,4,11,16,11,16C11,16,13,16,13,16C13,16,13,16,13,16Z" fill="#0A0A28" fill-opacity="1"/></g></svg>