<svg xmlns="http://www.w3.org/2000/svg" xmlns:xlink="http://www.w3.org/1999/xlink" fill="none" version="1.1" width="24" height="24" viewBox="0 0 24 24"><defs><clipPath id="master_svg0_3_1678"><rect x="0" y="0" width="24" height="24" rx="0"/></clipPath></defs><g clip-path="url(#master_svg0_3_1678)"><path d="M3.600006103515625,20.4000244140625C3.600006103515625,20.0817854140625,3.726434513515625,19.7765044140625,3.951477703515625,19.5515064140625C4.176522133515625,19.3265054140625,4.481746973515625,19.2000254140625,4.800006103515625,19.2000254140625C4.800006103515625,19.2000254140625,19.200006103515626,19.2000254140625,19.200006103515626,19.2000254140625C19.518247103515627,19.2000254140625,19.823526103515626,19.3265054140625,20.048527103515625,19.5515064140625C20.273527103515626,19.7765044140625,20.400007103515627,20.0817854140625,20.400007103515627,20.4000244140625C20.400007103515627,20.7182654140625,20.273527103515626,21.0235444140625,20.048527103515625,21.2485444140625C19.823526103515626,21.4735454140625,19.518247103515627,21.6000254140625,19.200006103515626,21.6000254140625C19.200006103515626,21.6000254140625,4.800006103515625,21.6000254140625,4.800006103515625,21.6000254140625C4.481746973515625,21.6000254140625,4.176522133515625,21.4735454140625,3.951477703515625,21.2485444140625C3.726434513515625,21.0235444140625,3.6000061035156254,20.7182654140625,3.600006103515625,20.4000244140625C3.600006103515625,20.4000244140625,3.600006103515625,20.4000244140625,3.600006103515625,20.4000244140625ZM7.551606203515625,11.1516247140625C7.776642303515625,10.9266605140625,8.081814303515625,10.8002767140625,8.400006303515624,10.8002767140625C8.718198303515624,10.8002767140625,9.023370703515624,10.9266605140625,9.248405903515625,11.1516247140625C9.248405903515625,11.1516247140625,10.800006403515624,12.7032254140625,10.800006403515624,12.7032254140625C10.800006403515624,12.7032254140625,10.800006403515624,3.6000244140625,10.800006403515624,3.6000244140625C10.800006403515624,3.2817652840625,10.926438303515624,2.9765404440625,11.151474503515626,2.7514960140625C11.376522503515625,2.5264528240625,11.681742703515624,2.4000244140625004,12.000006703515625,2.4000244140625C12.318270703515624,2.4000244140625004,12.623490303515625,2.5264528240625,12.848538403515626,2.7514960140625C13.073574103515625,2.9765404440625,13.200006503515626,3.2817652840625,13.200006503515626,3.6000244140625C13.200006503515626,3.6000244140625,13.200006503515626,12.7032254140625,13.200006503515626,12.7032254140625C13.200006503515626,12.7032254140625,14.751607103515624,11.1516247140625,14.751607103515624,11.1516247140625C14.862306103515625,11.0370130140625,14.994715103515626,10.9455967140625,15.141127103515625,10.8827047140625C15.287527103515625,10.8198128140625,15.444990103515625,10.7867050140625,15.604327103515624,10.7853250140625C15.763687103515625,10.7839451140625,15.921726103515624,10.8143043140625,16.069206103515626,10.8746405140625C16.216686103515627,10.9349766140625,16.350606103515624,11.0240764140625,16.463287103515626,11.1367569140625C16.575967103515623,11.2494249140625,16.665007103515627,11.3834047140625,16.725367103515623,11.5308847140625C16.785726103515625,11.6783523140625,16.816087103515628,11.8363685140625,16.814766103515623,11.9957046140625C16.813327103515626,12.1550407140625,16.780206103515624,12.3125048140625,16.717326103515624,12.4589044140625C16.654446103515625,12.6053164140625,16.563006103515626,12.7377244140625,16.448406103515623,12.8484244140625C16.448406103515623,12.8484244140625,12.848405803515625,16.4484244140625,12.848405803515625,16.4484244140625C12.623371103515625,16.673424414062502,12.318198203515625,16.7997844140625,12.000006703515625,16.7997844140625C11.681814203515625,16.7997844140625,11.376642203515626,16.673424414062502,11.151606603515624,16.4484244140625C11.151606603515624,16.4484244140625,7.551606203515625,12.8484244140625,7.551606203515625,12.8484244140625C7.326642303515625,12.6233894140625,7.200258303515625,12.3182163140625,7.200258303515625,12.0000248140625C7.200258303515625,11.6818323140625,7.326642303515625,11.3766603140625,7.551606203515625,11.1516247140625C7.551606203515625,11.1516247140625,7.551606203515625,11.1516247140625,7.551606203515625,11.1516247140625C7.551606203515625,11.1516247140625,7.551606203515625,11.1516247140625,7.551606203515625,11.1516247140625Z" fill-rule="evenodd" fill="#0A0A28" fill-opacity="1"/></g></svg>