<svg xmlns="http://www.w3.org/2000/svg" xmlns:xlink="http://www.w3.org/1999/xlink" fill="none" version="1.1" width="24" height="24" viewBox="0 0 24 24"><defs><clipPath id="master_svg0_3_1785"><rect x="0" y="0" width="24" height="24" rx="0"/></clipPath></defs><g clip-path="url(#master_svg0_3_1785)"><path d="M8.399993896484375,10.8000245140625C8.399993896484375,10.1635085140625,8.652850716484375,9.553055314062501,9.102937106484376,9.1029676240625C9.553024796484376,8.6528812340625,10.163477996484374,8.400024414062502,10.799993996484375,8.4000244140625C10.799993996484375,8.4000244140625,17.999994296484374,8.4000244140625,17.999994296484374,8.4000244140625C18.636509896484377,8.400024414062502,19.246961896484375,8.6528812340625,19.697045896484376,9.1029676240625C20.147142896484375,9.553055314062501,20.399993896484375,10.1635085140625,20.399993896484375,10.8000245140625C20.399993896484375,10.8000245140625,20.399993896484375,18.0000248140625,20.399993896484375,18.0000248140625C20.399993896484375,18.6365404140625,20.147142896484375,19.2469924140625,19.697045896484376,19.6970764140625C19.246961896484375,20.1471734140625,18.636509896484377,20.4000244140625,17.999994296484374,20.4000244140625C17.999994296484374,20.4000244140625,10.799993996484375,20.4000244140625,10.799993996484375,20.4000244140625C10.163477996484374,20.4000244140625,9.553024796484376,20.1471734140625,9.102937106484376,19.6970764140625C8.652850716484375,19.2469924140625,8.399993896484377,18.6365404140625,8.399993896484375,18.0000248140625C8.399993896484375,18.0000248140625,8.399993896484375,10.8000245140625,8.399993896484375,10.8000245140625C8.399993896484375,10.8000245140625,8.399993896484375,10.8000245140625,8.399993896484375,10.8000245140625Z" fill="#0A0A28" fill-opacity="1"/><path d="M6.000006203515625,3.5999755859375C5.363490203515625,3.5999755859375004,4.753037003515625,3.8528324059375,4.302949313515625,4.3029187959375C3.852862923515625,4.7530064859375,3.6000061035156254,5.3634596859375,3.600006103515625,5.9999756859375C3.600006103515625,5.9999756859375,3.600006103515625,13.1999759859375,3.600006103515625,13.1999759859375C3.6000061035156254,13.8364915859375,3.852862923515625,14.4469435859375,4.302949313515625,14.8970275859375C4.753037003515625,15.3471245859375,5.363490203515625,15.5999755859375,6.000006203515625,15.5999755859375C6.000006203515625,15.5999755859375,6.000006203515625,5.9999756859375,6.000006203515625,5.9999756859375C6.000006203515625,5.9999756859375,15.600006103515625,5.9999756859375,15.600006103515625,5.9999756859375C15.600006103515625,5.3634596859375,15.347155103515625,4.7530064859375,14.897058103515626,4.3029187959375C14.446974103515625,3.8528324059375,13.836522103515625,3.5999755859375004,13.200006503515626,3.5999755859375C13.200006503515626,3.5999755859375,6.000006203515625,3.5999755859375,6.000006203515625,3.5999755859375C6.000006203515625,3.5999755859375,6.000006203515625,3.5999755859375,6.000006203515625,3.5999755859375Z" fill="#0A0A28" fill-opacity="1"/></g></svg>