<svg xmlns="http://www.w3.org/2000/svg" xmlns:xlink="http://www.w3.org/1999/xlink" fill="none" version="1.1" width="24" height="24" viewBox="0 0 24 24"><defs><clipPath id="master_svg0_3_1814"><rect x="0" y="0" width="24" height="24" rx="0"/></clipPath></defs><g clip-path="url(#master_svg0_3_1814)"><path d="M8,17C8.5522799,17,9,16.552300000000002,9,16C9,15.4477,8.5522799,15,8,15C8,15,8,17,8,17C8,17,8,17,8,17ZM4,14C4,14,3,14,3,14C3,14,4,14,4,14C4,14,4,14,4,14ZM6,4C6,4,6,3,6,3C6,3,6,4,6,4C6,4,6,4,6,4ZM14,4C14,4,14,3,14,3C14,3,14,4,14,4C14,4,14,4,14,4ZM15,8C15,8.5522799,15.4477,9,16,9C16.552300000000002,9,17,8.5522799,17,8C17,8,15,8,15,8C15,8,15,8,15,8ZM18,8C18,8,18,7,18,7C18,7,18,8,18,8C18,8,18,8,18,8ZM8,10C8,10,7,10,7,10C7,10,8,10,8,10C8,10,8,10,8,10ZM8,15C8,15,6,15,6,15C6,15,6,17,6,17C6,17,8,17,8,17C8,17,8,15,8,15C8,15,8,15,8,15ZM6,15C5.73478,15,5.48043,14.8946,5.29289,14.7071C5.29289,14.7071,3.87868,16.121299999999998,3.87868,16.121299999999998C4.44128799,16.6839,5.20435,17,6,17C6,17,6,15,6,15C6,15,6,15,6,15ZM5.29289,14.7071C5.10536,14.5196,5,14.2652,5,14C5,14,3,14,3,14C3,14.7956,3.3160700199999997,15.5587,3.87868,16.121299999999998C3.87868,16.121299999999998,5.29289,14.7071,5.29289,14.7071C5.29289,14.7071,5.29289,14.7071,5.29289,14.7071ZM5,14C5,14,5,6,5,6C5,6,3,6,3,6C3,6,3,14,3,14C3,14,5,14,5,14C5,14,5,14,5,14ZM5,6C5,5.73478,5.10536,5.48043,5.29289,5.29289C5.29289,5.29289,3.87868,3.87868,3.87868,3.87868C3.3160700199999997,4.44128901,3,5.20435,3,6C3,6,5,6,5,6C5,6,5,6,5,6ZM5.29289,5.29289C5.48043,5.10536,5.73478,5,6,5C6,5,6,3,6,3C5.20435,3,4.44128901,3.3160700199999997,3.87868,3.87868C3.87868,3.87868,5.29289,5.29289,5.29289,5.29289C5.29289,5.29289,5.29289,5.29289,5.29289,5.29289ZM6,5C6,5,14,5,14,5C14,5,14,3,14,3C14,3,6,3,6,3C6,3,6,5,6,5C6,5,6,5,6,5ZM14,5C14.2652,5,14.5196,5.10536,14.7071,5.29289C14.7071,5.29289,16.121299999999998,3.87868,16.121299999999998,3.87868C15.5587,3.3160700199999997,14.7956,3,14,3C14,3,14,5,14,5C14,5,14,5,14,5ZM14.7071,5.29289C14.8946,5.48043,15,5.73478,15,6C15,6,17,6,17,6C17,5.20435,16.6839,4.44128799,16.121299999999998,3.87868C16.121299999999998,3.87868,14.7071,5.29289,14.7071,5.29289C14.7071,5.29289,14.7071,5.29289,14.7071,5.29289ZM15,6C15,6,15,8,15,8C15,8,17,8,17,8C17,8,17,6,17,6C17,6,15,6,15,6C15,6,15,6,15,6ZM10,21C10,21,18,21,18,21C18,21,18,19,18,19C18,19,10,19,10,19C10,19,10,21,10,21C10,21,10,21,10,21ZM18,21C18.7957,21,19.5587,20.683901,20.1213,20.1213C20.1213,20.1213,18.7071,18.7071,18.7071,18.7071C18.5196,18.8946,18.2652,19,18,19C18,19,18,21,18,21C18,21,18,21,18,21ZM20.1213,20.1213C20.683901,19.5587,21,18.7957,21,18C21,18,19,18,19,18C19,18.2652,18.8946,18.5196,18.7071,18.7071C18.7071,18.7071,20.1213,20.1213,20.1213,20.1213C20.1213,20.1213,20.1213,20.1213,20.1213,20.1213ZM21,18C21,18,21,10,21,10C21,10,19,10,19,10C19,10,19,18,19,18C19,18,21,18,21,18C21,18,21,18,21,18ZM21,10C21,9.20435,20.683901,8.441289900000001,20.1213,7.87868C20.1213,7.87868,18.7071,9.292890100000001,18.7071,9.292890100000001C18.8946,9.4804301,19,9.7347798,19,10C19,10,21,10,21,10C21,10,21,10,21,10ZM20.1213,7.87868C19.5587,7.3160701,18.7957,7,18,7C18,7,18,9,18,9C18.2652,9,18.5196,9.105360000000001,18.7071,9.292890100000001C18.7071,9.292890100000001,20.1213,7.87868,20.1213,7.87868C20.1213,7.87868,20.1213,7.87868,20.1213,7.87868ZM18,7C18,7,10,7,10,7C10,7,10,9,10,9C10,9,18,9,18,9C18,9,18,7,18,7C18,7,18,7,18,7ZM10,7C9.20435,7,8.441289900000001,7.3160701,7.87868,7.87868C7.87868,7.87868,9.292890100000001,9.292890100000001,9.292890100000001,9.292890100000001C9.4804301,9.105360000000001,9.7347798,9,10,9C10,9,10,7,10,7C10,7,10,7,10,7ZM7.87868,7.87868C7.3160701,8.441289900000001,7,9.20435,7,10C7,10,9,10,9,10C9,9.7347798,9.105360000000001,9.4804301,9.292890100000001,9.292890100000001C9.292890100000001,9.292890100000001,7.87868,7.87868,7.87868,7.87868C7.87868,7.87868,7.87868,7.87868,7.87868,7.87868ZM7,10C7,10,7,18,7,18C7,18,9,18,9,18C9,18,9,10,9,10C9,10,7,10,7,10C7,10,7,10,7,10ZM7,18C7,18.7957,7.3160701,19.5587,7.87868,20.1213C7.87868,20.1213,9.292890100000001,18.7071,9.292890100000001,18.7071C9.105360000000001,18.5196,9,18.2652,9,18C9,18,7,18,7,18C7,18,7,18,7,18ZM7.87868,20.1213C8.441289900000001,20.683901,9.20435,21,10,21C10,21,10,19,10,19C9.7347798,19,9.4804301,18.8946,9.292890100000001,18.7071C9.292890100000001,18.7071,7.87868,20.1213,7.87868,20.1213C7.87868,20.1213,7.87868,20.1213,7.87868,20.1213Z" fill="#0A0A28" fill-opacity="1"/></g></svg>