<svg xmlns="http://www.w3.org/2000/svg" xmlns:xlink="http://www.w3.org/1999/xlink" fill="none" version="1.1" width="24" height="24" viewBox="0 0 24 24"><defs><clipPath id="master_svg0_3_2246"><rect x="0" y="0" width="24" height="24" rx="0"/></clipPath></defs><g clip-path="url(#master_svg0_3_2246)"><path d="M8.4650002,15.46480023841858C8.07442,15.855300238418579,8.0743198,16.488400238418578,8.4647899,16.879000238418577C8.8552499,17.26960023841858,9.48842,17.26970023841858,9.8790002,16.87920023841858C9.8790002,16.87920023841858,8.4650002,15.46480023841858,8.4650002,15.46480023841858C8.4650002,15.46480023841858,8.4650002,15.46480023841858,8.4650002,15.46480023841858ZM14.121,16.87920023841858C14.5116,17.26970023841858,15.1447,17.26960023841858,15.5352,16.879000238418577C15.9257,16.488400238418578,15.9256,15.855300238418579,15.535,15.46480023841858C15.535,15.46480023841858,14.121,16.87920023841858,14.121,16.87920023841858C14.121,16.87920023841858,14.121,16.87920023841858,14.121,16.87920023841858ZM9,9.000000238418579C8.4477201,9.000000238418579,8,9.447720338418579,8,10.000000238418579C8,10.55228013841858,8.4477201,11.000000238418579,9,11.000000238418579C9,11.000000238418579,9,9.000000238418579,9,9.000000238418579C9,9.000000238418579,9,9.000000238418579,9,9.000000238418579ZM9.0100002,11.000000238418579C9.5622802,11.000000238418579,10.0100002,10.55228013841858,10.0100002,10.000000238418579C10.0100002,9.447720338418579,9.5622802,9.000000238418579,9.0100002,9.000000238418579C9.0100002,9.000000238418579,9.0100002,11.000000238418579,9.0100002,11.000000238418579C9.0100002,11.000000238418579,9.0100002,11.000000238418579,9.0100002,11.000000238418579ZM15,9.000000238418579C14.4477,9.000000238418579,14,9.447720338418579,14,10.000000238418579C14,10.55228013841858,14.4477,11.000000238418579,15,11.000000238418579C15,11.000000238418579,15,9.000000238418579,15,9.000000238418579C15,9.000000238418579,15,9.000000238418579,15,9.000000238418579ZM15.01,11.000000238418579C15.5623,11.000000238418579,16.009999999999998,10.55228013841858,16.009999999999998,10.000000238418579C16.009999999999998,9.447720338418579,15.5623,9.000000238418579,15.01,9.000000238418579C15.01,9.000000238418579,15.01,11.000000238418579,15.01,11.000000238418579C15.01,11.000000238418579,15.01,11.000000238418579,15.01,11.000000238418579ZM12,3.000000238418579C12,3.000000238418579,12,4.000000238418579,12,4.000000238418579C12,4.000000238418579,12,3.000000238418579,12,3.000000238418579C12,3.000000238418579,12,3.000000238418579,12,3.000000238418579ZM9.8790002,16.87920023841858C10.4415798,16.31680023841858,11.2045097,16.00090023841858,12,16.00090023841858C12,16.00090023841858,12,14.000900238418579,12,14.000900238418579C10.67418,14.000900238418579,9.4026399,14.52740023841858,8.4650002,15.46480023841858C8.4650002,15.46480023841858,9.8790002,16.87920023841858,9.8790002,16.87920023841858C9.8790002,16.87920023841858,9.8790002,16.87920023841858,9.8790002,16.87920023841858ZM12,16.00090023841858C12.7954903,16.00090023841858,13.5584,16.31680023841858,14.121,16.87920023841858C14.121,16.87920023841858,15.535,15.46480023841858,15.535,15.46480023841858C14.5974,14.52740023841858,13.3258,14.000900238418579,12,14.000900238418579C12,14.000900238418579,12,16.00090023841858,12,16.00090023841858C12,16.00090023841858,12,16.00090023841858,12,16.00090023841858ZM9,11.000000238418579C9,11.000000238418579,9.0100002,11.000000238418579,9.0100002,11.000000238418579C9.0100002,11.000000238418579,9.0100002,9.000000238418579,9.0100002,9.000000238418579C9.0100002,9.000000238418579,9,9.000000238418579,9,9.000000238418579C9,9.000000238418579,9,11.000000238418579,9,11.000000238418579C9,11.000000238418579,9,11.000000238418579,9,11.000000238418579ZM15,11.000000238418579C15,11.000000238418579,15.01,11.000000238418579,15.01,11.000000238418579C15.01,11.000000238418579,15.01,9.000000238418579,15.01,9.000000238418579C15.01,9.000000238418579,15,9.000000238418579,15,9.000000238418579C15,9.000000238418579,15,11.000000238418579,15,11.000000238418579C15,11.000000238418579,15,11.000000238418579,15,11.000000238418579ZM20,12.000000238418579C20,13.050600238418578,19.7931,14.090900238418579,19.391001,15.06150023841858C19.391001,15.06150023841858,21.2388,15.82680023841858,21.2388,15.82680023841858C21.741301,14.613600238418579,22,13.31320023841858,22,12.000000238418579C22,12.000000238418579,20,12.000000238418579,20,12.000000238418579C20,12.000000238418579,20,12.000000238418579,20,12.000000238418579ZM19.391001,15.06150023841858C18.989,16.03210023841858,18.3997,16.91400023841858,17.6569,17.65690023841858C17.6569,17.65690023841858,19.0711,19.07110023841858,19.0711,19.07110023841858C19.999701,18.142500238418577,20.7362,17.04010023841858,21.2388,15.82680023841858C21.2388,15.82680023841858,19.391001,15.06150023841858,19.391001,15.06150023841858C19.391001,15.06150023841858,19.391001,15.06150023841858,19.391001,15.06150023841858ZM17.6569,17.65690023841858C16.914,18.39970023841858,16.0321,18.98900023841858,15.0615,19.39100123841858C15.0615,19.39100123841858,15.8268,21.23880023841858,15.8268,21.23880023841858C17.040100000000002,20.73620023841858,18.1425,19.99970123841858,19.0711,19.07110023841858C19.0711,19.07110023841858,17.6569,17.65690023841858,17.6569,17.65690023841858C17.6569,17.65690023841858,17.6569,17.65690023841858,17.6569,17.65690023841858ZM15.0615,19.39100123841858C14.0909,19.793100238418578,13.0506,20.00000023841858,12,20.00000023841858C12,20.00000023841858,12,22.00000023841858,12,22.00000023841858C13.3132,22.00000023841858,14.6136,21.74130123841858,15.8268,21.23880023841858C15.8268,21.23880023841858,15.0615,19.39100123841858,15.0615,19.39100123841858C15.0615,19.39100123841858,15.0615,19.39100123841858,15.0615,19.39100123841858ZM12,20.00000023841858C10.94942,20.00000023841858,9.9091401,19.793100238418578,8.93853,19.39100123841858C8.93853,19.39100123841858,8.1731701,21.23880023841858,8.1731701,21.23880023841858C9.386419799999999,21.74130123841858,10.686779999999999,22.00000023841858,12,22.00000023841858C12,22.00000023841858,12,20.00000023841858,12,20.00000023841858C12,20.00000023841858,12,20.00000023841858,12,20.00000023841858ZM8.93853,19.39100123841858C7.9679298,18.98900023841858,7.08601,18.39970023841858,6.3431499,17.65690023841858C6.3431499,17.65690023841858,4.92893,19.07110023841858,4.92893,19.07110023841858C5.8575201,19.99970123841858,6.9599098999999995,20.73620023841858,8.1731701,21.23880023841858C8.1731701,21.23880023841858,8.93853,19.39100123841858,8.93853,19.39100123841858C8.93853,19.39100123841858,8.93853,19.39100123841858,8.93853,19.39100123841858ZM6.3431499,17.65690023841858C5.60028,16.91400023841858,5.0109999,16.03210023841858,4.60896,15.06150023841858C4.60896,15.06150023841858,2.761205,15.82680023841858,2.761205,15.82680023841858C3.26375201,17.04010023841858,4.00035,18.142500238418577,4.92893,19.07110023841858C4.92893,19.07110023841858,6.3431499,17.65690023841858,6.3431499,17.65690023841858C6.3431499,17.65690023841858,6.3431499,17.65690023841858,6.3431499,17.65690023841858ZM4.60896,15.06150023841858C4.20693,14.090900238418579,4,13.050600238418578,4,12.000000238418579C4,12.000000238418579,2,12.000000238418579,2,12.000000238418579C2,13.31320023841858,2.25865799,14.613600238418579,2.761205,15.82680023841858C2.761205,15.82680023841858,4.60896,15.06150023841858,4.60896,15.06150023841858C4.60896,15.06150023841858,4.60896,15.06150023841858,4.60896,15.06150023841858ZM4,12.000000238418579C4,9.878270338418579,4.84285,7.843440338418579,6.3431499,6.343150138418579C6.3431499,6.343150138418579,4.92893,4.928930238418579,4.92893,4.928930238418579C3.053568199,6.804300338418579,2,9.347840038418578,2,12.000000238418579C2,12.000000238418579,4,12.000000238418579,4,12.000000238418579C4,12.000000238418579,4,12.000000238418579,4,12.000000238418579ZM6.3431499,6.343150138418579C7.8434401,4.842850238418579,9.8782701,4.000000238418579,12,4.000000238418579C12,4.000000238418579,12,2.000000238418579,12,2.000000238418579C9.3478398,2.000000238418579,6.8043001,3.053568739418579,4.92893,4.928930238418579C4.92893,4.928930238418579,6.3431499,6.343150138418579,6.3431499,6.343150138418579C6.3431499,6.343150138418579,6.3431499,6.343150138418579,6.3431499,6.343150138418579ZM12,4.000000238418579C14.1217,4.000000238418579,16.156599999999997,4.842850238418579,17.6569,6.343150138418579C17.6569,6.343150138418579,19.0711,4.928930238418579,19.0711,4.928930238418579C17.195700000000002,3.053568840418579,14.6522,2.000000238418579,12,2.000000238418579C12,2.000000238418579,12,4.000000238418579,12,4.000000238418579C12,4.000000238418579,12,4.000000238418579,12,4.000000238418579ZM17.6569,6.343150138418579C19.157101,7.843440338418579,20,9.878270338418579,20,12.000000238418579C20,12.000000238418579,22,12.000000238418579,22,12.000000238418579C22,9.347840038418578,20.9464,6.804300338418579,19.0711,4.928930238418579C19.0711,4.928930238418579,17.6569,6.343150138418579,17.6569,6.343150138418579C17.6569,6.343150138418579,17.6569,6.343150138418579,17.6569,6.343150138418579Z" fill="#0A0A28" fill-opacity="1"/></g></svg>