<svg xmlns="http://www.w3.org/2000/svg" xmlns:xlink="http://www.w3.org/1999/xlink" fill="none" version="1.1" width="24" height="24" viewBox="0 0 24 24"><defs><clipPath id="master_svg0_3_1886"><rect x="0" y="0" width="24" height="24" rx="0"/></clipPath></defs><g clip-path="url(#master_svg0_3_1886)"><path d="M11.999994296484376,21.6000254140625C14.546034896484375,21.6000254140625,16.987913896484375,20.5885444140625,18.788274896484374,18.7883054140625C20.588513896484375,16.9879444140625,21.599994896484375,14.5460654140625,21.599994896484375,12.0000248140625C21.599994896484375,9.4539490140625,20.588513896484375,7.0121527140625,18.788274896484374,5.211804414062501C16.987913896484375,3.4114504140625,14.546034896484375,2.4000244140625013,11.999994296484376,2.4000244140625C9.453918496484375,2.4000244140625018,7.012122196484375,3.4114504140625,5.211773896484376,5.211804414062501C3.411419896484375,7.0121527140625,2.399993896484377,9.4539490140625,2.399993896484375,12.0000248140625C2.3999938964843768,14.5460654140625,3.411419896484375,16.9879444140625,5.211773896484376,18.7883054140625C7.012122196484375,20.5885444140625,9.453918496484375,21.6000254140625,11.999994296484376,21.6000254140625C11.999994296484376,21.6000254140625,11.999994296484376,21.6000254140625,11.999994296484376,21.6000254140625C11.999994296484376,21.6000254140625,11.999994296484376,21.6000254140625,11.999994296484376,21.6000254140625ZM8.399993896484375,10.8000250140625C8.718258396484375,10.8000250140625,9.023477996484374,10.6735926140625,9.248526096484376,10.4485569140625C9.473562196484375,10.2235083140625,9.599994196484374,9.9182887140625,9.599994196484374,9.6000247140625C9.599994196484374,9.2817607140625,9.473562196484375,8.9765410140625,9.248526096484376,8.7514930140625C9.023477996484374,8.526456814062499,8.718258396484375,8.4000244140625,8.399993896484375,8.4000244140625C8.081729896484376,8.4000244140625,7.776510196484375,8.526456814062499,7.551462196484375,8.7514930140625C7.326425996484375,8.9765410140625,7.199994096484375,9.2817607140625,7.199994096484375,9.6000247140625C7.199994096484375,9.9182887140625,7.326425996484375,10.2235083140625,7.551462196484375,10.4485569140625C7.776510196484375,10.6735926140625,8.081729896484376,10.8000250140625,8.399993896484375,10.8000250140625C8.399993896484375,10.8000250140625,8.399993896484375,10.8000250140625,8.399993896484375,10.8000250140625ZM16.799994896484375,9.6000247140625C16.799994896484375,9.9182887140625,16.673513896484373,10.2235083140625,16.448513896484375,10.4485569140625C16.223514896484375,10.6735926140625,15.918233896484375,10.8000250140625,15.599994896484375,10.8000250140625C15.281754896484374,10.8000250140625,14.976474896484374,10.6735926140625,14.751473896484375,10.4485569140625C14.526474896484375,10.2235083140625,14.399993896484375,9.9182887140625,14.399993896484375,9.6000247140625C14.399993896484375,9.2817607140625,14.526474896484375,8.9765410140625,14.751473896484375,8.7514930140625C14.976474896484374,8.526456814062499,15.281754896484374,8.4000244140625,15.599994896484375,8.4000244140625C15.918233896484375,8.4000244140625,16.223514896484375,8.526456814062499,16.448513896484375,8.7514930140625C16.673513896484373,8.9765410140625,16.799994896484375,9.2817607140625,16.799994896484375,9.6000247140625C16.799994896484375,9.6000247140625,16.799994896484375,9.6000247140625,16.799994896484375,9.6000247140625ZM16.243194896484376,16.2420244140625C16.354554896484373,16.1305444140625,16.442994896484375,15.9981854140625,16.503233896484375,15.8525044140625C16.563474896484376,15.7069444140625,16.594434896484373,15.5508244140625,16.594434896484373,15.3931444140625C16.594434896484373,15.2355844140625,16.563233896484377,15.0794644140625,16.502874896484375,14.9339044140625C16.442514896484376,14.7883444140625,16.354074896484377,14.6559844140625,16.242593896484372,14.5446244140625C16.131114896484377,14.4332654140625,15.998754896484375,14.3448484140625,15.853074896484374,14.2845854140625C15.707513896484375,14.2243214140625,15.551394896484375,14.1933254140625,15.393714896484376,14.1933844140625C15.236154896484376,14.1934324140625,15.080033896484375,14.2245364140625,14.934474896484375,14.2849084140625C14.788913896484376,14.3452804140625,14.656554896484375,14.4337454140625,14.545194896484375,14.5452254140625C13.870097896484374,15.2201054140625,12.954581896484376,15.5993054140625,11.999994296484376,15.5993054140625C11.045406296484375,15.5993054140625,10.129889996484376,15.2201054140625,9.454794396484374,14.5452254140625C9.229782596484375,14.3200574140625,8.924538096484376,14.1934924140625,8.606214496484375,14.1933844140625C8.287889996484374,14.1932644140625,7.982562096484375,14.3196124140625,7.757393796484375,14.5446244140625C7.532226596484375,14.7696244140625,7.405662096484375,15.0749044140625,7.405553796484375,15.3931444140625C7.405433696484375,15.7115054140625,7.531782196484375,16.016904414062502,7.756794496484375,16.2420244140625C8.313965796484375,16.799305414062502,8.975466296484374,17.2413844140625,9.703529796484375,17.5430654140625C10.431582496484374,17.8447444140625,11.211930296484375,17.9999044140625,11.999994296484376,17.9999044140625C12.788057896484375,17.9999044140625,13.568405896484375,17.8447444140625,14.296457896484375,17.5430654140625C15.024473896484375,17.2413844140625,15.686033896484375,16.799305414062502,16.243194896484376,16.2420244140625C16.243194896484376,16.2420244140625,16.243194896484376,16.2420244140625,16.243194896484376,16.2420244140625C16.243194896484376,16.2420244140625,16.243194896484376,16.2420244140625,16.243194896484376,16.2420244140625Z" fill-rule="evenodd" fill="#0A0A28" fill-opacity="1"/></g></svg>