<svg xmlns="http://www.w3.org/2000/svg" xmlns:xlink="http://www.w3.org/1999/xlink" fill="none" version="1.1" width="24" height="24" viewBox="0 0 24 24"><defs><clipPath id="master_svg0_3_1516"><rect x="0" y="0" width="24" height="24" rx="0"/></clipPath></defs><g clip-path="url(#master_svg0_3_1516)"><path d="M11.999994296484376,21.6000254140625C14.546034896484375,21.6000254140625,16.987913896484375,20.5885444140625,18.788274896484374,18.7883054140625C20.588513896484375,16.9879444140625,21.599994896484375,14.5460654140625,21.599994896484375,12.0000248140625C21.599994896484375,9.4539490140625,20.588513896484375,7.0121527140625,18.788274896484374,5.211804414062501C16.987913896484375,3.4114504140625,14.546034896484375,2.4000244140625013,11.999994296484376,2.4000244140625C9.453918496484375,2.4000244140625018,7.012122196484375,3.4114504140625,5.211773896484376,5.211804414062501C3.411419896484375,7.0121527140625,2.399993896484377,9.4539490140625,2.399993896484375,12.0000248140625C2.3999938964843768,14.5460654140625,3.411419896484375,16.9879444140625,5.211773896484376,18.7883054140625C7.012122196484375,20.5885444140625,9.453918496484375,21.6000254140625,11.999994296484376,21.6000254140625C11.999994296484376,21.6000254140625,11.999994296484376,21.6000254140625,11.999994296484376,21.6000254140625C11.999994296484376,21.6000254140625,11.999994296484376,21.6000254140625,11.999994296484376,21.6000254140625ZM8.399993896484375,10.8000250140625C8.718258396484375,10.8000250140625,9.023477996484374,10.6735926140625,9.248526096484376,10.4485569140625C9.473562196484375,10.2235083140625,9.599994196484374,9.9182887140625,9.599994196484374,9.6000247140625C9.599994196484374,9.2817607140625,9.473562196484375,8.9765410140625,9.248526096484376,8.7514930140625C9.023477996484374,8.526456814062499,8.718258396484375,8.4000244140625,8.399993896484375,8.4000244140625C8.081729896484376,8.4000244140625,7.776510196484375,8.526456814062499,7.551462196484375,8.7514930140625C7.326425996484375,8.9765410140625,7.199994096484375,9.2817607140625,7.199994096484375,9.6000247140625C7.199994096484375,9.9182887140625,7.326425996484375,10.2235083140625,7.551462196484375,10.4485569140625C7.776510196484375,10.6735926140625,8.081729896484376,10.8000250140625,8.399993896484375,10.8000250140625C8.399993896484375,10.8000250140625,8.399993896484375,10.8000250140625,8.399993896484375,10.8000250140625ZM16.799994896484375,9.6000247140625C16.799994896484375,9.9182887140625,16.673513896484373,10.2235083140625,16.448513896484375,10.4485569140625C16.223514896484375,10.6735926140625,15.918233896484375,10.8000250140625,15.599994896484375,10.8000250140625C15.281754896484374,10.8000250140625,14.976474896484374,10.6735926140625,14.751473896484375,10.4485569140625C14.526474896484375,10.2235083140625,14.399993896484375,9.9182887140625,14.399993896484375,9.6000247140625C14.399993896484375,9.2817607140625,14.526474896484375,8.9765410140625,14.751473896484375,8.7514930140625C14.976474896484374,8.526456814062499,15.281754896484374,8.4000244140625,15.599994896484375,8.4000244140625C15.918233896484375,8.4000244140625,16.223514896484375,8.526456814062499,16.448513896484375,8.7514930140625C16.673513896484373,8.9765410140625,16.799994896484375,9.2817607140625,16.799994896484375,9.6000247140625C16.799994896484375,9.6000247140625,16.799994896484375,9.6000247140625,16.799994896484375,9.6000247140625ZM7.756794496484375,16.6548244140625C7.868237996484375,16.7664254140625,8.000585996484375,16.854865414062502,8.146265996484374,16.9153454140625C8.291945896484375,16.9757054140625,8.448090096484375,17.0067854140625,8.605794396484374,17.0067854140625C8.763497796484376,17.0067854140625,8.919642496484375,16.9757054140625,9.065322396484376,16.9153454140625C9.211001896484376,16.854865414062502,9.343349896484375,16.7664254140625,9.454794396484374,16.6548244140625C10.129889996484376,15.9799454140625,11.045406296484375,15.6007454140625,11.999994296484376,15.6007454140625C12.954581896484376,15.6007454140625,13.870097896484374,15.9799454140625,14.545194896484375,16.6548244140625C14.770314896484376,16.8799444140625,15.075713896484375,17.0065454140625,15.394194896484375,17.0065454140625C15.712673896484375,17.0065454140625,16.018074896484375,16.8799444140625,16.243194896484376,16.6548244140625C16.468314896484372,16.4297044140625,16.594914896484376,16.1243044140625,16.594914896484376,15.8058254140625C16.594914896484376,15.4873454140625,16.468314896484372,15.1819444140625,16.243194896484376,14.9568244140625C15.686033896484375,14.3995084140625,15.024473896484375,13.9574054140625,14.296457896484375,13.6557844140625C13.568405896484375,13.3541524140625,12.788057896484375,13.1989084140625,11.999994296484376,13.1989084140625C11.211930296484375,13.1989084140625,10.431582496484374,13.3541524140625,9.703529796484375,13.6557844140625C8.975466296484374,13.9574054140625,8.313965796484375,14.3995084140625,7.756794496484375,14.9568244140625C7.645217896484375,15.0683054140625,7.556705996484375,15.2006654140625,7.496322196484375,15.3463454140625C7.435937896484375,15.4920244140625,7.404846196484375,15.6481444140625,7.404846196484375,15.8058254140625C7.404846196484375,15.9635054140625,7.435937896484375,16.1196244140625,7.496322196484375,16.2653054140625C7.556705996484375,16.4109854140625,7.645217896484375,16.5433454140625,7.756794496484375,16.6548244140625C7.756794496484375,16.6548244140625,7.756794496484375,16.6548244140625,7.756794496484375,16.6548244140625C7.756794496484375,16.6548244140625,7.756794496484375,16.6548244140625,7.756794496484375,16.6548244140625Z" fill-rule="evenodd" fill="#0A0A28" fill-opacity="1"/></g></svg>