<svg xmlns="http://www.w3.org/2000/svg" xmlns:xlink="http://www.w3.org/1999/xlink" fill="none" version="1.1" width="24" height="24" viewBox="0 0 24 24"><defs><clipPath id="master_svg0_3_2041"><rect x="0" y="0" width="24" height="24" rx="0"/></clipPath></defs><g clip-path="url(#master_svg0_3_2041)"><path d="M13.000003134939575,9.000000201089478C13.000003134939575,8.447720301089477,12.552283534939574,8.000000201089478,12.000003134939575,8.000000201089478C11.447713134939574,8.000000201089478,11.000003134939575,8.447720301089477,11.000003134939575,9.000000201089478C11.000003134939575,9.000000201089478,13.000003134939575,9.000000201089478,13.000003134939575,9.000000201089478C13.000003134939575,9.000000201089478,13.000003134939575,9.000000201089478,13.000003134939575,9.000000201089478ZM11.000003134939575,11.000000201089478C11.000003134939575,11.552290201089477,11.447713134939574,12.000000201089478,12.000003134939575,12.000000201089478C12.552283534939574,12.000000201089478,13.000003134939575,11.552290201089477,13.000003134939575,11.000000201089478C13.000003134939575,11.000000201089478,11.000003134939575,11.000000201089478,11.000003134939575,11.000000201089478C11.000003134939575,11.000000201089478,11.000003134939575,11.000000201089478,11.000003134939575,11.000000201089478ZM12.000003134939575,14.000050101089478C11.447713134939574,14.000050101089478,11.000003134939575,14.447750101089477,11.000003134939575,15.000050101089478C11.000003134939575,15.552250101089477,11.447713134939574,16.000050101089478,12.000003134939575,16.000050101089478C12.000003134939575,16.000050101089478,12.000003134939575,14.000050101089478,12.000003134939575,14.000050101089478C12.000003134939575,14.000050101089478,12.000003134939575,14.000050101089478,12.000003134939575,14.000050101089478ZM12.010003334939576,16.000050101089478C12.562282834939575,16.000050101089478,13.010003334939576,15.552250101089477,13.010003334939576,15.000050101089478C13.010003334939576,14.447750101089477,12.562282834939575,14.000050101089478,12.010003334939576,14.000050101089478C12.010003334939576,14.000050101089478,12.010003334939576,16.000050101089478,12.010003334939576,16.000050101089478C12.010003334939576,16.000050101089478,12.010003334939576,16.000050101089478,12.010003334939576,16.000050101089478ZM20.660024234939574,16.000050101089478C20.660024234939574,16.000050101089478,19.793923234939577,16.49995010108948,19.793923234939577,16.49995010108948C19.793923234939577,16.49995010108948,19.794124234939574,16.500150101089478,19.794124234939574,16.500150101089478C19.794124234939574,16.500150101089478,20.660024234939574,16.000050101089478,20.660024234939574,16.000050101089478C20.660024234939574,16.000050101089478,20.660024234939574,16.000050101089478,20.660024234939574,16.000050101089478ZM13.732023234939575,4.000000121089478C13.732023234939575,4.000000121089478,14.598023234939575,3.5000110910894775,14.598023234939575,3.5000110910894775C14.598023234939575,3.5000110910894775,14.597923234939575,3.4998090910894777,14.597923234939575,3.4998090910894777C14.597923234939575,3.4998090910894777,13.732023234939575,4.000000121089478,13.732023234939575,4.000000121089478C13.732023234939575,4.000000121089478,13.732023234939575,4.000000121089478,13.732023234939575,4.000000121089478ZM10.268003234939576,4.000000121089478C10.268003234939576,4.000000121089478,9.402083134939575,3.4998090910894777,9.402083134939575,3.4998090910894777C9.402083134939575,3.4998090910894777,9.401973034939576,3.5000110910894775,9.401973034939576,3.5000110910894775C9.401973034939576,3.5000110910894775,10.268003234939576,4.000000121089478,10.268003234939576,4.000000121089478C10.268003234939576,4.000000121089478,10.268003234939576,4.000000121089478,10.268003234939576,4.000000121089478ZM3.340000244939575,16.000050101089478C3.340000244939575,16.000050101089478,4.205913234939575,16.500150101089478,4.205913234939575,16.500150101089478C4.205913234939575,16.500150101089478,4.206033234939575,16.49995010108948,4.206033234939575,16.49995010108948C4.206033234939575,16.49995010108948,3.340000244939575,16.000050101089478,3.340000244939575,16.000050101089478C3.340000244939575,16.000050101089478,3.340000244939575,16.000050101089478,3.340000244939575,16.000050101089478ZM11.000003134939575,9.000000201089478C11.000003134939575,9.000000201089478,11.000003134939575,11.000000201089478,11.000003134939575,11.000000201089478C11.000003134939575,11.000000201089478,13.000003134939575,11.000000201089478,13.000003134939575,11.000000201089478C13.000003134939575,11.000000201089478,13.000003134939575,9.000000201089478,13.000003134939575,9.000000201089478C13.000003134939575,9.000000201089478,11.000003134939575,9.000000201089478,11.000003134939575,9.000000201089478C11.000003134939575,9.000000201089478,11.000003134939575,9.000000201089478,11.000003134939575,9.000000201089478ZM12.000003134939575,16.000050101089478C12.000003134939575,16.000050101089478,12.010003334939576,16.000050101089478,12.010003334939576,16.000050101089478C12.010003334939576,16.000050101089478,12.010003334939576,14.000050101089478,12.010003334939576,14.000050101089478C12.010003334939576,14.000050101089478,12.000003134939575,14.000050101089478,12.000003134939575,14.000050101089478C12.000003134939575,14.000050101089478,12.000003134939575,16.000050101089478,12.000003134939575,16.000050101089478C12.000003134939575,16.000050101089478,12.000003134939575,16.000050101089478,12.000003134939575,16.000050101089478ZM5.072003134939575,20.000050101089478C5.072003134939575,20.000050101089478,18.928023234939573,20.000050101089478,18.928023234939573,20.000050101089478C18.928023234939573,20.000050101089478,18.928023234939573,18.000050101089478,18.928023234939573,18.000050101089478C18.928023234939573,18.000050101089478,5.072003134939575,18.000050101089478,5.072003134939575,18.000050101089478C5.072003134939575,18.000050101089478,5.072003134939575,20.000050101089478,5.072003134939575,20.000050101089478C5.072003134939575,20.000050101089478,5.072003134939575,20.000050101089478,5.072003134939575,20.000050101089478ZM18.928023234939573,20.000050101089478C21.237823234939576,20.000050101089478,22.681024234939574,17.499550101089476,21.525924234939577,15.499850101089477C21.525924234939577,15.499850101089477,19.794124234939574,16.500150101089478,19.794124234939574,16.500150101089478C20.178924234939576,17.166450101089477,19.698222234939575,18.000050101089478,18.928023234939573,18.000050101089478C18.928023234939573,18.000050101089478,18.928023234939573,20.000050101089478,18.928023234939573,20.000050101089478C18.928023234939573,20.000050101089478,18.928023234939573,20.000050101089478,18.928023234939573,20.000050101089478ZM21.526023234939576,15.500050101089478C21.526023234939576,15.500050101089478,14.598023234939575,3.5000110910894775,14.598023234939575,3.5000110910894775C14.598023234939575,3.5000110910894775,12.865973734939574,4.499990101089478,12.865973734939574,4.499990101089478C12.865973734939574,4.499990101089478,19.793923234939577,16.49995010108948,19.793923234939577,16.49995010108948C19.793923234939577,16.49995010108948,21.526023234939576,15.500050101089478,21.526023234939576,15.500050101089478C21.526023234939576,15.500050101089478,21.526023234939576,15.500050101089478,21.526023234939576,15.500050101089478ZM14.597923234939575,3.4998090910894777C13.442923234939576,1.5004001010894776,10.557033334939575,1.5004001010894776,9.402083134939575,3.4998090910894777C9.402083134939575,3.4998090910894777,11.133913234939575,4.500190101089478,11.133913234939575,4.500190101089478C11.518963134939575,3.8336030810894774,12.481033534939575,3.8336030810894774,12.866083334939574,4.500190101089478C12.866083334939574,4.500190101089478,14.597923234939575,3.4998090910894777,14.597923234939575,3.4998090910894777C14.597923234939575,3.4998090910894777,14.597923234939575,3.4998090910894777,14.597923234939575,3.4998090910894777ZM9.401973034939576,3.5000110910894775C9.401973034939576,3.5000110910894775,2.4739682049395753,15.500050101089478,2.4739682049395753,15.500050101089478C2.4739682049395753,15.500050101089478,4.206033234939575,16.49995010108948,4.206033234939575,16.49995010108948C4.206033234939575,16.49995010108948,11.134033434939575,4.499990101089478,11.134033434939575,4.499990101089478C11.134033434939575,4.499990101089478,9.401973034939576,3.5000110910894775,9.401973034939576,3.5000110910894775C9.401973034939576,3.5000110910894775,9.401973034939576,3.5000110910894775,9.401973034939576,3.5000110910894775ZM2.474085214939575,15.499850101089477C1.318943234939575,17.499550101089476,2.7621842349395753,20.000050101089478,5.072003134939575,20.000050101089478C5.072003134939575,20.000050101089478,5.072003134939575,18.000050101089478,5.072003134939575,18.000050101089478C4.3018132349395755,18.000050101089478,3.821052254939575,17.166450101089477,4.205913234939575,16.500150101089478C4.205913234939575,16.500150101089478,2.474085214939575,15.499850101089477,2.474085214939575,15.499850101089477C2.474085214939575,15.499850101089477,2.474085214939575,15.499850101089477,2.474085214939575,15.499850101089477Z" fill="#0A0A28" fill-opacity="1"/></g></svg>