<svg xmlns="http://www.w3.org/2000/svg" xmlns:xlink="http://www.w3.org/1999/xlink" fill="none" version="1.1" width="24" height="24" viewBox="0 0 24 24"><defs><clipPath id="master_svg0_3_1459"><rect x="0" y="0" width="24" height="24" rx="0"/></clipPath></defs><g clip-path="url(#master_svg0_3_1459)"><path d="M9.9083447953125,3.7187509765625C10.8263449953125,2.0867509565624998,13.1747456953125,2.0867509565624998,14.0915446953125,3.7187509765625C14.0915446953125,3.7187509765625,20.7875936953125,15.6227509765625,20.7875936953125,15.6227509765625C21.6875936953125,17.2235519765625,20.5319936953125,19.1987509765625,18.6971936953125,19.1987509765625C18.6971936953125,19.1987509765625,5.3039447953125,19.1987509765625,5.3039447953125,19.1987509765625C3.4679399153125,19.1987509765625,2.3123398453125,17.2235519765625,3.2123398753125,15.6227509765625C3.2123398753125,15.6227509765625,9.9083447953125,3.7187509765625,9.9083447953125,3.7187509765625C9.9083447953125,3.7187509765625,9.9083447953125,3.7187509765625,9.9083447953125,3.7187509765625ZM13.1999456953125,15.5999509765625C13.1999456953125,15.9181919765625,13.0735126953125,16.2234719765625,12.8484649953125,16.4484719765625C12.6234292953125,16.6734719765625,12.3181972953125,16.7999509765625,11.9999446953125,16.7999509765625C11.6816806953125,16.7999509765625,11.3764609953125,16.6734719765625,11.1514129953125,16.4484719765625C10.9263648953125,16.2234719765625,10.7999448953125,15.9181919765625,10.7999448953125,15.5999509765625C10.7999448953125,15.2817119765625,10.9263648953125,14.9764309765625,11.1514129953125,14.7514309765625C11.3764609953125,14.5264309765625,11.6816806953125,14.3999509765625,11.9999446953125,14.3999509765625C12.3181972953125,14.3999509765625,12.6234292953125,14.5264309765625,12.8484649953125,14.7514309765625C13.0735126953125,14.9764309765625,13.1999456953125,15.2817119765625,13.1999456953125,15.5999509765625C13.1999456953125,15.5999509765625,13.1999456953125,15.5999509765625,13.1999456953125,15.5999509765625C13.1999456953125,15.5999509765625,13.1999456953125,15.5999509765625,13.1999456953125,15.5999509765625ZM11.9999446953125,5.9999510765625C11.6816806953125,5.9999510765625,11.3764609953125,6.1263830765625,11.1514129953125,6.3514191765625C10.9263648953125,6.5764670765625,10.7999448953125,6.8816871765625,10.7999448953125,7.1999511765625C10.7999448953125,7.1999511765625,10.7999448953125,10.7999515765625,10.7999448953125,10.7999515765625C10.7999448953125,11.1182155765625,10.9263648953125,11.4234351765625,11.1514129953125,11.6484832765625C11.3764609953125,11.8735189765625,11.6816806953125,11.9999513765625,11.9999446953125,11.9999513765625C12.3181972953125,11.9999513765625,12.6234292953125,11.8735189765625,12.8484649953125,11.6484832765625C13.0735126953125,11.4234351765625,13.1999456953125,11.1182155765625,13.1999456953125,10.7999515765625C13.1999456953125,10.7999515765625,13.1999456953125,7.1999511765625,13.1999456953125,7.1999511765625C13.1999456953125,6.8816871765625,13.0735126953125,6.5764670765625,12.8484649953125,6.3514191765625C12.6234292953125,6.1263830765625,12.3181972953125,5.9999510765625,11.9999446953125,5.9999510765625C11.9999446953125,5.9999510765625,11.9999446953125,5.9999510765625,11.9999446953125,5.9999510765625Z" fill-rule="evenodd" fill="#0A0A28" fill-opacity="1"/></g></svg>