<svg xmlns="http://www.w3.org/2000/svg" xmlns:xlink="http://www.w3.org/1999/xlink" fill="none" version="1.1" width="24" height="24" viewBox="0 0 24 24"><defs><clipPath id="master_svg0_3_1746"><rect x="0" y="0" width="24" height="24" rx="0"/></clipPath></defs><g clip-path="url(#master_svg0_3_1746)"><path d="M21.6000254140625,12.0000248140625C21.6000254140625,14.5460654140625,20.5885444140625,16.9879444140625,18.7883054140625,18.7883054140625C16.9879444140625,20.5885444140625,14.5460654140625,21.6000254140625,12.0000248140625,21.6000254140625C9.4539490140625,21.6000254140625,7.0121527140625,20.5885444140625,5.211804414062501,18.7883054140625C3.4114504140625,16.9879444140625,2.4000244140625018,14.5460654140625,2.4000244140625,12.0000248140625C2.4000244140625004,9.4539490140625,3.4114504140625,7.0121527140625,5.211804414062501,5.211804414062501C7.0121527140625,3.4114504140625,9.4539490140625,2.4000244140625027,12.0000248140625,2.4000244140625C14.5460654140625,2.4000244140625018,16.9879444140625,3.4114504140625,18.7883054140625,5.211804414062501C20.5885444140625,7.0121527140625,21.6000254140625,9.4539490140625,21.6000254140625,12.0000248140625C21.6000254140625,12.0000248140625,21.6000254140625,12.0000248140625,21.6000254140625,12.0000248140625C21.6000254140625,12.0000248140625,21.6000254140625,12.0000248140625,21.6000254140625,12.0000248140625ZM13.2000244140625,16.8000254140625C13.2000244140625,17.1182644140625,13.0735934140625,17.423544414062498,12.8485574140625,17.6485454140625C12.6235094140625,17.8735444140625,12.3182888140625,18.0000244140625,12.0000248140625,18.0000244140625C11.6817608140625,18.0000244140625,11.3765411140625,17.8735444140625,11.1514931140625,17.6485454140625C10.9264564140625,17.423544414062498,10.8000250140625,17.1182644140625,10.8000250140625,16.8000254140625C10.8000250140625,16.4817854140625,10.9264564140625,16.1765054140625,11.1514931140625,15.9515044140625C11.3765411140625,15.7265054140625,11.6817608140625,15.6000254140625,12.0000248140625,15.6000254140625C12.3182888140625,15.6000254140625,12.6235094140625,15.7265054140625,12.8485574140625,15.9515044140625C13.0735934140625,16.1765054140625,13.2000244140625,16.4817854140625,13.2000244140625,16.8000254140625C13.2000244140625,16.8000254140625,13.2000244140625,16.8000254140625,13.2000244140625,16.8000254140625C13.2000244140625,16.8000254140625,13.2000244140625,16.8000254140625,13.2000244140625,16.8000254140625ZM12.0000248140625,6.0000245140625C11.6817608140625,6.0000245140625,11.3765411140625,6.1264565140625,11.1514931140625,6.3514926140625C10.9264564140625,6.5765405140625,10.8000250140625,6.8817606140625,10.8000250140625,7.2000246140625C10.8000250140625,7.2000246140625,10.8000250140625,12.0000248140625,10.8000250140625,12.0000248140625C10.8000250140625,12.3182888140625,10.9264564140625,12.6235094140625,11.1514931140625,12.8485574140625C11.3765411140625,13.0735934140625,11.6817608140625,13.2000244140625,12.0000248140625,13.2000244140625C12.3182888140625,13.2000244140625,12.6235094140625,13.0735934140625,12.8485574140625,12.8485574140625C13.0735934140625,12.6235094140625,13.2000244140625,12.3182888140625,13.2000244140625,12.0000248140625C13.2000244140625,12.0000248140625,13.2000244140625,7.2000246140625,13.2000244140625,7.2000246140625C13.2000244140625,6.8817606140625,13.0735934140625,6.5765405140625,12.8485574140625,6.3514926140625C12.6235094140625,6.1264565140625,12.3182888140625,6.0000245140625,12.0000248140625,6.0000245140625C12.0000248140625,6.0000245140625,12.0000248140625,6.0000245140625,12.0000248140625,6.0000245140625Z" fill-rule="evenodd" fill="#0A0A28" fill-opacity="1"/></g></svg>