<svg xmlns="http://www.w3.org/2000/svg" xmlns:xlink="http://www.w3.org/1999/xlink" fill="none" version="1.1" width="24" height="24" viewBox="0 0 24 24"><defs><clipPath id="master_svg0_3_1548"><rect x="0" y="0" width="24" height="24" rx="0"/></clipPath></defs><g clip-path="url(#master_svg0_3_1548)"><path d="M13.20000220625,3.5999755859375C12.881738206249999,3.5999755859375004,12.576518106249999,3.7264039959375,12.35147020625,3.9514471859375C12.12643410625,4.1764916159375,12.000002106250001,4.4817164559375,12.000002106250001,4.7999755859375C12.000002106250001,5.1182397859375,12.12643410625,5.4234596859375,12.35147020625,5.6485077859375C12.576518106249999,5.8735437859375,12.881738206249999,5.9999756859375,13.20000220625,5.9999756859375C13.20000220625,5.9999756859375,16.303202106249998,5.9999756859375,16.303202106249998,5.9999756859375C16.303202106249998,5.9999756859375,8.75159948625,13.5515765859375,8.75159948625,13.5515765859375C8.63698750625,13.6622765859375,8.54556912625,13.7946845859375,8.48267819025,13.9410965859375C8.41978738825,14.0874955859375,8.38668379025,14.2449595859375,8.385299214773,14.4042955859375C8.38391463425,14.5636315859375,8.41427638725,14.7216475859375,8.47461347325,14.8691155859375C8.53495031625,15.0165955859375,8.62405390625,15.1505755859375,8.73672550625,15.2632435859375C8.84939715625,15.3759235859375,8.98337954625,15.4650235859375,9.13085472625,15.5253605859375C9.27833109625,15.5856965859375,9.43634590625,15.6160565859375,9.59568190625,15.6147355859375C9.75501790625,15.6132955859375,9.91248200625,15.5801875859375,10.05888200625,15.5172955859375C10.20529400625,15.4544035859375,10.33770200625,15.3629885859375,10.44840190625,15.2483755859375C10.44840190625,15.2483755859375,18.00000190625,7.6967758859375,18.00000190625,7.6967758859375C18.00000190625,7.6967758859375,18.00000190625,10.7999758859375,18.00000190625,10.7999758859375C18.00000190625,11.1182398859375,18.126434306249998,11.4234594859375,18.35147000625,11.6485080859375C18.57651790625,11.8735437859375,18.88173890625,11.9999761859375,19.20000290625,11.9999761859375C19.51825390625,11.9999761859375,19.82348590625,11.8735437859375,20.04853390625,11.6485080859375C20.27356990625,11.4234594859375,20.400013906250003,11.1182398859375,20.400013906250003,10.7999758859375C20.400013906250003,10.7999758859375,20.400013906250003,4.7999755859375,20.400013906250003,4.7999755859375C20.400013906250003,4.4817164559375,20.27356990625,4.1764916159375,20.04853390625,3.9514471859375C19.82348590625,3.7264039959375,19.51825390625,3.599975585937501,19.20000290625,3.5999755859375C19.20000290625,3.5999755859375,13.20000220625,3.5999755859375,13.20000220625,3.5999755859375C13.20000220625,3.5999755859375,13.20000220625,3.5999755859375,13.20000220625,3.5999755859375Z" fill="#0A0A28" fill-opacity="1"/><path d="M5.9999756859375,6C5.3634596859375,6.000000000000001,4.7530064859375,6.25285682,4.3029187959375,6.70294321C3.8528324059375,7.1530309,3.5999755859375004,7.7634841,3.5999755859375,8.4000001C3.5999755859375,8.4000001,3.5999755859375,18,3.5999755859375,18C3.5999755859375004,18.636481,3.8528324059375,19.246921,4.3029187959375,19.697041C4.7530064859375,20.147161,5.3634596859375,20.400001,5.9999756859375,20.400001C5.9999756859375,20.400001,15.5999755859375,20.400001,15.5999755859375,20.400001C16.2364565859375,20.400001,16.8468965859375,20.147161,17.2970165859375,19.697041C17.7471365859375,19.246921,17.9999765859375,18.636481,17.9999765859375,18C17.9999765859375,18,17.9999765859375,14.4000006,17.9999765859375,14.4000006C17.9999765859375,14.0817366,17.873495585937498,13.7765164,17.6484955859375,13.551468400000001C17.4234965859375,13.3264322,17.1182155859375,13.2000003,16.7999765859375,13.2000003C16.481736585937497,13.2000003,16.1764565859375,13.3264322,15.9514555859375,13.551468400000001C15.7264565859375,13.7765164,15.5999755859375,14.0817366,15.5999755859375,14.4000006C15.5999755859375,14.4000006,15.5999755859375,18,15.5999755859375,18C15.5999755859375,18,5.9999756859375,18,5.9999756859375,18C5.9999756859375,18,5.9999756859375,8.4000001,5.9999756859375,8.4000001C5.9999756859375,8.4000001,9.5999755859375,8.4000001,9.5999755859375,8.4000001C9.9182400859375,8.4000001,10.223459685937499,8.2735682,10.448507785937501,8.0485322C10.6735438859375,7.8234841,10.7999758859375,7.5182642,10.7999758859375,7.2C10.7999758859375,6.88174087,10.6735438859375,6.57651603,10.448507785937501,6.3514716C10.223459685937499,6.12642841,9.9182400859375,6,9.5999755859375,6C9.5999755859375,6,5.9999756859375,6,5.9999756859375,6C5.9999756859375,6,5.9999756859375,6,5.9999756859375,6Z" fill="#0A0A28" fill-opacity="1"/></g></svg>