<svg xmlns="http://www.w3.org/2000/svg" xmlns:xlink="http://www.w3.org/1999/xlink" fill="none" version="1.1" width="24" height="24" viewBox="0 0 24 24"><defs><clipPath id="master_svg0_3_2112"><rect x="0" y="0" width="24" height="24" rx="0"/></clipPath></defs><g clip-path="url(#master_svg0_3_2112)"><path d="M10,7C10.5522799,7,11,6.5522799,11,6C11,5.4477201,10.5522799,5,10,5C10,5,10,7,10,7C10,7,10,7,10,7ZM6,6C6,6,6,5,6,5C6,5,6,6,6,6C6,6,6,6,6,6ZM4,8C4,8,3,8,3,8C3,8,4,8,4,8C4,8,4,8,4,8ZM4,18C4,18,3,18,3,18C3,18,4,18,4,18C4,18,4,18,4,18ZM19,14C19,13.44771,18.552300000000002,13,18,13C17.447699999999998,13,17,13.44771,17,14C17,14,19,14,19,14C19,14,19,14,19,14ZM14,3C13.44771,3,13,3.4477149799999998,13,4C13,4.55228502,13.44771,5,14,5C14,5,14,3,14,3C14,3,14,3,14,3ZM20,4C20,4,21,4,21,4C21,3.4477149799999998,20.552299,3,20,3C20,3,20,4,20,4C20,4,20,4,20,4ZM19,10C19,10.5522799,19.447699999999998,11,20,11C20.552299,11,21,10.5522799,21,10C21,10,19,10,19,10C19,10,19,10,19,10ZM9.292890100000001,13.2928896C8.902370000000001,13.6834202,8.902370000000001,14.3166,9.292890100000001,14.7071C9.6834202,15.0976,10.3165798,15.0976,10.707109899999999,14.7071C10.707109899999999,14.7071,9.292890100000001,13.2928896,9.292890100000001,13.2928896C9.292890100000001,13.2928896,9.292890100000001,13.2928896,9.292890100000001,13.2928896ZM10,5C10,5,6,5,6,5C6,5,6,7,6,7C6,7,10,7,10,7C10,7,10,5,10,5C10,5,10,5,10,5ZM6,5C5.20435,5,4.44128901,5.31607,3.87868,5.87868C3.87868,5.87868,5.29289,7.2928901,5.29289,7.2928901C5.48043,7.10536,5.73478,7,6,7C6,7,6,5,6,5C6,5,6,5,6,5ZM3.87868,5.87868C3.3160700199999997,6.4412899,3,7.20435,3,8C3,8,5,8,5,8C5,7.7347801,5.10536,7.4804299,5.29289,7.2928901C5.29289,7.2928901,3.87868,5.87868,3.87868,5.87868C3.87868,5.87868,3.87868,5.87868,3.87868,5.87868ZM3,8C3,8,3,18,3,18C3,18,5,18,5,18C5,18,5,8,5,8C5,8,3,8,3,8C3,8,3,8,3,8ZM3,18C3,18.7956,3.3160700199999997,19.5587,3.87868,20.1213C3.87868,20.1213,5.29289,18.7071,5.29289,18.7071C5.10536,18.5196,5,18.2652,5,18C5,18,3,18,3,18C3,18,3,18,3,18ZM3.87868,20.1213C4.44128799,20.683901,5.20435,21,6,21C6,21,6,19,6,19C5.73478,19,5.48043,18.8946,5.29289,18.7071C5.29289,18.7071,3.87868,20.1213,3.87868,20.1213C3.87868,20.1213,3.87868,20.1213,3.87868,20.1213ZM6,21C6,21,16,21,16,21C16,21,16,19,16,19C16,19,6,19,6,19C6,19,6,21,6,21C6,21,6,21,6,21ZM16,21C16.7957,21,17.5587,20.683901,18.121299999999998,20.1213C18.121299999999998,20.1213,16.7071,18.7071,16.7071,18.7071C16.5196,18.8946,16.2652,19,16,19C16,19,16,21,16,21C16,21,16,21,16,21ZM18.121299999999998,20.1213C18.6839,19.5587,19,18.7957,19,18C19,18,17,18,17,18C17,18.2652,16.8946,18.5196,16.7071,18.7071C16.7071,18.7071,18.121299999999998,20.1213,18.121299999999998,20.1213C18.121299999999998,20.1213,18.121299999999998,20.1213,18.121299999999998,20.1213ZM19,18C19,18,19,14,19,14C19,14,17,14,17,14C17,14,17,18,17,18C17,18,19,18,19,18C19,18,19,18,19,18ZM14,5C14,5,20,5,20,5C20,5,20,3,20,3C20,3,14,3,14,3C14,3,14,5,14,5C14,5,14,5,14,5ZM19,4C19,4,19,10,19,10C19,10,21,10,21,10C21,10,21,4,21,4C21,4,19,4,19,4C19,4,19,4,19,4ZM19.2929,3.29289299C19.2929,3.29289299,9.292890100000001,13.2928896,9.292890100000001,13.2928896C9.292890100000001,13.2928896,10.707109899999999,14.7071,10.707109899999999,14.7071C10.707109899999999,14.7071,20.7071,4.70710701,20.7071,4.70710701C20.7071,4.70710701,19.2929,3.29289299,19.2929,3.29289299C19.2929,3.29289299,19.2929,3.29289299,19.2929,3.29289299Z" fill="#0A0A28" fill-opacity="1"/></g></svg>