<svg xmlns="http://www.w3.org/2000/svg" xmlns:xlink="http://www.w3.org/1999/xlink" fill="none" version="1.1" width="24" height="24" viewBox="0 0 24 24"><defs><clipPath id="master_svg0_3_2254"><rect x="0" y="0" width="24" height="24" rx="0"/></clipPath></defs><g clip-path="url(#master_svg0_3_2254)"><path d="M4.448385986718749,2.75158831671875C4.22206588671875,2.53299832671875,3.91894588671875,2.41204514261875,3.60430598671875,2.41477924984075C3.28967070671875,2.41751335071875,2.98869508671875,2.54371589671875,2.76620548671875,2.76620548671875C2.54371589671875,2.98869508671875,2.41751335071875,3.28967070671875,2.41477924984075,3.60430598671875C2.41204514261875,3.91894588671875,2.53299832671875,4.22206588671875,2.75158831671875,4.448385986718749C2.75158831671875,4.448385986718749,19.55157488671875,21.24837488671875,19.55157488671875,21.24837488671875C19.77789488671875,21.46701388671875,20.08101488671875,21.58797488671875,20.39565488671875,21.58521488671875C20.71029488671875,21.58245488671875,21.01125488671875,21.45621488671875,21.23373388671875,21.23373388671875C21.45621488671875,21.01125488671875,21.58245488671875,20.71029488671875,21.58521488671875,20.39565488671875C21.58797488671875,20.08101488671875,21.46701388671875,19.77789488671875,21.24837488671875,19.55157488671875C21.24837488671875,19.55157488671875,19.48077388671875,17.783974886718752,19.48077388671875,17.783974886718752C21.34977388671875,16.29369488671875,22.73193388671875,14.27990288671875,23.45037488671875,11.99998668671875C21.92157388671875,7.13158608671875,17.373573886718752,3.59998838671875,11.99998668671875,3.59998838671875C10.11890168671875,3.59743718671875,8.26378588671875,4.03901788671875,6.58558608671875,4.88878588671875C6.58558608671875,4.88878588671875,4.44958588671875,2.75158831671875,4.44958588671875,2.75158831671875C4.44958588671875,2.75158831671875,4.448385986718749,2.75158831671875,4.448385986718749,2.75158831671875C4.448385986718749,2.75158831671875,4.448385986718749,2.75158831671875,4.448385986718749,2.75158831671875ZM9.561585886718749,7.86358598671875C9.561585886718749,7.86358598671875,11.37838648671875,9.681585786718749,11.37838648671875,9.681585786718749C11.78529448671875,9.57352638671875,12.21345428671875,9.57424588671875,12.61998988671875,9.68366198671875C13.02653888671875,9.79307838671875,13.39720488671875,10.007361886718751,13.69491488671875,10.30507038671875C13.99260988671875,10.60276608671875,14.20689488671875,10.97344588671875,14.31631088671875,11.37998198671875C14.42577488671875,11.78653048671875,14.42649488671875,12.21467878671875,14.31838588671875,12.62158588671875C14.31838588671875,12.62158588671875,16.13517388671875,14.43837488671875,16.13517388671875,14.43837488671875C16.676374886718747,13.52160988671875,16.897413886718752,12.45094688671875,16.76361488671875,11.39480208671875C16.629694886718752,10.33865828671875,16.14849488671875,9.35698648671875,15.39573488671875,8.60420178671875C14.64297388671875,7.85141798671875,13.66131488671875,7.37026598671875,12.60518188671875,7.23640628671875C11.54903788671875,7.10255808671875,10.47836208671875,7.32361028671875,9.561585886718749,7.86478618671875C9.561585886718749,7.86478618671875,9.561585886718749,7.86358598671875,9.561585886718749,7.86358598671875C9.561585886718749,7.86358598671875,9.561585886718749,7.86358598671875,9.561585886718749,7.86358598671875Z" fill-rule="evenodd" fill="#0A0A28" fill-opacity="1"/><path d="M14.94482258203125,20.03641672265625C14.94482258203125,20.03641672265625,11.70002158203125,16.79041572265625,11.70002158203125,16.79041572265625C10.53324988203125,16.717324222656252,9.43325808203125,16.22092052265625,8.60649398203125,15.394372022656249C7.77973028203125,14.56783632265625,7.28302578203125,13.467975622656251,7.20962188203125,12.30121612265625C7.20962188203125,12.30121612265625,2.80202178203125,7.89361572265625,2.80202178203125,7.89361572265625C1.78827358203125,9.10082782265625,1.02284041203125,10.49631972265625,0.54962158203125,12.00001572265625C2.0784216820312498,16.86841582265625,6.62762208203125,20.40001572265625,12.00002158203125,20.40001572265625C13.01642258203125,20.40001572265625,14.00282258203125,20.27401672265625,14.94482258203125,20.03641672265625C14.94482258203125,20.03641672265625,14.94482258203125,20.03641672265625,14.94482258203125,20.03641672265625Z" fill="#0A0A28" fill-opacity="1"/></g></svg>