<svg xmlns="http://www.w3.org/2000/svg" xmlns:xlink="http://www.w3.org/1999/xlink" fill="none" version="1.1" width="24" height="24" viewBox="0 0 24 24"><defs><clipPath id="master_svg0_3_1920"><rect x="0" y="0" width="24" height="24" rx="0"/></clipPath></defs><g clip-path="url(#master_svg0_3_1920)"><path d="M15,12C15,12,16,12,16,12C16,12,15,12,15,12C15,12,15,12,15,12ZM12,9C12,9,12,8,12,8C12,8,12,9,12,9C12,9,12,9,12,9ZM14,12C14,12.5304301,13.789290000000001,13.0391402,13.4142098,13.4142098C13.4142098,13.4142098,14.8284302,14.8284302,14.8284302,14.8284302C15.5785699,14.07828,16,13.0608702,16,12C16,12,14,12,14,12C14,12,14,12,14,12ZM13.4142098,13.4142098C13.0391402,13.789290000000001,12.5304301,14,12,14C12,14,12,16,12,16C13.0608702,16,14.07828,15.5785699,14.8284302,14.8284302C14.8284302,14.8284302,13.4142098,13.4142098,13.4142098,13.4142098C13.4142098,13.4142098,13.4142098,13.4142098,13.4142098,13.4142098ZM12,14C11.4695699,14,10.96086,13.789290000000001,10.58579,13.4142098C10.58579,13.4142098,9.171572,14.8284302,9.171572,14.8284302C9.921718,15.5785699,10.9391299,16,12,16C12,16,12,14,12,14C12,14,12,14,12,14ZM10.58579,13.4142098C10.21071,13.0391402,10,12.5304301,10,12C10,12,8,12,8,12C8,13.0608702,8.42142701,14.07828,9.171572,14.8284302C9.171572,14.8284302,10.58579,13.4142098,10.58579,13.4142098C10.58579,13.4142098,10.58579,13.4142098,10.58579,13.4142098ZM10,12C10,11.4695699,10.21071,10.96086,10.58579,10.58579C10.58579,10.58579,9.171572,9.171572,9.171572,9.171572C8.42142701,9.921718,8,10.9391299,8,12C8,12,10,12,10,12C10,12,10,12,10,12ZM10.58579,10.58579C10.96086,10.21071,11.4695699,10,12,10C12,10,12,8,12,8C10.9391299,8,9.921718,8.42142701,9.171572,9.171572C9.171572,9.171572,10.58579,10.58579,10.58579,10.58579C10.58579,10.58579,10.58579,10.58579,10.58579,10.58579ZM12,10C12.5304301,10,13.0391402,10.21071,13.4142098,10.58579C13.4142098,10.58579,14.8284302,9.171572,14.8284302,9.171572C14.07828,8.42142701,13.0608702,8,12,8C12,8,12,10,12,10C12,10,12,10,12,10ZM13.4142098,10.58579C13.789290000000001,10.96086,14,11.4695699,14,12C14,12,16,12,16,12C16,10.9391299,15.5785699,9.921718,14.8284302,9.171572C14.8284302,9.171572,13.4142098,10.58579,13.4142098,10.58579C13.4142098,10.58579,13.4142098,10.58579,13.4142098,10.58579Z" fill="#0A0A28" fill-opacity="1"/><path d="M2.4579999446868896,12C2.4579999446868896,12,1.5039349246868896,11.7003999,1.5039349246868896,11.7003999C1.4426899446868897,11.8954401,1.4426899446868897,12.1045599,1.5039349246868896,12.2996001C1.5039349246868896,12.2996001,2.4579999446868896,12,2.4579999446868896,12C2.4579999446868896,12,2.4579999446868896,12,2.4579999446868896,12ZM21.54199994468689,12C21.54199994468689,12,22.49609894468689,12.2996001,22.49609894468689,12.2996001C22.55729994468689,12.1045599,22.55729994468689,11.8954401,22.49609894468689,11.7003999C22.49609894468689,11.7003999,21.54199994468689,12,21.54199994468689,12C21.54199994468689,12,21.54199994468689,12,21.54199994468689,12ZM3.4120649646868895,12.2996001C4.55891994468689,8.64749,7.9722297446868895,6,11.999999744686889,6C11.999999744686889,6,11.999999744686889,4,11.999999744686889,4C7.07376984468689,4,2.9050819546868896,7.2385099,1.5039349246868896,11.7003999C1.5039349246868896,11.7003999,3.4120649646868895,12.2996001,3.4120649646868895,12.2996001C3.4120649646868895,12.2996001,3.4120649646868895,12.2996001,3.4120649646868895,12.2996001ZM11.999999744686889,6C16.028699944686892,6,19.44110094468689,8.64744,20.58789994468689,12.2996001C20.58789994468689,12.2996001,22.49609894468689,11.7003999,22.49609894468689,11.7003999C21.09489994468689,7.23856,16.92729994468689,4,11.999999744686889,4C11.999999744686889,4,11.999999744686889,6,11.999999744686889,6C11.999999744686889,6,11.999999744686889,6,11.999999744686889,6ZM20.58789994468689,11.7003999C19.44110094468689,15.3526,16.028699944686892,18,11.999999744686889,18C11.999999744686889,18,11.999999744686889,20,11.999999744686889,20C16.92729994468689,20,21.09489994468689,16.761400000000002,22.49609894468689,12.2996001C22.49609894468689,12.2996001,20.58789994468689,11.7003999,20.58789994468689,11.7003999C20.58789994468689,11.7003999,20.58789994468689,11.7003999,20.58789994468689,11.7003999ZM11.999999744686889,18C7.9722297446868895,18,4.55891994468689,15.3525,3.4120649646868895,11.7003999C3.4120649646868895,11.7003999,1.5039349246868896,12.2996001,1.5039349246868896,12.2996001C2.9050819546868896,16.761499999999998,7.07376984468689,20,11.999999744686889,20C11.999999744686889,20,11.999999744686889,18,11.999999744686889,18C11.999999744686889,18,11.999999744686889,18,11.999999744686889,18Z" fill="#0A0A28" fill-opacity="1"/></g></svg>