<svg xmlns="http://www.w3.org/2000/svg" xmlns:xlink="http://www.w3.org/1999/xlink" fill="none" version="1.1" width="24" height="24" viewBox="0 0 24 24"><defs><clipPath id="master_svg0_3_1804"><rect x="0" y="0" width="24" height="24" rx="0"/></clipPath></defs><g clip-path="url(#master_svg0_3_1804)"><path d="M14.060800017166137,19.8076C14.603500017166137,19.705,14.960200017166137,19.1819,14.857600017166138,18.639200000000002C14.755000017166138,18.0965,14.231900017166138,17.739800000000002,13.689200017166138,17.842399999999998C13.689200017166138,17.842399999999998,14.060800017166137,19.8076,14.060800017166137,19.8076C14.060800017166137,19.8076,14.060800017166137,19.8076,14.060800017166137,19.8076ZM12.000000217166138,19C12.000000217166138,19,12.000760317166138,18,12.000760317166138,18C12.000760317166138,18,12.000000217166138,18,12.000000217166138,18C12.000000217166138,18,12.000000217166138,19,12.000000217166138,19C12.000000217166138,19,12.000000217166138,19,12.000000217166138,19ZM2.4570000171661377,12C2.4570000171661377,12,1.5030310171661379,11.7000904,1.5030310171661379,11.7000904C1.4416700171661376,11.8952904,1.4416600171661378,12.1046104,1.5030019871661375,12.2998104C1.5030019871661375,12.2998104,2.4570000171661377,12,2.4570000171661377,12C2.4570000171661377,12,2.4570000171661377,12,2.4570000171661377,12ZM4.817199917166137,9.5747199C5.150620017166138,9.1344399,5.064000117166138,8.507229800000001,4.623719917166138,8.1738C4.183440017166138,7.8403802,3.5562301171661375,7.927,3.222801027166138,8.367280000000001C3.222801027166138,8.367280000000001,4.817199917166137,9.5747199,4.817199917166137,9.5747199C4.817199917166137,9.5747199,4.817199917166137,9.5747199,4.817199917166137,9.5747199ZM9.878000017166137,9.8790002C9.878000017166137,9.8790002,9.170890117166138,9.171889799999999,9.170890117166138,9.171889799999999C8.780370017166138,9.5624199,8.780370017166138,10.19558,9.170890117166138,10.586110099999999C9.170890117166138,10.586110099999999,9.878000017166137,9.8790002,9.878000017166137,9.8790002C9.878000017166137,9.8790002,9.878000017166137,9.8790002,9.878000017166137,9.8790002ZM14.999800017166137,12.0004997C14.999800017166137,12.0004997,15.999800017166137,12.0004997,15.999800017166137,12.0004997C15.999800017166137,12.0004997,14.999800017166137,12.0004997,14.999800017166137,12.0004997C14.999800017166137,12.0004997,14.999800017166137,12.0004997,14.999800017166137,12.0004997ZM14.121000017166137,14.122C14.121000017166137,14.122,13.413900017166137,14.8291,13.413900017166137,14.8291C13.413900017166137,14.8291,13.414000017166138,14.8292,13.414000017166138,14.8292C13.414000017166138,14.8292,14.121000017166137,14.122,14.121000017166137,14.122C14.121000017166137,14.122,14.121000017166137,14.122,14.121000017166137,14.122ZM13.413000017166137,14.8272C13.803500017166138,15.2177,14.436700017166137,15.2176,14.827200017166138,14.827C15.217700017166138,14.4365,15.217600017166138,13.8033,14.827000017166137,13.4128C14.827000017166137,13.4128,13.413000017166137,14.8272,13.413000017166137,14.8272C13.413000017166137,14.8272,13.413000017166137,14.8272,13.413000017166137,14.8272ZM9.172889917166138,10.58711C9.563420017166138,10.977630099999999,10.196580217166137,10.977630099999999,10.587109817166137,10.58711C10.977629917166137,10.1965799,10.977629917166137,9.5634198,10.587109817166137,9.172890200000001C10.587109817166137,9.172890200000001,9.172889917166138,10.58711,9.172889917166138,10.58711C9.172889917166138,10.58711,9.172889917166138,10.58711,9.172889917166138,10.58711ZM16.705000017166135,18.1192C17.095600017166138,18.509700000000002,17.728800017166137,18.5096,18.119200017166136,18.119C18.50970001716614,17.7284,18.509601017166137,17.0953,18.119000017166137,16.7048C18.119000017166137,16.7048,16.705000017166135,18.1192,16.705000017166135,18.1192C16.705000017166135,18.1192,16.705000017166135,18.1192,16.705000017166135,18.1192ZM3.707110017166138,2.29289299C3.3165820271661377,1.90237,2.6834170271661377,1.90237,2.2928930271661376,2.29289299C1.9023690271661375,2.68341801,1.9023690271661375,3.31658301,2.2928930271661376,3.70710701C2.2928930271661376,3.70710701,3.707110017166138,2.29289299,3.707110017166138,2.29289299C3.707110017166138,2.29289299,3.707110017166138,2.29289299,3.707110017166138,2.29289299ZM12.000000217166138,5C12.000000217166138,5,11.998649817166138,6,11.998649817166138,6C11.998649817166138,6,12.000000217166138,6,12.000000217166138,6C12.000000217166138,6,12.000000217166138,5,12.000000217166138,5C12.000000217166138,5,12.000000217166138,5,12.000000217166138,5ZM21.543000017166136,12C21.543000017166136,12,22.496600017166138,12.3009701,22.496600017166138,12.3009701C22.55829901716614,12.1054802,22.55850001716614,11.89575,22.497001017166138,11.7001896C22.497001017166138,11.7001896,21.543000017166136,12,21.543000017166136,12C21.543000017166136,12,21.543000017166136,12,21.543000017166136,12ZM20.29289901716614,21.7071C20.68340001716614,22.097601,21.316600017166138,22.097601,21.707099017166136,21.7071C22.097600017166137,21.316601,22.097600017166137,20.683399,21.707099017166136,20.2929C21.707099017166136,20.2929,20.29289901716614,21.7071,20.29289901716614,21.7071C20.29289901716614,21.7071,20.29289901716614,21.7071,20.29289901716614,21.7071ZM13.689200017166138,17.842399999999998C13.132600017166137,17.947699999999998,12.567300017166138,18.0004,12.000760317166138,18C12.000760317166138,18,11.999240117166138,20,11.999240117166138,20C12.690900017166138,20.0005,13.381200017166138,19.9361,14.060800017166137,19.8076C14.060800017166137,19.8076,13.689200017166138,17.842399999999998,13.689200017166138,17.842399999999998C13.689200017166138,17.842399999999998,13.689200017166138,17.842399999999998,13.689200017166138,17.842399999999998ZM12.000000217166138,18C7.971329917166138,18,4.558840017166138,15.3526,3.410998047166138,11.7001896C3.410998047166138,11.7001896,1.5030019871661375,12.2998104,1.5030019871661375,12.2998104C2.9051590271661376,16.761400000000002,7.072670217166138,20,12.000000217166138,20C12.000000217166138,20,12.000000217166138,18,12.000000217166138,18C12.000000217166138,18,12.000000217166138,18,12.000000217166138,18ZM3.4109690171661375,12.2999096C3.7198100171661377,11.3175201,4.195500017166138,10.3956599,4.817199917166137,9.5747199C4.817199917166137,9.5747199,3.222801027166138,8.367280000000001,3.222801027166138,8.367280000000001C2.462486047266138,9.3712702,1.8807300371661377,10.4986801,1.5030310171661379,11.7000904C1.5030310171661379,11.7000904,3.4109690171661375,12.2999096,3.4109690171661375,12.2999096C3.4109690171661375,12.2999096,3.4109690171661375,12.2999096,3.4109690171661375,12.2999096ZM10.585109917166138,10.586110099999999C10.960230117166137,10.210989999999999,11.469000117166138,10.0002499,11.999499517166138,10.0002499C11.999499517166138,10.0002499,11.999499517166138,8.0002499,11.999499517166138,8.0002499C10.938570217166138,8.0002499,9.921089917166139,8.421700000000001,9.170890117166138,9.171889799999999C9.170890117166138,9.171889799999999,10.585109917166138,10.586110099999999,10.585109917166138,10.586110099999999C10.585109917166138,10.586110099999999,10.585109917166138,10.586110099999999,10.585109917166138,10.586110099999999ZM11.999499517166138,10.0002499C12.530000017166138,10.0002499,13.038800017166137,10.210989999999999,13.413900017166137,10.586110099999999C13.413900017166137,10.586110099999999,14.828100017166138,9.171889799999999,14.828100017166138,9.171889799999999C14.077900017166138,8.421700000000001,13.060400017166138,8.0002499,11.999499517166138,8.0002499C11.999499517166138,8.0002499,11.999499517166138,10.0002499,11.999499517166138,10.0002499C11.999499517166138,10.0002499,11.999499517166138,10.0002499,11.999499517166138,10.0002499ZM13.413900017166137,10.586110099999999C13.789000017166138,10.9612298,13.999800017166137,11.4700003,13.999800017166137,12.0004997C13.999800017166137,12.0004997,15.999800017166137,12.0004997,15.999800017166137,12.0004997C15.999800017166137,10.93957,15.578300017166137,9.9220901,14.828100017166138,9.171889799999999C14.828100017166138,9.171889799999999,13.413900017166137,10.586110099999999,13.413900017166137,10.586110099999999C13.413900017166137,10.586110099999999,13.413900017166137,10.586110099999999,13.413900017166137,10.586110099999999ZM13.999800017166137,12.0004997C13.999800017166137,12.5310001,13.789000017166138,13.0398,13.413900017166137,13.4149C13.413900017166137,13.4149,14.828100017166138,14.8291,14.828100017166138,14.8291C15.578300017166137,14.0789,15.999800017166137,13.0614,15.999800017166137,12.0004997C15.999800017166137,12.0004997,13.999800017166137,12.0004997,13.999800017166137,12.0004997C13.999800017166137,12.0004997,13.999800017166137,12.0004997,13.999800017166137,12.0004997ZM14.828100017166138,13.4149C14.828100017166138,13.4149,10.585109917166138,9.171889799999999,10.585109917166138,9.171889799999999C10.585109917166138,9.171889799999999,9.170890117166138,10.586110099999999,9.170890117166138,10.586110099999999C9.170890117166138,10.586110099999999,13.413900017166137,14.8291,13.413900017166137,14.8291C13.413900017166137,14.8291,14.828100017166138,13.4149,14.828100017166138,13.4149C14.828100017166138,13.4149,14.828100017166138,13.4149,14.828100017166138,13.4149ZM9.170980217166138,10.5861902C9.170980217166138,10.5861902,13.413000017166137,14.8272,13.413000017166137,14.8272C13.413000017166137,14.8272,14.827000017166137,13.4128,14.827000017166137,13.4128C14.827000017166137,13.4128,10.585020317166137,9.1718102,10.585020317166137,9.1718102C10.585020317166137,9.1718102,9.170980217166138,10.5861902,9.170980217166138,10.5861902C9.170980217166138,10.5861902,9.170980217166138,10.5861902,9.170980217166138,10.5861902ZM10.587109817166137,9.172890200000001C10.587109817166137,9.172890200000001,7.297109817166137,5.88289,7.297109817166137,5.88289C7.297109817166137,5.88289,5.882890017166138,7.2971101,5.882890017166138,7.2971101C5.882890017166138,7.2971101,9.172889917166138,10.58711,9.172889917166138,10.58711C9.172889917166138,10.58711,10.587109817166137,9.172890200000001,10.587109817166137,9.172890200000001C10.587109817166137,9.172890200000001,10.587109817166137,9.172890200000001,10.587109817166137,9.172890200000001ZM13.414000017166138,14.8292C13.414000017166138,14.8292,16.705000017166135,18.1192,16.705000017166135,18.1192C16.705000017166135,18.1192,18.119000017166137,16.7048,18.119000017166137,16.7048C18.119000017166137,16.7048,14.828000017166138,13.4148,14.828000017166138,13.4148C14.828000017166138,13.4148,13.414000017166138,14.8292,13.414000017166138,14.8292C13.414000017166138,14.8292,13.414000017166138,14.8292,13.414000017166138,14.8292ZM2.2928930271661376,3.70710701C2.2928930271661376,3.70710701,5.882890017166138,7.2971101,5.882890017166138,7.2971101C5.882890017166138,7.2971101,7.297109817166137,5.88289,7.297109817166137,5.88289C7.297109817166137,5.88289,3.707110017166138,2.29289299,3.707110017166138,2.29289299C3.707110017166138,2.29289299,2.2928930271661376,3.70710701,2.2928930271661376,3.70710701C2.2928930271661376,3.70710701,2.2928930271661376,3.70710701,2.2928930271661376,3.70710701ZM7.132200017166138,7.4302502C8.582559817166139,6.49435,10.272539817166138,5.9976599,11.998649817166138,6C11.998649817166138,6,12.001349717166137,4,12.001349717166137,4C9.889650117166138,3.99714398,7.822150017166138,4.60478,6.0478000171661375,5.749749899999999C6.0478000171661375,5.749749899999999,7.132200017166138,7.4302502,7.132200017166138,7.4302502C7.132200017166138,7.4302502,7.132200017166138,7.4302502,7.132200017166138,7.4302502ZM12.000000217166138,6C16.028700017166138,6,19.44120001716614,8.6474199,20.58900001716614,12.2998104C20.58900001716614,12.2998104,22.497001017166138,11.7001896,22.497001017166138,11.7001896C21.094800017166136,7.2385802,16.92730001716614,4,12.000000217166138,4C12.000000217166138,4,12.000000217166138,6,12.000000217166138,6C12.000000217166138,6,12.000000217166138,6,12.000000217166138,6ZM20.58940101716614,11.6990299C19.955600017166137,13.707,18.639800017166138,15.4302,16.86950001716614,16.5703C16.86950001716614,16.5703,17.952500017166138,18.2517,17.952500017166138,18.2517C20.115001017166136,16.859,21.722499017166136,14.7539,22.496600017166138,12.3009701C22.496600017166138,12.3009701,20.58940101716614,11.6990299,20.58940101716614,11.6990299C20.58940101716614,11.6990299,20.58940101716614,11.6990299,20.58940101716614,11.6990299ZM18.118100017166135,16.7039C18.118100017166135,16.7039,7.297109817166137,5.88289,7.297109817166137,5.88289C7.297109817166137,5.88289,5.882890017166138,7.2971101,5.882890017166138,7.2971101C5.882890017166138,7.2971101,16.703900017166138,18.1181,16.703900017166138,18.1181C16.703900017166138,18.1181,18.118100017166135,16.7039,18.118100017166135,16.7039C18.118100017166135,16.7039,18.118100017166135,16.7039,18.118100017166135,16.7039ZM16.703900017166138,18.1181C16.703900017166138,18.1181,20.29289901716614,21.7071,20.29289901716614,21.7071C20.29289901716614,21.7071,21.707099017166136,20.2929,21.707099017166136,20.2929C21.707099017166136,20.2929,18.118100017166135,16.7039,18.118100017166135,16.7039C18.118100017166135,16.7039,16.703900017166138,18.1181,16.703900017166138,18.1181C16.703900017166138,18.1181,16.703900017166138,18.1181,16.703900017166138,18.1181Z" fill="#0A0A28" fill-opacity="1"/></g></svg>