<svg xmlns="http://www.w3.org/2000/svg" xmlns:xlink="http://www.w3.org/1999/xlink" fill="none" version="1.1" width="24" height="24" viewBox="0 0 24 24"><defs><clipPath id="master_svg0_3_2279"><rect x="0" y="0" width="24" height="24" rx="0"/></clipPath></defs><g clip-path="url(#master_svg0_3_2279)"><path d="M11.9999756859375,14.3999757859375C12.6364917859375,14.3999757859375,13.2469436859375,14.147123785937499,13.697027685937499,13.697027685937499C14.147123785937499,13.2469436859375,14.3999757859375,12.6364917859375,14.3999757859375,11.9999756859375C14.3999757859375,11.3634596859375,14.147123785937499,10.7530076859375,13.697027685937499,10.3029199859375C13.2469436859375,9.8528324059375,12.6364917859375,9.599975585937502,11.9999756859375,9.5999755859375C11.3634596859375,9.599975585937502,10.7530076859375,9.8528324059375,10.3029199859375,10.3029199859375C9.8528324059375,10.7530076859375,9.599975585937502,11.3634596859375,9.5999755859375,11.9999756859375C9.599975585937502,12.6364917859375,9.8528324059375,13.2469436859375,10.3029199859375,13.697027685937499C10.7530076859375,14.147123785937499,11.3634596859375,14.3999757859375,11.9999756859375,14.3999757859375C11.9999756859375,14.3999757859375,11.9999756859375,14.3999757859375,11.9999756859375,14.3999757859375Z" fill="#0A0A28" fill-opacity="1"/><path d="M0.54962158203125,11.9999761859375C2.0784216820312498,7.1315757859375,6.62642188203125,3.5999755859375,12.00002158203125,3.5999755859375C17.37362258203125,3.5999755859375,21.92162158203125,7.1315757859375,23.45042258203125,11.9999761859375C21.92162158203125,16.8683765859375,17.37362258203125,20.3999765859375,12.00002158203125,20.3999765859375C6.62642188203125,20.3999765859375,2.0784216820312498,16.8683765859375,0.54962158203125,11.9999761859375C0.54962158203125,11.9999761859375,0.54962158203125,11.9999761859375,0.54962158203125,11.9999761859375ZM16.80002258203125,11.9999761859375C16.80002258203125,13.2730197859375,16.29434158203125,14.4939125859375,15.39410258203125,15.3940925859375C14.49398258203125,16.294296585937502,13.27310158203125,16.7999765859375,12.00002158203125,16.7999765859375C10.72697758203125,16.7999765859375,9.50608538203125,16.294296585937502,8.60590648203125,15.3940925859375C7.70573758203125,14.4939125859375,7.20002178203125,13.2730197859375,7.20002178203125,11.9999761859375C7.20002178203125,10.7269315859375,7.70573758203125,9.5060395859375,8.60590648203125,8.6058597859375C9.50608538203125,7.7056917859375,10.72697758203125,7.1999756859375,12.00002158203125,7.1999756859375C13.27310158203125,7.1999756859375,14.49398258203125,7.7056917859375,15.39410258203125,8.6058597859375C16.29434158203125,9.5060395859375,16.80002258203125,10.7269315859375,16.80002258203125,11.9999761859375C16.80002258203125,11.9999761859375,16.80002258203125,11.9999761859375,16.80002258203125,11.9999761859375C16.80002258203125,11.9999761859375,16.80002258203125,11.9999761859375,16.80002258203125,11.9999761859375Z" fill-rule="evenodd" fill="#0A0A28" fill-opacity="1"/></g></svg>