<svg xmlns="http://www.w3.org/2000/svg" xmlns:xlink="http://www.w3.org/1999/xlink" fill="none" version="1.1" width="24" height="24" viewBox="0 0 24 24"><defs><clipPath id="master_svg0_3_1676"><rect x="0" y="0" width="24" height="24" rx="0"/></clipPath></defs><g clip-path="url(#master_svg0_3_1676)"><path d="M5.4659756859375,6.2016579396875C5.2852556859375,6.0810833726875,5.0751955859375,6.0118316696875,4.8581995859375,6.0012913496875C4.6412000859375,5.9907510289875,4.4254136659375,6.0393171306875,4.2338576359375,6.1418091396875C4.0423015959375,6.2442999296875,3.8821628059375,6.3968727296875,3.7705267859375,6.5832471296875C3.6588895879375,6.7696216096875,3.5999430854935,6.9828063796875,3.59997559938086,7.2000580296875C3.59997559938086,7.2000580296875,3.59997559938086,16.800057929687497,3.59997559938086,16.800057929687497C3.5999430854935,17.017304929687498,3.6588895879375,17.2304969296875,3.7705267859375,17.4168699296875C3.8821628059375,17.6032419296875,4.0423015959375,17.7558099296875,4.2338576359375,17.8583019296875C4.4254136659375,17.960794929687502,4.6412000859375,18.0093579296875,4.8581995859375,17.9988219296875C5.0751955859375,17.9882869296875,5.2852556859375,17.9190339296875,5.4659756859375,17.7984589296875C5.4659756859375,17.7984589296875,11.9999761859375,13.4424581296875,11.9999761859375,13.4424581296875C11.9999761859375,13.4424581296875,11.9999761859375,16.800057929687497,11.9999761859375,16.800057929687497C11.9999398859375,17.017304929687498,12.0588836859375,17.2304969296875,12.1705321859375,17.4168699296875C12.2821673859375,17.6032419296875,12.4422959859375,17.7558099296875,12.6338519859375,17.8583019296875C12.8254079859375,17.960794929687502,13.0412044859375,18.0093579296875,13.2581996859375,17.9988219296875C13.4751958859375,17.9882869296875,13.6852555859375,17.9190339296875,13.8659765859375,17.7984589296875C13.8659765859375,17.7984589296875,21.0659775859375,12.9984584296875,21.0659775859375,12.9984584296875C21.2303775859375,12.8888740296875,21.3651375859375,12.7404098296875,21.4582555859375,12.5662422296875C21.5514965859375,12.3920741296875,21.6002155859375,12.1975903296875,21.6002155859375,12.0000586296875C21.6002155859375,11.802526029687499,21.5514965859375,11.6080422296875,21.4582555859375,11.4338741296875C21.3651375859375,11.259706529687499,21.2303775859375,11.1112423296875,21.0659775859375,11.0016579296875C21.0659775859375,11.0016579296875,13.8659765859375,6.2016579396875,13.8659765859375,6.2016579396875C13.6852555859375,6.0810833726875,13.4751958859375,6.0118316696875,13.2581996859375,6.0012913496875C13.0412044859375,5.9907510289875,12.8254079859375,6.0393171306875,12.6338519859375,6.1418091396875C12.4422959859375,6.2442999296875,12.2821673859375,6.3968727296875,12.1705321859375,6.5832471296875C12.0588836859375,6.7696216096875,11.9999398859375,6.9828063796875,11.9999761859375,7.2000580296875C11.9999761859375,7.2000580296875,11.9999761859375,10.557658229687501,11.9999761859375,10.557658229687501C11.9999761859375,10.557658229687501,5.4659756859375,6.2016579396875,5.4659756859375,6.2016579396875C5.4659756859375,6.2016579396875,5.4659756859375,6.2016579396875,5.4659756859375,6.2016579396875Z" fill="#0A0A28" fill-opacity="1"/></g></svg>