<svg xmlns="http://www.w3.org/2000/svg" xmlns:xlink="http://www.w3.org/1999/xlink" fill="none" version="1.1" width="24" height="24" viewBox="0 0 24 24"><defs><clipPath id="master_svg0_3_2074"><rect x="0" y="0" width="24" height="24" rx="0"/></clipPath></defs><g clip-path="url(#master_svg0_3_2074)"><path d="M11.933000100000001,12.799999723162841C11.933000100000001,12.799999723162841,11.3330002,11.999999523162842,11.3330002,11.999999523162842C11.3330002,11.999999523162842,11.3329802,12.000019523162841,11.3329802,12.000019523162841C11.3329802,12.000019523162841,11.933000100000001,12.799999723162841,11.933000100000001,12.799999723162841C11.933000100000001,12.799999723162841,11.933000100000001,12.799999723162841,11.933000100000001,12.799999723162841ZM11.933000100000001,11.199999323162842C11.933000100000001,11.199999323162842,11.3329802,11.999979523162843,11.3329802,11.999979523162843C11.3329802,11.999979523162843,11.3330002,11.999999523162842,11.3330002,11.999999523162842C11.3330002,11.999999523162842,11.933000100000001,11.199999323162842,11.933000100000001,11.199999323162842C11.933000100000001,11.199999323162842,11.933000100000001,11.199999323162842,11.933000100000001,11.199999323162842ZM6.6,7.199999523162842C6.6,7.199999523162842,7.2000201,6.400017503162842,7.2000201,6.400017503162842C7.2000201,6.400017503162842,7.2,6.399999503162842,7.2,6.399999503162842C7.2,6.399999503162842,6.6,7.199999523162842,6.6,7.199999523162842C6.6,7.199999523162842,6.6,7.199999523162842,6.6,7.199999523162842ZM6.6,16.79999972316284C6.6,16.79999972316284,7.2,17.599999523162843,7.2,17.599999523162843C7.2,17.599999523162843,7.2000201,17.599999523162843,7.2000201,17.599999523162843C7.2000201,17.599999523162843,6.6,16.79999972316284,6.6,16.79999972316284C6.6,16.79999972316284,6.6,16.79999972316284,6.6,16.79999972316284ZM19.933,12.799999723162841C19.933,12.799999723162841,19.333,11.999999523162842,19.333,11.999999523162842C19.333,11.999999523162842,19.333,12.000019523162841,19.333,12.000019523162841C19.333,12.000019523162841,19.933,12.799999723162841,19.933,12.799999723162841C19.933,12.799999723162841,19.933,12.799999723162841,19.933,12.799999723162841ZM19.933,11.199999323162842C19.933,11.199999323162842,19.333,11.999979523162843,19.333,11.999979523162843C19.333,11.999979523162843,19.333,11.999999523162842,19.333,11.999999523162842C19.333,11.999999523162842,19.933,11.199999323162842,19.933,11.199999323162842C19.933,11.199999323162842,19.933,11.199999323162842,19.933,11.199999323162842ZM14.6000004,7.199999523162842C14.6000004,7.199999523162842,15.2,6.400017503162842,15.2,6.400017503162842C15.2,6.400017503162842,15.2,6.399999503162842,15.2,6.399999503162842C15.2,6.399999503162842,14.6000004,7.199999523162842,14.6000004,7.199999523162842C14.6000004,7.199999523162842,14.6000004,7.199999523162842,14.6000004,7.199999523162842ZM14.6000004,16.79999972316284C14.6000004,16.79999972316284,15.2,17.599999523162843,15.2,17.599999523162843C15.2,17.599999523162843,15.2,17.599999523162843,15.2,17.599999523162843C15.2,17.599999523162843,14.6000004,16.79999972316284,14.6000004,16.79999972316284C14.6000004,16.79999972316284,14.6000004,16.79999972316284,14.6000004,16.79999972316284ZM12.533000000000001,13.599999423162842C12.7813902,13.413709623162841,12.9829998,13.172139623162842,13.12185,12.894429723162842C13.12185,12.894429723162842,11.3330002,11.999999523162842,11.3330002,11.999999523162842C11.3330002,11.999999523162842,11.3330002,11.999999523162842,11.3330002,11.999999523162842C11.3330002,11.999999523162842,12.533000000000001,13.599999423162842,12.533000000000001,13.599999423162842C12.533000000000001,13.599999423162842,12.533000000000001,13.599999423162842,12.533000000000001,13.599999423162842ZM13.12185,12.894429723162842C13.2607098,12.616719723162841,13.3330002,12.310489623162841,13.3330002,11.999999523162842C13.3330002,11.999999523162842,11.3330002,11.999999523162842,11.3330002,11.999999523162842C11.3330002,11.999999523162842,11.3330002,11.999999523162842,11.3330002,11.999999523162842C11.3330002,11.999999523162842,13.12185,12.894429723162842,13.12185,12.894429723162842C13.12185,12.894429723162842,13.12185,12.894429723162842,13.12185,12.894429723162842ZM13.3330002,11.999999523162842C13.3330002,11.689509423162843,13.2607098,11.383279323162842,13.12185,11.105569323162841C13.12185,11.105569323162841,11.3330002,11.999999523162842,11.3330002,11.999999523162842C11.3330002,11.999999523162842,11.3330002,11.999999523162842,11.3330002,11.999999523162842C11.3330002,11.999999523162842,13.3330002,11.999999523162842,13.3330002,11.999999523162842C13.3330002,11.999999523162842,13.3330002,11.999999523162842,13.3330002,11.999999523162842ZM13.12185,11.105569323162841C12.9829998,10.827859623162842,12.7813902,10.586289423162842,12.533000000000001,10.399999623162842C12.533000000000001,10.399999623162842,11.3330002,11.999999523162842,11.3330002,11.999999523162842C11.3330002,11.999999523162842,11.3330002,11.999999523162842,11.3330002,11.999999523162842C11.3330002,11.999999523162842,13.12185,11.105569323162841,13.12185,11.105569323162841C13.12185,11.105569323162841,13.12185,11.105569323162841,13.12185,11.105569323162841ZM12.53302,10.400019423162842C12.53302,10.400019423162842,7.2000201,6.400017503162842,7.2000201,6.400017503162842C7.2000201,6.400017503162842,5.99997598,7.999981523162842,5.99997598,7.999981523162842C5.99997598,7.999981523162842,11.3329802,11.999979523162843,11.3329802,11.999979523162843C11.3329802,11.999979523162843,12.53302,10.400019423162842,12.53302,10.400019423162842C12.53302,10.400019423162842,12.53302,10.400019423162842,12.53302,10.400019423162842ZM7.2,6.399999503162842C6.90286,6.177145543162842,6.54953,6.041437503162841,6.17961,6.008081493162842C6.17961,6.008081493162842,6,7.999999523162842,6,7.999999523162842C6,7.999999523162842,6,7.999999523162842,6,7.999999523162842C6,7.999999523162842,7.2,6.399999503162842,7.2,6.399999503162842C7.2,6.399999503162842,7.2,6.399999503162842,7.2,6.399999503162842ZM6.17961,6.008081493162842C5.80968899,5.974729523162842,5.437785,6.045039533162842,5.105573,6.211145523162842C5.105573,6.211145523162842,6,7.999999523162842,6,7.999999523162842C6,7.999999523162842,6,7.999999523162842,6,7.999999523162842C6,7.999999523162842,6.17961,6.008081493162842,6.17961,6.008081493162842C6.17961,6.008081493162842,6.17961,6.008081493162842,6.17961,6.008081493162842ZM5.105573,6.211145523162842C4.773361,6.377251503162842,4.493967,6.632586513162842,4.29869801,6.948537823162842C4.29869801,6.948537823162842,6,7.999999523162842,6,7.999999523162842C6,7.999999523162842,6,7.999999523162842,6,7.999999523162842C6,7.999999523162842,5.105573,6.211145523162842,5.105573,6.211145523162842C5.105573,6.211145523162842,5.105573,6.211145523162842,5.105573,6.211145523162842ZM4.29869801,6.948537823162842C4.10342902,7.264489533162842,4,7.628576513162842,4,7.999999523162842C4,7.999999523162842,6,7.999999523162842,6,7.999999523162842C6,7.999999523162842,6,7.999999523162842,6,7.999999523162842C6,7.999999523162842,4.29869801,6.948537823162842,4.29869801,6.948537823162842C4.29869801,6.948537823162842,4.29869801,6.948537823162842,4.29869801,6.948537823162842ZM4,7.999999523162842C4,7.999999523162842,4,15.999999523162842,4,15.999999523162842C4,15.999999523162842,6,15.999999523162842,6,15.999999523162842C6,15.999999523162842,6,7.999999523162842,6,7.999999523162842C6,7.999999523162842,4,7.999999523162842,4,7.999999523162842C4,7.999999523162842,4,7.999999523162842,4,7.999999523162842ZM4,15.999999523162842C4,16.37141942316284,4.10342902,16.735509423162842,4.29869801,17.051499523162843C4.29869801,17.051499523162843,6,15.999999523162842,6,15.999999523162842C6,15.999999523162842,6,15.999999523162842,6,15.999999523162842C6,15.999999523162842,4,15.999999523162842,4,15.999999523162842C4,15.999999523162842,4,15.999999523162842,4,15.999999523162842ZM4.29869801,17.051499523162843C4.49396998,17.36739952316284,4.77336501,17.62279952316284,5.105573,17.78889952316284C5.105573,17.78889952316284,6,15.999999523162842,6,15.999999523162842C6,15.999999523162842,6,15.999999523162842,6,15.999999523162842C6,15.999999523162842,4.29869801,17.051499523162843,4.29869801,17.051499523162843C4.29869801,17.051499523162843,4.29869801,17.051499523162843,4.29869801,17.051499523162843ZM5.105573,17.78889952316284C5.43777901,17.95499952316284,5.8096820099999995,18.025299523162843,6.17961,17.991899523162843C6.17961,17.991899523162843,6,15.999999523162842,6,15.999999523162842C6,15.999999523162842,6,15.999999523162842,6,15.999999523162842C6,15.999999523162842,5.105573,17.78889952316284,5.105573,17.78889952316284C5.105573,17.78889952316284,5.105573,17.78889952316284,5.105573,17.78889952316284ZM6.17961,17.991899523162843C6.54954,17.958599523162842,6.9028700999999995,17.822899523162842,7.2,17.599999523162843C7.2,17.599999523162843,6,15.999999523162842,6,15.999999523162842C6,15.999999523162842,6,15.999999523162842,6,15.999999523162842C6,15.999999523162842,6.17961,17.991899523162843,6.17961,17.991899523162843C6.17961,17.991899523162843,6.17961,17.991899523162843,6.17961,17.991899523162843ZM7.2000201,17.599999523162843C7.2000201,17.599999523162843,12.53302,13.599979423162843,12.53302,13.599979423162843C12.53302,13.599979423162843,11.3329802,12.000019523162841,11.3329802,12.000019523162841C11.3329802,12.000019523162841,5.99997598,16.00001952316284,5.99997598,16.00001952316284C5.99997598,16.00001952316284,7.2000201,17.599999523162843,7.2000201,17.599999523162843C7.2000201,17.599999523162843,7.2000201,17.599999523162843,7.2000201,17.599999523162843ZM20.533,13.599999423162842C20.781399999999998,13.413699623162842,20.983,13.172129623162842,21.121901,12.894429723162842C21.121901,12.894429723162842,19.333,11.999999523162842,19.333,11.999999523162842C19.333,11.999999523162842,19.333,11.999999523162842,19.333,11.999999523162842C19.333,11.999999523162842,20.533,13.599999423162842,20.533,13.599999423162842C20.533,13.599999423162842,20.533,13.599999423162842,20.533,13.599999423162842ZM21.121901,12.894429723162842C21.2607,12.616719723162841,21.333,12.310489623162841,21.333,11.999999523162842C21.333,11.999999523162842,19.333,11.999999523162842,19.333,11.999999523162842C19.333,11.999999523162842,19.333,11.999999523162842,19.333,11.999999523162842C19.333,11.999999523162842,21.121901,12.894429723162842,21.121901,12.894429723162842C21.121901,12.894429723162842,21.121901,12.894429723162842,21.121901,12.894429723162842ZM21.333,11.999999523162842C21.333,11.689509423162843,21.2607,11.383279323162842,21.121901,11.105569323162841C21.121901,11.105569323162841,19.333,11.999999523162842,19.333,11.999999523162842C19.333,11.999999523162842,19.333,11.999999523162842,19.333,11.999999523162842C19.333,11.999999523162842,21.333,11.999999523162842,21.333,11.999999523162842C21.333,11.999999523162842,21.333,11.999999523162842,21.333,11.999999523162842ZM21.121901,11.105569323162841C20.983,10.827869423162841,20.781399999999998,10.586299423162842,20.533,10.399999623162842C20.533,10.399999623162842,19.333,11.999999523162842,19.333,11.999999523162842C19.333,11.999999523162842,19.333,11.999999523162842,19.333,11.999999523162842C19.333,11.999999523162842,21.121901,11.105569323162841,21.121901,11.105569323162841C21.121901,11.105569323162841,21.121901,11.105569323162841,21.121901,11.105569323162841ZM20.533,10.400019423162842C20.533,10.400019423162842,15.2,6.400017503162842,15.2,6.400017503162842C15.2,6.400017503162842,13.99998,7.999981523162842,13.99998,7.999981523162842C13.99998,7.999981523162842,19.333,11.999979523162843,19.333,11.999979523162843C19.333,11.999979523162843,20.533,10.400019423162842,20.533,10.400019423162842C20.533,10.400019423162842,20.533,10.400019423162842,20.533,10.400019423162842ZM15.2,6.399999503162842C14.9028597,6.177144523162842,14.54953,6.041437503162841,14.1796103,6.008081493162842C14.1796103,6.008081493162842,14,7.999999523162842,14,7.999999523162842C14,7.999999523162842,14,7.999999523162842,14,7.999999523162842C14,7.999999523162842,15.2,6.399999503162842,15.2,6.399999503162842C15.2,6.399999503162842,15.2,6.399999503162842,15.2,6.399999503162842ZM14.1796103,6.008081493162842C13.8096905,5.974729523162842,13.4377899,6.045039533162842,13.1055698,6.211145523162842C13.1055698,6.211145523162842,14,7.999999523162842,14,7.999999523162842C14,7.999999523162842,14,7.999999523162842,14,7.999999523162842C14,7.999999523162842,14.1796103,6.008081493162842,14.1796103,6.008081493162842C14.1796103,6.008081493162842,14.1796103,6.008081493162842,14.1796103,6.008081493162842ZM13.1055698,6.211145523162842C12.7733598,6.377250553162842,12.4939699,6.632585523162842,12.298699899999999,6.948537823162842C12.298699899999999,6.948537823162842,14,7.999999523162842,14,7.999999523162842C14,7.999999523162842,14,7.999999523162842,14,7.999999523162842C14,7.999999523162842,13.1055698,6.211145523162842,13.1055698,6.211145523162842C13.1055698,6.211145523162842,13.1055698,6.211145523162842,13.1055698,6.211145523162842ZM12.298699899999999,6.948537823162842C12.1034298,7.264489533162842,12,7.628576513162842,12,7.999999523162842C12,7.999999523162842,14,7.999999523162842,14,7.999999523162842C14,7.999999523162842,14,7.999999523162842,14,7.999999523162842C14,7.999999523162842,12.298699899999999,6.948537823162842,12.298699899999999,6.948537823162842C12.298699899999999,6.948537823162842,12.298699899999999,6.948537823162842,12.298699899999999,6.948537823162842ZM12,7.999999523162842C12,7.999999523162842,12,15.999999523162842,12,15.999999523162842C12,15.999999523162842,14,15.999999523162842,14,15.999999523162842C14,15.999999523162842,14,7.999999523162842,14,7.999999523162842C14,7.999999523162842,12,7.999999523162842,12,7.999999523162842C12,7.999999523162842,12,7.999999523162842,12,7.999999523162842ZM12,15.999999523162842C12,16.37141942316284,12.1034298,16.735509423162842,12.298699899999999,17.051499523162843C12.298699899999999,17.051499523162843,14,15.999999523162842,14,15.999999523162842C14,15.999999523162842,14,15.999999523162842,14,15.999999523162842C14,15.999999523162842,12,15.999999523162842,12,15.999999523162842C12,15.999999523162842,12,15.999999523162842,12,15.999999523162842ZM12.298699899999999,17.051499523162843C12.4939699,17.36739952316284,12.773369800000001,17.62279952316284,13.1055698,17.78889952316284C13.1055698,17.78889952316284,14,15.999999523162842,14,15.999999523162842C14,15.999999523162842,14,15.999999523162842,14,15.999999523162842C14,15.999999523162842,12.298699899999999,17.051499523162843,12.298699899999999,17.051499523162843C12.298699899999999,17.051499523162843,12.298699899999999,17.051499523162843,12.298699899999999,17.051499523162843ZM13.1055698,17.78889952316284C13.4377804,17.95499952316284,13.80968,18.025299523162843,14.1796103,17.991899523162843C14.1796103,17.991899523162843,14,15.999999523162842,14,15.999999523162842C14,15.999999523162842,14,15.999999523162842,14,15.999999523162842C14,15.999999523162842,13.1055698,17.78889952316284,13.1055698,17.78889952316284C13.1055698,17.78889952316284,13.1055698,17.78889952316284,13.1055698,17.78889952316284ZM14.1796103,17.991899523162843C14.5495396,17.958599523162842,14.9028702,17.822899523162842,15.2,17.599999523162843C15.2,17.599999523162843,14,15.999999523162842,14,15.999999523162842C14,15.999999523162842,14,15.999999523162842,14,15.999999523162842C14,15.999999523162842,14.1796103,17.991899523162843,14.1796103,17.991899523162843C14.1796103,17.991899523162843,14.1796103,17.991899523162843,14.1796103,17.991899523162843ZM15.2,17.599999523162843C15.2,17.599999523162843,20.533,13.599979423162843,20.533,13.599979423162843C20.533,13.599979423162843,19.333,12.000019523162841,19.333,12.000019523162841C19.333,12.000019523162841,13.99998,16.00001952316284,13.99998,16.00001952316284C13.99998,16.00001952316284,15.2,17.599999523162843,15.2,17.599999523162843C15.2,17.599999523162843,15.2,17.599999523162843,15.2,17.599999523162843Z" fill="#0A0A28" fill-opacity="1"/></g></svg>