<svg xmlns="http://www.w3.org/2000/svg" xmlns:xlink="http://www.w3.org/1999/xlink" fill="none" version="1.1" width="24" height="24" viewBox="0 0 24 24"><defs><clipPath id="master_svg0_3_1884"><rect x="0" y="0" width="24" height="24" rx="0"/></clipPath></defs><g clip-path="url(#master_svg0_3_1884)"><path d="M8,4C8,3.4477149799999998,7.5522799,3,7,3C6.4477201,3,6,3.4477149799999998,6,4C6,4,8,4,8,4C8,4,8,4,8,4ZM6,20C6,20.552299,6.4477201,21,7,21C7.5522799,21,8,20.552299,8,20C8,20,6,20,6,20C6,20,6,20,6,20ZM18,4C18,3.4477149799999998,17.552300000000002,3,17,3C16.447699999999998,3,16,3.4477149799999998,16,4C16,4,18,4,18,4C18,4,18,4,18,4ZM16,20C16,20.552299,16.447699999999998,21,17,21C17.552300000000002,21,18,20.552299,18,20C18,20,16,20,16,20C16,20,16,20,16,20ZM3,7C2.4477149799999998,7,2,7.4477201,2,8C2,8.5522799,2.4477149799999998,9,3,9C3,9,3,7,3,7C3,7,3,7,3,7ZM7,9C7.5522799,9,8,8.5522799,8,8C8,7.4477201,7.5522799,7,7,7C7,7,7,9,7,9C7,9,7,9,7,9ZM17,7C16.447699999999998,7,16,7.4477201,16,8C16,8.5522799,16.447699999999998,9,17,9C17,9,17,7,17,7C17,7,17,7,17,7ZM21,9C21.552299,9,22,8.5522799,22,8C22,7.4477201,21.552299,7,21,7C21,7,21,9,21,9C21,9,21,9,21,9ZM3,11C2.4477149799999998,11,2,11.4477201,2,12C2,12.55229,2.4477149799999998,13,3,13C3,13,3,11,3,11C3,11,3,11,3,11ZM21,13C21.552299,13,22,12.55229,22,12C22,11.4477201,21.552299,11,21,11C21,11,21,13,21,13C21,13,21,13,21,13ZM3,15C2.4477149799999998,15,2,15.4477,2,16C2,16.552300000000002,2.4477149799999998,17,3,17C3,17,3,15,3,15C3,15,3,15,3,15ZM7,17C7.5522799,17,8,16.552300000000002,8,16C8,15.4477,7.5522799,15,7,15C7,15,7,17,7,17C7,17,7,17,7,17ZM17,15C16.447699999999998,15,16,15.4477,16,16C16,16.552300000000002,16.447699999999998,17,17,17C17,17,17,15,17,15C17,15,17,15,17,15ZM21,17C21.552299,17,22,16.552300000000002,22,16C22,15.4477,21.552299,15,21,15C21,15,21,17,21,17C21,17,21,17,21,17ZM20,4C20,4,20,3,20,3C20,3,20,4,20,4C20,4,20,4,20,4ZM3,5C3,5,2,5,2,5C2,5,3,5,3,5C3,5,3,5,3,5ZM3,19C3,19,2,19,2,19C2,19,3,19,3,19C3,19,3,19,3,19ZM6,4C6,4,6,20,6,20C6,20,8,20,8,20C8,20,8,4,8,4C8,4,6,4,6,4C6,4,6,4,6,4ZM16,4C16,4,16,20,16,20C16,20,18,20,18,20C18,20,18,4,18,4C18,4,16,4,16,4C16,4,16,4,16,4ZM3,9C3,9,7,9,7,9C7,9,7,7,7,7C7,7,3,7,3,7C3,7,3,9,3,9C3,9,3,9,3,9ZM17,9C17,9,21,9,21,9C21,9,21,7,21,7C21,7,17,7,17,7C17,7,17,9,17,9C17,9,17,9,17,9ZM3,13C3,13,21,13,21,13C21,13,21,11,21,11C21,11,3,11,3,11C3,11,3,13,3,13C3,13,3,13,3,13ZM3,17C3,17,7,17,7,17C7,17,7,15,7,15C7,15,3,15,3,15C3,15,3,17,3,17C3,17,3,17,3,17ZM17,17C17,17,21,17,21,17C21,17,21,15,21,15C21,15,17,15,17,15C17,15,17,17,17,17C17,17,17,17,17,17ZM4,21C4,21,20,21,20,21C20,21,20,19,20,19C20,19,4,19,4,19C4,19,4,21,4,21C4,21,4,21,4,21ZM20,21C20.530399,21,21.039101,20.789301,21.4142,20.4142C21.4142,20.4142,20,19,20,19C20,19,20,19,20,19C20,19,20,21,20,21C20,21,20,21,20,21ZM21.4142,20.4142C21.789301,20.039101,22,19.5304,22,19C22,19,20,19,20,19C20,19,20,19,20,19C20,19,21.4142,20.4142,21.4142,20.4142C21.4142,20.4142,21.4142,20.4142,21.4142,20.4142ZM22,19C22,19,22,5,22,5C22,5,20,5,20,5C20,5,20,19,20,19C20,19,22,19,22,19C22,19,22,19,22,19ZM22,5C22,4.469569,21.789301,3.960860599,21.4142,3.585787C21.4142,3.585787,20,5,20,5C20,5,20,5,20,5C20,5,22,5,22,5C22,5,22,5,22,5ZM21.4142,3.585787C21.039101,3.21071398,20.530399,3,20,3C20,3,20,5,20,5C20,5,20,5,20,5C20,5,21.4142,3.585787,21.4142,3.585787C21.4142,3.585787,21.4142,3.585787,21.4142,3.585787ZM20,3C20,3,4,3,4,3C4,3,4,5,4,5C4,5,20,5,20,5C20,5,20,3,20,3C20,3,20,3,20,3ZM4,3C3.469567,3,2.9608588,3.21071398,2.58578601,3.585787C2.58578601,3.585787,4,5,4,5C4,5,4,5,4,5C4,5,4,3,4,3C4,3,4,3,4,3ZM2.58578601,3.585787C2.21071398,3.960859299,2,4.469567,2,5C2,5,4,5,4,5C4,5,4,5,4,5C4,5,2.58578601,3.585787,2.58578601,3.585787C2.58578601,3.585787,2.58578601,3.585787,2.58578601,3.585787ZM2,5C2,5,2,19,2,19C2,19,4,19,4,19C4,19,4,5,4,5C4,5,2,5,2,5C2,5,2,5,2,5ZM2,19C2,19.5304,2.21071303,20.039101,2.58578601,20.4142C2.58578601,20.4142,4,19,4,19C4,19,4,19,4,19C4,19,2,19,2,19C2,19,2,19,2,19ZM2.58578601,20.4142C2.960860599,20.789301,3.469569,21,4,21C4,21,4,19,4,19C4,19,4,19,4,19C4,19,2.58578601,20.4142,2.58578601,20.4142C2.58578601,20.4142,2.58578601,20.4142,2.58578601,20.4142Z" fill="#0A0A28" fill-opacity="1"/></g></svg>