<svg xmlns="http://www.w3.org/2000/svg" xmlns:xlink="http://www.w3.org/1999/xlink" fill="none" version="1.1" width="24" height="24" viewBox="0 0 24 24"><defs><clipPath id="master_svg0_3_1682"><rect x="0" y="0" width="24" height="24" rx="0"/></clipPath></defs><g clip-path="url(#master_svg0_3_1682)"><path d="M4.799993996484375,3.5999755859375C4.163477996484375,3.5999755859375004,3.553024796484375,3.8528324059375,3.102937106484375,4.3029187959375C2.652850716484375,4.7530064859375,2.3999938964843754,5.3634596859375,2.399993896484375,5.9999756859375C2.399993896484375,5.9999756859375,2.399993896484375,17.9999765859375,2.399993896484375,17.9999765859375C2.3999938964843754,18.636456585937502,2.652850716484375,19.2468955859375,3.102937106484375,19.6970155859375C3.553024796484375,20.1471365859375,4.163477996484375,20.3999765859375,4.799993996484375,20.3999765859375C4.799993996484375,20.3999765859375,19.199994896484377,20.3999765859375,19.199994896484377,20.3999765859375C19.836474896484376,20.3999765859375,20.446914896484376,20.1471365859375,20.897033896484373,19.6970155859375C21.347154896484376,19.2468955859375,21.599994896484375,18.636456585937502,21.599994896484375,17.9999765859375C21.599994896484375,17.9999765859375,21.599994896484375,5.9999756859375,21.599994896484375,5.9999756859375C21.599994896484375,5.3634596859375,21.347154896484376,4.7530064859375,20.897033896484373,4.3029187959375C20.446914896484376,3.8528324059375,19.836474896484376,3.5999755859375004,19.199994896484377,3.5999755859375C19.199994896484377,3.5999755859375,4.799993996484375,3.5999755859375,4.799993996484375,3.5999755859375C4.799993996484375,3.5999755859375,4.799993996484375,3.5999755859375,4.799993996484375,3.5999755859375ZM8.399993896484375,5.9999756859375C8.399993896484375,5.9999756859375,15.599994896484375,5.9999756859375,15.599994896484375,5.9999756859375C15.599994896484375,5.9999756859375,15.599994896484375,10.7999758859375,15.599994896484375,10.7999758859375C15.599994896484375,10.7999758859375,8.399993896484375,10.7999758859375,8.399993896484375,10.7999758859375C8.399993896484375,10.7999758859375,8.399993896484375,5.9999756859375,8.399993896484375,5.9999756859375C8.399993896484375,5.9999756859375,8.399993896484375,5.9999756859375,8.399993896484375,5.9999756859375ZM17.999993896484376,15.5999755859375C17.999993896484376,15.5999755859375,17.999993896484376,17.9999765859375,17.999993896484376,17.9999765859375C17.999993896484376,17.9999765859375,19.199994896484377,17.9999765859375,19.199994896484377,17.9999765859375C19.199994896484377,17.9999765859375,19.199994896484377,15.5999755859375,19.199994896484377,15.5999755859375C19.199994896484377,15.5999755859375,17.999993896484376,15.5999755859375,17.999993896484376,15.5999755859375C17.999993896484376,15.5999755859375,17.999993896484376,15.5999755859375,17.999993896484376,15.5999755859375ZM15.599994896484375,13.1999759859375C15.599994896484375,13.1999759859375,8.399993896484375,13.1999759859375,8.399993896484375,13.1999759859375C8.399993896484375,13.1999759859375,8.399993896484375,17.9999765859375,8.399993896484375,17.9999765859375C8.399993896484375,17.9999765859375,15.599994896484375,17.9999765859375,15.599994896484375,17.9999765859375C15.599994896484375,17.9999765859375,15.599994896484375,13.1999759859375,15.599994896484375,13.1999759859375C15.599994896484375,13.1999759859375,15.599994896484375,13.1999759859375,15.599994896484375,13.1999759859375ZM17.999993896484376,13.1999759859375C17.999993896484376,13.1999759859375,19.199994896484377,13.1999759859375,19.199994896484377,13.1999759859375C19.199994896484377,13.1999759859375,19.199994896484377,10.7999758859375,19.199994896484377,10.7999758859375C19.199994896484377,10.7999758859375,17.999993896484376,10.7999758859375,17.999993896484376,10.7999758859375C17.999993896484376,10.7999758859375,17.999993896484376,13.1999759859375,17.999993896484376,13.1999759859375C17.999993896484376,13.1999759859375,17.999993896484376,13.1999759859375,17.999993896484376,13.1999759859375ZM19.199994896484377,8.3999757859375C19.199994896484377,8.3999757859375,19.199994896484377,5.9999756859375,19.199994896484377,5.9999756859375C19.199994896484377,5.9999756859375,17.999993896484376,5.9999756859375,17.999993896484376,5.9999756859375C17.999993896484376,5.9999756859375,17.999993896484376,8.3999757859375,17.999993896484376,8.3999757859375C17.999993896484376,8.3999757859375,19.199994896484377,8.3999757859375,19.199994896484377,8.3999757859375C19.199994896484377,8.3999757859375,19.199994896484377,8.3999757859375,19.199994896484377,8.3999757859375ZM5.999993996484375,5.9999756859375C5.999993996484375,5.9999756859375,5.999993996484375,8.3999757859375,5.999993996484375,8.3999757859375C5.999993996484375,8.3999757859375,4.799993996484375,8.3999757859375,4.799993996484375,8.3999757859375C4.799993996484375,8.3999757859375,4.799993996484375,5.9999756859375,4.799993996484375,5.9999756859375C4.799993996484375,5.9999756859375,5.999993996484375,5.9999756859375,5.999993996484375,5.9999756859375C5.999993996484375,5.9999756859375,5.999993996484375,5.9999756859375,5.999993996484375,5.9999756859375ZM5.999993996484375,10.7999758859375C5.999993996484375,10.7999758859375,4.799993996484375,10.7999758859375,4.799993996484375,10.7999758859375C4.799993996484375,10.7999758859375,4.799993996484375,13.1999759859375,4.799993996484375,13.1999759859375C4.799993996484375,13.1999759859375,5.999993996484375,13.1999759859375,5.999993996484375,13.1999759859375C5.999993996484375,13.1999759859375,5.999993996484375,10.7999758859375,5.999993996484375,10.7999758859375C5.999993996484375,10.7999758859375,5.999993996484375,10.7999758859375,5.999993996484375,10.7999758859375ZM4.799993996484375,15.5999755859375C4.799993996484375,15.5999755859375,5.999993996484375,15.5999755859375,5.999993996484375,15.5999755859375C5.999993996484375,15.5999755859375,5.999993996484375,17.9999765859375,5.999993996484375,17.9999765859375C5.999993996484375,17.9999765859375,4.799993996484375,17.9999765859375,4.799993996484375,17.9999765859375C4.799993996484375,17.9999765859375,4.799993996484375,15.5999755859375,4.799993996484375,15.5999755859375C4.799993996484375,15.5999755859375,4.799993996484375,15.5999755859375,4.799993996484375,15.5999755859375Z" fill-rule="evenodd" fill="#0A0A28" fill-opacity="1"/></g></svg>