<svg xmlns="http://www.w3.org/2000/svg" xmlns:xlink="http://www.w3.org/1999/xlink" fill="none" version="1.1" width="24" height="24" viewBox="0 0 24 24"><defs><clipPath id="master_svg0_3_1788"><rect x="0" y="0" width="24" height="24" rx="0"/></clipPath></defs><g clip-path="url(#master_svg0_3_1788)"><path d="M3.600006103515625,3.6000244140625C3.600006103515625,3.2817652840625,3.726434513515625,2.9765404440625,3.951477703515625,2.7514960140625C4.176522133515625,2.5264528240625,4.481746973515625,2.4000244140625004,4.800006103515625,2.4000244140625C4.800006103515625,2.4000244140625,19.200006103515626,2.4000244140625,19.200006103515626,2.4000244140625C19.518247103515627,2.4000244140625004,19.823526103515626,2.5264528240625,20.048527103515625,2.7514960140625C20.273527103515626,2.9765404440625,20.400007103515627,3.2817652840625,20.400007103515627,3.6000244140625C20.400007103515627,3.6000244140625,20.400007103515627,7.2000246140625,20.400007103515627,7.2000246140625C20.399887103515624,7.5182528140625,20.273527103515626,7.8234362140625,20.048406103515624,8.0484242140625C20.048406103515624,8.0484242140625,14.400006103515626,13.6968244140625,14.400006103515626,13.6968244140625C14.400006103515626,13.6968244140625,14.400006103515626,18.0000244140625,14.400006103515626,18.0000244140625C14.399935103515626,18.318265414062502,14.273467103515625,18.6234244140625,14.048406103515624,18.8484244140625C14.048406103515624,18.8484244140625,11.648406003515625,21.2484244140625,11.648406003515625,21.2484244140625C11.480586503515624,21.4161854140625,11.266782303515626,21.5304264140625,11.034042803515625,21.5767464140625C10.801302403515624,21.6230644140625,10.560066203515625,21.5991864140625,10.340826503515625,21.5084644140625C10.121586303515624,21.4176254140625,9.934182603515625,21.2639044140625,9.802326703515625,21.0666254140625C9.670458303515625,20.8692244140625,9.600054303515625,20.6373844140625,9.600006103515625,20.4000244140625C9.600006103515625,20.4000244140625,9.600006103515625,13.6968244140625,9.600006103515625,13.6968244140625C9.600006103515625,13.6968244140625,3.9516061235156252,8.0484242140625,3.9516061235156252,8.0484242140625C3.726547313515625,7.8234362140625,3.600074068395625,7.5182528140625,3.600006103515625,7.2000246140625C3.600006103515625,7.2000246140625,3.600006103515625,3.6000244140625,3.600006103515625,3.6000244140625C3.600006103515625,3.6000244140625,3.600006103515625,3.6000244140625,3.600006103515625,3.6000244140625Z" fill-rule="evenodd" fill="#0A0A28" fill-opacity="1"/></g></svg>