<svg xmlns="http://www.w3.org/2000/svg" xmlns:xlink="http://www.w3.org/1999/xlink" fill="none" version="1.1" width="24" height="24" viewBox="0 0 24 24"><defs><clipPath id="master_svg0_3_2088"><rect x="0" y="0" width="24" height="24" rx="0"/></clipPath></defs><g clip-path="url(#master_svg0_3_2088)"><path d="M4,3C4,3,4,2,4,2C4,2,4,3,4,3C4,3,4,3,4,3ZM20,3C20,3,20,2,20,2C20,2,20,3,20,3C20,3,20,3,20,3ZM21,6.586C21,6.586,22,6.5862099999999995,22,6.5862099999999995C22,6.5862099999999995,22,6.586,22,6.586C22,6.586,21,6.586,21,6.586C21,6.586,21,6.586,21,6.586ZM20.707001,7.2930002C20.707001,7.2930002,20,6.5857899,20,6.5857899C20,6.5857899,19.999901,6.5858901,19.999901,6.5858901C19.999901,6.5858901,20.707001,7.2930002,20.707001,7.2930002C20.707001,7.2930002,20.707001,7.2930002,20.707001,7.2930002ZM14.293,13.707C14.293,13.707,15,14.4142,15,14.4142C15,14.4142,15.0001,14.4141,15.0001,14.4141C15.0001,14.4141,14.293,13.707,14.293,13.707C14.293,13.707,14.293,13.707,14.293,13.707ZM14,14.414C14,14.414,13,14.4138,13,14.4138C13,14.4138,13,14.414,13,14.414C13,14.414,14,14.414,14,14.414C14,14.414,14,14.414,14,14.414ZM14,17C14,17,14.7071,17.7071,14.7071,17.7071C14.8946,17.5196,15,17.2652,15,17C15,17,14,17,14,17C14,17,14,17,14,17ZM10,21C10,21,9,21,9,21C9,21.404499,9.2436399,21.7691,9.6173201,21.923901C9.990990199999999,22.078699,10.421110200000001,21.993099,10.707109899999999,21.7071C10.707109899999999,21.7071,10,21,10,21C10,21,10,21,10,21ZM10,14.414C10,14.414,11,14.414,11,14.414C11,14.414,11,14.4138,11,14.4138C11,14.4138,10,14.414,10,14.414C10,14.414,10,14.414,10,14.414ZM9.7069998,13.707C9.7069998,13.707,8.9998899,14.4141,8.9998899,14.4141C8.9998899,14.4141,9,14.4142,9,14.4142C9,14.4142,9.7069998,13.707,9.7069998,13.707C9.7069998,13.707,9.7069998,13.707,9.7069998,13.707ZM3.29300001,7.2930002C3.29300001,7.2930002,4.00011,6.5858901,4.00011,6.5858901C4.00011,6.5858901,4,6.5857899,4,6.5857899C4,6.5857899,3.29300001,7.2930002,3.29300001,7.2930002C3.29300001,7.2930002,3.29300001,7.2930002,3.29300001,7.2930002ZM3,6.586C3,6.586,2,6.586,2,6.586C2,6.586,2,6.5862099999999995,2,6.5862099999999995C2,6.5862099999999995,3,6.586,3,6.586C3,6.586,3,6.586,3,6.586ZM4,4C4,4,4,4,4,4C4,4,2.58578601,2.58578601,2.58578601,2.58578601C2.21071398,2.960859299,2,3.469567,2,4C2,4,4,4,4,4C4,4,4,4,4,4ZM4,4C4,4,4,4,4,4C4,4,4,2,4,2C3.469567,2,2.960859299,2.21071398,2.58578601,2.58578601C2.58578601,2.58578601,4,4,4,4C4,4,4,4,4,4ZM4,4C4,4,20,4,20,4C20,4,20,2,20,2C20,2,4,2,4,2C4,2,4,4,4,4C4,4,4,4,4,4ZM20,4C20,4,20,4,20,4C20,4,21.4142,2.58578601,21.4142,2.58578601C21.039101,2.21071303,20.530399,2,20,2C20,2,20,4,20,4C20,4,20,4,20,4ZM20,4C20,4,20,4,20,4C20,4,22,4,22,4C22,3.469569,21.789301,2.960860599,21.4142,2.58578601C21.4142,2.58578601,20,4,20,4C20,4,20,4,20,4ZM20,4C20,4,20,6.586,20,6.586C20,6.586,22,6.586,22,6.586C22,6.586,22,4,22,4C22,4,20,4,20,4C20,4,20,4,20,4ZM20,6.5857899C20,6.5857899,20,6.5857899,20,6.5857899C20,6.5857899,21.414,8.0002098,21.414,8.0002098C21.789101,7.6252298,21.999901,7.1166,22,6.5862099999999995C22,6.5862099999999995,20,6.5857899,20,6.5857899C20,6.5857899,20,6.5857899,20,6.5857899ZM19.999901,6.5858901C19.999901,6.5858901,13.5859,12.9998903,13.5859,12.9998903C13.5859,12.9998903,15.0001,14.4141,15.0001,14.4141C15.0001,14.4141,21.414101,8.0001101,21.414101,8.0001101C21.414101,8.0001101,19.999901,6.5858901,19.999901,6.5858901C19.999901,6.5858901,19.999901,6.5858901,19.999901,6.5858901ZM13.586,12.9997902C13.2109,13.3748,13.0001,13.8834,13,14.4138C13,14.4138,15,14.4142,15,14.4142C15,14.4142,15,14.4142,15,14.4142C15,14.4142,13.586,12.9997902,13.586,12.9997902C13.586,12.9997902,13.586,12.9997902,13.586,12.9997902ZM13,14.414C13,14.414,13,17,13,17C13,17,15,17,15,17C15,17,15,14.414,15,14.414C15,14.414,13,14.414,13,14.414C13,14.414,13,14.414,13,14.414ZM13.2929,16.2929C13.2929,16.2929,9.292890100000001,20.2929,9.292890100000001,20.2929C9.292890100000001,20.2929,10.707109899999999,21.7071,10.707109899999999,21.7071C10.707109899999999,21.7071,14.7071,17.7071,14.7071,17.7071C14.7071,17.7071,13.2929,16.2929,13.2929,16.2929C13.2929,16.2929,13.2929,16.2929,13.2929,16.2929ZM11,21C11,21,11,14.414,11,14.414C11,14.414,9,14.414,9,14.414C9,14.414,9,21,9,21C9,21,11,21,11,21C11,21,11,21,11,21ZM11,14.4138C10.9998899,13.8834,10.7891002,13.3748,10.414,12.9997902C10.414,12.9997902,9,14.4142,9,14.4142C9,14.4142,9,14.4142,9,14.4142C9,14.4142,11,14.4138,11,14.4138C11,14.4138,11,14.4138,11,14.4138ZM10.4141102,12.9998903C10.4141102,12.9998903,4.00011,6.5858901,4.00011,6.5858901C4.00011,6.5858901,2.58589301,8.0001101,2.58589301,8.0001101C2.58589301,8.0001101,8.9998899,14.4141,8.9998899,14.4141C8.9998899,14.4141,10.4141102,12.9998903,10.4141102,12.9998903C10.4141102,12.9998903,10.4141102,12.9998903,10.4141102,12.9998903ZM4,6.5857899C4,6.5857899,4,6.5857899,4,6.5857899C4,6.5857899,2,6.5862099999999995,2,6.5862099999999995C2.0001130099999997,7.1166,2.21090102,7.6252298,2.586,8.0002098C2.586,8.0002098,4,6.5857899,4,6.5857899C4,6.5857899,4,6.5857899,4,6.5857899ZM4,6.586C4,6.586,4,4,4,4C4,4,2,4,2,4C2,4,2,6.586,2,6.586C2,6.586,4,6.586,4,6.586C4,6.586,4,6.586,4,6.586Z" fill="#0A0A28" fill-opacity="1"/></g></svg>