<svg xmlns="http://www.w3.org/2000/svg" xmlns:xlink="http://www.w3.org/1999/xlink" fill="none" version="1.1" width="24" height="24" viewBox="0 0 24 24"><defs><clipPath id="master_svg0_3_2252"><rect x="0" y="0" width="24" height="24" rx="0"/></clipPath></defs><g clip-path="url(#master_svg0_3_2252)"><path d="M13,11.000002639169312C13,10.447713139169313,12.55229,10.000003139169312,12,10.000003139169312C11.44771,10.000003139169312,11,10.447713139169313,11,11.000002639169312C11,11.000002639169312,13,11.000002639169312,13,11.000002639169312C13,11.000002639169312,13,11.000002639169312,13,11.000002639169312ZM8.4005799,20.03850303916931C8.106480099999999,20.50590303916931,8.2470102,21.12330203916931,8.7144799,21.417404039169313C9.1819401,21.711504039169313,9.7993102,21.571003039169312,10.09342,21.103504039169312C10.09342,21.103504039169312,8.4005799,20.03850303916931,8.4005799,20.03850303916931C8.4005799,20.03850303916931,8.4005799,20.03850303916931,8.4005799,20.03850303916931ZM4.94951,18.01650303916931C4.66536,18.490103039169313,4.81893,19.104303039169313,5.29251,19.388504039169312C5.7660899,19.67260303916931,6.380350099999999,19.51910403916931,6.66449,19.04550303916931C6.66449,19.04550303916931,4.94951,18.01650303916931,4.94951,18.01650303916931C4.94951,18.01650303916931,4.94951,18.01650303916931,4.94951,18.01650303916931ZM5.8610001,18.44100303916931C5.8610001,18.44100303916931,5.0147099,17.90830303916931,5.0147099,17.90830303916931C5.01091,17.91430303916931,5.00718,17.92040303916931,5.00351,17.92650303916931C5.00351,17.92650303916931,5.8610001,18.44100303916931,5.8610001,18.44100303916931C5.8610001,18.44100303916931,5.8610001,18.44100303916931,5.8610001,18.44100303916931ZM8,11.000002639169312C8,11.000002639169312,7,11.000002639169312,7,11.000002639169312C7,11.000002639169312,7,11.001983439169312,7,11.001983439169312C7,11.001983439169312,8,11.000002639169312,8,11.000002639169312C8,11.000002639169312,8,11.000002639169312,8,11.000002639169312ZM12,7.000003139169311C12,7.000003139169311,12,6.000003139169312,12,6.000003139169312C12,6.000003139169312,12,7.000003139169311,12,7.000003139169311C12,7.000003139169311,12,7.000003139169311,12,7.000003139169311ZM16,11.000002639169312C16,11.000002639169312,17,11.000002639169312,17,11.000002639169312C17,11.000002639169312,16,11.000002639169312,16,11.000002639169312C16,11.000002639169312,16,11.000002639169312,16,11.000002639169312ZM14.8061,13.865603039169311C14.7319,14.412903039169311,15.1154,14.916703039169311,15.6627,14.99090303916931C16.209899999999998,15.065103039169312,16.7137,14.681603039169312,16.7879,14.134303039169312C16.7879,14.134303039169312,14.8061,13.865603039169311,14.8061,13.865603039169311C14.8061,13.865603039169311,14.8061,13.865603039169311,14.8061,13.865603039169311ZM12.7849998,20.39590203916931C12.5375404,20.889703039169312,12.7371902,21.49050303916931,13.2309,21.738002039169313C13.7247,21.98550403916931,14.3255,21.785803039169313,14.573,21.292103039169312C14.573,21.292103039169312,12.7849998,20.39590203916931,12.7849998,20.39590203916931C12.7849998,20.39590203916931,12.7849998,20.39590203916931,12.7849998,20.39590203916931ZM16.133200000000002,17.272403039169312C16.2836,16.741003039169314,15.9748,16.18820303916931,15.4434,16.03780303916931C14.912,15.887403039169312,14.3592,16.196203039169312,14.2088,16.72760303916931C14.2088,16.72760303916931,16.133200000000002,17.272403039169312,16.133200000000002,17.272403039169312C16.133200000000002,17.272403039169312,16.133200000000002,17.272403039169312,16.133200000000002,17.272403039169312ZM18.0482,17.85820303916931C17.897,18.38940303916931,18.205,18.942603039169313,18.7362,19.093803039169313C19.267401,19.24500203916931,19.820601,18.937003039169312,19.9718,18.405803039169314C19.9718,18.405803039169314,18.0482,17.85820303916931,18.0482,17.85820303916931C18.0482,17.85820303916931,18.0482,17.85820303916931,18.0482,17.85820303916931ZM20,11.000002639169312C20,11.000002639169312,19,10.99977273916931,19,10.99977273916931C19,10.99977273916931,19,11.000002639169312,19,11.000002639169312C19,11.000002639169312,20,11.000002639169312,20,11.000002639169312C20,11.000002639169312,20,11.000002639169312,20,11.000002639169312ZM7.5,3.2039750391693116C7.0217099,3.4801170491693116,6.85783,4.091703039169311,7.1339698,4.570003039169311C7.41012,5.048293139169312,8.021709900000001,5.212162939169311,8.5,4.936023039169312C8.5,4.936023039169312,7.5,3.2039750391693116,7.5,3.2039750391693116C7.5,3.2039750391693116,7.5,3.2039750391693116,7.5,3.2039750391693116ZM2.10031599,14.927503039169311C1.85922,15.424303039169311,2.06657702,16.02260303916931,2.56345901,16.26370303916931C3.060340598,16.50480303916931,3.65858901,16.29740303916931,3.89968401,15.800503039169312C3.89968401,15.800503039169312,2.10031599,14.927503039169311,2.10031599,14.927503039169311C2.10031599,14.927503039169311,2.10031599,14.927503039169311,2.10031599,14.927503039169311ZM5.9358799,7.500252939169312C6.2121601,7.022043039169311,6.04847,6.410403039169312,5.57025,6.134123039169312C5.0920401,5.857842939169311,4.4803999999999995,6.021533039169311,4.20412,6.499742939169312C4.20412,6.499742939169312,5.9358799,7.500252939169312,5.9358799,7.500252939169312C5.9358799,7.500252939169312,5.9358799,7.500252939169312,5.9358799,7.500252939169312ZM11,11.000002639169312C11,14.323103039169311,10.0471802,17.42130303916931,8.4005799,20.03850303916931C8.4005799,20.03850303916931,10.09342,21.103504039169312,10.09342,21.103504039169312C11.9348202,18.17670303916931,13,14.710903039169311,13,11.000002639169312C13,11.000002639169312,11,11.000002639169312,11,11.000002639169312C11,11.000002639169312,11,11.000002639169312,11,11.000002639169312ZM6.66449,19.04550303916931C6.66449,19.04550303916931,6.7184899,18.95550303916931,6.7184899,18.95550303916931C6.7184899,18.95550303916931,5.00351,17.92650303916931,5.00351,17.92650303916931C5.00351,17.92650303916931,4.94951,18.01650303916931,4.94951,18.01650303916931C4.94951,18.01650303916931,6.66449,19.04550303916931,6.66449,19.04550303916931C6.66449,19.04550303916931,6.66449,19.04550303916931,6.66449,19.04550303916931ZM6.7072899,18.973703039169312C8.2105899,16.585603039169314,9.005600000000001,13.819903039169311,9,10.99801323916931C9,10.99801323916931,7,11.001983439169312,7,11.001983439169312C7.0048499,13.445503039169312,6.3164400999999994,15.840303039169312,5.0147099,17.90830303916931C5.0147099,17.90830303916931,6.7072899,18.973703039169312,6.7072899,18.973703039169312C6.7072899,18.973703039169312,6.7072899,18.973703039169312,6.7072899,18.973703039169312ZM9,11.000002639169312C9,10.204353139169312,9.316070100000001,9.441293039169311,9.8786802,8.878682839169311C9.8786802,8.878682839169311,8.464469900000001,7.464463039169312,8.464469900000001,7.464463039169312C7.5267801,8.402143239169312,7,9.673913239169313,7,11.000002639169312C7,11.000002639169312,9,11.000002639169312,9,11.000002639169312C9,11.000002639169312,9,11.000002639169312,9,11.000002639169312ZM9.8786802,8.878682839169311C10.441289900000001,8.316073139169312,11.2043505,8.000003139169312,12,8.000003139169312C12,8.000003139169312,12,6.000003139169312,12,6.000003139169312C10.673920200000001,6.000003139169312,9.402150200000001,6.526783039169311,8.464469900000001,7.464463039169312C8.464469900000001,7.464463039169312,9.8786802,8.878682839169311,9.8786802,8.878682839169311C9.8786802,8.878682839169311,9.8786802,8.878682839169311,9.8786802,8.878682839169311ZM12,8.000003139169312C12.7956495,8.000003139169312,13.5587,8.316073139169312,14.1213,8.878682839169311C14.1213,8.878682839169311,15.5355,7.464463039169312,15.5355,7.464463039169312C14.5979,6.526783039169311,13.3261,6.000003139169312,12,6.000003139169312C12,6.000003139169312,12,8.000003139169312,12,8.000003139169312C12,8.000003139169312,12,8.000003139169312,12,8.000003139169312ZM14.1213,8.878682839169311C14.6839,9.441293039169311,15,10.204353139169312,15,11.000002639169312C15,11.000002639169312,17,11.000002639169312,17,11.000002639169312C17,9.673913239169313,16.4732,8.402143239169312,15.5355,7.464463039169312C15.5355,7.464463039169312,14.1213,8.878682839169311,14.1213,8.878682839169311C14.1213,8.878682839169311,14.1213,8.878682839169311,14.1213,8.878682839169311ZM15,11.000002639169312C15,11.971092939169312,14.9332,12.928203339169311,14.8061,13.865603039169311C14.8061,13.865603039169311,16.7879,14.134303039169312,16.7879,14.134303039169312C16.9268,13.10980303916931,17,12.062912739169311,17,11.000002639169312C17,11.000002639169312,15,11.000002639169312,15,11.000002639169312C15,11.000002639169312,15,11.000002639169312,15,11.000002639169312ZM14.573,21.292103039169312C15.2184,20.00430303916931,15.7408,18.65840303916931,16.133200000000002,17.272403039169312C16.133200000000002,17.272403039169312,14.2088,16.72760303916931,14.2088,16.72760303916931C13.8507,17.992503039169314,13.374,19.22070303916931,12.7849998,20.39590203916931C12.7849998,20.39590203916931,14.573,21.292103039169312,14.573,21.292103039169312C14.573,21.292103039169312,14.573,21.292103039169312,14.573,21.292103039169312ZM19.9718,18.405803039169314C20.641899,16.05150303916931,21,13.56640303916931,21,11.000002639169312C21,11.000002639169312,19,11.000002639169312,19,11.000002639169312C19,13.37960303916931,18.668100000000003,15.680503039169311,18.0482,17.85820303916931C18.0482,17.85820303916931,19.9718,18.405803039169314,19.9718,18.405803039169314C19.9718,18.405803039169314,19.9718,18.405803039169314,19.9718,18.405803039169314ZM21,11.000222939169312C21.000401,9.420223039169311,20.584801,7.867973139169312,19.795,6.499513139169311C19.795,6.499513139169311,18.0628,7.499223039169311,18.0628,7.499223039169311C18.677,8.56357313916931,19.000299,9.77088283916931,19,10.99977273916931C19,10.99977273916931,21,11.000222939169312,21,11.000222939169312C21,11.000222939169312,21,11.000222939169312,21,11.000222939169312ZM19.795,6.499513139169311C19.005199,5.131062939169311,17.8691,3.9946340291693114,16.5009,3.2044800391693116C16.5009,3.2044800391693116,15.5007,4.936423039169312,15.5007,4.936423039169312C16.5649,5.5509829391693115,17.4485,6.434873139169312,18.0628,7.499223039169311C18.0628,7.499223039169311,19.795,6.499513139169311,19.795,6.499513139169311C19.795,6.499513139169311,19.795,6.499513139169311,19.795,6.499513139169311ZM16.5009,3.2044800391693116C15.1326,2.4143250591693115,13.5805,1.9982920291693116,12.0005102,1.9982030391693115C12.0005102,1.9982030391693115,12.0003901,3.9982030391693115,12.0003901,3.9982030391693115C13.2293,3.9982730391693115,14.4365,4.321853039169311,15.5007,4.936423039169312C15.5007,4.936423039169312,16.5009,3.2044800391693116,16.5009,3.2044800391693116C16.5009,3.2044800391693116,16.5009,3.2044800391693116,16.5009,3.2044800391693116ZM12.0005102,1.9982030391693115C10.4204998,1.9981130391693116,8.86832,2.413974049169312,7.5,3.2039750391693116C7.5,3.2039750391693116,8.5,4.936023039169312,8.5,4.936023039169312C9.564250000000001,4.321583039169312,10.7715001,3.9981340191693118,12.0003901,3.9982030391693115C12.0003901,3.9982030391693115,12.0005102,1.9982030391693115,12.0005102,1.9982030391693115C12.0005102,1.9982030391693115,12.0005102,1.9982030391693115,12.0005102,1.9982030391693115ZM3.89968401,15.800503039169312C4.6040601,14.348903039169311,5,12.71894333916931,5,11.000002639169312C5,11.000002639169312,3,11.000002639169312,3,11.000002639169312C3,12.409052639169312,2.675942,13.741103039169312,2.10031599,14.927503039169311C2.10031599,14.927503039169311,3.89968401,15.800503039169312,3.89968401,15.800503039169312C3.89968401,15.800503039169312,3.89968401,15.800503039169312,3.89968401,15.800503039169312ZM5,11.000002639169312C5,9.723713139169313,5.3411601,8.529632839169311,5.9358799,7.500252939169312C5.9358799,7.500252939169312,4.20412,6.499742939169312,4.20412,6.499742939169312C3.43883601,7.824363039169311,3,9.362283039169313,3,11.000002639169312C3,11.000002639169312,5,11.000002639169312,5,11.000002639169312C5,11.000002639169312,5,11.000002639169312,5,11.000002639169312Z" fill="#0A0A28" fill-opacity="1"/></g></svg>