<svg xmlns="http://www.w3.org/2000/svg" xmlns:xlink="http://www.w3.org/1999/xlink" fill="none" version="1.1" width="24" height="24" viewBox="0 0 24 24"><defs><clipPath id="master_svg0_3_1617"><rect x="0" y="0" width="24" height="24" rx="0"/></clipPath></defs><g clip-path="url(#master_svg0_3_1617)"><path d="M7.95002460703125,3.18602299359375C9.58962060703125,2.52277338359375,11.36701220703125,2.27234777359375,13.12604520703125,2.45675118659375C14.88505220703125,2.64115458359375,16.571893207031252,3.2547410135937502,18.03829420703125,4.24359618359375C19.50469220703125,5.23245618359375,20.70577420703125,6.56632848359375,21.53605220703125,8.127996483593751C22.36633320703125,9.68967628359375,22.80037320703125,11.43135638359375,22.80001220703125,13.20002318359375C22.80001220703125,13.51828818359375,22.67365220703125,13.82350818359375,22.44853220703125,14.04855618359375C22.22353320703125,14.27359218359375,21.91825320703125,14.40004818359375,21.60001420703125,14.40004818359375C21.28177220703125,14.40004818359375,20.97649420703125,14.27359218359375,20.75149320703125,14.04855618359375C20.52649320703125,13.82350818359375,20.40001320703125,13.51828818359375,20.40001320703125,13.20002318359375C20.40061220703125,11.82424828359375,20.06317320703125,10.46938898359375,19.41757420703125,9.25453238359375C18.77185220703125,8.039664283593751,17.83777420703125,7.00197648359375,16.69717320703125,6.23266838359375C15.55657320703125,5.46336028359375,14.24449320703125,4.98596428359375,12.87624120703125,4.84245608359375C11.50797620703125,4.69894818359375,10.12539670703125,4.89370818359375,8.850024707031249,5.40962438359375C8.702976707031251,5.47454428359375,8.54439640703125,5.50927238359375,8.38368080703125,5.51172038359375C8.22295240703125,5.51418038359375,8.06338830703125,5.48432448359375,7.91443200703125,5.4239282835937495C7.76546430703125,5.3635322835937504,7.63016460703125,5.273820383593749,7.51653670703125,5.16013238359375C7.40292020703125,5.04644418359375,7.31329250703125,4.911084383593749,7.25299210703125,4.76208018359375C7.19268040703125,4.61308808359375,7.16292050703125,4.453500283593749,7.16547630703125,4.29278418359375C7.16803260703125,4.13206828359375,7.20285650703125,3.97350028359375,7.26787230703125,3.82650028359375C7.33287670703125,3.67950018359375,7.42676450703125,3.5470549835937497,7.54394480703125,3.43703308359375C7.66112470703125,3.32701099359375,7.79922060703125,3.24165260359375,7.95002460703125,3.18602299359375C7.95002460703125,3.18602299359375,7.95002460703125,3.18602299359375,7.95002460703125,3.18602299359375C7.95002460703125,3.18602299359375,7.95002460703125,3.18602299359375,7.95002460703125,3.18602299359375ZM5.59442420703125,5.95082428359375C5.83286430703125,6.16141248359375,5.97793240703125,6.45806458359375,5.99773260703125,6.77556038359375C6.01753230703125,7.09306858359375,5.91044430703125,7.40544028359375,5.70002460703125,7.64402438359375C4.34385630703125,9.17673678359375,3.59671230703125,11.15347288359375,3.60002420703125,13.20002318359375C3.60002420703125,13.51828818359375,3.47359230703125,13.82350818359375,3.24854440703125,14.04855618359375C3.02350830703125,14.27359218359375,2.71827640703125,14.40004818359375,2.40002430703125,14.40004818359375C2.0817614170312497,14.40004818359375,1.77653664703125,14.27359218359375,1.55149221703125,14.04855618359375C1.32644901703125,13.82350818359375,1.20002091081185,13.51828818359375,1.20002091081185,13.20002318359375C1.19667662683125,10.56885718359375,2.15717541703125,8.027592683593749,3.90002440703125,6.05642438359375C4.00430440703125,5.93817618359375,4.13088030703125,5.84164838359375,4.27249240703125,5.77234838359375C4.41410450703125,5.70304848359375,4.567980307031251,5.66232038359375,4.725336307031251,5.65251608359375C4.882692607031251,5.64271238359375,5.04044440703125,5.66401238359375,5.18956830703125,5.715192283593749C5.33868030703125,5.76637248359375,5.47626020703125,5.84644838359375,5.59442420703125,5.95082428359375C5.59442420703125,5.95082428359375,5.59442420703125,5.95082428359375,5.59442420703125,5.95082428359375C5.59442420703125,5.95082428359375,5.59442420703125,5.95082428359375,5.59442420703125,5.95082428359375Z" fill-rule="evenodd" fill="#0A0A28" fill-opacity="1"/><path d="M6.00000103984375,13.20001220703125C6.00000103984375,11.60871650703125,6.63214193984375,10.08259220703125,7.75735803984375,8.95737640703125C8.88257383984375,7.83215302703125,10.408698039843749,7.200012207031251,12.00000623984375,7.20001220703125C13.59130193984375,7.20001220703125,15.11742583984375,7.83215302703125,16.24264283984375,8.95737640703125C17.36784683984375,10.08259220703125,18.00000683984375,11.60871650703125,18.00000683984375,13.20001220703125C18.00000683984375,13.51827670703125,17.87352683984375,13.823496307031249,17.64852583984375,14.048544407031251C17.423526839843753,14.27358050703125,17.118245839843752,14.40001250703125,16.80000683984375,14.40001250703125C16.48174183984375,14.40001250703125,16.17652183984375,14.27358050703125,15.95147383984375,14.048544407031251C15.72642583984375,13.823496307031249,15.60000583984375,13.51827670703125,15.60000583984375,13.20001220703125C15.60000583984375,12.24523260703125,15.22071083984375,11.329560307031251,14.54559043984375,10.65442820703125C13.87045763984375,9.97929640703125,12.95478633984375,9.60001230703125,12.00000623984375,9.60001230703125C11.04522653984375,9.60001230703125,10.12954233984375,9.97929640703125,9.454422039843749,10.65442820703125C8.77928993984375,11.329560307031251,8.400006039843749,12.24523260703125,8.400006039843749,13.20001220703125C8.400006039843749,15.21241280703125,7.986006039843749,17.13121220703125,7.23840593984375,18.874813207031252C7.11284993984375,19.16728820703125,6.87624593984375,19.397893207031252,6.58064993984375,19.51597320703125C6.28505383984375,19.633933207031248,5.95468183984375,19.62973320703125,5.66220104984375,19.50421220703125C5.36972024984375,19.37869220703125,5.13909463984375,19.14206420703125,5.02105892484375,18.846469207031248C4.90302355984375,18.550873207031252,4.90724707984375,18.220488207031252,5.03280056284375,17.92801220703125C5.67320262984375,16.434132607031252,6.00230503984375,14.82536410703125,6.00000103984375,13.20001220703125C6.00000103984375,13.20001220703125,6.00000103984375,13.20001220703125,6.00000103984375,13.20001220703125C6.00000103984375,13.20001220703125,6.00000103984375,13.20001220703125,6.00000103984375,13.20001220703125ZM16.70519483984375,15.61441230703125C16.86091783984375,15.63909630703125,17.010245839843748,15.69422440703125,17.14464683984375,15.77664090703125C17.27904583984375,15.85906890703125,17.39592683984375,15.96716500703125,17.48856683984375,16.09477230703125C17.58108583984375,16.222368207031252,17.64768683984375,16.366969107031252,17.68440583984375,16.52030470703125C17.72112683984375,16.673640207031248,17.72724583984375,16.83271310703125,17.70240683984375,16.98841190703125C17.54592683984375,17.97555620703125,17.32752683984375,18.95188920703125,17.04840683984375,19.91161320703125C17.007366839843748,20.06629320703125,16.935846839843748,20.21113320703125,16.838094839843748,20.33773320703125C16.74028183984375,20.464333207031252,16.61815883984375,20.57005220703125,16.47888683984375,20.648773207031248C16.33961383984375,20.72749220703125,16.186002839843752,20.77753220703125,16.02710983984375,20.79601320703125C15.86820683984375,20.81449220703125,15.70720183984375,20.801053207031252,15.55359083984375,20.75641220703125C15.39996583984375,20.71177320703125,15.25682983984375,20.63677320703125,15.13258183984375,20.536094207031248C15.00833383984375,20.43529220703125,14.90549473984375,20.310733207031248,14.83009813984375,20.16961220703125C14.75471403984375,20.02849320703125,14.70828623984375,19.87381220703125,14.69357393984375,19.714453207031248C14.67885013984375,19.55521220703125,14.69613073984375,19.39453220703125,14.74440573984375,19.24201320703125C14.99279383984375,18.38641120703125,15.18960683984375,17.50801320703125,15.33240583984375,16.61161230703125C15.38254283984375,16.29757210703125,15.55529383984375,16.01629260703125,15.81269383984375,15.82953640703125C16.07009383984375,15.64278030703125,16.39110583984375,15.56583690703125,16.70519483984375,15.61561300703125C16.70519483984375,15.61561300703125,16.70519483984375,15.61441230703125,16.70519483984375,15.61441230703125C16.70519483984375,15.61441230703125,16.70519483984375,15.61441230703125,16.70519483984375,15.61441230703125Z" fill-rule="evenodd" fill="#0A0A28" fill-opacity="1"/><path d="M11.99998025859375,12C12.31823205859375,12,12.62346405859375,12.12642841,12.84850005859375,12.3514716C13.073548058593751,12.57651603,13.199980258593751,12.88174087,13.199980258593751,13.2C13.199980258593751,15.883200200000001,12.64798025859375,18.4416003,11.65198015859375,20.764800100000002C11.58980825859375,20.9096279,11.49972415859375,21.040776299999997,11.386864158593749,21.1507921C11.27401615859375,21.260796499999998,11.14058805859375,21.347496,10.99422415859375,21.405948600000002C10.84786005859375,21.464388800000002,10.69141615859375,21.4934282,10.53383325859375,21.4914122C10.37624455859375,21.489397,10.22059607859375,21.456372299999998,10.07577407859375,21.3942003C9.93095206859375,21.3320284,9.79979446859375,21.2419443,9.68978687859375,21.129097C9.57977926859375,21.0162363,9.49307806859375,20.8828201,9.43463289759375,20.7364559C9.37618773959375,20.5900927,9.34714347859375,20.4336481,9.34915812583475,20.2760639C9.35117276669375,20.1184683,9.38420734159375,19.9628167,9.44637513859375,19.8180003C10.34253531859375,17.7268801,10.80311205859375,15.475056200000001,10.79998015859375,13.2C10.79998015859375,12.88174087,10.92640015859375,12.57651603,11.15144815859375,12.3514716C11.37649605859375,12.12642841,11.68171615859375,12,11.99998025859375,12C11.99998025859375,12,11.99998025859375,12,11.99998025859375,12C11.99998025859375,12,11.99998025859375,12,11.99998025859375,12Z" fill-rule="evenodd" fill="#0A0A28" fill-opacity="1"/></g></svg>