<svg xmlns="http://www.w3.org/2000/svg" xmlns:xlink="http://www.w3.org/1999/xlink" fill="none" version="1.1" width="24" height="24" viewBox="0 0 24 24"><defs><clipPath id="master_svg0_3_1783"><rect x="0" y="0" width="24" height="24" rx="0"/></clipPath></defs><g clip-path="url(#master_svg0_3_1783)"><path d="M14.108406103515625,2.4407630376875C14.440807103515626,2.5283625546875,14.719206103515624,2.7551409946875,14.874007103515625,3.0635409346875C15.453607103515624,4.2239445546875,15.886807103515626,4.9283807546875,16.322407103515623,5.499580854687499C16.764007103515624,6.0779807546875,17.229607103515626,6.5507569546875,17.940006103515625,7.2599563546875C19.579206103515624,8.9003567546875,20.400007103515627,11.0519695546875,20.400007103515627,13.1999695546875C20.400007103515627,15.3479085546875,19.579206103515624,17.4996285546875,17.940006103515625,19.1400275546875C14.659206103515626,22.4196295546875,9.340806003515624,22.4196295546875,6.060006103515625,19.1400275546875C4.420809743515625,17.4996285546875,3.600006103515625,15.3479085546875,3.600006103515625,13.1999695546875C3.600006103515625,11.0519695546875,4.420809743515625,8.9003567546875,6.060006103515625,7.2599563546875C6.403206103515625,6.9167566546875,6.919206403515625,6.8147449546875,7.368006503515625,7.0007448546875C7.816806303515625,7.1855449546875,8.108406103515625,7.6235923546875,8.108406103515625,8.1083927546875C8.108406103515625,9.4523930546875,8.192406203515624,10.4759807546875,8.586006603515624,11.2931804546875C8.802006203515624,11.7419805546875,9.139218303515625,12.1812047546875,9.720018403515624,12.5736055546875C9.859218603515625,11.3004045546875,10.113606403515625,9.7487811546875,10.456806703515625,8.2775807546875C10.726806603515625,7.1183810546875,11.062794203515626,5.9615688546875,11.463594403515625,4.9967684546874995C11.663993803515625,4.5131688546875,11.890806203515625,4.0547326546875,12.147606803515625,3.6575325546875C12.397206303515626,3.2711350346875,12.718818703515625,2.8788033746875,13.134018903515624,2.6016033546875C13.420818303515626,2.4108028986875,13.776006103515625,2.3519630316875,14.108406103515625,2.4407630376875C14.108406103515625,2.4407630376875,14.108406103515625,2.4407630376875,14.108406103515625,2.4407630376875ZM14.545207103515626,18.1451095546875C13.140006103515624,19.5515095546875,10.860006803515624,19.5515095546875,9.454806303515625,18.1451095546875C8.751606503515625,17.443108554687498,8.400006303515624,16.521509554687498,8.400006303515624,15.5999085546875C8.400006303515624,15.5999085546875,9.454806303515625,16.1999085546875,11.400006303515624,16.1999085546875C11.400006303515624,14.9999085546875,12.000006703515625,11.3999690546875,12.900006303515624,10.7999687546875C13.500006703515625,11.9999694546875,13.843206103515625,12.3516044546875,14.545207103515626,13.0548055546875C15.248406103515626,13.7568055546875,15.600006103515625,14.6783095546875,15.600006103515625,15.5999085546875C15.600006103515625,16.521509554687498,15.248406103515626,17.443108554687498,14.545207103515626,18.1451095546875C14.545207103515626,18.1451095546875,14.545207103515626,18.1451095546875,14.545207103515626,18.1451095546875Z" fill-rule="evenodd" fill="#0A0A28" fill-opacity="1"/></g></svg>