<svg xmlns="http://www.w3.org/2000/svg" xmlns:xlink="http://www.w3.org/1999/xlink" fill="none" version="1.1" width="24" height="24" viewBox="0 0 24 24"><defs><clipPath id="master_svg0_3_1923"><rect x="0" y="0" width="24" height="24" rx="0"/></clipPath></defs><g clip-path="url(#master_svg0_3_1923)"><path d="M17.656994006347656,18.657C17.656994006347656,18.657,16.950794006347657,17.948999999999998,16.950794006347657,17.948999999999998C16.950794006347657,17.948999999999998,16.949894006347655,17.9499,16.949894006347655,17.9499C16.949894006347655,17.9499,17.656994006347656,18.657,17.656994006347656,18.657C17.656994006347656,18.657,17.656994006347656,18.657,17.656994006347656,18.657ZM12.000003806347657,21.0002C12.000003806347657,21.0002,12.000003806347657,20.0002,12.000003806347657,20.0002C12.000003806347657,20.0002,12.000003806347657,21.0002,12.000003806347657,21.0002C12.000003806347657,21.0002,12.000003806347657,21.0002,12.000003806347657,21.0002ZM6.343004006347656,7.3429999C6.343004006347656,7.3429999,7.272594006347656,6.9744201,7.272594006347656,6.9744201C7.148504006347656,6.6614398999999995,6.875243906347656,6.4319201,6.545543906347657,6.36373C6.215843906347656,6.295530100000001,5.873963906347656,6.39783,5.635894106347656,6.63589C5.635894106347656,6.63589,6.343004006347656,7.3429999,6.343004006347656,7.3429999C6.343004006347656,7.3429999,6.343004006347656,7.3429999,6.343004006347656,7.3429999ZM9.000003806347657,10C9.000003806347657,10,8.552784006347657,10.8944302,8.552784006347657,10.8944302C8.862773906347655,11.0494204,9.230914106347656,11.0328598,9.525733906347657,10.8506498C9.820544206347655,10.6684399,10.000003806347657,10.34658,10.000003806347657,10C10.000003806347657,10,9.000003806347657,10,9.000003806347657,10C9.000003806347657,10,9.000003806347657,10,9.000003806347657,10ZM11.986003906347657,3C11.986003906347657,3,12.690633806347655,2.2904310199999998,12.690633806347655,2.2904310199999998C12.329274206347657,1.93159,11.755963806347657,1.90162,11.359164206347657,2.220846C11.359164206347657,2.220846,11.986003906347657,3,11.986003906347657,3C11.986003906347657,3,11.986003906347657,3,11.986003906347657,3ZM17.655994006347655,7.3429999C17.655994006347655,7.3429999,16.948894006347658,8.050109899999999,16.948894006347658,8.050109899999999C16.948894006347658,8.050109899999999,16.949894006347655,8.0511298,16.949894006347655,8.0511298C16.949894006347655,8.0511298,17.655994006347655,7.3429999,17.655994006347655,7.3429999C17.655994006347655,7.3429999,17.655994006347655,7.3429999,17.655994006347655,7.3429999ZM19.999994006347656,13C19.999994006347656,13,18.999994006347656,12.9987898,18.999994006347656,12.9987898C18.999994006347656,12.9987898,18.999994006347656,13.0013,18.999994006347656,13.0013C18.999994006347656,13.0013,19.999994006347656,13,19.999994006347656,13C19.999994006347656,13,19.999994006347656,13,19.999994006347656,13ZM16.949894006347655,17.9499C15.637094006347656,19.262699,13.856574106347656,20.0002,12.000003806347657,20.0002C12.000003806347657,20.0002,12.000003806347657,22.0002,12.000003806347657,22.0002C14.386994006347656,22.0002,16.676194006347657,21.052,18.364094006347656,19.3641C18.364094006347656,19.3641,16.949894006347655,17.9499,16.949894006347655,17.9499C16.949894006347655,17.9499,16.949894006347655,17.9499,16.949894006347655,17.9499ZM12.000003806347657,20.0002C10.143434006347658,20.0002,8.362904106347656,19.262699,7.0501039063476565,17.9499C7.0501039063476565,17.9499,5.635894106347656,19.3641,5.635894106347656,19.3641C7.323764106347657,21.052,9.612994206347656,22.0002,12.000003806347657,22.0002C12.000003806347657,22.0002,12.000003806347657,20.0002,12.000003806347657,20.0002C12.000003806347657,20.0002,12.000003806347657,20.0002,12.000003806347657,20.0002ZM7.0501039063476565,17.9499C5.737314006347656,16.6371,4.999794006347656,14.8566,4.999794006347656,13C4.999794006347656,13,2.9997940063476562,13,2.9997940063476562,13C2.9997940063476562,15.387,3.9480271083476564,17.6762,5.635894106347656,19.3641C5.635894106347656,19.3641,7.0501039063476565,17.9499,7.0501039063476565,17.9499C7.0501039063476565,17.9499,7.0501039063476565,17.9499,7.0501039063476565,17.9499ZM4.999794006347656,13C4.999794006347656,11.1434298,5.737314006347656,9.362899800000001,7.0501039063476565,8.050109899999999C7.0501039063476565,8.050109899999999,5.635894106347656,6.63589,5.635894106347656,6.63589C3.9480271083476564,8.32376,2.9997940063476562,10.6129999,2.9997940063476562,13C2.9997940063476562,13,4.999794006347656,13,4.999794006347656,13C4.999794006347656,13,4.999794006347656,13,4.999794006347656,13ZM6.343004006347656,7.3429999C5.4134040063476565,7.7115798,5.413553906347657,7.7119699,5.413714006347656,7.7123599C5.413774006347657,7.7125001,5.413924006347656,7.7129002,5.414044006347656,7.7131801C5.414264006347656,7.7137399,5.414494006347656,7.7143202,5.414744006347656,7.7149301C5.415223906347656,7.7161498,5.415764006347656,7.7174802,5.416334006347656,7.7189002C5.4174941063476565,7.7217598,5.4188240063476565,7.7250199,5.420334006347656,7.7286901C5.423354006347656,7.7360101,5.427084006347656,7.7449498,5.431574006347656,7.7554202C5.440534006347656,7.77636,5.452484006347657,7.8034601,5.467604006347656,7.8361301C5.497814106347656,7.9014301,5.540824006347656,7.9892402,5.598124006347656,8.0947499C5.712533906347656,8.3054399,5.885154006347657,8.5889502,6.128484006347657,8.9057002C6.615304006347657,9.539420100000001,7.391284006347656,10.3136802,8.552784006347657,10.8944302C8.552784006347657,10.8944302,9.447214106347657,9.1055698,9.447214106347657,9.1055698C8.608714106347655,8.6863198,8.056193806347657,8.1320801,7.714524006347656,7.6873002C7.543594106347657,7.4647999,7.4269640063476565,7.2715602,7.355694006347656,7.1403098C7.320143906347656,7.0748601,7.296194106347656,7.0254002,7.282674106347656,6.9961801C7.275913906347656,6.98158,7.271794106347656,6.97211,7.270164006347656,6.968280099999999C7.269344106347656,6.9663701,7.269154106347656,6.9658799,7.269563906347656,6.9668801C7.269763906347656,6.96738,7.270124006347656,6.968249999999999,7.270633906347657,6.969500099999999C7.270884006347656,6.97013,7.271173906347656,6.97085,7.271503906347656,6.9716699C7.271663906347657,6.97208,7.271833906347656,6.9725101,7.272023906347656,6.97297C7.272114006347657,6.9732001,7.272254006347657,6.9735601,7.272304106347656,6.97368C7.272444006347657,6.9740400000000005,7.272594006347656,6.9744201,6.343004006347656,7.3429999C6.343004006347656,7.3429999,6.343004006347656,7.3429999,6.343004006347656,7.3429999ZM10.000003806347657,10C10.000003806347657,8.119649899999999,10.475773806347657,5.49843,12.612834006347656,3.779154C12.612834006347656,3.779154,11.359164206347657,2.220846,11.359164206347657,2.220846C8.524223806347656,4.50157,8.000003806347657,7.8803501,8.000003806347657,10C8.000003806347657,10,10.000003806347657,10,10.000003806347657,10C10.000003806347657,10,10.000003806347657,10,10.000003806347657,10ZM11.281364006347657,3.7095689800000002C12.364624006347656,4.7853,13.463543906347656,5.52581,14.438294006347656,6.1689401C15.434194006347656,6.826029999999999,16.252494006347657,7.3537402,16.948894006347658,8.050109899999999C16.948894006347658,8.050109899999999,18.36309400634766,6.63589,18.36309400634766,6.63589C17.493494006347657,5.7662599,16.483794006347658,5.1224699000000005,15.539694006347656,4.49956C14.574494006347656,3.8626869900000003,13.621374106347655,3.214697,12.690633806347655,2.2904310199999998C12.690633806347655,2.2904310199999998,11.281364006347657,3.7095689800000002,11.281364006347657,3.7095689800000002C11.281364006347657,3.7095689800000002,11.281364006347657,3.7095689800000002,11.281364006347657,3.7095689800000002ZM16.949894006347655,8.0511298C17.600794006347655,8.7000899,18.116894006347657,9.4712701,18.468794006347657,10.3203602C18.468794006347657,10.3203602,20.316395006347655,9.554770000000001,20.316395006347655,9.554770000000001C19.863694006347657,8.462210200000001,19.199494006347656,7.4699001,18.362094006347654,6.6348701000000005C18.362094006347654,6.6348701000000005,16.949894006347655,8.0511298,16.949894006347655,8.0511298C16.949894006347655,8.0511298,16.949894006347655,8.0511298,16.949894006347655,8.0511298ZM18.468794006347657,10.3203602C18.820594006347655,11.1694498,19.001094006347657,12.0797005,18.999994006347656,12.9987898C18.999994006347656,12.9987898,20.999994006347656,13.0012,20.999994006347656,13.0012C21.001394006347656,11.8185797,20.769094006347657,10.6473298,20.316395006347655,9.554770000000001C20.316395006347655,9.554770000000001,18.468794006347657,10.3203602,18.468794006347657,10.3203602C18.468794006347657,10.3203602,18.468794006347657,10.3203602,18.468794006347657,10.3203602ZM18.999994006347656,13.0013C19.001194006347657,13.9204,18.820794006347654,14.8306,18.469194006347657,15.6797C18.469194006347657,15.6797,20.316895006347657,16.445,20.316895006347657,16.445C20.769394006347657,15.3524,21.001595006347657,14.1812,20.999994006347656,12.9986601C20.999994006347656,12.9986601,18.999994006347656,13.0013,18.999994006347656,13.0013C18.999994006347656,13.0013,18.999994006347656,13.0013,18.999994006347656,13.0013ZM18.469194006347657,15.6797C18.117494006347655,16.5288,17.601494006347657,17.3,16.950794006347657,17.948999999999998C16.950794006347657,17.948999999999998,18.363194006347655,19.365,18.363194006347655,19.365C19.200494006347654,18.529899999999998,19.864394006347656,17.5375,20.316895006347657,16.445C20.316895006347657,16.445,18.469194006347657,15.6797,18.469194006347657,15.6797C18.469194006347657,15.6797,18.469194006347657,15.6797,18.469194006347657,15.6797Z" fill="#0A0A28" fill-opacity="1"/><path d="M9.87900001,16.1209998C9.87900001,16.1209998,10.5862,15.41399,10.5862,15.41399C10.5862,15.41399,10.5855,15.41329,10.5855,15.41329C10.5855,15.41329,9.87900001,16.1209998,9.87900001,16.1209998C9.87900001,16.1209998,9.87900001,16.1209998,9.87900001,16.1209998ZM12.0150001,11C12.0150001,11,12.0197999,10.00001198,12.0197999,10.00001198C11.5892601,9.99795,11.205729999999999,10.27168,11.06775,10.67951301C11.06775,10.67951301,12.0150001,11,12.0150001,11C12.0150001,11,12.0150001,11,12.0150001,11ZM11,14C11,14,11,15,11,15C11.4287801,15,11.80984,14.72665,11.9472499,14.3204899C11.9472499,14.3204899,11,14,11,14C11,14,11,14,11,14ZM9,14C9,14,9,13,9,13C8.44771498,13,8,13.4477201,8,14C8,14,9,14,9,14C9,14,9,14,9,14ZM9.17179801,16.8280101C9.63631499,17.2926502,10.20813,17.6357198,10.83672,17.82689C10.83672,17.82689,11.4186599,15.9134302,11.4186599,15.9134302C11.1043701,15.8178401,10.81846,15.6463099,10.5862,15.41399C10.5862,15.41399,9.17179801,16.8280101,9.17179801,16.8280101C9.17179801,16.8280101,9.17179801,16.8280101,9.17179801,16.8280101ZM10.83672,17.82689C11.4653101,18.0180602,12.13131,18.0514598,12.7758601,17.9241199C12.7758601,17.9241199,12.3882401,15.9620399,12.3882401,15.9620399C12.0659599,16.0257101,11.73296,16.0090199,11.4186599,15.9134302C11.4186599,15.9134302,10.83672,17.82689,10.83672,17.82689C10.83672,17.82689,10.83672,17.82689,10.83672,17.82689ZM12.7758601,17.9241199C13.420420199999999,17.7967801,14.0236902,17.51263,14.5323501,17.0967798C14.5323501,17.0967798,13.26648,15.5483699,13.26648,15.5483699C13.0121498,15.7563,12.71051,15.898369800000001,12.3882401,15.9620399C12.3882401,15.9620399,12.7758601,17.9241199,12.7758601,17.9241199C12.7758601,17.9241199,12.7758601,17.9241199,12.7758601,17.9241199ZM14.5323501,17.0967798C15.041009899999999,16.6809301,15.439410200000001,16.1461902,15.6923399,15.5398102C15.6923399,15.5398102,13.846469899999999,14.7698901,13.846469899999999,14.7698901C13.7200098,15.0730801,13.5208101,15.3404498,13.26648,15.5483699C13.26648,15.5483699,14.5323501,17.0967798,14.5323501,17.0967798C14.5323501,17.0967798,14.5323501,17.0967798,14.5323501,17.0967798ZM15.6923399,15.5398102C15.945260000000001,14.93343,16.04493,14.27408,15.9825201,13.6200399C15.9825201,13.6200399,13.99156,13.809999900000001,13.99156,13.809999900000001C14.0227699,14.1370201,13.97293,14.4667001,13.846469899999999,14.7698901C13.846469899999999,14.7698901,15.6923399,15.5398102,15.6923399,15.5398102C15.6923399,15.5398102,15.6923399,15.5398102,15.6923399,15.5398102ZM15.9825201,13.6200399C15.9201198,12.9659899,15.6975598,12.3373899,15.3345299,11.78978002C15.3345299,11.78978002,13.667570099999999,12.894870000000001,13.667570099999999,12.894870000000001C13.8490901,13.16868,13.960360099999999,13.48298,13.99156,13.809999900000001C13.99156,13.809999900000001,15.9825201,13.6200399,15.9825201,13.6200399C15.9825201,13.6200399,15.9825201,13.6200399,15.9825201,13.6200399ZM15.3345299,11.78978002C14.971499900000001,11.24217001,14.479169800000001,10.79241399,13.901050099999999,10.480259C13.901050099999999,10.480259,12.95083,12.24011,12.95083,12.24011C13.2398901,12.39619,13.4860501,12.62107,13.667570099999999,12.894870000000001C13.667570099999999,12.894870000000001,15.3345299,11.78978002,15.3345299,11.78978002C15.3345299,11.78978002,15.3345299,11.78978002,15.3345299,11.78978002ZM13.901050099999999,10.480259C13.322919800000001,10.16810501,12.67681,10.003163990000001,12.0197999,10.00001198C12.0197999,10.00001198,12.010200000000001,11.99998802,12.010200000000001,11.99998802C12.3387101,12.00156,12.6617601,12.08404,12.95083,12.24011C12.95083,12.24011,13.901050099999999,10.480259,13.901050099999999,10.480259C13.901050099999999,10.480259,13.901050099999999,10.480259,13.901050099999999,10.480259ZM11.06775,10.67951301C11.06775,10.67951301,10.05275,13.6795101,10.05275,13.6795101C10.05275,13.6795101,11.9472499,14.3204899,11.9472499,14.3204899C11.9472499,14.3204899,12.962250000000001,11.32048699,12.962250000000001,11.32048699C12.962250000000001,11.32048699,11.06775,10.67951301,11.06775,10.67951301C11.06775,10.67951301,11.06775,10.67951301,11.06775,10.67951301ZM11,13C11,13,9,13,9,13C9,13,9,15,9,15C9,15,11,15,11,15C11,15,11,13,11,13C11,13,11,13,11,13ZM8,14C8,15.022240199999999,8.39076197,16.0483098,9.172497,16.828710100000002C9.172497,16.828710100000002,10.5855,15.41329,10.5855,15.41329C10.19524,15.0236902,10,14.513760099999999,10,14C10,14,8,14,8,14C8,14,8,14,8,14Z" fill="#0A0A28" fill-opacity="1"/></g></svg>