<svg xmlns="http://www.w3.org/2000/svg" xmlns:xlink="http://www.w3.org/1999/xlink" fill="none" version="1.1" width="24" height="24" viewBox="0 0 24 24"><defs><clipPath id="master_svg0_3_2208"><rect x="0" y="0" width="24" height="24" rx="0"/></clipPath></defs><g clip-path="url(#master_svg0_3_2208)"><path d="M2,21C2,21.552299,2.4477149799999998,22,3,22C3.5522850200000002,22,4,21.552299,4,21C4,21,2,21,2,21C2,21,2,21,2,21ZM5,3C5,3,5,2,5,2C5,2,5,3,5,3C5,3,5,3,5,3ZM11.5,3C11.5,3,12.2071104,2.29289299,12.2071104,2.29289299C12.0195704,2.1053569899999998,11.7652197,2,11.5,2C11.5,2,11.5,3,11.5,3C11.5,3,11.5,3,11.5,3ZM12.5,4C12.5,4,11.7928896,4.70711,11.7928896,4.70711C11.9804296,4.89464,12.2347803,5,12.5,5C12.5,5,12.5,4,12.5,4C12.5,4,12.5,4,12.5,4ZM21,4C21,4,21.8944,4.44721,21.8944,4.44721C22.0494,4.13723,22.0329,3.76908499,21.8507,3.474269C21.6684,3.179452,21.3466,2.9999999999999996,21,2.9999999999999996C21,2.9999999999999996,21,4,21,4C21,4,21,4,21,4ZM18,10C18,10,17.105600000000003,9.5527902,17.105600000000003,9.5527902C16.9648,9.8343101,16.9648,10.1656899,17.105600000000003,10.4472098C17.105600000000003,10.4472098,18,10,18,10C18,10,18,10,18,10ZM21,16C21,16,21,17,21,17C21.3466,17,21.6684,16.8205,21.8507,16.5257C22.0329,16.2309,22.0494,15.8628,21.8944,15.5528C21.8944,15.5528,21,16,21,16C21,16,21,16,21,16ZM12.5,16C12.5,16,11.7928896,16.7071,11.7928896,16.7071C11.9804296,16.8946,12.2347803,17,12.5,17C12.5,17,12.5,16,12.5,16C12.5,16,12.5,16,12.5,16ZM11.5,15C11.5,15,12.2071104,14.2929,12.2071104,14.2929C12.0195704,14.1054,11.7652197,14,11.5,14C11.5,14,11.5,15,11.5,15C11.5,15,11.5,15,11.5,15ZM13,3.5C13,2.9477152,12.55229,2.5,12,2.5C11.44771,2.5,11,2.9477152,11,3.5C11,3.5,13,3.5,13,3.5C13,3.5,13,3.5,13,3.5ZM11,9C11,9.5522799,11.44771,10,12,10C12.55229,10,13,9.5522799,13,9C13,9,11,9,11,9C11,9,11,9,11,9ZM4,21C4,21,4,17,4,17C4,17,2,17,2,17C2,17,2,21,2,21C2,21,4,21,4,21C4,21,4,21,4,21ZM4,17C4,17,4,5,4,5C4,5,2,5,2,5C2,5,2,17,2,17C2,17,4,17,4,17C4,17,4,17,4,17ZM4,5C4,4.73478,4.10536,4.48043,4.29289,4.29289C4.29289,4.29289,2.87868,2.87868,2.87868,2.87868C2.3160700199999997,3.44128901,2,4.20435,2,5C2,5,4,5,4,5C4,5,4,5,4,5ZM4.29289,4.29289C4.48043,4.10536,4.73478,4,5,4C5,4,5,2,5,2C4.20435,2,3.44128901,2.3160700199999997,2.87868,2.87868C2.87868,2.87868,4.29289,4.29289,4.29289,4.29289C4.29289,4.29289,4.29289,4.29289,4.29289,4.29289ZM5,4C5,4,11.5,4,11.5,4C11.5,4,11.5,2,11.5,2C11.5,2,5,2,5,2C5,2,5,4,5,4C5,4,5,4,5,4ZM10.792890100000001,3.70710701C10.792890100000001,3.70710701,11.7928896,4.70711,11.7928896,4.70711C11.7928896,4.70711,13.2071,3.29289299,13.2071,3.29289299C13.2071,3.29289299,12.2071104,2.29289299,12.2071104,2.29289299C12.2071104,2.29289299,10.792890100000001,3.70710701,10.792890100000001,3.70710701C10.792890100000001,3.70710701,10.792890100000001,3.70710701,10.792890100000001,3.70710701ZM12.5,5C12.5,5,21,5,21,5C21,5,21,3,21,3C21,3,12.5,3,12.5,3C12.5,3,12.5,5,12.5,5C12.5,5,12.5,5,12.5,5ZM20.1056,3.55278599C20.1056,3.55278599,17.105600000000003,9.5527902,17.105600000000003,9.5527902C17.105600000000003,9.5527902,18.894399999999997,10.4472098,18.894399999999997,10.4472098C18.894399999999997,10.4472098,21.8944,4.44721,21.8944,4.44721C21.8944,4.44721,20.1056,3.55278599,20.1056,3.55278599C20.1056,3.55278599,20.1056,3.55278599,20.1056,3.55278599ZM17.105600000000003,10.4472098C17.105600000000003,10.4472098,20.1056,16.447200000000002,20.1056,16.447200000000002C20.1056,16.447200000000002,21.8944,15.5528,21.8944,15.5528C21.8944,15.5528,18.894399999999997,9.5527902,18.894399999999997,9.5527902C18.894399999999997,9.5527902,17.105600000000003,10.4472098,17.105600000000003,10.4472098C17.105600000000003,10.4472098,17.105600000000003,10.4472098,17.105600000000003,10.4472098ZM21,15C21,15,12.5,15,12.5,15C12.5,15,12.5,17,12.5,17C12.5,17,21,17,21,17C21,17,21,15,21,15C21,15,21,15,21,15ZM13.2071,15.2929C13.2071,15.2929,12.2071104,14.2929,12.2071104,14.2929C12.2071104,14.2929,10.792890100000001,15.7071,10.792890100000001,15.7071C10.792890100000001,15.7071,11.7928896,16.7071,11.7928896,16.7071C11.7928896,16.7071,13.2071,15.2929,13.2071,15.2929C13.2071,15.2929,13.2071,15.2929,13.2071,15.2929ZM11.5,14C11.5,14,5,14,5,14C5,14,5,16,5,16C5,16,11.5,16,11.5,16C11.5,16,11.5,14,11.5,14C11.5,14,11.5,14,11.5,14ZM5,14C4.20435,14,3.44128799,14.3161,2.87868,14.8787C2.87868,14.8787,4.29289,16.2929,4.29289,16.2929C4.48043,16.1054,4.73478,16,5,16C5,16,5,14,5,14C5,14,5,14,5,14ZM2.87868,14.8787C2.3160700199999997,15.4413,2,16.2044,2,17C2,17,4,17,4,17C4,16.7348,4.10536,16.4804,4.29289,16.2929C4.29289,16.2929,2.87868,14.8787,2.87868,14.8787C2.87868,14.8787,2.87868,14.8787,2.87868,14.8787ZM11,3.5C11,3.5,11,9,11,9C11,9,13,9,13,9C13,9,13,3.5,13,3.5C13,3.5,11,3.5,11,3.5C11,3.5,11,3.5,11,3.5Z" fill="#0A0A28" fill-opacity="1"/></g></svg>