<svg xmlns="http://www.w3.org/2000/svg" xmlns:xlink="http://www.w3.org/1999/xlink" fill="none" version="1.1" width="24" height="24" viewBox="0 0 24 24"><defs><clipPath id="master_svg0_3_1714"><rect x="0" y="0" width="24" height="24" rx="0"/></clipPath></defs><g clip-path="url(#master_svg0_3_1714)"><path d="M3.5999755859375,7.1999756859375C3.5999755859375004,6.2451955859375,3.9792608059375,5.3295236859375,4.6543916859375,4.6543916859375C5.3295236859375,3.9792608059375,6.2451955859375,3.599975585937501,7.1999756859375,3.5999755859375C7.1999756859375,3.5999755859375,19.1999755859375,3.5999755859375,19.1999755859375,3.5999755859375C19.4228165859375,3.5999755859375,19.6413365859375,3.6620332259375,19.8308165859375,3.7791943959375C20.0204165859375,3.8963564059375,20.1736565859375,4.0639927959375,20.2732565859375,4.2633187759375C20.3729765859375,4.4626460059375,20.4150965859375,4.6857883859375,20.3951755859375,4.9077475859375C20.3751355859375,5.1296996859375,20.2936555859375,5.3416915859375,20.1599765859375,5.5199756859375C20.1599765859375,5.5199756859375,17.099976585937497,9.5999755859375,17.099976585937497,9.5999755859375C17.099976585937497,9.5999755859375,20.1599765859375,13.6799755859375,20.1599765859375,13.6799755859375C20.2936555859375,13.8582595859375,20.3751355859375,14.0702525859375,20.3951755859375,14.2922035859375C20.4150965859375,14.5141675859375,20.3729765859375,14.7373075859375,20.2732565859375,14.9366285859375C20.1736565859375,15.1359605859375,20.0204165859375,15.3036005859375,19.8308165859375,15.4207555859375C19.6413365859375,15.5379235859375,19.4228165859375,15.5999755859375,19.1999755859375,15.5999755859375C19.1999755859375,15.5999755859375,7.1999756859375,15.5999755859375,7.1999756859375,15.5999755859375C6.8817116859375,15.5999755859375,6.5764915859375,15.7264565859375,6.3514437859375,15.9514555859375C6.1264075859375,16.1764565859375,5.9999756859375,16.481736585937497,5.9999756859375,16.7999765859375C5.9999756859375,16.7999765859375,5.9999756859375,20.3999765859375,5.9999756859375,20.3999765859375C5.9999756859375,20.7182155859375,5.8735437859375,21.0234965859375,5.6485077859375,21.2484965859375C5.4234596859375,21.4734955859375,5.1182397859375,21.5999755859375,4.7999755859375,21.5999755859375C4.4817164559375,21.5999755859375,4.1764916159375,21.4734955859375,3.9514471859375,21.2484965859375C3.7264039959375,21.0234965859375,3.5999755859375004,20.7182155859375,3.5999755859375,20.3999765859375C3.5999755859375,20.3999765859375,3.5999755859375,7.1999756859375,3.5999755859375,7.1999756859375C3.5999755859375,7.1999756859375,3.5999755859375,7.1999756859375,3.5999755859375,7.1999756859375Z" fill-rule="evenodd" fill="#0A0A28" fill-opacity="1"/></g></svg>