<svg xmlns="http://www.w3.org/2000/svg" xmlns:xlink="http://www.w3.org/1999/xlink" fill="none" version="1.1" width="24" height="24" viewBox="0 0 24 24"><defs><clipPath id="master_svg0_3_1692"><rect x="0" y="0" width="24" height="24" rx="0"/></clipPath></defs><g clip-path="url(#master_svg0_3_1692)"><path d="M2.4000244140625,7.19998789296875C2.4000244140624996,6.56347189296875,2.6528812340625,5.95301869296875,3.1029676240625,5.50293100296875C3.5530553140625,5.05284461296875,4.1635085140625,4.799987792968751,4.8000245140625,4.79998779296875C4.8000245140625,4.79998779296875,10.8000250140625,4.79998779296875,10.8000250140625,4.79998779296875C10.8000250140625,4.79998779296875,13.2000244140625,7.19998789296875,13.2000244140625,7.19998789296875C13.2000244140625,7.19998789296875,19.2000254140625,7.19998789296875,19.2000254140625,7.19998789296875C19.8365054140625,7.19998789296875,20.4469454140625,7.4528398929687505,20.8970644140625,7.90293579296875C21.3471854140625,8.35301999296875,21.6000254140625,8.96347189296875,21.6000254140625,9.59998799296875C21.6000254140625,9.59998799296875,21.6000254140625,16.79998779296875,21.6000254140625,16.79998779296875C21.6000254140625,17.43646879296875,21.3471854140625,18.04690879296875,20.8970644140625,18.49702879296875C20.4469454140625,18.94714879296875,19.8365054140625,19.19998879296875,19.2000254140625,19.19998879296875C19.2000254140625,19.19998879296875,4.8000245140625,19.19998879296875,4.8000245140625,19.19998879296875C4.1635085140625,19.19998879296875,3.5530553140625,18.94714879296875,3.1029676240625,18.49702879296875C2.6528812340625,18.04690879296875,2.4000244140625004,17.43646879296875,2.4000244140625,16.79998779296875C2.4000244140625,16.79998779296875,2.4000244140625,7.19998789296875,2.4000244140625,7.19998789296875C2.4000244140625,7.19998789296875,2.4000244140625,7.19998789296875,2.4000244140625,7.19998789296875Z" fill="#0A0A28" fill-opacity="1"/></g></svg>