<svg xmlns="http://www.w3.org/2000/svg" xmlns:xlink="http://www.w3.org/1999/xlink" fill="none" version="1.1" width="24" height="24" viewBox="0 0 24 24"><defs><clipPath id="master_svg0_3_1773"><rect x="0" y="0" width="24" height="24" rx="0"/></clipPath></defs><g clip-path="url(#master_svg0_3_1773)"><path d="M2.4000244140625,7.19998789296875C2.4000244140624996,6.56347189296875,2.6528812340625,5.95301869296875,3.1029676240625,5.50293100296875C3.5530553140625,5.05284461296875,4.1635085140625,4.799987792968751,4.8000245140625,4.79998779296875C4.8000245140625,4.79998779296875,9.6000247140625,4.79998779296875,9.6000247140625,4.79998779296875C9.6000247140625,4.79998779296875,12.0000248140625,7.19998789296875,12.0000248140625,7.19998789296875C12.0000248140625,7.19998789296875,16.8000254140625,7.19998789296875,16.8000254140625,7.19998789296875C17.436505414062502,7.19998789296875,18.0469444140625,7.4528398929687505,18.4970644140625,7.90293579296875C18.9471854140625,8.35301999296875,19.2000254140625,8.96347189296875,19.2000254140625,9.59998799296875C19.2000254140625,9.59998799296875,19.2000254140625,10.79998779296875,19.2000254140625,10.79998779296875C19.2000254140625,10.79998779296875,9.6000247140625,10.79998779296875,9.6000247140625,10.79998779296875C8.6452446140625,10.79998779296875,7.7295723140625,11.17927219296875,7.0544405140625,11.85440449296875C6.3793087140625,12.529535792968751,6.0000245140625,13.44520859296875,6.0000245140625,14.39998819296875C6.0000245140625,14.39998819296875,6.0000245140625,16.19998879296875,6.0000245140625,16.19998879296875C6.0000245140625,16.67737279296875,5.8103764140625,17.135267792968747,5.4728165140625,17.47282879296875C5.1352565140625,17.81038879296875,4.6774084140625,17.99998879296875,4.2000245140625,17.99998879296875C3.7226405140625003,17.99998879296875,3.2647972740625,17.81038879296875,2.9272324440625,17.47282879296875C2.5896664140625,17.135267792968747,2.4000244211761603,16.67737279296875,2.4000244140625,16.19998879296875C2.4000244140625,16.19998879296875,2.4000244140625,7.19998789296875,2.4000244140625,7.19998789296875C2.4000244140625,7.19998789296875,2.4000244140625,7.19998789296875,2.4000244140625,7.19998789296875Z" fill-rule="evenodd" fill="#0A0A28" fill-opacity="1"/><path d="M7.2000246140625,14.4000001C7.2000246140625,13.7634841,7.4528766140625,13.1530321,7.9029727140625,12.7029444C8.3530564140625,12.25285682,8.9635091140625,12,9.6000247140625,12.000000000000002C9.6000247140625,12.000000000000002,19.2000254140625,12.000000000000002,19.2000254140625,12.000000000000002C19.8365054140625,12.000000000000002,20.4469454140625,12.25285682,20.8970644140625,12.7029444C21.3471854140625,13.1530321,21.6000254140625,13.7634841,21.6000254140625,14.4000001C21.6000254140625,14.4000001,21.6000254140625,16.8000002,21.6000254140625,16.8000002C21.6000254140625,17.4365158,21.3471854140625,18.0469685,20.8970644140625,18.4970522C20.4469454140625,18.947148300000002,19.8365054140625,19.2000003,19.2000254140625,19.2000003C19.2000254140625,19.2000003,2.4000244140625,19.2000003,2.4000244140625,19.2000003C2.4000244140625,19.2000003,4.8000245140625,19.2000003,4.8000245140625,19.2000003C5.436540614062499,19.2000003,6.0469925140625005,18.947148300000002,6.4970765140625,18.4970522C6.9471726140625,18.0469685,7.2000246140625,17.4365158,7.2000246140625,16.8000002C7.2000246140625,16.8000002,7.2000246140625,14.4000001,7.2000246140625,14.4000001C7.2000246140625,14.4000001,7.2000246140625,14.4000001,7.2000246140625,14.4000001Z" fill="#0A0A28" fill-opacity="1"/></g></svg>