<svg xmlns="http://www.w3.org/2000/svg" xmlns:xlink="http://www.w3.org/1999/xlink" fill="none" version="1.1" width="24" height="24" viewBox="0 0 24 24"><defs><clipPath id="master_svg0_3_1990"><rect x="0" y="0" width="24" height="24" rx="0"/></clipPath></defs><g clip-path="url(#master_svg0_3_1990)"><path d="M3,7C3,7,2,7,2,7C2,7,3,7,3,7C3,7,3,7,3,7ZM3,17C3,17,2,17,2,17C2,17,3,17,3,17C3,17,3,17,3,17ZM19,7C19,7,19,6,19,6C19,6,19,7,19,7C19,7,19,7,19,7ZM13,7C13,7,12.2928896,7.7071099,12.2928896,7.7071099C12.4804296,7.89464,12.7347803,8,13,8C13,8,13,7,13,7C13,7,13,7,13,7ZM11,5C11,5,11.7071104,4.29289299,11.7071104,4.29289299C11.5195704,4.10535699,11.2652197,4,11,4C11,4,11,5,11,5C11,5,11,5,11,5ZM5,5C5,5,5,4,5,4C5,4,5,5,5,5C5,5,5,5,5,5ZM2,7C2,7,2,17,2,17C2,17,4,17,4,17C4,17,4,7,4,7C4,7,2,7,2,7C2,7,2,7,2,7ZM2,17C2,17.7956,2.3160700199999997,18.5587,2.87868,19.121299999999998C2.87868,19.121299999999998,4.29289,17.7071,4.29289,17.7071C4.10536,17.5196,4,17.2652,4,17C4,17,2,17,2,17C2,17,2,17,2,17ZM2.87868,19.121299999999998C3.44128799,19.6839,4.20435,20,5,20C5,20,5,18,5,18C4.73478,18,4.48043,17.8946,4.29289,17.7071C4.29289,17.7071,2.87868,19.121299999999998,2.87868,19.121299999999998C2.87868,19.121299999999998,2.87868,19.121299999999998,2.87868,19.121299999999998ZM5,20C5,20,19,20,19,20C19,20,19,18,19,18C19,18,5,18,5,18C5,18,5,20,5,20C5,20,5,20,5,20ZM19,20C19.7957,20,20.558701,19.6839,21.1213,19.121299999999998C21.1213,19.121299999999998,19.7071,17.7071,19.7071,17.7071C19.5196,17.8946,19.2652,18,19,18C19,18,19,20,19,20C19,20,19,20,19,20ZM21.1213,19.121299999999998C21.683901,18.5587,22,17.7957,22,17C22,17,20,17,20,17C20,17.2652,19.8946,17.5196,19.7071,17.7071C19.7071,17.7071,21.1213,19.121299999999998,21.1213,19.121299999999998C21.1213,19.121299999999998,21.1213,19.121299999999998,21.1213,19.121299999999998ZM22,17C22,17,22,9,22,9C22,9,20,9,20,9C20,9,20,17,20,17C20,17,22,17,22,17C22,17,22,17,22,17ZM22,9C22,8.20435,21.683901,7.4412899,21.1213,6.87868C21.1213,6.87868,19.7071,8.292890100000001,19.7071,8.292890100000001C19.8946,8.4804299,20,8.7347801,20,9C20,9,22,9,22,9C22,9,22,9,22,9ZM21.1213,6.87868C20.558701,6.31607,19.7957,6,19,6C19,6,19,8,19,8C19.2652,8,19.5196,8.105360000000001,19.7071,8.292890100000001C19.7071,8.292890100000001,21.1213,6.87868,21.1213,6.87868C21.1213,6.87868,21.1213,6.87868,21.1213,6.87868ZM19,6C19,6,13,6,13,6C13,6,13,8,13,8C13,8,19,8,19,8C19,8,19,6,19,6C19,6,19,6,19,6ZM13.7071,6.29289C13.7071,6.29289,11.7071104,4.29289299,11.7071104,4.29289299C11.7071104,4.29289299,10.292890100000001,5.70710701,10.292890100000001,5.70710701C10.292890100000001,5.70710701,12.2928896,7.7071099,12.2928896,7.7071099C12.2928896,7.7071099,13.7071,6.29289,13.7071,6.29289C13.7071,6.29289,13.7071,6.29289,13.7071,6.29289ZM11,4C11,4,5,4,5,4C5,4,5,6,5,6C5,6,11,6,11,6C11,6,11,4,11,4C11,4,11,4,11,4ZM5,4C4.20435,4,3.44128901,4.31607002,2.87868,4.87868C2.87868,4.87868,4.29289,6.29289,4.29289,6.29289C4.48043,6.10536,4.73478,6,5,6C5,6,5,4,5,4C5,4,5,4,5,4ZM2.87868,4.87868C2.3160700199999997,5.44128901,2,6.20435,2,7C2,7,4,7,4,7C4,6.73478,4.10536,6.48043,4.29289,6.29289C4.29289,6.29289,2.87868,4.87868,2.87868,4.87868C2.87868,4.87868,2.87868,4.87868,2.87868,4.87868Z" fill="#0A0A28" fill-opacity="1"/></g></svg>