<svg xmlns="http://www.w3.org/2000/svg" xmlns:xlink="http://www.w3.org/1999/xlink" fill="none" version="1.1" width="24" height="24" viewBox="0 0 24 24"><defs><clipPath id="master_svg0_3_1631"><rect x="0" y="0" width="24" height="24" rx="0"/></clipPath></defs><g clip-path="url(#master_svg0_3_1631)"><path d="M4.8000245140625,4.79998779296875C3.4740244140625,4.79998779296875,2.4000244140625,5.87398779296875,2.4000244140625,7.19998789296875C2.4000244140625,7.19998789296875,2.4000244140625,16.79998779296875,2.4000244140625,16.79998779296875C2.4000244140625,18.12598779296875,3.4740244140625,19.19998879296875,4.8000245140625,19.19998879296875C4.8000245140625,19.19998879296875,19.2000254140625,19.19998879296875,19.2000254140625,19.19998879296875C20.5260234140625,19.19998879296875,21.6000254140625,18.12598779296875,21.6000254140625,16.79998779296875C21.6000254140625,16.79998779296875,21.6000254140625,9.59998799296875,21.6000254140625,9.59998799296875C21.6000254140625,8.273987992968749,20.5260234140625,7.19998789296875,19.2000254140625,7.19998789296875C19.2000254140625,7.19998789296875,13.2000244140625,7.19998789296875,13.2000244140625,7.19998789296875C13.2000244140625,7.19998789296875,10.8000250140625,4.79998779296875,10.8000250140625,4.79998779296875C10.8000250140625,4.79998779296875,4.8000245140625,4.79998779296875,4.8000245140625,4.79998779296875C4.8000245140625,4.79998779296875,4.8000245140625,4.79998779296875,4.8000245140625,4.79998779296875ZM13.2000244140625,10.79998779296875C13.2000244140625,10.13758799296875,12.6624254140625,9.59998799296875,12.0000248140625,9.59998799296875C11.3376245140625,9.59998799296875,10.8000250140625,10.13758799296875,10.8000250140625,10.79998779296875C10.8000250140625,10.79998779296875,10.8000250140625,11.99998809296875,10.8000250140625,11.99998809296875C10.8000250140625,11.99998809296875,9.6000247140625,11.99998809296875,9.6000247140625,11.99998809296875C8.937624414062501,11.99998809296875,8.4000244140625,12.53758809296875,8.4000244140625,13.19998839296875C8.4000244140625,13.86238859296875,8.937624414062501,14.39998819296875,9.6000247140625,14.39998819296875C9.6000247140625,14.39998819296875,10.8000250140625,14.39998819296875,10.8000250140625,14.39998819296875C10.8000250140625,14.39998819296875,10.8000250140625,15.59998779296875,10.8000250140625,15.59998779296875C10.8000250140625,16.262387792968752,11.3376245140625,16.79998779296875,12.0000248140625,16.79998779296875C12.6624254140625,16.79998779296875,13.2000244140625,16.262387792968752,13.2000244140625,15.59998779296875C13.2000244140625,15.59998779296875,13.2000244140625,14.39998819296875,13.2000244140625,14.39998819296875C13.2000244140625,14.39998819296875,14.4000244140625,14.39998819296875,14.4000244140625,14.39998819296875C15.0624244140625,14.39998819296875,15.6000254140625,13.86238859296875,15.6000254140625,13.19998839296875C15.6000254140625,12.53758809296875,15.0624244140625,11.99998809296875,14.4000244140625,11.99998809296875C14.4000244140625,11.99998809296875,13.2000244140625,11.99998809296875,13.2000244140625,11.99998809296875C13.2000244140625,11.99998809296875,13.2000244140625,10.79998779296875,13.2000244140625,10.79998779296875C13.2000244140625,10.79998779296875,13.2000244140625,10.79998779296875,13.2000244140625,10.79998779296875Z" fill-rule="evenodd" fill="#0A0A28" fill-opacity="1"/></g></svg>