<svg xmlns="http://www.w3.org/2000/svg" xmlns:xlink="http://www.w3.org/1999/xlink" fill="none" version="1.1" width="24" height="24" viewBox="0 0 24 24"><defs><clipPath id="master_svg0_3_2064"><rect x="0" y="0" width="24" height="24" rx="0"/></clipPath></defs><g clip-path="url(#master_svg0_3_2064)"><path d="M3,17C3,17,2,17,2,17C2,17,3,17,3,17C3,17,3,17,3,17ZM5,5C5,5,5,4,5,4C5,4,5,5,5,5C5,5,5,5,5,5ZM9,5C9,5,9.707109899999999,4.29289299,9.707109899999999,4.29289299C9.5195699,4.10535699,9.2652202,4,9,4C9,4,9,5,9,5C9,5,9,5,9,5ZM11,7C11,7,10.292890100000001,7.7071099,10.292890100000001,7.7071099C10.4804301,7.89464,10.7347798,8,11,8C11,8,11,7,11,7C11,7,11,7,11,7ZM15,7C15,7,15,6,15,6C15,6,15,7,15,7C15,7,15,7,15,7ZM16,10C16,10.5522799,16.447699999999998,11,17,11C17.552300000000002,11,18,10.5522799,18,10C18,10,16,10,16,10C16,10,16,10,16,10ZM7,12C7,12,6,12,6,12C6,12,7,12,7,12C7,12,7,12,7,12ZM7,17C7,17,8,17,8,17C8,17,7,17,7,17C7,17,7,17,7,17ZM5,18C4.73478,18,4.48043,17.8946,4.29289,17.7071C4.29289,17.7071,2.87868,19.121299999999998,2.87868,19.121299999999998C3.44128799,19.6839,4.20435,20,5,20C5,20,5,18,5,18C5,18,5,18,5,18ZM4.29289,17.7071C4.10536,17.5196,4,17.2652,4,17C4,17,2,17,2,17C2,17.7956,2.3160700199999997,18.5587,2.87868,19.121299999999998C2.87868,19.121299999999998,4.29289,17.7071,4.29289,17.7071C4.29289,17.7071,4.29289,17.7071,4.29289,17.7071ZM4,17C4,17,4,7,4,7C4,7,2,7,2,7C2,7,2,17,2,17C2,17,4,17,4,17C4,17,4,17,4,17ZM4,7C4,6.73478,4.10536,6.48043,4.29289,6.29289C4.29289,6.29289,2.87868,4.87868,2.87868,4.87868C2.3160700199999997,5.44128901,2,6.20435,2,7C2,7,4,7,4,7C4,7,4,7,4,7ZM4.29289,6.29289C4.48043,6.10536,4.73478,6,5,6C5,6,5,4,5,4C4.20435,4,3.44128901,4.31607002,2.87868,4.87868C2.87868,4.87868,4.29289,6.29289,4.29289,6.29289C4.29289,6.29289,4.29289,6.29289,4.29289,6.29289ZM5,6C5,6,9,6,9,6C9,6,9,4,9,4C9,4,5,4,5,4C5,4,5,6,5,6C5,6,5,6,5,6ZM8.292890100000001,5.70710701C8.292890100000001,5.70710701,10.292890100000001,7.7071099,10.292890100000001,7.7071099C10.292890100000001,7.7071099,11.7071104,6.29289,11.7071104,6.29289C11.7071104,6.29289,9.707109899999999,4.29289299,9.707109899999999,4.29289299C9.707109899999999,4.29289299,8.292890100000001,5.70710701,8.292890100000001,5.70710701C8.292890100000001,5.70710701,8.292890100000001,5.70710701,8.292890100000001,5.70710701ZM11,8C11,8,15,8,15,8C15,8,15,6,15,6C15,6,11,6,11,6C11,6,11,8,11,8C11,8,11,8,11,8ZM15,8C15.2652,8,15.5196,8.105360000000001,15.7071,8.292890100000001C15.7071,8.292890100000001,17.121299999999998,6.87868,17.121299999999998,6.87868C16.5587,6.31607,15.7956,6,15,6C15,6,15,8,15,8C15,8,15,8,15,8ZM15.7071,8.292890100000001C15.8946,8.4804299,16,8.7347801,16,9C16,9,18,9,18,9C18,8.20435,17.6839,7.4412899,17.121299999999998,6.87868C17.121299999999998,6.87868,15.7071,8.292890100000001,15.7071,8.292890100000001C15.7071,8.292890100000001,15.7071,8.292890100000001,15.7071,8.292890100000001ZM16,9C16,9,16,10,16,10C16,10,18,10,18,10C18,10,18,9,18,9C18,9,16,9,16,9C16,9,16,9,16,9ZM5,20C5,20,19,20,19,20C19,20,19,18,19,18C19,18,5,18,5,18C5,18,5,20,5,20C5,20,5,20,5,20ZM19,20C19.7957,20,20.558701,19.6839,21.1213,19.121299999999998C21.1213,19.121299999999998,19.7071,17.7071,19.7071,17.7071C19.5196,17.8946,19.2652,18,19,18C19,18,19,20,19,20C19,20,19,20,19,20ZM21.1213,19.121299999999998C21.683901,18.5587,22,17.7957,22,17C22,17,20,17,20,17C20,17.2652,19.8946,17.5196,19.7071,17.7071C19.7071,17.7071,21.1213,19.121299999999998,21.1213,19.121299999999998C21.1213,19.121299999999998,21.1213,19.121299999999998,21.1213,19.121299999999998ZM22,17C22,17,22,12,22,12C22,12,20,12,20,12C20,12,20,17,20,17C20,17,22,17,22,17C22,17,22,17,22,17ZM22,12C22,11.20435,21.683901,10.441289900000001,21.1213,9.8786802C21.1213,9.8786802,19.7071,11.292890100000001,19.7071,11.292890100000001C19.8946,11.4804301,20,11.7347798,20,12C20,12,22,12,22,12C22,12,22,12,22,12ZM21.1213,9.8786802C20.558701,9.316070100000001,19.7957,9,19,9C19,9,19,11,19,11C19.2652,11,19.5196,11.105360000000001,19.7071,11.292890100000001C19.7071,11.292890100000001,21.1213,9.8786802,21.1213,9.8786802C21.1213,9.8786802,21.1213,9.8786802,21.1213,9.8786802ZM19,9C19,9,9,9,9,9C9,9,9,11,9,11C9,11,19,11,19,11C19,11,19,9,19,9C19,9,19,9,19,9ZM9,9C8.20435,9,7.4412899,9.316070100000001,6.87868,9.8786802C6.87868,9.8786802,8.292890100000001,11.292890100000001,8.292890100000001,11.292890100000001C8.4804301,11.105360000000001,8.7347798,11,9,11C9,11,9,9,9,9C9,9,9,9,9,9ZM6.87868,9.8786802C6.3160701,10.441289900000001,6,11.20435,6,12C6,12,8,12,8,12C8,11.7347798,8.105360000000001,11.4804301,8.292890100000001,11.292890100000001C8.292890100000001,11.292890100000001,6.87868,9.8786802,6.87868,9.8786802C6.87868,9.8786802,6.87868,9.8786802,6.87868,9.8786802ZM6,12C6,12,6,17,6,17C6,17,8,17,8,17C8,17,8,12,8,12C8,12,6,12,6,12C6,12,6,12,6,12ZM6,17C6,17.2652,5.89464,17.5196,5.7071099,17.7071C5.7071099,17.7071,7.1213198,19.121299999999998,7.1213198,19.121299999999998C7.6839299,18.5587,8,17.7956,8,17C8,17,6,17,6,17C6,17,6,17,6,17ZM5.7071099,17.7071C5.5195701,17.8946,5.2652199,18,5,18C5,18,5,20,5,20C5.79565,20,6.5587101,19.6839,7.1213198,19.121299999999998C7.1213198,19.121299999999998,5.7071099,17.7071,5.7071099,17.7071C5.7071099,17.7071,5.7071099,17.7071,5.7071099,17.7071Z" fill="#0A0A28" fill-opacity="1"/></g></svg>