<svg xmlns="http://www.w3.org/2000/svg" xmlns:xlink="http://www.w3.org/1999/xlink" fill="none" version="1.1" width="24" height="24" viewBox="0 0 24 24"><defs><clipPath id="master_svg0_3_1609"><rect x="0" y="0" width="24" height="24" rx="0"/></clipPath></defs><g clip-path="url(#master_svg0_3_1609)"><path d="M4.8000245140625,4.79998779296875C3.4740244140625,4.79998779296875,2.4000244140625,5.87398779296875,2.4000244140625,7.19998789296875C2.4000244140625,7.19998789296875,2.4000244140625,16.79998779296875,2.4000244140625,16.79998779296875C2.4000244140625,18.12598779296875,3.4740244140625,19.19998879296875,4.8000245140625,19.19998879296875C4.8000245140625,19.19998879296875,19.2000254140625,19.19998879296875,19.2000254140625,19.19998879296875C20.5260234140625,19.19998879296875,21.6000254140625,18.12598779296875,21.6000254140625,16.79998779296875C21.6000254140625,16.79998779296875,21.6000254140625,9.59998799296875,21.6000254140625,9.59998799296875C21.6000254140625,8.273987992968749,20.5260234140625,7.19998789296875,19.2000254140625,7.19998789296875C19.2000254140625,7.19998789296875,13.2000244140625,7.19998789296875,13.2000244140625,7.19998789296875C13.2000244140625,7.19998789296875,10.8000250140625,4.79998779296875,10.8000250140625,4.79998779296875C10.8000250140625,4.79998779296875,4.8000245140625,4.79998779296875,4.8000245140625,4.79998779296875C4.8000245140625,4.79998779296875,4.8000245140625,4.79998779296875,4.8000245140625,4.79998779296875ZM13.2000244140625,10.79998779296875C13.2000244140625,10.13758799296875,12.6624254140625,9.59998799296875,12.0000248140625,9.59998799296875C11.3376245140625,9.59998799296875,10.8000250140625,10.13758799296875,10.8000250140625,10.79998779296875C10.8000250140625,10.79998779296875,10.8000250140625,12.70318789296875,10.8000250140625,12.70318789296875C10.8000250140625,12.70318789296875,10.4484243140625,12.35162399296875,10.4484243140625,12.35162399296875C9.980424414062501,11.882423892968749,9.219625014062501,11.882423892968749,8.751625014062501,12.35162399296875C8.2824244140625,12.81962399296875,8.2824244140625,13.58035179296875,8.751625014062501,14.04835219296875C8.751625014062501,14.04835219296875,11.1516247140625,16.44835279296875,11.1516247140625,16.44835279296875C11.6196251140625,16.91758779296875,12.3804254140625,16.91758779296875,12.8484244140625,16.44835279296875C12.8484244140625,16.44835279296875,15.2484244140625,14.04835219296875,15.2484244140625,14.04835219296875C15.7176244140625,13.58035179296875,15.7176244140625,12.81962399296875,15.2484244140625,12.35162399296875C14.7804254140625,11.882423892968749,14.0196244140625,11.882423892968749,13.5516254140625,12.35162399296875C13.5516254140625,12.35162399296875,13.2000244140625,12.70318789296875,13.2000244140625,12.70318789296875C13.2000244140625,12.70318789296875,13.2000244140625,10.79998779296875,13.2000244140625,10.79998779296875C13.2000244140625,10.79998779296875,13.2000244140625,10.79998779296875,13.2000244140625,10.79998779296875Z" fill-rule="evenodd" fill="#0A0A28" fill-opacity="1"/></g></svg>