<svg xmlns="http://www.w3.org/2000/svg" xmlns:xlink="http://www.w3.org/1999/xlink" fill="none" version="1.1" width="24" height="24" viewBox="0 0 24 24"><defs><clipPath id="master_svg0_601_07443"><rect x="0" y="0" width="24" height="24" rx="0"/></clipPath></defs><g clip-path="url(#master_svg0_601_07443)"><path d="M20.699999,21.375927L3.30000067,21.375927C2.92720848,21.375927,2.62500068664548,21.073717,2.62500068664548,20.700926L2.62500068664548,3.30092674C2.62463333132,3.02763313,2.78909591,2.7810866499999998,3.04156607,2.676451948C3.29403627,2.571817245,3.5846864,2.6297451779,3.7777507,2.82317665L21.17775,20.223177C21.371719,20.41617,21.429991,20.70717,21.325289,20.95997C21.220585,21.21277,20.973625,21.37735,20.699999,21.376677L20.699999,21.375927ZM4.2152709999999995,19.486328L11.5,19.5L15.142395,19.505859L16.963562,19.509766L17.874176,19.510742L4.2152709999999995,5.8027344L4.2152709999999995,6.7148438L4.2152709999999995,8.5390625L4.2152709999999995,12.1884766L4.2152709999999995,19.486328Z" fill="#0A0A28" fill-opacity="1"/><path d="M12.435742866796875,17.462533462499998L7.215742826796875,17.462533462499998C6.842950616796875,17.462533462499998,6.540742797851675,17.1603250625,6.540742797851675,16.7875332625L6.540742797851675,11.5682833825C6.540069427456875,11.2946597325,6.704650116796875,11.0476980525,6.957450566796875,10.9429946875C7.210250556796875,10.8382913205,7.501250986796875,10.8965628049,7.694243166796875,11.0905337525L12.914243266796875,16.3105344625C13.107675066796876,16.5035991625,13.165603166796874,16.7942480625,13.060969366796876,17.0467190625C12.956333666796876,17.2991886625,12.709787866796875,17.4636502625,12.436493866796875,17.4632840625L12.435742866796875,17.462533462499998ZM7.8907428667968755,16.1125335625L10.805993566796875,16.1125335625L7.890743766796875,13.1972839625L7.8907428667968755,16.1125335625Z" fill="#0A0A28" fill-opacity="1"/><path d="M14.610760508046875,21.375703125C14.237967848046875,21.375703125,13.935760498046875,21.073494925,13.935760498046875,20.700703025L13.935760498046875,19.395703135C13.935760498046875,19.022911365,14.237967848046875,18.720703125,14.610760508046875,18.720703125C14.983553198046875,18.720703125,15.285760498046875,19.022911365,15.285760498046875,19.395703135L15.285760498046875,20.700703025C15.285760498046875,21.073494925,14.983553198046875,21.375703125,14.610760508046875,21.375703125Z" fill="#0A0A28" fill-opacity="1"/><path d="M12.00074463890625,21.375703125C11.62795197890625,21.375703125,11.32574462890625,21.073494925,11.32574462890625,20.700703025L11.32574462890625,19.395703135C11.32574462890625,19.022911365,11.62795197890625,18.720703125,12.00074463890625,18.720703125C12.37353732890625,18.720703125,12.67574462890625,19.022911365,12.67574462890625,19.395703135L12.67574462890625,20.700703025C12.67574462890625,21.073494925,12.37353732890625,21.375703125,12.00074463890625,21.375703125Z" fill="#0A0A28" fill-opacity="1"/><path d="M9.389996347890625,21.375703125C9.017204607890625,21.375703125,8.714997253418005,21.073494925,8.714996337890625,20.700703025L8.714996337890625,19.395703135C8.714997253418005,19.022911365,9.017204607890625,18.720703125,9.389997307890624,18.720703125C9.762789037890625,18.720703125,10.064997337890626,19.022911365,10.064996337890625,19.395703135L10.064996337890625,20.700703025C10.064997337890626,21.073494925,9.762789037890625,21.375703125,9.389996347890625,21.375703125Z" fill="#0A0A28" fill-opacity="1"/><path d="M6.780743418203125,21.375703125C6.407950758203125,21.375703125,6.105743408203125,21.073494925,6.105743408203125,20.700703025L6.105743408203125,19.395703135C6.105743408203125,19.022911365,6.407950758203125,18.720703125,6.780743418203125,18.720703125C7.1535361082031255,18.720703125,7.455743408203125,19.022911365,7.455743408203125,19.395703135L7.455743408203125,20.700703025C7.455743408203125,21.073494925,7.1535361082031255,21.375703125,6.780743418203125,21.375703125Z" fill="#0A0A28" fill-opacity="1"/><path d="M4.6050126394531254,17.894921875L3.300762709453125,17.894921875C2.927970739453125,17.894921875,2.625762939453125,17.592713675,2.625762939453125,17.219921885C2.625762939453125,16.847130145,2.927970739453125,16.544921875,3.300762709453125,16.544921875L4.6050126394531254,16.544921875C4.977804939453125,16.544921875,5.280012639453124,16.847130145,5.280012639453124,17.219921885C5.280012639453124,17.592713675,4.977804939453125,17.894921875,4.6050126394531254,17.894921875Z" fill="#0A0A28" fill-opacity="1"/><path d="M4.6050126394531254,15.2875L3.300762709453125,15.2875C2.927970739453125,15.287501,2.625762939453125,14.9852927,2.625762939453125,14.61250097C2.625762939453125,14.23970827,2.927970499453125,13.93750091552738,3.300762709453125,13.9375L4.6050126394531254,13.9375C4.977804939453125,13.93750091552738,5.280012639453124,14.23970827,5.280012639453124,14.61250097C5.280012639453124,14.9852927,4.977804939453125,15.287501,4.6050126394531254,15.2875Z" fill="#0A0A28" fill-opacity="1"/><path d="M4.6050126394531254,12.6751953125L3.300762709453125,12.6751953125C2.927970739453125,12.6751963125,2.625762939453125,12.3729880125,2.625762939453125,12.0001962825C2.625762939453125,11.6274035825,2.927970499453125,11.32519622802738,3.300762709453125,11.3251953125L4.6050126394531254,11.3251953125C4.977804939453125,11.32519622802738,5.280012639453124,11.6274035825,5.280012639453124,12.0001962825C5.280012639453124,12.3729880125,4.977804939453125,12.6751963125,4.6050126394531254,12.6751953125Z" fill="#0A0A28" fill-opacity="1"/><path d="M4.6050126394531254,10.0658203125L3.300762709453125,10.0658203125C2.927970739453125,10.0658203125,2.625762939453125,9.7636121125,2.625762939453125,9.3908203225C2.625762939453125,9.0180285825,2.927970739453125,8.7158203125,3.300762709453125,8.7158203125L4.6050126394531254,8.7158203125C4.977804939453125,8.7158203125,5.280012639453124,9.0180285825,5.280012639453124,9.3908203225C5.280012639453124,9.7636121125,4.977804939453125,10.0658203125,4.6050126394531254,10.0658203125Z" fill="#0A0A28" fill-opacity="1"/></g></svg>