<svg xmlns="http://www.w3.org/2000/svg" xmlns:xlink="http://www.w3.org/1999/xlink" fill="none" version="1.1" width="24" height="24" viewBox="0 0 24 24"><defs><clipPath id="master_svg0_3_2228"><rect x="0" y="0" width="24" height="24" rx="0"/></clipPath></defs><g clip-path="url(#master_svg0_3_2228)"><path d="M11,20.999998807907104C11,21.552297807907106,11.44771,21.999998807907104,12,21.999998807907104C12.55229,21.999998807907104,13,21.552297807907106,13,20.999998807907104C13,20.999998807907104,11,20.999998807907104,11,20.999998807907104C11,20.999998807907104,11,20.999998807907104,11,20.999998807907104ZM12,5.4999988079071045C12,5.4999988079071045,11,5.4999988079071045,11,5.4999988079071045C11,5.4999988079071045,12,5.4999988079071045,12,5.4999988079071045C12,5.4999988079071045,12,5.4999988079071045,12,5.4999988079071045ZM9.5,7.9999988079071045C9.5,7.9999988079071045,9.5,8.999998807907104,9.5,8.999998807907104C9.5,8.999998807907104,9.5,7.9999988079071045,9.5,7.9999988079071045C9.5,7.9999988079071045,9.5,7.9999988079071045,9.5,7.9999988079071045ZM3,9.999998807907104C3,9.999998807907104,2,9.999998807907104,2,9.999998807907104C2,9.999998807907104,3,9.999998807907104,3,9.999998807907104C3,9.999998807907104,3,9.999998807907104,3,9.999998807907104ZM5,7.9999988079071045C5,7.9999988079071045,5,8.999998807907104,5,8.999998807907104C5,8.999998807907104,5,7.9999988079071045,5,7.9999988079071045C5,7.9999988079071045,5,7.9999988079071045,5,7.9999988079071045ZM5,18.999998807907104C5,18.999998807907104,4,18.999998807907104,4,18.999998807907104C4,18.999998807907104,5,18.999998807907104,5,18.999998807907104C5,18.999998807907104,5,18.999998807907104,5,18.999998807907104ZM11,7.9999988079071045C11,7.9999988079071045,11,20.999998807907104,11,20.999998807907104C11,20.999998807907104,13,20.999998807907104,13,20.999998807907104C13,20.999998807907104,13,7.9999988079071045,13,7.9999988079071045C13,7.9999988079071045,11,7.9999988079071045,11,7.9999988079071045C11,7.9999988079071045,11,7.9999988079071045,11,7.9999988079071045ZM13,7.9999988079071045C13,7.9999988079071045,13,5.9999988079071045,13,5.9999988079071045C13,5.9999988079071045,11,5.9999988079071045,11,5.9999988079071045C11,5.9999988079071045,11,7.9999988079071045,11,7.9999988079071045C11,7.9999988079071045,13,7.9999988079071045,13,7.9999988079071045C13,7.9999988079071045,13,7.9999988079071045,13,7.9999988079071045ZM13,5.9999988079071045C13,5.802218907907104,13.0586,5.608878807907105,13.1685,5.444428907907104C13.1685,5.444428907907104,11.5055904,4.333288807907104,11.5055904,4.333288807907104C11.1759501,4.826638807907105,11,5.406658907907104,11,5.9999988079071045C11,5.9999988079071045,13,5.9999988079071045,13,5.9999988079071045C13,5.9999988079071045,13,5.9999988079071045,13,5.9999988079071045ZM13.1685,5.444428907907104C13.2784,5.279978707907104,13.4346,5.151808707907104,13.6173,5.076118707907105C13.6173,5.076118707907105,12.8519497,3.2283607979071043,12.8519497,3.2283607979071043C12.3037701,3.4554237979071045,11.8352404,3.8399417979071044,11.5055904,4.333288807907104C11.5055904,4.333288807907104,13.1685,5.444428907907104,13.1685,5.444428907907104C13.1685,5.444428907907104,13.1685,5.444428907907104,13.1685,5.444428907907104ZM13.6173,5.076118707907105C13.8,5.0004289079071045,14.0011,4.980628807907104,14.1951,5.019218907907105C14.1951,5.019218907907105,14.5853,3.0576439089071044,14.5853,3.0576439089071044C14.0033,2.9418882099071046,13.4001,3.0012982279071045,12.8519497,3.2283607979071043C12.8519497,3.2283607979071043,13.6173,5.076118707907105,13.6173,5.076118707907105C13.6173,5.076118707907105,13.6173,5.076118707907105,13.6173,5.076118707907105ZM14.1951,5.019218907907105C14.3891,5.057798907907104,14.5673,5.153038707907104,14.7071,5.292888907907105C14.7071,5.292888907907105,16.121299999999998,3.8786798079071048,16.121299999999998,3.8786798079071048C15.7018,3.4591217979071045,15.1672,3.1733998079071046,14.5853,3.0576439089071044C14.5853,3.0576439089071044,14.1951,5.019218907907105,14.1951,5.019218907907105C14.1951,5.019218907907105,14.1951,5.019218907907105,14.1951,5.019218907907105ZM14.7071,5.292888907907105C14.847,5.432748807907105,14.9422,5.610928807907104,14.9808,5.804908707907105C14.9808,5.804908707907105,16.9424,5.414728907907104,16.9424,5.414728907907104C16.8266,4.832788807907105,16.5409,4.298238707907105,16.121299999999998,3.8786798079071048C16.121299999999998,3.8786798079071048,14.7071,5.292888907907105,14.7071,5.292888907907105C14.7071,5.292888907907105,14.7071,5.292888907907105,14.7071,5.292888907907105ZM14.9808,5.804908707907105C15.0194,5.9988887079071045,14.9996,6.199958807907104,14.9239,6.382678707907104C14.9239,6.382678707907104,16.7716,7.148048607907104,16.7716,7.148048607907104C16.9987,6.599868807907105,17.0581,5.996668807907104,16.9424,5.414728907907104C16.9424,5.414728907907104,14.9808,5.804908707907105,14.9808,5.804908707907105C14.9808,5.804908707907105,14.9808,5.804908707907105,14.9808,5.804908707907105ZM14.9239,6.382678707907104C14.8482,6.565408707907105,14.72,6.7215888079071044,14.5556,6.831468807907104C14.5556,6.831468807907104,15.6667,8.494408807907105,15.6667,8.494408807907105C16.1601,8.164768907907105,16.544600000000003,7.696228707907104,16.7716,7.148048607907104C16.7716,7.148048607907104,14.9239,6.382678707907104,14.9239,6.382678707907104C14.9239,6.382678707907104,14.9239,6.382678707907104,14.9239,6.382678707907104ZM14.5556,6.831468807907104C14.3911,6.941348807907104,14.1978,6.9999988079071045,14,6.9999988079071045C14,6.9999988079071045,14,8.999998807907104,14,8.999998807907104C14.5933,8.999998807907104,15.1734,8.824048707907105,15.6667,8.494408807907105C15.6667,8.494408807907105,14.5556,6.831468807907104,14.5556,6.831468807907104C14.5556,6.831468807907104,14.5556,6.831468807907104,14.5556,6.831468807907104ZM14,6.9999988079071045C14,6.9999988079071045,12,6.9999988079071045,12,6.9999988079071045C12,6.9999988079071045,12,8.999998807907104,12,8.999998807907104C12,8.999998807907104,14,8.999998807907104,14,8.999998807907104C14,8.999998807907104,14,6.9999988079071045,14,6.9999988079071045C14,6.9999988079071045,14,6.9999988079071045,14,6.9999988079071045ZM13,7.9999988079071045C13,7.9999988079071045,13,5.4999988079071045,13,5.4999988079071045C13,5.4999988079071045,11,5.4999988079071045,11,5.4999988079071045C11,5.4999988079071045,11,7.9999988079071045,11,7.9999988079071045C11,7.9999988079071045,13,7.9999988079071045,13,7.9999988079071045C13,7.9999988079071045,13,7.9999988079071045,13,7.9999988079071045ZM13,5.4999988079071045C13,4.807768807907104,12.7947302,4.131078807907104,12.41014,3.5555037879071048C12.41014,3.5555037879071048,10.7472,4.6666489079071045,10.7472,4.6666489079071045C10.9120302,4.913318707907105,11,5.203328807907104,11,5.4999988079071045C11,5.4999988079071045,13,5.4999988079071045,13,5.4999988079071045C13,5.4999988079071045,13,5.4999988079071045,13,5.4999988079071045ZM12.41014,3.5555037879071048C12.0255604,2.9799320079071046,11.4789305,2.5313278179071044,10.8393898,2.2664217979071046C10.8393898,2.2664217979071046,10.0740299,4.114178807907105,10.0740299,4.114178807907105C10.3481102,4.227708807907105,10.5823798,4.419968807907105,10.7472,4.6666489079071045C10.7472,4.6666489079071045,12.41014,3.5555037879071048,12.41014,3.5555037879071048C12.41014,3.5555037879071048,12.41014,3.5555037879071048,12.41014,3.5555037879071048ZM10.8393898,2.2664217979071046C10.199850099999999,2.0015147879071042,9.496120000000001,1.9321988079071044,8.8171802,2.0672517979071046C8.8171802,2.0672517979071046,9.207359799999999,4.028818807907104,9.207359799999999,4.028818807907104C9.4983401,3.9709438079071044,9.7999401,4.000648807907105,10.0740299,4.114178807907105C10.0740299,4.114178807907105,10.8393898,2.2664217979071046,10.8393898,2.2664217979071046C10.8393898,2.2664217979071046,10.8393898,2.2664217979071046,10.8393898,2.2664217979071046ZM8.8171802,2.0672517979071046C8.1382499,2.2022998379071046,7.5146098,2.5356427979071046,7.0251298,3.0251262079071046C7.0251298,3.0251262079071046,8.439340099999999,4.439338807907104,8.439340099999999,4.439338807907104C8.649119899999999,4.229558807907105,8.9163899,4.086698807907105,9.207359799999999,4.028818807907104C9.207359799999999,4.028818807907104,8.8171802,2.0672517979071046,8.8171802,2.0672517979071046C8.8171802,2.0672517979071046,8.8171802,2.0672517979071046,8.8171802,2.0672517979071046ZM7.0251298,3.0251262079071046C6.53564,3.5146098179071044,6.2023001,4.138248807907105,6.06725,4.817188907907104C6.06725,4.817188907907104,8.02882,5.2073688079071045,8.02882,5.2073688079071045C8.0867,4.916388707907105,8.2295599,4.649118807907104,8.439340099999999,4.439338807907104C8.439340099999999,4.439338807907104,7.0251298,3.0251262079071046,7.0251298,3.0251262079071046C7.0251298,3.0251262079071046,7.0251298,3.0251262079071046,7.0251298,3.0251262079071046ZM6.06725,4.817188907907104C5.9322,5.496118807907104,6.0015099,6.199848907907104,6.2664199,6.839388807907104C6.2664199,6.839388807907104,8.114180099999999,6.074028707907105,8.114180099999999,6.074028707907105C8.000649899999999,5.799938907907105,7.9709401,5.498338707907104,8.02882,5.2073688079071045C8.02882,5.2073688079071045,6.06725,4.817188907907104,6.06725,4.817188907907104C6.06725,4.817188907907104,6.06725,4.817188907907104,6.06725,4.817188907907104ZM6.2664199,6.839388807907104C6.5313301,7.478928807907105,6.9799299,8.025558707907106,7.5555,8.410138807907105C7.5555,8.410138807907105,8.666639799999999,6.747208807907104,8.666639799999999,6.747208807907104C8.41997,6.5823789079071044,8.2277098,6.348108807907105,8.114180099999999,6.074028707907105C8.114180099999999,6.074028707907105,6.2664199,6.839388807907104,6.2664199,6.839388807907104C6.2664199,6.839388807907104,6.2664199,6.839388807907104,6.2664199,6.839388807907104ZM7.5555,8.410138807907105C8.1310802,8.794729007907105,8.807769799999999,8.999998807907104,9.5,8.999998807907104C9.5,8.999998807907104,9.5,6.9999988079071045,9.5,6.9999988079071045C9.203330000000001,6.9999988079071045,8.9133201,6.912028807907104,8.666639799999999,6.747208807907104C8.666639799999999,6.747208807907104,7.5555,8.410138807907105,7.5555,8.410138807907105C7.5555,8.410138807907105,7.5555,8.410138807907105,7.5555,8.410138807907105ZM9.5,8.999998807907104C9.5,8.999998807907104,12,8.999998807907104,12,8.999998807907104C12,8.999998807907104,12,6.9999988079071045,12,6.9999988079071045C12,6.9999988079071045,9.5,6.9999988079071045,9.5,6.9999988079071045C9.5,6.9999988079071045,9.5,8.999998807907104,9.5,8.999998807907104C9.5,8.999998807907104,9.5,8.999998807907104,9.5,8.999998807907104ZM5,12.999998807907104C5,12.999998807907104,19,12.999998807907104,19,12.999998807907104C19,12.999998807907104,19,10.999998807907104,19,10.999998807907104C19,10.999998807907104,5,10.999998807907104,5,10.999998807907104C5,10.999998807907104,5,12.999998807907104,5,12.999998807907104C5,12.999998807907104,5,12.999998807907104,5,12.999998807907104ZM5,10.999998807907104C4.73478,10.999998807907104,4.48043,10.894638807907103,4.29289,10.707108707907103C4.29289,10.707108707907103,2.87868,12.121318607907105,2.87868,12.121318607907105C3.44128799,12.683929207907104,4.20435,12.999998807907104,5,12.999998807907104C5,12.999998807907104,5,10.999998807907104,5,10.999998807907104C5,10.999998807907104,5,10.999998807907104,5,10.999998807907104ZM4.29289,10.707108707907103C4.10536,10.519568707907105,4,10.265219007907104,4,9.999998807907104C4,9.999998807907104,2,9.999998807907104,2,9.999998807907104C2,10.795648807907105,2.3160700199999997,11.558708907907105,2.87868,12.121318607907105C2.87868,12.121318607907105,4.29289,10.707108707907103,4.29289,10.707108707907103C4.29289,10.707108707907103,4.29289,10.707108707907103,4.29289,10.707108707907103ZM4,9.999998807907104C4,9.734778607907105,4.10536,9.480428907907104,4.29289,9.292888907907106C4.29289,9.292888907907106,2.87868,7.878679007907104,2.87868,7.878679007907104C2.3160700199999997,8.441288707907106,2,9.204348807907104,2,9.999998807907104C2,9.999998807907104,4,9.999998807907104,4,9.999998807907104C4,9.999998807907104,4,9.999998807907104,4,9.999998807907104ZM4.29289,9.292888907907106C4.48043,9.105358807907106,4.73478,8.999998807907104,5,8.999998807907104C5,8.999998807907104,5,6.9999988079071045,5,6.9999988079071045C4.20435,6.9999988079071045,3.44128799,7.316068907907105,2.87868,7.878679007907104C2.87868,7.878679007907104,4.29289,9.292888907907106,4.29289,9.292888907907106C4.29289,9.292888907907106,4.29289,9.292888907907106,4.29289,9.292888907907106ZM5,8.999998807907104C5,8.999998807907104,19,8.999998807907104,19,8.999998807907104C19,8.999998807907104,19,6.9999988079071045,19,6.9999988079071045C19,6.9999988079071045,5,6.9999988079071045,5,6.9999988079071045C5,6.9999988079071045,5,8.999998807907104,5,8.999998807907104C5,8.999998807907104,5,8.999998807907104,5,8.999998807907104ZM19,8.999998807907104C19.2652,8.999998807907104,19.5196,9.105358807907106,19.7071,9.292888907907106C19.7071,9.292888907907106,21.1213,7.878679007907104,21.1213,7.878679007907104C20.558701,7.316068907907105,19.7957,6.9999988079071045,19,6.9999988079071045C19,6.9999988079071045,19,8.999998807907104,19,8.999998807907104C19,8.999998807907104,19,8.999998807907104,19,8.999998807907104ZM19.7071,9.292888907907106C19.8946,9.480428907907104,20,9.734788607907104,20,9.999998807907104C20,9.999998807907104,22,9.999998807907104,22,9.999998807907104C22,9.204348807907104,21.683901,8.441288707907106,21.1213,7.878679007907104C21.1213,7.878679007907104,19.7071,9.292888907907106,19.7071,9.292888907907106C19.7071,9.292888907907106,19.7071,9.292888907907106,19.7071,9.292888907907106ZM20,9.999998807907104C20,10.265219007907104,19.8946,10.519568707907105,19.7071,10.707108707907103C19.7071,10.707108707907103,21.1213,12.121318607907105,21.1213,12.121318607907105C21.683901,11.558708907907105,22,10.795648807907105,22,9.999998807907104C22,9.999998807907104,20,9.999998807907104,20,9.999998807907104C20,9.999998807907104,20,9.999998807907104,20,9.999998807907104ZM19.7071,10.707108707907103C19.5196,10.894638807907103,19.2652,10.999998807907104,19,10.999998807907104C19,10.999998807907104,19,12.999998807907104,19,12.999998807907104C19.7957,12.999998807907104,20.558701,12.683929207907104,21.1213,12.121318607907105C21.1213,12.121318607907105,19.7071,10.707108707907103,19.7071,10.707108707907103C19.7071,10.707108707907103,19.7071,10.707108707907103,19.7071,10.707108707907103ZM4,11.999998807907104C4,11.999998807907104,4,18.999998807907104,4,18.999998807907104C4,18.999998807907104,6,18.999998807907104,6,18.999998807907104C6,18.999998807907104,6,11.999998807907104,6,11.999998807907104C6,11.999998807907104,4,11.999998807907104,4,11.999998807907104C4,11.999998807907104,4,11.999998807907104,4,11.999998807907104ZM4,18.999998807907104C4,19.795698807907105,4.31607,20.558699807907104,4.87868,21.121298807907106C4.87868,21.121298807907106,6.2928901,19.707098807907105,6.2928901,19.707098807907105C6.10536,19.519598807907105,6,19.265198807907105,6,18.999998807907104C6,18.999998807907104,4,18.999998807907104,4,18.999998807907104C4,18.999998807907104,4,18.999998807907104,4,18.999998807907104ZM4.87868,21.121298807907106C5.4412899,21.683899807907103,6.20435,21.999998807907104,7,21.999998807907104C7,21.999998807907104,7,19.999998807907104,7,19.999998807907104C6.7347801,19.999998807907104,6.4804299,19.894598807907105,6.2928901,19.707098807907105C6.2928901,19.707098807907105,4.87868,21.121298807907106,4.87868,21.121298807907106C4.87868,21.121298807907106,4.87868,21.121298807907106,4.87868,21.121298807907106ZM7,21.999998807907104C7,21.999998807907104,17,21.999998807907104,17,21.999998807907104C17,21.999998807907104,17,19.999998807907104,17,19.999998807907104C17,19.999998807907104,7,19.999998807907104,7,19.999998807907104C7,19.999998807907104,7,21.999998807907104,7,21.999998807907104C7,21.999998807907104,7,21.999998807907104,7,21.999998807907104ZM17,21.999998807907104C17.7957,21.999998807907104,18.5587,21.683899807907103,19.1213,21.121298807907106C19.1213,21.121298807907106,17.7071,19.707098807907105,17.7071,19.707098807907105C17.5196,19.894598807907105,17.2652,19.999998807907104,17,19.999998807907104C17,19.999998807907104,17,21.999998807907104,17,21.999998807907104C17,21.999998807907104,17,21.999998807907104,17,21.999998807907104ZM19.1213,21.121298807907106C19.683901,20.558699807907104,20,19.795698807907105,20,18.999998807907104C20,18.999998807907104,18,18.999998807907104,18,18.999998807907104C18,19.265198807907105,17.8946,19.519598807907105,17.7071,19.707098807907105C17.7071,19.707098807907105,19.1213,21.121298807907106,19.1213,21.121298807907106C19.1213,21.121298807907106,19.1213,21.121298807907106,19.1213,21.121298807907106ZM20,18.999998807907104C20,18.999998807907104,20,11.999998807907104,20,11.999998807907104C20,11.999998807907104,18,11.999998807907104,18,11.999998807907104C18,11.999998807907104,18,18.999998807907104,18,18.999998807907104C18,18.999998807907104,20,18.999998807907104,20,18.999998807907104C20,18.999998807907104,20,18.999998807907104,20,18.999998807907104Z" fill="#0A0A28" fill-opacity="1"/></g></svg>