<svg xmlns="http://www.w3.org/2000/svg" xmlns:xlink="http://www.w3.org/1999/xlink" fill="none" version="1.1" width="24" height="24" viewBox="0 0 24 24"><defs><clipPath id="master_svg0_3_1645"><rect x="0" y="0" width="24" height="24" rx="0"/></clipPath></defs><g clip-path="url(#master_svg0_3_1645)"><path d="M5.999993996484375,5.99999614296875C6.000005996484375,5.30505224296875,6.201173996484375,4.624964042968751,6.579185996484375,4.04183614296875C6.957210096484375,3.45869374296875,7.495938296484375,2.9974340829687502,8.130341996484375,2.71373126296875C8.764733796484375,2.43002796496875,9.467694296484375,2.33600832196875,10.154345996484375,2.44302108496875C10.841010096484375,2.55003325296875,11.482013696484374,2.85350486296875,11.999994296484376,3.31680208296875C12.595662896484376,2.78292805296875,13.352177896484376,2.46264732596875,14.150117896484375,2.40652038346875C14.948034896484375,2.35039344096875,15.741954896484375,2.56161685296875,16.406513896484377,3.0068468429687503C17.071074896484376,3.45207694296875,17.568354896484376,4.10595204296875,17.819994896484374,4.86525204296875C18.071633896484375,5.6245522429687504,18.063113896484374,6.44603634296875,17.795994896484373,7.20000794296875C17.795994896484373,7.20000794296875,19.199994896484377,7.20000794296875,19.199994896484377,7.20000794296875C19.836474896484376,7.20000794296875,20.446914896484376,7.45285984296875,20.897033896484373,7.90294404296875C21.347154896484376,8.35302834296875,21.599994896484375,8.96348044296875,21.599994896484375,9.60000804296875C21.599994896484375,10.23652454296875,21.347154896484376,10.84697624296875,20.897033896484373,11.29706094296875C20.446914896484376,11.74714474296875,19.836474896484376,11.99999614296875,19.199994896484377,11.99999614296875C19.199994896484377,11.99999614296875,13.199993896484376,11.99999614296875,13.199993896484376,11.99999614296875C13.199993896484376,11.99999614296875,13.199993896484376,10.80000784296875,13.199993896484376,10.80000784296875C13.199993896484376,10.48174474296875,13.073562896484376,10.17651224296875,12.848526896484374,9.951476142968751C12.623478896484375,9.726428042968749,12.318258296484375,9.60000804296875,11.999994296484376,9.60000804296875C11.681730296484375,9.60000804296875,11.376510596484374,9.726428042968749,11.151462596484375,9.951476142968751C10.926425896484375,10.17651224296875,10.799994496484375,10.48174474296875,10.799994496484375,10.80000784296875C10.799994496484375,10.80000784296875,10.799994496484375,11.99999614296875,10.799994496484375,11.99999614296875C10.799994496484375,11.99999614296875,4.799993996484375,11.99999614296875,4.799993996484375,11.99999614296875C4.163477996484375,11.99999614296875,3.553024796484375,11.74714474296875,3.102937106484375,11.29706094296875C2.652850716484375,10.84697624296875,2.3999938964843754,10.23652454296875,2.399993896484375,9.60000804296875C2.3999938964843746,8.96348044296875,2.652850716484375,8.35302834296875,3.102937106484375,7.90294404296875C3.553024796484375,7.45285984296875,4.163477996484375,7.20000794296875,4.799993996484375,7.20000794296875C4.799993996484375,7.20000794296875,6.203993996484375,7.20000794296875,6.203993996484375,7.20000794296875C6.071994096484374,6.82440854296875,5.999993996484375,6.41999624296875,5.999993996484375,5.99999614296875C5.999993996484375,5.99999614296875,5.999993996484375,5.99999614296875,5.999993996484375,5.99999614296875ZM10.799994496484375,7.20000794296875C10.799994496484375,7.20000794296875,10.799994496484375,5.99999614296875,10.799994496484375,5.99999614296875C10.799994496484375,5.76266004296875,10.729614296484375,5.53065224296875,10.597758296484376,5.33331204296875C10.465902296484375,5.13598414296875,10.278486296484374,4.982168242968751,10.059210296484375,4.89135214296875C9.839946296484374,4.80052404296875,9.598661896484375,4.7767520429687504,9.365886196484375,4.82306004296875C9.133109996484375,4.8693561429687495,8.919294396484375,4.98365614296875,8.751462496484375,5.15147594296875C8.583641996484374,5.31929614296875,8.469354196484375,5.53311224296875,8.423046096484375,5.7658882429687495C8.376749996484374,5.99867604296875,8.400510296484375,6.23994824296875,8.491338296484376,6.45922424296875C8.582166196484376,6.67848824296875,8.735970496484375,6.86590434296875,8.933309996484375,6.99776034296875C9.130649996484376,7.12962814296875,9.362657996484375,7.20000794296875,9.599994196484374,7.20000794296875C9.599994196484374,7.20000794296875,10.799994496484375,7.20000794296875,10.799994496484375,7.20000794296875C10.799994496484375,7.20000794296875,10.799994496484375,7.20000794296875,10.799994496484375,7.20000794296875ZM14.399993896484375,7.20000794296875C14.637353896484376,7.20000794296875,14.869313896484375,7.12962814296875,15.066713896484375,6.99776034296875C15.263994896484375,6.86590434296875,15.417833896484375,6.67848824296875,15.508673896484375,6.45922424296875C15.599514896484376,6.23994824296875,15.623273896484376,5.99867604296875,15.576953896484374,5.7658882429687495C15.530633896484375,5.53311224296875,15.416393896484376,5.31929614296875,15.248513896484376,5.15147594296875C15.080753896484374,4.98365614296875,14.866914896484374,4.8693561429687495,14.634113896484376,4.82306004296875C14.401313896484375,4.7767520429687504,14.160042896484375,4.80052404296875,13.940778896484375,4.89135214296875C13.721501896484375,4.982168242968751,13.534085896484376,5.13598414296875,13.402230896484374,5.33331204296875C13.270373896484376,5.53065224296875,13.199993896484376,5.76266004296875,13.199993896484376,5.99999614296875C13.199993896484376,5.99999614296875,13.199993896484376,7.20000794296875,13.199993896484376,7.20000794296875C13.199993896484376,7.20000794296875,14.399993896484375,7.20000794296875,14.399993896484375,7.20000794296875C14.399993896484375,7.20000794296875,14.399993896484375,7.20000794296875,14.399993896484375,7.20000794296875Z" fill-rule="evenodd" fill="#0A0A28" fill-opacity="1"/><path d="M10.800006403515624,13.20001220703125C10.800006403515624,13.20001220703125,3.600006103515625,13.20001220703125,3.600006103515625,13.20001220703125C3.600006103515625,13.20001220703125,3.600006103515625,19.20001220703125,3.600006103515625,19.20001220703125C3.6000061035156254,19.83652830703125,3.852862923515625,20.44698090703125,4.302949313515625,20.89706420703125C4.753037003515625,21.347160307031253,5.363490203515625,21.60001280703125,6.000006203515625,21.60001280703125C6.000006203515625,21.60001280703125,10.800006403515624,21.60001280703125,10.800006403515624,21.60001280703125C10.800006403515624,21.60001280703125,10.800006403515624,13.20001220703125,10.800006403515624,13.20001220703125C10.800006403515624,13.20001220703125,10.800006403515624,13.20001220703125,10.800006403515624,13.20001220703125ZM13.200006503515626,21.60001280703125C13.200006503515626,21.60001280703125,18.000007103515625,21.60001280703125,18.000007103515625,21.60001280703125C18.636487103515627,21.60001280703125,19.246926103515626,21.347160307031253,19.697046103515625,20.89706420703125C20.147167103515624,20.44698090703125,20.400007103515627,19.83652830703125,20.400007103515627,19.20001220703125C20.400007103515627,19.20001220703125,20.400007103515627,13.20001220703125,20.400007103515627,13.20001220703125C20.400007103515627,13.20001220703125,13.200006503515626,13.20001220703125,13.200006503515626,13.20001220703125C13.200006503515626,13.20001220703125,13.200006503515626,21.60001280703125,13.200006503515626,21.60001280703125C13.200006503515626,21.60001280703125,13.200006503515626,21.60001280703125,13.200006503515626,21.60001280703125Z" fill="#0A0A28" fill-opacity="1"/></g></svg>