<svg xmlns="http://www.w3.org/2000/svg" xmlns:xlink="http://www.w3.org/1999/xlink" fill="none" version="1.1" width="24" height="24" viewBox="0 0 24 24"><defs><clipPath id="master_svg0_3_2110"><rect x="0" y="0" width="24" height="24" rx="0"/></clipPath></defs><g clip-path="url(#master_svg0_3_2110)"><path d="M3.0550001,10.000000238418579C2.50271499,10.000000238418579,2.05500001,10.447720338418579,2.05500001,11.000000238418579C2.05500001,11.552290238418578,2.50271499,12.000000238418579,3.0550001,12.000000238418579C3.0550001,12.000000238418579,3.0550001,10.000000238418579,3.0550001,10.000000238418579C3.0550001,10.000000238418579,3.0550001,10.000000238418579,3.0550001,10.000000238418579ZM7,13.000000238418579C7,13.000000238418579,8,13.000000238418579,8,13.000000238418579C8,13.000000238418579,7,13.000000238418579,7,13.000000238418579C7,13.000000238418579,7,13.000000238418579,7,13.000000238418579ZM7,14.000000238418579C7,14.000000238418579,6,14.000000238418579,6,14.000000238418579C6,14.000000238418579,7,14.000000238418579,7,14.000000238418579C7,14.000000238418579,7,14.000000238418579,7,14.000000238418579ZM9,16.00000023841858C9,16.00000023841858,9,17.00000023841858,9,17.00000023841858C9,17.00000023841858,9,16.00000023841858,9,16.00000023841858C9,16.00000023841858,9,16.00000023841858,9,16.00000023841858ZM10,20.94500023841858C10,21.49729923841858,10.4477201,21.94500023841858,11,21.94500023841858C11.55229,21.94500023841858,12,21.49729923841858,12,20.94500023841858C12,20.94500023841858,10,20.94500023841858,10,20.94500023841858C10,20.94500023841858,10,20.94500023841858,10,20.94500023841858ZM9,3.935000238418579C9,3.3827152284185793,8.5522799,2.934999935418579,8,2.934999935418579C7.4477201,2.934999935418579,7,3.3827152284185793,7,3.935000238418579C7,3.935000238418579,9,3.935000238418579,9,3.935000238418579C9,3.935000238418579,9,3.935000238418579,9,3.935000238418579ZM10.5,8.000000238418579C10.5,8.000000238418579,10.5,9.000000238418579,10.5,9.000000238418579C10.5,9.000000238418579,10.5,8.000000238418579,10.5,8.000000238418579C10.5,8.000000238418579,10.5,8.000000238418579,10.5,8.000000238418579ZM19,8.000000238418579C19,8.000000238418579,19,9.000000238418579,19,9.000000238418579C19,9.000000238418579,19,8.000000238418579,19,8.000000238418579C19,8.000000238418579,19,8.000000238418579,19,8.000000238418579ZM20.063999,9.000000238418579C20.616301,9.000000238418579,21.063999,8.55228013841858,21.063999,8.000000238418579C21.063999,7.447720338418579,20.616301,7.000000238418579,20.063999,7.000000238418579C20.063999,7.000000238418579,20.063999,9.000000238418579,20.063999,9.000000238418579C20.063999,9.000000238418579,20.063999,9.000000238418579,20.063999,9.000000238418579ZM14,20.48800123841858C14,21.040300238418578,14.4477,21.48800123841858,15,21.48800123841858C15.5523,21.48800123841858,16,21.040300238418578,16,20.48800123841858C16,20.48800123841858,14,20.48800123841858,14,20.48800123841858C14,20.48800123841858,14,20.48800123841858,14,20.48800123841858ZM17,16.00000023841858C17,16.00000023841858,17,17.00000023841858,17,17.00000023841858C17,17.00000023841858,17,16.00000023841858,17,16.00000023841858C17,16.00000023841858,17,16.00000023841858,17,16.00000023841858ZM20.063999,17.00000023841858C20.616301,17.00000023841858,21.063999,16.55230023841858,21.063999,16.00000023841858C21.063999,15.447700238418578,20.616301,15.000000238418579,20.063999,15.000000238418579C20.063999,15.000000238418579,20.063999,17.00000023841858,20.063999,17.00000023841858C20.063999,17.00000023841858,20.063999,17.00000023841858,20.063999,17.00000023841858ZM12,3.000000238418579C12,3.000000238418579,12,4.000000238418579,12,4.000000238418579C12,4.000000238418579,12,3.000000238418579,12,3.000000238418579C12,3.000000238418579,12,3.000000238418579,12,3.000000238418579ZM3.0550001,12.000000238418579C3.0550001,12.000000238418579,5,12.000000238418579,5,12.000000238418579C5,12.000000238418579,5,10.000000238418579,5,10.000000238418579C5,10.000000238418579,3.0550001,10.000000238418579,3.0550001,10.000000238418579C3.0550001,10.000000238418579,3.0550001,12.000000238418579,3.0550001,12.000000238418579C3.0550001,12.000000238418579,3.0550001,12.000000238418579,3.0550001,12.000000238418579ZM5,12.000000238418579C5.2652199,12.000000238418579,5.5195701,12.105360238418578,5.7071099,12.29288983841858C5.7071099,12.29288983841858,7.1213198,10.878680438418579,7.1213198,10.878680438418579C6.5587101,10.31607033841858,5.79565,10.000000238418579,5,10.000000238418579C5,10.000000238418579,5,12.000000238418579,5,12.000000238418579C5,12.000000238418579,5,12.000000238418579,5,12.000000238418579ZM5.7071099,12.29288983841858C5.89464,12.48042983841858,6,12.73478053841858,6,13.000000238418579C6,13.000000238418579,8,13.000000238418579,8,13.000000238418579C8,12.20435073841858,7.6839299,11.441290138418578,7.1213198,10.878680438418579C7.1213198,10.878680438418579,5.7071099,12.29288983841858,5.7071099,12.29288983841858C5.7071099,12.29288983841858,5.7071099,12.29288983841858,5.7071099,12.29288983841858ZM6,13.000000238418579C6,13.000000238418579,6,14.000000238418579,6,14.000000238418579C6,14.000000238418579,8,14.000000238418579,8,14.000000238418579C8,14.000000238418579,8,13.000000238418579,8,13.000000238418579C8,13.000000238418579,6,13.000000238418579,6,13.000000238418579C6,13.000000238418579,6,13.000000238418579,6,13.000000238418579ZM6,14.000000238418579C6,14.79560023841858,6.3160701,15.558700238418579,6.87868,16.121300238418577C6.87868,16.121300238418577,8.292890100000001,14.70710023841858,8.292890100000001,14.70710023841858C8.105360000000001,14.51960023841858,8,14.26520023841858,8,14.000000238418579C8,14.000000238418579,6,14.000000238418579,6,14.000000238418579C6,14.000000238418579,6,14.000000238418579,6,14.000000238418579ZM6.87868,16.121300238418577C7.4412899,16.68390023841858,8.20435,17.00000023841858,9,17.00000023841858C9,17.00000023841858,9,15.000000238418579,9,15.000000238418579C8.7347798,15.000000238418579,8.4804301,14.89460023841858,8.292890100000001,14.70710023841858C8.292890100000001,14.70710023841858,6.87868,16.121300238418577,6.87868,16.121300238418577C6.87868,16.121300238418577,6.87868,16.121300238418577,6.87868,16.121300238418577ZM9,17.00000023841858C9.2652202,17.00000023841858,9.5195699,17.10540023841858,9.707109899999999,17.29290023841858C9.707109899999999,17.29290023841858,11.1213198,15.87870023841858,11.1213198,15.87870023841858C10.558710099999999,15.31610023841858,9.79565,15.000000238418579,9,15.000000238418579C9,15.000000238418579,9,17.00000023841858,9,17.00000023841858C9,17.00000023841858,9,17.00000023841858,9,17.00000023841858ZM9.707109899999999,17.29290023841858C9.894639999999999,17.48040023841858,10,17.73480023841858,10,18.00000023841858C10,18.00000023841858,12,18.00000023841858,12,18.00000023841858C12,17.20430023841858,11.6839304,16.441300238418577,11.1213198,15.87870023841858C11.1213198,15.87870023841858,9.707109899999999,17.29290023841858,9.707109899999999,17.29290023841858C9.707109899999999,17.29290023841858,9.707109899999999,17.29290023841858,9.707109899999999,17.29290023841858ZM10,18.00000023841858C10,18.00000023841858,10,20.94500023841858,10,20.94500023841858C10,20.94500023841858,12,20.94500023841858,12,20.94500023841858C12,20.94500023841858,12,18.00000023841858,12,18.00000023841858C12,18.00000023841858,10,18.00000023841858,10,18.00000023841858C10,18.00000023841858,10,18.00000023841858,10,18.00000023841858ZM7,3.935000238418579C7,3.935000238418579,7,5.500000238418579,7,5.500000238418579C7,5.500000238418579,9,5.500000238418579,9,5.500000238418579C9,5.500000238418579,9,3.935000238418579,9,3.935000238418579C9,3.935000238418579,7,3.935000238418579,7,3.935000238418579C7,3.935000238418579,7,3.935000238418579,7,3.935000238418579ZM7,5.500000238418579C7,6.428260338418579,7.3687501,7.318500238418579,8.0251298,7.974870438418579C8.0251298,7.974870438418579,9.439340099999999,6.560660138418579,9.439340099999999,6.560660138418579C9.15804,6.279360338418579,9,5.8978202384185785,9,5.500000238418579C9,5.500000238418579,7,5.500000238418579,7,5.500000238418579C7,5.500000238418579,7,5.500000238418579,7,5.500000238418579ZM8.0251298,7.974870438418579C8.6815,8.63125013841858,9.5717402,9.000000238418579,10.5,9.000000238418579C10.5,9.000000238418579,10.5,7.000000238418579,10.5,7.000000238418579C10.10218,7.000000238418579,9.7206402,6.841960238418579,9.439340099999999,6.560660138418579C9.439340099999999,6.560660138418579,8.0251298,7.974870438418579,8.0251298,7.974870438418579C8.0251298,7.974870438418579,8.0251298,7.974870438418579,8.0251298,7.974870438418579ZM10.5,9.000000238418579C10.5,9.000000238418579,11,9.000000238418579,11,9.000000238418579C11,9.000000238418579,11,7.000000238418579,11,7.000000238418579C11,7.000000238418579,10.5,7.000000238418579,10.5,7.000000238418579C10.5,7.000000238418579,10.5,9.000000238418579,10.5,9.000000238418579C10.5,9.000000238418579,10.5,9.000000238418579,10.5,9.000000238418579ZM11,9.000000238418579C11.2652197,9.000000238418579,11.5195704,9.10536023841858,11.7071104,9.29289033841858C11.7071104,9.29289033841858,13.1213,7.878680438418579,13.1213,7.878680438418579C12.5587101,7.316070338418579,11.7956495,7.000000238418579,11,7.000000238418579C11,7.000000238418579,11,9.000000238418579,11,9.000000238418579C11,9.000000238418579,11,9.000000238418579,11,9.000000238418579ZM11.7071104,9.29289033841858C11.89464,9.480430338418579,12,9.73478003841858,12,10.000000238418579C12,10.000000238418579,14,10.000000238418579,14,10.000000238418579C14,9.204350238418579,13.6839,8.44129013841858,13.1213,7.878680438418579C13.1213,7.878680438418579,11.7071104,9.29289033841858,11.7071104,9.29289033841858C11.7071104,9.29289033841858,11.7071104,9.29289033841858,11.7071104,9.29289033841858ZM12,10.000000238418579C12,10.79565023841858,12.3160696,11.55871033841858,12.8786802,12.12132003841858C12.8786802,12.12132003841858,14.2929,10.707110138418578,14.2929,10.707110138418578C14.1054,10.51957013841858,14,10.265220438418579,14,10.000000238418579C14,10.000000238418579,12,10.000000238418579,12,10.000000238418579C12,10.000000238418579,12,10.000000238418579,12,10.000000238418579ZM12.8786802,12.12132003841858C13.4413,12.683930638418579,14.2043,13.000000238418579,15,13.000000238418579C15,13.000000238418579,15,11.000000238418579,15,11.000000238418579C14.7348,11.000000238418579,14.4804,10.894640238418578,14.2929,10.707110138418578C14.2929,10.707110138418578,12.8786802,12.12132003841858,12.8786802,12.12132003841858C12.8786802,12.12132003841858,12.8786802,12.12132003841858,12.8786802,12.12132003841858ZM15,13.000000238418579C15.7957,13.000000238418579,16.5587,12.683930638418579,17.121299999999998,12.12132003841858C17.121299999999998,12.12132003841858,15.7071,10.707110138418578,15.7071,10.707110138418578C15.5196,10.894640238418578,15.2652,11.000000238418579,15,11.000000238418579C15,11.000000238418579,15,13.000000238418579,15,13.000000238418579C15,13.000000238418579,15,13.000000238418579,15,13.000000238418579ZM17.121299999999998,12.12132003841858C17.6839,11.55871033841858,18,10.79565023841858,18,10.000000238418579C18,10.000000238418579,16,10.000000238418579,16,10.000000238418579C16,10.265220438418579,15.8946,10.51957013841858,15.7071,10.707110138418578C15.7071,10.707110138418578,17.121299999999998,12.12132003841858,17.121299999999998,12.12132003841858C17.121299999999998,12.12132003841858,17.121299999999998,12.12132003841858,17.121299999999998,12.12132003841858ZM18,10.000000238418579C18,9.73478003841858,18.1054,9.480430338418579,18.2929,9.29289033841858C18.2929,9.29289033841858,16.878700000000002,7.878680438418579,16.878700000000002,7.878680438418579C16.3161,8.44129013841858,16,9.204350238418579,16,10.000000238418579C16,10.000000238418579,18,10.000000238418579,18,10.000000238418579C18,10.000000238418579,18,10.000000238418579,18,10.000000238418579ZM18.2929,9.29289033841858C18.4804,9.10536023841858,18.7348,9.000000238418579,19,9.000000238418579C19,9.000000238418579,19,7.000000238418579,19,7.000000238418579C18.2043,7.000000238418579,17.4413,7.316070338418579,16.878700000000002,7.878680438418579C16.878700000000002,7.878680438418579,18.2929,9.29289033841858,18.2929,9.29289033841858C18.2929,9.29289033841858,18.2929,9.29289033841858,18.2929,9.29289033841858ZM19,9.000000238418579C19,9.000000238418579,20.063999,9.000000238418579,20.063999,9.000000238418579C20.063999,9.000000238418579,20.063999,7.000000238418579,20.063999,7.000000238418579C20.063999,7.000000238418579,19,7.000000238418579,19,7.000000238418579C19,7.000000238418579,19,9.000000238418579,19,9.000000238418579C19,9.000000238418579,19,9.000000238418579,19,9.000000238418579ZM16,20.48800123841858C16,20.48800123841858,16,18.00000023841858,16,18.00000023841858C16,18.00000023841858,14,18.00000023841858,14,18.00000023841858C14,18.00000023841858,14,20.48800123841858,14,20.48800123841858C14,20.48800123841858,16,20.48800123841858,16,20.48800123841858C16,20.48800123841858,16,20.48800123841858,16,20.48800123841858ZM16,18.00000023841858C16,17.73480023841858,16.1054,17.48040023841858,16.2929,17.29290023841858C16.2929,17.29290023841858,14.8787,15.87870023841858,14.8787,15.87870023841858C14.3161,16.441300238418577,14,17.20430023841858,14,18.00000023841858C14,18.00000023841858,16,18.00000023841858,16,18.00000023841858C16,18.00000023841858,16,18.00000023841858,16,18.00000023841858ZM16.2929,17.29290023841858C16.4804,17.10540023841858,16.7348,17.00000023841858,17,17.00000023841858C17,17.00000023841858,17,15.000000238418579,17,15.000000238418579C16.2043,15.000000238418579,15.4413,15.31610023841858,14.8787,15.87870023841858C14.8787,15.87870023841858,16.2929,17.29290023841858,16.2929,17.29290023841858C16.2929,17.29290023841858,16.2929,17.29290023841858,16.2929,17.29290023841858ZM17,17.00000023841858C17,17.00000023841858,20.063999,17.00000023841858,20.063999,17.00000023841858C20.063999,17.00000023841858,20.063999,15.000000238418579,20.063999,15.000000238418579C20.063999,15.000000238418579,17,15.000000238418579,17,15.000000238418579C17,15.000000238418579,17,17.00000023841858,17,17.00000023841858C17,17.00000023841858,17,17.00000023841858,17,17.00000023841858ZM20,12.000000238418579C20,13.050600238418578,19.7931,14.090900238418579,19.391001,15.06150023841858C19.391001,15.06150023841858,21.2388,15.82680023841858,21.2388,15.82680023841858C21.741301,14.613600238418579,22,13.31320023841858,22,12.000000238418579C22,12.000000238418579,20,12.000000238418579,20,12.000000238418579C20,12.000000238418579,20,12.000000238418579,20,12.000000238418579ZM19.391001,15.06150023841858C18.989,16.03210023841858,18.3997,16.91400023841858,17.6569,17.65690023841858C17.6569,17.65690023841858,19.0711,19.07110023841858,19.0711,19.07110023841858C19.999701,18.142500238418577,20.7362,17.04010023841858,21.2388,15.82680023841858C21.2388,15.82680023841858,19.391001,15.06150023841858,19.391001,15.06150023841858C19.391001,15.06150023841858,19.391001,15.06150023841858,19.391001,15.06150023841858ZM17.6569,17.65690023841858C16.914,18.39970023841858,16.0321,18.98900023841858,15.0615,19.39100123841858C15.0615,19.39100123841858,15.8268,21.23880023841858,15.8268,21.23880023841858C17.040100000000002,20.73620023841858,18.1425,19.99970123841858,19.0711,19.07110023841858C19.0711,19.07110023841858,17.6569,17.65690023841858,17.6569,17.65690023841858C17.6569,17.65690023841858,17.6569,17.65690023841858,17.6569,17.65690023841858ZM15.0615,19.39100123841858C14.0909,19.793100238418578,13.0506,20.00000023841858,12,20.00000023841858C12,20.00000023841858,12,22.00000023841858,12,22.00000023841858C13.3132,22.00000023841858,14.6136,21.74130123841858,15.8268,21.23880023841858C15.8268,21.23880023841858,15.0615,19.39100123841858,15.0615,19.39100123841858C15.0615,19.39100123841858,15.0615,19.39100123841858,15.0615,19.39100123841858ZM12,20.00000023841858C10.94942,20.00000023841858,9.9091401,19.793100238418578,8.93853,19.39100123841858C8.93853,19.39100123841858,8.1731701,21.23880023841858,8.1731701,21.23880023841858C9.386419799999999,21.74130123841858,10.686779999999999,22.00000023841858,12,22.00000023841858C12,22.00000023841858,12,20.00000023841858,12,20.00000023841858C12,20.00000023841858,12,20.00000023841858,12,20.00000023841858ZM8.93853,19.39100123841858C7.9679298,18.98900023841858,7.08601,18.39970023841858,6.3431499,17.65690023841858C6.3431499,17.65690023841858,4.92893,19.07110023841858,4.92893,19.07110023841858C5.8575201,19.99970123841858,6.9599098999999995,20.73620023841858,8.1731701,21.23880023841858C8.1731701,21.23880023841858,8.93853,19.39100123841858,8.93853,19.39100123841858C8.93853,19.39100123841858,8.93853,19.39100123841858,8.93853,19.39100123841858ZM6.3431499,17.65690023841858C5.60028,16.91400023841858,5.0109999,16.03210023841858,4.60896,15.06150023841858C4.60896,15.06150023841858,2.761205,15.82680023841858,2.761205,15.82680023841858C3.26375201,17.04010023841858,4.00035,18.142500238418577,4.92893,19.07110023841858C4.92893,19.07110023841858,6.3431499,17.65690023841858,6.3431499,17.65690023841858C6.3431499,17.65690023841858,6.3431499,17.65690023841858,6.3431499,17.65690023841858ZM4.60896,15.06150023841858C4.20693,14.090900238418579,4,13.050600238418578,4,12.000000238418579C4,12.000000238418579,2,12.000000238418579,2,12.000000238418579C2,13.31320023841858,2.25865799,14.613600238418579,2.761205,15.82680023841858C2.761205,15.82680023841858,4.60896,15.06150023841858,4.60896,15.06150023841858C4.60896,15.06150023841858,4.60896,15.06150023841858,4.60896,15.06150023841858ZM4,12.000000238418579C4,9.878270338418579,4.84285,7.843440338418579,6.3431499,6.343150138418579C6.3431499,6.343150138418579,4.92893,4.928930238418579,4.92893,4.928930238418579C3.053568199,6.804300338418579,2,9.347840038418578,2,12.000000238418579C2,12.000000238418579,4,12.000000238418579,4,12.000000238418579C4,12.000000238418579,4,12.000000238418579,4,12.000000238418579ZM6.3431499,6.343150138418579C7.8434401,4.842850238418579,9.8782701,4.000000238418579,12,4.000000238418579C12,4.000000238418579,12,2.000000238418579,12,2.000000238418579C9.3478398,2.000000238418579,6.8043001,3.053568739418579,4.92893,4.928930238418579C4.92893,4.928930238418579,6.3431499,6.343150138418579,6.3431499,6.343150138418579C6.3431499,6.343150138418579,6.3431499,6.343150138418579,6.3431499,6.343150138418579ZM12,4.000000238418579C14.1217,4.000000238418579,16.156599999999997,4.842850238418579,17.6569,6.343150138418579C17.6569,6.343150138418579,19.0711,4.928930238418579,19.0711,4.928930238418579C17.195700000000002,3.053568840418579,14.6522,2.000000238418579,12,2.000000238418579C12,2.000000238418579,12,4.000000238418579,12,4.000000238418579C12,4.000000238418579,12,4.000000238418579,12,4.000000238418579ZM17.6569,6.343150138418579C19.157101,7.843440338418579,20,9.878270338418579,20,12.000000238418579C20,12.000000238418579,22,12.000000238418579,22,12.000000238418579C22,9.347840038418578,20.9464,6.804300338418579,19.0711,4.928930238418579C19.0711,4.928930238418579,17.6569,6.343150138418579,17.6569,6.343150138418579C17.6569,6.343150138418579,17.6569,6.343150138418579,17.6569,6.343150138418579Z" fill="#0A0A28" fill-opacity="1"/></g></svg>