<svg xmlns="http://www.w3.org/2000/svg" xmlns:xlink="http://www.w3.org/1999/xlink" fill="none" version="1.1" width="24" height="24" viewBox="0 0 24 24"><defs><clipPath id="master_svg0_3_1750"><rect x="0" y="0" width="24" height="24" rx="0"/></clipPath></defs><g clip-path="url(#master_svg0_3_1750)"><path d="M4.899593796484375,10.8000250140625C4.899593796484375,10.8000250140625,7.234793696484375,10.8000250140625,7.234793696484375,10.8000250140625C7.341594196484375,8.9448247140625,7.694394096484375,7.2360248140625,8.239194396484375,5.8584244140625C7.362005696484375,6.3959286140625,6.610097896484375,7.1150527140625,6.0340499964843755,7.9674249140625C5.458002096484375,8.819808914062499,5.071170096484375,9.7856645140625,4.899593796484375,10.8000250140625C4.899593796484375,10.8000250140625,4.899593796484375,10.8000250140625,4.899593796484375,10.8000250140625ZM11.999994296484376,2.4000244140625C9.453918496484375,2.4000244140625018,7.012122196484375,3.4114504140625,5.211773896484376,5.211804414062501C3.411419896484375,7.0121527140625,2.399993896484377,9.4539490140625,2.399993896484375,12.0000248140625C2.3999938964843768,14.5460654140625,3.411419896484375,16.9879444140625,5.211773896484376,18.7883054140625C7.012122196484375,20.5885444140625,9.453918496484375,21.6000254140625,11.999994296484376,21.6000254140625C14.546034896484375,21.6000254140625,16.987913896484375,20.5885444140625,18.788274896484374,18.7883054140625C20.588513896484375,16.9879444140625,21.599994896484375,14.5460654140625,21.599994896484375,12.0000248140625C21.599994896484375,9.4539490140625,20.588513896484375,7.0121527140625,18.788274896484374,5.211804414062501C16.987913896484375,3.4114504140625,14.546034896484375,2.4000244140625013,11.999994296484376,2.4000244140625C11.999994296484376,2.4000244140625,11.999994296484376,2.4000244140625,11.999994296484376,2.4000244140625C11.999994296484376,2.4000244140625,11.999994296484376,2.4000244140625,11.999994296484376,2.4000244140625ZM11.999994296484376,4.8000245140625C11.908794396484375,4.8000245140625,11.721594796484375,4.8384247140625,11.441993696484374,5.114424714062499C11.156393996484375,5.3952246140625,10.845594396484374,5.8620245140625,10.557594296484375,6.5328245140625C10.090794096484375,7.6212244140625,9.749994296484374,9.103224714062499,9.638394396484376,10.8000250140625C9.638394396484376,10.8000250140625,14.361594896484375,10.8000250140625,14.361594896484375,10.8000250140625C14.249993896484375,9.103224714062499,13.909193896484375,7.6212244140625,13.442393896484376,6.5328245140625C13.154393896484375,5.8608246140624995,12.842393896484374,5.3952246140625,12.557994896484376,5.114424714062499C12.278394696484375,4.8384247140625,12.091194196484375,4.8000245140625,11.999994296484376,4.8000245140625C11.999994296484376,4.8000245140625,11.999994296484376,4.8000245140625,11.999994296484376,4.8000245140625ZM16.765193896484377,10.8000250140625C16.658394896484374,8.9448247140625,16.305594896484376,7.2360248140625,15.760794896484375,5.8584244140625C16.637993896484375,6.3959286140625,17.389914896484377,7.1150527140625,17.965913896484373,7.9674249140625C18.542033896484376,8.819808914062499,18.928794896484376,9.7856645140625,19.100394896484374,10.8000250140625C19.100394896484374,10.8000250140625,16.765193896484377,10.8000250140625,16.765193896484377,10.8000250140625C16.765193896484377,10.8000250140625,16.765193896484377,10.8000250140625,16.765193896484377,10.8000250140625ZM14.361594896484375,13.2000244140625C14.361594896484375,13.2000244140625,9.638394396484376,13.2000244140625,9.638394396484376,13.2000244140625C9.749994296484374,14.8968244140625,10.090794096484375,16.3788254140625,10.557594296484375,17.4672254140625C10.845594396484374,18.1392254140625,11.157593696484374,18.6048244140625,11.441993696484374,18.8856254140625C11.721594796484375,19.1616244140625,11.908794396484375,19.2000254140625,11.999994296484376,19.2000254140625C12.091194196484375,19.2000254140625,12.278394696484375,19.1616244140625,12.557994896484376,18.8856254140625C12.843594896484374,18.6048244140625,13.155594896484375,18.1380244140625,13.442393896484376,17.4672254140625C13.909193896484375,16.3788254140625,14.249993896484375,14.8968244140625,14.361594896484375,13.2000244140625C14.361594896484375,13.2000244140625,14.361594896484375,13.2000244140625,14.361594896484375,13.2000244140625ZM15.760794896484375,18.1416254140625C16.305594896484376,16.7652244140625,16.658394896484374,15.0552244140625,16.765193896484377,13.2000244140625C16.765193896484377,13.2000244140625,19.100394896484374,13.2000244140625,19.100394896484374,13.2000244140625C18.928794896484376,14.2143844140625,18.542033896484376,15.1802644140625,17.965913896484373,16.0326254140625C17.389914896484377,16.8849854140625,16.637993896484375,17.6041454140625,15.760794896484375,18.1416254140625C15.760794896484375,18.1416254140625,15.760794896484375,18.1416254140625,15.760794896484375,18.1416254140625C15.760794896484375,18.1416254140625,15.760794896484375,18.1416254140625,15.760794896484375,18.1416254140625ZM8.239194396484375,18.1416254140625C7.694394096484375,16.764025414062502,7.341594196484375,15.0552244140625,7.235994296484375,13.2000244140625C7.235994296484375,13.2000244140625,4.899593796484375,13.2000244140625,4.899593796484375,13.2000244140625C5.071170096484375,14.2143844140625,5.458002096484375,15.1802644140625,6.0340499964843755,16.0326254140625C6.610097896484375,16.8849854140625,7.362005696484375,17.6041454140625,8.239194396484375,18.1416254140625C8.239194396484375,18.1416254140625,8.239194396484375,18.1416254140625,8.239194396484375,18.1416254140625C8.239194396484375,18.1416254140625,8.239194396484375,18.1416254140625,8.239194396484375,18.1416254140625Z" fill-rule="evenodd" fill="#0A0A28" fill-opacity="1"/></g></svg>