<svg xmlns="http://www.w3.org/2000/svg" xmlns:xlink="http://www.w3.org/1999/xlink" fill="none" version="1.1" width="24" height="24" viewBox="0 0 24 24"><defs><clipPath id="master_svg0_3_1882"><rect x="0" y="0" width="24" height="24" rx="0"/></clipPath></defs><g clip-path="url(#master_svg0_3_1882)"><path d="M21,12C21,12,22,12,22,12C22,12,21,12,21,12C21,12,21,12,21,12ZM12,3C12,3,12,2,12,2C12,2,12,3,12,3C12,3,12,3,12,3ZM3,12C3,12,2,12,2,12C2,12,3,12,3,12C3,12,3,12,3,12ZM20,12C20,14.1217,19.157101,16.156599999999997,17.6569,17.6569C17.6569,17.6569,19.0711,19.0711,19.0711,19.0711C20.9464,17.195700000000002,22,14.6522,22,12C22,12,20,12,20,12C20,12,20,12,20,12ZM17.6569,17.6569C16.156599999999997,19.157101,14.1217,20,12,20C12,20,12,22,12,22C14.6522,22,17.195700000000002,20.9464,19.0711,19.0711C19.0711,19.0711,17.6569,17.6569,17.6569,17.6569C17.6569,17.6569,17.6569,17.6569,17.6569,17.6569ZM22,12C22,9.3478398,20.9464,6.8043001,19.0711,4.92893C19.0711,4.92893,17.6569,6.3431499,17.6569,6.3431499C19.157101,7.8434401,20,9.8782701,20,12C20,12,22,12,22,12C22,12,22,12,22,12ZM19.0711,4.92893C17.195700000000002,3.0535683,14.6522,2,12,2C12,2,12,4,12,4C14.1217,4,16.156599999999997,4.84285,17.6569,6.3431499C17.6569,6.3431499,19.0711,4.92893,19.0711,4.92893C19.0711,4.92893,19.0711,4.92893,19.0711,4.92893ZM21,11C21,11,3,11,3,11C3,11,3,13,3,13C3,13,21,13,21,13C21,13,21,11,21,11C21,11,21,11,21,11ZM12,20C9.8782701,20,7.8434401,19.157101,6.3431499,17.6569C6.3431499,17.6569,4.92893,19.0711,4.92893,19.0711C6.8043001,20.9464,9.3478398,22,12,22C12,22,12,20,12,20C12,20,12,20,12,20ZM6.3431499,17.6569C4.84285,16.156599999999997,4,14.1217,4,12C4,12,2,12,2,12C2,14.6522,3.0535683,17.195700000000002,4.92893,19.0711C4.92893,19.0711,6.3431499,17.6569,6.3431499,17.6569C6.3431499,17.6569,6.3431499,17.6569,6.3431499,17.6569ZM12,22C12.8520098,22,13.5045,21.481001,13.9532,20.9116C14.4109,20.3309,14.7792,19.552601,15.0701,18.68C15.6552,16.924300000000002,16,14.5626,16,12C16,12,14,12,14,12C14,14.4074,13.6733,16.5457,13.1727,18.0475C12.9206495,18.8037,12.64258,19.3435,12.3823605,19.6737C12.2545605,19.835899,12.1506004,19.922501,12.0814505,19.964899C12.04846,19.985201,12.0264502,19.9935,12.0152998,19.996901C12.0049496,20.000099,12.0007296,20,12,20C12,20,12,22,12,22C12,22,12,22,12,22ZM16,12C16,9.4374299,15.6552,7.0757098,15.0701,5.3200400000000005C14.7792,4.44744,14.4109,3.66911602,13.9532,3.0883995C13.5045,2.51896101,12.8520098,2,12,2C12,2,12,4,12,4C12.0007296,4,12.0049496,3.99990201,12.0152998,4.00306C12.0264502,4.0064501,12.04846,4.01483,12.0814505,4.03508C12.1506004,4.07753,12.2545605,4.1641099,12.3823605,4.32629C12.64258,4.65651,12.9206495,5.19631,13.1727,5.9524601C13.6733,7.4542999,14,9.5925698,14,12C14,12,16,12,16,12C16,12,16,12,16,12ZM12,20C11.9992704,20,11.9950504,20.000099,11.9847002,19.996901C11.9735498,19.9935,11.95154,19.985201,11.9185495,19.964899C11.8493996,19.922501,11.7454395,19.835899,11.6176395,19.6737C11.35742,19.3435,11.0793505,18.8037,10.8273201,18.0475C10.3267398,16.5457,10,14.4074,10,12C10,12,8,12,8,12C8,14.5626,8.3447599,16.924300000000002,8.929930200000001,18.68C9.2207799,19.552601,9.58915,20.3309,10.0467701,20.9116C10.495500100000001,21.481001,11.1479902,22,12,22C12,22,12,20,12,20C12,20,12,20,12,20ZM10,12C10,9.5925698,10.3267398,7.4542999,10.8273201,5.9524601C11.0793505,5.19631,11.35742,4.65651,11.6176395,4.32629C11.7454395,4.1641099,11.8493996,4.07753,11.9185495,4.03508C11.95154,4.01483,11.9735498,4.0064501,11.9847002,4.00306C11.9950504,3.99990201,11.9992704,4,12,4C12,4,12,2,12,2C11.1479902,2,10.495500100000001,2.51896101,10.0467701,3.0883995C9.58915,3.66911602,9.2207799,4.44744,8.929930200000001,5.3200400000000005C8.3447599,7.0757098,8,9.4374299,8,12C8,12,10,12,10,12C10,12,10,12,10,12ZM4,12C4,9.8782701,4.84285,7.8434401,6.3431499,6.3431499C6.3431499,6.3431499,4.92893,4.92893,4.92893,4.92893C3.053568199,6.8043001,2,9.3478398,2,12C2,12,4,12,4,12C4,12,4,12,4,12ZM6.3431499,6.3431499C7.8434401,4.84285,9.8782701,4,12,4C12,4,12,2,12,2C9.3478398,2,6.8043001,3.053568199,4.92893,4.92893C4.92893,4.92893,6.3431499,6.3431499,6.3431499,6.3431499C6.3431499,6.3431499,6.3431499,6.3431499,6.3431499,6.3431499Z" fill="#0A0A28" fill-opacity="1"/></g></svg>