<svg xmlns="http://www.w3.org/2000/svg" xmlns:xlink="http://www.w3.org/1999/xlink" fill="none" version="1.1" width="24" height="24" viewBox="0 0 24 24"><defs><clipPath id="master_svg0_3_1443"><rect x="0" y="0" width="24" height="24" rx="0"/></clipPath></defs><g clip-path="url(#master_svg0_3_1443)"><path d="M11.999994296484376,21.6000254140625C14.546034896484375,21.6000254140625,16.987913896484375,20.5885444140625,18.788274896484374,18.7883054140625C20.588513896484375,16.9879444140625,21.599994896484375,14.5460654140625,21.599994896484375,12.0000248140625C21.599994896484375,9.4539490140625,20.588513896484375,7.0121527140625,18.788274896484374,5.211804414062501C16.987913896484375,3.4114504140625,14.546034896484375,2.4000244140625013,11.999994296484376,2.4000244140625C9.453918496484375,2.4000244140625018,7.012122196484375,3.4114504140625,5.211773896484376,5.211804414062501C3.411419896484375,7.0121527140625,2.399993896484377,9.4539490140625,2.399993896484375,12.0000248140625C2.3999938964843768,14.5460654140625,3.411419896484375,16.9879444140625,5.211773896484376,18.7883054140625C7.012122196484375,20.5885444140625,9.453918496484375,21.6000254140625,11.999994296484376,21.6000254140625C11.999994296484376,21.6000254140625,11.999994296484376,21.6000254140625,11.999994296484376,21.6000254140625C11.999994296484376,21.6000254140625,11.999994296484376,21.6000254140625,11.999994296484376,21.6000254140625ZM5.198394096484375,9.6324248140625C5.643942096484375,8.3564882140625,6.438941996484375,7.2313447140625,7.492793996484375,6.3852246140624995C7.814393996484375,6.8760247140625,8.368793996484374,7.2000246140625,8.999994296484374,7.2000246140625C9.477378396484376,7.2000246140625,9.935225996484375,7.3896727140625,10.272786096484374,7.7272329140625C10.610345796484374,8.064792614062501,10.799994496484375,8.5226407140625,10.799994496484375,9.000024814062499C10.799994496484375,9.000024814062499,10.799994496484375,9.6000247140625,10.799994496484375,9.6000247140625C10.799994496484375,10.2365403140625,11.052845996484375,10.8469934140625,11.502942096484375,11.2970762140625C11.953025796484376,11.7471723140625,12.563478896484375,12.0000248140625,13.199993896484376,12.0000248140625C13.836509896484374,12.0000248140625,14.446913896484375,11.7471723140625,14.897034896484374,11.2970762140625C15.347154896484374,10.8469934140625,15.599994896484375,10.2365403140625,15.599994896484375,9.6000247140625C15.599753896484374,9.062928714062501,15.779754896484375,8.541300814062499,16.111075896484373,8.1185884140625C16.442393896484376,7.6958766140625,16.905953896484377,7.3965249140625,17.427593896484375,7.2684250140625C18.572753896484375,8.5784287140625,19.202634896484376,10.2600489140625,19.199994896484377,12.0000248140625C19.199994896484377,12.4080244140625,19.166394896484373,12.8100254140625,19.100394896484374,13.2000244140625C19.100394896484374,13.2000244140625,17.999993896484376,13.2000244140625,17.999993896484376,13.2000244140625C17.363513896484378,13.2000244140625,16.753074896484375,13.4528764140625,16.302954896484373,13.9029724140625C15.852834896484374,14.3530564140625,15.599994896484375,14.9635444140625,15.599994896484375,15.6000254140625C15.599994896484375,15.6000254140625,15.599994896484375,18.236424414062498,15.599994896484375,18.236424414062498C14.505953896484375,18.8694244140625,13.263966896484375,19.2018264140625,11.999994296484376,19.2000254140625C11.999994296484376,19.2000254140625,11.999994296484376,16.8000254140625,11.999994296484376,16.8000254140625C11.999994296484376,16.1635444140625,11.747141796484375,15.5531054140625,11.297045696484375,15.1029854140625C10.846962896484374,14.6528654140625,10.236509796484375,14.4000244140625,9.599994196484374,14.4000244140625C8.963478596484375,14.4000244140625,8.353025896484375,14.1471734140625,7.902942196484375,13.6970764140625C7.452846096484375,13.2469924140625,7.199994096484375,12.6365404140625,7.199994096484375,12.0000248140625C7.200209596484375,11.4324245140625,6.999246096484375,10.8831129140625,6.632790096484375,10.4496612140625C6.266334096484375,10.016196714062499,5.758121996484375,9.726648314062501,5.198394096484375,9.6324248140625C5.198394096484375,9.6324248140625,5.198394096484375,9.6324248140625,5.198394096484375,9.6324248140625C5.198394096484375,9.6324248140625,5.198394096484375,9.6324248140625,5.198394096484375,9.6324248140625Z" fill-rule="evenodd" fill="#0A0A28" fill-opacity="1"/></g></svg>