<svg xmlns="http://www.w3.org/2000/svg" xmlns:xlink="http://www.w3.org/1999/xlink" fill="none" version="1.1" width="24" height="24" viewBox="0 0 24 24"><defs><clipPath id="master_svg0_3_1593"><rect x="0" y="0" width="24" height="24" rx="0"/></clipPath></defs><g clip-path="url(#master_svg0_3_1593)"><path d="M7,11.5C7,11.5,8,11.5,8,11.5C8,11.5,8,11.5,8,11.5C8,11.5,7,11.5,7,11.5C7,11.5,7,11.5,7,11.5ZM6,14C6,14.5523,6.4477201,15,7,15C7.5522799,15,8,14.5523,8,14C8,14,6,14,6,14C6,14,6,14,6,14ZM8.5,4C8.5,4,8.5,3,8.5,3C8.5,3,8.5,4,8.5,4C8.5,4,8.5,4,8.5,4ZM5.5,10C5.5,10,5.5,9,5.5,9C5.5,9,5.5,10,5.5,10C5.5,10,5.5,10,5.5,10ZM4,11.5C4,11.5,3,11.5,3,11.5C3,11.5,3,11.5,3,11.5C3,11.5,4,11.5,4,11.5C4,11.5,4,11.5,4,11.5ZM4,13.5C4,13.5,3,13.5,3,13.5C3,13.5,4,13.5,4,13.5C4,13.5,4,13.5,4,13.5ZM9,11C9,11.55229,9.4477201,12,10,12C10.5522799,12,11,11.55229,11,11C11,11,9,11,9,11C9,11,9,11,9,11ZM11.5,3C11.5,3,11.5,2,11.5,2C11.5,2,11.5,3,11.5,3C11.5,3,11.5,3,11.5,3ZM12,11C12,11.55229,12.44771,12,13,12C13.55229,12,14,11.55229,14,11C14,11,12,11,12,11C12,11,12,11,12,11ZM14.5,4C14.5,4,14.5,3,14.5,3C14.5,3,14.5,4,14.5,4C14.5,4,14.5,4,14.5,4ZM15,11C15,11.55229,15.4477,12,16,12C16.552300000000002,12,17,11.55229,17,11C17,11,15,11,15,11C15,11,15,11,15,11ZM6,11.5C6,11.5,6,14,6,14C6,14,8,14,8,14C8,14,8,11.5,8,11.5C8,11.5,6,11.5,6,11.5C6,11.5,6,11.5,6,11.5ZM8,11.5C8,11.5,8,5.5,8,5.5C8,5.5,6,5.5,6,5.5C6,5.5,6,11.5,6,11.5C6,11.5,8,11.5,8,11.5C8,11.5,8,11.5,8,11.5ZM8,5.5C8,5.3673899,8.052679999999999,5.2402101000000005,8.14645,5.14645C8.14645,5.14645,6.7322299,3.73223299,6.7322299,3.73223299C6.2633901000000005,4.20107,6,4.8369599999999995,6,5.5C6,5.5,8,5.5,8,5.5C8,5.5,8,5.5,8,5.5ZM8.14645,5.14645C8.240210099999999,5.0526800000000005,8.3673902,5,8.5,5C8.5,5,8.5,3,8.5,3C7.836960100000001,3.0000000000000013,7.2010701,3.263392,6.7322299,3.73223299C6.7322299,3.73223299,8.14645,5.14645,8.14645,5.14645C8.14645,5.14645,8.14645,5.14645,8.14645,5.14645ZM8.5,5C8.6326098,5,8.759789900000001,5.0526800000000005,8.85355,5.14645C8.85355,5.14645,10.2677698,3.73223299,10.2677698,3.73223299C9.798930200000001,3.263392,9.163040200000001,3,8.5,3C8.5,3,8.5,5,8.5,5C8.5,5,8.5,5,8.5,5ZM8.85355,5.14645C8.947320000000001,5.2402101000000005,9,5.3673899,9,5.5C9,5.5,11,5.5,11,5.5C11,4.8369599999999995,10.736609900000001,4.20107,10.2677698,3.73223299C10.2677698,3.73223299,8.85355,5.14645,8.85355,5.14645C8.85355,5.14645,8.85355,5.14645,8.85355,5.14645ZM8,11.5C8,10.836959799999999,7.7366098999999995,10.201069799999999,7.2677701,9.7322302C7.2677701,9.7322302,5.85355,11.14645,5.85355,11.14645C5.9473199999999995,11.2402096,6,11.3673897,6,11.5C6,11.5,8,11.5,8,11.5C8,11.5,8,11.5,8,11.5ZM7.2677701,9.7322302C6.7989299,9.263390099999999,6.163039899999999,9,5.5,9C5.5,9,5.5,11,5.5,11C5.63261,11,5.7597898999999995,11.05268,5.85355,11.14645C5.85355,11.14645,7.2677701,9.7322302,7.2677701,9.7322302C7.2677701,9.7322302,7.2677701,9.7322302,7.2677701,9.7322302ZM5.5,9C4.836959,9,4.201074,9.263390099999999,3.73223299,9.7322302C3.73223299,9.7322302,5.14645,11.14645,5.14645,11.14645C5.2402101000000005,11.05268,5.36739,11,5.5,11C5.5,11,5.5,9,5.5,9C5.5,9,5.5,9,5.5,9ZM3.73223299,9.7322302C3.26339197,10.201069799999999,3,10.836959799999999,3,11.5C3,11.5,5,11.5,5,11.5C5,11.3673897,5.0526800000000005,11.2402096,5.14645,11.14645C5.14645,11.14645,3.73223299,9.7322302,3.73223299,9.7322302C3.73223299,9.7322302,3.73223299,9.7322302,3.73223299,9.7322302ZM3,11.5C3,11.5,3,13.5,3,13.5C3,13.5,5,13.5,5,13.5C5,13.5,5,11.5,5,11.5C5,11.5,3,11.5,3,11.5C3,11.5,3,11.5,3,11.5ZM3,13.5C3,15.7543,3.895533,17.9163,5.48959,19.510401C5.48959,19.510401,6.90381,18.0962,6.90381,18.0962C5.6848201,16.877200000000002,5,15.2239,5,13.5C5,13.5,3,13.5,3,13.5C3,13.5,3,13.5,3,13.5ZM5.48959,19.510401C7.0836501,21.1045,9.2456598,22,11.5,22C11.5,22,11.5,20,11.5,20C9.776090100000001,20,8.1227899,19.315201,6.90381,18.0962C6.90381,18.0962,5.48959,19.510401,5.48959,19.510401C5.48959,19.510401,5.48959,19.510401,5.48959,19.510401ZM11.5,22C13.7543402,22,15.9163,21.1045,17.5104,19.510401C17.5104,19.510401,16.0962,18.0962,16.0962,18.0962C14.8772,19.315201,13.2239103,20,11.5,20C11.5,20,11.5,22,11.5,22C11.5,22,11.5,22,11.5,22ZM17.5104,19.510401C19.1045,17.9163,20,15.7543,20,13.5C20,13.5,18,13.5,18,13.5C18,15.2239,17.3152,16.877200000000002,16.0962,18.0962C16.0962,18.0962,17.5104,19.510401,17.5104,19.510401C17.5104,19.510401,17.5104,19.510401,17.5104,19.510401ZM20,13.5C20,13.5,20,8.5,20,8.5C20,8.5,18,8.5,18,8.5C18,8.5,18,13.5,18,13.5C18,13.5,20,13.5,20,13.5C20,13.5,20,13.5,20,13.5ZM20,8.5C20,7.8369598,19.7366,7.2010698,19.2678,6.7322299C19.2678,6.7322299,17.8536,8.14645,17.8536,8.14645C17.9473,8.2402201,18,8.3673902,18,8.5C18,8.5,20,8.5,20,8.5C20,8.5,20,8.5,20,8.5ZM19.2678,6.7322299C18.7989,6.2633901000000005,18.163,6,17.5,6C17.5,6,17.5,8,17.5,8C17.6326,8,17.7598,8.052679999999999,17.8536,8.14645C17.8536,8.14645,19.2678,6.7322299,19.2678,6.7322299C19.2678,6.7322299,19.2678,6.7322299,19.2678,6.7322299ZM17.5,6C16.837,6,16.2011,6.2633901000000005,15.7322,6.7322299C15.7322,6.7322299,17.1464,8.14645,17.1464,8.14645C17.2402,8.052679999999999,17.3674,8,17.5,8C17.5,8,17.5,6,17.5,6C17.5,6,17.5,6,17.5,6ZM15.7322,6.7322299C15.2634,7.2010698,15,7.8369598,15,8.5C15,8.5,17,8.5,17,8.5C17,8.3673902,17.0527,8.2402201,17.1464,8.14645C17.1464,8.14645,15.7322,6.7322299,15.7322,6.7322299C15.7322,6.7322299,15.7322,6.7322299,15.7322,6.7322299ZM9,5.5C9,5.5,9,11,9,11C9,11,11,11,11,11C11,11,11,5.5,11,5.5C11,5.5,9,5.5,9,5.5C9,5.5,9,5.5,9,5.5ZM11,5.5C11,5.5,11,4.5,11,4.5C11,4.5,9,4.5,9,4.5C9,4.5,9,5.5,9,5.5C9,5.5,11,5.5,11,5.5C11,5.5,11,5.5,11,5.5ZM11,4.5C11,4.36739,11.052679999999999,4.2402101000000005,11.14645,4.14645C11.14645,4.14645,9.7322302,2.73223299,9.7322302,2.73223299C9.263390099999999,3.201074,9,3.8369590000000002,9,4.5C9,4.5,11,4.5,11,4.5C11,4.5,11,4.5,11,4.5ZM11.14645,4.14645C11.240210099999999,4.0526800000000005,11.3673902,4,11.5,4C11.5,4,11.5,2,11.5,2C10.836959799999999,2,10.201069799999999,2.26339197,9.7322302,2.73223299C9.7322302,2.73223299,11.14645,4.14645,11.14645,4.14645C11.14645,4.14645,11.14645,4.14645,11.14645,4.14645ZM11.5,4C11.6326098,4,11.759789900000001,4.0526800000000005,11.85355,4.14645C11.85355,4.14645,13.2677698,2.73223299,13.2677698,2.73223299C12.7989302,2.26339197,12.1630402,2,11.5,2C11.5,2,11.5,4,11.5,4C11.5,4,11.5,4,11.5,4ZM11.85355,4.14645C11.947320000000001,4.2402101000000005,12,4.36739,12,4.5C12,4.5,14,4.5,14,4.5C14,3.8369590000000002,13.7366104,3.201074,13.2677698,2.73223299C13.2677698,2.73223299,11.85355,4.14645,11.85355,4.14645C11.85355,4.14645,11.85355,4.14645,11.85355,4.14645ZM12,4.5C12,4.5,12,5.5,12,5.5C12,5.5,14,5.5,14,5.5C14,5.5,14,4.5,14,4.5C14,4.5,12,4.5,12,4.5C12,4.5,12,4.5,12,4.5ZM12,5.5C12,5.5,12,11,12,11C12,11,14,11,14,11C14,11,14,5.5,14,5.5C14,5.5,12,5.5,12,5.5C12,5.5,12,5.5,12,5.5ZM14,5.5C14,5.3673899,14.0527,5.2402101000000005,14.1464,5.14645C14.1464,5.14645,12.7322302,3.73223299,12.7322302,3.73223299C12.2633896,4.20107,12,4.8369599999999995,12,5.5C12,5.5,14,5.5,14,5.5C14,5.5,14,5.5,14,5.5ZM14.1464,5.14645C14.2402,5.0526800000000005,14.3674,5,14.5,5C14.5,5,14.5,3,14.5,3C13.8369598,3.0000000000000013,13.2010698,3.263392,12.7322302,3.73223299C12.7322302,3.73223299,14.1464,5.14645,14.1464,5.14645C14.1464,5.14645,14.1464,5.14645,14.1464,5.14645ZM14.5,5C14.6326,5,14.7598,5.0526800000000005,14.8536,5.14645C14.8536,5.14645,16.2678,3.73223299,16.2678,3.73223299C15.7989,3.263392,15.163,3,14.5,3C14.5,3,14.5,5,14.5,5C14.5,5,14.5,5,14.5,5ZM14.8536,5.14645C14.9473,5.2402101000000005,15,5.3673899,15,5.5C15,5.5,17,5.5,17,5.5C17,4.8369599999999995,16.7366,4.20107,16.2678,3.73223299C16.2678,3.73223299,14.8536,5.14645,14.8536,5.14645C14.8536,5.14645,14.8536,5.14645,14.8536,5.14645ZM15,5.5C15,5.5,15,8.5,15,8.5C15,8.5,17,8.5,17,8.5C17,8.5,17,5.5,17,5.5C17,5.5,15,5.5,15,5.5C15,5.5,15,5.5,15,5.5ZM15,8.5C15,8.5,15,11,15,11C15,11,17,11,17,11C17,11,17,8.5,17,8.5C17,8.5,15,8.5,15,8.5C15,8.5,15,8.5,15,8.5Z" fill="#0A0A28" fill-opacity="1"/></g></svg>