<svg xmlns="http://www.w3.org/2000/svg" xmlns:xlink="http://www.w3.org/1999/xlink" fill="none" version="1.1" width="24" height="24" viewBox="0 0 24 24"><defs><clipPath id="master_svg0_3_2364"><rect x="0" y="0" width="24" height="24" rx="0"/></clipPath></defs><g clip-path="url(#master_svg0_3_2364)"><path d="M10.800006403515624,3.6000244140625C10.800006403515624,3.2817652840625,10.926438303515624,2.9765404440625,11.151474503515626,2.7514960140625C11.376522503515625,2.5264528240625,11.681742703515624,2.4000244140625004,12.000006703515625,2.4000244140625C12.318270703515624,2.4000244140625004,12.623490303515625,2.5264528240625,12.848538403515626,2.7514960140625C13.073574103515625,2.9765404440625,13.200006503515626,3.2817652840625,13.200006503515626,3.6000244140625C13.200006503515626,3.6000244140625,13.200006503515626,10.2000246140625,13.200006503515626,10.2000246140625C13.200006503515626,10.359156614062499,13.263222703515625,10.5117731140625,13.375746703515626,10.6242847140625C13.488258403515625,10.7368088140625,13.640874103515625,10.8000250140625,13.800007103515625,10.8000250140625C13.959139103515625,10.8000250140625,14.111755103515625,10.7368088140625,14.224266103515625,10.6242847140625C14.336790103515625,10.5117731140625,14.400006103515626,10.359156614062499,14.400006103515626,10.2000246140625C14.400006103515626,10.2000246140625,14.400006103515626,4.8000245140625,14.400006103515626,4.8000245140625C14.400006103515626,4.4817605140625005,14.526439103515624,4.1765405140625,14.751474103515624,3.9514924140625C14.976522103515626,3.7264565140625,15.281743103515625,3.6000244140625,15.600006103515625,3.6000244140625C15.918246103515624,3.6000244140625,16.223527103515625,3.7264565140625,16.448526103515626,3.9514924140625C16.673527103515625,4.1765405140625,16.800007103515625,4.4817605140625005,16.800007103515625,4.8000245140625C16.800007103515625,4.8000245140625,16.800007103515625,10.2000246140625,16.800007103515625,10.2000246140625C16.800007103515625,10.359156614062499,16.863247103515626,10.5117731140625,16.975687103515625,10.6242847140625C17.088246103515623,10.7368088140625,17.240887103515625,10.8000250140625,17.400006103515626,10.8000250140625C17.559127103515625,10.8000250140625,17.711766103515625,10.7368088140625,17.824326103515624,10.6242847140625C17.936767103515624,10.5117731140625,18.000007103515625,10.359156614062499,18.000007103515625,10.2000246140625C18.000007103515625,10.2000246140625,18.000007103515625,7.2000246140625,18.000007103515625,7.2000246140625C18.000007103515625,6.8817606140625,18.126487103515625,6.5765405140625,18.351487103515623,6.3514926140625C18.576486103515627,6.1264565140625,18.881767103515624,6.0000245140625,19.200006103515626,6.0000245140625C19.518247103515627,6.0000245140625,19.823526103515626,6.1264565140625,20.048527103515625,6.3514926140625C20.273527103515626,6.5765405140625,20.400007103515627,6.8817606140625,20.400007103515627,7.2000246140625C20.400007103515627,7.2000246140625,20.400007103515627,13.2000244140625,20.400007103515627,13.2000244140625C20.400007103515627,14.3031244140625,20.182688103515623,15.3954244140625,19.760647103515623,16.4145844140625C19.338487103515625,17.4337454140625,18.719767103515625,18.359665414062498,17.939647103515625,19.1396654140625C17.159646103515627,19.9197844140625,16.233726103515625,20.5385054140625,15.214542103515624,20.9606644140625C14.195407103515626,21.3827054140625,13.103106503515624,21.6000254140625,12.000006703515625,21.6000254140625C10.896906403515626,21.6000254140625,9.804606003515625,21.3827054140625,8.785470003515625,20.9606644140625C7.766334503515625,20.5385054140625,6.840318203515626,19.9197844140625,6.060306303515625,19.1396654140625C5.280294103515625,18.359665414062498,4.661557303515625,17.4337454140625,4.239417733515625,16.4145844140625C3.817278113515625,15.3954244140625,3.600006087078144,14.3031244140625,3.600006103515626,13.2000244140625C3.600006103515626,13.2000244140625,3.600006103515626,10.8000250140625,3.600006103515626,10.8000250140625C3.600006103515626,10.4817610140625,3.726434513515625,10.1765408140625,3.951477703515625,9.951492814062501C4.176522133515625,9.7264566140625,4.481746973515625,9.6000247140625,4.800006103515625,9.6000247140625C5.118270303515625,9.6000247140625,5.423490203515625,9.7264566140625,5.648538303515625,9.951492814062501C5.873574303515625,10.1765408140625,6.000006203515625,10.4817610140625,6.000006203515625,10.8000250140625C6.000006203515625,10.8000250140625,6.000006203515625,13.8000254140625,6.000006203515625,13.8000254140625C6.000006203515625,13.9591574140625,6.063222203515625,14.1117734140625,6.175746203515625,14.2242854140625C6.288258303515625,14.3368094140625,6.440874103515625,14.4000244140625,6.600006103515625,14.4000244140625C6.759138303515625,14.4000244140625,6.911754103515625,14.3368094140625,7.024266203515625,14.2242854140625C7.136790303515625,14.1117734140625,7.200006203515625,13.9591574140625,7.200006203515625,13.8000254140625C7.200006203515625,13.8000254140625,7.200006203515625,4.8000245140625,7.200006203515625,4.8000245140625C7.200006203515625,4.4817605140625005,7.326438203515625,4.1765405140625,7.551474303515625,3.9514924140625C7.776522203515625,3.7264565140625,8.081742303515625,3.6000244140625,8.400006303515624,3.6000244140625C8.718270303515624,3.6000244140625,9.023489903515625,3.7264565140625,9.248538003515625,3.9514924140625C9.473574203515625,4.1765405140625,9.600006103515625,4.4817605140625005,9.600006103515625,4.8000245140625C9.600006103515625,4.8000245140625,9.600006103515625,10.2000246140625,9.600006103515625,10.2000246140625C9.600006103515625,10.359156614062499,9.663222303515624,10.5117731140625,9.775746303515625,10.6242847140625C9.888258503515626,10.7368088140625,10.040874503515624,10.8000250140625,10.200006503515624,10.8000250140625C10.359138003515625,10.8000250140625,10.511754503515625,10.7368088140625,10.624266103515625,10.6242847140625C10.736790203515625,10.5117731140625,10.800006403515624,10.359156614062499,10.800006403515624,10.2000246140625C10.800006403515624,10.2000246140625,10.800006403515624,3.6000244140625,10.800006403515624,3.6000244140625C10.800006403515624,3.6000244140625,10.800006403515624,3.6000244140625,10.800006403515624,3.6000244140625Z" fill-rule="evenodd" fill="#0A0A28" fill-opacity="1"/></g></svg>