<svg xmlns="http://www.w3.org/2000/svg" xmlns:xlink="http://www.w3.org/1999/xlink" fill="none" version="1.1" width="24" height="24" viewBox="0 0 24 24"><defs><clipPath id="master_svg0_3_1806"><rect x="0" y="0" width="24" height="24" rx="0"/></clipPath></defs><g clip-path="url(#master_svg0_3_1806)"><path d="M11.0916252140625,3.6359876836875C11.4003363140625,3.7133320046875,11.6656694140625,3.9101380146875,11.8292770140625,4.1831140546875C11.9928846140625,4.4560900346875,12.0413532140625,4.7828764046875,11.9640245140625,5.0915909046875C11.9640245140625,5.0915909046875,11.4360247140625,7.1999910046875,11.4360247140625,7.1999910046875C11.4360247140625,7.1999910046875,14.9640254140625,7.1999910046875,14.9640254140625,7.1999910046875C14.9640254140625,7.1999910046875,15.6360244140625,4.5083872046875,15.6360244140625,4.5083872046875C15.6733444140625,4.3545544746875,15.7407844140625,4.2096363946875,15.8345054140625,4.0819828246875C15.9281054140625,3.9543280046875,16.0460654140625,3.8464600146875,16.181545414062498,3.7645936046875C16.3170254140625,3.6827262486875,16.4673854140625,3.6284783256875,16.6239854140625,3.6049745246875C16.780465414062498,3.5814706156875,16.940185414062498,3.5891755406875,17.0936654140625,3.6276451686875C17.2472644140625,3.6661148886875,17.3917454140625,3.7345888046875,17.518704414062498,3.8291224046875C17.6456654140625,3.9236572346875,17.7527044140625,4.0423816446875,17.833585414062497,4.1784580346875C17.914465414062498,4.3145356146875,17.9676244140625,4.4652736146875,17.9900654140625,4.6219901046875C18.012384414062502,4.7787064046875,18.003625414062498,4.9383029046875,17.964025414062498,5.0915909046875C17.964025414062498,5.0915909046875,17.4360244140625,7.1999910046875,17.4360244140625,7.1999910046875C17.4360244140625,7.1999910046875,20.4000244140625,7.1999910046875,20.4000244140625,7.1999910046875C20.7182654140625,7.1999910046875,21.0235444140625,7.3264108046875,21.2485444140625,7.5514588046875C21.4735454140625,7.7765069046875,21.6000254140625,8.081727004687501,21.6000254140625,8.3999910046875C21.6000254140625,8.718243104687499,21.4735454140625,9.0234752046875,21.2485444140625,9.2485108046875C21.0235444140625,9.4735589046875,20.7182654140625,9.5999908046875,20.4000244140625,9.5999908046875C20.4000244140625,9.5999908046875,16.8360244140625,9.5999908046875,16.8360244140625,9.5999908046875C16.8360244140625,9.5999908046875,15.6360244140625,14.3999918046875,15.6360244140625,14.3999918046875C15.6360244140625,14.3999918046875,18.0000244140625,14.3999918046875,18.0000244140625,14.3999918046875C18.318265414062502,14.3999918046875,18.6235444140625,14.5264108046875,18.8485454140625,14.7514588046875C19.0735454140625,14.9765068046875,19.2000254140625,15.2817268046875,19.2000254140625,15.5999558046875C19.2000254140625,15.9181958046875,19.0735454140625,16.2234758046875,18.8485454140625,16.4484748046875C18.6235444140625,16.6735958046875,18.318265414062502,16.7999558046875,18.0000244140625,16.7999558046875C18.0000244140625,16.7999558046875,15.0360254140625,16.7999558046875,15.0360254140625,16.7999558046875C15.0360254140625,16.7999558046875,14.3640254140625,19.4903558046875,14.3640254140625,19.4903558046875C14.3280374140625,19.6456358046875,14.2615094140625,19.7920358046875,14.1683154140625,19.9212758046875C14.0751244140625,20.0505158046875,13.9571294140625,20.1598358046875,13.8212284140625,20.2429948046875C13.6853174140625,20.3261568046875,13.5342244140625,20.3813548046875,13.3767364140625,20.4054758046875C13.2192614140625,20.4295958046875,13.0585564140625,20.4221558046875,12.9039974140625,20.3835168046875C12.7494364140625,20.3448758046875,12.6041174140625,20.2758748046875,12.4765094140625,20.1804748046875C12.3489132140625,20.0850758046875,12.2415848140625,19.9651948046875,12.1607895140625,19.8279148046875C12.0799923140625,19.6906358046875,12.0273485140625,19.5385948046875,12.0059290140625,19.3806758046875C11.9845085140625,19.2228758046875,11.9947452140625,19.0623158046875,12.0360241140625,18.908354804687498C12.0360241140625,18.908354804687498,12.5640254140625,16.7999558046875,12.5640254140625,16.7999558046875C12.5640254140625,16.7999558046875,9.0360250140625,16.7999558046875,9.0360250140625,16.7999558046875C9.0360250140625,16.7999558046875,8.364024114062499,19.4903558046875,8.364024114062499,19.4903558046875C8.3280368140625,19.6456358046875,8.2615089140625,19.7920358046875,8.1683168140625,19.9212758046875C8.0751247140625,20.0505158046875,7.9571285140625,20.1598358046875,7.8212290140625,20.2429948046875C7.6853165140625,20.3261568046875,7.5342245140625,20.3813548046875,7.3767366140625,20.4054758046875C7.2192602140625,20.4295958046875,7.0585565140625,20.4221558046875,6.9039965140625,20.3835168046875C6.7494368140625,20.3448758046875,6.6041169140625,20.2758748046875,6.4765086140625,20.1804748046875C6.3489125140625,20.0850758046875,6.241584514062501,19.9651948046875,6.160788514062499,19.8279148046875C6.0799925140625,19.6906358046875,6.0273485140625,19.5385948046875,6.0059285140625,19.3806758046875C5.9845087140625,19.2228758046875,5.9947445140625,19.0623158046875,6.0360246140625,18.908354804687498C6.0360246140625,18.908354804687498,6.5640244140625,16.7999558046875,6.5640244140625,16.7999558046875C6.5640244140625,16.7999558046875,3.6000244140625,16.7999558046875,3.6000244140625,16.7999558046875C3.2817652840625,16.7999558046875,2.9765404440625,16.6735958046875,2.7514960140625,16.4484748046875C2.5264528240625,16.2234758046875,2.400024414062501,15.9181958046875,2.4000244140625,15.5999558046875C2.4000244140625004,15.2817268046875,2.5264528240625,14.9765068046875,2.7514960140625,14.7514588046875C2.9765404440625,14.5264108046875,3.2817652840625,14.3999918046875,3.6000244140625,14.3999918046875C3.6000244140625,14.3999918046875,7.1640248140625,14.3999918046875,7.1640248140625,14.3999918046875C7.1640248140625,14.3999918046875,8.364024114062499,9.5999908046875,8.364024114062499,9.5999908046875C8.364024114062499,9.5999908046875,6.0000245140625,9.5999908046875,6.0000245140625,9.5999908046875C5.6817605140625,9.5999908046875,5.3765404140625,9.4735589046875,5.1514926140625,9.2485108046875C4.9264564140625,9.0234752046875,4.8000245140625,8.718243104687499,4.8000245140625,8.3999910046875C4.8000245140625,8.081727004687501,4.9264564140625,7.7765069046875,5.1514926140625,7.5514588046875C5.3765404140625,7.3264108046875,5.6817605140625,7.1999910046875,6.0000245140625,7.1999910046875C6.0000245140625,7.1999910046875,8.964024514062501,7.1999910046875,8.964024514062501,7.1999910046875C8.964024514062501,7.1999910046875,9.6360249140625,4.5083872046875,9.6360249140625,4.5083872046875C9.713364614062499,4.1996800346875,9.9101767140625,3.9343396146875,10.183152714062501,3.7707340146875C10.4561291140625,3.6071284046875,10.7829132140625,3.5586589616875,11.0916252140625,3.6359876836875C11.0916252140625,3.6359876836875,11.0916252140625,3.6359876836875,11.0916252140625,3.6359876836875C11.0916252140625,3.6359876836875,11.0916252140625,3.6359876836875,11.0916252140625,3.6359876836875ZM10.8360252140625,9.5999908046875C10.8360252140625,9.5999908046875,9.6360249140625,14.3999918046875,9.6360249140625,14.3999918046875C9.6360249140625,14.3999918046875,13.1616244140625,14.3999918046875,13.1616244140625,14.3999918046875C13.1616244140625,14.3999918046875,14.3616254140625,9.5999908046875,14.3616254140625,9.5999908046875C14.3616254140625,9.5999908046875,10.8372249140625,9.5999908046875,10.8372249140625,9.5999908046875C10.8372249140625,9.5999908046875,10.8360252140625,9.5999908046875,10.8360252140625,9.5999908046875C10.8360252140625,9.5999908046875,10.8360252140625,9.5999908046875,10.8360252140625,9.5999908046875Z" fill-rule="evenodd" fill="#0A0A28" fill-opacity="1"/></g></svg>