<svg xmlns="http://www.w3.org/2000/svg" xmlns:xlink="http://www.w3.org/1999/xlink" fill="none" version="1.1" width="24" height="24" viewBox="0 0 24 24"><defs><clipPath id="master_svg0_3_1830"><rect x="0" y="0" width="24" height="24" rx="0"/></clipPath></defs><g clip-path="url(#master_svg0_3_1830)"><path d="M6.02986,19.7575C5.89591,20.293301,6.2216699,20.836201,6.757460099999999,20.9701C7.2932600999999995,21.104099,7.83619,20.778299,7.97014,20.2425C7.97014,20.2425,6.02986,19.7575,6.02986,19.7575C6.02986,19.7575,6.02986,19.7575,6.02986,19.7575ZM11.97014,4.24253599C12.1040897,3.70674101,11.7783298,3.16380602,11.2425399,3.02985799C10.706739899999999,2.8959099999999998,10.1638098,3.22166902,10.02986,3.75746401C10.02986,3.75746401,11.97014,4.24253599,11.97014,4.24253599C11.97014,4.24253599,11.97014,4.24253599,11.97014,4.24253599ZM12.0298595,19.7575C11.8959098,20.293301,12.2216702,20.836201,12.7574596,20.9701C13.2932596,21.104099,13.8361902,20.778299,13.9701405,20.2425C13.9701405,20.2425,12.0298595,19.7575,12.0298595,19.7575C12.0298595,19.7575,12.0298595,19.7575,12.0298595,19.7575ZM17.970100000000002,4.24253599C18.104100000000003,3.70674101,17.7783,3.16380602,17.2425,3.02985799C16.706699999999998,2.8959099999999998,16.163800000000002,3.22166902,16.029899999999998,3.75746401C16.029899999999998,3.75746401,17.970100000000002,4.24253599,17.970100000000002,4.24253599C17.970100000000002,4.24253599,17.970100000000002,4.24253599,17.970100000000002,4.24253599ZM6,8C5.4477201,8,5,8.4477201,5,9C5,9.5522799,5.4477201,10,6,10C6,10,6,8,6,8C6,8,6,8,6,8ZM20,10C20.552299,10,21,9.5522799,21,9C21,8.4477201,20.552299,8,20,8C20,8,20,10,20,10C20,10,20,10,20,10ZM4,14C3.4477149799999998,14,3,14.4477,3,15C3,15.5523,3.4477149799999998,16,4,16C4,16,4,14,4,14C4,14,4,14,4,14ZM18,16C18.552300000000002,16,19,15.5523,19,15C19,14.4477,18.552300000000002,14,18,14C18,14,18,16,18,16C18,16,18,16,18,16ZM7.97014,20.2425C7.97014,20.2425,11.97014,4.24253599,11.97014,4.24253599C11.97014,4.24253599,10.02986,3.75746401,10.02986,3.75746401C10.02986,3.75746401,6.02986,19.7575,6.02986,19.7575C6.02986,19.7575,7.97014,20.2425,7.97014,20.2425C7.97014,20.2425,7.97014,20.2425,7.97014,20.2425ZM13.9701405,20.2425C13.9701405,20.2425,17.970100000000002,4.24253599,17.970100000000002,4.24253599C17.970100000000002,4.24253599,16.029899999999998,3.75746401,16.029899999999998,3.75746401C16.029899999999998,3.75746401,12.0298595,19.7575,12.0298595,19.7575C12.0298595,19.7575,13.9701405,20.2425,13.9701405,20.2425C13.9701405,20.2425,13.9701405,20.2425,13.9701405,20.2425ZM6,10C6,10,20,10,20,10C20,10,20,8,20,8C20,8,6,8,6,8C6,8,6,10,6,10C6,10,6,10,6,10ZM4,16C4,16,18,16,18,16C18,16,18,14,18,14C18,14,4,14,4,14C4,14,4,16,4,16C4,16,4,16,4,16Z" fill="#0A0A28" fill-opacity="1"/></g></svg>