<svg xmlns="http://www.w3.org/2000/svg" xmlns:xlink="http://www.w3.org/1999/xlink" fill="none" version="1.1" width="24" height="24" viewBox="0 0 24 24"><defs><clipPath id="master_svg0_3_1591"><rect x="0" y="0" width="24" height="24" rx="0"/></clipPath></defs><g clip-path="url(#master_svg0_3_1591)"><path d="M3.8063809765625,6.20640813203125C4.7065131765625,5.30654949203125,5.927189076562501,4.80103587703125,7.1999811765625,4.80103587703125C8.472761676562499,4.80103587703125,9.6934375765625,5.30654949203125,10.5935811765625,6.20640813203125C10.5935811765625,6.20640813203125,11.9999808765625,7.61160803203125,11.9999808765625,7.61160803203125C11.9999808765625,7.61160803203125,13.4063819765625,6.20640813203125,13.4063819765625,6.20640813203125C13.8491569765625,5.74796233203125,14.3788139765625,5.38228750203125,14.9644009765625,5.13072428203125C15.5500019765625,4.87916104203125,16.1798809765625,4.74674738103125,16.8172019765625,4.74120906445125C17.4546409765625,4.73567074353125,18.086680976562498,4.85711908203125,18.6766009765625,5.09846705203125C19.2664009765625,5.33981591203125,19.8024409765625,5.69623035203125,20.2530419765625,6.14691193203125C20.7037619765625,6.59759603203125,21.0601619765625,7.133528232031249,21.3014809765625,7.72343633203125C21.5429209765625,8.31333203203125,21.6643599765625,8.945396432031249,21.6587219765625,9.58274033203125C21.6532019765625,10.220084232031251,21.5208419765625,10.84992883203125,21.2693209765625,11.435553032031251C21.0176809765625,12.02117683203125,20.6520419765625,12.55083323203125,20.1935219765625,12.99360943203125C20.1935219765625,12.99360943203125,11.9999808765625,21.18846883203125,11.9999808765625,21.18846883203125C11.9999808765625,21.18846883203125,3.8063809765625,12.99360943203125,3.8063809765625,12.99360943203125C2.9065142265625,12.093476732031249,2.4010009765625,10.87280033203125,2.4010009765625,9.60000853203125C2.4010009765625004,8.32722853203125,2.9065142265625,7.10654023203125,3.8063809765625,6.20640813203125C3.8063809765625,6.20640813203125,3.8063809765625,6.20640813203125,3.8063809765625,6.20640813203125C3.8063809765625,6.20640813203125,3.8063809765625,6.20640813203125,3.8063809765625,6.20640813203125Z" fill-rule="evenodd" fill="#0A0A28" fill-opacity="1"/></g></svg>