<svg xmlns="http://www.w3.org/2000/svg" xmlns:xlink="http://www.w3.org/1999/xlink" fill="none" version="1.1" width="24" height="24" viewBox="0 0 24 24"><defs><clipPath id="master_svg0_3_2114"><rect x="0" y="0" width="24" height="24" rx="0"/></clipPath></defs><g clip-path="url(#master_svg0_3_2114)"><path d="M4.318001137771606,6.318000899353027C4.318001137771606,6.318000899353027,5.025101137771607,7.025110999353027,5.025101137771607,7.025110999353027C5.025101137771607,7.025110999353027,5.025111237771606,7.025100899353028,5.025111237771606,7.025100899353028C5.025111237771606,7.025100899353028,4.318001137771606,6.318000899353027,4.318001137771606,6.318000899353027C4.318001137771606,6.318000899353027,4.318001137771606,6.318000899353027,4.318001137771606,6.318000899353027ZM4.318001137771606,12.682001099353027C4.318001137771606,12.682001099353027,5.025111237771606,11.974890699353027,5.025111237771606,11.974890699353027C5.025111237771606,11.974890699353027,5.025101137771607,11.974890699353027,5.025101137771607,11.974890699353027C5.025101137771607,11.974890699353027,4.318001137771606,12.682001099353027,4.318001137771606,12.682001099353027C4.318001137771606,12.682001099353027,4.318001137771606,12.682001099353027,4.318001137771606,12.682001099353027ZM12.000001237771606,20.363960899353028C12.000001237771606,20.363960899353028,11.292890737771607,21.07106089935303,11.292890737771607,21.07106089935303C11.480430837771607,21.258659899353027,11.734781537771607,21.363960899353028,12.000001237771606,21.363960899353028C12.265220837771606,21.363960899353028,12.519571537771606,21.258659899353027,12.707111637771606,21.07106089935303C12.707111637771606,21.07106089935303,12.000001237771606,20.363960899353028,12.000001237771606,20.363960899353028C12.000001237771606,20.363960899353028,12.000001237771606,20.363960899353028,12.000001237771606,20.363960899353028ZM19.681960137771608,12.682001099353027C19.681960137771608,12.682001099353027,18.974861137771605,11.974890699353027,18.974861137771605,11.974890699353027C18.974861137771605,11.974890699353027,18.974861137771605,11.974890699353027,18.974861137771605,11.974890699353027C18.974861137771605,11.974890699353027,19.681960137771608,12.682001099353027,19.681960137771608,12.682001099353027C19.681960137771608,12.682001099353027,19.681960137771608,12.682001099353027,19.681960137771608,12.682001099353027ZM21.000060137771605,9.500000999353027C21.000060137771605,9.500000999353027,20.000060137771605,9.500000999353027,20.000060137771605,9.500000999353027C20.000060137771605,9.500000999353027,21.000060137771605,9.500000999353027,21.000060137771605,9.500000999353027C21.000060137771605,9.500000999353027,21.000060137771605,9.500000999353027,21.000060137771605,9.500000999353027ZM13.317961137771606,6.318000899353027C13.317961137771606,6.318000899353027,12.610891537771607,5.610892889353027,12.610891537771607,5.610892889353027C12.610891537771607,5.610892889353027,12.610891537771607,5.610892889353027,12.610891537771607,5.610892889353027C12.610891537771607,5.610892889353027,13.317961137771606,6.318000899353027,13.317961137771606,6.318000899353027C13.317961137771606,6.318000899353027,13.317961137771606,6.318000899353027,13.317961137771606,6.318000899353027ZM12.000001237771606,7.636000899353027C12.000001237771606,7.636000899353027,11.292890737771607,8.343110799353028,11.292890737771607,8.343110799353028C11.480430837771607,8.530640799353026,11.734781537771607,8.636000899353027,12.000001237771606,8.636000899353027C12.265220837771606,8.636000899353027,12.519571537771606,8.530640799353026,12.707111637771606,8.343110799353028C12.707111637771606,8.343110799353028,12.000001237771606,7.636000899353027,12.000001237771606,7.636000899353027C12.000001237771606,7.636000899353027,12.000001237771606,7.636000899353027,12.000001237771606,7.636000899353027ZM10.682001337771606,6.318000899353027C10.682001337771606,6.318000899353027,9.974890937771606,7.025100899353028,9.974890937771606,7.025100899353028C9.974890937771606,7.025100899353028,9.974890937771606,7.025110999353027,9.974890937771606,7.025110999353027C9.974890937771606,7.025110999353027,10.682001337771606,6.318000899353027,10.682001337771606,6.318000899353027C10.682001337771606,6.318000899353027,10.682001337771606,6.318000899353027,10.682001337771606,6.318000899353027ZM7.500001237771606,4.999960899353027C7.500001237771606,4.999960899353027,7.500001237771606,3.9999608993530273,7.500001237771606,3.9999608993530273C7.500001237771606,3.9999608993530273,7.500001237771606,4.999960899353027,7.500001237771606,4.999960899353027C7.500001237771606,4.999960899353027,7.500001237771606,4.999960899353027,7.500001237771606,4.999960899353027ZM3.610897127771606,5.610888899353028C3.1001681377716066,6.121610899353027,2.6950351277716065,6.727930899353027,2.4186301277716065,7.395220999353027C2.4186301277716065,7.395220999353027,4.266391137771606,8.160600899353028,4.266391137771606,8.160600899353028C4.442281137771607,7.7359508993530275,4.700091137771606,7.350120799353027,5.025101137771607,7.025110999353027C5.025101137771607,7.025110999353027,3.610897127771606,5.610888899353028,3.610897127771606,5.610888899353028C3.610897127771606,5.610888899353028,3.610897127771606,5.610888899353028,3.610897127771606,5.610888899353028ZM2.4186301277716065,7.395220999353027C2.1422251477716063,8.062520999353026,1.9999611377716064,8.777720899353028,1.9999611377716064,9.500000999353027C1.9999611377716064,9.500000999353027,3.9999611377716064,9.500000999353027,3.9999611377716064,9.500000999353027C3.9999611377716064,9.040370899353027,4.090491137771607,8.585240799353027,4.266391137771606,8.160600899353028C4.266391137771606,8.160600899353028,2.4186301277716065,7.395220999353027,2.4186301277716065,7.395220999353027C2.4186301277716065,7.395220999353027,2.4186301277716065,7.395220999353027,2.4186301277716065,7.395220999353027ZM1.9999611377716064,9.500000999353027C1.9999611377716064,10.222270999353027,2.1422251477716063,10.937480899353027,2.4186301277716065,11.604771099353027C2.4186301277716065,11.604771099353027,4.266391137771606,10.839400799353028,4.266391137771606,10.839400799353028C4.090491137771607,10.414761099353028,3.9999611377716064,9.959630999353028,3.9999611377716064,9.500000999353027C3.9999611377716064,9.500000999353027,1.9999611377716064,9.500000999353027,1.9999611377716064,9.500000999353027C1.9999611377716064,9.500000999353027,1.9999611377716064,9.500000999353027,1.9999611377716064,9.500000999353027ZM2.4186301277716065,11.604771099353027C2.6950351277716065,12.272070899353027,3.1001681377716066,12.878390799353028,3.610897127771606,13.389110599353028C3.610897127771606,13.389110599353028,5.025101137771607,11.974890699353027,5.025101137771607,11.974890699353027C4.700091137771606,11.649880899353027,4.442281137771607,11.264040899353027,4.266391137771606,10.839400799353028C4.266391137771606,10.839400799353028,2.4186301277716065,11.604771099353027,2.4186301277716065,11.604771099353027C2.4186301277716065,11.604771099353027,2.4186301277716065,11.604771099353027,2.4186301277716065,11.604771099353027ZM3.6108931277716065,13.389110599353028C3.6108931277716065,13.389110599353028,11.292890737771607,21.07106089935303,11.292890737771607,21.07106089935303C11.292890737771607,21.07106089935303,12.707111637771606,19.656860899353028,12.707111637771606,19.656860899353028C12.707111637771606,19.656860899353028,5.025111237771606,11.974890699353027,5.025111237771606,11.974890699353027C5.025111237771606,11.974890699353027,3.6108931277716065,13.389110599353028,3.6108931277716065,13.389110599353028C3.6108931277716065,13.389110599353028,3.6108931277716065,13.389110599353028,3.6108931277716065,13.389110599353028ZM12.707111637771606,21.07106089935303C12.707111637771606,21.07106089935303,20.389060137771608,13.389110599353028,20.389060137771608,13.389110599353028C20.389060137771608,13.389110599353028,18.974861137771605,11.974890699353027,18.974861137771605,11.974890699353027C18.974861137771605,11.974890699353027,11.292890737771607,19.656860899353028,11.292890737771607,19.656860899353028C11.292890737771607,19.656860899353028,12.707111637771606,21.07106089935303,12.707111637771606,21.07106089935303C12.707111637771606,21.07106089935303,12.707111637771606,21.07106089935303,12.707111637771606,21.07106089935303ZM20.389060137771608,13.389110599353028C21.420562137771608,12.357650799353028,22.000060137771605,10.958701099353028,22.000060137771605,9.500000999353027C22.000060137771605,9.500000999353027,20.000060137771605,9.500000999353027,20.000060137771605,9.500000999353027C20.000060137771605,10.428260799353026,19.631261137771606,11.318510999353027,18.974861137771605,11.974890699353027C18.974861137771605,11.974890699353027,20.389060137771608,13.389110599353028,20.389060137771608,13.389110599353028C20.389060137771608,13.389110599353028,20.389060137771608,13.389110599353028,20.389060137771608,13.389110599353028ZM22.000060137771605,9.500000999353027C22.000060137771605,8.041300999353027,21.420562137771608,6.642350899353027,20.389060137771608,5.610892889353027C20.389060137771608,5.610892889353027,18.974861137771605,7.025110999353027,18.974861137771605,7.025110999353027C19.631261137771606,7.681490899353028,20.000060137771605,8.571730899353028,20.000060137771605,9.500000999353027C20.000060137771605,9.500000999353027,22.000060137771605,9.500000999353027,22.000060137771605,9.500000999353027C22.000060137771605,9.500000999353027,22.000060137771605,9.500000999353027,22.000060137771605,9.500000999353027ZM20.389060137771608,5.610892889353027C19.357661137771608,4.579437909353027,17.958661137771607,3.9999719293530274,16.499961137771606,3.9999719293530274C16.499961137771606,3.9999719293530274,16.499961137771606,5.999970899353027,16.499961137771606,5.999970899353027C17.428261137771607,5.999970899353027,18.318461137771607,6.368720899353027,18.974861137771605,7.025110999353027C18.974861137771605,7.025110999353027,20.389060137771608,5.610892889353027,20.389060137771608,5.610892889353027C20.389060137771608,5.610892889353027,20.389060137771608,5.610892889353027,20.389060137771608,5.610892889353027ZM16.499961137771606,3.9999719293530274C15.041261137771606,3.9999719293530274,13.642361137771607,4.579437909353027,12.610891537771607,5.610892889353027C12.610891537771607,5.610892889353027,14.025061137771607,7.025110999353027,14.025061137771607,7.025110999353027C14.681461137771606,6.368720899353027,15.571761137771606,5.999970899353027,16.499961137771606,5.999970899353027C16.499961137771606,5.999970899353027,16.499961137771606,3.9999719293530274,16.499961137771606,3.9999719293530274C16.499961137771606,3.9999719293530274,16.499961137771606,3.9999719293530274,16.499961137771606,3.9999719293530274ZM12.610891537771607,5.610892889353027C12.610891537771607,5.610892889353027,11.292890737771607,6.928890899353028,11.292890737771607,6.928890899353028C11.292890737771607,6.928890899353028,12.707111637771606,8.343110799353028,12.707111637771606,8.343110799353028C12.707111637771606,8.343110799353028,14.025061137771607,7.025110999353027,14.025061137771607,7.025110999353027C14.025061137771607,7.025110999353027,12.610891537771607,5.610892889353027,12.610891537771607,5.610892889353027C12.610891537771607,5.610892889353027,12.610891537771607,5.610892889353027,12.610891537771607,5.610892889353027ZM12.707111637771606,6.928890899353028C12.707111637771606,6.928890899353028,11.389110837771607,5.610892889353027,11.389110837771607,5.610892889353027C11.389110837771607,5.610892889353027,9.974890937771606,7.025110999353027,9.974890937771606,7.025110999353027C9.974890937771606,7.025110999353027,11.292890737771607,8.343110799353028,11.292890737771607,8.343110799353028C11.292890737771607,8.343110799353028,12.707111637771606,6.928890899353028,12.707111637771606,6.928890899353028C12.707111637771606,6.928890899353028,12.707111637771606,6.928890899353028,12.707111637771606,6.928890899353028ZM11.389110837771607,5.610897899353027C10.878391037771607,5.1001678993530275,10.272071137771606,4.695034889353027,9.604771337771606,4.418629889353028C9.604771337771606,4.418629889353028,8.839401037771607,6.266390899353027,8.839401037771607,6.266390899353027C9.264041137771606,6.442280899353028,9.649881137771606,6.700090899353027,9.974890937771606,7.025100899353028C9.974890937771606,7.025100899353028,11.389110837771607,5.610897899353027,11.389110837771607,5.610897899353027C11.389110837771607,5.610897899353027,11.389110837771607,5.610897899353027,11.389110837771607,5.610897899353027ZM9.604771337771606,4.418629889353028C8.937481137771606,4.142224909353027,8.222281237771607,3.9999608993530273,7.500001237771606,3.9999608993530273C7.500001237771606,3.9999608993530273,7.500001237771606,5.999960899353027,7.500001237771606,5.999960899353027C7.959631237771607,5.999960899353027,8.414761337771607,6.090490899353028,8.839401037771607,6.266390899353027C8.839401037771607,6.266390899353027,9.604771337771606,4.418629889353028,9.604771337771606,4.418629889353028C9.604771337771606,4.418629889353028,9.604771337771606,4.418629889353028,9.604771337771606,4.418629889353028ZM7.500001237771606,3.9999608993530273C6.777721137771606,3.9999608993530273,6.062521237771606,4.142224909353027,5.395221237771606,4.418629889353028C5.395221237771606,4.418629889353028,6.160601137771606,6.266390899353027,6.160601137771606,6.266390899353027C6.585241037771606,6.090490899353028,7.040371137771606,5.999960899353027,7.500001237771606,5.999960899353027C7.500001237771606,5.999960899353027,7.500001237771606,3.9999608993530273,7.500001237771606,3.9999608993530273C7.500001237771606,3.9999608993530273,7.500001237771606,3.9999608993530273,7.500001237771606,3.9999608993530273ZM5.395221237771606,4.418629889353028C4.7279311377716065,4.695034889353027,4.121611137771606,5.1001678993530275,3.6108891377716064,5.610897899353027C3.6108891377716064,5.610897899353027,5.025111237771606,7.025100899353028,5.025111237771606,7.025100899353028C5.350121037771606,6.700090899353027,5.735951137771607,6.442280899353028,6.160601137771606,6.266390899353027C6.160601137771606,6.266390899353027,5.395221237771606,4.418629889353028,5.395221237771606,4.418629889353028C5.395221237771606,4.418629889353028,5.395221237771606,4.418629889353028,5.395221237771606,4.418629889353028Z" fill="#0A0A28" fill-opacity="1"/></g></svg>