<svg xmlns="http://www.w3.org/2000/svg" xmlns:xlink="http://www.w3.org/1999/xlink" fill="none" version="1.1" width="24" height="24" viewBox="0 0 24 24"><defs><clipPath id="master_svg0_3_2309"><rect x="0" y="0" width="24" height="24" rx="0"/></clipPath></defs><g clip-path="url(#master_svg0_3_2309)"><path d="M2.29289299,11.2928896C1.90237,11.6834202,1.90237,12.3165798,2.29289299,12.7071104C2.68341699,13.0976,3.31658301,13.0976,3.70710701,12.7071104C3.70710701,12.7071104,2.29289299,11.2928896,2.29289299,11.2928896C2.29289299,11.2928896,2.29289299,11.2928896,2.29289299,11.2928896ZM12,3C12,3,12.7071104,2.29289299,12.7071104,2.29289299C12.3165798,1.90237,11.6834202,1.90237,11.2928896,2.29289299C11.2928896,2.29289299,12,3,12,3C12,3,12,3,12,3ZM20.2929,12.7071104C20.683399,13.0976,21.316601,13.0976,21.7071,12.7071104C22.097601,12.3165798,22.097601,11.6834202,21.7071,11.2928896C21.7071,11.2928896,20.2929,12.7071104,20.2929,12.7071104C20.2929,12.7071104,20.2929,12.7071104,20.2929,12.7071104ZM3.70710701,12.7071104C3.70710701,12.7071104,5.7071099,10.707109899999999,5.7071099,10.707109899999999C5.7071099,10.707109899999999,4.29289,9.292890100000001,4.29289,9.292890100000001C4.29289,9.292890100000001,2.29289299,11.2928896,2.29289299,11.2928896C2.29289299,11.2928896,3.70710701,12.7071104,3.70710701,12.7071104C3.70710701,12.7071104,3.70710701,12.7071104,3.70710701,12.7071104ZM5.7071099,10.707109899999999C5.7071099,10.707109899999999,12.7071104,3.70710701,12.7071104,3.70710701C12.7071104,3.70710701,11.2928896,2.29289299,11.2928896,2.29289299C11.2928896,2.29289299,4.29289,9.292890100000001,4.29289,9.292890100000001C4.29289,9.292890100000001,5.7071099,10.707109899999999,5.7071099,10.707109899999999C5.7071099,10.707109899999999,5.7071099,10.707109899999999,5.7071099,10.707109899999999ZM11.2928896,3.70710701C11.2928896,3.70710701,18.2929,10.707109899999999,18.2929,10.707109899999999C18.2929,10.707109899999999,19.7071,9.292890100000001,19.7071,9.292890100000001C19.7071,9.292890100000001,12.7071104,2.29289299,12.7071104,2.29289299C12.7071104,2.29289299,11.2928896,3.70710701,11.2928896,3.70710701C11.2928896,3.70710701,11.2928896,3.70710701,11.2928896,3.70710701ZM4,10C4,10,4,20,4,20C4,20,6,20,6,20C6,20,6,10,6,10C6,10,4,10,4,10C4,10,4,10,4,10ZM4,20C4,20.530399,4.21071,21.039101,4.58579,21.4142C4.58579,21.4142,6,20,6,20C6,20,6,20,6,20C6,20,4,20,4,20C4,20,4,20,4,20ZM4.58579,21.4142C4.96086,21.789301,5.4695699,22,6,22C6,22,6,20,6,20C6,20,6,20,6,20C6,20,4.58579,21.4142,4.58579,21.4142C4.58579,21.4142,4.58579,21.4142,4.58579,21.4142ZM6,22C6,22,9,22,9,22C9,22,9,20,9,20C9,20,6,20,6,20C6,20,6,22,6,22C6,22,6,22,6,22ZM18.2929,10.707109899999999C18.2929,10.707109899999999,20.2929,12.7071104,20.2929,12.7071104C20.2929,12.7071104,21.7071,11.2928896,21.7071,11.2928896C21.7071,11.2928896,19.7071,9.292890100000001,19.7071,9.292890100000001C19.7071,9.292890100000001,18.2929,10.707109899999999,18.2929,10.707109899999999C18.2929,10.707109899999999,18.2929,10.707109899999999,18.2929,10.707109899999999ZM18,10C18,10,18,20,18,20C18,20,20,20,20,20C20,20,20,10,20,10C20,10,18,10,18,10C18,10,18,10,18,10ZM18,20C18,20,18,20,18,20C18,20,19.4142,21.4142,19.4142,21.4142C19.789301,21.039101,20,20.530399,20,20C20,20,18,20,18,20C18,20,18,20,18,20ZM18,20C18,20,18,20,18,20C18,20,18,22,18,22C18.5304,22,19.039101,21.789301,19.4142,21.4142C19.4142,21.4142,18,20,18,20C18,20,18,20,18,20ZM18,20C18,20,15,20,15,20C15,20,15,22,15,22C15,22,18,22,18,22C18,22,18,20,18,20C18,20,18,20,18,20ZM9,22C9.5304298,22,10.0391402,21.789301,10.4142098,21.4142C10.4142098,21.4142,9,20,9,20C9,20,9,20,9,20C9,20,9,22,9,22C9,22,9,22,9,22ZM10.4142098,21.4142C10.789290000000001,21.039101,11,20.530399,11,20C11,20,9,20,9,20C9,20,9,20,9,20C9,20,10.4142098,21.4142,10.4142098,21.4142C10.4142098,21.4142,10.4142098,21.4142,10.4142098,21.4142ZM11,20C11,20,11,16,11,16C11,16,9,16,9,16C9,16,9,20,9,20C9,20,11,20,11,20C11,20,11,20,11,20ZM11,16C11,16,11,16,11,16C11,16,9.5857902,14.5858,9.5857902,14.5858C9.210709999999999,14.9609,9,15.4696,9,16C9,16,11,16,11,16C11,16,11,16,11,16ZM11,16C11,16,11,16,11,16C11,16,11,14,11,14C10.4695702,14,9.9608598,14.2107,9.5857902,14.5858C9.5857902,14.5858,11,16,11,16C11,16,11,16,11,16ZM11,16C11,16,13,16,13,16C13,16,13,14,13,14C13,14,11,14,11,14C11,14,11,16,11,16C11,16,11,16,11,16ZM13,16C13,16,13,16,13,16C13,16,14.4142,14.5858,14.4142,14.5858C14.0391,14.2107,13.5304,14,13,14C13,14,13,16,13,16C13,16,13,16,13,16ZM13,16C13,16,13,16,13,16C13,16,15,16,15,16C15,15.4696,14.7893,14.9609,14.4142,14.5858C14.4142,14.5858,13,16,13,16C13,16,13,16,13,16ZM13,16C13,16,13,20,13,20C13,20,15,20,15,20C15,20,15,16,15,16C15,16,13,16,13,16C13,16,13,16,13,16ZM13,20C13,20.530399,13.2107,21.039101,13.5858,21.4142C13.5858,21.4142,15,20,15,20C15,20,15,20,15,20C15,20,13,20,13,20C13,20,13,20,13,20ZM13.5858,21.4142C13.9609,21.789301,14.4696,22,15,22C15,22,15,20,15,20C15,20,15,20,15,20C15,20,13.5858,21.4142,13.5858,21.4142C13.5858,21.4142,13.5858,21.4142,13.5858,21.4142ZM15,20C15,20,9,20,9,20C9,20,9,22,9,22C9,22,15,22,15,22C15,22,15,20,15,20C15,20,15,20,15,20Z" fill="#0A0A28" fill-opacity="1"/></g></svg>