<svg xmlns="http://www.w3.org/2000/svg" xmlns:xlink="http://www.w3.org/1999/xlink" fill="none" version="1.1" width="24" height="24" viewBox="0 0 24 24"><defs><clipPath id="master_svg0_3_1500"><rect x="0" y="0" width="24" height="24" rx="0"/></clipPath></defs><g clip-path="url(#master_svg0_3_1500)"><path d="M12.84838588671875,2.7516117646875C12.62334988671875,2.5266465546875,12.31819058671875,2.4002685546875,11.99998668671875,2.4002685546875C11.68179418671875,2.4002685546875,11.37662218671875,2.5266465546875,11.15158648671875,2.7516117646875C11.15158648671875,2.7516117646875,2.75158831671875,11.1516170546875,2.75158831671875,11.1516170546875C2.53299832671875,11.3779373546875,2.41204514261875,11.6810569546875,2.41477924984075,11.9956970546875C2.41751335071875,12.3103246546875,2.54371589671875,12.6113085546875,2.76620548671875,12.8337885546875C2.98869508671875,13.0562805546875,3.28967070671875,13.1824845546875,3.60430598671875,13.1852205546875C3.91894588671875,13.1879575546875,4.22206588671875,13.0669965546875,4.448385986718749,12.8484175546875C4.448385986718749,12.8484175546875,4.7999858867187495,12.4968165546875,4.7999858867187495,12.4968165546875C4.7999858867187495,12.4968165546875,4.7999858867187495,20.4000285546875,4.7999858867187495,20.4000285546875C4.7999858867187495,20.7182695546875,4.9264180867187495,21.0235485546875,5.1514660867187505,21.2485485546875C5.37650178671875,21.4735485546875,5.68173408671875,21.6000285546875,5.9999858867187505,21.6000285546875C5.9999858867187505,21.6000285546875,8.39998628671875,21.6000285546875,8.39998628671875,21.6000285546875C8.71825028671875,21.6000285546875,9.02346988671875,21.4735485546875,9.248517986718749,21.2485485546875C9.47355408671875,21.0235485546875,9.59998608671875,20.7182695546875,9.59998608671875,20.4000285546875C9.59998608671875,20.4000285546875,9.59998608671875,18.0000285546875,9.59998608671875,18.0000285546875C9.59998608671875,17.681789554687498,9.72641798671875,17.3765085546875,9.95146608671875,17.1515095546875C10.17650218671875,16.9263885546875,10.48173428671875,16.8000285546875,10.79998588671875,16.8000285546875C10.79998588671875,16.8000285546875,13.19998688671875,16.8000285546875,13.19998688671875,16.8000285546875C13.51824988671875,16.8000285546875,13.82347088671875,16.9263885546875,14.04851888671875,17.1515095546875C14.27355388671875,17.3765085546875,14.39998588671875,17.681789554687498,14.39998588671875,18.0000285546875C14.39998588671875,18.0000285546875,14.39998588671875,20.4000285546875,14.39998588671875,20.4000285546875C14.39998588671875,20.7182695546875,14.52645388671875,21.0235485546875,14.75145388671875,21.2485485546875C14.97645388671875,21.4735485546875,15.28173488671875,21.6000285546875,15.59997488671875,21.6000285546875C15.59997488671875,21.6000285546875,17.99997488671875,21.6000285546875,17.99997488671875,21.6000285546875C18.31821488671875,21.6000285546875,18.62349488671875,21.4735485546875,18.84849588671875,21.2485485546875C19.07361388671875,21.0235485546875,19.19997588671875,20.7182695546875,19.19997588671875,20.4000285546875C19.19997588671875,20.4000285546875,19.19997588671875,12.4968165546875,19.19997588671875,12.4968165546875C19.19997588671875,12.4968165546875,19.55157488671875,12.8484175546875,19.55157488671875,12.8484175546875C19.77789488671875,13.0669965546875,20.08101488671875,13.1879575546875,20.39565488671875,13.1852205546875C20.71029488671875,13.1824845546875,21.01125488671875,13.0562805546875,21.23373388671875,12.8337885546875C21.45621488671875,12.6113085546875,21.58245488671875,12.3103246546875,21.58521488671875,11.9956970546875C21.58797488671875,11.6810569546875,21.46701388671875,11.3779373546875,21.24837488671875,11.1516170546875C21.24837488671875,11.1516170546875,12.84838588671875,2.7516117646875,12.84838588671875,2.7516117646875C12.84838588671875,2.7516117646875,12.84838588671875,2.7516117646875,12.84838588671875,2.7516117646875C12.84838588671875,2.7516117646875,12.84838588671875,2.7516117646875,12.84838588671875,2.7516117646875Z" fill="#0A0A28" fill-opacity="1"/></g></svg>