<svg xmlns="http://www.w3.org/2000/svg" xmlns:xlink="http://www.w3.org/1999/xlink" fill="none" version="1.1" width="24" height="24" viewBox="0 0 24 24"><defs><clipPath id="master_svg0_3_1502"><rect x="0" y="0" width="24" height="24" rx="0"/></clipPath></defs><g clip-path="url(#master_svg0_3_1502)"><path d="M12.0000248140625,2.4000244140625C11.6817608140625,2.4000244140625004,11.3765411140625,2.5264528240625,11.1514931140625,2.7514960140625C10.9264564140625,2.9765404440625,10.8000250140625,3.2817652840625,10.8000250140625,3.6000244140625C10.8000250140625,3.6000244140625,10.8000250140625,4.8000245140625,10.8000250140625,4.8000245140625C10.8000250140625,5.1182885140625,10.9264564140625,5.4235086140625,11.1514931140625,5.6485565140625C11.3765411140625,5.8735926140625,11.6817608140625,6.0000245140625,12.0000248140625,6.0000245140625C12.3182888140625,6.0000245140625,12.6235094140625,5.8735926140625,12.8485574140625,5.6485565140625C13.0735934140625,5.4235086140625,13.2000244140625,5.1182885140625,13.2000244140625,4.8000245140625C13.2000244140625,4.8000245140625,13.2000244140625,3.6000244140625,13.2000244140625,3.6000244140625C13.2000244140625,3.2817652840625,13.0735934140625,2.9765404440625,12.8485574140625,2.7514960140625C12.6235094140625,2.5264528240625,12.3182888140625,2.400024414062501,12.0000248140625,2.4000244140625C12.0000248140625,2.4000244140625,12.0000248140625,2.4000244140625,12.0000248140625,2.4000244140625C12.0000248140625,2.4000244140625,12.0000248140625,2.4000244140625,12.0000248140625,2.4000244140625ZM4.8000245140625,4.8000245140625C4.8000245140625,4.8000245140625,8.4000244140625,4.8000245140625,8.4000244140625,4.8000245140625C8.4000244140625,5.7548046140625,8.7793088140625,6.6704769140625,9.4544411140625,7.3456082140625C10.129572414062501,8.0207405140625,11.0452452140625,8.4000244140625,12.0000248140625,8.4000244140625C12.9548044140625,8.4000244140625,13.8704764140625,8.0207405140625,14.5455844140625,7.3456082140625C15.2207054140625,6.6704769140625,15.6000254140625,5.7548046140625,15.6000254140625,4.8000245140625C15.6000254140625,4.8000245140625,19.2000254140625,4.8000245140625,19.2000254140625,4.8000245140625C19.8365054140625,4.8000245140625,20.4469454140625,5.0528765140625005,20.8970644140625,5.5029724140625C21.3471854140625,5.9530566140625005,21.6000254140625,6.5635085140625,21.6000254140625,7.2000246140625C21.6000254140625,7.2000246140625,21.6000254140625,18.0000244140625,21.6000254140625,18.0000244140625C21.6000254140625,18.6365054140625,21.3471854140625,19.2469444140625,20.8970644140625,19.6970654140625C20.4469454140625,20.1471844140625,19.8365054140625,20.4000244140625,19.2000254140625,20.4000244140625C19.2000254140625,20.4000244140625,4.8000245140625,20.4000244140625,4.8000245140625,20.4000244140625C4.1635085140625,20.4000244140625,3.5530553140625,20.1471844140625,3.1029676240625,19.6970654140625C2.6528812340625,19.2469444140625,2.4000244140625004,18.6365054140625,2.4000244140625,18.0000244140625C2.4000244140625,18.0000244140625,2.4000244140625,7.2000246140625,2.4000244140625,7.2000246140625C2.4000244140624996,6.5635085140625,2.6528812340625,5.9530566140625005,3.1029676240625,5.5029724140625C3.5530553140625,5.0528765140625005,4.1635085140625,4.8000245140625,4.8000245140625,4.8000245140625C4.8000245140625,4.8000245140625,4.8000245140625,4.8000245140625,4.8000245140625,4.8000245140625C4.8000245140625,4.8000245140625,4.8000245140625,4.8000245140625,4.8000245140625,4.8000245140625ZM7.8000245140625,13.2000244140625C8.2774086140625,13.2000244140625,8.735256714062501,13.0103774140625,9.072816414062501,12.6728174140625C9.4103765140625,12.3352566140625,9.6000247140625,11.8774090140625,9.6000247140625,11.4000244140625C9.6000247140625,10.9226408140625,9.4103765140625,10.4647932140625,9.072816414062501,10.1272330140625C8.735256714062501,9.789672814062499,8.2774086140625,9.6000247140625,7.8000245140625,9.6000247140625C7.3226404140625,9.6000247140625,6.8647923140625,9.789672814062499,6.5272326140625,10.1272330140625C6.1896727140625,10.4647932140625,6.0000245140625,10.9226408140625,6.0000245140625,11.4000244140625C6.0000245140625,11.8774090140625,6.1896727140625,12.3352566140625,6.5272326140625,12.6728174140625C6.8647923140625,13.0103774140625,7.3226404140625,13.2000244140625,7.8000245140625,13.2000244140625C7.8000245140625,13.2000244140625,7.8000245140625,13.2000244140625,7.8000245140625,13.2000244140625C7.8000245140625,13.2000244140625,7.8000245140625,13.2000244140625,7.8000245140625,13.2000244140625ZM10.7400246140625,18.0000244140625C10.8285007140625,17.564305414062503,10.8190212140625,17.114424414062498,10.7122803140625,16.6827854140625C10.6055412140625,16.2511444140625,10.4042044140625,15.8486654140625,10.1228404140625,15.5045044140625C9.8414769140625,15.1602254140625,9.4871168140625,14.8827844140625,9.0853925140625,14.6923444140625C8.683668614062501,14.5019044140625,8.2446246140625,14.4030244140625,7.8000245140625,14.4030244140625C7.3554244140625,14.4030244140625,6.9163804140625,14.5019044140625,6.5146565140625,14.6923444140625C6.1129324140625005,14.8827844140625,5.7585726140624995,15.1602254140625,5.4772086140625,15.5045044140625C5.1958444140625,15.8486654140625,4.9945085140625,16.2511444140625,4.8877687140625,16.6827854140625C4.7810285140625,17.114424414062498,4.7715485140625,17.564305414062503,4.8600244140625,18.0000244140625C4.8600244140625,18.0000244140625,10.7400246140625,18.0000244140625,10.7400246140625,18.0000244140625C10.7400246140625,18.0000244140625,10.7400246140625,18.0000244140625,10.7400246140625,18.0000244140625ZM14.4000244140625,10.8000250140625C14.0817614140625,10.8000250140625,13.7765404140625,10.9264564140625,13.5514924140625,11.1514931140625C13.3264574140625,11.3765411140625,13.2000244140625,11.6817608140625,13.2000244140625,12.0000248140625C13.2000244140625,12.3182888140625,13.3264574140625,12.6235094140625,13.5514924140625,12.8485574140625C13.7765404140625,13.0735934140625,14.0817614140625,13.2000244140625,14.4000244140625,13.2000244140625C14.4000244140625,13.2000244140625,18.0000244140625,13.2000244140625,18.0000244140625,13.2000244140625C18.318265414062502,13.2000244140625,18.6235444140625,13.0735934140625,18.8485454140625,12.8485574140625C19.0735454140625,12.6235094140625,19.2000254140625,12.3182888140625,19.2000254140625,12.0000248140625C19.2000254140625,11.6817608140625,19.0735454140625,11.3765411140625,18.8485454140625,11.1514931140625C18.6235444140625,10.9264564140625,18.318265414062502,10.8000250140625,18.0000244140625,10.8000250140625C18.0000244140625,10.8000250140625,14.4000244140625,10.8000250140625,14.4000244140625,10.8000250140625C14.4000244140625,10.8000250140625,14.4000244140625,10.8000250140625,14.4000244140625,10.8000250140625ZM13.2000244140625,15.6000254140625C13.2000244140625,15.2817854140625,13.3264574140625,14.9765054140625,13.5514924140625,14.7515044140625C13.7765404140625,14.5265054140625,14.0817614140625,14.4000244140625,14.4000244140625,14.4000244140625C14.4000244140625,14.4000244140625,16.8000254140625,14.4000244140625,16.8000254140625,14.4000244140625C17.1182644140625,14.4000244140625,17.423544414062498,14.5265054140625,17.6485454140625,14.7515044140625C17.8735444140625,14.9765054140625,18.0000244140625,15.2817854140625,18.0000244140625,15.6000254140625C18.0000244140625,15.9182644140625,17.8735444140625,16.2235454140625,17.6485454140625,16.4485444140625C17.423544414062498,16.673544414062498,17.1182644140625,16.8000254140625,16.8000254140625,16.8000254140625C16.8000254140625,16.8000254140625,14.4000244140625,16.8000254140625,14.4000244140625,16.8000254140625C14.0817614140625,16.8000254140625,13.7765404140625,16.673544414062498,13.5514924140625,16.4485444140625C13.3264574140625,16.2235454140625,13.2000244140625,15.9182644140625,13.2000244140625,15.6000254140625C13.2000244140625,15.6000254140625,13.2000244140625,15.6000254140625,13.2000244140625,15.6000254140625Z" fill-rule="evenodd" fill="#0A0A28" fill-opacity="1"/></g></svg>