<svg xmlns="http://www.w3.org/2000/svg" xmlns:xlink="http://www.w3.org/1999/xlink" fill="none" version="1.1" width="24" height="24" viewBox="0 0 24 24"><defs><clipPath id="master_svg0_3_1699"><rect x="0" y="0" width="24" height="24" rx="0"/></clipPath></defs><g clip-path="url(#master_svg0_3_1699)"><path d="M5,6C5,6,5,5,5,5C5,5,5,6,5,6C5,6,5,6,5,6ZM3,8C3,8,2,8,2,8C2,8,3,8,3,8C3,8,3,8,3,8ZM3,17C3,17,2,17,2,17C2,17,3,17,3,17C3,17,3,17,3,17ZM19,6C19,6,19,5,19,5C19,5,19,6,19,6C19,6,19,6,19,6ZM12,3C12,3,12,2,12,2C12,2,12,3,12,3C12,3,12,3,12,3ZM14,5C14,5,13,5,13,5C13,5,14,5,14,5C14,5,14,5,14,5ZM12,8C12,8,12,9,12,9C12,9,12,8,12,8C12,8,12,8,12,8ZM7,12C7,12,6,12,6,12C6,12,7,12,7,12C7,12,7,12,7,12ZM10.8874698,16.3341C11.07201,16.8547,11.64359,17.1271,12.1641302,16.942500000000003C12.6846704,16.758,12.9570599,16.1864,12.7725296,15.6659C12.7725296,15.6659,10.8874698,16.3341,10.8874698,16.3341C10.8874698,16.3341,10.8874698,16.3341,10.8874698,16.3341ZM5.2272699,15.6664C5.0430501,16.1871,5.3157899,16.758499999999998,5.8364401,16.942700000000002C6.3571,17.1269,6.92851,16.8542,7.11273,16.3336C7.11273,16.3336,5.2272699,15.6664,5.2272699,15.6664C5.2272699,15.6664,5.2272699,15.6664,5.2272699,15.6664ZM15,10C14.4477,10,14,10.4477201,14,11C14,11.55229,14.4477,12,15,12C15,12,15,10,15,10C15,10,15,10,15,10ZM18,12C18.552300000000002,12,19,11.55229,19,11C19,10.4477201,18.552300000000002,10,18,10C18,10,18,12,18,12C18,12,18,12,18,12ZM15,14C14.4477,14,14,14.4477,14,15C14,15.5523,14.4477,16,15,16C15,16,15,14,15,14C15,14,15,14,15,14ZM17,16C17.552300000000002,16,18,15.5523,18,15C18,14.4477,17.552300000000002,14,17,14C17,14,17,16,17,16C17,16,17,16,17,16ZM10,5C10,5,5,5,5,5C5,5,5,7,5,7C5,7,10,7,10,7C10,7,10,5,10,5C10,5,10,5,10,5ZM5,5C4.20435,5,3.44128901,5.3160701,2.87868,5.87868C2.87868,5.87868,4.29289,7.2928901,4.29289,7.2928901C4.48043,7.10536,4.73478,7,5,7C5,7,5,5,5,5C5,5,5,5,5,5ZM2.87868,5.87868C2.3160700199999997,6.4412899,2,7.20435,2,8C2,8,4,8,4,8C4,7.7347798,4.10536,7.4804301,4.29289,7.2928901C4.29289,7.2928901,2.87868,5.87868,2.87868,5.87868C2.87868,5.87868,2.87868,5.87868,2.87868,5.87868ZM2,8C2,8,2,17,2,17C2,17,4,17,4,17C4,17,4,8,4,8C4,8,2,8,2,8C2,8,2,8,2,8ZM2,17C2,17.7956,2.3160700199999997,18.5587,2.87868,19.1213C2.87868,19.1213,4.29289,17.7071,4.29289,17.7071C4.10536,17.5196,4,17.2652,4,17C4,17,2,17,2,17C2,17,2,17,2,17ZM2.87868,19.1213C3.44128799,19.683901,4.20435,20,5,20C5,20,5,18,5,18C4.73478,18,4.48043,17.8946,4.29289,17.7071C4.29289,17.7071,2.87868,19.1213,2.87868,19.1213C2.87868,19.1213,2.87868,19.1213,2.87868,19.1213ZM5,20C5,20,19,20,19,20C19,20,19,18,19,18C19,18,5,18,5,18C5,18,5,20,5,20C5,20,5,20,5,20ZM19,20C19.7957,20,20.558701,19.683901,21.1213,19.1213C21.1213,19.1213,19.7071,17.7071,19.7071,17.7071C19.5196,17.8946,19.2652,18,19,18C19,18,19,20,19,20C19,20,19,20,19,20ZM21.1213,19.1213C21.683901,18.5587,22,17.7957,22,17C22,17,20,17,20,17C20,17.2652,19.8946,17.5196,19.7071,17.7071C19.7071,17.7071,21.1213,19.1213,21.1213,19.1213C21.1213,19.1213,21.1213,19.1213,21.1213,19.1213ZM22,17C22,17,22,8,22,8C22,8,20,8,20,8C20,8,20,17,20,17C20,17,22,17,22,17C22,17,22,17,22,17ZM22,8C22,7.20435,21.683901,6.4412899,21.1213,5.87868C21.1213,5.87868,19.7071,7.2928901,19.7071,7.2928901C19.8946,7.4804301,20,7.7347798,20,8C20,8,22,8,22,8C22,8,22,8,22,8ZM21.1213,5.87868C20.558701,5.3160701,19.7957,5,19,5C19,5,19,7,19,7C19.2652,7,19.5196,7.10536,19.7071,7.2928901C19.7071,7.2928901,21.1213,5.87868,21.1213,5.87868C21.1213,5.87868,21.1213,5.87868,21.1213,5.87868ZM19,5C19,5,14,5,14,5C14,5,14,7,14,7C14,7,19,7,19,7C19,7,19,5,19,5C19,5,19,5,19,5ZM11,6C11,6,11,5,11,5C11,5,9,5,9,5C9,5,9,6,9,6C9,6,11,6,11,6C11,6,11,6,11,6ZM11,5C11,4.73478,11.10536,4.48043,11.2928896,4.29289C11.2928896,4.29289,9.8786802,2.87868,9.8786802,2.87868C9.316070100000001,3.44128799,9,4.20435,9,5C9,5,11,5,11,5C11,5,11,5,11,5ZM11.2928896,4.29289C11.4804296,4.10536,11.7347803,4,12,4C12,4,12,2,12,2C11.2043505,2,10.441289900000001,2.3160700199999997,9.8786802,2.87868C9.8786802,2.87868,11.2928896,4.29289,11.2928896,4.29289C11.2928896,4.29289,11.2928896,4.29289,11.2928896,4.29289ZM12,4C12.2652197,4,12.5195704,4.10536,12.7071104,4.29289C12.7071104,4.29289,14.1213,2.87868,14.1213,2.87868C13.5587,2.3160700199999997,12.7956495,2,12,2C12,2,12,4,12,4C12,4,12,4,12,4ZM12.7071104,4.29289C12.89464,4.48043,13,4.73478,13,5C13,5,15,5,15,5C15,4.20435,14.6839,3.44128799,14.1213,2.87868C14.1213,2.87868,12.7071104,4.29289,12.7071104,4.29289C12.7071104,4.29289,12.7071104,4.29289,12.7071104,4.29289ZM13,5C13,5,13,6,13,6C13,6,15,6,15,6C15,6,15,5,15,5C15,5,13,5,13,5C13,5,13,5,13,5ZM9,6C9,6.79565,9.316070100000001,7.5587101,9.8786802,8.1213198C9.8786802,8.1213198,11.2928896,6.7071099,11.2928896,6.7071099C11.10536,6.5195701,11,6.2652199,11,6C11,6,9,6,9,6C9,6,9,6,9,6ZM9.8786802,8.1213198C10.441289900000001,8.683929899999999,11.2043505,9,12,9C12,9,12,7,12,7C11.7347803,7,11.4804296,6.89464,11.2928896,6.7071099C11.2928896,6.7071099,9.8786802,8.1213198,9.8786802,8.1213198C9.8786802,8.1213198,9.8786802,8.1213198,9.8786802,8.1213198ZM12,9C12.7956495,9,13.5587,8.683929899999999,14.1213,8.1213198C14.1213,8.1213198,12.7071104,6.7071099,12.7071104,6.7071099C12.5195704,6.89464,12.2652197,7,12,7C12,7,12,9,12,9C12,9,12,9,12,9ZM14.1213,8.1213198C14.6839,7.5587101,15,6.79565,15,6C15,6,13,6,13,6C13,6.2652199,12.89464,6.5195701,12.7071104,6.7071099C12.7071104,6.7071099,14.1213,8.1213198,14.1213,8.1213198C14.1213,8.1213198,14.1213,8.1213198,14.1213,8.1213198ZM9,15C9.79565,15,10.558710099999999,14.6839,11.1213198,14.1213C11.1213198,14.1213,9.707109899999999,12.7071104,9.707109899999999,12.7071104C9.5195699,12.89464,9.2652202,13,9,13C9,13,9,15,9,15C9,15,9,15,9,15ZM11.1213198,14.1213C11.6839304,13.5587,12,12.7956495,12,12C12,12,10,12,10,12C10,12.2652197,9.894639999999999,12.5195704,9.707109899999999,12.7071104C9.707109899999999,12.7071104,11.1213198,14.1213,11.1213198,14.1213C11.1213198,14.1213,11.1213198,14.1213,11.1213198,14.1213ZM12,12C12,11.2043505,11.6839304,10.441289900000001,11.1213198,9.8786802C11.1213198,9.8786802,9.707109899999999,11.2928896,9.707109899999999,11.2928896C9.894639999999999,11.4804296,10,11.7347803,10,12C10,12,12,12,12,12C12,12,12,12,12,12ZM11.1213198,9.8786802C10.558710099999999,9.316070100000001,9.79565,9,9,9C9,9,9,11,9,11C9.2652202,11,9.5195699,11.10536,9.707109899999999,11.2928896C9.707109899999999,11.2928896,11.1213198,9.8786802,11.1213198,9.8786802C11.1213198,9.8786802,11.1213198,9.8786802,11.1213198,9.8786802ZM9,9C8.20435,9,7.4412899,9.316070100000001,6.87868,9.8786802C6.87868,9.8786802,8.292890100000001,11.2928896,8.292890100000001,11.2928896C8.4804301,11.10536,8.7347798,11,9,11C9,11,9,9,9,9C9,9,9,9,9,9ZM6.87868,9.8786802C6.3160701,10.441289900000001,6,11.2043505,6,12C6,12,8,12,8,12C8,11.7347803,8.105360000000001,11.4804296,8.292890100000001,11.2928896C8.292890100000001,11.2928896,6.87868,9.8786802,6.87868,9.8786802C6.87868,9.8786802,6.87868,9.8786802,6.87868,9.8786802ZM6,12C6,12.7956495,6.3160701,13.5587,6.87868,14.1213C6.87868,14.1213,8.292890100000001,12.7071104,8.292890100000001,12.7071104C8.105360000000001,12.5195704,8,12.2652197,8,12C8,12,6,12,6,12C6,12,6,12,6,12ZM6.87868,14.1213C7.4412899,14.6839,8.20435,15,9,15C9,15,9,13,9,13C8.7347798,13,8.4804301,12.89464,8.292890100000001,12.7071104C8.292890100000001,12.7071104,6.87868,14.1213,6.87868,14.1213C6.87868,14.1213,6.87868,14.1213,6.87868,14.1213ZM9,15C9.86866,15,10.61128,15.555,10.8874698,16.3341C10.8874698,16.3341,12.7725296,15.6659,12.7725296,15.6659C12.2227201,14.115,10.74334,13,9,13C9,13,9,15,9,15C9,15,9,15,9,15ZM9.0002899,13C8.1728702,12.9997597,7.3657198,13.2561,6.6900101,13.7336C6.6900101,13.7336,7.8442798,15.3669,7.8442798,15.3669C8.182220000000001,15.1281,8.5858998,14.9999,8.9997101,15C8.9997101,15,9.0002899,13,9.0002899,13C9.0002899,13,9.0002899,13,9.0002899,13ZM6.6900101,13.7336C6.0143001,14.2111,5.5032599,14.8864,5.2272699,15.6664C5.2272699,15.6664,7.11273,16.3336,7.11273,16.3336C7.2507601,15.9434,7.50634,15.6057,7.8442798,15.3669C7.8442798,15.3669,6.6900101,13.7336,6.6900101,13.7336C6.6900101,13.7336,6.6900101,13.7336,6.6900101,13.7336ZM15,12C15,12,18,12,18,12C18,12,18,10,18,10C18,10,15,10,15,10C15,10,15,12,15,12C15,12,15,12,15,12ZM15,16C15,16,17,16,17,16C17,16,17,14,17,14C17,14,15,14,15,14C15,14,15,16,15,16C15,16,15,16,15,16Z" fill="#0A0A28" fill-opacity="1"/></g></svg>