<svg xmlns="http://www.w3.org/2000/svg" xmlns:xlink="http://www.w3.org/1999/xlink" fill="none" version="1.1" width="24" height="24" viewBox="0 0 24 24"><defs><clipPath id="master_svg0_3_1581"><rect x="0" y="0" width="24" height="24" rx="0"/></clipPath></defs><g clip-path="url(#master_svg0_3_1581)"><path d="M10.44838598671875,8.751625014062501C10.22206588671875,8.5330324140625,9.91894588671875,8.4120846140625,9.60430718671875,8.4148207140625C9.28967070671875,8.417544414062501,8.98869633671875,8.5437488140625,8.76620670671875,8.7662406140625C8.54371589671875,8.9887328140625,8.41751335071875,9.2897043140625,8.41477924972075,9.6043448140625C8.41204514261875,9.9189849140625,8.53299893671875,10.2221050140625,8.75158831671875,10.4484243140625C8.75158831671875,10.4484243140625,11.15158608671875,12.8484244140625,11.15158608671875,12.8484244140625C11.37662198671875,13.0733894140625,11.68179388671875,13.1997724140625,11.99998588671875,13.1997724140625C12.31819008671875,13.1997724140625,12.62335018671875,13.0733894140625,12.84838628671875,12.8484244140625C12.84838628671875,12.8484244140625,15.24838588671875,10.4484243140625,15.24838588671875,10.4484243140625C15.46697858671875,10.2221050140625,15.587926386718749,9.9189849140625,15.58520218671875,9.6043448140625C15.58246658671875,9.2897043140625,15.45626208671875,8.9887328140625,15.23376988671875,8.7662406140625C15.01127818671875,8.5437488140625,14.71030668671875,8.417544414062501,14.39566608671875,8.4148207140625C14.08103798671875,8.4120846140625,13.77790598671875,8.5330324140625,13.551586186718751,8.751625014062501C13.551586186718751,8.751625014062501,13.199985986718751,9.103224714062499,13.199985986718751,9.103224714062499C13.199985986718751,9.103224714062499,13.199985986718751,3.6000244140625,13.199985986718751,3.6000244140625C13.199985986718751,3.2817652840625,13.07356598671875,2.9765404440625,12.84851788671875,2.7514960140625C12.62347028671875,2.5264528240625,12.318249986718751,2.400024414062501,11.99998588671875,2.4000244140625C11.68173408671875,2.400024414062501,11.37650178671875,2.5264528240625,11.15146608671875,2.7514960140625C10.92641808671875,2.9765404440625,10.79998588671875,3.2817652840625,10.79998588671875,3.6000244140625C10.79998588671875,3.6000244140625,10.79998588671875,9.103224714062499,10.79998588671875,9.103224714062499C10.79998588671875,9.103224714062499,10.44838598671875,8.751625014062501,10.44838598671875,8.751625014062501C10.44838598671875,8.751625014062501,10.44838598671875,8.751625014062501,10.44838598671875,8.751625014062501Z" fill="#0A0A28" fill-opacity="1"/><path d="M3.5999755859375,5.9999756859375C3.5999755859375,5.3634596859375,3.8528324059375,4.7530064859375,4.3029187959375,4.3029187959375C4.7530064859375,3.8528324059375,5.3634596859375,3.5999755859375004,5.9999756859375,3.5999755859375C5.9999756859375,3.5999755859375,7.1999756859375,3.5999755859375,7.1999756859375,3.5999755859375C7.518239785937499,3.5999755859375004,7.8234600859375,3.7264039959375,8.048507685937501,3.9514471859375C8.2735437859375,4.1764916159375,8.3999757859375,4.4817164559375,8.3999757859375,4.7999755859375C8.3999757859375,5.1182397859375,8.2735437859375,5.4234596859375,8.048507685937501,5.6485077859375C7.8234600859375,5.8735437859375,7.518239785937499,5.9999756859375,7.1999756859375,5.9999756859375C7.1999756859375,5.9999756859375,5.9999756859375,5.9999756859375,5.9999756859375,5.9999756859375C5.9999756859375,5.9999756859375,5.9999756859375,14.3999755859375,5.9999756859375,14.3999755859375C5.9999756859375,14.3999755859375,8.3999757859375,14.3999755859375,8.3999757859375,14.3999755859375C8.3999757859375,14.3999755859375,9.5999755859375,16.7999765859375,9.5999755859375,16.7999765859375C9.5999755859375,16.7999765859375,14.3999755859375,16.7999765859375,14.3999755859375,16.7999765859375C14.3999755859375,16.7999765859375,15.5999755859375,14.3999755859375,15.5999755859375,14.3999755859375C15.5999755859375,14.3999755859375,17.9999765859375,14.3999755859375,17.9999765859375,14.3999755859375C17.9999765859375,14.3999755859375,17.9999765859375,5.9999756859375,17.9999765859375,5.9999756859375C17.9999765859375,5.9999756859375,16.7999765859375,5.9999756859375,16.7999765859375,5.9999756859375C16.481736585937497,5.9999756859375,16.1764565859375,5.8735437859375,15.9514555859375,5.6485077859375C15.7264565859375,5.4234596859375,15.5999755859375,5.1182397859375,15.5999755859375,4.7999755859375C15.5999755859375,4.4817164559375,15.7264565859375,4.1764916159375,15.9514555859375,3.9514471859375C16.1764565859375,3.7264039959375,16.481736585937497,3.5999755859375004,16.7999765859375,3.5999755859375C16.7999765859375,3.5999755859375,17.9999765859375,3.5999755859375,17.9999765859375,3.5999755859375C18.636456585937502,3.5999755859375004,19.2468955859375,3.8528324059375,19.6970155859375,4.3029187959375C20.1471365859375,4.7530064859375,20.3999765859375,5.3634596859375,20.3999765859375,5.9999756859375C20.3999765859375,5.9999756859375,20.3999765859375,17.9999765859375,20.3999765859375,17.9999765859375C20.3999765859375,18.636456585937502,20.1471365859375,19.2468955859375,19.6970155859375,19.6970155859375C19.2468955859375,20.1471365859375,18.636456585937502,20.3999765859375,17.9999765859375,20.3999765859375C17.9999765859375,20.3999765859375,5.9999756859375,20.3999765859375,5.9999756859375,20.3999765859375C5.3634596859375,20.3999765859375,4.7530064859375,20.1471365859375,4.3029187959375,19.6970155859375C3.8528324059375,19.2468955859375,3.5999755859375004,18.636456585937502,3.5999755859375,17.9999765859375C3.5999755859375,17.9999765859375,3.5999755859375,5.9999756859375,3.5999755859375,5.9999756859375C3.5999755859375,5.9999756859375,3.5999755859375,5.9999756859375,3.5999755859375,5.9999756859375Z" fill="#0A0A28" fill-opacity="1"/></g></svg>