<svg xmlns="http://www.w3.org/2000/svg" xmlns:xlink="http://www.w3.org/1999/xlink" fill="none" version="1.1" width="24" height="24" viewBox="0 0 24 24"><defs><clipPath id="master_svg0_3_2320"><rect x="0" y="0" width="24" height="24" rx="0"/></clipPath></defs><g clip-path="url(#master_svg0_3_2320)"><path d="M8,5C8.5522799,5,9,4.5522799,9,4C9,3.44771501,8.5522799,3,8,3C8,3,8,5,8,5C8,5,8,5,8,5ZM6,4C6,4,6,3,6,3C6,3,6,4,6,4C6,4,6,4,6,4ZM4,6C4,6,3,6,3,6C3,6,4,6,4,6C4,6,4,6,4,6ZM4,18C4,18,3,18,3,18C3,18,4,18,4,18C4,18,4,18,4,18ZM18,4C18,4,18,3,18,3C18,3,18,4,18,4C18,4,18,4,18,4ZM16,3C15.4477,3,15,3.44771501,15,4C15,4.5522799,15.4477,5,16,5C16,5,16,3,16,3C16,3,16,3,16,3ZM13,3C13,2.4477149799999998,12.55229,2,12,2C11.4477201,2,11,2.4477149799999998,11,3C11,3,13,3,13,3C13,3,13,3,13,3ZM12,11C12,11,11.292890100000001,11.7071104,11.292890100000001,11.7071104C11.6834202,12.0976295,12.3165798,12.0976295,12.7071104,11.7071104C12.7071104,11.7071104,12,11,12,11C12,11,12,11,12,11ZM15.7071,8.707109899999999C16.0976,8.3165798,16.0976,7.6834202,15.7071,7.2928901C15.3166,6.9023699999999995,14.6834,6.9023699999999995,14.2929,7.2928901C14.2929,7.2928901,15.7071,8.707109899999999,15.7071,8.707109899999999C15.7071,8.707109899999999,15.7071,8.707109899999999,15.7071,8.707109899999999ZM9.707109899999999,7.2928901C9.3165798,6.9023699999999995,8.6834202,6.9023699999999995,8.292890100000001,7.2928901C7.9023699999999995,7.6834202,7.9023699999999995,8.3165798,8.292890100000001,8.707109899999999C8.292890100000001,8.707109899999999,9.707109899999999,7.2928901,9.707109899999999,7.2928901C9.707109899999999,7.2928901,9.707109899999999,7.2928901,9.707109899999999,7.2928901ZM4,12C3.4477149799999998,12,3,12.44771,3,13C3,13.5523,3.4477149799999998,14,4,14C4,14,4,12,4,12C4,12,4,12,4,12ZM6.586,13C6.586,13,6.5862099999999995,12,6.5862099999999995,12C6.5862099999999995,12,6.586,12,6.586,12C6.586,12,6.586,13,6.586,13C6.586,13,6.586,13,6.586,13ZM7.293,13.293C7.293,13.293,6.5857899,14,6.5857899,14C6.5857899,14,6.5858901,14.0001,6.5858901,14.0001C6.5858901,14.0001,7.293,13.293,7.293,13.293C7.293,13.293,7.293,13.293,7.293,13.293ZM9.7069998,15.707C9.7069998,15.707,10.4142098,15,10.4142098,15C10.4142098,15,10.4141102,14.9999,10.4141102,14.9999C10.4141102,14.9999,9.7069998,15.707,9.7069998,15.707C9.7069998,15.707,9.7069998,15.707,9.7069998,15.707ZM10.414,16C10.414,16,10.413790200000001,17,10.413790200000001,17C10.413790200000001,17,10.414,17,10.414,17C10.414,17,10.414,16,10.414,16C10.414,16,10.414,16,10.414,16ZM13.5860004,16C13.5860004,16,13.5860004,17,13.5860004,17C13.5860004,17,13.5862103,17,13.5862103,17C13.5862103,17,13.5860004,16,13.5860004,16C13.5860004,16,13.5860004,16,13.5860004,16ZM14.293,15.707C14.293,15.707,13.5858898,14.9999,13.5858898,14.9999C13.5858898,14.9999,13.5857897,15,13.5857897,15C13.5857897,15,14.293,15.707,14.293,15.707C14.293,15.707,14.293,15.707,14.293,15.707ZM16.707,13.293C16.707,13.293,17.414099999999998,14.0001,17.414099999999998,14.0001C17.414099999999998,14.0001,17.4142,14,17.4142,14C17.4142,14,16.707,13.293,16.707,13.293C16.707,13.293,16.707,13.293,16.707,13.293ZM17.414,13C17.414,13,17.414,12,17.414,12C17.414,12,17.413800000000002,12,17.413800000000002,12C17.413800000000002,12,17.414,13,17.414,13C17.414,13,17.414,13,17.414,13ZM20,14C20.552299,14,21,13.5523,21,13C21,12.44771,20.552299,12,20,12C20,12,20,14,20,14C20,14,20,14,20,14ZM8,3C8,3,6,3,6,3C6,3,6,5,6,5C6,5,8,5,8,5C8,5,8,3,8,3C8,3,8,3,8,3ZM6,3C5.20435,3.0000000000000013,4.44128901,3.31606999,3.87868,3.87867999C3.87868,3.87867999,5.29289,5.2928901,5.29289,5.2928901C5.48043,5.10536,5.73478,5,6,5C6,5,6,3,6,3C6,3,6,3,6,3ZM3.87868,3.87867999C3.3160700199999997,4.44129,3,5.20435,3,6C3,6,5,6,5,6C5,5.7347801,5.10536,5.4804299,5.29289,5.2928901C5.29289,5.2928901,3.87868,3.87867999,3.87868,3.87867999C3.87868,3.87867999,3.87868,3.87867999,3.87868,3.87867999ZM3,6C3,6,3,18,3,18C3,18,5,18,5,18C5,18,5,6,5,6C5,6,3,6,3,6C3,6,3,6,3,6ZM3,18C3,18.7956,3.3160700199999997,19.558701,3.87868,20.1213C3.87868,20.1213,5.29289,18.7071,5.29289,18.7071C5.10536,18.5196,5,18.2652,5,18C5,18,3,18,3,18C3,18,3,18,3,18ZM3.87868,20.1213C4.44128799,20.683901,5.20435,21,6,21C6,21,6,19,6,19C5.73478,19,5.48043,18.8946,5.29289,18.7071C5.29289,18.7071,3.87868,20.1213,3.87868,20.1213C3.87868,20.1213,3.87868,20.1213,3.87868,20.1213ZM6,21C6,21,18,21,18,21C18,21,18,19,18,19C18,19,6,19,6,19C6,19,6,21,6,21C6,21,6,21,6,21ZM18,21C18.7957,21,19.5587,20.683901,20.1213,20.1213C20.1213,20.1213,18.7071,18.7071,18.7071,18.7071C18.5196,18.8946,18.2652,19,18,19C18,19,18,21,18,21C18,21,18,21,18,21ZM20.1213,20.1213C20.683901,19.558701,21,18.7957,21,18C21,18,19,18,19,18C19,18.2652,18.8946,18.5196,18.7071,18.7071C18.7071,18.7071,20.1213,20.1213,20.1213,20.1213C20.1213,20.1213,20.1213,20.1213,20.1213,20.1213ZM21,18C21,18,21,6,21,6C21,6,19,6,19,6C19,6,19,18,19,18C19,18,21,18,21,18C21,18,21,18,21,18ZM21,6C21,5.20435,20.683901,4.44129,20.1213,3.87867999C20.1213,3.87867999,18.7071,5.2928901,18.7071,5.2928901C18.8946,5.4804299,19,5.7347801,19,6C19,6,21,6,21,6C21,6,21,6,21,6ZM20.1213,3.87867999C19.5587,3.31606999,18.7956,3.0000000000000018,18,3C18,3,18,5,18,5C18.2652,5,18.5196,5.10536,18.7071,5.2928901C18.7071,5.2928901,20.1213,3.87867999,20.1213,3.87867999C20.1213,3.87867999,20.1213,3.87867999,20.1213,3.87867999ZM18,3C18,3,16,3,16,3C16,3,16,5,16,5C16,5,18,5,18,5C18,5,18,3,18,3C18,3,18,3,18,3ZM11,3C11,3,11,11,11,11C11,11,13,11,13,11C13,11,13,3,13,3C13,3,11,3,11,3C11,3,11,3,11,3ZM12.7071104,11.7071104C12.7071104,11.7071104,15.7071,8.707109899999999,15.7071,8.707109899999999C15.7071,8.707109899999999,14.2929,7.2928901,14.2929,7.2928901C14.2929,7.2928901,11.292890100000001,10.292890100000001,11.292890100000001,10.292890100000001C11.292890100000001,10.292890100000001,12.7071104,11.7071104,12.7071104,11.7071104C12.7071104,11.7071104,12.7071104,11.7071104,12.7071104,11.7071104ZM12.7071104,10.292890100000001C12.7071104,10.292890100000001,9.707109899999999,7.2928901,9.707109899999999,7.2928901C9.707109899999999,7.2928901,8.292890100000001,8.707109899999999,8.292890100000001,8.707109899999999C8.292890100000001,8.707109899999999,11.292890100000001,11.7071104,11.292890100000001,11.7071104C11.292890100000001,11.7071104,12.7071104,10.292890100000001,12.7071104,10.292890100000001C12.7071104,10.292890100000001,12.7071104,10.292890100000001,12.7071104,10.292890100000001ZM4,14C4,14,6.586,14,6.586,14C6.586,14,6.586,12,6.586,12C6.586,12,4,12,4,12C4,12,4,14,4,14C4,14,4,14,4,14ZM6.5857899,14C6.5857899,14,6.5857899,14,6.5857899,14C6.5857899,14,8.0002098,12.5860004,8.0002098,12.5860004C7.6252301,12.2109003,7.1166,12.0001097,6.5862099999999995,12C6.5862099999999995,12,6.5857899,14,6.5857899,14C6.5857899,14,6.5857899,14,6.5857899,14ZM6.5858901,14.0001C6.5858901,14.0001,8.9998899,16.414099999999998,8.9998899,16.414099999999998C8.9998899,16.414099999999998,10.4141102,14.9999,10.4141102,14.9999C10.4141102,14.9999,8.0001101,12.5858898,8.0001101,12.5858898C8.0001101,12.5858898,6.5858901,14.0001,6.5858901,14.0001C6.5858901,14.0001,6.5858901,14.0001,6.5858901,14.0001ZM8.9997902,16.414C9.3747702,16.789099999999998,9.8834,16.9999,10.413790200000001,17C10.413790200000001,17,10.4142098,15,10.4142098,15C10.4142098,15,10.4142098,15,10.4142098,15C10.4142098,15,8.9997902,16.414,8.9997902,16.414C8.9997902,16.414,8.9997902,16.414,8.9997902,16.414ZM10.414,17C10.414,17,13.5860004,17,13.5860004,17C13.5860004,17,13.5860004,15,13.5860004,15C13.5860004,15,10.414,15,10.414,15C10.414,15,10.414,17,10.414,17C10.414,17,10.414,17,10.414,17ZM13.5862103,17C14.1166,16.9999,14.6252,16.789099999999998,15.0002,16.414C15.0002,16.414,13.5857897,15,13.5857897,15C13.5857897,15,13.5857897,15,13.5857897,15C13.5857897,15,13.5862103,17,13.5862103,17C13.5862103,17,13.5862103,17,13.5862103,17ZM15.0001,16.414099999999998C15.0001,16.414099999999998,17.414099999999998,14.0001,17.414099999999998,14.0001C17.414099999999998,14.0001,15.9999,12.5858898,15.9999,12.5858898C15.9999,12.5858898,13.5858898,14.9999,13.5858898,14.9999C13.5858898,14.9999,15.0001,16.414099999999998,15.0001,16.414099999999998C15.0001,16.414099999999998,15.0001,16.414099999999998,15.0001,16.414099999999998ZM17.4142,14C17.4142,14,17.4142,14,17.4142,14C17.4142,14,17.413800000000002,12,17.413800000000002,12C16.8834,12.0001097,16.3748,12.2109003,15.9998,12.5860004C15.9998,12.5860004,17.4142,14,17.4142,14C17.4142,14,17.4142,14,17.4142,14ZM17.414,14C17.414,14,20,14,20,14C20,14,20,12,20,12C20,12,17.414,12,17.414,12C17.414,12,17.414,14,17.414,14C17.414,14,17.414,14,17.414,14Z" fill="#0A0A28" fill-opacity="1"/></g></svg>