<svg xmlns="http://www.w3.org/2000/svg" xmlns:xlink="http://www.w3.org/1999/xlink" fill="none" version="1.1" width="24" height="24" viewBox="0 0 24 24"><defs><clipPath id="master_svg0_3_2291"><rect x="0" y="0" width="24" height="24" rx="0"/></clipPath></defs><g clip-path="url(#master_svg0_3_2291)"><path d="M18,4C18,4,18,3,18,3C18,3,18,4,18,4C18,4,18,4,18,4ZM6,4C6,4,6,3,6,3C6,3,6,4,6,4C6,4,6,4,6,4ZM4,6C4,6,3,6,3,6C3,6,4,6,4,6C4,6,4,6,4,6ZM4,18C4,18,3,18,3,18C3,18,4,18,4,18C4,18,4,18,4,18ZM17.414,13C17.414,13,17.414,12,17.414,12C17.414,12,17.413800000000002,12,17.413800000000002,12C17.413800000000002,12,17.414,13,17.414,13C17.414,13,17.414,13,17.414,13ZM16.707,13.2930002C16.707,13.2930002,17.414099999999998,14.0001,17.414099999999998,14.0001C17.414099999999998,14.0001,17.4142,14,17.4142,14C17.4142,14,16.707,13.2930002,16.707,13.2930002C16.707,13.2930002,16.707,13.2930002,16.707,13.2930002ZM14.293,15.707C14.293,15.707,13.5858898,14.9999,13.5858898,14.9999C13.5858898,14.9999,13.5857897,15,13.5857897,15C13.5857897,15,14.293,15.707,14.293,15.707C14.293,15.707,14.293,15.707,14.293,15.707ZM13.5860004,16C13.5860004,16,13.5860004,17,13.5860004,17C13.5860004,17,13.5862103,17,13.5862103,17C13.5862103,17,13.5860004,16,13.5860004,16C13.5860004,16,13.5860004,16,13.5860004,16ZM10.414,16C10.414,16,10.413790200000001,17,10.413790200000001,17C10.413790200000001,17,10.414,17,10.414,17C10.414,17,10.414,16,10.414,16C10.414,16,10.414,16,10.414,16ZM9.7069998,15.707C9.7069998,15.707,10.4142098,15,10.4142098,15C10.4142098,15,10.4141102,14.9999,10.4141102,14.9999C10.4141102,14.9999,9.7069998,15.707,9.7069998,15.707C9.7069998,15.707,9.7069998,15.707,9.7069998,15.707ZM7.293,13.2930002C7.293,13.2930002,6.5857899,14,6.5857899,14C6.5857899,14,6.5858901,14.0001,6.5858901,14.0001C6.5858901,14.0001,7.293,13.2930002,7.293,13.2930002C7.293,13.2930002,7.293,13.2930002,7.293,13.2930002ZM6.586,13C6.586,13,6.5862099999999995,12,6.5862099999999995,12C6.5862099999999995,12,6.586,12,6.586,12C6.586,12,6.586,13,6.586,13C6.586,13,6.586,13,6.586,13ZM21,13C21,13,21,6,21,6C21,6,19,6,19,6C19,6,19,13,19,13C19,13,21,13,21,13C21,13,21,13,21,13ZM21,6C21,5.20435,20.683901,4.44128799,20.1213,3.87868C20.1213,3.87868,18.7071,5.29289,18.7071,5.29289C18.8946,5.48043,19,5.73478,19,6C19,6,21,6,21,6C21,6,21,6,21,6ZM20.1213,3.87868C19.5587,3.3160700199999997,18.7956,3,18,3C18,3,18,5,18,5C18.2652,5,18.5196,5.10536,18.7071,5.29289C18.7071,5.29289,20.1213,3.87868,20.1213,3.87868C20.1213,3.87868,20.1213,3.87868,20.1213,3.87868ZM18,3C18,3,6,3,6,3C6,3,6,5,6,5C6,5,18,5,18,5C18,5,18,3,18,3C18,3,18,3,18,3ZM6,3C5.20435,3,4.44128901,3.3160700199999997,3.87868,3.87868C3.87868,3.87868,5.29289,5.29289,5.29289,5.29289C5.48043,5.10536,5.73478,5,6,5C6,5,6,3,6,3C6,3,6,3,6,3ZM3.87868,3.87868C3.3160700199999997,4.44128901,3,5.20435,3,6C3,6,5,6,5,6C5,5.73478,5.10536,5.48043,5.29289,5.29289C5.29289,5.29289,3.87868,3.87868,3.87868,3.87868C3.87868,3.87868,3.87868,3.87868,3.87868,3.87868ZM3,6C3,6,3,13,3,13C3,13,5,13,5,13C5,13,5,6,5,6C5,6,3,6,3,6C3,6,3,6,3,6ZM19,13C19,13,19,18,19,18C19,18,21,18,21,18C21,18,21,13,21,13C21,13,19,13,19,13C19,13,19,13,19,13ZM19,18C19,18.2652,18.8946,18.5196,18.7071,18.7071C18.7071,18.7071,20.1213,20.1213,20.1213,20.1213C20.683901,19.5587,21,18.7957,21,18C21,18,19,18,19,18C19,18,19,18,19,18ZM18.7071,18.7071C18.5196,18.8946,18.2652,19,18,19C18,19,18,21,18,21C18.7957,21,19.5587,20.683901,20.1213,20.1213C20.1213,20.1213,18.7071,18.7071,18.7071,18.7071C18.7071,18.7071,18.7071,18.7071,18.7071,18.7071ZM18,19C18,19,6,19,6,19C6,19,6,21,6,21C6,21,18,21,18,21C18,21,18,19,18,19C18,19,18,19,18,19ZM6,19C5.73478,19,5.48043,18.8946,5.29289,18.7071C5.29289,18.7071,3.87868,20.1213,3.87868,20.1213C4.44128799,20.683901,5.20435,21,6,21C6,21,6,19,6,19C6,19,6,19,6,19ZM5.29289,18.7071C5.10536,18.5196,5,18.2652,5,18C5,18,3,18,3,18C3,18.7956,3.3160700199999997,19.5587,3.87868,20.1213C3.87868,20.1213,5.29289,18.7071,5.29289,18.7071C5.29289,18.7071,5.29289,18.7071,5.29289,18.7071ZM5,18C5,18,5,13,5,13C5,13,3,13,3,13C3,13,3,18,3,18C3,18,5,18,5,18C5,18,5,18,5,18ZM20,12C20,12,17.414,12,17.414,12C17.414,12,17.414,14,17.414,14C17.414,14,20,14,20,14C20,14,20,12,20,12C20,12,20,12,20,12ZM17.413800000000002,12C16.8834,12.0001097,16.3748,12.2109003,15.9998,12.5860004C15.9998,12.5860004,17.4142,14,17.4142,14C17.4142,14,17.4142,14,17.4142,14C17.4142,14,17.413800000000002,12,17.413800000000002,12C17.413800000000002,12,17.413800000000002,12,17.413800000000002,12ZM15.9999,12.5858898C15.9999,12.5858898,13.5858898,14.9999,13.5858898,14.9999C13.5858898,14.9999,15.0001,16.414099999999998,15.0001,16.414099999999998C15.0001,16.414099999999998,17.414099999999998,14.0001,17.414099999999998,14.0001C17.414099999999998,14.0001,15.9999,12.5858898,15.9999,12.5858898C15.9999,12.5858898,15.9999,12.5858898,15.9999,12.5858898ZM13.5857897,15C13.5857897,15,13.5857897,15,13.5857897,15C13.5857897,15,13.5862103,17,13.5862103,17C14.1166,16.9999,14.6252,16.789099999999998,15.0002,16.414C15.0002,16.414,13.5857897,15,13.5857897,15C13.5857897,15,13.5857897,15,13.5857897,15ZM13.5860004,15C13.5860004,15,10.414,15,10.414,15C10.414,15,10.414,17,10.414,17C10.414,17,13.5860004,17,13.5860004,17C13.5860004,17,13.5860004,15,13.5860004,15C13.5860004,15,13.5860004,15,13.5860004,15ZM10.4142098,15C10.4142098,15,10.4142098,15,10.4142098,15C10.4142098,15,8.9997902,16.414,8.9997902,16.414C9.3747702,16.789099999999998,9.8834,16.9999,10.413790200000001,17C10.413790200000001,17,10.4142098,15,10.4142098,15C10.4142098,15,10.4142098,15,10.4142098,15ZM10.4141102,14.9999C10.4141102,14.9999,8.0001101,12.5858898,8.0001101,12.5858898C8.0001101,12.5858898,6.5858901,14.0001,6.5858901,14.0001C6.5858901,14.0001,8.9998899,16.414099999999998,8.9998899,16.414099999999998C8.9998899,16.414099999999998,10.4141102,14.9999,10.4141102,14.9999C10.4141102,14.9999,10.4141102,14.9999,10.4141102,14.9999ZM8.0002098,12.5860004C7.6252301,12.2109003,7.1166,12.0001097,6.5862099999999995,12C6.5862099999999995,12,6.5857899,14,6.5857899,14C6.5857899,14,6.5857899,14,6.5857899,14C6.5857899,14,8.0002098,12.5860004,8.0002098,12.5860004C8.0002098,12.5860004,8.0002098,12.5860004,8.0002098,12.5860004ZM6.586,12C6.586,12,4,12,4,12C4,12,4,14,4,14C4,14,6.586,14,6.586,14C6.586,14,6.586,12,6.586,12C6.586,12,6.586,12,6.586,12Z" fill="#0A0A28" fill-opacity="1"/></g></svg>