<svg xmlns="http://www.w3.org/2000/svg" xmlns:xlink="http://www.w3.org/1999/xlink" fill="none" version="1.1" width="24" height="24" viewBox="0 0 24 24"><defs><clipPath id="master_svg0_3_1518"><rect x="0" y="0" width="24" height="24" rx="0"/></clipPath></defs><g clip-path="url(#master_svg0_3_1518)"><path d="M5.9999756859375,3.5999755859375C5.3634596859375,3.5999755859375004,4.7530064859375,3.8528324059375,4.3029187959375,4.3029187959375C3.8528324059375,4.7530064859375,3.5999755859375004,5.3634596859375,3.5999755859375,5.9999756859375C3.5999755859375,5.9999756859375,3.5999755859375,17.9999765859375,3.5999755859375,17.9999765859375C3.5999755859375004,18.636456585937502,3.8528324059375,19.2468955859375,4.3029187959375,19.6970155859375C4.7530064859375,20.1471365859375,5.3634596859375,20.3999765859375,5.9999756859375,20.3999765859375C5.9999756859375,20.3999765859375,17.9999765859375,20.3999765859375,17.9999765859375,20.3999765859375C18.636456585937502,20.3999765859375,19.2468955859375,20.1471365859375,19.6970155859375,19.6970155859375C20.1471365859375,19.2468955859375,20.3999765859375,18.636456585937502,20.3999765859375,17.9999765859375C20.3999765859375,17.9999765859375,20.3999765859375,5.9999756859375,20.3999765859375,5.9999756859375C20.3999765859375,5.3634596859375,20.1471365859375,4.7530064859375,19.6970155859375,4.3029187959375C19.2468955859375,3.8528324059375,18.636456585937502,3.5999755859375004,17.9999765859375,3.5999755859375C17.9999765859375,3.5999755859375,5.9999756859375,3.5999755859375,5.9999756859375,3.5999755859375C5.9999756859375,3.5999755859375,5.9999756859375,3.5999755859375,5.9999756859375,3.5999755859375ZM5.9999756859375,5.9999756859375C5.9999756859375,5.9999756859375,17.9999765859375,5.9999756859375,17.9999765859375,5.9999756859375C17.9999765859375,5.9999756859375,17.9999765859375,14.3999755859375,17.9999765859375,14.3999755859375C17.9999765859375,14.3999755859375,15.5999755859375,14.3999755859375,15.5999755859375,14.3999755859375C15.5999755859375,14.3999755859375,14.3999755859375,16.7999765859375,14.3999755859375,16.7999765859375C14.3999755859375,16.7999765859375,9.5999755859375,16.7999765859375,9.5999755859375,16.7999765859375C9.5999755859375,16.7999765859375,8.3999757859375,14.3999755859375,8.3999757859375,14.3999755859375C8.3999757859375,14.3999755859375,5.9999756859375,14.3999755859375,5.9999756859375,14.3999755859375C5.9999756859375,14.3999755859375,5.9999756859375,5.9999756859375,5.9999756859375,5.9999756859375C5.9999756859375,5.9999756859375,5.9999756859375,5.9999756859375,5.9999756859375,5.9999756859375Z" fill-rule="evenodd" fill="#0A0A28" fill-opacity="1"/></g></svg>