<svg xmlns="http://www.w3.org/2000/svg" xmlns:xlink="http://www.w3.org/1999/xlink" fill="none" version="1.1" width="24" height="24" viewBox="0 0 24 24"><defs><clipPath id="master_svg0_3_1611"><rect x="0" y="0" width="24" height="24" rx="0"/></clipPath></defs><g clip-path="url(#master_svg0_3_1611)"><path d="M21.599994896484375,12.0000248140625C21.599994896484375,14.5460654140625,20.588513896484375,16.9879444140625,18.788274896484374,18.7883054140625C16.987913896484375,20.5885444140625,14.546034896484375,21.6000254140625,11.999994296484376,21.6000254140625C9.453918496484375,21.6000254140625,7.012122196484375,20.5885444140625,5.211773896484376,18.7883054140625C3.411419896484375,16.9879444140625,2.3999938964843768,14.5460654140625,2.399993896484375,12.0000248140625C2.3999938964843754,9.4539490140625,3.411419896484375,7.0121527140625,5.211773896484376,5.211804414062501C7.012122196484375,3.4114504140625,9.453918496484375,2.4000244140625027,11.999994296484376,2.4000244140625C14.546034896484375,2.4000244140625018,16.987913896484375,3.4114504140625,18.788274896484374,5.211804414062501C20.588513896484375,7.0121527140625,21.599994896484375,9.4539490140625,21.599994896484375,12.0000248140625C21.599994896484375,12.0000248140625,21.599994896484375,12.0000248140625,21.599994896484375,12.0000248140625C21.599994896484375,12.0000248140625,21.599994896484375,12.0000248140625,21.599994896484375,12.0000248140625ZM13.199993896484376,7.2000246140625C13.199993896484376,7.5182886140625,13.073562896484376,7.8235082140625,12.848526896484374,8.0485563140625C12.623478896484375,8.2735925140625,12.318258296484375,8.4000244140625,11.999994296484376,8.4000244140625C11.681730296484375,8.4000244140625,11.376510596484374,8.2735925140625,11.151462596484375,8.0485563140625C10.926425896484375,7.8235082140625,10.799994496484375,7.5182886140625,10.799994496484375,7.2000246140625C10.799994496484375,6.8817606140625,10.926425896484375,6.5765405140625,11.151462596484375,6.3514926140625C11.376510596484374,6.1264565140625,11.681730296484375,6.0000245140625,11.999994296484376,6.0000245140625C12.318258296484375,6.0000245140625,12.623478896484375,6.1264565140625,12.848526896484374,6.3514926140625C13.073562896484376,6.5765405140625,13.199993896484376,6.8817606140625,13.199993896484376,7.2000246140625C13.199993896484376,7.2000246140625,13.199993896484376,7.2000246140625,13.199993896484376,7.2000246140625ZM10.799994496484375,10.8000250140625C10.481730496484374,10.8000250140625,10.176510296484375,10.9264564140625,9.951462296484376,11.1514931140625C9.726426096484374,11.3765411140625,9.599994196484374,11.6817608140625,9.599994196484374,12.0000248140625C9.599994196484374,12.3182888140625,9.726426096484374,12.6235094140625,9.951462296484376,12.8485574140625C10.176510296484375,13.0735934140625,10.481730496484374,13.2000244140625,10.799994496484375,13.2000244140625C10.799994496484375,13.2000244140625,10.799994496484375,16.8000254140625,10.799994496484375,16.8000254140625C10.799994496484375,17.1182644140625,10.926425896484375,17.423544414062498,11.151462596484375,17.6485454140625C11.376510596484374,17.8735444140625,11.681730296484375,18.0000244140625,11.999994296484376,18.0000244140625C11.999994296484376,18.0000244140625,13.199993896484376,18.0000244140625,13.199993896484376,18.0000244140625C13.518257896484375,18.0000244140625,13.823478896484374,17.8735444140625,14.048526896484375,17.6485454140625C14.273562896484375,17.423544414062498,14.399993896484375,17.1182644140625,14.399993896484375,16.8000254140625C14.399993896484375,16.4817854140625,14.273562896484375,16.1765054140625,14.048526896484375,15.9515044140625C13.823478896484374,15.7265054140625,13.518257896484375,15.6000254140625,13.199993896484376,15.6000254140625C13.199993896484376,15.6000254140625,13.199993896484376,12.0000248140625,13.199993896484376,12.0000248140625C13.199993896484376,11.6817608140625,13.073562896484376,11.3765411140625,12.848526896484374,11.1514931140625C12.623478896484375,10.9264564140625,12.318258296484375,10.8000250140625,11.999994296484376,10.8000250140625C11.999994296484376,10.8000250140625,10.799994496484375,10.8000250140625,10.799994496484375,10.8000250140625C10.799994496484375,10.8000250140625,10.799994496484375,10.8000250140625,10.799994496484375,10.8000250140625Z" fill-rule="evenodd" fill="#0A0A28" fill-opacity="1"/></g></svg>