<svg xmlns="http://www.w3.org/2000/svg" xmlns:xlink="http://www.w3.org/1999/xlink" fill="none" version="1.1" width="24" height="24" viewBox="0 0 24 24"><defs><clipPath id="master_svg0_3_2275"><rect x="0" y="0" width="24" height="24" rx="0"/></clipPath></defs><g clip-path="url(#master_svg0_3_2275)"><path d="M15,6.000003796310425C14.4477,6.000003796310425,14,6.447713896310425,14,7.000003796310425C14,7.5522839963104245,14.4477,8.000003596310425,15,8.000003596310425C15,8.000003596310425,15,6.000003796310425,15,6.000003796310425C15,6.000003796310425,15,6.000003796310425,15,6.000003796310425ZM16,9.000003596310425C16,9.552283996310425,16.447699999999998,10.000003596310425,17,10.000003596310425C17.552300000000002,10.000003596310425,18,9.552283996310425,18,9.000003596310425C18,9.000003596310425,16,9.000003596310425,16,9.000003596310425C16,9.000003596310425,16,9.000003596310425,16,9.000003596310425ZM21,9.000003596310425C21,9.000003596310425,22,8.999703596310425,22,8.999703596310425C22,8.999703596310425,22,8.999033696310425,22,8.999033696310425C22,8.999033696310425,21,9.000003596310425,21,9.000003596310425C21,9.000003596310425,21,9.000003596310425,21,9.000003596310425ZM13.257,14.742983796310424C13.257,14.742983796310424,13.5475,13.786083796310425,13.5475,13.786083796310425C13.1944,13.678883796310425,12.8108597,13.774883796310425,12.5498896,14.035883796310424C12.5498896,14.035883796310424,13.257,14.742983796310424,13.257,14.742983796310424C13.257,14.742983796310424,13.257,14.742983796310424,13.257,14.742983796310424ZM11,16.999983796310424C11,16.999983796310424,11,17.999983796310424,11,17.999983796310424C11.2652197,17.999983796310424,11.5195704,17.894683796310424,11.7071104,17.707083796310425C11.7071104,17.707083796310425,11,16.999983796310424,11,16.999983796310424C11,16.999983796310424,11,16.999983796310424,11,16.999983796310424ZM9,16.999983796310424C9,16.999983796310424,9,15.999983796310424,9,15.999983796310424C8.4477201,15.999983796310424,8,16.447683796310425,8,16.999983796310424C8,16.999983796310424,9,16.999983796310424,9,16.999983796310424C9,16.999983796310424,9,16.999983796310424,9,16.999983796310424ZM9,18.999983796310424C9,18.999983796310424,9,19.999983796310424,9,19.999983796310424C9.5522799,19.999983796310424,10,19.552282796310426,10,18.999983796310424C10,18.999983796310424,9,18.999983796310424,9,18.999983796310424C9,18.999983796310424,9,18.999983796310424,9,18.999983796310424ZM7,18.999983796310424C7,18.999983796310424,7,17.999983796310424,7,17.999983796310424C6.4477201,17.999983796310424,6,18.447683796310425,6,18.999983796310424C6,18.999983796310424,7,18.999983796310424,7,18.999983796310424C7,18.999983796310424,7,18.999983796310424,7,18.999983796310424ZM7,20.999983796310424C7,20.999983796310424,7,21.999983796310424,7,21.999983796310424C7.5522799,21.999983796310424,8,21.552282796310426,8,20.999983796310424C8,20.999983796310424,7,20.999983796310424,7,20.999983796310424C7,20.999983796310424,7,20.999983796310424,7,20.999983796310424ZM3,19.999983796310424C3,19.999983796310424,2,19.999983796310424,2,19.999983796310424C2,19.999983796310424,3,19.999983796310424,3,19.999983796310424C3,19.999983796310424,3,19.999983796310424,3,19.999983796310424ZM3,17.413983796310426C3,17.413983796310426,2,17.413783796310426,2,17.413783796310426C2,17.413783796310426,2,17.413983796310426,2,17.413983796310426C2,17.413983796310426,3,17.413983796310426,3,17.413983796310426C3,17.413983796310426,3,17.413983796310426,3,17.413983796310426ZM3.29300001,16.706983796310425C3.29300001,16.706983796310425,4,17.414183796310425,4,17.414183796310425C4,17.414183796310425,4.00011,17.414083796310425,4.00011,17.414083796310425C4.00011,17.414083796310425,3.29300001,16.706983796310425,3.29300001,16.706983796310425C3.29300001,16.706983796310425,3.29300001,16.706983796310425,3.29300001,16.706983796310425ZM9.257,10.743003596310425C9.257,10.743003596310425,9.9641099,11.450103496310424,9.9641099,11.450103496310424C10.224820099999999,11.189393796310425,10.320920000000001,10.806373796310424,10.21417,10.453463796310425C10.21417,10.453463796310425,9.257,10.743003596310425,9.257,10.743003596310425C9.257,10.743003596310425,9.257,10.743003596310425,9.257,10.743003596310425ZM15,8.000003596310425C15.2652,8.000003596310425,15.5196,8.105353596310426,15.7071,8.292893696310426C15.7071,8.292893696310426,17.121299999999998,6.878683796310424,17.121299999999998,6.878683796310424C16.5587,6.316073896310424,15.7956,6.000003796310425,15,6.000003796310425C15,6.000003796310425,15,8.000003596310425,15,8.000003596310425C15,8.000003596310425,15,8.000003596310425,15,8.000003596310425ZM15.7071,8.292893696310426C15.8946,8.480433696310424,16,8.734783896310425,16,9.000003596310425C16,9.000003596310425,18,9.000003596310425,18,9.000003596310425C18,8.204353596310424,17.6839,7.441283896310424,17.121299999999998,6.878683796310424C17.121299999999998,6.878683796310424,15.7071,8.292893696310426,15.7071,8.292893696310426C15.7071,8.292893696310426,15.7071,8.292893696310426,15.7071,8.292893696310426ZM20,9.000293996310425C20.0002,9.781263596310424,19.817499,10.551433796310425,19.466499,11.249084196310426C19.466499,11.249084196310426,21.253099,12.148013796310424,21.253099,12.148013796310424C21.744499,11.171313996310424,22.000299,10.093073596310425,22,8.999703596310425C22,8.999703596310425,20,9.000293996310425,20,9.000293996310425C20,9.000293996310425,20,9.000293996310425,20,9.000293996310425ZM19.466499,11.249084196310426C19.115499,11.946723696310425,18.6059,12.552444196310425,17.9786,13.017683796310425C17.9786,13.017683796310425,19.170099,14.624083796310424,19.170099,14.624083796310424C20.0483,13.972683796310426,20.7617,13.124683796310425,21.253099,12.148013796310424C21.253099,12.148013796310424,19.466499,11.249084196310426,19.466499,11.249084196310426C19.466499,11.249084196310426,19.466499,11.249084196310426,19.466499,11.249084196310426ZM17.9786,13.017683796310425C17.351399999999998,13.482983796310425,16.6238,13.794783796310425,15.8543,13.928183796310424C15.8543,13.928183796310424,16.1961,15.898783796310425,16.1961,15.898783796310425C17.273400000000002,15.711983796310426,18.2919,15.275383796310425,19.170099,14.624083796310424C19.170099,14.624083796310424,17.9786,13.017683796310425,17.9786,13.017683796310425C17.9786,13.017683796310425,17.9786,13.017683796310425,17.9786,13.017683796310425ZM15.8543,13.928183796310424C15.0848,14.061683796310424,14.2948,14.012983796310424,13.5475,13.786083796310425C13.5475,13.786083796310425,12.9665003,15.699883796310425,12.9665003,15.699883796310425C14.0127,16.017483796310422,15.1188,16.085583796310424,16.1961,15.898783796310425C16.1961,15.898783796310425,15.8543,13.928183796310424,15.8543,13.928183796310424C15.8543,13.928183796310424,15.8543,13.928183796310424,15.8543,13.928183796310424ZM12.5498896,14.035883796310424C12.5498896,14.035883796310424,10.292890100000001,16.292883796310427,10.292890100000001,16.292883796310427C10.292890100000001,16.292883796310427,11.7071104,17.707083796310425,11.7071104,17.707083796310425C11.7071104,17.707083796310425,13.9641,15.450083796310425,13.9641,15.450083796310425C13.9641,15.450083796310425,12.5498896,14.035883796310424,12.5498896,14.035883796310424C12.5498896,14.035883796310424,12.5498896,14.035883796310424,12.5498896,14.035883796310424ZM11,15.999983796310424C11,15.999983796310424,9,15.999983796310424,9,15.999983796310424C9,15.999983796310424,9,17.999983796310424,9,17.999983796310424C9,17.999983796310424,11,17.999983796310424,11,17.999983796310424C11,17.999983796310424,11,15.999983796310424,11,15.999983796310424C11,15.999983796310424,11,15.999983796310424,11,15.999983796310424ZM8,16.999983796310424C8,16.999983796310424,8,18.999983796310424,8,18.999983796310424C8,18.999983796310424,10,18.999983796310424,10,18.999983796310424C10,18.999983796310424,10,16.999983796310424,10,16.999983796310424C10,16.999983796310424,8,16.999983796310424,8,16.999983796310424C8,16.999983796310424,8,16.999983796310424,8,16.999983796310424ZM9,17.999983796310424C9,17.999983796310424,7,17.999983796310424,7,17.999983796310424C7,17.999983796310424,7,19.999983796310424,7,19.999983796310424C7,19.999983796310424,9,19.999983796310424,9,19.999983796310424C9,19.999983796310424,9,17.999983796310424,9,17.999983796310424C9,17.999983796310424,9,17.999983796310424,9,17.999983796310424ZM6,18.999983796310424C6,18.999983796310424,6,20.999983796310424,6,20.999983796310424C6,20.999983796310424,8,20.999983796310424,8,20.999983796310424C8,20.999983796310424,8,18.999983796310424,8,18.999983796310424C8,18.999983796310424,6,18.999983796310424,6,18.999983796310424C6,18.999983796310424,6,18.999983796310424,6,18.999983796310424ZM7,19.999983796310424C7,19.999983796310424,4,19.999983796310424,4,19.999983796310424C4,19.999983796310424,4,21.999983796310424,4,21.999983796310424C4,21.999983796310424,7,21.999983796310424,7,21.999983796310424C7,21.999983796310424,7,19.999983796310424,7,19.999983796310424C7,19.999983796310424,7,19.999983796310424,7,19.999983796310424ZM4,19.999983796310424C4,19.999983796310424,4,19.999983796310424,4,19.999983796310424C4,19.999983796310424,2.58578601,21.414183796310425,2.58578601,21.414183796310425C2.960860599,21.789284796310426,3.469569,21.999983796310424,4,21.999983796310424C4,21.999983796310424,4,19.999983796310424,4,19.999983796310424C4,19.999983796310424,4,19.999983796310424,4,19.999983796310424ZM4,19.999983796310424C4,19.999983796310424,4,19.999983796310424,4,19.999983796310424C4,19.999983796310424,2,19.999983796310424,2,19.999983796310424C2,20.530382796310423,2.21071303,21.039183796310425,2.58578601,21.414183796310425C2.58578601,21.414183796310425,4,19.999983796310424,4,19.999983796310424C4,19.999983796310424,4,19.999983796310424,4,19.999983796310424ZM4,19.999983796310424C4,19.999983796310424,4,17.413983796310426,4,17.413983796310426C4,17.413983796310426,2,17.413983796310426,2,17.413983796310426C2,17.413983796310426,2,19.999983796310424,2,19.999983796310424C2,19.999983796310424,4,19.999983796310424,4,19.999983796310424C4,19.999983796310424,4,19.999983796310424,4,19.999983796310424ZM4,17.414183796310425C4,17.414183796310425,4,17.414183796310425,4,17.414183796310425C4,17.414183796310425,2.586,15.999783796310425,2.586,15.999783796310425C2.21090198,16.374783796310425,2.0001130099999997,16.883383796310426,2,17.413783796310426C2,17.413783796310426,4,17.414183796310425,4,17.414183796310425C4,17.414183796310425,4,17.414183796310425,4,17.414183796310425ZM4.00011,17.414083796310425C4.00011,17.414083796310425,9.9641099,11.450103496310424,9.9641099,11.450103496310424C9.9641099,11.450103496310424,8.549890000000001,10.035893696310424,8.549890000000001,10.035893696310424C8.549890000000001,10.035893696310424,2.58589301,15.999883796310424,2.58589301,15.999883796310424C2.58589301,15.999883796310424,4.00011,17.414083796310425,4.00011,17.414083796310425C4.00011,17.414083796310425,4.00011,17.414083796310425,4.00011,17.414083796310425ZM10.21417,10.453463796310425C10.0062099,9.765973796310425,9.9488101,9.041753996310426,10.0458698,8.330083596310425C10.0458698,8.330083596310425,8.064219999999999,8.059803696310425,8.064219999999999,8.059803696310425C7.9283299,9.056133996310425,8.0086899,10.070053796310425,8.29983,11.032533396310425C8.29983,11.032533396310425,10.21417,10.453463796310425,10.21417,10.453463796310425C10.21417,10.453463796310425,10.21417,10.453463796310425,10.21417,10.453463796310425ZM10.0458698,8.330083596310425C10.14293,7.618423696310424,10.39219,6.936023696310425,10.77666,6.329333796310425C10.77666,6.329333796310425,9.0873199,5.258753796310424,9.0873199,5.258753796310424C8.5490599,6.108113796310425,8.200109999999999,7.063473896310425,8.064219999999999,8.059803696310425C8.064219999999999,8.059803696310425,10.0458698,8.330083596310425,10.0458698,8.330083596310425C10.0458698,8.330083596310425,10.0458698,8.330083596310425,10.0458698,8.330083596310425ZM10.77666,6.329333796310425C11.16113,5.722653896310424,11.6717997,5.2059137963104245,12.2739096,4.814313796310425C12.2739096,4.814313796310425,11.1834803,3.1377248063104246,11.1834803,3.1377248063104246C10.3405199,3.685971796310425,9.6255898,4.409393796310425,9.0873199,5.258753796310424C9.0873199,5.258753796310424,10.77666,6.329333796310425,10.77666,6.329333796310425C10.77666,6.329333796310425,10.77666,6.329333796310425,10.77666,6.329333796310425ZM12.2739096,4.814313796310425C12.8760204,4.422703696310425,13.5554,4.165423796310424,14.2659,4.0599637963104245C14.2659,4.0599637963104245,13.9723,2.081641796310425,13.9723,2.081641796310425C12.9776001,2.229277786310425,12.0264301,2.5894778063104247,11.1834803,3.1377248063104246C11.1834803,3.1377248063104246,12.2739096,4.814313796310425,12.2739096,4.814313796310425C12.2739096,4.814313796310425,12.2739096,4.814313796310425,12.2739096,4.814313796310425ZM14.2659,4.0599637963104245C14.9764,3.9545137863104247,15.7012,4.003366766310425,16.3911,4.203203796310425C16.3911,4.203203796310425,16.9476,2.282167796310425,16.9476,2.282167796310425C15.9817,2.0024038963104247,14.9669,1.9340037963104248,13.9723,2.081641796310425C13.9723,2.081641796310425,14.2659,4.0599637963104245,14.2659,4.0599637963104245C14.2659,4.0599637963104245,14.2659,4.0599637963104245,14.2659,4.0599637963104245ZM16.3911,4.203203796310425C17.081,4.403033896310425,17.7198,4.749163796310425,18.2639,5.218013796310425C18.2639,5.218013796310425,19.569401,3.702910776310425,19.569401,3.702910776310425C18.8077,3.046511694310425,17.9134,2.561936796310425,16.9476,2.282167796310425C16.9476,2.282167796310425,16.3911,4.203203796310425,16.3911,4.203203796310425C16.3911,4.203203796310425,16.3911,4.203203796310425,16.3911,4.203203796310425ZM18.2639,5.218013796310425C18.808,5.686873896310425,19.244699,6.267453896310425,19.5443,6.9202436963104255C19.5443,6.9202436963104255,21.362,6.086033796310424,21.362,6.086033796310424C20.9426,5.172123896310425,20.3312,4.359313796310425,19.569401,3.702910776310425C19.569401,3.702910776310425,18.2639,5.218013796310425,18.2639,5.218013796310425C18.2639,5.218013796310425,18.2639,5.218013796310425,18.2639,5.218013796310425ZM19.5443,6.9202436963104255C19.843901,7.573033596310425,19.9993,8.282713696310424,20,9.000963896310424C20,9.000963896310424,22,8.999033696310425,22,8.999033696310425C21.999001,7.993483796310425,21.781401,6.999933696310425,21.362,6.086033796310424C21.362,6.086033796310424,19.5443,6.9202436963104255,19.5443,6.9202436963104255C19.5443,6.9202436963104255,19.5443,6.9202436963104255,19.5443,6.9202436963104255Z" fill="#0A0A28" fill-opacity="1"/></g></svg>