<svg xmlns="http://www.w3.org/2000/svg" xmlns:xlink="http://www.w3.org/1999/xlink" fill="none" version="1.1" width="24" height="24" viewBox="0 0 24 24"><defs><clipPath id="master_svg0_3_2342"><rect x="0" y="0" width="24" height="24" rx="0"/></clipPath></defs><g clip-path="url(#master_svg0_3_2342)"><path d="M21.599994896484375,9.600046621875C21.600352896484374,10.724650421875,21.337194896484377,11.833690621875,20.831754896484377,12.838295421875C20.326314896484377,13.842910421875,19.592513896484373,14.715142421875,18.689273896484377,15.385102421875C17.785914896484375,16.055062421875,16.738314896484376,16.504102421875,15.630234896484374,16.696222421875C14.522154896484375,16.888463421875002,13.384505896484375,16.818382421875,12.308394396484376,16.491623421874998C12.308394396484376,16.491623421874998,11.999994296484376,16.800023421875,11.999994296484376,16.800023421875C11.999994296484376,16.800023421875,10.799994496484375,18.000022421875002,10.799994496484375,18.000022421875002C10.799994496484375,18.000022421875002,9.599994196484374,19.200023421875,9.599994196484374,19.200023421875C9.599994196484374,19.200023421875,7.199994096484375,19.200023421875,7.199994096484375,19.200023421875C7.199994096484375,19.200023421875,7.199994096484375,21.600023421875,7.199994096484375,21.600023421875C7.199994096484375,21.600023421875,2.399993896484375,21.600023421875,2.399993896484375,21.600023421875C2.399993896484375,21.600023421875,2.399993896484375,16.800023421875,2.399993896484375,16.800023421875C2.399993896484375,16.800023421875,7.508394196484375,11.691646621875,7.508394196484375,11.691646621875C7.208934296484375,10.701659221875,7.126277896484375,9.658774821875,7.266041796484375,8.633974521875C7.405818496484375,7.609186221875,7.764738096484375,6.626530621875,8.318382296484376,5.752894621875C8.872026396484376,4.879270521875,9.607386096484376,4.135174521875,10.474422496484374,3.5712645218750003C11.341458296484374,3.007353241875,12.319817496484376,2.636861641875,13.342889896484374,2.485007986875C14.365961896484375,2.333153858875,15.409794896484375,2.403501737875,16.403153896484376,2.691263641875C17.396633896484374,2.979024831875,18.316433896484376,3.477446121875,19.099914896484375,4.1525985218749994C19.883514896484375,4.827754521875001,20.512315896484374,5.663794521874999,20.943713896484375,6.603814621875C21.375234896484375,7.543822721875,21.599034896484376,8.565754421874999,21.599994896484375,9.600046621875C21.599994896484375,9.600046621875,21.599994896484375,9.600046621875,21.599994896484375,9.600046621875C21.599994896484375,9.600046621875,21.599994896484375,9.600046621875,21.599994896484375,9.600046621875ZM14.399993896484375,4.800046421875C14.081730896484375,4.800046421875,13.776509896484376,4.926466421875,13.551461896484374,5.151514521875C13.326426896484374,5.376562321874999,13.199993896484376,5.681782721875,13.199993896484376,6.000046521874999C13.199993896484376,6.318298621875,13.326426896484374,6.623530421875,13.551461896484374,6.848566521875C13.776509896484376,7.073614621875,14.081730896484375,7.200046521875,14.399993896484375,7.200046521875C15.036474896484375,7.200046521875,15.646914896484375,7.452898521875,16.097034896484374,7.902982721875C16.547154896484376,8.353078821875,16.799994896484375,8.963518621875,16.799994896484375,9.600046621875C16.799994896484375,9.918298721875,16.926474896484375,10.223530721875001,17.151474896484373,10.448567421875C17.376473896484377,10.673615421875,17.681754896484374,10.800046921875,17.999993896484376,10.800046921875C18.318234896484377,10.800046921875,18.623513896484376,10.673615421875,18.848514896484375,10.448567421875C19.073514896484376,10.223530721875001,19.199994896484377,9.918298721875,19.199994896484377,9.600046621875C19.199994896484377,8.327002521875,18.694314896484375,7.106098621875,17.794073896484377,6.205930721875C16.893954896484374,5.305750621875,15.673073896484375,4.800046421875,14.399993896484375,4.800046421875C14.399993896484375,4.800046421875,14.399993896484375,4.800046421875,14.399993896484375,4.800046421875Z" fill-rule="evenodd" fill="#0A0A28" fill-opacity="1"/></g></svg>