<svg xmlns="http://www.w3.org/2000/svg" xmlns:xlink="http://www.w3.org/1999/xlink" fill="none" version="1.1" width="24" height="24" viewBox="0 0 24 24"><defs><clipPath id="master_svg0_3_1672"><rect x="0" y="0" width="24" height="24" rx="0"/></clipPath></defs><g clip-path="url(#master_svg0_3_1672)"><path d="M12.595194896484376,2.558403035C12.413921896484375,2.454854906,12.208758396484376,2.4003906250000004,11.999994296484376,2.400390625C11.791230196484374,2.400390625,11.586066196484374,2.454854906,11.404794696484375,2.558403035C11.404794696484375,2.558403035,3.004793946484375,7.358407025,3.004793946484375,7.358407025C2.775199116484375,7.489746525,2.595434296484375,7.693278825,2.493450373484375,7.937335025C2.391466336284375,8.181390725,2.372977813484375,8.452314825,2.440859660484375,8.707963025C2.508741386484375,8.963610625000001,2.659189106484375,9.189679125,2.868812326484375,9.350995025C3.078434286484375,9.512311024999999,3.335483906484375,9.599850625,3.599993896484375,9.600007025C3.599993896484375,9.600007025,3.599993896484375,18.000030625,3.599993896484375,18.000030625C3.281734766484375,18.000030625,2.976509926484375,18.126390625,2.751465496484375,18.351510625C2.526422306484375,18.576511625,2.399993896484376,18.881791625,2.399993896484375,19.200031625C2.3999938964843754,19.518272625,2.526422306484375,19.823430625,2.751465496484375,20.048551625C2.976509926484375,20.273551625,3.281734766484375,20.400030625,3.599993896484375,20.400030625C3.599993896484375,20.400030625,20.399993896484375,20.400030625,20.399993896484375,20.400030625C20.718234896484375,20.400030625,21.023513896484374,20.273551625,21.248513896484376,20.048551625C21.473514896484375,19.823430625,21.599994896484375,19.518272625,21.599994896484375,19.200031625C21.599994896484375,18.881791625,21.473514896484375,18.576511625,21.248513896484376,18.351510625C21.023513896484374,18.126390625,20.718234896484375,18.000030625,20.399993896484375,18.000030625C20.399993896484375,18.000030625,20.399993896484375,9.600007025,20.399993896484375,9.600007025C20.664474896484375,9.599850625,20.921514896484375,9.512311024999999,21.131154896484375,9.350995025C21.340795896484376,9.189679125,21.491273896484376,8.963610625000001,21.559074896484375,8.707963025C21.626992896484374,8.452314825,21.608512896484374,8.181390725,21.506515896484373,7.937335025C21.404513896484374,7.693278825,21.224753896484376,7.489746525,20.995194896484374,7.358407025C20.995194896484374,7.358407025,12.595194896484376,2.558403035,12.595194896484376,2.558403035C12.595194896484376,2.558403035,12.595194896484376,2.558403035,12.595194896484376,2.558403035C12.595194896484376,2.558403035,12.595194896484376,2.558403035,12.595194896484376,2.558403035ZM7.199994096484375,10.800006825C6.881730096484375,10.800006825,6.576509996484375,10.926426925,6.351462096484375,11.151474925C6.126425996484375,11.376523025,5.999993996484375,11.681742625,5.999993996484375,12.000006725C5.999993996484375,12.000006725,5.999993996484375,15.600030625,5.999993996484375,15.600030625C5.999993996484375,15.918270625,6.126425996484375,16.223431625,6.351462096484375,16.448552624999998C6.576509996484375,16.673551625,6.881730096484375,16.800030624999998,7.199994096484375,16.800030624999998C7.518258096484375,16.800030624999998,7.823477696484375,16.673551625,8.048525796484375,16.448552624999998C8.273561996484375,16.223431625,8.399993896484375,15.918270625,8.399993896484375,15.600030625C8.399993896484375,15.600030625,8.399993896484375,12.000006725,8.399993896484375,12.000006725C8.399993896484375,11.681742625,8.273561996484375,11.376523025,8.048525796484375,11.151474925C7.823477696484375,10.926426925,7.518258096484375,10.800006825,7.199994096484375,10.800006825C7.199994096484375,10.800006825,7.199994096484375,10.800006825,7.199994096484375,10.800006825ZM10.799994496484375,12.000006725C10.799994496484375,11.681742625,10.926425896484375,11.376523025,11.151462596484375,11.151474925C11.376510596484374,10.926426925,11.681730296484375,10.800006825,11.999994296484376,10.800006825C12.318258296484375,10.800006825,12.623478896484375,10.926426925,12.848526896484374,11.151474925C13.073562896484376,11.376523025,13.199993896484376,11.681742625,13.199993896484376,12.000006725C13.199993896484376,12.000006725,13.199993896484376,15.600030625,13.199993896484376,15.600030625C13.199993896484376,15.918270625,13.073562896484376,16.223431625,12.848526896484374,16.448552624999998C12.623478896484375,16.673551625,12.318258296484375,16.800030624999998,11.999994296484376,16.800030624999998C11.681730296484375,16.800030624999998,11.376510596484374,16.673551625,11.151462596484375,16.448552624999998C10.926425896484375,16.223431625,10.799994496484375,15.918270625,10.799994496484375,15.600030625C10.799994496484375,15.600030625,10.799994496484375,12.000006725,10.799994496484375,12.000006725C10.799994496484375,12.000006725,10.799994496484375,12.000006725,10.799994496484375,12.000006725ZM16.799994896484375,10.800006825C16.481754896484375,10.800006825,16.176474896484375,10.926426925,15.951473896484375,11.151474925C15.726474896484374,11.376523025,15.599994896484375,11.681742625,15.599994896484375,12.000006725C15.599994896484375,12.000006725,15.599994896484375,15.600030625,15.599994896484375,15.600030625C15.599994896484375,15.918270625,15.726474896484374,16.223431625,15.951473896484375,16.448552624999998C16.176474896484375,16.673551625,16.481754896484375,16.800030624999998,16.799994896484375,16.800030624999998C17.118233896484377,16.800030624999998,17.423513896484373,16.673551625,17.648514896484375,16.448552624999998C17.873513896484376,16.223431625,17.999993896484376,15.918270625,17.999993896484376,15.600030625C17.999993896484376,15.600030625,17.999993896484376,12.000006725,17.999993896484376,12.000006725C17.999993896484376,11.681742625,17.873513896484376,11.376523025,17.648514896484375,11.151474925C17.423513896484373,10.926426925,17.118233896484377,10.800006825,16.799994896484375,10.800006825C16.799994896484375,10.800006825,16.799994896484375,10.800006825,16.799994896484375,10.800006825Z" fill-rule="evenodd" fill="#0A0A28" fill-opacity="1"/></g></svg>