<svg xmlns="http://www.w3.org/2000/svg" xmlns:xlink="http://www.w3.org/1999/xlink" fill="none" version="1.1" width="24" height="24" viewBox="0 0 24 24"><defs><clipPath id="master_svg0_3_2163"><rect x="0" y="0" width="24" height="24" rx="0"/></clipPath></defs><g clip-path="url(#master_svg0_3_2163)"><path d="M9,14C9,13.4477,8.5522799,13,8,13C7.4477201,13,7,13.4477,7,14C7,14,9,14,9,14C9,14,9,14,9,14ZM7,17C7,17.552300000000002,7.4477201,18,8,18C8.5522799,18,9,17.552300000000002,9,17C9,17,7,17,7,17C7,17,7,17,7,17ZM13,14C13,13.4477,12.55229,13,12,13C11.44771,13,11,13.4477,11,14C11,14,13,14,13,14C13,14,13,14,13,14ZM11,17C11,17.552300000000002,11.44771,18,12,18C12.55229,18,13,17.552300000000002,13,17C13,17,11,17,11,17C11,17,11,17,11,17ZM17,14C17,13.4477,16.552300000000002,13,16,13C15.4477,13,15,13.4477,15,14C15,14,17,14,17,14C17,14,17,14,17,14ZM15,17C15,17.552300000000002,15.4477,18,16,18C16.552300000000002,18,17,17.552300000000002,17,17C17,17,15,17,15,17C15,17,15,17,15,17ZM3,20C2.4477149799999998,20,2,20.447701,2,21C2,21.552299,2.4477149799999998,22,3,22C3,22,3,20,3,20C3,20,3,20,3,20ZM21,22C21.552299,22,22,21.552299,22,21C22,20.447701,21.552299,20,21,20C21,20,21,22,21,22C21,22,21,22,21,22ZM3,9C2.4477149799999998,9,2,9.4477201,2,10C2,10.5522799,2.4477149799999998,11,3,11C3,11,3,9,3,9C3,9,3,9,3,9ZM21,11C21.552299,11,22,10.5522799,22,10C22,9.4477201,21.552299,9,21,9C21,9,21,11,21,11C21,11,21,11,21,11ZM3,7C3,7,2.593862,6.08619,2.593862,6.08619C2.16228598,6.2780001,1.92374,6.7456,2.02178401,7.2075901C2.11982602,7.66958,2.52771899,8,2.9999999999999996,8C2.9999999999999996,8,3,7,3,7C3,7,3,7,3,7ZM12,3C12,3,12.4061403,2.08618802,12.4061403,2.08618802C12.1475697,1.97127,11.8524303,1.97127,11.5938597,2.08618802C11.5938597,2.08618802,12,3,12,3C12,3,12,3,12,3ZM21,7C21,7,21,8,21,8C21.4723,8,21.880199,7.66958,21.978201,7.2075901C22.0763,6.7456,21.8377,6.2780001,21.406099,6.08619C21.406099,6.08619,21,7,21,7C21,7,21,7,21,7ZM4,10C4,10,4,9,4,9C3.44771501,9,2.9999999999999996,9.4477201,2.9999999999999996,10C2.9999999999999996,10,4,10,4,10C4,10,4,10,4,10ZM20,10C20,10,21,10,21,10C21,9.4477201,20.552299,9,20,9C20,9,20,10,20,10C20,10,20,10,20,10ZM20,21C20,21,20,22,20,22C20.552299,22,21,21.552299,21,21C21,21,20,21,20,21C20,21,20,21,20,21ZM4,21C4,21,3,21,3,21C3,21.552299,3.44771501,22,4,22C4,22,4,21,4,21C4,21,4,21,4,21ZM7,14C7,14,7,17,7,17C7,17,9,17,9,17C9,17,9,14,9,14C9,14,7,14,7,14C7,14,7,14,7,14ZM11,14C11,14,11,17,11,17C11,17,13,17,13,17C13,17,13,14,13,14C13,14,11,14,11,14C11,14,11,14,11,14ZM15,14C15,14,15,17,15,17C15,17,17,17,17,17C17,17,17,14,17,14C17,14,15,14,15,14C15,14,15,14,15,14ZM3,22C3,22,21,22,21,22C21,22,21,20,21,20C21,20,3,20,3,20C3,20,3,22,3,22C3,22,3,22,3,22ZM3,11C3,11,21,11,21,11C21,11,21,9,21,9C21,9,3,9,3,9C3,9,3,11,3,11C3,11,3,11,3,11ZM3.406138,7.9138098C3.406138,7.9138098,12.4061403,3.91381198,12.4061403,3.91381198C12.4061403,3.91381198,11.5938597,2.08618802,11.5938597,2.08618802C11.5938597,2.08618802,2.593862,6.08619,2.593862,6.08619C2.593862,6.08619,3.406138,7.9138098,3.406138,7.9138098C3.406138,7.9138098,3.406138,7.9138098,3.406138,7.9138098ZM11.5938597,3.91381198C11.5938597,3.91381198,20.593901,7.9138098,20.593901,7.9138098C20.593901,7.9138098,21.406099,6.08619,21.406099,6.08619C21.406099,6.08619,12.4061403,2.08618802,12.4061403,2.08618802C12.4061403,2.08618802,11.5938597,3.91381198,11.5938597,3.91381198C11.5938597,3.91381198,11.5938597,3.91381198,11.5938597,3.91381198ZM21,6C21,6,3,6,3,6C3,6,3,8,3,8C3,8,21,8,21,8C21,8,21,6,21,6C21,6,21,6,21,6ZM4,11C4,11,20,11,20,11C20,11,20,9,20,9C20,9,4,9,4,9C4,9,4,11,4,11C4,11,4,11,4,11ZM19,10C19,10,19,21,19,21C19,21,21,21,21,21C21,21,21,10,21,10C21,10,19,10,19,10C19,10,19,10,19,10ZM20,20C20,20,4,20,4,20C4,20,4,22,4,22C4,22,20,22,20,22C20,22,20,20,20,20C20,20,20,20,20,20ZM5,21C5,21,5,10,5,10C5,10,3,10,3,10C3,10,3,21,3,21C3,21,5,21,5,21C5,21,5,21,5,21Z" fill="#0A0A28" fill-opacity="1"/></g></svg>