<svg xmlns="http://www.w3.org/2000/svg" xmlns:xlink="http://www.w3.org/1999/xlink" fill="none" version="1.1" width="24" height="24" viewBox="0 0 24 24"><defs><clipPath id="master_svg0_3_2131"><rect x="0" y="0" width="24" height="24" rx="0"/></clipPath></defs><g clip-path="url(#master_svg0_3_2131)"><path d="M13,10C13,10,12,10,12,10C12,10.5522799,12.44771,11,13,11C13,11,13,10,13,10C13,10,13,10,13,10ZM13,3C13,3,14,3,14,3C14,2.577328,13.7342596,2.20030099,13.3361902,2.05820501C12.9381199,1.91611,12.4936895,2.03963202,12.2260399,2.36676198C12.2260399,2.36676198,13,3,13,3C13,3,13,3,13,3ZM4,14C4,14,3.22604299,13.3668,3.22604299,13.3668C2.98137,13.6658,2.9308701,14.0791,3.09632999,14.4282C3.2617939700000003,14.7774,3.61361,15,4,15C4,15,4,14,4,14C4,14,4,14,4,14ZM11,14C11,14,12,14,12,14C12,13.4477,11.5522799,13,11,13C11,13,11,14,11,14C11,14,11,14,11,14ZM11,21C11,21,10,21,10,21C10,21.422701,10.2657399,21.7997,10.6638098,21.941799C11.0618801,22.0839,11.50631,21.9604,11.7739601,21.6332C11.7739601,21.6332,11,21,11,21C11,21,11,21,11,21ZM20,10C20,10,20.774,10.6332402,20.774,10.6332402C21.0186,10.3341899,21.069099,9.9209399,20.9037,9.5717702C20.738199,9.2226,20.3864,9,20,9C20,9,20,10,20,10C20,10,20,10,20,10ZM14,10C14,10,14,3,14,3C14,3,12,3,12,3C12,3,12,10,12,10C12,10,14,10,14,10C14,10,14,10,14,10ZM12.2260399,2.36676198C12.2260399,2.36676198,3.22604299,13.3668,3.22604299,13.3668C3.22604299,13.3668,4.77395701,14.6332,4.77395701,14.6332C4.77395701,14.6332,13.7739601,3.63323802,13.7739601,3.63323802C13.7739601,3.63323802,12.2260399,2.36676198,12.2260399,2.36676198C12.2260399,2.36676198,12.2260399,2.36676198,12.2260399,2.36676198ZM4,15C4,15,11,15,11,15C11,15,11,13,11,13C11,13,4,13,4,13C4,13,4,15,4,15C4,15,4,15,4,15ZM10,14C10,14,10,21,10,21C10,21,12,21,12,21C12,21,12,14,12,14C12,14,10,14,10,14C10,14,10,14,10,14ZM11.7739601,21.6332C11.7739601,21.6332,20.774,10.6332402,20.774,10.6332402C20.774,10.6332402,19.226,9.3667598,19.226,9.3667598C19.226,9.3667598,10.2260399,20.3668,10.2260399,20.3668C10.2260399,20.3668,11.7739601,21.6332,11.7739601,21.6332C11.7739601,21.6332,11.7739601,21.6332,11.7739601,21.6332ZM20,9C20,9,13,9,13,9C13,9,13,11,13,11C13,11,20,11,20,11C20,11,20,9,20,9C20,9,20,9,20,9Z" fill="#0A0A28" fill-opacity="1"/></g></svg>