<svg xmlns="http://www.w3.org/2000/svg" xmlns:xlink="http://www.w3.org/1999/xlink" fill="none" version="1.1" width="24" height="24" viewBox="0 0 24 24"><defs><clipPath id="master_svg0_3_1461"><rect x="0" y="0" width="24" height="24" rx="0"/></clipPath></defs><g clip-path="url(#master_svg0_3_1461)"><path d="M13.5600281046875,1.2552199030625C13.8036283046875,1.3318300740625,14.0164483046875,1.4841568740625,14.1675153046875,1.6900468740624999C14.3185833046875,1.8959357140625,14.4000393046875,2.1446512940625,14.4000283046875,2.4000197640625C14.4000283046875,2.4000197640625,14.4000283046875,8.4000258640625,14.4000283046875,8.4000258640625C14.4000283046875,8.4000258640625,19.199967304687497,8.4000258640625,19.199967304687497,8.4000258640625C19.419568304687502,8.3999180640625,19.6348473046875,8.4600376640625,19.8225293046875,8.5738096640625C20.0103283046875,8.6875815640625,20.1632083046875,8.8506736640625,20.2646083046875,9.0453138640625C20.3661293046875,9.2399539640625,20.4122083046875,9.4587020640625,20.3980483046875,9.6777381640625C20.3837683046875,9.8967866640625,20.3098473046875,10.1077222640625,20.1839673046875,10.2876262640625C20.1839673046875,10.2876262640625,11.7840157046875,22.2875666640625,11.7840157046875,22.2875666640625C11.6378317046875,22.4970876640625,11.4286237046875,22.6544076640625,11.1868238046875,22.7367266640625C10.9450359046875,22.8190456640625,10.6832919046875,22.8220466640625,10.4396558046875,22.7453666640625C10.1960196046875,22.6686856640625,9.9832234046875,22.5162846640625,9.8322158046875,22.3102456640625C9.6811957046875,22.1042056640625,9.5998597046875,21.8554456640625,9.6000156046875,21.5999656640625C9.6000156046875,21.5999656640625,9.6000156046875,15.5999656640625,9.6000156046875,15.5999656640625C9.6000156046875,15.5999656640625,4.8000274046874996,15.5999656640625,4.8000274046874996,15.5999656640625C4.5805197346875,15.6000866640625,4.3651953346875,15.5399656640625,4.1774829046875,15.4262056640625C3.9897693346875,15.3124456640625,3.8368593046875,15.1493666640625,3.7353933146875,14.9547266640625C3.6339263466875,14.7600866640625,3.5877908926875,14.5413256640625,3.6020071007875,14.3223256640625C3.6162233446875,14.1032056640625,3.6902466716875,13.8923656640625,3.8160213046875002,13.7123656640625C3.8160213046875002,13.7123656640625,12.2160273046875,1.7124196840625001,12.2160273046875,1.7124196840625001C12.3624401046875,1.5033640840625,12.5716839046875,1.3464352640625,12.8133879046875,1.2644312310624999C13.0550795046875,1.1824276630625,13.3166199046875,1.1796213440625,13.5600281046875,1.2564199080625C13.5600281046875,1.2564199080625,13.5600281046875,1.2552199030625,13.5600281046875,1.2552199030625C13.5600281046875,1.2552199030625,13.5600281046875,1.2552199030625,13.5600281046875,1.2552199030625Z" fill-rule="evenodd" fill="#0A0A28" fill-opacity="1"/></g></svg>