<svg xmlns="http://www.w3.org/2000/svg" xmlns:xlink="http://www.w3.org/1999/xlink" fill="none" version="1.1" width="24" height="24" viewBox="0 0 24 24"><defs><clipPath id="master_svg0_3_2362"><rect x="0" y="0" width="24" height="24" rx="0"/></clipPath></defs><g clip-path="url(#master_svg0_3_2362)"><path d="M9.6630001,16C9.1107202,16,8.6630001,16.447699999999998,8.6630001,17C8.6630001,17.552300000000002,9.1107202,18,9.6630001,18C9.6630001,18,9.6630001,16,9.6630001,16C9.6630001,16,9.6630001,16,9.6630001,16ZM14.336,18C14.8883,18,15.336,17.552300000000002,15.336,17C15.336,16.447699999999998,14.8883,16,14.336,16C14.336,16,14.336,18,14.336,18C14.336,18,14.336,18,14.336,18ZM13,3C13,2.4477149799999998,12.55229,2,12,2C11.44771,2,11,2.4477149799999998,11,3C11,3,13,3,13,3C13,3,13,3,13,3ZM11,4C11,4.5522799,11.44771,5,12,5C12.55229,5,13,4.5522799,13,4C13,4,11,4,11,4C11,4,11,4,11,4ZM19.0711,6.3431101000000005C19.461599,5.95258,19.461599,5.3194201,19.0711,4.92889C18.6806,4.5383700000000005,18.0474,4.5383700000000005,17.6569,4.92889C17.6569,4.92889,19.0711,6.3431101000000005,19.0711,6.3431101000000005C19.0711,6.3431101000000005,19.0711,6.3431101000000005,19.0711,6.3431101000000005ZM16.9499,5.63589C16.5594,6.0264201,16.5594,6.65958,16.9499,7.0501099C17.340400000000002,7.44063,17.973599999999998,7.44063,18.3641,7.0501099C18.3641,7.0501099,16.9499,5.63589,16.9499,5.63589C16.9499,5.63589,16.9499,5.63589,16.9499,5.63589ZM21,13C21.552299,13,22,12.55229,22,12C22,11.44771,21.552299,11,21,11C21,11,21,13,21,13C21,13,21,13,21,13ZM20,11C19.447701,11,19,11.44771,19,12C19,12.55229,19.447701,13,20,13C20,13,20,11,20,11C20,11,20,11,20,11ZM4,13C4.5522799,13,5,12.55229,5,12C5,11.44771,4.5522799,11,4,11C4,11,4,13,4,13C4,13,4,13,4,13ZM3,11C2.4477149799999998,11,2,11.44771,2,12C2,12.55229,2.4477149799999998,13,3,13C3,13,3,11,3,11C3,11,3,11,3,11ZM5.63589,7.0501099C6.0264201,7.44063,6.65958,7.44063,7.0501099,7.0501099C7.44063,6.65958,7.44063,6.0264201,7.0501099,5.63589C7.0501099,5.63589,5.63589,7.0501099,5.63589,7.0501099C5.63589,7.0501099,5.63589,7.0501099,5.63589,7.0501099ZM6.3431101000000005,4.92889C5.95258,4.5383700000000005,5.3194201,4.5383700000000005,4.92889,4.92889C4.5383700000000005,5.3194201,4.5383700000000005,5.95258,4.92889,6.3431101000000005C4.92889,6.3431101000000005,6.3431101000000005,4.92889,6.3431101000000005,4.92889C6.3431101000000005,4.92889,6.3431101000000005,4.92889,6.3431101000000005,4.92889ZM8.464000200000001,15.536C8.464000200000001,15.536,7.7568002,16.243000000000002,7.7568002,16.243000000000002C7.7568002,16.243000000000002,7.7575402,16.2438,7.7575402,16.2438C7.7575402,16.2438,8.464000200000001,15.536,8.464000200000001,15.536C8.464000200000001,15.536,8.464000200000001,15.536,8.464000200000001,15.536ZM15.536,15.536C15.536,15.536,16.2425,16.2438,16.2425,16.2438C16.2425,16.2438,16.2432,16.243000000000002,16.2432,16.243000000000002C16.2432,16.243000000000002,15.536,15.536,15.536,15.536C15.536,15.536,15.536,15.536,15.536,15.536ZM14.988,16.083C14.988,16.083,14.2815,15.3752,14.2815,15.3752C14.2815,15.3752,14.2808,15.376,14.2808,15.376C14.2808,15.376,14.988,16.083,14.988,16.083C14.988,16.083,14.988,16.083,14.988,16.083ZM14,18.469C14,18.469,15,18.469,15,18.469C15,18.469,15,18.468899999999998,15,18.468899999999998C15,18.468899999999998,14,18.469,14,18.469C14,18.469,14,18.469,14,18.469ZM9.0120001,16.083C9.0120001,16.083,9.71911,15.3759,9.71911,15.3759C9.71911,15.3759,9.7184601,15.3752,9.7184601,15.3752C9.7184601,15.3752,9.0120001,16.083,9.0120001,16.083C9.0120001,16.083,9.0120001,16.083,9.0120001,16.083ZM9.6630001,18C9.6630001,18,14.336,18,14.336,18C14.336,18,14.336,16,14.336,16C14.336,16,9.6630001,16,9.6630001,16C9.6630001,16,9.6630001,18,9.6630001,18C9.6630001,18,9.6630001,18,9.6630001,18ZM11,3C11,3,11,4,11,4C11,4,13,4,13,4C13,4,13,3,13,3C13,3,11,3,11,3C11,3,11,3,11,3ZM17.6569,4.92889C17.6569,4.92889,16.9499,5.63589,16.9499,5.63589C16.9499,5.63589,18.3641,7.0501099,18.3641,7.0501099C18.3641,7.0501099,19.0711,6.3431101000000005,19.0711,6.3431101000000005C19.0711,6.3431101000000005,17.6569,4.92889,17.6569,4.92889C17.6569,4.92889,17.6569,4.92889,17.6569,4.92889ZM21,11C21,11,20,11,20,11C20,11,20,13,20,13C20,13,21,13,21,13C21,13,21,11,21,11C21,11,21,11,21,11ZM4,11C4,11,3,11,3,11C3,11,3,13,3,13C3,13,4,13,4,13C4,13,4,11,4,11C4,11,4,11,4,11ZM7.0501099,5.63589C7.0501099,5.63589,6.3431101000000005,4.92889,6.3431101000000005,4.92889C6.3431101000000005,4.92889,4.92889,6.3431101000000005,4.92889,6.3431101000000005C4.92889,6.3431101000000005,5.63589,7.0501099,5.63589,7.0501099C5.63589,7.0501099,7.0501099,5.63589,7.0501099,5.63589C7.0501099,5.63589,7.0501099,5.63589,7.0501099,5.63589ZM9.1711998,14.829C8.611899900000001,14.2695,8.23104,13.5568,8.0767798,12.7809095C8.0767798,12.7809095,6.11517,13.1709,6.11517,13.1709C6.34656,14.3347,6.91784,15.4038,7.7568002,16.243000000000002C7.7568002,16.243000000000002,9.1711998,14.829,9.1711998,14.829C9.1711998,14.829,9.1711998,14.829,9.1711998,14.829ZM8.0767798,12.7809095C7.9225302,12.0050097,8.0018001,11.2007999,8.3045802,10.4699502C8.3045802,10.4699502,6.4568701,9.7044702,6.4568701,9.7044702C6.0027001,10.8007302,5.883789999999999,12.0070496,6.11517,13.1709C6.11517,13.1709,8.0767798,12.7809095,8.0767798,12.7809095C8.0767798,12.7809095,8.0767798,12.7809095,8.0767798,12.7809095ZM8.3045802,10.4699502C8.607359899999999,9.73911,9.120059999999999,9.114460000000001,9.7778301,8.6749802C9.7778301,8.6749802,8.6667399,7.0120001,8.6667399,7.0120001C7.6800799,7.6712198,6.911050100000001,8.608200100000001,6.4568701,9.7044702C6.4568701,9.7044702,8.3045802,10.4699502,8.3045802,10.4699502C8.3045802,10.4699502,8.3045802,10.4699502,8.3045802,10.4699502ZM9.7778301,8.6749802C10.4355998,8.2354999,11.2089195,8.0009298,12,8.0009298C12,8.0009298,12,6.0009301,12,6.0009301C10.8133798,6.0009301,9.6533999,6.3527901,8.6667399,7.0120001C8.6667399,7.0120001,9.7778301,8.6749802,9.7778301,8.6749802C9.7778301,8.6749802,9.7778301,8.6749802,9.7778301,8.6749802ZM12,8.0009298C12.7910805,8.0009298,13.5644,8.2354999,14.2222,8.6749802C14.2222,8.6749802,15.3333,7.0120001,15.3333,7.0120001C14.3466,6.3527901,13.1866,6.0009301,12,6.0009301C12,6.0009301,12,8.0009298,12,8.0009298C12,8.0009298,12,8.0009298,12,8.0009298ZM14.2222,8.6749802C14.8799,9.114460000000001,15.3926,9.73911,15.6954,10.4699502C15.6954,10.4699502,17.543100000000003,9.7044702,17.543100000000003,9.7044702C17.089,8.608200100000001,16.3199,7.6712198,15.3333,7.0120001C15.3333,7.0120001,14.2222,8.6749802,14.2222,8.6749802C14.2222,8.6749802,14.2222,8.6749802,14.2222,8.6749802ZM15.6954,10.4699502C15.9982,11.2007999,16.0775,12.0050097,15.9232,12.7809095C15.9232,12.7809095,17.8848,13.1709,17.8848,13.1709C18.1162,12.0070496,17.9973,10.8007302,17.543100000000003,9.7044702C17.543100000000003,9.7044702,15.6954,10.4699502,15.6954,10.4699502C15.6954,10.4699502,15.6954,10.4699502,15.6954,10.4699502ZM15.9232,12.7809095C15.769,13.5568,15.3881,14.2695,14.8288,14.829C14.8288,14.829,16.2432,16.243000000000002,16.2432,16.243000000000002C17.0822,15.4038,17.653399999999998,14.3347,17.8848,13.1709C17.8848,13.1709,15.9232,12.7809095,15.9232,12.7809095C15.9232,12.7809095,15.9232,12.7809095,15.9232,12.7809095ZM14.8295,14.8282C14.8295,14.8282,14.2815,15.3752,14.2815,15.3752C14.2815,15.3752,15.6945,16.7908,15.6945,16.7908C15.6945,16.7908,16.2425,16.2438,16.2425,16.2438C16.2425,16.2438,14.8295,14.8282,14.8295,14.8282C14.8295,14.8282,14.8295,14.8282,14.8295,14.8282ZM14.2808,15.376C13.8747,15.7822,13.5525,16.264400000000002,13.3328,16.7952C13.3328,16.7952,15.1806,17.560299999999998,15.1806,17.560299999999998C15.2999,17.2723,15.4747,17.0105,15.6952,16.79C15.6952,16.79,14.2808,15.376,14.2808,15.376C14.2808,15.376,14.2808,15.376,14.2808,15.376ZM13.3328,16.7952C13.113,17.3259,12.9999199,17.8947,13,18.469099999999997C13,18.469099999999997,15,18.468899999999998,15,18.468899999999998C15,18.1571,15.0613,17.848399999999998,15.1806,17.560299999999998C15.1806,17.560299999999998,13.3328,16.7952,13.3328,16.7952C13.3328,16.7952,13.3328,16.7952,13.3328,16.7952ZM13,18.469C13,18.469,13,19,13,19C13,19,15,19,15,19C15,19,15,18.469,15,18.469C15,18.469,13,18.469,13,18.469C13,18.469,13,18.469,13,18.469ZM13,19C13,19.2652,12.89464,19.5196,12.7071104,19.7071C12.7071104,19.7071,14.1213,21.1213,14.1213,21.1213C14.6839,20.558701,15,19.7957,15,19C15,19,13,19,13,19C13,19,13,19,13,19ZM12.7071104,19.7071C12.5195704,19.8946,12.2652197,20,12,20C12,20,12,22,12,22C12.7956495,22,13.5587,21.683901,14.1213,21.1213C14.1213,21.1213,12.7071104,19.7071,12.7071104,19.7071C12.7071104,19.7071,12.7071104,19.7071,12.7071104,19.7071ZM12,20C11.7347803,20,11.4804296,19.8946,11.2928896,19.7071C11.2928896,19.7071,9.8786802,21.1213,9.8786802,21.1213C10.441289900000001,21.683901,11.2043505,22,12,22C12,22,12,20,12,20C12,20,12,20,12,20ZM11.2928896,19.7071C11.10536,19.5196,11,19.2652,11,19C11,19,9,19,9,19C9,19.7957,9.316070100000001,20.558701,9.8786802,21.1213C9.8786802,21.1213,11.2928896,19.7071,11.2928896,19.7071C11.2928896,19.7071,11.2928896,19.7071,11.2928896,19.7071ZM11,19C11,19,11,18.469,11,18.469C11,18.469,9,18.469,9,18.469C9,18.469,9,19,9,19C9,19,11,19,11,19C11,19,11,19,11,19ZM11,18.469C11,17.308799999999998,10.5386801,16.1955,9.71911,15.3759C9.71911,15.3759,8.3048902,16.790100000000002,8.3048902,16.790100000000002C8.74932,17.2345,9,17.839199999999998,9,18.469C9,18.469,11,18.469,11,18.469C11,18.469,11,18.469,11,18.469ZM9.7184601,15.3752C9.7184601,15.3752,9.1704602,14.8282,9.1704602,14.8282C9.1704602,14.8282,7.7575402,16.2438,7.7575402,16.2438C7.7575402,16.2438,8.3055401,16.7908,8.3055401,16.7908C8.3055401,16.7908,9.7184601,15.3752,9.7184601,15.3752C9.7184601,15.3752,9.7184601,15.3752,9.7184601,15.3752Z" fill="#0A0A28" fill-opacity="1"/></g></svg>