<svg xmlns="http://www.w3.org/2000/svg" xmlns:xlink="http://www.w3.org/1999/xlink" fill="none" version="1.1" width="24" height="24" viewBox="0 0 24 24"><defs><clipPath id="master_svg0_3_1757"><rect x="0" y="0" width="24" height="24" rx="0"/></clipPath></defs><g clip-path="url(#master_svg0_3_1757)"><path d="M13.199993896484376,3.6000244140625C13.199993896484376,3.2817652840625,13.073562896484376,2.9765404440625,12.848526896484374,2.7514960140625C12.623478896484375,2.5264528240625,12.318258296484375,2.400024414062501,11.999994296484376,2.4000244140625C11.681730296484375,2.400024414062501,11.376510596484374,2.5264528240625,11.151462596484375,2.7514960140625C10.926425896484375,2.9765404440625,10.799994496484375,3.2817652840625,10.799994496484375,3.6000244140625C10.799994496484375,3.6000244140625,10.799994496484375,4.8000245140625,10.799994496484375,4.8000245140625C10.799994496484375,5.1182885140625,10.926425896484375,5.4235086140625,11.151462596484375,5.6485565140625C11.376510596484374,5.8735926140625,11.681730296484375,6.0000245140625,11.999994296484376,6.0000245140625C12.318258296484375,6.0000245140625,12.623478896484375,5.8735926140625,12.848526896484374,5.6485565140625C13.073562896484376,5.4235086140625,13.199993896484376,5.1182885140625,13.199993896484376,4.8000245140625C13.199993896484376,4.8000245140625,13.199993896484376,3.6000244140625,13.199993896484376,3.6000244140625C13.199993896484376,3.6000244140625,13.199993896484376,3.6000244140625,13.199993896484376,3.6000244140625ZM18.788394896484377,6.9084244140625C19.007033896484376,6.6821046140625,19.127994896484374,6.3789844140625,19.125234896484375,6.064344614062501C19.122474896484373,5.7497046140625,18.996234896484374,5.4487326140625,18.773753896484376,5.2262406140625C18.551274896484376,5.0037484140625,18.250314896484376,4.8775444140625,17.935673896484374,4.8748205140625C17.621034896484375,4.8720846140625,17.317913896484377,4.9930324140625,17.091594896484374,5.2116244140625C17.091594896484374,5.2116244140625,16.243194896484376,6.0600245140624995,16.243194896484376,6.0600245140624995C16.024553896484377,6.2863445140625,15.903594896484375,6.5894647140625,15.906353896484376,6.9041047140625C15.909113896484374,7.2187447140625,16.035353896484374,7.5197162140625,16.257834896484376,7.7422085140625C16.480313896484375,7.9647007140625,16.781273896484375,8.0909047140625,17.095914896484373,8.0936284140625C17.410553896484373,8.0963650140625,17.713674896484378,7.9754166140625,17.939993896484374,7.7568250140625C17.939993896484374,7.7568250140625,18.788394896484377,6.9084244140625,18.788394896484377,6.9084244140625C18.788394896484377,6.9084244140625,18.788394896484377,6.9084244140625,18.788394896484377,6.9084244140625ZM21.599994896484375,12.0000248140625C21.599994896484375,12.3182888140625,21.473514896484375,12.6235094140625,21.248513896484376,12.8485574140625C21.023513896484374,13.0735934140625,20.718234896484375,13.2000244140625,20.399993896484375,13.2000244140625C20.399993896484375,13.2000244140625,19.199994896484377,13.2000244140625,19.199994896484377,13.2000244140625C18.881755896484375,13.2000244140625,18.576474896484374,13.0735934140625,18.351474896484376,12.8485574140625C18.126473896484377,12.6235094140625,17.999993896484376,12.3182888140625,17.999993896484376,12.0000248140625C17.999993896484376,11.6817608140625,18.126473896484377,11.3765411140625,18.351474896484376,11.1514931140625C18.576474896484374,10.9264564140625,18.881755896484375,10.8000250140625,19.199994896484377,10.8000250140625C19.199994896484377,10.8000250140625,20.399993896484375,10.8000250140625,20.399993896484375,10.8000250140625C20.718234896484375,10.8000250140625,21.023513896484374,10.9264564140625,21.248513896484376,11.1514931140625C21.473514896484375,11.3765411140625,21.599994896484375,11.6817608140625,21.599994896484375,12.0000248140625C21.599994896484375,12.0000248140625,21.599994896484375,12.0000248140625,21.599994896484375,12.0000248140625ZM6.0599939964843745,7.7568250140625C6.170694096484375,7.8714371140625,6.303101996484375,7.9628529140625,6.449513896484375,8.025744414062501C6.595913896484375,8.0886364140625,6.753377896484375,8.121744114062501,6.912713996484375,8.123124614062501C7.072050096484375,8.1245046140625,7.230066296484375,8.0941448140625,7.377534396484375,8.0338087140625C7.525014396484375,7.9734726140625,7.658994196484375,7.8843727140625,7.771674196484375,7.7717047140625C7.884342196484375,7.6590247140625,7.973442096484375,7.5250449140625,8.033778196484375,7.3775649140625C8.094114296484374,7.2300968140625,8.124474096484375,7.0720806140625,8.123094096484376,6.9127445140625C8.121713596484376,6.7534084140625,8.088605896484374,6.5959444140625,8.025713896484376,6.4495444140625C7.962822396484375,6.3031325140625,7.871406596484375,6.1707246140625,7.756794496484375,6.0600245140624995C7.756794496484375,6.0600245140624995,6.908393896484375,5.2116244140625,6.908393896484375,5.2116244140625C6.682074096484375,4.9930324140625,6.378953896484375,4.8720846140625,6.064314096484376,4.8748205140625C5.749674096484375,4.8775444140625,5.448702096484375,5.0037484140625,5.226210096484375,5.2262406140625C5.003717896484375,5.4487326140625,4.877513896484375,5.7497046140625,4.874789996484375,6.064344614062501C4.872054096484375,6.3789844140625,4.993001896484375,6.6821046140625,5.211593896484375,6.9084244140625C5.211593896484375,6.9084244140625,6.0599939964843745,7.7568250140625,6.0599939964843745,7.7568250140625C6.0599939964843745,7.7568250140625,6.0599939964843745,7.7568250140625,6.0599939964843745,7.7568250140625C6.0599939964843745,7.7568250140625,6.0599939964843745,7.7568250140625,6.0599939964843745,7.7568250140625ZM5.999993996484375,12.0000248140625C5.999993996484375,12.3182888140625,5.873562096484375,12.6235094140625,5.648525996484375,12.8485574140625C5.423478096484375,13.0735934140625,5.118257996484375,13.2000244140625,4.799993996484375,13.2000244140625C4.799993996484375,13.2000244140625,3.599993896484375,13.2000244140625,3.599993896484375,13.2000244140625C3.281734766484375,13.2000244140625,2.976509926484375,13.0735934140625,2.751465496484375,12.8485574140625C2.526422306484375,12.6235094140625,2.399993896484376,12.3182888140625,2.399993896484375,12.0000248140625C2.3999938964843754,11.6817608140625,2.526422306484375,11.3765411140625,2.751465496484375,11.1514931140625C2.976509926484375,10.9264564140625,3.281734766484375,10.8000250140625,3.599993896484375,10.8000250140625C3.599993896484375,10.8000250140625,4.799993996484375,10.8000250140625,4.799993996484375,10.8000250140625C5.118257996484375,10.8000250140625,5.423478096484375,10.9264564140625,5.648525996484375,11.1514931140625C5.873562096484375,11.3765411140625,5.999993996484375,11.6817608140625,5.999993996484375,12.0000248140625C5.999993996484375,12.0000248140625,5.999993996484375,12.0000248140625,5.999993996484375,12.0000248140625ZM9.599994196484374,19.2000254140625C9.599994196484374,19.2000254140625,9.599994196484374,18.0000244140625,9.599994196484374,18.0000244140625C9.599994196484374,18.0000244140625,14.399993896484375,18.0000244140625,14.399993896484375,18.0000244140625C14.399993896484375,18.0000244140625,14.399993896484375,19.2000254140625,14.399993896484375,19.2000254140625C14.399993896484375,19.8365054140625,14.147142896484375,20.4469454140625,13.697045896484376,20.8970644140625C13.246961896484375,21.3471854140625,12.636509896484375,21.6000254140625,11.999994296484376,21.6000254140625C11.363478696484375,21.6000254140625,10.753025996484375,21.3471854140625,10.302942296484375,20.8970644140625C9.852846096484374,20.4469454140625,9.599994196484374,19.8365054140625,9.599994196484374,19.2000254140625C9.599994196484374,19.2000254140625,9.599994196484374,19.2000254140625,9.599994196484374,19.2000254140625C9.599994196484374,19.2000254140625,9.599994196484374,19.2000254140625,9.599994196484374,19.2000254140625ZM14.399993896484375,16.8000254140625C14.417994896484375,16.392025414062502,14.649593896484374,16.024825414062498,14.972394896484374,15.7692254140625C15.755633896484374,15.1515844140625,16.326953896484376,14.3051894140625,16.606914896484376,13.3478174140625C16.886993896484377,12.3904447140625,16.861794896484376,11.3696165140625,16.534914896484374,10.4272213140625C16.208033896484373,9.4848246140625,15.595674896484375,8.6676726140625,14.782914896484375,8.0893683140625C13.970178896484375,7.5110526140625,12.997481896484375,7.2002883140625,11.999994296484376,7.2002883140625C11.002506296484375,7.2002883140625,10.029810396484375,7.5110526140625,9.217074396484374,8.0893683140625C8.404350296484374,8.6676726140625,7.791977896484375,9.4848246140625,7.465085996484375,10.4272213140625C7.138182196484375,11.3696165140625,7.112994196484375,12.3904447140625,7.393026396484375,13.3478174140625C7.673046096484375,14.3051894140625,8.244378096484375,15.1515844140625,9.027594096484375,15.7692254140625C9.351594496484374,16.024825414062498,9.581994496484375,16.392025414062502,9.598794496484375,16.8000254140625C9.598794496484375,16.8000254140625,14.401194896484375,16.8000254140625,14.401194896484375,16.8000254140625C14.401194896484375,16.8000254140625,14.399993896484375,16.8000254140625,14.399993896484375,16.8000254140625C14.399993896484375,16.8000254140625,14.399993896484375,16.8000254140625,14.399993896484375,16.8000254140625Z" fill="#0A0A28" fill-opacity="1"/></g></svg>