<svg xmlns="http://www.w3.org/2000/svg" xmlns:xlink="http://www.w3.org/1999/xlink" fill="none" version="1.1" width="24" height="24" viewBox="0 0 24 24"><defs><clipPath id="master_svg0_3_2273"><rect x="0" y="0" width="24" height="24" rx="0"/></clipPath></defs><g clip-path="url(#master_svg0_3_2273)"><path d="M13.121047387313842,10.879212612686157C13.511547387313843,11.269682212686158,14.144747387313842,11.269583012686157,14.535247387313843,10.879002812686156C14.925647387313843,10.488412612686158,14.925547387313843,9.855252512686157,14.535047387313842,9.464782512686156C14.535047387313842,9.464782512686156,13.121047387313842,10.879212612686157,13.121047387313842,10.879212612686157C13.121047387313842,10.879212612686157,13.121047387313842,10.879212612686157,13.121047387313842,10.879212612686157ZM8.171997287313843,10.172002512686158C8.171997287313843,10.172002512686158,7.464997487313843,9.464782512686156,7.464997487313843,9.464782512686156C7.464997487313843,9.464782512686156,7.464897387313843,9.464892612686157,7.464897387313843,9.464892612686157C7.464897387313843,9.464892612686157,8.171997287313843,10.172002512686158,8.171997287313843,10.172002512686158C8.171997287313843,10.172002512686158,8.171997287313843,10.172002512686158,8.171997287313843,10.172002512686158ZM4.1719973873138425,14.171952612686157C4.1719973873138425,14.171952612686157,4.8667074873138425,14.891252612686158,4.8667074873138425,14.891252612686158C4.8708773873138425,14.887252612686158,4.875007387313843,14.883252612686157,4.879107387313843,14.879152612686157C4.879107387313843,14.879152612686157,4.1719973873138425,14.171952612686157,4.1719973873138425,14.171952612686157C4.1719973873138425,14.171952612686157,4.1719973873138425,14.171952612686157,4.1719973873138425,14.171952612686157ZM9.827997487313842,19.827951612686157C9.827997487313842,19.827951612686157,9.121217487313842,19.120552612686158,9.121217487313842,19.120552612686158C9.117007487313842,19.12475261268616,9.112837587313843,19.129053612686157,9.108707187313843,19.133253612686158C9.108707187313843,19.133253612686158,9.827997487313842,19.827951612686157,9.827997487313842,19.827951612686157C9.827997487313842,19.827951612686157,9.827997487313842,19.827951612686157,9.827997487313842,19.827951612686157ZM11.636787187313843,19.434452612686158C12.027487487313843,19.04405261268616,12.027777387313844,18.41095261268616,11.637427087313842,18.020252612686157C11.247077687313842,17.629552612686155,10.613917587313843,17.62925261268616,10.223217287313844,18.019552612686155C10.223217287313844,18.019552612686155,11.636787187313843,19.434452612686158,11.636787187313843,19.434452612686158C11.636787187313843,19.434452612686158,11.636787187313843,19.434452612686158,11.636787187313843,19.434452612686158ZM10.878997587313844,13.120752612686157C10.488417387313842,12.730323112686158,9.855247287313842,12.730412712686157,9.464787287313843,13.120952612686157C9.074317187313842,13.511552612686158,9.074417387313844,14.144752612686156,9.464997487313843,14.535252612686158C9.464997487313843,14.535252612686158,10.878997587313844,13.120752612686157,10.878997587313844,13.120752612686157C10.878997587313844,13.120752612686157,10.878997587313844,13.120752612686157,10.878997587313844,13.120752612686157ZM15.828047387313843,13.827952612686158C15.828047387313843,13.827952612686158,16.535047387313842,14.535252612686158,16.535047387313842,14.535252612686158C16.535047387313842,14.535252612686158,16.53514738731384,14.535152612686158,16.53514738731384,14.535152612686158C16.53514738731384,14.535152612686158,15.828047387313843,13.827952612686158,15.828047387313843,13.827952612686158C15.828047387313843,13.827952612686158,15.828047387313843,13.827952612686158,15.828047387313843,13.827952612686158ZM19.828046387313844,9.828002712686157C19.828046387313844,9.828002712686157,20.535146387313844,10.535102612686156,20.535146387313844,10.535102612686156C20.539247387313843,10.531012812686157,20.543247387313844,10.526882412686156,20.547246387313844,10.522712512686157C20.547246387313844,10.522712512686157,19.828046387313844,9.828002712686157,19.828046387313844,9.828002712686157C19.828046387313844,9.828002712686157,19.828046387313844,9.828002712686157,19.828046387313844,9.828002712686157ZM14.172047387313842,4.1720025126861575C14.172047387313842,4.1720025126861575,13.477247387313843,3.4527116126861572,13.477247387313843,3.4527116126861572C13.473147387313842,3.456736622686157,13.468947387313843,3.460796622686157,13.464847387313842,3.464892622686157C13.464847387313842,3.464892622686157,14.172047387313842,4.1720025126861575,14.172047387313842,4.1720025126861575C14.172047387313842,4.1720025126861575,14.172047387313842,4.1720025126861575,14.172047387313842,4.1720025126861575ZM12.364897487313844,4.564892612686157C11.974367887313843,4.955412612686157,11.974367887313843,5.588582512686157,12.364897487313844,5.979102612686157C12.755417587313843,6.369632712686157,13.388547387313842,6.369632712686157,13.779147387313843,5.979102612686157C13.779147387313843,5.979102612686157,12.364897487313844,4.564892612686157,12.364897487313844,4.564892612686157C12.364897487313844,4.564892612686157,12.364897487313844,4.564892612686157,12.364897487313844,4.564892612686157ZM14.535047387313842,9.464782512686156C13.597347387313842,8.527432712686156,12.325817787313843,8.000852812686158,10.999997887313842,8.000852812686158C10.999997887313842,8.000852812686158,10.999997887313842,10.000852812686158,10.999997887313842,10.000852812686158C11.795497687313842,10.000852812686158,12.558417087313844,10.316802712686158,13.121047387313842,10.879212612686157C13.121047387313842,10.879212612686157,14.535047387313842,9.464782512686156,14.535047387313842,9.464782512686156C14.535047387313842,9.464782512686156,14.535047387313842,9.464782512686156,14.535047387313842,9.464782512686156ZM10.999997887313842,8.000852812686158C9.674177387313843,8.000852812686158,8.402637287313842,8.527432712686156,7.464997487313843,9.464782512686156C7.464997487313843,9.464782512686156,8.878997587313844,10.879212612686157,8.878997587313844,10.879212612686157C9.441587187313843,10.316802712686158,10.204507587313842,10.000852812686158,10.999997887313842,10.000852812686158C10.999997887313842,10.000852812686158,10.999997887313842,8.000852812686158,10.999997887313842,8.000852812686158C10.999997887313842,8.000852812686158,10.999997887313842,8.000852812686158,10.999997887313842,8.000852812686158ZM7.464897387313843,9.464892612686157C7.464897387313843,9.464892612686157,3.4648933973138427,13.464852612686157,3.4648933973138427,13.464852612686157C3.4648933973138427,13.464852612686157,4.879107387313843,14.879152612686157,4.879107387313843,14.879152612686157C4.879107387313843,14.879152612686157,8.879107187313842,10.879102512686156,8.879107187313842,10.879102512686156C8.879107187313842,10.879102512686156,7.464897387313843,9.464892612686157,7.464897387313843,9.464892612686157C7.464897387313843,9.464892612686157,7.464897387313843,9.464892612686157,7.464897387313843,9.464892612686157ZM3.4772883673138426,13.452752612686158C2.9997372883138427,13.913952612686158,2.6188263873138427,14.465652612686156,2.3567813673138427,15.075652612686158C2.3567813673138427,15.075652612686158,4.194407387313843,15.865052612686156,4.194407387313843,15.865052612686156C4.3516373873138425,15.499052612686157,4.580177387313842,15.168052612686157,4.8667074873138425,14.891252612686158C4.8667074873138425,14.891252612686158,3.4772883673138426,13.452752612686158,3.4772883673138426,13.452752612686158C3.4772883673138426,13.452752612686158,3.4772883673138426,13.452752612686158,3.4772883673138426,13.452752612686158ZM2.3567813673138427,15.075652612686158C2.094736397313843,15.685752612686157,1.9568054073138428,16.341852612686157,1.951036397313843,17.00575261268616C1.951036397313843,17.00575261268616,3.950957387313843,17.023052612686158,3.950957387313843,17.023052612686158C3.9544173873138426,16.62475261268616,4.037177487313842,16.231052612686156,4.194407387313843,15.865052612686156C4.194407387313843,15.865052612686156,2.3567813673138427,15.075652612686158,2.3567813673138427,15.075652612686158C2.3567813673138427,15.075652612686158,2.3567813673138427,15.075652612686158,2.3567813673138427,15.075652612686158ZM1.951036397313843,17.00575261268616C1.9452674873138427,17.669552612686157,2.071775377313843,18.327952612686158,2.3231803773138426,18.942452612686157C2.3231803773138426,18.942452612686157,4.174247387313843,18.185152612686156,4.174247387313843,18.185152612686156C4.023407387313843,17.816452612686156,3.947499397313843,17.421452612686156,3.950957387313843,17.023052612686158C3.950957387313843,17.023052612686158,1.951036397313843,17.00575261268616,1.951036397313843,17.00575261268616C1.951036397313843,17.00575261268616,1.951036397313843,17.00575261268616,1.951036397313843,17.00575261268616ZM2.3231803773138426,18.942452612686157C2.574584397313843,19.556951612686156,2.945849197413843,20.11525161268616,3.4153133973138425,20.584652612686156C3.4153133973138425,20.584652612686156,4.829527387313843,19.17045261268616,4.829527387313843,19.17045261268616C4.547847387313842,18.888752612686158,4.325087387313843,18.553852612686157,4.174247387313843,18.185152612686156C4.174247387313843,18.185152612686156,2.3231803773138426,18.942452612686157,2.3231803773138426,18.942452612686157C2.3231803773138426,18.942452612686157,2.3231803773138426,18.942452612686157,2.3231803773138426,18.942452612686157ZM3.4153133973138425,20.584652612686156C3.8847764173138426,21.05415161268616,4.443037387313843,21.42545361268616,5.057517287313843,21.676853612686156C5.057517287313843,21.676853612686156,5.814847487313843,19.825752612686156,5.814847487313843,19.825752612686156C5.446157487313843,19.674951612686158,5.111207487313843,19.452152612686156,4.829527387313843,19.17045261268616C4.829527387313843,19.17045261268616,3.4153133973138425,20.584652612686156,3.4153133973138425,20.584652612686156C3.4153133973138425,20.584652612686156,3.4153133973138425,20.584652612686156,3.4153133973138425,20.584652612686156ZM5.057517287313843,21.676853612686156C5.671997287313843,21.928253612686156,6.330397387313843,22.05475261268616,6.9942972873138425,22.048952612686158C6.9942972873138425,22.048952612686158,6.976917487313843,20.04905361268616,6.976917487313843,20.04905361268616C6.578577287313843,20.052452612686157,6.183537487313843,19.976553612686157,5.814847487313843,19.825752612686156C5.814847487313843,19.825752612686156,5.057517287313843,21.676853612686156,5.057517287313843,21.676853612686156C5.057517287313843,21.676853612686156,5.057517287313843,21.676853612686156,5.057517287313843,21.676853612686156ZM6.9942972873138425,22.048952612686158C7.6581871873138425,22.043151612686156,8.314287387313843,21.90525261268616,8.924307587313843,21.643253612686156C8.924307587313843,21.643253612686156,8.134927487313842,19.805551612686155,8.134927487313842,19.805551612686155C7.768917287313843,19.962852612686156,7.3752572873138424,20.045553612686156,6.976917487313843,20.04905361268616C6.976917487313843,20.04905361268616,6.9942972873138425,22.048952612686158,6.9942972873138425,22.048952612686158C6.9942972873138425,22.048952612686158,6.9942972873138425,22.048952612686158,6.9942972873138425,22.048952612686158ZM8.924307587313843,21.643253612686156C9.534327287313843,21.38115361268616,10.086057387313843,21.000251612686156,10.547287187313842,20.52275261268616C10.547287187313842,20.52275261268616,9.108707187313843,19.133253612686158,9.108707187313843,19.133253612686158C8.831967587313843,19.419853612686158,8.500937187313843,19.648351612686156,8.134927487313842,19.805551612686155C8.134927487313842,19.805551612686155,8.924307587313843,21.643253612686156,8.924307587313843,21.643253612686156C8.924307587313843,21.643253612686156,8.924307587313843,21.643253612686156,8.924307587313843,21.643253612686156ZM10.534787387313843,20.535452612686157C10.534787387313843,20.535452612686157,11.636787187313843,19.434452612686158,11.636787187313843,19.434452612686158C11.636787187313843,19.434452612686158,10.223217287313844,18.019552612686155,10.223217287313844,18.019552612686155C10.223217287313844,18.019552612686155,9.121217487313842,19.120552612686158,9.121217487313842,19.120552612686158C9.121217487313842,19.120552612686158,10.534787387313843,20.535452612686157,10.534787387313843,20.535452612686157C10.534787387313843,20.535452612686157,10.534787387313843,20.535452612686157,10.534787387313843,20.535452612686157ZM9.464997487313843,14.535252612686158C10.402637287313842,15.472552612686158,11.674176887313843,15.999152612686157,13.000047387313844,15.999152612686157C13.000047387313844,15.999152612686157,13.000047387313844,13.999152612686157,13.000047387313844,13.999152612686157C12.204507587313843,13.999152612686157,11.441587187313843,13.683152612686158,10.878997587313844,13.120752612686157C10.878997587313844,13.120752612686157,9.464997487313843,14.535252612686158,9.464997487313843,14.535252612686158C9.464997487313843,14.535252612686158,9.464997487313843,14.535252612686158,9.464997487313843,14.535252612686158ZM13.000047387313844,15.999152612686157C14.325847387313843,15.999152612686157,15.597347387313842,15.472552612686158,16.535047387313842,14.535252612686158C16.535047387313842,14.535252612686158,15.121047387313842,13.120752612686157,15.121047387313842,13.120752612686157C14.558447387313842,13.683152612686158,13.795447387313843,13.999152612686157,13.000047387313844,13.999152612686157C13.000047387313844,13.999152612686157,13.000047387313844,15.999152612686157,13.000047387313844,15.999152612686157C13.000047387313844,15.999152612686157,13.000047387313844,15.999152612686157,13.000047387313844,15.999152612686157ZM16.53514738731384,14.535152612686158C16.53514738731384,14.535152612686158,20.535146387313844,10.535102612686156,20.535146387313844,10.535102612686156C20.535146387313844,10.535102612686156,19.120847387313844,9.120892812686158,19.120847387313844,9.120892812686158C19.120847387313844,9.120892812686158,15.120847387313843,13.120852612686157,15.120847387313843,13.120852612686157C15.120847387313843,13.120852612686157,16.53514738731384,14.535152612686158,16.53514738731384,14.535152612686158C16.53514738731384,14.535152612686158,16.53514738731384,14.535152612686158,16.53514738731384,14.535152612686158ZM20.547246387313844,10.522712512686157C21.458047387313844,9.579702612686157,21.96204738731384,8.316692612686158,21.950647387313843,7.005702512686158C21.950647387313843,7.005702512686158,19.950748387313844,7.023082512686157,19.950748387313844,7.023082512686157C19.957548387313842,7.809672612686157,19.655147387313843,8.567482712686157,19.108747387313844,9.133292412686156C19.108747387313844,9.133292412686156,20.547246387313844,10.522712512686157,20.547246387313844,10.522712512686157C20.547246387313844,10.522712512686157,20.547246387313844,10.522712512686157,20.547246387313844,10.522712512686157ZM21.950647387313843,7.005702512686158C21.93924738731384,5.694722612686157,21.413448387313842,4.4406626126861575,20.48634738731384,3.513618622686157C20.48634738731384,3.513618622686157,19.072147387313844,4.927832612686157,19.072147387313844,4.927832612686157C19.62834738731384,5.484052612686157,19.943946387313844,6.236492612686157,19.950748387313844,7.023082512686157C19.950748387313844,7.023082512686157,21.950647387313843,7.005702512686158,21.950647387313843,7.005702512686158C21.950647387313843,7.005702512686158,21.950647387313843,7.005702512686158,21.950647387313843,7.005702512686158ZM20.48634738731384,3.513618622686157C19.559347387313842,2.5865786026861572,18.30524738731384,2.0607336126861573,16.99424738731384,2.0493416226861574C16.99424738731384,2.0493416226861574,16.976947387313842,4.0492626126861575,16.976947387313842,4.0492626126861575C17.763547387313842,4.056102612686157,18.515947387313844,4.371612712686157,19.072147387313844,4.927832612686157C19.072147387313844,4.927832612686157,20.48634738731384,3.513618622686157,20.48634738731384,3.513618622686157C20.48634738731384,3.513618622686157,20.48634738731384,3.513618622686157,20.48634738731384,3.513618622686157ZM16.99424738731384,2.0493416226861574C15.683347387313843,2.037952612686157,14.420347387313843,2.5419216126861572,13.477247387313843,3.4527116126861572C13.477247387313843,3.4527116126861572,14.866747387313843,4.891292612686158,14.866747387313843,4.891292612686158C15.432547387313843,4.344812612686157,16.190347387313842,4.042430642686157,16.976947387313842,4.0492626126861575C16.976947387313842,4.0492626126861575,16.99424738731384,2.0493416226861574,16.99424738731384,2.0493416226861574C16.99424738731384,2.0493416226861574,16.99424738731384,2.0493416226861574,16.99424738731384,2.0493416226861574ZM13.464847387313842,3.464892622686157C13.464847387313842,3.464892622686157,12.364897487313844,4.564892612686157,12.364897487313844,4.564892612686157C12.364897487313844,4.564892612686157,13.779147387313843,5.979102612686157,13.779147387313843,5.979102612686157C13.779147387313843,5.979102612686157,14.879147387313843,4.879102612686157,14.879147387313843,4.879102612686157C14.879147387313843,4.879102612686157,13.464847387313842,3.464892622686157,13.464847387313842,3.464892622686157C13.464847387313842,3.464892622686157,13.464847387313842,3.464892622686157,13.464847387313842,3.464892622686157Z" fill="#0A0A28" fill-opacity="1"/></g></svg>