<svg xmlns="http://www.w3.org/2000/svg" xmlns:xlink="http://www.w3.org/1999/xlink" fill="none" version="1.1" width="24" height="24" viewBox="0 0 24 24"><defs><clipPath id="master_svg0_3_1716"><rect x="0" y="0" width="24" height="24" rx="0"/></clipPath></defs><g clip-path="url(#master_svg0_3_1716)"><path d="M15.103304453125,5.503204575C15.324585453125,5.273980375,15.589425453125,5.091136475,15.882225453125,4.965352575C16.175145453124998,4.839580574999999,16.490025453125,4.773364575,16.808625453125,4.770604375C17.127345453125002,4.7678324750000005,17.443425453125002,4.828552475,17.738385453124998,4.949224474999999C18.033344453125,5.0699085749999995,18.301305453125,5.248108375,18.526544453125,5.473456375C18.751905453125,5.698792675,18.930105453125,5.966764675,19.050825453125,6.261712575C19.171545453125,6.556660675,19.232265453125,6.872692575,19.229505453125,7.191364775C19.226625453125,7.510036475,19.160505453125,7.824964475,19.034744453125,8.117776875C18.908865453125,8.410576775,18.726104453125,8.675404575,18.496904453125,8.896804775C18.496904453125,8.896804775,14.896904453125,12.496805375,14.896904453125,12.496805375C14.446785453125,12.946732375,13.836441453125,13.199489375,13.200045453125,13.199489375C12.563648453125,13.199489375,11.953316653125,12.946732375,11.503244353125,12.496805375C11.276925053125,12.278212575,10.973805453125,12.157253275,10.659164453125,12.159989375C10.344524353125,12.162724475,10.043552353125001,12.288928975,9.821060653125,12.511421375C9.598580353125,12.733912375,9.472376853124999,13.034884375,9.469641253125001,13.349524375C9.466904653124999,13.664152375,9.587852953125001,13.967285375,9.806444653125,14.193604375C10.706577253125,15.093424375,11.927265153125,15.598984375,13.200045453125,15.598984375C14.472825453125,15.598984375,15.693465453125,15.093424375,16.593705453125,14.193604375C16.593705453125,14.193604375,20.193704453125,10.593605075,20.193704453125,10.593605075C21.068025453125,9.688312575000001,21.551866453125,8.475820575,21.540824453125,7.217272775C21.529905453125,5.958736675,21.025184453125,4.754836575000001,20.135145453125,3.864868375C19.245224453125,2.974913595,18.041264453125002,2.470102243,16.782824453125002,2.45916582701C15.524265453125,2.448229411,14.311737453125,2.932042395,13.406445453125,3.806404375C13.406445453125,3.806404375,11.606444353125,5.606404575,11.606444353125,5.606404575C11.491832753125,5.717092474999999,11.400416353125,5.849512375,11.337524453125,5.995912275C11.274633453125,6.142324475000001,11.241537053125,6.299788475,11.240144753125,6.459124575C11.238764753125,6.618460675,11.269124953125,6.776476375,11.329461053125,6.923944475C11.389796253125,7.071424475,11.478908553125,7.205404275,11.591576553125,7.318072775C11.704244653125,7.430752275,11.838224453125,7.519852675,11.985704453125,7.580188775C12.133172953125,7.640524375,12.291189153125,7.670884175,12.450525453125,7.669504675C12.609861453125,7.668112775,12.767324453125,7.635016875,12.913737453125,7.572124475C13.060136453125,7.509232475,13.192556453125,7.417816675,13.303244453125,7.303204575C13.303244453125,7.303204575,15.103304453125,5.503204575,15.103304453125,5.503204575C15.103304453125,5.503204575,15.103304453125,5.503204575,15.103304453125,5.503204575C15.103304453125,5.503204575,15.103304453125,5.503204575,15.103304453125,5.503204575ZM9.103244753125,11.503204375C9.553316553125,11.053276975,10.163648653125,10.800508475,10.800045053125,10.800508475C11.436441453125,10.800508475,12.046785353125,11.053276975,12.496845453125,11.503204375C12.607544453125,11.617816975,12.739953453125,11.709232375,12.886364453125,11.772125275C13.032764453125,11.835017175,13.190228453125,11.868112575,13.349564453125,11.869504975C13.508900453125,11.870884875,13.666915453125,11.840524675,13.814395453125,11.780188575C13.961864453125,11.719852475,14.095844453125,11.630752575,14.208524453125,11.518073075C14.321193453125,11.405405075,14.410305453125,11.271424275,14.470665453125,11.123944275C14.531025453125,10.976476675,14.561385453125,10.818460475,14.559945453125,10.659124375C14.558505453125,10.499788275,14.525505453125,10.342324775,14.462625453125,10.195912875000001C14.399625453125,10.049512374999999,14.308257453125,9.917092275,14.193644453125,9.806404575C13.293512453125,8.906536575,12.072836853125,8.401024775,10.800045053125,8.401024775C9.527265053125,8.401024775,8.306576753125,8.906536575,7.406444553125,9.806404575C7.406444553125,9.806404575,3.806444553125,13.406405375,3.806444553125,13.406405375C3.347998853125,13.849180375,2.982324063125,14.378837375,2.730760873125,14.964425375C2.479197663125,15.550025375,2.346784001225,16.179905375,2.341245685525,16.817225375C2.335707365025,17.454665374999998,2.457155573125,18.086705375,2.698503643125,18.676624375C2.9398524731249998,19.266424375,3.296266853125,19.802465375,3.746948453125,20.253065375C4.1976325531250005,20.703785375,4.733564653125001,21.060186375,5.3234727531249995,21.301504375C5.913368453125,21.542945375,6.545432553125,21.664384375,7.182776453125,21.658744375C7.820120353125,21.653225375,8.449964953125,21.520864375,9.035588753125001,21.269344375C9.621212953125,21.017706375,10.150868853125,20.652065375,10.593645053125,20.193544375C10.593645053125,20.193544375,12.393644453125,18.393545375000002,12.393644453125,18.393545375000002C12.508256453125,18.282904375,12.599672453125,18.150544375000003,12.662564453125,18.004144375C12.725456453125,17.857625374999998,12.758564453125,17.700184375,12.759944453125,17.540825375C12.761337453125,17.381585375,12.730964453125,17.223544375,12.670629453125,17.076064375C12.610292453125,16.928584375,12.521193453125,16.794544375,12.408525453125,16.681985375C12.295844053125,16.569305375,12.161865253125,16.480145375,12.014396653125,16.419784375C11.866916653125,16.359425375,11.708900453125,16.329065375,11.549564353125,16.330504375C11.390228253125,16.331944375,11.232765153125,16.364944375,11.086364753125,16.427825374999998C10.939952853125,16.490824375000003,10.807544753125,16.582145375,10.696845053125,16.696745375C10.696845053125,16.696745375,8.896844853125,18.496746375,8.896844853125,18.496746375C8.675456553124999,18.726064375,8.410628753125,18.908825375,8.117816953125,19.034704375C7.825004553125,19.160465375,7.510076553125,19.226585375,7.191416253125,19.229345375C6.872744553125,19.232225375,6.556712653125,19.171505375,6.261752653125,19.050785375C5.966804753125,18.930065375,5.6988446531250005,18.751865375,5.473496453125,18.526504375C5.248160553125,18.301264375000002,5.0699486531249995,18.033185375000002,4.9492766531250005,17.738344375C4.828604453125,17.443385375,4.767872553125001,17.127305375,4.770644653125,16.808585375C4.773416553125,16.489985375,4.839620553125,16.174985375,4.9654045531249995,15.882185375C5.091188453125,15.589385375,5.274020453125,15.324545375,5.503244653125,15.103145375C5.503244653125,15.103145375,9.103244753125,11.503204375,9.103244753125,11.503204375C9.103244753125,11.503204375,9.103244753125,11.503204375,9.103244753125,11.503204375Z" fill-rule="evenodd" fill="#0A0A28" fill-opacity="1"/></g></svg>