<svg xmlns="http://www.w3.org/2000/svg" xmlns:xlink="http://www.w3.org/1999/xlink" fill="none" version="1.1" width="24" height="24" viewBox="0 0 24 24"><defs><clipPath id="master_svg0_3_2263"><rect x="0" y="0" width="24" height="24" rx="0"/></clipPath></defs><g clip-path="url(#master_svg0_3_2263)"><path d="M6.0600383695312505,4.8599682328125C7.63542226953125,3.2845793928124998,9.77209426953125,2.3995361328125004,12.00002666953125,2.3995361328125C14.22795826953125,2.3995361328125004,16.36466726953125,3.2845793928124998,17.940026269531252,4.8599682328125C19.51538626953125,6.4353523328125,20.40050726953125,8.5720367328125,20.40050726953125,10.7999687328125C20.40050726953125,13.0279011328125,19.51538626953125,15.1645361328125,17.940026269531252,16.7400171328125C17.940026269531252,16.7400171328125,12.00002666953125,22.6800171328125,12.00002666953125,22.6800171328125C12.00002666953125,22.6800171328125,6.0600383695312505,16.7400171328125,6.0600383695312505,16.7400171328125C5.27993026953125,15.9598961328125,4.66111316953125,15.0338561328125,4.23892068953125,14.0147081328125C3.81672708953125,12.9955121328125,3.599426269531251,11.9031410328125,3.59942626953125,10.7999687328125C3.5994262695312518,9.6967845328125,3.81672708953125,8.6044125328125,4.23892068953125,7.5852284328125C4.66111316953125,6.5660324328125,5.27993026953125,5.6399924328125,6.0600383695312505,4.8599682328125C6.0600383695312505,4.8599682328125,6.0600383695312505,4.8599682328125,6.0600383695312505,4.8599682328125C6.0600383695312505,4.8599682328125,6.0600383695312505,4.8599682328125,6.0600383695312505,4.8599682328125ZM12.00002666953125,13.1999681328125C12.63655466953125,13.1999681328125,13.24700636953125,12.9471051328125,13.69709026953125,12.4970211328125C14.14717526953125,12.0469370328125,14.40003826953125,11.4364843328125,14.40003826953125,10.7999687328125C14.40003826953125,10.1634407328125,14.14717526953125,9.5529999328125,13.69709026953125,9.1029048328125C13.24700636953125,8.6528206328125,12.63655466953125,8.399968632812499,12.00002666953125,8.399968632812499C11.36351056953125,8.399968632812499,10.75305846953125,8.6528206328125,10.30297426953125,9.1029048328125C9.85289046953125,9.5529999328125,9.60002656953125,10.1634407328125,9.60002656953125,10.7999687328125C9.60002656953125,11.4364843328125,9.85289046953125,12.0469370328125,10.30297426953125,12.4970211328125C10.75305846953125,12.9471051328125,11.36351056953125,13.1999681328125,12.00002666953125,13.1999681328125C12.00002666953125,13.1999681328125,12.00002666953125,13.1999681328125,12.00002666953125,13.1999681328125Z" fill-rule="evenodd" fill="#0A0A28" fill-opacity="1"/></g></svg>