<svg xmlns="http://www.w3.org/2000/svg" xmlns:xlink="http://www.w3.org/1999/xlink" fill="none" version="1.1" width="24" height="24" viewBox="0 0 24 24"><defs><clipPath id="master_svg0_3_1909"><rect x="0" y="0" width="24" height="24" rx="0"/></clipPath></defs><g clip-path="url(#master_svg0_3_1909)"><path d="M13.413995785302735,20.89999158592224C13.413995785302735,20.89999158592224,12.706895785302734,20.19289158592224,12.706895785302734,20.19289158592224C12.706895785302734,20.19289158592224,12.706545785302735,20.19329258592224,12.706545785302735,20.19329258592224C12.706545785302735,20.19329258592224,13.413995785302735,20.89999158592224,13.413995785302735,20.89999158592224C13.413995785302735,20.89999158592224,13.413995785302735,20.89999158592224,13.413995785302735,20.89999158592224ZM12.000495885302735,21.485891585922243C12.000495885302735,21.485891585922243,12.000495885302735,22.485891585922243,12.000495885302735,22.485891585922243C12.000495885302735,22.485891585922243,12.000495885302735,21.485891585922243,12.000495885302735,21.485891585922243C12.000495885302735,21.485891585922243,12.000495885302735,21.485891585922243,12.000495885302735,21.485891585922243ZM10.586996085302735,20.89999158592224C10.586996085302735,20.89999158592224,11.294455985302735,20.19329258592224,11.294455985302735,20.19329258592224C11.294455985302735,20.19329258592224,11.294026385302734,20.192790585922243,11.294026385302734,20.192790585922243C11.294026385302734,20.192790585922243,10.586996085302735,20.89999158592224,10.586996085302735,20.89999158592224C10.586996085302735,20.89999158592224,10.586996085302735,20.89999158592224,10.586996085302735,20.89999158592224ZM6.342996085302735,16.656991585922242C6.342996085302735,16.656991585922242,5.635876185302735,17.36409158592224,5.635876185302735,17.36409158592224C5.635876185302735,17.36409158592224,5.635976185302734,17.364191585922242,5.635976185302734,17.364191585922242C5.635976185302734,17.364191585922242,6.342996085302735,16.656991585922242,6.342996085302735,16.656991585922242C6.342996085302735,16.656991585922242,6.342996085302735,16.656991585922242,6.342996085302735,16.656991585922242ZM16.949896185302734,15.949891585922241C16.949896185302734,15.949891585922241,12.706895785302734,20.19289158592224,12.706895785302734,20.19289158592224C12.706895785302734,20.19289158592224,14.121096185302735,21.60709158592224,14.121096185302735,21.60709158592224C14.121096185302735,21.60709158592224,18.364096185302735,17.36409158592224,18.364096185302735,17.36409158592224C18.364096185302735,17.36409158592224,16.949896185302734,15.949891585922241,16.949896185302734,15.949891585922241C16.949896185302734,15.949891585922241,16.949896185302734,15.949891585922241,16.949896185302734,15.949891585922241ZM12.706545785302735,20.19329258592224C12.613856285302735,20.28599158592224,12.503796585302734,20.35959258592224,12.382646585302734,20.409791585922243C12.382646585302734,20.409791585922243,13.148476585302735,22.25739058592224,13.148476585302735,22.25739058592224C13.512406385302734,22.106591585922242,13.843026185302735,21.88549258592224,14.121496185302734,21.606792585922243C14.121496185302734,21.606792585922243,12.706545785302735,20.19329258592224,12.706545785302735,20.19329258592224C12.706545785302735,20.19329258592224,12.706545785302735,20.19329258592224,12.706545785302735,20.19329258592224ZM12.382646585302734,20.409791585922243C12.261506085302734,20.46009258592224,12.131646185302735,20.485891585922243,12.000495885302735,20.485891585922243C12.000495885302735,20.485891585922243,12.000495885302735,22.485891585922243,12.000495885302735,22.485891585922243C12.394446385302734,22.485891585922243,12.784536385302735,22.40829258592224,13.148476585302735,22.25739058592224C13.148476585302735,22.25739058592224,12.382646585302734,20.409791585922243,12.382646585302734,20.409791585922243C12.382646585302734,20.409791585922243,12.382646585302734,20.409791585922243,12.382646585302734,20.409791585922243ZM12.000495885302735,20.485891585922243C11.869356185302735,20.485891585922243,11.739496185302734,20.46009258592224,11.618356185302734,20.409791585922243C11.618356185302734,20.409791585922243,10.852526185302734,22.25739058592224,10.852526185302734,22.25739058592224C11.216456385302735,22.40829258592224,11.606546385302735,22.485891585922243,12.000495885302735,22.485891585922243C12.000495885302735,22.485891585922243,12.000495885302735,20.485891585922243,12.000495885302735,20.485891585922243C12.000495885302735,20.485891585922243,12.000495885302735,20.485891585922243,12.000495885302735,20.485891585922243ZM11.618356185302734,20.409791585922243C11.497206185302733,20.35959258592224,11.387145985302734,20.28599158592224,11.294455985302735,20.19329258592224C11.294455985302735,20.19329258592224,9.879546185302734,21.606792585922243,9.879546185302734,21.606792585922243C10.157966185302733,21.88549258592224,10.488595985302734,22.106591585922242,10.852526185302734,22.25739058592224C10.852526185302734,22.25739058592224,11.618356185302734,20.409791585922243,11.618356185302734,20.409791585922243C11.618356185302734,20.409791585922243,11.618356185302734,20.409791585922243,11.618356185302734,20.409791585922243ZM11.294026385302734,20.192790585922243C11.294026385302734,20.192790585922243,7.050026185302734,15.949791585922242,7.050026185302734,15.949791585922242C7.050026185302734,15.949791585922242,5.635976185302734,17.364191585922242,5.635976185302734,17.364191585922242C5.635976185302734,17.364191585922242,9.879976285302735,21.60719058592224,9.879976285302735,21.60719058592224C9.879976285302735,21.60719058592224,11.294026385302734,20.192790585922243,11.294026385302734,20.192790585922243C11.294026385302734,20.192790585922243,11.294026385302734,20.192790585922243,11.294026385302734,20.192790585922243ZM7.050126085302734,15.949891585922241C6.071196085302734,14.97089158592224,5.404546185302735,13.723691585922241,5.134476185302734,12.36579208592224C5.134476185302734,12.36579208592224,3.172898175302734,12.75593158592224,3.172898175302734,12.75593158592224C3.5201281953027346,14.501791585922241,4.377249185302734,16.10539158592224,5.635876185302735,17.36409158592224C5.635876185302735,17.36409158592224,7.050126085302734,15.949891585922241,7.050126085302734,15.949891585922241C7.050126085302734,15.949891585922241,7.050126085302734,15.949891585922241,7.050126085302734,15.949891585922241ZM5.134476185302734,12.36579208592224C4.864409205302734,11.00793148592224,5.003056185302734,9.600481785922241,5.532876085302735,8.32142138592224C5.532876085302735,8.32142138592224,3.6851281853027342,7.556031485922241,3.6851281853027342,7.556031485922241C3.003926155302734,9.200541685922241,2.825666185302734,11.01012208592224,3.172898175302734,12.75593158592224C3.172898175302734,12.75593158592224,5.134476185302734,12.36579208592224,5.134476185302734,12.36579208592224C5.134476185302734,12.36579208592224,5.134476185302734,12.36579208592224,5.134476185302734,12.36579208592224ZM5.532876085302735,8.32142138592224C6.062706185302734,7.042361485922242,6.959906085302734,5.949131485922241,8.111046285302734,5.179981485922241C8.111046285302734,5.179981485922241,6.9999160853027345,3.517032565922241,6.9999160853027345,3.517032565922241C5.519886185302735,4.505941585922241,4.366330175302735,5.911521685922241,3.6851281853027342,7.556031485922241C3.6851281853027342,7.556031485922241,5.532876085302735,8.32142138592224,5.532876085302735,8.32142138592224C5.532876085302735,8.32142138592224,5.532876085302735,8.32142138592224,5.532876085302735,8.32142138592224ZM8.111046285302734,5.179981485922241C9.262186085302734,4.410821585922241,10.615546185302733,4.000291585922241,11.999996185302734,4.000291585922241C11.999996185302734,4.000291585922241,11.999996185302734,2.000291585922241,11.999996185302734,2.000291585922241C10.219985985302735,2.000291585922241,8.479946185302733,2.5281205759222414,6.9999160853027345,3.517032565922241C6.9999160853027345,3.517032565922241,8.111046285302734,5.179981485922241,8.111046285302734,5.179981485922241C8.111046285302734,5.179981485922241,8.111046285302734,5.179981485922241,8.111046285302734,5.179981485922241ZM11.999996185302734,4.000291585922241C13.384456585302734,4.000291585922241,14.737796185302734,4.410821585922241,15.888996185302734,5.179981485922241C15.888996185302734,5.179981485922241,17.000096185302734,3.517032565922241,17.000096185302734,3.517032565922241C15.520096185302734,2.5281205759222414,13.780015985302734,2.000291585922241,11.999996185302734,2.000291585922241C11.999996185302734,2.000291585922241,11.999996185302734,4.000291585922241,11.999996185302734,4.000291585922241C11.999996185302734,4.000291585922241,11.999996185302734,4.000291585922241,11.999996185302734,4.000291585922241ZM15.888996185302734,5.179981485922241C17.040096185302737,5.949131485922241,17.937296185302735,7.042361485922242,18.467096185302736,8.32142138592224C18.467096185302736,8.32142138592224,20.314895185302735,7.556031485922241,20.314895185302735,7.556031485922241C19.633696185302732,5.911521685922241,18.480096185302735,4.505941585922241,17.000096185302734,3.517032565922241C17.000096185302734,3.517032565922241,15.888996185302734,5.179981485922241,15.888996185302734,5.179981485922241C15.888996185302734,5.179981485922241,15.888996185302734,5.179981485922241,15.888996185302734,5.179981485922241ZM18.467096185302736,8.32142138592224C18.996996185302734,9.600481785922241,19.135596185302735,11.00793148592224,18.865496185302735,12.36579208592224C18.865496185302735,12.36579208592224,20.827097185302733,12.75593158592224,20.827097185302733,12.75593158592224C21.174295185302736,11.01012208592224,20.996095185302735,9.200541685922241,20.314895185302735,7.556031485922241C20.314895185302735,7.556031485922241,18.467096185302736,8.32142138592224,18.467096185302736,8.32142138592224C18.467096185302736,8.32142138592224,18.467096185302736,8.32142138592224,18.467096185302736,8.32142138592224ZM18.865496185302735,12.36579208592224C18.595496185302736,13.723691585922241,17.928796185302737,14.97089158592224,16.949896185302734,15.949891585922241C16.949896185302734,15.949891585922241,18.364096185302735,17.36409158592224,18.364096185302735,17.36409158592224C19.622796185302732,16.10539158592224,20.479896185302735,14.501791585922241,20.827097185302733,12.75593158592224C20.827097185302733,12.75593158592224,18.865496185302735,12.36579208592224,18.865496185302735,12.36579208592224C18.865496185302735,12.36579208592224,18.865496185302735,12.36579208592224,18.865496185302735,12.36579208592224Z" fill="#0A0A28" fill-opacity="1"/><path d="M15,11C15,11,16,11,16,11C16,11,15,11,15,11C15,11,15,11,15,11ZM12,8C12,8,12,7,12,7C12,7,12,8,12,8C12,8,12,8,12,8ZM14,11C14,11.5304301,13.789290000000001,12.0391402,13.4142098,12.4142098C13.4142098,12.4142098,14.8284302,13.8284302,14.8284302,13.8284302C15.5785699,13.07828,16,12.0608702,16,11C16,11,14,11,14,11C14,11,14,11,14,11ZM13.4142098,12.4142098C13.0391402,12.789290000000001,12.5304301,13,12,13C12,13,12,15,12,15C13.0608702,15,14.07828,14.5785699,14.8284302,13.8284302C14.8284302,13.8284302,13.4142098,12.4142098,13.4142098,12.4142098C13.4142098,12.4142098,13.4142098,12.4142098,13.4142098,12.4142098ZM12,13C11.4695699,13,10.96086,12.789290000000001,10.58579,12.4142098C10.58579,12.4142098,9.171572,13.8284302,9.171572,13.8284302C9.921718,14.5785699,10.9391299,15,12,15C12,15,12,13,12,13C12,13,12,13,12,13ZM10.58579,12.4142098C10.21071,12.0391402,10,11.5304301,10,11C10,11,8,11,8,11C8,12.0608702,8.42142701,13.07828,9.171572,13.8284302C9.171572,13.8284302,10.58579,12.4142098,10.58579,12.4142098C10.58579,12.4142098,10.58579,12.4142098,10.58579,12.4142098ZM10,11C10,10.4695699,10.21071,9.96086,10.58579,9.58579C10.58579,9.58579,9.171572,8.171572,9.171572,8.171572C8.42142701,8.921718,8,9.9391299,8,11C8,11,10,11,10,11C10,11,10,11,10,11ZM10.58579,9.58579C10.96086,9.21071,11.4695699,9,12,9C12,9,12,7,12,7C10.9391299,7,9.921718,7.42142701,9.171572,8.171572C9.171572,8.171572,10.58579,9.58579,10.58579,9.58579C10.58579,9.58579,10.58579,9.58579,10.58579,9.58579ZM12,9C12.5304301,9,13.0391402,9.21071,13.4142098,9.58579C13.4142098,9.58579,14.8284302,8.171572,14.8284302,8.171572C14.07828,7.42142701,13.0608702,7,12,7C12,7,12,9,12,9C12,9,12,9,12,9ZM13.4142098,9.58579C13.789290000000001,9.96086,14,10.4695699,14,11C14,11,16,11,16,11C16,9.9391299,15.5785699,8.921718,14.8284302,8.171572C14.8284302,8.171572,13.4142098,9.58579,13.4142098,9.58579C13.4142098,9.58579,13.4142098,9.58579,13.4142098,9.58579Z" fill="#0A0A28" fill-opacity="1"/></g></svg>