<svg xmlns="http://www.w3.org/2000/svg" xmlns:xlink="http://www.w3.org/1999/xlink" fill="none" version="1.1" width="24" height="24" viewBox="0 0 24 24"><defs><clipPath id="master_svg0_3_1769"><rect x="0" y="0" width="24" height="24" rx="0"/></clipPath></defs><g clip-path="url(#master_svg0_3_1769)"><path d="M5.9999756859375,10.8000250140625C5.9999756859375,10.8000250140625,5.9999756859375,8.4000244140625,5.9999756859375,8.4000244140625C5.9999756859375,6.8087287140625,6.6321115859374995,5.2826044140625,7.7573394859375,4.1573886140625C8.8825559859375,3.0321652340625,10.4086799859375,2.400024414062501,11.9999761859375,2.4000244140625C13.5912723859375,2.4000244140625,15.1173955859375,3.0321652340625,16.2425755859375,4.1573886140625C17.3678155859375,5.2826044140625,17.9999765859375,6.8087287140625,17.9999765859375,8.4000244140625C17.9999765859375,8.4000244140625,17.9999765859375,10.8000250140625,17.9999765859375,10.8000250140625C18.636456585937502,10.8000250140625,19.2468955859375,11.0528765140625,19.6970155859375,11.5029726140625C20.1471365859375,11.9530563140625,20.3999765859375,12.5635094140625,20.3999765859375,13.2000244140625C20.3999765859375,13.2000244140625,20.3999765859375,19.2000254140625,20.3999765859375,19.2000254140625C20.3999765859375,19.8365054140625,20.1471365859375,20.4469454140625,19.6970155859375,20.8970644140625C19.2468955859375,21.3471854140625,18.636456585937502,21.6000254140625,17.9999765859375,21.6000254140625C17.9999765859375,21.6000254140625,5.9999756859375,21.6000254140625,5.9999756859375,21.6000254140625C5.3634596859375,21.6000254140625,4.7530064859375,21.3471854140625,4.3029187959375,20.8970644140625C3.8528324059375,20.4469454140625,3.5999755859375004,19.8365054140625,3.5999755859375,19.2000254140625C3.5999755859375,19.2000254140625,3.5999755859375,13.2000244140625,3.5999755859375,13.2000244140625C3.5999755859375,12.5635094140625,3.8528324059375,11.9530563140625,4.3029187959375,11.5029726140625C4.7530064859375,11.0528765140625,5.3634596859375,10.8000250140625,5.9999756859375,10.8000250140625C5.9999756859375,10.8000250140625,5.9999756859375,10.8000250140625,5.9999756859375,10.8000250140625C5.9999756859375,10.8000250140625,5.9999756859375,10.8000250140625,5.9999756859375,10.8000250140625ZM15.5999755859375,8.4000244140625C15.5999755859375,8.4000244140625,15.5999755859375,10.8000250140625,15.5999755859375,10.8000250140625C15.5999755859375,10.8000250140625,8.3999757859375,10.8000250140625,8.3999757859375,10.8000250140625C8.3999757859375,10.8000250140625,8.3999757859375,8.4000244140625,8.3999757859375,8.4000244140625C8.3999757859375,7.4452448140625,8.7792596859375,6.5295725140625,9.4543919859375,5.8544404140625C10.1295237859375,5.1793086140625,11.0451960859375,4.8000245140625,11.9999761859375,4.8000245140625C12.9547557859375,4.8000245140625,13.8704275859375,5.1793086140625,14.5455595859375,5.8544404140625C15.2206925859375,6.5295725140625,15.5999755859375,7.4452448140625,15.5999755859375,8.4000244140625C15.5999755859375,8.4000244140625,15.5999755859375,8.4000244140625,15.5999755859375,8.4000244140625C15.5999755859375,8.4000244140625,15.5999755859375,8.4000244140625,15.5999755859375,8.4000244140625Z" fill-rule="evenodd" fill="#0A0A28" fill-opacity="1"/></g></svg>