<svg xmlns="http://www.w3.org/2000/svg" xmlns:xlink="http://www.w3.org/1999/xlink" fill="none" version="1.1" width="24" height="24" viewBox="0 0 24 24"><defs><clipPath id="master_svg0_3_2248"><rect x="0" y="0" width="24" height="24" rx="0"/></clipPath></defs><g clip-path="url(#master_svg0_3_2248)"><path d="M7,11C7,11.55229,7.4477201,12,8,12C8.5522799,12,9,11.55229,9,11C9,11,7,11,7,11C7,11,7,11,7,11ZM12,3C12,3,12,2,12,2C12,2,12,3,12,3C12,3,12,3,12,3ZM15,7C15,7.5522799,15.4477,8,16,8C16.552300000000002,8,17,7.5522799,17,7C17,7,15,7,15,7C15,7,15,7,15,7ZM13,15C13,14.4477,12.55229,14,12,14C11.4477201,14,11,14.4477,11,15C11,15,13,15,13,15C13,15,13,15,13,15ZM11,17C11,17.552300000000002,11.4477201,18,12,18C12.55229,18,13,17.552300000000002,13,17C13,17,11,17,11,17C11,17,11,17,11,17ZM4,13C4,13,3,13,3,13C3,13,4,13,4,13C4,13,4,13,4,13ZM4,19C4,19,3,19,3,19C3,19,4,19,4,19C4,19,4,19,4,19ZM9,11C9,11,9,7,9,7C9,7,7,7,7,7C7,7,7,11,7,11C7,11,9,11,9,11C9,11,9,11,9,11ZM9,7C9,6.20435,9.316070100000001,5.4412899,9.8786802,4.87868C9.8786802,4.87868,8.464469900000001,3.4644660099999998,8.464469900000001,3.4644660099999998C7.5267799,4.40215,7,5.6739199,7,7C7,7,9,7,9,7C9,7,9,7,9,7ZM9.8786802,4.87868C10.441289900000001,4.31607,11.20435,4,12,4C12,4,12,2,12,2C10.673920200000001,2,9.402150200000001,2.526784,8.464469900000001,3.4644660099999998C8.464469900000001,3.4644660099999998,9.8786802,4.87868,9.8786802,4.87868C9.8786802,4.87868,9.8786802,4.87868,9.8786802,4.87868ZM12,4C12.7956495,4,13.5587101,4.31607,14.1213,4.87868C14.1213,4.87868,15.5355,3.4644660099999998,15.5355,3.4644660099999998C14.5979,2.526784,13.3260803,2,12,2C12,2,12,4,12,4C12,4,12,4,12,4ZM14.1213,4.87868C14.6839,5.4412899,15,6.20435,15,7C15,7,17,7,17,7C17,5.6739199,16.4732,4.40215,15.5355,3.4644660099999998C15.5355,3.4644660099999998,14.1213,4.87868,14.1213,4.87868C14.1213,4.87868,14.1213,4.87868,14.1213,4.87868ZM11,15C11,15,11,17,11,17C11,17,13,17,13,17C13,17,13,15,13,15C13,15,11,15,11,15C11,15,11,15,11,15ZM6,22C6,22,18,22,18,22C18,22,18,20,18,20C18,20,6,20,6,20C6,20,6,22,6,22C6,22,6,22,6,22ZM18,22C18.7957,22,19.5587,21.683901,20.1213,21.1213C20.1213,21.1213,18.7071,19.7071,18.7071,19.7071C18.5196,19.8946,18.2652,20,18,20C18,20,18,22,18,22C18,22,18,22,18,22ZM20.1213,21.1213C20.683901,20.558701,21,19.7957,21,19C21,19,19,19,19,19C19,19.2652,18.8946,19.5196,18.7071,19.7071C18.7071,19.7071,20.1213,21.1213,20.1213,21.1213C20.1213,21.1213,20.1213,21.1213,20.1213,21.1213ZM21,19C21,19,21,13,21,13C21,13,19,13,19,13C19,13,19,19,19,19C19,19,21,19,21,19C21,19,21,19,21,19ZM21,13C21,12.2043505,20.683901,11.4412899,20.1213,10.8786802C20.1213,10.8786802,18.7071,12.2928896,18.7071,12.2928896C18.8946,12.4804296,19,12.7347803,19,13C19,13,21,13,21,13C21,13,21,13,21,13ZM20.1213,10.8786802C19.5587,10.316070100000001,18.7957,10,18,10C18,10,18,12,18,12C18.2652,12,18.5196,12.10536,18.7071,12.2928896C18.7071,12.2928896,20.1213,10.8786802,20.1213,10.8786802C20.1213,10.8786802,20.1213,10.8786802,20.1213,10.8786802ZM18,10C18,10,6,10,6,10C6,10,6,12,6,12C6,12,18,12,18,12C18,12,18,10,18,10C18,10,18,10,18,10ZM6,10C5.20435,10,4.44128799,10.316070100000001,3.87868,10.8786802C3.87868,10.8786802,5.29289,12.2928896,5.29289,12.2928896C5.48043,12.10536,5.73478,12,6,12C6,12,6,10,6,10C6,10,6,10,6,10ZM3.87868,10.8786802C3.3160700199999997,11.4412899,3,12.2043505,3,13C3,13,5,13,5,13C5,12.7347803,5.10536,12.4804296,5.29289,12.2928896C5.29289,12.2928896,3.87868,10.8786802,3.87868,10.8786802C3.87868,10.8786802,3.87868,10.8786802,3.87868,10.8786802ZM3,13C3,13,3,19,3,19C3,19,5,19,5,19C5,19,5,13,5,13C5,13,3,13,3,13C3,13,3,13,3,13ZM3,19C3,19.7957,3.3160700199999997,20.558701,3.87868,21.1213C3.87868,21.1213,5.29289,19.7071,5.29289,19.7071C5.10536,19.5196,5,19.2652,5,19C5,19,3,19,3,19C3,19,3,19,3,19ZM3.87868,21.1213C4.44128799,21.683901,5.20435,22,6,22C6,22,6,20,6,20C5.73478,20,5.48043,19.8946,5.29289,19.7071C5.29289,19.7071,3.87868,21.1213,3.87868,21.1213C3.87868,21.1213,3.87868,21.1213,3.87868,21.1213Z" fill="#0A0A28" fill-opacity="1"/></g></svg>