<svg xmlns="http://www.w3.org/2000/svg" xmlns:xlink="http://www.w3.org/1999/xlink" fill="none" version="1.1" width="24" height="24" viewBox="0 0 24 24"><defs><clipPath id="master_svg0_3_1435"><rect x="0" y="0" width="24" height="24" rx="0"/></clipPath></defs><g clip-path="url(#master_svg0_3_1435)"><path d="M11.9999761859375,2.4000244140625C10.4086799859375,2.400024414062501,8.8825559859375,3.0321652340625,7.7573394859375,4.1573886140625C6.6321115859374995,5.2826044140625,5.9999756859375,6.8087287140625,5.9999756859375,8.4000244140625C5.9999756859375,8.4000244140625,5.9999756859375,10.8000250140625,5.9999756859375,10.8000250140625C5.3634596859375,10.8000250140625,4.7530064859375,11.0528765140625,4.3029187959375,11.5029726140625C3.8528324059375,11.9530563140625,3.5999755859375004,12.5635094140625,3.5999755859375,13.2000244140625C3.5999755859375,13.2000244140625,3.5999755859375,19.2000254140625,3.5999755859375,19.2000254140625C3.5999755859375004,19.8365054140625,3.8528324059375,20.4469454140625,4.3029187959375,20.8970644140625C4.7530064859375,21.3471854140625,5.3634596859375,21.6000254140625,5.9999756859375,21.6000254140625C5.9999756859375,21.6000254140625,17.9999765859375,21.6000254140625,17.9999765859375,21.6000254140625C18.636456585937502,21.6000254140625,19.2468955859375,21.3471854140625,19.6970155859375,20.8970644140625C20.1471365859375,20.4469454140625,20.3999765859375,19.8365054140625,20.3999765859375,19.2000254140625C20.3999765859375,19.2000254140625,20.3999765859375,13.2000244140625,20.3999765859375,13.2000244140625C20.3999765859375,12.5635094140625,20.1471365859375,11.9530563140625,19.6970155859375,11.5029726140625C19.2468955859375,11.0528765140625,18.636456585937502,10.8000250140625,17.9999765859375,10.8000250140625C17.9999765859375,10.8000250140625,8.3999757859375,10.8000250140625,8.3999757859375,10.8000250140625C8.3999757859375,10.8000250140625,8.3999757859375,8.4000244140625,8.3999757859375,8.4000244140625C8.3996758859375,7.5235925140625,8.7191161859375,6.6771607140625,9.2983679859375,6.0194406140625C9.8776316859375,5.3617325140625,10.6769399859375,4.9379163140625,11.5463761859375,4.8274927140625C12.4158239859375,4.7170687140625,13.2957000859375,4.9275963140625,14.0209795859375,5.419620514062499C14.7462725859375,5.911644714062501,15.2671675859375,6.6513486140625,15.4859755859375,7.5000248140625C15.5655365859375,7.8082561140625,15.7642565859375,8.0722566140625,16.0384565859375,8.2339563140625C16.1742955859375,8.3140206140625,16.3245365859375,8.3665562140625,16.4805365859375,8.3885646140625C16.6366565859375,8.410572514062501,16.7955355859375,8.4016204140625,16.9481765859375,8.3622246140625C17.1008155859375,8.3228283140625,17.2442155859375,8.2537565140625,17.3700955859375,8.158956514062499C17.4959765859375,8.0641446140625,17.6020555859375,7.9454646140625,17.6820955859375,7.8096967140625C17.7621355859375,7.6739163140625,17.8146965859375,7.5237007140625,17.8366565859375,7.3676166140625C17.8587365859375,7.2115326140625,17.8497365859375,7.0526528140625,17.810376585937497,6.9000244140625C17.4773755859375,5.6121366140625,16.7260565859375,4.471344514062499,15.6743765859375,3.6568324140625C14.6226835859375,2.8423132340625,13.3301992859375,2.4002313528725,11.9999761859375,2.4000244140625C11.9999761859375,2.4000244140625,11.9999761859375,2.4000244140625,11.9999761859375,2.4000244140625C11.9999761859375,2.4000244140625,11.9999761859375,2.4000244140625,11.9999761859375,2.4000244140625Z" fill="#0A0A28" fill-opacity="1"/></g></svg>