<svg xmlns="http://www.w3.org/2000/svg" xmlns:xlink="http://www.w3.org/1999/xlink" fill="none" version="1.1" width="24" height="24" viewBox="0 0 24 24"><defs><clipPath id="master_svg0_3_1566"><rect x="0" y="0" width="24" height="24" rx="0"/></clipPath></defs><g clip-path="url(#master_svg0_3_1566)"><path d="M3.6000244140625,3.5999755859375C3.9182886140625,3.5999755859375004,4.2235085140625,3.7264039959375,4.4485566140625,3.9514471859375C4.6735926140625,4.1764916159375,4.8000245140625,4.4817164559375,4.8000245140625,4.7999755859375C4.8000245140625,4.7999755859375,4.8000245140625,19.1999755859375,4.8000245140625,19.1999755859375C4.8000245140625,19.518216585937502,4.6735926140625,19.8234955859375,4.4485566140625,20.0484965859375C4.2235085140625,20.2734965859375,3.9182886140625,20.3999765859375,3.6000244140625,20.3999765859375C3.2817652840625,20.3999765859375,2.9765404440625,20.2734965859375,2.7514960140625,20.0484965859375C2.5264528240625,19.8234955859375,2.400024414062501,19.518216585937502,2.4000244140625,19.1999755859375C2.4000244140625,19.1999755859375,2.4000244140625,4.7999755859375,2.4000244140625,4.7999755859375C2.4000244140625,4.4817164559375,2.5264528240625,4.1764916159375,2.7514960140625,3.9514471859375C2.9765404440625,3.7264039959375,3.2817652840625,3.5999755859375004,3.6000244140625,3.5999755859375C3.6000244140625,3.5999755859375,3.6000244140625,3.5999755859375,3.6000244140625,3.5999755859375C3.6000244140625,3.5999755859375,3.6000244140625,3.5999755859375,3.6000244140625,3.5999755859375ZM12.8484244140625,7.5515756859375C13.0733894140625,7.7766117859375,13.1997724140625,8.0817837859375,13.1997724140625,8.3999757859375C13.1997724140625,8.7181677859375,13.0733894140625,9.0233401859375,12.8484244140625,9.2483753859375C12.8484244140625,9.2483753859375,11.2968244140625,10.7999758859375,11.2968244140625,10.7999758859375C11.2968244140625,10.7999758859375,20.4000244140625,10.7999758859375,20.4000244140625,10.7999758859375C20.7182654140625,10.7999758859375,21.0235444140625,10.9264077859375,21.2485444140625,11.151443985937501C21.4735454140625,11.3764919859375,21.6000254140625,11.6817121859375,21.6000254140625,11.9999761859375C21.6000254140625,12.3182401859375,21.4735454140625,12.6234597859375,21.2485444140625,12.8485078859375C21.0235444140625,13.0735435859375,20.7182654140625,13.1999759859375,20.4000244140625,13.1999759859375C20.4000244140625,13.1999759859375,11.2968244140625,13.1999759859375,11.2968244140625,13.1999759859375C11.2968244140625,13.1999759859375,12.8484244140625,14.7515765859375,12.8484244140625,14.7515765859375C13.0670164140625,14.9778955859375,13.1879654140625,15.2810155859375,13.1852284140625,15.5956555859375C13.1825044140625,15.9102965859375,13.0563014140625,16.211256585937498,12.8338084140625,16.433736585937503C12.6113164140625,16.6562165859375,12.3103447140625,16.7824565859375,11.9957046140625,16.785216585937498C11.6810646140625,16.7879765859375,11.3779449140625,16.6670155859375,11.1516247140625,16.448375585937498C11.1516247140625,16.448375585937498,7.5516248140625,12.8483752859375,7.5516248140625,12.8483752859375C7.3266601140625,12.6233405859375,7.2002764140625,12.3181676859375,7.2002764140625,11.9999761859375C7.2002764140625,11.6817836859375,7.3266601140625,11.376611685937501,7.5516248140625,11.1515760859375C7.5516248140625,11.1515760859375,11.1516247140625,7.5515756859375,11.1516247140625,7.5515756859375C11.3766603140625,7.3266117859375,11.6818323140625,7.2002277859375,12.0000248140625,7.2002277859375C12.3182163140625,7.2002277859375,12.6233894140625,7.3266117859375,12.8484244140625,7.5515756859375C12.8484244140625,7.5515756859375,12.8484244140625,7.5515756859375,12.8484244140625,7.5515756859375C12.8484244140625,7.5515756859375,12.8484244140625,7.5515756859375,12.8484244140625,7.5515756859375Z" fill-rule="evenodd" fill="#0A0A28" fill-opacity="1"/></g></svg>