<svg xmlns="http://www.w3.org/2000/svg" xmlns:xlink="http://www.w3.org/1999/xlink" fill="none" version="1.1" width="24" height="24" viewBox="0 0 24 24"><defs><clipPath id="master_svg0_3_1894"><rect x="0" y="0" width="24" height="24" rx="0"/></clipPath></defs><g clip-path="url(#master_svg0_3_1894)"><path d="M10.292890100000001,16.7071C10.6834202,17.0976,11.3165798,17.0976,11.7071104,16.7071C12.0976295,16.3166,12.0976295,15.6834,11.7071104,15.2929C11.7071104,15.2929,10.292890100000001,16.7071,10.292890100000001,16.7071C10.292890100000001,16.7071,10.292890100000001,16.7071,10.292890100000001,16.7071ZM7,12C7,12,6.2928901,11.292890100000001,6.2928901,11.292890100000001C5.9023699999999995,11.6834202,5.9023699999999995,12.3165798,6.2928901,12.7071104C6.2928901,12.7071104,7,12,7,12C7,12,7,12,7,12ZM11.7071104,8.707109899999999C12.0976295,8.3165798,12.0976295,7.6834199000000005,11.7071104,7.2928901C11.3165798,6.9023699999999995,10.6834202,6.9023699999999995,10.292890100000001,7.2928901C10.292890100000001,7.2928901,11.7071104,8.707109899999999,11.7071104,8.707109899999999C11.7071104,8.707109899999999,11.7071104,8.707109899999999,11.7071104,8.707109899999999ZM21,13C21.552299,13,22,12.55229,22,12C22,11.4477201,21.552299,11,21,11C21,11,21,13,21,13C21,13,21,13,21,13ZM17,16C17,15.4477,16.552300000000002,15,16,15C15.4477,15,15,15.4477,15,16C15,16,17,16,17,16C17,16,17,16,17,16ZM13,20C13,20,13,21,13,21C13,21,13,20,13,20C13,20,13,20,13,20ZM6,20C6,20,6,21,6,21C6,21,6,20,6,20C6,20,6,20,6,20ZM3,17C3,17,2,17,2,17C2,17,3,17,3,17C3,17,3,17,3,17ZM3,7C3,7,2,7,2,7C2,7,3,7,3,7C3,7,3,7,3,7ZM15,8C15,8.5522799,15.4477,9,16,9C16.552300000000002,9,17,8.5522799,17,8C17,8,15,8,15,8C15,8,15,8,15,8ZM11.7071104,15.2929C11.7071104,15.2929,7.7071099,11.292890100000001,7.7071099,11.292890100000001C7.7071099,11.292890100000001,6.2928901,12.7071104,6.2928901,12.7071104C6.2928901,12.7071104,10.292890100000001,16.7071,10.292890100000001,16.7071C10.292890100000001,16.7071,11.7071104,15.2929,11.7071104,15.2929C11.7071104,15.2929,11.7071104,15.2929,11.7071104,15.2929ZM7.7071099,12.7071104C7.7071099,12.7071104,11.7071104,8.707109899999999,11.7071104,8.707109899999999C11.7071104,8.707109899999999,10.292890100000001,7.2928901,10.292890100000001,7.2928901C10.292890100000001,7.2928901,6.2928901,11.292890100000001,6.2928901,11.292890100000001C6.2928901,11.292890100000001,7.7071099,12.7071104,7.7071099,12.7071104C7.7071099,12.7071104,7.7071099,12.7071104,7.7071099,12.7071104ZM7,13C7,13,21,13,21,13C21,13,21,11,21,11C21,11,7,11,7,11C7,11,7,13,7,13C7,13,7,13,7,13ZM15,16C15,16,15,17,15,17C15,17,17,17,17,17C17,17,17,16,17,16C17,16,15,16,15,16C15,16,15,16,15,16ZM15,17C15,17.5304,14.7893,18.039099999999998,14.4142,18.4142C14.4142,18.4142,15.8284,19.828400000000002,15.8284,19.828400000000002C16.5786,19.0783,17,18.0609,17,17C17,17,15,17,15,17C15,17,15,17,15,17ZM14.4142,18.4142C14.0391,18.7893,13.5304,19,13,19C13,19,13,21,13,21C14.0609,21,15.0783,20.5786,15.8284,19.828400000000002C15.8284,19.828400000000002,14.4142,18.4142,14.4142,18.4142C14.4142,18.4142,14.4142,18.4142,14.4142,18.4142ZM13,19C13,19,6,19,6,19C6,19,6,21,6,21C6,21,13,21,13,21C13,21,13,19,13,19C13,19,13,19,13,19ZM6,19C5.4695699,19,4.96086,18.7893,4.58579,18.4142C4.58579,18.4142,3.171573,19.828400000000002,3.171573,19.828400000000002C3.92171901,20.5786,4.9391299,21,6,21C6,21,6,19,6,19C6,19,6,19,6,19ZM4.58579,18.4142C4.21071,18.039099999999998,4,17.5304,4,17C4,17,2,17,2,17C2,18.0609,2.42142701,19.0783,3.171573,19.828400000000002C3.171573,19.828400000000002,4.58579,18.4142,4.58579,18.4142C4.58579,18.4142,4.58579,18.4142,4.58579,18.4142ZM4,17C4,17,4,7,4,7C4,7,2,7,2,7C2,7,2,17,2,17C2,17,4,17,4,17C4,17,4,17,4,17ZM4,7C4,6.4695699,4.21071,5.96086,4.58579,5.58579C4.58579,5.58579,3.171573,4.171573,3.171573,4.171573C2.42142802,4.921718,2,5.9391299,2,7C2,7,4,7,4,7C4,7,4,7,4,7ZM4.58579,5.58579C4.96086,5.21071,5.4695699,5,6,5C6,5,6,3,6,3C4.9391299,3,3.9217180000000003,3.42142802,3.171573,4.171573C3.171573,4.171573,4.58579,5.58579,4.58579,5.58579C4.58579,5.58579,4.58579,5.58579,4.58579,5.58579ZM6,5C6,5,13,5,13,5C13,5,13,3,13,3C13,3,6,3,6,3C6,3,6,5,6,5C6,5,6,5,6,5ZM13,5C13.5304,5,14.0391,5.21071,14.4142,5.58579C14.4142,5.58579,15.8284,4.171573,15.8284,4.171573C15.0783,3.42142701,14.0609,3,13,3C13,3,13,5,13,5C13,5,13,5,13,5ZM14.4142,5.58579C14.7893,5.96086,15,6.4695699,15,7C15,7,17,7,17,7C17,5.9391299,16.5786,4.92171901,15.8284,4.171573C15.8284,4.171573,14.4142,5.58579,14.4142,5.58579C14.4142,5.58579,14.4142,5.58579,14.4142,5.58579ZM15,7C15,7,15,8,15,8C15,8,17,8,17,8C17,8,17,7,17,7C17,7,15,7,15,7C15,7,15,7,15,7Z" fill="#0A0A28" fill-opacity="1"/></g></svg>