<svg xmlns="http://www.w3.org/2000/svg" xmlns:xlink="http://www.w3.org/1999/xlink" fill="none" version="1.1" width="24" height="24" viewBox="0 0 24 24"><defs><clipPath id="master_svg0_3_1956"><rect x="0" y="0" width="24" height="24" rx="0"/></clipPath></defs><g clip-path="url(#master_svg0_3_1956)"><path d="M3.599993896484375,3.5999755859375C3.281734766484375,3.5999755859375004,2.976509926484375,3.7264039959375,2.751465496484375,3.9514471859375C2.526422306484375,4.1764916159375,2.399993896484376,4.4817164559375,2.399993896484375,4.7999755859375C2.399993896484375,4.7999755859375,2.399993896484375,19.1999755859375,2.399993896484375,19.1999755859375C2.3999938964843754,19.518216585937502,2.526422306484375,19.8234955859375,2.751465496484375,20.0484965859375C2.976509926484375,20.2734965859375,3.281734766484375,20.3999765859375,3.599993896484375,20.3999765859375C3.918258096484375,20.3999765859375,4.223477996484375,20.2734965859375,4.448526096484375,20.0484965859375C4.673562096484375,19.8234955859375,4.799993996484375,19.518216585937502,4.799993996484375,19.1999755859375C4.799993996484375,19.1999755859375,4.799993996484375,4.7999755859375,4.799993996484375,4.7999755859375C4.799993996484375,4.4817164559375,4.673562096484375,4.1764916159375,4.448526096484375,3.9514471859375C4.223477996484375,3.7264039959375,3.918258096484375,3.599975585937501,3.599993896484375,3.5999755859375C3.599993896484375,3.5999755859375,3.599993896484375,3.5999755859375,3.599993896484375,3.5999755859375C3.599993896484375,3.5999755859375,3.599993896484375,3.5999755859375,3.599993896484375,3.5999755859375ZM15.951593896484376,14.7515765859375C15.732953896484375,14.9778955859375,15.611994896484376,15.2810155859375,15.614753896484375,15.5956555859375C15.617514896484375,15.9102965859375,15.743753896484375,16.211256585937498,15.966233896484376,16.433736585937503C16.188713896484373,16.6562165859375,16.489674896484374,16.7824565859375,16.804314896484374,16.785216585937498C17.118954896484375,16.7879765859375,17.422073896484378,16.6670155859375,17.648394896484376,16.448375585937498C17.648394896484376,16.448375585937498,21.248393896484377,12.8483752859375,21.248393896484377,12.8483752859375C21.473393896484374,12.6233405859375,21.599753896484376,12.3181676859375,21.599753896484376,11.9999761859375C21.599753896484376,11.6817836859375,21.473393896484374,11.376611685937501,21.248393896484377,11.1515760859375C21.248393896484377,11.1515760859375,17.648394896484376,7.5515756859375,17.648394896484376,7.5515756859375C17.537754896484373,7.4369637859375,17.405273896484374,7.3455476859375,17.258873896484374,7.282655985937501C17.112474896484375,7.2197637859375,16.955033896484373,7.1866557859375,16.795673896484374,7.1852757859375C16.636313896484374,7.1838955859375,16.478273896484374,7.2142555859375,16.330793896484373,7.2745916859375C16.183313896484375,7.3349275859375,16.049394896484372,7.424027685937499,15.936713896484376,7.5366956859375005C15.824034896484376,7.6493758859375,15.734994896484375,7.7833556859375,15.674633896484375,7.9308356859375C15.614273896484375,8.0783037859375,15.583914896484375,8.236319985937499,15.585234896484375,8.3956560859375C15.586674896484375,8.5549916859375,15.619794896484375,8.7124557859375,15.682674896484375,8.858855685937499C15.745553896484376,9.0052675859375,15.836994896484375,9.1376757859375,15.951593896484376,9.2483753859375C15.951593896484376,9.2483753859375,17.503194896484374,10.7999758859375,17.503194896484374,10.7999758859375C17.503194896484374,10.7999758859375,8.399993896484375,10.7999758859375,8.399993896484375,10.7999758859375C8.081729896484376,10.7999758859375,7.776510196484375,10.9264077859375,7.551462196484375,11.151443985937501C7.326425996484375,11.3764919859375,7.199994096484375,11.6817121859375,7.199994096484375,11.9999761859375C7.199994096484375,12.3182401859375,7.326425996484375,12.6234597859375,7.551462196484375,12.8485078859375C7.776510196484375,13.0735435859375,8.081729896484376,13.1999759859375,8.399993896484375,13.1999759859375C8.399993896484375,13.1999759859375,17.503194896484374,13.1999759859375,17.503194896484374,13.1999759859375C17.503194896484374,13.1999759859375,15.951593896484376,14.7515765859375,15.951593896484376,14.7515765859375C15.951593896484376,14.7515765859375,15.951593896484376,14.7515765859375,15.951593896484376,14.7515765859375C15.951593896484376,14.7515765859375,15.951593896484376,14.7515765859375,15.951593896484376,14.7515765859375Z" fill-rule="evenodd" fill="#0A0A28" fill-opacity="1"/></g></svg>