<svg xmlns="http://www.w3.org/2000/svg" xmlns:xlink="http://www.w3.org/1999/xlink" fill="none" version="1.1" width="24" height="24" viewBox="0 0 24 24"><defs><clipPath id="master_svg0_3_2374"><rect x="0" y="0" width="24" height="24" rx="0"/></clipPath></defs><g clip-path="url(#master_svg0_3_2374)"><path d="M16.2929,15.2929C15.9024,15.6834,15.9024,16.3166,16.2929,16.7071C16.6834,17.0976,17.3166,17.0976,17.7071,16.7071C17.7071,16.7071,16.2929,15.2929,16.2929,15.2929C16.2929,15.2929,16.2929,15.2929,16.2929,15.2929ZM21,12C21,12,21.7071,12.7071104,21.7071,12.7071104C22.097601,12.3165798,22.097601,11.6834202,21.7071,11.292890100000001C21.7071,11.292890100000001,21,12,21,12C21,12,21,12,21,12ZM17.7071,7.2928901C17.3166,6.9023699999999995,16.6834,6.9023699999999995,16.2929,7.2928901C15.9024,7.6834199000000005,15.9024,8.3165798,16.2929,8.707109899999999C16.2929,8.707109899999999,17.7071,7.2928901,17.7071,7.2928901C17.7071,7.2928901,17.7071,7.2928901,17.7071,7.2928901ZM7,11C6.4477201,11,6,11.4477201,6,12C6,12.55229,6.4477201,13,7,13C7,13,7,11,7,11C7,11,7,11,7,11ZM14,16C14,15.4477,13.5523,15,13,15C12.44771,15,12,15.4477,12,16C12,16,14,16,14,16C14,16,14,16,14,16ZM10,20C10,20,10,21,10,21C10,21,10,20,10,20C10,20,10,20,10,20ZM6,20C6,20,6,21,6,21C6,21,6,20,6,20C6,20,6,20,6,20ZM3,17C3,17,2,17,2,17C2,17,3,17,3,17C3,17,3,17,3,17ZM3,7C3,7,2,7,2,7C2,7,3,7,3,7C3,7,3,7,3,7ZM12,8C12,8.5522799,12.44771,9,13,9C13.5523,9,14,8.5522799,14,8C14,8,12,8,12,8C12,8,12,8,12,8ZM17.7071,16.7071C17.7071,16.7071,21.7071,12.7071104,21.7071,12.7071104C21.7071,12.7071104,20.2929,11.292890100000001,20.2929,11.292890100000001C20.2929,11.292890100000001,16.2929,15.2929,16.2929,15.2929C16.2929,15.2929,17.7071,16.7071,17.7071,16.7071C17.7071,16.7071,17.7071,16.7071,17.7071,16.7071ZM21.7071,11.292890100000001C21.7071,11.292890100000001,17.7071,7.2928901,17.7071,7.2928901C17.7071,7.2928901,16.2929,8.707109899999999,16.2929,8.707109899999999C16.2929,8.707109899999999,20.2929,12.7071104,20.2929,12.7071104C20.2929,12.7071104,21.7071,11.292890100000001,21.7071,11.292890100000001C21.7071,11.292890100000001,21.7071,11.292890100000001,21.7071,11.292890100000001ZM21,11C21,11,7,11,7,11C7,11,7,13,7,13C7,13,21,13,21,13C21,13,21,11,21,11C21,11,21,11,21,11ZM12,16C12,16,12,17,12,17C12,17,14,17,14,17C14,17,14,16,14,16C14,16,12,16,12,16C12,16,12,16,12,16ZM12,17C12,17.5304,11.7892904,18.039099999999998,11.4142103,18.4142C11.4142103,18.4142,12.8284302,19.828400000000002,12.8284302,19.828400000000002C13.5786,19.0783,14,18.0609,14,17C14,17,12,17,12,17C12,17,12,17,12,17ZM11.4142103,18.4142C11.0391397,18.7893,10.5304298,19,10,19C10,19,10,21,10,21C11.0608702,21,12.0782804,20.5786,12.8284302,19.828400000000002C12.8284302,19.828400000000002,11.4142103,18.4142,11.4142103,18.4142C11.4142103,18.4142,11.4142103,18.4142,11.4142103,18.4142ZM10,19C10,19,6,19,6,19C6,19,6,21,6,21C6,21,10,21,10,21C10,21,10,19,10,19C10,19,10,19,10,19ZM6,19C5.4695699,19,4.96086,18.7893,4.58579,18.4142C4.58579,18.4142,3.171573,19.828400000000002,3.171573,19.828400000000002C3.92171901,20.5786,4.9391299,21,6,21C6,21,6,19,6,19C6,19,6,19,6,19ZM4.58579,18.4142C4.21071,18.039099999999998,4,17.5304,4,17C4,17,2,17,2,17C2,18.0609,2.42142701,19.0783,3.171573,19.828400000000002C3.171573,19.828400000000002,4.58579,18.4142,4.58579,18.4142C4.58579,18.4142,4.58579,18.4142,4.58579,18.4142ZM4,17C4,17,4,7,4,7C4,7,2,7,2,7C2,7,2,17,2,17C2,17,4,17,4,17C4,17,4,17,4,17ZM4,7C4,6.4695699,4.21071,5.96086,4.58579,5.58579C4.58579,5.58579,3.171573,4.171573,3.171573,4.171573C2.42142802,4.921718,2,5.9391299,2,7C2,7,4,7,4,7C4,7,4,7,4,7ZM4.58579,5.58579C4.96086,5.21071,5.4695699,5,6,5C6,5,6,3,6,3C4.9391299,3,3.9217180000000003,3.42142802,3.171573,4.171573C3.171573,4.171573,4.58579,5.58579,4.58579,5.58579C4.58579,5.58579,4.58579,5.58579,4.58579,5.58579ZM6,5C6,5,10,5,10,5C10,5,10,3,10,3C10,3,6,3,6,3C6,3,6,5,6,5C6,5,6,5,6,5ZM10,5C10.5304298,5,11.0391397,5.21071,11.4142103,5.58579C11.4142103,5.58579,12.8284302,4.171573,12.8284302,4.171573C12.0782804,3.42142701,11.0608702,3,10,3C10,3,10,5,10,5C10,5,10,5,10,5ZM11.4142103,5.58579C11.7892904,5.96086,12,6.4695699,12,7C12,7,14,7,14,7C14,5.9391299,13.5786,4.92171901,12.8284302,4.171573C12.8284302,4.171573,11.4142103,5.58579,11.4142103,5.58579C11.4142103,5.58579,11.4142103,5.58579,11.4142103,5.58579ZM12,7C12,7,12,8,12,8C12,8,14,8,14,8C14,8,14,7,14,7C14,7,12,7,12,7C12,7,12,7,12,7Z" fill="#0A0A28" fill-opacity="1"/></g></svg>