<svg xmlns="http://www.w3.org/2000/svg" xmlns:xlink="http://www.w3.org/1999/xlink" fill="none" version="1.1" width="24" height="24" viewBox="0 0 24 24"><defs><clipPath id="master_svg0_3_2007"><rect x="0" y="0" width="24" height="24" rx="0"/></clipPath></defs><g clip-path="url(#master_svg0_3_2007)"><path d="M3.55470002,7.1679499C3.095171504,6.8616,2.47430199,6.9857700000000005,2.16794997,7.4453001C1.8616,7.9048300000000005,1.98577,8.5257001,2.44529998,8.8320501C2.44529998,8.8320501,3.55470002,7.1679499,3.55470002,7.1679499C3.55470002,7.1679499,3.55470002,7.1679499,3.55470002,7.1679499ZM10.8899999,13.2600002C10.8899999,13.2600002,11.4449997,12.428150200000001,11.4449997,12.428150200000001C11.4449997,12.428150200000001,11.4447002,12.4279499,11.4447002,12.4279499C11.4447002,12.4279499,10.8899999,13.2600002,10.8899999,13.2600002C10.8899999,13.2600002,10.8899999,13.2600002,10.8899999,13.2600002ZM13.11,13.2600002C13.11,13.2600002,12.5552998,12.4279499,12.5552998,12.4279499C12.5552998,12.4279499,12.5550003,12.428150200000001,12.5550003,12.428150200000001C12.5550003,12.428150200000001,13.11,13.2600002,13.11,13.2600002C13.11,13.2600002,13.11,13.2600002,13.11,13.2600002ZM21.554701,8.8320501C22.0142,8.5257001,22.138399,7.9048300000000005,21.8321,7.4453001C21.5257,6.9857700000000005,20.9048,6.8616,20.445299,7.1679499C20.445299,7.1679499,21.554701,8.8320501,21.554701,8.8320501C21.554701,8.8320501,21.554701,8.8320501,21.554701,8.8320501ZM19,5C19,5,19,4,19,4C19,4,19,5,19,5C19,5,19,5,19,5ZM5,5C5,5,5,4,5,4C5,4,5,5,5,5C5,5,5,5,5,5ZM3,7C3,7,2,7,2,7C2,7,3,7,3,7C3,7,3,7,3,7ZM3,17C3,17,2,17,2,17C2,17,3,17,3,17C3,17,3,17,3,17ZM2.44529998,8.8320501C2.44529998,8.8320501,10.3353,14.0920496,10.3353,14.0920496C10.3353,14.0920496,11.4447002,12.4279499,11.4447002,12.4279499C11.4447002,12.4279499,3.55470002,7.1679499,3.55470002,7.1679499C3.55470002,7.1679499,2.44529998,8.8320501,2.44529998,8.8320501C2.44529998,8.8320501,2.44529998,8.8320501,2.44529998,8.8320501ZM10.335,14.0918503C10.827990100000001,14.4207697,11.4073601,14.5963001,12,14.5963001C12,14.5963001,12,12.5963001,12,12.5963001C11.8024502,12.5963001,11.6093302,12.537789799999999,11.4449997,12.428150200000001C11.4449997,12.428150200000001,10.335,14.0918503,10.335,14.0918503C10.335,14.0918503,10.335,14.0918503,10.335,14.0918503ZM12,14.5963001C12.5926399,14.5963001,13.172,14.4207697,13.665,14.0918503C13.665,14.0918503,12.5550003,12.428150200000001,12.5550003,12.428150200000001C12.3906698,12.537789799999999,12.1975498,12.5963001,12,12.5963001C12,12.5963001,12,14.5963001,12,14.5963001C12,14.5963001,12,14.5963001,12,14.5963001ZM13.6647,14.0920496C13.6647,14.0920496,21.554701,8.8320501,21.554701,8.8320501C21.554701,8.8320501,20.445299,7.1679499,20.445299,7.1679499C20.445299,7.1679499,12.5552998,12.4279499,12.5552998,12.4279499C12.5552998,12.4279499,13.6647,14.0920496,13.6647,14.0920496C13.6647,14.0920496,13.6647,14.0920496,13.6647,14.0920496ZM5,20C5,20,19,20,19,20C19,20,19,18,19,18C19,18,5,18,5,18C5,18,5,20,5,20C5,20,5,20,5,20ZM19,20C19.7957,20,20.558701,19.6839,21.1213,19.121299999999998C21.1213,19.121299999999998,19.7071,17.7071,19.7071,17.7071C19.5196,17.8946,19.2652,18,19,18C19,18,19,20,19,20C19,20,19,20,19,20ZM21.1213,19.121299999999998C21.683901,18.5587,22,17.7957,22,17C22,17,20,17,20,17C20,17.2652,19.8946,17.5196,19.7071,17.7071C19.7071,17.7071,21.1213,19.121299999999998,21.1213,19.121299999999998C21.1213,19.121299999999998,21.1213,19.121299999999998,21.1213,19.121299999999998ZM22,17C22,17,22,7,22,7C22,7,20,7,20,7C20,7,20,17,20,17C20,17,22,17,22,17C22,17,22,17,22,17ZM22,7C22,6.20435,21.683901,5.44128799,21.1213,4.87868C21.1213,4.87868,19.7071,6.29289,19.7071,6.29289C19.8946,6.48043,20,6.73478,20,7C20,7,22,7,22,7C22,7,22,7,22,7ZM21.1213,4.87868C20.558701,4.31607002,19.7957,4,19,4C19,4,19,6,19,6C19.2652,6,19.5196,6.10536,19.7071,6.29289C19.7071,6.29289,21.1213,4.87868,21.1213,4.87868C21.1213,4.87868,21.1213,4.87868,21.1213,4.87868ZM19,4C19,4,5,4,5,4C5,4,5,6,5,6C5,6,19,6,19,6C19,6,19,4,19,4C19,4,19,4,19,4ZM5,4C4.20435,4,3.44128901,4.31607002,2.87868,4.87868C2.87868,4.87868,4.29289,6.29289,4.29289,6.29289C4.48043,6.10536,4.73478,6,5,6C5,6,5,4,5,4C5,4,5,4,5,4ZM2.87868,4.87868C2.3160700199999997,5.44128901,2,6.20435,2,7C2,7,4,7,4,7C4,6.73478,4.10536,6.48043,4.29289,6.29289C4.29289,6.29289,2.87868,4.87868,2.87868,4.87868C2.87868,4.87868,2.87868,4.87868,2.87868,4.87868ZM2,7C2,7,2,17,2,17C2,17,4,17,4,17C4,17,4,7,4,7C4,7,2,7,2,7C2,7,2,7,2,7ZM2,17C2,17.7956,2.3160700199999997,18.5587,2.87868,19.121299999999998C2.87868,19.121299999999998,4.29289,17.7071,4.29289,17.7071C4.10536,17.5196,4,17.2652,4,17C4,17,2,17,2,17C2,17,2,17,2,17ZM2.87868,19.121299999999998C3.44128799,19.6839,4.20435,20,5,20C5,20,5,18,5,18C4.73478,18,4.48043,17.8946,4.29289,17.7071C4.29289,17.7071,2.87868,19.121299999999998,2.87868,19.121299999999998C2.87868,19.121299999999998,2.87868,19.121299999999998,2.87868,19.121299999999998Z" fill="#0A0A28" fill-opacity="1"/></g></svg>