<svg xmlns="http://www.w3.org/2000/svg" xmlns:xlink="http://www.w3.org/1999/xlink" fill="none" version="1.1" width="24" height="24" viewBox="0 0 24 24"><defs><clipPath id="master_svg0_3_1711"><rect x="0" y="0" width="24" height="24" rx="0"/></clipPath></defs><g clip-path="url(#master_svg0_3_1711)"><path d="M2.403594970703125,7.06078789296875C2.403594970703125,7.06078789296875,11.999995270703126,11.858387992968751,11.999995270703126,11.858387992968751C11.999995270703126,11.858387992968751,21.596395970703124,7.06078789296875,21.596395970703124,7.06078789296875C21.560876970703124,6.44931579296875,21.292914970703126,5.87457349296875,20.847354970703126,5.45426023296875C20.401916970703127,5.03394581296875,19.812474970703125,4.79987549132875,19.199994970703123,4.79998783338883C19.199994970703123,4.79998783338883,4.799994970703125,4.79998783338883,4.799994970703125,4.79998783338883C4.187491070703125,4.79987549132875,3.598131370703125,5.03394581296875,3.152608570703125,5.45426023296875C2.707084570703125,5.87457349296875,2.439119890703125,6.44931579296875,2.403594970703125,7.06078789296875C2.403594970703125,7.06078789296875,2.403594970703125,7.06078789296875,2.403594970703125,7.06078789296875C2.403594970703125,7.06078789296875,2.403594970703125,7.06078789296875,2.403594970703125,7.06078789296875Z" fill="#0A0A28" fill-opacity="1"/><path d="M21.599994896484375,9.7415771484375C21.599994896484375,9.7415771484375,11.999994296484376,14.5415773484375,11.999994296484376,14.5415773484375C11.999994296484376,14.5415773484375,2.399993896484375,9.7415771484375,2.399993896484375,9.7415771484375C2.399993896484375,9.7415771484375,2.399993896484375,16.7999773484375,2.399993896484375,16.7999773484375C2.3999938964843754,17.4364933484375,2.652850716484375,18.0469455484375,3.102937106484375,18.4970293484375C3.553024796484375,18.9471254484375,4.163477996484375,19.1999778484375,4.799993996484375,19.1999778484375C4.799993996484375,19.1999778484375,19.199994896484377,19.1999778484375,19.199994896484377,19.1999778484375C19.836474896484376,19.1999778484375,20.446914896484376,18.9471254484375,20.897033896484373,18.4970293484375C21.347154896484376,18.0469455484375,21.599994896484375,17.4364933484375,21.599994896484375,16.7999773484375C21.599994896484375,16.7999773484375,21.599994896484375,9.7415771484375,21.599994896484375,9.7415771484375C21.599994896484375,9.7415771484375,21.599994896484375,9.7415771484375,21.599994896484375,9.7415771484375Z" fill="#0A0A28" fill-opacity="1"/></g></svg>