<svg xmlns="http://www.w3.org/2000/svg" xmlns:xlink="http://www.w3.org/1999/xlink" fill="none" version="1.1" width="24" height="24" viewBox="0 0 24 24"><defs><clipPath id="master_svg0_3_2307"><rect x="0" y="0" width="24" height="24" rx="0"/></clipPath></defs><g clip-path="url(#master_svg0_3_2307)"><path d="M3.000000022398799,19.000000590133666C3.000000022398799,19.000000590133666,2,19.000000590133666,2,19.000000590133666C2,19.000000590133666,3.000000022398799,19.000000590133666,3.000000022398799,19.000000590133666C3.000000022398799,19.000000590133666,3.000000022398799,19.000000590133666,3.000000022398799,19.000000590133666ZM3.000000022398799,10.070000390133668C3.000000022398799,10.070000390133668,4,10.070000390133668,4,10.070000390133668C4,10.070000390133668,4,10.069850690133666,4,10.069850690133666C4,10.069850690133666,3.000000022398799,10.070000390133668,3.000000022398799,10.070000390133668C3.000000022398799,10.070000390133668,3.000000022398799,10.070000390133668,3.000000022398799,10.070000390133668ZM3.8899999899999997,8.406000390133666C3.8899999899999997,8.406000390133666,3.33535501,7.573910490133667,3.33535501,7.573910490133667C3.33535501,7.573910490133667,3.33500001,7.574150790133667,3.33500001,7.574150790133667C3.33500001,7.574150790133667,3.8899999899999997,8.406000390133666,3.8899999899999997,8.406000390133666C3.8899999899999997,8.406000390133666,3.8899999899999997,8.406000390133666,3.8899999899999997,8.406000390133666ZM10.8899999,3.739999590133667C10.8899999,3.739999590133667,11.4446497,4.5720905901336675,11.4446497,4.5720905901336675C11.4446497,4.5720905901336675,11.4449997,4.5718504901336665,11.4449997,4.5718504901336665C11.4449997,4.5718504901336665,10.8899999,3.739999590133667,10.8899999,3.739999590133667C10.8899999,3.739999590133667,10.8899999,3.739999590133667,10.8899999,3.739999590133667ZM12,3.403700590133667C12,3.403700590133667,12,2.403700590133667,12,2.403700590133667C12,2.403700590133667,12,3.403700590133667,12,3.403700590133667C12,3.403700590133667,12,3.403700590133667,12,3.403700590133667ZM13.11,3.739999590133667C13.11,3.739999590133667,12.5550003,4.5718504901336665,12.5550003,4.5718504901336665C12.5550003,4.5718504901336665,12.5553503,4.5720905901336675,12.5553503,4.5720905901336675C12.5553503,4.5720905901336675,13.11,3.739999590133667,13.11,3.739999590133667C13.11,3.739999590133667,13.11,3.739999590133667,13.11,3.739999590133667ZM20.110001,8.406000390133666C20.110001,8.406000390133666,20.665001,7.574150790133667,20.665001,7.574150790133667C20.665001,7.574150790133667,20.6646,7.573910490133667,20.6646,7.573910490133667C20.6646,7.573910490133667,20.110001,8.406000390133666,20.110001,8.406000390133666C20.110001,8.406000390133666,20.110001,8.406000390133666,20.110001,8.406000390133666ZM21,10.070000390133668C21,10.070000390133668,20,10.069850690133666,20,10.069850690133666C20,10.069850690133666,20,10.070000390133668,20,10.070000390133668C20,10.070000390133668,21,10.070000390133668,21,10.070000390133668C21,10.070000390133668,21,10.070000390133668,21,10.070000390133668ZM3.55470002,9.167950390133667C3.095171504,8.861600590133667,2.47430199,8.985770490133667,2.16794997,9.445300790133668C1.8616,9.904830690133668,1.98577,10.525700790133666,2.44529998,10.832050590133667C2.44529998,10.832050590133667,3.55470002,9.167950390133667,3.55470002,9.167950390133667C3.55470002,9.167950390133667,3.55470002,9.167950390133667,3.55470002,9.167950390133667ZM21.554701,10.832050590133667C22.0142,10.525700790133666,22.138399,9.904830690133668,21.8321,9.445300790133668C21.5257,8.985770490133667,20.9048,8.861600590133667,20.445299,9.167950390133667C20.445299,9.167950390133667,21.554701,10.832050590133667,21.554701,10.832050590133667C21.554701,10.832050590133667,21.554701,10.832050590133667,21.554701,10.832050590133667ZM13.11,15.260000590133666C13.11,15.260000590133666,12.5552998,14.427900590133667,12.5552998,14.427900590133667C12.5552998,14.427900590133667,12.5550003,14.428100590133667,12.5550003,14.428100590133667C12.5550003,14.428100590133667,13.11,15.260000590133666,13.11,15.260000590133666C13.11,15.260000590133666,13.11,15.260000590133666,13.11,15.260000590133666ZM10.8899999,15.260000590133666C10.8899999,15.260000590133666,11.4449997,14.428100590133667,11.4449997,14.428100590133667C11.4449997,14.428100590133667,11.4447002,14.427900590133667,11.4447002,14.427900590133667C11.4447002,14.427900590133667,10.8899999,15.260000590133666,10.8899999,15.260000590133666C10.8899999,15.260000590133666,10.8899999,15.260000590133666,10.8899999,15.260000590133666ZM4,19.000000590133666C4,19.000000590133666,4,10.070000390133668,4,10.070000390133668C4,10.070000390133668,2,10.070000390133668,2,10.070000390133668C2,10.070000390133668,2,19.000000590133666,2,19.000000590133666C2,19.000000590133666,4,19.000000590133666,4,19.000000590133666C4,19.000000590133666,4,19.000000590133666,4,19.000000590133666ZM4,10.069850690133666C3.99997503,9.905260790133667,4.04058,9.743200590133668,4.1182099999999995,9.598070390133667C4.1182099999999995,9.598070390133667,2.35461497,8.654800690133667,2.35461497,8.654800690133667C2.12173402,9.090210690133667,1.99993,9.576370490133666,2,10.070150590133668C2,10.070150590133668,4,10.069850690133666,4,10.069850690133666C4,10.069850690133666,4,10.069850690133666,4,10.069850690133666ZM4.1182099999999995,9.598070390133667C4.19583,9.452930690133666,4.30808,9.329200490133667,4.4450001,9.237850390133666C4.4450001,9.237850390133666,3.33500001,7.574150790133667,3.33500001,7.574150790133667C2.924252197,7.848190590133667,2.587497,8.219390590133667,2.35461497,8.654800690133667C2.35461497,8.654800690133667,4.1182099999999995,9.598070390133667,4.1182099999999995,9.598070390133667C4.1182099999999995,9.598070390133667,4.1182099999999995,9.598070390133667,4.1182099999999995,9.598070390133667ZM4.4446501000000005,9.238090790133667C4.4446501000000005,9.238090790133667,11.4446497,4.5720905901336675,11.4446497,4.5720905901336675C11.4446497,4.5720905901336675,10.33535,2.907913600133667,10.33535,2.907913600133667C10.33535,2.907913600133667,3.33535501,7.573910490133667,3.33535501,7.573910490133667C3.33535501,7.573910490133667,4.4446501000000005,9.238090790133667,4.4446501000000005,9.238090790133667C4.4446501000000005,9.238090790133667,4.4446501000000005,9.238090790133667,4.4446501000000005,9.238090790133667ZM11.4449997,4.5718504901336665C11.6093302,4.462210490133667,11.8024502,4.403700590133667,12,4.403700590133667C12,4.403700590133667,12,2.403700590133667,12,2.403700590133667C11.4073601,2.403700590133667,10.827990100000001,2.579232570133667,10.335,2.908149600133667C10.335,2.908149600133667,11.4449997,4.5718504901336665,11.4449997,4.5718504901336665C11.4449997,4.5718504901336665,11.4449997,4.5718504901336665,11.4449997,4.5718504901336665ZM12,4.403700590133667C12.1975498,4.403700590133667,12.3906698,4.462210490133667,12.5550003,4.5718504901336665C12.5550003,4.5718504901336665,13.665,2.908149600133667,13.665,2.908149600133667C13.172,2.579232570133667,12.5926399,2.403700590133667,12,2.403700590133667C12,2.403700590133667,12,4.403700590133667,12,4.403700590133667C12,4.403700590133667,12,4.403700590133667,12,4.403700590133667ZM12.5553503,4.5720905901336675C12.5553503,4.5720905901336675,19.555401,9.238090790133667,19.555401,9.238090790133667C19.555401,9.238090790133667,20.6646,7.573910490133667,20.6646,7.573910490133667C20.6646,7.573910490133667,13.6646,2.907912580133667,13.6646,2.907912580133667C13.6646,2.907912580133667,12.5553503,4.5720905901336675,12.5553503,4.5720905901336675C12.5553503,4.5720905901336675,12.5553503,4.5720905901336675,12.5553503,4.5720905901336675ZM19.555,9.237850390133666C19.6919,9.329200490133667,19.804199,9.452930690133666,19.8818,9.598070390133667C19.8818,9.598070390133667,21.645399,8.654800690133667,21.645399,8.654800690133667C21.4125,8.219390590133667,21.0758,7.848200590133667,20.665001,7.574150790133667C20.665001,7.574150790133667,19.555,9.237850390133666,19.555,9.237850390133666C19.555,9.237850390133666,19.555,9.237850390133666,19.555,9.237850390133666ZM19.8818,9.598070390133667C19.9594,9.743200590133668,20,9.905260790133667,20,10.069850690133666C20,10.069850690133666,22,10.070150590133668,22,10.070150590133668C22.000099,9.576370490133666,21.8783,9.090210690133667,21.645399,8.654800690133667C21.645399,8.654800690133667,19.8818,9.598070390133667,19.8818,9.598070390133667C19.8818,9.598070390133667,19.8818,9.598070390133667,19.8818,9.598070390133667ZM20,10.070000390133668C20,10.070000390133668,20,19.000000590133666,20,19.000000590133666C20,19.000000590133666,22,19.000000590133666,22,19.000000590133666C22,19.000000590133666,22,10.070000390133668,22,10.070000390133668C22,10.070000390133668,20,10.070000390133668,20,10.070000390133668C20,10.070000390133668,20,10.070000390133668,20,10.070000390133668ZM2,19.000000590133666C2,19.795599590133666,2.3160700199999997,20.558701590133666,2.87868,21.121300590133668C2.87868,21.121300590133668,4.29289,19.707100590133667,4.29289,19.707100590133667C4.10536,19.519600590133667,4,19.265200590133666,4,19.000000590133666C4,19.000000590133666,2,19.000000590133666,2,19.000000590133666C2,19.000000590133666,2,19.000000590133666,2,19.000000590133666ZM2.87868,21.121300590133668C3.44128799,21.683899590133667,4.20435,22.000000590133666,5,22.000000590133666C5,22.000000590133666,5,20.000000590133666,5,20.000000590133666C4.73478,20.000000590133666,4.48043,19.894600590133667,4.29289,19.707100590133667C4.29289,19.707100590133667,2.87868,21.121300590133668,2.87868,21.121300590133668C2.87868,21.121300590133668,2.87868,21.121300590133668,2.87868,21.121300590133668ZM5,22.000000590133666C5,22.000000590133666,19,22.000000590133666,19,22.000000590133666C19,22.000000590133666,19,20.000000590133666,19,20.000000590133666C19,20.000000590133666,5,20.000000590133666,5,20.000000590133666C5,20.000000590133666,5,22.000000590133666,5,22.000000590133666C5,22.000000590133666,5,22.000000590133666,5,22.000000590133666ZM19,22.000000590133666C19.7957,22.000000590133666,20.558701,21.683899590133667,21.1213,21.121300590133668C21.1213,21.121300590133668,19.7071,19.707100590133667,19.7071,19.707100590133667C19.5196,19.894600590133667,19.2652,20.000000590133666,19,20.000000590133666C19,20.000000590133666,19,22.000000590133666,19,22.000000590133666C19,22.000000590133666,19,22.000000590133666,19,22.000000590133666ZM21.1213,21.121300590133668C21.683901,20.558701590133666,22,19.795599590133666,22,19.000000590133666C22,19.000000590133666,20,19.000000590133666,20,19.000000590133666C20,19.265200590133666,19.8946,19.519600590133667,19.7071,19.707100590133667C19.7071,19.707100590133667,21.1213,21.121300590133668,21.1213,21.121300590133668C21.1213,21.121300590133668,21.1213,21.121300590133668,21.1213,21.121300590133668ZM3.55470002,19.832001590133668C3.55470002,19.832001590133668,10.3046999,15.332000590133667,10.3046999,15.332000590133667C10.3046999,15.332000590133667,9.1953001,13.667900590133668,9.1953001,13.667900590133668C9.1953001,13.667900590133668,2.44529998,18.16790059013367,2.44529998,18.16790059013367C2.44529998,18.16790059013367,3.55470002,19.832001590133668,3.55470002,19.832001590133668C3.55470002,19.832001590133668,3.55470002,19.832001590133668,3.55470002,19.832001590133668ZM21.554701,18.16790059013367C21.554701,18.16790059013367,14.8047,13.667900590133668,14.8047,13.667900590133668C14.8047,13.667900590133668,13.6953,15.332000590133667,13.6953,15.332000590133667C13.6953,15.332000590133667,20.445299,19.832001590133668,20.445299,19.832001590133668C20.445299,19.832001590133668,21.554701,18.16790059013367,21.554701,18.16790059013367C21.554701,18.16790059013367,21.554701,18.16790059013367,21.554701,18.16790059013367ZM2.44529998,10.832050590133667C2.44529998,10.832050590133667,9.1953001,15.332000590133667,9.1953001,15.332000590133667C9.1953001,15.332000590133667,10.3046999,13.667900590133668,10.3046999,13.667900590133668C10.3046999,13.667900590133668,3.55470002,9.167950390133667,3.55470002,9.167950390133667C3.55470002,9.167950390133667,2.44529998,10.832050590133667,2.44529998,10.832050590133667C2.44529998,10.832050590133667,2.44529998,10.832050590133667,2.44529998,10.832050590133667ZM20.445299,9.167950390133667C20.445299,9.167950390133667,13.6953,13.667900590133668,13.6953,13.667900590133668C13.6953,13.667900590133668,14.8047,15.332000590133667,14.8047,15.332000590133667C14.8047,15.332000590133667,21.554701,10.832050590133667,21.554701,10.832050590133667C21.554701,10.832050590133667,20.445299,9.167950390133667,20.445299,9.167950390133667C20.445299,9.167950390133667,20.445299,9.167950390133667,20.445299,9.167950390133667ZM13.6953,13.667900590133668C13.6953,13.667900590133668,12.5552998,14.427900590133667,12.5552998,14.427900590133667C12.5552998,14.427900590133667,13.6647,16.092000590133665,13.6647,16.092000590133665C13.6647,16.092000590133665,14.8047,15.332000590133667,14.8047,15.332000590133667C14.8047,15.332000590133667,13.6953,13.667900590133668,13.6953,13.667900590133668C13.6953,13.667900590133668,13.6953,13.667900590133668,13.6953,13.667900590133668ZM12.5550003,14.428100590133667C12.3906698,14.537800590133667,12.1975498,14.596300590133668,12,14.596300590133668C12,14.596300590133668,12,16.596300590133666,12,16.596300590133666C12.5926399,16.596300590133666,13.172,16.420800590133666,13.665,16.091800590133666C13.665,16.091800590133666,12.5550003,14.428100590133667,12.5550003,14.428100590133667C12.5550003,14.428100590133667,12.5550003,14.428100590133667,12.5550003,14.428100590133667ZM12,14.596300590133668C11.8024502,14.596300590133668,11.6093302,14.537800590133667,11.4449997,14.428100590133667C11.4449997,14.428100590133667,10.335,16.091800590133666,10.335,16.091800590133666C10.827990100000001,16.420800590133666,11.4073601,16.596300590133666,12,16.596300590133666C12,16.596300590133666,12,14.596300590133668,12,14.596300590133668C12,14.596300590133668,12,14.596300590133668,12,14.596300590133668ZM11.4447002,14.427900590133667C11.4447002,14.427900590133667,10.3046999,13.667900590133668,10.3046999,13.667900590133668C10.3046999,13.667900590133668,9.1953001,15.332000590133667,9.1953001,15.332000590133667C9.1953001,15.332000590133667,10.3353,16.092000590133665,10.3353,16.092000590133665C10.3353,16.092000590133665,11.4447002,14.427900590133667,11.4447002,14.427900590133667C11.4447002,14.427900590133667,11.4447002,14.427900590133667,11.4447002,14.427900590133667Z" fill="#0A0A28" fill-opacity="1"/></g></svg>