<svg xmlns="http://www.w3.org/2000/svg" xmlns:xlink="http://www.w3.org/1999/xlink" fill="none" version="1.1" width="24" height="24" viewBox="0 0 24 24"><defs><clipPath id="master_svg0_3_1510"><rect x="0" y="0" width="24" height="24" rx="0"/></clipPath></defs><g clip-path="url(#master_svg0_3_1510)"><path d="M3.527993896484375,7.69438984375C3.1828139464843748,7.91013814375,2.898176346484375,8.21012594375,2.700849506484375,8.56615404375C2.503523786484375,8.92218204375,2.399992936457925,9.32253794375,2.399993896491052,9.72958994375C2.399993896491052,9.72958994375,2.399993896491052,19.19999084375,2.399993896491052,19.19999084375C2.3999938964910523,19.83647184375,2.652850716484375,20.44691084375,3.102937106484375,20.89702984375C3.553024796484375,21.34715084375,4.163477996484375,21.59999084375,4.799993996484375,21.59999084375C4.799993996484375,21.59999084375,19.199994896484377,21.59999084375,19.199994896484377,21.59999084375C19.836474896484376,21.59999084375,20.446914896484376,21.34715084375,20.897033896484373,20.89702984375C21.347154896484376,20.44691084375,21.599994896484375,19.83647184375,21.599994896484375,19.19999084375C21.599994896484375,19.19999084375,21.599994896484375,9.72958994375,21.599994896484375,9.72958994375C21.599994896484375,9.32253794375,21.496434896484374,8.92218204375,21.299153896484373,8.56615404375C21.101754896484376,8.21012594375,20.817113896484376,7.91013814375,20.471994896484375,7.69438984375C20.471994896484375,7.69438984375,13.271994896484374,3.19439584375,13.271994896484374,3.19439584375C12.890561896484375,2.95599664375,12.449802896484375,2.8295898437499996,11.999994296484376,2.82958984375C11.550186196484376,2.82958984375,11.109426496484375,2.95599664375,10.727993996484376,3.19439584375C10.727993996484376,3.19439584375,3.527993896484375,7.69438984375,3.527993896484375,7.69438984375C3.527993896484375,7.69438984375,3.527993896484375,7.69438984375,3.527993896484375,7.69438984375C3.527993896484375,7.69438984375,3.527993896484375,7.69438984375,3.527993896484375,7.69438984375ZM6.665994196484375,10.60200164375C6.534882096484375,10.51453404375,6.387821896484375,10.45375394375,6.233226096484374,10.42313004375C6.078630196484375,10.39249424375,5.919510096484375,10.39262584375,5.764949996484376,10.42349004375C5.610401896484375,10.45435424375,5.463437996484375,10.515362243750001,5.332457996484375,10.60302214375C5.201477996484375,10.69068194375,5.089050096484375,10.80329034375,5.001594096484375,10.93440244375C4.9141377964843755,11.06551364375,4.853357996484375,11.21256164375,4.8227219964843755,11.36715884375C4.792097996484375,11.52176664375,4.792217996484375,11.68088624375,4.823081996484375,11.83543394375C4.885422196484376,12.14757824375,5.069201896484374,12.42216204375,5.333993896484375,12.59879014375C5.333993896484375,12.59879014375,11.333994896484375,16.59839084375,11.333994896484375,16.59839084375C11.531190896484375,16.729910843749998,11.762934696484376,16.80023084375,11.999994296484376,16.80023084375C12.237053896484374,16.80023084375,12.468797896484375,16.729910843749998,12.665994896484374,16.59839084375C12.665994896484374,16.59839084375,18.665994896484374,12.59879014375,18.665994896484374,12.59879014375C18.930833896484376,12.42216204375,19.114553896484374,12.14757824375,19.176953896484374,11.83543394375C19.239234896484376,11.52330204375,19.175035896484374,11.19919394375,18.998393896484377,10.93440244375C18.821754896484375,10.66961004375,18.547195896484375,10.48582984375,18.235073896484373,10.42349004375C17.922953896484373,10.36115024375,17.598833896484376,10.42536214375,17.333993896484372,10.60200164375C17.333993896484372,10.60200164375,11.999994296484376,14.15760184375,11.999994296484376,14.15760184375C11.999994296484376,14.15760184375,6.665994196484375,10.60200164375,6.665994196484375,10.60200164375C6.665994196484375,10.60200164375,6.665994196484375,10.60200164375,6.665994196484375,10.60200164375Z" fill-rule="evenodd" fill="#0A0A28" fill-opacity="1"/></g></svg>