<svg xmlns="http://www.w3.org/2000/svg" xmlns:xlink="http://www.w3.org/1999/xlink" fill="none" version="1.1" width="24" height="24" viewBox="0 0 24 24"><defs><clipPath id="master_svg0_3_2346"><rect x="0" y="0" width="24" height="24" rx="0"/></clipPath></defs><g clip-path="url(#master_svg0_3_2346)"><path d="M9,20C9,20,8.5527201,20.8944,8.5527201,20.8944C8.83426,21.0352,9.1656599,21.0352,9.4472098,20.8944C9.4472098,20.8944,9,20,9,20C9,20,9,20,9,20ZM3.55299997,17.276C3.55299997,17.276,4.00028,16.3816,4.00028,16.3816C4.00028,16.3816,4,16.381500000000003,4,16.381500000000003C4,16.381500000000003,3.55299997,17.276,3.55299997,17.276C3.55299997,17.276,3.55299997,17.276,3.55299997,17.276ZM3,16.381999999999998C3,16.381999999999998,2,16.381999999999998,2,16.381999999999998C2,16.381999999999998,2,16.3825,2,16.3825C2,16.3825,3,16.381999999999998,3,16.381999999999998C3,16.381999999999998,3,16.381999999999998,3,16.381999999999998ZM3,5.618C3,5.618,2,5.61747,2,5.61747C2,5.61747,2,5.618,2,5.618C2,5.618,3,5.618,3,5.618C3,5.618,3,5.618,3,5.618ZM4.447,4.72399998C4.447,4.72399998,4.8941300000000005,3.829533,4.8941300000000005,3.829533C4.8941300000000005,3.829533,4.8940000999999995,3.829466,4.8940000999999995,3.829466C4.8940000999999995,3.829466,4.447,4.72399998,4.447,4.72399998C4.447,4.72399998,4.447,4.72399998,4.447,4.72399998ZM19.552999,19.276C19.552999,19.276,19.1059,20.1705,19.1059,20.1705C19.1059,20.1705,19.106001,20.1705,19.106001,20.1705C19.106001,20.1705,19.552999,19.276,19.552999,19.276C19.552999,19.276,19.552999,19.276,19.552999,19.276ZM21,18.381999999999998C21,18.381999999999998,22,18.3825,22,18.3825C22,18.3825,22,18.381999999999998,22,18.381999999999998C22,18.381999999999998,21,18.381999999999998,21,18.381999999999998C21,18.381999999999998,21,18.381999999999998,21,18.381999999999998ZM21,7.618C21,7.618,22,7.618,22,7.618C22,7.618,22,7.61747,22,7.61747C22,7.61747,21,7.618,21,7.618C21,7.618,21,7.618,21,7.618ZM20.447001,6.724C20.447001,6.724,19.999701,7.6183901,19.999701,7.6183901C19.999701,7.6183901,20,7.61853,20,7.61853C20,7.61853,20.447001,6.724,20.447001,6.724C20.447001,6.724,20.447001,6.724,20.447001,6.724ZM15,4C15,4,15.4473,3.1056060199999997,15.4473,3.1056060199999997C15.1657,2.96481,14.8343,2.9648000000000003,14.5528,3.105573C14.5528,3.105573,15,4,15,4C15,4,15,4,15,4ZM9.4472799,19.105600000000003C9.4472799,19.105600000000003,4.00028,16.3816,4.00028,16.3816C4.00028,16.3816,3.105721,18.1704,3.105721,18.1704C3.105721,18.1704,8.5527201,20.8944,8.5527201,20.8944C8.5527201,20.8944,9.4472799,19.105600000000003,9.4472799,19.105600000000003C9.4472799,19.105600000000003,9.4472799,19.105600000000003,9.4472799,19.105600000000003ZM4,16.381500000000003C4,16.381500000000003,4,16.381500000000003,4,16.381500000000003C4,16.381500000000003,2.29910499,17.4336,2.29910499,17.4336C2.49444503,17.7494,2.77384099,18.0046,3.106,18.1705C3.106,18.1705,4,16.381500000000003,4,16.381500000000003C4,16.381500000000003,4,16.381500000000003,4,16.381500000000003ZM4,16.381500000000003C4,16.381500000000003,4,16.381500000000003,4,16.381500000000003C4,16.381500000000003,2,16.3825,2,16.3825C2.00019801,16.7539,2.10376602,17.117800000000003,2.29910499,17.4336C2.29910499,17.4336,4,16.381500000000003,4,16.381500000000003C4,16.381500000000003,4,16.381500000000003,4,16.381500000000003ZM4,16.381999999999998C4,16.381999999999998,4,5.618,4,5.618C4,5.618,2,5.618,2,5.618C2,5.618,2,16.381999999999998,2,16.381999999999998C2,16.381999999999998,4,16.381999999999998,4,16.381999999999998C4,16.381999999999998,4,16.381999999999998,4,16.381999999999998ZM4,5.61853C4,5.61853,4,5.61853,4,5.61853C4,5.61853,2.253488,4.64401001,2.253488,4.64401001C2.0874379899999997,4.94160002,2.00018197,5.27668,2,5.61747C2,5.61747,4,5.61853,4,5.61853C4,5.61853,4,5.61853,4,5.61853ZM4,5.61853C4,5.61853,4,5.61853,4,5.61853C4,5.61853,2.948788799,3.917077199,2.948788799,3.917077199C2.6588760000000002,4.096194103,2.41953897,4.34641901,2.253488,4.64401001C2.253488,4.64401001,4,5.61853,4,5.61853C4,5.61853,4,5.61853,4,5.61853ZM4,5.61853C4,5.61853,4,5.61853,4,5.61853C4,5.61853,3.91001201,3.62055901,3.91001201,3.62055901C3.5695740000000002,3.635892,3.238701,3.73796099,2.948788799,3.917077199C2.948788799,3.917077199,4,5.61853,4,5.61853C4,5.61853,4,5.61853,4,5.61853ZM4,5.61853C4,5.61853,4,5.61853,4,5.61853C4,5.61853,4.8940000999999995,3.829466,4.8940000999999995,3.829466C4.58916,3.67713699,4.25045,3.60522601,3.91001201,3.62055901C3.91001201,3.62055901,4,5.61853,4,5.61853C4,5.61853,4,5.61853,4,5.61853ZM3.999865,5.61847C3.999865,5.61847,8.5528698,7.89447,8.5528698,7.89447C8.5528698,7.89447,9.4471302,6.10553,9.4471302,6.10553C9.4471302,6.10553,4.8941300000000005,3.82953399,4.8941300000000005,3.82953399C4.8941300000000005,3.82953399,3.999865,5.61847,3.999865,5.61847C3.999865,5.61847,3.999865,5.61847,3.999865,5.61847ZM8,7C8,7,8,20,8,20C8,20,10,20,10,20C10,20,10,7,10,7C10,7,8,7,8,7C8,7,8,7,8,7ZM9.4472098,20.8944C9.4472098,20.8944,15.4472,17.894399999999997,15.4472,17.894399999999997C15.4472,17.894399999999997,14.5528,16.105600000000003,14.5528,16.105600000000003C14.5528,16.105600000000003,8.5527902,19.105600000000003,8.5527902,19.105600000000003C8.5527902,19.105600000000003,9.4472098,20.8944,9.4472098,20.8944C9.4472098,20.8944,9.4472098,20.8944,9.4472098,20.8944ZM14.5529,17.8945C14.5529,17.8945,19.1059,20.1705,19.1059,20.1705C19.1059,20.1705,20.000099,18.381500000000003,20.000099,18.381500000000003C20.000099,18.381500000000003,15.4471,16.1055,15.4471,16.1055C15.4471,16.1055,14.5529,17.8945,14.5529,17.8945C14.5529,17.8945,14.5529,17.8945,14.5529,17.8945ZM19.106001,20.1705C19.410801,20.322901,19.7495,20.3948,20.09,20.3794C20.09,20.3794,20,18.381500000000003,20,18.381500000000003C20,18.381500000000003,20,18.381500000000003,20,18.381500000000003C20,18.381500000000003,19.106001,20.1705,19.106001,20.1705C19.106001,20.1705,19.106001,20.1705,19.106001,20.1705ZM20.09,20.3794C20.430401,20.3641,20.761299,20.261999,21.051201,20.082899C21.051201,20.082899,20,18.381500000000003,20,18.381500000000003C20,18.381500000000003,20,18.381500000000003,20,18.381500000000003C20,18.381500000000003,20.09,20.3794,20.09,20.3794C20.09,20.3794,20.09,20.3794,20.09,20.3794ZM21.051201,20.082899C21.341101,19.9038,21.5805,19.6536,21.7465,19.356C21.7465,19.356,20,18.381500000000003,20,18.381500000000003C20,18.381500000000003,20,18.381500000000003,20,18.381500000000003C20,18.381500000000003,21.051201,20.082899,21.051201,20.082899C21.051201,20.082899,21.051201,20.082899,21.051201,20.082899ZM21.7465,19.356C21.9126,19.0584,21.9998,18.723300000000002,22,18.3825C22,18.3825,20,18.381500000000003,20,18.381500000000003C20,18.381500000000003,20,18.381500000000003,20,18.381500000000003C20,18.381500000000003,21.7465,19.356,21.7465,19.356C21.7465,19.356,21.7465,19.356,21.7465,19.356ZM22,18.381999999999998C22,18.381999999999998,22,7.618,22,7.618C22,7.618,20,7.618,20,7.618C20,7.618,20,18.381999999999998,20,18.381999999999998C20,18.381999999999998,22,18.381999999999998,22,18.381999999999998C22,18.381999999999998,22,18.381999999999998,22,18.381999999999998ZM22,7.61747C21.9998,7.24615,21.8962,6.882210000000001,21.700899,6.566410100000001C21.700899,6.566410100000001,20,7.61853,20,7.61853C20,7.61853,20,7.61853,20,7.61853C20,7.61853,22,7.61747,22,7.61747C22,7.61747,22,7.61747,22,7.61747ZM21.700899,6.566410100000001C21.5056,6.2506199,21.2262,5.99545,20.893999,5.82947C20.893999,5.82947,20,7.61853,20,7.61853C20,7.61853,20,7.61853,20,7.61853C20,7.61853,21.700899,6.566410100000001,21.700899,6.566410100000001C21.700899,6.566410100000001,21.700899,6.566410100000001,21.700899,6.566410100000001ZM20.8943,5.82961C20.8943,5.82961,15.4473,3.1056060199999997,15.4473,3.1056060199999997C15.4473,3.1056060199999997,14.5527,4.89439398,14.5527,4.89439398C14.5527,4.89439398,19.999701,7.6183901,19.999701,7.6183901C19.999701,7.6183901,20.8943,5.82961,20.8943,5.82961C20.8943,5.82961,20.8943,5.82961,20.8943,5.82961ZM14,4C14,4,14,17,14,17C14,17,16,17,16,17C16,17,16,4,16,4C16,4,14,4,14,4C14,4,14,4,14,4ZM14.5528,3.105573C14.5528,3.105573,8.5527902,6.1055701,8.5527902,6.1055701C8.5527902,6.1055701,9.4472098,7.8944299,9.4472098,7.8944299C9.4472098,7.8944299,15.4472,4.894427,15.4472,4.894427C15.4472,4.894427,14.5528,3.105573,14.5528,3.105573C14.5528,3.105573,14.5528,3.105573,14.5528,3.105573Z" fill="#0A0A28" fill-opacity="1"/></g></svg>