<svg xmlns="http://www.w3.org/2000/svg" xmlns:xlink="http://www.w3.org/1999/xlink" fill="none" version="1.1" width="24" height="24" viewBox="0 0 24 24"><defs><clipPath id="master_svg0_3_2009"><rect x="0" y="0" width="24" height="24" rx="0"/></clipPath></defs><g clip-path="url(#master_svg0_3_2009)"><path d="M14.399993896484375,1.9031982421875C14.399993896484375,1.9031982421875,9.599994196484374,6.7031984421875,9.599994196484374,6.7031984421875C9.599994196484374,6.7031984421875,9.599994196484374,22.0967982421875,9.599994196484374,22.0967982421875C9.599994196484374,22.0967982421875,14.399993896484375,17.2967982421875,14.399993896484375,17.2967982421875C14.399993896484375,17.2967982421875,14.399993896484375,1.9031982421875,14.399993896484375,1.9031982421875C14.399993896484375,1.9031982421875,14.399993896484375,1.9031982421875,14.399993896484375,1.9031982421875ZM4.448394096484375,3.9515984421875C4.2805739964843745,3.7838263421875,4.066769996484375,3.6695742421875,3.834029896484375,3.6233022421875C3.601289996484375,3.5770183421875,3.360047936484375,3.6007782421875003,3.140807866484375,3.6915823421875C2.921569106484375,3.7823863421875,2.734173506484375,3.9361543421875,2.602311506484375,4.1334464421875C2.470450818484375,4.3307383421875,2.400044565645375,4.5626983421875,2.399993896484375,4.7999982421875C2.399993896484375,4.7999982421875,2.399993896484375,16.7999982421875,2.399993896484375,16.7999982421875C2.400061861364375,17.1182392421875,2.526535106484375,17.4233992421875,2.7515939164843752,17.6483992421875C2.7515939164843752,17.6483992421875,7.199994096484375,22.0967982421875,7.199994096484375,22.0967982421875C7.199994096484375,22.0967982421875,7.199994096484375,6.7031984421875,7.199994096484375,6.7031984421875C7.199994096484375,6.7031984421875,4.448394096484375,3.9515984421875,4.448394096484375,3.9515984421875C4.448394096484375,3.9515984421875,4.448394096484375,3.9515984421875,4.448394096484375,3.9515984421875ZM21.248393896484377,6.3515982421875C21.248393896484377,6.3515982421875,16.799994896484375,1.9031982421875,16.799994896484375,1.9031982421875C16.799994896484375,1.9031982421875,16.799994896484375,17.2967982421875,16.799994896484375,17.2967982421875C16.799994896484375,17.2967982421875,19.551595896484375,20.0483992421875,19.551595896484375,20.0483992421875C19.719474896484375,20.2161602421875,19.933194896484373,20.3303982421875,20.165994896484374,20.3767182421875C20.398675896484374,20.4230382421875,20.639993896484373,20.3991582421875,20.859233896484376,20.3084392421875C21.078473896484375,20.2176002421875,21.265794896484376,20.0638792421875,21.397674896484375,19.8665982421875C21.529553896484376,19.6691992421875,21.599994896484375,19.4372382421875,21.599994896484375,19.1999992421875C21.599994896484375,19.1999992421875,21.599994896484375,7.1999983421875,21.599994896484375,7.1999983421875C21.599874896484376,6.8817701421875,21.473514896484375,6.5765862421875,21.248393896484377,6.3515982421875C21.248393896484377,6.3515982421875,21.248393896484377,6.3515982421875,21.248393896484377,6.3515982421875C21.248393896484377,6.3515982421875,21.248393896484377,6.3515982421875,21.248393896484377,6.3515982421875Z" fill-rule="evenodd" fill="#0A0A28" fill-opacity="1"/></g></svg>