<svg xmlns="http://www.w3.org/2000/svg" xmlns:xlink="http://www.w3.org/1999/xlink" fill="none" version="1.1" width="24" height="24" viewBox="0 0 24 24"><defs><clipPath id="master_svg0_3_2313"><rect x="0" y="0" width="24" height="24" rx="0"/></clipPath></defs><g clip-path="url(#master_svg0_3_2313)"><path d="M4,7C3.4477149799999998,7,3,7.44771498,3,8C3,8.55228502,3.4477149799999998,9,4,9C4,9,4,7,4,7C4,7,4,7,4,7ZM20,9C20.552299,9,21,8.55228502,21,8C21,7.44771498,20.552299,7,20,7C20,7,20,9,20,9C20,9,20,9,20,9ZM4,15C3.4477149799999998,15,3,15.4477201,3,16C3,16.55229,3.4477149799999998,17,4,17C4,17,4,15,4,15C4,15,4,15,4,15ZM20,17C20.552299,17,21,16.55229,21,16C21,15.4477201,20.552299,15,20,15C20,15,20,17,20,17C20,17,20,17,20,17ZM4,9C4,9,20,9,20,9C20,9,20,7,20,7C20,7,4,7,4,7C4,7,4,9,4,9C4,9,4,9,4,9ZM20,7C20,7,4,7,4,7C4,7,4,9,4,9C4,9,20,9,20,9C20,9,20,7,20,7C20,7,20,7,20,7ZM4,17C4,17,20,17,20,17C20,17,20,15,20,15C20,15,4,15,4,15C4,15,4,17,4,17C4,17,4,17,4,17Z" fill="#0A0A28" fill-opacity="1"/></g></svg>