<svg xmlns="http://www.w3.org/2000/svg" xmlns:xlink="http://www.w3.org/1999/xlink" fill="none" version="1.1" width="24" height="24" viewBox="0 0 24 24"><defs><clipPath id="master_svg0_3_1941"><rect x="0" y="0" width="24" height="24" rx="0"/></clipPath></defs><g clip-path="url(#master_svg0_3_1941)"><path d="M3.5999755859375,8.40001220703125C3.5999755859375,8.08175307703125,3.7264039959375,7.77652823703125,3.9514471859375,7.55148380703125C4.1764916159375,7.32644061703125,4.4817164559375,7.200012207031249,4.7999755859375,7.20001220703125C4.7999755859375,7.20001220703125,19.1999755859375,7.20001220703125,19.1999755859375,7.20001220703125C19.518216585937502,7.20001220703125,19.8234955859375,7.32644061703125,20.0484965859375,7.55148380703125C20.2734965859375,7.77652823703125,20.3999765859375,8.08175307703125,20.3999765859375,8.40001220703125C20.3999765859375,8.71827640703125,20.2734965859375,9.02349630703125,20.0484965859375,9.24854440703125C19.8234955859375,9.47358040703125,19.518216585937502,9.60001230703125,19.1999755859375,9.60001230703125C19.1999755859375,9.60001230703125,4.7999755859375,9.60001230703125,4.7999755859375,9.60001230703125C4.4817164559375,9.60001230703125,4.1764916159375,9.47358040703125,3.9514471859375,9.24854440703125C3.7264039959375,9.02349630703125,3.5999755859375004,8.71827640703125,3.5999755859375,8.40001220703125C3.5999755859375,8.40001220703125,3.5999755859375,8.40001220703125,3.5999755859375,8.40001220703125ZM3.5999755859375,15.60001280703125C3.5999755859375,15.28174880703125,3.7264039959375,14.97652860703125,3.9514471859375,14.751480607031251C4.1764916159375,14.52644440703125,4.4817164559375,14.40001250703125,4.7999755859375,14.40001250703125C4.7999755859375,14.40001250703125,19.1999755859375,14.40001250703125,19.1999755859375,14.40001250703125C19.518216585937502,14.40001250703125,19.8234955859375,14.52644440703125,20.0484965859375,14.751480607031251C20.2734965859375,14.97652860703125,20.3999765859375,15.28174880703125,20.3999765859375,15.60001280703125C20.3999765859375,15.91827680703125,20.2734965859375,16.22349640703125,20.0484965859375,16.44854450703125C19.8234955859375,16.67358020703125,19.518216585937502,16.80001260703125,19.1999755859375,16.80001260703125C19.1999755859375,16.80001260703125,4.7999755859375,16.80001260703125,4.7999755859375,16.80001260703125C4.4817164559375,16.80001260703125,4.1764916159375,16.67358020703125,3.9514471859375,16.44854450703125C3.7264039959375,16.22349640703125,3.5999755859375004,15.91827680703125,3.5999755859375,15.60001280703125C3.5999755859375,15.60001280703125,3.5999755859375,15.60001280703125,3.5999755859375,15.60001280703125Z" fill-rule="evenodd" fill="#0A0A28" fill-opacity="1"/></g></svg>