<svg xmlns="http://www.w3.org/2000/svg" xmlns:xlink="http://www.w3.org/1999/xlink" fill="none" version="1.1" width="24" height="24" viewBox="0 0 24 24"><defs><clipPath id="master_svg0_3_1666"><rect x="0" y="0" width="24" height="24" rx="0"/></clipPath></defs><g clip-path="url(#master_svg0_3_1666)"><path d="M3.5999755859375,5.99998779296875C3.5999755859375,5.68172866296875,3.7264039959375,5.37650382296875,3.9514471859375,5.15145939296875C4.1764916159375,4.92641620296875,4.4817164559375,4.799987792968749,4.7999755859375,4.79998779296875C4.7999755859375,4.79998779296875,19.1999755859375,4.79998779296875,19.1999755859375,4.79998779296875C19.518216585937502,4.79998779296875,19.8234955859375,4.92641620296875,20.0484965859375,5.15145939296875C20.2734965859375,5.37650382296875,20.3999765859375,5.68172866296875,20.3999765859375,5.99998779296875C20.3999765859375,6.31825199296875,20.2734965859375,6.62347189296875,20.0484965859375,6.84851999296875C19.8234955859375,7.07355599296875,19.518216585937502,7.19998789296875,19.1999755859375,7.19998789296875C19.1999755859375,7.19998789296875,4.7999755859375,7.19998789296875,4.7999755859375,7.19998789296875C4.4817164559375,7.19998789296875,4.1764916159375,7.07355599296875,3.9514471859375,6.84851999296875C3.7264039959375,6.62347189296875,3.5999755859375004,6.31825199296875,3.5999755859375,5.99998779296875C3.5999755859375,5.99998779296875,3.5999755859375,5.99998779296875,3.5999755859375,5.99998779296875ZM3.5999755859375,11.99998809296875C3.5999755859375,11.68172409296875,3.7264039959375,11.37650439296875,3.9514471859375,11.15145639296875C4.1764916159375,10.926420192968749,4.4817164559375,10.79998779296875,4.7999755859375,10.79998779296875C4.7999755859375,10.79998779296875,19.1999755859375,10.79998779296875,19.1999755859375,10.79998779296875C19.518216585937502,10.79998779296875,19.8234955859375,10.926420192968749,20.0484965859375,11.15145639296875C20.2734965859375,11.37650439296875,20.3999765859375,11.68172409296875,20.3999765859375,11.99998809296875C20.3999765859375,12.31825209296875,20.2734965859375,12.62347169296875,20.0484965859375,12.84852029296875C19.8234955859375,13.07355599296875,19.518216585937502,13.19998839296875,19.1999755859375,13.19998839296875C19.1999755859375,13.19998839296875,4.7999755859375,13.19998839296875,4.7999755859375,13.19998839296875C4.4817164559375,13.19998839296875,4.1764916159375,13.07355599296875,3.9514471859375,12.84852029296875C3.7264039959375,12.62347169296875,3.5999755859375004,12.31825209296875,3.5999755859375,11.99998809296875C3.5999755859375,11.99998809296875,3.5999755859375,11.99998809296875,3.5999755859375,11.99998809296875ZM3.5999755859375,17.99998879296875C3.5999755859375,17.681748792968747,3.7264039959375,17.37646879296875,3.9514471859375,17.151467792968752C4.1764916159375,16.92646879296875,4.4817164559375,16.79998779296875,4.7999755859375,16.79998779296875C4.7999755859375,16.79998779296875,11.9999761859375,16.79998779296875,11.9999761859375,16.79998779296875C12.3182401859375,16.79998779296875,12.6234597859375,16.92646879296875,12.8485078859375,17.151467792968752C13.0735435859375,17.37646879296875,13.1999759859375,17.681748792968747,13.1999759859375,17.99998879296875C13.1999759859375,18.31822779296875,13.0735435859375,18.62350879296875,12.8485078859375,18.84850779296875C12.6234597859375,19.073507792968748,12.3182401859375,19.19998879296875,11.9999761859375,19.19998879296875C11.9999761859375,19.19998879296875,4.7999755859375,19.19998879296875,4.7999755859375,19.19998879296875C4.4817164559375,19.19998879296875,4.1764916159375,19.073507792968748,3.9514471859375,18.84850779296875C3.7264039959375,18.62350879296875,3.5999755859375004,18.31822779296875,3.5999755859375,17.99998879296875C3.5999755859375,17.99998879296875,3.5999755859375,17.99998879296875,3.5999755859375,17.99998879296875Z" fill-rule="evenodd" fill="#0A0A28" fill-opacity="1"/></g></svg>