<svg xmlns="http://www.w3.org/2000/svg" xmlns:xlink="http://www.w3.org/1999/xlink" fill="none" version="1.1" width="24" height="24" viewBox="0 0 24 24"><defs><clipPath id="master_svg0_3_2124"><rect x="0" y="0" width="24" height="24" rx="0"/></clipPath></defs><g clip-path="url(#master_svg0_3_2124)"><path d="M4,5C3.4477149799999998,5,3,5.44771498,3,6C3,6.55228502,3.4477149799999998,7,4,7C4,7,4,5,4,5C4,5,4,5,4,5ZM20,7C20.552299,7,21,6.55228502,21,6C21,5.44771498,20.552299,5,20,5C20,5,20,7,20,7C20,7,20,7,20,7ZM4,11C3.4477149799999998,11,3,11.4477201,3,12C3,12.5522799,3.4477149799999998,13,4,13C4,13,4,11,4,11C4,11,4,11,4,11ZM12,13C12.55229,13,13,12.5522799,13,12C13,11.4477201,12.55229,11,12,11C12,11,12,13,12,13C12,13,12,13,12,13ZM4,17C3.4477149799999998,17,3,17.447699999999998,3,18C3,18.552300000000002,3.4477149799999998,19,4,19C4,19,4,17,4,17C4,17,4,17,4,17ZM20,19C20.552299,19,21,18.552300000000002,21,18C21,17.447699999999998,20.552299,17,20,17C20,17,20,19,20,19C20,19,20,19,20,19ZM4,7C4,7,20,7,20,7C20,7,20,5,20,5C20,5,4,5,4,5C4,5,4,7,4,7C4,7,4,7,4,7ZM20,5C20,5,4,5,4,5C4,5,4,7,4,7C4,7,20,7,20,7C20,7,20,5,20,5C20,5,20,5,20,5ZM4,13C4,13,12,13,12,13C12,13,12,11,12,11C12,11,4,11,4,11C4,11,4,13,4,13C4,13,4,13,4,13ZM12,11C12,11,4,11,4,11C4,11,4,13,4,13C4,13,12,13,12,13C12,13,12,11,12,11C12,11,12,11,12,11ZM4,19C4,19,20,19,20,19C20,19,20,17,20,17C20,17,4,17,4,17C4,17,4,19,4,19C4,19,4,19,4,19Z" fill="#0A0A28" fill-opacity="1"/></g></svg>