<svg xmlns="http://www.w3.org/2000/svg" xmlns:xlink="http://www.w3.org/1999/xlink" fill="none" version="1.1" width="24" height="24" viewBox="0 0 24 24"><defs><clipPath id="master_svg0_3_1543"><rect x="0" y="0" width="24" height="24" rx="0"/></clipPath></defs><g clip-path="url(#master_svg0_3_1543)"><path d="M8.3999757859375,4.80001230703125C8.3999757859375,3.84523220703125,8.7792596859375,2.9295603070312497,9.4543919859375,2.25442830703125C10.1295237859375,1.57929619703125,11.0451960859375,1.2000122070312509,11.9999761859375,1.20001220703125C12.9547557859375,1.2000122070312504,13.8704275859375,1.57929619703125,14.5455595859375,2.25442830703125C15.2206925859375,2.9295603070312497,15.5999755859375,3.84523220703125,15.5999755859375,4.80001230703125C15.5999755859375,4.80001230703125,15.5999755859375,9.60001280703125,15.5999755859375,9.60001280703125C15.5999755859375,10.55479240703125,15.2206925859375,11.47046420703125,14.5455595859375,12.14559620703125C13.8704275859375,12.82072920703125,12.9547557859375,13.20001220703125,11.9999761859375,13.20001220703125C11.0451960859375,13.20001220703125,10.1295237859375,12.82072920703125,9.4543919859375,12.14559620703125C8.7792596859375,11.47046420703125,8.3999757859375,10.55479240703125,8.3999757859375,9.60001280703125C8.3999757859375,9.60001280703125,8.3999757859375,4.80001230703125,8.3999757859375,4.80001230703125C8.3999757859375,4.80001230703125,8.3999757859375,4.80001230703125,8.3999757859375,4.80001230703125ZM13.1999759859375,17.91601420703125C15.1994285859375,17.62717220703125,17.0278565859375,16.62745320703125,18.3501355859375,15.10021320703125C19.6725365859375,13.57285320703125,20.4002165859375,11.62022420703125,20.3999765859375,9.60001280703125C20.3999765859375,9.28174880703125,20.2734965859375,8.97652860703125,20.0484965859375,8.751480607031251C19.8234955859375,8.52644440703125,19.518216585937502,8.40001250703125,19.1999755859375,8.40001250703125C18.8817365859375,8.40001250703125,18.576455585937502,8.52644440703125,18.3514565859375,8.751480607031251C18.1264565859375,8.97652860703125,17.9999765859375,9.28174880703125,17.9999765859375,9.60001280703125C17.9999765859375,11.19130900703125,17.3678155859375,12.71743220703125,16.2425755859375,13.84261220703125C15.1173955859375,14.96785220703125,13.5912723859375,15.60001320703125,11.9999761859375,15.60001320703125C10.4086799859375,15.60001320703125,8.8825559859375,14.96785220703125,7.7573394859375,13.84261220703125C6.6321115859374995,12.71743220703125,5.9999756859375,11.19130900703125,5.9999756859375,9.60001280703125C5.9999756859375,9.28174880703125,5.8735437859375,8.97652860703125,5.6485077859375,8.751480607031251C5.4234596859375,8.52644440703125,5.1182397859375,8.40001250703125,4.7999755859375,8.40001250703125C4.4817164559375,8.40001250703125,4.1764916159375,8.52644440703125,3.9514471859375,8.751480607031251C3.7264039959375,8.97652860703125,3.599975660260824,9.28174880703125,3.599975660260824,9.60001280703125C3.5997070715275,11.62022420703125,4.3274167759375,13.57285320703125,5.6497556859374995,15.10021320703125C6.9721078859375005,16.62745320703125,8.8005237859375,17.62717220703125,10.7999758859375,17.91601420703125C10.7999758859375,17.91601420703125,10.7999758859375,20.40001320703125,10.7999758859375,20.40001320703125C10.7999758859375,20.40001320703125,7.1999756859375,20.40001320703125,7.1999756859375,20.40001320703125C6.8817116859375,20.40001320703125,6.5764915859375,20.52649320703125,6.3514437859375,20.75149320703125C6.1264075859375,20.97649420703125,5.9999756859375,21.28177220703125,5.9999756859375,21.60001420703125C5.9999756859375,21.91825320703125,6.1264075859375,22.22353320703125,6.3514437859375,22.44853220703125C6.5764915859375,22.67353220703125,6.8817116859375,22.80001220703125,7.1999756859375,22.80001220703125C7.1999756859375,22.80001220703125,16.7999765859375,22.80001220703125,16.7999765859375,22.80001220703125C17.1182155859375,22.80001220703125,17.4234965859375,22.67353220703125,17.6484955859375,22.44853220703125C17.873495585937498,22.22353320703125,17.9999765859375,21.91825320703125,17.9999765859375,21.60001420703125C17.9999765859375,21.28177220703125,17.873495585937498,20.97649420703125,17.6484955859375,20.75149320703125C17.4234965859375,20.52649320703125,17.1182155859375,20.40001320703125,16.7999765859375,20.40001320703125C16.7999765859375,20.40001320703125,13.1999759859375,20.40001320703125,13.1999759859375,20.40001320703125C13.1999759859375,20.40001320703125,13.1999759859375,17.91601420703125,13.1999759859375,17.91601420703125C13.1999759859375,17.91601420703125,13.1999759859375,17.91601420703125,13.1999759859375,17.91601420703125Z" fill-rule="evenodd" fill="#0A0A28" fill-opacity="1"/></g></svg>