<svg xmlns="http://www.w3.org/2000/svg" xmlns:xlink="http://www.w3.org/1999/xlink" fill="none" version="1.1" width="24" height="24" viewBox="0 0 24 24"><defs><clipPath id="master_svg0_3_2297"><rect x="0" y="0" width="24" height="24" rx="0"/></clipPath></defs><g clip-path="url(#master_svg0_3_2297)"><path d="M20,11C20,10.44771,19.552300000000002,10,19,10C18.447699999999998,10,18,10.44771,18,11C18,11,20,11,20,11C20,11,20,11,20,11ZM6,11C6,10.44771,5.55228502,10,4.999999999999999,10C4.44771498,10,4,10.44771,4,11C4,11,6,11,6,11C6,11,6,11,6,11ZM8,21C7.4477201,21,7,21.447701,7,22C7,22.552299,7.4477201,23,8,23C8,23,8,21,8,21C8,21,8,21,8,21ZM16,23C16.552300000000002,23,17,22.552299,17,22C17,21.447701,16.552300000000002,21,16,21C16,21,16,23,16,23C16,23,16,23,16,23ZM12,14C12,14,12,15,12,15C12,15,12,14,12,14C12,14,12,14,12,14ZM9,11C9,11,8,11,8,11C8,11,9,11,9,11C9,11,9,11,9,11ZM12,2C12,2,12,1,12,1C12,1,12,2,12,2C12,2,12,2,12,2ZM15,5C15,5,16,5,16,5C16,5,15,5,15,5C15,5,15,5,15,5ZM18,11C18,12.5913,17.3679,14.1174,16.2426,15.2426C16.2426,15.2426,17.6569,16.6569,17.6569,16.6569C19.1571,15.1566,20,13.1217,20,11C20,11,18,11,18,11C18,11,18,11,18,11ZM16.2426,15.2426C15.1174,16.3679,13.5913,17,12,17C12,17,12,19,12,19C14.1217299,19,16.156599999999997,18.157101,17.6569,16.6569C17.6569,16.6569,16.2426,15.2426,16.2426,15.2426C16.2426,15.2426,16.2426,15.2426,16.2426,15.2426ZM12,17C10.4087,17,8.88258,16.3679,7.75736,15.2426C7.75736,15.2426,6.34315,16.6569,6.34315,16.6569C7.8434401000000005,18.157101,9.8782701,19,12,19C12,19,12,17,12,17C12,17,12,17,12,17ZM7.75736,15.2426C6.63214,14.1174,6,12.5913,6,11C6,11,4,11,4,11C4,13.1217,4.84285501,15.1566,6.34315,16.6569C6.34315,16.6569,7.75736,15.2426,7.75736,15.2426C7.75736,15.2426,7.75736,15.2426,7.75736,15.2426ZM11,18C11,18,11,22,11,22C11,22,13,22,13,22C13,22,13,18,13,18C13,18,11,18,11,18C11,18,11,18,11,18ZM12,21C12,21,8,21,8,21C8,21,8,23,8,23C8,23,12,23,12,23C12,23,12,21,12,21C12,21,12,21,12,21ZM12,23C12,23,16,23,16,23C16,23,16,21,16,21C16,21,12,21,12,21C12,21,12,23,12,23C12,23,12,23,12,23ZM12,13C11.4695702,13,10.9608598,12.7893,10.5857902,12.4142C10.5857902,12.4142,9.1715698,13.8284,9.1715698,13.8284C9.92172,14.5786,10.9391298,15,12,15C12,15,12,13,12,13C12,13,12,13,12,13ZM10.5857902,12.4142C10.210709999999999,12.0391,10,11.5304298,10,11C10,11,8,11,8,11C8,12.0609,8.4214301,13.0783,9.1715698,13.8284C9.1715698,13.8284,10.5857902,12.4142,10.5857902,12.4142C10.5857902,12.4142,10.5857902,12.4142,10.5857902,12.4142ZM10,11C10,11,10,5,10,5C10,5,8,5,8,5C8,5,8,11,8,11C8,11,10,11,10,11C10,11,10,11,10,11ZM10,5C10,4.4695699,10.210709999999999,3.9608600000000003,10.5857902,3.5857900000000003C10.5857902,3.5857900000000003,9.1715698,2.171573,9.1715698,2.171573C8.4214301,2.92171901,8,3.9391299,8,5C8,5,10,5,10,5C10,5,10,5,10,5ZM10.5857902,3.5857900000000003C10.9608598,3.2107099999999997,11.4695702,3,12,3C12,3,12,1,12,1C10.9391298,1,9.92172,1.42142701,9.1715698,2.171573C9.1715698,2.171573,10.5857902,3.5857900000000003,10.5857902,3.5857900000000003C10.5857902,3.5857900000000003,10.5857902,3.5857900000000003,10.5857902,3.5857900000000003ZM12,3C12.5304298,3,13.0391397,3.2107099999999997,13.4142103,3.5857900000000003C13.4142103,3.5857900000000003,14.8284302,2.171573,14.8284302,2.171573C14.0782804,1.42142701,13.0608702,1,12,1C12,1,12,3,12,3C12,3,12,3,12,3ZM13.4142103,3.5857900000000003C13.7892904,3.9608600000000003,14,4.4695699,14,5C14,5,16,5,16,5C16,3.9391299,15.5786,2.92171901,14.8284302,2.171573C14.8284302,2.171573,13.4142103,3.5857900000000003,13.4142103,3.5857900000000003C13.4142103,3.5857900000000003,13.4142103,3.5857900000000003,13.4142103,3.5857900000000003ZM14,5C14,5,14,11,14,11C14,11,16,11,16,11C16,11,16,5,16,5C16,5,14,5,14,5C14,5,14,5,14,5ZM14,11C14,11.5304298,13.7892904,12.0391,13.4142103,12.4142C13.4142103,12.4142,14.8284302,13.8284,14.8284302,13.8284C15.5786,13.0783,16,12.0609,16,11C16,11,14,11,14,11C14,11,14,11,14,11ZM13.4142103,12.4142C13.0391397,12.7893,12.5304298,13,12,13C12,13,12,15,12,15C13.0608702,15,14.0782804,14.5786,14.8284302,13.8284C14.8284302,13.8284,13.4142103,12.4142,13.4142103,12.4142C13.4142103,12.4142,13.4142103,12.4142,13.4142103,12.4142Z" fill="#0A0A28" fill-opacity="1"/></g></svg>