<svg xmlns="http://www.w3.org/2000/svg" xmlns:xlink="http://www.w3.org/1999/xlink" fill="none" version="1.1" width="24" height="24" viewBox="0 0 24 24"><defs><clipPath id="master_svg0_3_1439"><rect x="0" y="0" width="24" height="24" rx="0"/></clipPath></defs><g clip-path="url(#master_svg0_3_1439)"><path d="M11.999994296484376,21.6000254140625C14.546034896484375,21.6000254140625,16.987913896484375,20.5885444140625,18.788274896484374,18.7883054140625C20.588513896484375,16.9879444140625,21.599994896484375,14.5460654140625,21.599994896484375,12.0000248140625C21.599994896484375,9.4539490140625,20.588513896484375,7.0121527140625,18.788274896484374,5.211804414062501C16.987913896484375,3.4114504140625,14.546034896484375,2.4000244140625013,11.999994296484376,2.4000244140625C9.453918496484375,2.4000244140625018,7.012122196484375,3.4114504140625,5.211773896484376,5.211804414062501C3.411419896484375,7.0121527140625,2.399993896484377,9.4539490140625,2.399993896484375,12.0000248140625C2.3999938964843768,14.5460654140625,3.411419896484375,16.9879444140625,5.211773896484376,18.7883054140625C7.012122196484375,20.5885444140625,9.453918496484375,21.6000254140625,11.999994296484376,21.6000254140625C11.999994296484376,21.6000254140625,11.999994296484376,21.6000254140625,11.999994296484376,21.6000254140625C11.999994296484376,21.6000254140625,11.999994296484376,21.6000254140625,11.999994296484376,21.6000254140625ZM8.399993896484375,10.8000250140625C8.081729896484376,10.8000250140625,7.776510196484375,10.9264564140625,7.551462196484375,11.1514931140625C7.326425996484375,11.3765411140625,7.199994096484375,11.6817608140625,7.199994096484375,12.0000248140625C7.199994096484375,12.3182888140625,7.326425996484375,12.6235094140625,7.551462196484375,12.8485574140625C7.776510196484375,13.0735934140625,8.081729896484376,13.2000244140625,8.399993896484375,13.2000244140625C8.399993896484375,13.2000244140625,15.599994896484375,13.2000244140625,15.599994896484375,13.2000244140625C15.918233896484375,13.2000244140625,16.223514896484375,13.0735934140625,16.448513896484375,12.8485574140625C16.673513896484373,12.6235094140625,16.799994896484375,12.3182888140625,16.799994896484375,12.0000248140625C16.799994896484375,11.6817608140625,16.673513896484373,11.3765411140625,16.448513896484375,11.1514931140625C16.223514896484375,10.9264564140625,15.918233896484375,10.8000250140625,15.599994896484375,10.8000250140625C15.599994896484375,10.8000250140625,8.399993896484375,10.8000250140625,8.399993896484375,10.8000250140625C8.399993896484375,10.8000250140625,8.399993896484375,10.8000250140625,8.399993896484375,10.8000250140625Z" fill-rule="evenodd" fill="#0A0A28" fill-opacity="1"/></g></svg>