<svg xmlns="http://www.w3.org/2000/svg" xmlns:xlink="http://www.w3.org/1999/xlink" fill="none" version="1.1" width="24" height="24" viewBox="0 0 24 24"><defs><clipPath id="master_svg0_3_2062"><rect x="0" y="0" width="24" height="24" rx="0"/></clipPath></defs><g clip-path="url(#master_svg0_3_2062)"><path d="M6,11.99998779296875C6,11.68172866296875,6.12642841,11.37650382296875,6.3514716,11.15145939296875C6.57651603,10.92641620296875,6.88174087,10.79998779296875,7.2,10.79998779296875C7.2,10.79998779296875,16.8,10.79998779296875,16.8,10.79998779296875C17.118264,10.79998779296875,17.423485,10.92641620296875,17.648533,11.15145939296875C17.873569,11.37650382296875,18,11.68172866296875,18,11.99998779296875C18,12.31825199296875,17.873569,12.62347189296875,17.648533,12.84851999296875C17.423485,13.07355599296875,17.118264,13.19998789296875,16.8,13.19998789296875C16.8,13.19998789296875,7.2,13.19998789296875,7.2,13.19998789296875C6.88174087,13.19998789296875,6.57651603,13.07355599296875,6.3514716,12.84851999296875C6.12642841,12.62347189296875,6,12.31825199296875,6,11.99998779296875C6,11.99998779296875,6,11.99998779296875,6,11.99998779296875Z" fill-rule="evenodd" fill="#0A0A28" fill-opacity="1"/></g></svg>