<svg xmlns="http://www.w3.org/2000/svg" xmlns:xlink="http://www.w3.org/1999/xlink" fill="none" version="1.1" width="24" height="24" viewBox="0 0 24 24"><defs><clipPath id="master_svg0_3_2293"><rect x="0" y="0" width="24" height="24" rx="0"/></clipPath></defs><g clip-path="url(#master_svg0_3_2293)"><path d="M18,13C18.552300000000002,13,19,12.55228502,19,12C19,11.44771498,18.552300000000002,11,18,11C18,11,18,13,18,13C18,13,18,13,18,13ZM6,11C5.44771498,11,5,11.44771498,5,12C5,12.55228502,5.44771498,13,6,13C6,13,6,11,6,11C6,11,6,11,6,11ZM18,11C18,11,6,11,6,11C6,11,6,13,6,13C6,13,18,13,18,13C18,13,18,11,18,11C18,11,18,11,18,11Z" fill="#0A0A28" fill-opacity="1"/></g></svg>