<svg xmlns="http://www.w3.org/2000/svg" xmlns:xlink="http://www.w3.org/1999/xlink" fill="none" version="1.1" width="24" height="24" viewBox="0 0 24 24"><defs><clipPath id="master_svg0_318_00868"><rect x="0" y="0" width="24" height="24" rx="0"/></clipPath></defs><g clip-path="url(#master_svg0_318_00868)"><path d="M12.0007390828125,3.3095767211917C12.0026902828125,3.3095767211917,12.0046415828125,3.3095774511862,12.0065917828125,3.3095789110585C12.2858571828125,3.3097879167,12.4515638828125,3.6040481025,12.3572425828125,3.8669028325C12.1195735828125,4.5292426125,12.0007390828125,5.2125394125,12.0007390828125,5.9166808125C12.0007390828125,6.7398305125,12.1611041828125,7.5268283125,12.4831113828125,8.2799911125C12.8044213828125,9.0307212125,13.2367372828125,9.6776309125,13.7804063828125,10.220835212499999C14.3233783828125,10.7639241125,14.9702883828125,11.1960082125,15.7215973828125,11.5170870125C16.472095382812498,11.8381662125,17.2603683828125,11.9999227125,18.0837493828125,11.9999227125C18.7882543828125,11.9999227125,19.4720593828125,11.8805151125,20.1345423828125,11.6428823125C20.3971823828125,11.5486717125,20.6902043828125,11.7150345125,20.6903873828125,11.9940605125C20.6903893828125,11.9960136125,20.6903893828125,11.9979677125,20.6903893828125,11.9999227125C20.6903893828125,12.7869205125,20.5863383828125,13.5570013125,20.3786963828125,14.3077303125C20.1698973828125,15.0584613125,19.8797553828125,15.7536893125,19.5058383828125,16.388547312500002C19.132617382812498,17.0258393125,18.6780533828125,17.6100623125,18.144351382812502,18.1435343125C17.6105313828125,18.6770053125,17.025382382812502,19.1307563125,16.3894803828125,19.5050223125C15.7531153828125,19.8791713125,15.0592773828125,20.1688503125,14.3085483828125,20.3789253125C13.5566563828125,20.5865703125,12.7800817828125,20.6913073125,12.0000438828125,20.6902673125C11.220080382812501,20.6912343125,10.4435858828125,20.5864603125,9.6917724828125,20.3788053125C8.9409265828125,20.1688483125,8.2474374828125,19.8791693125,7.6107239828125,19.5050203125C6.9749383828125,19.1307563125,6.3900203828125,18.6770053125,5.8552741828125,18.1435323125C5.3220343828125,17.6100623125,4.8677029828125,17.0258393125,4.4947135828124996,16.3885453125C4.1205649328125,15.7535703125,3.8304232928125,15.0583433125,3.6216233028125,14.3077293125C3.4137770928125,13.5561023125,3.3088452910925,12.7797565125,3.3096976470952,11.9999227125C3.3096976470952,11.212925412499999,3.4139817028125,10.442844412500001,3.6216231028125,9.6921143125C3.8304230528125,8.9413848125,4.1205649328125,8.2461572125,4.4947130828125,7.6112985125C4.8678183828125,6.9740059125,5.3220338828125,6.3897831125,5.8552736828125,5.8563118124999995C6.3900193828125005,5.3204069125,6.9749376828125005,4.8666551125,7.6107239828125,4.4948242125C8.2475518828125,4.1206756225,8.9410419828125,3.8286800425000003,9.6918878828125,3.6210386725C10.4436649828125,3.4133952425,11.2201199828125,3.30862068175,12.0000438828125,3.3095767211917L12.0007390828125,3.3095767211917Z" fill="#0A0A28" fill-opacity="1"/></g></svg>