<svg xmlns="http://www.w3.org/2000/svg" xmlns:xlink="http://www.w3.org/1999/xlink" fill="none" version="1.1" width="24" height="24" viewBox="0 0 24 24"><defs><clipPath id="master_svg0_3_1541"><rect x="0" y="0" width="24" height="24" rx="0"/></clipPath></defs><g clip-path="url(#master_svg0_3_1541)"><path d="M20.75158508203125,15.95155305078125C18.97378508203125,16.75567205078125,16.99318408203125,16.99903305078125,15.07366508203125,16.64911305078125C13.15410808203125,16.29919205078125,11.38674828203125,15.37267205078125,10.00704858203125,13.99293705078125C8.62734838203125,12.61323645078125,7.70081618203125,10.84587665078125,7.35089638203125,8.92630815078125C7.00098798203125,7.0067522507812505,7.24430038203125,5.02614005078125,8.048432382031251,3.24835205078125C6.63310428203125,3.88796532078125,5.394068282031251,4.86139215078125,4.43763208203125,6.085104250781249C3.4811961820312503,7.30881595078125,2.83590570203125,8.74629645078125,2.55712169203125,10.27421995078125C2.27833768203125,11.80213265078125,2.37438448103125,13.37487705078125,2.83702171203125,14.85751205078125C3.29965770203125,16.34011205078125,4.11507208203125,17.688432050781252,5.21331218203125,18.78667305078125C6.311552282031251,19.88491205078125,7.65982388203125,20.70031205078125,9.142460382031249,21.16291205078125C10.62510868203125,21.62563305078125,12.19785218203125,21.72163205078125,13.72576408203125,21.44287305078125C15.25366408203125,21.16411205078125,16.691145082031248,20.51875305078125,17.91490508203125,19.56235305078125C19.13854408203125,18.605953050781253,20.11198408203125,17.36683305078125,20.75158508203125,15.95155305078125C20.75158508203125,15.95155305078125,20.75158508203125,15.95155305078125,20.75158508203125,15.95155305078125C20.75158508203125,15.95155305078125,20.75158508203125,15.95155305078125,20.75158508203125,15.95155305078125Z" fill="#0A0A28" fill-opacity="1"/></g></svg>