<svg xmlns="http://www.w3.org/2000/svg" xmlns:xlink="http://www.w3.org/1999/xlink" fill="none" version="1.1" width="24" height="24" viewBox="0 0 24 24"><defs><clipPath id="master_svg0_3_2326"><rect x="0" y="0" width="24" height="24" rx="0"/></clipPath></defs><g clip-path="url(#master_svg0_3_2326)"><path d="M20.354021019744874,15.353999908447266C20.354021019744874,15.353999908447266,21.281921019744875,15.726899908447265,21.281921019744875,15.726899908447265C21.431322019744872,15.355099908447265,21.344322019744872,14.930099908447266,21.061021019744874,14.646799908447266C20.777721019744874,14.363499908447265,20.352621019744873,14.276699908447265,19.98092001974487,14.426199908447266C19.98092001974487,14.426199908447266,20.354021019744874,15.353999908447266,20.354021019744874,15.353999908447266C20.354021019744874,15.353999908447266,20.354021019744874,15.353999908447266,20.354021019744874,15.353999908447266ZM8.646000819744874,3.6459999084472656C8.646000819744874,3.6459999084472656,9.573791019744874,4.019095898447266,9.573791019744874,4.019095898447266C9.723331019744872,3.6472375484472654,9.636391119744873,3.2220188984472657,9.352901019744873,2.9386919184472657C9.069420819744874,2.6553649284472653,8.644151219744874,2.5686699084472657,8.272380819744873,2.7184199084472658C8.272380819744873,2.7184199084472658,8.646000819744874,3.6459999084472656,8.646000819744874,3.6459999084472656C8.646000819744874,3.6459999084472656,8.646000819744874,3.6459999084472656,8.646000819744874,3.6459999084472656ZM12.000001419744873,20.999999908447265C12.000001419744873,20.999999908447265,11.998920919744872,21.999999908447265,11.998920919744872,21.999999908447265C11.998920919744872,21.999999908447265,11.999970919744873,21.999999908447265,11.999970919744873,21.999999908447265C11.999970919744873,21.999999908447265,12.000001419744873,20.999999908447265,12.000001419744873,20.999999908447265C12.000001419744873,20.999999908447265,12.000001419744873,20.999999908447265,12.000001419744873,20.999999908447265ZM19.98092001974487,14.426199908447266C18.526021019744874,15.011299908447265,16.931221019744875,15.155899908447266,15.394821019744873,14.841999908447265C15.394821019744873,14.841999908447265,14.994521019744873,16.801499908447266,14.994521019744873,16.801499908447266C16.915021019744874,17.193799908447268,18.90842101974487,17.013099908447266,20.727121019744875,16.281799908447265C20.727121019744875,16.281799908447265,19.98092001974487,14.426199908447266,19.98092001974487,14.426199908447266C19.98092001974487,14.426199908447266,19.98092001974487,14.426199908447266,19.98092001974487,14.426199908447266ZM15.394821019744873,14.841999908447265C13.858421019744872,14.528099908447265,12.448120619744873,13.769599908447265,11.339280619744873,12.660719908447266C11.339280619744873,12.660719908447266,9.925061219744872,14.074899908447266,9.925061219744872,14.074899908447266C11.311121419744874,15.460999908447265,13.073921019744873,16.409099908447267,14.994521019744873,16.801499908447266C14.994521019744873,16.801499908447266,15.394821019744873,14.841999908447265,15.394821019744873,14.841999908447265C15.394821019744873,14.841999908447265,15.394821019744873,14.841999908447265,15.394821019744873,14.841999908447265ZM11.339280619744873,12.660719908447266C10.230431119744873,11.551879908447265,9.471920919744873,10.141600108447266,9.158041019744873,8.605189808447266C9.158041019744873,8.605189808447266,7.1985111197448735,9.005519908447265,7.1985111197448735,9.005519908447265C7.590870819744873,10.926029708447267,8.539011019744873,12.688880008447265,9.925061219744872,14.074899908447266C9.925061219744872,14.074899908447266,11.339280619744873,12.660719908447266,11.339280619744873,12.660719908447266C11.339280619744873,12.660719908447266,11.339280619744873,12.660719908447266,11.339280619744873,12.660719908447266ZM9.158041019744873,8.605189808447266C8.844151019744874,7.068790008447266,8.988720919744873,5.4740099084472655,9.573791019744874,4.019095898447266C9.573791019744874,4.019095898447266,7.718211219744873,3.2729039184472657,7.718211219744873,3.2729039184472657C6.986871019744873,5.091539908447266,6.806150919744873,7.0850198084472655,7.1985111197448735,9.005519908447265C7.1985111197448735,9.005519908447265,9.158041019744873,8.605189808447266,9.158041019744873,8.605189808447266C9.158041019744873,8.605189808447266,9.158041019744873,8.605189808447266,9.158041019744873,8.605189808447266ZM8.272380819744873,2.7184199084472658C6.118791119744873,3.585870608447266,4.334021019744873,5.175439908447266,3.224017019744873,7.214629908447266C3.224017019744873,7.214629908447266,4.980631019744873,8.170819808447266,4.980631019744873,8.170819808447266C5.868701019744873,6.539340008447265,7.296630819744873,5.267589908447266,9.019620919744874,4.5735799084472655C9.019620919744874,4.5735799084472655,8.272380819744873,2.7184199084472658,8.272380819744873,2.7184199084472658C8.272380819744873,2.7184199084472658,8.272380819744873,2.7184199084472658,8.272380819744873,2.7184199084472658ZM3.224017019744873,7.214629908447266C2.1140140297448733,9.253809908447266,1.7479210197448731,11.615620108447265,2.188482049744873,13.895199908447266C2.188482049744873,13.895199908447266,4.152141019744873,13.515640308447265,4.152141019744873,13.515640308447265C3.7996650297448733,11.691869708447266,4.092561019744873,9.802290008447265,4.980631019744873,8.170819808447266C4.980631019744873,8.170819808447266,3.224017019744873,7.214629908447266,3.224017019744873,7.214629908447266C3.224017019744873,7.214629908447266,3.224017019744873,7.214629908447266,3.224017019744873,7.214629908447266ZM2.188482049744873,13.895199908447266C2.6290470097448733,16.174699908447266,3.848835999744873,18.229999908447265,5.638741019744873,19.708699908447265C5.638741019744873,19.708699908447265,6.912560919744873,18.166799908447267,6.912560919744873,18.166799908447267C5.480531019744873,16.983799908447267,4.504621019744873,15.339399908447266,4.152141019744873,13.515640308447265C4.152141019744873,13.515640308447265,2.188482049744873,13.895199908447266,2.188482049744873,13.895199908447266C2.188482049744873,13.895199908447266,2.188482049744873,13.895199908447266,2.188482049744873,13.895199908447266ZM5.638741019744873,19.708699908447265C7.428650819744873,21.187400908447266,9.677200819744872,21.997499908447267,11.998920919744872,21.999999908447265C11.998920919744872,21.999999908447265,12.001081019744873,19.999999908447265,12.001081019744873,19.999999908447265C10.143560919744873,19.997998908447265,8.344591119744873,19.349899908447266,6.912560919744873,18.166799908447267C6.912560919744873,18.166799908447267,5.638741019744873,19.708699908447265,5.638741019744873,19.708699908447265C5.638741019744873,19.708699908447265,5.638741019744873,19.708699908447265,5.638741019744873,19.708699908447265ZM11.999970919744873,21.999999908447265C13.996521019744874,22.000098908447267,15.947321019744873,21.402700908447265,17.601521019744872,20.284699908447266C17.601521019744872,20.284699908447266,16.48162101974487,18.627699908447266,16.48162101974487,18.627699908447266C15.158121019744874,19.522099908447267,13.597321019744873,19.999999908447265,12.000031019744872,19.999999908447265C12.000031019744872,19.999999908447265,11.999970919744873,21.999999908447265,11.999970919744873,21.999999908447265C11.999970919744873,21.999999908447265,11.999970919744873,21.999999908447265,11.999970919744873,21.999999908447265ZM17.601521019744872,20.284699908447266C19.255620019744875,19.166799908447267,20.537422019744874,17.579399908447265,21.281921019744875,15.726899908447265C21.281921019744875,15.726899908447265,19.42612001974487,14.981099908447266,19.42612001974487,14.981099908447266C18.83052101974487,16.463299908447265,17.80502101974487,17.733199908447265,16.48162101974487,18.627699908447266C16.48162101974487,18.627699908447266,17.601521019744872,20.284699908447266,17.601521019744872,20.284699908447266C17.601521019744872,20.284699908447266,17.601521019744872,20.284699908447266,17.601521019744872,20.284699908447266Z" fill="#0A0A28" fill-opacity="1"/></g></svg>