<svg xmlns="http://www.w3.org/2000/svg" xmlns:xlink="http://www.w3.org/1999/xlink" fill="none" version="1.1" width="24" height="24" viewBox="0 0 24 24"><defs><clipPath id="master_svg0_3_2155"><rect x="0" y="0" width="24" height="24" rx="0"/></clipPath></defs><g clip-path="url(#master_svg0_3_2155)"><path d="M9,6C9,6,8.7574601,5.02986,8.7574601,5.02986C8.3123002,5.14115,8,5.5411301,8,6C8,6,9,6,9,6C9,6,9,6,9,6ZM21,3C21,3,22,3,22,3C22,2.692065,21.858101,2.40130198,21.6154,2.21179497C21.3727,2.02228701,21.0562,1.95517,20.7575,2.02985799C20.7575,2.02985799,21,3,21,3C21,3,21,3,21,3ZM8.7574601,9.02986C8.2216702,9.1638098,7.8959098,9.706739899999999,8.02986,10.2425399C8.1638098,10.7783298,8.706739899999999,11.1040897,9.2425399,10.97014C9.2425399,10.97014,8.7574601,9.02986,8.7574601,9.02986C8.7574601,9.02986,8.7574601,9.02986,8.7574601,9.02986ZM21.2425,7.97014C21.778299,7.8361902,22.104099,7.2932601,21.9701,6.757460099999999C21.836201,6.2216699,21.293301,5.895910000000001,20.7575,6.02986C20.7575,6.02986,21.2425,7.97014,21.2425,7.97014C21.2425,7.97014,21.2425,7.97014,21.2425,7.97014ZM10,19C10,19,10,6,10,6C10,6,8,6,8,6C8,6,8,19,8,19C8,19,10,19,10,19C10,19,10,19,10,19ZM9.2425399,6.97014C9.2425399,6.97014,21.2425,3.97014201,21.2425,3.97014201C21.2425,3.97014201,20.7575,2.02985799,20.7575,2.02985799C20.7575,2.02985799,8.7574601,5.02986,8.7574601,5.02986C8.7574601,5.02986,9.2425399,6.97014,9.2425399,6.97014C9.2425399,6.97014,9.2425399,6.97014,9.2425399,6.97014ZM20,3C20,3,20,16,20,16C20,16,22,16,22,16C22,16,22,3,22,3C22,3,20,3,20,3C20,3,20,3,20,3ZM8,19C8,19.114201,7.9306502,19.339701,7.56672,19.5823C7.2096801,19.820299,6.65873,20,6,20C6,20,6,22,6,22C6.99827,22,7.94732,21.732201,8.6760302,21.2465C9.39785,20.765301,10,19.990801,10,19C10,19,8,19,8,19C8,19,8,19,8,19ZM6,20C5.34127,20,4.7903199999999995,19.820299,4.43328,19.5823C4.06935,19.339701,4,19.114201,4,19C4,19,2,19,2,19C2,19.990801,2.6021490099999998,20.765301,3.32396901,21.2465C4.0526800000000005,21.732201,5.00173,22,6,22C6,22,6,20,6,20C6,20,6,20,6,20ZM4,19C4,18.8858,4.06935,18.6603,4.43328,18.4177C4.7903199999999995,18.1797,5.34127,18,6,18C6,18,6,16,6,16C5.00173,16,4.0526800000000005,16.2678,3.32396901,16.753500000000003C2.6021490099999998,17.2347,2,18.0092,2,19C2,19,4,19,4,19C4,19,4,19,4,19ZM6,18C6.65873,18,7.2096801,18.1797,7.56672,18.4177C7.9306502,18.6603,8,18.8858,8,19C8,19,10,19,10,19C10,18.0092,9.39785,17.2347,8.6760302,16.753500000000003C7.94732,16.2678,6.99827,16,6,16C6,16,6,18,6,18C6,18,6,18,6,18ZM20,16C20,16.1142,19.930599,16.3397,19.5667,16.5823C19.2097,16.8203,18.6587,17,18,17C18,17,18,19,18,19C18.9983,19,19.9473,18.7322,20.676001,18.246499999999997C21.3979,17.7653,22,16.9908,22,16C22,16,20,16,20,16C20,16,20,16,20,16ZM18,17C17.3413,17,16.790300000000002,16.8203,16.4333,16.5823C16.0694,16.3397,16,16.1142,16,16C16,16,14,16,14,16C14,16.9908,14.6021,17.7653,15.324,18.246499999999997C16.0527,18.7322,17.0017,19,18,19C18,19,18,17,18,17C18,17,18,17,18,17ZM16,16C16,15.8858,16.0694,15.6603,16.4333,15.4177C16.790300000000002,15.1797,17.3413,15,18,15C18,15,18,13,18,13C17.0017,13,16.0527,13.2678,15.324,13.7535C14.6021,14.2347,14,15.0092,14,16C14,16,16,16,16,16C16,16,16,16,16,16ZM18,15C18.6587,15,19.2097,15.1797,19.5667,15.4177C19.930599,15.6603,20,15.8858,20,16C20,16,22,16,22,16C22,15.0092,21.3979,14.2347,20.676001,13.7535C19.9473,13.2678,18.9983,13,18,13C18,13,18,15,18,15C18,15,18,15,18,15ZM9.2425399,10.97014C9.2425399,10.97014,21.2425,7.97014,21.2425,7.97014C21.2425,7.97014,20.7575,6.02986,20.7575,6.02986C20.7575,6.02986,8.7574601,9.02986,8.7574601,9.02986C8.7574601,9.02986,9.2425399,10.97014,9.2425399,10.97014C9.2425399,10.97014,9.2425399,10.97014,9.2425399,10.97014Z" fill="#0A0A28" fill-opacity="1"/></g></svg>