<svg xmlns="http://www.w3.org/2000/svg" xmlns:xlink="http://www.w3.org/1999/xlink" fill="none" version="1.1" width="24" height="24" viewBox="0 0 24 24"><defs><clipPath id="master_svg0_3_1437"><rect x="0" y="0" width="24" height="24" rx="0"/></clipPath></defs><g clip-path="url(#master_svg0_3_1437)"><path d="M21.599994896484375,3.6000321359375C21.599874896484376,3.4225628359374998,21.560393896484374,3.2473268459374998,21.484433896484376,3.0869480359375C21.408473896484374,2.9265692259375,21.297833896484374,2.7850424359375,21.160554896484374,2.6725616459375C21.023273896484376,2.5600808459375,20.862714896484373,2.4794486389375,20.690633896484375,2.4364727959375C20.518434896484376,2.3934970637375,20.338794896484377,2.3892481999375,20.164794896484374,2.4240322779375C20.164794896484374,2.4240322779375,8.164793996484375,4.8240368359375,8.164793996484375,4.8240368359375C7.892862296484375,4.8783850359375,7.648145696484375,5.0252409359375,7.472262396484375,5.2396330359375C7.296365696484375,5.4540250359375,7.200162396484375,5.7227170359374995,7.199994096484375,6.0000369359375C7.199994096484375,6.0000369359375,7.199994096484375,16.9368378359375,7.199994096484375,16.9368378359375C6.806598196484375,16.8451568359375,6.403926396484375,16.7991968359375,5.999993996484375,16.800037835937502C4.011594096484375,16.800037835937502,2.399993896484375,17.874036835937503,2.399993896484375,19.2000368359375C2.399993896484375,20.5260368359375,4.011594096484375,21.6000388359375,5.999993996484375,21.6000388359375C7.988394296484375,21.6000388359375,9.599994196484374,20.5260368359375,9.599994196484374,19.2000368359375C9.599994196484374,19.2000368359375,9.599994196484374,9.3840370359375,9.599994196484374,9.3840370359375C9.599994196484374,9.3840370359375,19.199994896484377,7.4640369359375,19.199994896484377,7.4640369359375C19.199994896484377,7.4640369359375,19.199994896484377,14.5368378359375,19.199994896484377,14.5368378359375C18.806634896484375,14.4451568359375,18.403915896484374,14.3992688359375,17.999993896484376,14.4000378359375C16.011594896484375,14.4000378359375,14.399993896484375,15.4740368359375,14.399993896484375,16.800037835937502C14.399993896484375,18.126036835937498,16.011594896484375,19.2000368359375,17.999993896484376,19.2000368359375C19.988393896484375,19.2000368359375,21.599994896484375,18.126036835937498,21.599994896484375,16.800037835937502C21.599994896484375,16.800037835937502,21.599994896484375,3.6000321359375,21.599994896484375,3.6000321359375C21.599994896484375,3.6000321359375,21.599994896484375,3.6000321359375,21.599994896484375,3.6000321359375Z" fill="#0A0A28" fill-opacity="1"/></g></svg>