<svg xmlns="http://www.w3.org/2000/svg" xmlns:xlink="http://www.w3.org/1999/xlink" fill="none" version="1.1" width="24" height="24" viewBox="0 0 24 24"><defs><clipPath id="master_svg0_3_2315"><rect x="0" y="0" width="24" height="24" rx="0"/></clipPath></defs><g clip-path="url(#master_svg0_3_2315)"><path d="M2.4000244140625,5.9999756859375C2.4000244140624996,5.3634596859375,2.6528812340625,4.7530064859375,3.1029676240625,4.3029187959375C3.5530553140625,3.8528324059375,4.1635085140625,3.5999755859375004,4.8000245140625,3.5999755859375C4.8000245140625,3.5999755859375,14.4000244140625,3.5999755859375,14.4000244140625,3.5999755859375C15.0365054140625,3.5999755859375004,15.6469454140625,3.8528324059375,16.0970654140625,4.3029187959375C16.5471854140625,4.7530064859375,16.8000254140625,5.3634596859375,16.8000254140625,5.9999756859375C16.8000254140625,5.9999756859375,16.8000254140625,17.9999765859375,16.8000254140625,17.9999765859375C16.8000254140625,18.636456585937502,17.052865414062502,19.2468955859375,17.5029854140625,19.6970155859375C17.9531054140625,20.1471365859375,18.5635454140625,20.3999765859375,19.2000254140625,20.3999765859375C19.2000254140625,20.3999765859375,4.8000245140625,20.3999765859375,4.8000245140625,20.3999765859375C4.1635085140625,20.3999765859375,3.5530553140625,20.1471365859375,3.1029676240625,19.6970155859375C2.6528812340625,19.2468955859375,2.4000244140625004,18.636456585937502,2.4000244140625,17.9999765859375C2.4000244140625,17.9999765859375,2.4000244140625,5.9999756859375,2.4000244140625,5.9999756859375C2.4000244140625,5.9999756859375,2.4000244140625,5.9999756859375,2.4000244140625,5.9999756859375ZM6.0000245140625,7.1999756859375C6.0000245140625,7.1999756859375,13.2000244140625,7.1999756859375,13.2000244140625,7.1999756859375C13.2000244140625,7.1999756859375,13.2000244140625,11.9999761859375,13.2000244140625,11.9999761859375C13.2000244140625,11.9999761859375,6.0000245140625,11.9999761859375,6.0000245140625,11.9999761859375C6.0000245140625,11.9999761859375,6.0000245140625,7.1999756859375,6.0000245140625,7.1999756859375C6.0000245140625,7.1999756859375,6.0000245140625,7.1999756859375,6.0000245140625,7.1999756859375ZM13.2000244140625,14.3999755859375C13.2000244140625,14.3999755859375,6.0000245140625,14.3999755859375,6.0000245140625,14.3999755859375C6.0000245140625,14.3999755859375,6.0000245140625,16.7999765859375,6.0000245140625,16.7999765859375C6.0000245140625,16.7999765859375,13.2000244140625,16.7999765859375,13.2000244140625,16.7999765859375C13.2000244140625,16.7999765859375,13.2000244140625,14.3999755859375,13.2000244140625,14.3999755859375C13.2000244140625,14.3999755859375,13.2000244140625,14.3999755859375,13.2000244140625,14.3999755859375Z" fill-rule="evenodd" fill="#0A0A28" fill-opacity="1"/><path d="M18,8.4000244140625C18,8.4000244140625,19.2,8.4000244140625,19.2,8.4000244140625C19.836516,8.400024414062502,20.4469681,8.6528812340625,20.8970523,9.1029676240625C21.3471482,9.553055314062501,21.6000001,10.1635085140625,21.6000001,10.8000245140625C21.6000001,10.8000245140625,21.6000001,17.4000244140625,21.6000001,17.4000244140625C21.6000001,17.8774090140625,21.410352,18.3352566140625,21.0727921,18.6728174140625C20.7352202,19.0103774140625,20.277384,19.2000244140625,19.8000001,19.2000244140625C19.3226161,19.2000244140625,18.86477286,19.0103774140625,18.52720803,18.6728174140625C18.189642,18.3352566140625,18.000000000000004,17.8774090140625,18,17.4000244140625C18,17.4000244140625,18,8.4000244140625,18,8.4000244140625C18,8.4000244140625,18,8.4000244140625,18,8.4000244140625Z" fill="#0A0A28" fill-opacity="1"/></g></svg>