<svg xmlns="http://www.w3.org/2000/svg" xmlns:xlink="http://www.w3.org/1999/xlink" fill="none" version="1.1" width="24" height="24" viewBox="0 0 24 24"><defs><clipPath id="master_svg0_3_2195"><rect x="0" y="0" width="24" height="24" rx="0"/></clipPath></defs><g clip-path="url(#master_svg0_3_2195)"><path d="M3,18C3,18,2,18,2,18C2,18,3,18,3,18C3,18,3,18,3,18ZM5,4C5,4,5,3,5,3C5,3,5,4,5,4C5,4,5,4,5,4ZM15,4C15,4,15,3,15,3C15,3,15,4,15,4C15,4,15,4,15,4ZM19,7C19,7,19,6,19,6C19,6,19,7,19,7C19,7,19,7,19,7ZM13,5C13.5523,5,14,4.55228502,14,4C14,3.4477149799999998,13.5523,3,13,3C13,3,13,5,13,5C13,5,13,5,13,5ZM9,3C8.4477201,3,8,3.4477149799999998,8,4C8,4.55228502,8.4477201,5,9,5C9,5,9,3,9,3C9,3,9,3,9,3ZM7,15C6.4477201,15,6,15.4477,6,16C6,16.552300000000002,6.4477201,17,7,17C7,17,7,15,7,15C7,15,7,15,7,15ZM13,17C13.5523,17,14,16.552300000000002,14,16C14,15.4477,13.5523,15,13,15C13,15,13,17,13,17C13,17,13,17,13,17ZM7,8C7,8,7,7,7,7C6.4477201,7,6,7.4477201,6,8C6,8,7,8,7,8C7,8,7,8,7,8ZM13,8C13,8,14,8,14,8C14,7.4477201,13.5523,7,13,7C13,7,13,8,13,8C13,8,13,8,13,8ZM13,12C13,12,13,13,13,13C13.5523,13,14,12.55229,14,12C14,12,13,12,13,12C13,12,13,12,13,12ZM7,12C7,12,6,12,6,12C6,12.55229,6.4477201,13,7,13C7,13,7,12,7,12C7,12,7,12,7,12ZM19,19C19,19,5,19,5,19C5,19,5,21,5,21C5,21,19,21,19,21C19,21,19,19,19,19C19,19,19,19,19,19ZM5,19C4.73478,19,4.48043,18.8946,4.29289,18.7071C4.29289,18.7071,2.87868,20.1213,2.87868,20.1213C3.44128799,20.683901,4.20435,21,5,21C5,21,5,19,5,19C5,19,5,19,5,19ZM4.29289,18.7071C4.10536,18.5196,4,18.2652,4,18C4,18,2,18,2,18C2,18.7956,2.3160700199999997,19.5587,2.87868,20.1213C2.87868,20.1213,4.29289,18.7071,4.29289,18.7071C4.29289,18.7071,4.29289,18.7071,4.29289,18.7071ZM4,18C4,18,4,6,4,6C4,6,2,6,2,6C2,6,2,18,2,18C2,18,4,18,4,18C4,18,4,18,4,18ZM4,6C4,5.73478,4.10536,5.48043,4.29289,5.29289C4.29289,5.29289,2.87868,3.87868,2.87868,3.87868C2.3160700199999997,4.44128901,2,5.20435,2,6C2,6,4,6,4,6C4,6,4,6,4,6ZM4.29289,5.29289C4.48043,5.10536,4.73478,5,5,5C5,5,5,3,5,3C4.20435,3,3.44128901,3.3160700199999997,2.87868,3.87868C2.87868,3.87868,4.29289,5.29289,4.29289,5.29289C4.29289,5.29289,4.29289,5.29289,4.29289,5.29289ZM5,5C5,5,15,5,15,5C15,5,15,3,15,3C15,3,5,3,5,3C5,3,5,5,5,5C5,5,5,5,5,5ZM15,5C15.2652,5,15.5196,5.10536,15.7071,5.29289C15.7071,5.29289,17.121299999999998,3.87868,17.121299999999998,3.87868C16.5587,3.3160700199999997,15.7956,3,15,3C15,3,15,5,15,5C15,5,15,5,15,5ZM15.7071,5.29289C15.8946,5.48043,16,5.73478,16,6C16,6,18,6,18,6C18,5.20435,17.6839,4.44128799,17.121299999999998,3.87868C17.121299999999998,3.87868,15.7071,5.29289,15.7071,5.29289C15.7071,5.29289,15.7071,5.29289,15.7071,5.29289ZM16,6C16,6,16,7,16,7C16,7,18,7,18,7C18,7,18,6,18,6C18,6,16,6,16,6C16,6,16,6,16,6ZM19,19C18.7348,19,18.4804,18.8946,18.2929,18.7071C18.2929,18.7071,16.878700000000002,20.1213,16.878700000000002,20.1213C17.4413,20.683901,18.2043,21,19,21C19,21,19,19,19,19C19,19,19,19,19,19ZM18.2929,18.7071C18.1054,18.5196,18,18.2652,18,18C18,18,16,18,16,18C16,18.7957,16.3161,19.5587,16.878700000000002,20.1213C16.878700000000002,20.1213,18.2929,18.7071,18.2929,18.7071C18.2929,18.7071,18.2929,18.7071,18.2929,18.7071ZM18,18C18,18,18,7,18,7C18,7,16,7,16,7C16,7,16,18,16,18C16,18,18,18,18,18C18,18,18,18,18,18ZM19,21C19.7957,21,20.558701,20.683901,21.1213,20.1213C21.1213,20.1213,19.7071,18.7071,19.7071,18.7071C19.5196,18.8946,19.2652,19,19,19C19,19,19,21,19,21C19,21,19,21,19,21ZM21.1213,20.1213C21.683901,19.5587,22,18.7957,22,18C22,18,20,18,20,18C20,18.2652,19.8946,18.5196,19.7071,18.7071C19.7071,18.7071,21.1213,20.1213,21.1213,20.1213C21.1213,20.1213,21.1213,20.1213,21.1213,20.1213ZM22,18C22,18,22,9,22,9C22,9,20,9,20,9C20,9,20,18,20,18C20,18,22,18,22,18C22,18,22,18,22,18ZM22,9C22,8.20435,21.683901,7.4412899,21.1213,6.87868C21.1213,6.87868,19.7071,8.292890100000001,19.7071,8.292890100000001C19.8946,8.4804301,20,8.7347798,20,9C20,9,22,9,22,9C22,9,22,9,22,9ZM21.1213,6.87868C20.558701,6.3160701,19.7957,6,19,6C19,6,19,8,19,8C19.2652,8,19.5196,8.105360000000001,19.7071,8.292890100000001C19.7071,8.292890100000001,21.1213,6.87868,21.1213,6.87868C21.1213,6.87868,21.1213,6.87868,21.1213,6.87868ZM19,6C19,6,17,6,17,6C17,6,17,8,17,8C17,8,19,8,19,8C19,8,19,6,19,6C19,6,19,6,19,6ZM13,3C13,3,9,3,9,3C9,3,9,5,9,5C9,5,13,5,13,5C13,5,13,3,13,3C13,3,13,3,13,3ZM7,17C7,17,13,17,13,17C13,17,13,15,13,15C13,15,7,15,7,15C7,15,7,17,7,17C7,17,7,17,7,17ZM7,9C7,9,13,9,13,9C13,9,13,7,13,7C13,7,7,7,7,7C7,7,7,9,7,9C7,9,7,9,7,9ZM12,8C12,8,12,12,12,12C12,12,14,12,14,12C14,12,14,8,14,8C14,8,12,8,12,8C12,8,12,8,12,8ZM13,11C13,11,7,11,7,11C7,11,7,13,7,13C7,13,13,13,13,13C13,13,13,11,13,11C13,11,13,11,13,11ZM8,12C8,12,8,8,8,8C8,8,6,8,6,8C6,8,6,12,6,12C6,12,8,12,8,12C8,12,8,12,8,12Z" fill="#0A0A28" fill-opacity="1"/></g></svg>