<svg xmlns="http://www.w3.org/2000/svg" xmlns:xlink="http://www.w3.org/1999/xlink" fill="none" version="1.1" width="24" height="24" viewBox="0 0 24 24"><defs><clipPath id="master_svg0_3_2080"><rect x="0" y="0" width="24" height="24" rx="0"/></clipPath></defs><g clip-path="url(#master_svg0_3_2080)"><path d="M4.7999755859375,4.8000245140625C4.7999755859375,4.1635085140625,5.0528276859375,3.5530553140625,5.5029236859375,3.1029676240625C5.9530076859375,2.6528812340625,6.563459585937499,2.4000244140625004,7.1999756859375,2.4000244140625C7.1999756859375,2.4000244140625,16.7999765859375,2.4000244140625,16.7999765859375,2.4000244140625C17.4364565859375,2.4000244140625004,18.0468955859375,2.6528812340625,18.4970155859375,3.1029676240625C18.947135585937502,3.5530553140625,19.1999755859375,4.1635085140625,19.1999755859375,4.8000245140625C19.1999755859375,4.8000245140625,19.1999755859375,19.2000254140625,19.1999755859375,19.2000254140625C19.518216585937502,19.2000254140625,19.8234955859375,19.3265054140625,20.0484965859375,19.5515064140625C20.2734965859375,19.7765044140625,20.3999765859375,20.0817854140625,20.3999765859375,20.4000244140625C20.3999765859375,20.7182654140625,20.2734965859375,21.0235444140625,20.0484965859375,21.2485444140625C19.8234955859375,21.4735454140625,19.518216585937502,21.6000254140625,19.1999755859375,21.6000254140625C19.1999755859375,21.6000254140625,15.5999755859375,21.6000254140625,15.5999755859375,21.6000254140625C15.2817125859375,21.6000254140625,14.9764915859375,21.4735454140625,14.7514435859375,21.2485444140625C14.5264085859375,21.0235444140625,14.3999755859375,20.7182654140625,14.3999755859375,20.4000244140625C14.3999755859375,20.4000244140625,14.3999755859375,18.0000244140625,14.3999755859375,18.0000244140625C14.3999755859375,17.6817854140625,14.2735445859375,17.376504414062502,14.0485085859375,17.1515054140625C13.8234605859375,16.9265054140625,13.5182399859375,16.8000254140625,13.1999759859375,16.8000254140625C13.1999759859375,16.8000254140625,10.7999758859375,16.8000254140625,10.7999758859375,16.8000254140625C10.4817118859375,16.8000254140625,10.1764921859375,16.9265054140625,9.9514441859375,17.1515054140625C9.726407985937499,17.376504414062502,9.5999755859375,17.6817854140625,9.5999755859375,18.0000244140625C9.5999755859375,18.0000244140625,9.5999755859375,20.4000244140625,9.5999755859375,20.4000244140625C9.5999755859375,20.7182654140625,9.4735436859375,21.0235444140625,9.2485074859375,21.2485444140625C9.0234593859375,21.4735454140625,8.718239785937499,21.6000254140625,8.3999757859375,21.6000254140625C8.3999757859375,21.6000254140625,4.7999755859375,21.6000254140625,4.7999755859375,21.6000254140625C4.4817164559375,21.6000254140625,4.1764916159375,21.4735454140625,3.9514471859375,21.2485444140625C3.7264039959375,21.0235444140625,3.5999755859375004,20.7182654140625,3.5999755859375,20.4000244140625C3.5999755859375,20.0817854140625,3.7264039959375,19.7765044140625,3.9514471859375,19.5515064140625C4.1764916159375,19.3265054140625,4.4817164559375,19.2000254140625,4.7999755859375,19.2000254140625C4.7999755859375,19.2000254140625,4.7999755859375,4.8000245140625,4.7999755859375,4.8000245140625C4.7999755859375,4.8000245140625,4.7999755859375,4.8000245140625,4.7999755859375,4.8000245140625ZM8.3999757859375,6.0000245140625C8.3999757859375,6.0000245140625,10.7999758859375,6.0000245140625,10.7999758859375,6.0000245140625C10.7999758859375,6.0000245140625,10.7999758859375,8.4000244140625,10.7999758859375,8.4000244140625C10.7999758859375,8.4000244140625,8.3999757859375,8.4000244140625,8.3999757859375,8.4000244140625C8.3999757859375,8.4000244140625,8.3999757859375,6.0000245140625,8.3999757859375,6.0000245140625C8.3999757859375,6.0000245140625,8.3999757859375,6.0000245140625,8.3999757859375,6.0000245140625ZM10.7999758859375,10.8000250140625C10.7999758859375,10.8000250140625,8.3999757859375,10.8000250140625,8.3999757859375,10.8000250140625C8.3999757859375,10.8000250140625,8.3999757859375,13.2000244140625,8.3999757859375,13.2000244140625C8.3999757859375,13.2000244140625,10.7999758859375,13.2000244140625,10.7999758859375,13.2000244140625C10.7999758859375,13.2000244140625,10.7999758859375,10.8000250140625,10.7999758859375,10.8000250140625C10.7999758859375,10.8000250140625,10.7999758859375,10.8000250140625,10.7999758859375,10.8000250140625ZM13.1999759859375,6.0000245140625C13.1999759859375,6.0000245140625,15.5999755859375,6.0000245140625,15.5999755859375,6.0000245140625C15.5999755859375,6.0000245140625,15.5999755859375,8.4000244140625,15.5999755859375,8.4000244140625C15.5999755859375,8.4000244140625,13.1999759859375,8.4000244140625,13.1999759859375,8.4000244140625C13.1999759859375,8.4000244140625,13.1999759859375,6.0000245140625,13.1999759859375,6.0000245140625C13.1999759859375,6.0000245140625,13.1999759859375,6.0000245140625,13.1999759859375,6.0000245140625ZM15.5999755859375,10.8000250140625C15.5999755859375,10.8000250140625,13.1999759859375,10.8000250140625,13.1999759859375,10.8000250140625C13.1999759859375,10.8000250140625,13.1999759859375,13.2000244140625,13.1999759859375,13.2000244140625C13.1999759859375,13.2000244140625,15.5999755859375,13.2000244140625,15.5999755859375,13.2000244140625C15.5999755859375,13.2000244140625,15.5999755859375,10.8000250140625,15.5999755859375,10.8000250140625C15.5999755859375,10.8000250140625,15.5999755859375,10.8000250140625,15.5999755859375,10.8000250140625Z" fill-rule="evenodd" fill="#0A0A28" fill-opacity="1"/></g></svg>