<svg xmlns="http://www.w3.org/2000/svg" xmlns:xlink="http://www.w3.org/1999/xlink" fill="none" version="1.1" width="24" height="24" viewBox="0 0 24 24"><defs><clipPath id="master_svg0_3_1842"><rect x="0" y="0" width="24" height="24" rx="0"/></clipPath></defs><g clip-path="url(#master_svg0_3_1842)"><path d="M17,3C17,3,17,2,17,2C17,2,17,3,17,3C17,3,17,3,17,3ZM7,3C7,3,7,2,7,2C7,2,7,3,7,3C7,3,7,3,7,3ZM5,5C5,5,4,5,4,5C4,5,5,5,5,5C5,5,5,5,5,5ZM21,22C21.552299,22,22,21.552299,22,21C22,20.447701,21.552299,20,21,20C21,20,21,22,21,22C21,22,21,22,21,22ZM3,20C2.4477149799999998,20,2,20.447701,2,21C2,21.552299,2.4477149799999998,22,3,22C3,22,3,20,3,20C3,20,3,20,3,20ZM9,6C8.4477201,6,8,6.4477201,8,7C8,7.5522799,8.4477201,8,9,8C9,8,9,6,9,6C9,6,9,6,9,6ZM10,8C10.5522799,8,11,7.5522799,11,7C11,6.4477201,10.5522799,6,10,6C10,6,10,8,10,8C10,8,10,8,10,8ZM9,10C8.4477201,10,8,10.4477201,8,11C8,11.55229,8.4477201,12,9,12C9,12,9,10,9,10C9,10,9,10,9,10ZM10,12C10.5522799,12,11,11.55229,11,11C11,10.4477201,10.5522799,10,10,10C10,10,10,12,10,12C10,12,10,12,10,12ZM14,6C13.4477,6,13,6.4477201,13,7C13,7.5522799,13.4477,8,14,8C14,8,14,6,14,6C14,6,14,6,14,6ZM15,8C15.5523,8,16,7.5522799,16,7C16,6.4477201,15.5523,6,15,6C15,6,15,8,15,8C15,8,15,8,15,8ZM14,10C13.4477,10,13,10.4477201,13,11C13,11.55229,13.4477,12,14,12C14,12,14,10,14,10C14,10,14,10,14,10ZM15,12C15.5523,12,16,11.55229,16,11C16,10.4477201,15.5523,10,15,10C15,10,15,12,15,12C15,12,15,12,15,12ZM20,21C20,21,20,5,20,5C20,5,18,5,18,5C18,5,18,21,18,21C18,21,20,21,20,21C20,21,20,21,20,21ZM20,5C20,4.20435,19.683901,3.44128799,19.1213,2.87868C19.1213,2.87868,17.7071,4.29289,17.7071,4.29289C17.8946,4.48043,18,4.73478,18,5C18,5,20,5,20,5C20,5,20,5,20,5ZM19.1213,2.87868C18.5587,2.3160700199999997,17.7956,2,17,2C17,2,17,4,17,4C17.2652,4,17.5196,4.10536,17.7071,4.29289C17.7071,4.29289,19.1213,2.87868,19.1213,2.87868C19.1213,2.87868,19.1213,2.87868,19.1213,2.87868ZM17,2C17,2,7,2,7,2C7,2,7,4,7,4C7,4,17,4,17,4C17,4,17,2,17,2C17,2,17,2,17,2ZM7,2C6.20435,2,5.4412899,2.3160700199999997,4.87868,2.87868C4.87868,2.87868,6.2928901,4.29289,6.2928901,4.29289C6.4804299,4.10536,6.7347801,4,7,4C7,4,7,2,7,2C7,2,7,2,7,2ZM4.87868,2.87868C4.31607,3.44128901,4,4.20435,4,5C4,5,6,5,6,5C6,4.73478,6.10536,4.48043,6.2928901,4.29289C6.2928901,4.29289,4.87868,2.87868,4.87868,2.87868C4.87868,2.87868,4.87868,2.87868,4.87868,2.87868ZM4,5C4,5,4,21,4,21C4,21,6,21,6,21C6,21,6,5,6,5C6,5,4,5,4,5C4,5,4,5,4,5ZM5,22C5,22,19,22,19,22C19,22,19,20,19,20C19,20,5,20,5,20C5,20,5,22,5,22C5,22,5,22,5,22ZM19,22C19,22,21,22,21,22C21,22,21,20,21,20C21,20,19,20,19,20C19,20,19,22,19,22C19,22,19,22,19,22ZM19,20C19,20,14,20,14,20C14,20,14,22,14,22C14,22,19,22,19,22C19,22,19,20,19,20C19,20,19,20,19,20ZM5,20C5,20,3,20,3,20C3,20,3,22,3,22C3,22,5,22,5,22C5,22,5,20,5,20C5,20,5,20,5,20ZM5,22C5,22,10,22,10,22C10,22,10,20,10,20C10,20,5,20,5,20C5,20,5,22,5,22C5,22,5,22,5,22ZM9,8C9,8,10,8,10,8C10,8,10,6,10,6C10,6,9,6,9,6C9,6,9,8,9,8C9,8,9,8,9,8ZM9,12C9,12,10,12,10,12C10,12,10,10,10,10C10,10,9,10,9,10C9,10,9,12,9,12C9,12,9,12,9,12ZM14,8C14,8,15,8,15,8C15,8,15,6,15,6C15,6,14,6,14,6C14,6,14,8,14,8C14,8,14,8,14,8ZM14,12C14,12,15,12,15,12C15,12,15,10,15,10C15,10,14,10,14,10C14,10,14,12,14,12C14,12,14,12,14,12ZM11,21C11,21,11,16,11,16C11,16,9,16,9,16C9,16,9,21,9,21C9,21,11,21,11,21C11,21,11,21,11,21ZM11,16C11,16,11,16,11,16C11,16,9.5857902,14.5858,9.5857902,14.5858C9.210709999999999,14.9609,9,15.4696,9,16C9,16,11,16,11,16C11,16,11,16,11,16ZM11,16C11,16,11,16,11,16C11,16,11,14,11,14C10.4695702,14,9.9608598,14.2107,9.5857902,14.5858C9.5857902,14.5858,11,16,11,16C11,16,11,16,11,16ZM11,16C11,16,13,16,13,16C13,16,13,14,13,14C13,14,11,14,11,14C11,14,11,16,11,16C11,16,11,16,11,16ZM13,16C13,16,13,16,13,16C13,16,14.4142,14.5858,14.4142,14.5858C14.0391,14.2107,13.5304,14,13,14C13,14,13,16,13,16C13,16,13,16,13,16ZM13,16C13,16,13,16,13,16C13,16,15,16,15,16C15,15.4696,14.7893,14.9609,14.4142,14.5858C14.4142,14.5858,13,16,13,16C13,16,13,16,13,16ZM13,16C13,16,13,21,13,21C13,21,15,21,15,21C15,21,15,16,15,16C15,16,13,16,13,16C13,16,13,16,13,16ZM14,20C14,20,10,20,10,20C10,20,10,22,10,22C10,22,14,22,14,22C14,22,14,20,14,20C14,20,14,20,14,20Z" fill="#0A0A28" fill-opacity="1"/></g></svg>