<svg xmlns="http://www.w3.org/2000/svg" xmlns:xlink="http://www.w3.org/1999/xlink" fill="none" version="1.1" width="24" height="24" viewBox="0 0 24 24"><defs><clipPath id="master_svg0_127_17846"><rect x="0" y="0" width="24" height="24" rx="0"/></clipPath></defs><g clip-path="url(#master_svg0_127_17846)"><path d="M8.53137684140625,18.40355843C8.169938041406251,18.16240664,7.74981784140625,18.023901653,7.3158254414062505,18.0028302178C6.881833041406249,17.981733989,6.45024204140625,18.078885742,6.06713004140625,18.2838704C5.68401718140625,18.48885316,5.36376095140625,18.79398984,5.14048958140625,19.1667345C4.91719341140625,19.5394781,4.79930496215825,19.965862,4.79937744140625,20.400358C4.79937744140625,20.400358,4.79937744140625,30.000358,4.79937744140625,30.000358C4.79930496215825,30.434758000000002,4.91719341140625,30.861238,5.14048958140625,31.233958C5.36376095140625,31.606679,5.68401718140625,31.91196,6.06713004140625,32.116918C6.45024204140625,32.321878999999996,6.881833041406249,32.41908,7.3158254414062505,32.397958C7.74981784140625,32.37684,8.169938041406251,32.238358,8.53137684140625,31.997159C8.53137684140625,31.997159,15.73137944140625,27.1971579,15.73137944140625,27.1971579C16.060179441406248,26.9779902,16.329699441406248,26.6810617,16.51593644140625,26.3327265C16.70241844140625,25.9843907,16.799859441406248,25.595421299999998,16.799859441406248,25.2003579C16.799859441406248,24.8052945,16.70241844140625,24.4163251,16.51593644140625,24.0679898C16.329699441406248,23.7196546,16.060179441406248,23.4227262,15.73137944140625,23.2035584C15.73137944140625,23.2035584,8.53137684140625,18.40355843,8.53137684140625,18.40355843C8.53137684140625,18.40355843,8.53137684140625,18.40355843,8.53137684140625,18.40355843C8.53137684140625,18.40355843,8.53137684140625,18.40355843,8.53137684140625,18.40355843Z" fill-rule="evenodd" fill="#0A0A28" fill-opacity="1" transform="matrix(0,-1,1,0,-13.20062255859375,22.79937744140625)"/></g></svg>