<svg xmlns="http://www.w3.org/2000/svg" xmlns:xlink="http://www.w3.org/1999/xlink" fill="none" version="1.1" width="24" height="24" viewBox="0 0 24 24"><defs><clipPath id="master_svg0_127_17844"><rect x="0" y="0" width="24" height="24" rx="0"/></clipPath></defs><g clip-path="url(#master_svg0_127_17844)"><path d="M22.9321947125,6.40355843C22.5707559125,6.16240664,22.1506357125,6.023901653,21.7166433125,6.0028302178C21.2826509125,5.981733989,20.8510599125,6.078885742,20.4679479125,6.2838704C20.0848350525,6.48885316,19.7645788225,6.79398984,19.5413074525,7.1667345000000005C19.3180112825,7.5394781,19.200122833252,7.9658619999999996,19.2001953125,8.400358C19.2001953125,8.400358,19.2001953125,18.000358,19.2001953125,18.000358C19.200122833252,18.434758000000002,19.3180112825,18.861238,19.5413074525,19.233958C19.7645788225,19.606679,20.0848350525,19.91196,20.4679479125,20.116918C20.8510599125,20.321879,21.2826509125,20.41908,21.7166433125,20.397958C22.1506357125,20.37684,22.5707559125,20.238357999999998,22.9321947125,19.997159C22.9321947125,19.997159,30.1321973125,15.1971579,30.1321973125,15.1971579C30.460997312499998,14.9779902,30.730517312499998,14.6810617,30.9167543125,14.3327265C31.1032363125,13.984390699999999,31.200677312499998,13.5954213,31.200677312499998,13.2003579C31.200677312499998,12.805294499999999,31.1032363125,12.4163251,30.9167543125,12.0679898C30.730517312499998,11.7196546,30.460997312499998,11.4227262,30.1321973125,11.2035584C30.1321973125,11.2035584,22.9321947125,6.40355843,22.9321947125,6.40355843C22.9321947125,6.40355843,22.9321947125,6.40355843,22.9321947125,6.40355843C22.9321947125,6.40355843,22.9321947125,6.40355843,22.9321947125,6.40355843Z" fill-rule="evenodd" fill="#0A0A28" fill-opacity="1" transform="matrix(0,1,-1,0,25.2001953125,-13.2001953125)"/></g></svg>