<svg xmlns="http://www.w3.org/2000/svg" xmlns:xlink="http://www.w3.org/1999/xlink" fill="none" version="1.1" width="24" height="24" viewBox="0 0 24 24"><path d="M2.788844135,6.5296657203125L2.788844135,7.3772158203125L5.309493025,7.3772158203125L5.309493025,6.5296657203125L4.581843125,6.5296657203125L4.581843125,3.7774658203125L3.8737931249999997,3.7774658203125L2.627611625,4.4836358403125L3.008903145,5.2405308203125L3.565993025,4.9221908203125L3.565993025,6.5296657203125L2.788844135,6.5296657203125ZM20.500757125,6.499970920312499L7.498900425,6.499970920312499C6.946614725,6.499970920312499,6.499828325,6.0447557203125,6.499828325,5.4924708203125C6.499828325,4.9551861203125,6.946614725,4.4999707303125,7.498899425,4.4999707303125L20.500757125,4.4999707903125C21.053039125,4.4999707303125,21.499828125,4.9551861203125,21.499828125,5.5074709203125C21.499828125,6.0447557203125,21.053039125,6.499970920312499,20.500757125,6.499970920312499ZM2.684894125,13.1022157203125L2.684894125,13.8475158203125L5.2203932250000005,13.8475158203125L5.2203932250000005,12.9999656203125L3.9814781249999998,12.9999656203125L4.451598125,12.5298662203125C4.678428125,12.3096657203125,4.8431182249999996,12.0999155203125,4.942503224999999,11.9011154203125C5.041808125,11.6991157203125,5.091693125,11.487865920312501,5.091693125,11.268015820312499C5.091693125,10.9251156203125,4.9795682249999995,10.655565720312499,4.749863125,10.4681659203125C4.5250981249999995,10.2821159203125,4.203738125,10.193316020312501,3.794243125,10.193316020312501C3.5576482250000003,10.193316020312501,3.327388105,10.2289157203125,3.104133125,10.2999158203125C2.884507625,10.370865820312499,2.695367615,10.467715720312501,2.537697122,10.5911159203125L2.504464123,10.617116020312501L2.830712615,11.3840656203125L2.886915115,11.3416157203125C3.018543125,11.2420659203125,3.149023115,11.1690659203125,3.278318105,11.1217656203125C3.411598145,11.074165820312501,3.540583125,11.050766020312501,3.665543125,11.050766020312501C3.8199131250000002,11.050766020312501,3.9255581250000002,11.0812659203125,3.9917330250000003,11.1331157203125C4.055363225,11.182965720312499,4.090693125,11.2591157203125,4.090693125,11.371965920312501C4.090693125,11.4601159203125,4.065798125,11.5498657203125,4.013678025,11.6418657203125L4.0130131250000005,11.6430659203125C3.963488125,11.7359657203125,3.876198125,11.8509159203125,3.748988125,11.9879656203125L2.684894125,13.1022157203125ZM20.500757125,12.9999656203125L7.498900425,12.9999656203125C6.946614725,12.9999637203125,6.499828325,12.5447511203125,6.499828325,11.9924660203125C6.499828325,11.4551806203125,6.946614725,10.9999652203125,7.498899425,10.9999652203125L20.500757125,10.9999656203125C21.053039125,10.9999652203125,21.499828125,11.4551806203125,21.499828125,12.0074653203125C21.499828125,12.5447511203125,21.053039125,12.9999637203125,20.500757125,12.9999656203125ZM5.011513225,18.5994158203125C5.131723125000001,18.7586658203125,5.190693125,18.950465820312502,5.190693125,19.1718158203125C5.190693125,19.4959658203125,5.060458225,19.7551658203125,4.801813125,19.9439168203125C4.548383225,20.1279168203125,4.205508125,20.2168158203125,3.779393125,20.2168158203125C3.526943125,20.2168158203125,3.284173135,20.1831668203125,3.051283125,20.1156158203125L3.050578115,20.1154158203125C2.818222615,20.0447158203125,2.629515125,19.9511168203125,2.486985575,19.8329158203125L2.455078125,19.8064648203125L2.780266135,19.064765820312502L2.834864615,19.101365820312502C3.137878115,19.3044658203125,3.437603115,19.4039158203125,3.7348431250000003,19.4039158203125C3.930533125,19.4039158203125,4.055733125,19.3739658203125,4.123458125,19.3251658203125L4.124283125,19.3245658203125C4.190583125,19.2786658203125,4.229293125,19.199915820312498,4.229293125,19.0728158203125C4.229293125,18.9564158203125,4.192758125,18.8840158203125,4.129618125,18.841115820312503C4.061293125,18.7946158203125,3.9400331250000002,18.7664658203125,3.7546431250000003,18.7664658203125L3.160093125,18.7664658203125L3.160093125,17.953565820312498L3.665543125,17.953565820312498C3.844188125,17.953565820312498,3.963018225,17.9271158203125,4.031898125,17.883065820312503C4.095563125,17.8423158203125,4.130293125,17.7775658203125,4.130293125,17.6769158203125C4.130293125,17.5678158203125,4.095593125,17.4906158203125,4.031283125,17.4370158203125L4.029373125,17.4354158203125C3.966913125,17.378415820312497,3.873228025,17.345815820312502,3.739793225,17.345815820312502C3.608658125,17.345815820312502,3.4681631250000002,17.372365820312503,3.317953105,17.4266658203125L3.316973145,17.4270658203125C3.167023125,17.4780658203125,3.023118135,17.5515658203125,2.885214125,17.6477658203125L2.8302736250000002,17.6861158203125L2.504372627,16.9428158203125L2.536988124,16.9164158203125C2.682632115,16.798515820312502,2.871134135,16.7066158203125,3.100313125,16.6391658203125C3.333048105,16.5683658203125,3.5693631249999997,16.5329158203125,3.809093125,16.5329158203125C4.062333125,16.5329158203125,4.286118125,16.573415820312498,4.479133125000001,16.6561158203125C4.675168025,16.7387158203125,4.829073225,16.8568658203125,4.938103225,17.0116158203125C5.0474531250000005,17.166865820312502,5.101593025,17.3464158203125,5.101593025,17.5482158203125C5.101593025,17.742865820312502,5.051048025,17.9142158203125,4.948203125,18.0597658203125C4.928918125,18.087965820312498,4.9080481250000005,18.1146658203125,4.885618225,18.1398658203125C4.821418025,18.2120158203125,4.7444432249999995,18.2718658203125,4.655193125,18.3195158203125C4.801403025,18.382615820312502,4.920718225,18.4757158203125,5.011513225,18.5994158203125ZM20.500757125,19.4999658203125L7.498900425,19.4999658203125C6.946614725,19.4999658203125,6.499828325,19.0447508203125,6.499828325,18.4924658203125C6.499828325,17.9551798203125,6.946614725,17.4999658203125,7.498899425,17.4999658203125L20.500757125,17.4999658203125C21.053039125,17.4999658203125,21.499828125,17.9551798203125,21.499828125,18.5074658203125C21.499828125,19.0447508203125,21.053039125,19.4999658203125,20.500757125,19.4999658203125Z" fill-rule="evenodd" fill="#0A0A28" fill-opacity="1"/></svg>