<svg xmlns="http://www.w3.org/2000/svg" xmlns:xlink="http://www.w3.org/1999/xlink" fill="none" version="1.1" width="24" height="24" viewBox="0 0 24 24"><defs><clipPath id="master_svg0_3_2139"><rect x="0" y="0" width="24" height="24" rx="0"/></clipPath></defs><g clip-path="url(#master_svg0_3_2139)"><path d="M15.879091930007935,7.707102512686157C16.269591930007934,7.316582412686158,16.269591930007934,6.683412512686157,15.879091930007935,6.292892712686157C15.488591930007935,5.9023726126861575,14.855391930007935,5.9023726126861575,14.464891930007935,6.292892712686157C14.464891930007935,6.292892712686157,15.879091930007935,7.707102512686157,15.879091930007935,7.707102512686157C15.879091930007935,7.707102512686157,15.879091930007935,7.707102512686157,15.879091930007935,7.707102512686157ZM8.586002130007934,13.585952612686157C8.586002130007934,13.585952612686157,9.280711930007936,14.305252612686157,9.280711930007936,14.305252612686157C9.284881830007935,14.301252612686158,9.289011730007935,14.297252612686158,9.293112030007935,14.293152612686157C9.293112030007935,14.293152612686157,8.586002130007934,13.585952612686157,8.586002130007934,13.585952612686157C8.586002130007934,13.585952612686157,8.586002130007934,13.585952612686157,8.586002130007934,13.585952612686157ZM11.414001730007936,16.41395261268616C11.414001730007936,16.41395261268616,10.697592030007934,15.716352612686157,10.697592030007934,15.716352612686157C10.697592030007934,15.716352612686157,10.694711930007934,15.719252612686157,10.694711930007934,15.719252612686157C10.694711930007934,15.719252612686157,11.414001730007936,16.41395261268616,11.414001730007936,16.41395261268616C11.414001730007936,16.41395261268616,11.414001730007936,16.41395261268616,11.414001730007936,16.41395261268616ZM17.827991930007933,9.828002712686157C17.827991930007933,9.828002712686157,18.544391930007933,10.525692712686158,18.544391930007933,10.525692712686158C18.544391930007933,10.525692712686158,18.547291930007937,10.522712512686157,18.547291930007937,10.522712512686157C18.547291930007937,10.522712512686157,17.827991930007933,9.828002712686157,17.827991930007933,9.828002712686157C17.827991930007933,9.828002712686157,17.827991930007933,9.828002712686157,17.827991930007933,9.828002712686157ZM12.172002030007935,4.1720025126861575C12.172002030007935,4.1720025126861575,11.477291830007935,3.4527116126861572,11.477291830007935,3.4527116126861572C11.469981930007934,3.4597646026861573,11.462792130007934,3.4669276226861574,11.455712030007934,3.4741996226861573C11.455712030007934,3.4741996226861573,12.172002030007935,4.1720025126861575,12.172002030007935,4.1720025126861575C12.172002030007935,4.1720025126861575,12.172002030007935,4.1720025126861575,12.172002030007935,4.1720025126861575ZM5.757001830007935,10.757002612686158C5.757001830007935,10.757002612686158,6.464171930007934,11.464172612686157,6.464171930007934,11.464172612686157C6.464171930007934,11.464172612686157,6.473291830007934,11.454802712686158,6.473291830007934,11.454802712686158C6.473291830007934,11.454802712686158,5.757001830007935,10.757002612686158,5.757001830007935,10.757002612686158C5.757001830007935,10.757002612686158,5.757001830007935,10.757002612686158,5.757001830007935,10.757002612686158ZM3.9994919300079346,14.999952612686156C3.9994919300079346,14.999952612686156,2.9994919300079346,14.999952612686156,2.9994919300079346,14.999952612686156C2.9994919300079346,14.999952612686156,3.9994919300079346,14.999952612686156,3.9994919300079346,14.999952612686156C3.9994919300079346,14.999952612686156,3.9994919300079346,14.999952612686156,3.9994919300079346,14.999952612686156ZM10.000002130007935,21.000553612686158C10.000002130007935,21.000553612686158,10.000002130007935,22.000553612686158,10.000002130007935,22.000553612686158C10.000002130007935,22.000553612686158,10.000002130007935,21.000553612686158,10.000002130007935,21.000553612686158C10.000002130007935,21.000553612686158,10.000002130007935,21.000553612686158,10.000002130007935,21.000553612686158ZM14.242991930007934,19.242952612686157C14.242991930007934,19.242952612686157,13.536682330007935,18.535052612686158,13.536682330007935,18.535052612686158C13.536682330007935,18.535052612686158,13.535891730007934,18.535852612686156,13.535891730007934,18.535852612686156C13.535891730007934,18.535852612686156,14.242991930007934,19.242952612686157,14.242991930007934,19.242952612686157C14.242991930007934,19.242952612686157,14.242991930007934,19.242952612686157,14.242991930007934,19.242952612686157ZM21.206291930007936,13.707852612686157C21.597290930007933,13.317852612686158,21.597990930007935,12.684643012686157,21.207892930007933,12.293682312686157C20.817791930007935,11.902722612686157,20.184691930007933,11.902013112686157,19.793691930007935,12.292103012686157C19.793691930007935,12.292103012686157,21.206291930007936,13.707852612686157,21.206291930007936,13.707852612686157C21.206291930007936,13.707852612686157,21.206291930007936,13.707852612686157,21.206291930007936,13.707852612686157ZM14.464891930007935,6.292892712686157C14.464891930007935,6.292892712686157,7.878891930007935,12.878892212686157,7.878891930007935,12.878892212686157C7.878891930007935,12.878892212686157,9.293112030007935,14.293152612686157,9.293112030007935,14.293152612686157C9.293112030007935,14.293152612686157,15.879091930007935,7.707102512686157,15.879091930007935,7.707102512686157C15.879091930007935,7.707102512686157,14.464891930007935,6.292892712686157,14.464891930007935,6.292892712686157C14.464891930007935,6.292892712686157,14.464891930007935,6.292892712686157,14.464891930007935,6.292892712686157ZM7.891291830007935,12.866712812686158C7.604761830007934,13.143452612686158,7.376211930007935,13.474452612686157,7.218982030007934,13.840452612686157C7.218982030007934,13.840452612686157,9.056611730007933,14.629852612686157,9.056611730007933,14.629852612686157C9.109021930007934,14.507852612686158,9.185201930007935,14.397552612686157,9.280711930007936,14.305252612686157C9.280711930007936,14.305252612686157,7.891291830007935,12.866712812686158,7.891291830007935,12.866712812686158C7.891291830007935,12.866712812686158,7.891291830007935,12.866712812686158,7.891291830007935,12.866712812686158ZM7.218982030007934,13.840452612686157C7.061761830007935,14.206552612686158,6.979002030007935,14.600152612686157,6.9755318300079345,14.998552612686158C6.9755318300079345,14.998552612686158,8.975461730007934,15.015852612686157,8.975461730007934,15.015852612686157C8.976611830007935,14.883152612686157,9.004202130007934,14.751852612686157,9.056611730007933,14.629852612686157C9.056611730007933,14.629852612686157,7.218982030007934,13.840452612686157,7.218982030007934,13.840452612686157C7.218982030007934,13.840452612686157,7.218982030007934,13.840452612686157,7.218982030007934,13.840452612686157ZM6.9755318300079345,14.998552612686158C6.972071930007934,15.396852612686157,7.047981930007935,15.791852612686156,7.198822030007935,16.160552612686157C7.198822030007935,16.160552612686157,9.049891730007936,15.403252612686158,9.049891730007936,15.403252612686158C8.999612130007934,15.280352612686157,8.974312030007933,15.148652612686158,8.975461730007934,15.015852612686157C8.975461730007934,15.015852612686157,6.9755318300079345,14.998552612686158,6.9755318300079345,14.998552612686158C6.9755318300079345,14.998552612686158,6.9755318300079345,14.998552612686158,6.9755318300079345,14.998552612686158ZM7.198822030007935,16.160552612686157C7.349661830007935,16.529252612686157,7.572422030007935,16.86425261268616,7.854101930007935,17.145852612686156C7.854101930007935,17.145852612686156,9.268311730007934,15.731652612686156,9.268311730007934,15.731652612686156C9.174422030007936,15.637752612686157,9.100171830007934,15.526152612686158,9.049891730007936,15.403252612686158C9.049891730007936,15.403252612686158,7.198822030007935,16.160552612686157,7.198822030007935,16.160552612686157C7.198822030007935,16.160552612686157,7.198822030007935,16.160552612686157,7.198822030007935,16.160552612686157ZM7.854101930007935,17.145852612686156C8.135782030007935,17.427552612686156,8.470742030007933,17.650352612686156,8.839422030007935,17.80115261268616C8.839422030007935,17.80115261268616,9.596761930007935,15.950152612686157,9.596761930007935,15.950152612686157C9.473861930007935,15.899852612686157,9.362211930007934,15.825552612686158,9.268311730007934,15.731652612686156C9.268311730007934,15.731652612686156,7.854101930007935,17.145852612686156,7.854101930007935,17.145852612686156C7.854101930007935,17.145852612686156,7.854101930007935,17.145852612686156,7.854101930007935,17.145852612686156ZM8.839422030007935,17.80115261268616C9.208112030007936,17.95205261268616,9.603152030007934,18.027952612686157,10.001491830007936,18.024452612686158C10.001491830007936,18.024452612686158,9.984112030007935,16.024552612686158,9.984112030007935,16.024552612686158C9.851341930007933,16.02565261268616,9.719661930007934,16.000352612686157,9.596761930007935,15.950152612686157C9.596761930007935,15.950152612686157,8.839422030007935,17.80115261268616,8.839422030007935,17.80115261268616C8.839422030007935,17.80115261268616,8.839422030007935,17.80115261268616,8.839422030007935,17.80115261268616ZM10.001491830007936,18.024452612686158C10.399832030007936,18.021052612686155,10.793492030007934,17.938252612686156,11.159501830007935,17.781052612686157C11.159501830007935,17.781052612686157,10.370111730007935,15.943352612686157,10.370111730007935,15.943352612686157C10.248111930007934,15.995752612686157,10.116892130007933,16.023352612686157,9.984112030007935,16.024552612686158C9.984112030007935,16.024552612686158,10.001491830007936,18.024452612686158,10.001491830007936,18.024452612686158C10.001491830007936,18.024452612686158,10.001491830007936,18.024452612686158,10.001491830007936,18.024452612686158ZM11.159501830007935,17.781052612686157C11.525512030007935,17.623752612686157,11.856551930007935,17.395252612686157,12.133291530007934,17.108752612686157C12.133291530007934,17.108752612686157,10.694711930007934,15.719252612686157,10.694711930007934,15.719252612686157C10.602462030007935,15.814752612686156,10.492121930007935,15.890952612686156,10.370111730007935,15.943352612686157C10.370111730007935,15.943352612686157,11.159501830007935,17.781052612686157,11.159501830007935,17.781052612686157C11.159501830007935,17.781052612686157,11.159501830007935,17.781052612686157,11.159501830007935,17.781052612686157ZM12.130401830007935,17.111652612686157C12.130401830007935,17.111652612686157,18.544391930007933,10.525692712686158,18.544391930007933,10.525692712686158C18.544391930007933,10.525692712686158,17.111591930007933,9.130312712686157,17.111591930007933,9.130312712686157C17.111591930007933,9.130312712686157,10.697602030007936,15.716352612686157,10.697602030007936,15.716352612686157C10.697602030007936,15.716352612686157,12.130401830007935,17.111652612686157,12.130401830007935,17.111652612686157C12.130401830007935,17.111652612686157,12.130401830007935,17.111652612686157,12.130401830007935,17.111652612686157ZM18.547291930007937,10.522712512686157C19.458091930007935,9.579702612686157,19.962091930007936,8.316692612686158,19.950691930007935,7.005702512686158C19.950691930007935,7.005702512686158,17.950691930007935,7.023082512686157,17.950691930007935,7.023082512686157C17.957591930007936,7.809672612686157,17.655191930007934,8.567482712686157,17.108691930007936,9.133292412686156C17.108691930007936,9.133292412686156,18.547291930007937,10.522712512686157,18.547291930007937,10.522712512686157C18.547291930007937,10.522712512686157,18.547291930007937,10.522712512686157,18.547291930007937,10.522712512686157ZM19.950691930007935,7.005702512686158C19.939291930007933,5.694722612686157,19.413391930007933,4.4406626126861575,18.486391930007933,3.513618622686157C18.486391930007933,3.513618622686157,17.072191930007932,4.927832612686157,17.072191930007932,4.927832612686157C17.628391930007936,5.484052612686157,17.943891930007936,6.236492612686157,17.950691930007935,7.023082512686157C17.950691930007935,7.023082512686157,19.950691930007935,7.005702512686158,19.950691930007935,7.005702512686158C19.950691930007935,7.005702512686158,19.950691930007935,7.005702512686158,19.950691930007935,7.005702512686158ZM18.486391930007933,3.513618622686157C17.559291930007934,2.5865786026861572,16.305291930007932,2.0607336126861573,14.994291930007934,2.0493416226861574C14.994291930007934,2.0493416226861574,14.976891930007934,4.0492626126861575,14.976891930007934,4.0492626126861575C15.763491930007934,4.056102612686157,16.515991930007935,4.371612712686157,17.072191930007932,4.927832612686157C17.072191930007932,4.927832612686157,18.486391930007933,3.513618622686157,18.486391930007933,3.513618622686157C18.486391930007933,3.513618622686157,18.486391930007933,3.513618622686157,18.486391930007933,3.513618622686157ZM14.994291930007934,2.0493416226861574C13.683311730007935,2.037952612686157,12.420301630007934,2.5419216126861572,11.477291830007935,3.4527116126861572C11.477291830007935,3.4527116126861572,12.866711830007935,4.891292612686158,12.866711830007935,4.891292612686158C13.432522030007934,4.344812612686157,14.190291930007934,4.042430642686157,14.976891930007934,4.0492626126861575C14.976891930007934,4.0492626126861575,14.994291930007934,2.0493416226861574,14.994291930007934,2.0493416226861574C14.994291930007934,2.0493416226861574,14.994291930007934,2.0493416226861574,14.994291930007934,2.0493416226861574ZM11.455712030007934,3.4741996226861573C11.455712030007934,3.4741996226861573,5.040711830007934,10.059202412686158,5.040711830007934,10.059202412686158C5.040711830007934,10.059202412686158,6.473291830007934,11.454802712686158,6.473291830007934,11.454802712686158C6.473291830007934,11.454802712686158,12.888291630007934,4.869802612686158,12.888291630007934,4.869802612686158C12.888291630007934,4.869802612686158,11.455712030007934,3.4741996226861573,11.455712030007934,3.4741996226861573C11.455712030007934,3.4741996226861573,11.455712030007934,3.4741996226861573,11.455712030007934,3.4741996226861573ZM5.049891930007934,10.049892712686157C3.7370429300079344,11.362742612686157,2.9994919300079346,13.143352612686158,2.9994919300079346,14.999952612686156C2.9994919300079346,14.999952612686156,4.999491930007935,14.999952612686156,4.999491930007935,14.999952612686156C4.999491930007935,13.673752612686156,5.5263319300079345,12.401882412686158,6.464102030007934,11.464103012686158C6.464102030007934,11.464103012686158,5.049891930007934,10.049892712686157,5.049891930007934,10.049892712686157C5.049891930007934,10.049892712686157,5.049891930007934,10.049892712686157,5.049891930007934,10.049892712686157ZM2.9994919300079346,14.999952612686156C2.9994919300079346,16.856652612686155,3.7370429300079344,18.637252612686158,5.049891930007934,19.950151612686156C5.049891930007934,19.950151612686156,6.464102030007934,18.535852612686156,6.464102030007934,18.535852612686156C5.5263319300079345,17.598152612686157,4.999491930007935,16.326252612686158,4.999491930007935,14.999952612686156C4.999491930007935,14.999952612686156,2.9994919300079346,14.999952612686156,2.9994919300079346,14.999952612686156C2.9994919300079346,14.999952612686156,2.9994919300079346,14.999952612686156,2.9994919300079346,14.999952612686156ZM5.049891930007934,19.950151612686156C6.362741930007934,21.262952612686156,8.143351830007934,22.000553612686158,10.000002130007935,22.000553612686158C10.000002130007935,22.000553612686158,10.000002130007935,20.000553612686158,10.000002130007935,20.000553612686158C8.673782130007934,20.000553612686158,7.401881930007935,19.473652612686156,6.464102030007934,18.535852612686156C6.464102030007934,18.535852612686156,5.049891930007934,19.950151612686156,5.049891930007934,19.950151612686156C5.049891930007934,19.950151612686156,5.049891930007934,19.950151612686156,5.049891930007934,19.950151612686156ZM10.000002130007935,22.000553612686158C11.856652030007934,22.000553612686158,13.637252130007935,21.262952612686156,14.950091930007934,19.950151612686156C14.950091930007934,19.950151612686156,13.535891730007934,18.535852612686156,13.535891730007934,18.535852612686156C12.598112330007934,19.473652612686156,11.326221730007934,20.000553612686158,10.000002130007935,20.000553612686158C10.000002130007935,20.000553612686158,10.000002130007935,22.000553612686158,10.000002130007935,22.000553612686158C10.000002130007935,22.000553612686158,10.000002130007935,22.000553612686158,10.000002130007935,22.000553612686158ZM14.949291930007934,19.950851612686158C14.949291930007934,19.950851612686158,21.206291930007936,13.707852612686157,21.206291930007936,13.707852612686157C21.206291930007936,13.707852612686157,19.793691930007935,12.292103012686157,19.793691930007935,12.292103012686157C19.793691930007935,12.292103012686157,13.536682330007935,18.535052612686158,13.536682330007935,18.535052612686158C13.536682330007935,18.535052612686158,14.949291930007934,19.950851612686158,14.949291930007934,19.950851612686158C14.949291930007934,19.950851612686158,14.949291930007934,19.950851612686158,14.949291930007934,19.950851612686158Z" fill="#0A0A28" fill-opacity="1"/></g></svg>