<svg xmlns="http://www.w3.org/2000/svg" xmlns:xlink="http://www.w3.org/1999/xlink" fill="none" version="1.1" width="24" height="24" viewBox="0 0 24 24"><defs><clipPath id="master_svg0_3_1820"><rect x="0" y="0" width="24" height="24" rx="0"/></clipPath></defs><g clip-path="url(#master_svg0_3_1820)"><path d="M21,21C21,21,20.7831,21.9762,20.7831,21.9762C21.1597,22.0599,21.5508,21.9195,21.7882,21.6154C22.0256,21.3113,22.0669,20.8978,21.8944,20.552799C21.8944,20.552799,21,21,21,21C21,21,21,21,21,21ZM12,3C12,3,12.8944302,2.55278599,12.8944302,2.55278599C12.7250299,2.2140020099999997,12.3787699,2,12,2C11.6212301,2,11.2749701,2.2140020099999997,11.1055698,2.55278599C11.1055698,2.55278599,12,3,12,3C12,3,12,3,12,3ZM3,21C3,21,2.105573,20.552799,2.105573,20.552799C1.93305,20.8978,1.97439,21.3113,2.21179497,21.6154C2.4492040299999998,21.9195,2.840344,22.0599,3.21693,21.9762C3.21693,21.9762,3,21,3,21C3,21,3,21,3,21ZM13,11C13,10.4477201,12.55229,10,12,10C11.44771,10,11,10.4477201,11,11C11,11,13,11,13,11C13,11,13,11,13,11ZM11.7830696,19.9762C11.7830696,19.9762,20.7831,21.9762,20.7831,21.9762C20.7831,21.9762,21.2169,20.0238,21.2169,20.0238C21.2169,20.0238,12.2169304,18.0238,12.2169304,18.0238C12.2169304,18.0238,11.7830696,19.9762,11.7830696,19.9762C11.7830696,19.9762,11.7830696,19.9762,11.7830696,19.9762ZM21.8944,20.552799C21.8944,20.552799,12.8944302,2.55278599,12.8944302,2.55278599C12.8944302,2.55278599,11.1055698,3.44721401,11.1055698,3.44721401C11.1055698,3.44721401,20.1056,21.447201,20.1056,21.447201C20.1056,21.447201,21.8944,20.552799,21.8944,20.552799C21.8944,20.552799,21.8944,20.552799,21.8944,20.552799ZM11.1055698,2.55278599C11.1055698,2.55278599,2.105573,20.552799,2.105573,20.552799C2.105573,20.552799,3.894427,21.447201,3.894427,21.447201C3.894427,21.447201,12.8944302,3.44721401,12.8944302,3.44721401C12.8944302,3.44721401,11.1055698,2.55278599,11.1055698,2.55278599C11.1055698,2.55278599,11.1055698,2.55278599,11.1055698,2.55278599ZM3.21693,21.9762C3.21693,21.9762,12.2169304,19.9762,12.2169304,19.9762C12.2169304,19.9762,11.7830696,18.0238,11.7830696,18.0238C11.7830696,18.0238,2.78307,20.0238,2.78307,20.0238C2.78307,20.0238,3.21693,21.9762,3.21693,21.9762C3.21693,21.9762,3.21693,21.9762,3.21693,21.9762ZM13,19C13,19,13,11,13,11C13,11,11,11,11,11C11,11,11,19,11,19C11,19,13,19,13,19C13,19,13,19,13,19Z" fill="#0A0A28" fill-opacity="1"/></g></svg>