<svg xmlns="http://www.w3.org/2000/svg" xmlns:xlink="http://www.w3.org/1999/xlink" fill="none" version="1.1" width="24" height="24" viewBox="0 0 24 24"><defs><clipPath id="master_svg0_3_1890"><rect x="0" y="0" width="24" height="24" rx="0"/></clipPath></defs><g clip-path="url(#master_svg0_3_1890)"><path d="M9.5999755859375,4.8000245140625C8.6451959859375,4.8000245140625,7.7295236859375,5.1793086140625,7.0543915859375,5.8544404140625C6.3792597859375,6.5295725140625,5.9999756859375,7.4452448140625,5.9999756859375,8.4000244140625C5.9999756859375,8.4000244140625,5.9999756859375,13.2000244140625,5.9999756859375,13.2000244140625C5.9999756859375,14.7913454140625,6.6321115859374995,16.317505414062502,7.7573394859375,17.4426244140625C8.8825559859375,18.5678654140625,10.4086799859375,19.2000254140625,11.9999761859375,19.2000254140625C13.5912723859375,19.2000254140625,15.1173955859375,18.5678654140625,16.2425755859375,17.4426244140625C17.3678155859375,16.317505414062502,17.9999765859375,14.7913454140625,17.9999765859375,13.2000244140625C17.9999765859375,13.2000244140625,17.9999765859375,8.4000244140625,17.9999765859375,8.4000244140625C17.9999765859375,8.0817604140625,18.1264565859375,7.7765407140625,18.3514565859375,7.5514927140625C18.576455585937502,7.3264565140625,18.8817365859375,7.2000246140625,19.1999755859375,7.2000246140625C19.518216585937502,7.2000246140625,19.8234955859375,7.3264565140625,20.0484965859375,7.5514927140625C20.2734965859375,7.7765407140625,20.3999765859375,8.0817604140625,20.3999765859375,8.4000244140625C20.3999765859375,8.4000244140625,20.3999765859375,13.2000244140625,20.3999765859375,13.2000244140625C20.3999765859375,14.3031244140625,20.1826575859375,15.3954244140625,19.7606165859375,16.4145844140625C19.3384565859375,17.4337454140625,18.7197365859375,18.359665414062498,17.9396165859375,19.1396654140625C17.1596155859375,19.9197844140625,16.2336955859375,20.5385054140625,15.2145115859375,20.9606644140625C14.1953765859375,21.3827054140625,13.1030759859375,21.6000254140625,11.9999761859375,21.6000254140625C10.8968758859375,21.6000254140625,9.8045754859375,21.3827054140625,8.7854394859375,20.9606644140625C7.7663039859375,20.5385054140625,6.840287685937501,19.9197844140625,6.0602757859375,19.1396654140625C5.2802635859375,18.359665414062498,4.6615267859375,17.4337454140625,4.2393872159375,16.4145844140625C3.8172475959375,15.3954244140625,3.599975569500019,14.3031244140625,3.599975585937501,13.2000244140625C3.599975585937501,13.2000244140625,3.599975585937501,8.4000244140625,3.599975585937501,8.4000244140625C3.599975585937501,6.8087287140625,4.2321164059375,5.2826044140625,5.3573397859375,4.1573886140625C6.4825555859375,3.0321652340625,8.0086798859375,2.400024414062501,9.5999755859375,2.4000244140625C11.1912717859375,2.4000244140625,12.7173957859375,3.0321652340625,13.8426125859375,4.1573886140625C14.9678405859375,5.2826044140625,15.5999755859375,6.8087287140625,15.5999755859375,8.4000244140625C15.5999755859375,8.4000244140625,15.5999755859375,13.2000244140625,15.5999755859375,13.2000244140625C15.5999755859375,14.1548044140625,15.2206925859375,15.0704644140625,14.5455595859375,15.7455844140625C13.8704275859375,16.4207044140625,12.9547557859375,16.8000254140625,11.9999761859375,16.8000254140625C11.0451960859375,16.8000254140625,10.1295237859375,16.4207044140625,9.4543919859375,15.7455844140625C8.7792596859375,15.0704644140625,8.3999757859375,14.1548044140625,8.3999757859375,13.2000244140625C8.3999757859375,13.2000244140625,8.3999757859375,8.4000244140625,8.3999757859375,8.4000244140625C8.3999757859375,8.0817604140625,8.5264076859375,7.7765407140625,8.751443885937501,7.5514927140625C8.976491885937499,7.3264565140625,9.2817115859375,7.2000246140625,9.5999755859375,7.2000246140625C9.9182400859375,7.2000246140625,10.223459685937499,7.3264565140625,10.448507785937501,7.5514927140625C10.6735438859375,7.7765407140625,10.7999758859375,8.0817604140625,10.7999758859375,8.4000244140625C10.7999758859375,8.4000244140625,10.7999758859375,13.2000244140625,10.7999758859375,13.2000244140625C10.7999758859375,13.5182884140625,10.9264077859375,13.8235094140625,11.151443985937501,14.0485574140625C11.3764919859375,14.2735934140625,11.6817121859375,14.4000244140625,11.9999761859375,14.4000244140625C12.3182401859375,14.4000244140625,12.6234597859375,14.2735934140625,12.8485078859375,14.0485574140625C13.0735435859375,13.8235094140625,13.1999759859375,13.5182884140625,13.1999759859375,13.2000244140625C13.1999759859375,13.2000244140625,13.1999759859375,8.4000244140625,13.1999759859375,8.4000244140625C13.1999759859375,7.4452448140625,12.8206920859375,6.5295725140625,12.1455592859375,5.8544404140625C11.4704279859375,5.1793086140625,10.5547556859375,4.8000245140625,9.5999755859375,4.8000245140625C9.5999755859375,4.8000245140625,9.5999755859375,4.8000245140625,9.5999755859375,4.8000245140625C9.5999755859375,4.8000245140625,9.5999755859375,4.8000245140625,9.5999755859375,4.8000245140625Z" fill-rule="evenodd" fill="#0A0A28" fill-opacity="1"/></g></svg>