<svg xmlns="http://www.w3.org/2000/svg" xmlns:xlink="http://www.w3.org/1999/xlink" fill="none" version="1.1" width="24" height="24" viewBox="0 0 24 24"><defs><clipPath id="master_svg0_3_2212"><rect x="0" y="0" width="24" height="24" rx="0"/></clipPath></defs><g clip-path="url(#master_svg0_3_2212)"><path d="M13.072830625,3.0635647171875C12.973063625,2.8645075571875,12.819883625,2.6971315471875,12.630427625,2.5801627171875C12.440958625,2.4631943961875,12.222691525,2.4012451171875,12.000031425,2.4012451171875C11.777370425,2.4012451171874996,11.559103025,2.4631943961875,11.369647025,2.5801627171875C11.180179625,2.6971315471875,11.026998525,2.8645075571875,10.927230825,3.0635647171875C10.927230825,3.0635647171875,2.527233035,19.8635251171875,2.527233035,19.8635251171875C2.423005465,20.0718461171875,2.381654425,20.3059651171875,2.4082240332,20.5374451171875C2.434793666,20.7688061171875,2.528135435,20.9874461171875,2.6768622349999998,21.1667271171875C2.825590255,21.3460061171875,3.023273465,21.4781261171875,3.245797815,21.5468861171875C3.468322325,21.6157661171875,3.706062625,21.6184041171875,3.930030725,21.5543271171875C3.930030725,21.5543271171875,9.930031325,19.8395271171875,9.930031325,19.8395271171875C10.180806624999999,19.7678871171875,10.401378625,19.6163251171875,10.558362925,19.4080071171875C10.715334925,19.1998061171875,10.800175625,18.9460071171875,10.800030725,18.6851251171875C10.800030725,18.6851251171875,10.800030725,13.1999621171875,10.800030725,13.1999621171875C10.800030725,12.8817091171875,10.926463125,12.5764771171875,11.151511225,12.3514414171875C11.376546825,12.1263933171875,11.681778925,11.9999618171875,12.000031425,11.9999618171875C12.318295525,11.9999618171875,12.623515625,12.1263933171875,12.848563625,12.3514414171875C13.073598625,12.5764771171875,13.200030625,12.8817091171875,13.200030625,13.1999621171875C13.200030625,13.1999621171875,13.200030625,18.6851251171875,13.200030625,18.6851251171875C13.199887625,18.9460071171875,13.284726625,19.1998061171875,13.441711625,19.4080071171875C13.598694625,19.6163251171875,13.819267625,19.7678871171875,14.070031625,19.8395271171875C14.070031625,19.8395271171875,20.070031625,21.5531251171875,20.070031625,21.5531251171875C20.293950625,21.6173251171875,20.531671625,21.6148051171875,20.754150625,21.5461651171875C20.976751625,21.4775261171875,21.174510625,21.3455261171875,21.323310625,21.1664871171875C21.472110625,20.9873261171875,21.565711625,20.7688061171875,21.592470625,20.5374451171875C21.619230625,20.3060851171875,21.578071625,20.0719661171875,21.474031625,19.8635251171875C21.474031625,19.8635251171875,13.074030625,3.0635647171875,13.074030625,3.0635647171875C13.074030625,3.0635647171875,13.072830625,3.0635647171875,13.072830625,3.0635647171875C13.072830625,3.0635647171875,13.072830625,3.0635647171875,13.072830625,3.0635647171875Z" fill="#0A0A28" fill-opacity="1"/></g></svg>