<svg xmlns="http://www.w3.org/2000/svg" xmlns:xlink="http://www.w3.org/1999/xlink" fill="none" version="1.1" width="24" height="24" viewBox="0 0 24 24"><defs><clipPath id="master_svg0_3_1584"><rect x="0" y="0" width="24" height="24" rx="0"/></clipPath></defs><g clip-path="url(#master_svg0_3_1584)"><path d="M21.6000254140625,12.0000248140625C21.6000254140625,14.5460654140625,20.5885444140625,16.9879444140625,18.7883054140625,18.7883054140625C16.9879444140625,20.5885444140625,14.5460654140625,21.6000254140625,12.0000248140625,21.6000254140625C9.4539490140625,21.6000254140625,7.0121527140625,20.5885444140625,5.211804414062501,18.7883054140625C3.4114504140625,16.9879444140625,2.4000244140625018,14.5460654140625,2.4000244140625,12.0000248140625C2.4000244140625004,9.4539490140625,3.4114504140625,7.0121527140625,5.211804414062501,5.211804414062501C7.0121527140625,3.4114504140625,9.4539490140625,2.4000244140625027,12.0000248140625,2.4000244140625C14.5460654140625,2.4000244140625018,16.9879444140625,3.4114504140625,18.7883054140625,5.211804414062501C20.5885444140625,7.0121527140625,21.6000254140625,9.4539490140625,21.6000254140625,12.0000248140625C21.6000254140625,12.0000248140625,21.6000254140625,12.0000248140625,21.6000254140625,12.0000248140625C21.6000254140625,12.0000248140625,21.6000254140625,12.0000248140625,21.6000254140625,12.0000248140625ZM8.4000244140625,9.6000247140625C8.4000244140625,9.2817607140625,8.526456814062499,8.9765410140625,8.7514930140625,8.7514930140625C8.9765410140625,8.526456814062499,9.2817607140625,8.4000244140625,9.6000247140625,8.4000244140625C9.9182887140625,8.4000244140625,10.2235083140625,8.526456814062499,10.4485569140625,8.7514930140625C10.6735926140625,8.9765410140625,10.8000250140625,9.2817607140625,10.8000250140625,9.6000247140625C10.8000250140625,9.6000247140625,10.8000250140625,14.4000244140625,10.8000250140625,14.4000244140625C10.8000250140625,14.7182644140625,10.6735926140625,15.0235454140625,10.4485569140625,15.2485444140625C10.2235083140625,15.4735454140625,9.9182887140625,15.6000254140625,9.6000247140625,15.6000254140625C9.2817607140625,15.6000254140625,8.9765410140625,15.4735454140625,8.7514930140625,15.2485444140625C8.526456814062499,15.0235454140625,8.4000244140625,14.7182644140625,8.4000244140625,14.4000244140625C8.4000244140625,14.4000244140625,8.4000244140625,9.6000247140625,8.4000244140625,9.6000247140625C8.4000244140625,9.6000247140625,8.4000244140625,9.6000247140625,8.4000244140625,9.6000247140625ZM14.4000244140625,8.4000244140625C14.0817614140625,8.4000244140625,13.7765404140625,8.526456814062499,13.5514924140625,8.7514930140625C13.3264574140625,8.9765410140625,13.2000244140625,9.2817607140625,13.2000244140625,9.6000247140625C13.2000244140625,9.6000247140625,13.2000244140625,14.4000244140625,13.2000244140625,14.4000244140625C13.2000244140625,14.7182644140625,13.3264574140625,15.0235454140625,13.5514924140625,15.2485444140625C13.7765404140625,15.4735454140625,14.0817614140625,15.6000254140625,14.4000244140625,15.6000254140625C14.7182644140625,15.6000254140625,15.0235454140625,15.4735454140625,15.2485444140625,15.2485444140625C15.4735454140625,15.0235454140625,15.6000254140625,14.7182644140625,15.6000254140625,14.4000244140625C15.6000254140625,14.4000244140625,15.6000254140625,9.6000247140625,15.6000254140625,9.6000247140625C15.6000254140625,9.2817607140625,15.4735454140625,8.9765410140625,15.2485444140625,8.7514930140625C15.0235454140625,8.526456814062499,14.7182644140625,8.4000244140625,14.4000244140625,8.4000244140625C14.4000244140625,8.4000244140625,14.4000244140625,8.4000244140625,14.4000244140625,8.4000244140625Z" fill-rule="evenodd" fill="#0A0A28" fill-opacity="1"/></g></svg>