<svg xmlns="http://www.w3.org/2000/svg" xmlns:xlink="http://www.w3.org/1999/xlink" fill="none" version="1.1" width="24" height="24" viewBox="0 0 24 24"><defs><clipPath id="master_svg0_3_1504"><rect x="0" y="0" width="24" height="24" rx="0"/></clipPath></defs><g clip-path="url(#master_svg0_3_1504)"><path d="M16.303207103515625,4.30318677546875C16.524607103515624,4.07396280546875,16.789447103515627,3.89112481546875,17.082247103515627,3.76534321546875C17.375047103515627,3.63956221146875,17.689927103515625,3.57335538556875,18.008647103515624,3.57058622155475C18.327367103515627,3.56781706146875,18.643327103515624,3.62854116746875,18.938287103515627,3.74921520546875C19.233247103515623,3.86988961546875,19.501207103515625,4.04809680546875,19.726566103515626,4.27343881546875C19.951927103515626,4.49878209546875,20.130127103515626,4.76674690546875,20.250727103515626,5.06169970546875C20.371447103515624,5.3566476054687495,20.432167103515624,5.6726797054687506,20.429407103515626,5.991351605468751C20.426647103515624,6.310023505468751,20.360407103515627,6.624951805468751,20.234646103515626,6.91776390546875C20.108887103515624,7.210563905468749,19.926006103515626,7.47539190546875,19.696806103515627,7.69679160546875C19.696806103515627,7.69679160546875,18.745207103515625,8.64839170546875,18.745207103515625,8.64839170546875C18.745207103515625,8.64839170546875,15.351606103515625,5.25479160546875,15.351606103515625,5.25479160546875C15.351606103515625,5.25479160546875,16.303207103515625,4.30318677546875,16.303207103515625,4.30318677546875C16.303207103515625,4.30318677546875,16.303207103515625,4.30318677546875,16.303207103515625,4.30318677546875C16.303207103515625,4.30318677546875,16.303207103515625,4.30318677546875,16.303207103515625,4.30318677546875ZM13.654806103515625,6.951591705468751C13.654806103515625,6.951591705468751,3.600006103515625,17.00641660546875,3.600006103515625,17.00641660546875C3.600006103515625,17.00641660546875,3.600006103515625,20.40001660546875,3.600006103515625,20.40001660546875C3.600006103515625,20.40001660546875,6.993606303515625,20.40001660546875,6.993606303515625,20.40001660546875C6.993606303515625,20.40001660546875,17.049607103515626,10.345191505468751,17.049607103515626,10.345191505468751C17.049607103515626,10.345191505468751,13.653606103515624,6.951591705468751,13.653606103515624,6.951591705468751C13.653606103515624,6.951591705468751,13.654806103515625,6.951591705468751,13.654806103515625,6.951591705468751C13.654806103515625,6.951591705468751,13.654806103515625,6.951591705468751,13.654806103515625,6.951591705468751Z" fill="#0A0A28" fill-opacity="1"/></g></svg>