<svg xmlns="http://www.w3.org/2000/svg" xmlns:xlink="http://www.w3.org/1999/xlink" fill="none" version="1.1" width="24" height="24" viewBox="0 0 24 24"><defs><clipPath id="master_svg0_3_2090"><rect x="0" y="0" width="24" height="24" rx="0"/></clipPath></defs><g clip-path="url(#master_svg0_3_2090)"><path d="M20.8968244140625,3.1032003153125C20.4467054140625,2.6532699153125,19.836420414062502,2.4005126953125,19.2000244140625,2.4005126953125C18.5636294140625,2.4005126953124996,17.953296614062502,2.6532699153125,17.5032244140625,3.1032003153125C17.5032244140625,3.1032003153125,8.4000244140625,12.2063970953125,8.4000244140625,12.2063970953125C8.4000244140625,12.2063970953125,8.4000244140625,15.6000336953125,8.4000244140625,15.6000336953125C8.4000244140625,15.6000336953125,11.7936246140625,15.6000336953125,11.7936246140625,15.6000336953125C11.7936246140625,15.6000336953125,20.8968244140625,6.4967965953125,20.8968244140625,6.4967965953125C21.346705414062498,6.0467369953125,21.5995454140625,5.4363929953125005,21.5995454140625,4.7999968953125C21.5995454140625,4.1636006953125,21.346705414062498,3.5532662953125,20.8968244140625,3.1032003153125C20.8968244140625,3.1032003153125,20.8968244140625,3.1032003153125,20.8968244140625,3.1032003153125Z" fill="#0A0A28" fill-opacity="1"/><path d="M2.4000244140625,7.19998789296875C2.4000244140624996,6.56347189296875,2.6528812340625,5.95301869296875,3.1029676240625,5.50293100296875C3.5530553140625,5.05284461296875,4.1635085140625,4.799987792968751,4.8000245140625,4.79998779296875C4.8000245140625,4.79998779296875,9.6000247140625,4.79998779296875,9.6000247140625,4.79998779296875C9.9182887140625,4.79998779296875,10.2235083140625,4.92641620296875,10.4485569140625,5.15145939296875C10.6735926140625,5.37650382296875,10.8000250140625,5.68172866296875,10.8000250140625,5.99998779296875C10.8000250140625,6.31825199296875,10.6735926140625,6.62347189296875,10.4485569140625,6.84851999296875C10.2235083140625,7.07355599296875,9.9182887140625,7.19998789296875,9.6000247140625,7.19998789296875C9.6000247140625,7.19998789296875,4.8000245140625,7.19998789296875,4.8000245140625,7.19998789296875C4.8000245140625,7.19998789296875,4.8000245140625,19.19998879296875,4.8000245140625,19.19998879296875C4.8000245140625,19.19998879296875,16.8000254140625,19.19998879296875,16.8000254140625,19.19998879296875C16.8000254140625,19.19998879296875,16.8000254140625,14.39998819296875,16.8000254140625,14.39998819296875C16.8000254140625,14.08172419296875,16.9265054140625,13.77650449296875,17.1515054140625,13.55145649296875C17.376504414062502,13.32641979296875,17.6817854140625,13.19998839296875,18.0000244140625,13.19998839296875C18.318265414062502,13.19998839296875,18.6235444140625,13.32641979296875,18.8485454140625,13.55145649296875C19.0735454140625,13.77650449296875,19.2000254140625,14.08172419296875,19.2000254140625,14.39998819296875C19.2000254140625,14.39998819296875,19.2000254140625,19.19998879296875,19.2000254140625,19.19998879296875C19.2000254140625,19.836468792968752,18.9471854140625,20.44690779296875,18.4970644140625,20.89702779296875C18.0469444140625,21.34714879296875,17.436505414062502,21.59998879296875,16.8000254140625,21.59998879296875C16.8000254140625,21.59998879296875,4.8000245140625,21.59998879296875,4.8000245140625,21.59998879296875C4.1635085140625,21.59998879296875,3.5530553140625,21.34714879296875,3.1029676240625,20.89702779296875C2.6528812340625,20.44690779296875,2.4000244140625004,19.836468792968752,2.4000244140625,19.19998879296875C2.4000244140625,19.19998879296875,2.4000244140625,7.19998789296875,2.4000244140625,7.19998789296875C2.4000244140625,7.19998789296875,2.4000244140625,7.19998789296875,2.4000244140625,7.19998789296875Z" fill-rule="evenodd" fill="#0A0A28" fill-opacity="1"/></g></svg>