<svg xmlns="http://www.w3.org/2000/svg" xmlns:xlink="http://www.w3.org/1999/xlink" fill="none" version="1.1" width="24" height="24" viewBox="0 0 24 24"><defs><clipPath id="master_svg0_3_2029"><rect x="0" y="0" width="24" height="24" rx="0"/></clipPath></defs><g clip-path="url(#master_svg0_3_2029)"><path d="M15.9391,4.524890505523682C15.5486,4.134370405523682,14.9154,4.134370405523682,14.5249,4.524890505523682C14.1344,4.915420505523682,14.1344,5.548580405523682,14.5249,5.939110505523681C14.5249,5.939110505523681,15.9391,4.524890505523682,15.9391,4.524890505523682C15.9391,4.524890505523682,15.9391,4.524890505523682,15.9391,4.524890505523682ZM18.0609,9.47511050552368C18.4514,9.86563060552368,19.0846,9.86563060552368,19.4751,9.47511050552368C19.865601,9.084580405523681,19.865601,8.451420305523682,19.4751,8.060890705523683C19.4751,8.060890705523683,18.0609,9.47511050552368,18.0609,9.47511050552368C18.0609,9.47511050552368,18.0609,9.47511050552368,18.0609,9.47511050552368ZM16.732,3.7320005255236817C16.732,3.7320005255236817,16.024900000000002,3.0248933065236816,16.024900000000002,3.0248933065236816C16.024900000000002,3.0248933065236816,16.024900000000002,3.0248933065236816,16.024900000000002,3.0248933065236816C16.024900000000002,3.0248933065236816,16.732,3.7320005255236817,16.732,3.7320005255236817C16.732,3.7320005255236817,16.732,3.7320005255236817,16.732,3.7320005255236817ZM18.5,2.9996705055236816C18.5,2.9996705055236816,18.5,1.9996705055236816,18.5,1.9996705055236816C18.5,1.9996705055236816,18.5,2.9996705055236816,18.5,2.9996705055236816C18.5,2.9996705055236816,18.5,2.9996705055236816,18.5,2.9996705055236816ZM6.5,21.035971505523683C6.5,21.035971505523683,6.5,22.035971505523683,6.5,22.035971505523683C6.7652199,22.035971505523683,7.0195699,21.930670505523683,7.2071099,21.74307150552368C7.2071099,21.74307150552368,6.5,21.035971505523683,6.5,21.035971505523683C6.5,21.035971505523683,6.5,21.035971505523683,6.5,21.035971505523683ZM3,21.035971505523683C3,21.035971505523683,2,21.035971505523683,2,21.035971505523683C2,21.58827050552368,2.4477149799999998,22.035971505523683,3.0000000000000004,22.035971505523683C3.0000000000000004,22.035971505523683,3,21.035971505523683,3,21.035971505523683C3,21.035971505523683,3,21.035971505523683,3,21.035971505523683ZM3,17.463970505523683C3,17.463970505523683,2.29289299,16.75687050552368,2.29289299,16.75687050552368C2.1053569899999998,16.944470505523682,2,17.198770505523683,2,17.463970505523683C2,17.463970505523683,3,17.463970505523683,3,17.463970505523683C3,17.463970505523683,3,17.463970505523683,3,17.463970505523683ZM14.5249,5.939110505523681C14.5249,5.939110505523681,18.0609,9.47511050552368,18.0609,9.47511050552368C18.0609,9.47511050552368,19.4751,8.060890705523683,19.4751,8.060890705523683C19.4751,8.060890705523683,15.9391,4.524890505523682,15.9391,4.524890505523682C15.9391,4.524890505523682,14.5249,5.939110505523681,14.5249,5.939110505523681C14.5249,5.939110505523681,14.5249,5.939110505523681,14.5249,5.939110505523681ZM17.4391,4.439110505523682C17.7205,4.157740505523682,18.1021,3.9996705055236816,18.5,3.9996705055236816C18.5,3.9996705055236816,18.5,1.9996705055236816,18.5,1.9996705055236816C17.5717,1.9996705055236816,16.6813,2.368454515523682,16.024900000000002,3.0248933065236816C16.024900000000002,3.0248933065236816,17.4391,4.439110505523682,17.4391,4.439110505523682C17.4391,4.439110505523682,17.4391,4.439110505523682,17.4391,4.439110505523682ZM18.5,3.9996705055236816C18.8979,3.9996705055236816,19.279499,4.157740505523682,19.5609,4.439110505523682C19.5609,4.439110505523682,20.9751,3.0248933065236816,20.9751,3.0248933065236816C20.318701,2.368454515523682,19.428301,1.9996705055236816,18.5,1.9996705055236816C18.5,1.9996705055236816,18.5,3.9996705055236816,18.5,3.9996705055236816C18.5,3.9996705055236816,18.5,3.9996705055236816,18.5,3.9996705055236816ZM19.5609,4.439110505523682C19.8423,4.720470505523682,20.000299,5.102090605523681,20.000299,5.500000505523682C20.000299,5.500000505523682,22.000299,5.500000505523682,22.000299,5.500000505523682C22.000299,4.571650505523682,21.6315,3.6813315155236817,20.9751,3.0248933065236816C20.9751,3.0248933065236816,19.5609,4.439110505523682,19.5609,4.439110505523682C19.5609,4.439110505523682,19.5609,4.439110505523682,19.5609,4.439110505523682ZM20.000299,5.500000505523682C20.000299,5.897910605523682,19.8423,6.279530505523682,19.5609,6.560890405523682C19.5609,6.560890405523682,20.9751,7.9751105055236815,20.9751,7.9751105055236815C21.6315,7.318670305523682,22.000299,6.428350405523682,22.000299,5.500000505523682C22.000299,5.500000505523682,20.000299,5.500000505523682,20.000299,5.500000505523682C20.000299,5.500000505523682,20.000299,5.500000505523682,20.000299,5.500000505523682ZM19.5609,6.560890405523682C19.5609,6.560890405523682,5.7928901,20.328871505523683,5.7928901,20.328871505523683C5.7928901,20.328871505523683,7.2071099,21.74307150552368,7.2071099,21.74307150552368C7.2071099,21.74307150552368,20.9751,7.9751105055236815,20.9751,7.9751105055236815C20.9751,7.9751105055236815,19.5609,6.560890405523682,19.5609,6.560890405523682C19.5609,6.560890405523682,19.5609,6.560890405523682,19.5609,6.560890405523682ZM6.5,20.035971505523683C6.5,20.035971505523683,3,20.035971505523683,3,20.035971505523683C3,20.035971505523683,3,22.035971505523683,3,22.035971505523683C3,22.035971505523683,6.5,22.035971505523683,6.5,22.035971505523683C6.5,22.035971505523683,6.5,20.035971505523683,6.5,20.035971505523683C6.5,20.035971505523683,6.5,20.035971505523683,6.5,20.035971505523683ZM4,21.035971505523683C4,21.035971505523683,4,17.463970505523683,4,17.463970505523683C4,17.463970505523683,2,17.463970505523683,2,17.463970505523683C2,17.463970505523683,2,21.035971505523683,2,21.035971505523683C2,21.035971505523683,4,21.035971505523683,4,21.035971505523683C4,21.035971505523683,4,21.035971505523683,4,21.035971505523683ZM3.70710701,18.17107050552368C3.70710701,18.17107050552368,17.4391,4.439110505523682,17.4391,4.439110505523682C17.4391,4.439110505523682,16.024900000000002,3.0248933065236816,16.024900000000002,3.0248933065236816C16.024900000000002,3.0248933065236816,2.29289299,16.75687050552368,2.29289299,16.75687050552368C2.29289299,16.75687050552368,3.70710701,18.17107050552368,3.70710701,18.17107050552368C3.70710701,18.17107050552368,3.70710701,18.17107050552368,3.70710701,18.17107050552368Z" fill="#0A0A28" fill-opacity="1"/></g></svg>