<svg xmlns="http://www.w3.org/2000/svg" xmlns:xlink="http://www.w3.org/1999/xlink" fill="none" version="1.1" width="24" height="24" viewBox="0 0 24 24"><defs><clipPath id="master_svg0_3_1962"><rect x="0" y="0" width="24" height="24" rx="0"/></clipPath></defs><g clip-path="url(#master_svg0_3_1962)"><path d="M11,6.000003574447632C11.5522799,6.000003574447632,12,5.552283574447632,12,5.000003574447632C12,4.447713574447632,11.5522799,4.000003574447632,11,4.000003574447632C11,4.000003574447632,11,6.000003574447632,11,6.000003574447632C11,6.000003574447632,11,6.000003574447632,11,6.000003574447632ZM6,5.000003574447632C6,5.000003574447632,6,4.000003574447632,6,4.000003574447632C6,4.000003574447632,6,5.000003574447632,6,5.000003574447632C6,5.000003574447632,6,5.000003574447632,6,5.000003574447632ZM4,7.000003574447632C4,7.000003574447632,3,7.000003574447632,3,7.000003574447632C3,7.000003574447632,4,7.000003574447632,4,7.000003574447632C4,7.000003574447632,4,7.000003574447632,4,7.000003574447632ZM4,18.00002357444763C4,18.00002357444763,3,18.00002357444763,3,18.00002357444763C3,18.00002357444763,4,18.00002357444763,4,18.00002357444763C4,18.00002357444763,4,18.00002357444763,4,18.00002357444763ZM20,13.000023574447631C20,12.447713574447631,19.552300000000002,12.000003574447632,19,12.000003574447632C18.447699999999998,12.000003574447632,18,12.447713574447631,18,13.000023574447631C18,13.000023574447631,20,13.000023574447631,20,13.000023574447631C20,13.000023574447631,20,13.000023574447631,20,13.000023574447631ZM17.586,3.585999544447632C17.586,3.585999544447632,18.293100000000003,4.293103574447632,18.293100000000003,4.293103574447632C18.2972,4.289013574447631,18.301299999999998,4.2848835744476315,18.305300000000003,4.280713574447632C18.305300000000003,4.280713574447632,17.586,3.585999544447632,17.586,3.585999544447632C17.586,3.585999544447632,17.586,3.585999544447632,17.586,3.585999544447632ZM20.414,6.414003574447632C20.414,6.414003574447632,19.7193,5.694713574447632,19.7193,5.694713574447632C19.7151,5.6987335744476315,19.711,5.702793574447632,19.706899999999997,5.706893674447632C19.706899999999997,5.706893674447632,20.414,6.414003574447632,20.414,6.414003574447632C20.414,6.414003574447632,20.414,6.414003574447632,20.414,6.414003574447632ZM11.8280001,15.000023574447631C11.8280001,15.000023574447631,11.8280001,16.00002357444763,11.8280001,16.00002357444763C12.0932198,16.00002357444763,12.3475704,15.894623574447632,12.5351105,15.707123574447632C12.5351105,15.707123574447632,11.8280001,15.000023574447631,11.8280001,15.000023574447631C11.8280001,15.000023574447631,11.8280001,15.000023574447631,11.8280001,15.000023574447631ZM9,15.000023574447631C9,15.000023574447631,8,15.000023574447631,8,15.000023574447631C8,15.552323574447632,8.4477201,16.00002357444763,9,16.00002357444763C9,16.00002357444763,9,15.000023574447631,9,15.000023574447631C9,15.000023574447631,9,15.000023574447631,9,15.000023574447631ZM9,12.172003474447632C9,12.172003474447632,8.292890100000001,11.464893074447632,8.292890100000001,11.464893074447632C8.105360000000001,11.652433174447632,8,11.906783774447632,8,12.172003474447632C8,12.172003474447632,9,12.172003474447632,9,12.172003474447632C9,12.172003474447632,9,12.172003474447632,9,12.172003474447632ZM11,4.000003574447632C11,4.000003574447632,6,4.000003574447632,6,4.000003574447632C6,4.000003574447632,6,6.000003574447632,6,6.000003574447632C6,6.000003574447632,11,6.000003574447632,11,6.000003574447632C11,6.000003574447632,11,4.000003574447632,11,4.000003574447632C11,4.000003574447632,11,4.000003574447632,11,4.000003574447632ZM6,4.000003574447632C5.20435,4.000003574447632,4.44128901,4.316073574447632,3.87868,4.878683574447631C3.87868,4.878683574447631,5.29289,6.292893674447631,5.29289,6.292893674447631C5.48043,6.105353574447632,5.73478,6.000003574447632,6,6.000003574447632C6,6.000003574447632,6,4.000003574447632,6,4.000003574447632C6,4.000003574447632,6,4.000003574447632,6,4.000003574447632ZM3.87868,4.878683574447631C3.3160700199999997,5.441293474447631,3,6.204353574447632,3,7.000003574447632C3,7.000003574447632,5,7.000003574447632,5,7.000003574447632C5,6.734783674447632,5.10536,6.480433474447632,5.29289,6.292893674447631C5.29289,6.292893674447631,3.87868,4.878683574447631,3.87868,4.878683574447631C3.87868,4.878683574447631,3.87868,4.878683574447631,3.87868,4.878683574447631ZM3,7.000003574447632C3,7.000003574447632,3,18.00002357444763,3,18.00002357444763C3,18.00002357444763,5,18.00002357444763,5,18.00002357444763C5,18.00002357444763,5,7.000003574447632,5,7.000003574447632C5,7.000003574447632,3,7.000003574447632,3,7.000003574447632C3,7.000003574447632,3,7.000003574447632,3,7.000003574447632ZM3,18.00002357444763C3,18.79562357444763,3.3160700199999997,19.558723574447633,3.87868,20.12132457444763C3.87868,20.12132457444763,5.29289,18.707123574447632,5.29289,18.707123574447632C5.10536,18.519523574447632,5,18.26522357444763,5,18.00002357444763C5,18.00002357444763,3,18.00002357444763,3,18.00002357444763C3,18.00002357444763,3,18.00002357444763,3,18.00002357444763ZM3.87868,20.12132457444763C4.44128799,20.683923574447633,5.20435,21.00002257444763,6,21.00002257444763C6,21.00002257444763,6,19.00002257444763,6,19.00002257444763C5.73478,19.00002257444763,5.48043,18.894623574447632,5.29289,18.707123574447632C5.29289,18.707123574447632,3.87868,20.12132457444763,3.87868,20.12132457444763C3.87868,20.12132457444763,3.87868,20.12132457444763,3.87868,20.12132457444763ZM6,21.00002257444763C6,21.00002257444763,17,21.00002257444763,17,21.00002257444763C17,21.00002257444763,17,19.00002257444763,17,19.00002257444763C17,19.00002257444763,6,19.00002257444763,6,19.00002257444763C6,19.00002257444763,6,21.00002257444763,6,21.00002257444763C6,21.00002257444763,6,21.00002257444763,6,21.00002257444763ZM17,21.00002257444763C17.7957,21.00002257444763,18.5587,20.683923574447633,19.121299999999998,20.12132457444763C19.121299999999998,20.12132457444763,17.7071,18.707123574447632,17.7071,18.707123574447632C17.5196,18.894623574447632,17.2652,19.00002257444763,17,19.00002257444763C17,19.00002257444763,17,21.00002257444763,17,21.00002257444763C17,21.00002257444763,17,21.00002257444763,17,21.00002257444763ZM19.121299999999998,20.12132457444763C19.6839,19.558723574447633,20,18.79562357444763,20,18.00002357444763C20,18.00002357444763,18,18.00002357444763,18,18.00002357444763C18,18.26522357444763,17.8946,18.519523574447632,17.7071,18.707123574447632C17.7071,18.707123574447632,19.121299999999998,20.12132457444763,19.121299999999998,20.12132457444763C19.121299999999998,20.12132457444763,19.121299999999998,20.12132457444763,19.121299999999998,20.12132457444763ZM20,18.00002357444763C20,18.00002357444763,20,13.000023574447631,20,13.000023574447631C20,13.000023574447631,18,13.000023574447631,18,13.000023574447631C18,13.000023574447631,18,18.00002357444763,18,18.00002357444763C18,18.00002357444763,20,18.00002357444763,20,18.00002357444763C20,18.00002357444763,20,18.00002357444763,20,18.00002357444763ZM18.305300000000003,4.280713574447632C18.3975,4.185203574447632,18.5079,4.109023574447631,18.6299,4.056613574447632C18.6299,4.056613574447632,17.8405,2.2189835944476317,17.8405,2.2189835944476317C17.4745,2.376210574447632,17.1435,2.604757574447632,16.8667,2.8912880714476317C16.8667,2.8912880714476317,18.305300000000003,4.280713574447632,18.305300000000003,4.280713574447632C18.305300000000003,4.280713574447632,18.305300000000003,4.280713574447632,18.305300000000003,4.280713574447632ZM18.6299,4.056613574447632C18.7519,4.004203574447632,18.8831,3.976613474447632,19.015900000000002,3.975463674447632C19.015900000000002,3.975463674447632,18.9985,1.9755365844476318,18.9985,1.9755365844476318C18.6002,1.9789986044476318,18.2065,2.0617565544476317,17.8405,2.2189835944476317C17.8405,2.2189835944476317,18.6299,4.056613574447632,18.6299,4.056613574447632C18.6299,4.056613574447632,18.6299,4.056613574447632,18.6299,4.056613574447632ZM19.015900000000002,3.975463674447632C19.148699999999998,3.974307594447632,19.2803,3.999613474447632,19.4032,4.049893574447632C19.4032,4.049893574447632,20.160601,2.1988235744476317,20.160601,2.1988235744476317C19.7919,2.047980544447632,19.3968,1.9720735744476319,18.9985,1.9755365844476318C18.9985,1.9755365844476318,19.015900000000002,3.975463674447632,19.015900000000002,3.975463674447632C19.015900000000002,3.975463674447632,19.015900000000002,3.975463674447632,19.015900000000002,3.975463674447632ZM19.4032,4.049893574447632C19.5261,4.1001735744476315,19.6378,4.174423574447632,19.7317,4.268313574447632C19.7317,4.268313574447632,21.145901,2.854102574447632,21.145901,2.854102574447632C20.864201,2.5724255744476316,20.529301,2.349665584447632,20.160601,2.1988235744476317C20.160601,2.1988235744476317,19.4032,4.049893574447632,19.4032,4.049893574447632C19.4032,4.049893574447632,19.4032,4.049893574447632,19.4032,4.049893574447632ZM19.7317,4.268313574447632C19.8256,4.362213574447631,19.8998,4.473863574447632,19.9501,4.596753574447632C19.9501,4.596753574447632,21.801201,3.839425564447632,21.801201,3.839425564447632C21.650299,3.470736564447632,21.427601,3.135781574447632,21.145901,2.854102574447632C21.145901,2.854102574447632,19.7317,4.268313574447632,19.7317,4.268313574447632C19.7317,4.268313574447632,19.7317,4.268313574447632,19.7317,4.268313574447632ZM19.9501,4.596753574447632C20.000401,4.719653574447632,20.0257,4.851333574447632,20.0245,4.984113674447632C20.0245,4.984113674447632,22.0245,5.001493674447632,22.0245,5.001493674447632C22.027901,4.6031535744476315,21.952,4.208113574447632,21.801201,3.839425564447632C21.801201,3.839425564447632,19.9501,4.596753574447632,19.9501,4.596753574447632C19.9501,4.596753574447632,19.9501,4.596753574447632,19.9501,4.596753574447632ZM20.0245,4.984113674447632C20.023399,5.116893574447632,19.9958,5.248113674447632,19.9434,5.3701135744476325C19.9434,5.3701135744476325,21.781,6.159503474447632,21.781,6.159503474447632C21.9382,5.793493474447631,22.021,5.399833674447631,22.0245,5.001493674447632C22.0245,5.001493674447632,20.0245,4.984113674447632,20.0245,4.984113674447632C20.0245,4.984113674447632,20.0245,4.984113674447632,20.0245,4.984113674447632ZM19.9434,5.3701135744476325C19.891,5.492113574447632,19.814799999999998,5.602463474447632,19.7193,5.694713574447632C19.7193,5.694713574447632,21.1087,7.133283374447632,21.1087,7.133283374447632C21.395201,6.8565535744476325,21.6238,6.525513674447632,21.781,6.159503474447632C21.781,6.159503474447632,19.9434,5.3701135744476325,19.9434,5.3701135744476325C19.9434,5.3701135744476325,19.9434,5.3701135744476325,19.9434,5.3701135744476325ZM19.706899999999997,5.706893674447632C19.706899999999997,5.706893674447632,11.1208901,14.292923574447633,11.1208901,14.292923574447633C11.1208901,14.292923574447633,12.5351105,15.707123574447632,12.5351105,15.707123574447632C12.5351105,15.707123574447632,21.121099,7.121103574447631,21.121099,7.121103574447631C21.121099,7.121103574447631,19.706899999999997,5.706893674447632,19.706899999999997,5.706893674447632C19.706899999999997,5.706893674447632,19.706899999999997,5.706893674447632,19.706899999999997,5.706893674447632ZM11.8280001,14.000023574447631C11.8280001,14.000023574447631,9,14.000023574447631,9,14.000023574447631C9,14.000023574447631,9,16.00002357444763,9,16.00002357444763C9,16.00002357444763,11.8280001,16.00002357444763,11.8280001,16.00002357444763C11.8280001,16.00002357444763,11.8280001,14.000023574447631,11.8280001,14.000023574447631C11.8280001,14.000023574447631,11.8280001,14.000023574447631,11.8280001,14.000023574447631ZM10,15.000023574447631C10,15.000023574447631,10,12.172003474447632,10,12.172003474447632C10,12.172003474447632,8,12.172003474447632,8,12.172003474447632C8,12.172003474447632,8,15.000023574447631,8,15.000023574447631C8,15.000023574447631,10,15.000023574447631,10,15.000023574447631C10,15.000023574447631,10,15.000023574447631,10,15.000023574447631ZM9.707109899999999,12.879103374447633C9.707109899999999,12.879103374447633,18.293100000000003,4.293103574447632,18.293100000000003,4.293103574447632C18.293100000000003,4.293103574447632,16.8789,2.878893077447632,16.8789,2.878893077447632C16.8789,2.878893077447632,8.292890100000001,11.464893074447632,8.292890100000001,11.464893074447632C8.292890100000001,11.464893074447632,9.707109899999999,12.879103374447633,9.707109899999999,12.879103374447633C9.707109899999999,12.879103374447633,9.707109899999999,12.879103374447633,9.707109899999999,12.879103374447633Z" fill="#0A0A28" fill-opacity="1"/></g></svg>