<svg xmlns="http://www.w3.org/2000/svg" xmlns:xlink="http://www.w3.org/1999/xlink" fill="none" version="1.1" width="24" height="24" viewBox="0 0 24 24"><defs><clipPath id="master_svg0_3_2188"><rect x="0" y="0" width="24" height="24" rx="0"/></clipPath></defs><g clip-path="url(#master_svg0_3_2188)"><path d="M2.399993896484375,3.6000244140625C2.399993896484375,3.2817652840625,2.526422306484375,2.9765404440625,2.751465496484375,2.7514960140625C2.976509926484375,2.5264528240625,3.281734766484375,2.4000244140625004,3.599993896484375,2.4000244140625C3.599993896484375,2.4000244140625,6.183594196484375,2.4000244140625,6.183594196484375,2.4000244140625C6.467646096484375,2.4001551768625,6.742433996484375,2.5010412540624998,6.959082096484375,2.6847364340625C7.175742196484375,2.8684312140625,7.320210496484375,3.1230232740625,7.366794096484375,3.4032245140625C7.366794096484375,3.4032245140625,8.254794096484375,8.7252245140625,8.254794096484375,8.7252245140625C8.297225996484375,8.9786887140625,8.257158296484375,9.2390771140625,8.140506296484375,9.4680605140625C8.023854296484375,9.697044814062501,7.836774396484375,9.8825402140625,7.606794396484375,9.9972243140625C7.606794396484375,9.9972243140625,5.749193896484375,10.9248247140625,5.749193896484375,10.9248247140625C6.415326096484375,12.5756044140625,7.407390096484375,14.0751614140625,8.666130096484375,15.3338654140625C9.924858096484375,16.5926644140625,11.424414596484375,17.584705414062498,13.075193896484375,18.2508254140625C13.075193896484375,18.2508254140625,14.003993896484374,16.3932254140625,14.003993896484374,16.3932254140625C14.118617896484375,16.1634244140625,14.303922896484375,15.9765844140625,14.532714896484375,15.8599454140625C14.761434896484374,15.7433054140625,15.021474896484374,15.7031054140625,15.274794896484375,15.7452254140625C15.274794896484375,15.7452254140625,20.596793896484375,16.6332254140625,20.596793896484375,16.6332254140625C20.876994896484376,16.6797854140625,21.131635896484376,16.824264414062498,21.315234896484377,17.0409854140625C21.498954896484374,17.2575844140625,21.599874896484376,17.5323844140625,21.599994896484375,17.8164254140625C21.599994896484375,17.8164254140625,21.599994896484375,20.4000244140625,21.599994896484375,20.4000244140625C21.599994896484375,20.7182654140625,21.473514896484375,21.0235444140625,21.248513896484376,21.2485444140625C21.023513896484374,21.4735454140625,20.718234896484375,21.6000254140625,20.399993896484375,21.6000254140625C20.399993896484375,21.6000254140625,17.999993896484376,21.6000254140625,17.999993896484376,21.6000254140625C9.383994596484374,21.6000254140625,2.399993896484375,14.6160254140625,2.399993896484375,6.0000245140625C2.399993896484375,6.0000245140625,2.399993896484375,3.6000244140625,2.399993896484375,3.6000244140625C2.399993896484375,3.6000244140625,2.399993896484375,3.6000244140625,2.399993896484375,3.6000244140625Z" fill="#0A0A28" fill-opacity="1"/><path d="M20.04838989921875,3.95162397171875C20.27335409921875,4.17665756171875,20.39972639921875,4.48182720171875,20.39972639921875,4.80002406171875C20.39972639921875,5.11822096171875,20.27335409921875,5.4233928617187495,20.04838989921875,5.64842896171875C20.04838989921875,5.64842896171875,18.49678989921875,7.200028861718749,18.49678989921875,7.200028861718749C18.49678989921875,7.200028861718749,20.04838989921875,8.75162886171875,20.04838989921875,8.75162886171875C20.26698209921875,8.977949161718751,20.38793039921875,9.28106926171875,20.38519379921875,9.59570886171875C20.38245819921875,9.91033696171875,20.25626609921875,10.211321361718749,20.03377389921875,10.433801161718751C19.81128169921875,10.656293361718749,19.51031019921875,10.78249696171875,19.19566969921875,10.785233061718749C18.881030099218748,10.787969161718749,18.577909499218748,10.667008861718749,18.351590199218748,10.44842906171875C18.351590199218748,10.44842906171875,16.79998989921875,8.896829161718749,16.79998989921875,8.896829161718749C16.79998989921875,8.896829161718749,15.24838969921875,10.44842906171875,15.24838969921875,10.44842906171875C15.13768979921875,10.56304116171875,15.00528179921875,10.65445706171875,14.85886979921875,10.71734906171875C14.71246979921875,10.780241461718749,14.55500569921875,10.81333686171875,14.39566969921875,10.81472926171875C14.23633369921875,10.81610866171875,14.07831888921875,10.785748961718749,13.93084376921875,10.72541336171875C13.78336733921875,10.665077161718749,13.64938610921875,10.57596496171875,13.53671451921875,10.46329736171875C13.42404290921875,10.35062886171875,13.33493929921875,10.216649061718751,13.27460246521875,10.06916906171875C13.21426538221875,9.92168906171875,13.18390242721875,9.76367286171875,13.18528700606075,9.604348661718749C13.18667158321875,9.44501306171875,13.21977518121875,9.28754906171875,13.28266598321875,9.14113716171875C13.34555691921875,8.99473666171875,13.43697648921875,8.86231656171875,13.55158850921875,8.75162886171875C13.55158850921875,8.75162886171875,15.103189699218749,7.200028861718749,15.103189699218749,7.200028861718749C15.103189699218749,7.200028861718749,13.55158850921875,5.64842896171875,13.55158850921875,5.64842896171875C13.33299889921875,5.4220968617187495,13.21204550021875,5.11897696171875,13.21477958021875,4.80434866171875C13.21751365821875,4.48970640171875,13.34371611921875,4.18873197171875,13.56620573921875,3.96624237171875C13.78869533921875,3.74375278171875,14.08967095921875,3.61754972271875,14.40430979921875,3.61481564171875C14.71893779921875,3.61208151371875,15.02206969921875,3.73303437171875,15.24838969921875,3.95162397171875C15.24838969921875,3.95162397171875,16.79998989921875,5.50322886171875,16.79998989921875,5.50322886171875C16.79998989921875,5.50322886171875,18.351590199218748,3.95162397171875,18.351590199218748,3.95162397171875C18.57662579921875,3.72665876171875,18.881785899218748,3.60028076171875,19.19998979921875,3.60028076171875C19.51818229921875,3.60028076171875,19.82335419921875,3.72665876171875,20.04838989921875,3.95162397171875C20.04838989921875,3.95162397171875,20.04838989921875,3.95162397171875,20.04838989921875,3.95162397171875Z" fill="#0A0A28" fill-opacity="1"/></g></svg>