<svg xmlns="http://www.w3.org/2000/svg" xmlns:xlink="http://www.w3.org/1999/xlink" fill="none" version="1.1" width="24" height="24" viewBox="0 0 24 24"><defs><clipPath id="master_svg0_3_2039"><rect x="0" y="0" width="24" height="24" rx="0"/></clipPath></defs><g clip-path="url(#master_svg0_3_2039)"><path d="M5,3C5,3,5,2,5,2C5,2,5,3,5,3C5,3,5,3,5,3ZM8.2800002,3C8.2800002,3,8.2807598,2,8.2807598,2C8.2807598,2,8.2800002,2,8.2800002,2C8.2800002,2,8.2800002,3,8.2800002,3C8.2800002,3,8.2800002,3,8.2800002,3ZM9.2280002,3.68400002C9.2280002,3.68400002,8.279240099999999,4,8.279240099999999,4C8.279240099999999,4,8.279339799999999,4.00029,8.279339799999999,4.00029C8.279339799999999,4.00029,9.2280002,3.68400002,9.2280002,3.68400002C9.2280002,3.68400002,9.2280002,3.68400002,9.2280002,3.68400002ZM10.7259998,8.177C10.7259998,8.177,11.6749496,7.8615599,11.6749496,7.8615599C11.6749496,7.8615599,11.6746597,7.8607101,11.6746597,7.8607101C11.6746597,7.8607101,10.7259998,8.177,10.7259998,8.177C10.7259998,8.177,10.7259998,8.177,10.7259998,8.177ZM10.224,9.3870001C10.224,9.3870001,9.77705,8.4924402,9.77705,8.4924402C9.77705,8.4924402,9.776309999999999,8.4928098,9.776309999999999,8.4928098C9.776309999999999,8.4928098,10.224,9.3870001,10.224,9.3870001C10.224,9.3870001,10.224,9.3870001,10.224,9.3870001ZM7.967,10.5170002C7.967,10.5170002,7.51931,9.6228099,7.51931,9.6228099C7.03931,9.8631301,6.8346701,10.439559899999999,7.0556998,10.92875C7.0556998,10.92875,7.967,10.5170002,7.967,10.5170002C7.967,10.5170002,7.967,10.5170002,7.967,10.5170002ZM13.483,16.033C13.483,16.033,13.0712,16.9443,13.0712,16.9443C13.5604,17.165300000000002,14.1369,16.9607,14.3772,16.4807C14.3772,16.4807,13.483,16.033,13.483,16.033C13.483,16.033,13.483,16.033,13.483,16.033ZM14.613,13.776C14.613,13.776,15.5072,14.2237,15.5072,14.2237C15.5072,14.2237,15.5076,14.2229,15.5076,14.2229C15.5076,14.2229,14.613,13.776,14.613,13.776C14.613,13.776,14.613,13.776,14.613,13.776ZM15.823,13.274C15.823,13.274,16.1393,12.3253403,16.1393,12.3253403C16.1393,12.3253403,16.1384,12.3250504,16.1384,12.3250504C16.1384,12.3250504,15.823,13.274,15.823,13.274C15.823,13.274,15.823,13.274,15.823,13.274ZM20.316,14.772C20.316,14.772,19.999701,15.7207,19.999701,15.7207C19.999701,15.7207,20,15.7208,20,15.7208C20,15.7208,20.316,14.772,20.316,14.772C20.316,14.772,20.316,14.772,20.316,14.772ZM21,15.721C21,15.721,20,15.7208,20,15.7208C20,15.7208,20,15.721,20,15.721C20,15.721,21,15.721,21,15.721C21,15.721,21,15.721,21,15.721ZM4,5C4,4.73478,4.10536,4.48043,4.29289,4.29289C4.29289,4.29289,2.87868,2.87868,2.87868,2.87868C2.3160700199999997,3.44128901,2,4.20435,2,5C2,5,4,5,4,5C4,5,4,5,4,5ZM4.29289,4.29289C4.48043,4.10536,4.73478,4,5,4C5,4,5,2,5,2C4.20435,2,3.44128901,2.3160700199999997,2.87868,2.87868C2.87868,2.87868,4.29289,4.29289,4.29289,4.29289C4.29289,4.29289,4.29289,4.29289,4.29289,4.29289ZM5,4C5,4,8.2800002,4,8.2800002,4C8.2800002,4,8.2800002,2,8.2800002,2C8.2800002,2,5,2,5,2C5,2,5,4,5,4C5,4,5,4,5,4ZM8.279240099999999,4C8.279240099999999,4,8.279240099999999,4,8.279240099999999,4C8.279240099999999,4,9.44947,2.37809998,9.44947,2.37809998C9.109210000000001,2.13259298,8.7003498,2.000319,8.2807598,2C8.2807598,2,8.279240099999999,4,8.279240099999999,4C8.279240099999999,4,8.279240099999999,4,8.279240099999999,4ZM8.279240099999999,4C8.279240099999999,4,8.279240099999999,4,8.279240099999999,4C8.279240099999999,4,10.1767602,3.368,10.1767602,3.368C10.0441699,2.9699123,9.7897401,2.62360701,9.44947,2.37809998C9.44947,2.37809998,8.279240099999999,4,8.279240099999999,4C8.279240099999999,4,8.279240099999999,4,8.279240099999999,4ZM8.279339799999999,4.00029C8.279339799999999,4.00029,9.777339900000001,8.4932899,9.777339900000001,8.4932899C9.777339900000001,8.4932899,11.6746597,7.8607101,11.6746597,7.8607101C11.6746597,7.8607101,10.1766601,3.36770901,10.1766601,3.36770901C10.1766601,3.36770901,8.279339799999999,4.00029,8.279339799999999,4.00029C8.279339799999999,4.00029,8.279339799999999,4.00029,8.279339799999999,4.00029ZM9.77705,8.4924402C9.77705,8.4924402,9.77705,8.4924402,9.77705,8.4924402C9.77705,8.4924402,11.6243801,9.2588501,11.6243801,9.2588501C11.8087997,8.814340099999999,11.8267498,8.3182402,11.6749496,7.8615599C11.6749496,7.8615599,9.77705,8.4924402,9.77705,8.4924402C9.77705,8.4924402,9.77705,8.4924402,9.77705,8.4924402ZM9.77705,8.4924402C9.77705,8.4924402,9.77705,8.4924402,9.77705,8.4924402C9.77705,8.4924402,10.6709499,10.281559900000001,10.6709499,10.281559900000001C11.10145,10.0664701,11.4399595,9.703360100000001,11.6243801,9.2588501C11.6243801,9.2588501,9.77705,8.4924402,9.77705,8.4924402C9.77705,8.4924402,9.77705,8.4924402,9.77705,8.4924402ZM9.776309999999999,8.4928098C9.776309999999999,8.4928098,7.51931,9.6228099,7.51931,9.6228099C7.51931,9.6228099,8.41469,11.41119,8.41469,11.41119C8.41469,11.41119,10.67169,10.281189900000001,10.67169,10.281189900000001C10.67169,10.281189900000001,9.776309999999999,8.4928098,9.776309999999999,8.4928098C9.776309999999999,8.4928098,9.776309999999999,8.4928098,9.776309999999999,8.4928098ZM7.0556998,10.92875C8.2622099,13.599,10.400960000000001,15.7378,13.0712,16.9443C13.0712,16.9443,13.8947,15.1217,13.8947,15.1217C11.6679602,14.1156,9.884419900000001,12.3320398,8.8783002,10.1052499C8.8783002,10.1052499,7.0556998,10.92875,7.0556998,10.92875C7.0556998,10.92875,7.0556998,10.92875,7.0556998,10.92875ZM14.3772,16.4807C14.3772,16.4807,15.5072,14.2237,15.5072,14.2237C15.5072,14.2237,13.7188,13.3283,13.7188,13.3283C13.7188,13.3283,12.58881,15.5853,12.58881,15.5853C12.58881,15.5853,14.3772,16.4807,14.3772,16.4807C14.3772,16.4807,14.3772,16.4807,14.3772,16.4807ZM15.5076,14.2229C15.5076,14.2229,15.5076,14.2229,15.5076,14.2229C15.5076,14.2229,14.7411,12.3756199,14.7411,12.3756199C14.2966,12.5600405,13.9335,12.89855,13.7184,13.3291C13.7184,13.3291,15.5076,14.2229,15.5076,14.2229C15.5076,14.2229,15.5076,14.2229,15.5076,14.2229ZM15.5076,14.2229C15.5076,14.2229,15.5076,14.2229,15.5076,14.2229C15.5076,14.2229,16.1384,12.3250504,16.1384,12.3250504C15.6818,12.1732502,15.1857,12.1912003,14.7411,12.3756199C14.7411,12.3756199,15.5076,14.2229,15.5076,14.2229C15.5076,14.2229,15.5076,14.2229,15.5076,14.2229ZM15.5067,14.2227C15.5067,14.2227,19.999701,15.7207,19.999701,15.7207C19.999701,15.7207,20.632299,13.8233,20.632299,13.8233C20.632299,13.8233,16.1393,12.3253403,16.1393,12.3253403C16.1393,12.3253403,15.5067,14.2227,15.5067,14.2227C15.5067,14.2227,15.5067,14.2227,15.5067,14.2227ZM20,15.7208C20,15.7208,20,15.7208,20,15.7208C20,15.7208,21.622499,14.5513,21.622499,14.5513C21.3769,14.2107,21.030399,13.9559,20.632,13.8232C20.632,13.8232,20,15.7208,20,15.7208C20,15.7208,20,15.7208,20,15.7208ZM20,15.7208C20,15.7208,20,15.7208,20,15.7208C20,15.7208,22,15.7212,22,15.7212C22.000099,15.3013,21.868,14.892,21.622499,14.5513C21.622499,14.5513,20,15.7208,20,15.7208C20,15.7208,20,15.7208,20,15.7208ZM20,15.721C20,15.721,20,19,20,19C20,19,22,19,22,19C22,19,22,15.721,22,15.721C22,15.721,20,15.721,20,15.721C20,15.721,20,15.721,20,15.721ZM20,19C20,19.2652,19.8946,19.5196,19.7071,19.7071C19.7071,19.7071,21.1213,21.1213,21.1213,21.1213C21.683901,20.558701,22,19.7957,22,19C22,19,20,19,20,19C20,19,20,19,20,19ZM19.7071,19.7071C19.5196,19.8946,19.2652,20,19,20C19,20,19,22,19,22C19.7957,22,20.558701,21.683901,21.1213,21.1213C21.1213,21.1213,19.7071,19.7071,19.7071,19.7071C19.7071,19.7071,19.7071,19.7071,19.7071,19.7071ZM19,20C19,20,18,20,18,20C18,20,18,22,18,22C18,22,19,22,19,22C19,22,19,20,19,20C19,20,19,20,19,20ZM18,20C10.26828,20,4,13.7317,4,6C4,6,2,6,2,6C2,14.8363,9.1637101,22,18,22C18,22,18,20,18,20C18,20,18,20,18,20ZM4,6C4,6,4,5,4,5C4,5,2,5,2,5C2,5,2,6,2,6C2,6,4,6,4,6C4,6,4,6,4,6Z" fill="#0A0A28" fill-opacity="1"/></g></svg>