<svg xmlns="http://www.w3.org/2000/svg" xmlns:xlink="http://www.w3.org/1999/xlink" fill="none" version="1.1" width="24" height="24" viewBox="0 0 24 24"><defs><clipPath id="master_svg0_3_1958"><rect x="0" y="0" width="24" height="24" rx="0"/></clipPath></defs><g clip-path="url(#master_svg0_3_1958)"><path d="M16,1.999999761581421C15.4477,1.999999761581421,15,2.4477147415814207,15,2.999999926649421C15,3.552284781581421,15.4477,3.999999761581421,16,3.999999761581421C16,3.999999761581421,16,1.999999761581421,16,1.999999761581421C16,1.999999761581421,16,1.999999761581421,16,1.999999761581421ZM21,2.999999926649421C21,2.999999926649421,22,2.999999926649421,22,2.999999926649421C22,2.4477147415814207,21.552299,1.999999761581421,21,1.999999761581421C21,1.999999761581421,21,2.999999926649421,21,2.999999926649421C21,2.999999926649421,21,2.999999926649421,21,2.999999926649421ZM20,7.999999761581421C20,8.552279661581421,20.447701,8.999999761581421,21,8.999999761581421C21.552299,8.999999761581421,22,8.552279661581421,22,7.999999761581421C22,7.999999761581421,20,7.999999761581421,20,7.999999761581421C20,7.999999761581421,20,7.999999761581421,20,7.999999761581421ZM14.2929,8.292889861581422C13.9024,8.683419961581421,13.9024,9.31657956158142,14.2929,9.70710966158142C14.6834,10.09762976158142,15.3166,10.09762976158142,15.7071,9.70710966158142C15.7071,9.70710966158142,14.2929,8.292889861581422,14.2929,8.292889861581422C14.2929,8.292889861581422,14.2929,8.292889861581422,14.2929,8.292889861581422ZM5,2.999999926649421C5,2.999999926649421,5,1.999999761581421,5,1.999999761581421C5,1.999999761581421,5,2.999999926649421,5,2.999999926649421C5,2.999999926649421,5,2.999999926649421,5,2.999999926649421ZM3,4.999999761581421C3,4.999999761581421,2,4.999999761581421,2,4.999999761581421C2,4.999999761581421,3,4.999999761581421,3,4.999999761581421C3,4.999999761581421,3,4.999999761581421,3,4.999999761581421ZM21,15.719999761581422C21,15.719999761581422,22,15.719999761581422,22,15.719999761581422C22,15.719999761581422,22,15.719199761581422,22,15.719199761581422C22,15.719199761581422,21,15.719999761581422,21,15.719999761581422C21,15.719999761581422,21,15.719999761581422,21,15.719999761581422ZM20.316,14.771999761581421C20.316,14.771999761581421,19.999701,15.720699761581422,19.999701,15.720699761581422C19.999701,15.720699761581422,20,15.720799761581421,20,15.720799761581421C20,15.720799761581421,20.316,14.771999761581421,20.316,14.771999761581421C20.316,14.771999761581421,20.316,14.771999761581421,20.316,14.771999761581421ZM15.823,13.27399976158142C15.823,13.27399976158142,16.1393,12.325340061581421,16.1393,12.325340061581421C16.1393,12.325340061581421,16.1384,12.325050161581421,16.1384,12.325050161581421C16.1384,12.325050161581421,15.823,13.27399976158142,15.823,13.27399976158142C15.823,13.27399976158142,15.823,13.27399976158142,15.823,13.27399976158142ZM14.613,13.77599976158142C14.613,13.77599976158142,15.5072,14.22369976158142,15.5072,14.22369976158142C15.5072,14.22369976158142,15.5076,14.22289976158142,15.5076,14.22289976158142C15.5076,14.22289976158142,14.613,13.77599976158142,14.613,13.77599976158142C14.613,13.77599976158142,14.613,13.77599976158142,14.613,13.77599976158142ZM13.483,16.032999761581422C13.483,16.032999761581422,13.0712,16.94429976158142,13.0712,16.94429976158142C13.5604,17.165299761581423,14.1369,16.96069976158142,14.3772,16.48069976158142C14.3772,16.48069976158142,13.483,16.032999761581422,13.483,16.032999761581422C13.483,16.032999761581422,13.483,16.032999761581422,13.483,16.032999761581422ZM7.967,10.51599956158142C7.967,10.51599956158142,7.5199399,9.62148976158142,7.5199399,9.62148976158142C7.0395699,9.86157966158142,6.83459,10.438219761581422,7.0556502,10.927639761581421C7.0556502,10.927639761581421,7.967,10.51599956158142,7.967,10.51599956158142C7.967,10.51599956158142,7.967,10.51599956158142,7.967,10.51599956158142ZM10.224,9.38799976158142C10.224,9.38799976158142,9.77705,8.493439961581421,9.77705,8.493439961581421C9.77705,8.493439961581421,9.7769399,8.493489961581421,9.7769399,8.493489961581421C9.7769399,8.493489961581421,10.224,9.38799976158142,10.224,9.38799976158142C10.224,9.38799976158142,10.224,9.38799976158142,10.224,9.38799976158142ZM10.7259998,8.177999761581422C10.7259998,8.177999761581422,11.6749496,7.8625595615814206,11.6749496,7.8625595615814206C11.6749496,7.8625595615814206,11.6746998,7.861839561581421,11.6746998,7.861839561581421C11.6746998,7.861839561581421,10.7259998,8.177999761581422,10.7259998,8.177999761581422C10.7259998,8.177999761581422,10.7259998,8.177999761581422,10.7259998,8.177999761581422ZM9.2280002,3.682999791581421C9.2280002,3.682999791581421,10.1767001,3.366835771581421,10.1767001,3.366835771581421C10.1767001,3.366835771581421,10.1764302,3.365999761581421,10.1764302,3.365999761581421C10.1764302,3.365999761581421,9.2280002,3.682999791581421,9.2280002,3.682999791581421C9.2280002,3.682999791581421,9.2280002,3.682999791581421,9.2280002,3.682999791581421ZM8.278999800000001,2.999999926649421C8.278999800000001,2.999999926649421,8.278999800000001,3.999999761581421,8.278999800000001,3.999999761581421C8.278999800000001,3.999999761581421,8.2795701,3.999999761581421,8.2795701,3.999999761581421C8.2795701,3.999999761581421,8.278999800000001,2.999999926649421,8.278999800000001,2.999999926649421C8.278999800000001,2.999999926649421,8.278999800000001,2.999999926649421,8.278999800000001,2.999999926649421ZM16,3.999999761581421C16,3.999999761581421,21,3.999999761581421,21,3.999999761581421C21,3.999999761581421,21,1.999999761581421,21,1.999999761581421C21,1.999999761581421,16,1.999999761581421,16,1.999999761581421C16,1.999999761581421,16,3.999999761581421,16,3.999999761581421C16,3.999999761581421,16,3.999999761581421,16,3.999999761581421ZM20,2.999999926649421C20,2.999999926649421,20,7.999999761581421,20,7.999999761581421C20,7.999999761581421,22,7.999999761581421,22,7.999999761581421C22,7.999999761581421,22,2.999999926649421,22,2.999999926649421C22,2.999999926649421,20,2.999999926649421,20,2.999999926649421C20,2.999999926649421,20,2.999999926649421,20,2.999999926649421ZM20.2929,2.292892751581421C20.2929,2.292892751581421,14.2929,8.292889861581422,14.2929,8.292889861581422C14.2929,8.292889861581422,15.7071,9.70710966158142,15.7071,9.70710966158142C15.7071,9.70710966158142,21.7071,3.707106771581421,21.7071,3.707106771581421C21.7071,3.707106771581421,20.2929,2.292892751581421,20.2929,2.292892751581421C20.2929,2.292892751581421,20.2929,2.292892751581421,20.2929,2.292892751581421ZM5,1.999999761581421C4.20435,1.999999761581421,3.44128901,2.3160697815814206,2.87868,2.878679761581421C2.87868,2.878679761581421,4.29289,4.292889761581421,4.29289,4.292889761581421C4.48043,4.105359761581421,4.73478,3.999999761581421,5,3.999999761581421C5,3.999999761581421,5,1.999999761581421,5,1.999999761581421C5,1.999999761581421,5,1.999999761581421,5,1.999999761581421ZM2.87868,2.878679761581421C2.3160700199999997,3.441288771581421,2,4.204349761581421,2,4.999999761581421C2,4.999999761581421,4,4.999999761581421,4,4.999999761581421C4,4.734779761581421,4.10536,4.480429761581421,4.29289,4.292889761581421C4.29289,4.292889761581421,2.87868,2.878679761581421,2.87868,2.878679761581421C2.87868,2.878679761581421,2.87868,2.878679761581421,2.87868,2.878679761581421ZM2,4.999999761581421C2,4.999999761581421,2,5.999999761581421,2,5.999999761581421C2,5.999999761581421,4,5.999999761581421,4,5.999999761581421C4,5.999999761581421,4,4.999999761581421,4,4.999999761581421C4,4.999999761581421,2,4.999999761581421,2,4.999999761581421C2,4.999999761581421,2,4.999999761581421,2,4.999999761581421ZM2,5.999999761581421C2,14.83629976158142,9.1637101,21.99999976158142,18,21.99999976158142C18,21.99999976158142,18,19.99999976158142,18,19.99999976158142C10.26828,19.99999976158142,4,13.731699761581421,4,5.999999761581421C4,5.999999761581421,2,5.999999761581421,2,5.999999761581421C2,5.999999761581421,2,5.999999761581421,2,5.999999761581421ZM18,21.99999976158142C18,21.99999976158142,19,21.99999976158142,19,21.99999976158142C19,21.99999976158142,19,19.99999976158142,19,19.99999976158142C19,19.99999976158142,18,19.99999976158142,18,19.99999976158142C18,19.99999976158142,18,21.99999976158142,18,21.99999976158142C18,21.99999976158142,18,21.99999976158142,18,21.99999976158142ZM19,21.99999976158142C19.7957,21.99999976158142,20.558701,21.68390076158142,21.1213,21.121299761581422C21.1213,21.121299761581422,19.7071,19.70709976158142,19.7071,19.70709976158142C19.5196,19.89459976158142,19.2652,19.99999976158142,19,19.99999976158142C19,19.99999976158142,19,21.99999976158142,19,21.99999976158142C19,21.99999976158142,19,21.99999976158142,19,21.99999976158142ZM21.1213,21.121299761581422C21.683901,20.55870076158142,22,19.79569976158142,22,18.99999976158142C22,18.99999976158142,20,18.99999976158142,20,18.99999976158142C20,19.26519976158142,19.8946,19.51959976158142,19.7071,19.70709976158142C19.7071,19.70709976158142,21.1213,21.121299761581422,21.1213,21.121299761581422C21.1213,21.121299761581422,21.1213,21.121299761581422,21.1213,21.121299761581422ZM22,18.99999976158142C22,18.99999976158142,22,15.719999761581422,22,15.719999761581422C22,15.719999761581422,20,15.719999761581422,20,15.719999761581422C20,15.719999761581422,20,18.99999976158142,20,18.99999976158142C20,18.99999976158142,22,18.99999976158142,22,18.99999976158142C22,18.99999976158142,22,18.99999976158142,22,18.99999976158142ZM22,15.719199761581422C21.999701,15.29969976158142,21.867399,14.890799761581421,21.621901,14.55049976158142C21.621901,14.55049976158142,20,15.720799761581421,20,15.720799761581421C20,15.720799761581421,20,15.720799761581421,20,15.720799761581421C20,15.720799761581421,22,15.719199761581422,22,15.719199761581422C22,15.719199761581422,22,15.719199761581422,22,15.719199761581422ZM21.621901,14.55049976158142C21.3764,14.210299761581421,21.0301,13.95579976158142,20.632,13.82319976158142C20.632,13.82319976158142,20,15.720799761581421,20,15.720799761581421C20,15.720799761581421,20,15.720799761581421,20,15.720799761581421C20,15.720799761581421,21.621901,14.55049976158142,21.621901,14.55049976158142C21.621901,14.55049976158142,21.621901,14.55049976158142,21.621901,14.55049976158142ZM20.632299,13.82329976158142C20.632299,13.82329976158142,16.1393,12.325340061581421,16.1393,12.325340061581421C16.1393,12.325340061581421,15.5067,14.22269976158142,15.5067,14.22269976158142C15.5067,14.22269976158142,19.999701,15.720699761581422,19.999701,15.720699761581422C19.999701,15.720699761581422,20.632299,13.82329976158142,20.632299,13.82329976158142C20.632299,13.82329976158142,20.632299,13.82329976158142,20.632299,13.82329976158142ZM16.1384,12.325050161581421C15.6818,12.173249961581421,15.1857,12.191200061581421,14.7411,12.375619661581421C14.7411,12.375619661581421,15.5076,14.22289976158142,15.5076,14.22289976158142C15.5076,14.22289976158142,15.5076,14.22289976158142,15.5076,14.22289976158142C15.5076,14.22289976158142,16.1384,12.325050161581421,16.1384,12.325050161581421C16.1384,12.325050161581421,16.1384,12.325050161581421,16.1384,12.325050161581421ZM14.7411,12.375619661581421C14.2966,12.56004026158142,13.9335,12.898549761581421,13.7184,13.329099761581421C13.7184,13.329099761581421,15.5076,14.22289976158142,15.5076,14.22289976158142C15.5076,14.22289976158142,15.5076,14.22289976158142,15.5076,14.22289976158142C15.5076,14.22289976158142,14.7411,12.375619661581421,14.7411,12.375619661581421C14.7411,12.375619661581421,14.7411,12.375619661581421,14.7411,12.375619661581421ZM13.7188,13.328299761581421C13.7188,13.328299761581421,12.58881,15.585299761581421,12.58881,15.585299761581421C12.58881,15.585299761581421,14.3772,16.48069976158142,14.3772,16.48069976158142C14.3772,16.48069976158142,15.5072,14.22369976158142,15.5072,14.22369976158142C15.5072,14.22369976158142,13.7188,13.328299761581421,13.7188,13.328299761581421C13.7188,13.328299761581421,13.7188,13.328299761581421,13.7188,13.328299761581421ZM13.8948,15.121699761581421C11.6678495,14.11539976158142,9.884290199999999,12.33149986158142,8.878349799999999,10.104359861581422C8.878349799999999,10.104359861581422,7.0556502,10.927639761581421,7.0556502,10.927639761581421C8.261949999999999,13.598299761581421,10.400720100000001,15.737499761581422,13.0712,16.94429976158142C13.0712,16.94429976158142,13.8948,15.121699761581421,13.8948,15.121699761581421C13.8948,15.121699761581421,13.8948,15.121699761581421,13.8948,15.121699761581421ZM8.4140601,11.41050986158142C8.4140601,11.41050986158142,10.6710601,10.28250956158142,10.6710601,10.28250956158142C10.6710601,10.28250956158142,9.7769399,8.493489961581421,9.7769399,8.493489961581421C9.7769399,8.493489961581421,7.5199399,9.62148976158142,7.5199399,9.62148976158142C7.5199399,9.62148976158142,8.4140601,11.41050986158142,8.4140601,11.41050986158142C8.4140601,11.41050986158142,8.4140601,11.41050986158142,8.4140601,11.41050986158142ZM10.6709499,10.28255966158142C11.10145,10.067469861581422,11.4399595,9.704359761581422,11.6243801,9.259849761581421C11.6243801,9.259849761581421,9.77705,8.493439961581421,9.77705,8.493439961581421C9.77705,8.493439961581421,9.77705,8.493439961581421,9.77705,8.493439961581421C9.77705,8.493439961581421,10.6709499,10.28255966158142,10.6709499,10.28255966158142C10.6709499,10.28255966158142,10.6709499,10.28255966158142,10.6709499,10.28255966158142ZM11.6243801,9.259849761581421C11.8087997,8.81533976158142,11.8267498,8.319239861581421,11.6749496,7.8625595615814206C11.6749496,7.8625595615814206,9.77705,8.493439961581421,9.77705,8.493439961581421C9.77705,8.493439961581421,9.77705,8.493439961581421,9.77705,8.493439961581421C9.77705,8.493439961581421,11.6243801,9.259849761581421,11.6243801,9.259849761581421C11.6243801,9.259849761581421,11.6243801,9.259849761581421,11.6243801,9.259849761581421ZM11.6746998,7.861839561581421C11.6746998,7.861839561581421,10.1767001,3.366835771581421,10.1767001,3.366835771581421C10.1767001,3.366835771581421,8.2793002,3.999164761581421,8.2793002,3.999164761581421C8.2793002,3.999164761581421,9.7772999,8.49415996158142,9.7772999,8.49415996158142C9.7772999,8.49415996158142,11.6746998,7.861839561581421,11.6746998,7.861839561581421C11.6746998,7.861839561581421,11.6746998,7.861839561581421,11.6746998,7.861839561581421ZM10.1764302,3.365999761581421C10.0433898,2.967964161581421,9.7885098,2.621861751581421,9.4478698,2.376703741581421C9.4478698,2.376703741581421,8.2795701,3.999999761581421,8.2795701,3.999999761581421C8.2795701,3.999999761581421,8.2795701,3.999999761581421,8.2795701,3.999999761581421C8.2795701,3.999999761581421,10.1764302,3.365999761581421,10.1764302,3.365999761581421C10.1764302,3.365999761581421,10.1764302,3.365999761581421,10.1764302,3.365999761581421ZM9.4478698,2.376703741581421C9.1072302,2.131546731581421,8.698110100000001,1.9997597615814209,8.27843,1.999999761581421C8.27843,1.999999761581421,8.2795701,3.999999761581421,8.2795701,3.999999761581421C8.2795701,3.999999761581421,8.2795701,3.999999761581421,8.2795701,3.999999761581421C8.2795701,3.999999761581421,9.4478698,2.376703741581421,9.4478698,2.376703741581421C9.4478698,2.376703741581421,9.4478698,2.376703741581421,9.4478698,2.376703741581421ZM8.278999800000001,1.999999761581421C8.278999800000001,1.999999761581421,5,1.999999761581421,5,1.999999761581421C5,1.999999761581421,5,3.999999761581421,5,3.999999761581421C5,3.999999761581421,8.278999800000001,3.999999761581421,8.278999800000001,3.999999761581421C8.278999800000001,3.999999761581421,8.278999800000001,1.999999761581421,8.278999800000001,1.999999761581421C8.278999800000001,1.999999761581421,8.278999800000001,1.999999761581421,8.278999800000001,1.999999761581421Z" fill="#0A0A28" fill-opacity="1"/></g></svg>