<svg xmlns="http://www.w3.org/2000/svg" xmlns:xlink="http://www.w3.org/1999/xlink" fill="none" version="1.1" width="24" height="24" viewBox="0 0 24 24"><defs><clipPath id="master_svg0_3_1737"><rect x="0" y="0" width="24" height="24" rx="0"/></clipPath></defs><g clip-path="url(#master_svg0_3_1737)"><path d="M17.296812507031248,8.39998628671875C17.296812507031248,8.39998628671875,21.24841210703125,4.448385986718749,21.24841210703125,4.448385986718749C21.467004807031252,4.22206588671875,21.587952607031248,3.91894588671875,21.585216507031248,3.60430598671875C21.58249280703125,3.28967070671875,21.45628830703125,2.98869508671875,21.23379610703125,2.76620548671875C21.01130440703125,2.54371589671875,20.71033290703125,2.41751335071875,20.39569230703125,2.41477924984075C20.08105230703125,2.41204514261875,19.77793220703125,2.53299832671875,19.55161280703125,2.75158831671875C19.55161280703125,2.75158831671875,15.60001230703125,6.70318598671875,15.60001230703125,6.70318598671875C15.60001230703125,6.70318598671875,15.60001230703125,4.7999858867187495,15.60001230703125,4.7999858867187495C15.60001230703125,4.48173408671875,15.47358040703125,4.17650198671875,15.24854440703125,3.95145388671875C15.02349630703125,3.72641798671875,14.71827640703125,3.59998838671875,14.40001220703125,3.59998838671875C14.08175307703125,3.59998838671875,13.77652823703125,3.72641798671875,13.55148380703125,3.95145388671875C13.32644061703125,4.17650198671875,13.20001220703125,4.48173408671875,13.20001220703125,4.7999858867187495C13.20001220703125,4.7999858867187495,13.20001220703125,9.60358568671875,13.20001220703125,9.60358568671875C13.20002950587125,9.84044218671875,13.27041693003125,10.071946186718751,13.40224100703125,10.26871008671875C13.53406461703125,10.46548648671875,13.72137981703125,10.61866568671875,13.94041222703125,10.70878598671875C14.08610302703125,10.76918218671875,14.24229860703125,10.80017848671875,14.40001220703125,10.79998588671875C14.40001220703125,10.79998588671875,19.20001220703125,10.79998588671875,19.20001220703125,10.79998588671875C19.518276707031248,10.79998588671875,19.82349630703125,10.67355438671875,20.04854440703125,10.44851778671875C20.273580507031248,10.22347018671875,20.40001250703125,9.918250586718749,20.40001250703125,9.59998608671875C20.40001250703125,9.28173398671875,20.273580507031248,8.97650238671875,20.04854440703125,8.751466286718749C19.82349630703125,8.52641818671875,19.518276707031248,8.39998628671875,19.20001220703125,8.39998628671875C19.20001220703125,8.39998628671875,17.296812507031248,8.39998628671875,17.296812507031248,8.39998628671875C17.296812507031248,8.39998628671875,17.296812507031248,8.39998628671875,17.296812507031248,8.39998628671875Z" fill="#0A0A28" fill-opacity="1"/><path d="M2.399993896484375,3.6000244140625C2.399993896484375,3.2817652840625,2.526422306484375,2.9765404440625,2.751465496484375,2.7514960140625C2.976509926484375,2.5264528240625,3.281734766484375,2.4000244140625004,3.599993896484375,2.4000244140625C3.599993896484375,2.4000244140625,6.183594196484375,2.4000244140625,6.183594196484375,2.4000244140625C6.467646096484375,2.4001551768625,6.742433996484375,2.5010412540624998,6.959082096484375,2.6847364340625C7.175742196484375,2.8684312140625,7.320210496484375,3.1230232740625,7.366794096484375,3.4032245140625C7.366794096484375,3.4032245140625,8.254794096484375,8.7252245140625,8.254794096484375,8.7252245140625C8.297225996484375,8.9786887140625,8.257158296484375,9.2390771140625,8.140506296484375,9.4680605140625C8.023854296484375,9.697044814062501,7.836774396484375,9.8825402140625,7.606794396484375,9.9972243140625C7.606794396484375,9.9972243140625,5.749193896484375,10.9248247140625,5.749193896484375,10.9248247140625C6.415326096484375,12.5756044140625,7.407390096484375,14.0751614140625,8.666130096484375,15.3338654140625C9.924858096484375,16.5926644140625,11.424414596484375,17.584705414062498,13.075193896484375,18.2508254140625C13.075193896484375,18.2508254140625,14.003993896484374,16.3932254140625,14.003993896484374,16.3932254140625C14.118617896484375,16.1634244140625,14.303922896484375,15.9765844140625,14.532714896484375,15.8599454140625C14.761434896484374,15.7433054140625,15.021474896484374,15.7031054140625,15.274794896484375,15.7452254140625C15.274794896484375,15.7452254140625,20.596793896484375,16.6332254140625,20.596793896484375,16.6332254140625C20.876994896484376,16.6797854140625,21.131635896484376,16.824264414062498,21.315234896484377,17.0409854140625C21.498954896484374,17.2575844140625,21.599874896484376,17.5323844140625,21.599994896484375,17.8164254140625C21.599994896484375,17.8164254140625,21.599994896484375,20.4000244140625,21.599994896484375,20.4000244140625C21.599994896484375,20.7182654140625,21.473514896484375,21.0235444140625,21.248513896484376,21.2485444140625C21.023513896484374,21.4735454140625,20.718234896484375,21.6000254140625,20.399993896484375,21.6000254140625C20.399993896484375,21.6000254140625,17.999993896484376,21.6000254140625,17.999993896484376,21.6000254140625C9.383994596484374,21.6000254140625,2.399993896484375,14.6160254140625,2.399993896484375,6.0000245140625C2.399993896484375,6.0000245140625,2.399993896484375,3.6000244140625,2.399993896484375,3.6000244140625C2.399993896484375,3.6000244140625,2.399993896484375,3.6000244140625,2.399993896484375,3.6000244140625Z" fill="#0A0A28" fill-opacity="1"/></g></svg>