<svg xmlns="http://www.w3.org/2000/svg" xmlns:xlink="http://www.w3.org/1999/xlink" fill="none" version="1.1" width="24" height="24" viewBox="0 0 24 24"><defs><clipPath id="master_svg0_3_1694"><rect x="0" y="0" width="24" height="24" rx="0"/></clipPath></defs><g clip-path="url(#master_svg0_3_1694)"><path d="M21.508804297265627,3.1404256240625C21.448876397265625,2.9960032140625,21.361228897265626,2.8647280040625,21.250804897265624,2.7540256340625C21.250804897265624,2.7540256340625,21.246004097265626,2.7492244240625,21.246004097265626,2.7492244240625C21.021436197265626,2.5252984140625,20.717140197265625,2.3996974176225,20.400004397265626,2.4000250534441C20.400004397265626,2.4000250534441,15.600004197265624,2.4000250534441,15.600004197265624,2.4000250534441C15.281752397265624,2.4000250534441,14.976520297265624,2.5264528240625,14.751472197265626,2.7514972340625C14.526436297265626,2.9765404440625,14.400006697265624,3.2817652840625,14.400006697265624,3.6000244140625C14.400006697265624,3.9182886140625,14.526436297265626,4.2235085140625,14.751472197265626,4.4485566140625C14.976520297265624,4.6735926140625,15.281752397265624,4.8000245140625,15.600004197265624,4.8000245140625C15.600004197265624,4.8000245140625,17.503204297265626,4.8000245140625,17.503204297265626,4.8000245140625C17.503204297265626,4.8000245140625,13.551606627265626,8.751625014062501,13.551606627265626,8.751625014062501C13.333016637265626,8.977944414062499,13.212063453165625,9.2810769140625,13.214797560387625,9.5957045140625C13.217531661265625,9.910345114062501,13.343734207265625,10.2113166140625,13.566223797265625,10.4338083140625C13.788713397265624,10.6563005140625,14.089689017265625,10.7825050140625,14.404325497265624,10.7852287140625C14.718964197265626,10.7879648140625,15.022084197265626,10.6670170140625,15.248404297265624,10.4484243140625C15.248404297265624,10.4484243140625,19.200004597265625,6.4968247140625,19.200004597265625,6.4968247140625C19.200004597265625,6.4968247140625,19.200004597265625,8.4000244140625,19.200004597265625,8.4000244140625C19.200004597265625,8.7182889140625,19.326436497265625,9.023508514062499,19.551472697265623,9.248556614062501C19.776520697265624,9.4735927140625,20.081752297265623,9.6000247140625,20.400004397265626,9.6000247140625C20.718268897265624,9.6000247140625,21.023488497265625,9.4735927140625,21.248536097265625,9.248556614062501C21.473584197265623,9.023508514062499,21.600004197265626,8.7182889140625,21.600004197265626,8.4000244140625C21.600004197265626,8.4000244140625,21.600004197265626,3.6000244140625,21.600004197265626,3.6000244140625C21.600196797265625,3.4423108140625,21.569200497265626,3.2861164240625,21.508804297265627,3.1404256240625C21.508804297265627,3.1404256240625,21.508804297265627,3.1404256240625,21.508804297265627,3.1404256240625C21.508804297265627,3.1404256240625,21.508804297265627,3.1404256240625,21.508804297265627,3.1404256240625Z" fill="#0A0A28" fill-opacity="1"/><path d="M2.399993896484375,3.6000244140625C2.399993896484375,3.2817652840625,2.526422306484375,2.9765404440625,2.751465496484375,2.7514960140625C2.976509926484375,2.5264528240625,3.281734766484375,2.4000244140625004,3.599993896484375,2.4000244140625C3.599993896484375,2.4000244140625,6.183594196484375,2.4000244140625,6.183594196484375,2.4000244140625C6.467646096484375,2.4001551768625,6.742433996484375,2.5010412540624998,6.959082096484375,2.6847364340625C7.175742196484375,2.8684312140625,7.320210496484375,3.1230232740625,7.366794096484375,3.4032245140625C7.366794096484375,3.4032245140625,8.254794096484375,8.7252245140625,8.254794096484375,8.7252245140625C8.297225996484375,8.9786887140625,8.257158296484375,9.2390771140625,8.140506296484375,9.4680605140625C8.023854296484375,9.697044814062501,7.836774396484375,9.8825402140625,7.606794396484375,9.9972243140625C7.606794396484375,9.9972243140625,5.749193896484375,10.9248247140625,5.749193896484375,10.9248247140625C6.415326096484375,12.5756044140625,7.407390096484375,14.0751614140625,8.666130096484375,15.3338654140625C9.924858096484375,16.5926644140625,11.424414596484375,17.584705414062498,13.075193896484375,18.2508254140625C13.075193896484375,18.2508254140625,14.003993896484374,16.3932254140625,14.003993896484374,16.3932254140625C14.118617896484375,16.1634244140625,14.303922896484375,15.9765844140625,14.532714896484375,15.8599454140625C14.761434896484374,15.7433054140625,15.021474896484374,15.7031054140625,15.274794896484375,15.7452254140625C15.274794896484375,15.7452254140625,20.596793896484375,16.6332254140625,20.596793896484375,16.6332254140625C20.876994896484376,16.6797854140625,21.131635896484376,16.824264414062498,21.315234896484377,17.0409854140625C21.498954896484374,17.2575844140625,21.599874896484376,17.5323844140625,21.599994896484375,17.8164254140625C21.599994896484375,17.8164254140625,21.599994896484375,20.4000244140625,21.599994896484375,20.4000244140625C21.599994896484375,20.7182654140625,21.473514896484375,21.0235444140625,21.248513896484376,21.2485444140625C21.023513896484374,21.4735454140625,20.718234896484375,21.6000254140625,20.399993896484375,21.6000254140625C20.399993896484375,21.6000254140625,17.999993896484376,21.6000254140625,17.999993896484376,21.6000254140625C9.383994596484374,21.6000254140625,2.399993896484375,14.6160254140625,2.399993896484375,6.0000245140625C2.399993896484375,6.0000245140625,2.399993896484375,3.6000244140625,2.399993896484375,3.6000244140625C2.399993896484375,3.6000244140625,2.399993896484375,3.6000244140625,2.399993896484375,3.6000244140625Z" fill="#0A0A28" fill-opacity="1"/></g></svg>