<svg xmlns="http://www.w3.org/2000/svg" xmlns:xlink="http://www.w3.org/1999/xlink" fill="none" version="1.1" width="24" height="24" viewBox="0 0 24 24"><defs><clipPath id="master_svg0_3_1621"><rect x="0" y="0" width="24" height="24" rx="0"/></clipPath></defs><g clip-path="url(#master_svg0_3_1621)"><path d="M2.4000244140625,3.6000244140625C2.4000244140625,3.2817652840625,2.5264528240625,2.9765404440625,2.7514960140625,2.7514960140625C2.9765404440625,2.5264528240625,3.2817652840625,2.4000244140625004,3.6000244140625,2.4000244140625C3.6000244140625,2.4000244140625,6.1836247140625,2.4000244140625,6.1836247140625,2.4000244140625C6.4676766140625,2.4001551768625,6.7424645140625,2.5010412540624998,6.9591126140625,2.6847364340625C7.1757727140625,2.8684312140625,7.3202410140625,3.1230232740625,7.3668246140625,3.4032245140625C7.3668246140625,3.4032245140625,8.2548246140625,8.7252245140625,8.2548246140625,8.7252245140625C8.2972565140625,8.9786887140625,8.2571888140625,9.2390771140625,8.1405368140625,9.4680605140625C8.0238848140625,9.697044814062501,7.8368049140625,9.8825402140625,7.6068249140625,9.9972243140625C7.6068249140625,9.9972243140625,5.7492244140625,10.9248247140625,5.7492244140625,10.9248247140625C6.4153566140625,12.5756044140625,7.4074206140625,14.0751614140625,8.6661606140625,15.3338654140625C9.9248886140625,16.5926644140625,11.4244451140625,17.584705414062498,13.0752244140625,18.2508254140625C13.0752244140625,18.2508254140625,14.0040244140625,16.3932254140625,14.0040244140625,16.3932254140625C14.1186484140625,16.1634244140625,14.3039534140625,15.9765844140625,14.5327454140625,15.8599454140625C14.7614654140625,15.7433054140625,15.0215054140625,15.7031054140625,15.2748254140625,15.7452254140625C15.2748254140625,15.7452254140625,20.5968244140625,16.6332254140625,20.5968244140625,16.6332254140625C20.8770254140625,16.6797854140625,21.1316664140625,16.824264414062498,21.3152654140625,17.0409854140625C21.4989854140625,17.2575844140625,21.5999054140625,17.5323844140625,21.6000254140625,17.8164254140625C21.6000254140625,17.8164254140625,21.6000254140625,20.4000244140625,21.6000254140625,20.4000244140625C21.6000254140625,20.7182654140625,21.4735454140625,21.0235444140625,21.2485444140625,21.2485444140625C21.0235444140625,21.4735454140625,20.7182654140625,21.6000254140625,20.4000244140625,21.6000254140625C20.4000244140625,21.6000254140625,18.0000244140625,21.6000254140625,18.0000244140625,21.6000254140625C9.3840251140625,21.6000254140625,2.4000244140625,14.6160254140625,2.4000244140625,6.0000245140625C2.4000244140625,6.0000245140625,2.4000244140625,3.6000244140625,2.4000244140625,3.6000244140625C2.4000244140625,3.6000244140625,2.4000244140625,3.6000244140625,2.4000244140625,3.6000244140625Z" fill="#0A0A28" fill-opacity="1"/></g></svg>