<svg xmlns="http://www.w3.org/2000/svg" xmlns:xlink="http://www.w3.org/1999/xlink" fill="none" version="1.1" width="24" height="24" viewBox="0 0 24 24"><defs><clipPath id="master_svg0_3_1524"><rect x="0" y="0" width="24" height="24" rx="0"/></clipPath></defs><g clip-path="url(#master_svg0_3_1524)"><path d="M4.8000245140625,3.5999755859375C4.1635085140625,3.5999755859375004,3.5530553140625,3.8528324059375,3.1029676240625,4.3029187959375C2.6528812340625,4.7530064859375,2.4000244140625004,5.3634596859375,2.4000244140625,5.9999756859375C2.4000244140625,5.9999756859375,2.4000244140625,17.9999765859375,2.4000244140625,17.9999765859375C2.4000244140625004,18.636456585937502,2.6528812340625,19.2468955859375,3.1029676240625,19.6970155859375C3.5530553140625,20.1471365859375,4.1635085140625,20.3999765859375,4.8000245140625,20.3999765859375C4.8000245140625,20.3999765859375,19.2000254140625,20.3999765859375,19.2000254140625,20.3999765859375C19.8365054140625,20.3999765859375,20.4469454140625,20.1471365859375,20.8970644140625,19.6970155859375C21.3471854140625,19.2468955859375,21.6000254140625,18.636456585937502,21.6000254140625,17.9999765859375C21.6000254140625,17.9999765859375,21.6000254140625,5.9999756859375,21.6000254140625,5.9999756859375C21.6000254140625,5.3634596859375,21.3471854140625,4.7530064859375,20.8970644140625,4.3029187959375C20.4469454140625,3.8528324059375,19.8365054140625,3.5999755859375004,19.2000254140625,3.5999755859375C19.2000254140625,3.5999755859375,4.8000245140625,3.5999755859375,4.8000245140625,3.5999755859375C4.8000245140625,3.5999755859375,4.8000245140625,3.5999755859375,4.8000245140625,3.5999755859375ZM19.2000254140625,17.9999765859375C19.2000254140625,17.9999765859375,4.8000245140625,17.9999765859375,4.8000245140625,17.9999765859375C4.8000245140625,17.9999765859375,9.6000247140625,8.3999757859375,9.6000247140625,8.3999757859375C9.6000247140625,8.3999757859375,13.2000244140625,15.5999755859375,13.2000244140625,15.5999755859375C13.2000244140625,15.5999755859375,15.6000254140625,10.7999758859375,15.6000254140625,10.7999758859375C15.6000254140625,10.7999758859375,19.2000254140625,17.9999765859375,19.2000254140625,17.9999765859375C19.2000254140625,17.9999765859375,19.2000254140625,17.9999765859375,19.2000254140625,17.9999765859375Z" fill-rule="evenodd" fill="#0A0A28" fill-opacity="1"/></g></svg>