<svg xmlns="http://www.w3.org/2000/svg" xmlns:xlink="http://www.w3.org/1999/xlink" fill="none" version="1.1" width="24" height="24" viewBox="0 0 24 24"><defs><clipPath id="master_svg0_3_2056"><rect x="0" y="0" width="24" height="24" rx="0"/></clipPath></defs><g clip-path="url(#master_svg0_3_2056)"><path d="M3.29289299,15.2929C2.90237,15.6834,2.90237,16.3166,3.29289299,16.7071C3.68341699,17.0976,4.31658301,17.0976,4.70710701,16.7071C4.70710701,16.7071,3.29289299,15.2929,3.29289299,15.2929C3.29289299,15.2929,3.29289299,15.2929,3.29289299,15.2929ZM8.586,11.414C8.586,11.414,7.8789999,10.70679,7.8789999,10.70679C7.8789999,10.70679,7.87889,10.706890099999999,7.87889,10.706890099999999C7.87889,10.706890099999999,8.586,11.414,8.586,11.414C8.586,11.414,8.586,11.414,8.586,11.414ZM11.414,11.414C11.414,11.414,12.12111,10.706890099999999,12.12111,10.706890099999999C12.12111,10.706890099999999,12.1210003,10.70679,12.1210003,10.70679C12.1210003,10.70679,11.414,11.414,11.414,11.414C11.414,11.414,11.414,11.414,11.414,11.414ZM15.2929,16.7071C15.6834,17.0976,16.3166,17.0976,16.7071,16.7071C17.0976,16.3166,17.0976,15.6834,16.7071,15.2929C16.7071,15.2929,15.2929,16.7071,15.2929,16.7071C15.2929,16.7071,15.2929,16.7071,15.2929,16.7071ZM13.2928896,13.2928896C12.9023705,13.6834202,12.9023705,14.3166,13.2928896,14.7071C13.6834202,15.0976,14.3166,15.0976,14.7071,14.7071C14.7071,14.7071,13.2928896,13.2928896,13.2928896,13.2928896C13.2928896,13.2928896,13.2928896,13.2928896,13.2928896,13.2928896ZM15.586,12.4139996C15.586,12.4139996,14.879,11.70679,14.879,11.70679C14.879,11.70679,14.8789,11.706890099999999,14.8789,11.706890099999999C14.8789,11.706890099999999,15.586,12.4139996,15.586,12.4139996C15.586,12.4139996,15.586,12.4139996,15.586,12.4139996ZM18.414,12.4139996C18.414,12.4139996,19.1211,11.706890099999999,19.1211,11.706890099999999C19.1211,11.706890099999999,19.121000000000002,11.70679,19.121000000000002,11.70679C19.121000000000002,11.70679,18.414,12.4139996,18.414,12.4139996C18.414,12.4139996,18.414,12.4139996,18.414,12.4139996ZM19.2929,14.7071C19.6834,15.0976,20.316601,15.0976,20.7071,14.7071C21.097601,14.3166,21.097601,13.6834202,20.7071,13.2928896C20.7071,13.2928896,19.2929,14.7071,19.2929,14.7071C19.2929,14.7071,19.2929,14.7071,19.2929,14.7071ZM14,7C13.44771,7,13,7.4477201,13,8C13,8.5522799,13.44771,9,14,9C14,9,14,7,14,7C14,7,14,7,14,7ZM14.01,9C14.5623,9,15.01,8.5522799,15.01,8C15.01,7.4477201,14.5623,7,14.01,7C14.01,7,14.01,9,14.01,9C14.01,9,14.01,9,14.01,9ZM18,4C18,4,18,3,18,3C18,3,18,4,18,4C18,4,18,4,18,4ZM6,4C6,4,6,3,6,3C6,3,6,4,6,4C6,4,6,4,6,4ZM4,6C4,6,3,6,3,6C3,6,4,6,4,6C4,6,4,6,4,6ZM4,18C4,18,3,18,3,18C3,18,4,18,4,18C4,18,4,18,4,18ZM4.70710701,16.7071C4.70710701,16.7071,9.293109900000001,12.12111,9.293109900000001,12.12111C9.293109900000001,12.12111,7.87889,10.706890099999999,7.87889,10.706890099999999C7.87889,10.706890099999999,3.29289299,15.2929,3.29289299,15.2929C3.29289299,15.2929,4.70710701,16.7071,4.70710701,16.7071C4.70710701,16.7071,4.70710701,16.7071,4.70710701,16.7071ZM9.2930002,12.1212101C9.4805298,11.9337401,9.7348399,11.8284302,10,11.8284302C10,11.8284302,10,9.8284302,10,9.8284302C9.2045102,9.8284302,8.4415798,10.1443701,7.8789999,10.70679C7.8789999,10.70679,9.2930002,12.1212101,9.2930002,12.1212101C9.2930002,12.1212101,9.2930002,12.1212101,9.2930002,12.1212101ZM10,11.8284302C10.2651601,11.8284302,10.5194702,11.9337401,10.7069998,12.1212101C10.7069998,12.1212101,12.1210003,10.70679,12.1210003,10.70679C11.5584202,10.1443701,10.7954898,9.8284302,10,9.8284302C10,9.8284302,10,11.8284302,10,11.8284302C10,11.8284302,10,11.8284302,10,11.8284302ZM10.706890099999999,12.12111C10.706890099999999,12.12111,15.2929,16.7071,15.2929,16.7071C15.2929,16.7071,16.7071,15.2929,16.7071,15.2929C16.7071,15.2929,12.12111,10.706890099999999,12.12111,10.706890099999999C12.12111,10.706890099999999,10.706890099999999,12.12111,10.706890099999999,12.12111C10.706890099999999,12.12111,10.706890099999999,12.12111,10.706890099999999,12.12111ZM14.7071,14.7071C14.7071,14.7071,16.293100000000003,13.12111,16.293100000000003,13.12111C16.293100000000003,13.12111,14.8789,11.706890099999999,14.8789,11.706890099999999C14.8789,11.706890099999999,13.2928896,13.2928896,13.2928896,13.2928896C13.2928896,13.2928896,14.7071,14.7071,14.7071,14.7071C14.7071,14.7071,14.7071,14.7071,14.7071,14.7071ZM16.293,13.1212101C16.4805,12.9337397,16.7348,12.8284302,17,12.8284302C17,12.8284302,17,10.8284302,17,10.8284302C16.2045,10.8284302,15.4416,11.1443701,14.879,11.70679C14.879,11.70679,16.293,13.1212101,16.293,13.1212101C16.293,13.1212101,16.293,13.1212101,16.293,13.1212101ZM17,12.8284302C17.2652,12.8284302,17.5195,12.9337397,17.707,13.1212101C17.707,13.1212101,19.121000000000002,11.70679,19.121000000000002,11.70679C18.5584,11.1443701,17.7955,10.8284302,17,10.8284302C17,10.8284302,17,12.8284302,17,12.8284302C17,12.8284302,17,12.8284302,17,12.8284302ZM17.706899999999997,13.12111C17.706899999999997,13.12111,19.2929,14.7071,19.2929,14.7071C19.2929,14.7071,20.7071,13.2928896,20.7071,13.2928896C20.7071,13.2928896,19.1211,11.706890099999999,19.1211,11.706890099999999C19.1211,11.706890099999999,17.706899999999997,13.12111,17.706899999999997,13.12111C17.706899999999997,13.12111,17.706899999999997,13.12111,17.706899999999997,13.12111ZM14,9C14,9,14.01,9,14.01,9C14.01,9,14.01,7,14.01,7C14.01,7,14,7,14,7C14,7,14,9,14,9C14,9,14,9,14,9ZM6,21C6,21,18,21,18,21C18,21,18,19,18,19C18,19,6,19,6,19C6,19,6,21,6,21C6,21,6,21,6,21ZM18,21C18.7957,21,19.5587,20.683901,20.1213,20.1213C20.1213,20.1213,18.7071,18.7071,18.7071,18.7071C18.5196,18.8946,18.2652,19,18,19C18,19,18,21,18,21C18,21,18,21,18,21ZM20.1213,20.1213C20.683901,19.5587,21,18.7957,21,18C21,18,19,18,19,18C19,18.2652,18.8946,18.5196,18.7071,18.7071C18.7071,18.7071,20.1213,20.1213,20.1213,20.1213C20.1213,20.1213,20.1213,20.1213,20.1213,20.1213ZM21,18C21,18,21,6,21,6C21,6,19,6,19,6C19,6,19,18,19,18C19,18,21,18,21,18C21,18,21,18,21,18ZM21,6C21,5.20435,20.683901,4.44128799,20.1213,3.87868C20.1213,3.87868,18.7071,5.29289,18.7071,5.29289C18.8946,5.48043,19,5.73478,19,6C19,6,21,6,21,6C21,6,21,6,21,6ZM20.1213,3.87868C19.5587,3.3160700199999997,18.7956,3,18,3C18,3,18,5,18,5C18.2652,5,18.5196,5.10536,18.7071,5.29289C18.7071,5.29289,20.1213,3.87868,20.1213,3.87868C20.1213,3.87868,20.1213,3.87868,20.1213,3.87868ZM18,3C18,3,6,3,6,3C6,3,6,5,6,5C6,5,18,5,18,5C18,5,18,3,18,3C18,3,18,3,18,3ZM6,3C5.20435,3,4.44128901,3.3160700199999997,3.87868,3.87868C3.87868,3.87868,5.29289,5.29289,5.29289,5.29289C5.48043,5.10536,5.73478,5,6,5C6,5,6,3,6,3C6,3,6,3,6,3ZM3.87868,3.87868C3.3160700199999997,4.44128901,3,5.20435,3,6C3,6,5,6,5,6C5,5.73478,5.10536,5.48043,5.29289,5.29289C5.29289,5.29289,3.87868,3.87868,3.87868,3.87868C3.87868,3.87868,3.87868,3.87868,3.87868,3.87868ZM3,6C3,6,3,18,3,18C3,18,5,18,5,18C5,18,5,6,5,6C5,6,3,6,3,6C3,6,3,6,3,6ZM3,18C3,18.7956,3.3160700199999997,19.5587,3.87868,20.1213C3.87868,20.1213,5.29289,18.7071,5.29289,18.7071C5.10536,18.5196,5,18.2652,5,18C5,18,3,18,3,18C3,18,3,18,3,18ZM3.87868,20.1213C4.44128799,20.683901,5.20435,21,6,21C6,21,6,19,6,19C5.73478,19,5.48043,18.8946,5.29289,18.7071C5.29289,18.7071,3.87868,20.1213,3.87868,20.1213C3.87868,20.1213,3.87868,20.1213,3.87868,20.1213Z" fill="#0A0A28" fill-opacity="1"/></g></svg>