<svg xmlns="http://www.w3.org/2000/svg" xmlns:xlink="http://www.w3.org/1999/xlink" fill="none" version="1.1" width="24" height="24" viewBox="0 0 24 24"><defs><clipPath id="master_svg0_601_07277"><rect x="0" y="0" width="24" height="24" rx="0"/></clipPath></defs><g clip-path="url(#master_svg0_601_07277)"><path d="M21.672670208984375,11.6368170125L21.602358208984374,11.5618172125L19.364076208984375,9.3329110125C18.682045208984373,8.6532235125,17.575795208984374,8.6532235125,16.893763208984375,9.3329110125L11.650795008984375,14.5618173125C10.945326808984374,15.2672863125,9.810951208984374,15.2672863125,9.107826208984374,14.5641613125C8.402357608984374,13.8586923125,8.402357608984374,12.7196303125,9.107826208984374,12.0141613125L14.357826208984376,6.9704113125C15.030482208984376,6.3235364125,15.075014208984374,5.2665048125,14.472669208984374,4.5680673125L14.383608208984375,4.471973612499999L12.161732208984375,2.2454111625C11.489076608984375,1.5704111425,10.399232908984375,1.5586923925,9.712513908984375,2.2196298825L4.413295008984376,7.3125987125C1.110951308984375,10.5961923125,1.096888838984375,15.9422863125,4.389857508984376,19.2610363125C5.985951408984375,20.8594743125,8.139857808984374,21.7547853125,10.399232908984375,21.7547853125C12.581263208984375,21.7547853125,14.676576208984375,20.9063493125,16.235170208984375,19.3946303125L21.604702208984374,14.0391603125C22.265638208984374,13.3805673125,22.289076208984376,12.3235363125,21.672670208984375,11.6368170125ZM10.921889308984374,3.4829111125L13.143763208984375,5.709473812500001L11.697670008984375,7.0993175125L9.473451108984374,4.8750985125L10.921889308984374,3.4829111125ZM15.128919208984374,18.0258793125C13.882045208984374,19.2938483125,12.175794208984374,20.0063473125,10.396888708984376,20.0063473125C8.601576308984374,20.0063473125,6.892982508984375,19.2961923125,5.627357508984375,18.0282233125L5.514857508984376,17.9133793125C3.0539200089843748,15.3118173125,3.063295008984375,11.2407236125,5.533607508984375,8.667286412500001L5.639076208984375,8.5594735125L8.210170308984374,6.0891614125L10.434389108984375,8.3133798125L7.882045308984375,10.7649422125C6.482826208984375,12.1665053125,6.482826208984375,14.4118173125,7.867982908984375,15.7993173125C9.255482708984374,17.189161312499998,11.498451208984376,17.189161312499998,12.885951208984375,15.7993173125L15.846107208984375,12.8485363125L18.079700208984374,15.0821293125L15.128919208984374,18.0258793125ZM19.319546208984374,13.8469733125L17.085951208984376,11.6133795125L18.128919208984374,10.5727548125L20.367201208984376,12.8016613125L19.319546208984374,13.8469733125Z" fill="#0A0A28" fill-opacity="1"/></g></svg>