<svg xmlns="http://www.w3.org/2000/svg" xmlns:xlink="http://www.w3.org/1999/xlink" fill="none" version="1.1" width="24" height="24" viewBox="0 0 24 24"><defs><clipPath id="master_svg0_3_2084"><rect x="0" y="0" width="24" height="24" rx="0"/></clipPath></defs><g clip-path="url(#master_svg0_3_2084)"><path d="M12.0000248140625,21.6000254140625C14.5460654140625,21.6000254140625,16.9879444140625,20.5885444140625,18.7883054140625,18.7883054140625C20.5885444140625,16.9879444140625,21.6000254140625,14.5460654140625,21.6000254140625,12.0000248140625C21.6000254140625,9.4539490140625,20.5885444140625,7.0121527140625,18.7883054140625,5.211804414062501C16.9879444140625,3.4114504140625,14.5460654140625,2.4000244140625013,12.0000248140625,2.4000244140625C9.4539490140625,2.4000244140625018,7.0121527140625,3.4114504140625,5.211804414062501,5.211804414062501C3.4114504140625,7.0121527140625,2.400024414062502,9.4539490140625,2.4000244140625,12.0000248140625C2.4000244140625018,14.5460654140625,3.4114504140625,16.9879444140625,5.211804414062501,18.7883054140625C7.0121527140625,20.5885444140625,9.4539490140625,21.6000254140625,12.0000248140625,21.6000254140625C12.0000248140625,21.6000254140625,12.0000248140625,21.6000254140625,12.0000248140625,21.6000254140625C12.0000248140625,21.6000254140625,12.0000248140625,21.6000254140625,12.0000248140625,21.6000254140625ZM11.4660244140625,8.601625014062499C11.2853050140625,8.4810490140625,11.0752449140625,8.4117966140625,10.8582487140625,8.4012608140625C10.6412525140625,8.3907127140625,10.4254570140625,8.4392886140625,10.2339010140625,8.5417809140625C10.0423446140625,8.644272314062501,9.882216414062501,8.796840714062501,9.7705808140625,8.9832129140625C9.6589327140625,9.1695847140625,9.5999884140625,9.3827767140625,9.6000247140625,9.6000247140625C9.6000247140625,9.6000247140625,9.6000247140625,14.4000244140625,9.6000247140625,14.4000244140625C9.5999884140625,14.6172244140625,9.6589327140625,14.8304644140625,9.7705808140625,15.0168244140625C9.882216414062501,15.2031854140625,10.0423446140625,15.3558254140625,10.2339010140625,15.4583044140625C10.4254570140625,15.5607854140625,10.6412525140625,15.6093854140625,10.8582487140625,15.5988244140625C11.0752449140625,15.5882654140625,11.2853050140625,15.5190244140625,11.4660244140625,15.3984254140625C11.4660244140625,15.3984254140625,15.0660254140625,12.9984244140625,15.0660254140625,12.9984244140625C15.2304254140625,12.8888404140625,15.3651854140625,12.7403764140625,15.4583044140625,12.5662084140625C15.5515454140625,12.3920412140625,15.6002654140625,12.1975565140625,15.6002654140625,12.0000248140625C15.6002654140625,11.8024931140625,15.5515454140625,11.6080084140625,15.4583044140625,11.4338407140625C15.3651854140625,11.2596731140625,15.2304254140625,11.1112089140625,15.0660254140625,11.0016250140625C15.0660254140625,11.0016250140625,11.4660244140625,8.601625014062499,11.4660244140625,8.601625014062499C11.4660244140625,8.601625014062499,11.4660244140625,8.601625014062499,11.4660244140625,8.601625014062499C11.4660244140625,8.601625014062499,11.4660244140625,8.601625014062499,11.4660244140625,8.601625014062499Z" fill-rule="evenodd" fill="#0A0A28" fill-opacity="1"/></g></svg>