<svg xmlns="http://www.w3.org/2000/svg" xmlns:xlink="http://www.w3.org/1999/xlink" fill="none" version="1.1" width="24" height="24" viewBox="0 0 24 24"><defs><clipPath id="master_svg0_3_1964"><rect x="0" y="0" width="24" height="24" rx="0"/></clipPath></defs><g clip-path="url(#master_svg0_3_1964)"><path d="M14.751997992651368,11.16799829630127C14.751997992651368,11.16799829630127,14.197177892651368,11.999968296301269,14.197177892651368,11.999968296301269C14.197177892651368,11.999968296301269,14.197227992651367,11.99999829630127,14.197227992651367,11.99999829630127C14.197227992651367,11.99999829630127,14.751997992651368,11.16799829630127,14.751997992651368,11.16799829630127C14.751997992651368,11.16799829630127,14.751997992651368,11.16799829630127,14.751997992651368,11.16799829630127ZM11.554997992651368,9.036000396301269C11.554997992651368,9.036000396301269,10.999998092651367,9.86784839630127,10.999998092651367,9.86784839630127C10.999998092651367,9.86784839630127,11.000178092651367,9.867968396301269,11.000178092651367,9.867968396301269C11.000178092651367,9.867968396301269,11.554997992651368,9.036000396301269,11.554997992651368,9.036000396301269C11.554997992651368,9.036000396301269,11.554997992651368,9.036000396301269,11.554997992651368,9.036000396301269ZM10.000000407201467,9.86999849630127C10.000000407201467,9.86999849630127,10.999998092651367,9.86999849630127,10.999998092651367,9.86999849630127C10.999998092651367,9.86999849630127,10.999998092651367,9.86784839630127,10.999998092651367,9.86784839630127C10.999998092651367,9.86784839630127,10.000000407201467,9.86999849630127,10.000000407201467,9.86999849630127C10.000000407201467,9.86999849630127,10.000000407201467,9.86999849630127,10.000000407201467,9.86999849630127ZM10.000000407201467,14.13299849630127C10.000000407201467,14.13299849630127,10.999998092651367,14.13314819630127,10.999998092651367,14.13314819630127C10.999998092651367,14.13314819630127,10.999998092651367,14.13299849630127,10.999998092651367,14.13299849630127C10.999998092651367,14.13299849630127,10.000000407201467,14.13299849630127,10.000000407201467,14.13299849630127C10.000000407201467,14.13299849630127,10.000000407201467,14.13299849630127,10.000000407201467,14.13299849630127ZM11.554997992651368,14.96499819630127C11.554997992651368,14.96499819630127,11.000178092651367,14.13302849630127,11.000178092651367,14.13302849630127C11.000178092651367,14.13302849630127,10.999998092651367,14.13314819630127,10.999998092651367,14.13314819630127C10.999998092651367,14.13314819630127,11.554997992651368,14.96499819630127,11.554997992651368,14.96499819630127C11.554997992651368,14.96499819630127,11.554997992651368,14.96499819630127,11.554997992651368,14.96499819630127ZM14.751997992651368,12.832998496301268C14.751997992651368,12.832998496301268,14.197227992651367,12.00099849630127,14.197227992651367,12.00099849630127C14.197227992651367,12.00099849630127,14.197177892651368,12.00102829630127,14.197177892651368,12.00102829630127C14.197177892651368,12.00102829630127,14.751997992651368,12.832998496301268,14.751997992651368,12.832998496301268C14.751997992651368,12.832998496301268,14.751997992651368,12.832998496301268,14.751997992651368,12.832998496301268ZM15.306817992651368,10.336028296301269C15.306817992651368,10.336028296301269,12.109817992651367,8.20403039630127,12.109817992651367,8.20403039630127C12.109817992651367,8.20403039630127,11.000178092651367,9.867968396301269,11.000178092651367,9.867968396301269C11.000178092651367,9.867968396301269,14.197177892651368,11.999968296301269,14.197177892651368,11.999968296301269C14.197177892651368,11.999968296301269,15.306817992651368,10.336028296301269,15.306817992651368,10.336028296301269C15.306817992651368,10.336028296301269,15.306817992651368,10.336028296301269,15.306817992651368,10.336028296301269ZM12.109997992651367,8.20415139630127C11.808518092651367,8.00300437630127,11.458048092651367,7.887559416301269,11.096038092651368,7.87015539630127C11.096038092651368,7.87015539630127,10.999998092651367,9.86784839630127,10.999998092651367,9.86784839630127C10.999998092651367,9.86784839630127,10.999998092651367,9.86784839630127,10.999998092651367,9.86784839630127C10.999998092651367,9.86784839630127,12.109997992651367,8.20415139630127,12.109997992651367,8.20415139630127C12.109997992651367,8.20415139630127,12.109997992651367,8.20415139630127,12.109997992651367,8.20415139630127ZM11.096038092651368,7.87015539630127C10.734029112651367,7.852748396301269,10.374095082651367,7.93404340630127,10.054705791651367,8.10534340630127C10.054705791651367,8.10534340630127,10.999998092651367,9.86784839630127,10.999998092651367,9.86784839630127C10.999998092651367,9.86784839630127,10.999998092651367,9.86784839630127,10.999998092651367,9.86784839630127C10.999998092651367,9.86784839630127,11.096038092651368,7.87015539630127,11.096038092651368,7.87015539630127C11.096038092651368,7.87015539630127,11.096038092651368,7.87015539630127,11.096038092651368,7.87015539630127ZM10.054705791651367,8.10534340630127C9.735315082651367,8.276643396301269,9.468478082651368,8.53151240630127,9.282709122651367,8.84270529630127C9.282709122651367,8.84270529630127,10.999998092651367,9.86784839630127,10.999998092651367,9.86784839630127C10.999998092651367,9.86784839630127,10.999998092651367,9.86784839630127,10.999998092651367,9.86784839630127C10.999998092651367,9.86784839630127,10.054705791651367,8.10534340630127,10.054705791651367,8.10534340630127C10.054705791651367,8.10534340630127,10.054705791651367,8.10534340630127,10.054705791651367,8.10534340630127ZM9.282709122651367,8.84270529630127C9.096941112651367,9.153899406301269,8.999228092651368,9.50972437630127,9.000003102651368,9.87214839630127C9.000003102651368,9.87214839630127,10.999998092651367,9.86784839630127,10.999998092651367,9.86784839630127C10.999998092651367,9.86784839630127,10.999998092651367,9.86784839630127,10.999998092651367,9.86784839630127C10.999998092651367,9.86784839630127,9.282709122651367,8.84270529630127,9.282709122651367,8.84270529630127C9.282709122651367,8.84270529630127,9.282709122651367,8.84270529630127,9.282709122651367,8.84270529630127ZM9.000000122651366,9.86999849630127C9.000000122651366,9.86999849630127,9.000000122651366,14.13299849630127,9.000000122651366,14.13299849630127C9.000000122651366,14.13299849630127,10.999998092651367,14.13299849630127,10.999998092651367,14.13299849630127C10.999998092651367,14.13299849630127,10.999998092651367,9.86999849630127,10.999998092651367,9.86999849630127C10.999998092651367,9.86999849630127,9.000000122651366,9.86999849630127,9.000000122651366,9.86999849630127C9.000000122651366,9.86999849630127,9.000000122651366,9.86999849630127,9.000000122651366,9.86999849630127ZM9.000000122651366,14.132848296301269C8.999948192651367,14.494938396301269,9.098189112651367,14.85023829630127,9.284251092651367,15.16086819630127C9.284251092651367,15.16086819630127,10.999998092651367,14.13314819630127,10.999998092651367,14.13314819630127C10.999998092651367,14.13314819630127,10.999998092651367,14.13314819630127,10.999998092651367,14.13314819630127C10.999998092651367,14.13314819630127,9.000000122651366,14.132848296301269,9.000000122651366,14.132848296301269C9.000000122651366,14.132848296301269,9.000000122651366,14.132848296301269,9.000000122651366,14.132848296301269ZM9.284251092651367,15.16086819630127C9.470313072651367,15.47148849630127,9.737211082651367,15.72577859630127,10.056469891651368,15.89659829630127C10.056469891651368,15.89659829630127,10.999998092651367,14.13314819630127,10.999998092651367,14.13314819630127C10.999998092651367,14.13314819630127,10.999998092651367,14.13314819630127,10.999998092651367,14.13314819630127C10.999998092651367,14.13314819630127,9.284251092651367,15.16086819630127,9.284251092651367,15.16086819630127C9.284251092651367,15.16086819630127,9.284251092651367,15.16086819630127,9.284251092651367,15.16086819630127ZM10.056469891651368,15.89659829630127C10.375727082651368,16.06741859630127,10.735371112651368,16.148358296301268,11.097038192651368,16.13079829630127C11.097038192651368,16.13079829630127,10.999998092651367,14.13314819630127,10.999998092651367,14.13314819630127C10.999998092651367,14.13314819630127,10.999998092651367,14.13314819630127,10.999998092651367,14.13314819630127C10.999998092651367,14.13314819630127,10.056469891651368,15.89659829630127,10.056469891651368,15.89659829630127C10.056469891651368,15.89659829630127,10.056469891651368,15.89659829630127,10.056469891651368,15.89659829630127ZM11.097038192651368,16.13079829630127C11.458688092651368,16.11322829630127,11.808798092651367,15.99780849630127,12.109997992651367,15.79684829630127C12.109997992651367,15.79684829630127,10.999998092651367,14.13314819630127,10.999998092651367,14.13314819630127C10.999998092651367,14.13314819630127,10.999998092651367,14.13314819630127,10.999998092651367,14.13314819630127C10.999998092651367,14.13314819630127,11.097038192651368,16.13079829630127,11.097038192651368,16.13079829630127C11.097038192651368,16.13079829630127,11.097038192651368,16.13079829630127,11.097038192651368,16.13079829630127ZM12.109817992651367,15.796968496301268C12.109817992651367,15.796968496301268,15.306817992651368,13.66496849630127,15.306817992651368,13.66496849630127C15.306817992651368,13.66496849630127,14.197177892651368,12.00102829630127,14.197177892651368,12.00102829630127C14.197177892651368,12.00102829630127,11.000178092651367,14.13302849630127,11.000178092651367,14.13302849630127C11.000178092651367,14.13302849630127,12.109817992651367,15.796968496301268,12.109817992651367,15.796968496301268C12.109817992651367,15.796968496301268,12.109817992651367,15.796968496301268,12.109817992651367,15.796968496301268ZM15.306777992651368,13.66499849630127C15.580687992651367,13.48235849630127,15.805278292651368,13.23491859630127,15.960617992651368,12.94463829630127C15.960617992651368,12.94463829630127,14.197227992651367,12.00099849630127,14.197227992651367,12.00099849630127C14.197227992651367,12.00099849630127,14.197227992651367,12.00099849630127,14.197227992651367,12.00099849630127C14.197227992651367,12.00099849630127,15.306777992651368,13.66499849630127,15.306777992651368,13.66499849630127C15.306777992651368,13.66499849630127,15.306777992651368,13.66499849630127,15.306777992651368,13.66499849630127ZM15.960617992651368,12.94463829630127C16.115948192651366,12.65435839630127,16.197227992651367,12.33022829630127,16.197227992651367,12.00099849630127C16.197227992651367,12.00099849630127,14.197227992651367,12.00099849630127,14.197227992651367,12.00099849630127C14.197227992651367,12.00099849630127,14.197227992651367,12.00099849630127,14.197227992651367,12.00099849630127C14.197227992651367,12.00099849630127,15.960617992651368,12.94463829630127,15.960617992651368,12.94463829630127C15.960617992651368,12.94463829630127,15.960617992651368,12.94463829630127,15.960617992651368,12.94463829630127ZM16.197227992651367,12.00099849630127C16.197227992651367,11.671778396301269,16.115948192651366,11.347638396301269,15.960617992651368,11.05736829630127C15.960617992651368,11.05736829630127,14.197227992651367,12.00099849630127,14.197227992651367,12.00099849630127C14.197227992651367,12.00099849630127,14.197227992651367,12.00099849630127,14.197227992651367,12.00099849630127C14.197227992651367,12.00099849630127,16.197227992651367,12.00099849630127,16.197227992651367,12.00099849630127C16.197227992651367,12.00099849630127,16.197227992651367,12.00099849630127,16.197227992651367,12.00099849630127ZM15.960617992651368,11.05736829630127C15.806618192651367,10.76958839630127,15.583028292651367,10.52020839630127,15.306777992651368,10.33599839630127C15.306777992651368,10.33599839630127,14.197227992651367,11.99999829630127,14.197227992651367,11.99999829630127C14.194888092651368,11.99843839630127,14.195887992651368,11.998498396301269,14.197227992651367,12.00099849630127C14.197227992651367,12.00099849630127,15.960617992651368,11.05736829630127,15.960617992651368,11.05736829630127C15.960617992651368,11.05736829630127,15.960617992651368,11.05736829630127,15.960617992651368,11.05736829630127Z" fill="#0A0A28" fill-opacity="1"/><path d="M12,3.000000238418579C12,3.000000238418579,12,4.000000238418579,12,4.000000238418579C12,4.000000238418579,12,3.000000238418579,12,3.000000238418579C12,3.000000238418579,12,3.000000238418579,12,3.000000238418579ZM20,12.000000238418579C20,13.050600238418578,19.7931,14.090900238418579,19.391001,15.06150023841858C19.391001,15.06150023841858,21.2388,15.82680023841858,21.2388,15.82680023841858C21.741301,14.613600238418579,22,13.31320023841858,22,12.000000238418579C22,12.000000238418579,20,12.000000238418579,20,12.000000238418579C20,12.000000238418579,20,12.000000238418579,20,12.000000238418579ZM19.391001,15.06150023841858C18.989,16.03210023841858,18.3997,16.91400023841858,17.6569,17.65690023841858C17.6569,17.65690023841858,19.0711,19.07110023841858,19.0711,19.07110023841858C19.999701,18.142500238418577,20.7362,17.04010023841858,21.2388,15.82680023841858C21.2388,15.82680023841858,19.391001,15.06150023841858,19.391001,15.06150023841858C19.391001,15.06150023841858,19.391001,15.06150023841858,19.391001,15.06150023841858ZM17.6569,17.65690023841858C16.914,18.39970023841858,16.0321,18.98900023841858,15.0615,19.39100123841858C15.0615,19.39100123841858,15.8268,21.23880023841858,15.8268,21.23880023841858C17.040100000000002,20.73620023841858,18.1425,19.99970123841858,19.0711,19.07110023841858C19.0711,19.07110023841858,17.6569,17.65690023841858,17.6569,17.65690023841858C17.6569,17.65690023841858,17.6569,17.65690023841858,17.6569,17.65690023841858ZM15.0615,19.39100123841858C14.0909,19.793100238418578,13.0506,20.00000023841858,12,20.00000023841858C12,20.00000023841858,12,22.00000023841858,12,22.00000023841858C13.3132,22.00000023841858,14.6136,21.74130123841858,15.8268,21.23880023841858C15.8268,21.23880023841858,15.0615,19.39100123841858,15.0615,19.39100123841858C15.0615,19.39100123841858,15.0615,19.39100123841858,15.0615,19.39100123841858ZM12,20.00000023841858C10.94942,20.00000023841858,9.9091401,19.793100238418578,8.93853,19.39100123841858C8.93853,19.39100123841858,8.1731701,21.23880023841858,8.1731701,21.23880023841858C9.386419799999999,21.74130123841858,10.686779999999999,22.00000023841858,12,22.00000023841858C12,22.00000023841858,12,20.00000023841858,12,20.00000023841858C12,20.00000023841858,12,20.00000023841858,12,20.00000023841858ZM8.93853,19.39100123841858C7.9679298,18.98900023841858,7.08601,18.39970023841858,6.3431499,17.65690023841858C6.3431499,17.65690023841858,4.92893,19.07110023841858,4.92893,19.07110023841858C5.8575201,19.99970123841858,6.9599098999999995,20.73620023841858,8.1731701,21.23880023841858C8.1731701,21.23880023841858,8.93853,19.39100123841858,8.93853,19.39100123841858C8.93853,19.39100123841858,8.93853,19.39100123841858,8.93853,19.39100123841858ZM6.3431499,17.65690023841858C5.60028,16.91400023841858,5.0109999,16.03210023841858,4.60896,15.06150023841858C4.60896,15.06150023841858,2.761205,15.82680023841858,2.761205,15.82680023841858C3.26375201,17.04010023841858,4.00035,18.142500238418577,4.92893,19.07110023841858C4.92893,19.07110023841858,6.3431499,17.65690023841858,6.3431499,17.65690023841858C6.3431499,17.65690023841858,6.3431499,17.65690023841858,6.3431499,17.65690023841858ZM4.60896,15.06150023841858C4.20693,14.090900238418579,4,13.050600238418578,4,12.000000238418579C4,12.000000238418579,2,12.000000238418579,2,12.000000238418579C2,13.31320023841858,2.25865799,14.613600238418579,2.761205,15.82680023841858C2.761205,15.82680023841858,4.60896,15.06150023841858,4.60896,15.06150023841858C4.60896,15.06150023841858,4.60896,15.06150023841858,4.60896,15.06150023841858ZM4,12.000000238418579C4,9.878270338418579,4.84285,7.843440338418579,6.3431499,6.343150138418579C6.3431499,6.343150138418579,4.92893,4.928930238418579,4.92893,4.928930238418579C3.053568199,6.804300338418579,2,9.347840038418578,2,12.000000238418579C2,12.000000238418579,4,12.000000238418579,4,12.000000238418579C4,12.000000238418579,4,12.000000238418579,4,12.000000238418579ZM6.3431499,6.343150138418579C7.8434401,4.842850238418579,9.8782701,4.000000238418579,12,4.000000238418579C12,4.000000238418579,12,2.000000238418579,12,2.000000238418579C9.3478398,2.000000238418579,6.8043001,3.053568739418579,4.92893,4.928930238418579C4.92893,4.928930238418579,6.3431499,6.343150138418579,6.3431499,6.343150138418579C6.3431499,6.343150138418579,6.3431499,6.343150138418579,6.3431499,6.343150138418579ZM12,4.000000238418579C14.1217,4.000000238418579,16.156599999999997,4.842850238418579,17.6569,6.343150138418579C17.6569,6.343150138418579,19.0711,4.928930238418579,19.0711,4.928930238418579C17.195700000000002,3.053568840418579,14.6522,2.000000238418579,12,2.000000238418579C12,2.000000238418579,12,4.000000238418579,12,4.000000238418579C12,4.000000238418579,12,4.000000238418579,12,4.000000238418579ZM17.6569,6.343150138418579C19.157101,7.843440338418579,20,9.878270338418579,20,12.000000238418579C20,12.000000238418579,22,12.000000238418579,22,12.000000238418579C22,9.347840038418578,20.9464,6.804300338418579,19.0711,4.928930238418579C19.0711,4.928930238418579,17.6569,6.343150138418579,17.6569,6.343150138418579C17.6569,6.343150138418579,17.6569,6.343150138418579,17.6569,6.343150138418579Z" fill="#0A0A28" fill-opacity="1"/></g></svg>