<svg xmlns="http://www.w3.org/2000/svg" xmlns:xlink="http://www.w3.org/1999/xlink" fill="none" version="1.1" width="24" height="24" viewBox="0 0 24 24"><defs><clipPath id="master_svg0_3_1607"><rect x="0" y="0" width="24" height="24" rx="0"/></clipPath></defs><g clip-path="url(#master_svg0_3_1607)"><path d="M12.0000248140625,21.6000254140625C14.5460654140625,21.6000254140625,16.9879444140625,20.5885444140625,18.7883054140625,18.7883054140625C20.5885444140625,16.9879444140625,21.6000254140625,14.5460654140625,21.6000254140625,12.0000248140625C21.6000254140625,9.4539490140625,20.5885444140625,7.0121527140625,18.7883054140625,5.211804414062501C16.9879444140625,3.4114504140625,14.5460654140625,2.4000244140625013,12.0000248140625,2.4000244140625C9.4539490140625,2.4000244140625018,7.0121527140625,3.4114504140625,5.211804414062501,5.211804414062501C3.4114504140625,7.0121527140625,2.400024414062502,9.4539490140625,2.4000244140625,12.0000248140625C2.4000244140625018,14.5460654140625,3.4114504140625,16.9879444140625,5.211804414062501,18.7883054140625C7.0121527140625,20.5885444140625,9.4539490140625,21.6000254140625,12.0000248140625,21.6000254140625C12.0000248140625,21.6000254140625,12.0000248140625,21.6000254140625,12.0000248140625,21.6000254140625C12.0000248140625,21.6000254140625,12.0000248140625,21.6000254140625,12.0000248140625,21.6000254140625ZM13.2000244140625,8.4000244140625C13.2000244140625,8.0817604140625,13.0735934140625,7.7765407140625,12.8485574140625,7.5514927140625C12.6235094140625,7.3264565140625,12.3182888140625,7.2000246140625,12.0000248140625,7.2000246140625C11.6817608140625,7.2000246140625,11.3765411140625,7.3264565140625,11.1514931140625,7.5514927140625C10.9264564140625,7.7765407140625,10.8000250140625,8.0817604140625,10.8000250140625,8.4000244140625C10.8000250140625,8.4000244140625,10.8000250140625,10.8000250140625,10.8000250140625,10.8000250140625C10.8000250140625,10.8000250140625,8.4000244140625,10.8000250140625,8.4000244140625,10.8000250140625C8.0817604140625,10.8000250140625,7.7765407140625,10.9264564140625,7.5514927140625,11.1514931140625C7.3264565140625,11.3765411140625,7.2000246140625,11.6817608140625,7.2000246140625,12.0000248140625C7.2000246140625,12.3182888140625,7.3264565140625,12.6235094140625,7.5514927140625,12.8485574140625C7.7765407140625,13.0735934140625,8.0817604140625,13.2000244140625,8.4000244140625,13.2000244140625C8.4000244140625,13.2000244140625,10.8000250140625,13.2000244140625,10.8000250140625,13.2000244140625C10.8000250140625,13.2000244140625,10.8000250140625,15.6000254140625,10.8000250140625,15.6000254140625C10.8000250140625,15.9182644140625,10.9264564140625,16.2235454140625,11.1514931140625,16.4485444140625C11.3765411140625,16.673544414062498,11.6817608140625,16.8000254140625,12.0000248140625,16.8000254140625C12.3182888140625,16.8000254140625,12.6235094140625,16.673544414062498,12.8485574140625,16.4485444140625C13.0735934140625,16.2235454140625,13.2000244140625,15.9182644140625,13.2000244140625,15.6000254140625C13.2000244140625,15.6000254140625,13.2000244140625,13.2000244140625,13.2000244140625,13.2000244140625C13.2000244140625,13.2000244140625,15.6000254140625,13.2000244140625,15.6000254140625,13.2000244140625C15.9182644140625,13.2000244140625,16.2235454140625,13.0735934140625,16.4485444140625,12.8485574140625C16.673544414062498,12.6235094140625,16.8000254140625,12.3182888140625,16.8000254140625,12.0000248140625C16.8000254140625,11.6817608140625,16.673544414062498,11.3765411140625,16.4485444140625,11.1514931140625C16.2235454140625,10.9264564140625,15.9182644140625,10.8000250140625,15.6000254140625,10.8000250140625C15.6000254140625,10.8000250140625,13.2000244140625,10.8000250140625,13.2000244140625,10.8000250140625C13.2000244140625,10.8000250140625,13.2000244140625,8.4000244140625,13.2000244140625,8.4000244140625C13.2000244140625,8.4000244140625,13.2000244140625,8.4000244140625,13.2000244140625,8.4000244140625Z" fill-rule="evenodd" fill="#0A0A28" fill-opacity="1"/></g></svg>