<svg xmlns="http://www.w3.org/2000/svg" xmlns:xlink="http://www.w3.org/1999/xlink" fill="none" version="1.1" width="24" height="24" viewBox="0 0 24 24"><defs><clipPath id="master_svg0_3_1449"><rect x="0" y="0" width="24" height="24" rx="0"/></clipPath></defs><g clip-path="url(#master_svg0_3_1449)"><path d="M12,6.000000000000001C12.3182645,6.000000000000001,12.623484099999999,6.12642841,12.848532200000001,6.3514716C13.0735683,6.57651603,13.2000003,6.88174087,13.2000003,7.2C13.2000003,7.2,13.2000003,10.8000002,13.2000003,10.8000002C13.2000003,10.8000002,16.8,10.8000002,16.8,10.8000002C17.118264,10.8000002,17.423485,10.9264321,17.648533,11.151468300000001C17.873569,11.376516299999999,18,11.681736,18,12C18,12.3182645,17.873569,12.623484099999999,17.648533,12.848532200000001C17.423485,13.0735683,17.118264,13.2000003,16.8,13.2000003C16.8,13.2000003,13.2000003,13.2000003,13.2000003,13.2000003C13.2000003,13.2000003,13.2000003,16.8,13.2000003,16.8C13.2000003,17.118264,13.0735683,17.423485,12.848532200000001,17.648533C12.623484099999999,17.873569,12.3182645,18,12,18C11.681736,18,11.376516299999999,17.873569,11.151468300000001,17.648533C10.9264321,17.423485,10.8000002,17.118264,10.8000002,16.8C10.8000002,16.8,10.8000002,13.2000003,10.8000002,13.2000003C10.8000002,13.2000003,7.2,13.2000003,7.2,13.2000003C6.88174087,13.2000003,6.57651603,13.0735683,6.3514716,12.848532200000001C6.12642841,12.623484099999999,6,12.3182645,6,12C6,11.681736,6.12642841,11.376516299999999,6.3514716,11.151468300000001C6.57651603,10.9264321,6.88174087,10.8000002,7.2,10.8000002C7.2,10.8000002,10.8000002,10.8000002,10.8000002,10.8000002C10.8000002,10.8000002,10.8000002,7.2,10.8000002,7.2C10.8000002,6.88174087,10.9264321,6.57651603,11.151468300000001,6.3514716C11.376516299999999,6.12642841,11.681736,6,12,6.000000000000001C12,6.000000000000001,12,6.000000000000001,12,6.000000000000001C12,6.000000000000001,12,6.000000000000001,12,6.000000000000001Z" fill-rule="evenodd" fill="#0A0A28" fill-opacity="1"/></g></svg>