<svg xmlns="http://www.w3.org/2000/svg" xmlns:xlink="http://www.w3.org/1999/xlink" fill="none" version="1.1" width="24" height="24" viewBox="0 0 24 24"><defs><clipPath id="master_svg0_3_1932"><rect x="0" y="0" width="24" height="24" rx="0"/></clipPath></defs><g clip-path="url(#master_svg0_3_1932)"><path d="M13,6C13,5.44771498,12.5522799,5,12,5C11.4477201,5,11,5.44771498,11,6C11,6,13,6,13,6C13,6,13,6,13,6ZM11,18C11,18.552300000000002,11.4477201,19,12,19C12.5522799,19,13,18.552300000000002,13,18C13,18,11,18,11,18C11,18,11,18,11,18ZM18,13C18.552300000000002,13,19,12.5522799,19,12C19,11.4477201,18.552300000000002,11,18,11C18,11,18,13,18,13C18,13,18,13,18,13ZM6,11C5.44771498,11,5,11.4477201,5,12C5,12.5522799,5.44771498,13,6,13C6,13,6,11,6,11C6,11,6,11,6,11ZM11,6C11,6,11,12,11,12C11,12,13,12,13,12C13,12,13,6,13,6C13,6,11,6,11,6C11,6,11,6,11,6ZM11,12C11,12,11,18,11,18C11,18,13,18,13,18C13,18,13,12,13,12C13,12,11,12,11,12C11,12,11,12,11,12ZM12,13C12,13,18,13,18,13C18,13,18,11,18,11C18,11,12,11,12,11C12,11,12,13,12,13C12,13,12,13,12,13ZM12,11C12,11,6,11,6,11C6,11,6,13,6,13C6,13,12,13,12,13C12,13,12,11,12,11C12,11,12,11,12,11Z" fill="#0A0A28" fill-opacity="1"/></g></svg>