<svg xmlns="http://www.w3.org/2000/svg" xmlns:xlink="http://www.w3.org/1999/xlink" fill="none" version="1.1" width="24" height="24" viewBox="0 0 24 24"><defs><clipPath id="master_svg0_3_1496"><rect x="0" y="0" width="24" height="24" rx="0"/></clipPath></defs><g clip-path="url(#master_svg0_3_1496)"><path d="M3.6000244140625,3.5999755859375C3.2817652840625,3.5999755859375004,2.9765404440625,3.7264039959375,2.7514960140625,3.9514471859375C2.5264528240625,4.1764916159375,2.400024414062501,4.4817164559375,2.4000244140625,4.7999755859375C2.4000244140625004,5.1182397859375,2.5264528240625,5.4234596859375,2.7514960140625,5.6485077859375C2.9765404440625,5.8735437859375,3.2817652840625,5.9999756859375,3.6000244140625,5.9999756859375C3.6000244140625,5.9999756859375,3.6000244140625,15.5999755859375,3.6000244140625,15.5999755859375C3.6000244140625,16.2364565859375,3.8528765140625003,16.8468965859375,4.3029725140625,17.2970165859375C4.7530565140625,17.7471365859375,5.363508414062499,17.9999765859375,6.0000245140625,17.9999765859375C6.0000245140625,17.9999765859375,9.103224714062499,17.9999765859375,9.103224714062499,17.9999765859375C9.103224714062499,17.9999765859375,7.5516248140625,19.5515765859375,7.5516248140625,19.5515765859375C7.4370127140625,19.6622165859375,7.3455968140625,19.7946965859375,7.2827048140625,19.9410975859375C7.2198124140625,20.0874955859375,7.1867046140625,20.2449355859375,7.1853247140625,20.4042965859375C7.1839447140625,20.5636555859375,7.2143044140625,20.7216965859375,7.2746405140625,20.8691765859375C7.3349767140625,21.0165365859375,7.4240765140625,21.1505755859375,7.5367446140625,21.2632555859375C7.6494245140625,21.3759365859375,7.7834043140625,21.4649755859375,7.9308843140625,21.5253375859375C8.0783524140625,21.5856975859375,8.2363682140625,21.6160565859375,8.395704314062499,21.6147365859375C8.555040814062501,21.6132965859375,8.7125044140625,21.5801755859375,8.8589048140625,21.5172955859375C9.0053162140625,21.4544165859375,9.1377244140625,21.3629755859375,9.2484245140625,21.2483765859375C9.2484245140625,21.2483765859375,12.0000248140625,18.4967755859375,12.0000248140625,18.4967755859375C12.0000248140625,18.4967755859375,14.7516254140625,21.2483765859375,14.7516254140625,21.2483765859375C14.9779444140625,21.4670165859375,15.2810644140625,21.5879765859375,15.5957054140625,21.5852165859375C15.9103454140625,21.5824565859375,16.2113054140625,21.4562165859375,16.4337854140625,21.2337355859375C16.6562654140625,21.0112575859375,16.7825054140625,20.7102965859375,16.785266414062498,20.3956565859375C16.788024414062498,20.0810165859375,16.6670654140625,19.7778965859375,16.4484244140625,19.5515765859375C16.4484244140625,19.5515765859375,14.8968244140625,17.9999765859375,14.8968244140625,17.9999765859375C14.8968244140625,17.9999765859375,18.0000244140625,17.9999765859375,18.0000244140625,17.9999765859375C18.6365054140625,17.9999765859375,19.2469444140625,17.7471365859375,19.6970654140625,17.2970165859375C20.1471844140625,16.8468965859375,20.4000244140625,16.2364565859375,20.4000244140625,15.5999755859375C20.4000244140625,15.5999755859375,20.4000244140625,5.9999756859375,20.4000244140625,5.9999756859375C20.7182654140625,5.9999756859375,21.0235444140625,5.8735437859375,21.2485444140625,5.6485077859375C21.4735454140625,5.4234596859375,21.6000254140625,5.1182397859375,21.6000254140625,4.7999755859375C21.6000254140625,4.4817164559375,21.4735454140625,4.1764916159375,21.2485444140625,3.9514471859375C21.0235444140625,3.7264039959375,20.7182654140625,3.599975585937501,20.4000244140625,3.5999755859375C20.4000244140625,3.5999755859375,3.6000244140625,3.5999755859375,3.6000244140625,3.5999755859375C3.6000244140625,3.5999755859375,3.6000244140625,3.5999755859375,3.6000244140625,3.5999755859375ZM16.8000254140625,8.3999757859375C16.8000254140625,8.0817117859375,16.673544414062498,7.7764916859375,16.4485444140625,7.5514437859375C16.2235454140625,7.3264076859375,15.9182644140625,7.1999756859375,15.6000254140625,7.1999756859375C15.2817854140625,7.1999756859375,14.9765054140625,7.3264076859375,14.7515044140625,7.5514437859375C14.5265054140625,7.7764916859375,14.4000244140625,8.0817117859375,14.4000244140625,8.3999757859375C14.4000244140625,8.3999757859375,14.4000244140625,13.1999759859375,14.4000244140625,13.1999759859375C14.4000244140625,13.5182399859375,14.5265054140625,13.8234605859375,14.7515044140625,14.0485085859375C14.9765054140625,14.2735445859375,15.2817854140625,14.3999755859375,15.6000254140625,14.3999755859375C15.9182644140625,14.3999755859375,16.2235454140625,14.2735445859375,16.4485444140625,14.0485085859375C16.673544414062498,13.8234605859375,16.8000254140625,13.5182399859375,16.8000254140625,13.1999759859375C16.8000254140625,13.1999759859375,16.8000254140625,8.3999757859375,16.8000254140625,8.3999757859375C16.8000254140625,8.3999757859375,16.8000254140625,8.3999757859375,16.8000254140625,8.3999757859375ZM13.2000244140625,9.5999755859375C13.2000244140625,9.2817115859375,13.0735934140625,8.976491885937499,12.8485574140625,8.751443885937501C12.6235094140625,8.5264076859375,12.3182888140625,8.3999757859375,12.0000248140625,8.3999757859375C11.6817608140625,8.3999757859375,11.3765411140625,8.5264076859375,11.1514931140625,8.751443885937501C10.9264564140625,8.976491885937499,10.8000250140625,9.2817115859375,10.8000250140625,9.5999755859375C10.8000250140625,9.5999755859375,10.8000250140625,13.1999759859375,10.8000250140625,13.1999759859375C10.8000250140625,13.5182399859375,10.9264564140625,13.8234605859375,11.1514931140625,14.0485085859375C11.3765411140625,14.2735445859375,11.6817608140625,14.3999755859375,12.0000248140625,14.3999755859375C12.3182888140625,14.3999755859375,12.6235094140625,14.2735445859375,12.8485574140625,14.0485085859375C13.0735934140625,13.8234605859375,13.2000244140625,13.5182399859375,13.2000244140625,13.1999759859375C13.2000244140625,13.1999759859375,13.2000244140625,9.5999755859375,13.2000244140625,9.5999755859375C13.2000244140625,9.5999755859375,13.2000244140625,9.5999755859375,13.2000244140625,9.5999755859375ZM9.6000247140625,10.7999758859375C9.6000247140625,10.4817118859375,9.4735927140625,10.1764921859375,9.248556614062501,9.9514441859375C9.023508514062499,9.726407985937499,8.7182889140625,9.5999755859375,8.4000244140625,9.5999755859375C8.0817604140625,9.5999755859375,7.7765407140625,9.726407985937499,7.5514927140625,9.9514441859375C7.3264565140625,10.1764921859375,7.2000246140625,10.4817118859375,7.2000246140625,10.7999758859375C7.2000246140625,10.7999758859375,7.2000246140625,13.1999759859375,7.2000246140625,13.1999759859375C7.2000246140625,13.5182399859375,7.3264565140625,13.8234605859375,7.5514927140625,14.0485085859375C7.7765407140625,14.2735445859375,8.0817604140625,14.3999755859375,8.4000244140625,14.3999755859375C8.7182889140625,14.3999755859375,9.023508514062499,14.2735445859375,9.248556614062501,14.0485085859375C9.4735927140625,13.8234605859375,9.6000247140625,13.5182399859375,9.6000247140625,13.1999759859375C9.6000247140625,13.1999759859375,9.6000247140625,10.7999758859375,9.6000247140625,10.7999758859375C9.6000247140625,10.7999758859375,9.6000247140625,10.7999758859375,9.6000247140625,10.7999758859375Z" fill-rule="evenodd" fill="#0A0A28" fill-opacity="1"/></g></svg>