<svg xmlns="http://www.w3.org/2000/svg" xmlns:xlink="http://www.w3.org/1999/xlink" fill="none" version="1.1" width="24" height="24" viewBox="0 0 24 24"><defs><clipPath id="master_svg0_3_2086"><rect x="0" y="0" width="24" height="24" rx="0"/></clipPath></defs><g clip-path="url(#master_svg0_3_2086)"><path d="M7,13C7,13.55229,7.4477201,14,8,14C8.5522799,14,9,13.55229,9,13C9,13,7,13,7,13C7,13,7,13,7,13ZM9,12C9,11.4477201,8.5522799,11,8,11C7.4477201,11,7,11.4477201,7,12C7,12,9,12,9,12C9,12,9,12,9,12ZM11,13C11,13.55229,11.44771,14,12,14C12.55229,14,13,13.55229,13,13C13,13,11,13,11,13C11,13,11,13,11,13ZM13,10C13,9.4477201,12.55229,9,12,9C11.44771,9,11,9.4477201,11,10C11,10,13,10,13,10C13,10,13,10,13,10ZM15,13C15,13.55229,15.4477,14,16,14C16.552300000000002,14,17,13.55229,17,13C17,13,15,13,15,13C15,13,15,13,15,13ZM17,8C17,7.4477201,16.552300000000002,7,16,7C15.4477,7,15,7.4477201,15,8C15,8,17,8,17,8C17,8,17,8,17,8ZM7.2928901,20.2929C6.9023699999999995,20.683399,6.9023699999999995,21.316601,7.2928901,21.7071C7.6834202,22.097601,8.3165798,22.097601,8.707109899999999,21.7071C8.707109899999999,21.7071,7.2928901,20.2929,7.2928901,20.2929C7.2928901,20.2929,7.2928901,20.2929,7.2928901,20.2929ZM12,17C12,17,12.7071104,16.2929,12.7071104,16.2929C12.3165798,15.9024,11.6834202,15.9024,11.2928896,16.2929C11.2928896,16.2929,12,17,12,17C12,17,12,17,12,17ZM15.2929,21.7071C15.6834,22.097601,16.3166,22.097601,16.7071,21.7071C17.0976,21.316601,17.0976,20.683399,16.7071,20.2929C16.7071,20.2929,15.2929,21.7071,15.2929,21.7071C15.2929,21.7071,15.2929,21.7071,15.2929,21.7071ZM3,3C2.4477149799999998,3,2,3.4477149799999998,2,4C2,4.55228502,2.4477149799999998,5,3,5C3,5,3,3,3,3C3,3,3,3,3,3ZM21,5C21.552299,5,22,4.55228502,22,4C22,3.4477149799999998,21.552299,3,21,3C21,3,21,5,21,5C21,5,21,5,21,5ZM4,4C4,4,4,3,4,3C3.44771501,3,2.9999999999999996,3.4477149799999998,2.9999999999999996,4C2.9999999999999996,4,4,4,4,4C4,4,4,4,4,4ZM20,4C20,4,21,4,21,4C21,3.4477149799999998,20.552299,3,20,3C20,3,20,4,20,4C20,4,20,4,20,4ZM9,13C9,13,9,12,9,12C9,12,7,12,7,12C7,12,7,13,7,13C7,13,9,13,9,13C9,13,9,13,9,13ZM13,13C13,13,13,10,13,10C13,10,11,10,11,10C11,10,11,13,11,13C11,13,13,13,13,13C13,13,13,13,13,13ZM17,13C17,13,17,8,17,8C17,8,15,8,15,8C15,8,15,13,15,13C15,13,17,13,17,13C17,13,17,13,17,13ZM8.707109899999999,21.7071C8.707109899999999,21.7071,12.7071104,17.7071,12.7071104,17.7071C12.7071104,17.7071,11.2928896,16.2929,11.2928896,16.2929C11.2928896,16.2929,7.2928901,20.2929,7.2928901,20.2929C7.2928901,20.2929,8.707109899999999,21.7071,8.707109899999999,21.7071C8.707109899999999,21.7071,8.707109899999999,21.7071,8.707109899999999,21.7071ZM11.2928896,17.7071C11.2928896,17.7071,15.2929,21.7071,15.2929,21.7071C15.2929,21.7071,16.7071,20.2929,16.7071,20.2929C16.7071,20.2929,12.7071104,16.2929,12.7071104,16.2929C12.7071104,16.2929,11.2928896,17.7071,11.2928896,17.7071C11.2928896,17.7071,11.2928896,17.7071,11.2928896,17.7071ZM3,5C3,5,21,5,21,5C21,5,21,3,21,3C21,3,3,3,3,3C3,3,3,5,3,5C3,5,3,5,3,5ZM4,5C4,5,20,5,20,5C20,5,20,3,20,3C20,3,4,3,4,3C4,3,4,5,4,5C4,5,4,5,4,5ZM19,4C19,4,19,16,19,16C19,16,21,16,21,16C21,16,21,4,21,4C21,4,19,4,19,4C19,4,19,4,19,4ZM19,16C19,16,19,16,19,16C19,16,20.4142,17.4142,20.4142,17.4142C20.789301,17.039099999999998,21,16.5304,21,16C21,16,19,16,19,16C19,16,19,16,19,16ZM19,16C19,16,19,16,19,16C19,16,19,18,19,18C19.530399,18,20.039101,17.7893,20.4142,17.4142C20.4142,17.4142,19,16,19,16C19,16,19,16,19,16ZM19,16C19,16,5,16,5,16C5,16,5,18,5,18C5,18,19,18,19,18C19,18,19,16,19,16C19,16,19,16,19,16ZM5,16C5,16,5,16,5,16C5,16,3.585787,17.4142,3.585787,17.4142C3.9608610300000002,17.7893,4.46957,18,5,18C5,18,5,16,5,16C5,16,5,16,5,16ZM5,16C5,16,5,16,5,16C5,16,3,16,3,16C3,16.5304,3.210714,17.039099999999998,3.585787,17.4142C3.585787,17.4142,5,16,5,16C5,16,5,16,5,16ZM5,16C5,16,5,4,5,4C5,4,3,4,3,4C3,4,3,16,3,16C3,16,5,16,5,16C5,16,5,16,5,16Z" fill="#0A0A28" fill-opacity="1"/></g></svg>