<svg xmlns="http://www.w3.org/2000/svg" xmlns:xlink="http://www.w3.org/1999/xlink" fill="none" version="1.1" width="24" height="24" viewBox="0 0 24 24"><defs><clipPath id="master_svg0_3_1561"><rect x="0" y="0" width="24" height="24" rx="0"/></clipPath></defs><g clip-path="url(#master_svg0_3_1561)"><path d="M3.599993896484375,3.5999755859375C3.281734766484375,3.5999755859375004,2.976509926484375,3.7264039959375,2.751465496484375,3.9514471859375C2.526422306484375,4.1764916159375,2.399993896484376,4.4817164559375,2.399993896484375,4.7999755859375C2.3999938964843754,5.1182397859375,2.526422306484375,5.4234596859375,2.751465496484375,5.6485077859375C2.976509926484375,5.8735437859375,3.281734766484375,5.9999756859375,3.599993896484375,5.9999756859375C3.599993896484375,5.9999756859375,3.599993896484375,15.5999755859375,3.599993896484375,15.5999755859375C3.599993896484375,16.2364565859375,3.8528459964843753,16.8468965859375,4.302941996484375,17.2970165859375C4.753025996484375,17.7471365859375,5.363477896484374,17.9999765859375,5.999993996484375,17.9999765859375C5.999993996484375,17.9999765859375,9.103194196484374,17.9999765859375,9.103194196484374,17.9999765859375C9.103194196484374,17.9999765859375,7.551594296484375,19.5515765859375,7.551594296484375,19.5515765859375C7.436982196484375,19.6622165859375,7.345566296484375,19.7946965859375,7.282674296484375,19.9410975859375C7.219781896484375,20.0874955859375,7.186674096484375,20.2449355859375,7.185294196484375,20.4042965859375C7.183914196484375,20.5636555859375,7.214273896484375,20.7216965859375,7.274609996484375,20.8691765859375C7.334946196484375,21.0165365859375,7.424045996484375,21.1505755859375,7.536714096484375,21.2632555859375C7.649393996484375,21.3759365859375,7.783373796484375,21.4649755859375,7.930853796484375,21.5253375859375C8.078321896484375,21.5856975859375,8.236337696484375,21.6160565859375,8.395673796484374,21.6147365859375C8.555010296484376,21.6132965859375,8.712473896484376,21.5801755859375,8.858874296484375,21.5172955859375C9.005285696484375,21.4544165859375,9.137693896484375,21.3629755859375,9.248393996484374,21.2483765859375C9.248393996484374,21.2483765859375,11.999994296484376,18.4967755859375,11.999994296484376,18.4967755859375C11.999994296484376,18.4967755859375,14.751594896484375,21.2483765859375,14.751594896484375,21.2483765859375C14.977913896484376,21.4670165859375,15.281033896484375,21.5879765859375,15.595674896484375,21.5852165859375C15.910314896484374,21.5824565859375,16.211274896484376,21.4562165859375,16.433754896484373,21.2337355859375C16.656234896484374,21.0112575859375,16.782474896484374,20.7102965859375,16.785235896484373,20.3956565859375C16.787993896484373,20.0810165859375,16.667034896484374,19.7778965859375,16.448393896484376,19.5515765859375C16.448393896484376,19.5515765859375,14.896793896484375,17.9999765859375,14.896793896484375,17.9999765859375C14.896793896484375,17.9999765859375,17.999993896484376,17.9999765859375,17.999993896484376,17.9999765859375C18.636474896484376,17.9999765859375,19.246913896484376,17.7471365859375,19.697034896484375,17.2970165859375C20.147153896484376,16.8468965859375,20.399993896484375,16.2364565859375,20.399993896484375,15.5999755859375C20.399993896484375,15.5999755859375,20.399993896484375,5.9999756859375,20.399993896484375,5.9999756859375C20.718234896484375,5.9999756859375,21.023513896484374,5.8735437859375,21.248513896484376,5.6485077859375C21.473514896484375,5.4234596859375,21.599994896484375,5.1182397859375,21.599994896484375,4.7999755859375C21.599994896484375,4.4817164559375,21.473514896484375,4.1764916159375,21.248513896484376,3.9514471859375C21.023513896484374,3.7264039959375,20.718234896484375,3.599975585937501,20.399993896484375,3.5999755859375C20.399993896484375,3.5999755859375,3.599993896484375,3.5999755859375,3.599993896484375,3.5999755859375C3.599993896484375,3.5999755859375,3.599993896484375,3.5999755859375,3.599993896484375,3.5999755859375ZM17.648394896484376,9.2483753859375C17.867034896484377,9.0220560859375,17.987993896484376,8.718935985937499,17.985234896484375,8.4042958859375C17.982473896484375,8.0896558859375,17.856234896484374,7.7886838859375,17.633754896484376,7.5661918859375C17.411274896484375,7.3436996859375,17.110313896484374,7.2174956859375,16.795673896484374,7.2147717859375C16.481033896484377,7.2120358859375,16.177914896484374,7.3329836859375,15.951593896484376,7.5515756859375C15.951593896484376,7.5515756859375,11.999994296484376,11.5031756859375,11.999994296484376,11.5031756859375C11.999994296484376,11.5031756859375,10.448393796484375,9.951576185937501,10.448393796484375,9.951576185937501C10.223358596484374,9.726611585937501,9.918186196484374,9.6002277859375,9.599994196484374,9.6002277859375C9.281802196484374,9.6002277859375,8.976629696484375,9.726611585937501,8.751594496484376,9.951576185937501C8.751594496484376,9.951576185937501,6.351593996484375,12.3515758859375,6.351593996484375,12.3515758859375C6.236982096484375,12.4622764859375,6.145565996484375,12.5946845859375,6.082674296484376,12.7410955859375C6.019782096484375,12.8874959859375,5.986674096484375,13.0449599859375,5.985294096484375,13.2042960859375C5.983913896484375,13.3636321859375,6.014273896484375,13.5216474859375,6.074609996484375,13.6691155859375C6.134945896484375,13.8165955859375,6.224045996484374,13.9505755859375,6.3367139964843755,14.0632435859375C6.449394196484375,14.1759235859375,6.583373996484375,14.2650245859375,6.730853996484375,14.3253605859375C6.878322096484375,14.3856965859375,7.036338296484375,14.4160555859375,7.195674396484375,14.4146755859375C7.355009996484375,14.4132955859375,7.512474096484375,14.3801875859375,7.658873996484375,14.3172955859375C7.805285896484375,14.2544035859375,7.937694096484375,14.1629885859375,8.048393696484375,14.0483755859375C8.048393696484375,14.0483755859375,9.599994196484374,12.4967755859375,9.599994196484374,12.4967755859375C9.599994196484374,12.4967755859375,11.151594196484375,14.0483755859375,11.151594196484375,14.0483755859375C11.376629796484375,14.2733405859375,11.681801796484375,14.3997235859375,11.999994296484376,14.3997235859375C12.318185796484375,14.3997235859375,12.623358896484374,14.2733405859375,12.848393896484374,14.0483755859375C12.848393896484374,14.0483755859375,17.648394896484376,9.2483753859375,17.648394896484376,9.2483753859375C17.648394896484376,9.2483753859375,17.648394896484376,9.2483753859375,17.648394896484376,9.2483753859375C17.648394896484376,9.2483753859375,17.648394896484376,9.2483753859375,17.648394896484376,9.2483753859375Z" fill-rule="evenodd" fill="#0A0A28" fill-opacity="1"/></g></svg>