<svg xmlns="http://www.w3.org/2000/svg" xmlns:xlink="http://www.w3.org/1999/xlink" fill="none" version="1.1" width="24" height="24" viewBox="0 0 24 24"><defs><clipPath id="master_svg0_3_2336"><rect x="0" y="0" width="24" height="24" rx="0"/></clipPath></defs><g clip-path="url(#master_svg0_3_2336)"><path d="M6.2928901,11.292890100000001C5.9023699999999995,11.6834202,5.9023699999999995,12.3165798,6.2928901,12.7071104C6.6834199000000005,13.0976295,7.3165798,13.0976295,7.7071099,12.7071104C7.7071099,12.7071104,6.2928901,11.292890100000001,6.2928901,11.292890100000001C6.2928901,11.292890100000001,6.2928901,11.292890100000001,6.2928901,11.292890100000001ZM10,9C10,9,10.707109899999999,8.292890100000001,10.707109899999999,8.292890100000001C10.3165798,7.9023699999999995,9.6834202,7.9023699999999995,9.292890100000001,8.292890100000001C9.292890100000001,8.292890100000001,10,9,10,9C10,9,10,9,10,9ZM13,12C13,12,12.2928896,12.7071104,12.2928896,12.7071104C12.6834202,13.0976295,13.3166,13.0976295,13.7071,12.7071104C13.7071,12.7071104,13,12,13,12C13,12,13,12,13,12ZM17.7071,8.707109899999999C18.0976,8.3165798,18.0976,7.6834199000000005,17.7071,7.2928901C17.3166,6.9023699999999995,16.6834,6.9023699999999995,16.2929,7.2928901C16.2929,7.2928901,17.7071,8.707109899999999,17.7071,8.707109899999999C17.7071,8.707109899999999,17.7071,8.707109899999999,17.7071,8.707109899999999ZM7.2928901,20.2929C6.9023699999999995,20.683399,6.9023699999999995,21.316601,7.2928901,21.7071C7.6834202,22.097601,8.3165798,22.097601,8.707109899999999,21.7071C8.707109899999999,21.7071,7.2928901,20.2929,7.2928901,20.2929C7.2928901,20.2929,7.2928901,20.2929,7.2928901,20.2929ZM12,17C12,17,12.7071104,16.2929,12.7071104,16.2929C12.3165798,15.9024,11.6834202,15.9024,11.2928896,16.2929C11.2928896,16.2929,12,17,12,17C12,17,12,17,12,17ZM15.2929,21.7071C15.6834,22.097601,16.3166,22.097601,16.7071,21.7071C17.0976,21.316601,17.0976,20.683399,16.7071,20.2929C16.7071,20.2929,15.2929,21.7071,15.2929,21.7071C15.2929,21.7071,15.2929,21.7071,15.2929,21.7071ZM3,3C2.4477149799999998,3,2,3.4477149799999998,2,4C2,4.55228502,2.4477149799999998,5,3,5C3,5,3,3,3,3C3,3,3,3,3,3ZM21,5C21.552299,5,22,4.55228502,22,4C22,3.4477149799999998,21.552299,3,21,3C21,3,21,5,21,5C21,5,21,5,21,5ZM4,4C4,4,4,3,4,3C3.44771501,3,2.9999999999999996,3.4477149799999998,2.9999999999999996,4C2.9999999999999996,4,4,4,4,4C4,4,4,4,4,4ZM20,4C20,4,21,4,21,4C21,3.4477149799999998,20.552299,3,20,3C20,3,20,4,20,4C20,4,20,4,20,4ZM7.7071099,12.7071104C7.7071099,12.7071104,10.707109899999999,9.707109899999999,10.707109899999999,9.707109899999999C10.707109899999999,9.707109899999999,9.292890100000001,8.292890100000001,9.292890100000001,8.292890100000001C9.292890100000001,8.292890100000001,6.2928901,11.292890100000001,6.2928901,11.292890100000001C6.2928901,11.292890100000001,7.7071099,12.7071104,7.7071099,12.7071104C7.7071099,12.7071104,7.7071099,12.7071104,7.7071099,12.7071104ZM9.292890100000001,9.707109899999999C9.292890100000001,9.707109899999999,12.2928896,12.7071104,12.2928896,12.7071104C12.2928896,12.7071104,13.7071,11.292890100000001,13.7071,11.292890100000001C13.7071,11.292890100000001,10.707109899999999,8.292890100000001,10.707109899999999,8.292890100000001C10.707109899999999,8.292890100000001,9.292890100000001,9.707109899999999,9.292890100000001,9.707109899999999C9.292890100000001,9.707109899999999,9.292890100000001,9.707109899999999,9.292890100000001,9.707109899999999ZM13.7071,12.7071104C13.7071,12.7071104,17.7071,8.707109899999999,17.7071,8.707109899999999C17.7071,8.707109899999999,16.2929,7.2928901,16.2929,7.2928901C16.2929,7.2928901,12.2928896,11.292890100000001,12.2928896,11.292890100000001C12.2928896,11.292890100000001,13.7071,12.7071104,13.7071,12.7071104C13.7071,12.7071104,13.7071,12.7071104,13.7071,12.7071104ZM8.707109899999999,21.7071C8.707109899999999,21.7071,12.7071104,17.7071,12.7071104,17.7071C12.7071104,17.7071,11.2928896,16.2929,11.2928896,16.2929C11.2928896,16.2929,7.2928901,20.2929,7.2928901,20.2929C7.2928901,20.2929,8.707109899999999,21.7071,8.707109899999999,21.7071C8.707109899999999,21.7071,8.707109899999999,21.7071,8.707109899999999,21.7071ZM11.2928896,17.7071C11.2928896,17.7071,15.2929,21.7071,15.2929,21.7071C15.2929,21.7071,16.7071,20.2929,16.7071,20.2929C16.7071,20.2929,12.7071104,16.2929,12.7071104,16.2929C12.7071104,16.2929,11.2928896,17.7071,11.2928896,17.7071C11.2928896,17.7071,11.2928896,17.7071,11.2928896,17.7071ZM3,5C3,5,21,5,21,5C21,5,21,3,21,3C21,3,3,3,3,3C3,3,3,5,3,5C3,5,3,5,3,5ZM4,5C4,5,20,5,20,5C20,5,20,3,20,3C20,3,4,3,4,3C4,3,4,5,4,5C4,5,4,5,4,5ZM19,4C19,4,19,16,19,16C19,16,21,16,21,16C21,16,21,4,21,4C21,4,19,4,19,4C19,4,19,4,19,4ZM19,16C19,16,19,16,19,16C19,16,20.4142,17.4142,20.4142,17.4142C20.789301,17.039099999999998,21,16.5304,21,16C21,16,19,16,19,16C19,16,19,16,19,16ZM19,16C19,16,19,16,19,16C19,16,19,18,19,18C19.530399,18,20.039101,17.7893,20.4142,17.4142C20.4142,17.4142,19,16,19,16C19,16,19,16,19,16ZM19,16C19,16,5,16,5,16C5,16,5,18,5,18C5,18,19,18,19,18C19,18,19,16,19,16C19,16,19,16,19,16ZM5,16C5,16,5,16,5,16C5,16,3.585787,17.4142,3.585787,17.4142C3.9608610300000002,17.7893,4.46957,18,5,18C5,18,5,16,5,16C5,16,5,16,5,16ZM5,16C5,16,5,16,5,16C5,16,3,16,3,16C3,16.5304,3.210714,17.039099999999998,3.585787,17.4142C3.585787,17.4142,5,16,5,16C5,16,5,16,5,16ZM5,16C5,16,5,4,5,4C5,4,3,4,3,4C3,4,3,16,3,16C3,16,5,16,5,16C5,16,5,16,5,16Z" fill="#0A0A28" fill-opacity="1"/></g></svg>