<svg xmlns="http://www.w3.org/2000/svg" xmlns:xlink="http://www.w3.org/1999/xlink" fill="none" version="1.1" width="24" height="24" viewBox="0 0 24 24"><defs><clipPath id="master_svg0_3_1720"><rect x="0" y="0" width="24" height="24" rx="0"/></clipPath></defs><g clip-path="url(#master_svg0_3_1720)"><path d="M17,16C16.447699999999998,16,16,16.447699999999998,16,17C16,17.552300000000002,16.447699999999998,18,17,18C17,18,17,16,17,16C17,16,17,16,17,16ZM3,11C3,11,2,11,2,11C2,11,3,11,3,11C3,11,3,11,3,11ZM3,15C3,15,2,15,2,15C2,15,3,15,3,15C3,15,3,15,3,15ZM7,18C7.5522799,18,8,17.552300000000002,8,17C8,16.447699999999998,7.5522799,16,7,16C7,16,7,18,7,18C7,18,7,18,7,18ZM7,15C7,15,6,15,6,15C6,15,7,15,7,15C7,15,7,15,7,15ZM7,19C7,19,6,19,6,19C6,19,7,19,7,19C7,19,7,19,7,19ZM17,9C17,9,17,10,17,10C17.552300000000002,10,18,9.5522799,18,9C18,9,17,9,17,9C17,9,17,9,17,9ZM15,3C15,3,15,2,15,2C15,2,15,3,15,3C15,3,15,3,15,3ZM9,3C9,3,9,2,9,2C9,2,9,3,9,3C9,3,9,3,9,3ZM7,5C7,5,6,5,6,5C6,5,7,5,7,5C7,5,7,5,7,5ZM7,9C7,9,6,9,6,9C6,9.5522799,6.4477201,10,7,10C7,10,7,9,7,9C7,9,7,9,7,9ZM17,18C17,18,19,18,19,18C19,18,19,16,19,16C19,16,17,16,17,16C17,16,17,18,17,18C17,18,17,18,17,18ZM19,18C19.7957,18,20.558701,17.6839,21.1213,17.121299999999998C21.1213,17.121299999999998,19.7071,15.7071,19.7071,15.7071C19.5196,15.8946,19.2652,16,19,16C19,16,19,18,19,18C19,18,19,18,19,18ZM21.1213,17.121299999999998C21.683901,16.5587,22,15.7957,22,15C22,15,20,15,20,15C20,15.2652,19.8946,15.5196,19.7071,15.7071C19.7071,15.7071,21.1213,17.121299999999998,21.1213,17.121299999999998C21.1213,17.121299999999998,21.1213,17.121299999999998,21.1213,17.121299999999998ZM22,15C22,15,22,11,22,11C22,11,20,11,20,11C20,11,20,15,20,15C20,15,22,15,22,15C22,15,22,15,22,15ZM22,11C22,10.20435,21.683901,9.441289900000001,21.1213,8.8786802C21.1213,8.8786802,19.7071,10.292890100000001,19.7071,10.292890100000001C19.8946,10.4804301,20,10.7347798,20,11C20,11,22,11,22,11C22,11,22,11,22,11ZM21.1213,8.8786802C20.558701,8.316070100000001,19.7957,8,19,8C19,8,19,10,19,10C19.2652,10,19.5196,10.105360000000001,19.7071,10.292890100000001C19.7071,10.292890100000001,21.1213,8.8786802,21.1213,8.8786802C21.1213,8.8786802,21.1213,8.8786802,21.1213,8.8786802ZM19,8C19,8,5,8,5,8C5,8,5,10,5,10C5,10,19,10,19,10C19,10,19,8,19,8C19,8,19,8,19,8ZM5,8C4.20435,8,3.44128799,8.316070100000001,2.87868,8.8786802C2.87868,8.8786802,4.29289,10.292890100000001,4.29289,10.292890100000001C4.48043,10.105360000000001,4.73478,10,5,10C5,10,5,8,5,8C5,8,5,8,5,8ZM2.87868,8.8786802C2.3160700199999997,9.441289900000001,2,10.20435,2,11C2,11,4,11,4,11C4,10.7347798,4.10536,10.4804301,4.29289,10.292890100000001C4.29289,10.292890100000001,2.87868,8.8786802,2.87868,8.8786802C2.87868,8.8786802,2.87868,8.8786802,2.87868,8.8786802ZM2,11C2,11,2,15,2,15C2,15,4,15,4,15C4,15,4,11,4,11C4,11,2,11,2,11C2,11,2,11,2,11ZM2,15C2,15.7956,2.3160700199999997,16.5587,2.87868,17.121299999999998C2.87868,17.121299999999998,4.29289,15.7071,4.29289,15.7071C4.10536,15.5196,4,15.2652,4,15C4,15,2,15,2,15C2,15,2,15,2,15ZM2.87868,17.121299999999998C3.44128799,17.6839,4.20435,18,5,18C5,18,5,16,5,16C4.73478,16,4.48043,15.8946,4.29289,15.7071C4.29289,15.7071,2.87868,17.121299999999998,2.87868,17.121299999999998C2.87868,17.121299999999998,2.87868,17.121299999999998,2.87868,17.121299999999998ZM5,18C5,18,7,18,7,18C7,18,7,16,7,16C7,16,5,16,5,16C5,16,5,18,5,18C5,18,5,18,5,18ZM9,22C9,22,15,22,15,22C15,22,15,20,15,20C15,20,9,20,9,20C9,20,9,22,9,22C9,22,9,22,9,22ZM15,22C15.7957,22,16.5587,21.683901,17.121299999999998,21.1213C17.121299999999998,21.1213,15.7071,19.7071,15.7071,19.7071C15.5196,19.8946,15.2652,20,15,20C15,20,15,22,15,22C15,22,15,22,15,22ZM17.121299999999998,21.1213C17.6839,20.558701,18,19.7957,18,19C18,19,16,19,16,19C16,19.2652,15.8946,19.5196,15.7071,19.7071C15.7071,19.7071,17.121299999999998,21.1213,17.121299999999998,21.1213C17.121299999999998,21.1213,17.121299999999998,21.1213,17.121299999999998,21.1213ZM18,19C18,19,18,15,18,15C18,15,16,15,16,15C16,15,16,19,16,19C16,19,18,19,18,19C18,19,18,19,18,19ZM18,15C18,14.2043,17.6839,13.4413,17.121299999999998,12.8786802C17.121299999999998,12.8786802,15.7071,14.2929,15.7071,14.2929C15.8946,14.4804,16,14.7348,16,15C16,15,18,15,18,15C18,15,18,15,18,15ZM17.121299999999998,12.8786802C16.5587,12.3160696,15.7957,12,15,12C15,12,15,14,15,14C15.2652,14,15.5196,14.1054,15.7071,14.2929C15.7071,14.2929,17.121299999999998,12.8786802,17.121299999999998,12.8786802C17.121299999999998,12.8786802,17.121299999999998,12.8786802,17.121299999999998,12.8786802ZM15,12C15,12,9,12,9,12C9,12,9,14,9,14C9,14,15,14,15,14C15,14,15,12,15,12C15,12,15,12,15,12ZM9,12C8.20435,12,7.4412899,12.3160696,6.87868,12.8786802C6.87868,12.8786802,8.292890100000001,14.2929,8.292890100000001,14.2929C8.4804301,14.1054,8.7347798,14,9,14C9,14,9,12,9,12C9,12,9,12,9,12ZM6.87868,12.8786802C6.3160701,13.4413,6,14.2044,6,15C6,15,8,15,8,15C8,14.7348,8.105360000000001,14.4804,8.292890100000001,14.2929C8.292890100000001,14.2929,6.87868,12.8786802,6.87868,12.8786802C6.87868,12.8786802,6.87868,12.8786802,6.87868,12.8786802ZM6,15C6,15,6,19,6,19C6,19,8,19,8,19C8,19,8,15,8,15C8,15,6,15,6,15C6,15,6,15,6,15ZM6,19C6,19.7957,6.3160701,20.558701,6.87868,21.1213C6.87868,21.1213,8.292890100000001,19.7071,8.292890100000001,19.7071C8.105360000000001,19.5196,8,19.2652,8,19C8,19,6,19,6,19C6,19,6,19,6,19ZM6.87868,21.1213C7.4412899,21.683901,8.20435,22,9,22C9,22,9,20,9,20C8.7347798,20,8.4804301,19.8946,8.292890100000001,19.7071C8.292890100000001,19.7071,6.87868,21.1213,6.87868,21.1213C6.87868,21.1213,6.87868,21.1213,6.87868,21.1213ZM18,9C18,9,18,5,18,5C18,5,16,5,16,5C16,5,16,9,16,9C16,9,18,9,18,9C18,9,18,9,18,9ZM18,5C18,4.20435,17.6839,3.44128799,17.121299999999998,2.87868C17.121299999999998,2.87868,15.7071,4.29289,15.7071,4.29289C15.8946,4.48043,16,4.73478,16,5C16,5,18,5,18,5C18,5,18,5,18,5ZM17.121299999999998,2.87868C16.5587,2.3160700199999997,15.7956,2,15,2C15,2,15,4,15,4C15.2652,4,15.5196,4.10536,15.7071,4.29289C15.7071,4.29289,17.121299999999998,2.87868,17.121299999999998,2.87868C17.121299999999998,2.87868,17.121299999999998,2.87868,17.121299999999998,2.87868ZM15,2C15,2,9,2,9,2C9,2,9,4,9,4C9,4,15,4,15,4C15,4,15,2,15,2C15,2,15,2,15,2ZM9,2C8.20435,2,7.4412899,2.3160700199999997,6.87868,2.87868C6.87868,2.87868,8.292890100000001,4.29289,8.292890100000001,4.29289C8.4804301,4.10536,8.7347798,4,9,4C9,4,9,2,9,2C9,2,9,2,9,2ZM6.87868,2.87868C6.3160701,3.44128901,6,4.20435,6,5C6,5,8,5,8,5C8,4.73478,8.105360000000001,4.48043,8.292890100000001,4.29289C8.292890100000001,4.29289,6.87868,2.87868,6.87868,2.87868C6.87868,2.87868,6.87868,2.87868,6.87868,2.87868ZM6,5C6,5,6,9,6,9C6,9,8,9,8,9C8,9,8,5,8,5C8,5,6,5,6,5C6,5,6,5,6,5ZM7,10C7,10,17,10,17,10C17,10,17,8,17,8C17,8,7,8,7,8C7,8,7,10,7,10C7,10,7,10,7,10Z" fill="#0A0A28" fill-opacity="1"/></g></svg>