<svg xmlns="http://www.w3.org/2000/svg" xmlns:xlink="http://www.w3.org/1999/xlink" fill="none" version="1.1" width="24" height="24" viewBox="0 0 24 24"><defs><clipPath id="master_svg0_3_2318"><rect x="0" y="0" width="24" height="24" rx="0"/></clipPath></defs><g clip-path="url(#master_svg0_3_2318)"><path d="M5.999993996484375,4.8000245140625C5.999993996484375,4.8000245140625,5.999993996484375,8.4000244140625,5.999993996484375,8.4000244140625C5.999993996484375,8.4000244140625,4.799993996484375,8.4000244140625,4.799993996484375,8.4000244140625C4.163477996484375,8.4000244140625,3.553024796484375,8.6528768140625,3.102937106484375,9.1029730140625C2.652850716484375,9.5530562140625,2.3999938964843754,10.1635089140625,2.399993896484375,10.8000250140625C2.399993896484375,10.8000250140625,2.399993896484375,14.4000244140625,2.399993896484375,14.4000244140625C2.3999938964843754,15.0365054140625,2.652850716484375,15.6469454140625,3.102937106484375,16.0970654140625C3.553024796484375,16.5471854140625,4.163477996484375,16.8000254140625,4.799993996484375,16.8000254140625C4.799993996484375,16.8000254140625,5.999993996484375,16.8000254140625,5.999993996484375,16.8000254140625C5.999993996484375,16.8000254140625,5.999993996484375,19.2000254140625,5.999993996484375,19.2000254140625C5.999993996484375,19.8365054140625,6.252845996484375,20.4469454140625,6.702941896484375,20.8970644140625C7.153026096484375,21.3471854140625,7.763478296484375,21.6000254140625,8.399993896484375,21.6000254140625C8.399993896484375,21.6000254140625,15.599994896484375,21.6000254140625,15.599994896484375,21.6000254140625C16.236474896484374,21.6000254140625,16.846913896484374,21.3471854140625,17.297033896484376,20.8970644140625C17.747153896484377,20.4469454140625,17.999993896484376,19.8365054140625,17.999993896484376,19.2000254140625C17.999993896484376,19.2000254140625,17.999993896484376,16.8000254140625,17.999993896484376,16.8000254140625C17.999993896484376,16.8000254140625,19.199994896484377,16.8000254140625,19.199994896484377,16.8000254140625C19.836474896484376,16.8000254140625,20.446914896484376,16.5471854140625,20.897033896484373,16.0970654140625C21.347154896484376,15.6469454140625,21.599994896484375,15.0365054140625,21.599994896484375,14.4000244140625C21.599994896484375,14.4000244140625,21.599994896484375,10.8000250140625,21.599994896484375,10.8000250140625C21.599994896484375,10.1635089140625,21.347154896484376,9.5530562140625,20.897033896484373,9.1029730140625C20.446914896484376,8.6528768140625,19.836474896484376,8.4000244140625,19.199994896484377,8.4000244140625C19.199994896484377,8.4000244140625,17.999993896484376,8.4000244140625,17.999993896484376,8.4000244140625C17.999993896484376,8.4000244140625,17.999993896484376,4.8000245140625,17.999993896484376,4.8000245140625C17.999993896484376,4.1635085140625,17.747153896484377,3.5530553140625,17.297033896484376,3.1029676240625C16.846913896484374,2.6528812340625,16.236474896484374,2.4000244140625004,15.599994896484375,2.4000244140625C15.599994896484375,2.4000244140625,8.399993896484375,2.4000244140625,8.399993896484375,2.4000244140625C7.763478296484375,2.4000244140625004,7.153026096484375,2.6528812340625,6.702941896484375,3.1029676240625C6.252845996484375,3.5530553140625,5.999993996484375,4.1635085140625,5.999993996484375,4.8000245140625C5.999993996484375,4.8000245140625,5.999993996484375,4.8000245140625,5.999993996484375,4.8000245140625C5.999993996484375,4.8000245140625,5.999993996484375,4.8000245140625,5.999993996484375,4.8000245140625ZM15.599994896484375,4.8000245140625C15.599994896484375,4.8000245140625,8.399993896484375,4.8000245140625,8.399993896484375,4.8000245140625C8.399993896484375,4.8000245140625,8.399993896484375,8.4000244140625,8.399993896484375,8.4000244140625C8.399993896484375,8.4000244140625,15.599994896484375,8.4000244140625,15.599994896484375,8.4000244140625C15.599994896484375,8.4000244140625,15.599994896484375,4.8000245140625,15.599994896484375,4.8000245140625C15.599994896484375,4.8000245140625,15.599994896484375,4.8000245140625,15.599994896484375,4.8000245140625ZM15.599994896484375,14.4000244140625C15.599994896484375,14.4000244140625,8.399993896484375,14.4000244140625,8.399993896484375,14.4000244140625C8.399993896484375,14.4000244140625,8.399993896484375,19.2000254140625,8.399993896484375,19.2000254140625C8.399993896484375,19.2000254140625,15.599994896484375,19.2000254140625,15.599994896484375,19.2000254140625C15.599994896484375,19.2000254140625,15.599994896484375,14.4000244140625,15.599994896484375,14.4000244140625C15.599994896484375,14.4000244140625,15.599994896484375,14.4000244140625,15.599994896484375,14.4000244140625Z" fill-rule="evenodd" fill="#0A0A28" fill-opacity="1"/></g></svg>