<svg xmlns="http://www.w3.org/2000/svg" xmlns:xlink="http://www.w3.org/1999/xlink" fill="none" version="1.1" width="24" height="24" viewBox="0 0 24 24"><defs><clipPath id="master_svg0_3_1494"><rect x="0" y="0" width="24" height="24" rx="0"/></clipPath></defs><g clip-path="url(#master_svg0_3_1494)"><path d="M11.999994296484376,4.2000245140625C11.999994296484376,3.7226405140625003,12.189641996484376,3.2647972740625,12.527201896484375,2.9272324440625C12.864761896484374,2.5896664140625,13.322609896484375,2.4000244140625004,13.799994896484375,2.4000244140625C14.277378896484375,2.4000244140625004,14.735273896484374,2.5896664140625,15.072834896484375,2.9272324440625C15.410394896484375,3.2647972740625,15.599994896484375,3.7226405140625003,15.599994896484375,4.2000245140625C15.599994896484375,4.2000245140625,15.599994896484375,4.8000245140625,15.599994896484375,4.8000245140625C15.599994896484375,5.1182885140625,15.726474896484374,5.4235086140625,15.951473896484375,5.6485565140625C16.176474896484375,5.8735926140625,16.481754896484375,6.0000245140625,16.799994896484375,6.0000245140625C16.799994896484375,6.0000245140625,20.399993896484375,6.0000245140625,20.399993896484375,6.0000245140625C20.718234896484375,6.0000245140625,21.023513896484374,6.1264565140625,21.248513896484376,6.3514926140625C21.473514896484375,6.5765405140625,21.599994896484375,6.8817606140625,21.599994896484375,7.2000246140625C21.599994896484375,7.2000246140625,21.599994896484375,10.8000250140625,21.599994896484375,10.8000250140625C21.599994896484375,11.1182890140625,21.473514896484375,11.4235086140625,21.248513896484376,11.6485567140625C21.023513896484374,11.8735924140625,20.718234896484375,12.0000248140625,20.399993896484375,12.0000248140625C20.399993896484375,12.0000248140625,19.799995896484376,12.0000248140625,19.799995896484376,12.0000248140625C19.322633896484376,12.0000248140625,18.864715896484373,12.1896725140625,18.527154896484376,12.5272324140625C18.189593896484375,12.8647924140625,17.999993896484376,13.3226404140625,17.999993896484376,13.8000254140625C17.999993896484376,14.2774094140625,18.189593896484375,14.7353044140625,18.527154896484376,15.0728654140625C18.864715896484373,15.4104254140625,19.322633896484376,15.6000254140625,19.799995896484376,15.6000254140625C19.799995896484376,15.6000254140625,20.399993896484375,15.6000254140625,20.399993896484375,15.6000254140625C20.718234896484375,15.6000254140625,21.023513896484374,15.7265054140625,21.248513896484376,15.9515044140625C21.473514896484375,16.1765054140625,21.599994896484375,16.4817854140625,21.599994896484375,16.8000254140625C21.599994896484375,16.8000254140625,21.599994896484375,20.4000244140625,21.599994896484375,20.4000244140625C21.599994896484375,20.7182654140625,21.473514896484375,21.0235444140625,21.248513896484376,21.2485444140625C21.023513896484374,21.4735454140625,20.718234896484375,21.6000254140625,20.399993896484375,21.6000254140625C20.399993896484375,21.6000254140625,16.799994896484375,21.6000254140625,16.799994896484375,21.6000254140625C16.481754896484375,21.6000254140625,16.176474896484375,21.4735454140625,15.951473896484375,21.2485444140625C15.726474896484374,21.0235444140625,15.599994896484375,20.7182654140625,15.599994896484375,20.4000244140625C15.599994896484375,20.4000244140625,15.599994896484375,19.8000264140625,15.599994896484375,19.8000264140625C15.599994896484375,19.3226644140625,15.410394896484375,18.8647464140625,15.072834896484375,18.5271854140625C14.735273896484374,18.1896244140625,14.277378896484375,18.0000244140625,13.799994896484375,18.0000244140625C13.322609896484375,18.0000244140625,12.864761896484374,18.1896244140625,12.527201896484375,18.5271854140625C12.189641996484376,18.8647464140625,11.999994296484376,19.3226644140625,11.999994296484376,19.8000264140625C11.999994296484376,19.8000264140625,11.999994296484376,20.4000244140625,11.999994296484376,20.4000244140625C11.999994296484376,20.7182654140625,11.873561896484375,21.0235444140625,11.648526196484376,21.2485444140625C11.423478096484375,21.4735454140625,11.118258496484374,21.6000254140625,10.799994496484375,21.6000254140625C10.799994496484375,21.6000254140625,7.199994096484375,21.6000254140625,7.199994096484375,21.6000254140625C6.881730096484375,21.6000254140625,6.576509996484375,21.4735454140625,6.351462096484375,21.2485444140625C6.126425996484375,21.0235444140625,5.999993996484375,20.7182654140625,5.999993996484375,20.4000244140625C5.999993996484375,20.4000244140625,5.999993996484375,16.8000254140625,5.999993996484375,16.8000254140625C5.999993996484375,16.4817854140625,5.873562096484375,16.1765054140625,5.648525996484375,15.9515044140625C5.423478096484375,15.7265054140625,5.118257996484375,15.6000254140625,4.799993996484375,15.6000254140625C4.799993996484375,15.6000254140625,4.199993996484375,15.6000254140625,4.199993996484375,15.6000254140625C3.7226099964843753,15.6000254140625,3.264766756484375,15.4104254140625,2.927201926484375,15.0728654140625C2.589635896484375,14.7353044140625,2.3999938964843754,14.2774094140625,2.399993896484375,13.8000254140625C2.3999938964843754,13.3226404140625,2.589635896484375,12.8647924140625,2.927201926484375,12.5272324140625C3.264766756484375,12.1896725140625,3.7226099964843753,12.0000248140625,4.199993996484375,12.0000248140625C4.199993996484375,12.0000248140625,4.799993996484375,12.0000248140625,4.799993996484375,12.0000248140625C5.118257996484375,12.0000248140625,5.423478096484375,11.8735924140625,5.648525996484375,11.6485567140625C5.873562096484375,11.4235086140625,5.999993996484375,11.1182890140625,5.999993996484375,10.8000250140625C5.999993996484375,10.8000250140625,5.999993996484375,7.2000246140625,5.999993996484375,7.2000246140625C5.999993996484375,6.8817606140625,6.126425996484375,6.5765405140625,6.351462096484375,6.3514926140625C6.576509996484375,6.1264565140625,6.881730096484375,6.0000245140625,7.199994096484375,6.0000245140625C7.199994096484375,6.0000245140625,10.799994496484375,6.0000245140625,10.799994496484375,6.0000245140625C11.118258496484374,6.0000245140625,11.423478096484375,5.8735926140625,11.648526196484376,5.6485565140625C11.873561896484375,5.4235086140625,11.999994296484376,5.1182885140625,11.999994296484376,4.8000245140625C11.999994296484376,4.8000245140625,11.999994296484376,4.2000245140625,11.999994296484376,4.2000245140625C11.999994296484376,4.2000245140625,11.999994296484376,4.2000245140625,11.999994296484376,4.2000245140625Z" fill="#0A0A28" fill-opacity="1"/></g></svg>