<svg xmlns="http://www.w3.org/2000/svg" xmlns:xlink="http://www.w3.org/1999/xlink" fill="none" version="1.1" width="24" height="24" viewBox="0 0 24 24"><defs><clipPath id="master_svg0_3_2238"><rect x="0" y="0" width="24" height="24" rx="0"/></clipPath></defs><g clip-path="url(#master_svg0_3_2238)"><path d="M13,2C13,2,13,1,13,1C13,1,13,2,13,2C13,2,13,2,13,2ZM15,4C15,4,14,4,14,4C14,4,15,4,15,4C15,4,15,4,15,4ZM16,13C16,13,17,13,17,13C17,13,16,13,16,13C16,13,16,13,16,13ZM13,16C13,16,13,17,13,17C13,17,13,16,13,16C13,16,13,16,13,16ZM2,13C2,13,1,13,1,13C1,13,2,13,2,13C2,13,2,13,2,13ZM4,11C4,11,4,12,4,12C4,12,4,11,4,11C4,11,4,11,4,11ZM7,6C7,6,7,7,7,7C7,7,7,6,7,6C7,6,7,6,7,6ZM12,4C12,3.7347799999999998,12.1054,3.48043,12.2929,3.29289C12.2929,3.29289,10.8786802,1.87868,10.8786802,1.87868C10.3160696,2.44128799,10,3.20435,10,4C10,4,12,4,12,4C12,4,12,4,12,4ZM12.2929,3.29289C12.4804,3.10536,12.7348,3,13,3C13,3,13,1,13,1C12.2044,1,11.4412899,1.31607002,10.8786802,1.87868C10.8786802,1.87868,12.2929,3.29289,12.2929,3.29289C12.2929,3.29289,12.2929,3.29289,12.2929,3.29289ZM13,3C13.2652,3,13.5196,3.10536,13.7071,3.29289C13.7071,3.29289,15.1213,1.87868,15.1213,1.87868C14.5587,1.31607002,13.7956,1,13,1C13,1,13,3,13,3C13,3,13,3,13,3ZM13.7071,3.29289C13.8946,3.48043,14,3.7347799999999998,14,4C14,4,16,4,16,4C16,3.20435,15.6839,2.44128799,15.1213,1.87868C15.1213,1.87868,13.7071,3.29289,13.7071,3.29289C13.7071,3.29289,13.7071,3.29289,13.7071,3.29289ZM14,4C14,4,14,5,14,5C14,5,16,5,16,5C16,5,16,4,16,4C16,4,14,4,14,4C14,4,14,4,14,4ZM14,5C14,5.5304301,14.2107,6.0391402,14.5858,6.4142098C14.5858,6.4142098,16,5,16,5C16,5,16,5,16,5C16,5,14,5,14,5C14,5,14,5,14,5ZM14.5858,6.4142098C14.9609,6.78929,15.4696,7,16,7C16,7,16,5,16,5C16,5,16,5,16,5C16,5,14.5858,6.4142098,14.5858,6.4142098C14.5858,6.4142098,14.5858,6.4142098,14.5858,6.4142098ZM16,7C16,7,19,7,19,7C19,7,19,5,19,5C19,5,16,5,16,5C16,5,16,7,16,7C16,7,16,7,16,7ZM19,7C19,7,19,7,19,7C19,7,20.4142,5.5857899,20.4142,5.5857899C20.039101,5.210710000000001,19.530399,5,19,5C19,5,19,7,19,7C19,7,19,7,19,7ZM19,7C19,7,19,7,19,7C19,7,21,7,21,7C21,6.4695702,20.789301,5.96086,20.4142,5.5857899C20.4142,5.5857899,19,7,19,7C19,7,19,7,19,7ZM19,7C19,7,19,10,19,10C19,10,21,10,21,10C21,10,21,7,21,7C21,7,19,7,19,7C19,7,19,7,19,7ZM19,10C19,10,19,10,19,10C19,10,20.4142,11.4142103,20.4142,11.4142103C20.789301,11.0391397,21,10.5304298,21,10C21,10,19,10,19,10C19,10,19,10,19,10ZM19,10C19,10,19,10,19,10C19,10,19,12,19,12C19.530399,12,20.039101,11.7892904,20.4142,11.4142103C20.4142,11.4142103,19,10,19,10C19,10,19,10,19,10ZM19,10C19,10,18,10,18,10C18,10,18,12,18,12C18,12,19,12,19,12C19,12,19,10,19,10C19,10,19,10,19,10ZM18,10C17.2043,10,16.4413,10.3160696,15.8787,10.8786802C15.8787,10.8786802,17.2929,12.2929,17.2929,12.2929C17.4804,12.1054,17.7348,12,18,12C18,12,18,10,18,10C18,10,18,10,18,10ZM15.8787,10.8786802C15.3161,11.4412899,15,12.2043,15,13C15,13,17,13,17,13C17,12.7348,17.1054,12.4804,17.2929,12.2929C17.2929,12.2929,15.8787,10.8786802,15.8787,10.8786802C15.8787,10.8786802,15.8787,10.8786802,15.8787,10.8786802ZM15,13C15,13.7957,15.3161,14.5587,15.8787,15.1213C15.8787,15.1213,17.2929,13.7071,17.2929,13.7071C17.1054,13.5196,17,13.2652,17,13C17,13,15,13,15,13C15,13,15,13,15,13ZM15.8787,15.1213C16.4413,15.6839,17.2043,16,18,16C18,16,18,14,18,14C17.7348,14,17.4804,13.8946,17.2929,13.7071C17.2929,13.7071,15.8787,15.1213,15.8787,15.1213C15.8787,15.1213,15.8787,15.1213,15.8787,15.1213ZM18,16C18,16,19,16,19,16C19,16,19,14,19,14C19,14,18,14,18,14C18,14,18,16,18,16C18,16,18,16,18,16ZM19,16C19,16,19,16,19,16C19,16,20.4142,14.5858,20.4142,14.5858C20.039101,14.2107,19.530399,14,19,14C19,14,19,16,19,16C19,16,19,16,19,16ZM19,16C19,16,19,16,19,16C19,16,21,16,21,16C21,15.4696,20.789301,14.9609,20.4142,14.5858C20.4142,14.5858,19,16,19,16C19,16,19,16,19,16ZM19,16C19,16,19,19,19,19C19,19,21,19,21,19C21,19,21,16,21,16C21,16,19,16,19,16C19,16,19,16,19,16ZM19,19C19,19,19,19,19,19C19,19,20.4142,20.4142,20.4142,20.4142C20.789301,20.039101,21,19.530399,21,19C21,19,19,19,19,19C19,19,19,19,19,19ZM19,19C19,19,19,19,19,19C19,19,19,21,19,21C19.530399,21,20.039101,20.789301,20.4142,20.4142C20.4142,20.4142,19,19,19,19C19,19,19,19,19,19ZM19,19C19,19,16,19,16,19C16,19,16,21,16,21C16,21,19,21,19,21C19,21,19,19,19,19C19,19,19,19,19,19ZM16,19C16,19,16,19,16,19C16,19,14.5858,20.4142,14.5858,20.4142C14.9609,20.789301,15.4696,21,16,21C16,21,16,19,16,19C16,19,16,19,16,19ZM16,19C16,19,16,19,16,19C16,19,14,19,14,19C14,19.530399,14.2107,20.039101,14.5858,20.4142C14.5858,20.4142,16,19,16,19C16,19,16,19,16,19ZM16,19C16,19,16,18,16,18C16,18,14,18,14,18C14,18,14,19,14,19C14,19,16,19,16,19C16,19,16,19,16,19ZM16,18C16,17.2043,15.6839,16.4413,15.1213,15.8787C15.1213,15.8787,13.7071,17.2929,13.7071,17.2929C13.8946,17.4804,14,17.7348,14,18C14,18,16,18,16,18C16,18,16,18,16,18ZM15.1213,15.8787C14.5587,15.3161,13.7957,15,13,15C13,15,13,17,13,17C13.2652,17,13.5196,17.1054,13.7071,17.2929C13.7071,17.2929,15.1213,15.8787,15.1213,15.8787C15.1213,15.8787,15.1213,15.8787,15.1213,15.8787ZM13,15C12.2043,15,11.4412899,15.3161,10.8786802,15.8787C10.8786802,15.8787,12.2929,17.2929,12.2929,17.2929C12.4804,17.1054,12.7348,17,13,17C13,17,13,15,13,15C13,15,13,15,13,15ZM10.8786802,15.8787C10.3160696,16.4413,10,17.2043,10,18C10,18,12,18,12,18C12,17.7348,12.1054,17.4804,12.2929,17.2929C12.2929,17.2929,10.8786802,15.8787,10.8786802,15.8787C10.8786802,15.8787,10.8786802,15.8787,10.8786802,15.8787ZM10,18C10,18,10,19,10,19C10,19,12,19,12,19C12,19,12,18,12,18C12,18,10,18,10,18C10,18,10,18,10,18ZM10,19C10,19,10,19,10,19C10,19,11.4142103,20.4142,11.4142103,20.4142C11.7892904,20.039101,12,19.530399,12,19C12,19,10,19,10,19C10,19,10,19,10,19ZM10,19C10,19,10,19,10,19C10,19,10,21,10,21C10.5304298,21,11.0391397,20.789301,11.4142103,20.4142C11.4142103,20.4142,10,19,10,19C10,19,10,19,10,19ZM10,19C10,19,7,19,7,19C7,19,7,21,7,21C7,21,10,21,10,21C10,21,10,19,10,19C10,19,10,19,10,19ZM7,19C7,19,7,19,7,19C7,19,5.5857899,20.4142,5.5857899,20.4142C5.96086,20.789301,6.4695702,21,7,21C7,21,7,19,7,19C7,19,7,19,7,19ZM7,19C7,19,7,19,7,19C7,19,5,19,5,19C5,19.530399,5.210710000000001,20.039101,5.5857899,20.4142C5.5857899,20.4142,7,19,7,19C7,19,7,19,7,19ZM7,19C7,19,7,16,7,16C7,16,5,16,5,16C5,16,5,19,5,19C5,19,7,19,7,19C7,19,7,19,7,19ZM7,16C7,15.4696,6.78929,14.9609,6.4142098,14.5858C6.4142098,14.5858,5,16,5,16C5,16,5,16,5,16C5,16,7,16,7,16C7,16,7,16,7,16ZM6.4142098,14.5858C6.0391402,14.2107,5.5304301,14,5,14C5,14,5,16,5,16C5,16,5,16,5,16C5,16,6.4142098,14.5858,6.4142098,14.5858C6.4142098,14.5858,6.4142098,14.5858,6.4142098,14.5858ZM5,14C5,14,4,14,4,14C4,14,4,16,4,16C4,16,5,16,5,16C5,16,5,14,5,14C5,14,5,14,5,14ZM4,14C3.7347799999999998,14,3.48043,13.8946,3.29289,13.7071C3.29289,13.7071,1.87868,15.1213,1.87868,15.1213C2.44128799,15.6839,3.20435,16,4,16C4,16,4,14,4,14C4,14,4,14,4,14ZM3.29289,13.7071C3.10536,13.5196,3,13.2652,3,13C3,13,1,13,1,13C1,13.7956,1.31607002,14.5587,1.87868,15.1213C1.87868,15.1213,3.29289,13.7071,3.29289,13.7071C3.29289,13.7071,3.29289,13.7071,3.29289,13.7071ZM3,13C3,12.7348,3.10536,12.4804,3.29289,12.2929C3.29289,12.2929,1.87868,10.8786802,1.87868,10.8786802C1.31607002,11.4412899,1,12.2044,1,13C1,13,3,13,3,13C3,13,3,13,3,13ZM3.29289,12.2929C3.48043,12.1054,3.7347799999999998,12,4,12C4,12,4,10,4,10C3.20435,10,2.44128799,10.3160696,1.87868,10.8786802C1.87868,10.8786802,3.29289,12.2929,3.29289,12.2929C3.29289,12.2929,3.29289,12.2929,3.29289,12.2929ZM4,12C4,12,5,12,5,12C5,12,5,10,5,10C5,10,4,10,4,10C4,10,4,12,4,12C4,12,4,12,4,12ZM5,12C5.5304301,12,6.0391402,11.7892904,6.4142098,11.4142103C6.4142098,11.4142103,5,10,5,10C5,10,5,10,5,10C5,10,5,12,5,12C5,12,5,12,5,12ZM6.4142098,11.4142103C6.78929,11.0391397,7,10.5304298,7,10C7,10,5,10,5,10C5,10,5,10,5,10C5,10,6.4142098,11.4142103,6.4142098,11.4142103C6.4142098,11.4142103,6.4142098,11.4142103,6.4142098,11.4142103ZM7,10C7,10,7,7,7,7C7,7,5,7,5,7C5,7,5,10,5,10C5,10,7,10,7,10C7,10,7,10,7,10ZM7,7C7,7,7,7,7,7C7,7,5.5857899,5.5857899,5.5857899,5.5857899C5.210710000000001,5.96086,5,6.4695702,5,7C5,7,7,7,7,7C7,7,7,7,7,7ZM7,7C7,7,7,7,7,7C7,7,7,5,7,5C6.4695702,5,5.96086,5.210710000000001,5.5857899,5.5857899C5.5857899,5.5857899,7,7,7,7C7,7,7,7,7,7ZM7,7C7,7,10,7,10,7C10,7,10,5,10,5C10,5,7,5,7,5C7,5,7,7,7,7C7,7,7,7,7,7ZM10,7C10.5304298,7,11.0391397,6.78929,11.4142103,6.4142098C11.4142103,6.4142098,10,5,10,5C10,5,10,5,10,5C10,5,10,7,10,7C10,7,10,7,10,7ZM11.4142103,6.4142098C11.7892904,6.0391402,12,5.5304301,12,5C12,5,10,5,10,5C10,5,10,5,10,5C10,5,11.4142103,6.4142098,11.4142103,6.4142098C11.4142103,6.4142098,11.4142103,6.4142098,11.4142103,6.4142098ZM12,5C12,5,12,4,12,4C12,4,10,4,10,4C10,4,10,5,10,5C10,5,12,5,12,5C12,5,12,5,12,5Z" fill="#0A0A28" fill-opacity="1"/></g></svg>