<svg xmlns="http://www.w3.org/2000/svg" xmlns:xlink="http://www.w3.org/1999/xlink" fill="none" version="1.1" width="24" height="24" viewBox="0 0 24 24"><defs><clipPath id="master_svg0_3_1790"><rect x="0" y="0" width="24" height="24" rx="0"/></clipPath></defs><g clip-path="url(#master_svg0_3_1790)"><path d="M3.600006103515625,4.7999755859375C3.600006103515625,4.4817164559375,3.726434513515625,4.1764916159375,3.951477703515625,3.9514471859375C4.176522133515625,3.7264039959375,4.481746973515625,3.5999755859375004,4.800006103515625,3.5999755859375C4.800006103515625,3.5999755859375,8.400006303515624,3.5999755859375,8.400006303515624,3.5999755859375C8.718270303515624,3.5999755859375004,9.023489903515625,3.7264039959375,9.248538003515625,3.9514471859375C9.473574203515625,4.1764916159375,9.600006103515625,4.4817164559375,9.600006103515625,4.7999755859375C9.600006103515625,4.7999755859375,9.600006103515625,8.3999757859375,9.600006103515625,8.3999757859375C9.600006103515625,8.718239785937499,9.473574203515625,9.0234593859375,9.248538003515625,9.2485074859375C9.023489903515625,9.4735436859375,8.718270303515624,9.5999755859375,8.400006303515624,9.5999755859375C8.400006303515624,9.5999755859375,4.800006103515625,9.5999755859375,4.800006103515625,9.5999755859375C4.481746973515625,9.5999755859375,4.176522133515625,9.4735436859375,3.951477703515625,9.2485074859375C3.726434513515625,9.0234593859375,3.6000061035156254,8.718239785937499,3.600006103515625,8.3999757859375C3.600006103515625,8.3999757859375,3.600006103515625,4.7999755859375,3.600006103515625,4.7999755859375C3.600006103515625,4.7999755859375,3.600006103515625,4.7999755859375,3.600006103515625,4.7999755859375ZM6.000006203515625,7.1999756859375C6.000006203515625,7.1999756859375,6.000006203515625,5.9999756859375,6.000006203515625,5.9999756859375C6.000006203515625,5.9999756859375,7.200006203515625,5.9999756859375,7.200006203515625,5.9999756859375C7.200006203515625,5.9999756859375,7.200006203515625,7.1999756859375,7.200006203515625,7.1999756859375C7.200006203515625,7.1999756859375,6.000006203515625,7.1999756859375,6.000006203515625,7.1999756859375C6.000006203515625,7.1999756859375,6.000006203515625,7.1999756859375,6.000006203515625,7.1999756859375ZM3.600006103515625,15.5999755859375C3.600006103515625,15.2817125859375,3.726434513515625,14.9764915859375,3.951477703515625,14.7514435859375C4.176522133515625,14.5264085859375,4.481746973515625,14.3999755859375,4.800006103515625,14.3999755859375C4.800006103515625,14.3999755859375,8.400006303515624,14.3999755859375,8.400006303515624,14.3999755859375C8.718270303515624,14.3999755859375,9.023489903515625,14.5264085859375,9.248538003515625,14.7514435859375C9.473574203515625,14.9764915859375,9.600006103515625,15.2817125859375,9.600006103515625,15.5999755859375C9.600006103515625,15.5999755859375,9.600006103515625,19.1999755859375,9.600006103515625,19.1999755859375C9.600006103515625,19.518216585937502,9.473574203515625,19.8234955859375,9.248538003515625,20.0484965859375C9.023489903515625,20.2734965859375,8.718270303515624,20.3999765859375,8.400006303515624,20.3999765859375C8.400006303515624,20.3999765859375,4.800006103515625,20.3999765859375,4.800006103515625,20.3999765859375C4.481746973515625,20.3999765859375,4.176522133515625,20.2734965859375,3.951477703515625,20.0484965859375C3.726434513515625,19.8234955859375,3.6000061035156254,19.518216585937502,3.600006103515625,19.1999755859375C3.600006103515625,19.1999755859375,3.600006103515625,15.5999755859375,3.600006103515625,15.5999755859375C3.600006103515625,15.5999755859375,3.600006103515625,15.5999755859375,3.600006103515625,15.5999755859375ZM6.000006203515625,17.9999765859375C6.000006203515625,17.9999765859375,6.000006203515625,16.7999765859375,6.000006203515625,16.7999765859375C6.000006203515625,16.7999765859375,7.200006203515625,16.7999765859375,7.200006203515625,16.7999765859375C7.200006203515625,16.7999765859375,7.200006203515625,17.9999765859375,7.200006203515625,17.9999765859375C7.200006203515625,17.9999765859375,6.000006203515625,17.9999765859375,6.000006203515625,17.9999765859375C6.000006203515625,17.9999765859375,6.000006203515625,17.9999765859375,6.000006203515625,17.9999765859375ZM15.600006103515625,3.5999755859375C15.281743103515625,3.5999755859375004,14.976522103515626,3.7264039959375,14.751474103515624,3.9514471859375C14.526439103515624,4.1764916159375,14.400006103515626,4.4817164559375,14.400006103515626,4.7999755859375C14.400006103515626,4.7999755859375,14.400006103515626,8.3999757859375,14.400006103515626,8.3999757859375C14.400006103515626,8.718239785937499,14.526439103515624,9.0234593859375,14.751474103515624,9.2485074859375C14.976522103515626,9.4735436859375,15.281743103515625,9.5999755859375,15.600006103515625,9.5999755859375C15.600006103515625,9.5999755859375,19.200006103515626,9.5999755859375,19.200006103515626,9.5999755859375C19.518247103515627,9.5999755859375,19.823526103515626,9.4735436859375,20.048527103515625,9.2485074859375C20.273527103515626,9.0234593859375,20.400007103515627,8.718239785937499,20.400007103515627,8.3999757859375C20.400007103515627,8.3999757859375,20.400007103515627,4.7999755859375,20.400007103515627,4.7999755859375C20.400007103515627,4.4817164559375,20.273527103515626,4.1764916159375,20.048527103515625,3.9514471859375C19.823526103515626,3.7264039959375,19.518247103515627,3.599975585937501,19.200006103515626,3.5999755859375C19.200006103515626,3.5999755859375,15.600006103515625,3.5999755859375,15.600006103515625,3.5999755859375C15.600006103515625,3.5999755859375,15.600006103515625,3.5999755859375,15.600006103515625,3.5999755859375ZM16.800007103515625,5.9999756859375C16.800007103515625,5.9999756859375,16.800007103515625,7.1999756859375,16.800007103515625,7.1999756859375C16.800007103515625,7.1999756859375,18.000007103515625,7.1999756859375,18.000007103515625,7.1999756859375C18.000007103515625,7.1999756859375,18.000007103515625,5.9999756859375,18.000007103515625,5.9999756859375C18.000007103515625,5.9999756859375,16.800007103515625,5.9999756859375,16.800007103515625,5.9999756859375C16.800007103515625,5.9999756859375,16.800007103515625,5.9999756859375,16.800007103515625,5.9999756859375Z" fill-rule="evenodd" fill="#0A0A28" fill-opacity="1"/><path d="M13.200006503515626,4.7999755859375C13.200006503515626,4.4817164559375,13.073574103515625,4.1764916159375,12.848538403515626,3.9514471859375C12.623490303515625,3.7264039959375,12.318270703515624,3.599975585937501,12.000006703515625,3.5999755859375C11.681742703515624,3.599975585937501,11.376522503515625,3.7264039959375,11.151474503515626,3.9514471859375C10.926438303515624,4.1764916159375,10.800006403515624,4.4817164559375,10.800006403515624,4.7999755859375C10.800006403515624,4.7999755859375,10.800006403515624,5.9999756859375,10.800006403515624,5.9999756859375C10.800006403515624,6.3182396859375,10.926438303515624,6.6234597859375,11.151474503515626,6.8485076859375C11.376522503515625,7.0735437859375,11.681742703515624,7.1999756859375,12.000006703515625,7.1999756859375C12.318270703515624,7.1999756859375,12.623490303515625,7.0735437859375,12.848538403515626,6.8485076859375C13.073574103515625,6.6234597859375,13.200006503515626,6.3182396859375,13.200006503515626,5.9999756859375C13.200006503515626,5.9999756859375,13.200006503515626,4.7999755859375,13.200006503515626,4.7999755859375C13.200006503515626,4.7999755859375,13.200006503515626,4.7999755859375,13.200006503515626,4.7999755859375ZM12.000006703515625,8.3999757859375C12.318270703515624,8.3999757859375,12.623490303515625,8.5264076859375,12.848538403515626,8.751443885937501C13.073574103515625,8.976491885937499,13.200006503515626,9.2817115859375,13.200006503515626,9.5999755859375C13.200006503515626,9.5999755859375,13.200006503515626,10.7999758859375,13.200006503515626,10.7999758859375C13.200006503515626,10.7999758859375,15.600006103515625,10.7999758859375,15.600006103515625,10.7999758859375C15.918246103515624,10.7999758859375,16.223527103515625,10.9264077859375,16.448526103515626,11.151443985937501C16.673527103515625,11.3764919859375,16.800007103515625,11.6817121859375,16.800007103515625,11.9999761859375C16.800007103515625,12.3182401859375,16.673527103515625,12.6234597859375,16.448526103515626,12.8485078859375C16.223527103515625,13.0735435859375,15.918246103515624,13.1999759859375,15.600006103515625,13.1999759859375C15.600006103515625,13.1999759859375,12.000006703515625,13.1999759859375,12.000006703515625,13.1999759859375C11.681742703515624,13.1999759859375,11.376522503515625,13.0735435859375,11.151474503515626,12.8485078859375C10.926438303515624,12.6234597859375,10.800006403515624,12.3182401859375,10.800006403515624,11.9999761859375C10.800006403515624,11.9999761859375,10.800006403515624,9.5999755859375,10.800006403515624,9.5999755859375C10.800006403515624,9.2817115859375,10.926438303515624,8.976491885937499,11.151474503515626,8.751443885937501C11.376522503515625,8.5264076859375,11.681742703515624,8.3999757859375,12.000006703515625,8.3999757859375C12.000006703515625,8.3999757859375,12.000006703515625,8.3999757859375,12.000006703515625,8.3999757859375C12.000006703515625,8.3999757859375,12.000006703515625,8.3999757859375,12.000006703515625,8.3999757859375ZM19.200006103515626,10.7999758859375C18.881767103515624,10.7999758859375,18.576486103515627,10.9264077859375,18.351487103515623,11.151443985937501C18.126487103515625,11.3764919859375,18.000007103515625,11.6817121859375,18.000007103515625,11.9999761859375C18.000007103515625,12.3182401859375,18.126487103515625,12.6234597859375,18.351487103515623,12.8485078859375C18.576486103515627,13.0735435859375,18.881767103515624,13.1999759859375,19.200006103515626,13.1999759859375C19.518247103515627,13.1999759859375,19.823526103515626,13.0735435859375,20.048527103515625,12.8485078859375C20.273527103515626,12.6234597859375,20.400007103515627,12.3182401859375,20.400007103515627,11.9999761859375C20.400007103515627,11.6817121859375,20.273527103515626,11.3764919859375,20.048527103515625,11.151443985937501C19.823526103515626,10.9264077859375,19.518247103515627,10.7999758859375,19.200006103515626,10.7999758859375C19.200006103515626,10.7999758859375,19.200006103515626,10.7999758859375,19.200006103515626,10.7999758859375ZM10.800006403515624,15.5999755859375C10.800006403515624,15.2817125859375,10.926438303515624,14.9764915859375,11.151474503515626,14.7514435859375C11.376522503515625,14.5264085859375,11.681742703515624,14.3999755859375,12.000006703515625,14.3999755859375C12.000006703515625,14.3999755859375,13.200006503515626,14.3999755859375,13.200006503515626,14.3999755859375C13.518270503515625,14.3999755859375,13.823491103515625,14.5264085859375,14.048539103515624,14.7514435859375C14.273575103515626,14.9764915859375,14.400006103515626,15.2817125859375,14.400006103515626,15.5999755859375C14.400006103515626,15.9182155859375,14.273575103515626,16.2234965859375,14.048539103515624,16.4484955859375C13.823491103515625,16.6734965859375,13.518270503515625,16.7999765859375,13.200006503515626,16.7999765859375C13.200006503515626,16.7999765859375,13.200006503515626,19.1999755859375,13.200006503515626,19.1999755859375C13.200006503515626,19.518216585937502,13.073574103515625,19.8234955859375,12.848538403515626,20.0484965859375C12.623490303515625,20.2734965859375,12.318270703515624,20.3999765859375,12.000006703515625,20.3999765859375C11.681742703515624,20.3999765859375,11.376522503515625,20.2734965859375,11.151474503515626,20.0484965859375C10.926438303515624,19.8234955859375,10.800006403515624,19.518216585937502,10.800006403515624,19.1999755859375C10.800006403515624,19.1999755859375,10.800006403515624,15.5999755859375,10.800006403515624,15.5999755859375C10.800006403515624,15.5999755859375,10.800006403515624,15.5999755859375,10.800006403515624,15.5999755859375ZM8.400006303515624,13.1999759859375C8.718270303515624,13.1999759859375,9.023489903515625,13.0735435859375,9.248538003515625,12.8485078859375C9.473574203515625,12.6234597859375,9.600006103515625,12.3182401859375,9.600006103515625,11.9999761859375C9.600006103515625,11.6817121859375,9.473574203515625,11.3764919859375,9.248538003515625,11.151443985937501C9.023489903515625,10.9264077859375,8.718270303515624,10.7999758859375,8.400006303515624,10.7999758859375C8.400006303515624,10.7999758859375,4.800006103515625,10.7999758859375,4.800006103515625,10.7999758859375C4.481746973515625,10.7999758859375,4.176522133515625,10.9264077859375,3.951477703515625,11.151443985937501C3.726434513515625,11.3764919859375,3.600006103515626,11.6817121859375,3.600006103515625,11.9999761859375C3.6000061035156254,12.3182401859375,3.726434513515625,12.6234597859375,3.951477703515625,12.8485078859375C4.176522133515625,13.0735435859375,4.481746973515625,13.1999759859375,4.800006103515625,13.1999759859375C4.800006103515625,13.1999759859375,8.400006303515624,13.1999759859375,8.400006303515624,13.1999759859375C8.400006303515624,13.1999759859375,8.400006303515624,13.1999759859375,8.400006303515624,13.1999759859375ZM20.400007103515627,15.5999755859375C20.400007103515627,15.9182155859375,20.273527103515626,16.2234965859375,20.048527103515625,16.4484955859375C19.823526103515626,16.6734965859375,19.518247103515627,16.7999765859375,19.200006103515626,16.7999765859375C19.200006103515626,16.7999765859375,16.800007103515625,16.7999765859375,16.800007103515625,16.7999765859375C16.481767103515622,16.7999765859375,16.176487103515626,16.6734965859375,15.951486103515625,16.4484955859375C15.726487103515625,16.2234965859375,15.600006103515625,15.9182155859375,15.600006103515625,15.5999755859375C15.600006103515625,15.2817125859375,15.726487103515625,14.9764915859375,15.951486103515625,14.7514435859375C16.176487103515626,14.5264085859375,16.481767103515622,14.3999755859375,16.800007103515625,14.3999755859375C16.800007103515625,14.3999755859375,19.200006103515626,14.3999755859375,19.200006103515626,14.3999755859375C19.518247103515627,14.3999755859375,19.823526103515626,14.5264085859375,20.048527103515625,14.7514435859375C20.273527103515626,14.9764915859375,20.400007103515627,15.2817125859375,20.400007103515627,15.5999755859375C20.400007103515627,15.5999755859375,20.400007103515627,15.5999755859375,20.400007103515627,15.5999755859375ZM19.200006103515626,20.3999765859375C19.518247103515627,20.3999765859375,19.823526103515626,20.2734965859375,20.048527103515625,20.0484965859375C20.273527103515626,19.8234955859375,20.400007103515627,19.518216585937502,20.400007103515627,19.1999755859375C20.400007103515627,18.8817365859375,20.273527103515626,18.576455585937502,20.048527103515625,18.3514565859375C19.823526103515626,18.1264565859375,19.518247103515627,17.9999765859375,19.200006103515626,17.9999765859375C19.200006103515626,17.9999765859375,15.600006103515625,17.9999765859375,15.600006103515625,17.9999765859375C15.281743103515625,17.9999765859375,14.976522103515626,18.1264565859375,14.751474103515624,18.3514565859375C14.526439103515624,18.576455585937502,14.400006103515626,18.8817365859375,14.400006103515626,19.1999755859375C14.400006103515626,19.518216585937502,14.526439103515624,19.8234955859375,14.751474103515624,20.0484965859375C14.976522103515626,20.2734965859375,15.281743103515625,20.3999765859375,15.600006103515625,20.3999765859375C15.600006103515625,20.3999765859375,19.200006103515626,20.3999765859375,19.200006103515626,20.3999765859375C19.200006103515626,20.3999765859375,19.200006103515626,20.3999765859375,19.200006103515626,20.3999765859375Z" fill="#0A0A28" fill-opacity="1"/></g></svg>