<svg xmlns="http://www.w3.org/2000/svg" xmlns:xlink="http://www.w3.org/1999/xlink" fill="none" version="1.1" width="24" height="24" viewBox="0 0 24 24"><defs><clipPath id="master_svg0_3_2070"><rect x="0" y="0" width="24" height="24" rx="0"/></clipPath></defs><g clip-path="url(#master_svg0_3_2070)"><path d="M13,4C13,3.4477149799999998,12.55229,3,12,3C11.4477201,3,11,3.4477149799999998,11,4C11,4,13,4,13,4C13,4,13,4,13,4ZM11,5C11,5.5522799,11.4477201,6,12,6C12.55229,6,13,5.5522799,13,5C13,5,11,5,11,5C11,5,11,5,11,5ZM18,15C17.447699999999998,15,17,15.4477,17,16C17,16.552300000000002,17.447699999999998,17,18,17C18,17,18,15,18,15C18,15,18,15,18,15ZM20,17C20.552299,17,21,16.552300000000002,21,16C21,15.4477,20.552299,15,20,15C20,15,20,17,20,17C20,17,20,17,20,17ZM14,17C14.5523,17,15,16.552300000000002,15,16C15,15.4477,14.5523,15,14,15C14,15,14,17,14,17C14,17,14,17,14,17ZM12,16C12,16,12,15,12,15C11.4477201,15,11,15.4477,11,16C11,16,12,16,12,16C12,16,12,16,12,16ZM11,20C11,20.552299,11.4477201,21,12,21C12.55229,21,13,20.552299,13,20C13,20,11,20,11,20C11,20,11,20,11,20ZM13,9C13,8.4477201,12.55229,8,12,8C11.4477201,8,11,8.4477201,11,9C11,9,13,9,13,9C13,9,13,9,13,9ZM12,12C12,12,11,12,11,12C11,12.55229,11.4477201,13,12,13C12,13,12,12,12,12C12,12,12,12,12,12ZM12.0100002,13C12.5622902,13,13.0100002,12.55229,13.0100002,12C13.0100002,11.4477201,12.5622902,11,12.0100002,11C12.0100002,11,12.0100002,13,12.0100002,13C12.0100002,13,12.0100002,13,12.0100002,13ZM16.009999999999998,13C16.5623,13,17.009999999999998,12.55229,17.009999999999998,12C17.009999999999998,11.4477201,16.5623,11,16.009999999999998,11C16.009999999999998,11,16.009999999999998,13,16.009999999999998,13C16.009999999999998,13,16.009999999999998,13,16.009999999999998,13ZM16,19C15.4477,19,15,19.447699999999998,15,20C15,20.552299,15.4477,21,16,21C16,21,16,19,16,19C16,19,16,19,16,19ZM20,21C20.552299,21,21,20.552299,21,20C21,19.447699999999998,20.552299,19,20,19C20,19,20,21,20,21C20,21,20,21,20,21ZM4,11C3.4477149799999998,11,3,11.4477201,3,12C3,12.55229,3.4477149799999998,13,4,13C4,13,4,11,4,11C4,11,4,11,4,11ZM8,13C8.5522799,13,9,12.55229,9,12C9,11.4477201,8.5522799,11,8,11C8,11,8,13,8,13C8,13,8,13,8,13ZM20,11C19.447699999999998,11,19,11.4477201,19,12C19,12.55229,19.447699999999998,13,20,13C20,13,20,11,20,11C20,11,20,11,20,11ZM20.01,13C20.5623,13,21.01,12.55229,21.01,12C21.01,11.4477201,20.5623,11,20.01,11C20.01,11,20.01,13,20.01,13C20.01,13,20.01,13,20.01,13ZM7,4C7,4,7,3,7,3C7,3,7,4,7,4C7,4,7,4,7,4ZM4,5C4,5,3,5,3,5C3,5,4,5,4,5C4,5,4,5,4,5ZM19,4C19,4,19,3,19,3C19,3,19,4,19,4C19,4,19,4,19,4ZM4,17C4,17,3,17,3,17C3,17,4,17,4,17C4,17,4,17,4,17ZM11,4C11,4,11,5,11,5C11,5,13,5,13,5C13,5,13,4,13,4C13,4,11,4,11,4C11,4,11,4,11,4ZM18,17C18,17,20,17,20,17C20,17,20,15,20,15C20,15,18,15,18,15C18,15,18,17,18,17C18,17,18,17,18,17ZM14,15C14,15,12,15,12,15C12,15,12,17,12,17C12,17,14,17,14,17C14,17,14,15,14,15C14,15,14,15,14,15ZM11,16C11,16,11,20,11,20C11,20,13,20,13,20C13,20,13,16,13,16C13,16,11,16,11,16C11,16,11,16,11,16ZM11,9C11,9,11,12,11,12C11,12,13,12,13,12C13,12,13,9,13,9C13,9,11,9,11,9C11,9,11,9,11,9ZM12,13C12,13,12.0100002,13,12.0100002,13C12.0100002,13,12.0100002,11,12.0100002,11C12.0100002,11,12,11,12,11C12,11,12,13,12,13C12,13,12,13,12,13ZM12,13C12,13,16.009999999999998,13,16.009999999999998,13C16.009999999999998,13,16.009999999999998,11,16.009999999999998,11C16.009999999999998,11,12,11,12,11C12,11,12,13,12,13C12,13,12,13,12,13ZM16,21C16,21,20,21,20,21C20,21,20,19,20,19C20,19,16,19,16,19C16,19,16,21,16,21C16,21,16,21,16,21ZM4,13C4,13,8,13,8,13C8,13,8,11,8,11C8,11,4,11,4,11C4,11,4,13,4,13C4,13,4,13,4,13ZM20,13C20,13,20.01,13,20.01,13C20.01,13,20.01,11,20.01,11C20.01,11,20,11,20,11C20,11,20,13,20,13C20,13,20,13,20,13ZM5,9C5,9,7,9,7,9C7,9,7,7,7,7C7,7,5,7,5,7C5,7,5,9,5,9C5,9,5,9,5,9ZM7,9C7.5304301,9,8.0391402,8.789290000000001,8.4142098,8.4142098C8.4142098,8.4142098,7,7,7,7C7,7,7,7,7,7C7,7,7,9,7,9C7,9,7,9,7,9ZM8.4142098,8.4142098C8.789290000000001,8.0391402,9,7.5304301,9,7C9,7,7,7,7,7C7,7,7,7,7,7C7,7,8.4142098,8.4142098,8.4142098,8.4142098C8.4142098,8.4142098,8.4142098,8.4142098,8.4142098,8.4142098ZM9,7C9,7,9,5,9,5C9,5,7,5,7,5C7,5,7,7,7,7C7,7,9,7,9,7C9,7,9,7,9,7ZM9,5C9,4.4695659899999995,8.789290000000001,3.9608589,8.4142098,3.585787C8.4142098,3.585787,7,5,7,5C7,5,7,5,7,5C7,5,9,5,9,5C9,5,9,5,9,5ZM8.4142098,3.585787C8.0391402,3.21071398,7.5304301,3,7,3C7,3,7,5,7,5C7,5,7,5,7,5C7,5,8.4142098,3.585787,8.4142098,3.585787C8.4142098,3.585787,8.4142098,3.585787,8.4142098,3.585787ZM7,3C7,3,5,3,5,3C5,3,5,5,5,5C5,5,7,5,7,5C7,5,7,3,7,3C7,3,7,3,7,3ZM5,3C4.4695659899999995,3,3.9608589,3.21071398,3.585787,3.585787C3.585787,3.585787,5,5,5,5C5,5,5,5,5,5C5,5,5,3,5,3C5,3,5,3,5,3ZM3.585787,3.585787C3.21071398,3.9608589,3,4.4695659899999995,3,5C3,5,5,5,5,5C5,5,5,5,5,5C5,5,3.585787,3.585787,3.585787,3.585787C3.585787,3.585787,3.585787,3.585787,3.585787,3.585787ZM3,5C3,5,3,7,3,7C3,7,5,7,5,7C5,7,5,5,5,5C5,5,3,5,3,5C3,5,3,5,3,5ZM3,7C3,7.5304301,3.21071398,8.0391402,3.585787,8.4142098C3.585787,8.4142098,5,7,5,7C5,7,5,7,5,7C5,7,3,7,3,7C3,7,3,7,3,7ZM3.585787,8.4142098C3.9608589,8.789290000000001,4.4695659899999995,9,5,9C5,9,5,7,5,7C5,7,5,7,5,7C5,7,3.585787,8.4142098,3.585787,8.4142098C3.585787,8.4142098,3.585787,8.4142098,3.585787,8.4142098ZM17,9C17,9,19,9,19,9C19,9,19,7,19,7C19,7,17,7,17,7C17,7,17,9,17,9C17,9,17,9,17,9ZM19,9C19.5304,9,20.039101,8.789290000000001,20.4142,8.4142098C20.4142,8.4142098,19,7,19,7C19,7,19,7,19,7C19,7,19,9,19,9C19,9,19,9,19,9ZM20.4142,8.4142098C20.789301,8.0391402,21,7.5304301,21,7C21,7,19,7,19,7C19,7,19,7,19,7C19,7,20.4142,8.4142098,20.4142,8.4142098C20.4142,8.4142098,20.4142,8.4142098,20.4142,8.4142098ZM21,7C21,7,21,5,21,5C21,5,19,5,19,5C19,5,19,7,19,7C19,7,21,7,21,7C21,7,21,7,21,7ZM21,5C21,4.469569,20.789301,3.960860599,20.4142,3.585787C20.4142,3.585787,19,5,19,5C19,5,19,5,19,5C19,5,21,5,21,5C21,5,21,5,21,5ZM20.4142,3.585787C20.039101,3.21071398,19.5304,3,19,3C19,3,19,5,19,5C19,5,19,5,19,5C19,5,20.4142,3.585787,20.4142,3.585787C20.4142,3.585787,20.4142,3.585787,20.4142,3.585787ZM19,3C19,3,17,3,17,3C17,3,17,5,17,5C17,5,19,5,19,5C19,5,19,3,19,3C19,3,19,3,19,3ZM17,3C16.4696,3,15.9609,3.21071398,15.5858,3.585787C15.5858,3.585787,17,5,17,5C17,5,17,5,17,5C17,5,17,3,17,3C17,3,17,3,17,3ZM15.5858,3.585787C15.2107,3.960860599,15,4.469569,15,5C15,5,17,5,17,5C17,5,17,5,17,5C17,5,15.5858,3.585787,15.5858,3.585787C15.5858,3.585787,15.5858,3.585787,15.5858,3.585787ZM15,5C15,5,15,7,15,7C15,7,17,7,17,7C17,7,17,5,17,5C17,5,15,5,15,5C15,5,15,5,15,5ZM15,7C15,7.5304301,15.2107,8.0391402,15.5858,8.4142098C15.5858,8.4142098,17,7,17,7C17,7,17,7,17,7C17,7,15,7,15,7C15,7,15,7,15,7ZM15.5858,8.4142098C15.9609,8.789290000000001,16.4696,9,17,9C17,9,17,7,17,7C17,7,17,7,17,7C17,7,15.5858,8.4142098,15.5858,8.4142098C15.5858,8.4142098,15.5858,8.4142098,15.5858,8.4142098ZM5,21C5,21,7,21,7,21C7,21,7,19,7,19C7,19,5,19,5,19C5,19,5,21,5,21C5,21,5,21,5,21ZM7,21C7.5304301,21,8.0391402,20.789301,8.4142098,20.4142C8.4142098,20.4142,7,19,7,19C7,19,7,19,7,19C7,19,7,21,7,21C7,21,7,21,7,21ZM8.4142098,20.4142C8.789290000000001,20.039101,9,19.5304,9,19C9,19,7,19,7,19C7,19,7,19,7,19C7,19,8.4142098,20.4142,8.4142098,20.4142C8.4142098,20.4142,8.4142098,20.4142,8.4142098,20.4142ZM9,19C9,19,9,17,9,17C9,17,7,17,7,17C7,17,7,19,7,19C7,19,9,19,9,19C9,19,9,19,9,19ZM9,17C9,16.4696,8.789290000000001,15.9609,8.4142098,15.5858C8.4142098,15.5858,7,17,7,17C7,17,7,17,7,17C7,17,9,17,9,17C9,17,9,17,9,17ZM8.4142098,15.5858C8.0391402,15.2107,7.5304301,15,7,15C7,15,7,17,7,17C7,17,7,17,7,17C7,17,8.4142098,15.5858,8.4142098,15.5858C8.4142098,15.5858,8.4142098,15.5858,8.4142098,15.5858ZM7,15C7,15,5,15,5,15C5,15,5,17,5,17C5,17,7,17,7,17C7,17,7,15,7,15C7,15,7,15,7,15ZM5,15C4.469569,15,3.960860599,15.2107,3.585787,15.5858C3.585787,15.5858,5,17,5,17C5,17,5,17,5,17C5,17,5,15,5,15C5,15,5,15,5,15ZM3.585787,15.5858C3.21071398,15.9609,3,16.4696,3,17C3,17,5,17,5,17C5,17,5,17,5,17C5,17,3.585787,15.5858,3.585787,15.5858C3.585787,15.5858,3.585787,15.5858,3.585787,15.5858ZM3,17C3,17,3,19,3,19C3,19,5,19,5,19C5,19,5,17,5,17C5,17,3,17,3,17C3,17,3,17,3,17ZM3,19C3,19.5304,3.21071398,20.039101,3.585787,20.4142C3.585787,20.4142,5,19,5,19C5,19,5,19,5,19C5,19,3,19,3,19C3,19,3,19,3,19ZM3.585787,20.4142C3.960860599,20.789301,4.469569,21,5,21C5,21,5,19,5,19C5,19,5,19,5,19C5,19,3.585787,20.4142,3.585787,20.4142C3.585787,20.4142,3.585787,20.4142,3.585787,20.4142Z" fill="#0A0A28" fill-opacity="1"/></g></svg>