<svg xmlns="http://www.w3.org/2000/svg" xmlns:xlink="http://www.w3.org/1999/xlink" fill="none" version="1.1" width="24" height="24" viewBox="0 0 24 24"><defs><clipPath id="master_svg0_3_2358"><rect x="0" y="0" width="24" height="24" rx="0"/></clipPath></defs><g clip-path="url(#master_svg0_3_2358)"><path d="M21.6000254140625,12.0000248140625C21.6000254140625,14.5460654140625,20.5885444140625,16.9879444140625,18.7883054140625,18.7883054140625C16.9879444140625,20.5885444140625,14.5460654140625,21.6000254140625,12.0000248140625,21.6000254140625C9.4539490140625,21.6000254140625,7.0121527140625,20.5885444140625,5.211804414062501,18.7883054140625C3.4114504140625,16.9879444140625,2.4000244140625018,14.5460654140625,2.4000244140625,12.0000248140625C2.4000244140625004,9.4539490140625,3.4114504140625,7.0121527140625,5.211804414062501,5.211804414062501C7.0121527140625,3.4114504140625,9.4539490140625,2.4000244140625027,12.0000248140625,2.4000244140625C14.5460654140625,2.4000244140625018,16.9879444140625,3.4114504140625,18.7883054140625,5.211804414062501C20.5885444140625,7.0121527140625,21.6000254140625,9.4539490140625,21.6000254140625,12.0000248140625C21.6000254140625,12.0000248140625,21.6000254140625,12.0000248140625,21.6000254140625,12.0000248140625C21.6000254140625,12.0000248140625,21.6000254140625,12.0000248140625,21.6000254140625,12.0000248140625ZM12.0000248140625,8.4000244140625C11.7891846140625,8.399820314062499,11.5820045140625,8.4551644140625,11.3993654140625,8.5605006140625C11.2167129140625,8.6658368140625,11.0650444140625,8.8174324140625,10.9596243140625,9.000024814062499C10.8835087140625,9.1414804140625,10.7797565140625,9.2662086140625,10.6545362140625,9.3668165140625C10.5293169140625,9.4674249140625,10.3851728140625,9.5418725140625,10.2306485140625,9.585744814062501C10.0761247140625,9.6296167140625,9.914352914062501,9.6420126140625,9.7549567140625,9.6222124140625C9.5955491140625,9.6024003140625,9.4417329140625,9.550788914062501,9.3026409140625,9.470437014062501C9.1635609140625,9.3900847140625,9.042012714062501,9.2826247140625,8.9452205140625,9.1544289140625C8.8484287140625,9.0262327140625,8.7783728140625,8.8799047140625,8.7391806140625,8.7241206140625C8.6999888140625,8.5683489140625,8.6924767140625,8.4062886140625,8.7170768140625,8.2475529140625C8.7416887140625,8.088804714062501,8.797908814062499,7.9366326140625,8.8824248140625,7.8000245140625C9.2786889140625,7.1137566140625,9.8903165140625,6.5774164140625,10.6224604140625,6.2741766140625C11.3545933140625,5.9709365140625,12.1663322140625,5.9177527140625,12.9317894140625,6.1228566140625C13.6972334140625,6.3279605140625,14.3736244140625,6.7798924140625,14.8560244140625,7.4085846140625C15.3384244140625,8.0372648140625,15.6000254140625,8.8075690140625,15.6000254140625,9.6000247140625C15.6002654140625,10.344768514062501,15.3695054140625,11.0712604140625,14.9397844140625,11.6794453140625C14.5099454140625,12.2876415140625,13.9021204140625,12.7476124140625,13.2000244140625,12.9960254140625C13.2000244140625,12.9960254140625,13.2000244140625,13.2000244140625,13.2000244140625,13.2000244140625C13.2000244140625,13.5182884140625,13.0735934140625,13.8235094140625,12.8485574140625,14.0485574140625C12.6235094140625,14.2735934140625,12.3182888140625,14.4000244140625,12.0000248140625,14.4000244140625C11.6817608140625,14.4000244140625,11.3765411140625,14.2735934140625,11.1514931140625,14.0485574140625C10.9264564140625,13.8235094140625,10.8000250140625,13.5182884140625,10.8000250140625,13.2000244140625C10.8000250140625,13.2000244140625,10.8000250140625,12.0000248140625,10.8000250140625,12.0000248140625C10.8000250140625,11.6817608140625,10.9264564140625,11.3765411140625,11.1514931140625,11.1514931140625C11.3765411140625,10.9264564140625,11.6817608140625,10.8000250140625,12.0000248140625,10.8000250140625C12.3182888140625,10.8000250140625,12.6235094140625,10.6735926140625,12.8485574140625,10.4485569140625C13.0735934140625,10.2235083140625,13.2000244140625,9.9182887140625,13.2000244140625,9.6000247140625C13.2000244140625,9.2817607140625,13.0735934140625,8.9765410140625,12.8485574140625,8.7514930140625C12.6235094140625,8.526456814062499,12.3182888140625,8.4000244140625,12.0000248140625,8.4000244140625C12.0000248140625,8.4000244140625,12.0000248140625,8.4000244140625,12.0000248140625,8.4000244140625ZM12.0000248140625,18.0000244140625C12.3182888140625,18.0000244140625,12.6235094140625,17.8735444140625,12.8485574140625,17.6485454140625C13.0735934140625,17.423544414062498,13.2000244140625,17.1182644140625,13.2000244140625,16.8000254140625C13.2000244140625,16.4817854140625,13.0735934140625,16.1765054140625,12.8485574140625,15.9515044140625C12.6235094140625,15.7265054140625,12.3182888140625,15.6000254140625,12.0000248140625,15.6000254140625C11.6817608140625,15.6000254140625,11.3765411140625,15.7265054140625,11.1514931140625,15.9515044140625C10.9264564140625,16.1765054140625,10.8000250140625,16.4817854140625,10.8000250140625,16.8000254140625C10.8000250140625,17.1182644140625,10.9264564140625,17.423544414062498,11.1514931140625,17.6485454140625C11.3765411140625,17.8735444140625,11.6817608140625,18.0000244140625,12.0000248140625,18.0000244140625C12.0000248140625,18.0000244140625,12.0000248140625,18.0000244140625,12.0000248140625,18.0000244140625C12.0000248140625,18.0000244140625,12.0000248140625,18.0000244140625,12.0000248140625,18.0000244140625Z" fill-rule="evenodd" fill="#0A0A28" fill-opacity="1"/></g></svg>