<svg xmlns="http://www.w3.org/2000/svg" xmlns:xlink="http://www.w3.org/1999/xlink" fill="none" version="1.1" width="24" height="24" viewBox="0 0 24 24"><defs><clipPath id="master_svg0_3_1858"><rect x="0" y="0" width="24" height="24" rx="0"/></clipPath></defs><g clip-path="url(#master_svg0_3_1858)"><path d="M7.32341,8.573720238418579C7.0879798,9.073310138418579,7.3021302,9.66916013841858,7.8017201,9.90459033841858C8.3013101,10.14002013841858,8.8971601,9.92587013841858,9.1325898,9.42628023841858C9.1325898,9.42628023841858,7.32341,8.573720238418579,7.32341,8.573720238418579C7.32341,8.573720238418579,7.32341,8.573720238418579,7.32341,8.573720238418579ZM12.9940004,12.90699983841858C12.9940004,12.90699983841858,13.1824,13.889100238418578,13.1824,13.889100238418578C13.1824,13.889100238418578,13.1827,13.889000238418578,13.1827,13.889000238418578C13.1827,13.889000238418578,12.9940004,12.90699983841858,12.9940004,12.90699983841858C12.9940004,12.90699983841858,12.9940004,12.90699983841858,12.9940004,12.90699983841858ZM11,14.000000238418579C11,14.55230023841858,11.44771,15.000000238418579,12,15.000000238418579C12.55229,15.000000238418579,13,14.55230023841858,13,14.000000238418579C13,14.000000238418579,11,14.000000238418579,11,14.000000238418579C11,14.000000238418579,11,14.000000238418579,11,14.000000238418579ZM12,16.00000023841858C11.44771,16.00000023841858,11,16.447700238418577,11,17.00000023841858C11,17.55230023841858,11.44771,18.00000023841858,12,18.00000023841858C12,18.00000023841858,12,16.00000023841858,12,16.00000023841858C12,16.00000023841858,12,16.00000023841858,12,16.00000023841858ZM12.0100002,18.00000023841858C12.5622902,18.00000023841858,13.01,17.55230023841858,13.01,17.00000023841858C13.01,16.447700238418577,12.5622902,16.00000023841858,12.0100002,16.00000023841858C12.0100002,16.00000023841858,12.0100002,18.00000023841858,12.0100002,18.00000023841858C12.0100002,18.00000023841858,12.0100002,18.00000023841858,12.0100002,18.00000023841858ZM12,3.000000238418579C12,3.000000238418579,12,4.000000238418579,12,4.000000238418579C12,4.000000238418579,12,3.000000238418579,12,3.000000238418579C12,3.000000238418579,12,3.000000238418579,12,3.000000238418579ZM9.1325898,9.42628023841858C9.471879999999999,8.70629003841858,10.528089999999999,8.000000238418579,12,8.000000238418579C12,8.000000238418579,12,6.000000238418579,12,6.000000238418579C9.9879098,6.000000238418579,8.0821199,6.963710338418579,7.32341,8.573720238418579C7.32341,8.573720238418579,9.1325898,9.42628023841858,9.1325898,9.42628023841858C9.1325898,9.42628023841858,9.1325898,9.42628023841858,9.1325898,9.42628023841858ZM12,8.000000238418579C12.9096403,8.000000238418579,13.6942,8.27764013841858,14.2287,8.67859003841858C14.7629,9.079280138418579,15,9.556640338418578,15,10.000000238418579C15,10.000000238418579,17,10.000000238418579,17,10.000000238418579C17,8.786360038418579,16.342100000000002,7.763720238418579,15.4288,7.078660238418579C14.5158,6.393860338418579,13.3004,6.000000238418579,12,6.000000238418579C12,6.000000238418579,12,8.000000238418579,12,8.000000238418579C12,8.000000238418579,12,8.000000238418579,12,8.000000238418579ZM15,10.000000238418579C15,10.72988013841858,14.2787,11.64188983841858,12.8053198,11.924960338418579C12.8053198,11.924960338418579,13.1827,13.889000238418578,13.1827,13.889000238418578C15.1653,13.50810023841858,17,12.070120138418579,17,10.000000238418579C17,10.000000238418579,15,10.000000238418579,15,10.000000238418579C15,10.000000238418579,15,10.000000238418579,15,10.000000238418579ZM12.8055601,11.924920338418579C11.9106798,12.09663033841858,11,12.856439838418579,11,14.000000238418579C11,14.000000238418579,13,14.000000238418579,13,14.000000238418579C13,13.999300238418579,13,13.99970023841858,12.9998598,14.00060023841858C12.9996996,14.00130023841858,12.9996204,14.00120023841858,13.0002,13.99990023841858C13.0013,13.99740023841858,13.0062,13.987200238418579,13.0203,13.97220023841858C13.0516,13.939100238418579,13.1095,13.90310023841858,13.1824,13.889100238418578C13.1824,13.889100238418578,12.8055601,11.924920338418579,12.8055601,11.924920338418579C12.8055601,11.924920338418579,12.8055601,11.924920338418579,12.8055601,11.924920338418579ZM12,18.00000023841858C12,18.00000023841858,12.0100002,18.00000023841858,12.0100002,18.00000023841858C12.0100002,18.00000023841858,12.0100002,16.00000023841858,12.0100002,16.00000023841858C12.0100002,16.00000023841858,12,16.00000023841858,12,16.00000023841858C12,16.00000023841858,12,18.00000023841858,12,18.00000023841858C12,18.00000023841858,12,18.00000023841858,12,18.00000023841858ZM20,12.000000238418579C20,13.050600238418578,19.7931,14.090900238418579,19.391001,15.06150023841858C19.391001,15.06150023841858,21.2388,15.82680023841858,21.2388,15.82680023841858C21.741301,14.613600238418579,22,13.31320023841858,22,12.000000238418579C22,12.000000238418579,20,12.000000238418579,20,12.000000238418579C20,12.000000238418579,20,12.000000238418579,20,12.000000238418579ZM19.391001,15.06150023841858C18.989,16.03210023841858,18.3997,16.91400023841858,17.6569,17.65690023841858C17.6569,17.65690023841858,19.0711,19.07110023841858,19.0711,19.07110023841858C19.999701,18.142500238418577,20.7362,17.04010023841858,21.2388,15.82680023841858C21.2388,15.82680023841858,19.391001,15.06150023841858,19.391001,15.06150023841858C19.391001,15.06150023841858,19.391001,15.06150023841858,19.391001,15.06150023841858ZM17.6569,17.65690023841858C16.914,18.39970023841858,16.0321,18.98900023841858,15.0615,19.39100123841858C15.0615,19.39100123841858,15.8268,21.23880023841858,15.8268,21.23880023841858C17.040100000000002,20.73620023841858,18.1425,19.99970123841858,19.0711,19.07110023841858C19.0711,19.07110023841858,17.6569,17.65690023841858,17.6569,17.65690023841858C17.6569,17.65690023841858,17.6569,17.65690023841858,17.6569,17.65690023841858ZM15.0615,19.39100123841858C14.0909,19.793100238418578,13.0506,20.00000023841858,12,20.00000023841858C12,20.00000023841858,12,22.00000023841858,12,22.00000023841858C13.3132,22.00000023841858,14.6136,21.74130123841858,15.8268,21.23880023841858C15.8268,21.23880023841858,15.0615,19.39100123841858,15.0615,19.39100123841858C15.0615,19.39100123841858,15.0615,19.39100123841858,15.0615,19.39100123841858ZM12,20.00000023841858C10.94942,20.00000023841858,9.9091401,19.793100238418578,8.93853,19.39100123841858C8.93853,19.39100123841858,8.1731701,21.23880023841858,8.1731701,21.23880023841858C9.386419799999999,21.74130123841858,10.686779999999999,22.00000023841858,12,22.00000023841858C12,22.00000023841858,12,20.00000023841858,12,20.00000023841858C12,20.00000023841858,12,20.00000023841858,12,20.00000023841858ZM8.93853,19.39100123841858C7.9679298,18.98900023841858,7.08601,18.39970023841858,6.3431499,17.65690023841858C6.3431499,17.65690023841858,4.92893,19.07110023841858,4.92893,19.07110023841858C5.8575201,19.99970123841858,6.9599098999999995,20.73620023841858,8.1731701,21.23880023841858C8.1731701,21.23880023841858,8.93853,19.39100123841858,8.93853,19.39100123841858C8.93853,19.39100123841858,8.93853,19.39100123841858,8.93853,19.39100123841858ZM6.3431499,17.65690023841858C5.60028,16.91400023841858,5.0109999,16.03210023841858,4.60896,15.06150023841858C4.60896,15.06150023841858,2.761205,15.82680023841858,2.761205,15.82680023841858C3.26375201,17.04010023841858,4.00035,18.142500238418577,4.92893,19.07110023841858C4.92893,19.07110023841858,6.3431499,17.65690023841858,6.3431499,17.65690023841858C6.3431499,17.65690023841858,6.3431499,17.65690023841858,6.3431499,17.65690023841858ZM4.60896,15.06150023841858C4.20693,14.090900238418579,4,13.050600238418578,4,12.000000238418579C4,12.000000238418579,2,12.000000238418579,2,12.000000238418579C2,13.31320023841858,2.25865799,14.613600238418579,2.761205,15.82680023841858C2.761205,15.82680023841858,4.60896,15.06150023841858,4.60896,15.06150023841858C4.60896,15.06150023841858,4.60896,15.06150023841858,4.60896,15.06150023841858ZM4,12.000000238418579C4,9.878270338418579,4.84285,7.843440338418579,6.3431499,6.343150138418579C6.3431499,6.343150138418579,4.92893,4.928930238418579,4.92893,4.928930238418579C3.053568199,6.804300338418579,2,9.347840038418578,2,12.000000238418579C2,12.000000238418579,4,12.000000238418579,4,12.000000238418579C4,12.000000238418579,4,12.000000238418579,4,12.000000238418579ZM6.3431499,6.343150138418579C7.8434401,4.842850238418579,9.8782701,4.000000238418579,12,4.000000238418579C12,4.000000238418579,12,2.000000238418579,12,2.000000238418579C9.3478398,2.000000238418579,6.8043001,3.053568739418579,4.92893,4.928930238418579C4.92893,4.928930238418579,6.3431499,6.343150138418579,6.3431499,6.343150138418579C6.3431499,6.343150138418579,6.3431499,6.343150138418579,6.3431499,6.343150138418579ZM12,4.000000238418579C14.1217,4.000000238418579,16.156599999999997,4.842850238418579,17.6569,6.343150138418579C17.6569,6.343150138418579,19.0711,4.928930238418579,19.0711,4.928930238418579C17.195700000000002,3.053568840418579,14.6522,2.000000238418579,12,2.000000238418579C12,2.000000238418579,12,4.000000238418579,12,4.000000238418579C12,4.000000238418579,12,4.000000238418579,12,4.000000238418579ZM17.6569,6.343150138418579C19.157101,7.843440338418579,20,9.878270338418579,20,12.000000238418579C20,12.000000238418579,22,12.000000238418579,22,12.000000238418579C22,9.347840038418578,20.9464,6.804300338418579,19.0711,4.928930238418579C19.0711,4.928930238418579,17.6569,6.343150138418579,17.6569,6.343150138418579C17.6569,6.343150138418579,17.6569,6.343150138418579,17.6569,6.343150138418579Z" fill="#0A0A28" fill-opacity="1"/></g></svg>