<svg xmlns="http://www.w3.org/2000/svg" xmlns:xlink="http://www.w3.org/1999/xlink" fill="none" version="1.1" width="24" height="24" viewBox="0 0 24 24"><defs><clipPath id="master_svg0_3_1530"><rect x="0" y="0" width="24" height="24" rx="0"/></clipPath></defs><g clip-path="url(#master_svg0_3_1530)"><path d="M5.9999756859375,2.4000244140625C5.3634596859375,2.4000244140625004,4.7530064859375,2.6528812340625,4.3029187959375,3.1029676240625C3.8528324059375,3.5530553140625,3.5999755859375004,4.1635085140625,3.5999755859375,4.8000245140625C3.5999755859375,4.8000245140625,3.5999755859375,21.6000254140625,3.5999755859375,21.6000254140625C3.5999755859375,21.6000254140625,7.7999758859375,19.2000254140625,7.7999758859375,19.2000254140625C7.7999758859375,19.2000254140625,11.9999761859375,21.6000254140625,11.9999761859375,21.6000254140625C11.9999761859375,21.6000254140625,16.1999755859375,19.2000254140625,16.1999755859375,19.2000254140625C16.1999755859375,19.2000254140625,20.3999765859375,21.6000254140625,20.3999765859375,21.6000254140625C20.3999765859375,21.6000254140625,20.3999765859375,4.8000245140625,20.3999765859375,4.8000245140625C20.3999765859375,4.1635085140625,20.1471365859375,3.5530553140625,19.6970155859375,3.1029676240625C19.2468955859375,2.6528812340625,18.636456585937502,2.4000244140625004,17.9999765859375,2.4000244140625C17.9999765859375,2.4000244140625,5.9999756859375,2.4000244140625,5.9999756859375,2.4000244140625C5.9999756859375,2.4000244140625,5.9999756859375,2.4000244140625,5.9999756859375,2.4000244140625ZM8.9999756859375,6.0000245140625C8.5225915859375,6.0000245140625,8.0647434859375,6.1896727140625,7.7271837859375,6.5272326140625C7.3896238859375,6.8647923140625,7.1999756859375,7.3226404140625,7.1999756859375,7.8000245140625C7.1999756859375,8.2774086140625,7.3896238859375,8.735256714062501,7.7271837859375,9.072816414062501C8.0647434859375,9.4103765140625,8.5225915859375,9.6000247140625,8.9999756859375,9.6000247140625C9.4773597859375,9.6000247140625,9.935207885937501,9.4103765140625,10.272767585937501,9.072816414062501C10.6103276859375,8.735256714062501,10.7999758859375,8.2774086140625,10.7999758859375,7.8000245140625C10.7999758859375,7.3226404140625,10.6103276859375,6.8647923140625,10.272767585937501,6.5272326140625C9.935207885937501,6.1896727140625,9.4773597859375,6.0000245140625,8.9999756859375,6.0000245140625C8.9999756859375,6.0000245140625,8.9999756859375,6.0000245140625,8.9999756859375,6.0000245140625C8.9999756859375,6.0000245140625,8.9999756859375,6.0000245140625,8.9999756859375,6.0000245140625ZM16.448375585937498,6.3516245140625C16.2233765859375,6.1266606140625,15.9182155859375,6.0002766140625,15.5999755859375,6.0002766140625C15.2817835859375,6.0002766140625,14.9766125859375,6.1266606140625,14.7515765859375,6.3516245140625C14.7515765859375,6.3516245140625,7.5515756859375,13.5516254140625,7.5515756859375,13.5516254140625C7.4369637859375,13.6623244140625,7.3455476859375,13.7947334140625,7.282655985937501,13.9411454140625C7.2197637859375,14.0875454140625,7.1866557859375,14.2450084140625,7.1852757859375,14.4043454140625C7.1838955859375,14.5637054140625,7.2142555859375,14.7217444140625,7.2745916859375,14.8692244140625C7.3349275859375,15.0167044140625,7.424027685937499,15.1506244140625,7.5366956859375005,15.2633054140625C7.6493758859375,15.3759854140625,7.7833556859375,15.4650254140625,7.9308356859375,15.5253854140625C8.0783037859375,15.5857444140625,8.236319985937499,15.6161054140625,8.3956560859375,15.6147844140625C8.5549916859375,15.6133454140625,8.7124557859375,15.5802244140625,8.858855685937499,15.5173444140625C9.0052675859375,15.4544644140625,9.1376757859375,15.3630244140625,9.2483753859375,15.2484244140625C9.2483753859375,15.2484244140625,16.448375585937498,8.0484242140625,16.448375585937498,8.0484242140625C16.6733755859375,7.8233890140625,16.799735585937498,7.5182166140625,16.799735585937498,7.2000246140625C16.799735585937498,6.8818326140625,16.6733755859375,6.5766606140625,16.448375585937498,6.3516245140625C16.448375585937498,6.3516245140625,16.448375585937498,6.3516245140625,16.448375585937498,6.3516245140625C16.448375585937498,6.3516245140625,16.448375585937498,6.3516245140625,16.448375585937498,6.3516245140625ZM14.9999765859375,12.0000248140625C14.5225915859375,12.0000248140625,14.0647435859375,12.1896725140625,13.7271835859375,12.5272324140625C13.3896236859375,12.8647924140625,13.1999759859375,13.3226404140625,13.1999759859375,13.8000254140625C13.1999759859375,14.2774094140625,13.3896236859375,14.7353044140625,13.7271835859375,15.0728654140625C14.0647435859375,15.4104254140625,14.5225915859375,15.6000254140625,14.9999765859375,15.6000254140625C15.4773605859375,15.6000254140625,15.9352555859375,15.4104254140625,16.2728165859375,15.0728654140625C16.6103765859375,14.7353044140625,16.7999765859375,14.2774094140625,16.7999765859375,13.8000254140625C16.7999765859375,13.3226404140625,16.6103765859375,12.8647924140625,16.2728165859375,12.5272324140625C15.9352555859375,12.1896725140625,15.4773605859375,12.0000248140625,14.9999765859375,12.0000248140625C14.9999765859375,12.0000248140625,14.9999765859375,12.0000248140625,14.9999765859375,12.0000248140625C14.9999765859375,12.0000248140625,14.9999765859375,12.0000248140625,14.9999765859375,12.0000248140625Z" fill-rule="evenodd" fill="#0A0A28" fill-opacity="1"/></g></svg>