<svg xmlns="http://www.w3.org/2000/svg" xmlns:xlink="http://www.w3.org/1999/xlink" fill="none" version="1.1" width="24" height="24" viewBox="0 0 24 24"><defs><clipPath id="master_svg0_3_2344"><rect x="0" y="0" width="24" height="24" rx="0"/></clipPath></defs><g clip-path="url(#master_svg0_3_2344)"><path d="M15,15C15,15.5523,15.4477,16,16,16C16.552300000000002,16,17,15.5523,17,15C17,15,15,15,15,15C15,15,15,15,15,15ZM16,14C16,14,17,14,17,14C17,14,16,14,16,14C16,14,16,14,16,14ZM12,10C12,10,12,9,12,9C12,9,12,10,12,10C12,10,12,10,12,10ZM8,10C8,10,7.2928901,9.292890100000001,7.2928901,9.292890100000001C6.9023699999999995,9.6834202,6.9023699999999995,10.3165798,7.2928901,10.707109899999999C7.2928901,10.707109899999999,8,10,8,10C8,10,8,10,8,10ZM10.292890100000001,13.7071C10.6834202,14.0976,11.3165798,14.0976,11.707109899999999,13.7071C12.0976295,13.3166,12.0976295,12.6834202,11.707109899999999,12.2928896C11.707109899999999,12.2928896,10.292890100000001,13.7071,10.292890100000001,13.7071C10.292890100000001,13.7071,10.292890100000001,13.7071,10.292890100000001,13.7071ZM11.707109899999999,7.7071099C12.0976295,7.3165798,12.0976295,6.6834199000000005,11.707109899999999,6.2928901C11.3165798,5.9023699999999995,10.6834202,5.9023699999999995,10.292890100000001,6.2928901C10.292890100000001,6.2928901,11.707109899999999,7.7071099,11.707109899999999,7.7071099C11.707109899999999,7.7071099,11.707109899999999,7.7071099,11.707109899999999,7.7071099ZM20,21C20,21,19.552799999999998,21.8944,19.552799999999998,21.8944C19.8628,22.0494,20.2309,22.0329,20.5257,21.8507C20.820499,21.6684,21,21.3466,21,21C21,21,20,21,20,21C20,21,20,21,20,21ZM18,3C18,3,18,2,18,2C18,2,18,3,18,3C18,3,18,3,18,3ZM6,3C6,3,6,2,6,2C6,2,6,3,6,3C6,3,6,3,6,3ZM4,5C4,5,3,5,3,5C3,5,4,5,4,5C4,5,4,5,4,5ZM4,21C4,21,3,21,3,21C3,21.3466,3.179452,21.6684,3.47426897,21.8507C3.769085,22.0329,4.137225,22.0494,4.44721401,21.8944C4.44721401,21.8944,4,21,4,21C4,21,4,21,4,21ZM8,19C8,19,8.4472098,18.105600000000003,8.4472098,18.105600000000003C8.1656899,17.9648,7.8343101,17.9648,7.5527899000000005,18.105600000000003C7.5527899000000005,18.105600000000003,8,19,8,19C8,19,8,19,8,19ZM12,21C12,21,11.5527902,21.8944,11.5527902,21.8944C11.8343101,22.0352,12.1656904,22.0352,12.4472103,21.8944C12.4472103,21.8944,12,21,12,21C12,21,12,21,12,21ZM16,19C16,19,16.447200000000002,18.105600000000003,16.447200000000002,18.105600000000003C16.1657,17.9648,15.8343,17.9648,15.5528,18.105600000000003C15.5528,18.105600000000003,16,19,16,19C16,19,16,19,16,19ZM17,15C17,15,17,14,17,14C17,14,15,14,15,14C15,14,15,15,15,15C15,15,17,15,17,15C17,15,17,15,17,15ZM17,14C17,12.6739197,16.4732,11.4021502,15.5355,10.464469900000001C15.5355,10.464469900000001,14.1213,11.8786802,14.1213,11.8786802C14.6839,12.4412899,15,13.2044,15,14C15,14,17,14,17,14C17,14,17,14,17,14ZM15.5355,10.464469900000001C14.5979,9.5267801,13.3260803,9,12,9C12,9,12,11,12,11C12.7956495,11,13.5587101,11.3160696,14.1213,11.8786802C14.1213,11.8786802,15.5355,10.464469900000001,15.5355,10.464469900000001C15.5355,10.464469900000001,15.5355,10.464469900000001,15.5355,10.464469900000001ZM12,9C12,9,8,9,8,9C8,9,8,11,8,11C8,11,12,11,12,11C12,11,12,9,12,9C12,9,12,9,12,9ZM7.2928901,10.707109899999999C7.2928901,10.707109899999999,10.292890100000001,13.7071,10.292890100000001,13.7071C10.292890100000001,13.7071,11.707109899999999,12.2928896,11.707109899999999,12.2928896C11.707109899999999,12.2928896,8.707109899999999,9.292890100000001,8.707109899999999,9.292890100000001C8.707109899999999,9.292890100000001,7.2928901,10.707109899999999,7.2928901,10.707109899999999C7.2928901,10.707109899999999,7.2928901,10.707109899999999,7.2928901,10.707109899999999ZM8.707109899999999,10.707109899999999C8.707109899999999,10.707109899999999,11.707109899999999,7.7071099,11.707109899999999,7.7071099C11.707109899999999,7.7071099,10.292890100000001,6.2928901,10.292890100000001,6.2928901C10.292890100000001,6.2928901,7.2928901,9.292890100000001,7.2928901,9.292890100000001C7.2928901,9.292890100000001,8.707109899999999,10.707109899999999,8.707109899999999,10.707109899999999C8.707109899999999,10.707109899999999,8.707109899999999,10.707109899999999,8.707109899999999,10.707109899999999ZM21,21C21,21,21,5,21,5C21,5,19,5,19,5C19,5,19,21,19,21C19,21,21,21,21,21C21,21,21,21,21,21ZM21,5C21,4.20435,20.683901,3.44128799,20.1213,2.87868C20.1213,2.87868,18.7071,4.29289,18.7071,4.29289C18.8946,4.48043,19,4.73478,19,5C19,5,21,5,21,5C21,5,21,5,21,5ZM20.1213,2.87868C19.5587,2.3160700199999997,18.7956,2,18,2C18,2,18,4,18,4C18.2652,4,18.5196,4.10536,18.7071,4.29289C18.7071,4.29289,20.1213,2.87868,20.1213,2.87868C20.1213,2.87868,20.1213,2.87868,20.1213,2.87868ZM18,2C18,2,6,2,6,2C6,2,6,4,6,4C6,4,18,4,18,4C18,4,18,2,18,2C18,2,18,2,18,2ZM6,2C5.20435,2,4.44128901,2.3160700199999997,3.87868,2.87868C3.87868,2.87868,5.29289,4.29289,5.29289,4.29289C5.48043,4.10536,5.73478,4,6,4C6,4,6,2,6,2C6,2,6,2,6,2ZM3.87868,2.87868C3.3160700199999997,3.44128901,3,4.20435,3,5C3,5,5,5,5,5C5,4.73478,5.10536,4.48043,5.29289,4.29289C5.29289,4.29289,3.87868,2.87868,3.87868,2.87868C3.87868,2.87868,3.87868,2.87868,3.87868,2.87868ZM3,5C3,5,3,21,3,21C3,21,5,21,5,21C5,21,5,5,5,5C5,5,3,5,3,5C3,5,3,5,3,5ZM4.44721401,21.8944C4.44721401,21.8944,8.4472098,19.8944,8.4472098,19.8944C8.4472098,19.8944,7.5527899000000005,18.105600000000003,7.5527899000000005,18.105600000000003C7.5527899000000005,18.105600000000003,3.55278599,20.1056,3.55278599,20.1056C3.55278599,20.1056,4.44721401,21.8944,4.44721401,21.8944C4.44721401,21.8944,4.44721401,21.8944,4.44721401,21.8944ZM7.5527899000000005,19.8944C7.5527899000000005,19.8944,11.5527902,21.8944,11.5527902,21.8944C11.5527902,21.8944,12.4472103,20.1056,12.4472103,20.1056C12.4472103,20.1056,8.4472098,18.105600000000003,8.4472098,18.105600000000003C8.4472098,18.105600000000003,7.5527899000000005,19.8944,7.5527899000000005,19.8944C7.5527899000000005,19.8944,7.5527899000000005,19.8944,7.5527899000000005,19.8944ZM12.4472103,21.8944C12.4472103,21.8944,16.447200000000002,19.8944,16.447200000000002,19.8944C16.447200000000002,19.8944,15.5528,18.105600000000003,15.5528,18.105600000000003C15.5528,18.105600000000003,11.5527902,20.1056,11.5527902,20.1056C11.5527902,20.1056,12.4472103,21.8944,12.4472103,21.8944C12.4472103,21.8944,12.4472103,21.8944,12.4472103,21.8944ZM15.5528,19.8944C15.5528,19.8944,19.552799999999998,21.8944,19.552799999999998,21.8944C19.552799999999998,21.8944,20.447201,20.1056,20.447201,20.1056C20.447201,20.1056,16.447200000000002,18.105600000000003,16.447200000000002,18.105600000000003C16.447200000000002,18.105600000000003,15.5528,19.8944,15.5528,19.8944C15.5528,19.8944,15.5528,19.8944,15.5528,19.8944Z" fill="#0A0A28" fill-opacity="1"/></g></svg>