<svg xmlns="http://www.w3.org/2000/svg" xmlns:xlink="http://www.w3.org/1999/xlink" fill="none" version="1.1" width="24" height="24" viewBox="0 0 24 24"><defs><clipPath id="master_svg0_3_1973"><rect x="0" y="0" width="24" height="24" rx="0"/></clipPath></defs><g clip-path="url(#master_svg0_3_1973)"><path d="M8.292890100000001,13.2929C7.9023699999999995,13.6834,7.9023699999999995,14.3166,8.292890100000001,14.7071C8.6834199,15.0976,9.3165798,15.0976,9.707109899999999,14.7071C9.707109899999999,14.7071,8.292890100000001,13.2929,8.292890100000001,13.2929C8.292890100000001,13.2929,8.292890100000001,13.2929,8.292890100000001,13.2929ZM15.7071,8.707109899999999C16.0976,8.3165798,16.0976,7.6834202,15.7071,7.2928901C15.3166,6.9023699999999995,14.6834202,6.9023699999999995,14.2928896,7.2928901C14.2928896,7.2928901,15.7071,8.707109899999999,15.7071,8.707109899999999C15.7071,8.707109899999999,15.7071,8.707109899999999,15.7071,8.707109899999999ZM9.5,7.5C8.9477201,7.5,8.5,7.9477201,8.5,8.5C8.5,9.0522799,8.9477201,9.5,9.5,9.5C9.5,9.5,9.5,7.5,9.5,7.5C9.5,7.5,9.5,7.5,9.5,7.5ZM9.5100002,9.5C10.0622802,9.5,10.5100002,9.0522799,10.5100002,8.5C10.5100002,7.9477201,10.0622802,7.5,9.5100002,7.5C9.5100002,7.5,9.5100002,9.5,9.5100002,9.5C9.5100002,9.5,9.5100002,9.5,9.5100002,9.5ZM14.5,12.5C13.94771,12.5,13.5,12.94771,13.5,13.5C13.5,14.0523,13.94771,14.5,14.5,14.5C14.5,14.5,14.5,12.5,14.5,12.5C14.5,12.5,14.5,12.5,14.5,12.5ZM14.5100002,14.5C15.0623,14.5,15.51,14.0523,15.51,13.5C15.51,12.94771,15.0623,12.5,14.5100002,12.5C14.5100002,12.5,14.5100002,14.5,14.5100002,14.5C14.5100002,14.5,14.5100002,14.5,14.5100002,14.5ZM19,21C19,21,18.5039,21.8682,18.5039,21.8682C18.8134,22.045099,19.1936,22.0438,19.5019,21.864901C19.810200000000002,21.686001,20,21.356501,20,21C20,21,19,21,19,21C19,21,19,21,19,21ZM17,3C17,3,17,2,17,2C17,2,17,3,17,3C17,3,17,3,17,3ZM7,3C7,3,7,2,7,2C7,2,7,3,7,3C7,3,7,3,7,3ZM5,5C5,5,4,5,4,5C4,5,5,5,5,5C5,5,5,5,5,5ZM5,21C5,21,4,21,4,21C4,21.356501,4.189758,21.686001,4.49807298,21.864901C4.80638801,22.0438,5.186636,22.045099,5.49613899,21.8682C5.49613899,21.8682,5,21,5,21C5,21,5,21,5,21ZM8.5,19C8.5,19,8.99614,18.1318,8.99614,18.1318C8.68871,17.9561,8.31129,17.9561,8.00386,18.1318C8.00386,18.1318,8.5,19,8.5,19C8.5,19,8.5,19,8.5,19ZM12,21C12,21,11.50386,21.8682,11.50386,21.8682C11.8112898,22.0439,12.1887102,22.0439,12.49614,21.8682C12.49614,21.8682,12,21,12,21C12,21,12,21,12,21ZM15.5,19C15.5,19,15.9961,18.1318,15.9961,18.1318C15.6887,17.9561,15.3113,17.9561,15.0039,18.1318C15.0039,18.1318,15.5,19,15.5,19C15.5,19,15.5,19,15.5,19ZM9.707109899999999,14.7071C9.707109899999999,14.7071,15.7071,8.707109899999999,15.7071,8.707109899999999C15.7071,8.707109899999999,14.2928896,7.2928901,14.2928896,7.2928901C14.2928896,7.2928901,8.292890100000001,13.2929,8.292890100000001,13.2929C8.292890100000001,13.2929,9.707109899999999,14.7071,9.707109899999999,14.7071C9.707109899999999,14.7071,9.707109899999999,14.7071,9.707109899999999,14.7071ZM9.5,9.5C9.5,9.5,9.5100002,9.5,9.5100002,9.5C9.5100002,9.5,9.5100002,7.5,9.5100002,7.5C9.5100002,7.5,9.5,7.5,9.5,7.5C9.5,7.5,9.5,9.5,9.5,9.5C9.5,9.5,9.5,9.5,9.5,9.5ZM14.5,14.5C14.5,14.5,14.5100002,14.5,14.5100002,14.5C14.5100002,14.5,14.5100002,12.5,14.5100002,12.5C14.5100002,12.5,14.5,12.5,14.5,12.5C14.5,12.5,14.5,14.5,14.5,14.5C14.5,14.5,14.5,14.5,14.5,14.5ZM20,21C20,21,20,5,20,5C20,5,18,5,18,5C18,5,18,21,18,21C18,21,20,21,20,21C20,21,20,21,20,21ZM20,5C20,4.20435,19.6839,3.44128799,19.121299999999998,2.87868C19.121299999999998,2.87868,17.7071,4.29289,17.7071,4.29289C17.8946,4.48043,18,4.73478,18,5C18,5,20,5,20,5C20,5,20,5,20,5ZM19.121299999999998,2.87868C18.5587,2.3160700199999997,17.7956,2,17,2C17,2,17,4,17,4C17.2652,4,17.5196,4.10536,17.7071,4.29289C17.7071,4.29289,19.121299999999998,2.87868,19.121299999999998,2.87868C19.121299999999998,2.87868,19.121299999999998,2.87868,19.121299999999998,2.87868ZM17,2C17,2,7,2,7,2C7,2,7,4,7,4C7,4,17,4,17,4C17,4,17,2,17,2C17,2,17,2,17,2ZM7,2C6.20435,2,5.44128901,2.3160700199999997,4.87868,2.87868C4.87868,2.87868,6.29289,4.29289,6.29289,4.29289C6.48043,4.10536,6.73478,4,7,4C7,4,7,2,7,2C7,2,7,2,7,2ZM4.87868,2.87868C4.31607002,3.44128901,4,4.20435,4,5C4,5,6,5,6,5C6,4.73478,6.10536,4.48043,6.29289,4.29289C6.29289,4.29289,4.87868,2.87868,4.87868,2.87868C4.87868,2.87868,4.87868,2.87868,4.87868,2.87868ZM4,5C4,5,4,21,4,21C4,21,6,21,6,21C6,21,6,5,6,5C6,5,4,5,4,5C4,5,4,5,4,5ZM5.49613899,21.8682C5.49613899,21.8682,8.99614,19.8682,8.99614,19.8682C8.99614,19.8682,8.00386,18.1318,8.00386,18.1318C8.00386,18.1318,4.50386101,20.1318,4.50386101,20.1318C4.50386101,20.1318,5.49613899,21.8682,5.49613899,21.8682C5.49613899,21.8682,5.49613899,21.8682,5.49613899,21.8682ZM8.00386,19.8682C8.00386,19.8682,11.50386,21.8682,11.50386,21.8682C11.50386,21.8682,12.49614,20.1318,12.49614,20.1318C12.49614,20.1318,8.99614,18.1318,8.99614,18.1318C8.99614,18.1318,8.00386,19.8682,8.00386,19.8682C8.00386,19.8682,8.00386,19.8682,8.00386,19.8682ZM12.49614,21.8682C12.49614,21.8682,15.9961,19.8682,15.9961,19.8682C15.9961,19.8682,15.0039,18.1318,15.0039,18.1318C15.0039,18.1318,11.50386,20.1318,11.50386,20.1318C11.50386,20.1318,12.49614,21.8682,12.49614,21.8682C12.49614,21.8682,12.49614,21.8682,12.49614,21.8682ZM15.0039,19.8682C15.0039,19.8682,18.5039,21.8682,18.5039,21.8682C18.5039,21.8682,19.4961,20.1318,19.4961,20.1318C19.4961,20.1318,15.9961,18.1318,15.9961,18.1318C15.9961,18.1318,15.0039,19.8682,15.0039,19.8682C15.0039,19.8682,15.0039,19.8682,15.0039,19.8682ZM9,8.5C9,8.3673902,9.052679999999999,8.2402201,9.14645,8.14645C9.14645,8.14645,10.560659900000001,9.560659900000001,10.560659900000001,9.560659900000001C10.84197,9.2793498,11,8.89782,11,8.5C11,8.5,9,8.5,9,8.5C9,8.5,9,8.5,9,8.5ZM9.14645,8.14645C9.2402201,8.052679999999999,9.3673902,8,9.5,8C9.5,8,9.5,10,9.5,10C9.89782,10,10.2793498,9.84197,10.560659900000001,9.560659900000001C10.560659900000001,9.560659900000001,9.14645,8.14645,9.14645,8.14645C9.14645,8.14645,9.14645,8.14645,9.14645,8.14645ZM9.5,8C9.6326098,8,9.7597799,8.052679999999999,9.85355,8.14645C9.85355,8.14645,8.439340099999999,9.560659900000001,8.439340099999999,9.560659900000001C8.72065,9.84197,9.10218,10,9.5,10C9.5,10,9.5,8,9.5,8C9.5,8,9.5,8,9.5,8ZM9.85355,8.14645C9.947320000000001,8.2402201,10,8.3673902,10,8.5C10,8.5,8,8.5,8,8.5C8,8.89782,8.15803,9.2793498,8.439340099999999,9.560659900000001C8.439340099999999,9.560659900000001,9.85355,8.14645,9.85355,8.14645C9.85355,8.14645,9.85355,8.14645,9.85355,8.14645ZM10,8.5C10,8.6326098,9.947320000000001,8.7597799,9.85355,8.85355C9.85355,8.85355,8.439340099999999,7.4393401,8.439340099999999,7.4393401C8.15803,7.7206502,8,8.10218,8,8.5C8,8.5,10,8.5,10,8.5C10,8.5,10,8.5,10,8.5ZM9.85355,8.85355C9.7597799,8.947320000000001,9.6326098,9,9.5,9C9.5,9,9.5,7,9.5,7C9.10218,7,8.72065,7.15803,8.439340099999999,7.4393401C8.439340099999999,7.4393401,9.85355,8.85355,9.85355,8.85355C9.85355,8.85355,9.85355,8.85355,9.85355,8.85355ZM9.5,9C9.3673902,9,9.2402201,8.947320000000001,9.14645,8.85355C9.14645,8.85355,10.560659900000001,7.4393401,10.560659900000001,7.4393401C10.2793498,7.15803,9.89782,7,9.5,7C9.5,7,9.5,9,9.5,9C9.5,9,9.5,9,9.5,9ZM9.14645,8.85355C9.052679999999999,8.7597799,9,8.6326098,9,8.5C9,8.5,11,8.5,11,8.5C11,8.10218,10.84197,7.7206502,10.560659900000001,7.4393401C10.560659900000001,7.4393401,9.14645,8.85355,9.14645,8.85355C9.14645,8.85355,9.14645,8.85355,9.14645,8.85355ZM14,13.5C14,13.3674,14.05268,13.2402,14.14645,13.1464C14.14645,13.1464,15.5607,14.5607,15.5607,14.5607C15.842,14.2794,16,13.8978,16,13.5C16,13.5,14,13.5,14,13.5C14,13.5,14,13.5,14,13.5ZM14.14645,13.1464C14.2402201,13.0527,14.3673897,13,14.5,13C14.5,13,14.5,15,14.5,15C14.8978205,15,15.2794,14.842,15.5607,14.5607C15.5607,14.5607,14.14645,13.1464,14.14645,13.1464C14.14645,13.1464,14.14645,13.1464,14.14645,13.1464ZM14.5,13C14.6326103,13,14.7597799,13.0527,14.85355,13.1464C14.85355,13.1464,13.4393396,14.5607,13.4393396,14.5607C13.7206497,14.842,14.1021795,15,14.5,15C14.5,15,14.5,13,14.5,13C14.5,13,14.5,13,14.5,13ZM14.85355,13.1464C14.94732,13.2402,15,13.3674,15,13.5C15,13.5,13,13.5,13,13.5C13,13.8978,13.1580296,14.2794,13.4393396,14.5607C13.4393396,14.5607,14.85355,13.1464,14.85355,13.1464C14.85355,13.1464,14.85355,13.1464,14.85355,13.1464ZM15,13.5C15,13.6326,14.94732,13.7598,14.85355,13.8536C14.85355,13.8536,13.4393396,12.4393396,13.4393396,12.4393396C13.1580296,12.7206497,13,13.1022,13,13.5C13,13.5,15,13.5,15,13.5C15,13.5,15,13.5,15,13.5ZM14.85355,13.8536C14.7597799,13.9473,14.6326103,14,14.5,14C14.5,14,14.5,12,14.5,12C14.1021795,12,13.7206497,12.1580296,13.4393396,12.4393396C13.4393396,12.4393396,14.85355,13.8536,14.85355,13.8536C14.85355,13.8536,14.85355,13.8536,14.85355,13.8536ZM14.5,14C14.3673897,14,14.2402201,13.9473,14.14645,13.8536C14.14645,13.8536,15.5607,12.4393396,15.5607,12.4393396C15.2794,12.1580296,14.8978205,12,14.5,12C14.5,12,14.5,14,14.5,14C14.5,14,14.5,14,14.5,14ZM14.14645,13.8536C14.05268,13.7598,14,13.6326,14,13.5C14,13.5,16,13.5,16,13.5C16,13.1022,15.842,12.7206497,15.5607,12.4393396C15.5607,12.4393396,14.14645,13.8536,14.14645,13.8536C14.14645,13.8536,14.14645,13.8536,14.14645,13.8536Z" fill="#0A0A28" fill-opacity="1"/></g></svg>