<svg xmlns="http://www.w3.org/2000/svg" xmlns:xlink="http://www.w3.org/1999/xlink" fill="none" version="1.1" width="24" height="24" viewBox="0 0 24 24"><defs><clipPath id="master_svg0_3_1603"><rect x="0" y="0" width="24" height="24" rx="0"/></clipPath></defs><g clip-path="url(#master_svg0_3_1603)"><path d="M5.9999756859375,2.4000244140625C5.3634596859375,2.4000244140625004,4.7530064859375,2.6528812340625,4.3029187959375,3.1029676240625C3.8528324059375,3.5530553140625,3.5999755859375004,4.1635085140625,3.5999755859375,4.8000245140625C3.5999755859375,4.8000245140625,3.5999755859375,21.6000254140625,3.5999755859375,21.6000254140625C3.5999755859375,21.6000254140625,7.7999758859375,19.2000254140625,7.7999758859375,19.2000254140625C7.7999758859375,19.2000254140625,11.9999761859375,21.6000254140625,11.9999761859375,21.6000254140625C11.9999761859375,21.6000254140625,16.1999755859375,19.2000254140625,16.1999755859375,19.2000254140625C16.1999755859375,19.2000254140625,20.3999765859375,21.6000254140625,20.3999765859375,21.6000254140625C20.3999765859375,21.6000254140625,20.3999765859375,4.8000245140625,20.3999765859375,4.8000245140625C20.3999765859375,4.1635085140625,20.1471365859375,3.5530553140625,19.6970155859375,3.1029676240625C19.2468955859375,2.6528812340625,18.636456585937502,2.4000244140625004,17.9999765859375,2.4000244140625C17.9999765859375,2.4000244140625,5.9999756859375,2.4000244140625,5.9999756859375,2.4000244140625C5.9999756859375,2.4000244140625,5.9999756859375,2.4000244140625,5.9999756859375,2.4000244140625ZM11.6483754859375,6.8484244140625C11.8669681859375,6.6221046140625,11.9879159859375,6.3189845140625,11.9851798859375,6.0043444140624995C11.9824561859375,5.689704614062499,11.8562516859375,5.3887327140625,11.6337594859375,5.1662407140625C11.4112677859375,4.9437485140625,11.110296285937501,4.8175444140625,10.7956556859375,4.8148205140625C10.4810156859375,4.8120847140625,10.177895585937499,4.9330325140625,9.951576185937501,5.1516244140625C9.951576185937501,5.1516244140625,6.3515755859375,8.751625014062501,6.3515755859375,8.751625014062501C6.1266116859375,8.9766602140625,6.0002276859374994,9.2818327140625,6.0002276859374994,9.6000247140625C6.0002276859374994,9.918216714062499,6.1266116859375,10.223389114062499,6.3515755859375,10.4484243140625C6.3515755859375,10.4484243140625,9.951576185937501,14.0484244140625,9.951576185937501,14.0484244140625C10.177895585937499,14.2670174140625,10.4810156859375,14.3879654140625,10.7956556859375,14.3852294140625C11.110296285937501,14.3825054140625,11.4112677859375,14.2563014140625,11.6337594859375,14.0338094140625C11.8562516859375,13.8113164140625,11.9824561859375,13.5103454140625,11.9851798859375,13.1957044140625C11.9879159859375,12.8810644140625,11.8669681859375,12.5779444140625,11.6483754859375,12.3516254140625C11.6483754859375,12.3516254140625,10.0967759859375,10.8000250140625,10.0967759859375,10.8000250140625C10.0967759859375,10.8000250140625,11.9999761859375,10.8000250140625,11.9999761859375,10.8000250140625C12.9547557859375,10.8000250140625,13.8704275859375,11.1793089140625,14.5455595859375,11.8544407140625C15.2206925859375,12.5295724140625,15.5999755859375,13.4452454140625,15.5999755859375,14.4000244140625C15.5999755859375,14.4000244140625,15.5999755859375,15.6000254140625,15.5999755859375,15.6000254140625C15.5999755859375,15.9182644140625,15.7264565859375,16.2235454140625,15.9514555859375,16.4485444140625C16.1764565859375,16.673544414062498,16.481736585937497,16.8000254140625,16.7999765859375,16.8000254140625C17.1182155859375,16.8000254140625,17.4234965859375,16.673544414062498,17.6484955859375,16.4485444140625C17.873495585937498,16.2235454140625,17.9999765859375,15.9182644140625,17.9999765859375,15.6000254140625C17.9999765859375,15.6000254140625,17.9999765859375,14.4000244140625,17.9999765859375,14.4000244140625C17.9999765859375,12.8087284140625,17.3678155859375,11.2826052140625,16.2425755859375,10.157388714062499C15.1173955859375,9.032160714062499,13.5912723859375,8.4000244140625,11.9999761859375,8.4000244140625C11.9999761859375,8.4000244140625,10.0967759859375,8.4000244140625,10.0967759859375,8.4000244140625C10.0967759859375,8.4000244140625,11.6483754859375,6.8484244140625,11.6483754859375,6.8484244140625C11.6483754859375,6.8484244140625,11.6483754859375,6.8484244140625,11.6483754859375,6.8484244140625C11.6483754859375,6.8484244140625,11.6483754859375,6.8484244140625,11.6483754859375,6.8484244140625Z" fill-rule="evenodd" fill="#0A0A28" fill-opacity="1"/></g></svg>