<svg xmlns="http://www.w3.org/2000/svg" xmlns:xlink="http://www.w3.org/1999/xlink" fill="none" version="1.1" width="24" height="24" viewBox="0 0 24 24"><defs><clipPath id="master_svg0_3_1473"><rect x="0" y="0" width="24" height="24" rx="0"/></clipPath></defs><g clip-path="url(#master_svg0_3_1473)"><path d="M4.7999755859375,2.4000244140625C5.1182397859375,2.4000244140625004,5.4234596859375,2.5264528240625,5.6485077859375,2.7514960140625C5.8735437859375,2.9765404440625,5.9999756859375,3.2817652840625,5.9999756859375,3.6000244140625C5.9999756859375,3.6000244140625,5.9999756859375,6.1212246140625,5.9999756859375,6.1212246140625C6.9984237859375,5.1027484140625,8.239691685937501,4.3551965140625,9.606863985937501,3.9489604140625003C10.9740481859375,3.5427352140624997,12.4221238859375,3.4912060140625,13.8147125859375,3.7992365140624997C15.2072995859375,4.1072525140625,16.4985365859375,4.764696314062499,17.5668965859375,5.7096245140625C18.6352555859375,6.6545524140625,19.445376585937503,7.8558721140625,19.9211765859375,9.2004247140625C19.9788975859375,9.3501367140625,20.0060155859375,9.509892914062501,20.0008565859375,9.670272314062501C19.9958175859375,9.8306408140625,19.9586165859375,9.9883566140625,19.8915365859375,10.1340966140625C19.8243365859375,10.279837114062499,19.7286965859375,10.4106369140625,19.6101355859375,10.5187569140625C19.4915765859375,10.6268768140625,19.3526165859375,10.7101202140625,19.2012955859375,10.7635803140625C19.0499765859375,10.8170290140625,18.8895355859375,10.8396005140625,18.7293355859375,10.8299532140625C18.569255585937498,10.8203049140625,18.4126555859375,10.7786293140625,18.268775585937497,10.7074089140625C18.1250165859375,10.6361770140625,17.9969765859375,10.5368414140625,17.8923365859375,10.4152689140625C17.7875755859375,10.293696914062501,17.7082555859375,10.152372814062499,17.6591755859375,9.999624714062499C17.2968955859375,8.975808614062501,16.663776585937498,8.069437014062501,15.8270165859375,7.3771210140625C14.9902675859375,6.6847925140625,13.9813795859375,6.2324526140625,12.9078473859375,6.0682804140624995C11.8343162859375,5.9041204140625005,10.7363519859375,6.0342843140625,9.7309679859375,6.4449124140625C8.7255715859375,6.8555407140625,7.8504237859375,7.5312486140625,7.1987757859374994,8.4000244140625C7.1987757859374994,8.4000244140625,10.7999758859375,8.4000244140625,10.7999758859375,8.4000244140625C11.1182398859375,8.4000244140625,11.4234594859375,8.526456814062499,11.6485080859375,8.7514930140625C11.8735437859375,8.9765410140625,11.9999761859375,9.2817607140625,11.9999761859375,9.6000247140625C11.9999761859375,9.9182887140625,11.8735437859375,10.2235083140625,11.6485080859375,10.4485569140625C11.4234594859375,10.6735926140625,11.1182398859375,10.8000250140625,10.7999758859375,10.8000250140625C10.7999758859375,10.8000250140625,4.7999755859375,10.8000250140625,4.7999755859375,10.8000250140625C4.4817164559375,10.8000250140625,4.1764916159375,10.6735926140625,3.9514471859375,10.4485569140625C3.7264039959375,10.2235083140625,3.5999755859375004,9.9182887140625,3.5999755859375,9.6000247140625C3.5999755859375,9.6000247140625,3.5999755859375,3.6000244140625,3.5999755859375,3.6000244140625C3.5999755859375,3.2817652840625,3.7264039959375,2.9765404440625,3.9514471859375,2.7514960140625C4.1764916159375,2.5264528240625,4.4817164559375,2.4000244140625004,4.7999755859375,2.4000244140625C4.7999755859375,2.4000244140625,4.7999755859375,2.4000244140625,4.7999755859375,2.4000244140625C4.7999755859375,2.4000244140625,4.7999755859375,2.4000244140625,4.7999755859375,2.4000244140625ZM4.8095756859375,13.2684254140625C4.9581836859375,13.2159364140625,5.1156715859375,13.1932324140625,5.2730396859374995,13.2016214140625C5.4304196859375,13.2099974140625,5.5846075859374995,13.2492974140625,5.7267956859375,13.3172764140625C5.8689837859375,13.3852454140625,5.9963876859375,13.4805604140625,6.1017355859375,13.5977764140625C6.2070836859375,13.7149924140625,6.2883114859375,13.8518174140625,6.3407754859375,14.0004244140625C6.7030076859375,15.0242644140625,7.3362357859375,15.9306254140625,8.1729597859375,16.6229044140625C9.0096835859375,17.3153054140625,10.0185722859375,17.767584414062497,11.0921039859375,17.9317444140625C12.1656360859375,18.095904414062502,13.2635993859375,17.965705414062498,14.2689835859375,17.5551854140625C15.2743795859375,17.1445444140625,16.1495765859375,16.4688254140625,16.801176585937498,15.6000254140625C16.801176585937498,15.6000254140625,13.1999759859375,15.6000254140625,13.1999759859375,15.6000254140625C12.8817119859375,15.6000254140625,12.5764922859375,15.4735454140625,12.3514442859375,15.2485444140625C12.1264075859375,15.0235454140625,11.9999761859375,14.7182644140625,11.9999761859375,14.4000244140625C11.9999761859375,14.0817614140625,12.1264075859375,13.7765404140625,12.3514442859375,13.5514924140625C12.5764922859375,13.3264574140625,12.8817119859375,13.2000244140625,13.1999759859375,13.2000244140625C13.1999759859375,13.2000244140625,19.1999755859375,13.2000244140625,19.1999755859375,13.2000244140625C19.518216585937502,13.2000244140625,19.8234955859375,13.3264574140625,20.0484965859375,13.5514924140625C20.2734965859375,13.7765404140625,20.3999765859375,14.0817614140625,20.3999765859375,14.4000244140625C20.3999765859375,14.4000244140625,20.3999765859375,20.4000244140625,20.3999765859375,20.4000244140625C20.3999765859375,20.7182654140625,20.2734965859375,21.0235444140625,20.0484965859375,21.2485444140625C19.8234955859375,21.4735454140625,19.518216585937502,21.6000254140625,19.1999755859375,21.6000254140625C18.8817365859375,21.6000254140625,18.576455585937502,21.4735454140625,18.3514565859375,21.2485444140625C18.1264565859375,21.0235444140625,17.9999765859375,20.7182654140625,17.9999765859375,20.4000244140625C17.9999765859375,20.4000244140625,17.9999765859375,17.8788254140625,17.9999765859375,17.8788254140625C17.0015765859375,18.8972644140625,15.7602965859375,19.6448654140625,14.3930875859375,20.0510654140625C13.0259036859375,20.4572654140625,11.5778278859375,20.5088654140625,10.185239785937501,20.2008244140625C8.7926516859375,19.8927864140625,7.501379685937501,19.2353054140625,6.433067585937501,18.2904244140625C5.3647555859375,17.3455454140625,4.5545504059375,16.1442254140625,4.0787755859375,14.7996254140625C4.0262876159375,14.6510644140625,4.0035871859375,14.4935044140625,4.0119679859375,14.3361604140625C4.0203488159375,14.1787804140625,4.0596487859375,14.0245934140625,4.1276227859375,13.8824054140625C4.1955968159375,13.7402174140625,4.2909128059375,13.6128134140625,4.4081288559375,13.5074644140625C4.5253460359375,13.4021164140625,4.6621652859375,13.3208894140625,4.8107754859375,13.2684254140625C4.8107754859375,13.2684254140625,4.8095756859375,13.2684254140625,4.8095756859375,13.2684254140625C4.8095756859375,13.2684254140625,4.8095756859375,13.2684254140625,4.8095756859375,13.2684254140625Z" fill-rule="evenodd" fill="#0A0A28" fill-opacity="1"/></g></svg>