<svg xmlns="http://www.w3.org/2000/svg" xmlns:xlink="http://www.w3.org/1999/xlink" fill="none" version="1.1" width="24" height="24" viewBox="0 0 24 24"><defs><clipPath id="master_svg0_3_2257"><rect x="0" y="0" width="24" height="24" rx="0"/></clipPath></defs><g clip-path="url(#master_svg0_3_2257)"><path d="M5,3.999999885829468C5,3.4477151058294675,4.55228502,3.000000115829468,4,3.000000115829468C3.4477149799999998,3.000000115829468,3,3.4477151058294675,3,3.999999885829468C3,3.999999885829468,5,3.999999885829468,5,3.999999885829468C5,3.999999885829468,5,3.999999885829468,5,3.999999885829468ZM4,8.999999315829468C4,8.999999315829468,3,8.999999315829468,3,8.999999315829468C3,9.552289215829468,3.4477149799999998,9.999999315829468,4,9.999999315829468C4,9.999999315829468,4,8.999999315829468,4,8.999999315829468C4,8.999999315829468,4,8.999999315829468,4,8.999999315829468ZM18.9458,11.124879115829469C19.0148,11.672838915829468,19.5149,12.061138915829467,20.062901,11.992169115829467C20.6108,11.923208915829468,20.9991,11.423089215829467,20.930201,10.875129015829469C20.930201,10.875129015829469,18.9458,11.124879115829469,18.9458,11.124879115829469C18.9458,11.124879115829469,18.9458,11.124879115829469,18.9458,11.124879115829469ZM9,9.999999315829468C9.5522799,9.999999315829468,10,9.552289215829468,10,8.999999315829468C10,8.447719315829467,9.5522799,7.999999315829468,9,7.999999315829468C9,7.999999315829468,9,9.999999315829468,9,9.999999315829468C9,9.999999315829468,9,9.999999315829468,9,9.999999315829468ZM19,20.000019115829467C19,20.55231811582947,19.447699999999998,21.000019115829467,20,21.000019115829467C20.552299,21.000019115829467,21,20.55231811582947,21,20.000019115829467C21,20.000019115829467,19,20.000019115829467,19,20.000019115829467C19,20.000019115829467,19,20.000019115829467,19,20.000019115829467ZM20,15.000019115829467C20,15.000019115829467,21,15.000019115829467,21,15.000019115829467C21,14.447719115829468,20.552299,14.000019115829467,20,14.000019115829467C20,14.000019115829467,20,15.000019115829467,20,15.000019115829467C20,15.000019115829467,20,15.000019115829467,20,15.000019115829467ZM5.05408,12.874409415829469C4.98471999,12.326498715829468,4.48432001,11.938559315829469,3.936408401,12.007919115829468C3.38849699,12.077278815829468,3.00055599,12.577679415829468,3.06991798,13.125589115829468C3.06991798,13.125589115829468,5.05408,12.874409415829469,5.05408,12.874409415829469C5.05408,12.874409415829469,5.05408,12.874409415829469,5.05408,12.874409415829469ZM15,14.000019115829467C14.4477,14.000019115829467,14,14.447719115829468,14,15.000019115829467C14,15.552319115829468,14.4477,16.000019115829467,15,16.000019115829467C15,16.000019115829467,15,14.000019115829467,15,14.000019115829467C15,14.000019115829467,15,14.000019115829467,15,14.000019115829467ZM3,3.999999885829468C3,3.999999885829468,3,8.999999315829468,3,8.999999315829468C3,8.999999315829468,5,8.999999315829468,5,8.999999315829468C5,8.999999315829468,5,3.999999885829468,5,3.999999885829468C5,3.999999885829468,3,3.999999885829468,3,3.999999885829468C3,3.999999885829468,3,3.999999885829468,3,3.999999885829468ZM4,9.999999315829468C4,9.999999315829468,4.58200002,9.999999315829468,4.58200002,9.999999315829468C4.58200002,9.999999315829468,4.58200002,7.999999315829468,4.58200002,7.999999315829468C4.58200002,7.999999315829468,4,7.999999315829468,4,7.999999315829468C4,7.999999315829468,4,9.999999315829468,4,9.999999315829468C4,9.999999315829468,4,9.999999315829468,4,9.999999315829468ZM20.930201,10.875129015829469C20.6814,8.898369115829468,19.7838,7.060029015829468,18.378,5.648199115829468C18.378,5.648199115829468,16.9607,7.0593591158294675,16.9607,7.0593591158294675C18.0541,8.157489015829468,18.752299999999998,9.587349215829468,18.9458,11.124879115829469C18.9458,11.124879115829469,20.930201,10.875129015829469,20.930201,10.875129015829469C20.930201,10.875129015829469,20.930201,10.875129015829469,20.930201,10.875129015829469ZM18.378,5.648199115829468C16.9722,4.236361115829467,15.1378,3.3308300958294677,13.1621199,3.073515115829468C13.1621199,3.073515115829468,12.90382,5.056769115829468,12.90382,5.056769115829468C14.4405,5.256909115829468,15.8673,5.961229115829468,16.9607,7.0593591158294675C16.9607,7.0593591158294675,18.378,5.648199115829468,18.378,5.648199115829468C18.378,5.648199115829468,18.378,5.648199115829468,18.378,5.648199115829468ZM13.1621199,3.073515115829468C11.18646,2.8161990158294676,9.1812601,3.2216461258294675,7.4607699,4.226310115829468C7.4607699,4.226310115829468,8.4692898,5.9534091158294675,8.4692898,5.9534091158294675C9.8074899,5.171979115829467,11.3671398,4.856625135829468,12.90382,5.056769115829468C12.90382,5.056769115829468,13.1621199,3.073515115829468,13.1621199,3.073515115829468C13.1621199,3.073515115829468,13.1621199,3.073515115829468,13.1621199,3.073515115829468ZM7.4607699,4.226310115829468C5.74028,5.230979115829468,4.401732,6.7780790158294675,3.65491199,8.625159015829468C3.65491199,8.625159015829468,5.5090899,9.374849115829468,5.5090899,9.374849115829468C6.0899701,7.938179015829467,7.1310899,6.734839215829467,8.4692898,5.9534091158294675C8.4692898,5.9534091158294675,7.4607699,4.226310115829468,7.4607699,4.226310115829468C7.4607699,4.226310115829468,7.4607699,4.226310115829468,7.4607699,4.226310115829468ZM4.58200002,9.999999315829468C4.58200002,9.999999315829468,9,9.999999315829468,9,9.999999315829468C9,9.999999315829468,9,7.999999315829468,9,7.999999315829468C9,7.999999315829468,4.58200002,7.999999315829468,4.58200002,7.999999315829468C4.58200002,7.999999315829468,4.58200002,9.999999315829468,4.58200002,9.999999315829468C4.58200002,9.999999315829468,4.58200002,9.999999315829468,4.58200002,9.999999315829468ZM21,20.000019115829467C21,20.000019115829467,21,15.000019115829467,21,15.000019115829467C21,15.000019115829467,19,15.000019115829467,19,15.000019115829467C19,15.000019115829467,19,20.000019115829467,19,20.000019115829467C19,20.000019115829467,21,20.000019115829467,21,20.000019115829467C21,20.000019115829467,21,20.000019115829467,21,20.000019115829467ZM20,14.000019115829467C20,14.000019115829467,19.419,14.000019115829467,19.419,14.000019115829467C19.419,14.000019115829467,19.419,16.000019115829467,19.419,16.000019115829467C19.419,16.000019115829467,20,16.000019115829467,20,16.000019115829467C20,16.000019115829467,20,14.000019115829467,20,14.000019115829467C20,14.000019115829467,20,14.000019115829467,20,14.000019115829467ZM18.4922,14.624519115829468C17.9104,16.06041911582947,16.869,17.262819115829465,15.5309,18.04351911582947C15.5309,18.04351911582947,16.538800000000002,19.771019115829468,16.538800000000002,19.771019115829468C18.2591,18.767319115829466,19.5979,17.22141911582947,20.3458,15.375519115829468C20.3458,15.375519115829468,18.4922,14.624519115829468,18.4922,14.624519115829468C18.4922,14.624519115829468,18.4922,14.624519115829468,18.4922,14.624519115829468ZM15.5309,18.04351911582947C14.1928,18.824319115829468,12.6335096,19.139319115829466,11.09724,18.939219115829466C11.09724,18.939219115829466,10.838960199999999,20.922519115829466,10.838960199999999,20.922519115829466C12.8139696,21.17972011582947,14.8185,20.774719115829466,16.538800000000002,19.771019115829468C16.538800000000002,19.771019115829468,15.5309,18.04351911582947,15.5309,18.04351911582947C15.5309,18.04351911582947,15.5309,18.04351911582947,15.5309,18.04351911582947ZM11.09724,18.939219115829466C9.5609798,18.739219115829467,8.134419900000001,18.035319115829466,7.04091,16.937919115829466C7.04091,16.937919115829466,5.6241601,18.349519115829466,5.6241601,18.349519115829466C7.0299799,19.760419115829468,8.8639498,20.66531911582947,10.838960199999999,20.922519115829466C10.838960199999999,20.922519115829466,11.09724,18.939219115829466,11.09724,18.939219115829466C11.09724,18.939219115829466,11.09724,18.939219115829466,11.09724,18.939219115829466ZM7.04091,16.937919115829466C5.94739,15.840419115829468,5.24865,14.411419115829467,5.05408,12.874409415829469C5.05408,12.874409415829469,3.06991798,13.125589115829468,3.06991798,13.125589115829468C3.32005697,15.101519115829468,4.21834899,16.938719115829468,5.6241601,18.349519115829466C5.6241601,18.349519115829466,7.04091,16.937919115829466,7.04091,16.937919115829466C7.04091,16.937919115829466,7.04091,16.937919115829466,7.04091,16.937919115829466ZM19.419,14.000019115829467C19.419,14.000019115829467,15,14.000019115829467,15,14.000019115829467C15,14.000019115829467,15,16.000019115829467,15,16.000019115829467C15,16.000019115829467,19.419,16.000019115829467,19.419,16.000019115829467C19.419,16.000019115829467,19.419,14.000019115829467,19.419,14.000019115829467C19.419,14.000019115829467,19.419,14.000019115829467,19.419,14.000019115829467Z" fill="#0A0A28" fill-opacity="1"/></g></svg>