<svg xmlns="http://www.w3.org/2000/svg" xmlns:xlink="http://www.w3.org/1999/xlink" fill="none" version="1.1" width="24" height="24" viewBox="0 0 24 24"><defs><clipPath id="master_svg0_3_1876"><rect x="0" y="0" width="24" height="24" rx="0"/></clipPath></defs><g clip-path="url(#master_svg0_3_1876)"><path d="M3,10C3,10,2.29289299,9.292890100000001,2.29289299,9.292890100000001C1.90237,9.6834202,1.90237,10.3165798,2.29289299,10.707109899999999C2.29289299,10.707109899999999,3,10,3,10C3,10,3,10,3,10ZM13,10C13,10,13,9,13,9C13,9,13,10,13,10C13,10,13,10,13,10ZM21,18C21,18,22,18,22,18C22,18,21,18,21,18C21,18,21,18,21,18ZM20,20C20,20.552299,20.447701,21,21,21C21.552299,21,22,20.552299,22,20C22,20,20,20,20,20C20,20,20,20,20,20ZM8.292890100000001,16.7071C8.6834202,17.0976,9.3165798,17.0976,9.707109899999999,16.7071C10.097629999999999,16.3166,10.097629999999999,15.6834,9.707109899999999,15.2929C9.707109899999999,15.2929,8.292890100000001,16.7071,8.292890100000001,16.7071C8.292890100000001,16.7071,8.292890100000001,16.7071,8.292890100000001,16.7071ZM9.707109899999999,4.70710701C10.097629999999999,4.31658301,10.097629999999999,3.68341699,9.707109899999999,3.29289299C9.3165798,2.90237,8.6834202,2.90237,8.292890100000001,3.29289299C8.292890100000001,3.29289299,9.707109899999999,4.70710701,9.707109899999999,4.70710701C9.707109899999999,4.70710701,9.707109899999999,4.70710701,9.707109899999999,4.70710701ZM3,11C3,11,13,11,13,11C13,11,13,9,13,9C13,9,3,9,3,9C3,9,3,11,3,11C3,11,3,11,3,11ZM13,11C14.8565,11,16.637,11.7375002,17.9497,13.0502501C17.9497,13.0502501,19.364,11.6360402,19.364,11.6360402C17.676099999999998,9.9482098,15.3869,9,13,9C13,9,13,11,13,11C13,11,13,11,13,11ZM17.9497,13.0502501C19.262501,14.363,20,16.1435,20,18C20,18,22,18,22,18C22,15.6131,21.0518,13.3238697,19.364,11.6360402C19.364,11.6360402,17.9497,13.0502501,17.9497,13.0502501C17.9497,13.0502501,17.9497,13.0502501,17.9497,13.0502501ZM20,18C20,18,20,20,20,20C20,20,22,20,22,20C22,20,22,18,22,18C22,18,20,18,20,18C20,18,20,18,20,18ZM2.29289299,10.707109899999999C2.29289299,10.707109899999999,8.292890100000001,16.7071,8.292890100000001,16.7071C8.292890100000001,16.7071,9.707109899999999,15.2929,9.707109899999999,15.2929C9.707109899999999,15.2929,3.70710701,9.292890100000001,3.70710701,9.292890100000001C3.70710701,9.292890100000001,2.29289299,10.707109899999999,2.29289299,10.707109899999999C2.29289299,10.707109899999999,2.29289299,10.707109899999999,2.29289299,10.707109899999999ZM3.70710701,10.707109899999999C3.70710701,10.707109899999999,9.707109899999999,4.70710701,9.707109899999999,4.70710701C9.707109899999999,4.70710701,8.292890100000001,3.29289299,8.292890100000001,3.29289299C8.292890100000001,3.29289299,2.29289299,9.292890100000001,2.29289299,9.292890100000001C2.29289299,9.292890100000001,3.70710701,10.707109899999999,3.70710701,10.707109899999999C3.70710701,10.707109899999999,3.70710701,10.707109899999999,3.70710701,10.707109899999999Z" fill="#0A0A28" fill-opacity="1"/></g></svg>