<svg xmlns="http://www.w3.org/2000/svg" xmlns:xlink="http://www.w3.org/1999/xlink" fill="none" version="1.1" width="24" height="24" viewBox="0 0 24 24"><defs><clipPath id="master_svg0_3_1674"><rect x="0" y="0" width="24" height="24" rx="0"/></clipPath></defs><g clip-path="url(#master_svg0_3_1674)"><path d="M9.2484168546875,3.95162397171875C9.4733805546875,4.17665756171875,9.5997528546875,4.48182720171875,9.5997528546875,4.80002406171875C9.5997528546875,5.11822096171875,9.4733805546875,5.4233928617187495,9.2484168546875,5.64842896171875C9.2484168546875,5.64842896171875,6.4968166546875,8.40002866171875,6.4968166546875,8.40002866171875C6.4968166546875,8.40002866171875,13.2000165546875,8.40002866171875,13.2000165546875,8.40002866171875C15.4278295546875,8.40002866171875,17.5644295546875,9.28501706171875,19.1396695546875,10.86032866171875C20.7150285546875,12.43562886171875,21.6000285546875,14.57220476171875,21.6000285546875,16.800040761718748C21.6000285546875,16.800040761718748,21.6000285546875,19.20004076171875,21.6000285546875,19.20004076171875C21.6000285546875,19.51828176171875,21.4735485546875,19.82356076171875,21.2485485546875,20.04856076171875C21.0235485546875,20.27356176171875,20.7182695546875,20.40004176171875,20.4000285546875,20.40004176171875C20.0817885546875,20.40004176171875,19.7765085546875,20.27356176171875,19.5515095546875,20.04856076171875C19.3263895546875,19.82356076171875,19.2000295546875,19.51828176171875,19.2000295546875,19.20004076171875C19.2000295546875,19.20004076171875,19.2000295546875,16.800040761718748,19.2000295546875,16.800040761718748C19.2000295546875,15.20872076171875,18.5678695546875,13.68259676171875,17.4426295546875,12.55738166171875C16.3173895546875,11.432164661718751,14.7913495546875,10.80002926171875,13.2000165546875,10.80002926171875C13.2000165546875,10.80002926171875,6.4968166546875,10.80002926171875,6.4968166546875,10.80002926171875C6.4968166546875,10.80002926171875,9.2484168546875,13.55163006171875,9.2484168546875,13.55163006171875C9.3630289546875,13.66231776171875,9.4544448546875,13.79473776171875,9.5173368546875,13.94113776171875C9.580229254687499,14.08754876171875,9.6133246546875,14.24501276171875,9.6147170546875,14.40434976171875C9.6160964546875,14.56367276171875,9.585736754687499,14.72168876171875,9.5254011546875,14.86916876171875C9.465064954687499,15.01664876171875,9.3759527546875,15.15062876171875,9.2632851546875,15.26329676171875C9.1506166546875,15.37596476171875,9.016636854687501,15.46507776171875,8.8691568546875,15.52541276171875C8.7216768546875,15.58574976171875,8.5636606546875,15.61612176171875,8.404336454687499,15.61468076171875C8.2450008546875,15.61336076171875,8.0875368546875,15.58024076171875,7.9411249546875,15.51734876171875C7.7947244546875,15.45445776171875,7.6623043546875,15.36304176171875,7.5516166546875,15.24842976171875C7.5516166546875,15.24842976171875,2.7516117646875,10.44842906171875,2.7516117646875,10.44842906171875C2.5266465546875,10.22339296171875,2.4002685546875,9.918220961718749,2.4002685546875,9.600028961718749C2.4002685546875,9.281825061718749,2.5266465546875,8.97665306171875,2.7516117646875,8.75162886171875C2.7516117646875,8.75162886171875,7.5516166546875,3.95162397171875,7.5516166546875,3.95162397171875C7.7766408546875,3.72665876171875,8.081812854687499,3.60028076171875,8.400016754687499,3.60028076171875C8.718208754687499,3.60028076171875,9.0233807546875,3.72665876171875,9.2484168546875,3.95162397171875C9.2484168546875,3.95162397171875,9.2484168546875,3.95162397171875,9.2484168546875,3.95162397171875C9.2484168546875,3.95162397171875,9.2484168546875,3.95162397171875,9.2484168546875,3.95162397171875Z" fill-rule="evenodd" fill="#0A0A28" fill-opacity="1"/></g></svg>