<svg xmlns="http://www.w3.org/2000/svg" xmlns:xlink="http://www.w3.org/1999/xlink" fill="none" version="1.1" width="24" height="24" viewBox="0 0 24 24"><g><path d="M5.5183709,6.5L19.481628999999998,6.5C20.033915,6.5,20.5,6.0447848,20.5,5.5075001C20.5,4.95521528,20.033915,4.5,19.481628999999998,4.5L5.5183709,4.5C4.96608609,4.5,4.5,4.95521528,4.5,5.49250007C4.5,6.0447848,4.96608609,6.5,5.5183709,6.5ZM5.17497116,12.533659C4.94192043,12.2789202,4.94192043,11.8883986,5.17497116,11.633659399999999L7.314971,9.3536592C7.4235685,9.2356682,7.5762815,9.168064099999999,7.7366376,9.1669922C8.0658045,9.1669922,8.3333044,9.451992,8.3333044,9.802825L8.3333044,14.3644924C8.3340669,14.531242,8.2715235,14.692068,8.1583045,14.814491C7.9319282,15.062576,7.5413473,15.062576,7.314971,14.814491L5.17497116,12.533659ZM12.4906287,13L19.509372,13C20.061656,12.999999,20.5,12.5447855,20.5,12.007500199999999C20.5,11.455215500000001,20.061656,10.999999500000001,19.509372,11L12.4906282,10.999999500000001C11.9383435,10.999999500000001,11.500000499999999,11.455215500000001,11.500000499999999,11.9925003C11.500000499999999,12.5447855,11.9383435,12.999999,12.4906287,13ZM5.5183709,19.5L19.481628999999998,19.5C20.033915,19.5,20.5,19.044784999999997,20.5,18.507500999999998C20.5,17.955215000000003,20.033915,17.500000999999997,19.481628999999998,17.5L5.5183709,17.500000999999997C4.96608609,17.500000999999997,4.5,17.955215000000003,4.5,18.4925C4.5,19.044784999999997,4.96608609,19.5,5.5183709,19.5Z" fill-rule="evenodd" fill="#0A0A28" fill-opacity="1"/></g></svg>