<svg xmlns="http://www.w3.org/2000/svg" xmlns:xlink="http://www.w3.org/1999/xlink" fill="none" version="1.1" width="24" height="24" viewBox="0 0 24 24"><defs><clipPath id="master_svg0_3_2370"><rect x="0" y="0" width="24" height="24" rx="0"/></clipPath></defs><g clip-path="url(#master_svg0_3_2370)"><path d="M12.065999489373779,11.199999323162842C12.065999489373779,11.199999323162842,12.065999489373779,10.199999523162841,12.065999489373779,10.199999523162841C11.84962988937378,10.199999523162841,11.63910008937378,10.270179523162842,11.466000089373779,10.399999623162842C11.466000089373779,10.399999623162842,12.065999489373779,11.199999323162842,12.065999489373779,11.199999323162842C12.065999489373779,11.199999323162842,12.065999489373779,11.199999323162842,12.065999489373779,11.199999323162842ZM12.065999489373779,12.799999723162841C12.065999489373779,12.799999723162841,11.466000089373779,13.599999423162842,11.466000089373779,13.599999423162842C11.466000089373779,13.599999423162842,11.46604968937378,13.600039523162842,11.46604968937378,13.600039523162842C11.46604968937378,13.600039523162842,12.065999489373779,12.799999723162841,12.065999489373779,12.799999723162841C12.065999489373779,12.799999723162841,12.065999489373779,12.799999723162841,12.065999489373779,12.799999723162841ZM17.39999988937378,16.79999972316284C17.39999988937378,16.79999972316284,17.99999988937378,15.999999523162842,17.99999988937378,15.999999523162842C17.99999988937378,15.999999523162842,17.99999988937378,15.999959423162842,17.99999988937378,15.999959423162842C17.99999988937378,15.999959423162842,17.39999988937378,16.79999972316284,17.39999988937378,16.79999972316284C17.39999988937378,16.79999972316284,17.39999988937378,16.79999972316284,17.39999988937378,16.79999972316284ZM17.39999988937378,7.199999523162842C17.39999988937378,7.199999523162842,16.79999988937378,6.399999503162842,16.79999988937378,6.399999503162842C16.79999988937378,6.399999503162842,16.79999988937378,6.400017503162842,16.79999988937378,6.400017503162842C16.79999988937378,6.400017503162842,17.39999988937378,7.199999523162842,17.39999988937378,7.199999523162842C17.39999988937378,7.199999523162842,17.39999988937378,7.199999523162842,17.39999988937378,7.199999523162842ZM12.066999889373779,11.199999323162842C12.066999889373779,11.199999323162842,12.066999889373779,12.199999323162842,12.066999889373779,12.199999323162842C12.28337998937378,12.199999323162842,12.49391988937378,12.129819423162843,12.66702988937378,11.999979523162843C12.66702988937378,11.999979523162843,12.066999889373779,11.199999323162842,12.066999889373779,11.199999323162842C12.066999889373779,11.199999323162842,12.066999889373779,11.199999323162842,12.066999889373779,11.199999323162842ZM4.06599989937378,11.199999323162842C4.06599989937378,11.199999323162842,3.4660478793737792,10.399959523162842,3.4660478793737792,10.399959523162842C3.4660478793737792,10.399959523162842,3.465999889373779,10.399999623162842,3.465999889373779,10.399999623162842C3.465999889373779,10.399999623162842,4.06599989937378,11.199999323162842,4.06599989937378,11.199999323162842C4.06599989937378,11.199999323162842,4.06599989937378,11.199999323162842,4.06599989937378,11.199999323162842ZM3.6659998893737793,11.999999523162842C3.6659998893737793,11.999999523162842,4.665999889373779,11.999999523162842,4.665999889373779,11.999999523162842C4.665999889373779,11.999999523162842,3.6659998893737793,11.999999523162842,3.6659998893737793,11.999999523162842C3.6659998893737793,11.999999523162842,3.6659998893737793,11.999999523162842,3.6659998893737793,11.999999523162842ZM4.06599989937378,12.799999723162841C4.06599989937378,12.799999723162841,3.465999889373779,13.599999423162842,3.465999889373779,13.599999423162842C3.465999889373779,13.599999423162842,3.4660478793737792,13.600039523162842,3.4660478793737792,13.600039523162842C3.4660478793737792,13.600039523162842,4.06599989937378,12.799999723162841,4.06599989937378,12.799999723162841C4.06599989937378,12.799999723162841,4.06599989937378,12.799999723162841,4.06599989937378,12.799999723162841ZM9.40000008937378,16.79999972316284C9.40000008937378,16.79999972316284,9.99999998937378,15.999999523162842,9.99999998937378,15.999999523162842C9.99999998937378,15.999999523162842,9.999949889373779,15.999959423162842,9.999949889373779,15.999959423162842C9.999949889373779,15.999959423162842,9.40000008937378,16.79999972316284,9.40000008937378,16.79999972316284C9.40000008937378,16.79999972316284,9.40000008937378,16.79999972316284,9.40000008937378,16.79999972316284ZM10.99999998937378,7.999999523162842C10.99999998937378,7.999999523162842,11.99999948937378,7.999999523162842,11.99999948937378,7.999999523162842C11.99999948937378,7.999999523162842,10.99999998937378,7.999999523162842,10.99999998937378,7.999999523162842C10.99999998937378,7.999999523162842,10.99999998937378,7.999999523162842,10.99999998937378,7.999999523162842ZM9.40000008937378,7.199999523162842C9.40000008937378,7.199999523162842,9.999949889373779,8.000039623162841,9.999949889373779,8.000039623162841C9.999949889373779,8.000039623162841,9.99999998937378,7.999999523162842,9.99999998937378,7.999999523162842C9.99999998937378,7.999999523162842,9.40000008937378,7.199999523162842,9.40000008937378,7.199999523162842C9.40000008937378,7.199999523162842,9.40000008937378,7.199999523162842,9.40000008937378,7.199999523162842ZM11.466000089373779,10.399999623162842C11.21759988937378,10.586299423162842,11.01599978937378,10.827869423162841,10.877150089373778,11.105569323162841C10.877150089373778,11.105569323162841,12.66599988937378,11.999999523162842,12.66599988937378,11.999999523162842C12.66599988937378,11.999999523162842,12.66599988937378,11.999999523162842,12.66599988937378,11.999999523162842C12.66599988937378,11.999999523162842,11.466000089373779,10.399999623162842,11.466000089373779,10.399999623162842C11.466000089373779,10.399999623162842,11.466000089373779,10.399999623162842,11.466000089373779,10.399999623162842ZM10.877150089373778,11.105569323162841C10.73828978937378,11.383279323162842,10.66599988937378,11.689509423162843,10.66599988937378,11.999999523162842C10.66599988937378,11.999999523162842,12.66599988937378,11.999999523162842,12.66599988937378,11.999999523162842C12.66599988937378,11.999999523162842,12.66599988937378,11.999999523162842,12.66599988937378,11.999999523162842C12.66599988937378,11.999999523162842,10.877150089373778,11.105569323162841,10.877150089373778,11.105569323162841C10.877150089373778,11.105569323162841,10.877150089373778,11.105569323162841,10.877150089373778,11.105569323162841ZM10.66599988937378,11.999999523162842C10.66599988937378,12.310489623162841,10.73828978937378,12.616719723162841,10.877150089373778,12.894429723162842C10.877150089373778,12.894429723162842,12.66599988937378,11.999999523162842,12.66599988937378,11.999999523162842C12.66599988937378,11.999999523162842,12.66599988937378,11.999999523162842,12.66599988937378,11.999999523162842C12.66599988937378,11.999999523162842,10.66599988937378,11.999999523162842,10.66599988937378,11.999999523162842C10.66599988937378,11.999999523162842,10.66599988937378,11.999999523162842,10.66599988937378,11.999999523162842ZM10.877150089373778,12.894429723162842C11.01599978937378,13.172129623162842,11.21759988937378,13.413699623162842,11.466000089373779,13.599999423162842C11.466000089373779,13.599999423162842,12.66599988937378,11.999999523162842,12.66599988937378,11.999999523162842C12.66599988937378,11.999999523162842,12.66599988937378,11.999999523162842,12.66599988937378,11.999999523162842C12.66599988937378,11.999999523162842,10.877150089373778,12.894429723162842,10.877150089373778,12.894429723162842C10.877150089373778,12.894429723162842,10.877150089373778,12.894429723162842,10.877150089373778,12.894429723162842ZM11.46604968937378,13.600039523162842C11.46604968937378,13.600039523162842,16.79999988937378,17.599999523162843,16.79999988937378,17.599999523162843C16.79999988937378,17.599999523162843,17.99999988937378,15.999959423162842,17.99999988937378,15.999959423162842C17.99999988937378,15.999959423162842,12.665950289373779,11.999959423162842,12.665950289373779,11.999959423162842C12.665950289373779,11.999959423162842,11.46604968937378,13.600039523162842,11.46604968937378,13.600039523162842C11.46604968937378,13.600039523162842,11.46604968937378,13.600039523162842,11.46604968937378,13.600039523162842ZM16.79999988937378,17.599999523162843C17.09709988937378,17.822899523162842,17.45049988937378,17.958599523162842,17.820399889373782,17.991899523162843C17.820399889373782,17.991899523162843,17.99999988937378,15.999999523162842,17.99999988937378,15.999999523162842C17.99999988937378,15.999999523162842,17.99999988937378,15.999999523162842,17.99999988937378,15.999999523162842C17.99999988937378,15.999999523162842,16.79999988937378,17.599999523162843,16.79999988937378,17.599999523162843C16.79999988937378,17.599999523162843,16.79999988937378,17.599999523162843,16.79999988937378,17.599999523162843ZM17.820399889373782,17.991899523162843C18.19029988937378,18.025299523162843,18.56219988937378,17.95499952316284,18.89439988937378,17.78889952316284C18.89439988937378,17.78889952316284,17.99999988937378,15.999999523162842,17.99999988937378,15.999999523162842C17.99999988937378,15.999999523162842,17.99999988937378,15.999999523162842,17.99999988937378,15.999999523162842C17.99999988937378,15.999999523162842,17.820399889373782,17.991899523162843,17.820399889373782,17.991899523162843C17.820399889373782,17.991899523162843,17.820399889373782,17.991899523162843,17.820399889373782,17.991899523162843ZM18.89439988937378,17.78889952316284C19.22659988937378,17.622699523162844,19.50599988937378,17.36739952316284,19.701298889373778,17.051499523162843C19.701298889373778,17.051499523162843,17.99999988937378,15.999999523162842,17.99999988937378,15.999999523162842C17.99999988937378,15.999999523162842,17.99999988937378,15.999999523162842,17.99999988937378,15.999999523162842C17.99999988937378,15.999999523162842,18.89439988937378,17.78889952316284,18.89439988937378,17.78889952316284C18.89439988937378,17.78889952316284,18.89439988937378,17.78889952316284,18.89439988937378,17.78889952316284ZM19.701298889373778,17.051499523162843C19.89659988937378,16.735509423162842,19.99999988937378,16.37141942316284,19.99999988937378,15.999999523162842C19.99999988937378,15.999999523162842,17.99999988937378,15.999999523162842,17.99999988937378,15.999999523162842C17.99999988937378,15.999999523162842,17.99999988937378,15.999999523162842,17.99999988937378,15.999999523162842C17.99999988937378,15.999999523162842,19.701298889373778,17.051499523162843,19.701298889373778,17.051499523162843C19.701298889373778,17.051499523162843,19.701298889373778,17.051499523162843,19.701298889373778,17.051499523162843ZM19.99999988937378,15.999999523162842C19.99999988937378,15.999999523162842,19.99999988937378,7.999999523162842,19.99999988937378,7.999999523162842C19.99999988937378,7.999999523162842,17.99999988937378,7.999999523162842,17.99999988937378,7.999999523162842C17.99999988937378,7.999999523162842,17.99999988937378,15.999999523162842,17.99999988937378,15.999999523162842C17.99999988937378,15.999999523162842,19.99999988937378,15.999999523162842,19.99999988937378,15.999999523162842C19.99999988937378,15.999999523162842,19.99999988937378,15.999999523162842,19.99999988937378,15.999999523162842ZM19.99999988937378,7.999999523162842C19.99999988937378,7.628576513162842,19.89659988937378,7.264489533162842,19.701298889373778,6.948537823162842C19.701298889373778,6.948537823162842,17.99999988937378,7.999999523162842,17.99999988937378,7.999999523162842C17.99999988937378,7.999999523162842,17.99999988937378,7.999999523162842,17.99999988937378,7.999999523162842C17.99999988937378,7.999999523162842,19.99999988937378,7.999999523162842,19.99999988937378,7.999999523162842C19.99999988937378,7.999999523162842,19.99999988937378,7.999999523162842,19.99999988937378,7.999999523162842ZM19.701298889373778,6.948537823162842C19.50599988937378,6.632587523162842,19.22659988937378,6.377252523162841,18.89439988937378,6.211145523162842C18.89439988937378,6.211145523162842,17.99999988937378,7.999999523162842,17.99999988937378,7.999999523162842C17.99999988937378,7.999999523162842,17.99999988937378,7.999999523162842,17.99999988937378,7.999999523162842C17.99999988937378,7.999999523162842,19.701298889373778,6.948537823162842,19.701298889373778,6.948537823162842C19.701298889373778,6.948537823162842,19.701298889373778,6.948537823162842,19.701298889373778,6.948537823162842ZM18.89439988937378,6.211145523162842C18.56219988937378,6.045039533162842,18.19029988937378,5.974729523162842,17.820399889373782,6.008081493162842C17.820399889373782,6.008081493162842,17.99999988937378,7.999999523162842,17.99999988937378,7.999999523162842C17.99999988937378,7.999999523162842,17.99999988937378,7.999999523162842,17.99999988937378,7.999999523162842C17.99999988937378,7.999999523162842,18.89439988937378,6.211145523162842,18.89439988937378,6.211145523162842C18.89439988937378,6.211145523162842,18.89439988937378,6.211145523162842,18.89439988937378,6.211145523162842ZM17.820399889373782,6.008081493162842C17.45049988937378,6.041437503162841,17.09709988937378,6.177144523162842,16.79999988937378,6.399999503162842C16.79999988937378,6.399999503162842,17.99999988937378,7.999999523162842,17.99999988937378,7.999999523162842C17.99999988937378,7.999999523162842,17.99999988937378,7.999999523162842,17.99999988937378,7.999999523162842C17.99999988937378,7.999999523162842,17.820399889373782,6.008081493162842,17.820399889373782,6.008081493162842C17.820399889373782,6.008081493162842,17.820399889373782,6.008081493162842,17.820399889373782,6.008081493162842ZM16.79999988937378,6.400017503162842C16.79999988937378,6.400017503162842,11.46697998937378,10.400019423162842,11.46697998937378,10.400019423162842C11.46697998937378,10.400019423162842,12.66702988937378,11.999979523162843,12.66702988937378,11.999979523162843C12.66702988937378,11.999979523162843,17.99999988937378,7.999981523162842,17.99999988937378,7.999981523162842C17.99999988937378,7.999981523162842,16.79999988937378,6.400017503162842,16.79999988937378,6.400017503162842C16.79999988937378,6.400017503162842,16.79999988937378,6.400017503162842,16.79999988937378,6.400017503162842ZM12.066999889373779,10.199999523162841C12.066999889373779,10.199999523162841,12.065999489373779,10.199999523162841,12.065999489373779,10.199999523162841C12.065999489373779,10.199999523162841,12.065999489373779,12.199999323162842,12.065999489373779,12.199999323162842C12.065999489373779,12.199999323162842,12.066999889373779,12.199999323162842,12.066999889373779,12.199999323162842C12.066999889373779,12.199999323162842,12.066999889373779,10.199999523162841,12.066999889373779,10.199999523162841C12.066999889373779,10.199999523162841,12.066999889373779,10.199999523162841,12.066999889373779,10.199999523162841ZM3.465999889373779,10.399999623162842C3.2176058893737793,10.586299423162842,3.0159999093737793,10.827859623162842,2.877145889373779,11.105569323162841C2.877145889373779,11.105569323162841,4.665999889373779,11.999999523162842,4.665999889373779,11.999999523162842C4.665999889373779,11.999999523162842,4.665999889373779,11.999999523162842,4.665999889373779,11.999999523162842C4.665999889373779,11.999999523162842,3.465999889373779,10.399999623162842,3.465999889373779,10.399999623162842C3.465999889373779,10.399999623162842,3.465999889373779,10.399999623162842,3.465999889373779,10.399999623162842ZM2.877145889373779,11.105569323162841C2.738290909373779,11.383279323162842,2.6659998893737793,11.689509423162843,2.6659998893737793,11.999999523162842C2.6659998893737793,11.999999523162842,4.665999889373779,11.999999523162842,4.665999889373779,11.999999523162842C4.665999889373779,11.999999523162842,4.665999889373779,11.999999523162842,4.665999889373779,11.999999523162842C4.665999889373779,11.999999523162842,2.877145889373779,11.105569323162841,2.877145889373779,11.105569323162841C2.877145889373779,11.105569323162841,2.877145889373779,11.105569323162841,2.877145889373779,11.105569323162841ZM2.6659998893737793,11.999999523162842C2.6659998893737793,12.310489623162841,2.738290909373779,12.616719723162841,2.877145889373779,12.894429723162842C2.877145889373779,12.894429723162842,4.665999889373779,11.999999523162842,4.665999889373779,11.999999523162842C4.665999889373779,11.999999523162842,4.665999889373779,11.999999523162842,4.665999889373779,11.999999523162842C4.665999889373779,11.999999523162842,2.6659998893737793,11.999999523162842,2.6659998893737793,11.999999523162842C2.6659998893737793,11.999999523162842,2.6659998893737793,11.999999523162842,2.6659998893737793,11.999999523162842ZM2.877145889373779,12.894429723162842C3.0159999093737793,13.172139623162842,3.2176058893737793,13.413709623162841,3.465999889373779,13.599999423162842C3.465999889373779,13.599999423162842,4.665999889373779,11.999999523162842,4.665999889373779,11.999999523162842C4.665999889373779,11.999999523162842,4.665999889373779,11.999999523162842,4.665999889373779,11.999999523162842C4.665999889373779,11.999999523162842,2.877145889373779,12.894429723162842,2.877145889373779,12.894429723162842C2.877145889373779,12.894429723162842,2.877145889373779,12.894429723162842,2.877145889373779,12.894429723162842ZM3.4660478793737792,13.600039523162842C3.4660478793737792,13.600039523162842,8.80004978937378,17.599999523162843,8.80004978937378,17.599999523162843C8.80004978937378,17.599999523162843,9.999949889373779,15.999959423162842,9.999949889373779,15.999959423162842C9.999949889373779,15.999959423162842,4.66595190937378,11.999959423162842,4.66595190937378,11.999959423162842C4.66595190937378,11.999959423162842,3.4660478793737792,13.600039523162842,3.4660478793737792,13.600039523162842C3.4660478793737792,13.600039523162842,3.4660478793737792,13.600039523162842,3.4660478793737792,13.600039523162842ZM8.799999689373779,17.599999523162843C9.09712978937378,17.822899523162842,9.45045998937378,17.958599523162842,9.82038978937378,17.991899523162843C9.82038978937378,17.991899523162843,9.99999998937378,15.999999523162842,9.99999998937378,15.999999523162842C9.99999998937378,15.999999523162842,9.99999998937378,15.999999523162842,9.99999998937378,15.999999523162842C9.99999998937378,15.999999523162842,8.799999689373779,17.599999523162843,8.799999689373779,17.599999523162843C8.799999689373779,17.599999523162843,8.799999689373779,17.599999523162843,8.799999689373779,17.599999523162843ZM9.82038978937378,17.991899523162843C10.19031998937378,18.025299523162843,10.56222008937378,17.95499952316284,10.89442968937378,17.78889952316284C10.89442968937378,17.78889952316284,9.99999998937378,15.999999523162842,9.99999998937378,15.999999523162842C9.99999998937378,15.999999523162842,9.99999998937378,15.999999523162842,9.99999998937378,15.999999523162842C9.99999998937378,15.999999523162842,9.82038978937378,17.991899523162843,9.82038978937378,17.991899523162843C9.82038978937378,17.991899523162843,9.82038978937378,17.991899523162843,9.82038978937378,17.991899523162843ZM10.89442968937378,17.78889952316284C11.22662968937378,17.62279952316284,11.50603008937378,17.36739952316284,11.701300189373779,17.051499523162843C11.701300189373779,17.051499523162843,9.99999998937378,15.999999523162842,9.99999998937378,15.999999523162842C9.99999998937378,15.999999523162842,9.99999998937378,15.999999523162842,9.99999998937378,15.999999523162842C9.99999998937378,15.999999523162842,10.89442968937378,17.78889952316284,10.89442968937378,17.78889952316284C10.89442968937378,17.78889952316284,10.89442968937378,17.78889952316284,10.89442968937378,17.78889952316284ZM11.701300189373779,17.051499523162843C11.896569689373779,16.735509423162842,11.99999948937378,16.37141942316284,11.99999948937378,15.999999523162842C11.99999948937378,15.999999523162842,9.99999998937378,15.999999523162842,9.99999998937378,15.999999523162842C9.99999998937378,15.999999523162842,9.99999998937378,15.999999523162842,9.99999998937378,15.999999523162842C9.99999998937378,15.999999523162842,11.701300189373779,17.051499523162843,11.701300189373779,17.051499523162843C11.701300189373779,17.051499523162843,11.701300189373779,17.051499523162843,11.701300189373779,17.051499523162843ZM11.99999948937378,15.999999523162842C11.99999948937378,15.999999523162842,11.99999948937378,7.999999523162842,11.99999948937378,7.999999523162842C11.99999948937378,7.999999523162842,9.99999998937378,7.999999523162842,9.99999998937378,7.999999523162842C9.99999998937378,7.999999523162842,9.99999998937378,15.999999523162842,9.99999998937378,15.999999523162842C9.99999998937378,15.999999523162842,11.99999948937378,15.999999523162842,11.99999948937378,15.999999523162842C11.99999948937378,15.999999523162842,11.99999948937378,15.999999523162842,11.99999948937378,15.999999523162842ZM11.99999948937378,7.999999523162842C11.99999948937378,7.628576513162842,11.896569689373779,7.264489533162842,11.701300189373779,6.948537823162842C11.701300189373779,6.948537823162842,9.99999998937378,7.999999523162842,9.99999998937378,7.999999523162842C9.99999998937378,7.999999523162842,9.99999998937378,7.999999523162842,9.99999998937378,7.999999523162842C9.99999998937378,7.999999523162842,11.99999948937378,7.999999523162842,11.99999948937378,7.999999523162842C11.99999948937378,7.999999523162842,11.99999948937378,7.999999523162842,11.99999948937378,7.999999523162842ZM11.701300189373779,6.948537823162842C11.50603008937378,6.632585523162842,11.22663978937378,6.377250553162842,10.89442968937378,6.211145523162842C10.89442968937378,6.211145523162842,9.99999998937378,7.999999523162842,9.99999998937378,7.999999523162842C9.99999998937378,7.999999523162842,9.99999998937378,7.999999523162842,9.99999998937378,7.999999523162842C9.99999998937378,7.999999523162842,11.701300189373779,6.948537823162842,11.701300189373779,6.948537823162842C11.701300189373779,6.948537823162842,11.701300189373779,6.948537823162842,11.701300189373779,6.948537823162842ZM10.89442968937378,6.211145523162842C10.562210089373778,6.045039533162842,10.19030998937378,5.974729523162842,9.82038978937378,6.008081493162842C9.82038978937378,6.008081493162842,9.99999998937378,7.999999523162842,9.99999998937378,7.999999523162842C9.99999998937378,7.999999523162842,9.99999998937378,7.999999523162842,9.99999998937378,7.999999523162842C9.99999998937378,7.999999523162842,10.89442968937378,6.211145523162842,10.89442968937378,6.211145523162842C10.89442968937378,6.211145523162842,10.89442968937378,6.211145523162842,10.89442968937378,6.211145523162842ZM9.82038978937378,6.008081493162842C9.45046998937378,6.041437503162841,9.097139789373779,6.177144523162842,8.799999689373779,6.399999503162842C8.799999689373779,6.399999503162842,9.99999998937378,7.999999523162842,9.99999998937378,7.999999523162842C9.99999998937378,7.999999523162842,9.99999998937378,7.999999523162842,9.99999998937378,7.999999523162842C9.99999998937378,7.999999523162842,9.82038978937378,6.008081493162842,9.82038978937378,6.008081493162842C9.82038978937378,6.008081493162842,9.82038978937378,6.008081493162842,9.82038978937378,6.008081493162842ZM8.80004978937378,6.399963493162842C8.80004978937378,6.399963493162842,3.4660478793737792,10.399959523162842,3.4660478793737792,10.399959523162842C3.4660478793737792,10.399959523162842,4.66595190937378,12.000039623162841,4.66595190937378,12.000039623162841C4.66595190937378,12.000039623162841,9.999949889373779,8.000039623162841,9.999949889373779,8.000039623162841C9.999949889373779,8.000039623162841,8.80004978937378,6.399963493162842,8.80004978937378,6.399963493162842C8.80004978937378,6.399963493162842,8.80004978937378,6.399963493162842,8.80004978937378,6.399963493162842Z" fill="#0A0A28" fill-opacity="1"/></g></svg>