<svg xmlns="http://www.w3.org/2000/svg" xmlns:xlink="http://www.w3.org/1999/xlink" fill="none" version="1.1" width="24" height="24" viewBox="0 0 24 24"><defs><clipPath id="master_svg0_3_1455"><rect x="0" y="0" width="24" height="24" rx="0"/></clipPath></defs><g clip-path="url(#master_svg0_3_1455)"><path d="M10.13398363828125,17.7984589296875C10.31470343828125,17.9190339296875,10.52477553828125,17.9882869296875,10.74177173828125,17.9988219296875C10.95876793828125,18.0093579296875,11.17455103828125,17.960794929687502,11.36610793828125,17.8583019296875C11.55766393828125,17.7558099296875,11.71780393828125,17.6032419296875,11.82943913828125,17.4168699296875C11.94107533828125,17.2304969296875,12.00001903828125,17.017304929687498,11.99998373828125,16.800057929687497C11.99998373828125,16.800057929687497,11.99998373828125,13.4424581296875,11.99998373828125,13.4424581296875C11.99998373828125,13.4424581296875,18.53396023828125,17.7984589296875,18.53396023828125,17.7984589296875C18.71467923828125,17.9190339296875,18.92479923828125,17.9882869296875,19.14176023828125,17.9988219296875C19.35871923828125,18.0093579296875,19.57460023828125,17.960794929687502,19.76612123828125,17.8583019296875C19.95763923828125,17.7558099296875,20.11784023828125,17.6032419296875,20.22944023828125,17.4168699296875C20.34103923828125,17.2304969296875,20.40007923828125,17.017304929687498,20.39995923828125,16.800057929687497C20.39995923828125,16.800057929687497,20.39995923828125,7.2000580296875,20.39995923828125,7.2000580296875C20.40007923828125,6.9828063796875,20.34103923828125,6.7696216096875,20.22944023828125,6.5832471296875C20.11784023828125,6.3968727296875,19.95763923828125,6.2442999296875,19.76612123828125,6.1418091396875C19.57460023828125,6.0393171306875,19.35871923828125,5.9907510289875,19.14176023828125,6.0012913496875C18.92479923828125,6.0118316696875,18.71467923828125,6.0810833726875,18.53396023828125,6.2016579396875C18.53396023828125,6.2016579396875,11.99998373828125,10.557658229687501,11.99998373828125,10.557658229687501C11.99998373828125,10.557658229687501,11.99998373828125,7.2000580296875,11.99998373828125,7.2000580296875C12.00001903828125,6.9828063796875,11.94107533828125,6.7696216096875,11.82943913828125,6.5832471296875C11.71780393828125,6.3968727296875,11.55766393828125,6.2442999296875,11.36610793828125,6.1418091396875C11.17455103828125,6.0393171306875,10.95876793828125,5.9907510289875,10.74177173828125,6.0012913496875C10.52477553828125,6.0118316696875,10.31470343828125,6.0810833726875,10.13398363828125,6.2016579396875C10.13398363828125,6.2016579396875,2.93398803828125,11.0016579296875,2.93398803828125,11.0016579296875C2.76963963828125,11.1112423296875,2.63488444828125,11.259706529687499,2.54168404828125,11.4338741296875C2.44848340028125,11.6080422296875,2.39971923828125,11.802526029687499,2.39971923828125,12.0000586296875C2.39971923828125,12.1975903296875,2.44848340028125,12.3920741296875,2.54168404828125,12.5662422296875C2.63488444828125,12.7404098296875,2.76963963828125,12.8888740296875,2.93398803828125,12.9984584296875C2.93398803828125,12.9984584296875,10.13398363828125,17.7984589296875,10.13398363828125,17.7984589296875C10.13398363828125,17.7984589296875,10.13398363828125,17.7984589296875,10.13398363828125,17.7984589296875C10.13398363828125,17.7984589296875,10.13398363828125,17.7984589296875,10.13398363828125,17.7984589296875Z" fill="#0A0A28" fill-opacity="1"/></g></svg>