<svg xmlns="http://www.w3.org/2000/svg" xmlns:xlink="http://www.w3.org/1999/xlink" fill="none" version="1.1" width="24" height="24" viewBox="0 0 24 24"><defs><clipPath id="master_svg0_3_2133"><rect x="0" y="0" width="24" height="24" rx="0"/></clipPath></defs><g clip-path="url(#master_svg0_3_2133)"><path d="M6,4C5.44771501,4,5,4.44771498,5,5C5,5.55228502,5.44771501,6,6,6C6,6,6,4,6,4C6,4,6,4,6,4ZM18,18C18,18.552300000000002,18.447699999999998,19,19,19C19.552300000000002,19,20,18.552300000000002,20,18C20,18,18,18,18,18C18,18,18,18,18,18ZM6,10C5.44771501,10,5,10.4477201,5,11C5,11.5522799,5.44771501,12,6,12C6,12,6,10,6,10C6,10,6,10,6,10ZM12,18C12,18.552300000000002,12.4477201,19,13,19C13.55229,19,14,18.552300000000002,14,18C14,18,12,18,12,18C12,18,12,18,12,18ZM7,18C7,18,6,18,6,18C6,18,7,18,7,18C7,18,7,18,7,18ZM6,6C12.627719899999999,6,18,11.372280100000001,18,18C18,18,20,18,20,18C20,10.2677202,13.7322798,4,6,4C6,4,6,6,6,6C6,6,6,6,6,6ZM6,12C7.5913,12,9.1174202,12.6321402,10.24264,13.7573605C10.24264,13.7573605,11.656849900000001,12.343150099999999,11.656849900000001,12.343150099999999C10.156559900000001,10.8428602,8.1217301,10,6,10C6,10,6,12,6,12C6,12,6,12,6,12ZM10.24264,13.7573605C11.3678598,14.8825798,12,16.4087,12,18C12,18,14,18,14,18C14,15.8783,13.1571398,13.8434401,11.656849900000001,12.343150099999999C11.656849900000001,12.343150099999999,10.24264,13.7573605,10.24264,13.7573605C10.24264,13.7573605,10.24264,13.7573605,10.24264,13.7573605ZM6,18C6,18,6,18,6,18C6,18,7.4142101,19.4142,7.4142101,19.4142C7.789289999999999,19.039099999999998,8,18.5304,8,18C8,18,6,18,6,18C6,18,6,18,6,18ZM6,18C6,18,6,18,6,18C6,18,6,20,6,20C6.53043,20,7.03914,19.7893,7.4142101,19.4142C7.4142101,19.4142,6,18,6,18C6,18,6,18,6,18ZM6,18C6,18,6,18,6,18C6,18,4.585787,19.4142,4.585787,19.4142C4.960860599,19.7893,5.469569,20,6,20C6,20,6,18,6,18C6,18,6,18,6,18ZM6,18C6,18,6,18,6,18C6,18,4,18,4,18C4,18.5304,4.2107139799999995,19.039099999999998,4.585787,19.4142C4.585787,19.4142,6,18,6,18C6,18,6,18,6,18ZM6,18C6,18,6,18,6,18C6,18,4.585787,16.5858,4.585787,16.5858C4.2107139799999995,16.960900000000002,4,17.4696,4,18C4,18,6,18,6,18C6,18,6,18,6,18ZM6,18C6,18,6,18,6,18C6,18,6,16,6,16C5.469569,16,4.960860599,16.2107,4.585787,16.5858C4.585787,16.5858,6,18,6,18C6,18,6,18,6,18ZM6,18C6,18,6,18,6,18C6,18,7.4142101,16.5858,7.4142101,16.5858C7.03914,16.2107,6.53043,16,6,16C6,16,6,18,6,18C6,18,6,18,6,18ZM6,18C6,18,6,18,6,18C6,18,8,18,8,18C8,17.4696,7.789289999999999,16.960900000000002,7.4142101,16.5858C7.4142101,16.5858,6,18,6,18C6,18,6,18,6,18Z" fill="#0A0A28" fill-opacity="1"/></g></svg>