<svg xmlns="http://www.w3.org/2000/svg" xmlns:xlink="http://www.w3.org/1999/xlink" fill="none" version="1.1" width="24" height="24" viewBox="0 0 24 24"><defs><clipPath id="master_svg0_3_1578"><rect x="0" y="0" width="24" height="24" rx="0"/></clipPath></defs><g clip-path="url(#master_svg0_3_1578)"><path d="M5.99998779296875,3.5999755859375C5.68172866296875,3.5999755859375004,5.37650382296875,3.7264039959375,5.15145939296875,3.9514471859375C4.92641620296875,4.1764916159375,4.799987792968751,4.4817164559375,4.79998779296875,4.7999755859375C4.799987792968751,5.1182397859375,4.92641620296875,5.4234596859375,5.15145939296875,5.6485077859375C5.37650382296875,5.8735437859375,5.68172866296875,5.9999756859375,5.99998779296875,5.9999756859375C12.62758779296875,5.9999756859375,17.99998879296875,11.3723759859375,17.99998879296875,17.9999765859375C17.99998879296875,18.3182155859375,18.12646879296875,18.623495585937498,18.351467792968748,18.8484965859375C18.57646879296875,19.0734955859375,18.88174879296875,19.1999755859375,19.19998879296875,19.1999755859375C19.51822779296875,19.1999755859375,19.823507792968748,19.0734955859375,20.04850879296875,18.8484965859375C20.27350779296875,18.623495585937498,20.39998779296875,18.3182155859375,20.39998779296875,17.9999765859375C20.39998779296875,10.047575985937499,13.95238779296875,3.5999755859375,5.99998779296875,3.5999755859375C5.99998779296875,3.5999755859375,5.99998779296875,3.5999755859375,5.99998779296875,3.5999755859375Z" fill="#0A0A28" fill-opacity="1"/><path d="M4.800006103515625,10.7999755859375C4.800006103515625,10.4817164559375,4.926438203515625,10.1764916159375,5.151474103515625,9.9514471859375C5.376522203515625,9.7264039959375,5.6817422035156255,9.599975585937498,6.000006203515625,9.5999755859375C8.227830403515625,9.599975585937502,10.364394703515625,10.4849731959375,11.939706803515625,12.060275785937499C13.515006103515624,13.6355876859375,14.400006103515626,15.7721514859375,14.400006103515626,17.9999761859375C14.400006103515626,18.318240185937498,14.273575103515626,18.6234597859375,14.048539103515624,18.8485078859375C13.823491103515625,19.0735435859375,13.518270503515625,19.1999759859375,13.200006503515626,19.1999759859375C12.881742503515625,19.1999759859375,12.576522803515624,19.0735435859375,12.351474803515625,18.8485078859375C12.126438103515625,18.6234597859375,12.000006703515625,18.318240185937498,12.000006703515625,17.9999761859375C12.000006703515625,16.4086799859375,11.367870303515625,14.8825559859375,10.242642403515624,13.7573394859375C9.117425903515624,12.6321115859375,7.591302403515625,11.9999756859375,6.000006203515625,11.9999756859375C5.6817422035156255,11.9999756859375,5.376522203515625,11.8735437859375,5.151474103515625,11.6485077859375C4.926438203515625,11.4234596859375,4.800006103515625,11.1182397859375,4.800006103515625,10.7999755859375C4.800006103515625,10.7999755859375,4.800006103515625,10.7999755859375,4.800006103515625,10.7999755859375ZM3.600006103515625,17.9999761859375C3.600006103515625,17.3634600859375,3.852862923515625,16.7530073859375,4.302949313515625,16.3029241859375C4.753037003515625,15.8528279859375,5.363490203515625,15.5999755859375,6.000006203515625,15.5999755859375C6.636522303515624,15.5999755859375,7.2469742035156255,15.8528279859375,7.697058203515625,16.3029241859375C8.147154303515624,16.7530073859375,8.400006303515624,17.3634600859375,8.400006303515624,17.9999761859375C8.400006303515624,18.6364917859375,8.147154303515624,19.2469434859375,7.697058203515625,19.697028585937502C7.2469742035156255,20.147124585937497,6.636522303515624,20.3999755859375,6.000006203515625,20.3999755859375C5.363490203515625,20.3999755859375,4.753037003515625,20.147124585937497,4.302949313515625,19.697028585937502C3.852862923515625,19.2469434859375,3.6000061035156254,18.6364917859375,3.600006103515625,17.9999761859375C3.600006103515625,17.9999761859375,3.600006103515625,17.9999761859375,3.600006103515625,17.9999761859375Z" fill="#0A0A28" fill-opacity="1"/></g></svg>