<svg xmlns="http://www.w3.org/2000/svg" xmlns:xlink="http://www.w3.org/1999/xlink" fill="none" version="1.1" width="24" height="24" viewBox="0 0 24 24"><defs><clipPath id="master_svg0_3_1537"><rect x="0" y="0" width="24" height="24" rx="0"/></clipPath></defs><g clip-path="url(#master_svg0_3_1537)"><path d="M8,8C8.5522799,8,9,7.5522799,9,7C9,6.4477201,8.5522799,6,8,6C8,6,8,8,8,8C8,8,8,8,8,8ZM5,7C5,7,5,6,5,6C5,6,5,7,5,7C5,7,5,7,5,7ZM3,9C3,9,2,9,2,9C2,9,3,9,3,9C3,9,3,9,3,9ZM3,18C3,18,2,18,2,18C2,18,3,18,3,18C3,18,3,18,3,18ZM19,7C19,7,19,6,19,6C19,6,19,7,19,7C19,7,19,7,19,7ZM16,6C15.4477,6,15,6.4477201,15,7C15,7.5522799,15.4477,8,16,8C16,8,16,6,16,6C16,6,16,6,16,6ZM15.7071,11.707109899999999C16.0976,11.3165798,16.0976,10.6834202,15.7071,10.292890100000001C15.3166,9.902370000000001,14.6834,9.902370000000001,14.2929,10.292890100000001C14.2929,10.292890100000001,15.7071,11.707109899999999,15.7071,11.707109899999999C15.7071,11.707109899999999,15.7071,11.707109899999999,15.7071,11.707109899999999ZM12,14C12,14,11.2928896,14.7071,11.2928896,14.7071C11.6834202,15.0976,12.3165798,15.0976,12.7071104,14.7071C12.7071104,14.7071,12,14,12,14C12,14,12,14,12,14ZM9.707109899999999,10.292890100000001C9.3165798,9.902370000000001,8.6834202,9.902370000000001,8.292890100000001,10.292890100000001C7.90237,10.6834202,7.90237,11.3165798,8.292890100000001,11.707109899999999C8.292890100000001,11.707109899999999,9.707109899999999,10.292890100000001,9.707109899999999,10.292890100000001C9.707109899999999,10.292890100000001,9.707109899999999,10.292890100000001,9.707109899999999,10.292890100000001ZM13,4C13,3.4477149799999998,12.55229,3,12,3C11.44771,3,11,3.4477149799999998,11,4C11,4,13,4,13,4C13,4,13,4,13,4ZM8,6C8,6,5,6,5,6C5,6,5,8,5,8C5,8,8,8,8,8C8,8,8,6,8,6C8,6,8,6,8,6ZM5,6C4.20435,6,3.44128901,6.3160701,2.87868,6.87868C2.87868,6.87868,4.29289,8.292890100000001,4.29289,8.292890100000001C4.48043,8.105360000000001,4.73478,8,5,8C5,8,5,6,5,6C5,6,5,6,5,6ZM2.87868,6.87868C2.3160700199999997,7.4412899,2,8.20435,2,9C2,9,4,9,4,9C4,8.7347798,4.10536,8.4804301,4.29289,8.292890100000001C4.29289,8.292890100000001,2.87868,6.87868,2.87868,6.87868C2.87868,6.87868,2.87868,6.87868,2.87868,6.87868ZM2,9C2,9,2,18,2,18C2,18,4,18,4,18C4,18,4,9,4,9C4,9,2,9,2,9C2,9,2,9,2,9ZM2,18C2,18.7956,2.3160700199999997,19.5587,2.87868,20.1213C2.87868,20.1213,4.29289,18.7071,4.29289,18.7071C4.10536,18.5196,4,18.2652,4,18C4,18,2,18,2,18C2,18,2,18,2,18ZM2.87868,20.1213C3.44128799,20.683901,4.20435,21,5,21C5,21,5,19,5,19C4.73478,19,4.48043,18.8946,4.29289,18.7071C4.29289,18.7071,2.87868,20.1213,2.87868,20.1213C2.87868,20.1213,2.87868,20.1213,2.87868,20.1213ZM5,21C5,21,19,21,19,21C19,21,19,19,19,19C19,19,5,19,5,19C5,19,5,21,5,21C5,21,5,21,5,21ZM19,21C19.7957,21,20.558701,20.683901,21.1213,20.1213C21.1213,20.1213,19.7071,18.7071,19.7071,18.7071C19.5196,18.8946,19.2652,19,19,19C19,19,19,21,19,21C19,21,19,21,19,21ZM21.1213,20.1213C21.683901,19.5587,22,18.7957,22,18C22,18,20,18,20,18C20,18.2652,19.8946,18.5196,19.7071,18.7071C19.7071,18.7071,21.1213,20.1213,21.1213,20.1213C21.1213,20.1213,21.1213,20.1213,21.1213,20.1213ZM22,18C22,18,22,9,22,9C22,9,20,9,20,9C20,9,20,18,20,18C20,18,22,18,22,18C22,18,22,18,22,18ZM22,9C22,8.20435,21.683901,7.4412899,21.1213,6.87868C21.1213,6.87868,19.7071,8.292890100000001,19.7071,8.292890100000001C19.8946,8.4804301,20,8.7347798,20,9C20,9,22,9,22,9C22,9,22,9,22,9ZM21.1213,6.87868C20.558701,6.3160701,19.7957,6,19,6C19,6,19,8,19,8C19.2652,8,19.5196,8.105360000000001,19.7071,8.292890100000001C19.7071,8.292890100000001,21.1213,6.87868,21.1213,6.87868C21.1213,6.87868,21.1213,6.87868,21.1213,6.87868ZM19,6C19,6,16,6,16,6C16,6,16,8,16,8C16,8,19,8,19,8C19,8,19,6,19,6C19,6,19,6,19,6ZM14.2929,10.292890100000001C14.2929,10.292890100000001,11.2928896,13.2928896,11.2928896,13.2928896C11.2928896,13.2928896,12.7071104,14.7071,12.7071104,14.7071C12.7071104,14.7071,15.7071,11.707109899999999,15.7071,11.707109899999999C15.7071,11.707109899999999,14.2929,10.292890100000001,14.2929,10.292890100000001C14.2929,10.292890100000001,14.2929,10.292890100000001,14.2929,10.292890100000001ZM12.7071104,13.2928896C12.7071104,13.2928896,9.707109899999999,10.292890100000001,9.707109899999999,10.292890100000001C9.707109899999999,10.292890100000001,8.292890100000001,11.707109899999999,8.292890100000001,11.707109899999999C8.292890100000001,11.707109899999999,11.2928896,14.7071,11.2928896,14.7071C11.2928896,14.7071,12.7071104,13.2928896,12.7071104,13.2928896C12.7071104,13.2928896,12.7071104,13.2928896,12.7071104,13.2928896ZM13,14C13,14,13,4,13,4C13,4,11,4,11,4C11,4,11,14,11,14C11,14,13,14,13,14C13,14,13,14,13,14Z" fill="#0A0A28" fill-opacity="1"/></g></svg>