<svg xmlns="http://www.w3.org/2000/svg" xmlns:xlink="http://www.w3.org/1999/xlink" fill="none" version="1.1" width="24" height="24" viewBox="0 0 24 24"><defs><clipPath id="master_svg0_3_1532"><rect x="0" y="0" width="24" height="24" rx="0"/></clipPath></defs><g clip-path="url(#master_svg0_3_1532)"><path d="M11.64841220703125,8.751625014062501C11.42209240703125,8.5330324140625,11.11897230703125,8.4120846140625,10.80433220703125,8.4148207140625C10.48969240703125,8.417544414062501,10.188720507031249,8.5437488140625,9.96622850703125,8.7662406140625C9.74373630703125,8.9887328140625,9.61753220703125,9.2897043140625,9.61480830703125,9.6043448140625C9.61207250703125,9.9189849140625,9.73302030703125,10.2221050140625,9.95161220703125,10.4484243140625C9.95161220703125,10.4484243140625,13.551612807031251,14.0484244140625,13.551612807031251,14.0484244140625C13.77664800703125,14.2733884140625,14.08182050703125,14.3997724140625,14.40001250703125,14.3997724140625C14.718204507031249,14.3997724140625,15.023376907031249,14.2733884140625,15.24841210703125,14.0484244140625C15.24841210703125,14.0484244140625,18.848412207031252,10.4484243140625,18.848412207031252,10.4484243140625C19.06700520703125,10.2221050140625,19.18795320703125,9.9189849140625,19.18521720703125,9.6043448140625C19.18249320703125,9.2897043140625,19.05628920703125,8.9887328140625,18.83379720703125,8.7662406140625C18.61130420703125,8.5437488140625,18.31033320703125,8.417544414062501,17.99569220703125,8.4148207140625C17.68105220703125,8.4120846140625,17.37793220703125,8.5330324140625,17.15161320703125,8.751625014062501C17.15161320703125,8.751625014062501,15.60001280703125,10.3032245140625,15.60001280703125,10.3032245140625C15.60001280703125,10.3032245140625,15.60001280703125,6.0000245140625,15.60001280703125,6.0000245140625C15.60001280703125,6.0000245140625,19.20001220703125,6.0000245140625,19.20001220703125,6.0000245140625C19.83649320703125,6.0000245140625,20.44693320703125,6.2528765140625,20.89705320703125,6.7029724140625C21.34717320703125,7.1530566140625,21.60001320703125,7.7635088140625,21.60001320703125,8.4000244140625C21.60001320703125,8.4000244140625,21.60001320703125,14.4000244140625,21.60001320703125,14.4000244140625C21.60001320703125,15.0365054140625,21.34717320703125,15.6469454140625,20.89705320703125,16.0970654140625C20.44693320703125,16.5471854140625,19.83649320703125,16.8000254140625,19.20001220703125,16.8000254140625C19.20001220703125,16.8000254140625,9.60001230703125,16.8000254140625,9.60001230703125,16.8000254140625C8.96349630703125,16.8000254140625,8.353043107031251,16.5471854140625,7.90295541703125,16.0970654140625C7.45286902703125,15.6469454140625,7.200012207031251,15.0365054140625,7.20001220703125,14.4000244140625C7.20001220703125,14.4000244140625,7.20001220703125,8.4000244140625,7.20001220703125,8.4000244140625C7.20001220703125,7.7635088140625,7.45286902703125,7.1530566140625,7.90295541703125,6.7029724140625C8.353043107031251,6.2528765140625,8.96349630703125,6.0000245140625,9.60001230703125,6.0000245140625C9.60001230703125,6.0000245140625,13.20001220703125,6.0000245140625,13.20001220703125,6.0000245140625C13.20001220703125,6.0000245140625,13.20001220703125,10.3032245140625,13.20001220703125,10.3032245140625C13.20001220703125,10.3032245140625,11.64841220703125,8.751625014062501,11.64841220703125,8.751625014062501C11.64841220703125,8.751625014062501,11.64841220703125,8.751625014062501,11.64841220703125,8.751625014062501ZM13.20001220703125,3.6000244140625C13.20001220703125,3.2817652840625,13.326444607031249,2.9765404440625,13.55148080703125,2.7514960140625C13.77652880703125,2.5264528240625,14.08174850703125,2.4000244140625004,14.40001250703125,2.4000244140625C14.71827650703125,2.4000244140625004,15.02349610703125,2.5264528240625,15.24854470703125,2.7514960140625C15.47358040703125,2.9765404440625,15.60001280703125,3.2817652840625,15.60001280703125,3.6000244140625C15.60001280703125,3.6000244140625,15.60001280703125,6.0000245140625,15.60001280703125,6.0000245140625C15.60001280703125,6.0000245140625,13.20001220703125,6.0000245140625,13.20001220703125,6.0000245140625C13.20001220703125,6.0000245140625,13.20001220703125,3.6000244140625,13.20001220703125,3.6000244140625C13.20001220703125,3.6000244140625,13.20001220703125,3.6000244140625,13.20001220703125,3.6000244140625Z" fill="#0A0A28" fill-opacity="1"/><path d="M4.799993996484375,10.800048828125C4.163477996484375,10.800048828125,3.553024796484375,11.052905648125,3.102937106484375,11.502993228125C2.652850716484375,11.953080928125,2.3999938964843754,12.563532928125,2.399993896484375,13.200048928125C2.399993896484375,13.200048928125,2.399993896484375,19.200049428125,2.399993896484375,19.200049428125C2.3999938964843754,19.836565028125,2.652850716484375,20.447016728125,3.102937106484375,20.897101828125002C3.553024796484375,21.347197828124997,4.163477996484375,21.600048828125,4.799993996484375,21.600048828125C4.799993996484375,21.600048828125,14.399993896484375,21.600048828125,14.399993896484375,21.600048828125C15.036474896484375,21.600048828125,15.646914896484375,21.347197828124997,16.097034896484374,20.897101828125002C16.547154896484376,20.447016728125,16.799994896484375,19.836565028125,16.799994896484375,19.200049428125C16.799994896484375,19.200049428125,4.799993996484375,19.200049428125,4.799993996484375,19.200049428125C4.799993996484375,19.200049428125,4.799993996484375,10.800048828125,4.799993996484375,10.800048828125C4.799993996484375,10.800048828125,4.799993996484375,10.800048828125,4.799993996484375,10.800048828125Z" fill="#0A0A28" fill-opacity="1"/></g></svg>