<svg xmlns="http://www.w3.org/2000/svg" xmlns:xlink="http://www.w3.org/1999/xlink" fill="none" version="1.1" width="24" height="24" viewBox="0 0 24 24"><defs><clipPath id="master_svg0_3_1828"><rect x="0" y="0" width="24" height="24" rx="0"/></clipPath></defs><g clip-path="url(#master_svg0_3_1828)"><path d="M18,16C18,15.4477,17.552300000000002,15,17,15C16.447699999999998,15,16,15.4477,16,16C16,16,18,16,18,16C18,16,18,16,18,16ZM3,18C3,18,2,18,2,18C2,18,3,18,3,18C3,18,3,18,3,18ZM5,9C5,9,5,10,5,10C5,10,5,9,5,9C5,9,5,9,5,9ZM7,10C7.5522799,10,8,9.5522799,8,9C8,8.4477201,7.5522799,8,7,8C7,8,7,10,7,10C7,10,7,10,7,10ZM10,6C10.5522799,6,11,5.5522799,11,5C11,4.4477201,10.5522799,4,10,4C10,4,10,6,10,6C10,6,10,6,10,6ZM9,5C9,5,9,4,9,4C9,4,9,5,9,5C9,5,9,5,9,5ZM7,7C7,7,6,7,6,7C6,7,7,7,7,7C7,7,7,7,7,7ZM7,14C7,14,6,14,6,14C6,14,7,14,7,14C7,14,7,14,7,14ZM19,5C19,5,19,4,19,4C19,4,19,5,19,5C19,5,19,5,19,5ZM18,4C17.447699999999998,4,17,4.4477201,17,5C17,5.5522799,17.447699999999998,6,18,6C18,6,18,4,18,4C18,4,18,4,18,4ZM17.7071,9.707109899999999C18.0976,9.3165798,18.0976,8.6834202,17.7071,8.292890100000001C17.3166,7.90237,16.6834,7.90237,16.2929,8.292890100000001C16.2929,8.292890100000001,17.7071,9.707109899999999,17.7071,9.707109899999999C17.7071,9.707109899999999,17.7071,9.707109899999999,17.7071,9.707109899999999ZM14,12C14,12,13.2929,12.7071104,13.2929,12.7071104C13.6834,13.0976,14.3166,13.0976,14.7071,12.7071104C14.7071,12.7071104,14,12,14,12C14,12,14,12,14,12ZM11.7071104,8.292890100000001C11.3165798,7.90237,10.6834202,7.90237,10.292890100000001,8.292890100000001C9.902370000000001,8.6834202,9.902370000000001,9.3165798,10.292890100000001,9.707109899999999C10.292890100000001,9.707109899999999,11.7071104,8.292890100000001,11.7071104,8.292890100000001C11.7071104,8.292890100000001,11.7071104,8.292890100000001,11.7071104,8.292890100000001ZM15,3C15,2.4477149799999998,14.5523,2,14,2C13.4477,2,13,2.4477149799999998,13,3C13,3,15,3,15,3C15,3,15,3,15,3ZM16,16C16,16,16,18,16,18C16,18,18,18,18,18C18,18,18,16,18,16C18,16,16,16,16,16C16,16,16,16,16,16ZM16,18C16,18.2652,15.8946,18.5196,15.7071,18.7071C15.7071,18.7071,17.121299999999998,20.1213,17.121299999999998,20.1213C17.6839,19.558701,18,18.7957,18,18C18,18,16,18,16,18C16,18,16,18,16,18ZM15.7071,18.7071C15.5196,18.8946,15.2652,19,15,19C15,19,15,21,15,21C15.7957,21,16.5587,20.683901,17.121299999999998,20.1213C17.121299999999998,20.1213,15.7071,18.7071,15.7071,18.7071C15.7071,18.7071,15.7071,18.7071,15.7071,18.7071ZM15,19C15,19,5,19,5,19C5,19,5,21,5,21C5,21,15,21,15,21C15,21,15,19,15,19C15,19,15,19,15,19ZM5,19C4.73478,19,4.48043,18.8946,4.29289,18.7071C4.29289,18.7071,2.87868,20.1213,2.87868,20.1213C3.44128799,20.683901,4.20435,21,5,21C5,21,5,19,5,19C5,19,5,19,5,19ZM4.29289,18.7071C4.10536,18.5196,4,18.2652,4,18C4,18,2,18,2,18C2,18.7956,2.3160700199999997,19.558701,2.87868,20.1213C2.87868,20.1213,4.29289,18.7071,4.29289,18.7071C4.29289,18.7071,4.29289,18.7071,4.29289,18.7071ZM4,18C4,18,4,11,4,11C4,11,2,11,2,11C2,11,2,18,2,18C2,18,4,18,4,18C4,18,4,18,4,18ZM4,11C4,10.7347798,4.10536,10.4804301,4.29289,10.292890100000001C4.29289,10.292890100000001,2.87868,8.8786802,2.87868,8.8786802C2.3160700199999997,9.441289900000001,2,10.20435,2,11C2,11,4,11,4,11C4,11,4,11,4,11ZM4.29289,10.292890100000001C4.48043,10.105360000000001,4.73478,10,5,10C5,10,5,8,5,8C4.20435,8,3.44128799,8.316070100000001,2.87868,8.8786802C2.87868,8.8786802,4.29289,10.292890100000001,4.29289,10.292890100000001C4.29289,10.292890100000001,4.29289,10.292890100000001,4.29289,10.292890100000001ZM5,10C5,10,7,10,7,10C7,10,7,8,7,8C7,8,5,8,5,8C5,8,5,10,5,10C5,10,5,10,5,10ZM10,4C10,4,9,4,9,4C9,4,9,6,9,6C9,6,10,6,10,6C10,6,10,4,10,4C10,4,10,4,10,4ZM9,4C8.20435,4,7.4412899,4.31607,6.87868,4.87868C6.87868,4.87868,8.292890100000001,6.2928901,8.292890100000001,6.2928901C8.4804301,6.10536,8.7347798,6,9,6C9,6,9,4,9,4C9,4,9,4,9,4ZM6.87868,4.87868C6.3160701,5.4412899,6,6.20435,6,7C6,7,8,7,8,7C8,6.7347801,8.105360000000001,6.4804299,8.292890100000001,6.2928901C8.292890100000001,6.2928901,6.87868,4.87868,6.87868,4.87868C6.87868,4.87868,6.87868,4.87868,6.87868,4.87868ZM6,7C6,7,6,14,6,14C6,14,8,14,8,14C8,14,8,7,8,7C8,7,6,7,6,7C6,7,6,7,6,7ZM6,14C6,14.7956,6.3160701,15.5587,6.87868,16.121299999999998C6.87868,16.121299999999998,8.292890100000001,14.7071,8.292890100000001,14.7071C8.105360000000001,14.5196,8,14.2652,8,14C8,14,6,14,6,14C6,14,6,14,6,14ZM6.87868,16.121299999999998C7.4412899,16.6839,8.20435,17,9,17C9,17,9,15,9,15C8.7347798,15,8.4804301,14.8946,8.292890100000001,14.7071C8.292890100000001,14.7071,6.87868,16.121299999999998,6.87868,16.121299999999998C6.87868,16.121299999999998,6.87868,16.121299999999998,6.87868,16.121299999999998ZM9,17C9,17,19,17,19,17C19,17,19,15,19,15C19,15,9,15,9,15C9,15,9,17,9,17C9,17,9,17,9,17ZM19,17C19.7957,17,20.558701,16.6839,21.1213,16.121299999999998C21.1213,16.121299999999998,19.7071,14.7071,19.7071,14.7071C19.5196,14.8946,19.2652,15,19,15C19,15,19,17,19,17C19,17,19,17,19,17ZM21.1213,16.121299999999998C21.683901,15.5587,22,14.7957,22,14C22,14,20,14,20,14C20,14.2652,19.8946,14.5196,19.7071,14.7071C19.7071,14.7071,21.1213,16.121299999999998,21.1213,16.121299999999998C21.1213,16.121299999999998,21.1213,16.121299999999998,21.1213,16.121299999999998ZM22,14C22,14,22,7,22,7C22,7,20,7,20,7C20,7,20,14,20,14C20,14,22,14,22,14C22,14,22,14,22,14ZM22,7C22,6.20435,21.683901,5.4412899,21.1213,4.87868C21.1213,4.87868,19.7071,6.2928901,19.7071,6.2928901C19.8946,6.4804299,20,6.7347801,20,7C20,7,22,7,22,7C22,7,22,7,22,7ZM21.1213,4.87868C20.558701,4.31607,19.7957,4,19,4C19,4,19,6,19,6C19.2652,6,19.5196,6.10536,19.7071,6.2928901C19.7071,6.2928901,21.1213,4.87868,21.1213,4.87868C21.1213,4.87868,21.1213,4.87868,21.1213,4.87868ZM19,4C19,4,18,4,18,4C18,4,18,6,18,6C18,6,19,6,19,6C19,6,19,4,19,4C19,4,19,4,19,4ZM16.2929,8.292890100000001C16.2929,8.292890100000001,13.2929,11.2928896,13.2929,11.2928896C13.2929,11.2928896,14.7071,12.7071104,14.7071,12.7071104C14.7071,12.7071104,17.7071,9.707109899999999,17.7071,9.707109899999999C17.7071,9.707109899999999,16.2929,8.292890100000001,16.2929,8.292890100000001C16.2929,8.292890100000001,16.2929,8.292890100000001,16.2929,8.292890100000001ZM14.7071,11.2928896C14.7071,11.2928896,11.7071104,8.292890100000001,11.7071104,8.292890100000001C11.7071104,8.292890100000001,10.292890100000001,9.707109899999999,10.292890100000001,9.707109899999999C10.292890100000001,9.707109899999999,13.2929,12.7071104,13.2929,12.7071104C13.2929,12.7071104,14.7071,11.2928896,14.7071,11.2928896C14.7071,11.2928896,14.7071,11.2928896,14.7071,11.2928896ZM15,12C15,12,15,3,15,3C15,3,13,3,13,3C13,3,13,12,13,12C13,12,15,12,15,12C15,12,15,12,15,12Z" fill="#0A0A28" fill-opacity="1"/></g></svg>