<svg xmlns="http://www.w3.org/2000/svg" xmlns:xlink="http://www.w3.org/1999/xlink" fill="none" version="1.1" width="24" height="24" viewBox="0 0 24 24"><defs><clipPath id="master_svg0_3_1498"><rect x="0" y="0" width="24" height="24" rx="0"/></clipPath></defs><g clip-path="url(#master_svg0_3_1498)"><path d="M9.248393996484374,12.3515758859375C9.137693896484375,12.2369641859375,9.005285696484375,12.1455478859375,8.858874296484375,12.0826558859375C8.712473896484376,12.0197639859375,8.555010296484376,11.9866561859375,8.395673796484374,11.9852761859375C8.236337696484375,11.9838962859375,8.078321896484375,12.0142554859375,7.930853796484375,12.0745916859375C7.783373796484375,12.1349277859375,7.649393996484375,12.2240275859375,7.536714096484375,12.3367080859375C7.424045996484375,12.4493760859375,7.334946196484375,12.5833558859375,7.274609996484375,12.7308358859375C7.214273896484375,12.8783034859375,7.183914196484375,13.0363196859375,7.185294196484375,13.1956557859375C7.186674096484375,13.3549918859375,7.219781896484375,13.5124559859375,7.282674296484375,13.6588555859375C7.345566296484375,13.8052675859375,7.436982196484375,13.9376755859375,7.551594296484375,14.0483755859375C7.551594296484375,14.0483755859375,11.151594196484375,17.6483755859375,11.151594196484375,17.6483755859375C11.376629796484375,17.873375585937502,11.681801796484375,17.9997355859375,11.999994296484376,17.9997355859375C12.318185796484375,17.9997355859375,12.623358896484374,17.873375585937502,12.848393896484374,17.6483755859375C12.848393896484374,17.6483755859375,16.448393896484376,14.0483755859375,16.448393896484376,14.0483755859375C16.667034896484374,13.8220555859375,16.787993896484373,13.5189361859375,16.785235896484373,13.2042960859375C16.782474896484374,12.8896560859375,16.656234896484374,12.5886840859375,16.433754896484373,12.3661918859375C16.211274896484376,12.1436996859375,15.910314896484374,12.0174960859375,15.595674896484375,12.0147723859375C15.281033896484375,12.0120353859375,14.977913896484376,12.1329841859375,14.751594896484375,12.3515758859375C14.751594896484375,12.3515758859375,13.199993896484376,13.9031765859375,13.199993896484376,13.9031765859375C13.199993896484376,13.9031765859375,13.199993896484376,7.1999756859375,13.199993896484376,7.1999756859375C13.199993896484376,7.1999756859375,19.199994896484377,7.1999756859375,19.199994896484377,7.1999756859375C19.836474896484376,7.1999756859375,20.446914896484376,7.4528276859375,20.897033896484373,7.9029235859375C21.347154896484376,8.3530077859375,21.599994896484375,8.9634599859375,21.599994896484375,9.5999755859375C21.599994896484375,9.5999755859375,21.599994896484375,17.9999765859375,21.599994896484375,17.9999765859375C21.599994896484375,18.636456585937502,21.347154896484376,19.2468955859375,20.897033896484373,19.6970155859375C20.446914896484376,20.1471365859375,19.836474896484376,20.3999765859375,19.199994896484377,20.3999765859375C19.199994896484377,20.3999765859375,4.799993996484375,20.3999765859375,4.799993996484375,20.3999765859375C4.163477996484375,20.3999765859375,3.553024796484375,20.1471365859375,3.102937106484375,19.6970155859375C2.652850716484375,19.2468955859375,2.3999938964843754,18.636456585937502,2.399993896484375,17.9999765859375C2.399993896484375,17.9999765859375,2.399993896484375,9.5999755859375,2.399993896484375,9.5999755859375C2.3999938964843746,8.9634599859375,2.652850716484375,8.3530077859375,3.102937106484375,7.9029235859375C3.553024796484375,7.4528276859375,4.163477996484375,7.1999756859375,4.799993996484375,7.1999756859375C4.799993996484375,7.1999756859375,10.799994496484375,7.1999756859375,10.799994496484375,7.1999756859375C10.799994496484375,7.1999756859375,10.799994496484375,13.9031765859375,10.799994496484375,13.9031765859375C10.799994496484375,13.9031765859375,9.248393996484374,12.3515758859375,9.248393996484374,12.3515758859375C9.248393996484374,12.3515758859375,9.248393996484374,12.3515758859375,9.248393996484374,12.3515758859375C9.248393996484374,12.3515758859375,9.248393996484374,12.3515758859375,9.248393996484374,12.3515758859375ZM10.799994496484375,4.7999755859375C10.799994496484375,4.4817164559375,10.926425896484375,4.1764916159375,11.151462596484375,3.9514471859375C11.376510596484374,3.7264039959375,11.681730296484375,3.5999755859375004,11.999994296484376,3.5999755859375C12.318258296484375,3.5999755859375004,12.623478896484375,3.7264039959375,12.848526896484374,3.9514471859375C13.073562896484376,4.1764916159375,13.199993896484376,4.4817164559375,13.199993896484376,4.7999755859375C13.199993896484376,4.7999755859375,13.199993896484376,7.1999756859375,13.199993896484376,7.1999756859375C13.199993896484376,7.1999756859375,10.799994496484375,7.1999756859375,10.799994496484375,7.1999756859375C10.799994496484375,7.1999756859375,10.799994496484375,4.7999755859375,10.799994496484375,4.7999755859375C10.799994496484375,4.7999755859375,10.799994496484375,4.7999755859375,10.799994496484375,4.7999755859375Z" fill="#0A0A28" fill-opacity="1"/></g></svg>