<svg xmlns="http://www.w3.org/2000/svg" xmlns:xlink="http://www.w3.org/1999/xlink" fill="none" version="1.1" width="24" height="24" viewBox="0 0 24 24"><defs><clipPath id="master_svg0_3_1771"><rect x="0" y="0" width="24" height="24" rx="0"/></clipPath></defs><g clip-path="url(#master_svg0_3_1771)"><path d="M11.99998188984375,2.4000244140625C12.31824588984375,2.4000244140625004,12.62346658984375,2.5264528240625,12.84851358984375,2.7514960140625C13.07355058984375,2.9765404440625,13.19998158984375,3.2817652840625,13.19998158984375,3.6000244140625C13.19998158984375,3.6000244140625,13.19998158984375,5.187624414062499,13.19998158984375,5.187624414062499C13.19998158984375,5.187624414062499,17.94476958984375,7.0860247140625,17.94476958984375,7.0860247140625C17.94476958984375,7.0860247140625,19.86357158984375,6.1260245140625,19.86357158984375,6.1260245140625C20.14845058984375,5.983764414062501,20.47809058984375,5.9604847140625,20.78013058984375,6.0612964140625C21.08217058984375,6.1621206140625,21.33176958984375,6.378780614062499,21.47397058984375,6.6636247140625C21.61629058984375,6.9484687140625,21.63957058984375,7.2781567140625,21.53865058984375,7.5801606140625C21.43785058984375,7.8821764140625,21.22125058984375,8.1317649140625,20.93637058984375,8.2740245140625C20.93637058984375,8.2740245140625,19.45676958984375,9.0132251140625,19.45676958984375,9.0132251140625C19.45676958984375,9.0132251140625,21.54236958984375,15.5172244140625,21.54236958984375,15.5172244140625C21.61304858984375,15.7379044140625,21.61845058984375,15.9741854140625,21.55773158984375,16.1978654140625C21.49701158984375,16.4214244140625,21.37293058984375,16.6226644140625,21.20037058984375,16.777224414062502C20.32101058984375,17.5657444140625,19.18113158984375,18.0012254140625,17.99996958984375,18.0000244140625C16.81881058984375,18.0012254140625,15.67893058984375,17.5657444140625,14.79956958984375,16.777224414062502C14.62701058984375,16.6226644140625,14.50292958984375,16.4214244140625,14.44221058984375,16.1978654140625C14.38154958984375,15.9741854140625,14.38687658984375,15.7379044140625,14.45756958984375,15.5172244140625C14.45756958984375,15.5172244140625,16.515570589843747,9.0984244140625,16.515570589843747,9.0984244140625C16.515570589843747,9.0984244140625,13.19998158984375,7.7724247140625,13.19998158984375,7.7724247140625C13.19998158984375,7.7724247140625,13.19998158984375,19.2000254140625,13.19998158984375,19.2000254140625C13.19998158984375,19.2000254140625,15.59996958984375,19.2000254140625,15.59996958984375,19.2000254140625C15.91820958984375,19.2000254140625,16.22349058984375,19.3265054140625,16.448491589843748,19.5515064140625C16.67360958984375,19.7765044140625,16.799969589843748,20.0817854140625,16.799969589843748,20.4000244140625C16.799969589843748,20.7182654140625,16.67360958984375,21.0235444140625,16.448491589843748,21.2485444140625C16.22349058984375,21.4735454140625,15.91820958984375,21.6000254140625,15.59996958984375,21.6000254140625C15.59996958984375,21.6000254140625,8.39998198984375,21.6000254140625,8.39998198984375,21.6000254140625C8.08172988984375,21.6000254140625,7.77649788984375,21.4735454140625,7.55146218984375,21.2485444140625C7.32641408984375,21.0235444140625,7.19998168984375,20.7182654140625,7.19998168984375,20.4000244140625C7.19998168984375,20.0817854140625,7.32641408984375,19.7765044140625,7.55146218984375,19.5515064140625C7.77649788984375,19.3265054140625,8.08172988984375,19.2000254140625,8.39998198984375,19.2000254140625C8.39998198984375,19.2000254140625,10.79998208984375,19.2000254140625,10.79998208984375,19.2000254140625C10.79998208984375,19.2000254140625,10.79998208984375,7.7724247140625,10.79998208984375,7.7724247140625C10.79998208984375,7.7724247140625,7.48438168984375,9.0984244140625,7.48438168984375,9.0984244140625C7.48438168984375,9.0984244140625,9.54238228984375,15.5172244140625,9.54238228984375,15.5172244140625C9.613086189843749,15.7379044140625,9.61842588984375,15.9741854140625,9.55774168984375,16.1978654140625C9.49704598984375,16.4214244140625,9.37293008984375,16.6226644140625,9.20038178984375,16.777224414062502C8.32098578984375,17.5657444140625,7.18110558984375,18.0012254140625,5.99998188984375,18.0000244140625C4.81885768984375,18.0012254140625,3.6789896898437497,17.5657444140625,2.79958399984375,16.777224414062502C2.62703118984375,16.6226644140625,2.50291963984375,16.4214244140625,2.44223203184375,16.1978654140625C2.38154442984375,15.9741854140625,2.38687638884375,15.7379044140625,2.45758398984375,15.5172244140625C2.45758398984375,15.5172244140625,4.54318168984375,9.0132251140625,4.54318168984375,9.0132251140625C4.54318168984375,9.0132251140625,3.0635840298437502,8.2728248140625,3.0635840298437502,8.2728248140625C2.78911038984375,8.1248164140625,2.58303319984375,7.8757686140625,2.48900431384375,7.5784445140625C2.39497571764375,7.2811208140625,2.42038135184375,6.9588728140625,2.55983960984375,6.6799569140625C2.69929879984375,6.4010405140625,2.94185482984375,6.1873567140625,3.23613196984375,6.0841925140625C3.53040918984375,5.9810164140625,3.8532896898437503,5.9964485140625,4.13638158984375,6.1272244140625C4.13638158984375,6.1272244140625,6.0551817898437506,7.0860247140625,6.0551817898437506,7.0860247140625C6.0551817898437506,7.0860247140625,10.79998208984375,5.187624414062499,10.79998208984375,5.187624414062499C10.79998208984375,5.187624414062499,10.79998208984375,3.6000244140625,10.79998208984375,3.6000244140625C10.79998208984375,3.2817652840625,10.92641448984375,2.9765404440625,11.15146258984375,2.7514960140625C11.37649818984375,2.5264528240625,11.68173028984375,2.4000244140625004,11.99998188984375,2.4000244140625C11.99998188984375,2.4000244140625,11.99998188984375,2.4000244140625,11.99998188984375,2.4000244140625C11.99998188984375,2.4000244140625,11.99998188984375,2.4000244140625,11.99998188984375,2.4000244140625ZM5.99998188984375,12.3288250140625C5.99998188984375,12.3288250140625,5.0183815898437505,15.3912244140625,5.0183815898437505,15.3912244140625C5.31838178984375,15.5256244140625,5.64958168984375,15.6000254140625,5.99998188984375,15.6000254140625C6.3503815898437495,15.6000254140625,6.68278168984375,15.5256244140625,6.98158168984375,15.3912244140625C6.98158168984375,15.3912244140625,5.99998188984375,12.3288250140625,5.99998188984375,12.3288250140625C5.99998188984375,12.3288250140625,5.99998188984375,12.3288250140625,5.99998188984375,12.3288250140625ZM17.99996958984375,12.3288250140625C17.99996958984375,12.3288250140625,17.01836958984375,15.3912244140625,17.01836958984375,15.3912244140625C17.318369589843748,15.5256244140625,17.64956958984375,15.6000254140625,17.99996958984375,15.6000254140625C18.35037058984375,15.6000254140625,18.68276958984375,15.5256244140625,18.98157158984375,15.3912244140625C18.98157158984375,15.3912244140625,17.99996958984375,12.3288250140625,17.99996958984375,12.3288250140625C17.99996958984375,12.3288250140625,17.99996958984375,12.3288250140625,17.99996958984375,12.3288250140625Z" fill-rule="evenodd" fill="#0A0A28" fill-opacity="1"/></g></svg>