<svg xmlns="http://www.w3.org/2000/svg" xmlns:xlink="http://www.w3.org/1999/xlink" fill="none" version="1.1" width="24" height="24" viewBox="0 0 24 24"><defs><clipPath id="master_svg0_3_1535"><rect x="0" y="0" width="24" height="24" rx="0"/></clipPath></defs><g clip-path="url(#master_svg0_3_1535)"><path d="M3.316228,5.0513201C2.792284,4.87667,2.22596401,5.159830100000001,2.05131698,5.6837699C1.87667,6.20772,2.15982902,6.774039999999999,2.683772,6.9486799C2.683772,6.9486799,3.316228,5.0513201,3.316228,5.0513201C3.316228,5.0513201,3.316228,5.0513201,3.316228,5.0513201ZM3,16C3,16,2.05131698,15.6838,2.05131698,15.6838C1.91518,16.0922,2.05569899,16.5419,2.40013999,16.8001C2.40013999,16.8001,3,16,3,16C3,16,3,16,3,16ZM6.000500000000001,16.9999C6.000500000000001,16.9999,6.000500000000001,17.9999,6.000500000000001,17.9999C6.000500000000001,17.9999,6.000500000000001,16.9999,6.000500000000001,16.9999C6.000500000000001,16.9999,6.000500000000001,16.9999,6.000500000000001,16.9999ZM9.0009999,16C9.0009999,16,9.6008601,16.8001,9.6008601,16.8001C9.9453301,16.541800000000002,10.0858402,16.092100000000002,9.9496498,15.6837C9.9496498,15.6837,9.0009999,16,9.0009999,16C9.0009999,16,9.0009999,16,9.0009999,16ZM8.0513201,16.316200000000002C8.2259598,16.8402,8.7922802,17.1233,9.3162298,16.948700000000002C9.8401699,16.774,10.1233301,16.207700000000003,9.9486799,15.6838C9.9486799,15.6838,8.0513201,16.316200000000002,8.0513201,16.316200000000002C8.0513201,16.316200000000002,8.0513201,16.316200000000002,8.0513201,16.316200000000002ZM21.3162,6.9486799C21.8402,6.774039999999999,22.123301,6.20772,21.9487,5.6837699C21.774,5.159830100000001,21.207701,4.87667,20.6838,5.0513201C20.6838,5.0513201,21.3162,6.9486799,21.3162,6.9486799C21.3162,6.9486799,21.3162,6.9486799,21.3162,6.9486799ZM15,16C15,16,14.0513,15.6838,14.0513,15.6838C13.9152,16.0922,14.0557,16.5419,14.4001,16.8001C14.4001,16.8001,15,16,15,16C15,16,15,16,15,16ZM21.000999,16C21.000999,16,21.600901,16.8001,21.600901,16.8001C21.945299,16.541800000000002,22.0858,16.092100000000002,21.949699,15.6837C21.949699,15.6837,21.000999,16,21.000999,16C21.000999,16,21.000999,16,21.000999,16ZM13,3C13,2.4477149799999998,12.55229,2,12,2C11.44771,2,11,2.4477149799999998,11,3C11,3,13,3,13,3C13,3,13,3,13,3ZM9,20C8.4477201,20,8,20.447701,8,21C8,21.552299,8.4477201,22,9,22C9,22,9,20,9,20C9,20,9,20,9,20ZM15,22C15.5523,22,16,21.552299,16,21C16,20.447701,15.5523,20,15,20C15,20,15,22,15,22C15,22,15,22,15,22ZM2.683772,6.9486799C2.683772,6.9486799,5.6837699,7.9486799,5.6837699,7.9486799C5.6837699,7.9486799,6.3162301,6.0513201,6.3162301,6.0513201C6.3162301,6.0513201,3.316228,5.0513201,3.316228,5.0513201C3.316228,5.0513201,2.683772,6.9486799,2.683772,6.9486799C2.683772,6.9486799,2.683772,6.9486799,2.683772,6.9486799ZM5.0513201,6.6837699C5.0513201,6.6837699,2.05131698,15.6838,2.05131698,15.6838C2.05131698,15.6838,3.94868302,16.316200000000002,3.94868302,16.316200000000002C3.94868302,16.316200000000002,6.9486799,7.3162298,6.9486799,7.3162298C6.9486799,7.3162298,5.0513201,6.6837699,5.0513201,6.6837699C5.0513201,6.6837699,5.0513201,6.6837699,5.0513201,6.6837699ZM2.40013999,16.8001C3.438912,17.5789,4.7022001,17.9999,6.000500000000001,17.9999C6.000500000000001,17.9999,6.000500000000001,15.9999,6.000500000000001,15.9999C5.13483,15.9999,4.29249,15.7192,3.59986001,15.1999C3.59986001,15.1999,2.40013999,16.8001,2.40013999,16.8001C2.40013999,16.8001,2.40013999,16.8001,2.40013999,16.8001ZM6.000500000000001,17.9999C7.2988,17.9999,8.5620899,17.5789,9.6008601,16.8001C9.6008601,16.8001,8.4011402,15.1999,8.4011402,15.1999C7.7085099,15.7192,6.8661699,15.9999,6.000500000000001,15.9999C6.000500000000001,15.9999,6.000500000000001,17.9999,6.000500000000001,17.9999C6.000500000000001,17.9999,6.000500000000001,17.9999,6.000500000000001,17.9999ZM9.9496498,15.6837C9.9496498,15.6837,6.9486498999999995,6.6836801,6.9486498999999995,6.6836801C6.9486498999999995,6.6836801,5.0513501000000005,7.3163199,5.0513501000000005,7.3163199C5.0513501000000005,7.3163199,8.05235,16.3163,8.05235,16.3163C8.05235,16.3163,9.9496498,15.6837,9.9496498,15.6837C9.9496498,15.6837,9.9496498,15.6837,9.9496498,15.6837ZM5.0513201,7.3162298C5.0513201,7.3162298,8.0513201,16.316200000000002,8.0513201,16.316200000000002C8.0513201,16.316200000000002,9.9486799,15.6838,9.9486799,15.6838C9.9486799,15.6838,6.9486799,6.6837699,6.9486799,6.6837699C6.9486799,6.6837699,5.0513201,7.3162298,5.0513201,7.3162298C5.0513201,7.3162298,5.0513201,7.3162298,5.0513201,7.3162298ZM6.3162301,7.9486799C6.3162301,7.9486799,12.3162298,5.9486799,12.3162298,5.9486799C12.3162298,5.9486799,11.6837702,4.0513200000000005,11.6837702,4.0513200000000005C11.6837702,4.0513200000000005,5.6837699,6.0513201,5.6837699,6.0513201C5.6837699,6.0513201,6.3162301,7.9486799,6.3162301,7.9486799C6.3162301,7.9486799,6.3162301,7.9486799,6.3162301,7.9486799ZM18.316200000000002,7.9486799C18.316200000000002,7.9486799,21.3162,6.9486799,21.3162,6.9486799C21.3162,6.9486799,20.6838,5.0513201,20.6838,5.0513201C20.6838,5.0513201,17.683799999999998,6.0513201,17.683799999999998,6.0513201C17.683799999999998,6.0513201,18.316200000000002,7.9486799,18.316200000000002,7.9486799C18.316200000000002,7.9486799,18.316200000000002,7.9486799,18.316200000000002,7.9486799ZM17.051299999999998,6.6837699C17.051299999999998,6.6837699,14.0513,15.6838,14.0513,15.6838C14.0513,15.6838,15.9487,16.316200000000002,15.9487,16.316200000000002C15.9487,16.316200000000002,18.948700000000002,7.3162298,18.948700000000002,7.3162298C18.948700000000002,7.3162298,17.051299999999998,6.6837699,17.051299999999998,6.6837699C17.051299999999998,6.6837699,17.051299999999998,6.6837699,17.051299999999998,6.6837699ZM14.4001,16.8001C15.4389,17.5789,16.702199999999998,17.9999,18.000500000000002,17.9999C18.000500000000002,17.9999,18.000500000000002,15.9999,18.000500000000002,15.9999C17.1348,15.9999,16.2925,15.7192,15.5999,15.1999C15.5999,15.1999,14.4001,16.8001,14.4001,16.8001C14.4001,16.8001,14.4001,16.8001,14.4001,16.8001ZM18.000500000000002,17.9999C19.2988,17.9999,20.562099,17.5789,21.600901,16.8001C21.600901,16.8001,20.4011,15.1999,20.4011,15.1999C19.7085,15.7192,18.8662,15.9999,18.000500000000002,15.9999C18.000500000000002,15.9999,18.000500000000002,17.9999,18.000500000000002,17.9999C18.000500000000002,17.9999,18.000500000000002,17.9999,18.000500000000002,17.9999ZM21.949699,15.6837C21.949699,15.6837,18.948700000000002,6.6836801,18.948700000000002,6.6836801C18.948700000000002,6.6836801,17.051299999999998,7.3163199,17.051299999999998,7.3163199C17.051299999999998,7.3163199,20.052299,16.3163,20.052299,16.3163C20.052299,16.3163,21.949699,15.6837,21.949699,15.6837C21.949699,15.6837,21.949699,15.6837,21.949699,15.6837ZM18.316200000000002,6.0513201C18.316200000000002,6.0513201,12.3162298,4.0513200000000005,12.3162298,4.0513200000000005C12.3162298,4.0513200000000005,11.6837702,5.9486799,11.6837702,5.9486799C11.6837702,5.9486799,17.683799999999998,7.9486799,17.683799999999998,7.9486799C17.683799999999998,7.9486799,18.316200000000002,6.0513201,18.316200000000002,6.0513201C18.316200000000002,6.0513201,18.316200000000002,6.0513201,18.316200000000002,6.0513201ZM11,3C11,3,11,5,11,5C11,5,13,5,13,5C13,5,13,3,13,3C13,3,11,3,11,3C11,3,11,3,11,3ZM13,21C13,21,13,5,13,5C13,5,11,5,11,5C11,5,11,21,11,21C11,21,13,21,13,21C13,21,13,21,13,21ZM12,20C12,20,9,20,9,20C9,20,9,22,9,22C9,22,12,22,12,22C12,22,12,20,12,20C12,20,12,20,12,20ZM12,22C12,22,15,22,15,22C15,22,15,20,15,20C15,20,12,20,12,20C12,20,12,22,12,22C12,22,12,22,12,22Z" fill="#0A0A28" fill-opacity="1"/></g></svg>