<svg xmlns="http://www.w3.org/2000/svg" xmlns:xlink="http://www.w3.org/1999/xlink" fill="none" version="1.1" width="24" height="24" viewBox="0 0 24 24"><defs><clipPath id="master_svg0_3_2066"><rect x="0" y="0" width="24" height="24" rx="0"/></clipPath></defs><g clip-path="url(#master_svg0_3_2066)"><path d="M14.828145882034303,13.413895882034302C14.437545882034302,13.023366182034302,13.804415982034302,13.023366182034302,13.413895882034302,13.413895882034302C13.023366182034302,13.804415982034302,13.023366182034302,14.437545882034302,13.413895882034302,14.828145882034303C13.413895882034302,14.828145882034303,14.828145882034303,13.413895882034302,14.828145882034303,13.413895882034302C14.828145882034303,13.413895882034302,14.828145882034303,13.413895882034302,14.828145882034303,13.413895882034302ZM18.2928458820343,19.707145882034304C18.683445882034302,20.097645882034303,19.3165458820343,20.097645882034303,19.707145882034304,19.707145882034304C20.097645882034303,19.3165458820343,20.097645882034303,18.683445882034302,19.707145882034304,18.2928458820343C19.707145882034304,18.2928458820343,18.2928458820343,19.707145882034304,18.2928458820343,19.707145882034304C18.2928458820343,19.707145882034304,18.2928458820343,19.707145882034304,18.2928458820343,19.707145882034304ZM11.999995482034302,11.999995482034302C11.999995482034302,11.999995482034302,12.707105882034302,12.707105882034302,12.707105882034302,12.707105882034302C12.707105882034302,12.707105882034302,11.999995482034302,11.999995482034302,11.999995482034302,11.999995482034302C11.999995482034302,11.999995482034302,11.999995482034302,11.999995482034302,11.999995482034302,11.999995482034302ZM19.707145882034304,5.707105882034302C20.097645882034303,5.3165858820343015,20.097645882034303,4.683417852034301,19.707145882034304,4.292892872034302C19.3165458820343,3.9023688810343016,18.683445882034302,3.9023689850343017,18.2928458820343,4.292892872034302C18.2928458820343,4.292892872034302,19.707145882034304,5.707105882034302,19.707145882034304,5.707105882034302C19.707145882034304,5.707105882034302,19.707145882034304,5.707105882034302,19.707145882034304,5.707105882034302ZM3.9992458820343018,17.000545882034302C3.9992458820343018,17.000545882034302,4.999245882034302,17.000545882034302,4.999245882034302,17.000545882034302C4.999245882034302,17.000545882034302,3.9992458820343018,17.000545882034302,3.9992458820343018,17.000545882034302C3.9992458820343018,17.000545882034302,3.9992458820343018,17.000545882034302,3.9992458820343018,17.000545882034302ZM9.999756082034303,17.000545882034302C9.999756082034303,17.000545882034302,10.999756082034303,17.000545882034302,10.999756082034303,17.000545882034302C10.999756082034303,17.000545882034302,9.999756082034303,17.000545882034302,9.999756082034303,17.000545882034302C9.999756082034303,17.000545882034302,9.999756082034303,17.000545882034302,9.999756082034303,17.000545882034302ZM3.9992458820343018,6.999495982034302C3.9992458820343018,6.999495982034302,2.9992458820343018,6.999495982034302,2.9992458820343018,6.999495982034302C2.9992458820343018,6.999495982034302,3.9992458820343018,6.999495982034302,3.9992458820343018,6.999495982034302C3.9992458820343018,6.999495982034302,3.9992458820343018,6.999495982034302,3.9992458820343018,6.999495982034302ZM6.999495982034302,9.999756082034303C6.999495982034302,9.999756082034303,6.999495982034302,10.999756082034303,6.999495982034302,10.999756082034303C6.999495982034302,10.999756082034303,6.999495982034302,9.999756082034303,6.999495982034302,9.999756082034303C6.999495982034302,9.999756082034303,6.999495982034302,9.999756082034303,6.999495982034302,9.999756082034303ZM13.413895882034302,14.828145882034303C13.413895882034302,14.828145882034303,18.2928458820343,19.707145882034304,18.2928458820343,19.707145882034304C18.2928458820343,19.707145882034304,19.707145882034304,18.2928458820343,19.707145882034304,18.2928458820343C19.707145882034304,18.2928458820343,14.828145882034303,13.413895882034302,14.828145882034303,13.413895882034302C14.828145882034303,13.413895882034302,13.413895882034302,14.828145882034303,13.413895882034302,14.828145882034303C13.413895882034302,14.828145882034303,13.413895882034302,14.828145882034303,13.413895882034302,14.828145882034303ZM12.707105882034302,12.707105882034302C12.707105882034302,12.707105882034302,19.707145882034304,5.707105882034302,19.707145882034304,5.707105882034302C19.707145882034304,5.707105882034302,18.2928458820343,4.292892872034302,18.2928458820343,4.292892872034302C18.2928458820343,4.292892872034302,11.292896082034302,11.292896082034302,11.292896082034302,11.292896082034302C11.292896082034302,11.292896082034302,12.707105882034302,12.707105882034302,12.707105882034302,12.707105882034302C12.707105882034302,12.707105882034302,12.707105882034302,12.707105882034302,12.707105882034302,12.707105882034302ZM11.292896082034302,11.292896082034302C11.292896082034302,11.292896082034302,8.413895882034302,14.171845882034301,8.413895882034302,14.171845882034301C8.413895882034302,14.171845882034301,9.828105682034302,15.586145882034302,9.828105682034302,15.586145882034302C9.828105682034302,15.586145882034302,12.707105882034302,12.707105882034302,12.707105882034302,12.707105882034302C12.707105882034302,12.707105882034302,11.292896082034302,11.292896082034302,11.292896082034302,11.292896082034302C11.292896082034302,11.292896082034302,11.292896082034302,11.292896082034302,11.292896082034302,11.292896082034302ZM12.707105882034302,11.292896082034302C12.707105882034302,11.292896082034302,9.828105682034302,8.413895882034302,9.828105682034302,8.413895882034302C9.828105682034302,8.413895882034302,8.413895882034302,9.828105682034302,8.413895882034302,9.828105682034302C8.413895882034302,9.828105682034302,11.292896082034302,12.707105882034302,11.292896082034302,12.707105882034302C11.292896082034302,12.707105882034302,12.707105882034302,11.292896082034302,12.707105882034302,11.292896082034302C12.707105882034302,11.292896082034302,12.707105882034302,11.292896082034302,12.707105882034302,11.292896082034302ZM9.828105682034302,14.171845882034301C9.0779158820343,13.421695982034302,8.060435982034303,13.000246282034302,6.999495982034302,13.000246282034302C6.999495982034302,13.000246282034302,6.999495982034302,15.000245882034301,6.999495982034302,15.000245882034301C7.529995882034301,15.000245882034301,8.038775682034302,15.210945882034302,8.413895882034302,15.586145882034302C8.413895882034302,15.586145882034302,9.828105682034302,14.171845882034301,9.828105682034302,14.171845882034301C9.828105682034302,14.171845882034301,9.828105682034302,14.171845882034301,9.828105682034302,14.171845882034301ZM6.999495982034302,13.000246282034302C5.938565882034302,13.000246282034302,4.921085892034302,13.421695982034302,4.170892882034302,14.171845882034301C4.170892882034302,14.171845882034301,5.585105882034302,15.586145882034302,5.585105882034302,15.586145882034302C5.960225982034302,15.210945882034302,6.468995782034302,15.000245882034301,6.999495982034302,15.000245882034301C6.999495982034302,15.000245882034301,6.999495982034302,13.000246282034302,6.999495982034302,13.000246282034302C6.999495982034302,13.000246282034302,6.999495982034302,13.000246282034302,6.999495982034302,13.000246282034302ZM4.170892882034302,14.171845882034301C3.420699892034302,14.922045882034302,2.9992458820343018,15.939545882034302,2.9992458820343018,17.000545882034302C2.9992458820343018,17.000545882034302,4.999245882034302,17.000545882034302,4.999245882034302,17.000545882034302C4.999245882034302,16.470045882034302,5.209985882034301,15.961245882034302,5.585105882034302,15.586145882034302C5.585105882034302,15.586145882034302,4.170892882034302,14.171845882034301,4.170892882034302,14.171845882034301C4.170892882034302,14.171845882034301,4.170892882034302,14.171845882034301,4.170892882034302,14.171845882034301ZM2.9992458820343018,17.000545882034302C2.9992458820343018,18.061445882034302,3.420699892034302,19.078945882034304,4.170892882034302,19.829145882034304C4.170892882034302,19.829145882034304,5.585105882034302,18.4148458820343,5.585105882034302,18.4148458820343C5.209985882034301,18.039745882034303,4.999245882034302,17.531045882034302,4.999245882034302,17.000545882034302C4.999245882034302,17.000545882034302,2.9992458820343018,17.000545882034302,2.9992458820343018,17.000545882034302C2.9992458820343018,17.000545882034302,2.9992458820343018,17.000545882034302,2.9992458820343018,17.000545882034302ZM4.170892882034302,19.829145882034304C4.921086912034301,20.579344882034302,5.938565882034302,21.0007448820343,6.999495982034302,21.0007448820343C6.999495982034302,21.0007448820343,6.999495982034302,19.000745882034302,6.999495982034302,19.000745882034302C6.468995782034302,19.000745882034302,5.960225982034302,18.790045882034303,5.585105882034302,18.4148458820343C5.585105882034302,18.4148458820343,4.170892882034302,19.829145882034304,4.170892882034302,19.829145882034304C4.170892882034302,19.829145882034304,4.170892882034302,19.829145882034304,4.170892882034302,19.829145882034304ZM6.999495982034302,21.0007448820343C8.060435982034303,21.0007448820343,9.0779158820343,20.579344882034302,9.828105682034302,19.829145882034304C9.828105682034302,19.829145882034304,8.413895882034302,18.4148458820343,8.413895882034302,18.4148458820343C8.038775682034302,18.790045882034303,7.530005882034302,19.000745882034302,6.999495982034302,19.000745882034302C6.999495982034302,19.000745882034302,6.999495982034302,21.0007448820343,6.999495982034302,21.0007448820343C6.999495982034302,21.0007448820343,6.999495982034302,21.0007448820343,6.999495982034302,21.0007448820343ZM9.828105682034302,19.829145882034304C10.578295982034302,19.078945882034304,10.999756082034303,18.061445882034302,10.999756082034303,17.000545882034302C10.999756082034303,17.000545882034302,8.999756082034303,17.000545882034302,8.999756082034303,17.000545882034302C8.999756082034303,17.531045882034302,8.789015982034302,18.039745882034303,8.413895882034302,18.4148458820343C8.413895882034302,18.4148458820343,9.828105682034302,19.829145882034304,9.828105682034302,19.829145882034304C9.828105682034302,19.829145882034304,9.828105682034302,19.829145882034304,9.828105682034302,19.829145882034304ZM10.999756082034303,17.000545882034302C10.999756082034303,15.939545882034302,10.578295982034302,14.922045882034302,9.828105682034302,14.171845882034301C9.828105682034302,14.171845882034301,8.413895882034302,15.586145882034302,8.413895882034302,15.586145882034302C8.789015982034302,15.961245882034302,8.999756082034303,16.470045882034302,8.999756082034303,17.000545882034302C8.999756082034303,17.000545882034302,10.999756082034303,17.000545882034302,10.999756082034303,17.000545882034302C10.999756082034303,17.000545882034302,10.999756082034303,17.000545882034302,10.999756082034303,17.000545882034302ZM9.828105682034302,9.828105682034302C10.578295982034302,9.0779158820343,10.999756082034303,8.060435982034303,10.999756082034303,6.999495982034302C10.999756082034303,6.999495982034302,8.999756082034303,6.999495982034302,8.999756082034303,6.999495982034302C8.999756082034303,7.529995882034301,8.789015982034302,8.038775682034302,8.413895882034302,8.413895882034302C8.413895882034302,8.413895882034302,9.828105682034302,9.828105682034302,9.828105682034302,9.828105682034302C9.828105682034302,9.828105682034302,9.828105682034302,9.828105682034302,9.828105682034302,9.828105682034302ZM10.999756082034303,6.999495982034302C10.999756082034303,5.938565882034302,10.578295982034302,4.921085892034302,9.828105682034302,4.170892882034302C9.828105682034302,4.170892882034302,8.413895882034302,5.585105882034302,8.413895882034302,5.585105882034302C8.789015982034302,5.960225982034302,8.999756082034303,6.468995782034302,8.999756082034303,6.999495982034302C8.999756082034303,6.999495982034302,10.999756082034303,6.999495982034302,10.999756082034303,6.999495982034302C10.999756082034303,6.999495982034302,10.999756082034303,6.999495982034302,10.999756082034303,6.999495982034302ZM9.828105682034302,4.170892882034302C9.0779158820343,3.420699892034302,8.060435982034303,2.9992458820343018,6.999495982034302,2.9992458820343018C6.999495982034302,2.9992458820343018,6.999495982034302,4.999245882034302,6.999495982034302,4.999245882034302C7.529995882034301,4.999245882034302,8.038775682034302,5.209985882034301,8.413895882034302,5.585105882034302C8.413895882034302,5.585105882034302,9.828105682034302,4.170892882034302,9.828105682034302,4.170892882034302C9.828105682034302,4.170892882034302,9.828105682034302,4.170892882034302,9.828105682034302,4.170892882034302ZM6.999495982034302,2.9992458820343018C5.938565882034302,2.9992458820343018,4.921085892034302,3.420699892034302,4.170892882034302,4.170892882034302C4.170892882034302,4.170892882034302,5.585105882034302,5.585105882034302,5.585105882034302,5.585105882034302C5.960225982034302,5.209985882034301,6.468995782034302,4.999245882034302,6.999495982034302,4.999245882034302C6.999495982034302,4.999245882034302,6.999495982034302,2.9992458820343018,6.999495982034302,2.9992458820343018C6.999495982034302,2.9992458820343018,6.999495982034302,2.9992458820343018,6.999495982034302,2.9992458820343018ZM4.170892882034302,4.170892882034302C3.420699892034302,4.921085892034302,2.9992458820343018,5.938565882034302,2.9992458820343018,6.999495982034302C2.9992458820343018,6.999495982034302,4.999245882034302,6.999495982034302,4.999245882034302,6.999495982034302C4.999245882034302,6.468995782034302,5.209985882034301,5.960225982034302,5.585105882034302,5.585105882034302C5.585105882034302,5.585105882034302,4.170892882034302,4.170892882034302,4.170892882034302,4.170892882034302C4.170892882034302,4.170892882034302,4.170892882034302,4.170892882034302,4.170892882034302,4.170892882034302ZM2.9992458820343018,6.999495982034302C2.9992458820343018,8.060435982034303,3.420699892034302,9.0779158820343,4.170892882034302,9.828105682034302C4.170892882034302,9.828105682034302,5.585105882034302,8.413895882034302,5.585105882034302,8.413895882034302C5.209985882034301,8.038775682034302,4.999245882034302,7.529995882034301,4.999245882034302,6.999495982034302C4.999245882034302,6.999495982034302,2.9992458820343018,6.999495982034302,2.9992458820343018,6.999495982034302C2.9992458820343018,6.999495982034302,2.9992458820343018,6.999495982034302,2.9992458820343018,6.999495982034302ZM4.170892882034302,9.828105682034302C4.921085892034302,10.578295982034302,5.938565882034302,10.999756082034303,6.999495982034302,10.999756082034303C6.999495982034302,10.999756082034303,6.999495982034302,8.999756082034303,6.999495982034302,8.999756082034303C6.468995782034302,8.999756082034303,5.960225982034302,8.789015982034302,5.585105882034302,8.413895882034302C5.585105882034302,8.413895882034302,4.170892882034302,9.828105682034302,4.170892882034302,9.828105682034302C4.170892882034302,9.828105682034302,4.170892882034302,9.828105682034302,4.170892882034302,9.828105682034302ZM6.999495982034302,10.999756082034303C8.060435982034303,10.999756082034303,9.0779158820343,10.578295982034302,9.828105682034302,9.828105682034302C9.828105682034302,9.828105682034302,8.413895882034302,8.413895882034302,8.413895882034302,8.413895882034302C8.038775682034302,8.789015982034302,7.529995882034301,8.999756082034303,6.999495982034302,8.999756082034303C6.999495982034302,8.999756082034303,6.999495982034302,10.999756082034303,6.999495982034302,10.999756082034303C6.999495982034302,10.999756082034303,6.999495982034302,10.999756082034303,6.999495982034302,10.999756082034303Z" fill="#0A0A28" fill-opacity="1"/></g></svg>