<svg xmlns="http://www.w3.org/2000/svg" xmlns:xlink="http://www.w3.org/1999/xlink" fill="none" version="1.1" width="24" height="24" viewBox="0 0 24 24"><defs><clipPath id="master_svg0_3_1896"><rect x="0" y="0" width="24" height="24" rx="0"/></clipPath></defs><g clip-path="url(#master_svg0_3_1896)"><path d="M6.5999565546875,2.40002506063456C5.9609448546875,2.4004986409025,5.3304645546875005,2.5467772140625,4.7565286546875,2.8277236240625C4.1825805546875,3.1086688640625,3.6803206546875,3.5168741140625,3.2879649946875,4.0212605140625C2.8956153646875,4.5256326140625,2.6235285546875,5.1129005140625,2.4924229236875,5.7383165140625C2.3613173926875,6.3637326140625,2.3746498746875,7.0108328140625,2.5314057646875,7.6303205140625C2.6881605646875,8.2498088140625,2.9842053646875,8.8253651140625,3.3969982246875,9.3131528140625C3.8097885546875,9.8009405140625,4.3284405546875,10.1881204140625,4.913476754687499,10.4451847140625C5.498500854687499,10.7022486140625,6.1344766546875,10.8224287140625,6.7729606546875,10.7965803140625C7.4114570546875,10.7707329140625,8.0356244546875,10.5995407140625,8.5979571546875,10.2960248140625C8.5979571546875,10.2960248140625,10.3019571546875,12.0000248140625,10.3019571546875,12.0000248140625C10.3019571546875,12.0000248140625,8.5979571546875,13.7040254140625,8.5979571546875,13.7040254140625C7.7105207546875,13.2241684140625,6.6800088546875,13.0797854140625,5.6948568546875,13.2972604140625C4.7097167546875,13.5147484140625,3.8357685546875,14.0795764140625,3.2328393446875,14.8884244140625C2.6299077746875,15.6973454140625,2.3382801526875,16.6962254140625,2.4112851906875,17.7024254140625C2.4842901606875,18.7086254140625,2.9170485746875,19.6549454140625,3.6304246546875003,20.3683454140625C4.3438005546875,21.0817454140625,5.290120554687499,21.5144654140625,6.2963447546874995,21.5875454140625C7.3025684546875,21.6605054140625,8.3014488546875,21.3689044140625,9.1103329546875,20.7659054140625C9.919204754687499,20.1630244140625,10.4840335546875,19.2890644140625,10.7015209546875,18.303984414062498C10.9190092546875,17.3187844140625,10.7746248546875,16.288224414062498,10.2947688546875,15.4008244140625C10.2947688546875,15.4008244140625,20.0483095546875,5.6484246140625,20.0483095546875,5.6484246140625C20.2669485546875,5.4221046140624996,20.3879085546875,5.1189844140625,20.3851485546875,4.8043444140625C20.3823895546875,4.4897046140625,20.2562695546875,4.1887325140625,20.0337885546875,3.9662404140625C19.8113095546875,3.7437485140625,19.5102295546875,3.6175566140625,19.1955895546875,3.6148205140625C18.8809485546875,3.6120845140625,18.5778295546875,3.7330325140625,18.3515095546875,3.9516245140625C18.3515095546875,3.9516245140625,11.9999570546875,10.3032245140625,11.9999570546875,10.3032245140625C11.9999570546875,10.3032245140625,10.2959570546875,8.5992246140625,10.2959570546875,8.5992246140625C10.6423253546875,7.9592886140625,10.8164930546875,7.2403326140625,10.8013849546875,6.5128326140625C10.7862768546875,5.7853205140625,10.5824212546875,5.0742245140625,10.2097845546875,4.4492164140625C9.8371491546875,3.8242085140624997,9.3085246546875,3.3067312840625,8.6757168546875,2.9475040440624998C8.042908654687501,2.5882768140625,7.3276247546875,2.3996213508325,6.5999565546875,2.40002506063456C6.5999565546875,2.40002506063456,6.5999565546875,2.40002506063456,6.5999565546875,2.40002506063456C6.5999565546875,2.40002506063456,6.5999565546875,2.40002506063456,6.5999565546875,2.40002506063456ZM4.799956554687499,6.6000247140625C4.799956554687499,6.3636486140625,4.8465166546875,6.1295764140625,4.9369845546875,5.9112007140625C5.0274407546875,5.6928124140625,5.160028454687501,5.494380514062501,5.3271646546875004,5.3272326140625C5.4943127546875,5.1600845140625005,5.692744754687499,5.0274963140625,5.9111325546875,4.9370406140625C6.1295206546875,4.8465845140625,6.3635804546875,4.8000245140625,6.5999565546875,4.8000245140625C6.8363447546875,4.8000245140625,7.0704045546875,4.8465845140625,7.2887926546875,4.9370406140625C7.5071811546875,5.0274963140625,7.7056131546875,5.1600845140625005,7.8727607546875,5.3272326140625C8.0398964546875,5.494380514062501,8.1724848546875,5.6928124140625,8.2629408546875,5.9112007140625C8.353408854687501,6.1295764140625,8.3999566546875,6.3636486140625,8.3999566546875,6.6000247140625C8.3999566546875,7.0774207140625,8.2103209546875,7.5352564140625,7.8727607546875,7.8728165140625C7.5351886546875,8.2103886140625,7.0773525546875,8.4000244140625,6.5999565546875,8.4000244140625C6.122572654687501,8.4000244140625,5.6647367546875,8.2103886140625,5.3271646546875004,7.8728165140625C4.9896044546875,7.5352564140625,4.799956554687499,7.0774207140625,4.799956554687499,6.6000247140625C4.799956554687499,6.6000247140625,4.799956554687499,6.6000247140625,4.799956554687499,6.6000247140625C4.799956554687499,6.6000247140625,4.799956554687499,6.6000247140625,4.799956554687499,6.6000247140625ZM4.799956554687499,17.400025414062497C4.799956554687499,17.1636254140625,4.8465166546875,16.929624414062502,4.9369845546875,16.7112244140625C5.0274407546875,16.4928254140625,5.160028454687501,16.2943444140625,5.3271646546875004,16.127184414062498C5.4943127546875,15.9601454140625,5.692744754687499,15.8275454140625,5.9111325546875,15.7370644140625C6.1295206546875,15.6465854140625,6.3635804546875,15.6000254140625,6.5999565546875,15.6000254140625C6.8363447546875,15.6000254140625,7.0704045546875,15.6465854140625,7.2887926546875,15.7370644140625C7.5071811546875,15.8275454140625,7.7056131546875,15.9601454140625,7.8727607546875,16.127184414062498C8.0398964546875,16.2943444140625,8.1724848546875,16.4928254140625,8.2629408546875,16.7112244140625C8.353408854687501,16.929624414062502,8.3999566546875,17.1636254140625,8.3999566546875,17.400025414062497C8.3999566546875,17.877385414062502,8.2103209546875,18.3353054140625,7.8727607546875,18.6728644140625C7.5351886546875,19.0104254140625,7.0773525546875,19.2000254140625,6.5999565546875,19.2000254140625C6.122572654687501,19.2000254140625,5.6647367546875,19.0104254140625,5.3271646546875004,18.6728644140625C4.9896044546875,18.3353054140625,4.799956554687499,17.877385414062502,4.799956554687499,17.400025414062497C4.799956554687499,17.400025414062497,4.799956554687499,17.400025414062497,4.799956554687499,17.400025414062497C4.799956554687499,17.400025414062497,4.799956554687499,17.400025414062497,4.799956554687499,17.400025414062497Z" fill-rule="evenodd" fill="#0A0A28" fill-opacity="1"/><path d="M15.3936374515625,13.6968397815625C15.1673173515625,13.4782497915625,14.8641973515625,13.3572966074625,14.5495586515625,13.3600307146845C14.2349221715625,13.3627648155625,13.9339478015625,13.4889685615625,13.7114581715625,13.7114581715625C13.4889685615625,13.9339478015625,13.3627648155625,14.2349221715625,13.3600307146845,14.5495586515625C13.3572966074625,14.8641973515625,13.4782497915625,15.1673173515625,13.6968397815625,15.3936374515625C13.6968397815625,15.3936374515625,18.351637351562502,20.0496373515625,18.351637351562502,20.0496373515625C18.5768055515625,20.2746496515625,18.8821334515625,20.4009976515625,19.2004575515625,20.4008779515625C19.5187935515625,20.4007697515625,19.8240256515625,20.2742056515625,20.0490379515625,20.0490379515625C20.2740497515625,19.8238697515625,20.4003977515625,19.5185418515625,20.4002776515625,19.2002172515625C20.4001693515625,18.8818936515625,20.2736058515625,18.576649651562498,20.0484375515625,18.351637351562502C20.0484375515625,18.351637351562502,15.3936374515625,13.6968397815625,15.3936374515625,13.6968397815625C15.3936374515625,13.6968397815625,15.3936374515625,13.6968397815625,15.3936374515625,13.6968397815625C15.3936374515625,13.6968397815625,15.3936374515625,13.6968397815625,15.3936374515625,13.6968397815625Z" fill="#0A0A28" fill-opacity="1"/></g></svg>