<svg xmlns="http://www.w3.org/2000/svg" xmlns:xlink="http://www.w3.org/1999/xlink" fill="none" version="1.1" width="24" height="24" viewBox="0 0 24 24"><defs><clipPath id="master_svg0_3_1776"><rect x="0" y="0" width="24" height="24" rx="0"/></clipPath></defs><g clip-path="url(#master_svg0_3_1776)"><path d="M10.79998779296875,10.8000245140625C10.79998779296875,10.1635085140625,11.05284461296875,9.553055314062501,11.50293219296875,9.1029676240625C11.95301989296875,8.6528812340625,12.56347189296875,8.400024414062502,13.19998789296875,8.4000244140625C13.83650399296875,8.400024414062502,14.44695589296875,8.6528812340625,14.897039892968749,9.1029676240625C15.347135992968749,9.553055314062501,15.59998799296875,10.1635085140625,15.59998799296875,10.8000245140625C15.59998799296875,11.4365406140625,15.347135992968749,12.0469925140625,14.897039892968749,12.497076514062499C14.44695589296875,12.947172614062499,13.83650399296875,13.2000246140625,13.19998789296875,13.2000246140625C12.56347189296875,13.2000246140625,11.95301989296875,12.947172614062499,11.50293219296875,12.497076514062499C11.05284461296875,12.0469925140625,10.79998779296875,11.4365406140625,10.79998779296875,10.8000245140625C10.79998779296875,10.8000245140625,10.79998779296875,10.8000245140625,10.79998779296875,10.8000245140625Z" fill="#0A0A28" fill-opacity="1"/><path d="M12.0000248140625,21.6000254140625C14.5460654140625,21.6000254140625,16.9879444140625,20.5885444140625,18.7883054140625,18.7883054140625C20.5885444140625,16.9879444140625,21.6000254140625,14.5460654140625,21.6000254140625,12.0000248140625C21.6000254140625,9.4539490140625,20.5885444140625,7.0121527140625,18.7883054140625,5.211804414062501C16.9879444140625,3.4114504140625,14.5460654140625,2.4000244140625013,12.0000248140625,2.4000244140625C9.4539490140625,2.4000244140625018,7.0121527140625,3.4114504140625,5.211804414062501,5.211804414062501C3.4114504140625,7.0121527140625,2.400024414062502,9.4539490140625,2.4000244140625,12.0000248140625C2.4000244140625018,14.5460654140625,3.4114504140625,16.9879444140625,5.211804414062501,18.7883054140625C7.0121527140625,20.5885444140625,9.4539490140625,21.6000254140625,12.0000248140625,21.6000254140625C12.0000248140625,21.6000254140625,12.0000248140625,21.6000254140625,12.0000248140625,21.6000254140625C12.0000248140625,21.6000254140625,12.0000248140625,21.6000254140625,12.0000248140625,21.6000254140625ZM13.2000244140625,6.0000245140625C12.3536167140625,5.999904614062499,11.5222330140625,6.2235966140625,10.7901602140625,6.6484084140625C10.0580888140625,7.0732326140625,9.4513688140625,7.6840806140625,9.031512714062501,8.4190087140625C8.6116567140625,9.1539368140625,8.3936043140625,9.986808814062499,8.399448414062501,10.8331928140625C8.405304414062499,11.6795769140625,8.634852914062499,12.5093654140625,9.0648246140625,13.2384244140625C9.0648246140625,13.2384244140625,6.3516245140625,15.9504254140625,6.3516245140625,15.9504254140625C6.1264565140625,16.175424414062498,5.9998927140625,16.4807054140625,5.9997845140625,16.7989444140625C5.9997244140625,16.9566254140625,6.0307205140625,17.112745414062502,6.0909846140625,17.2583044140625C6.151248414062501,17.4039854140625,6.2396166140625,17.536344414062498,6.3510246140625,17.647825414062503C6.4624324140625,17.7593054140625,6.5947203140625,17.8477454140625,6.7403164140625,17.9081044140625C6.8859124140625,17.968464414062502,7.0419845140625,17.9996644140625,7.1996045140625,17.9996644140625C7.5179291140625,17.9997844140625,7.8232565140625,17.873424414062498,8.0484242140625,17.6484254140625C8.0484242140625,17.6484254140625,10.7616243140625,14.9352254140625,10.7616243140625,14.9352254140625C11.3974447140625,15.3099854140625,12.1111088140625,15.5330644140625,12.8471524140625,15.5870644140625C13.5831964140625,15.6411844140625,14.3218084140625,15.5247854140625,15.0055444140625,15.2469854140625C15.6893054140625,14.9691854140625,16.299865414062502,14.5375454140625,16.7895844140625,13.9854134140625C17.2793044140625,13.4333174140625,17.6352254140625,12.7757164140625,17.8295054140625,12.0637207140625C18.023785414062502,11.3517246140625,18.0513854140625,10.6045208140625,17.9099054140625,9.880164614062501C17.7684254140625,9.1558084140625,17.461945414062498,8.4738250140625,17.0139844140625,7.8872166140625C16.5661454140625,7.3006086140625,15.9890644140625,6.8251805140625,15.3276244140625,6.4978685140625C14.6660644140625,6.1705685140625,13.9380604140625,6.0002045140625,13.2000244140625,6.0000245140625C13.2000244140625,6.0000245140625,13.2000244140625,6.0000245140625,13.2000244140625,6.0000245140625C13.2000244140625,6.0000245140625,13.2000244140625,6.0000245140625,13.2000244140625,6.0000245140625Z" fill-rule="evenodd" fill="#0A0A28" fill-opacity="1"/></g></svg>