<svg xmlns="http://www.w3.org/2000/svg" xmlns:xlink="http://www.w3.org/1999/xlink" fill="none" version="1.1" width="24" height="24" viewBox="0 0 24 24"><defs><clipPath id="master_svg0_3_2106"><rect x="0" y="0" width="24" height="24" rx="0"/></clipPath></defs><g clip-path="url(#master_svg0_3_2106)"><path d="M7.2928901,15.292900238418579C6.9023699999999995,15.68340023841858,6.9023699999999995,16.31660023841858,7.2928901,16.70710023841858C7.6834202,17.09760023841858,8.3165798,17.09760023841858,8.707109899999999,16.70710023841858C8.707109899999999,16.70710023841858,7.2928901,15.292900238418579,7.2928901,15.292900238418579C7.2928901,15.292900238418579,7.2928901,15.292900238418579,7.2928901,15.292900238418579ZM10.8790002,13.12100023841858C10.8790002,13.12100023841858,11.5919199,12.419760038418579,11.5919199,12.419760038418579C11.5919199,12.419760038418579,11.5919199,12.419760038418579,11.5919199,12.419760038418579C11.5919199,12.419760038418579,10.8790002,13.12100023841858,10.8790002,13.12100023841858C10.8790002,13.12100023841858,10.8790002,13.12100023841858,10.8790002,13.12100023841858ZM15.122,8.87900043841858C15.122,8.87900043841858,14.4206,9.591760438418579,14.4206,9.591760438418579C14.4206,9.591760438418579,15.122,8.87900043841858,15.122,8.87900043841858C15.122,8.87900043841858,15.122,8.87900043841858,15.122,8.87900043841858ZM12,3.000000238418579C12,3.000000238418579,12,4.000000238418579,12,4.000000238418579C12,4.000000238418579,12,3.000000238418579,12,3.000000238418579C12,3.000000238418579,12,3.000000238418579,12,3.000000238418579ZM8.707109899999999,16.70710023841858C8.707109899999999,16.70710023841858,11.5861101,13.828100238418578,11.5861101,13.828100238418578C11.5861101,13.828100238418578,10.171889799999999,12.413890138418578,10.171889799999999,12.413890138418578C10.171889799999999,12.413890138418578,7.2928901,15.292900238418579,7.2928901,15.292900238418579C7.2928901,15.292900238418579,8.707109899999999,16.70710023841858,8.707109899999999,16.70710023841858C8.707109899999999,16.70710023841858,8.707109899999999,16.70710023841858,8.707109899999999,16.70710023841858ZM10.166080000000001,13.82220023841858C10.5363498,14.19870023841858,10.9775,14.49810023841858,11.4640598,14.70320023841858C11.4640598,14.70320023841858,12.2409201,12.86023063841858,12.2409201,12.86023063841858C11.9976301,12.757680138418579,11.7770596,12.60798003841858,11.5919199,12.419760038418579C11.5919199,12.419760038418579,10.166080000000001,13.82220023841858,10.166080000000001,13.82220023841858C10.166080000000001,13.82220023841858,10.166080000000001,13.82220023841858,10.166080000000001,13.82220023841858ZM11.4640598,14.70320023841858C11.9506302,14.90830023841858,12.47299,15.01500023841858,13.001,15.01720023841858C13.001,15.01720023841858,13.0094,13.01730023841858,13.0094,13.01730023841858C12.7453804,13.016200238418579,12.4841995,12.96278023841858,12.2409201,12.86023063841858C12.2409201,12.86023063841858,11.4640598,14.70320023841858,11.4640598,14.70320023841858C11.4640598,14.70320023841858,11.4640598,14.70320023841858,11.4640598,14.70320023841858ZM13.001,15.01720023841858C13.529,15.01950023841858,14.0523,14.917100238418579,14.5405,14.71610023841858C14.5405,14.71610023841858,13.7792,12.866680338418579,13.7792,12.866680338418579C13.535,12.967190038418579,13.2734,13.018400238418579,13.0094,13.01730023841858C13.0094,13.01730023841858,13.001,15.01720023841858,13.001,15.01720023841858C13.001,15.01720023841858,13.001,15.01720023841858,13.001,15.01720023841858ZM14.5405,14.71610023841858C15.0288,14.51510023841858,15.4724,14.21940023841858,15.8459,13.84600023841858C15.8459,13.84600023841858,14.4318,12.431650438418579,14.4318,12.431650438418579C14.2451,12.618320738418578,14.0233,12.76616973841858,13.7792,12.866680338418579C13.7792,12.866680338418579,14.5405,14.71610023841858,14.5405,14.71610023841858C14.5405,14.71610023841858,14.5405,14.71610023841858,14.5405,14.71610023841858ZM15.8459,13.84600023841858C16.2193,13.472700238418579,16.5151,13.029100238418579,16.7162,12.540920538418579C16.7162,12.540920538418579,14.867,11.77910063841858,14.867,11.77910063841858C14.7664,12.023209838418579,14.6185,12.244990538418579,14.4318,12.431650438418579C14.4318,12.431650438418579,15.8459,13.84600023841858,15.8459,13.84600023841858C15.8459,13.84600023841858,15.8459,13.84600023841858,15.8459,13.84600023841858ZM16.7162,12.540920538418579C16.9174,12.052700238418579,17.0198,11.529480238418579,17.017699999999998,11.001460338418578C17.017699999999998,11.001460338418578,15.0178,11.009370138418578,15.0178,11.009370138418578C15.0188,11.273380538418579,14.9676,11.53499053841858,14.867,11.77910063841858C14.867,11.77910063841858,16.7162,12.540920538418579,16.7162,12.540920538418579C16.7162,12.540920538418579,16.7162,12.540920538418579,16.7162,12.540920538418579ZM17.017699999999998,11.001460338418578C17.015700000000002,10.473440438418578,16.909,9.951050038418579,16.7041,9.46444013841858C16.7041,9.46444013841858,14.8609,10.240860238418579,14.8609,10.240860238418579C14.9634,10.484160138418579,15.0167,10.74536013841858,15.0178,11.009370138418578C15.0178,11.009370138418578,17.017699999999998,11.001460338418578,17.017699999999998,11.001460338418578C17.017699999999998,11.001460338418578,17.017699999999998,11.001460338418578,17.017699999999998,11.001460338418578ZM16.7041,9.46444013841858C16.4991,8.97782013841858,16.1998,8.53661033841858,15.8234,8.16624043841858C15.8234,8.16624043841858,14.4206,9.591760438418579,14.4206,9.591760438418579C14.6088,9.77694013841858,14.7584,9.99755023841858,14.8609,10.240860238418579C14.8609,10.240860238418579,16.7041,9.46444013841858,16.7041,9.46444013841858C16.7041,9.46444013841858,16.7041,9.46444013841858,16.7041,9.46444013841858ZM15.8234,8.16624043841858C15.0713,7.426100038418579,14.0572,7.013130438418579,13.002,7.0173103384185795C13.002,7.0173103384185795,13.0099,9.01729033841858,13.0099,9.01729033841858C13.5375,9.01520033841858,14.0445,9.22169043841858,14.4206,9.591760438418579C14.4206,9.591760438418579,15.8234,8.16624043841858,15.8234,8.16624043841858C15.8234,8.16624043841858,15.8234,8.16624043841858,15.8234,8.16624043841858ZM13.002,7.0173103384185795C11.9467402,7.021480338418579,10.9359198,7.442450238418579,10.1896801,8.18852023841858C10.1896801,8.18852023841858,11.6037197,9.602900238418579,11.6037197,9.602900238418579C11.9768496,9.229860038418579,12.4822598,9.019380338418578,13.0099,9.01729033841858C13.0099,9.01729033841858,13.002,7.0173103384185795,13.002,7.0173103384185795C13.002,7.0173103384185795,13.002,7.0173103384185795,13.002,7.0173103384185795ZM10.1896801,8.18852023841858C9.4434299,8.934580038418579,9.0222301,9.94530033841858,9.0178099,11.000520038418578C9.0178099,11.000520038418578,11.0177898,11.00889993841858,11.0177898,11.00889993841858C11.0200005,10.48129013841858,11.2306004,9.97593043841858,11.6037197,9.602900238418579C11.6037197,9.602900238418579,10.1896801,8.18852023841858,10.1896801,8.18852023841858C10.1896801,8.18852023841858,10.1896801,8.18852023841858,10.1896801,8.18852023841858ZM9.0178099,11.000520038418578C9.013390099999999,12.055730138418578,9.426109799999999,13.06990023841858,10.166080000000001,13.82220023841858C10.166080000000001,13.82220023841858,11.5919199,12.419760038418579,11.5919199,12.419760038418579C11.22194,12.043609838418579,11.0155802,11.53650023841858,11.0177898,11.00889993841858C11.0177898,11.00889993841858,9.0178099,11.000520038418578,9.0178099,11.000520038418578C9.0178099,11.000520038418578,9.0178099,11.000520038418578,9.0178099,11.000520038418578ZM20,12.000000238418579C20,13.050600238418578,19.7931,14.090900238418579,19.391001,15.06150023841858C19.391001,15.06150023841858,21.2388,15.82680023841858,21.2388,15.82680023841858C21.741301,14.613600238418579,22,13.31320023841858,22,12.000000238418579C22,12.000000238418579,20,12.000000238418579,20,12.000000238418579C20,12.000000238418579,20,12.000000238418579,20,12.000000238418579ZM19.391001,15.06150023841858C18.989,16.03210023841858,18.3997,16.91400023841858,17.6569,17.65690023841858C17.6569,17.65690023841858,19.0711,19.07110023841858,19.0711,19.07110023841858C19.999701,18.142500238418577,20.7362,17.04010023841858,21.2388,15.82680023841858C21.2388,15.82680023841858,19.391001,15.06150023841858,19.391001,15.06150023841858C19.391001,15.06150023841858,19.391001,15.06150023841858,19.391001,15.06150023841858ZM17.6569,17.65690023841858C16.914,18.39970023841858,16.0321,18.98900023841858,15.0615,19.39100123841858C15.0615,19.39100123841858,15.8268,21.23880023841858,15.8268,21.23880023841858C17.040100000000002,20.73620023841858,18.1425,19.99970123841858,19.0711,19.07110023841858C19.0711,19.07110023841858,17.6569,17.65690023841858,17.6569,17.65690023841858C17.6569,17.65690023841858,17.6569,17.65690023841858,17.6569,17.65690023841858ZM15.0615,19.39100123841858C14.0909,19.793100238418578,13.0506,20.00000023841858,12,20.00000023841858C12,20.00000023841858,12,22.00000023841858,12,22.00000023841858C13.3132,22.00000023841858,14.6136,21.74130123841858,15.8268,21.23880023841858C15.8268,21.23880023841858,15.0615,19.39100123841858,15.0615,19.39100123841858C15.0615,19.39100123841858,15.0615,19.39100123841858,15.0615,19.39100123841858ZM12,20.00000023841858C10.94942,20.00000023841858,9.9091401,19.793100238418578,8.93853,19.39100123841858C8.93853,19.39100123841858,8.1731701,21.23880023841858,8.1731701,21.23880023841858C9.386419799999999,21.74130123841858,10.686779999999999,22.00000023841858,12,22.00000023841858C12,22.00000023841858,12,20.00000023841858,12,20.00000023841858C12,20.00000023841858,12,20.00000023841858,12,20.00000023841858ZM8.93853,19.39100123841858C7.9679298,18.98900023841858,7.08601,18.39970023841858,6.3431499,17.65690023841858C6.3431499,17.65690023841858,4.92893,19.07110023841858,4.92893,19.07110023841858C5.8575201,19.99970123841858,6.9599098999999995,20.73620023841858,8.1731701,21.23880023841858C8.1731701,21.23880023841858,8.93853,19.39100123841858,8.93853,19.39100123841858C8.93853,19.39100123841858,8.93853,19.39100123841858,8.93853,19.39100123841858ZM6.3431499,17.65690023841858C5.60028,16.91400023841858,5.0109999,16.03210023841858,4.60896,15.06150023841858C4.60896,15.06150023841858,2.761205,15.82680023841858,2.761205,15.82680023841858C3.26375201,17.04010023841858,4.00035,18.142500238418577,4.92893,19.07110023841858C4.92893,19.07110023841858,6.3431499,17.65690023841858,6.3431499,17.65690023841858C6.3431499,17.65690023841858,6.3431499,17.65690023841858,6.3431499,17.65690023841858ZM4.60896,15.06150023841858C4.20693,14.090900238418579,4,13.050600238418578,4,12.000000238418579C4,12.000000238418579,2,12.000000238418579,2,12.000000238418579C2,13.31320023841858,2.25865799,14.613600238418579,2.761205,15.82680023841858C2.761205,15.82680023841858,4.60896,15.06150023841858,4.60896,15.06150023841858C4.60896,15.06150023841858,4.60896,15.06150023841858,4.60896,15.06150023841858ZM4,12.000000238418579C4,9.878270338418579,4.84285,7.843440338418579,6.3431499,6.343150138418579C6.3431499,6.343150138418579,4.92893,4.928930238418579,4.92893,4.928930238418579C3.053568199,6.804300338418579,2,9.347840038418578,2,12.000000238418579C2,12.000000238418579,4,12.000000238418579,4,12.000000238418579C4,12.000000238418579,4,12.000000238418579,4,12.000000238418579ZM6.3431499,6.343150138418579C7.8434401,4.842850238418579,9.8782701,4.000000238418579,12,4.000000238418579C12,4.000000238418579,12,2.000000238418579,12,2.000000238418579C9.3478398,2.000000238418579,6.8043001,3.053568739418579,4.92893,4.928930238418579C4.92893,4.928930238418579,6.3431499,6.343150138418579,6.3431499,6.343150138418579C6.3431499,6.343150138418579,6.3431499,6.343150138418579,6.3431499,6.343150138418579ZM12,4.000000238418579C14.1217,4.000000238418579,16.156599999999997,4.842850238418579,17.6569,6.343150138418579C17.6569,6.343150138418579,19.0711,4.928930238418579,19.0711,4.928930238418579C17.195700000000002,3.053568840418579,14.6522,2.000000238418579,12,2.000000238418579C12,2.000000238418579,12,4.000000238418579,12,4.000000238418579C12,4.000000238418579,12,4.000000238418579,12,4.000000238418579ZM17.6569,6.343150138418579C19.157101,7.843440338418579,20,9.878270338418579,20,12.000000238418579C20,12.000000238418579,22,12.000000238418579,22,12.000000238418579C22,9.347840038418578,20.9464,6.804300338418579,19.0711,4.928930238418579C19.0711,4.928930238418579,17.6569,6.343150138418579,17.6569,6.343150138418579C17.6569,6.343150138418579,17.6569,6.343150138418579,17.6569,6.343150138418579Z" fill="#0A0A28" fill-opacity="1"/></g></svg>