<svg xmlns="http://www.w3.org/2000/svg" xmlns:xlink="http://www.w3.org/1999/xlink" fill="none" version="1.1" width="24" height="24" viewBox="0 0 24 24"><defs><clipPath id="master_svg0_3_2095"><rect x="0" y="0" width="24" height="24" rx="0"/></clipPath></defs><g clip-path="url(#master_svg0_3_2095)"><path d="M9.6000247140625,4.800094121875C8.3269806140625,4.800094121875,7.1060886140625,5.305798021875,6.2059085140625,6.205977921875C5.3057406140625005,7.106146321875,4.8000245140625,8.327050221875,4.8000245140625,9.600094321875C4.8000245140625,10.873126021875,5.3057406140625005,12.094030421875,6.2059085140625,12.994198921875C7.1060886140625,13.894378921875,8.3269806140625,14.400129921875,9.6000247140625,14.400129921875C10.8730688140625,14.400129921875,12.0939617140625,13.894378921875,12.9941404140625,12.994198921875C13.8943094140625,12.094030421875,14.4000244140625,10.873126021875,14.4000244140625,9.600094321875C14.4000244140625,8.327050221875,13.8943094140625,7.106146321875,12.9941404140625,6.205977921875C12.0939617140625,5.305798021875,10.8730688140625,4.800094121875,9.6000247140625,4.800094121875C9.6000247140625,4.800094121875,9.6000247140625,4.800094121875,9.6000247140625,4.800094121875ZM2.4000245502157,9.600094321875C2.3998799460525,8.466934221875,2.6671948440625,7.349746221875,3.1802296040625,6.339381921875C3.6932645140625002,5.329018121875,4.4375284140625,4.454002121875,5.3525047140624995,3.785517921875C6.2674687140625,3.117032701875,7.3272967140625,2.673943521875,8.4458046140625,2.4922890888750002C9.5643010140625,2.310634158875,10.7098808140625,2.395542933575,11.7893772140625,2.740110341875C12.8688724140625,3.084677101875,13.8518044140625,3.679173921875,14.6582654140625,4.475241921875C15.4646654140625,5.271322021875,16.071745414062498,6.246490021875,16.430305414062502,7.321450221875C16.7887454140625,8.396410421875,16.8884654140625,9.540802521875001,16.7211854140625,10.661554321875C16.5540244140625,11.782306621875,16.1246644140625,12.847761921875,15.4680254140625,13.771294921875C15.4680254140625,13.771294921875,21.2484244140625,19.551730921875,21.2484244140625,19.551730921875C21.4670654140625,19.778050921875,21.5880244140625,20.081170921875,21.5852664140625,20.395810921875C21.5825064140625,20.710450921875,21.4562664140625,21.011409921875,21.2337854140625,21.233890921875C21.0113044140625,21.456368921875,20.7103464140625,21.582610921875,20.3957044140625,21.585250921875C20.0810644140625,21.588010921875,19.7779444140625,21.467050921875,19.5516264140625,21.248530921875C19.5516264140625,21.248530921875,13.7724244140625,15.469330921875,13.7724244140625,15.469330921875C12.6952574140625,16.235169921875,11.4280443140625,16.689850921875,10.1096411140625,16.783450921875C8.7912249140625,16.876930921875,7.4725084140625,16.605849921875,6.2979846140625,15.999610921875C5.1234605140625,15.393490921875,4.1384525140625,14.475729921875,3.4508921140625,13.346913921875C2.7633364240625,12.218097721875,2.3997675528525,10.921810121875,2.4000245502157,9.600094321875C2.4000245502157,9.600094321875,2.4000245502157,9.600094321875,2.4000245502157,9.600094321875C2.4000245502157,9.600094321875,2.4000245502157,9.600094321875,2.4000245502157,9.600094321875Z" fill-rule="evenodd" fill="#0A0A28" fill-opacity="1"/></g></svg>