<svg xmlns="http://www.w3.org/2000/svg" xmlns:xlink="http://www.w3.org/1999/xlink" fill="none" version="1.1" width="24" height="24" viewBox="0 0 24 24"><defs><clipPath id="master_svg0_3_1697"><rect x="0" y="0" width="24" height="24" rx="0"/></clipPath></defs><g clip-path="url(#master_svg0_3_1697)"><path d="M12.0000652828125,3.5999755859375C12.318293582812501,3.6000435508175,12.6234655828125,3.7265167959375,12.8484654828125,3.9515756059375002C12.8484654828125,3.9515756059375002,16.4484653828125,7.5515756859375,16.4484653828125,7.5515756859375C16.6670455828125,7.7778958859375,16.788005782812498,8.0810155859375,16.7852697828125,8.3956560859375C16.7825336828125,8.7102961859375,16.656330082812502,9.0112676859375,16.433837882812497,9.2337598859375C16.211358082812502,9.456251585937501,15.9103736828125,9.582456085937501,15.5957460828125,9.5851797859375C15.2811059828125,9.5879158859375,14.9779858828125,9.4669680859375,14.7516655828125,9.2483753859375C14.7516655828125,9.2483753859375,12.0000652828125,6.4967755859375,12.0000652828125,6.4967755859375C12.0000652828125,6.4967755859375,9.2484655828125,9.2483753859375,9.2484655828125,9.2483753859375C9.0221334828125,9.4669680859375,8.7190135828125,9.5879158859375,8.4043852828125,9.5851797859375C8.0897430228125,9.582456085937501,7.7887685928125,9.456251585937501,7.5662789928125,9.2337598859375C7.3437894028125,9.0112676859375,7.2175861038125,8.7102961859375,7.2148519028125,8.3956560859375C7.2121178468125,8.0810155859375,7.3330721828125,7.7778958859375,7.5516617928125,7.5515756859375C7.5516617928125,7.5515756859375,11.1516654828125,3.9515756059375002,11.1516654828125,3.9515756059375002C11.3766536828125,3.7265167959375,11.6818256828125,3.6000435508175,12.0000652828125,3.5999755859375C12.0000652828125,3.5999755859375,12.0000652828125,3.5999755859375,12.0000652828125,3.5999755859375ZM7.5516617928125,14.7515765859375C7.7766941828125,14.5266115859375,8.0818638228125,14.4002275859375,8.4000606828125,14.4002275859375C8.7182575828125,14.4002275859375,9.0234294828125,14.5266115859375,9.2484655828125,14.7515765859375C9.2484655828125,14.7515765859375,12.0000652828125,17.5031765859375,12.0000652828125,17.5031765859375C12.0000652828125,17.5031765859375,14.7516655828125,14.7515765859375,14.7516655828125,14.7515765859375C14.9779858828125,14.5329835859375,15.2811059828125,14.4120355859375,15.5957460828125,14.4147715859375C15.9103736828125,14.4174955859375,16.211358082812502,14.5437005859375,16.433837882812497,14.7661915859375C16.656330082812502,14.9886835859375,16.7825336828125,15.2896555859375,16.7852697828125,15.6042965859375C16.788005782812498,15.9189365859375,16.6670455828125,16.2220565859375,16.4484653828125,16.448375585937498C16.4484653828125,16.448375585937498,12.8484654828125,20.0483755859375,12.8484654828125,20.0483755859375C12.6234292828125,20.2733765859375,12.3182572828125,20.3997365859375,12.0000652828125,20.3997365859375C11.6818618828125,20.3997365859375,11.3766894828125,20.2733765859375,11.1516654828125,20.0483755859375C11.1516654828125,20.0483755859375,7.5516617928125,16.448375585937498,7.5516617928125,16.448375585937498C7.3266965928125,16.2233765859375,7.2003173828125,15.9182155859375,7.2003173828125,15.5999755859375C7.2003173828125,15.2817835859375,7.3266965928125,14.9766125859375,7.5516617928125,14.7515765859375C7.5516617928125,14.7515765859375,7.5516617928125,14.7515765859375,7.5516617928125,14.7515765859375C7.5516617928125,14.7515765859375,7.5516617928125,14.7515765859375,7.5516617928125,14.7515765859375Z" fill-rule="evenodd" fill="#0A0A28" fill-opacity="1"/></g></svg>