<svg xmlns="http://www.w3.org/2000/svg" xmlns:xlink="http://www.w3.org/1999/xlink" fill="none" version="1.1" width="24" height="24" viewBox="0 0 24 24"><defs><clipPath id="master_svg0_3_2137"><rect x="0" y="0" width="24" height="24" rx="0"/></clipPath></defs><g clip-path="url(#master_svg0_3_2137)"><path d="M7.29289299,8.292890100000001C6.9023699999999995,8.6834199,6.9023699999999995,9.3165798,7.29289299,9.707109899999999C7.68341699,10.097629999999999,8.31658301,10.097629999999999,8.70710701,9.707109899999999C8.70710701,9.707109899999999,7.29289299,8.292890100000001,7.29289299,8.292890100000001C7.29289299,8.292890100000001,7.29289299,8.292890100000001,7.29289299,8.292890100000001ZM12,5C12,5,12.707109899999999,4.29289299,12.707109899999999,4.29289299C12.3165798,3.90237,11.6834199,3.90237,11.292890100000001,4.29289299C11.292890100000001,4.29289299,12,5,12,5C12,5,12,5,12,5ZM15.292890100000001,9.707109899999999C15.6834202,10.097629999999999,16.3165798,10.097629999999999,16.707110399999998,9.707109899999999C17.0976295,9.3165798,17.0976295,8.6834199,16.707110399999998,8.292890100000001C16.707110399999998,8.292890100000001,15.292890100000001,9.707109899999999,15.292890100000001,9.707109899999999C15.292890100000001,9.707109899999999,15.292890100000001,9.707109899999999,15.292890100000001,9.707109899999999ZM16.707110399999998,15.7071C17.0976295,15.3166,17.0976295,14.6834202,16.707110399999998,14.2928896C16.3165798,13.9023705,15.6834202,13.9023705,15.292890100000001,14.2928896C15.292890100000001,14.2928896,16.707110399999998,15.7071,16.707110399999998,15.7071C16.707110399999998,15.7071,16.707110399999998,15.7071,16.707110399999998,15.7071ZM12,19C12,19,11.292890100000001,19.7071,11.292890100000001,19.7071C11.6834199,20.0976,12.3165798,20.0976,12.707109899999999,19.7071C12.707109899999999,19.7071,12,19,12,19C12,19,12,19,12,19ZM8.70710701,14.2928896C8.31658301,13.9023705,7.68341699,13.9023705,7.29289299,14.2928896C6.9023699999999995,14.6834202,6.9023699999999995,15.3166,7.29289299,15.7071C7.29289299,15.7071,8.70710701,14.2928896,8.70710701,14.2928896C8.70710701,14.2928896,8.70710701,14.2928896,8.70710701,14.2928896ZM8.70710701,9.707109899999999C8.70710701,9.707109899999999,12.707109899999999,5.70710701,12.707109899999999,5.70710701C12.707109899999999,5.70710701,11.292890100000001,4.29289299,11.292890100000001,4.29289299C11.292890100000001,4.29289299,7.29289299,8.292890100000001,7.29289299,8.292890100000001C7.29289299,8.292890100000001,8.70710701,9.707109899999999,8.70710701,9.707109899999999C8.70710701,9.707109899999999,8.70710701,9.707109899999999,8.70710701,9.707109899999999ZM11.292890100000001,5.70710701C11.292890100000001,5.70710701,15.292890100000001,9.707109899999999,15.292890100000001,9.707109899999999C15.292890100000001,9.707109899999999,16.707110399999998,8.292890100000001,16.707110399999998,8.292890100000001C16.707110399999998,8.292890100000001,12.707109899999999,4.29289299,12.707109899999999,4.29289299C12.707109899999999,4.29289299,11.292890100000001,5.70710701,11.292890100000001,5.70710701C11.292890100000001,5.70710701,11.292890100000001,5.70710701,11.292890100000001,5.70710701ZM15.292890100000001,14.2928896C15.292890100000001,14.2928896,11.292890100000001,18.2929,11.292890100000001,18.2929C11.292890100000001,18.2929,12.707109899999999,19.7071,12.707109899999999,19.7071C12.707109899999999,19.7071,16.707110399999998,15.7071,16.707110399999998,15.7071C16.707110399999998,15.7071,15.292890100000001,14.2928896,15.292890100000001,14.2928896C15.292890100000001,14.2928896,15.292890100000001,14.2928896,15.292890100000001,14.2928896ZM12.707109899999999,18.2929C12.707109899999999,18.2929,8.70710701,14.2928896,8.70710701,14.2928896C8.70710701,14.2928896,7.29289299,15.7071,7.29289299,15.7071C7.29289299,15.7071,11.292890100000001,19.7071,11.292890100000001,19.7071C11.292890100000001,19.7071,12.707109899999999,18.2929,12.707109899999999,18.2929C12.707109899999999,18.2929,12.707109899999999,18.2929,12.707109899999999,18.2929Z" fill="#0A0A28" fill-opacity="1"/></g></svg>