<svg xmlns="http://www.w3.org/2000/svg" xmlns:xlink="http://www.w3.org/1999/xlink" fill="none" version="1.1" width="24" height="24" viewBox="0 0 24 24"><defs><clipPath id="master_svg0_3_2165"><rect x="0" y="0" width="24" height="24" rx="0"/></clipPath></defs><g clip-path="url(#master_svg0_3_2165)"><path d="M3,10C3,10,2,10,2,10C2,10,3,10,3,10C3,10,3,10,3,10ZM5,4C5,4,5,3,5,3C5,3,5,4,5,4C5,4,5,4,5,4ZM19,4C19,4,19,3,19,3C19,3,19,4,19,4C19,4,19,4,19,4ZM3,14C3,14,2,14,2,14C2,14,3,14,3,14C3,14,3,14,3,14ZM3,18C3,18,2,18,2,18C2,18,3,18,3,18C3,18,3,18,3,18ZM17,7C16.447699999999998,7,16,7.4477201,16,8C16,8.5522799,16.447699999999998,9,17,9C17,9,17,7,17,7C17,7,17,7,17,7ZM17.009999999999998,9C17.5623,9,18.009999999999998,8.5522799,18.009999999999998,8C18.009999999999998,7.4477201,17.5623,7,17.009999999999998,7C17.009999999999998,7,17.009999999999998,9,17.009999999999998,9C17.009999999999998,9,17.009999999999998,9,17.009999999999998,9ZM17,15C16.447699999999998,15,16,15.4477,16,16C16,16.552300000000002,16.447699999999998,17,17,17C17,17,17,15,17,15C17,15,17,15,17,15ZM17.009999999999998,17C17.5623,17,18.009999999999998,16.552300000000002,18.009999999999998,16C18.009999999999998,15.4477,17.5623,15,17.009999999999998,15C17.009999999999998,15,17.009999999999998,17,17.009999999999998,17C17.009999999999998,17,17.009999999999998,17,17.009999999999998,17ZM5,13C5,13,19,13,19,13C19,13,19,11,19,11C19,11,5,11,5,11C5,11,5,13,5,13C5,13,5,13,5,13ZM5,11C4.73478,11,4.48043,10.894639999999999,4.29289,10.707109899999999C4.29289,10.707109899999999,2.87868,12.1213198,2.87868,12.1213198C3.44128799,12.6839304,4.20435,13,5,13C5,13,5,11,5,11C5,11,5,11,5,11ZM4.29289,10.707109899999999C4.10536,10.5195699,4,10.2652202,4,10C4,10,2,10,2,10C2,10.79565,2.3160700199999997,11.558710099999999,2.87868,12.1213198C2.87868,12.1213198,4.29289,10.707109899999999,4.29289,10.707109899999999C4.29289,10.707109899999999,4.29289,10.707109899999999,4.29289,10.707109899999999ZM4,10C4,10,4,6,4,6C4,6,2,6,2,6C2,6,2,10,2,10C2,10,4,10,4,10C4,10,4,10,4,10ZM4,6C4,5.73478,4.10536,5.48043,4.29289,5.29289C4.29289,5.29289,2.87868,3.87868,2.87868,3.87868C2.3160700199999997,4.44128901,2,5.20435,2,6C2,6,4,6,4,6C4,6,4,6,4,6ZM4.29289,5.29289C4.48043,5.10536,4.73478,5,5,5C5,5,5,3,5,3C4.20435,3,3.44128901,3.3160700199999997,2.87868,3.87868C2.87868,3.87868,4.29289,5.29289,4.29289,5.29289C4.29289,5.29289,4.29289,5.29289,4.29289,5.29289ZM5,5C5,5,19,5,19,5C19,5,19,3,19,3C19,3,5,3,5,3C5,3,5,5,5,5C5,5,5,5,5,5ZM19,5C19.2652,5,19.5196,5.10536,19.7071,5.29289C19.7071,5.29289,21.1213,3.87868,21.1213,3.87868C20.558701,3.3160700199999997,19.7957,3,19,3C19,3,19,5,19,5C19,5,19,5,19,5ZM19.7071,5.29289C19.8946,5.48043,20,5.73478,20,6C20,6,22,6,22,6C22,5.20435,21.683901,4.44128799,21.1213,3.87868C21.1213,3.87868,19.7071,5.29289,19.7071,5.29289C19.7071,5.29289,19.7071,5.29289,19.7071,5.29289ZM20,6C20,6,20,10,20,10C20,10,22,10,22,10C22,10,22,6,22,6C22,6,20,6,20,6C20,6,20,6,20,6ZM20,10C20,10.2652202,19.8946,10.5195699,19.7071,10.707109899999999C19.7071,10.707109899999999,21.1213,12.1213198,21.1213,12.1213198C21.683901,11.558710099999999,22,10.79565,22,10C22,10,20,10,20,10C20,10,20,10,20,10ZM19.7071,10.707109899999999C19.5196,10.894639999999999,19.2652,11,19,11C19,11,19,13,19,13C19.7957,13,20.558701,12.6839304,21.1213,12.1213198C21.1213,12.1213198,19.7071,10.707109899999999,19.7071,10.707109899999999C19.7071,10.707109899999999,19.7071,10.707109899999999,19.7071,10.707109899999999ZM5,11C4.20435,11,3.44128799,11.316070100000001,2.87868,11.8786802C2.87868,11.8786802,4.29289,13.2928896,4.29289,13.2928896C4.48043,13.10536,4.73478,13,5,13C5,13,5,11,5,11C5,11,5,11,5,11ZM2.87868,11.8786802C2.3160700199999997,12.4412899,2,13.2043505,2,14C2,14,4,14,4,14C4,13.7347803,4.10536,13.4804296,4.29289,13.2928896C4.29289,13.2928896,2.87868,11.8786802,2.87868,11.8786802C2.87868,11.8786802,2.87868,11.8786802,2.87868,11.8786802ZM2,14C2,14,2,18,2,18C2,18,4,18,4,18C4,18,4,14,4,14C4,14,2,14,2,14C2,14,2,14,2,14ZM2,18C2,18.7956,2.3160700199999997,19.5587,2.87868,20.1213C2.87868,20.1213,4.29289,18.7071,4.29289,18.7071C4.10536,18.5196,4,18.2652,4,18C4,18,2,18,2,18C2,18,2,18,2,18ZM2.87868,20.1213C3.44128799,20.683901,4.20435,21,5,21C5,21,5,19,5,19C4.73478,19,4.48043,18.8946,4.29289,18.7071C4.29289,18.7071,2.87868,20.1213,2.87868,20.1213C2.87868,20.1213,2.87868,20.1213,2.87868,20.1213ZM5,21C5,21,19,21,19,21C19,21,19,19,19,19C19,19,5,19,5,19C5,19,5,21,5,21C5,21,5,21,5,21ZM19,21C19.7957,21,20.558701,20.683901,21.1213,20.1213C21.1213,20.1213,19.7071,18.7071,19.7071,18.7071C19.5196,18.8946,19.2652,19,19,19C19,19,19,21,19,21C19,21,19,21,19,21ZM21.1213,20.1213C21.683901,19.5587,22,18.7957,22,18C22,18,20,18,20,18C20,18.2652,19.8946,18.5196,19.7071,18.7071C19.7071,18.7071,21.1213,20.1213,21.1213,20.1213C21.1213,20.1213,21.1213,20.1213,21.1213,20.1213ZM22,18C22,18,22,14,22,14C22,14,20,14,20,14C20,14,20,18,20,18C20,18,22,18,22,18C22,18,22,18,22,18ZM22,14C22,13.2043505,21.683901,12.4412899,21.1213,11.8786802C21.1213,11.8786802,19.7071,13.2928896,19.7071,13.2928896C19.8946,13.4804296,20,13.7347803,20,14C20,14,22,14,22,14C22,14,22,14,22,14ZM21.1213,11.8786802C20.558701,11.316070100000001,19.7957,11,19,11C19,11,19,13,19,13C19.2652,13,19.5196,13.10536,19.7071,13.2928896C19.7071,13.2928896,21.1213,11.8786802,21.1213,11.8786802C21.1213,11.8786802,21.1213,11.8786802,21.1213,11.8786802ZM17,9C17,9,17.009999999999998,9,17.009999999999998,9C17.009999999999998,9,17.009999999999998,7,17.009999999999998,7C17.009999999999998,7,17,7,17,7C17,7,17,9,17,9C17,9,17,9,17,9ZM17,17C17,17,17.009999999999998,17,17.009999999999998,17C17.009999999999998,17,17.009999999999998,15,17.009999999999998,15C17.009999999999998,15,17,15,17,15C17,15,17,17,17,17C17,17,17,17,17,17Z" fill="#0A0A28" fill-opacity="1"/></g></svg>