<svg xmlns="http://www.w3.org/2000/svg" xmlns:xlink="http://www.w3.org/1999/xlink" fill="none" version="1.1" width="24" height="24" viewBox="0 0 24 24"><defs><clipPath id="master_svg0_3_1761"><rect x="0" y="0" width="24" height="24" rx="0"/></clipPath></defs><g clip-path="url(#master_svg0_3_1761)"><path d="M2.4000244140625,5.9999756859375C2.4000244140624996,5.3634596859375,2.6528812340625,4.7530064859375,3.1029676240625,4.3029187959375C3.5530553140625,3.8528324059375,4.1635085140625,3.5999755859375004,4.8000245140625,3.5999755859375C4.8000245140625,3.5999755859375,19.2000254140625,3.5999755859375,19.2000254140625,3.5999755859375C19.8365054140625,3.5999755859375004,20.4469454140625,3.8528324059375,20.8970644140625,4.3029187959375C21.3471854140625,4.7530064859375,21.6000254140625,5.3634596859375,21.6000254140625,5.9999756859375C21.6000254140625,5.9999756859375,21.6000254140625,8.3999757859375,21.6000254140625,8.3999757859375C21.6000254140625,9.036491385937499,21.3471854140625,9.6469440859375,20.8970644140625,10.097027785937499C20.4469454140625,10.5471238859375,19.8365054140625,10.7999758859375,19.2000254140625,10.7999758859375C19.2000254140625,10.7999758859375,4.8000245140625,10.7999758859375,4.8000245140625,10.7999758859375C4.1635085140625,10.7999758859375,3.5530553140625,10.5471238859375,3.1029676240625,10.097027785937499C2.6528812340625,9.6469440859375,2.4000244140625004,9.036491385937499,2.4000244140625,8.3999757859375C2.4000244140625,8.3999757859375,2.4000244140625,5.9999756859375,2.4000244140625,5.9999756859375C2.4000244140625,5.9999756859375,2.4000244140625,5.9999756859375,2.4000244140625,5.9999756859375ZM19.2000254140625,7.1999756859375C19.2000254140625,7.518239785937499,19.0735454140625,7.8234600859375,18.8485454140625,8.048507685937501C18.6235444140625,8.2735437859375,18.318265414062502,8.3999757859375,18.0000244140625,8.3999757859375C17.6817854140625,8.3999757859375,17.376504414062502,8.2735437859375,17.1515054140625,8.048507685937501C16.9265054140625,7.8234600859375,16.8000254140625,7.518239785937499,16.8000254140625,7.1999756859375C16.8000254140625,6.8817116859375,16.9265054140625,6.5764915859375,17.1515054140625,6.3514437859375C17.376504414062502,6.1264075859375,17.6817854140625,5.9999756859375,18.0000244140625,5.9999756859375C18.318265414062502,5.9999756859375,18.6235444140625,6.1264075859375,18.8485454140625,6.3514437859375C19.0735454140625,6.5764915859375,19.2000254140625,6.8817116859375,19.2000254140625,7.1999756859375C19.2000254140625,7.1999756859375,19.2000254140625,7.1999756859375,19.2000254140625,7.1999756859375ZM2.4000244140625,15.5999755859375C2.4000244140624996,14.9634595859375,2.6528812340625,14.3530085859375,3.1029676240625,13.9029235859375C3.5530553140625,13.4528274859375,4.1635085140625,13.1999759859375,4.8000245140625,13.1999759859375C4.8000245140625,13.1999759859375,19.2000254140625,13.1999759859375,19.2000254140625,13.1999759859375C19.8365054140625,13.1999759859375,20.4469454140625,13.4528274859375,20.8970644140625,13.9029235859375C21.3471854140625,14.3530085859375,21.6000254140625,14.9634595859375,21.6000254140625,15.5999755859375C21.6000254140625,15.5999755859375,21.6000254140625,17.9999765859375,21.6000254140625,17.9999765859375C21.6000254140625,18.636456585937502,21.3471854140625,19.2468955859375,20.8970644140625,19.6970155859375C20.4469454140625,20.1471365859375,19.8365054140625,20.3999765859375,19.2000254140625,20.3999765859375C19.2000254140625,20.3999765859375,4.8000245140625,20.3999765859375,4.8000245140625,20.3999765859375C4.1635085140625,20.3999765859375,3.5530553140625,20.1471365859375,3.1029676240625,19.6970155859375C2.6528812340625,19.2468955859375,2.4000244140625004,18.636456585937502,2.4000244140625,17.9999765859375C2.4000244140625,17.9999765859375,2.4000244140625,15.5999755859375,2.4000244140625,15.5999755859375C2.4000244140625,15.5999755859375,2.4000244140625,15.5999755859375,2.4000244140625,15.5999755859375ZM19.2000254140625,16.7999765859375C19.2000254140625,17.1182155859375,19.0735454140625,17.4234965859375,18.8485454140625,17.6484955859375C18.6235444140625,17.873495585937498,18.318265414062502,17.9999765859375,18.0000244140625,17.9999765859375C17.6817854140625,17.9999765859375,17.376504414062502,17.873495585937498,17.1515054140625,17.6484955859375C16.9265054140625,17.4234965859375,16.8000254140625,17.1182155859375,16.8000254140625,16.7999765859375C16.8000254140625,16.481736585937497,16.9265054140625,16.1764565859375,17.1515054140625,15.9514555859375C17.376504414062502,15.7264565859375,17.6817854140625,15.5999755859375,18.0000244140625,15.5999755859375C18.318265414062502,15.5999755859375,18.6235444140625,15.7264565859375,18.8485454140625,15.9514555859375C19.0735454140625,16.1764565859375,19.2000254140625,16.481736585937497,19.2000254140625,16.7999765859375C19.2000254140625,16.7999765859375,19.2000254140625,16.7999765859375,19.2000254140625,16.7999765859375C19.2000254140625,16.7999765859375,19.2000254140625,16.7999765859375,19.2000254140625,16.7999765859375Z" fill-rule="evenodd" fill="#0A0A28" fill-opacity="1"/></g></svg>