<svg xmlns="http://www.w3.org/2000/svg" xmlns:xlink="http://www.w3.org/1999/xlink" fill="none" version="1.1" width="24" height="24" viewBox="0 0 24 24"><defs><clipPath id="master_svg0_3_2271"><rect x="0" y="0" width="24" height="24" rx="0"/></clipPath></defs><g clip-path="url(#master_svg0_3_2271)"><path d="M3.0008981227874756,12.000000918457031C3.0008981227874756,12.000000918457031,4.000898122787476,12.000000918457031,4.000898122787476,12.000000918457031C4.000898122787476,12.000000918457031,3.0008981227874756,12.000000918457031,3.0008981227874756,12.000000918457031C3.0008981227874756,12.000000918457031,3.0008981227874756,12.000000918457031,3.0008981227874756,12.000000918457031ZM15.315998122787475,7.3420014184570315C15.315998122787475,7.3420014184570315,16.210398122787474,6.894721518457031,16.210398122787474,6.894721518457031C16.210398122787474,6.894721518457031,15.315998122787475,7.3420014184570315,15.315998122787475,7.3420014184570315C15.315998122787475,7.3420014184570315,15.315998122787475,7.3420014184570315,15.315998122787475,7.3420014184570315ZM20.682998122787474,4.658001418457031C20.682998122787474,4.658001418457031,19.788599122787474,5.105281318457031,19.788599122787474,5.105281318457031C19.788599122787474,5.105281318457031,19.788599122787474,5.105281318457031,19.788599122787474,5.105281318457031C19.788599122787474,5.105281318457031,20.682998122787474,4.658001418457031,20.682998122787474,4.658001418457031C20.682998122787474,4.658001418457031,20.682998122787474,4.658001418457031,20.682998122787474,4.658001418457031ZM17.051098122787476,15.15314141845703C17.051098122787476,15.15314141845703,16.734798122787474,14.204541418457032,16.734798122787474,14.204541418457032C16.734798122787474,14.204541418457032,17.051098122787476,15.15314141845703,17.051098122787476,15.15314141845703C17.051098122787476,15.15314141845703,17.051098122787476,15.15314141845703,17.051098122787476,15.15314141845703ZM9.578428022787476,13.789241418457031C9.848058022787477,13.24994141845703,9.999998322787476,12.641221018457031,9.999998322787476,12.000000918457031C9.999998322787476,12.000000918457031,7.999998322787476,12.000000918457031,7.999998322787476,12.000000918457031C7.999998322787476,12.322781518457031,7.923948022787475,12.626041418457032,7.789568222787476,12.894791618457031C7.789568222787476,12.894791618457031,9.578428022787476,13.789241418457031,9.578428022787476,13.789241418457031C9.578428022787476,13.789241418457031,9.578428022787476,13.789241418457031,9.578428022787476,13.789241418457031ZM9.999998322787476,12.000000918457031C9.999998322787476,11.35878181845703,9.848058022787477,10.750041518457031,9.578428022787476,10.21078161845703C9.578428022787476,10.21078161845703,7.789568222787476,11.10521121845703,7.789568222787476,11.10521121845703C7.923948022787475,11.373961418457032,7.999998322787476,11.67722131845703,7.999998322787476,12.000000918457031C7.999998322787476,12.000000918457031,9.999998322787476,12.000000918457031,9.999998322787476,12.000000918457031C9.999998322787476,12.000000918457031,9.999998322787476,12.000000918457031,9.999998322787476,12.000000918457031ZM7.789628222787476,12.894671418457031C7.588098322787475,13.297641418457031,7.256438022787475,13.620641418457032,6.8483581227874755,13.81154141845703C6.8483581227874755,13.81154141845703,7.695828222787475,15.623141418457031,7.695828222787475,15.623141418457031C8.511967922787475,15.241341418457031,9.175308022787476,14.59514141845703,9.578367922787475,13.789341418457031C9.578367922787475,13.789341418457031,7.789628222787476,12.894671418457031,7.789628222787476,12.894671418457031C7.789628222787476,12.894671418457031,7.789628222787476,12.894671418457031,7.789628222787476,12.894671418457031ZM6.8483581227874755,13.81154141845703C6.440288022787476,14.002441418457032,5.979718222787476,14.050041418457031,5.541258122787475,13.946441418457031C5.541258122787475,13.946441418457031,5.0816281227874756,15.892941418457031,5.0816281227874756,15.892941418457031C5.958538022787476,16.10004141845703,6.879688022787476,16.00494141845703,7.695828222787475,15.623141418457031C7.695828222787475,15.623141418457031,6.8483581227874755,13.81154141845703,6.8483581227874755,13.81154141845703C6.8483581227874755,13.81154141845703,6.8483581227874755,13.81154141845703,6.8483581227874755,13.81154141845703ZM5.541258122787475,13.946441418457031C5.102808222787475,13.84294141845703,4.712148022787476,13.59434141845703,4.432578122787476,13.241141418457032C4.432578122787476,13.241141418457032,2.8642521227874758,14.482241418457031,2.8642521227874758,14.482241418457031C3.4233941127874754,15.188741418457031,4.204708122787475,15.68584141845703,5.0816281227874756,15.892941418457031C5.0816281227874756,15.892941418457031,5.541258122787475,13.946441418457031,5.541258122787475,13.946441418457031C5.541258122787475,13.946441418457031,5.541258122787475,13.946441418457031,5.541258122787475,13.946441418457031ZM4.432578122787476,13.241141418457032C4.153008122787476,12.887841218457032,4.000898122787476,12.450511018457032,4.000898122787476,12.000000918457031C4.000898122787476,12.000000918457031,2.0008981227874756,12.000000918457031,2.0008981227874756,12.000000918457031C2.0008981227874756,12.901031518457032,2.3051111127874755,13.775641418457031,2.8642521227874758,14.482241418457031C2.8642521227874758,14.482241418457031,4.432578122787476,13.241141418457032,4.432578122787476,13.241141418457032C4.432578122787476,13.241141418457032,4.432578122787476,13.241141418457032,4.432578122787476,13.241141418457032ZM4.000898122787476,12.000000918457031C4.000898122787476,11.549481418457031,4.153008122787476,11.112161618457032,4.432578122787476,10.758881618457032C4.432578122787476,10.758881618457032,2.8642521227874758,9.517771218457032,2.8642521227874758,9.517771218457032C2.3051111127874755,10.22433141845703,2.0008981227874756,11.098971318457032,2.0008981227874756,12.000000918457031C2.0008981227874756,12.000000918457031,4.000898122787476,12.000000918457031,4.000898122787476,12.000000918457031C4.000898122787476,12.000000918457031,4.000898122787476,12.000000918457031,4.000898122787476,12.000000918457031ZM4.432578122787476,10.758881618457032C4.712148022787476,10.405611518457032,5.102808222787475,10.157071618457032,5.541258122787475,10.053531618457031C5.541258122787475,10.053531618457031,5.0816281227874756,8.107061418457032,5.0816281227874756,8.107061418457032C4.204708122787475,8.314141318457033,3.4233941127874754,8.811221618457031,2.8642521227874758,9.517771218457032C2.8642521227874758,9.517771218457032,4.432578122787476,10.758881618457032,4.432578122787476,10.758881618457032C4.432578122787476,10.758881618457032,4.432578122787476,10.758881618457032,4.432578122787476,10.758881618457032ZM5.541258122787475,10.053531618457031C5.979718222787476,9.949991218457031,6.440288022787476,9.997531418457031,6.8483581227874755,10.18842121845703C6.8483581227874755,10.18842121845703,7.695828222787475,8.37685151845703,7.695828222787475,8.37685151845703C6.879688022787476,7.995051418457031,5.958538022787476,7.899991518457031,5.0816281227874756,8.107061418457032C5.0816281227874756,8.107061418457032,5.541258122787475,10.053531618457031,5.541258122787475,10.053531618457031C5.541258122787475,10.053531618457031,5.541258122787475,10.053531618457031,5.541258122787475,10.053531618457031ZM6.8483581227874755,10.18842121845703C7.256438022787475,10.37932161845703,7.588098322787475,10.702401618457031,7.789628222787476,11.10533141845703C7.789628222787476,11.10533141845703,9.578367922787475,10.210671418457032,9.578367922787475,10.210671418457032C9.175308022787476,9.404811418457031,8.511967922787475,8.758651218457032,7.695828222787475,8.37685151845703C7.695828222787475,8.37685151845703,6.8483581227874755,10.18842121845703,6.8483581227874755,10.18842121845703C6.8483581227874755,10.18842121845703,6.8483581227874755,10.18842121845703,6.8483581227874755,10.18842121845703ZM8.236788022787476,14.236441418457032C8.236788022787476,14.236441418457032,14.868798122787476,17.55244141845703,14.868798122787476,17.55244141845703C14.868798122787476,17.55244141845703,15.763198122787475,15.76354141845703,15.763198122787475,15.76354141845703C15.763198122787475,15.76354141845703,9.131218222787474,12.44757171845703,9.131218222787474,12.44757171845703C9.131218222787474,12.44757171845703,8.236788022787476,14.236441418457032,8.236788022787476,14.236441418457032C8.236788022787476,14.236441418457032,8.236788022787476,14.236441418457032,8.236788022787476,14.236441418457032ZM9.131218222787474,11.552431118457031C9.131218222787474,11.552431118457031,15.763198122787475,8.236431618457031,15.763198122787475,8.236431618457031C15.763198122787475,8.236431618457031,14.868798122787476,6.447571518457032,14.868798122787476,6.447571518457032C14.868798122787476,6.447571518457032,8.236788022787476,9.763571218457031,8.236788022787476,9.763571218457031C8.236788022787476,9.763571218457031,9.131218222787474,11.552431118457031,9.131218222787474,11.552431118457031C9.131218222787474,11.552431118457031,9.131218222787474,11.552431118457031,9.131218222787474,11.552431118457031ZM14.421598122787476,7.789281318457031C14.656598122787475,8.25914141845703,14.981798122787476,8.678111518457031,15.378698122787476,9.022281618457031C15.378698122787476,9.022281618457031,16.688998122787474,7.511271518457031,16.688998122787474,7.511271518457031C16.490498122787475,7.339171418457031,16.327898122787474,7.1296716184570315,16.210398122787474,6.894721518457031C16.210398122787474,6.894721518457031,14.421598122787476,7.789281318457031,14.421598122787476,7.789281318457031C14.421598122787476,7.789281318457031,14.421598122787476,7.789281318457031,14.421598122787476,7.789281318457031ZM15.378698122787476,9.022281618457031C15.775598122787475,9.366451218457032,16.236398122787477,9.629081218457031,16.734798122787474,9.795161218457032C16.734798122787474,9.795161218457032,17.367098122787475,7.897751318457031,17.367098122787475,7.897751318457031C17.117898122787476,7.814701518457031,16.887398122787474,7.683371518457031,16.688998122787474,7.511271518457031C16.688998122787474,7.511271518457031,15.378698122787476,9.022281618457031,15.378698122787476,9.022281618457031C15.378698122787476,9.022281618457031,15.378698122787476,9.022281618457031,15.378698122787476,9.022281618457031ZM16.734798122787474,9.795161218457032C17.233098122787474,9.961251218457031,17.759398122787474,10.027551618457032,18.283398122787474,9.990271518457032C18.283398122787474,9.990271518457032,18.141498122787475,7.995311218457031,18.141498122787475,7.995311218457031C17.879398122787478,8.013951318457032,17.616298122787477,7.980801618457031,17.367098122787475,7.897751318457031C17.367098122787475,7.897751318457031,16.734798122787474,9.795161218457032,16.734798122787474,9.795161218457032C16.734798122787474,9.795161218457032,16.734798122787474,9.795161218457032,16.734798122787474,9.795161218457032ZM18.283398122787474,9.990271518457032C18.807398122787475,9.952991518457031,19.318899122787474,9.812861418457032,19.788799122787477,9.57789131845703C19.788799122787477,9.57789131845703,18.894198122787476,7.789101618457031,18.894198122787476,7.789101618457031C18.659298122787476,7.906601418457031,18.403498122787475,7.976671218457032,18.141498122787475,7.995311218457031C18.141498122787475,7.995311218457031,18.283398122787474,9.990271518457032,18.283398122787474,9.990271518457032C18.283398122787474,9.990271518457032,18.283398122787474,9.990271518457032,18.283398122787474,9.990271518457032ZM19.788799122787477,9.57789131845703C20.258598122787475,9.342921218457032,20.677599122787477,9.017711618457032,21.021799122787474,8.62081141845703C21.021799122787474,8.62081141845703,19.510797122787476,7.310521618457031,19.510797122787476,7.310521618457031C19.338697122787476,7.508991218457031,19.129198122787475,7.671611318457031,18.894198122787476,7.789101618457031C18.894198122787476,7.789101618457031,19.788799122787477,9.57789131845703,19.788799122787477,9.57789131845703C19.788799122787477,9.57789131845703,19.788799122787477,9.57789131845703,19.788799122787477,9.57789131845703ZM21.021799122787474,8.62081141845703C21.365999122787475,8.22392131845703,21.628599122787474,7.763131618457031,21.794698122787477,7.264741418457032C21.794698122787477,7.264741418457032,19.897298122787475,6.632431518457031,19.897298122787475,6.632431518457031C19.814197122787476,6.881641418457031,19.682897122787477,7.112061518457031,19.510797122787476,7.310521618457031C19.510797122787476,7.310521618457031,21.021799122787474,8.62081141845703,21.021799122787474,8.62081141845703C21.021799122787474,8.62081141845703,21.021799122787474,8.62081141845703,21.021799122787474,8.62081141845703ZM21.794698122787477,7.264741418457032C21.960798122787477,6.766351418457031,22.027097122787474,6.240131418457031,21.989797122787476,5.716121418457031C21.989797122787476,5.716121418457031,19.994798122787476,5.858051318457031,19.994798122787476,5.858051318457031C20.013498122787475,6.120071418457031,19.980299122787475,6.383211418457032,19.897298122787475,6.632431518457031C19.897298122787475,6.632431518457031,21.794698122787477,7.264741418457032,21.794698122787477,7.264741418457032C21.794698122787477,7.264741418457032,21.794698122787477,7.264741418457032,21.794698122787477,7.264741418457032ZM21.989797122787476,5.716121418457031C21.952497122787477,5.192111518457031,21.812399122787475,4.680571418457031,21.577398122787475,4.210721418457031C21.577398122787475,4.210721418457031,19.788599122787474,5.105281318457031,19.788599122787474,5.105281318457031C19.906097122787475,5.340231418457032,19.976198122787476,5.596021418457031,19.994798122787476,5.858051318457031C19.994798122787476,5.858051318457031,21.989797122787476,5.716121418457031,21.989797122787476,5.716121418457031C21.989797122787476,5.716121418457031,21.989797122787476,5.716121418457031,21.989797122787476,5.716121418457031ZM21.577398122787475,4.210721418457031C21.102798122787476,3.2618034184570313,20.270797122787474,2.540265408457031,19.264198122787477,2.2048354184570313C19.264198122787477,2.2048354184570313,18.631898122787476,4.102251418457032,18.631898122787476,4.102251418457032C19.135198122787475,4.269981418457031,19.551298122787475,4.6307814184570315,19.788599122787474,5.105281318457031C19.788599122787474,5.105281318457031,21.577398122787475,4.210721418457031,21.577398122787475,4.210721418457031C21.577398122787475,4.210721418457031,21.577398122787475,4.210721418457031,21.577398122787475,4.210721418457031ZM19.264198122787477,2.2048354184570313C18.257698122787474,1.8694014184570313,17.159098122787476,1.9475614184570313,16.210198122787475,2.4221064484570314C16.210198122787475,2.4221064484570314,17.104798122787475,4.210891318457032,17.104798122787475,4.210891318457032C17.579298122787478,3.9735994384570312,18.128598122787476,3.934518398457031,18.631898122787476,4.102251418457032C18.631898122787476,4.102251418457032,19.264198122787477,2.2048354184570313,19.264198122787477,2.2048354184570313C19.264198122787477,2.2048354184570313,19.264198122787477,2.2048354184570313,19.264198122787477,2.2048354184570313ZM16.210198122787475,2.4221064484570314C15.261298122787476,2.8966534184570314,14.539798122787476,3.728719408457031,14.204298122787476,4.735261418457031C14.204298122787476,4.735261418457031,16.101798122787475,5.367571318457031,16.101798122787475,5.367571318457031C16.269498122787475,4.864261418457032,16.630298122787476,4.448191418457031,17.104798122787475,4.210891318457032C17.104798122787475,4.210891318457032,16.210198122787475,2.4221064484570314,16.210198122787475,2.4221064484570314C16.210198122787475,2.4221064484570314,16.210198122787475,2.4221064484570314,16.210198122787475,2.4221064484570314ZM14.204298122787476,4.735261418457031C13.868898122787476,5.741801518457031,13.947098122787475,6.840361318457031,14.421598122787476,7.789281318457031C14.421598122787476,7.789281318457031,16.210398122787474,6.894721518457031,16.210398122787474,6.894721518457031C15.973098122787476,6.420221318457031,15.933998122787475,5.870891318457032,16.101798122787475,5.367571318457031C16.101798122787475,5.367571318457031,14.204298122787476,4.735261418457031,14.204298122787476,4.735261418457031C14.204298122787476,4.735261418457031,14.204298122787476,4.735261418457031,14.204298122787476,4.735261418457031ZM14.421598122787476,16.210741418457033C13.946998122787475,17.15984141845703,13.868998122787476,18.258541418457032,14.204498122787475,19.26514041845703C14.204498122787475,19.26514041845703,16.101898122787475,18.63274141845703,16.101898122787475,18.63274141845703C15.934098122787475,18.12934141845703,15.973098122787476,17.57984141845703,16.210398122787474,17.105241418457034C16.210398122787474,17.105241418457034,14.421598122787476,16.210741418457033,14.421598122787476,16.210741418457033C14.421598122787476,16.210741418457033,14.421598122787476,16.210741418457033,14.421598122787476,16.210741418457033ZM14.204498122787475,19.26514041845703C14.539998122787475,20.271841418457033,15.261698122787475,21.10394141845703,16.210798122787473,21.578441418457032C16.210798122787473,21.578441418457032,17.105198122787478,19.78954141845703,17.105198122787478,19.78954141845703C16.630598122787475,19.55224241845703,16.269698122787474,19.136140418457032,16.101898122787475,18.63274141845703C16.101898122787475,18.63274141845703,14.204498122787475,19.26514041845703,14.204498122787475,19.26514041845703C14.204498122787475,19.26514041845703,14.204498122787475,19.26514041845703,14.204498122787475,19.26514041845703ZM16.210798122787473,21.578441418457032C17.159798122787475,22.052942418457032,18.258498122787476,22.13104041845703,19.265197122787477,21.79554141845703C19.265197122787477,21.79554141845703,18.632698122787474,19.89814141845703,18.632698122787474,19.89814141845703C18.129298122787475,20.065940418457032,17.579798122787476,20.026842418457033,17.105198122787478,19.78954141845703C17.105198122787478,19.78954141845703,16.210798122787473,21.578441418457032,16.210798122787473,21.578441418457032C16.210798122787473,21.578441418457032,16.210798122787473,21.578441418457032,16.210798122787473,21.578441418457032ZM19.265197122787477,21.79554141845703C20.271799122787474,21.45994141845703,21.103899122787475,20.738241418457033,21.578397122787475,19.78924141845703C21.578397122787475,19.78924141845703,19.789598122787474,18.89474141845703,19.789598122787474,18.89474141845703C19.552297122787476,19.36944241845703,19.136099122787474,19.73034141845703,18.632698122787474,19.89814141845703C18.632698122787474,19.89814141845703,19.265197122787477,21.79554141845703,19.265197122787477,21.79554141845703C19.265197122787477,21.79554141845703,19.265197122787477,21.79554141845703,19.265197122787477,21.79554141845703ZM21.578397122787475,19.78924141845703C22.052997122787474,18.84014141845703,22.130998122787474,17.74144141845703,21.795498122787475,16.73484141845703C21.795498122787475,16.73484141845703,19.898098122787477,17.36734141845703,19.898098122787477,17.36734141845703C20.065899122787474,17.87074141845703,20.026897122787474,18.420141418457032,19.789598122787474,18.89474141845703C19.789598122787474,18.89474141845703,21.578397122787475,19.78924141845703,21.578397122787475,19.78924141845703C21.578397122787475,19.78924141845703,21.578397122787475,19.78924141845703,21.578397122787475,19.78924141845703ZM21.795498122787475,16.73484141845703C21.459999122787476,15.728241418457031,20.738298122787477,14.89614141845703,19.789198122787475,14.421541418457032C19.789198122787475,14.421541418457032,18.894798122787478,16.21044141845703,18.894798122787478,16.21044141845703C19.369398122787477,16.44774141845703,19.730299122787475,16.86384141845703,19.898098122787477,17.36734141845703C19.898098122787477,17.36734141845703,21.795498122787475,16.73484141845703,21.795498122787475,16.73484141845703C21.795498122787475,16.73484141845703,21.795498122787475,16.73484141845703,21.795498122787475,16.73484141845703ZM19.789198122787475,14.421541418457032C19.319297122787475,14.18664141845703,18.807698122787478,14.046541418457032,18.283598122787474,14.009241418457032C18.283598122787474,14.009241418457032,18.141798122787478,16.00424141845703,18.141798122787478,16.00424141845703C18.403898122787474,16.02284141845703,18.659798122787475,16.09294141845703,18.894798122787478,16.21044141845703C18.894798122787478,16.21044141845703,19.789198122787475,14.421541418457032,19.789198122787475,14.421541418457032C19.789198122787475,14.421541418457032,19.789198122787475,14.421541418457032,19.789198122787475,14.421541418457032ZM18.283598122787474,14.009241418457032C17.759498122787477,13.972041418457032,17.233298122787474,14.038341418457032,16.734798122787474,14.204541418457032C16.734798122787474,14.204541418457032,17.367298122787474,16.10184141845703,17.367298122787474,16.10184141845703C17.616598122787476,16.018741418457033,17.879698122787474,15.985641418457032,18.141798122787478,16.00424141845703C18.141798122787478,16.00424141845703,18.283598122787474,14.009241418457032,18.283598122787474,14.009241418457032C18.283598122787474,14.009241418457032,18.283598122787474,14.009241418457032,18.283598122787474,14.009241418457032ZM16.734798122787474,14.204541418457032C15.728198122787475,14.540041418457031,14.896098122787476,15.261741418457031,14.421598122787476,16.210741418457033C14.421598122787476,16.210741418457033,16.210398122787474,17.105241418457034,16.210398122787474,17.105241418457034C16.447698122787475,16.63054141845703,16.863898122787475,16.26964141845703,17.367298122787474,16.10184141845703C17.367298122787474,16.10184141845703,16.734798122787474,14.204541418457032,16.734798122787474,14.204541418457032C16.734798122787474,14.204541418457032,16.734798122787474,14.204541418457032,16.734798122787474,14.204541418457032Z" fill="#0A0A28" fill-opacity="1"/></g></svg>