<svg xmlns="http://www.w3.org/2000/svg" xmlns:xlink="http://www.w3.org/1999/xlink" fill="none" version="1.1" width="24" height="24" viewBox="0 0 24 24"><defs><clipPath id="master_svg0_3_1981"><rect x="0" y="0" width="24" height="24" rx="0"/></clipPath></defs><g clip-path="url(#master_svg0_3_1981)"><path d="M17.999914765625,9.6000247140625C18.730954765625,9.6000485140625,19.444595765625,9.3775449140625,20.046035765625,8.9621048140625C20.647475765625,8.5466647140625,21.108274765625,7.9579687140625,21.366994765625,7.2743168140625C21.625716765625,6.5906525140625,21.670236765625,5.8444326140625,21.494556765625,5.1348727140624995C21.318874765625,4.4253125140625,20.931394765625,3.7860365140625003,20.383594765625,3.3020668640625C19.835794765625,2.8180972340625,19.153594765625,2.5123631340625,18.427715765625,2.4255221360625C17.701954765625,2.3386811350625,16.966955765625002,2.4748478980625,16.320395765625,2.8159144240625C15.673834765625,3.1569820040625,15.146435765625,3.6867844140625,14.808274765625,4.3348805140625C14.470234765625,4.9829645140625,14.337407765625,5.7186246140625006,14.427514765625,6.4440245140625C14.427514765625,6.4440245140625,8.499562765625,9.4080248140625,8.499562765625,9.4080248140625C7.991038765625,8.917656414062499,7.349482965625,8.5877290140625,6.654790865625,8.459364414062499C5.9601108656249995,8.3309889140625,5.243014765625,8.409853014062499,4.592830865625,8.6861048140625C3.942634865625,8.9623685140625,3.388101575625,9.4238286140625,2.998293575625,10.0129928140625C2.608484375625,10.6021566140625,2.4006347656249996,11.2929849140625,2.400634765625,11.9994249140625C2.4006347656250004,12.7058774140625,2.608484375625,13.3967054140625,2.998293575625,13.9858684140625C3.388101575625,14.5749844140625,3.942634865625,15.0365054140625,4.592830865625,15.3127454140625C5.243014765625,15.5889844140625,5.9601108656249995,15.6678254140625,6.654790865625,15.5395454140625C7.349482965625,15.4111454140625,7.991038765625,15.0811454140625,8.499562765625,14.5908254140625C8.499562765625,14.5908254140625,14.427514765625,17.5548244140625,14.427514765625,17.5548244140625C14.322562765625,18.397464414062497,14.518835765625,19.2501854140625,14.981674765625,19.9621444140625C15.444514765625,20.6741044140625,16.144235765624998,21.1995854140625,16.956994765624998,21.4455854140625C17.769755765625,21.6915854140625,18.643354765625,21.6423834140625,19.423354765625,21.3066254140625C20.203355765625,20.9708654140625,20.839595765625,20.3701434140625,21.219514765625,19.6106664140625C21.599435765625,18.8511844140625,21.698674765625,17.9819064140625,21.499715765625,17.1563044140625C21.300636765625,16.330704414062502,20.816196765625,15.6020654140625,20.131955765625,15.0991454140625C19.447715765625,14.5962244140625,18.607715765625,14.3514364140625,17.760394765625,14.4079454140625C16.913075765625003,14.4644654140625,16.113034765625002,14.8187044140625,15.501515765625,15.4080244140625C15.501515765625,15.4080244140625,9.573563065624999,12.4440254140625,9.573563065624999,12.4440254140625C9.609887165625,12.1491365140625,9.609887165625,11.8509130140625,9.573563065624999,11.5560245140625C9.573563065624999,11.5560245140625,15.501515765625,8.592024314062499,15.501515765625,8.592024314062499C16.147115765625,9.216024414062499,17.027914765625,9.6000247140625,17.999914765625,9.6000247140625C17.999914765625,9.6000247140625,17.999914765625,9.6000247140625,17.999914765625,9.6000247140625Z" fill="#0A0A28" fill-opacity="1"/></g></svg>