<svg xmlns="http://www.w3.org/2000/svg" xmlns:xlink="http://www.w3.org/1999/xlink" fill="none" version="1.1" width="24" height="24" viewBox="0 0 24 24"><defs><clipPath id="master_svg0_3_1866"><rect x="0" y="0" width="24" height="24" rx="0"/></clipPath></defs><g clip-path="url(#master_svg0_3_1866)"><path d="M2.599193896484375,5.998763771875C6.0733620964843755,5.955563771875,9.413766396484375,4.652915671875,11.999994296484376,2.332763671875C14.585993896484375,4.653347771875,17.926434896484373,5.956439971875,21.400794896484374,5.9999637718750005C21.532794896484376,6.779963971875,21.599994896484375,7.583963871875,21.599994896484375,8.401164071875C21.599994896484375,14.671163671875,17.591993896484375,20.005164671875,11.999994296484376,21.981565671875C6.407993796484375,20.003963671875,2.399993896484375,14.669964671875,2.399993896484375,8.399964371875C2.399993896484375,7.581563971875,2.468393780484375,6.779963971875,2.599193896484375,5.998763771875C2.599193896484375,5.998763771875,2.599193896484375,5.998763771875,2.599193896484375,5.998763771875C2.599193896484375,5.998763771875,2.599193896484375,5.998763771875,2.599193896484375,5.998763771875ZM16.448393896484376,10.448364271875C16.667034896484374,10.222043971875,16.787993896484373,9.918924371875,16.785235896484373,9.604283771875C16.782474896484374,9.289643771875,16.656234896484374,8.988671771875001,16.433754896484373,8.766179571875C16.211274896484376,8.543687771875,15.910314896484374,8.417483771875,15.595674896484375,8.414759671875C15.281033896484375,8.412023971875,14.977913896484376,8.532971871874999,14.751594896484375,8.751564071875C14.751594896484375,8.751564071875,10.799994496484375,12.703163671875,10.799994496484375,12.703163671875C10.799994496484375,12.703163671875,9.248393996484374,11.151563671875,9.248393996484374,11.151563671875C9.022074196484375,10.932971971875,8.718954096484374,10.812024071875,8.404314496484375,10.814760171875C8.089673996484375,10.817483871875,7.788701996484375,10.943687471875,7.566210296484375,11.166179671875C7.343718096484375,11.388671871875,7.217513996484375,11.689643871875,7.214790296484375,12.004283871875C7.212053796484375,12.318923971875,7.333002096484375,12.622043671875,7.551594296484375,12.848363671875C7.551594296484375,12.848363671875,9.951594396484374,15.248363671875,9.951594396484374,15.248363671875C10.176629996484376,15.473363671875,10.481801996484375,15.599724671875,10.799994496484375,15.599724671875C11.118185996484375,15.599724671875,11.423358896484375,15.473363671875,11.648393596484375,15.248363671875C11.648393596484375,15.248363671875,16.448393896484376,10.448364271875,16.448393896484376,10.448364271875C16.448393896484376,10.448364271875,16.448393896484376,10.448364271875,16.448393896484376,10.448364271875C16.448393896484376,10.448364271875,16.448393896484376,10.448364271875,16.448393896484376,10.448364271875Z" fill-rule="evenodd" fill="#0A0A28" fill-opacity="1"/></g></svg>