<svg xmlns="http://www.w3.org/2000/svg" xmlns:xlink="http://www.w3.org/1999/xlink" fill="none" version="1.1" width="24" height="24" viewBox="0 0 24 24"><defs><clipPath id="master_svg0_3_1457"><rect x="0" y="0" width="24" height="24" rx="0"/></clipPath></defs><g clip-path="url(#master_svg0_3_1457)"><path d="M11.999994296484376,2.332763671875C9.413946596484376,4.653347771875,6.073517996484375,5.956439971875,2.599193896484375,5.9999637718750005C2.467193782484375,6.778763771875,2.399993896484375,7.582763671875,2.399993896484375,8.399964371875C2.399993896484375,14.669964671875,6.407993796484375,20.003963671875,11.999994296484376,21.980363671875C17.591993896484375,20.003963671875,21.599994896484375,14.669964671875,21.599994896484375,8.399964371875C21.599994896484375,7.581563971875,21.531594896484375,6.779963971875,21.400794896484374,5.998763771875C17.926674896484375,5.955563771875,14.586233896484375,4.652915671875,11.999994296484376,2.332763671875C11.999994296484376,2.332763671875,11.999994296484376,2.332763671875,11.999994296484376,2.332763671875C11.999994296484376,2.332763671875,11.999994296484376,2.332763671875,11.999994296484376,2.332763671875ZM13.199993896484376,16.799963671875C13.199993896484376,17.118204671875,13.073562896484376,17.423483671874997,12.848526896484374,17.648484671875C12.623478896484375,17.873483671875,12.318258296484375,17.999963671875,11.999994296484376,17.999963671875C11.681730296484375,17.999963671875,11.376510596484374,17.873483671875,11.151462596484375,17.648484671875C10.926425896484375,17.423483671874997,10.799994496484375,17.118204671875,10.799994496484375,16.799963671875C10.799994496484375,16.481724671875,10.926425896484375,16.176443671875,11.151462596484375,15.951443671875C11.376510596484374,15.726444671875,11.681730296484375,15.599963671875,11.999994296484376,15.599963671875C12.318258296484375,15.599963671875,12.623478896484375,15.726444671875,12.848526896484374,15.951443671875C13.073562896484376,16.176443671875,13.199993896484376,16.481724671875,13.199993896484376,16.799963671875C13.199993896484376,16.799963671875,13.199993896484376,16.799963671875,13.199993896484376,16.799963671875C13.199993896484376,16.799963671875,13.199993896484376,16.799963671875,13.199993896484376,16.799963671875ZM13.199993896484376,8.399964371875C13.199993896484376,8.081699871875,13.073562896484376,7.776479671875,12.848526896484374,7.551431671875C12.623478896484375,7.326395471875,12.318258296484375,7.199964071875,11.999994296484376,7.199964071875C11.681730296484375,7.199964071875,11.376510596484374,7.326395471875,11.151462596484375,7.551431671875C10.926425896484375,7.776479671875,10.799994496484375,8.081699871875,10.799994496484375,8.399964371875C10.799994496484375,8.399964371875,10.799994496484375,11.999963771875,10.799994496484375,11.999963771875C10.799994496484375,12.318228671875,10.926425896484375,12.623448671875,11.151462596484375,12.848496671875C11.376510596484374,13.073531671875,11.681730296484375,13.199963671875,11.999994296484376,13.199963671875C12.318258296484375,13.199963671875,12.623478896484375,13.073531671875,12.848526896484374,12.848496671875C13.073562896484376,12.623448671875,13.199993896484376,12.318228671875,13.199993896484376,11.999963771875C13.199993896484376,11.999963771875,13.199993896484376,8.399964371875,13.199993896484376,8.399964371875C13.199993896484376,8.399964371875,13.199993896484376,8.399964371875,13.199993896484376,8.399964371875Z" fill-rule="evenodd" fill="#0A0A28" fill-opacity="1"/></g></svg>