<svg xmlns="http://www.w3.org/2000/svg" xmlns:xlink="http://www.w3.org/1999/xlink" fill="none" version="1.1" width="24" height="24" viewBox="0 0 24 24"><defs><clipPath id="master_svg0_3_2072"><rect x="0" y="0" width="24" height="24" rx="0"/></clipPath></defs><g clip-path="url(#master_svg0_3_2072)"><path d="M9.707105846884154,11.292890305722047C9.316585746884154,10.902370205722047,8.683416146884156,10.902370205722047,8.292896046884156,11.292890305722047C7.902365946884156,11.683419905722046,7.902365946884156,12.316579605722046,8.292896046884156,12.707110205722046C8.292896046884156,12.707110205722046,9.707105846884154,11.292890305722047,9.707105846884154,11.292890305722047C9.707105846884154,11.292890305722047,9.707105846884154,11.292890305722047,9.707105846884154,11.292890305722047ZM10.999995946884155,14.000000005722045C10.999995946884155,14.000000005722045,10.292896046884156,14.707100005722046,10.292896046884156,14.707100005722046C10.683416146884156,15.097600005722047,11.316586246884155,15.097600005722047,11.707106346884155,14.707100005722046C11.707106346884155,14.707100005722046,10.999995946884155,14.000000005722045,10.999995946884155,14.000000005722045C10.999995946884155,14.000000005722045,10.999995946884155,14.000000005722045,10.999995946884155,14.000000005722045ZM15.707095946884156,10.707110205722046C16.097595946884155,10.316580105722046,16.097595946884155,9.683419905722046,15.707095946884156,9.292889805722046C15.316595946884155,8.902370205722047,14.683395946884156,8.902370205722047,14.292895946884155,9.292889805722046C14.292895946884155,9.292889805722046,15.707095946884156,10.707110205722046,15.707095946884156,10.707110205722046C15.707095946884156,10.707110205722046,15.707095946884156,10.707110205722046,15.707095946884156,10.707110205722046ZM20.617995946884154,5.984000005722046C20.617995946884154,5.984000005722046,21.586196946884154,5.733910105722046,21.586196946884154,5.733910105722046C21.467194946884156,5.2732201057220465,21.040095946884154,4.960170005722046,20.564996946884154,4.985410005722046C20.564996946884154,4.985410005722046,20.617995946884154,5.984000005722046,20.617995946884154,5.984000005722046C20.617995946884154,5.984000005722046,20.617995946884154,5.984000005722046,20.617995946884154,5.984000005722046ZM11.999995946884155,2.944000005722046C11.999995946884155,2.944000005722046,12.667835946884155,2.199693975722046,12.667835946884155,2.199693975722046C12.287875846884155,1.858770005722046,11.712125546884156,1.858770005722046,11.332155946884155,2.199693975722046C11.332155946884155,2.199693975722046,11.999995946884155,2.944000005722046,11.999995946884155,2.944000005722046C11.999995946884155,2.944000005722046,11.999995946884155,2.944000005722046,11.999995946884155,2.944000005722046ZM3.381999936884155,5.984000005722046C3.381999936884155,5.984000005722046,3.4350309368841554,4.985410005722046,3.4350309368841554,4.985410005722046C2.9598970448841553,4.960180005722046,2.5327799368841553,5.2732201057220465,2.4137809268841552,5.7339001057220464C2.4137809268841552,5.7339001057220464,3.381999936884155,5.984000005722046,3.381999936884155,5.984000005722046C3.381999936884155,5.984000005722046,3.381999936884155,5.984000005722046,3.381999936884155,5.984000005722046ZM2.999999913544355,9.000000205722046C2.999999913544355,9.000000205722046,3.9999959468841553,9.000000205722046,3.9999959468841553,9.000000205722046C3.9999959468841553,9.000000205722046,3.9999959468841553,8.999190105722047,3.9999959468841553,8.999190105722047C3.9999959468841553,8.999190105722047,2.999999913544355,9.000000205722046,2.999999913544355,9.000000205722046C2.999999913544355,9.000000205722046,2.999999913544355,9.000000205722046,2.999999913544355,9.000000205722046ZM11.999995946884155,20.621999005722046C11.999995946884155,20.621999005722046,11.750776046884155,21.590400005722046,11.750776046884155,21.590400005722046C11.914266346884155,21.632499005722046,12.085736046884156,21.632499005722046,12.249226346884155,21.590400005722046C12.249226346884155,21.590400005722046,11.999995946884155,20.621999005722046,11.999995946884155,20.621999005722046C11.999995946884155,20.621999005722046,11.999995946884155,20.621999005722046,11.999995946884155,20.621999005722046ZM8.292896046884156,12.707110205722046C8.292896046884156,12.707110205722046,10.292896046884156,14.707100005722046,10.292896046884156,14.707100005722046C10.292896046884156,14.707100005722046,11.707106346884155,13.292900005722046,11.707106346884155,13.292900005722046C11.707106346884155,13.292900005722046,9.707105846884154,11.292890305722047,9.707105846884154,11.292890305722047C9.707105846884154,11.292890305722047,8.292896046884156,12.707110205722046,8.292896046884156,12.707110205722046C8.292896046884156,12.707110205722046,8.292896046884156,12.707110205722046,8.292896046884156,12.707110205722046ZM11.707106346884155,14.707100005722046C11.707106346884155,14.707100005722046,15.707095946884156,10.707110205722046,15.707095946884156,10.707110205722046C15.707095946884156,10.707110205722046,14.292895946884155,9.292889805722046,14.292895946884155,9.292889805722046C14.292895946884155,9.292889805722046,10.292896046884156,13.292900005722046,10.292896046884156,13.292900005722046C10.292896046884156,13.292900005722046,11.707106346884155,14.707100005722046,11.707106346884155,14.707100005722046C11.707106346884155,14.707100005722046,11.707106346884155,14.707100005722046,11.707106346884155,14.707100005722046ZM20.564996946884154,4.985410005722046C17.667595946884155,5.139280105722046,14.827395946884156,4.137429905722046,12.667835946884155,2.199693975722046C12.667835946884155,2.199693975722046,11.332155946884155,3.6883060357220456,11.332155946884155,3.6883060357220456C13.885995946884155,5.979800005722046,17.244695946884157,7.1645501057220455,20.670995946884155,6.982590005722046C20.670995946884155,6.982590005722046,20.564996946884154,4.985410005722046,20.564996946884154,4.985410005722046C20.564996946884154,4.985410005722046,20.564996946884154,4.985410005722046,20.564996946884154,4.985410005722046ZM11.332155946884155,2.199693975722046C9.172556146884155,4.137429905722046,6.332445846884156,5.139280105722046,3.4350309368841554,4.985410005722046C3.4350309368841554,4.985410005722046,3.3289689468841552,6.982590005722046,3.3289689468841552,6.982590005722046C6.755346046884155,7.1645501057220455,10.113965746884155,5.979800005722046,12.667835946884155,3.6883060357220456C12.667835946884155,3.6883060357220456,11.332155946884155,2.199693975722046,11.332155946884155,2.199693975722046C11.332155946884155,2.199693975722046,11.332155946884155,2.199693975722046,11.332155946884155,2.199693975722046ZM2.4137809268841552,5.7339001057220464C2.1381429468841553,6.800970105722046,1.9991059468841552,7.898720005722046,1.9999999368841552,9.000809905722047C1.9999999368841552,9.000809905722047,3.9999959468841553,8.999190105722047,3.9999959468841553,8.999190105722047C3.999241946884155,8.066379805722047,4.116925946884155,7.137260205722046,4.3502159468841555,6.234100105722046C4.3502159468841555,6.234100105722046,2.4137809268841552,5.7339001057220464,2.4137809268841552,5.7339001057220464C2.4137809268841552,5.7339001057220464,2.4137809268841552,5.7339001057220464,2.4137809268841552,5.7339001057220464ZM1.9999999368841552,9.000000205722046C1.9999999368841552,15.058300005722046,6.143575946884155,20.147501005722045,11.750776046884155,21.590400005722046C11.750776046884155,21.590400005722046,12.249226346884155,19.653600005722044,12.249226346884155,19.653600005722044C7.504415746884155,18.432500005722048,3.9999959468841553,14.123700005722046,3.9999959468841553,9.000000205722046C3.9999959468841553,9.000000205722046,1.9999999368841552,9.000000205722046,1.9999999368841552,9.000000205722046C1.9999999368841552,9.000000205722046,1.9999999368841552,9.000000205722046,1.9999999368841552,9.000000205722046ZM12.249226346884155,21.590400005722046C17.856395946884156,20.147501005722045,21.999995946884155,15.059300005722045,21.999995946884155,9.000000205722046C21.999995946884155,9.000000205722046,19.999995946884155,9.000000205722046,19.999995946884155,9.000000205722046C19.999995946884155,14.124700005722046,16.495595946884155,18.432500005722048,11.750776046884155,19.653600005722044C11.750776046884155,19.653600005722044,12.249226346884155,21.590400005722046,12.249226346884155,21.590400005722046C12.249226346884155,21.590400005722046,12.249226346884155,21.590400005722046,12.249226346884155,21.590400005722046ZM21.999995946884155,9.000000205722046C21.999995946884155,7.872500205722046,21.855996946884154,6.7785001057220455,21.586196946884154,5.733910105722046C21.586196946884154,5.733910105722046,19.649794946884157,6.234090105722046,19.649794946884157,6.234090105722046C19.877995946884155,7.117500105722046,19.999995946884155,8.043500205722045,19.999995946884155,9.000000205722046C19.999995946884155,9.000000205722046,21.999995946884155,9.000000205722046,21.999995946884155,9.000000205722046C21.999995946884155,9.000000205722046,21.999995946884155,9.000000205722046,21.999995946884155,9.000000205722046Z" fill="#0A0A28" fill-opacity="1"/></g></svg>