<svg xmlns="http://www.w3.org/2000/svg" xmlns:xlink="http://www.w3.org/1999/xlink" fill="none" version="1.1" width="24" height="24" viewBox="0 0 24 24"><defs><clipPath id="master_svg0_3_1862"><rect x="0" y="0" width="24" height="24" rx="0"/></clipPath></defs><g clip-path="url(#master_svg0_3_1862)"><path d="M11.999994303515624,2.4000244140625C9.349194003515624,2.4000244140625,7.199994303515625,4.5492246140625,7.199994303515625,7.2000246140625C7.199994303515625,7.2000246140625,7.199994303515625,8.4000244140625,7.199994303515625,8.4000244140625C7.199994303515625,8.4000244140625,5.999994303515625,8.4000244140625,5.999994303515625,8.4000244140625C5.387994203515625,8.4000244140625,4.874406203515625,8.859636814062501,4.807206203515625,9.4680366140625C4.807206203515625,9.4680366140625,3.607208299915625,20.2680264140625,3.607208299915625,20.2680264140625C3.570008262515625,20.6064244140625,3.677999861515625,20.9460254140625,3.906000103515625,21.2004244140625C4.134000123515625,21.4548244140625,4.459194123515625,21.6000254140625,4.799994103515625,21.6000254140625C4.799994103515625,21.6000254140625,19.200006103515626,21.6000254140625,19.200006103515626,21.6000254140625C19.540807103515625,21.6000254140625,19.866007103515624,21.4548244140625,20.094007103515626,21.2004244140625C20.322008103515625,20.9460254140625,20.430006103515623,20.6064244140625,20.392807103515626,20.2680264140625C20.392807103515626,20.2680264140625,19.192807103515626,9.4680366140625,19.192807103515626,9.4680366140625C19.125606103515626,8.859636814062501,18.612007103515623,8.4000244140625,18.000007103515625,8.4000244140625C18.000007103515625,8.4000244140625,16.800007103515625,8.4000244140625,16.800007103515625,8.4000244140625C16.800007103515625,8.4000244140625,16.800007103515625,7.2000246140625,16.800007103515625,7.2000246140625C16.800007103515625,4.5492246140625,14.650795103515625,2.4000244140625,11.999994303515624,2.4000244140625C11.999994303515624,2.4000244140625,11.999994303515624,2.4000244140625,11.999994303515624,2.4000244140625ZM14.399995103515625,8.4000244140625C14.399995103515625,8.4000244140625,14.399995103515625,7.2000246140625,14.399995103515625,7.2000246140625C14.399995103515625,5.8740246140625,13.325994503515625,4.8000245140625,11.999994303515624,4.8000245140625C10.673994503515626,4.8000245140625,9.599994203515624,5.8740246140625,9.599994203515624,7.2000246140625C9.599994203515624,7.2000246140625,9.599994203515624,8.4000244140625,9.599994203515624,8.4000244140625C9.599994203515624,8.4000244140625,14.399995103515625,8.4000244140625,14.399995103515625,8.4000244140625C14.399995103515625,8.4000244140625,14.399995103515625,8.4000244140625,14.399995103515625,8.4000244140625ZM7.199994303515625,12.0000248140625C7.199994303515625,11.3376245140625,7.737594103515625,10.8000250140625,8.399994403515624,10.8000250140625C9.062394103515626,10.8000250140625,9.599994203515624,11.3376245140625,9.599994203515624,12.0000248140625C9.599994203515624,12.6624254140625,9.062394103515626,13.2000244140625,8.399994403515624,13.2000244140625C7.737594103515625,13.2000244140625,7.199994303515625,12.6624254140625,7.199994303515625,12.0000248140625C7.199994303515625,12.0000248140625,7.199994303515625,12.0000248140625,7.199994303515625,12.0000248140625ZM15.599995103515624,10.8000250140625C14.937595103515624,10.8000250140625,14.399995103515625,11.3376245140625,14.399995103515625,12.0000248140625C14.399995103515625,12.6624254140625,14.937595103515624,13.2000244140625,15.599995103515624,13.2000244140625C16.262406103515623,13.2000244140625,16.800007103515625,12.6624254140625,16.800007103515625,12.0000248140625C16.800007103515625,11.3376245140625,16.262406103515623,10.8000250140625,15.599995103515624,10.8000250140625C15.599995103515624,10.8000250140625,15.599995103515624,10.8000250140625,15.599995103515624,10.8000250140625Z" fill-rule="evenodd" fill="#0A0A28" fill-opacity="1"/></g></svg>