<svg xmlns="http://www.w3.org/2000/svg" xmlns:xlink="http://www.w3.org/1999/xlink" fill="none" version="1.1" width="24" height="24" viewBox="0 0 24 24"><defs><clipPath id="master_svg0_3_2102"><rect x="0" y="0" width="24" height="24" rx="0"/></clipPath></defs><g clip-path="url(#master_svg0_3_2102)"><path d="M3.599993896484375,1.199951171875C3.281734766484375,1.1999511718750002,2.976509926484375,1.326379581875,2.751465496484375,1.551422771875C2.526422306484375,1.776467201875,2.399993896484376,2.081692041875,2.399993896484375,2.399951171875C2.3999938964843754,2.718215371875,2.526422306484375,3.023435271875,2.751465496484375,3.248483371875C2.976509926484375,3.473519371875,3.281734766484375,3.599951271875,3.599993896484375,3.599951271875C3.599993896484375,3.599951271875,5.063993896484375,3.599951271875,5.063993896484375,3.599951271875C5.063993896484375,3.599951271875,5.429994096484375,5.0663511718750005,5.429994096484375,5.0663511718750005C5.433629996484375,5.083235271875,5.437625896484375,5.100035471875,5.441994196484375,5.116751171875C5.441994196484375,5.116751171875,7.071593796484375,11.632751171875,7.071593796484375,11.632751171875C7.071593796484375,11.632751171875,5.999993996484375,12.703152171875,5.999993996484375,12.703152171875C4.487993996484375,14.215152171875,5.558393996484375,16.799951171875,7.696793996484375,16.799951171875C7.696793996484375,16.799951171875,17.999993896484376,16.799951171875,17.999993896484376,16.799951171875C18.318234896484377,16.799951171875,18.623513896484376,16.673471171875,18.848514896484375,16.448472171875C19.073514896484376,16.223471171874998,19.199994896484377,15.918191171875,19.199994896484377,15.599952171875C19.199994896484377,15.281712171875,19.073514896484376,14.976432171875,18.848514896484375,14.751431171875C18.623513896484376,14.526432171875,18.318234896484377,14.399952171875,17.999993896484376,14.399952171875C17.999993896484376,14.399952171875,7.696793996484375,14.399952171875,7.696793996484375,14.399952171875C7.696793996484375,14.399952171875,8.896794296484375,13.199951171875,8.896794296484375,13.199951171875C8.896794296484375,13.199951171875,16.799994896484375,13.199951171875,16.799994896484375,13.199951171875C17.022834896484376,13.199831171875,17.241114896484376,13.137695171875,17.430594896484376,13.020490171875C17.620073896484374,12.903288171875,17.773193896484376,12.735647171875,17.872793896484374,12.536351171875C17.872793896484374,12.536351171875,21.472795896484374,5.336351371875,21.472795896484374,5.336351371875C21.564233896484374,5.153447371875,21.607314896484375,4.950215371875,21.598193896484375,4.745963371875C21.588954896484374,4.541699371875,21.527755896484376,4.343171371875,21.420234896484374,4.169219271875C21.312715896484374,3.995279271875,21.162593896484374,3.851675271875,20.984035896484375,3.752039171875C20.805474896484377,3.652415271875,20.604474896484376,3.600059071875,20.399993896484375,3.599951271875C20.399993896484375,3.599951271875,7.535994496484375,3.599951271875,7.535994496484375,3.599951271875C7.535994496484375,3.599951271875,7.163994296484375,2.108351231875,7.163994296484375,2.108351231875C7.098989996484375,1.848854781875,6.949134396484375,1.618521991875,6.738245996484375,1.453937201875C6.527346096484375,1.289353817875,6.267509896484375,1.1999582043914,5.999993996484375,1.199951171875C5.999993996484375,1.199951171875,3.599993896484375,1.199951171875,3.599993896484375,1.199951171875C3.599993896484375,1.199951171875,3.599993896484375,1.199951171875,3.599993896484375,1.199951171875ZM19.199994896484377,19.799951171875C19.199994896484377,20.277313171875,19.010394896484375,20.735231171875,18.672833896484374,21.072792171875C18.335274896484375,21.410351171875,17.877354896484377,21.599953171875,17.399994896484372,21.599953171875C16.922633896484378,21.599953171875,16.464714896484374,21.410351171875,16.127153896484373,21.072792171875C15.789594896484376,20.735231171875,15.599994896484375,20.277313171875,15.599994896484375,19.799951171875C15.599994896484375,19.322592171875,15.789594896484376,18.864672171875,16.127153896484373,18.527111171875C16.464714896484374,18.189552171875,16.922633896484378,17.999952171875,17.399994896484372,17.999952171875C17.877354896484377,17.999952171875,18.335274896484375,18.189552171875,18.672833896484374,18.527111171875C19.010394896484375,18.864672171875,19.199994896484377,19.322592171875,19.199994896484377,19.799951171875C19.199994896484377,19.799951171875,19.199994896484377,19.799951171875,19.199994896484377,19.799951171875ZM7.799993996484375,21.599953171875C8.277378096484375,21.599953171875,8.735226196484376,21.410351171875,9.072785896484376,21.072792171875C9.410345996484375,20.735231171875,9.599994196484374,20.277313171875,9.599994196484374,19.799951171875C9.599994196484374,19.322592171875,9.410345996484375,18.864672171875,9.072785896484376,18.527111171875C8.735226196484376,18.189552171875,8.277378096484375,17.999952171875,7.799993996484375,17.999952171875C7.322609896484375,17.999952171875,6.864761796484375,18.189552171875,6.527202096484375,18.527111171875C6.189642196484375,18.864672171875,5.999993996484375,19.322592171875,5.999993996484375,19.799951171875C5.999993996484375,20.277313171875,6.189642196484375,20.735231171875,6.527202096484375,21.072792171875C6.864761796484375,21.410351171875,7.322609896484375,21.599953171875,7.799993996484375,21.599953171875C7.799993996484375,21.599953171875,7.799993996484375,21.599953171875,7.799993996484375,21.599953171875C7.799993996484375,21.599953171875,7.799993996484375,21.599953171875,7.799993996484375,21.599953171875Z" fill="#0A0A28" fill-opacity="1"/></g></svg>