<svg xmlns="http://www.w3.org/2000/svg" xmlns:xlink="http://www.w3.org/1999/xlink" fill="none" version="1.1" width="24" height="24" viewBox="0 0 24 24"><defs><clipPath id="master_svg0_3_2178"><rect x="0" y="0" width="24" height="24" rx="0"/></clipPath></defs><g clip-path="url(#master_svg0_3_2178)"><path d="M15,11C15,11.55229,15.4477,12,16,12C16.552300000000002,12,17,11.55229,17,11C17,11,15,11,15,11C15,11,15,11,15,11ZM16,7C16,7,17,7,17,7C17,7,16,7,16,7C16,7,16,7,16,7ZM12,3C12,3,12,2,12,2C12,2,12,3,12,3C12,3,12,3,12,3ZM8,7C8,7,7,7,7,7C7,7,8,7,8,7C8,7,8,7,8,7ZM7,11C7,11.55229,7.4477201,12,8,12C8.5522799,12,9,11.55229,9,11C9,11,7,11,7,11C7,11,7,11,7,11ZM5,9C5,9,5,8,5,8C4.4799109999999995,8,4.046645299,8.3986602,4.00345424,8.916950199999999C4.00345424,8.916950199999999,5,9,5,9C5,9,5,9,5,9ZM19,9C19,9,19.996499999999997,8.916950199999999,19.996499999999997,8.916950199999999C19.953400000000002,8.3986602,19.5201,8,19,8C19,8,19,9,19,9C19,9,19,9,19,9ZM20,21C20,21,20,22,20,22C20.279699,22,20.546499,21.8829,20.735901,21.677099C20.9252,21.4713,21.0198,21.195601,20.9965,20.917C20.9965,20.917,20,21,20,21C20,21,20,21,20,21ZM4,21C4,21,3.00345403,20.917,3.00345403,20.917C2.9802299999999997,21.195601,3.074763,21.4713,3.2641180199999997,21.677099C3.45347297,21.8829,3.720348,22,4,22C4,22,4,21,4,21C4,21,4,21,4,21ZM17,11C17,11,17,7,17,7C17,7,15,7,15,7C15,7,15,11,15,11C15,11,17,11,17,11C17,11,17,11,17,11ZM17,7C17,5.6739199,16.4732,4.40215,15.5355,3.4644660099999998C15.5355,3.4644660099999998,14.1213,4.87868,14.1213,4.87868C14.6839,5.4412899,15,6.20435,15,7C15,7,17,7,17,7C17,7,17,7,17,7ZM15.5355,3.4644660099999998C14.5979,2.526784,13.3260803,2,12,2C12,2,12,4,12,4C12.7956495,4,13.5587101,4.31607,14.1213,4.87868C14.1213,4.87868,15.5355,3.4644660099999998,15.5355,3.4644660099999998C15.5355,3.4644660099999998,15.5355,3.4644660099999998,15.5355,3.4644660099999998ZM12,2C10.673920200000001,2,9.402150200000001,2.526784,8.464469900000001,3.4644660099999998C8.464469900000001,3.4644660099999998,9.8786802,4.87868,9.8786802,4.87868C10.441289900000001,4.31607,11.20435,4,12,4C12,4,12,2,12,2C12,2,12,2,12,2ZM8.464469900000001,3.4644660099999998C7.5267799,4.40215,7,5.6739199,7,7C7,7,9,7,9,7C9,6.20435,9.316070100000001,5.4412899,9.8786802,4.87868C9.8786802,4.87868,8.464469900000001,3.4644660099999998,8.464469900000001,3.4644660099999998C8.464469900000001,3.4644660099999998,8.464469900000001,3.4644660099999998,8.464469900000001,3.4644660099999998ZM7,7C7,7,7,11,7,11C7,11,9,11,9,11C9,11,9,7,9,7C9,7,7,7,7,7C7,7,7,7,7,7ZM5,10C5,10,19,10,19,10C19,10,19,8,19,8C19,8,5,8,5,8C5,8,5,10,5,10C5,10,5,10,5,10ZM18.003500000000003,9.083049800000001C18.003500000000003,9.083049800000001,19.003500000000003,21.083,19.003500000000003,21.083C19.003500000000003,21.083,20.9965,20.917,20.9965,20.917C20.9965,20.917,19.996499999999997,8.916950199999999,19.996499999999997,8.916950199999999C19.996499999999997,8.916950199999999,18.003500000000003,9.083049800000001,18.003500000000003,9.083049800000001C18.003500000000003,9.083049800000001,18.003500000000003,9.083049800000001,18.003500000000003,9.083049800000001ZM20,20C20,20,4,20,4,20C4,20,4,22,4,22C4,22,20,22,20,22C20,22,20,20,20,20C20,20,20,20,20,20ZM4.99654597,21.083C4.99654597,21.083,5.99655,9.083049800000001,5.99655,9.083049800000001C5.99655,9.083049800000001,4.00345424,8.916950199999999,4.00345424,8.916950199999999C4.00345424,8.916950199999999,3.00345403,20.917,3.00345403,20.917C3.00345403,20.917,4.99654597,21.083,4.99654597,21.083C4.99654597,21.083,4.99654597,21.083,4.99654597,21.083Z" fill="#0A0A28" fill-opacity="1"/></g></svg>