<svg xmlns="http://www.w3.org/2000/svg" xmlns:xlink="http://www.w3.org/1999/xlink" fill="none" version="1.1" width="24" height="24" viewBox="0 0 24 24"><defs><clipPath id="master_svg0_3_2031"><rect x="0" y="0" width="24" height="24" rx="0"/></clipPath></defs><g clip-path="url(#master_svg0_3_2031)"><path d="M3,2C2.4477149799999998,2,2,2.4477149799999998,2,3C2,3.5522850200000002,2.4477149799999998,4,3,4C3,4,3,2,3,2C3,2,3,2,3,2ZM5,3C5,3,5.9805801,2.803884,5.9805801,2.803884C5.8871,2.33645999,5.47668,2,5,2C5,2,5,3,5,3C5,3,5,3,5,3ZM17,13C17,13,17,14,17,14C17.3788,14,17.725,13.786,17.894399999999997,13.4472C17.894399999999997,13.4472,17,13,17,13C17,13,17,13,17,13ZM21,5C21,5,21.8944,5.4472100999999995,21.8944,5.4472100999999995C22.0494,5.1372298999999995,22.0329,4.7690901,21.8507,4.47427C21.6684,4.17945,21.3466,4,21,4C21,4,21,5,21,5C21,5,21,5,21,5ZM9,19C9,19,8,19,8,19C8,19,9,19,9,19C9,19,9,19,9,19ZM5,19C5,19,4,19,4,19C4,19,5,19,5,19C5,19,5,19,5,19ZM3,4C3,4,5,4,5,4C5,4,5,2,5,2C5,2,3,2,3,2C3,2,3,4,3,4C3,4,3,4,3,4ZM4.01942,3.196116C4.01942,3.196116,4.41942,5.1961200000000005,4.41942,5.1961200000000005C4.41942,5.1961200000000005,6.3805799,4.8038799999999995,6.3805799,4.8038799999999995C6.3805799,4.8038799999999995,5.9805801,2.803884,5.9805801,2.803884C5.9805801,2.803884,4.01942,3.196116,4.01942,3.196116C4.01942,3.196116,4.01942,3.196116,4.01942,3.196116ZM7,14C7,14,17,14,17,14C17,14,17,12,17,12C17,12,7,12,7,12C7,12,7,14,7,14C7,14,7,14,7,14ZM17.894399999999997,13.4472C17.894399999999997,13.4472,21.8944,5.4472100999999995,21.8944,5.4472100999999995C21.8944,5.4472100999999995,20.1056,4.55279,20.1056,4.55279C20.1056,4.55279,16.105600000000003,12.5527897,16.105600000000003,12.5527897C16.105600000000003,12.5527897,17.894399999999997,13.4472,17.894399999999997,13.4472C17.894399999999997,13.4472,17.894399999999997,13.4472,17.894399999999997,13.4472ZM21,4C21,4,5.4000001,4,5.4000001,4C5.4000001,4,5.4000001,6,5.4000001,6C5.4000001,6,21,6,21,6C21,6,21,4,21,4C21,4,21,4,21,4ZM4.41942,5.1961200000000005C4.41942,5.1961200000000005,6.0194199,13.1961,6.0194199,13.1961C6.0194199,13.1961,7.9805799,12.8038797,7.9805799,12.8038797C7.9805799,12.8038797,6.3805799,4.8038799999999995,6.3805799,4.8038799999999995C6.3805799,4.8038799999999995,4.41942,5.1961200000000005,4.41942,5.1961200000000005C4.41942,5.1961200000000005,4.41942,5.1961200000000005,4.41942,5.1961200000000005ZM6.2928901,12.2928896C6.2928901,12.2928896,3.99989301,14.5859,3.99989301,14.5859C3.99989301,14.5859,5.4141099,16.0001,5.4141099,16.0001C5.4141099,16.0001,7.7071099,13.7071,7.7071099,13.7071C7.7071099,13.7071,6.2928901,12.2928896,6.2928901,12.2928896C6.2928901,12.2928896,6.2928901,12.2928896,6.2928901,12.2928896ZM3.99989301,14.5859C2.74005601,15.8457,3.63191402,18,5.414,18C5.414,18,5.414,16,5.414,16C5.414,16,5.4141099,16.0001,5.4141099,16.0001C5.4141099,16.0001,3.99989301,14.5859,3.99989301,14.5859C3.99989301,14.5859,3.99989301,14.5859,3.99989301,14.5859ZM5.414,18C5.414,18,17,18,17,18C17,18,17,16,17,16C17,16,5.414,16,5.414,16C5.414,16,5.414,18,5.414,18C5.414,18,5.414,18,5.414,18ZM17,16C16.2043,16,15.4413,16.3161,14.8787,16.878700000000002C14.8787,16.878700000000002,16.2929,18.2929,16.2929,18.2929C16.4804,18.1054,16.7348,18,17,18C17,18,17,16,17,16C17,16,17,16,17,16ZM14.8787,16.878700000000002C14.3161,17.4413,14,18.2043,14,19C14,19,16,19,16,19C16,18.7348,16.1054,18.4804,16.2929,18.2929C16.2929,18.2929,14.8787,16.878700000000002,14.8787,16.878700000000002C14.8787,16.878700000000002,14.8787,16.878700000000002,14.8787,16.878700000000002ZM14,19C14,19.7957,14.3161,20.558701,14.8787,21.1213C14.8787,21.1213,16.2929,19.7071,16.2929,19.7071C16.1054,19.5196,16,19.2652,16,19C16,19,14,19,14,19C14,19,14,19,14,19ZM14.8787,21.1213C15.4413,21.683901,16.2043,22,17,22C17,22,17,20,17,20C16.7348,20,16.4804,19.8946,16.2929,19.7071C16.2929,19.7071,14.8787,21.1213,14.8787,21.1213C14.8787,21.1213,14.8787,21.1213,14.8787,21.1213ZM17,22C17.7957,22,18.5587,21.683901,19.1213,21.1213C19.1213,21.1213,17.7071,19.7071,17.7071,19.7071C17.5196,19.8946,17.2652,20,17,20C17,20,17,22,17,22C17,22,17,22,17,22ZM19.1213,21.1213C19.683901,20.558701,20,19.7957,20,19C20,19,18,19,18,19C18,19.2652,17.8946,19.5196,17.7071,19.7071C17.7071,19.7071,19.1213,21.1213,19.1213,21.1213C19.1213,21.1213,19.1213,21.1213,19.1213,21.1213ZM20,19C20,18.2043,19.683901,17.4413,19.1213,16.878700000000002C19.1213,16.878700000000002,17.7071,18.2929,17.7071,18.2929C17.8946,18.4804,18,18.7348,18,19C18,19,20,19,20,19C20,19,20,19,20,19ZM19.1213,16.878700000000002C18.5587,16.3161,17.7957,16,17,16C17,16,17,18,17,18C17.2652,18,17.5196,18.1054,17.7071,18.2929C17.7071,18.2929,19.1213,16.878700000000002,19.1213,16.878700000000002C19.1213,16.878700000000002,19.1213,16.878700000000002,19.1213,16.878700000000002ZM8,19C8,19.2652,7.89464,19.5196,7.7071099,19.7071C7.7071099,19.7071,9.1213198,21.1213,9.1213198,21.1213C9.683929899999999,20.558701,10,19.7957,10,19C10,19,8,19,8,19C8,19,8,19,8,19ZM7.7071099,19.7071C7.5195699,19.8946,7.2652202,20,7,20C7,20,7,22,7,22C7.79565,22,8.558710099999999,21.683901,9.1213198,21.1213C9.1213198,21.1213,7.7071099,19.7071,7.7071099,19.7071C7.7071099,19.7071,7.7071099,19.7071,7.7071099,19.7071ZM7,20C6.7347801,20,6.4804299,19.8946,6.2928901,19.7071C6.2928901,19.7071,4.87868,21.1213,4.87868,21.1213C5.4412899,21.683901,6.20435,22,7,22C7,22,7,20,7,20C7,20,7,20,7,20ZM6.2928901,19.7071C6.10536,19.5196,6,19.2652,6,19C6,19,4,19,4,19C4,19.7957,4.31607,20.558701,4.87868,21.1213C4.87868,21.1213,6.2928901,19.7071,6.2928901,19.7071C6.2928901,19.7071,6.2928901,19.7071,6.2928901,19.7071ZM6,19C6,18.7348,6.10536,18.4804,6.2928901,18.2929C6.2928901,18.2929,4.87868,16.878700000000002,4.87868,16.878700000000002C4.31607,17.4413,4,18.2044,4,19C4,19,6,19,6,19C6,19,6,19,6,19ZM6.2928901,18.2929C6.4804299,18.1054,6.7347801,18,7,18C7,18,7,16,7,16C6.20435,16,5.4412899,16.3161,4.87868,16.878700000000002C4.87868,16.878700000000002,6.2928901,18.2929,6.2928901,18.2929C6.2928901,18.2929,6.2928901,18.2929,6.2928901,18.2929ZM7,18C7.2652202,18,7.5195699,18.1054,7.7071099,18.2929C7.7071099,18.2929,9.1213198,16.878700000000002,9.1213198,16.878700000000002C8.558710099999999,16.3161,7.79565,16,7,16C7,16,7,18,7,18C7,18,7,18,7,18ZM7.7071099,18.2929C7.89464,18.4804,8,18.7348,8,19C8,19,10,19,10,19C10,18.2043,9.683929899999999,17.4413,9.1213198,16.878700000000002C9.1213198,16.878700000000002,7.7071099,18.2929,7.7071099,18.2929C7.7071099,18.2929,7.7071099,18.2929,7.7071099,18.2929Z" fill="#0A0A28" fill-opacity="1"/></g></svg>