<svg xmlns="http://www.w3.org/2000/svg" xmlns:xlink="http://www.w3.org/1999/xlink" fill="none" version="1.1" width="24" height="24" viewBox="0 0 24 24"><defs><clipPath id="master_svg0_3_2025"><rect x="0" y="0" width="24" height="24" rx="0"/></clipPath></defs><g clip-path="url(#master_svg0_3_2025)"><path d="M3.6000244140625,3.5999755859375C3.2817652840625,3.5999755859375004,2.9765404440625,3.7264039959375,2.7514960140625,3.9514471859375C2.5264528240625,4.1764916159375,2.400024414062501,4.4817164559375,2.4000244140625,4.7999755859375C2.4000244140625004,5.1182397859375,2.5264528240625,5.4234596859375,2.7514960140625,5.6485077859375C2.9765404440625,5.8735437859375,3.2817652840625,5.9999756859375,3.6000244140625,5.9999756859375C3.6000244140625,5.9999756859375,16.8000254140625,5.9999756859375,16.8000254140625,5.9999756859375C17.1182644140625,5.9999756859375,17.423544414062498,5.8735437859375,17.6485454140625,5.6485077859375C17.8735444140625,5.4234596859375,18.0000244140625,5.1182397859375,18.0000244140625,4.7999755859375C18.0000244140625,4.4817164559375,17.8735444140625,4.1764916159375,17.6485454140625,3.9514471859375C17.423544414062498,3.7264039959375,17.1182644140625,3.599975585937501,16.8000254140625,3.5999755859375C16.8000254140625,3.5999755859375,3.6000244140625,3.5999755859375,3.6000244140625,3.5999755859375C3.6000244140625,3.5999755859375,3.6000244140625,3.5999755859375,3.6000244140625,3.5999755859375ZM3.6000244140625,8.3999757859375C3.2817652840625,8.3999757859375,2.9765404440625,8.5264076859375,2.7514960140625,8.751443885937501C2.5264528240625,8.976491885937499,2.400024414062501,9.2817115859375,2.4000244140625,9.5999755859375C2.4000244140625004,9.9182400859375,2.5264528240625,10.223459685937499,2.7514960140625,10.448507785937501C2.9765404440625,10.6735438859375,3.2817652840625,10.7999758859375,3.6000244140625,10.7999758859375C3.6000244140625,10.7999758859375,12.0000248140625,10.7999758859375,12.0000248140625,10.7999758859375C12.3182888140625,10.7999758859375,12.6235094140625,10.6735438859375,12.8485574140625,10.448507785937501C13.0735934140625,10.223459685937499,13.2000244140625,9.9182400859375,13.2000244140625,9.5999755859375C13.2000244140625,9.2817115859375,13.0735934140625,8.976491885937499,12.8485574140625,8.751443885937501C12.6235094140625,8.5264076859375,12.3182888140625,8.3999757859375,12.0000248140625,8.3999757859375C12.0000248140625,8.3999757859375,3.6000244140625,8.3999757859375,3.6000244140625,8.3999757859375C3.6000244140625,8.3999757859375,3.6000244140625,8.3999757859375,3.6000244140625,8.3999757859375ZM3.6000244140625,13.1999759859375C3.2817652840625,13.1999759859375,2.9765404440625,13.3264083859375,2.7514960140625,13.5514430859375C2.5264528240625,13.7764915859375,2.400024414062501,14.0817125859375,2.4000244140625,14.3999755859375C2.4000244140625004,14.7182395859375,2.5264528240625,15.0234605859375,2.7514960140625,15.2485085859375C2.9765404440625,15.4735445859375,3.2817652840625,15.5999755859375,3.6000244140625,15.5999755859375C3.6000244140625,15.5999755859375,8.4000244140625,15.5999755859375,8.4000244140625,15.5999755859375C8.7182889140625,15.5999755859375,9.023508514062499,15.4735445859375,9.248556614062501,15.2485085859375C9.4735927140625,15.0234605859375,9.6000247140625,14.7182395859375,9.6000247140625,14.3999755859375C9.6000247140625,14.0817125859375,9.4735927140625,13.7764915859375,9.248556614062501,13.5514430859375C9.023508514062499,13.3264083859375,8.7182889140625,13.1999759859375,8.4000244140625,13.1999759859375C8.4000244140625,13.1999759859375,3.6000244140625,13.1999759859375,3.6000244140625,13.1999759859375C3.6000244140625,13.1999759859375,3.6000244140625,13.1999759859375,3.6000244140625,13.1999759859375ZM18.0000244140625,9.5999755859375C18.0000244140625,9.2817115859375,17.8735444140625,8.976491885937499,17.6485454140625,8.751443885937501C17.423544414062498,8.5264076859375,17.1182644140625,8.3999757859375,16.8000254140625,8.3999757859375C16.4817854140625,8.3999757859375,16.1765054140625,8.5264076859375,15.9515044140625,8.751443885937501C15.7265054140625,8.976491885937499,15.6000254140625,9.2817115859375,15.6000254140625,9.5999755859375C15.6000254140625,9.5999755859375,15.6000254140625,16.3031765859375,15.6000254140625,16.3031765859375C15.6000254140625,16.3031765859375,14.0484244140625,14.7515765859375,14.0484244140625,14.7515765859375C13.8221054140625,14.5329835859375,13.5189854140625,14.4120355859375,13.2043444140625,14.4147715859375C12.8897044140625,14.4174955859375,12.5887324140625,14.5437005859375,12.3662405140625,14.7661915859375C12.1437492140625,14.9886835859375,12.0175447140625,15.2896555859375,12.0148210140625,15.6042965859375C12.0120849140625,15.9189365859375,12.1330328140625,16.2220565859375,12.3516254140625,16.448375585937498C12.3516254140625,16.448375585937498,15.9516244140625,20.0483755859375,15.9516244140625,20.0483755859375C16.1766254140625,20.2733765859375,16.4817854140625,20.3997365859375,16.8000254140625,20.3997365859375C17.1182644140625,20.3997365859375,17.423424414062502,20.2733765859375,17.6484254140625,20.0483755859375C17.6484254140625,20.0483755859375,21.2484244140625,16.448375585937498,21.2484244140625,16.448375585937498C21.4670654140625,16.2220565859375,21.5880244140625,15.9189365859375,21.5852664140625,15.6042965859375C21.5825064140625,15.2896555859375,21.4562664140625,14.9886835859375,21.2337854140625,14.7661915859375C21.0113044140625,14.5437005859375,20.7103464140625,14.4174955859375,20.3957044140625,14.4147715859375C20.0810644140625,14.4120355859375,19.7779444140625,14.5329835859375,19.5516264140625,14.7515765859375C19.5516264140625,14.7515765859375,18.0000244140625,16.3031765859375,18.0000244140625,16.3031765859375C18.0000244140625,16.3031765859375,18.0000244140625,9.5999755859375,18.0000244140625,9.5999755859375C18.0000244140625,9.5999755859375,18.0000244140625,9.5999755859375,18.0000244140625,9.5999755859375Z" fill="#0A0A28" fill-opacity="1"/></g></svg>