<svg xmlns="http://www.w3.org/2000/svg" xmlns:xlink="http://www.w3.org/1999/xlink" fill="none" version="1.1" width="24" height="24" viewBox="0 0 24 24"><defs><clipPath id="master_svg0_3_1520"><rect x="0" y="0" width="24" height="24" rx="0"/></clipPath></defs><g clip-path="url(#master_svg0_3_1520)"><path d="M3.6000244140625,3.5999755859375C3.2817652840625,3.5999755859375004,2.9765404440625,3.7264039959375,2.7514960140625,3.9514471859375C2.5264528240625,4.1764916159375,2.400024414062501,4.4817164559375,2.4000244140625,4.7999755859375C2.4000244140625004,5.1182397859375,2.5264528240625,5.4234596859375,2.7514960140625,5.6485077859375C2.9765404440625,5.8735437859375,3.2817652840625,5.9999756859375,3.6000244140625,5.9999756859375C3.6000244140625,5.9999756859375,16.8000254140625,5.9999756859375,16.8000254140625,5.9999756859375C17.1182644140625,5.9999756859375,17.423544414062498,5.8735437859375,17.6485454140625,5.6485077859375C17.8735444140625,5.4234596859375,18.0000244140625,5.1182397859375,18.0000244140625,4.7999755859375C18.0000244140625,4.4817164559375,17.8735444140625,4.1764916159375,17.6485454140625,3.9514471859375C17.423544414062498,3.7264039959375,17.1182644140625,3.599975585937501,16.8000254140625,3.5999755859375C16.8000254140625,3.5999755859375,3.6000244140625,3.5999755859375,3.6000244140625,3.5999755859375C3.6000244140625,3.5999755859375,3.6000244140625,3.5999755859375,3.6000244140625,3.5999755859375ZM3.6000244140625,8.3999757859375C3.2817652840625,8.3999757859375,2.9765404440625,8.5264076859375,2.7514960140625,8.751443885937501C2.5264528240625,8.976491885937499,2.400024414062501,9.2817115859375,2.4000244140625,9.5999755859375C2.4000244140625004,9.9182400859375,2.5264528240625,10.223459685937499,2.7514960140625,10.448507785937501C2.9765404440625,10.6735438859375,3.2817652840625,10.7999758859375,3.6000244140625,10.7999758859375C3.6000244140625,10.7999758859375,9.6000247140625,10.7999758859375,9.6000247140625,10.7999758859375C9.9182887140625,10.7999758859375,10.2235083140625,10.6735438859375,10.4485569140625,10.448507785937501C10.6735926140625,10.223459685937499,10.8000250140625,9.9182400859375,10.8000250140625,9.5999755859375C10.8000250140625,9.2817115859375,10.6735926140625,8.976491885937499,10.4485569140625,8.751443885937501C10.2235083140625,8.5264076859375,9.9182887140625,8.3999757859375,9.6000247140625,8.3999757859375C9.6000247140625,8.3999757859375,3.6000244140625,8.3999757859375,3.6000244140625,8.3999757859375C3.6000244140625,8.3999757859375,3.6000244140625,8.3999757859375,3.6000244140625,8.3999757859375ZM3.6000244140625,13.1999759859375C3.2817652840625,13.1999759859375,2.9765404440625,13.3264083859375,2.7514960140625,13.5514430859375C2.5264528240625,13.7764915859375,2.400024414062501,14.0817125859375,2.4000244140625,14.3999755859375C2.4000244140625004,14.7182395859375,2.5264528240625,15.0234605859375,2.7514960140625,15.2485085859375C2.9765404440625,15.4735445859375,3.2817652840625,15.5999755859375,3.6000244140625,15.5999755859375C3.6000244140625,15.5999755859375,8.4000244140625,15.5999755859375,8.4000244140625,15.5999755859375C8.7182889140625,15.5999755859375,9.023508514062499,15.4735445859375,9.248556614062501,15.2485085859375C9.4735927140625,15.0234605859375,9.6000247140625,14.7182395859375,9.6000247140625,14.3999755859375C9.6000247140625,14.0817125859375,9.4735927140625,13.7764915859375,9.248556614062501,13.5514430859375C9.023508514062499,13.3264083859375,8.7182889140625,13.1999759859375,8.4000244140625,13.1999759859375C8.4000244140625,13.1999759859375,3.6000244140625,13.1999759859375,3.6000244140625,13.1999759859375C3.6000244140625,13.1999759859375,3.6000244140625,13.1999759859375,3.6000244140625,13.1999759859375ZM15.6000254140625,19.1999755859375C15.6000254140625,19.518216585937502,15.7265054140625,19.8234955859375,15.9515044140625,20.0484965859375C16.1765054140625,20.2734965859375,16.4817854140625,20.3999765859375,16.8000254140625,20.3999765859375C17.1182644140625,20.3999765859375,17.423544414062498,20.2734965859375,17.6485454140625,20.0484965859375C17.8735444140625,19.8234955859375,18.0000244140625,19.518216585937502,18.0000244140625,19.1999755859375C18.0000244140625,19.1999755859375,18.0000244140625,12.4967755859375,18.0000244140625,12.4967755859375C18.0000244140625,12.4967755859375,19.5516264140625,14.0483755859375,19.5516264140625,14.0483755859375C19.7779444140625,14.2669675859375,20.0810644140625,14.3879165859375,20.3957044140625,14.3851795859375C20.7103464140625,14.3824555859375,21.0113044140625,14.2562525859375,21.2337854140625,14.0337595859375C21.4562664140625,13.8112675859375,21.5825064140625,13.5102958859375,21.5852664140625,13.1956557859375C21.5880244140625,12.8810157859375,21.4670654140625,12.5778960859375,21.2484244140625,12.3515758859375C21.2484244140625,12.3515758859375,17.6484254140625,8.7515759859375,17.6484254140625,8.7515759859375C17.423424414062502,8.5266112859375,17.1182644140625,8.4002275859375,16.8000254140625,8.4002275859375C16.4817854140625,8.4002275859375,16.1766254140625,8.5266112859375,15.9516244140625,8.7515759859375C15.9516244140625,8.7515759859375,12.3516254140625,12.3515758859375,12.3516254140625,12.3515758859375C12.2370128140625,12.4622764859375,12.1455974140625,12.5946845859375,12.0827045140625,12.7410955859375C12.0198126140625,12.8874959859375,11.9867048140625,13.0449599859375,11.9853248140625,13.2042960859375C11.9839449140625,13.3636321859375,12.0143051140625,13.5216474859375,12.0746403140625,13.6691155859375C12.1349773140625,13.8165955859375,12.2240772140625,13.9505755859375,12.3367567140625,14.0632435859375C12.4494244140625,14.1759235859375,12.5834044140625,14.2650245859375,12.7308844140625,14.3253605859375C12.8783534140625,14.3856965859375,13.0363684140625,14.4160555859375,13.1957044140625,14.4146755859375C13.3550404140625,14.4132955859375,13.5125044140625,14.3801875859375,13.6589044140625,14.3172955859375C13.8053174140625,14.2544035859375,13.9377254140625,14.1629885859375,14.0484244140625,14.0483755859375C14.0484244140625,14.0483755859375,15.6000254140625,12.4967755859375,15.6000254140625,12.4967755859375C15.6000254140625,12.4967755859375,15.6000254140625,19.1999755859375,15.6000254140625,19.1999755859375C15.6000254140625,19.1999755859375,15.6000254140625,19.1999755859375,15.6000254140625,19.1999755859375Z" fill="#0A0A28" fill-opacity="1"/></g></svg>