<svg xmlns="http://www.w3.org/2000/svg" xmlns:xlink="http://www.w3.org/1999/xlink" fill="none" version="1.1" width="24" height="24" viewBox="0 0 24 24"><defs><clipPath id="master_svg0_3_2352"><rect x="0" y="0" width="24" height="24" rx="0"/></clipPath></defs><g clip-path="url(#master_svg0_3_2352)"><path d="M3,3C2.4477149799999998,3,2,3.4477149799999998,2,4C2,4.55228502,2.4477149799999998,5,3,5C3,5,3,3,3,3C3,3,3,3,3,3ZM16,5C16.552300000000002,5,17,4.55228502,17,4C17,3.4477149799999998,16.552300000000002,3,16,3C16,3,16,5,16,5C16,5,16,5,16,5ZM3,7C2.4477149799999998,7,2,7.4477201,2,8C2,8.5522799,2.4477149799999998,9,3,9C3,9,3,7,3,7C3,7,3,7,3,7ZM12,9C12.55229,9,13,8.5522799,13,8C13,7.4477201,12.55229,7,12,7C12,7,12,9,12,9C12,9,12,9,12,9ZM3,11C2.4477149799999998,11,2,11.4477201,2,12C2,12.55229,2.4477149799999998,13,3,13C3,13,3,11,3,11C3,11,3,11,3,11ZM9,13C9.5522799,13,10,12.55229,10,12C10,11.4477201,9.5522799,11,9,11C9,11,9,13,9,13C9,13,9,13,9,13ZM12.2928896,11.292890100000001C11.9023705,11.6834202,11.9023705,12.3165798,12.2928896,12.7071104C12.6834202,13.0976295,13.3166,13.0976295,13.7071,12.7071104C13.7071,12.7071104,12.2928896,11.292890100000001,12.2928896,11.292890100000001C12.2928896,11.292890100000001,12.2928896,11.292890100000001,12.2928896,11.292890100000001ZM17.7071,8.707109899999999C18.0976,8.3165798,18.0976,7.6834199000000005,17.7071,7.2928901C17.3166,6.9023699999999995,16.6834,6.9023699999999995,16.2929,7.2928901C16.2929,7.2928901,17.7071,8.707109899999999,17.7071,8.707109899999999C17.7071,8.707109899999999,17.7071,8.707109899999999,17.7071,8.707109899999999ZM17.7071,7.2928901C17.3166,6.9023699999999995,16.6834,6.9023699999999995,16.2929,7.2928901C15.9024,7.6834199000000005,15.9024,8.3165798,16.2929,8.707109899999999C16.2929,8.707109899999999,17.7071,7.2928901,17.7071,7.2928901C17.7071,7.2928901,17.7071,7.2928901,17.7071,7.2928901ZM20.2929,12.7071104C20.683399,13.0976295,21.316601,13.0976295,21.7071,12.7071104C22.097601,12.3165798,22.097601,11.6834202,21.7071,11.292890100000001C21.7071,11.292890100000001,20.2929,12.7071104,20.2929,12.7071104C20.2929,12.7071104,20.2929,12.7071104,20.2929,12.7071104ZM18,8C18,7.4477201,17.552300000000002,7,17,7C16.447699999999998,7,16,7.4477201,16,8C16,8,18,8,18,8C18,8,18,8,18,8ZM16,20C16,20.552299,16.447699999999998,21,17,21C17.552300000000002,21,18,20.552299,18,20C18,20,16,20,16,20C16,20,16,20,16,20ZM3,5C3,5,16,5,16,5C16,5,16,3,16,3C16,3,3,3,3,3C3,3,3,5,3,5C3,5,3,5,3,5ZM16,3C16,3,3,3,3,3C3,3,3,5,3,5C3,5,16,5,16,5C16,5,16,3,16,3C16,3,16,3,16,3ZM3,9C3,9,12,9,12,9C12,9,12,7,12,7C12,7,3,7,3,7C3,7,3,9,3,9C3,9,3,9,3,9ZM12,7C12,7,3,7,3,7C3,7,3,9,3,9C3,9,12,9,12,9C12,9,12,7,12,7C12,7,12,7,12,7ZM3,13C3,13,9,13,9,13C9,13,9,11,9,11C9,11,3,11,3,11C3,11,3,13,3,13C3,13,3,13,3,13ZM9,11C9,11,3,11,3,11C3,11,3,13,3,13C3,13,9,13,9,13C9,13,9,11,9,11C9,11,9,11,9,11ZM13.7071,12.7071104C13.7071,12.7071104,17.7071,8.707109899999999,17.7071,8.707109899999999C17.7071,8.707109899999999,16.2929,7.2928901,16.2929,7.2928901C16.2929,7.2928901,12.2928896,11.292890100000001,12.2928896,11.292890100000001C12.2928896,11.292890100000001,13.7071,12.7071104,13.7071,12.7071104C13.7071,12.7071104,13.7071,12.7071104,13.7071,12.7071104ZM16.2929,7.2928901C16.2929,7.2928901,12.2928896,11.292890100000001,12.2928896,11.292890100000001C12.2928896,11.292890100000001,13.7071,12.7071104,13.7071,12.7071104C13.7071,12.7071104,17.7071,8.707109899999999,17.7071,8.707109899999999C17.7071,8.707109899999999,16.2929,7.2928901,16.2929,7.2928901C16.2929,7.2928901,16.2929,7.2928901,16.2929,7.2928901ZM16.2929,8.707109899999999C16.2929,8.707109899999999,20.2929,12.7071104,20.2929,12.7071104C20.2929,12.7071104,21.7071,11.292890100000001,21.7071,11.292890100000001C21.7071,11.292890100000001,17.7071,7.2928901,17.7071,7.2928901C17.7071,7.2928901,16.2929,8.707109899999999,16.2929,8.707109899999999C16.2929,8.707109899999999,16.2929,8.707109899999999,16.2929,8.707109899999999ZM21.7071,11.292890100000001C21.7071,11.292890100000001,17.7071,7.2928901,17.7071,7.2928901C17.7071,7.2928901,16.2929,8.707109899999999,16.2929,8.707109899999999C16.2929,8.707109899999999,20.2929,12.7071104,20.2929,12.7071104C20.2929,12.7071104,21.7071,11.292890100000001,21.7071,11.292890100000001C21.7071,11.292890100000001,21.7071,11.292890100000001,21.7071,11.292890100000001ZM16,8C16,8,16,20,16,20C16,20,18,20,18,20C18,20,18,8,18,8C18,8,16,8,16,8C16,8,16,8,16,8Z" fill="#0A0A28" fill-opacity="1"/></g></svg>