<svg xmlns="http://www.w3.org/2000/svg" xmlns:xlink="http://www.w3.org/1999/xlink" fill="none" version="1.1" width="24" height="24" viewBox="0 0 24 24"><defs><clipPath id="master_svg0_3_1892"><rect x="0" y="0" width="24" height="24" rx="0"/></clipPath></defs><g clip-path="url(#master_svg0_3_1892)"><path d="M3,3C2.4477149799999998,3,2,3.4477149799999998,2,4C2,4.55228502,2.4477149799999998,5,3,5C3,5,3,3,3,3C3,3,3,3,3,3ZM16,5C16.552300000000002,5,17,4.55228502,17,4C17,3.4477149799999998,16.552300000000002,3,16,3C16,3,16,5,16,5C16,5,16,5,16,5ZM3,7C2.4477149799999998,7,2,7.4477201,2,8C2,8.5522799,2.4477149799999998,9,3,9C3,9,3,7,3,7C3,7,3,7,3,7ZM12,9C12.55229,9,13,8.5522799,13,8C13,7.4477201,12.55229,7,12,7C12,7,12,9,12,9C12,9,12,9,12,9ZM3,11C2.4477149799999998,11,2,11.4477201,2,12C2,12.55229,2.4477149799999998,13,3,13C3,13,3,11,3,11C3,11,3,11,3,11ZM12,13C12.55229,13,13,12.55229,13,12C13,11.4477201,12.55229,11,12,11C12,11,12,13,12,13C12,13,12,13,12,13ZM18,8C18,7.4477201,17.552300000000002,7,17,7C16.447699999999998,7,16,7.4477201,16,8C16,8,18,8,18,8C18,8,18,8,18,8ZM16,20C16,20.552299,16.447699999999998,21,17,21C17.552300000000002,21,18,20.552299,18,20C18,20,16,20,16,20C16,20,16,20,16,20ZM16.2929,20.7071C16.6834,21.097601,17.3166,21.097601,17.7071,20.7071C18.0976,20.316601,18.0976,19.6834,17.7071,19.2929C17.7071,19.2929,16.2929,20.7071,16.2929,20.7071C16.2929,20.7071,16.2929,20.7071,16.2929,20.7071ZM13.7071,15.2929C13.3166,14.9024,12.6834202,14.9024,12.2928896,15.2929C11.9023705,15.6834,11.9023705,16.3166,12.2928896,16.7071C12.2928896,16.7071,13.7071,15.2929,13.7071,15.2929C13.7071,15.2929,13.7071,15.2929,13.7071,15.2929ZM16.2929,19.2929C15.9024,19.6834,15.9024,20.316601,16.2929,20.7071C16.6834,21.097601,17.3166,21.097601,17.7071,20.7071C17.7071,20.7071,16.2929,19.2929,16.2929,19.2929C16.2929,19.2929,16.2929,19.2929,16.2929,19.2929ZM21.7071,16.7071C22.097601,16.3166,22.097601,15.6834,21.7071,15.2929C21.316601,14.9024,20.683399,14.9024,20.2929,15.2929C20.2929,15.2929,21.7071,16.7071,21.7071,16.7071C21.7071,16.7071,21.7071,16.7071,21.7071,16.7071ZM3,5C3,5,16,5,16,5C16,5,16,3,16,3C16,3,3,3,3,3C3,3,3,5,3,5C3,5,3,5,3,5ZM16,3C16,3,3,3,3,3C3,3,3,5,3,5C3,5,16,5,16,5C16,5,16,3,16,3C16,3,16,3,16,3ZM3,9C3,9,12,9,12,9C12,9,12,7,12,7C12,7,3,7,3,7C3,7,3,9,3,9C3,9,3,9,3,9ZM12,7C12,7,3,7,3,7C3,7,3,9,3,9C3,9,12,9,12,9C12,9,12,7,12,7C12,7,12,7,12,7ZM3,13C3,13,12,13,12,13C12,13,12,11,12,11C12,11,3,11,3,11C3,11,3,13,3,13C3,13,3,13,3,13ZM12,11C12,11,3,11,3,11C3,11,3,13,3,13C3,13,12,13,12,13C12,13,12,11,12,11C12,11,12,11,12,11ZM16,8C16,8,16,20,16,20C16,20,18,20,18,20C18,20,18,8,18,8C18,8,16,8,16,8C16,8,16,8,16,8ZM18,20C18,20,18,8,18,8C18,8,16,8,16,8C16,8,16,20,16,20C16,20,18,20,18,20C18,20,18,20,18,20ZM17.7071,19.2929C17.7071,19.2929,13.7071,15.2929,13.7071,15.2929C13.7071,15.2929,12.2928896,16.7071,12.2928896,16.7071C12.2928896,16.7071,16.2929,20.7071,16.2929,20.7071C16.2929,20.7071,17.7071,19.2929,17.7071,19.2929C17.7071,19.2929,17.7071,19.2929,17.7071,19.2929ZM12.2928896,16.7071C12.2928896,16.7071,16.2929,20.7071,16.2929,20.7071C16.2929,20.7071,17.7071,19.2929,17.7071,19.2929C17.7071,19.2929,13.7071,15.2929,13.7071,15.2929C13.7071,15.2929,12.2928896,16.7071,12.2928896,16.7071C12.2928896,16.7071,12.2928896,16.7071,12.2928896,16.7071ZM17.7071,20.7071C17.7071,20.7071,21.7071,16.7071,21.7071,16.7071C21.7071,16.7071,20.2929,15.2929,20.2929,15.2929C20.2929,15.2929,16.2929,19.2929,16.2929,19.2929C16.2929,19.2929,17.7071,20.7071,17.7071,20.7071C17.7071,20.7071,17.7071,20.7071,17.7071,20.7071Z" fill="#0A0A28" fill-opacity="1"/></g></svg>