<svg xmlns="http://www.w3.org/2000/svg" xmlns:xlink="http://www.w3.org/1999/xlink" fill="none" version="1.1" width="24" height="24" viewBox="0 0 24 24"><defs><clipPath id="master_svg0_3_1635"><rect x="0" y="0" width="24" height="24" rx="0"/></clipPath></defs><g clip-path="url(#master_svg0_3_1635)"><path d="M6.0000245140625,2.400024476783742C6.318288614062499,2.400024476783742,6.6235089140625,2.5264528240625,6.8485565140625,2.7514960140625C7.0735926140625,2.9765404440625,7.2000246140625,3.2817652840625,7.2000246140625,3.6000244140625C7.2000246140625,3.6000244140625,7.2000246140625,4.8000245140625,7.2000246140625,4.8000245140625C7.2000246140625,4.8000245140625,8.4000244140625,4.8000245140625,8.4000244140625,4.8000245140625C8.7182889140625,4.8000245140625,9.023508514062499,4.9264564140625,9.248556614062501,5.1514926140625C9.4735927140625,5.3765404140625,9.6000247140625,5.6817605140625,9.6000247140625,6.0000245140625C9.6000247140625,6.318288614062499,9.4735927140625,6.6235089140625,9.248556614062501,6.8485565140625C9.023508514062499,7.0735926140625,8.7182889140625,7.2000246140625,8.4000244140625,7.2000246140625C8.4000244140625,7.2000246140625,7.2000246140625,7.2000246140625,7.2000246140625,7.2000246140625C7.2000246140625,7.2000246140625,7.2000246140625,8.4000244140625,7.2000246140625,8.4000244140625C7.2000246140625,8.7182889140625,7.0735926140625,9.023508514062499,6.8485565140625,9.248556614062501C6.6235089140625,9.4735927140625,6.318288614062499,9.6000247140625,6.0000245140625,9.6000247140625C5.6817605140625,9.6000247140625,5.3765404140625,9.4735927140625,5.1514926140625,9.248556614062501C4.9264564140625,9.023508514062499,4.8000245140625,8.7182889140625,4.8000245140625,8.4000244140625C4.8000245140625,8.4000244140625,4.8000245140625,7.2000246140625,4.8000245140625,7.2000246140625C4.8000245140625,7.2000246140625,3.6000244140625,7.2000246140625,3.6000244140625,7.2000246140625C3.2817652840625,7.2000246140625,2.9765404440625,7.0735926140625,2.7514960140625,6.8485565140625C2.5264528240625,6.6235089140625,2.400024414062501,6.318288614062499,2.4000244140625,6.0000245140625C2.4000244140625004,5.6817605140625,2.5264528240625,5.3765404140625,2.7514960140625,5.1514926140625C2.9765404440625,4.9264564140625,3.2817652840625,4.8000245140625,3.6000244140625,4.8000245140625C3.6000244140625,4.8000245140625,4.8000245140625,4.8000245140625,4.8000245140625,4.8000245140625C4.8000245140625,4.8000245140625,4.8000245140625,3.6000244140625,4.8000245140625,3.6000244140625C4.8000245140625,3.2817652840625,4.9264564140625,2.9765404440625,5.1514926140625,2.7514960140625C5.3765404140625,2.5264528240625,5.6817605140625,2.400024476783742,6.0000245140625,2.400024476783742C6.0000245140625,2.400024476783742,6.0000245140625,2.400024476783742,6.0000245140625,2.400024476783742ZM6.0000245140625,14.4000244140625C6.318288614062499,14.4000244140625,6.6235089140625,14.5265054140625,6.8485565140625,14.7515044140625C7.0735926140625,14.9765054140625,7.2000246140625,15.2817854140625,7.2000246140625,15.6000254140625C7.2000246140625,15.6000254140625,7.2000246140625,16.8000254140625,7.2000246140625,16.8000254140625C7.2000246140625,16.8000254140625,8.4000244140625,16.8000254140625,8.4000244140625,16.8000254140625C8.7182889140625,16.8000254140625,9.023508514062499,16.9265054140625,9.248556614062501,17.1515054140625C9.4735927140625,17.376504414062502,9.6000247140625,17.6817854140625,9.6000247140625,18.0000244140625C9.6000247140625,18.318265414062502,9.4735927140625,18.6235444140625,9.248556614062501,18.8485454140625C9.023508514062499,19.0735454140625,8.7182889140625,19.2000254140625,8.4000244140625,19.2000254140625C8.4000244140625,19.2000254140625,7.2000246140625,19.2000254140625,7.2000246140625,19.2000254140625C7.2000246140625,19.2000254140625,7.2000246140625,20.4000244140625,7.2000246140625,20.4000244140625C7.2000246140625,20.7182654140625,7.0735926140625,21.0235444140625,6.8485565140625,21.2485444140625C6.6235089140625,21.4735454140625,6.318288614062499,21.6000254140625,6.0000245140625,21.6000254140625C5.6817605140625,21.6000254140625,5.3765404140625,21.4735454140625,5.1514926140625,21.2485444140625C4.9264564140625,21.0235444140625,4.8000245140625,20.7182654140625,4.8000245140625,20.4000244140625C4.8000245140625,20.4000244140625,4.8000245140625,19.2000254140625,4.8000245140625,19.2000254140625C4.8000245140625,19.2000254140625,3.6000244140625,19.2000254140625,3.6000244140625,19.2000254140625C3.2817652840625,19.2000254140625,2.9765404440625,19.0735454140625,2.7514960140625,18.8485454140625C2.5264528240625,18.6235444140625,2.400024414062501,18.318265414062502,2.4000244140625,18.0000244140625C2.4000244140625004,17.6817854140625,2.5264528240625,17.376504414062502,2.7514960140625,17.1515054140625C2.9765404440625,16.9265054140625,3.2817652840625,16.8000254140625,3.6000244140625,16.8000254140625C3.6000244140625,16.8000254140625,4.8000245140625,16.8000254140625,4.8000245140625,16.8000254140625C4.8000245140625,16.8000254140625,4.8000245140625,15.6000254140625,4.8000245140625,15.6000254140625C4.8000245140625,15.2817854140625,4.9264564140625,14.9765054140625,5.1514926140625,14.7515044140625C5.3765404140625,14.5265054140625,5.6817605140625,14.4000244140625,6.0000245140625,14.4000244140625C6.0000245140625,14.4000244140625,6.0000245140625,14.4000244140625,6.0000245140625,14.4000244140625ZM14.4000244140625,2.400024476783742C14.6648654140625,2.3999388834635,14.9222654140625,2.4874598980625,15.1321454140625,2.6489488140625C15.3420244140625,2.8104376540625,15.4926244140625,3.0368224340625,15.5604244140625,3.2928244440625C15.5604244140625,3.2928244440625,16.975224414062502,8.6400246140625,16.975224414062502,8.6400246140625C16.975224414062502,8.6400246140625,21.0000244140625,10.9608250140625,21.0000244140625,10.9608250140625C21.1824264140625,11.0661487140625,21.3338664140625,11.2176370140625,21.4392264140625,11.4000492140625C21.5445864140625,11.5824728140625,21.6000254140625,11.7893886140625,21.6000254140625,12.0000248140625C21.6000254140625,12.2106609140625,21.5445864140625,12.4175774140625,21.4392264140625,12.6000004140625C21.3338664140625,12.7824124140625,21.1824264140625,12.9339004140625,21.0000244140625,13.0392244140625C21.0000244140625,13.0392244140625,16.975224414062502,15.3612244140625,16.975224414062502,15.3612244140625C16.975224414062502,15.3612244140625,15.5592244140625,20.7072234140625,15.5592244140625,20.7072234140625C15.4913054140625,20.9629464140625,15.3407054140625,21.1891464140625,15.1309454140625,21.3504254140625C14.9211854140625,21.5117054140625,14.6640254140625,21.5991864140625,14.3994254140625,21.5991864140625C14.1348124140625,21.5991864140625,13.8776044140625,21.5117054140625,13.6678574140625,21.3504254140625C13.4580974140625,21.1891464140625,13.3075444140625,20.9629464140625,13.2396254140625,20.7072234140625C13.2396254140625,20.7072234140625,11.8248253140625,15.3600254140625,11.8248253140625,15.3600254140625C11.8248253140625,15.3600254140625,7.8000245140625,13.0392244140625,7.8000245140625,13.0392244140625C7.6176128140625,12.9339004140625,7.4661484140625,12.7824124140625,7.3608365140625,12.6000004140625C7.2555246140625,12.4175774140625,7.2000728140625,12.2106609140625,7.2000728140625,12.0000248140625C7.2000728140625,11.7893886140625,7.2555246140625,11.5824728140625,7.3608365140625,11.4000492140625C7.4661484140625,11.2176370140625,7.6176128140625,11.0661487140625,7.8000245140625,10.9608250140625C7.8000245140625,10.9608250140625,11.8248253140625,8.638824414062501,11.8248253140625,8.638824414062501C11.8248253140625,8.638824414062501,13.2408254140625,3.2928244440625,13.2408254140625,3.2928244440625C13.3085654140625,3.0370216340625,13.4589614140625,2.8107832340625,13.6686124140625,2.6493148340625C13.8782644140625,2.4878461810625,14.1354004140625,2.4002035836725,14.4000244140625,2.400024476783742C14.4000244140625,2.400024476783742,14.4000244140625,2.400024476783742,14.4000244140625,2.400024476783742C14.4000244140625,2.400024476783742,14.4000244140625,2.400024476783742,14.4000244140625,2.400024476783742Z" fill-rule="evenodd" fill="#0A0A28" fill-opacity="1"/></g></svg>