<svg xmlns="http://www.w3.org/2000/svg" xmlns:xlink="http://www.w3.org/1999/xlink" fill="none" version="1.1" width="24" height="24" viewBox="0 0 24 24"><defs><clipPath id="master_svg0_3_1816"><rect x="0" y="0" width="24" height="24" rx="0"/></clipPath></defs><g clip-path="url(#master_svg0_3_1816)"><path d="M6,3C6,2.4477149799999998,5.5522799,2,5,2C4.4477201,2,4,2.4477149799999998,4,3C4,3,6,3,6,3C6,3,6,3,6,3ZM4,7C4,7.5522799,4.4477201,8,5,8C5.5522799,8,6,7.5522799,6,7C6,7,4,7,4,7C4,7,4,7,4,7ZM3,4C2.4477149799999998,4,2,4.4477201,2,5C2,5.5522799,2.4477149799999998,6,3,6C3,6,3,4,3,4C3,4,3,4,3,4ZM7,6C7.5522799,6,8,5.5522799,8,5C8,4.4477201,7.5522799,4,7,4C7,4,7,6,7,6C7,6,7,6,7,6ZM7,17C7,16.447699999999998,6.5522799,16,6,16C5.4477201,16,5,16.447699999999998,5,17C5,17,7,17,7,17C7,17,7,17,7,17ZM5,21C5,21.552299,5.4477201,22,6,22C6.5522799,22,7,21.552299,7,21C7,21,5,21,5,21C5,21,5,21,5,21ZM4,18C3.44771501,18,3,18.447699999999998,3,19C3,19.552299,3.44771501,20,4,20C4,20,4,18,4,18C4,18,4,18,4,18ZM8,20C8.5522799,20,9,19.552299,9,19C9,18.447699999999998,8.5522799,18,8,18C8,18,8,20,8,20C8,20,8,20,8,20ZM13,3C13,3,13.9487,2.68373099,13.9487,2.68373099C13.8125,2.27541,13.4304,2,13,2C12.5695896,2,12.1874599,2.27541,12.0513296,2.68373099C12.0513296,2.68373099,13,3,13,3C13,3,13,3,13,3ZM15.286,9.8569999C15.286,9.8569999,14.3373,10.173270200000001,14.3373,10.173270200000001C14.4328,10.4595098,14.6523,10.6873598,14.9348,10.7933202C14.9348,10.7933202,15.286,9.8569999,15.286,9.8569999C15.286,9.8569999,15.286,9.8569999,15.286,9.8569999ZM21,12C21,12,21.3512,12.9363203,21.3512,12.9363203C21.7414,12.7899399,22,12.4168301,22,12C22,11.5831699,21.7414,11.2100601,21.3512,11.0636797C21.3512,11.0636797,21,12,21,12C21,12,21,12,21,12ZM15.286,14.143C15.286,14.143,14.9348,13.2067,14.9348,13.2067C14.6523,13.3126,14.4328,13.5405,14.3373,13.8267C14.3373,13.8267,15.286,14.143,15.286,14.143C15.286,14.143,15.286,14.143,15.286,14.143ZM13,21C13,21,12.0513296,21.316299,12.0513296,21.316299C12.1874599,21.7246,12.5695896,22,13,22C13.4304,22,13.8125,21.7246,13.9487,21.316299C13.9487,21.316299,13,21,13,21C13,21,13,21,13,21ZM10.714000200000001,14.143C10.714000200000001,14.143,11.6626701,13.8267,11.6626701,13.8267C11.5672398,13.5405,11.3476696,13.3126,11.0651598,13.2067C11.0651598,13.2067,10.714000200000001,14.143,10.714000200000001,14.143C10.714000200000001,14.143,10.714000200000001,14.143,10.714000200000001,14.143ZM5,12C5,12,4.64884,11.0636797,4.64884,11.0636797C4.2585599,11.2100601,4,11.5831699,4,12C4,12.4168301,4.2585599,12.7899399,4.64884,12.9363203C4.64884,12.9363203,5,12,5,12C5,12,5,12,5,12ZM10.714000200000001,9.8569999C10.714000200000001,9.8569999,11.0651598,10.7933202,11.0651598,10.7933202C11.3476696,10.6873598,11.5672398,10.4595098,11.6626701,10.173270200000001C11.6626701,10.173270200000001,10.714000200000001,9.8569999,10.714000200000001,9.8569999C10.714000200000001,9.8569999,10.714000200000001,9.8569999,10.714000200000001,9.8569999ZM4,3C4,3,4,7,4,7C4,7,6,7,6,7C6,7,6,3,6,3C6,3,4,3,4,3C4,3,4,3,4,3ZM6,7C6,7,6,3,6,3C6,3,4,3,4,3C4,3,4,7,4,7C4,7,6,7,6,7C6,7,6,7,6,7ZM3,6C3,6,7,6,7,6C7,6,7,4,7,4C7,4,3,4,3,4C3,4,3,6,3,6C3,6,3,6,3,6ZM7,4C7,4,3,4,3,4C3,4,3,6,3,6C3,6,7,6,7,6C7,6,7,4,7,4C7,4,7,4,7,4ZM5,17C5,17,5,21,5,21C5,21,7,21,7,21C7,21,7,17,7,17C7,17,5,17,5,17C5,17,5,17,5,17ZM7,21C7,21,7,17,7,17C7,17,5,17,5,17C5,17,5,21,5,21C5,21,7,21,7,21C7,21,7,21,7,21ZM4,20C4,20,8,20,8,20C8,20,8,18,8,18C8,18,4,18,4,18C4,18,4,20,4,20C4,20,4,20,4,20ZM8,18C8,18,4,18,4,18C4,18,4,20,4,20C4,20,8,20,8,20C8,20,8,18,8,18C8,18,8,18,8,18ZM12.0513296,3.31626901C12.0513296,3.31626901,14.3373,10.173270200000001,14.3373,10.173270200000001C14.3373,10.173270200000001,16.2347,9.54073,16.2347,9.54073C16.2347,9.54073,13.9487,2.68373099,13.9487,2.68373099C13.9487,2.68373099,12.0513296,3.31626901,12.0513296,3.31626901C12.0513296,3.31626901,12.0513296,3.31626901,12.0513296,3.31626901ZM14.9348,10.7933202C14.9348,10.7933202,20.6488,12.9363203,20.6488,12.9363203C20.6488,12.9363203,21.3512,11.0636797,21.3512,11.0636797C21.3512,11.0636797,15.6372,8.92068,15.6372,8.92068C15.6372,8.92068,14.9348,10.7933202,14.9348,10.7933202C14.9348,10.7933202,14.9348,10.7933202,14.9348,10.7933202ZM20.6488,11.0636797C20.6488,11.0636797,14.9348,13.2067,14.9348,13.2067C14.9348,13.2067,15.6372,15.0793,15.6372,15.0793C15.6372,15.0793,21.3512,12.9363203,21.3512,12.9363203C21.3512,12.9363203,20.6488,11.0636797,20.6488,11.0636797C20.6488,11.0636797,20.6488,11.0636797,20.6488,11.0636797ZM14.3373,13.8267C14.3373,13.8267,12.0513296,20.683701,12.0513296,20.683701C12.0513296,20.683701,13.9487,21.316299,13.9487,21.316299C13.9487,21.316299,16.2347,14.4593,16.2347,14.4593C16.2347,14.4593,14.3373,13.8267,14.3373,13.8267C14.3373,13.8267,14.3373,13.8267,14.3373,13.8267ZM13.9487,20.683701C13.9487,20.683701,11.6626701,13.8267,11.6626701,13.8267C11.6626701,13.8267,9.7653298,14.4593,9.7653298,14.4593C9.7653298,14.4593,12.0513296,21.316299,12.0513296,21.316299C12.0513296,21.316299,13.9487,20.683701,13.9487,20.683701C13.9487,20.683701,13.9487,20.683701,13.9487,20.683701ZM11.0651598,13.2067C11.0651598,13.2067,5.35116,11.0636797,5.35116,11.0636797C5.35116,11.0636797,4.64884,12.9363203,4.64884,12.9363203C4.64884,12.9363203,10.3628402,15.0793,10.3628402,15.0793C10.3628402,15.0793,11.0651598,13.2067,11.0651598,13.2067C11.0651598,13.2067,11.0651598,13.2067,11.0651598,13.2067ZM5.35116,12.9363203C5.35116,12.9363203,11.0651598,10.7933202,11.0651598,10.7933202C11.0651598,10.7933202,10.3628402,8.92068,10.3628402,8.92068C10.3628402,8.92068,4.64884,11.0636797,4.64884,11.0636797C4.64884,11.0636797,5.35116,12.9363203,5.35116,12.9363203C5.35116,12.9363203,5.35116,12.9363203,5.35116,12.9363203ZM11.6626701,10.173270200000001C11.6626701,10.173270200000001,13.9487,3.31626901,13.9487,3.31626901C13.9487,3.31626901,12.0513296,2.68373099,12.0513296,2.68373099C12.0513296,2.68373099,9.7653298,9.54073,9.7653298,9.54073C9.7653298,9.54073,11.6626701,10.173270200000001,11.6626701,10.173270200000001C11.6626701,10.173270200000001,11.6626701,10.173270200000001,11.6626701,10.173270200000001Z" fill="#0A0A28" fill-opacity="1"/></g></svg>