<svg xmlns="http://www.w3.org/2000/svg" xmlns:xlink="http://www.w3.org/1999/xlink" fill="none" version="1.1" width="24" height="24" viewBox="0 0 24 24"><defs><clipPath id="master_svg0_3_1508"><rect x="0" y="0" width="24" height="24" rx="0"/></clipPath></defs><g clip-path="url(#master_svg0_3_1508)"><path d="M21.6000254140625,3.5999940656250002C21.5999054140625,3.395524795625,21.5475844140625,3.194474395625,21.4479844140625,3.015920395625C21.3482644140625,2.837366405625,21.2047444140625,2.687230765625,21.0307464140625,2.579761165625C20.8567444140625,2.472290605625,20.6582664140625,2.411050058625,20.4540254140625,2.401850221725C20.2497844140625,2.392650385425,20.0465054140625,2.435796327625,19.8636264140625,2.527193975625C19.8636264140625,2.527193975625,10.5156250140625,7.199998865625,10.5156250140625,7.199998865625C10.5156250140625,7.199998865625,6.0000245140625,7.199998865625,6.0000245140625,7.199998865625C5.0452444140625,7.199998865625,4.1295725140625,7.579282765625,3.4544405140625,8.254415065625C2.7793096340625,8.929547265625,2.400024414062501,9.845219165625,2.4000244140625,10.799999265625C2.4000244140625004,11.754778865625,2.7793096340625,12.670450765625,3.4544405140625,13.345582765625C4.1295725140625,14.020715765625,5.0452444140625,14.399998765625,6.0000245140625,14.399998765625C6.0000245140625,14.399998765625,6.336024514062499,14.399998765625,6.336024514062499,14.399998765625C6.336024514062499,14.399998765625,8.4612250140625,20.779235765625,8.4612250140625,20.779235765625C8.5408449140625,21.018275765625,8.6936889140625,21.226114765625,8.898084614062501,21.373475765625C9.1024809140625,21.520835765625,9.348072514062501,21.600036765625,9.6000247140625,21.600036765625C9.6000247140625,21.600036765625,10.8000250140625,21.600036765625,10.8000250140625,21.600036765625C11.1182890140625,21.600036765625,11.4235086140625,21.473556765625,11.6485567140625,21.248555765625C11.8735924140625,21.023435765625,12.0000248140625,20.718274765625,12.0000248140625,20.400035765625C12.0000248140625,20.400035765625,12.0000248140625,15.141635765625,12.0000248140625,15.141635765625C12.0000248140625,15.141635765625,19.8636264140625,19.072835765625,19.8636264140625,19.072835765625C20.0465054140625,19.164155765625,20.2497844140625,19.207355765625,20.4540254140625,19.198116765625C20.6582664140625,19.188995765625,20.8567444140625,19.127675765625,21.0307464140625,19.020274765625C21.2047444140625,18.912755765625,21.3482644140625,18.762635765625,21.4479844140625,18.584075765625C21.5475844140625,18.405515765625,21.5999054140625,18.204515765625,21.6000254140625,18.000035765625C21.6000254140625,18.000035765625,21.6000254140625,3.5999940656250002,21.6000254140625,3.5999940656250002C21.6000254140625,3.5999940656250002,21.6000254140625,3.5999940656250002,21.6000254140625,3.5999940656250002Z" fill-rule="evenodd" fill="#0A0A28" fill-opacity="1"/></g></svg>