<svg xmlns="http://www.w3.org/2000/svg" xmlns:xlink="http://www.w3.org/1999/xlink" fill="none" version="1.1" width="24" height="24" viewBox="0 0 24 24"><defs><clipPath id="master_svg0_3_2330"><rect x="0" y="0" width="24" height="24" rx="0"/></clipPath></defs><g clip-path="url(#master_svg0_3_2330)"><path d="M12.000001383013917,5.882C12.000001383013917,5.32972,11.552280883013916,4.882,11.000000983013916,4.882C10.447710983013916,4.882,10.000000983013916,5.32972,10.000000983013916,5.882C10.000000983013916,5.882,12.000001383013917,5.882,12.000001383013917,5.882C12.000001383013917,5.882,12.000001383013917,5.882,12.000001383013917,5.882ZM11.000000983013916,19.24C11.000000983013916,19.24,12.000001383013917,19.2407,12.000001383013917,19.2407C12.000001383013917,19.2407,12.000001383013917,19.24,12.000001383013917,19.24C12.000001383013917,19.24,11.000000983013916,19.24,11.000000983013916,19.24C11.000000983013916,19.24,11.000000983013916,19.24,11.000000983013916,19.24ZM7.583001183013916,19.832001C7.583001183013916,19.832001,6.638851183013916,20.1616,6.638851183013916,20.1616C6.638851183013916,20.1616,6.641521183013916,20.1691,6.641521183013916,20.1691C6.641521183013916,20.1691,7.583001183013916,19.832001,7.583001183013916,19.832001C7.583001183013916,19.832001,7.583001183013916,19.832001,7.583001183013916,19.832001ZM18.000021183013914,13C18.000021183013914,13,17.000021183013914,13,17.000021183013914,13C17.000021183013914,13.5523,17.44772118301392,14,18.000021183013914,14C18.000021183013914,14,18.000021183013914,13,18.000021183013914,13C18.000021183013914,13,18.000021183013914,13,18.000021183013914,13ZM21.000021183013917,10C21.000021183013917,10,22.000021183013917,10,22.000021183013917,10C22.000021183013917,10,21.000021183013917,10,21.000021183013917,10C21.000021183013917,10,21.000021183013917,10,21.000021183013917,10ZM18.000021183013914,7C18.000021183013914,7,18.000021183013914,6,18.000021183013914,6C17.44772118301392,6,17.000021183013914,6.4477201,17.000021183013914,7C17.000021183013914,7,18.000021183013914,7,18.000021183013914,7C18.000021183013914,7,18.000021183013914,7,18.000021183013914,7ZM7.000001183013916,6C7.000001183013916,6,7.000001183013916,5,7.000001183013916,5C7.000001183013916,5,6.999621183013916,5,6.999621183013916,5C6.999621183013916,5,7.000001183013916,6,7.000001183013916,6C7.000001183013916,6,7.000001183013916,6,7.000001183013916,6ZM18.000021183013914,3C18.000021183013914,3,19.000021183013914,3,19.000021183013914,3C19.000021183013914,2.58325899,18.741521183013916,2.2102079999999997,18.351421183013915,2.06377C17.961221183013915,1.91733,17.521121183013918,2.0282109999999998,17.246921183013917,2.34203899C17.246921183013917,2.34203899,18.000021183013914,3,18.000021183013914,3C18.000021183013914,3,18.000021183013914,3,18.000021183013914,3ZM18.000021183013914,17C18.000021183013914,17,17.246921183013917,17.658,17.246921183013917,17.658C17.521121183013918,17.9718,17.961221183013915,18.082700000000003,18.351421183013915,17.9362C18.741521183013916,17.7898,19.000021183013914,17.4167,19.000021183013914,17C19.000021183013914,17,18.000021183013914,17,18.000021183013914,17C18.000021183013914,17,18.000021183013914,17,18.000021183013914,17ZM7.000001183013916,14C7.000001183013916,14,7.000001183013916,13,7.000001183013916,13C7.000001183013916,13,6.998541083013916,13,6.998541083013916,13C6.998541083013916,13,7.000001183013916,14,7.000001183013916,14C7.000001183013916,14,7.000001183013916,14,7.000001183013916,14ZM10.000000983013916,5.882C10.000000983013916,5.882,10.000000983013916,19.24,10.000000983013916,19.24C10.000000983013916,19.24,12.000001383013917,19.24,12.000001383013917,19.24C12.000001383013917,19.24,12.000001383013917,5.882,12.000001383013917,5.882C12.000001383013917,5.882,10.000000983013916,5.882,10.000000983013916,5.882C10.000000983013916,5.882,10.000000983013916,5.882,10.000000983013916,5.882ZM10.000000983013916,19.2393C9.999871283013917,19.418301,9.936581183013917,19.591499,9.821290983013917,19.7283C9.821290983013917,19.7283,11.351001283013916,21.016701,11.351001283013916,21.016701C11.769710983013915,20.5196,11.999540783013916,19.890699,12.000001383013917,19.2407C12.000001383013917,19.2407,10.000000983013916,19.2393,10.000000983013916,19.2393C10.000000983013916,19.2393,10.000000983013916,19.2393,10.000000983013916,19.2393ZM9.821290983013917,19.7283C9.705991283013915,19.8652,9.546091083013916,19.957001,9.369740983013916,19.9876C9.369740983013916,19.9876,9.711151083013917,21.9582,9.711151083013917,21.9582C10.351571083013916,21.8473,10.932290983013916,21.513901,11.351001283013916,21.016701C11.351001283013916,21.016701,9.821290983013917,19.7283,9.821290983013917,19.7283C9.821290983013917,19.7283,9.821290983013917,19.7283,9.821290983013917,19.7283ZM9.369740983013916,19.9876C9.193391283013916,20.018101,9.011921383013917,19.9855,8.857291183013917,19.895399C8.857291183013917,19.895399,7.850161083013916,21.623301,7.850161083013916,21.623301C8.411701183013916,21.9506,9.070731183013915,22.069201,9.711151083013917,21.9582C9.711151083013917,21.9582,9.369740983013916,19.9876,9.369740983013916,19.9876C9.369740983013916,19.9876,9.369740983013916,19.9876,9.369740983013916,19.9876ZM8.857291183013917,19.895399C8.702661083013915,19.805201,8.584801183013916,19.663401,8.524481283013916,19.4949C8.524481283013916,19.4949,6.641521183013916,20.1691,6.641521183013916,20.1691C6.860611183013916,20.781,7.288620983013916,21.296,7.850161083013916,21.623301C7.850161083013916,21.623301,8.857291183013917,19.895399,8.857291183013917,19.895399C8.857291183013917,19.895399,8.857291183013917,19.895399,8.857291183013917,19.895399ZM8.527121083013917,19.502399C8.527121083013917,19.502399,6.380121183013916,13.3524,6.380121183013916,13.3524C6.380121183013916,13.3524,4.491881083013916,14.0116,4.491881083013916,14.0116C4.491881083013916,14.0116,6.6388811830139165,20.1616,6.6388811830139165,20.1616C6.6388811830139165,20.1616,8.527121083013917,19.502399,8.527121083013917,19.502399C8.527121083013917,19.502399,8.527121083013917,19.502399,8.527121083013917,19.502399ZM18.000021183013914,14C19.060822183013915,14,20.078322183013917,13.5786,20.828421183013916,12.8284302C20.828421183013916,12.8284302,19.414221183013915,11.4142103,19.414221183013915,11.4142103C19.039122183013916,11.7892904,18.530421183013914,12,18.000021183013914,12C18.000021183013914,12,18.000021183013914,14,18.000021183013914,14C18.000021183013914,14,18.000021183013914,14,18.000021183013914,14ZM20.828421183013916,12.8284302C21.578621183013915,12.0782804,22.000021183013917,11.0608702,22.000021183013917,10C22.000021183013917,10,20.000021183013917,10,20.000021183013917,10C20.000021183013917,10.5304298,19.789320183013917,11.0391397,19.414221183013915,11.4142103C19.414221183013915,11.4142103,20.828421183013916,12.8284302,20.828421183013916,12.8284302C20.828421183013916,12.8284302,20.828421183013916,12.8284302,20.828421183013916,12.8284302ZM22.000021183013917,10C22.000021183013917,8.9391298,21.578621183013915,7.92172,20.828421183013916,7.1715698C20.828421183013916,7.1715698,19.414221183013915,8.5857902,19.414221183013915,8.5857902C19.789320183013917,8.9608598,20.000021183013917,9.4695702,20.000021183013917,10C20.000021183013917,10,22.000021183013917,10,22.000021183013917,10C22.000021183013917,10,22.000021183013917,10,22.000021183013917,10ZM20.828421183013916,7.1715698C20.078322183013917,6.4214301,19.060822183013915,6,18.000021183013914,6C18.000021183013914,6,18.000021183013914,8,18.000021183013914,8C18.530421183013914,8,19.039122183013916,8.210709999999999,19.414221183013915,8.5857902C19.414221183013915,8.5857902,20.828421183013916,7.1715698,20.828421183013916,7.1715698C20.828421183013916,7.1715698,20.828421183013916,7.1715698,20.828421183013916,7.1715698ZM17.000021183013914,7C17.000021183013914,7,17.000021183013914,13,17.000021183013914,13C17.000021183013914,13,19.000021183013914,13,19.000021183013914,13C19.000021183013914,13,19.000021183013914,7,19.000021183013914,7C19.000021183013914,7,17.000021183013914,7,17.000021183013914,7C17.000021183013914,7,17.000021183013914,7,17.000021183013914,7ZM5.827281283013916,12.7617302C5.1901211830139165,12.4908199,4.666811183013916,12.0092001,4.345181183013916,11.3973703C4.345181183013916,11.3973703,2.574877173013916,12.3279696,2.574877173013916,12.3279696C3.111560183013916,13.3489,3.984319213013916,14.1514,5.044711083013916,14.6023C5.044711083013916,14.6023,5.827281283013916,12.7617302,5.827281283013916,12.7617302C5.827281283013916,12.7617302,5.827281283013916,12.7617302,5.827281283013916,12.7617302ZM4.345181183013916,11.3973703C4.0232911830139155,10.7850199,3.922842203013916,10.0802698,4.060841183013916,9.402370000000001C4.060841183013916,9.402370000000001,2.101033213013916,9.0034199,2.101033213013916,9.0034199C1.871071183013916,10.133099999999999,2.038460193013916,11.3075304,2.574877173013916,12.3279696C2.574877173013916,12.3279696,4.345181183013916,11.3973703,4.345181183013916,11.3973703C4.345181183013916,11.3973703,4.345181183013916,11.3973703,4.345181183013916,11.3973703ZM4.060841183013916,9.402370000000001C4.198831183013916,8.7244802,4.566801183013916,8.1150799,5.102461083013916,7.67731C5.102461083013916,7.67731,3.836840213013916,6.128690000000001,3.836840213013916,6.128690000000001C2.944188882013916,6.8582201000000005,2.330996153013916,7.8737502,2.101033213013916,9.0034199C2.101033213013916,9.0034199,4.060841183013916,9.402370000000001,4.060841183013916,9.402370000000001C4.060841183013916,9.402370000000001,4.060841183013916,9.402370000000001,4.060841183013916,9.402370000000001ZM5.102461083013916,7.67731C5.638121083013916,7.2395301,6.308581083013916,7.0002599,7.000381183013916,7C7.000381183013916,7,6.999621183013916,5,6.999621183013916,5C5.846781283013916,5.0004399,4.729491283013916,5.3991599,3.836840213013916,6.128690000000001C3.836840213013916,6.128690000000001,5.102461083013916,7.67731,5.102461083013916,7.67731C5.102461083013916,7.67731,5.102461083013916,7.67731,5.102461083013916,7.67731ZM7.000001183013916,7C7.000001183013916,7,8.832001183013915,7,8.832001183013915,7C8.832001183013915,7,8.832001183013915,5,8.832001183013915,5C8.832001183013915,5,7.000001183013916,5,7.000001183013916,5C7.000001183013916,5,7.000001183013916,7,7.000001183013916,7C7.000001183013916,7,7.000001183013916,7,7.000001183013916,7ZM8.832001183013915,7C10.978051183013916,7,12.992290983013916,6.6776099,14.691321183013915,6.1108699C16.374621183013915,5.54936,17.822921183013918,4.7225,18.753021183013914,3.65796101C18.753021183013914,3.65796101,17.246921183013917,2.34203899,17.246921183013917,2.34203899C16.634021183013914,3.043495301,15.548421183013916,3.71663803,14.058421183013916,4.21363C12.584210883013917,4.7053899999999995,10.785951183013916,5,8.832001183013915,5C8.832001183013915,5,8.832001183013915,7,8.832001183013915,7C8.832001183013915,7,8.832001183013915,7,8.832001183013915,7ZM17.000021183013914,3C17.000021183013914,3,17.000021183013914,17,17.000021183013914,17C17.000021183013914,17,19.000021183013914,17,19.000021183013914,17C19.000021183013914,17,19.000021183013914,3,19.000021183013914,3C19.000021183013914,3,17.000021183013914,3,17.000021183013914,3C17.000021183013914,3,17.000021183013914,3,17.000021183013914,3ZM18.753021183013914,16.342C17.823021183013914,15.2775,16.374921183013917,14.4507,14.691721183013916,13.8891C12.992781183013916,13.3224,10.978531383013916,13,8.832001183013915,13C8.832001183013915,13,8.832001183013915,15,8.832001183013915,15C10.786471383013916,15,12.584721083013916,15.2946,14.058821183013915,15.7864C15.548521183013916,16.2833,16.634021183013914,16.9565,17.246921183013917,17.658C17.246921183013917,17.658,18.753021183013914,16.342,18.753021183013914,16.342C18.753021183013914,16.342,18.753021183013914,16.342,18.753021183013914,16.342ZM8.832001183013915,13C8.832001183013915,13,7.000001183013916,13,7.000001183013916,13C7.000001183013916,13,7.000001183013916,15,7.000001183013916,15C7.000001183013916,15,8.832001183013915,15,8.832001183013915,15C8.832001183013915,15,8.832001183013915,13,8.832001183013915,13C8.832001183013915,13,8.832001183013915,13,8.832001183013915,13ZM6.998541083013916,13C6.597161283013916,13.0006,6.198481083013916,12.9192896,5.826721183013916,12.7614899C5.826721183013916,12.7614899,5.045281183013916,14.6025,5.045281183013916,14.6025C5.6628212830139155,14.8646,6.328101183013916,15.001,7.001460983013916,15C7.001460983013916,15,6.998541083013916,13,6.998541083013916,13C6.998541083013916,13,6.998541083013916,13,6.998541083013916,13Z" fill="#0A0A28" fill-opacity="1"/></g></svg>