<svg xmlns="http://www.w3.org/2000/svg" xmlns:xlink="http://www.w3.org/1999/xlink" fill="none" version="1.1" width="24" height="24" viewBox="0 0 24 24"><defs><clipPath id="master_svg0_7_09668"><rect x="0" y="0" width="24" height="24" rx="0"/></clipPath></defs><g clip-path="url(#master_svg0_7_09668)"><path d="M21.28306375,8.2755947375L15.33228275,7.4107508375L12.67212675,2.0177820875C12.59946975,1.8701258575,12.47993875,1.7505946175,12.33228275,1.6779383645000001C11.96197035,1.4951258575,11.51197055,1.6474696175,11.32681465,2.0177820875L8.666657950000001,7.4107508375L2.7158765799999998,8.2755947375C2.55181405,8.2990322375,2.40181404,8.3763761375,2.28697032,8.4935636375C1.998689063,8.7912197375,2.003376566,9.264657037500001,2.30103281,9.5552816375L6.60650155,13.7529379375L5.58931395,19.6802829375C5.561189150000001,19.8420009375,5.58697035,20.0107499375,5.66431405,20.1560629375C5.85650155,20.5216889375,6.31118915,20.6646579375,6.67681405,20.4701249375L11.99946975,17.6716879375L17.322126750000002,20.4701249375C17.46743975,20.5474699375,17.63618975,20.5732499375,17.79790675,20.5451259375C18.20572075,20.4748139375,18.47993875,20.0880949375,18.40962575,19.6802829375L17.39243875,13.7529379375L21.69790875,9.5552816375C21.81509575,9.4404382375,21.89243875,9.2904386375,21.91587675,9.1263761375C21.97915875,8.7162199375,21.69321975,8.3365316375,21.28306375,8.2755947375Z" fill-rule="evenodd" fill="#E6E6E9" fill-opacity="1"/></g></svg>