<svg xmlns="http://www.w3.org/2000/svg" xmlns:xlink="http://www.w3.org/1999/xlink" fill="none" version="1.1" width="24" height="24" viewBox="0 0 24 24"><defs><clipPath id="master_svg0_3_1574"><rect x="0" y="0" width="24" height="24" rx="0"/></clipPath></defs><g clip-path="url(#master_svg0_3_1574)"><path d="M10.8587966140625,3.5123717196874997C11.2187958140625,2.4071716696875,12.7823963140625,2.4071716696875,13.1411959140625,3.5123717196874997C13.1411959140625,3.5123717196874997,14.4251959140625,7.4627718796875,14.4251959140625,7.4627718796875C14.5036409140625,7.7033595796875,14.6561369140625,7.9129881796875,14.8608809140625,8.061692279687499C15.0656239140625,8.2104081796875,15.3121519140625,8.2905797796875,15.5652319140625,8.2907719796875C15.5652319140625,8.2907719796875,19.7196329140625,8.2907719796875,19.7196329140625,8.2907719796875C20.8824329140625,8.2907719796875,21.3648339140625,9.7787718796875,20.4252339140625,10.4627718796875C20.4252339140625,10.4627718796875,17.0652319140625,12.9035716796875,17.0652319140625,12.9035716796875C16.8600319140625,13.0524086796875,16.7072729140625,13.2623836796875,16.6287929140625,13.5033916796875C16.550312914062502,13.7444126796875,16.5501929140625,14.0040796796875,16.6284319140625,14.2451726796875C16.6284319140625,14.2451726796875,17.9124329140625,18.1956316796875,17.9124329140625,18.1956316796875C18.2724319140625,19.3007126796875,17.0064329140625,20.2211136796875,16.0644319140625,19.5372316796875C16.0644319140625,19.5372316796875,12.7043962140625,17.0963126796875,12.7043962140625,17.0963126796875C12.4994364140625,16.9476316796875,12.2526684140625,16.867471679687497,11.9993963140625,16.867471679687497C11.7461243140625,16.867471679687497,11.4993439140625,16.9476316796875,11.2943964140625,17.0963126796875C11.2943964140625,17.0963126796875,7.9343958140625,19.5372316796875,7.9343958140625,19.5372316796875C6.9935961140625,20.2211136796875,5.7287960140625,19.3007126796875,6.087596214062501,18.1956316796875C6.087596214062501,18.1956316796875,7.3715963140625,14.2451726796875,7.3715963140625,14.2451726796875C7.4498000140625,14.0040796796875,7.4496679140625,13.7444126796875,7.3711881140625,13.5033916796875C7.2927198140625,13.2623836796875,7.1399598140625,13.0524086796875,6.9347961140625,12.9035716796875C6.9347961140625,12.9035716796875,3.5759935040625,10.463971579687499,3.5759935040625,10.463971579687499C2.6363934840625,9.7799720796875,3.1199935150625002,8.2919716796875,4.2815959140625,8.2919716796875C4.2815959140625,8.2919716796875,8.434796314062499,8.2919716796875,8.434796314062499,8.2919716796875C8.688056514062499,8.292043679687499,8.934836414062499,8.211979879687501,9.1398201140625,8.0632519796875C9.3448043140625,7.9145240796875,9.497479914062499,7.7047519796875,9.5759959140625,7.4639720796875C9.5759959140625,7.4639720796875,10.8599963140625,3.5135716796875,10.8599963140625,3.5135716796875C10.8599963140625,3.5135716796875,10.8587966140625,3.5123717196874997,10.8587966140625,3.5123717196874997C10.8587966140625,3.5123717196874997,10.8587966140625,3.5123717196874997,10.8587966140625,3.5123717196874997Z" fill="#0A0A28" fill-opacity="1"/></g></svg>