<svg xmlns="http://www.w3.org/2000/svg" xmlns:xlink="http://www.w3.org/1999/xlink" fill="none" version="1.1" width="24" height="24" viewBox="0 0 24 24"><defs><clipPath id="master_svg0_3_2242"><rect x="0" y="0" width="24" height="24" rx="0"/></clipPath></defs><g clip-path="url(#master_svg0_3_2242)"><path d="M11.049000770068359,2.9269999237060547C11.049000770068359,2.9269999237060547,10.098170770068359,2.617283913706055,10.098170770068359,2.617283913706055C10.098170770068359,2.617283913706055,10.097960470068358,2.6179229337060548,10.097960470068358,2.6179229337060548C10.097960470068358,2.6179229337060548,11.049000770068359,2.9269999237060547,11.049000770068359,2.9269999237060547C11.049000770068359,2.9269999237060547,11.049000770068359,2.9269999237060547,11.049000770068359,2.9269999237060547ZM12.95099057006836,2.9269999237060547C12.95099057006836,2.9269999237060547,11.99987027006836,3.2357829237060547,11.99987027006836,3.2357829237060547C11.99987027006836,3.2357829237060547,11.99996087006836,3.2360769537060547,11.99996087006836,3.2360769537060547C11.99996087006836,3.2360769537060547,12.95099057006836,2.9269999237060547,12.95099057006836,2.9269999237060547C12.95099057006836,2.9269999237060547,12.95099057006836,2.9269999237060547,12.95099057006836,2.9269999237060547ZM14.46999057006836,7.600999823706054C14.46999057006836,7.600999823706054,13.51899057006836,7.910079923706054,13.51899057006836,7.910079923706054C13.51899057006836,7.910079923706054,13.519290570068359,7.910999823706055,13.519290570068359,7.910999823706055C13.519290570068359,7.910999823706055,14.46999057006836,7.600999823706054,14.46999057006836,7.600999823706054C14.46999057006836,7.600999823706054,14.46999057006836,7.600999823706054,14.46999057006836,7.600999823706054ZM15.419990570068359,8.290999923706055C15.419990570068359,8.290999923706055,15.419290570068359,9.290999923706055,15.419290570068359,9.290999923706055C15.419290570068359,9.290999923706055,15.419990570068359,9.290999923706055,15.419990570068359,9.290999923706055C15.419990570068359,9.290999923706055,15.419990570068359,8.290999923706055,15.419990570068359,8.290999923706055C15.419990570068359,8.290999923706055,15.419990570068359,8.290999923706055,15.419990570068359,8.290999923706055ZM20.92299057006836,10.100999823706054C20.92299057006836,10.100999823706054,21.51069057006836,10.910089523706056,21.51069057006836,10.910089523706056C21.51069057006836,10.910089523706056,21.51148957006836,10.909469623706055,21.51148957006836,10.909469623706055C21.51148957006836,10.909469623706055,20.92299057006836,10.100999823706054,20.92299057006836,10.100999823706054C20.92299057006836,10.100999823706054,20.92299057006836,10.100999823706054,20.92299057006836,10.100999823706054ZM16.94699057006836,12.989049923706055C16.94699057006836,12.989049923706055,16.35929057006836,12.179909723706055,16.35929057006836,12.179909723706055C16.35929057006836,12.179909723706055,16.358990570068357,12.180150023706055,16.358990570068357,12.180150023706055C16.358990570068357,12.180150023706055,16.94699057006836,12.989049923706055,16.94699057006836,12.989049923706055C16.94699057006836,12.989049923706055,16.94699057006836,12.989049923706055,16.94699057006836,12.989049923706055ZM16.58399057006836,14.107049923706054C16.58399057006836,14.107049923706054,17.53509057006836,13.798149923706054,17.53509057006836,13.798149923706054C17.53509057006836,13.798149923706054,17.53499057006836,13.797849923706055,17.53499057006836,13.797849923706055C17.53499057006836,13.797849923706055,16.58399057006836,14.107049923706054,16.58399057006836,14.107049923706054C16.58399057006836,14.107049923706054,16.58399057006836,14.107049923706054,16.58399057006836,14.107049923706054ZM18.10199057006836,18.781049923706053C18.10199057006836,18.781049923706053,17.15089057006836,19.089849923706055,17.15089057006836,19.089849923706055C17.15089057006836,19.089849923706055,17.15109057006836,19.090449923706053,17.15109057006836,19.090449923706053C17.15109057006836,19.090449923706053,18.10199057006836,18.781049923706053,18.10199057006836,18.781049923706053C18.10199057006836,18.781049923706053,18.10199057006836,18.781049923706053,18.10199057006836,18.781049923706053ZM16.56399057006836,19.899049923706055C16.56399057006836,19.899049923706055,17.15249057006836,19.090549923706053,17.15249057006836,19.090549923706053C17.15249057006836,19.090549923706053,17.15169057006836,19.089950923706056,17.15169057006836,19.089950923706056C17.15169057006836,19.089950923706056,16.56399057006836,19.899049923706055,16.56399057006836,19.899049923706055C16.56399057006836,19.899049923706055,16.56399057006836,19.899049923706055,16.56399057006836,19.899049923706055ZM12.58800027006836,17.010949923706054C12.58800027006836,17.010949923706054,12.00000097006836,17.819849923706055,12.00000097006836,17.819849923706055C12.00000097006836,17.819849923706055,12.00031087006836,17.820049923706055,12.00031087006836,17.820049923706055C12.00031087006836,17.820049923706055,12.58800027006836,17.010949923706054,12.58800027006836,17.010949923706054C12.58800027006836,17.010949923706054,12.58800027006836,17.010949923706054,12.58800027006836,17.010949923706054ZM11.412000670068359,17.010949923706054C11.412000670068359,17.010949923706054,11.99969097006836,17.820049923706055,11.99969097006836,17.820049923706055C11.99969097006836,17.820049923706055,12.00000097006836,17.819849923706055,12.00000097006836,17.819849923706055C12.00000097006836,17.819849923706055,11.412000670068359,17.010949923706054,11.412000670068359,17.010949923706054C11.412000670068359,17.010949923706054,11.412000670068359,17.010949923706054,11.412000670068359,17.010949923706054ZM7.436000370068359,19.899049923706055C7.436000370068359,19.899049923706055,6.848310470068359,19.089950923706056,6.848310470068359,19.089950923706056C6.848310470068359,19.089950923706056,6.847460770068359,19.090549923706053,6.847460770068359,19.090549923706053C6.847460770068359,19.090549923706053,7.436000370068359,19.899049923706055,7.436000370068359,19.899049923706055C7.436000370068359,19.899049923706055,7.436000370068359,19.899049923706055,7.436000370068359,19.899049923706055ZM5.898000470068359,18.781049923706053C5.898000470068359,18.781049923706053,6.848830670068359,19.090749923706056,6.848830670068359,19.090749923706056C6.848830670068359,19.090749923706056,6.84910057006836,19.089849923706055,6.84910057006836,19.089849923706055C6.84910057006836,19.089849923706055,5.898000470068359,18.781049923706053,5.898000470068359,18.781049923706053C5.898000470068359,18.781049923706053,5.898000470068359,18.781049923706053,5.898000470068359,18.781049923706053ZM7.416000370068359,14.107049923706054C7.416000370068359,14.107049923706054,6.464990570068359,13.797849923706055,6.464990570068359,13.797849923706055C6.464990570068359,13.797849923706055,6.464900470068359,13.798149923706054,6.464900470068359,13.798149923706054C6.464900470068359,13.798149923706054,7.416000370068359,14.107049923706054,7.416000370068359,14.107049923706054C7.416000370068359,14.107049923706054,7.416000370068359,14.107049923706054,7.416000370068359,14.107049923706054ZM7.053000470068359,12.989049923706055C7.053000470068359,12.989049923706055,7.641010770068359,12.180150023706055,7.641010770068359,12.180150023706055C7.641010770068359,12.180150023706055,7.6406907700683595,12.179909723706055,7.6406907700683595,12.179909723706055C7.6406907700683595,12.179909723706055,7.053000470068359,12.989049923706055,7.053000470068359,12.989049923706055C7.053000470068359,12.989049923706055,7.053000470068359,12.989049923706055,7.053000470068359,12.989049923706055ZM3.0769995700683594,10.100999823706054C3.0769995700683594,10.100999823706054,2.488950570068359,10.909830123706055,2.488950570068359,10.909830123706055C2.488950570068359,10.909830123706055,2.4893125700683596,10.910089523706056,2.4893125700683596,10.910089523706056C2.4893125700683596,10.910089523706056,3.0769995700683594,10.100999823706054,3.0769995700683594,10.100999823706054C3.0769995700683594,10.100999823706054,3.0769995700683594,10.100999823706054,3.0769995700683594,10.100999823706054ZM8.579000470068358,8.290999923706055C8.579000470068358,8.290999923706055,8.57926037006836,7.290999923706055,8.57926037006836,7.290999923706055C8.57926037006836,7.290999923706055,8.579000470068358,7.290999923706055,8.579000470068358,7.290999923706055C8.579000470068358,7.290999923706055,8.579000470068358,8.290999923706055,8.579000470068358,8.290999923706055C8.579000470068358,8.290999923706055,8.579000470068358,8.290999923706055,8.579000470068358,8.290999923706055ZM9.53000067006836,7.600999823706054C9.53000067006836,7.600999823706054,10.48074057006836,7.910999823706055,10.48074057006836,7.910999823706055C10.48074057006836,7.910999823706055,10.48104047006836,7.910079923706054,10.48104047006836,7.910079923706054C10.48104047006836,7.910079923706054,9.53000067006836,7.600999823706054,9.53000067006836,7.600999823706054C9.53000067006836,7.600999823706054,9.53000067006836,7.600999823706054,9.53000067006836,7.600999823706054ZM11.99983027006836,3.2367199237060547C11.99983027006836,3.2367199237060547,11.99987027006836,3.2357819037060547,11.99987027006836,3.2357819037060547C11.99987027006836,3.2357819037060547,13.90209057006836,2.618217913706055,13.90209057006836,2.618217913706055C13.303390570068359,0.7740599237060546,10.697470670068359,0.7774399237060547,10.098170770068359,2.617283913706055C10.098170770068359,2.617283913706055,11.99983027006836,3.2367199237060547,11.99983027006836,3.2367199237060547C11.99983027006836,3.2367199237060547,11.99983027006836,3.2367199237060547,11.99983027006836,3.2367199237060547ZM11.99996087006836,3.2360769537060547C11.99996087006836,3.2360769537060547,13.51899057006836,7.910079923706054,13.51899057006836,7.910079923706054C13.51899057006836,7.910079923706054,15.420990570068358,7.291919723706055,15.420990570068358,7.291919723706055C15.420990570068358,7.291919723706055,13.90199057006836,2.6179229337060548,13.90199057006836,2.6179229337060548C13.90199057006836,2.6179229337060548,11.99996087006836,3.2360769537060547,11.99996087006836,3.2360769537060547C11.99996087006836,3.2360769537060547,11.99996087006836,3.2360769537060547,11.99996087006836,3.2360769537060547ZM13.519290570068359,7.910999823706055C13.64999057006836,8.311979723706056,13.904190570068359,8.661359823706054,14.24539057006836,8.909209723706056C14.24539057006836,8.909209723706056,15.42069057006836,7.290999923706055,15.42069057006836,7.290999923706055C15.42069057006836,7.290999923706055,15.42069057006836,7.290999923706055,15.42069057006836,7.290999923706055C15.42069057006836,7.290999923706055,13.519290570068359,7.910999823706055,13.519290570068359,7.910999823706055C13.519290570068359,7.910999823706055,13.519290570068359,7.910999823706055,13.519290570068359,7.910999823706055ZM14.24539057006836,8.909209723706056C14.58669057006836,9.157060123706055,14.99749057006836,9.290689923706054,15.419290570068359,9.290999923706055C15.419290570068359,9.290999923706055,15.42069057006836,7.290999923706055,15.42069057006836,7.290999923706055C15.42069057006836,7.290999923706055,15.42069057006836,7.290999923706055,15.42069057006836,7.290999923706055C15.42069057006836,7.290999923706055,14.24539057006836,8.909209723706056,14.24539057006836,8.909209723706056C14.24539057006836,8.909209723706056,14.24539057006836,8.909209723706056,14.24539057006836,8.909209723706056ZM15.419990570068359,9.290999923706055C15.419990570068359,9.290999923706055,20.33499157006836,9.290999923706055,20.33499157006836,9.290999923706055C20.33499157006836,9.290999923706055,20.33499157006836,7.290999923706055,20.33499157006836,7.290999923706055C20.33499157006836,7.290999923706055,15.419990570068359,7.290999923706055,15.419990570068359,7.290999923706055C15.419990570068359,7.290999923706055,15.419990570068359,9.290999923706055,15.419990570068359,9.290999923706055C15.419990570068359,9.290999923706055,15.419990570068359,9.290999923706055,15.419990570068359,9.290999923706055ZM20.33499157006836,9.290999923706055C20.342090570068358,9.290999923706055,20.34609057006836,9.291559723706055,20.34739157006836,9.291770023706054C20.34868957006836,9.291979823706054,20.348190570068358,9.291999823706055,20.34638957006836,9.291399923706056C20.34229057006836,9.289989923706056,20.33759157006836,9.287449823706055,20.333789570068358,9.284490123706055C20.33028957006836,9.281839823706054,20.32958957006836,9.280429823706054,20.33049057006836,9.281729723706054C20.33159057006836,9.283199823706056,20.333391570068358,9.286389823706054,20.33489057006836,9.290979823706055C20.336391570068358,9.295579923706054,20.33679057006836,9.299299723706055,20.33679057006836,9.301250023706054C20.33689157006836,9.302989923706054,20.33658957006836,9.301640023706055,20.33769057006836,9.297740023706055C20.33899157006836,9.293339723706055,20.34119057006836,9.288700123706054,20.34358957006836,9.285299823706055C20.34469057006836,9.283839723706055,20.34498957006836,9.283639923706055,20.34399057006836,9.284609823706056C20.343089570068358,9.285570123706055,20.34019057006836,9.288360123706056,20.33448957006836,9.292530023706055C20.33448957006836,9.292530023706055,21.51148957006836,10.909469623706055,21.51148957006836,10.909469623706055C23.074689570068358,9.771549723706055,22.27548957006836,7.290999923706055,20.33499157006836,7.290999923706055C20.33499157006836,7.290999923706055,20.33499157006836,9.290999923706055,20.33499157006836,9.290999923706055C20.33499157006836,9.290999923706055,20.33499157006836,9.290999923706055,20.33499157006836,9.290999923706055ZM20.33529057006836,9.291909723706056C20.33529057006836,9.291909723706056,16.35929057006836,12.179909723706055,16.35929057006836,12.179909723706055C16.35929057006836,12.179909723706055,17.53469057006836,13.798049923706055,17.53469057006836,13.798049923706055C17.53469057006836,13.798049923706055,21.51069057006836,10.910089523706056,21.51069057006836,10.910089523706056C21.51069057006836,10.910089523706056,20.33529057006836,9.291909723706056,20.33529057006836,9.291909723706056C20.33529057006836,9.291909723706056,20.33529057006836,9.291909723706056,20.33529057006836,9.291909723706056ZM16.358990570068357,12.180150023706055C16.017390570068358,12.428449923706054,15.763190570068359,12.778549923706054,15.632790570068359,13.180249923706056C15.632790570068359,13.180249923706056,17.53499057006836,13.797849923706055,17.53499057006836,13.797849923706055C17.53499057006836,13.797849923706055,17.53499057006836,13.797849923706055,17.53499057006836,13.797849923706055C17.53499057006836,13.797849923706055,16.358990570068357,12.180150023706055,16.358990570068357,12.180150023706055C16.358990570068357,12.180150023706055,16.358990570068357,12.180150023706055,16.358990570068357,12.180150023706055ZM15.632790570068359,13.180249923706056C15.502390570068359,13.581849923706054,15.502390570068359,14.014549923706054,15.63299057006836,14.416149923706055C15.63299057006836,14.416149923706055,17.53499057006836,13.797849923706055,17.53499057006836,13.797849923706055C17.53499057006836,13.797849923706055,17.53499057006836,13.797849923706055,17.53499057006836,13.797849923706055C17.53499057006836,13.797849923706055,15.632790570068359,13.180249923706056,15.632790570068359,13.180249923706056C15.632790570068359,13.180249923706056,15.632790570068359,13.180249923706056,15.632790570068359,13.180249923706056ZM15.63289057006836,14.415849923706055C15.63289057006836,14.415849923706055,17.15089057006836,19.089849923706055,17.15089057006836,19.089849923706055C17.15089057006836,19.089849923706055,19.05309057006836,18.472150923706053,19.05309057006836,18.472150923706053C19.05309057006836,18.472150923706053,17.53509057006836,13.798149923706054,17.53509057006836,13.798149923706054C17.53509057006836,13.798149923706054,15.63289057006836,14.415849923706055,15.63289057006836,14.415849923706055C15.63289057006836,14.415849923706055,15.63289057006836,14.415849923706055,15.63289057006836,14.415849923706055ZM17.15109057006836,19.090449923706053C17.153290570068357,19.097249923706055,17.15399057006836,19.101249923706053,17.15419057006836,19.102550923706055C17.154390570068358,19.103950923706055,17.154290570068362,19.103549923706055,17.154290570068362,19.101748923706054C17.154390570068358,19.097449923706055,17.15529057006836,19.092250923706054,17.15689057006836,19.087649923706056C17.15839057006836,19.083650923706056,17.159490570068357,19.082549923706054,17.15859057006836,19.083749923706055C17.15749057006836,19.085149923706055,17.15509057006836,19.087749923706056,17.15129057006836,19.090449923706053C17.14759057006836,19.093249923706054,17.144290570068357,19.094649923706054,17.14269057006836,19.095248923706055C17.14129057006836,19.095750923706056,17.142790570068357,19.095050923706054,17.14719057006836,19.094850923706055C17.15209057006836,19.094749923706054,17.15749057006836,19.095449923706056,17.16169057006836,19.096749923706053C17.163590570068358,19.097348923706054,17.163990570068357,19.097650923706055,17.16279057006836,19.097049923706056C17.16169057006836,19.096549923706053,17.15819057006836,19.094649923706054,17.15249057006836,19.090549923706053C17.15249057006836,19.090549923706053,15.97549057006836,20.707450923706055,15.97549057006836,20.707450923706055C17.54319057006836,21.848748923706054,19.65249057006836,20.314248923706053,19.05289057006836,18.471549923706053C19.05289057006836,18.471549923706053,17.15109057006836,19.090449923706053,17.15109057006836,19.090449923706053C17.15109057006836,19.090449923706053,17.15109057006836,19.090449923706053,17.15109057006836,19.090449923706053ZM17.15169057006836,19.089950923706056C17.15169057006836,19.089950923706056,13.17569057006836,16.201949923706053,13.17569057006836,16.201949923706053C13.17569057006836,16.201949923706053,12.00031087006836,17.820049923706055,12.00031087006836,17.820049923706055C12.00031087006836,17.820049923706055,15.97629057006836,20.708049923706056,15.97629057006836,20.708049923706056C15.97629057006836,20.708049923706056,17.15169057006836,19.089950923706056,17.15169057006836,19.089950923706056C17.15169057006836,19.089950923706056,17.15169057006836,19.089950923706056,17.15169057006836,19.089950923706056ZM13.17599057006836,16.202149923706052C12.83419057006836,15.953649923706054,12.42254067006836,15.819849923706055,12.00000097006836,15.819849923706055C12.00000097006836,15.819849923706055,12.00000097006836,17.819849923706055,12.00000097006836,17.819849923706055C12.00000097006836,17.819849923706055,12.00000097006836,17.819849923706055,12.00000097006836,17.819849923706055C12.00000097006836,17.819849923706055,13.17599057006836,16.202149923706052,13.17599057006836,16.202149923706052C13.17599057006836,16.202149923706052,13.17599057006836,16.202149923706052,13.17599057006836,16.202149923706052ZM12.00000097006836,15.819849923706055C11.577460270068359,15.819849923706055,11.165770570068359,15.953649923706054,10.82400037006836,16.202149923706052C10.82400037006836,16.202149923706052,12.00000097006836,17.819849923706055,12.00000097006836,17.819849923706055C12.00000097006836,17.819849923706055,12.00000097006836,17.819849923706055,12.00000097006836,17.819849923706055C12.00000097006836,17.819849923706055,12.00000097006836,15.819849923706055,12.00000097006836,15.819849923706055C12.00000097006836,15.819849923706055,12.00000097006836,15.819849923706055,12.00000097006836,15.819849923706055ZM10.82431027006836,16.201949923706053C10.82431027006836,16.201949923706053,6.848310470068359,19.089950923706056,6.848310470068359,19.089950923706056C6.848310470068359,19.089950923706056,8.023690670068358,20.708049923706056,8.023690670068358,20.708049923706056C8.023690670068358,20.708049923706056,11.99969097006836,17.820049923706055,11.99969097006836,17.820049923706055C11.99969097006836,17.820049923706055,10.82431027006836,16.201949923706053,10.82431027006836,16.201949923706053C10.82431027006836,16.201949923706053,10.82431027006836,16.201949923706053,10.82431027006836,16.201949923706053ZM6.847460770068359,19.090549923706053C6.841800670068359,19.094649923706054,6.8383507700683595,19.096450923706055,6.8372707700683595,19.097049923706056C6.83618067006836,19.097549923706055,6.8366303700683595,19.097249923706055,6.8384904700683595,19.096648923706056C6.842810670068359,19.095349923706056,6.848280470068359,19.094649923706054,6.853210470068359,19.094749923706054C6.85762067006836,19.094850923706055,6.859090770068359,19.095649923706056,6.85765077006836,19.095149923706053C6.85601047006836,19.094548923706054,6.8527307700683595,19.093049923706054,6.84888077006836,19.090249923706054C6.84503077006836,19.087449923706053,6.842580770068359,19.084748923706055,6.841480770068359,19.083348923706055C6.840510370068359,19.082049923706055,6.84163047006836,19.083150923706054,6.843080570068359,19.087150923706055C6.8447003700683595,19.091748923706053,6.845650670068359,19.097049923706056,6.845720770068359,19.101449923706056C6.84575037006836,19.103349923706055,6.84558057006836,19.103749923706054,6.845770370068359,19.102550923706055C6.8459605700683595,19.101249923706053,6.846650570068359,19.097348923706054,6.848830670068359,19.090749923706056C6.848830670068359,19.090749923706056,4.947170470068359,18.471250923706055,4.947170470068359,18.471250923706055C4.34737067006836,20.312650923706055,6.45638057006836,21.849050923706056,8.02454047006836,20.707450923706055C8.02454047006836,20.707450923706055,6.847460770068359,19.090549923706053,6.847460770068359,19.090549923706053C6.847460770068359,19.090549923706053,6.847460770068359,19.090549923706053,6.847460770068359,19.090549923706053ZM6.84910057006836,19.089849923706055C6.84910057006836,19.089849923706055,8.36710067006836,14.415849923706055,8.36710067006836,14.415849923706055C8.36710067006836,14.415849923706055,6.464900470068359,13.798149923706054,6.464900470068359,13.798149923706054C6.464900470068359,13.798149923706054,4.94690057006836,18.472150923706053,4.94690057006836,18.472150923706053C4.94690057006836,18.472150923706053,6.84910057006836,19.089849923706055,6.84910057006836,19.089849923706055C6.84910057006836,19.089849923706055,6.84910057006836,19.089849923706055,6.84910057006836,19.089849923706055ZM8.36701057006836,14.416149923706055C8.497570470068359,14.014549923706054,8.49765067006836,13.581849923706054,8.36723037006836,13.180249923706056C8.36723037006836,13.180249923706056,6.464990570068359,13.797849923706055,6.464990570068359,13.797849923706055C6.464990570068359,13.797849923706055,6.464990570068359,13.797849923706055,6.464990570068359,13.797849923706055C6.464990570068359,13.797849923706055,8.36701057006836,14.416149923706055,8.36701057006836,14.416149923706055C8.36701057006836,14.416149923706055,8.36701057006836,14.416149923706055,8.36701057006836,14.416149923706055ZM8.36723037006836,13.180249923706056C8.236810670068358,12.778549923706054,7.98260067006836,12.428449923706054,7.641010770068359,12.180150023706055C7.641010770068359,12.180150023706055,6.464990570068359,13.797849923706055,6.464990570068359,13.797849923706055C6.464990570068359,13.797849923706055,6.464990570068359,13.797849923706055,6.464990570068359,13.797849923706055C6.464990570068359,13.797849923706055,8.36723037006836,13.180249923706056,8.36723037006836,13.180249923706056C8.36723037006836,13.180249923706056,8.36723037006836,13.180249923706056,8.36723037006836,13.180249923706056ZM7.6406907700683595,12.179909723706055C7.6406907700683595,12.179909723706055,3.6646905700683594,9.291909723706056,3.6646905700683594,9.291909723706056C3.6646905700683594,9.291909723706056,2.4893125700683596,10.910089523706056,2.4893125700683596,10.910089523706056C2.4893125700683596,10.910089523706056,6.465310570068359,13.798049923706055,6.465310570068359,13.798049923706055C6.465310570068359,13.798049923706055,7.6406907700683595,12.179909723706055,7.6406907700683595,12.179909723706055C7.6406907700683595,12.179909723706055,7.6406907700683595,12.179909723706055,7.6406907700683595,12.179909723706055ZM3.6650506700683594,9.292170023706054C3.6592955600683594,9.287990123706056,3.6563975800683592,9.285200123706055,3.655459580068359,9.284249823706055C3.6545226000683595,9.283299923706053,3.6548885700683593,9.283529723706055,3.6559445900683594,9.285029923706055C3.658407570068359,9.288539923706054,3.6607165900683594,9.293309723706056,3.6620465500683594,9.297879723706055C3.663230570068359,9.301939923706055,3.6629545700683592,9.303410023706054,3.6629905700683594,9.301759723706056C3.6630404700683594,9.299880023706056,3.6634605700683593,9.296179723706054,3.6649606700683597,9.291550123706054C3.666470570068359,9.286920023706054,3.668320570068359,9.283649923706054,3.6694105700683597,9.282070123706054C3.6703805700683594,9.280660123706054,3.6697805700683594,9.281980023706055,3.666460470068359,9.284549723706053C3.662735580068359,9.287429823706056,3.6580575700683595,9.289939923706054,3.6539355500683595,9.291359923706054C3.6521605800683594,9.291969823706054,3.6516705800683593,9.291949723706054,3.6529035600683595,9.291749923706055C3.6541375500683593,9.291550123706054,3.6580185900683593,9.290999923706055,3.6650005700683597,9.290999923706055C3.6650005700683597,9.290999923706055,3.6650005700683597,7.290999923706055,3.6650005700683597,7.290999923706055C1.7290125500683593,7.290999923706055,0.9211005700683594,9.769929923706055,2.488950570068359,10.909830123706055C2.488950570068359,10.909830123706055,3.6650506700683594,9.292170023706054,3.6650506700683594,9.292170023706054C3.6650506700683594,9.292170023706054,3.6650506700683594,9.292170023706054,3.6650506700683594,9.292170023706054ZM3.6650005700683597,9.290999923706055C3.6650005700683597,9.290999923706055,8.579000470068358,9.290999923706055,8.579000470068358,9.290999923706055C8.579000470068358,9.290999923706055,8.579000470068358,7.290999923706055,8.579000470068358,7.290999923706055C8.579000470068358,7.290999923706055,3.6650005700683597,7.290999923706055,3.6650005700683597,7.290999923706055C3.6650005700683597,7.290999923706055,3.6650005700683597,9.290999923706055,3.6650005700683597,9.290999923706055C3.6650005700683597,9.290999923706055,3.6650005700683597,9.290999923706055,3.6650005700683597,9.290999923706055ZM8.578740570068359,9.290999923706055C9.00083067006836,9.291110023706054,9.412140370068359,9.157670023706054,9.753780370068359,8.909800023706055C9.753780370068359,8.909800023706055,8.57926037006836,7.290999923706055,8.57926037006836,7.290999923706055C8.57926037006836,7.290999923706055,8.57926037006836,7.290999923706055,8.57926037006836,7.290999923706055C8.57926037006836,7.290999923706055,8.578740570068359,9.290999923706055,8.578740570068359,9.290999923706055C8.578740570068359,9.290999923706055,8.578740570068359,9.290999923706055,8.578740570068359,9.290999923706055ZM9.753780370068359,8.909800023706055C10.09543037006836,8.661920023706054,10.349890670068358,8.312299723706055,10.48074057006836,7.910999823706055C10.48074057006836,7.910999823706055,8.57926037006836,7.290999923706055,8.57926037006836,7.290999923706055C8.57926037006836,7.290999923706055,8.57926037006836,7.290999923706055,8.57926037006836,7.290999923706055C8.57926037006836,7.290999923706055,9.753780370068359,8.909800023706055,9.753780370068359,8.909800023706055C9.753780370068359,8.909800023706055,9.753780370068359,8.909800023706055,9.753780370068359,8.909800023706055ZM10.48104047006836,7.910079923706054C10.48104047006836,7.910079923706054,12.00004097006836,3.2360769537060547,12.00004097006836,3.2360769537060547C12.00004097006836,3.2360769537060547,10.097960470068358,2.6179229337060548,10.097960470068358,2.6179229337060548C10.097960470068358,2.6179229337060548,8.578960370068359,7.291919723706055,8.578960370068359,7.291919723706055C8.578960370068359,7.291919723706055,10.48104047006836,7.910079923706054,10.48104047006836,7.910079923706054C10.48104047006836,7.910079923706054,10.48104047006836,7.910079923706054,10.48104047006836,7.910079923706054Z" fill="#0A0A28" fill-opacity="1"/></g></svg>