<svg xmlns="http://www.w3.org/2000/svg" xmlns:xlink="http://www.w3.org/1999/xlink" fill="none" version="1.1" width="24" height="24" viewBox="0 0 24 24"><defs><clipPath id="master_svg0_3_1872"><rect x="0" y="0" width="24" height="24" rx="0"/></clipPath></defs><g clip-path="url(#master_svg0_3_1872)"><path d="M19.07112034111023,4.92889C18.680620341110227,4.5383700000000005,18.04742034111023,4.5383700000000005,17.65692034111023,4.9289000000000005C17.26632034111023,5.3194201,17.26642034111023,5.95259,17.65692034111023,6.3431101000000005C17.65692034111023,6.3431101000000005,19.07112034111023,4.92889,19.07112034111023,4.92889C19.07112034111023,4.92889,19.07112034111023,4.92889,19.07112034111023,4.92889ZM21.00012134111023,12C21.00012134111023,12,20.00012134111023,12,20.00012134111023,12C20.00012134111023,12,21.00012134111023,12,21.00012134111023,12C21.00012134111023,12,21.00012134111023,12,21.00012134111023,12ZM18.36402034111023,18.364C18.36402034111023,18.364,17.65692034111023,19.0711,17.65692034111023,19.0711C17.65692034111023,19.0711,17.65692034111023,19.0711,17.65692034111023,19.0711C17.65692034111023,19.0711,18.36402034111023,18.364,18.36402034111023,18.364C18.36402034111023,18.364,18.36402034111023,18.364,18.36402034111023,18.364ZM16.24212034111023,14.8279C15.85162034111023,14.4374,15.21842034111023,14.4374,14.827920341110229,14.8279C14.43732034111023,15.2184,14.43732034111023,15.8516,14.827920341110229,16.2421C14.827920341110229,16.2421,16.24212034111023,14.8279,16.24212034111023,14.8279C16.24212034111023,14.8279,16.24212034111023,14.8279,16.24212034111023,14.8279ZM20.29292034111023,21.7071C20.68342134111023,22.097601,21.31662034111023,22.097601,21.70711934111023,21.7071C22.09762034111023,21.316601,22.09762034111023,20.683399,21.70711934111023,20.2929C21.70711934111023,20.2929,20.29292034111023,21.7071,20.29292034111023,21.7071C20.29292034111023,21.7071,20.29292034111023,21.7071,20.29292034111023,21.7071ZM16.24302034111023,7.7568002C15.85242034111023,7.3663301,15.21932034111023,7.3664098,14.82882034111023,7.75699C14.438320341110229,8.1475601,14.438420341110229,8.7807298,14.82902034111023,9.1711998C14.82902034111023,9.1711998,16.24302034111023,7.7568002,16.24302034111023,7.7568002C16.24302034111023,7.7568002,16.24302034111023,7.7568002,16.24302034111023,7.7568002ZM15.536020341110229,15.536C15.536020341110229,15.536,14.82892034111023,16.2431,14.82892034111023,16.2431C15.21942034111023,16.6336,15.85252034111023,16.6336,16.24302034111023,16.2432C16.24302034111023,16.2432,15.536020341110229,15.536,15.536020341110229,15.536C15.536020341110229,15.536,15.536020341110229,15.536,15.536020341110229,15.536ZM7.757830341110229,16.244C8.14888024111023,16.6341,8.782040341110228,16.633200000000002,9.17205024111023,16.2422C9.56205014111023,15.8511,9.56121044111023,15.218,9.17016054111023,14.828C9.17016054111023,14.828,7.757830341110229,16.244,7.757830341110229,16.244C7.757830341110229,16.244,7.757830341110229,16.244,7.757830341110229,16.244ZM8.04022054111023,12.5664501C7.963150241110229,12.0195704,7.4573404411102295,11.6387196,6.91045044111023,11.7157898C6.363570441110229,11.7928495,5.982720341110229,12.2986603,6.05978034111023,12.8455496C6.05978034111023,12.8455496,8.04022054111023,12.5664501,8.04022054111023,12.5664501C8.04022054111023,12.5664501,8.04022054111023,12.5664501,8.04022054111023,12.5664501ZM4.92908034111023,19.071301C5.31970024111023,19.4617,5.952870341110229,19.4615,6.3432903411102295,19.0709C6.733710241110229,18.680300000000003,6.733550341110229,18.0471,6.342920341110229,17.6567C6.342920341110229,17.6567,4.92908034111023,19.071301,4.92908034111023,19.071301C4.92908034111023,19.071301,4.92908034111023,19.071301,4.92908034111023,19.071301ZM4.4167003411102295,9.4451599C4.592970341110229,8.9217501,4.311560441110229,8.3545599,3.7881553211102297,8.178299899999999C3.2647543511102297,8.0020299,2.6975623411102294,8.2834401,2.5212973311102296,8.8068399C2.5212973311102296,8.8068399,4.4167003411102295,9.4451599,4.4167003411102295,9.4451599C4.4167003411102295,9.4451599,4.4167003411102295,9.4451599,4.4167003411102295,9.4451599ZM11.29299994111023,11.2930002C11.29299994111023,11.2930002,10.58589054111023,12.0001097,10.58589054111023,12.0001097C10.58589054111023,12.0001097,11.29299994111023,11.2930002,11.29299994111023,11.2930002C11.29299994111023,11.2930002,11.29299994111023,11.2930002,11.29299994111023,11.2930002ZM3.7071063511102293,2.29289299C3.3165823511102293,1.90237,2.6834173511102293,1.90237,2.2928933511102296,2.29289299C1.9023703411102295,2.68341699,1.9023703411102295,3.31658199,2.2928933511102296,3.70710701C2.2928933511102296,3.70710701,3.7071063511102293,2.29289299,3.7071063511102293,2.29289299C3.7071063511102293,2.29289299,3.7071063511102293,2.29289299,3.7071063511102293,2.29289299ZM17.65692034111023,6.3431101000000005C18.399820341110228,7.0859799,18.98902034111023,7.9678998,19.39111934111023,8.9385099C19.39111934111023,8.9385099,21.23881934111023,8.17314,21.23881934111023,8.17314C20.73632134111023,6.9598701,19.99972034111023,5.85748,19.07112034111023,4.92889C19.07112034111023,4.92889,17.65692034111023,6.3431101000000005,17.65692034111023,6.3431101000000005C17.65692034111023,6.3431101000000005,17.65692034111023,6.3431101000000005,17.65692034111023,6.3431101000000005ZM19.39111934111023,8.9385099C19.793120341110228,9.909120099999999,20.00012134111023,10.94942,20.00012134111023,12C20.00012134111023,12,22.00012134111023,12,22.00012134111023,12C22.00012134111023,10.68677,21.74141934111023,9.3864002,21.23881934111023,8.17314C21.23881934111023,8.17314,19.39111934111023,8.9385099,19.39111934111023,8.9385099C19.39111934111023,8.9385099,19.39111934111023,8.9385099,19.39111934111023,8.9385099ZM20.00012134111023,12C20.00012134111023,13.0506,19.793120341110228,14.0909,19.39111934111023,15.0615C19.39111934111023,15.0615,21.23881934111023,15.8269,21.23881934111023,15.8269C21.74141934111023,14.6136,22.00012134111023,13.3132,22.00012134111023,12C22.00012134111023,12,20.00012134111023,12,20.00012134111023,12C20.00012134111023,12,20.00012134111023,12,20.00012134111023,12ZM19.39111934111023,15.0615C18.98902034111023,16.0321,18.399820341110228,16.914,17.65692034111023,17.6569C17.65692034111023,17.6569,19.07112034111023,19.0711,19.07112034111023,19.0711C19.99972034111023,18.1425,20.73632134111023,17.040100000000002,21.23881934111023,15.8269C21.23881934111023,15.8269,19.39111934111023,15.0615,19.39111934111023,15.0615C19.39111934111023,15.0615,19.39111934111023,15.0615,19.39111934111023,15.0615ZM19.07112034111023,17.6569C19.07112034111023,17.6569,16.24212034111023,14.8279,16.24212034111023,14.8279C16.24212034111023,14.8279,14.827920341110229,16.2421,14.827920341110229,16.2421C14.827920341110229,16.2421,17.65692034111023,19.0711,17.65692034111023,19.0711C17.65692034111023,19.0711,19.07112034111023,17.6569,19.07112034111023,17.6569C19.07112034111023,17.6569,19.07112034111023,17.6569,19.07112034111023,17.6569ZM17.65692034111023,19.0711C17.65692034111023,19.0711,20.29292034111023,21.7071,20.29292034111023,21.7071C20.29292034111023,21.7071,21.70711934111023,20.2929,21.70711934111023,20.2929C21.70711934111023,20.2929,19.07112034111023,17.6569,19.07112034111023,17.6569C19.07112034111023,17.6569,17.65692034111023,19.0711,17.65692034111023,19.0711C17.65692034111023,19.0711,17.65692034111023,19.0711,17.65692034111023,19.0711ZM14.82902034111023,9.1711998C15.200520341110229,9.5426502,15.49522034111023,9.9836502,15.69632034111023,10.4690199C15.69632034111023,10.4690199,17.54402034111023,9.7035298,17.54402034111023,9.7035298C17.24242034111023,8.9754801,16.80032034111023,8.313970099999999,16.24302034111023,7.7568002C16.24302034111023,7.7568002,14.82902034111023,9.1711998,14.82902034111023,9.1711998C14.82902034111023,9.1711998,14.82902034111023,9.1711998,14.82902034111023,9.1711998ZM15.69632034111023,10.4690199C15.89742034111023,10.95439,16.00092034111023,11.4746199,16.00092034111023,12C16.00092034111023,12,18.00092034111023,12,18.00092034111023,12C18.00092034111023,11.2119303,17.84572034111023,10.431590100000001,17.54402034111023,9.7035298C17.54402034111023,9.7035298,15.69632034111023,10.4690199,15.69632034111023,10.4690199C15.69632034111023,10.4690199,15.69632034111023,10.4690199,15.69632034111023,10.4690199ZM16.00092034111023,12C16.00092034111023,12.5253801,15.89742034111023,13.0456,15.69632034111023,13.531C15.69632034111023,13.531,17.54402034111023,14.2965,17.54402034111023,14.2965C17.84572034111023,13.5684,18.00092034111023,12.7880697,18.00092034111023,12C18.00092034111023,12,16.00092034111023,12,16.00092034111023,12C16.00092034111023,12,16.00092034111023,12,16.00092034111023,12ZM15.69632034111023,13.531C15.49522034111023,14.0163,15.200520341110229,14.4574,14.82902034111023,14.8288C14.82902034111023,14.8288,16.24302034111023,16.2432,16.24302034111023,16.2432C16.80032034111023,15.686,17.24242034111023,15.0245,17.54402034111023,14.2965C17.54402034111023,14.2965,15.69632034111023,13.531,15.69632034111023,13.531C15.69632034111023,13.531,15.69632034111023,13.531,15.69632034111023,13.531ZM16.243120341110227,14.8289C16.243120341110227,14.8289,13.41412034111023,11.9998903,13.41412034111023,11.9998903C13.41412034111023,11.9998903,11.999890041110229,13.4141,11.999890041110229,13.4141C11.999890041110229,13.4141,14.82892034111023,16.2431,14.82892034111023,16.2431C14.82892034111023,16.2431,16.243120341110227,14.8289,16.243120341110227,14.8289C16.243120341110227,14.8289,16.243120341110227,14.8289,16.243120341110227,14.8289ZM9.17016054111023,14.828C8.55763034111023,14.217,8.16094044111023,13.4231,8.04022054111023,12.5664501C8.04022054111023,12.5664501,6.05978034111023,12.8455496,6.05978034111023,12.8455496C6.241200441110229,14.1329,6.8373303411102295,15.326,7.757830341110229,16.244C7.757830341110229,16.244,9.17016054111023,14.828,9.17016054111023,14.828C9.17016054111023,14.828,9.17016054111023,14.828,9.17016054111023,14.828ZM6.342920341110229,17.6567C5.28889034111023,16.6032,4.550070241110229,15.2763,4.209740441110229,13.8254C4.209740441110229,13.8254,2.2625903511102297,14.2822,2.2625903511102297,14.2822C2.6880083411102293,16.0957,3.6115353711102296,17.7544,4.92908034111023,19.071301C4.92908034111023,19.071301,6.342920341110229,17.6567,6.342920341110229,17.6567C6.342920341110229,17.6567,6.342920341110229,17.6567,6.342920341110229,17.6567ZM4.209740441110229,13.8254C3.8694013311102298,12.3745403,3.9410833111102295,10.85746,4.4167003411102295,9.4451599C4.4167003411102295,9.4451599,2.5212973311102296,8.8068399,2.5212973311102296,8.8068399C1.9267703411102295,10.5722299,1.8371703411102296,12.4685802,2.2625903511102297,14.2822C2.2625903511102297,14.2822,4.209740441110229,13.8254,4.209740441110229,13.8254C4.209740441110229,13.8254,4.209740441110229,13.8254,4.209740441110229,13.8254ZM12.01229074111023,11.98771C12.01229074111023,11.98771,12.01229074111023,11.98771,12.01229074111023,11.98771C12.01229074111023,11.98771,11.22290014111023,10.1500802,11.22290014111023,10.1500802C10.978890141110229,10.2549,10.75820044111023,10.40727,10.57371024111023,10.59829C10.57371024111023,10.59829,12.01229074111023,11.98771,12.01229074111023,11.98771C12.01229074111023,11.98771,12.01229074111023,11.98771,12.01229074111023,11.98771ZM12.01229074111023,11.98771C12.01229074111023,11.98771,12.01229074111023,11.98771,12.01229074111023,11.98771C12.01229074111023,11.98771,11.994910041110229,9.9877901,11.994910041110229,9.9877901C11.729350841110229,9.990089900000001,11.46691014111023,10.04527,11.22290014111023,10.1500802C11.22290014111023,10.1500802,12.01229074111023,11.98771,12.01229074111023,11.98771C12.01229074111023,11.98771,12.01229074111023,11.98771,12.01229074111023,11.98771ZM12.01229074111023,11.98771C12.01229074111023,11.98771,12.01229074111023,11.98771,12.01229074111023,11.98771C12.01229074111023,11.98771,12.76962064111023,10.1366501,12.76962064111023,10.1366501C12.52383014111023,10.0360899,12.260470141110229,9.9854798,11.994910041110229,9.9877901C11.994910041110229,9.9877901,12.01229074111023,11.98771,12.01229074111023,11.98771C12.01229074111023,11.98771,12.01229074111023,11.98771,12.01229074111023,11.98771ZM12.01229074111023,11.98771C12.01229074111023,11.98771,12.01229074111023,11.98771,12.01229074111023,11.98771C12.01229074111023,11.98771,13.42652034111023,10.5735002,13.42652034111023,10.5735002C13.238720341110229,10.3857098,13.015420341110229,10.237209799999999,12.76962064111023,10.1366501C12.76962064111023,10.1366501,12.01229074111023,11.98771,12.01229074111023,11.98771C12.01229074111023,11.98771,12.01229074111023,11.98771,12.01229074111023,11.98771ZM12.01229074111023,11.98771C12.01229074111023,11.98771,12.01229074111023,11.98771,12.01229074111023,11.98771C12.01229074111023,11.98771,13.86332034111023,11.2303801,13.86332034111023,11.2303801C13.76282034111023,10.9845901,13.61432034111023,10.7612801,13.42652034111023,10.5735002C13.42652034111023,10.5735002,12.01229074111023,11.98771,12.01229074111023,11.98771C12.01229074111023,11.98771,12.01229074111023,11.98771,12.01229074111023,11.98771ZM12.01229074111023,11.98771C12.01229074111023,11.98771,12.01229074111023,11.98771,12.01229074111023,11.98771C12.01229074111023,11.98771,14.012220341110229,12.0050898,14.012220341110229,12.0050898C14.014520341110229,11.7395296,13.96392034111023,11.4761696,13.86332034111023,11.2303801C13.86332034111023,11.2303801,12.01229074111023,11.98771,12.01229074111023,11.98771C12.01229074111023,11.98771,12.01229074111023,11.98771,12.01229074111023,11.98771ZM12.01229074111023,11.98771C12.01229074111023,11.98771,12.01229074111023,11.98771,12.01229074111023,11.98771C12.01229074111023,11.98771,13.849920341110229,12.7770996,13.849920341110229,12.7770996C13.95472034111023,12.5330896,14.009920341110229,12.2706499,14.012220341110229,12.0050898C14.012220341110229,12.0050898,12.01229074111023,11.98771,12.01229074111023,11.98771C12.01229074111023,11.98771,12.01229074111023,11.98771,12.01229074111023,11.98771ZM12.01229074111023,11.98771C12.01229074111023,11.98771,12.01229074111023,11.98771,12.01229074111023,11.98771C12.01229074111023,11.98771,13.401720341110229,13.4263,13.401720341110229,13.4263C13.59272034111023,13.2418,13.74512034111023,13.0211,13.849920341110229,12.7770996C13.849920341110229,12.7770996,12.01229074111023,11.98771,12.01229074111023,11.98771C12.01229074111023,11.98771,12.01229074111023,11.98771,12.01229074111023,11.98771ZM13.41412034111023,11.9998903C13.41412034111023,11.9998903,12.00011034111023,10.5858898,12.00011034111023,10.5858898C12.00011034111023,10.5858898,10.58589054111023,12.0001097,10.58589054111023,12.0001097C10.58589054111023,12.0001097,11.999890041110229,13.4141,11.999890041110229,13.4141C11.999890041110229,13.4141,13.41412034111023,11.9998903,13.41412034111023,11.9998903C13.41412034111023,11.9998903,13.41412034111023,11.9998903,13.41412034111023,11.9998903ZM12.00011034111023,10.5858898C12.00011034111023,10.5858898,3.7071063511102293,2.29289299,3.7071063511102293,2.29289299C3.7071063511102293,2.29289299,2.2928933511102296,3.70710701,2.2928933511102296,3.70710701C2.2928933511102296,3.70710701,10.58589054111023,12.0001097,10.58589054111023,12.0001097C10.58589054111023,12.0001097,12.00011034111023,10.5858898,12.00011034111023,10.5858898C12.00011034111023,10.5858898,12.00011034111023,10.5858898,12.00011034111023,10.5858898Z" fill="#0A0A28" fill-opacity="1"/></g></svg>