<svg xmlns="http://www.w3.org/2000/svg" xmlns:xlink="http://www.w3.org/1999/xlink" fill="none" version="1.1" width="24" height="24" viewBox="0 0 24 24"><defs><clipPath id="master_svg0_3_1688"><rect x="0" y="0" width="24" height="24" rx="0"/></clipPath></defs><g clip-path="url(#master_svg0_3_1688)"><path d="M6.05998613671875,4.363306100625C6.28495023671875,4.588339690625,6.41132263671875,4.893509330625,6.41132263671875,5.211706190625C6.41132263671875,5.529903090625,6.28495023671875,5.8350749906249995,6.05998613671875,6.060111090625C5.27987863671875,6.840135090625,4.661062236718751,7.766174990625,4.2388663367187505,8.785370790624999C3.81668233671875,9.804554890624999,3.59937433671875,10.896927390624999,3.59937433671875,12.000111090625001C3.59937433671875,13.103282890625,3.81668233671875,14.195655890625,4.2388663367187505,15.214850890625C4.661062236718751,16.234082890625,5.27987863671875,17.160123890625,6.05998613671875,17.940123890625C6.17459823671875,18.050763890625,6.26601413671875,18.183242890625,6.32890603671875,18.329643890625C6.39179853671875,18.476043890625,6.42489433671875,18.633482890625,6.42628623671875,18.792843890625C6.42766663671875,18.952203890625,6.39730643671875,19.110123890624998,6.33697033671875,19.257603890625C6.27663423671875,19.405082890625,6.18753433671875,19.539122890625002,6.07485433671875,19.651803890625C5.96218633671875,19.764483890625,5.82820653671875,19.853522890625,5.68072653671875,19.913883890625C5.53325843671875,19.974242890625,5.37524223671875,20.004602890625,5.21590613671875,20.003162890625C5.05657033671875,20.001843890625,4.89910623671875,19.968723890625,4.752694336718751,19.905842890625C4.60629443671875,19.842962890625,4.4738741367187504,19.751522890625,4.36318633671875,19.636922890625C3.36029843671875,18.634082890625002,2.56475813671875,17.443442890625,2.02200418671875,16.133163890625C1.47924533671875,14.822799890625,1.1998901367187498,13.418391190625,1.19989013671875,12.000111090625001C1.19989013671875,10.581819490625,1.47924533671875,9.177423490625,2.02200418671875,7.8670949906250005C2.56475813671875,6.556766990625,3.36029843671875,5.366186990625,4.36318633671875,4.363306100625C4.5882222367187495,4.138340890625,4.89338233671875,4.011962890625,5.21158643671875,4.011962890625C5.52977803671875,4.011962890625,5.83495043671875,4.138340890625,6.05998613671875,4.363306100625C6.05998613671875,4.363306100625,6.05998613671875,4.363306100625,6.05998613671875,4.363306100625C6.05998613671875,4.363306100625,6.05998613671875,4.363306100625,6.05998613671875,4.363306100625ZM17.94001013671875,4.363306100625C18.16501013671875,4.138340890625,18.47017113671875,4.011962890625,18.78841013671875,4.011962890625C19.10653113671875,4.011962890625,19.41181213671875,4.138340890625,19.63681213671875,4.363306100625C20.63965213671875,5.366186990625,21.43525113671875,6.556766990625,21.97801013671875,7.8670949906250005C22.52077113671875,9.177423490625,22.80013113671875,10.581819490625,22.80013113671875,12.000111090625001C22.80013113671875,13.418391190625,22.52077113671875,14.822799890625,21.97801013671875,16.133163890625C21.43525113671875,17.443442890625,20.63965213671875,18.634082890625002,19.63681213671875,19.636922890625C19.52605013671875,19.751522890625,19.39369013671875,19.842962890625,19.24729113671875,19.905842890625C19.10089113671875,19.968723890625,18.94345113671875,20.001843890625,18.78409013671875,20.003162890625C18.62473113671875,20.004602890625,18.46669013671875,19.974242890625,18.31921013671875,19.913883890625C18.17173013671875,19.853522890625,18.03781113671875,19.764483890625,17.92513113671875,19.651803890625C17.81245013671875,19.539122890625002,17.72329113671875,19.405082890625,17.66305113671875,19.257603890625C17.60269013671875,19.110123890624998,17.57233013671875,18.952203890625,17.57365013671875,18.792843890625C17.57509013671875,18.633482890625,17.60821113671875,18.476043890625,17.67109113671875,18.329643890625C17.73397113671875,18.183242890625,17.82541113671875,18.050763890625,17.94001013671875,17.940123890625C18.72013113671875,17.160123890625,19.33885013671875,16.234082890625,19.76113113671875,15.214850890625C20.18329013671875,14.195655890625,20.40061213671875,13.103282890625,20.40061213671875,12.000111090625001C20.40061213671875,10.896927390624999,20.18329013671875,9.804554890624999,19.76113113671875,8.785370790624999C19.33885013671875,7.766174990625,18.72013113671875,6.840135090625,17.94001013671875,6.060111090625C17.71501113671875,5.8350749906249995,17.58865213671875,5.529903090625,17.58865213671875,5.211706190625C17.58865213671875,4.893509330625,17.71501113671875,4.588339690625,17.94001013671875,4.363306100625C17.94001013671875,4.363306100625,17.94001013671875,4.363306100625,17.94001013671875,4.363306100625C17.94001013671875,4.363306100625,17.94001013671875,4.363306100625,17.94001013671875,4.363306100625ZM9.45478633671875,7.756910990625C9.67975043671875,7.981934990625,9.80612273671875,8.287106990625,9.80612273671875,8.605310890624999C9.80612273671875,8.923502890624999,9.67975043671875,9.228674890625001,9.45478633671875,9.453710990625C9.120430436718749,9.788007290625,8.85520603671875,10.184895490625,8.674246336718749,10.621707390625C8.493286136718751,11.058518890624999,8.40015413671875,11.526699090625,8.40015413671875,11.999511290625C8.40015413671875,12.472310990625,8.493286136718751,12.940491690625,8.674246336718749,13.377303090625C8.85520603671875,13.814115490625,9.120430436718749,14.211002890625,9.45478633671875,14.545310890625C9.56619453671875,14.656802890625,9.65456203671875,14.789138890625,9.71482653671875,14.934783890625C9.77509023671875,15.080426890625,9.80608653671875,15.236510890625,9.80602643671875,15.394130890625C9.80596633671875,15.551751890625,9.77487473671875,15.707810890625,9.71450233671875,15.853407890625C9.65412993671875,15.999015890625,9.56567863671875,16.131242890625,9.45418643671875,16.242723890625C9.34269423671875,16.354082890625,9.21034713671875,16.442522890625,9.06470253671875,16.502763890624998C8.91905833671875,16.563003890624998,8.762974236718751,16.593962890625,8.60535433671875,16.593962890625C8.44774623671875,16.593844890625,8.29167463671875,16.562762890625002,8.14607813671875,16.502402890625C8.00048253671875,16.442043890625,7.86819453671875,16.353603890625,7.75678633671875,16.242123890625003C6.63195423671875,15.116942890625,6.00007053671875,13.591095890625,6.00007053671875,12.000111090625001C6.00007053671875,10.409126790624999,6.63195423671875,8.883267390625,7.75678633671875,7.758110990625C7.86823033671875,7.646535190625,8.000578436718751,7.558022990625,8.14625833671875,7.497639190625C8.29193833671875,7.437242990625,8.44808243671875,7.406162990625,8.60578633671875,7.406162990625C8.76347823671875,7.406162990625,8.919634336718751,7.437242990625,9.06531473671875,7.497639190625C9.21099473671875,7.558022990625,9.34333033671875,7.646535190625,9.45478633671875,7.758110990625C9.45478633671875,7.758110990625,9.45478633671875,7.756910990625,9.45478633671875,7.756910990625C9.45478633671875,7.756910990625,9.45478633671875,7.756910990625,9.45478633671875,7.756910990625ZM14.54521113671875,7.756910990625C14.65669013671875,7.6453351906249996,14.78893013671875,7.556822990625,14.93461013671875,7.496438990625C15.08029113671875,7.436042990624999,15.23653013671875,7.404963290625,15.39421113671875,7.404963290625C15.55189013671875,7.404963290625,15.70801113671875,7.436042990624999,15.85369113671875,7.496438990625C15.99937013671875,7.556822990625,16.13173113671875,7.6453351906249996,16.24321113671875,7.756910990625C16.80049013671875,8.314083090625001,17.24257113671875,8.975583090625001,17.54425013671875,9.703635190625C17.84581213671875,10.431699290625,18.00109113671875,11.212047090625,18.00109113671875,12.000111090625001C18.00109113671875,12.788175590625,17.84581213671875,13.568523390625,17.54425013671875,14.296575890625C17.24257113671875,15.024627890625,16.80049013671875,15.686139890625,16.24321113671875,16.243322890625002C16.01797113671875,16.468442890625,15.71257013671875,16.594922890625,15.39421113671875,16.594922890625C15.07573013671875,16.594922890625,14.77033013671875,16.468442890625,14.54521113671875,16.243322890625002C14.31997113671875,16.018083890625,14.19349113671875,15.712743890625,14.19349113671875,15.394310890625C14.19349113671875,15.075867890625,14.31997113671875,14.770478890625,14.54521113671875,14.545310890625C15.22009113671875,13.870203990625,15.59917113671875,12.954699490625,15.59917113671875,12.000111090625001C15.59917113671875,11.045511290625,15.22009113671875,10.130007290624999,14.54521113671875,9.454911190625001C14.43361113671875,9.343455290625,14.34505113671875,9.211107290625,14.28469113671875,9.065438790624999C14.22433013671875,8.919758790625,14.19325113671875,8.763603190625,14.19325113671875,8.605911290625C14.19325113671875,8.448207390625,14.22433013671875,8.292051290625,14.28469113671875,8.146382790625001C14.34505113671875,8.000703090625,14.43361113671875,7.868354990625,14.54521113671875,7.756910990625C14.54521113671875,7.756910990625,14.54521113671875,7.756910990625,14.54521113671875,7.756910990625C14.54521113671875,7.756910990625,14.54521113671875,7.756910990625,14.54521113671875,7.756910990625ZM11.99998713671875,10.800110790625C12.31825113671875,10.800110790625,12.62347113671875,10.926530790625,12.84850713671875,11.151578890625C13.07355513671875,11.376626990624999,13.20001113671875,11.681847090625,13.20001113671875,12.000111090625001C13.20001113671875,12.000111090625001,13.20001113671875,12.012111690625,13.20001113671875,12.012111690625C13.20001113671875,12.330363290625,13.07355513671875,12.635595290625,12.84850713671875,12.860630990625C12.62347113671875,13.085679090625,12.31825113671875,13.212111490625,11.99998713671875,13.212111490625C11.68172313671875,13.212111490625,11.37650213671875,13.085679090625,11.15145393671875,12.860630990625C10.92641833671875,12.635595290625,10.79998683671875,12.330363290625,10.79998683671875,12.012111690625C10.79998683671875,12.012111690625,10.79998683671875,12.000111090625001,10.79998683671875,12.000111090625001C10.79998683671875,11.681847090625,10.92641833671875,11.376626990624999,11.15145393671875,11.151578890625C11.37650213671875,10.926530790625,11.68172313671875,10.800110790625,11.99998713671875,10.800110790625C11.99998713671875,10.800110790625,11.99998713671875,10.800110790625,11.99998713671875,10.800110790625C11.99998713671875,10.800110790625,11.99998713671875,10.800110790625,11.99998713671875,10.800110790625Z" fill-rule="evenodd" fill="#0A0A28" fill-opacity="1"/></g></svg>