<svg xmlns="http://www.w3.org/2000/svg" xmlns:xlink="http://www.w3.org/1999/xlink" fill="none" version="1.1" width="24" height="24" viewBox="0 0 24 24"><defs><clipPath id="master_svg0_3_1800"><rect x="0" y="0" width="24" height="24" rx="0"/></clipPath></defs><g clip-path="url(#master_svg0_3_1800)"><path d="M4.928902037124634,19.071100156402586C5.3194220371246335,19.46160015640259,5.952592137124634,19.46160015640259,6.343112037124634,19.071100156402586C6.7336321371246335,18.68060015640259,6.7336321371246335,18.04740015640259,6.343101937124634,17.656900156402585C6.343101937124634,17.656900156402585,4.928902037124634,19.071100156402586,4.928902037124634,19.071100156402586C4.928902037124634,19.071100156402586,4.928902037124634,19.071100156402586,4.928902037124634,19.071100156402586ZM6.343101937124634,6.343111156402588C6.7336321371246335,5.952589156402588,6.7336321371246335,5.3194241564025875,6.343112037124634,4.928898156402588C5.952592137124634,4.538370156402587,5.3194220371246335,4.538370156402587,4.928902037124634,4.928889156402588C4.928902037124634,4.928889156402588,6.343101937124634,6.343111156402588,6.343101937124634,6.343111156402588C6.343101937124634,6.343111156402588,6.343101937124634,6.343111156402588,6.343101937124634,6.343111156402588ZM19.071121037124634,4.928889156402588C18.680622037124635,4.538370156402587,18.047422037124633,4.538370156402587,17.656922037124634,4.928898156402588C17.266322037124635,5.3194241564025875,17.266322037124635,5.952589156402588,17.656922037124634,6.343111156402588C17.656922037124634,6.343111156402588,19.071121037124634,4.928889156402588,19.071121037124634,4.928889156402588C19.071121037124634,4.928889156402588,19.071121037124634,4.928889156402588,19.071121037124634,4.928889156402588ZM21.000122037124633,11.999999956402588C21.000122037124633,11.999999956402588,20.000122037124633,11.999999956402588,20.000122037124633,11.999999956402588C20.000122037124633,11.999999956402588,21.000122037124633,11.999999956402588,21.000122037124633,11.999999956402588C21.000122037124633,11.999999956402588,21.000122037124633,11.999999956402588,21.000122037124633,11.999999956402588ZM17.656922037124634,17.656900156402585C17.266322037124635,18.04740015640259,17.266322037124635,18.68060015640259,17.656922037124634,19.071100156402586C18.047422037124633,19.46160015640259,18.680622037124635,19.46160015640259,19.071121037124634,19.071100156402586C19.071121037124634,19.071100156402586,17.656922037124634,17.656900156402585,17.656922037124634,17.656900156402585C17.656922037124634,17.656900156402585,17.656922037124634,17.656900156402585,17.656922037124634,17.656900156402585ZM7.756781837124634,16.24200015640259C8.147251837124633,16.63260015640259,8.780411937124633,16.63270015640259,9.171002137124635,16.24220015640259C9.561581837124635,15.851700156402588,9.561681937124634,15.218579756402589,9.171211937124633,14.828000556402587C9.171211937124633,14.828000556402587,7.756781837124634,16.24200015640259,7.756781837124634,16.24200015640259C7.756781837124634,16.24200015640259,7.756781837124634,16.24200015640259,7.756781837124634,16.24200015640259ZM9.171211937124633,9.172000156402587C9.561681937124634,8.781420256402587,9.561581837124635,8.148250056402588,9.171002137124635,7.7577900564025875C8.780411937124633,7.367320156402588,8.147251837124633,7.367420156402588,7.756781837124634,7.758000156402588C7.756781837124634,7.758000156402588,9.171211937124633,9.172000156402587,9.171211937124633,9.172000156402587C9.171211937124633,9.172000156402587,9.171211937124633,9.172000156402587,9.171211937124633,9.172000156402587ZM16.24322203712463,7.758000156402588C15.852722037124634,7.367420156402588,15.219622037124633,7.367320156402588,14.829022037124634,7.7577900564025875C14.438422037124633,8.148250056402588,14.438322037124633,8.781420256402587,14.828822037124635,9.172000156402587C14.828822037124635,9.172000156402587,16.24322203712463,7.758000156402588,16.24322203712463,7.758000156402588C16.24322203712463,7.758000156402588,16.24322203712463,7.758000156402588,16.24322203712463,7.758000156402588ZM14.828822037124635,14.828000556402587C14.438322037124633,15.218579756402589,14.438422037124633,15.851700156402588,14.829022037124634,16.24220015640259C15.219622037124633,16.63270015640259,15.852722037124634,16.63260015640259,16.24322203712463,16.24200015640259C16.24322203712463,16.24200015640259,14.828822037124635,14.828000556402587,14.828822037124635,14.828000556402587C14.828822037124635,14.828000556402587,14.828822037124635,14.828000556402587,14.828822037124635,14.828000556402587ZM6.343101937124634,17.656900156402585C5.600222137124634,16.914000156402587,5.010941937124634,16.03210015640259,4.608892037124634,15.061490556402587C4.608892037124634,15.061490556402587,2.761138037124634,15.826900156402587,2.761138037124634,15.826900156402587C3.263693037124634,17.040100156402588,4.000302037124634,18.14250015640259,4.928902037124634,19.071100156402586C4.928902037124634,19.071100156402586,6.343101937124634,17.656900156402585,6.343101937124634,17.656900156402585C6.343101937124634,17.656900156402585,6.343101937124634,17.656900156402585,6.343101937124634,17.656900156402585ZM4.608892037124634,15.061490556402587C4.206852037124634,14.090879956402588,3.999922037124634,13.050580056402588,3.999922037124634,11.999999956402588C3.999922037124634,11.999999956402588,1.9999220371246338,11.999999956402588,1.9999220371246338,11.999999956402588C1.9999220371246338,13.313230056402588,2.258584027124634,14.613600256402588,2.761138037124634,15.826900156402587C2.761138037124634,15.826900156402587,4.608892037124634,15.061490556402587,4.608892037124634,15.061490556402587C4.608892037124634,15.061490556402587,4.608892037124634,15.061490556402587,4.608892037124634,15.061490556402587ZM3.999922037124634,11.999999956402588C3.999922037124634,10.949419956402588,4.206852037124634,9.909120056402589,4.608892037124634,8.938510156402588C4.608892037124634,8.938510156402588,2.761138037124634,8.173140056402588,2.761138037124634,8.173140056402588C2.258584027124634,9.386400256402588,1.9999220371246338,10.686769956402589,1.9999220371246338,11.999999956402588C1.9999220371246338,11.999999956402588,3.999922037124634,11.999999956402588,3.999922037124634,11.999999956402588C3.999922037124634,11.999999956402588,3.999922037124634,11.999999956402588,3.999922037124634,11.999999956402588ZM4.608892037124634,8.938510156402588C5.010941937124634,7.967900056402588,5.600222137124634,7.085980156402588,6.343101937124634,6.343111156402588C6.343101937124634,6.343111156402588,4.928902037124634,4.928889156402588,4.928902037124634,4.928889156402588C4.000302037124634,5.857476156402588,3.263693037124634,6.959870056402588,2.761138037124634,8.173140056402588C2.761138037124634,8.173140056402588,4.608892037124634,8.938510156402588,4.608892037124634,8.938510156402588C4.608892037124634,8.938510156402588,4.608892037124634,8.938510156402588,4.608892037124634,8.938510156402588ZM17.656922037124634,6.343111156402588C18.399822037124636,7.085980156402588,18.989022037124634,7.967900056402588,19.391121037124634,8.938510156402588C19.391121037124634,8.938510156402588,21.238821037124634,8.173140056402588,21.238821037124634,8.173140056402588C20.736323037124635,6.959870056402588,19.999722037124634,5.857476156402588,19.071121037124634,4.928889156402588C19.071121037124634,4.928889156402588,17.656922037124634,6.343111156402588,17.656922037124634,6.343111156402588C17.656922037124634,6.343111156402588,17.656922037124634,6.343111156402588,17.656922037124634,6.343111156402588ZM19.391121037124634,8.938510156402588C19.793122037124633,9.909120056402589,20.000122037124633,10.949419956402588,20.000122037124633,11.999999956402588C20.000122037124633,11.999999956402588,22.000122037124633,11.999999956402588,22.000122037124633,11.999999956402588C22.000122037124633,10.686769956402589,21.741423037124633,9.386400256402588,21.238821037124634,8.173140056402588C21.238821037124634,8.173140056402588,19.391121037124634,8.938510156402588,19.391121037124634,8.938510156402588C19.391121037124634,8.938510156402588,19.391121037124634,8.938510156402588,19.391121037124634,8.938510156402588ZM20.000122037124633,11.999999956402588C20.000122037124633,13.050580056402588,19.793122037124633,14.090879956402588,19.391121037124634,15.061490556402587C19.391121037124634,15.061490556402587,21.238821037124634,15.826900156402587,21.238821037124634,15.826900156402587C21.741423037124633,14.613600256402588,22.000122037124633,13.313230056402588,22.000122037124633,11.999999956402588C22.000122037124633,11.999999956402588,20.000122037124633,11.999999956402588,20.000122037124633,11.999999956402588C20.000122037124633,11.999999956402588,20.000122037124633,11.999999956402588,20.000122037124633,11.999999956402588ZM19.391121037124634,15.061490556402587C18.989022037124634,16.03210015640259,18.399822037124636,16.914000156402587,17.656922037124634,17.656900156402585C17.656922037124634,17.656900156402585,19.071121037124634,19.071100156402586,19.071121037124634,19.071100156402586C19.999722037124634,18.14250015640259,20.736323037124635,17.040100156402588,21.238821037124634,15.826900156402587C21.238821037124634,15.826900156402587,19.391121037124634,15.061490556402587,19.391121037124634,15.061490556402587C19.391121037124634,15.061490556402587,19.391121037124634,15.061490556402587,19.391121037124634,15.061490556402587ZM9.171211937124633,14.828000556402587C8.421332137124633,14.077889956402588,8.000072237124634,13.060660356402588,8.000072237124634,11.999999956402588C8.000072237124634,11.999999956402588,6.000072037124633,11.999999956402588,6.000072037124633,11.999999956402588C6.000072037124633,13.590980056402588,6.631962037124634,15.116830356402588,7.756781837124634,16.24200015640259C7.756781837124634,16.24200015640259,9.171211937124633,14.828000556402587,9.171211937124633,14.828000556402587C9.171211937124633,14.828000556402587,9.171211937124633,14.828000556402587,9.171211937124633,14.828000556402587ZM8.000072237124634,11.999999956402588C8.000072237124634,10.939340156402588,8.421332137124633,9.922110056402587,9.171211937124633,9.172000156402587C9.171211937124633,9.172000156402587,7.756781837124634,7.758000156402588,7.756781837124634,7.758000156402588C6.631962037124634,8.883170156402588,6.000072037124633,10.409019956402588,6.000072037124633,11.999999956402588C6.000072037124633,11.999999956402588,8.000072237124634,11.999999956402588,8.000072237124634,11.999999956402588C8.000072237124634,11.999999956402588,8.000072237124634,11.999999956402588,8.000072237124634,11.999999956402588ZM14.828822037124635,9.172000156402587C15.578622037124633,9.922110056402587,15.999922037124634,10.939340156402588,15.999922037124634,11.999999956402588C15.999922037124634,11.999999956402588,17.999922037124634,11.999999956402588,17.999922037124634,11.999999956402588C17.999922037124634,10.409019956402588,17.368022037124632,8.883170156402588,16.24322203712463,7.758000156402588C16.24322203712463,7.758000156402588,14.828822037124635,9.172000156402587,14.828822037124635,9.172000156402587C14.828822037124635,9.172000156402587,14.828822037124635,9.172000156402587,14.828822037124635,9.172000156402587ZM15.999922037124634,11.999999956402588C15.999922037124634,13.060660356402588,15.578622037124633,14.077889956402588,14.828822037124635,14.828000556402587C14.828822037124635,14.828000556402587,16.24322203712463,16.24200015640259,16.24322203712463,16.24200015640259C17.368022037124632,15.116830356402588,17.999922037124634,13.590980056402588,17.999922037124634,11.999999956402588C17.999922037124634,11.999999956402588,15.999922037124634,11.999999956402588,15.999922037124634,11.999999956402588C15.999922037124634,11.999999956402588,15.999922037124634,11.999999956402588,15.999922037124634,11.999999956402588ZM12.000002137124634,11.999999956402588C12.000002137124634,11.999999956402588,12.000002137124634,11.999999956402588,12.000002137124634,11.999999956402588C12.000002137124634,11.999999956402588,13.414222037124635,13.414210356402588,13.414222037124635,13.414210356402588C13.789322037124634,13.039140256402588,14.000022037124634,12.530430356402588,14.000022037124634,11.999999956402588C14.000022037124634,11.999999956402588,12.000002137124634,11.999999956402588,12.000002137124634,11.999999956402588C12.000002137124634,11.999999956402588,12.000002137124634,11.999999956402588,12.000002137124634,11.999999956402588ZM12.000002137124634,11.999999956402588C12.000002137124634,11.999999956402588,12.000002137124634,11.999999956402588,12.000002137124634,11.999999956402588C12.000002137124634,11.999999956402588,12.000002137124634,14.000000456402589,12.000002137124634,14.000000456402589C12.530431937124634,14.000000456402589,13.039122037124633,13.789289956402587,13.414222037124635,13.414210356402588C13.414222037124635,13.414210356402588,12.000002137124634,11.999999956402588,12.000002137124634,11.999999956402588C12.000002137124634,11.999999956402588,12.000002137124634,11.999999956402588,12.000002137124634,11.999999956402588ZM12.000002137124634,11.999999956402588C12.000002137124634,11.999999956402588,12.000002137124634,11.999999956402588,12.000002137124634,11.999999956402588C12.000002137124634,11.999999956402588,10.585791837124635,13.414210356402588,10.585791837124635,13.414210356402588C10.960861937124633,13.789289956402587,11.469561837124633,14.000000456402589,12.000002137124634,14.000000456402589C12.000002137124634,14.000000456402589,12.000002137124634,11.999999956402588,12.000002137124634,11.999999956402588C12.000002137124634,11.999999956402588,12.000002137124634,11.999999956402588,12.000002137124634,11.999999956402588ZM12.000002137124634,11.999999956402588C12.000002137124634,11.999999956402588,12.000002137124634,11.999999956402588,12.000002137124634,11.999999956402588C12.000002137124634,11.999999956402588,10.000002137124634,11.999999956402588,10.000002137124634,11.999999956402588C10.000002137124634,12.530430356402588,10.210712237124634,13.039140256402588,10.585791837124635,13.414210356402588C10.585791837124635,13.414210356402588,12.000002137124634,11.999999956402588,12.000002137124634,11.999999956402588C12.000002137124634,11.999999956402588,12.000002137124634,11.999999956402588,12.000002137124634,11.999999956402588ZM12.000002137124634,11.999999956402588C12.000002137124634,11.999999956402588,12.000002137124634,11.999999956402588,12.000002137124634,11.999999956402588C12.000002137124634,11.999999956402588,10.585791837124635,10.585790156402588,10.585791837124635,10.585790156402588C10.210712237124634,10.960860256402588,10.000002137124634,11.469570156402588,10.000002137124634,11.999999956402588C10.000002137124634,11.999999956402588,12.000002137124634,11.999999956402588,12.000002137124634,11.999999956402588C12.000002137124634,11.999999956402588,12.000002137124634,11.999999956402588,12.000002137124634,11.999999956402588ZM12.000002137124634,11.999999956402588C12.000002137124634,11.999999956402588,12.000002137124634,11.999999956402588,12.000002137124634,11.999999956402588C12.000002137124634,11.999999956402588,12.000002137124634,9.999999956402588,12.000002137124634,9.999999956402588C11.469561837124633,9.999999956402588,10.960861937124633,10.210710056402588,10.585791837124635,10.585790156402588C10.585791837124635,10.585790156402588,12.000002137124634,11.999999956402588,12.000002137124634,11.999999956402588C12.000002137124634,11.999999956402588,12.000002137124634,11.999999956402588,12.000002137124634,11.999999956402588ZM12.000002137124634,11.999999956402588C12.000002137124634,11.999999956402588,12.000002137124634,11.999999956402588,12.000002137124634,11.999999956402588C12.000002137124634,11.999999956402588,13.414222037124635,10.585790156402588,13.414222037124635,10.585790156402588C13.039122037124633,10.210710056402588,12.530431937124634,9.999999956402588,12.000002137124634,9.999999956402588C12.000002137124634,9.999999956402588,12.000002137124634,11.999999956402588,12.000002137124634,11.999999956402588C12.000002137124634,11.999999956402588,12.000002137124634,11.999999956402588,12.000002137124634,11.999999956402588ZM12.000002137124634,11.999999956402588C12.000002137124634,11.999999956402588,12.000002137124634,11.999999956402588,12.000002137124634,11.999999956402588C12.000002137124634,11.999999956402588,14.000022037124634,11.999999956402588,14.000022037124634,11.999999956402588C14.000022037124634,11.469570156402588,13.789322037124634,10.960860256402588,13.414222037124635,10.585790156402588C13.414222037124635,10.585790156402588,12.000002137124634,11.999999956402588,12.000002137124634,11.999999956402588C12.000002137124634,11.999999956402588,12.000002137124634,11.999999956402588,12.000002137124634,11.999999956402588Z" fill="#0A0A28" fill-opacity="1"/></g></svg>