<svg xmlns="http://www.w3.org/2000/svg" xmlns:xlink="http://www.w3.org/1999/xlink" fill="none" version="1.1" width="24" height="24" viewBox="0 0 24 24"><defs><clipPath id="master_svg0_3_1709"><rect x="0" y="0" width="24" height="24" rx="0"/></clipPath></defs><g clip-path="url(#master_svg0_3_1709)"><path d="M4.448431753125,2.751649351875C4.222111453125001,2.533059361875,3.918991553125,2.412106177775,3.604351553125,2.414840284997C3.289723653125,2.417574385875,2.988739453125,2.543776931875,2.766259553125,2.766266521875C2.543767453125,2.988756121875,2.417563453125,3.289731741875,2.414827453125,3.604367021875C2.412091453125,3.919006921875,2.533051453125,4.222126921875,2.751631453125,4.448447021874999C2.751631453125,4.448447021874999,11.056832353125,12.754846921875,11.056832353125,12.754846921875C11.116832753125,12.829247921875,11.182831753125,12.896446921875,11.258432453125,12.955246921875C11.258432453125,12.955246921875,19.550479453125,21.248435921875,19.550479453125,21.248435921875C19.661840453125,21.359914921875,19.794080453125,21.448356921875,19.939760453125,21.508716921875C20.085319453125,21.569194921875,20.241439453125,21.600274921875,20.399000453125,21.600274921875C20.556678453125,21.600394921875,20.712680453125,21.569314921875,20.858360453125,21.509074921875C21.004039453125,21.448834921875,21.136400453125,21.360515921875,21.247879453125,21.249034921875C21.359361453125,21.137675921875,21.447801453125,21.005315921875,21.508159453125,20.859756921875C21.568519453125,20.714194921875,21.599599453125,20.558074921875,21.599720453125,20.400516921875C21.599720453125,20.242835921875,21.568759453125,20.086715921875,21.508522453125,19.941155921875C21.448160453125,19.795474921875,21.359840453125,19.663116921875,21.248479453125,19.551635921875C21.248479453125,19.551635921875,20.438480453125,18.741633921875,20.438480453125,18.741633921875C22.096399453125,16.665875921875,22.931360453125,14.051902921875,22.783399453125,11.399375921875C22.635561453125,8.746835221875,21.515359453125,6.2418470218749995,19.636880453125,4.363247021875C19.526121453125,4.248635021875,19.393760453125,4.157219021875,19.247360453125,4.094327121875C19.100959453125,4.031435021875,18.943399453125,3.998339021875,18.784160453125,3.996946921875C18.624799453125,3.995566921875,18.466760453125,4.025926921875,18.319280453125,4.086262921875C18.171800453125,4.146598921875,18.037879453125,4.235699021875,17.925199453125,4.348379021875C17.812521453125,4.461046921875,17.723360453125,4.595026921875,17.663000453125,4.742507021874999C17.602760453125,4.889975021875,17.572401453125,5.047991021875,17.573719453125,5.207327121875C17.575161453125,5.366663021875,17.608280453125,5.524127021875,17.671159453125,5.6705391218750005C17.734039453125,5.816939121875,17.825481453125,5.9493592218749995,17.940080453125,6.060046921875C19.368440453125,7.488586921875,20.234359453125,9.383939221875,20.379079453125,11.398907621875C20.523920453125,13.413875921875,19.937959453125,15.413555921875,18.728479453125,17.031635921875C18.728479453125,17.031635921875,17.006479453125,15.309634921875,17.006479453125,15.309634921875C17.768960453125,14.155559921875,18.109520453125,12.773519921875,17.970439453125,11.397275921875C17.831359453125,10.021031421875,17.221281453125,8.735063121875001,16.243279453124998,7.756847421875C16.017920453125,7.531522721875,15.712279453125,7.404935321875,15.393679453125,7.404935321875C15.074960453125,7.404935321875,14.769319453125,7.531522721875,14.544080453125,7.756847421875C14.318719453125,7.982183421875,14.192119453125,8.287786921875,14.192119453125,8.606447221875001C14.192119453125,8.925107521874999,14.318719453125,9.230723421875,14.544080453125,9.456047521875C15.652880453125,10.563647221875,15.888080453125,12.216047321875,15.248480453125,13.554047921875C15.248480453125,13.554047921875,12.858031453125,11.163647621875,12.858031453125,11.163647621875C12.850939453125,11.156351121875,12.843740453125,11.149150821875,12.836431453125,11.142046921875C12.836431453125,11.142046921875,4.448431753125,2.752849341875,4.448431753125,2.752849341875C4.448431753125,2.752849341875,4.448431753125,2.751649351875,4.448431753125,2.751649351875C4.448431753125,2.751649351875,4.448431753125,2.751649351875,4.448431753125,2.751649351875ZM3.885631553125,9.824447121875C3.967747653125,9.516850921875001,3.924307553125,9.189227121875,3.764863753125,8.913671021875C3.605419353125,8.638103021875,3.343039553125,8.437163321875001,3.035431553125,8.355047221875001C2.727835553125,8.272943521875,2.400219953125,8.316383321875,2.124654233125,8.475827221875C1.849087473125,8.635271521875,1.648147463125,8.897651221875,1.566036253125,9.205247421875C0.606036243125,12.805245921875,1.536036283125,16.808435921875002,4.363231453125,19.636834921875C4.474723553125,19.748315921875,4.607071653125001,19.836635921875,4.752715853125,19.896874921875C4.898359553125,19.957114921875,5.054443553125,19.988194921875,5.212063753125,19.988074921875C5.369683753125,19.988074921875,5.525743453125,19.956994921875,5.671339553125,19.896514921875C5.816935553125,19.836156921875,5.949223553125,19.747716921875,6.060631753125,19.636235921875C6.172051953125,19.524755921875,6.260407453125,19.392394921875,6.320683453125,19.246715921875C6.380947553125,19.101155921875,6.411931553125,18.945035921875,6.411883853125,18.787475921875C6.411823753125,18.629794921875,6.380719153125,18.473794921875,6.320359753125,18.328115921875C6.259987853125,18.182554921875003,6.171523553125,18.050315921875,6.060031853125,17.938834921875C5.016931553125,16.896395921874998,4.266775653125,15.597634921875,3.885067453125,14.173139921875C3.503359553125,12.748679921875,3.503551453125,11.248811721875,3.885631553125,9.824447121875C3.885631553125,9.824447121875,3.885631553125,9.824447121875,3.885631553125,9.824447121875C3.885631553125,9.824447121875,3.885631553125,9.824447121875,3.885631553125,9.824447121875ZM8.880032053125,13.800046921875C8.805019853125,13.656646921875,8.701771753125,13.529890921875,8.576491853124999,13.427423921875C8.451223353125,13.324954921875,8.306515653125,13.248886921875,8.151079653124999,13.203802921875C7.995644053125,13.158707921875,7.832695453125,13.145518921875,7.672039953125,13.165031921875C7.511371653125,13.184554921875,7.356319953125,13.236359921875,7.216207953125,13.317359921875C7.076083653125,13.398346921875,6.953791653125,13.506850921875,6.856699953125,13.636331921875C6.759595353125,13.765810921875,6.689695353125,13.913590921875,6.651187853125,14.070790921875C6.612691853125,14.227979921875,6.606379553125,14.391347921875,6.632647953125,14.550994921875C6.658915553125,14.710714921875,6.717211753125,14.863475921875,6.804031853125,15.000035921875C7.060831553125,15.445234921875,7.380032053125,15.864035921875,7.758031853125,16.242035921875C7.984363553125,16.460674921875,8.287483653125001,16.581635921874998,8.602123753125,16.578875921875C8.916751853125,16.576115921875,9.217723853125,16.449875921874998,9.440216053125,16.227394921875C9.662707353125,16.004914921875,9.788911853125,15.703955921875,9.791647953125,15.389315921875C9.794383953125,15.074675921875,9.673423753125,14.771555921875,9.454832053125,14.545235921875C9.225631753125,14.316047921875,9.034831553124999,14.065246921875,8.881231753125,13.798846921875C8.881231753125,13.798846921875,8.880032053125,13.800046921875,8.880032053125,13.800046921875C8.880032053125,13.800046921875,8.880032053125,13.800046921875,8.880032053125,13.800046921875Z" fill="#0A0A28" fill-opacity="1"/></g></svg>