<svg xmlns="http://www.w3.org/2000/svg" xmlns:xlink="http://www.w3.org/1999/xlink" fill="none" version="1.1" width="24" height="24" viewBox="0 0 24 24"><defs><clipPath id="master_svg0_3_2380"><rect x="0" y="0" width="24" height="24" rx="0"/></clipPath></defs><g clip-path="url(#master_svg0_3_2380)"><path d="M11.999994296484376,21.6000254140625C14.546034896484375,21.6000254140625,16.987913896484375,20.5885444140625,18.788274896484374,18.7883054140625C20.588513896484375,16.9879444140625,21.599994896484375,14.5460654140625,21.599994896484375,12.0000248140625C21.599994896484375,9.4539490140625,20.588513896484375,7.0121527140625,18.788274896484374,5.211804414062501C16.987913896484375,3.4114504140625,14.546034896484375,2.4000244140625013,11.999994296484376,2.4000244140625C9.453918496484375,2.4000244140625018,7.012122196484375,3.4114504140625,5.211773896484376,5.211804414062501C3.411419896484375,7.0121527140625,2.399993896484377,9.4539490140625,2.399993896484375,12.0000248140625C2.3999938964843768,14.5460654140625,3.411419896484375,16.9879444140625,5.211773896484376,18.7883054140625C7.012122196484375,20.5885444140625,9.453918496484375,21.6000254140625,11.999994296484376,21.6000254140625C11.999994296484376,21.6000254140625,11.999994296484376,21.6000254140625,11.999994296484376,21.6000254140625C11.999994296484376,21.6000254140625,11.999994296484376,21.6000254140625,11.999994296484376,21.6000254140625ZM9.599994196484374,8.4000244140625C9.281730196484375,8.4000244140625,8.976510496484375,8.526456814062499,8.751462496484375,8.7514930140625C8.526426296484374,8.9765410140625,8.399993896484375,9.2817607140625,8.399993896484375,9.6000247140625C8.399993896484375,9.6000247140625,8.399993896484375,14.4000244140625,8.399993896484375,14.4000244140625C8.399993896484375,14.7182644140625,8.526426296484374,15.0235454140625,8.751462496484375,15.2485444140625C8.976510496484375,15.4735454140625,9.281730196484375,15.6000254140625,9.599994196484374,15.6000254140625C9.599994196484374,15.6000254140625,14.399993896484375,15.6000254140625,14.399993896484375,15.6000254140625C14.718233896484374,15.6000254140625,15.023514896484375,15.4735454140625,15.248513896484376,15.2485444140625C15.473514896484375,15.0235454140625,15.599994896484375,14.7182644140625,15.599994896484375,14.4000244140625C15.599994896484375,14.4000244140625,15.599994896484375,9.6000247140625,15.599994896484375,9.6000247140625C15.599994896484375,9.2817607140625,15.473514896484375,8.9765410140625,15.248513896484376,8.7514930140625C15.023514896484375,8.526456814062499,14.718233896484374,8.4000244140625,14.399993896484375,8.4000244140625C14.399993896484375,8.4000244140625,9.599994196484374,8.4000244140625,9.599994196484374,8.4000244140625C9.599994196484374,8.4000244140625,9.599994196484374,8.4000244140625,9.599994196484374,8.4000244140625Z" fill-rule="evenodd" fill="#0A0A28" fill-opacity="1"/></g></svg>