<svg xmlns="http://www.w3.org/2000/svg" xmlns:xlink="http://www.w3.org/1999/xlink" fill="none" version="1.1" width="24" height="24" viewBox="0 0 24 24"><defs><clipPath id="master_svg0_3_1657"><rect x="0" y="0" width="24" height="24" rx="0"/></clipPath></defs><g clip-path="url(#master_svg0_3_1657)"><path d="M13,3C13,2.4477149799999998,12.55229,2,12,2C11.44771,2,11,2.4477149799999998,11,3C11,3,13,3,13,3C13,3,13,3,13,3ZM11,4C11,4.5522799,11.44771,5,12,5C12.55229,5,13,4.5522799,13,4C13,4,11,4,11,4C11,4,11,4,11,4ZM13,20C13,19.447701,12.55229,19,12,19C11.44771,19,11,19.447701,11,20C11,20,13,20,13,20C13,20,13,20,13,20ZM11,21C11,21.552299,11.44771,22,12,22C12.55229,22,13,21.552299,13,21C13,21,11,21,11,21C11,21,11,21,11,21ZM21,13C21.552299,13,22,12.55229,22,12C22,11.44771,21.552299,11,21,11C21,11,21,13,21,13C21,13,21,13,21,13ZM20,11C19.447701,11,19,11.44771,19,12C19,12.55229,19.447701,13,20,13C20,13,20,11,20,11C20,11,20,11,20,11ZM4,13C4.5522799,13,5,12.55229,5,12C5,11.44771,4.5522799,11,4,11C4,11,4,13,4,13C4,13,4,13,4,13ZM3,11C2.4477149799999998,11,2,11.44771,2,12C2,12.55229,2.4477149799999998,13,3,13C3,13,3,11,3,11C3,11,3,11,3,11ZM17.6569,19.0711C18.0474,19.461599,18.6806,19.461599,19.0711,19.0711C19.461599,18.6806,19.461599,18.0474,19.0711,17.6569C19.0711,17.6569,17.6569,19.0711,17.6569,19.0711C17.6569,19.0711,17.6569,19.0711,17.6569,19.0711ZM18.3641,16.9499C17.973599999999998,16.5594,17.340400000000002,16.5594,16.9499,16.9499C16.5594,17.340400000000002,16.5594,17.973599999999998,16.9499,18.3641C16.9499,18.3641,18.3641,16.9499,18.3641,16.9499C18.3641,16.9499,18.3641,16.9499,18.3641,16.9499ZM5.63589,7.0501099C6.0264201,7.44063,6.65958,7.44063,7.0501099,7.0501099C7.44063,6.65958,7.44063,6.0264201,7.0501099,5.63589C7.0501099,5.63589,5.63589,7.0501099,5.63589,7.0501099C5.63589,7.0501099,5.63589,7.0501099,5.63589,7.0501099ZM6.3431101000000005,4.92889C5.95258,4.5383700000000005,5.3194201,4.5383700000000005,4.92889,4.92889C4.5383700000000005,5.3194201,4.5383700000000005,5.95258,4.92889,6.3431101000000005C4.92889,6.3431101000000005,6.3431101000000005,4.92889,6.3431101000000005,4.92889C6.3431101000000005,4.92889,6.3431101000000005,4.92889,6.3431101000000005,4.92889ZM19.0711,6.3431101000000005C19.461599,5.95258,19.461599,5.3194201,19.0711,4.92889C18.6806,4.5383700000000005,18.0474,4.5383700000000005,17.6569,4.92889C17.6569,4.92889,19.0711,6.3431101000000005,19.0711,6.3431101000000005C19.0711,6.3431101000000005,19.0711,6.3431101000000005,19.0711,6.3431101000000005ZM16.9499,5.63589C16.5594,6.0264201,16.5594,6.65958,16.9499,7.0501099C17.340400000000002,7.44063,17.973599999999998,7.44063,18.3641,7.0501099C18.3641,7.0501099,16.9499,5.63589,16.9499,5.63589C16.9499,5.63589,16.9499,5.63589,16.9499,5.63589ZM7.0501099,18.3641C7.44063,17.973599999999998,7.44063,17.340400000000002,7.0501099,16.9499C6.65958,16.5594,6.0264201,16.5594,5.63589,16.9499C5.63589,16.9499,7.0501099,18.3641,7.0501099,18.3641C7.0501099,18.3641,7.0501099,18.3641,7.0501099,18.3641ZM4.92889,17.6569C4.5383700000000005,18.0474,4.5383700000000005,18.6806,4.92889,19.0711C5.3194201,19.461599,5.95258,19.461599,6.3431101000000005,19.0711C6.3431101000000005,19.0711,4.92889,17.6569,4.92889,17.6569C4.92889,17.6569,4.92889,17.6569,4.92889,17.6569ZM16,12C16,12,17,12,17,12C17,12,16,12,16,12C16,12,16,12,16,12ZM12,16C12,16,12,17,12,17C12,17,12,16,12,16C12,16,12,16,12,16ZM8,12C8,12,7,12,7,12C7,12,8,12,8,12C8,12,8,12,8,12ZM12,8C12,8,12,7,12,7C12,7,12,8,12,8C12,8,12,8,12,8ZM11,3C11,3,11,4,11,4C11,4,13,4,13,4C13,4,13,3,13,3C13,3,11,3,11,3C11,3,11,3,11,3ZM11,20C11,20,11,21,11,21C11,21,13,21,13,21C13,21,13,20,13,20C13,20,11,20,11,20C11,20,11,20,11,20ZM21,11C21,11,20,11,20,11C20,11,20,13,20,13C20,13,21,13,21,13C21,13,21,11,21,11C21,11,21,11,21,11ZM4,11C4,11,3,11,3,11C3,11,3,13,3,13C3,13,4,13,4,13C4,13,4,11,4,11C4,11,4,11,4,11ZM19.0711,17.6569C19.0711,17.6569,18.3641,16.9499,18.3641,16.9499C18.3641,16.9499,16.9499,18.3641,16.9499,18.3641C16.9499,18.3641,17.6569,19.0711,17.6569,19.0711C17.6569,19.0711,19.0711,17.6569,19.0711,17.6569C19.0711,17.6569,19.0711,17.6569,19.0711,17.6569ZM7.0501099,5.63589C7.0501099,5.63589,6.3431101000000005,4.92889,6.3431101000000005,4.92889C6.3431101000000005,4.92889,4.92889,6.3431101000000005,4.92889,6.3431101000000005C4.92889,6.3431101000000005,5.63589,7.0501099,5.63589,7.0501099C5.63589,7.0501099,7.0501099,5.63589,7.0501099,5.63589C7.0501099,5.63589,7.0501099,5.63589,7.0501099,5.63589ZM17.6569,4.92889C17.6569,4.92889,16.9499,5.63589,16.9499,5.63589C16.9499,5.63589,18.3641,7.0501099,18.3641,7.0501099C18.3641,7.0501099,19.0711,6.3431101000000005,19.0711,6.3431101000000005C19.0711,6.3431101000000005,17.6569,4.92889,17.6569,4.92889C17.6569,4.92889,17.6569,4.92889,17.6569,4.92889ZM5.63589,16.9499C5.63589,16.9499,4.92889,17.6569,4.92889,17.6569C4.92889,17.6569,6.3431101000000005,19.0711,6.3431101000000005,19.0711C6.3431101000000005,19.0711,7.0501099,18.3641,7.0501099,18.3641C7.0501099,18.3641,5.63589,16.9499,5.63589,16.9499C5.63589,16.9499,5.63589,16.9499,5.63589,16.9499ZM15,12C15,12.7956495,14.6839,13.5587,14.1213,14.1213C14.1213,14.1213,15.5355,15.5355,15.5355,15.5355C16.4732,14.5979,17,13.3261,17,12C17,12,15,12,15,12C15,12,15,12,15,12ZM14.1213,14.1213C13.5587,14.6839,12.7956495,15,12,15C12,15,12,17,12,17C13.3261,17,14.5979,16.4732,15.5355,15.5355C15.5355,15.5355,14.1213,14.1213,14.1213,14.1213C14.1213,14.1213,14.1213,14.1213,14.1213,14.1213ZM12,15C11.2043505,15,10.441289900000001,14.6839,9.8786802,14.1213C9.8786802,14.1213,8.464469900000001,15.5355,8.464469900000001,15.5355C9.402150200000001,16.4732,10.673920200000001,17,12,17C12,17,12,15,12,15C12,15,12,15,12,15ZM9.8786802,14.1213C9.316070100000001,13.5587,9,12.7956495,9,12C9,12,7,12,7,12C7,13.3261,7.5267801,14.5979,8.464469900000001,15.5355C8.464469900000001,15.5355,9.8786802,14.1213,9.8786802,14.1213C9.8786802,14.1213,9.8786802,14.1213,9.8786802,14.1213ZM9,12C9,11.2043505,9.316070100000001,10.441289900000001,9.8786802,9.8786802C9.8786802,9.8786802,8.464469900000001,8.464469900000001,8.464469900000001,8.464469900000001C7.5267801,9.402150200000001,7,10.673920200000001,7,12C7,12,9,12,9,12C9,12,9,12,9,12ZM9.8786802,9.8786802C10.441289900000001,9.316070100000001,11.2043505,9,12,9C12,9,12,7,12,7C10.673920200000001,7,9.402150200000001,7.5267801,8.464469900000001,8.464469900000001C8.464469900000001,8.464469900000001,9.8786802,9.8786802,9.8786802,9.8786802C9.8786802,9.8786802,9.8786802,9.8786802,9.8786802,9.8786802ZM12,9C12.7956495,9,13.5587,9.316070100000001,14.1213,9.8786802C14.1213,9.8786802,15.5355,8.464469900000001,15.5355,8.464469900000001C14.5979,7.5267801,13.3261,7,12,7C12,7,12,9,12,9C12,9,12,9,12,9ZM14.1213,9.8786802C14.6839,10.441289900000001,15,11.2043505,15,12C15,12,17,12,17,12C17,10.673920200000001,16.4732,9.402150200000001,15.5355,8.464469900000001C15.5355,8.464469900000001,14.1213,9.8786802,14.1213,9.8786802C14.1213,9.8786802,14.1213,9.8786802,14.1213,9.8786802Z" fill="#0A0A28" fill-opacity="1"/></g></svg>