<svg xmlns="http://www.w3.org/2000/svg" xmlns:xlink="http://www.w3.org/1999/xlink" fill="none" version="1.1" width="24" height="24" viewBox="0 0 24 24"><defs><clipPath id="master_svg0_3_1779"><rect x="0" y="0" width="24" height="24" rx="0"/></clipPath></defs><g clip-path="url(#master_svg0_3_1779)"><path d="M11.999994296484376,2.4000244140625C12.318258296484375,2.4000244140625004,12.623478896484375,2.5264528240625,12.848526896484374,2.7514960140625C13.073562896484376,2.9765404440625,13.199993896484376,3.2817652840625,13.199993896484376,3.6000244140625C13.199993896484376,3.6000244140625,13.199993896484376,4.8000245140625,13.199993896484376,4.8000245140625C13.199993896484376,5.1182885140625,13.073562896484376,5.4235086140625,12.848526896484374,5.6485565140625C12.623478896484375,5.8735926140625,12.318258296484375,6.0000245140625,11.999994296484376,6.0000245140625C11.681730296484375,6.0000245140625,11.376510596484374,5.8735926140625,11.151462596484375,5.6485565140625C10.926425896484375,5.4235086140625,10.799994496484375,5.1182885140625,10.799994496484375,4.8000245140625C10.799994496484375,4.8000245140625,10.799994496484375,3.6000244140625,10.799994496484375,3.6000244140625C10.799994496484375,3.2817652840625,10.926425896484375,2.9765404440625,11.151462596484375,2.7514960140625C11.376510596484374,2.5264528240625,11.681730296484375,2.4000244140625004,11.999994296484376,2.4000244140625C11.999994296484376,2.4000244140625,11.999994296484376,2.4000244140625,11.999994296484376,2.4000244140625C11.999994296484376,2.4000244140625,11.999994296484376,2.4000244140625,11.999994296484376,2.4000244140625ZM16.799994896484375,12.0000248140625C16.799994896484375,13.2730694140625,16.294313896484375,14.4939854140625,15.394074896484375,15.3941054140625C14.493954896484375,16.2943444140625,13.273038896484374,16.8000254140625,11.999994296484376,16.8000254140625C10.726949696484375,16.8000254140625,9.506058196484375,16.2943444140625,8.605877896484376,15.3941054140625C7.705710396484375,14.4939854140625,7.199994096484375,13.2730694140625,7.199994096484375,12.0000248140625C7.199994096484375,10.7269802140625,7.705710396484375,9.5060887140625,8.605877896484376,8.605908414062501C9.506058196484375,7.7057409140625,10.726949696484375,7.2000246140625,11.999994296484376,7.2000246140625C13.273038896484374,7.2000246140625,14.493954896484375,7.7057409140625,15.394074896484375,8.605908414062501C16.294313896484375,9.5060887140625,16.799994896484375,10.7269802140625,16.799994896484375,12.0000248140625C16.799994896484375,12.0000248140625,16.799994896484375,12.0000248140625,16.799994896484375,12.0000248140625C16.799994896484375,12.0000248140625,16.799994896484375,12.0000248140625,16.799994896484375,12.0000248140625ZM16.243194896484376,17.9400244140625C16.243194896484376,17.9400244140625,17.091594896484374,18.7884254140625,17.091594896484374,18.7884254140625C17.317913896484377,19.0070644140625,17.621034896484375,19.1280254140625,17.935673896484374,19.1252654140625C18.250314896484376,19.1225054140625,18.551274896484376,18.9962654140625,18.773753896484376,18.7737844140625C18.996234896484374,18.5513054140625,19.122474896484373,18.2503454140625,19.125234896484375,17.9357044140625C19.127994896484374,17.6210654140625,19.007033896484376,17.317944414062502,18.788394896484377,17.0916254140625C18.788394896484377,17.0916254140625,17.939993896484374,16.2432254140625,17.939993896484374,16.2432254140625C17.713674896484378,16.024584414062502,17.410553896484373,15.9036254140625,17.095914896484373,15.9063844140625C16.781273896484375,15.9091444140625,16.480313896484375,16.0353844140625,16.257834896484376,16.2578654140625C16.035353896484374,16.4803444140625,15.909113896484374,16.7813044140625,15.906353896484376,17.0959454140625C15.903594896484375,17.410584414062498,16.024553896484377,17.713705414062503,16.243194896484376,17.9400244140625C16.243194896484376,17.9400244140625,16.243194896484376,17.9400244140625,16.243194896484376,17.9400244140625C16.243194896484376,17.9400244140625,16.243194896484376,17.9400244140625,16.243194896484376,17.9400244140625ZM18.787194896484376,5.2116244140625C19.012195896484375,5.4366605140625,19.138555896484377,5.7418327140625,19.138555896484377,6.0600245140624995C19.138555896484377,6.378216514062499,19.012195896484375,6.6833887140625,18.787194896484376,6.9084244140625C18.787194896484376,6.9084244140625,17.939993896484374,7.7568250140625,17.939993896484374,7.7568250140625C17.829353896484378,7.8714371140625,17.696874896484374,7.9628529140625,17.550473896484377,8.025744414062501C17.404074896484374,8.0886364140625,17.246634896484373,8.121744114062501,17.087274896484374,8.123124614062501C16.927914896484374,8.1245046140625,16.769874896484374,8.0941448140625,16.622394896484373,8.0338087140625C16.474914896484375,7.9734726140625,16.340994896484375,7.8843727140625,16.228314896484378,7.7717047140625C16.115633896484375,7.6590247140625,16.026594896484376,7.5250449140625,15.966233896484376,7.3775649140625C15.905873896484374,7.2300968140625,15.875513896484374,7.0720806140625,15.876833896484374,6.9127445140625C15.878274896484376,6.7534084140625,15.911393896484375,6.5959444140625,15.974274896484374,6.4495444140625C16.037153896484377,6.3031325140625,16.128594896484373,6.1707246140625,16.243194896484376,6.0600245140624995C16.243194896484376,6.0600245140624995,17.091594896484374,5.2116244140625,17.091594896484374,5.2116244140625C17.316593896484378,4.9866605140625,17.621754896484376,4.8602764140625005,17.939993896484374,4.8602764140625005C18.258234896484375,4.8602764140625005,18.563394896484375,4.9866605140625,18.788394896484377,5.2116244140625C18.788394896484377,5.2116244140625,18.787194896484376,5.2116244140625,18.787194896484376,5.2116244140625C18.787194896484376,5.2116244140625,18.787194896484376,5.2116244140625,18.787194896484376,5.2116244140625ZM20.399993896484375,13.2000244140625C20.718234896484375,13.2000244140625,21.023513896484374,13.0735934140625,21.248513896484376,12.8485574140625C21.473514896484375,12.6235094140625,21.599994896484375,12.3182888140625,21.599994896484375,12.0000248140625C21.599994896484375,11.6817608140625,21.473514896484375,11.3765411140625,21.248513896484376,11.1514931140625C21.023513896484374,10.9264564140625,20.718234896484375,10.8000250140625,20.399993896484375,10.8000250140625C20.399993896484375,10.8000250140625,19.199994896484377,10.8000250140625,19.199994896484377,10.8000250140625C18.881755896484375,10.8000250140625,18.576474896484374,10.9264564140625,18.351474896484376,11.1514931140625C18.126473896484377,11.3765411140625,17.999993896484376,11.6817608140625,17.999993896484376,12.0000248140625C17.999993896484376,12.3182888140625,18.126473896484377,12.6235094140625,18.351474896484376,12.8485574140625C18.576474896484374,13.0735934140625,18.881755896484375,13.2000244140625,19.199994896484377,13.2000244140625C19.199994896484377,13.2000244140625,20.399993896484375,13.2000244140625,20.399993896484375,13.2000244140625C20.399993896484375,13.2000244140625,20.399993896484375,13.2000244140625,20.399993896484375,13.2000244140625ZM11.999994296484376,18.0000244140625C12.318258296484375,18.0000244140625,12.623478896484375,18.126504414062502,12.848526896484374,18.3515054140625C13.073562896484376,18.5765054140625,13.199993896484376,18.8817864140625,13.199993896484376,19.2000254140625C13.199993896484376,19.2000254140625,13.199993896484376,20.4000244140625,13.199993896484376,20.4000244140625C13.199993896484376,20.7182654140625,13.073562896484376,21.0235444140625,12.848526896484374,21.2485444140625C12.623478896484375,21.4735454140625,12.318258296484375,21.6000254140625,11.999994296484376,21.6000254140625C11.681730296484375,21.6000254140625,11.376510596484374,21.4735454140625,11.151462596484375,21.2485444140625C10.926425896484375,21.0235444140625,10.799994496484375,20.7182654140625,10.799994496484375,20.4000244140625C10.799994496484375,20.4000244140625,10.799994496484375,19.2000254140625,10.799994496484375,19.2000254140625C10.799994496484375,18.8817864140625,10.926425896484375,18.5765054140625,11.151462596484375,18.3515054140625C11.376510596484374,18.126504414062502,11.681730296484375,18.0000244140625,11.999994296484376,18.0000244140625C11.999994296484376,18.0000244140625,11.999994296484376,18.0000244140625,11.999994296484376,18.0000244140625C11.999994296484376,18.0000244140625,11.999994296484376,18.0000244140625,11.999994296484376,18.0000244140625ZM6.0599939964843745,7.7568250140625C6.171401996484375,7.8683166140625,6.3036899964843744,7.9567685140625,6.449285996484375,8.0171409140625C6.594881996484375,8.0775123140625,6.750954196484375,8.1086168140625,6.908574096484375,8.1086645140625C7.066182096484375,8.1087246140625,7.222278096484375,8.0777287140625,7.367909896484375,8.0174646140625C7.513554096484375,7.9572005140625,7.645902196484375,7.8688326140625,7.757393796484375,7.7574243140625C7.868885996484375,7.6460171140625,7.957338296484375,7.5137281140625,8.017709696484374,7.3681326140625C8.078082096484376,7.2225370140625,8.109186196484375,7.0664644140625,8.109233896484376,6.9088445140625C8.109293896484374,6.7512364140625,8.078297596484376,6.5951404140625,8.018034496484375,6.4495087140625C7.957770396484375,6.303864714062501,7.869401896484375,6.1715166140625,7.757994196484375,6.0600245140624995C7.757994196484375,6.0600245140624995,6.908393896484375,5.2116244140625,6.908393896484375,5.2116244140625C6.682074096484375,4.9930324140625,6.378953896484375,4.8720846140625,6.064314096484376,4.8748205140625C5.749674096484375,4.8775444140625,5.448702096484375,5.0037484140625,5.226210096484375,5.2262406140625C5.003717896484375,5.4487326140625,4.877513896484375,5.7497046140625,4.874789996484375,6.064344614062501C4.872054096484375,6.3789844140625,4.993001896484375,6.6821046140625,5.211593896484375,6.9084244140625C5.211593896484375,6.9084244140625,6.0599939964843745,7.7568250140625,6.0599939964843745,7.7568250140625C6.0599939964843745,7.7568250140625,6.0599939964843745,7.7568250140625,6.0599939964843745,7.7568250140625C6.0599939964843745,7.7568250140625,6.0599939964843745,7.7568250140625,6.0599939964843745,7.7568250140625ZM7.756794496484375,17.9400244140625C7.756794496484375,17.9400244140625,6.908393896484375,18.7884254140625,6.908393896484375,18.7884254140625C6.682074096484375,19.0070644140625,6.378953896484375,19.1280254140625,6.064314096484376,19.1252654140625C5.749674096484375,19.1225054140625,5.448702096484375,18.9962654140625,5.226210096484375,18.7737844140625C5.003717896484375,18.5513054140625,4.877513896484375,18.2503454140625,4.874789996484375,17.9357044140625C4.872054096484375,17.6210654140625,4.993001896484375,17.317944414062502,5.211593896484375,17.0916254140625C5.211593896484375,17.0916254140625,6.0599939964843745,16.2432254140625,6.0599939964843745,16.2432254140625C6.286313996484375,16.024584414062502,6.589434196484375,15.9036254140625,6.904074196484375,15.9063844140625C7.218714196484375,15.9091444140625,7.519685696484375,16.0353844140625,7.742177996484375,16.2578654140625C7.964670196484375,16.4803444140625,8.090874196484375,16.7813044140625,8.093597896484376,17.0959454140625C8.096334496484374,17.410584414062498,7.975386096484375,17.713705414062503,7.756794496484375,17.9400244140625C7.756794496484375,17.9400244140625,7.756794496484375,17.9400244140625,7.756794496484375,17.9400244140625C7.756794496484375,17.9400244140625,7.756794496484375,17.9400244140625,7.756794496484375,17.9400244140625ZM4.799993996484375,13.2000244140625C5.118257996484375,13.2000244140625,5.423478096484375,13.0735934140625,5.648525996484375,12.8485574140625C5.873562096484375,12.6235094140625,5.999993996484375,12.3182888140625,5.999993996484375,12.0000248140625C5.999993996484375,11.6817608140625,5.873562096484375,11.3765411140625,5.648525996484375,11.1514931140625C5.423478096484375,10.9264564140625,5.118257996484375,10.8000250140625,4.799993996484375,10.8000250140625C4.799993996484375,10.8000250140625,3.599993896484375,10.8000250140625,3.599993896484375,10.8000250140625C3.281734766484375,10.8000250140625,2.976509926484375,10.9264564140625,2.751465496484375,11.1514931140625C2.526422306484375,11.3765411140625,2.399993896484376,11.6817608140625,2.399993896484375,12.0000248140625C2.3999938964843754,12.3182888140625,2.526422306484375,12.6235094140625,2.751465496484375,12.8485574140625C2.976509926484375,13.0735934140625,3.281734766484375,13.2000244140625,3.599993896484375,13.2000244140625C3.599993896484375,13.2000244140625,4.799993996484375,13.2000244140625,4.799993996484375,13.2000244140625C4.799993996484375,13.2000244140625,4.799993996484375,13.2000244140625,4.799993996484375,13.2000244140625Z" fill-rule="evenodd" fill="#0A0A28" fill-opacity="1"/></g></svg>