<svg xmlns="http://www.w3.org/2000/svg" xmlns:xlink="http://www.w3.org/1999/xlink" fill="none" version="1.1" width="24" height="24" viewBox="0 0 24 24"><defs><clipPath id="master_svg0_3_1492"><rect x="0" y="0" width="24" height="24" rx="0"/></clipPath></defs><g clip-path="url(#master_svg0_3_1492)"><path d="M21.599994896484375,12.0000248140625C21.599994896484375,14.5460654140625,20.588513896484375,16.9879444140625,18.788274896484374,18.7883054140625C16.987913896484375,20.5885444140625,14.546034896484375,21.6000254140625,11.999994296484376,21.6000254140625C9.453918496484375,21.6000254140625,7.012122196484375,20.5885444140625,5.211773896484376,18.7883054140625C3.411419896484375,16.9879444140625,2.3999938964843768,14.5460654140625,2.399993896484375,12.0000248140625C2.3999938964843754,9.4539490140625,3.411419896484375,7.0121527140625,5.211773896484376,5.211804414062501C7.012122196484375,3.4114504140625,9.453918496484375,2.4000244140625027,11.999994296484376,2.4000244140625C14.546034896484375,2.4000244140625018,16.987913896484375,3.4114504140625,18.788274896484374,5.211804414062501C20.588513896484375,7.0121527140625,21.599994896484375,9.4539490140625,21.599994896484375,12.0000248140625C21.599994896484375,12.0000248140625,21.599994896484375,12.0000248140625,21.599994896484375,12.0000248140625C21.599994896484375,12.0000248140625,21.599994896484375,12.0000248140625,21.599994896484375,12.0000248140625ZM19.199994896484377,12.0000248140625C19.199994896484377,13.1916244140625,18.910794896484376,14.3148254140625,18.398394896484376,15.3048244140625C18.398394896484376,15.3048244140625,16.569593896484378,13.4748244140625,16.569593896484378,13.4748244140625C16.843433896484377,12.6272524140625,16.875834896484378,11.7201729140625,16.663193896484373,10.8552246140625C16.663193896484373,10.8552246140625,18.537593896484374,8.980824914062499,18.537593896484374,8.980824914062499C18.962394896484376,9.8988247140625,19.199994896484377,10.9200249140625,19.199994896484377,12.0000248140625C19.199994896484377,12.0000248140625,19.199994896484377,12.0000248140625,19.199994896484377,12.0000248140625ZM13.001993896484375,16.695625414062498C13.001993896484375,16.695625414062498,14.897993896484374,18.5916254140625,14.897993896484374,18.5916254140625C13.984794896484376,18.9937454140625,12.997781896484375,19.2008644140625,11.999994296484376,19.2000254140625C10.957409896484375,19.2013454140625,9.927078296484375,18.9752654140625,8.980794396484374,18.5376244140625C8.980794396484374,18.5376244140625,10.855194096484375,16.663224414062498,10.855194096484375,16.663224414062498C11.559198396484375,16.8357854140625,12.293106096484374,16.8468244140625,13.001993896484375,16.695625414062498C13.001993896484375,16.695625414062498,13.001993896484375,16.695625414062498,13.001993896484375,16.695625414062498C13.001993896484375,16.695625414062498,13.001993896484375,16.695625414062498,13.001993896484375,16.695625414062498ZM7.389594096484375,13.3404244140625C7.153446196484375,12.5273044140625,7.136477996484375,11.6662083140625,7.340393996484375,10.8444252140625C7.340393996484375,10.8444252140625,7.244394296484375,10.9404249140625,7.244394296484375,10.9404249140625C7.244394296484375,10.9404249140625,5.4083940964843755,9.1008248140625,5.4083940964843755,9.1008248140625C5.006153796484375,10.0143971140625,4.7989499964843745,11.0018291140625,4.799993996484375,12.0000248140625C4.799993996484375,13.1448254140625,5.067594096484375,14.2272244140625,5.5427939964843755,15.1884244140625C5.5427939964843755,15.1884244140625,7.390793796484375,13.3404244140625,7.390793796484375,13.3404244140625C7.390793796484375,13.3404244140625,7.389594096484375,13.3404244140625,7.389594096484375,13.3404244140625C7.389594096484375,13.3404244140625,7.389594096484375,13.3404244140625,7.389594096484375,13.3404244140625ZM8.695193796484375,5.6004245140624995C9.716658096484375,5.072448514062501,10.850142496484375,4.7979245140625,11.999994296484376,4.8000245140625C13.144794896484376,4.8000245140625,14.227193896484374,5.0676246140625,15.188393896484374,5.5428245140625005C15.188393896484374,5.5428245140625005,13.340393896484375,7.3908243140625,13.340393896484375,7.3908243140625C12.419106896484376,7.1224804140625,11.438562396484375,7.1362686140625,10.525194196484374,7.4304247140625C10.525194196484374,7.4304247140625,8.695193796484375,5.6016245140625,8.695193796484375,5.6016245140625C8.695193796484375,5.6016245140625,8.695193796484375,5.6004245140624995,8.695193796484375,5.6004245140624995C8.695193796484375,5.6004245140624995,8.695193796484375,5.6004245140624995,8.695193796484375,5.6004245140624995ZM14.399993896484375,12.0000248140625C14.399993896484375,12.6365404140625,14.147142896484375,13.2469924140625,13.697045896484376,13.6970764140625C13.246961896484375,14.1471734140625,12.636509896484375,14.4000244140625,11.999994296484376,14.4000244140625C11.363478696484375,14.4000244140625,10.753025996484375,14.1471734140625,10.302942296484375,13.6970764140625C9.852846096484374,13.2469924140625,9.599994196484374,12.6365404140625,9.599994196484374,12.0000248140625C9.599994196484374,11.3635092140625,9.852846096484374,10.7530565140625,10.302942296484375,10.3029728140625C10.753025996484375,9.852876614062499,11.363478696484375,9.6000247140625,11.999994296484376,9.6000247140625C12.636509896484375,9.6000247140625,13.246961896484375,9.852876614062499,13.697045896484376,10.3029728140625C14.147142896484375,10.7530565140625,14.399993896484375,11.3635092140625,14.399993896484375,12.0000248140625C14.399993896484375,12.0000248140625,14.399993896484375,12.0000248140625,14.399993896484375,12.0000248140625C14.399993896484375,12.0000248140625,14.399993896484375,12.0000248140625,14.399993896484375,12.0000248140625Z" fill-rule="evenodd" fill="#0A0A28" fill-opacity="1"/></g></svg>