<svg xmlns="http://www.w3.org/2000/svg" xmlns:xlink="http://www.w3.org/1999/xlink" fill="none" version="1.1" width="24" height="24" viewBox="0 0 24 24"><defs><clipPath id="master_svg0_3_2161"><rect x="0" y="0" width="24" height="24" rx="0"/></clipPath></defs><g clip-path="url(#master_svg0_3_2161)"><path d="M12,3.000000238418579C12,3.000000238418579,12,4.000000238418579,12,4.000000238418579C12,4.000000238418579,12,3.000000238418579,12,3.000000238418579C12,3.000000238418579,12,3.000000238418579,12,3.000000238418579ZM16,12.000000238418579C16,12.000000238418579,17,12.000000238418579,17,12.000000238418579C17,12.000000238418579,16,12.000000238418579,16,12.000000238418579C16,12.000000238418579,16,12.000000238418579,16,12.000000238418579ZM12,16.00000023841858C12,16.00000023841858,12,17.00000023841858,12,17.00000023841858C12,17.00000023841858,12,16.00000023841858,12,16.00000023841858C12,16.00000023841858,12,16.00000023841858,12,16.00000023841858ZM8,12.000000238418579C8,12.000000238418579,7,12.000000238418579,7,12.000000238418579C7,12.000000238418579,8,12.000000238418579,8,12.000000238418579C8,12.000000238418579,8,12.000000238418579,8,12.000000238418579ZM12,8.000000238418579C12,8.000000238418579,12,7.000000238418579,12,7.000000238418579C12,7.000000238418579,12,8.000000238418579,12,8.000000238418579C12,8.000000238418579,12,8.000000238418579,12,8.000000238418579ZM17.6569,4.928890238418579C17.6569,4.928890238418579,14.1209,8.46489023841858,14.1209,8.46489023841858C14.1209,8.46489023841858,15.5351,9.879110138418579,15.5351,9.879110138418579C15.5351,9.879110138418579,19.0711,6.34311033841858,19.0711,6.34311033841858C19.0711,6.34311033841858,17.6569,4.928890238418579,17.6569,4.928890238418579C17.6569,4.928890238418579,17.6569,4.928890238418579,17.6569,4.928890238418579ZM14.1209,15.535100238418579C14.1209,15.535100238418579,17.6569,19.07110023841858,17.6569,19.07110023841858C17.6569,19.07110023841858,19.0711,17.65690023841858,19.0711,17.65690023841858C19.0711,17.65690023841858,15.5351,14.12090023841858,15.5351,14.12090023841858C15.5351,14.12090023841858,14.1209,15.535100238418579,14.1209,15.535100238418579C14.1209,15.535100238418579,14.1209,15.535100238418579,14.1209,15.535100238418579ZM9.8791099,8.46489023841858C9.8791099,8.46489023841858,6.3431101000000005,4.928890238418579,6.3431101000000005,4.928890238418579C6.3431101000000005,4.928890238418579,4.92889,6.34311033841858,4.92889,6.34311033841858C4.92889,6.34311033841858,8.46489,9.879110138418579,8.46489,9.879110138418579C8.46489,9.879110138418579,9.8791099,8.46489023841858,9.8791099,8.46489023841858C9.8791099,8.46489023841858,9.8791099,8.46489023841858,9.8791099,8.46489023841858ZM8.46489,14.12090023841858C8.46489,14.12090023841858,4.92889,17.65690023841858,4.92889,17.65690023841858C4.92889,17.65690023841858,6.3431101000000005,19.07110023841858,6.3431101000000005,19.07110023841858C6.3431101000000005,19.07110023841858,9.8791099,15.535100238418579,9.8791099,15.535100238418579C9.8791099,15.535100238418579,8.46489,14.12090023841858,8.46489,14.12090023841858C8.46489,14.12090023841858,8.46489,14.12090023841858,8.46489,14.12090023841858ZM20,12.000000238418579C20,13.050600238418578,19.7931,14.090900238418579,19.391001,15.06150023841858C19.391001,15.06150023841858,21.2388,15.82680023841858,21.2388,15.82680023841858C21.741301,14.613600238418579,22,13.31320023841858,22,12.000000238418579C22,12.000000238418579,20,12.000000238418579,20,12.000000238418579C20,12.000000238418579,20,12.000000238418579,20,12.000000238418579ZM19.391001,15.06150023841858C18.989,16.03210023841858,18.3997,16.91400023841858,17.6569,17.65690023841858C17.6569,17.65690023841858,19.0711,19.07110023841858,19.0711,19.07110023841858C19.999701,18.142500238418577,20.7363,17.04010023841858,21.2388,15.82680023841858C21.2388,15.82680023841858,19.391001,15.06150023841858,19.391001,15.06150023841858C19.391001,15.06150023841858,19.391001,15.06150023841858,19.391001,15.06150023841858ZM17.6569,17.65690023841858C16.914,18.39970023841858,16.0321,18.98900023841858,15.0615,19.39100123841858C15.0615,19.39100123841858,15.8268,21.23880023841858,15.8268,21.23880023841858C17.040100000000002,20.73630023841858,18.1425,19.99970123841858,19.0711,19.07110023841858C19.0711,19.07110023841858,17.6569,17.65690023841858,17.6569,17.65690023841858C17.6569,17.65690023841858,17.6569,17.65690023841858,17.6569,17.65690023841858ZM15.0615,19.39100123841858C14.0909,19.793100238418578,13.0506,20.00000023841858,12,20.00000023841858C12,20.00000023841858,12,22.00000023841858,12,22.00000023841858C13.3132,22.00000023841858,14.6136,21.74130123841858,15.8268,21.23880023841858C15.8268,21.23880023841858,15.0615,19.39100123841858,15.0615,19.39100123841858C15.0615,19.39100123841858,15.0615,19.39100123841858,15.0615,19.39100123841858ZM12,20.00000023841858C10.94942,20.00000023841858,9.9091401,19.793100238418578,8.93853,19.39100123841858C8.93853,19.39100123841858,8.1731701,21.23880023841858,8.1731701,21.23880023841858C9.386419799999999,21.74130123841858,10.686779999999999,22.00000023841858,12,22.00000023841858C12,22.00000023841858,12,20.00000023841858,12,20.00000023841858C12,20.00000023841858,12,20.00000023841858,12,20.00000023841858ZM8.93853,19.39100123841858C7.9678998,18.98900023841858,7.0859499,18.39970023841858,6.3431101000000005,17.65690023841858C6.3431101000000005,17.65690023841858,4.92889,19.07110023841858,4.92889,19.07110023841858C5.8575001,19.99970123841858,6.95994,20.73630023841858,8.1731701,21.23880023841858C8.1731701,21.23880023841858,8.93853,19.39100123841858,8.93853,19.39100123841858C8.93853,19.39100123841858,8.93853,19.39100123841858,8.93853,19.39100123841858ZM6.3431101000000005,17.65690023841858C5.6002600000000005,16.91400023841858,5.0110098999999995,16.03210023841858,4.60896,15.06150023841858C4.60896,15.06150023841858,2.761205,15.82680023841858,2.761205,15.82680023841858C3.26374,17.04010023841858,4.00029,18.142500238418577,4.92889,19.07110023841858C4.92889,19.07110023841858,6.3431101000000005,17.65690023841858,6.3431101000000005,17.65690023841858C6.3431101000000005,17.65690023841858,6.3431101000000005,17.65690023841858,6.3431101000000005,17.65690023841858ZM4.60896,15.06150023841858C4.20693,14.090900238418579,4,13.050600238418578,4,12.000000238418579C4,12.000000238418579,2,12.000000238418579,2,12.000000238418579C2,13.31320023841858,2.25865799,14.613600238418579,2.761205,15.82680023841858C2.761205,15.82680023841858,4.60896,15.06150023841858,4.60896,15.06150023841858C4.60896,15.06150023841858,4.60896,15.06150023841858,4.60896,15.06150023841858ZM4,12.000000238418579C4,9.878250338418578,4.8428299,7.843390238418579,6.3431101000000005,6.34311033841858C6.3431101000000005,6.34311033841858,4.92889,4.928890238418579,4.92889,4.928890238418579C3.053518601,6.804270238418579,2,9.347850038418578,2,12.000000238418579C2,12.000000238418579,4,12.000000238418579,4,12.000000238418579C4,12.000000238418579,4,12.000000238418579,4,12.000000238418579ZM6.3431101000000005,6.34311033841858C7.84339,4.842830138418579,9.878250099999999,4.000000238418579,12,4.000000238418579C12,4.000000238418579,12,2.000000238418579,12,2.000000238418579C9.347849799999999,2.000000238418579,6.80427,3.053518537418579,4.92889,4.928890238418579C4.92889,4.928890238418579,6.3431101000000005,6.34311033841858,6.3431101000000005,6.34311033841858C6.3431101000000005,6.34311033841858,6.3431101000000005,6.34311033841858,6.3431101000000005,6.34311033841858ZM12,4.000000238418579C14.1217,4.000000238418579,16.156599999999997,4.842830138418579,17.6569,6.34311033841858C17.6569,6.34311033841858,19.0711,4.928890238418579,19.0711,4.928890238418579C17.195700000000002,3.053518537418579,14.6521,2.000000238418579,12,2.000000238418579C12,2.000000238418579,12,4.000000238418579,12,4.000000238418579C12,4.000000238418579,12,4.000000238418579,12,4.000000238418579ZM17.6569,6.34311033841858C19.1572,7.843390238418579,20,9.878250338418578,20,12.000000238418579C20,12.000000238418579,22,12.000000238418579,22,12.000000238418579C22,9.347850038418578,20.946501,6.804270238418579,19.0711,4.928890238418579C19.0711,4.928890238418579,17.6569,6.34311033841858,17.6569,6.34311033841858C17.6569,6.34311033841858,17.6569,6.34311033841858,17.6569,6.34311033841858ZM15,12.000000238418579C15,12.79526063841858,14.6838,13.558000238418579,14.1209,14.12090023841858C14.1209,14.12090023841858,15.5351,15.535100238418579,15.5351,15.535100238418579C16.4725,14.597700238418579,17,13.326500238418578,17,12.000000238418579C17,12.000000238418579,15,12.000000238418579,15,12.000000238418579C15,12.000000238418579,15,12.000000238418579,15,12.000000238418579ZM14.1209,14.12090023841858C13.558,14.683800238418579,12.7952604,15.000000238418579,12,15.000000238418579C12,15.000000238418579,12,17.00000023841858,12,17.00000023841858C13.3265,17.00000023841858,14.5977,16.47250023841858,15.5351,15.535100238418579C15.5351,15.535100238418579,14.1209,14.12090023841858,14.1209,14.12090023841858C14.1209,14.12090023841858,14.1209,14.12090023841858,14.1209,14.12090023841858ZM12,15.000000238418579C11.2047396,15.000000238418579,10.4419899,14.683800238418579,9.8791099,14.12090023841858C9.8791099,14.12090023841858,8.46489,15.535100238418579,8.46489,15.535100238418579C9.4022999,16.47250023841858,10.6735301,17.00000023841858,12,17.00000023841858C12,17.00000023841858,12,15.000000238418579,12,15.000000238418579C12,15.000000238418579,12,15.000000238418579,12,15.000000238418579ZM9.8791099,14.12090023841858C9.316219799999999,13.558000238418579,9,12.79526063841858,9,12.000000238418579C9,12.000000238418579,7,12.000000238418579,7,12.000000238418579C7,13.326500238418578,7.5274801,14.597700238418579,8.46489,15.535100238418579C8.46489,15.535100238418579,9.8791099,14.12090023841858,9.8791099,14.12090023841858C9.8791099,14.12090023841858,9.8791099,14.12090023841858,9.8791099,14.12090023841858ZM9,12.000000238418579C9,11.204739838418579,9.316219799999999,10.441990138418578,9.8791099,9.879110138418579C9.8791099,9.879110138418579,8.46489,8.46489023841858,8.46489,8.46489023841858C7.5274801,9.402300138418578,7,10.67353033841858,7,12.000000238418579C7,12.000000238418579,9,12.000000238418579,9,12.000000238418579C9,12.000000238418579,9,12.000000238418579,9,12.000000238418579ZM9.8791099,9.879110138418579C10.4419899,9.316220038418578,11.2047396,9.000000238418579,12,9.000000238418579C12,9.000000238418579,12,7.000000238418579,12,7.000000238418579C10.6735301,7.000000238418579,9.4022999,7.527480338418579,8.46489,8.46489023841858C8.46489,8.46489023841858,9.8791099,9.879110138418579,9.8791099,9.879110138418579C9.8791099,9.879110138418579,9.8791099,9.879110138418579,9.8791099,9.879110138418579ZM12,9.000000238418579C12.7952604,9.000000238418579,13.558,9.316220038418578,14.1209,9.879110138418579C14.1209,9.879110138418579,15.5351,8.46489023841858,15.5351,8.46489023841858C14.5977,7.527480338418579,13.3265,7.000000238418579,12,7.000000238418579C12,7.000000238418579,12,9.000000238418579,12,9.000000238418579C12,9.000000238418579,12,9.000000238418579,12,9.000000238418579ZM14.1209,9.879110138418579C14.6838,10.441990138418578,15,11.204739838418579,15,12.000000238418579C15,12.000000238418579,17,12.000000238418579,17,12.000000238418579C17,10.67353033841858,16.4725,9.402300138418578,15.5351,8.46489023841858C15.5351,8.46489023841858,14.1209,9.879110138418579,14.1209,9.879110138418579C14.1209,9.879110138418579,14.1209,9.879110138418579,14.1209,9.879110138418579Z" fill="#0A0A28" fill-opacity="1"/></g></svg>