<svg xmlns="http://www.w3.org/2000/svg" xmlns:xlink="http://www.w3.org/1999/xlink" fill="none" version="1.1" width="24" height="24" viewBox="0 0 24 24"><defs><clipPath id="master_svg0_3_2153"><rect x="0" y="0" width="24" height="24" rx="0"/></clipPath></defs><g clip-path="url(#master_svg0_3_2153)"><path d="M8,6C7.4477201,6,7,6.4477201,7,7C7,7.5522799,7.4477201,8,8,8C8,8,8,6,8,6C8,6,8,6,8,6ZM20,8C20.552299,8,21,7.5522799,21,7C21,6.4477201,20.552299,6,20,6C20,6,20,8,20,8C20,8,20,8,20,8ZM19.2929,7.7071099C19.6834,8.097629999999999,20.316601,8.097629999999999,20.7071,7.7071099C21.097601,7.3165798,21.097601,6.6834199000000005,20.7071,6.2928901C20.7071,6.2928901,19.2929,7.7071099,19.2929,7.7071099C19.2929,7.7071099,19.2929,7.7071099,19.2929,7.7071099ZM16.7071,2.29289299C16.3166,1.90237,15.6834,1.90237,15.2929,2.29289299C14.9024,2.68341699,14.9024,3.31658301,15.2929,3.70710701C15.2929,3.70710701,16.7071,2.29289299,16.7071,2.29289299C16.7071,2.29289299,16.7071,2.29289299,16.7071,2.29289299ZM20.7071,7.7071099C21.097601,7.3165798,21.097601,6.6834199000000005,20.7071,6.2928901C20.316601,5.9023699999999995,19.6834,5.9023699999999995,19.2929,6.2928901C19.2929,6.2928901,20.7071,7.7071099,20.7071,7.7071099C20.7071,7.7071099,20.7071,7.7071099,20.7071,7.7071099ZM15.2929,10.292890100000001C14.9024,10.6834202,14.9024,11.3165798,15.2929,11.7071104C15.6834,12.0976295,16.3166,12.0976295,16.7071,11.7071104C16.7071,11.7071104,15.2929,10.292890100000001,15.2929,10.292890100000001C15.2929,10.292890100000001,15.2929,10.292890100000001,15.2929,10.292890100000001ZM16,18C16.552300000000002,18,17,17.552300000000002,17,17C17,16.447699999999998,16.552300000000002,16,16,16C16,16,16,18,16,18C16,18,16,18,16,18ZM4,16C3.4477149799999998,16,3,16.447699999999998,3,17C3,17.552300000000002,3.4477149799999998,18,4,18C4,18,4,16,4,16C4,16,4,16,4,16ZM4.70710701,16.2929C4.31658301,15.9024,3.68341699,15.9024,3.29289299,16.2929C2.90237,16.6834,2.90237,17.3166,3.29289299,17.7071C3.29289299,17.7071,4.70710701,16.2929,4.70710701,16.2929C4.70710701,16.2929,4.70710701,16.2929,4.70710701,16.2929ZM7.2928901,21.7071C7.6834199000000005,22.097601,8.3165798,22.097601,8.707109899999999,21.7071C9.097629999999999,21.316601,9.097629999999999,20.683399,8.707109899999999,20.2929C8.707109899999999,20.2929,7.2928901,21.7071,7.2928901,21.7071C7.2928901,21.7071,7.2928901,21.7071,7.2928901,21.7071ZM3.29289299,16.2929C2.90237,16.6834,2.90237,17.3166,3.29289299,17.7071C3.68341699,18.0976,4.31658301,18.0976,4.70710701,17.7071C4.70710701,17.7071,3.29289299,16.2929,3.29289299,16.2929C3.29289299,16.2929,3.29289299,16.2929,3.29289299,16.2929ZM8.707109899999999,13.7071C9.097629999999999,13.3166,9.097629999999999,12.6834202,8.707109899999999,12.2928896C8.3165798,11.9023705,7.6834199000000005,11.9023705,7.2928901,12.2928896C7.2928901,12.2928896,8.707109899999999,13.7071,8.707109899999999,13.7071C8.707109899999999,13.7071,8.707109899999999,13.7071,8.707109899999999,13.7071ZM8,8C8,8,20,8,20,8C20,8,20,6,20,6C20,6,8,6,8,6C8,6,8,8,8,8C8,8,8,8,8,8ZM20,6C20,6,8,6,8,6C8,6,8,8,8,8C8,8,20,8,20,8C20,8,20,6,20,6C20,6,20,6,20,6ZM20.7071,6.2928901C20.7071,6.2928901,16.7071,2.29289299,16.7071,2.29289299C16.7071,2.29289299,15.2929,3.70710701,15.2929,3.70710701C15.2929,3.70710701,19.2929,7.7071099,19.2929,7.7071099C19.2929,7.7071099,20.7071,6.2928901,20.7071,6.2928901C20.7071,6.2928901,20.7071,6.2928901,20.7071,6.2928901ZM15.2929,3.70710701C15.2929,3.70710701,19.2929,7.7071099,19.2929,7.7071099C19.2929,7.7071099,20.7071,6.2928901,20.7071,6.2928901C20.7071,6.2928901,16.7071,2.29289299,16.7071,2.29289299C16.7071,2.29289299,15.2929,3.70710701,15.2929,3.70710701C15.2929,3.70710701,15.2929,3.70710701,15.2929,3.70710701ZM19.2929,6.2928901C19.2929,6.2928901,15.2929,10.292890100000001,15.2929,10.292890100000001C15.2929,10.292890100000001,16.7071,11.7071104,16.7071,11.7071104C16.7071,11.7071104,20.7071,7.7071099,20.7071,7.7071099C20.7071,7.7071099,19.2929,6.2928901,19.2929,6.2928901C19.2929,6.2928901,19.2929,6.2928901,19.2929,6.2928901ZM16.7071,11.7071104C16.7071,11.7071104,20.7071,7.7071099,20.7071,7.7071099C20.7071,7.7071099,19.2929,6.2928901,19.2929,6.2928901C19.2929,6.2928901,15.2929,10.292890100000001,15.2929,10.292890100000001C15.2929,10.292890100000001,16.7071,11.7071104,16.7071,11.7071104C16.7071,11.7071104,16.7071,11.7071104,16.7071,11.7071104ZM16,16C16,16,4,16,4,16C4,16,4,18,4,18C4,18,16,18,16,18C16,18,16,16,16,16C16,16,16,16,16,16ZM4,18C4,18,16,18,16,18C16,18,16,16,16,16C16,16,4,16,4,16C4,16,4,18,4,18C4,18,4,18,4,18ZM3.29289299,17.7071C3.29289299,17.7071,7.2928901,21.7071,7.2928901,21.7071C7.2928901,21.7071,8.707109899999999,20.2929,8.707109899999999,20.2929C8.707109899999999,20.2929,4.70710701,16.2929,4.70710701,16.2929C4.70710701,16.2929,3.29289299,17.7071,3.29289299,17.7071C3.29289299,17.7071,3.29289299,17.7071,3.29289299,17.7071ZM8.707109899999999,20.2929C8.707109899999999,20.2929,4.70710701,16.2929,4.70710701,16.2929C4.70710701,16.2929,3.29289299,17.7071,3.29289299,17.7071C3.29289299,17.7071,7.2928901,21.7071,7.2928901,21.7071C7.2928901,21.7071,8.707109899999999,20.2929,8.707109899999999,20.2929C8.707109899999999,20.2929,8.707109899999999,20.2929,8.707109899999999,20.2929ZM4.70710701,17.7071C4.70710701,17.7071,8.707109899999999,13.7071,8.707109899999999,13.7071C8.707109899999999,13.7071,7.2928901,12.2928896,7.2928901,12.2928896C7.2928901,12.2928896,3.29289299,16.2929,3.29289299,16.2929C3.29289299,16.2929,4.70710701,17.7071,4.70710701,17.7071C4.70710701,17.7071,4.70710701,17.7071,4.70710701,17.7071Z" fill="#0A0A28" fill-opacity="1"/></g></svg>