<svg xmlns="http://www.w3.org/2000/svg" xmlns:xlink="http://www.w3.org/1999/xlink" fill="none" version="1.1" width="24" height="24" viewBox="0 0 24 24"><defs><clipPath id="master_svg0_3_2224"><rect x="0" y="0" width="24" height="24" rx="0"/></clipPath></defs><g clip-path="url(#master_svg0_3_2224)"><path d="M6,16C6,16.552300000000002,6.4477201,17,7,17C7.5522799,17,8,16.552300000000002,8,16C8,16,6,16,6,16C6,16,6,16,6,16ZM8,4C8,3.4477149799999998,7.5522799,3,7,3C6.4477201,3,6,3.4477149799999998,6,4C6,4,8,4,8,4C8,4,8,4,8,4ZM7.7071099,4.70710701C8.097629999999999,4.31658301,8.097629999999999,3.68341699,7.7071099,3.29289299C7.3165798,2.90237,6.6834199000000005,2.90237,6.2928901,3.29289299C6.2928901,3.29289299,7.7071099,4.70710701,7.7071099,4.70710701C7.7071099,4.70710701,7.7071099,4.70710701,7.7071099,4.70710701ZM2.29289299,7.2928901C1.90237,7.6834199000000005,1.90237,8.3165798,2.29289299,8.707109899999999C2.68341699,9.097629999999999,3.31658301,9.097629999999999,3.70710701,8.707109899999999C3.70710701,8.707109899999999,2.29289299,7.2928901,2.29289299,7.2928901C2.29289299,7.2928901,2.29289299,7.2928901,2.29289299,7.2928901ZM7.7071099,3.29289299C7.3165798,2.90237,6.6834199000000005,2.90237,6.2928901,3.29289299C5.9023699999999995,3.68341699,5.9023699999999995,4.31658301,6.2928901,4.70710701C6.2928901,4.70710701,7.7071099,3.29289299,7.7071099,3.29289299C7.7071099,3.29289299,7.7071099,3.29289299,7.7071099,3.29289299ZM10.292890100000001,8.707109899999999C10.6834202,9.097629999999999,11.3165798,9.097629999999999,11.7071104,8.707109899999999C12.0976295,8.3165798,12.0976295,7.6834199000000005,11.7071104,7.2928901C11.7071104,7.2928901,10.292890100000001,8.707109899999999,10.292890100000001,8.707109899999999C10.292890100000001,8.707109899999999,10.292890100000001,8.707109899999999,10.292890100000001,8.707109899999999ZM18,8C18,7.4477201,17.552300000000002,7,17,7C16.447699999999998,7,16,7.4477201,16,8C16,8,18,8,18,8C18,8,18,8,18,8ZM16,20C16,20.552299,16.447699999999998,21,17,21C17.552300000000002,21,18,20.552299,18,20C18,20,16,20,16,20C16,20,16,20,16,20ZM16.2929,19.2929C15.9024,19.6834,15.9024,20.316601,16.2929,20.7071C16.6834,21.097601,17.3166,21.097601,17.7071,20.7071C17.7071,20.7071,16.2929,19.2929,16.2929,19.2929C16.2929,19.2929,16.2929,19.2929,16.2929,19.2929ZM21.7071,16.7071C22.097601,16.3166,22.097601,15.6834,21.7071,15.2929C21.316601,14.9024,20.683399,14.9024,20.2929,15.2929C20.2929,15.2929,21.7071,16.7071,21.7071,16.7071C21.7071,16.7071,21.7071,16.7071,21.7071,16.7071ZM16.2929,20.7071C16.6834,21.097601,17.3166,21.097601,17.7071,20.7071C18.0976,20.316601,18.0976,19.6834,17.7071,19.2929C17.7071,19.2929,16.2929,20.7071,16.2929,20.7071C16.2929,20.7071,16.2929,20.7071,16.2929,20.7071ZM13.7071,15.2929C13.3166,14.9024,12.6834202,14.9024,12.2928896,15.2929C11.9023705,15.6834,11.9023705,16.3166,12.2928896,16.7071C12.2928896,16.7071,13.7071,15.2929,13.7071,15.2929C13.7071,15.2929,13.7071,15.2929,13.7071,15.2929ZM8,16C8,16,8,4,8,4C8,4,6,4,6,4C6,4,6,16,6,16C6,16,8,16,8,16C8,16,8,16,8,16ZM6,4C6,4,6,16,6,16C6,16,8,16,8,16C8,16,8,4,8,4C8,4,6,4,6,4C6,4,6,4,6,4ZM6.2928901,3.29289299C6.2928901,3.29289299,2.29289299,7.2928901,2.29289299,7.2928901C2.29289299,7.2928901,3.70710701,8.707109899999999,3.70710701,8.707109899999999C3.70710701,8.707109899999999,7.7071099,4.70710701,7.7071099,4.70710701C7.7071099,4.70710701,6.2928901,3.29289299,6.2928901,3.29289299C6.2928901,3.29289299,6.2928901,3.29289299,6.2928901,3.29289299ZM3.70710701,8.707109899999999C3.70710701,8.707109899999999,7.7071099,4.70710701,7.7071099,4.70710701C7.7071099,4.70710701,6.2928901,3.29289299,6.2928901,3.29289299C6.2928901,3.29289299,2.29289299,7.2928901,2.29289299,7.2928901C2.29289299,7.2928901,3.70710701,8.707109899999999,3.70710701,8.707109899999999C3.70710701,8.707109899999999,3.70710701,8.707109899999999,3.70710701,8.707109899999999ZM6.2928901,4.70710701C6.2928901,4.70710701,10.292890100000001,8.707109899999999,10.292890100000001,8.707109899999999C10.292890100000001,8.707109899999999,11.7071104,7.2928901,11.7071104,7.2928901C11.7071104,7.2928901,7.7071099,3.29289299,7.7071099,3.29289299C7.7071099,3.29289299,6.2928901,4.70710701,6.2928901,4.70710701C6.2928901,4.70710701,6.2928901,4.70710701,6.2928901,4.70710701ZM11.7071104,7.2928901C11.7071104,7.2928901,7.7071099,3.29289299,7.7071099,3.29289299C7.7071099,3.29289299,6.2928901,4.70710701,6.2928901,4.70710701C6.2928901,4.70710701,10.292890100000001,8.707109899999999,10.292890100000001,8.707109899999999C10.292890100000001,8.707109899999999,11.7071104,7.2928901,11.7071104,7.2928901C11.7071104,7.2928901,11.7071104,7.2928901,11.7071104,7.2928901ZM16,8C16,8,16,20,16,20C16,20,18,20,18,20C18,20,18,8,18,8C18,8,16,8,16,8C16,8,16,8,16,8ZM18,20C18,20,18,8,18,8C18,8,16,8,16,8C16,8,16,20,16,20C16,20,18,20,18,20C18,20,18,20,18,20ZM17.7071,20.7071C17.7071,20.7071,21.7071,16.7071,21.7071,16.7071C21.7071,16.7071,20.2929,15.2929,20.2929,15.2929C20.2929,15.2929,16.2929,19.2929,16.2929,19.2929C16.2929,19.2929,17.7071,20.7071,17.7071,20.7071C17.7071,20.7071,17.7071,20.7071,17.7071,20.7071ZM20.2929,15.2929C20.2929,15.2929,16.2929,19.2929,16.2929,19.2929C16.2929,19.2929,17.7071,20.7071,17.7071,20.7071C17.7071,20.7071,21.7071,16.7071,21.7071,16.7071C21.7071,16.7071,20.2929,15.2929,20.2929,15.2929C20.2929,15.2929,20.2929,15.2929,20.2929,15.2929ZM17.7071,19.2929C17.7071,19.2929,13.7071,15.2929,13.7071,15.2929C13.7071,15.2929,12.2928896,16.7071,12.2928896,16.7071C12.2928896,16.7071,16.2929,20.7071,16.2929,20.7071C16.2929,20.7071,17.7071,19.2929,17.7071,19.2929C17.7071,19.2929,17.7071,19.2929,17.7071,19.2929Z" fill="#0A0A28" fill-opacity="1"/></g></svg>