<svg xmlns="http://www.w3.org/2000/svg" xmlns:xlink="http://www.w3.org/1999/xlink" fill="none" version="1.1" width="24" height="24" viewBox="0 0 24 24"><defs><clipPath id="master_svg0_3_1613"><rect x="0" y="0" width="24" height="24" rx="0"/></clipPath></defs><g clip-path="url(#master_svg0_3_1613)"><path d="M9.600028961718749,6.00000210625C9.28176496171875,6.00000210625,8.97654486171875,6.1264341062500005,8.75149676171875,6.35147020625C8.52644916171875,6.57651810625,8.40002866171875,6.88173820625,8.40002866171875,7.20000220625C8.40002866171875,7.51825430625,8.52644916171875,7.82348580625,8.75149676171875,8.04852200625C8.97654486171875,8.27357010625,9.28176496171875,8.40000200625,9.600028961718749,8.40000200625C9.600028961718749,8.40000200625,16.303241761718752,8.40000200625,16.303241761718752,8.40000200625C16.303241761718752,8.40000200625,14.75162976171875,9.951602506250001,14.75162976171875,9.951602506250001C14.53303676171875,10.17792180625,14.41207776171875,10.48104190625,14.41481276171875,10.79568190625C14.41754876171875,11.11032290625,14.54375376171875,11.41129400625,14.76624476171875,11.63378620625C14.98873676171875,11.85626600625,15.28970876171875,11.98247050625,15.60436176171875,11.98520660625C15.91900176171875,11.98794270625,16.22212076171875,11.86699490625,16.448441761718748,11.64840220625C16.448441761718748,11.64840220625,20.04844276171875,8.04840180625,20.04844276171875,8.04840180625C20.27344176171875,7.82336620625,20.39980076171875,7.51819420625,20.39980076171875,7.20000220625C20.39980076171875,6.88179780625,20.27344176171875,6.57663820625,20.04844276171875,6.3516021062500005C20.04844276171875,6.3516021062500005,16.448441761718748,2.75159948625,16.448441761718748,2.75159948625C16.33768176171875,2.63698750625,16.20532176171875,2.54556912625,16.05892176171875,2.48267819025C15.91252076171875,2.41978738825,15.75508076171875,2.38668379025,15.59570876171875,2.385299214293C15.43637276171875,2.38391463425,15.27835776171875,2.41427674725,15.13087776171875,2.47461383025C14.98340876171875,2.53495031625,14.84941676171875,2.62405511625,14.73674876171875,2.73672550625C14.62408076171875,2.8493971562500002,14.53498176171875,2.98337954625,14.47463276171875,3.13085472625C14.41429676171875,3.27833109625,14.38393676171875,3.4363459062499997,14.38532876171875,3.5956819062500003C14.38670876171875,3.75501790625,14.41981676171875,3.9124820062500003,14.48269676171875,4.05888200625C14.54558976171875,4.20529400625,14.63701676171875,4.33770200625,14.75162976171875,4.44840190625C14.75162976171875,4.44840190625,16.303241761718752,6.00000210625,16.303241761718752,6.00000210625C16.303241761718752,6.00000210625,9.600028961718749,6.00000210625,9.600028961718749,6.00000210625C9.600028961718749,6.00000210625,9.600028961718749,6.00000210625,9.600028961718749,6.00000210625ZM14.40002876171875,18.00001390625C14.71828176171875,18.00001390625,15.02351276171875,17.87353490625,15.24854976171875,17.64853490625C15.47359776171875,17.423534906249998,15.60002876171875,17.11825490625,15.60002876171875,16.80001390625C15.60002876171875,16.481773906249998,15.47359776171875,16.176493906250002,15.24854976171875,15.95149390625C15.02351276171875,15.72637490625,14.71828176171875,15.60001390625,14.40002876171875,15.60001390625C14.40002876171875,15.60001390625,7.69682886171875,15.60001390625,7.69682886171875,15.60001390625C7.69682886171875,15.60001390625,9.24842886171875,14.04840190625,9.24842886171875,14.04840190625C9.363040961718749,13.93770190625,9.454456761718749,13.80529390625,9.51734926171875,13.65888190625C9.58024116171875,13.51248190625,9.613337061718749,13.35501890625,9.61472936171875,13.19568290625C9.61610886171875,13.03634690625,9.58574866171875,12.87832990625,9.52541306171875,12.73084990625C9.46507696171875,12.58338190625,9.37596466171875,12.44940290625,9.263297061718749,12.33672140625C9.15062906171875,12.22405430625,9.01664876171875,12.13495440625,8.86916876171875,12.07461740625C8.721688761718749,12.01428220625,8.563673061718749,11.98391060625,8.40434886171875,11.98530200625C8.245012761718751,11.98668290625,8.08754876171875,12.01979060625,7.94113686171875,12.08268260625C7.79473686171875,12.14557460625,7.66231676171875,12.23699000625,7.551628861718751,12.35160250625C7.551628861718751,12.35160250625,3.95162397171875,15.95161390625,3.95162397171875,15.95161390625C3.72665876171875,16.176613906249997,3.60028076171875,16.481773906249998,3.60028076171875,16.80001390625C3.60028076171875,17.11825490625,3.72665876171875,17.423414906250002,3.95162397171875,17.64841490625C3.95162397171875,17.64841490625,7.551628861718751,21.24841490625,7.551628861718751,21.24841490625C7.77794886171875,21.46693390625,8.08106896171875,21.58789490625,8.395709061718751,21.58525490625C8.710336661718749,21.58249490625,9.01132106171875,21.45625490625,9.23380086171875,21.23377390625C9.45629306171875,21.01129490625,9.58249666171875,20.71033490625,9.585233161718751,20.39569490625C9.58796886171875,20.08105490625,9.46700856171875,19.77793490625,9.24842886171875,19.55161490625C9.24842886171875,19.55161490625,7.69682886171875,18.00001390625,7.69682886171875,18.00001390625C7.69682886171875,18.00001390625,14.40002876171875,18.00001390625,14.40002876171875,18.00001390625C14.40002876171875,18.00001390625,14.40002876171875,18.00001390625,14.40002876171875,18.00001390625Z" fill="#0A0A28" fill-opacity="1"/></g></svg>