<svg xmlns="http://www.w3.org/2000/svg" xmlns:xlink="http://www.w3.org/1999/xlink" fill="none" version="1.1" width="24" height="24" viewBox="0 0 24 24"><defs><clipPath id="master_svg0_3_1856"><rect x="0" y="0" width="24" height="24" rx="0"/></clipPath></defs><g clip-path="url(#master_svg0_3_1856)"><path d="M5.9999858867187505,14.400089796875C5.9999858867187505,14.718342796875,6.1264180867187505,15.023573796875,6.35146618671875,15.248610796875C6.57650188671875,15.473658796875,6.88173438671875,15.600089796875,7.19998598671875,15.600089796875C7.51825048671875,15.600089796875,7.82347008671875,15.473658796875,8.04851818671875,15.248610796875C8.27355388671875,15.023573796875,8.39998628671875,14.718342796875,8.39998628671875,14.400089796875C8.39998628671875,14.400089796875,8.39998628671875,7.696889896875,8.39998628671875,7.696889896875C8.39998628671875,7.696889896875,9.95158628671875,9.248489896875,9.95158628671875,9.248489896875C10.17790598671875,9.467069596875,10.48103808671875,9.588029896875,10.79566578671875,9.585294196875001C11.11030678671875,9.582557696875,11.41127778671875,9.456354096875,11.63376998671875,9.233861896875C11.85626218671875,9.011382096875,11.98246668671875,8.710397696874999,11.98520178671875,8.395770096875001C11.98792648671875,8.081129996875,11.86697868671875,7.778009896875,11.64838598671875,7.551689896875001C11.64838598671875,7.551689896875001,8.04838558671875,3.951685006875,8.04838558671875,3.951685006875C7.82335038671875,3.726719796875,7.51819038671875,3.600341796875,7.19998598671875,3.600341796875C6.88179398671875,3.600341796875,6.57662198671875,3.726719796875,6.351586086718751,3.951685006875C6.351586086718751,3.951685006875,2.75158831671875,7.551689896875001,2.75158831671875,7.551689896875001C2.53299832671875,7.778009896875,2.41204514261875,8.081129996875,2.41477924984075,8.395770096875001C2.41751335071875,8.710397696874999,2.54371589671875,9.011382096875,2.76620548671875,9.233861896875C2.98869508671875,9.456354096875,3.28967070671875,9.582557696875,3.60430598671875,9.585294196875001C3.91894588671875,9.588029896875,4.22206588671875,9.467069596875,4.448385986718749,9.248489896875C4.448385986718749,9.248489896875,5.9999858867187505,7.696889896875,5.9999858867187505,7.696889896875C5.9999858867187505,7.696889896875,5.9999858867187505,14.400089796875,5.9999858867187505,14.400089796875C5.9999858867187505,14.400089796875,5.9999858867187505,14.400089796875,5.9999858867187505,14.400089796875ZM17.99997488671875,9.600089996874999C17.99997488671875,9.281825996875,17.87361388671875,8.976605896875,17.64849488671875,8.751557796875C17.42349488671875,8.526510196875,17.11821488671875,8.400089696875,16.799975886718748,8.400089696875C16.48173388671875,8.400089696875,16.17645388671875,8.526510196875,15.95145388671875,8.751557796875C15.72645388671875,8.976605896875,15.59997488671875,9.281825996875,15.59997488671875,9.600089996874999C15.59997488671875,9.600089996874999,15.59997488671875,16.303302796875002,15.59997488671875,16.303302796875002C15.59997488671875,16.303302796875002,14.04838588671875,14.751690796875,14.04838588671875,14.751690796875C13.82206588671875,14.533097796875,13.51894688671875,14.412138796875,13.20430688671875,14.414873796875C12.88966588671875,14.417609796875,12.58869488671875,14.543814796875,12.36620138671875,14.766305796875C12.14371008671875,14.988797796875,12.01751898671875,15.289769796875,12.01478198671875,15.604422796875C12.01204588671875,15.919062796875,12.13299368671875,16.222181796875,12.35158638671875,16.448502796874998C12.35158638671875,16.448502796874998,15.95157388671875,20.048503796875,15.95157388671875,20.048503796875C16.17657388671875,20.273502796875,16.48173388671875,20.399861796875,16.799975886718748,20.399861796875C17.11821488671875,20.399861796875,17.42337488671875,20.273502796875,17.64837488671875,20.048503796875C17.64837488671875,20.048503796875,21.24837488671875,16.448502796874998,21.24837488671875,16.448502796874998C21.46701388671875,16.222181796875,21.58797488671875,15.919062796875,21.58521488671875,15.604422796875C21.58245488671875,15.289769796875,21.45621488671875,14.988797796875,21.23373388671875,14.766305796875C21.01125488671875,14.543814796875,20.71029488671875,14.417609796875,20.39565488671875,14.414873796875C20.08101488671875,14.412138796875,19.77789488671875,14.533097796875,19.55157488671875,14.751690796875C19.55157488671875,14.751690796875,17.99997488671875,16.303302796875002,17.99997488671875,16.303302796875002C17.99997488671875,16.303302796875002,17.99997488671875,9.600089996874999,17.99997488671875,9.600089996874999C17.99997488671875,9.600089996874999,17.99997488671875,9.600089996874999,17.99997488671875,9.600089996874999Z" fill="#0A0A28" fill-opacity="1"/></g></svg>