<svg xmlns="http://www.w3.org/2000/svg" xmlns:xlink="http://www.w3.org/1999/xlink" fill="none" version="1.1" width="24" height="24" viewBox="0 0 24 24"><defs><clipPath id="master_svg0_3_2354"><rect x="0" y="0" width="24" height="24" rx="0"/></clipPath></defs><g clip-path="url(#master_svg0_3_2354)"><path d="M3,9C2.4477149799999998,9,2,9.4477201,2,10C2,10.5522799,2.4477149799999998,11,3,11C3,11,3,9,3,9C3,9,3,9,3,9ZM21,11C21.552299,11,22,10.5522799,22,10C22,9.4477201,21.552299,9,21,9C21,9,21,11,21,11C21,11,21,11,21,11ZM3,13C2.4477149799999998,13,2,13.4477201,2,14C2,14.55229,2.4477149799999998,15,3,15C3,15,3,13,3,13C3,13,3,13,3,13ZM21,15C21.552299,15,22,14.55229,22,14C22,13.4477201,21.552299,13,21,13C21,13,21,15,21,15C21,15,21,15,21,15ZM13,10C13,9.4477201,12.55229,9,12,9C11.44771,9,11,9.4477201,11,10C11,10,13,10,13,10C13,10,13,10,13,10ZM11,18C11,18.552300000000002,11.44771,19,12,19C12.55229,19,13,18.552300000000002,13,18C13,18,11,18,11,18C11,18,11,18,11,18ZM19,6C19,6,19,5,19,5C19,5,19,6,19,6C19,6,19,6,19,6ZM5,6C5,6,5,5,5,5C5,5,5,6,5,6C5,6,5,6,5,6ZM3,8C3,8,2,8,2,8C2,8,3,8,3,8C3,8,3,8,3,8ZM3,16C3,16,2,16,2,16C2,16,3,16,3,16C3,16,3,16,3,16ZM3,11C3,11,21,11,21,11C21,11,21,9,21,9C21,9,3,9,3,9C3,9,3,11,3,11C3,11,3,11,3,11ZM3,15C3,15,21,15,21,15C21,15,21,13,21,13C21,13,3,13,3,13C3,13,3,15,3,15C3,15,3,15,3,15ZM11,10C11,10,11,18,11,18C11,18,13,18,13,18C13,18,13,10,13,10C13,10,11,10,11,10C11,10,11,10,11,10ZM5,19C5,19,19,19,19,19C19,19,19,17,19,17C19,17,5,17,5,17C5,17,5,19,5,19C5,19,5,19,5,19ZM19,19C19.7957,19,20.558701,18.6839,21.1213,18.121299999999998C21.1213,18.121299999999998,19.7071,16.7071,19.7071,16.7071C19.5196,16.8946,19.2652,17,19,17C19,17,19,19,19,19C19,19,19,19,19,19ZM21.1213,18.121299999999998C21.683901,17.5587,22,16.7957,22,16C22,16,20,16,20,16C20,16.2652,19.8946,16.5196,19.7071,16.7071C19.7071,16.7071,21.1213,18.121299999999998,21.1213,18.121299999999998C21.1213,18.121299999999998,21.1213,18.121299999999998,21.1213,18.121299999999998ZM22,16C22,16,22,8,22,8C22,8,20,8,20,8C20,8,20,16,20,16C20,16,22,16,22,16C22,16,22,16,22,16ZM22,8C22,7.20435,21.683901,6.44128799,21.1213,5.87868C21.1213,5.87868,19.7071,7.29289,19.7071,7.29289C19.8946,7.48043,20,7.73478,20,8C20,8,22,8,22,8C22,8,22,8,22,8ZM21.1213,5.87868C20.558701,5.31607002,19.7957,5,19,5C19,5,19,7,19,7C19.2652,7,19.5196,7.10536,19.7071,7.29289C19.7071,7.29289,21.1213,5.87868,21.1213,5.87868C21.1213,5.87868,21.1213,5.87868,21.1213,5.87868ZM19,5C19,5,5,5,5,5C5,5,5,7,5,7C5,7,19,7,19,7C19,7,19,5,19,5C19,5,19,5,19,5ZM5,5C4.20435,5,3.44128901,5.31607002,2.87868,5.87868C2.87868,5.87868,4.29289,7.29289,4.29289,7.29289C4.48043,7.10536,4.73478,7,5,7C5,7,5,5,5,5C5,5,5,5,5,5ZM2.87868,5.87868C2.3160700199999997,6.44128901,2,7.20435,2,8C2,8,4,8,4,8C4,7.73478,4.10536,7.48043,4.29289,7.29289C4.29289,7.29289,2.87868,5.87868,2.87868,5.87868C2.87868,5.87868,2.87868,5.87868,2.87868,5.87868ZM2,8C2,8,2,16,2,16C2,16,4,16,4,16C4,16,4,8,4,8C4,8,2,8,2,8C2,8,2,8,2,8ZM2,16C2,16.7956,2.3160700199999997,17.5587,2.87868,18.121299999999998C2.87868,18.121299999999998,4.29289,16.7071,4.29289,16.7071C4.10536,16.5196,4,16.2652,4,16C4,16,2,16,2,16C2,16,2,16,2,16ZM2.87868,18.121299999999998C3.44128799,18.6839,4.20435,19,5,19C5,19,5,17,5,17C4.73478,17,4.48043,16.8946,4.29289,16.7071C4.29289,16.7071,2.87868,18.121299999999998,2.87868,18.121299999999998C2.87868,18.121299999999998,2.87868,18.121299999999998,2.87868,18.121299999999998Z" fill="#0A0A28" fill-opacity="1"/></g></svg>