<svg xmlns="http://www.w3.org/2000/svg" xmlns:xlink="http://www.w3.org/1999/xlink" fill="none" version="1.1" width="24" height="24" viewBox="0 0 24 24"><defs><clipPath id="master_svg0_3_1686"><rect x="0" y="0" width="24" height="24" rx="0"/></clipPath></defs><g clip-path="url(#master_svg0_3_1686)"><path d="M6.0000245140625,4.800048828125C5.0452444140625,4.800048828125,4.1295725140625,5.179334048125,3.4544405140625,5.854464928125C2.7793096340625,6.529596928125,2.400024414062501,7.445268828125,2.4000244140625,8.400048928124999C2.4000244140625,8.400048928124999,2.4000244140625,15.600048828125,2.4000244140625,15.600048828125C2.400024414062501,16.554828828125,2.7793096340625,17.470488828125,3.4544405140625,18.145608828125C4.1295725140625,18.820728828125,5.0452444140625,19.200049828125,6.0000245140625,19.200049828125C6.0000245140625,19.200049828125,18.0000244140625,19.200049828125,18.0000244140625,19.200049828125C18.9547444140625,19.200049828125,19.8704644140625,18.820728828125,20.5455854140625,18.145608828125C21.2207054140625,17.470488828125,21.6000254140625,16.554828828125,21.6000254140625,15.600048828125C21.6000254140625,15.600048828125,21.6000254140625,8.400048928124999,21.6000254140625,8.400048928124999C21.6000254140625,7.445268828125,21.2207054140625,6.529596928125,20.5455854140625,5.854464928125C19.8704644140625,5.179334048125,18.9547444140625,4.800048828125001,18.0000244140625,4.800048828125C18.0000244140625,4.800048828125,6.0000245140625,4.800048828125,6.0000245140625,4.800048828125C6.0000245140625,4.800048828125,6.0000245140625,4.800048828125,6.0000245140625,4.800048828125ZM4.8000245140625,15.600048828125C4.8000245140625,15.600048828125,4.8000245140625,14.400049228125,4.8000245140625,14.400049228125C4.8000245140625,14.400049228125,10.8000250140625,14.400049228125,10.8000250140625,14.400049228125C10.8000250140625,14.400049228125,10.8000250140625,16.800048828125,10.8000250140625,16.800048828125C10.8000250140625,16.800048828125,6.0000245140625,16.800048828125,6.0000245140625,16.800048828125C5.6817605140625,16.800048828125,5.3765404140625,16.673617828125,5.1514926140625,16.448581828125C4.9264564140625,16.223533828125,4.8000245140625,15.918312828125,4.8000245140625,15.600048828125C4.8000245140625,15.600048828125,4.8000245140625,15.600048828125,4.8000245140625,15.600048828125ZM13.2000244140625,16.800048828125C13.2000244140625,16.800048828125,18.0000244140625,16.800048828125,18.0000244140625,16.800048828125C18.318265414062502,16.800048828125,18.6235444140625,16.673617828125,18.8485454140625,16.448581828125C19.0735454140625,16.223533828125,19.2000254140625,15.918312828125,19.2000254140625,15.600048828125C19.2000254140625,15.600048828125,19.2000254140625,14.400049228125,19.2000254140625,14.400049228125C19.2000254140625,14.400049228125,13.2000244140625,14.400049228125,13.2000244140625,14.400049228125C13.2000244140625,14.400049228125,13.2000244140625,16.800048828125,13.2000244140625,16.800048828125C13.2000244140625,16.800048828125,13.2000244140625,16.800048828125,13.2000244140625,16.800048828125ZM13.2000244140625,12.000049128125C13.2000244140625,12.000049128125,19.2000254140625,12.000049128125,19.2000254140625,12.000049128125C19.2000254140625,12.000049128125,19.2000254140625,9.600049028125,19.2000254140625,9.600049028125C19.2000254140625,9.600049028125,13.2000244140625,9.600049028125,13.2000244140625,9.600049028125C13.2000244140625,9.600049028125,13.2000244140625,12.000049128125,13.2000244140625,12.000049128125C13.2000244140625,12.000049128125,13.2000244140625,12.000049128125,13.2000244140625,12.000049128125ZM10.8000250140625,9.600049028125C10.8000250140625,9.600049028125,4.8000245140625,9.600049028125,4.8000245140625,9.600049028125C4.8000245140625,9.600049028125,4.8000245140625,12.000049128125,4.8000245140625,12.000049128125C4.8000245140625,12.000049128125,10.8000250140625,12.000049128125,10.8000250140625,12.000049128125C10.8000250140625,12.000049128125,10.8000250140625,9.600049028125,10.8000250140625,9.600049028125C10.8000250140625,9.600049028125,10.8000250140625,9.600049028125,10.8000250140625,9.600049028125Z" fill-rule="evenodd" fill="#0A0A28" fill-opacity="1"/></g></svg>