<svg xmlns="http://www.w3.org/2000/svg" xmlns:xlink="http://www.w3.org/1999/xlink" fill="none" version="1.1" width="24" height="24" viewBox="0 0 24 24"><defs><clipPath id="master_svg0_3_2174"><rect x="0" y="0" width="24" height="24" rx="0"/></clipPath></defs><g clip-path="url(#master_svg0_3_2174)"><path d="M6.999999046325684,6C6.447719146325683,6,5.999999046325684,6.4477201,5.999999046325684,7C5.999999046325684,7.5522799,6.447719146325683,8,6.999999046325684,8C6.999999046325684,8,6.999999046325684,6,6.999999046325684,6C6.999999046325684,6,6.999999046325684,6,6.999999046325684,6ZM7.009999246325684,8C7.562289246325683,8,8.009999246325684,7.5522799,8.009999246325684,7C8.009999246325684,6.4477201,7.562289246325683,6,7.009999246325684,6C7.009999246325684,6,7.009999246325684,8,7.009999246325684,8C7.009999246325684,8,7.009999246325684,8,7.009999246325684,8ZM6.999999046325684,3C6.999999046325684,3,6.999999046325684,2,6.999999046325684,2C6.999999046325684,2,6.999999046325684,3,6.999999046325684,3C6.999999046325684,3,6.999999046325684,3,6.999999046325684,3ZM13.413999046325683,3.58600003C13.413999046325683,3.58600003,12.705988846325683,4.2922,12.705988846325683,4.2922C12.705988846325683,4.2922,12.706889146325684,4.29311,12.706889146325684,4.29311C12.706889146325684,4.29311,13.413999046325683,3.58600003,13.413999046325683,3.58600003C13.413999046325683,3.58600003,13.413999046325683,3.58600003,13.413999046325683,3.58600003ZM20.413999046325685,10.586C20.413999046325685,10.586,21.121200046325683,9.8790002,21.121200046325683,9.8790002C21.121200046325683,9.8790002,21.121098046325685,9.87889,21.121098046325685,9.87889C21.121098046325685,9.87889,20.413999046325685,10.586,20.413999046325685,10.586C20.413999046325685,10.586,20.413999046325685,10.586,20.413999046325685,10.586ZM20.413999046325685,13.414C20.413999046325685,13.414,21.121098046325685,14.1211,21.121098046325685,14.1211C21.121098046325685,14.1211,21.121200046325683,14.121,21.121200046325683,14.121C21.121200046325683,14.121,20.413999046325685,13.414,20.413999046325685,13.414C20.413999046325685,13.414,20.413999046325685,13.414,20.413999046325685,13.414ZM13.413999046325683,20.414C13.413999046325683,20.414,14.120999046325684,21.121201,14.120999046325684,21.121201C14.120999046325684,21.121201,14.121099046325684,21.121099,14.121099046325684,21.121099C14.121099046325684,21.121099,13.413999046325683,20.414,13.413999046325683,20.414C13.413999046325683,20.414,13.413999046325683,20.414,13.413999046325683,20.414ZM10.585999046325684,20.414C10.585999046325684,20.414,9.878889046325684,21.121099,9.878889046325684,21.121099C9.878889046325684,21.121099,9.878999246325684,21.121201,9.878999246325684,21.121201C9.878999246325684,21.121201,10.585999046325684,20.414,10.585999046325684,20.414C10.585999046325684,20.414,10.585999046325684,20.414,10.585999046325684,20.414ZM3.5860000263256837,13.414C3.5860000263256837,13.414,4.293109046325684,12.7068901,4.293109046325684,12.7068901C4.293109046325684,12.7068901,4.292119046325683,12.7059002,4.292119046325683,12.7059002C4.292119046325683,12.7059002,3.5860000263256837,13.414,3.5860000263256837,13.414C3.5860000263256837,13.414,3.5860000263256837,13.414,3.5860000263256837,13.414ZM3.0000001103556837,12C3.0000001103556837,12,3.9999990463256836,12.00103,3.9999990463256836,12.00103C3.9999990463256836,12.00103,3.9999990463256836,12,3.9999990463256836,12C3.9999990463256836,12,3.0000001103556837,12,3.0000001103556837,12C3.0000001103556837,12,3.0000001103556837,12,3.0000001103556837,12ZM6.999999046325684,8C6.999999046325684,8,7.009999246325684,8,7.009999246325684,8C7.009999246325684,8,7.009999246325684,6,7.009999246325684,6C7.009999246325684,6,6.999999046325684,6,6.999999046325684,6C6.999999046325684,6,6.999999046325684,8,6.999999046325684,8C6.999999046325684,8,6.999999046325684,8,6.999999046325684,8ZM6.999999046325684,4C6.999999046325684,4,11.999999046325684,4,11.999999046325684,4C11.999999046325684,4,11.999999046325684,2,11.999999046325684,2C11.999999046325684,2,6.999999046325684,2,6.999999046325684,2C6.999999046325684,2,6.999999046325684,4,6.999999046325684,4C6.999999046325684,4,6.999999046325684,4,6.999999046325684,4ZM11.999999046325684,4C12.258138646325683,4,12.511769246325684,4.0974900000000005,12.705988846325683,4.2922C12.705988846325683,4.2922,14.121999046325683,2.879799,14.121999046325683,2.879799C13.536199046325683,2.29251301,12.765858646325684,2,11.999999046325684,2C11.999999046325684,2,11.999999046325684,4,11.999999046325684,4C11.999999046325684,4,11.999999046325684,4,11.999999046325684,4ZM12.706889146325684,4.29311C12.706889146325684,4.29311,19.706899046325685,11.2931099,19.706899046325685,11.2931099C19.706899046325685,11.2931099,21.121098046325685,9.87889,21.121098046325685,9.87889C21.121098046325685,9.87889,14.121099046325684,2.878893,14.121099046325684,2.878893C14.121099046325684,2.878893,12.706889146325684,4.29311,12.706889146325684,4.29311C12.706889146325684,4.29311,12.706889146325684,4.29311,12.706889146325684,4.29311ZM19.706799046325685,11.2930002C19.894299046325685,11.4805298,19.999598046325683,11.7348404,19.999598046325683,12C19.999598046325683,12,21.999598046325683,12,21.999598046325683,12C21.999598046325683,11.2045097,21.683598046325685,10.4415798,21.121200046325683,9.8790002C21.121200046325683,9.8790002,19.706799046325685,11.2930002,19.706799046325685,11.2930002C19.706799046325685,11.2930002,19.706799046325685,11.2930002,19.706799046325685,11.2930002ZM19.999598046325683,12C19.999598046325683,12.2651596,19.894299046325685,12.5194702,19.706799046325685,12.7069998C19.706799046325685,12.7069998,21.121200046325683,14.121,21.121200046325683,14.121C21.683598046325685,13.5584,21.999598046325683,12.7954903,21.999598046325683,12C21.999598046325683,12,19.999598046325683,12,19.999598046325683,12C19.999598046325683,12,19.999598046325683,12,19.999598046325683,12ZM19.706899046325685,12.7068901C19.706899046325685,12.7068901,12.706889146325684,19.7069,12.706889146325684,19.7069C12.706889146325684,19.7069,14.121099046325684,21.121099,14.121099046325684,21.121099C14.121099046325684,21.121099,21.121098046325685,14.1211,21.121098046325685,14.1211C21.121098046325685,14.1211,19.706899046325685,12.7068901,19.706899046325685,12.7068901C19.706899046325685,12.7068901,19.706899046325685,12.7068901,19.706899046325685,12.7068901ZM12.706998846325684,19.7068C12.519469246325684,19.8943,12.265158646325684,19.999599,11.999999046325684,19.999599C11.999999046325684,19.999599,11.999999046325684,21.999599,11.999999046325684,21.999599C12.795489346325684,21.999599,13.558399046325684,21.683599,14.120999046325684,21.121201C14.120999046325684,21.121201,12.706998846325684,19.7068,12.706998846325684,19.7068C12.706998846325684,19.7068,12.706998846325684,19.7068,12.706998846325684,19.7068ZM11.999999046325684,19.999599C11.734839446325683,19.999599,11.480528846325683,19.8943,11.292999246325683,19.7068C11.292999246325683,19.7068,9.878999246325684,21.121201,9.878999246325684,21.121201C10.441578846325683,21.683599,11.204508746325683,21.999599,11.999999046325684,21.999599C11.999999046325684,21.999599,11.999999046325684,19.999599,11.999999046325684,19.999599C11.999999046325684,19.999599,11.999999046325684,19.999599,11.999999046325684,19.999599ZM11.293108946325683,19.7069C11.293108946325683,19.7069,4.293109046325684,12.7068901,4.293109046325684,12.7068901C4.293109046325684,12.7068901,2.8788930463256834,14.1211,2.8788930463256834,14.1211C2.8788930463256834,14.1211,9.878889046325684,21.121099,9.878889046325684,21.121099C9.878889046325684,21.121099,11.293108946325683,19.7069,11.293108946325683,19.7069C11.293108946325683,19.7069,11.293108946325683,19.7069,11.293108946325683,19.7069ZM4.292119046325683,12.7059002C4.199398946325683,12.6134501,4.125859046325684,12.5035801,4.075729046325684,12.3826199C4.075729046325684,12.3826199,2.2281130563256837,13.1483,2.2281130563256837,13.1483C2.3791110563256836,13.5127,2.6006090363256837,13.8436,2.8798820463256836,14.1221C2.8798820463256836,14.1221,4.292119046325683,12.7059002,4.292119046325683,12.7059002C4.292119046325683,12.7059002,4.292119046325683,12.7059002,4.292119046325683,12.7059002ZM4.075729046325684,12.3826199C4.025599046325683,12.2616501,3.9998640463256834,12.1319704,3.9999990463256836,12.00103C3.9999990463256836,12.00103,2.0000010763256837,11.99897,2.0000010763256837,11.99897C1.9995890463256836,12.3933697,2.0771150563256837,12.7839699,2.2281130563256837,13.1483C2.2281130563256837,13.1483,4.075729046325684,12.3826199,4.075729046325684,12.3826199C4.075729046325684,12.3826199,4.075729046325684,12.3826199,4.075729046325684,12.3826199ZM3.9999990463256836,12C3.9999990463256836,12,3.9999990463256836,7,3.9999990463256836,7C3.9999990463256836,7,2.0000000563256837,7,2.0000000563256837,7C2.0000000563256837,7,2.0000000563256837,12,2.0000000563256837,12C2.0000000563256837,12,3.9999990463256836,12,3.9999990463256836,12C3.9999990463256836,12,3.9999990463256836,12,3.9999990463256836,12ZM3.9999990463256836,7C3.9999990463256836,6.20435,4.3160690463256834,5.4412899,4.878679046325684,4.87868C4.878679046325684,4.87868,3.4644660363256836,3.4644660099999998,3.4644660363256836,3.4644660099999998C2.5267840363256835,4.40215,2.0000000563256837,5.6739199,2.0000000563256837,7C2.0000000563256837,7,3.9999990463256836,7,3.9999990463256836,7C3.9999990463256836,7,3.9999990463256836,7,3.9999990463256836,7ZM4.878679046325684,4.87868C5.441288946325684,4.31607,6.204349046325683,4,6.999999046325684,4C6.999999046325684,4,6.999999046325684,2,6.999999046325684,2C5.673918946325683,2,4.402149046325683,2.526784,3.4644660363256836,3.4644660099999998C3.4644660363256836,3.4644660099999998,4.878679046325684,4.87868,4.878679046325684,4.87868C4.878679046325684,4.87868,4.878679046325684,4.87868,4.878679046325684,4.87868Z" fill="#0A0A28" fill-opacity="1"/></g></svg>