<svg xmlns="http://www.w3.org/2000/svg" xmlns:xlink="http://www.w3.org/1999/xlink" fill="none" version="1.1" width="24" height="24" viewBox="0 0 24 24"><defs><clipPath id="master_svg0_3_2218"><rect x="0" y="0" width="24" height="24" rx="0"/></clipPath></defs><g clip-path="url(#master_svg0_3_2218)"><path d="M21.2484244140625,11.1516247140625C21.4734244140625,11.3766603140625,21.5997844140625,11.6818323140625,21.5997844140625,12.0000248140625C21.5997844140625,12.3182163140625,21.4734244140625,12.6233894140625,21.2484244140625,12.8484244140625C21.2484244140625,12.8484244140625,12.8484244140625,21.2484244140625,12.8484244140625,21.2484244140625C12.6233894140625,21.4734244140625,12.3182287140625,21.5997844140625,12.0000248140625,21.5997844140625C11.6818323140625,21.5997844140625,11.3766603140625,21.4734244140625,11.1516247140625,21.2484244140625C11.1516247140625,21.2484244140625,2.7516256240625,12.8484244140625,2.7516256240625,12.8484244140625C2.6400268240624998,12.7371364140625,2.5515172140625,12.6048964140625,2.4911783340625,12.4593004140625C2.4308398160625,12.3137054140625,2.3998622448525,12.1576328140625,2.40002505248293,12.0000248140625C2.40002505248293,12.0000248140625,2.40002505248293,6.0000245140625,2.40002505248293,6.0000245140625C2.40002505248293,5.0452444140625,2.7793096340625,4.1295725140625,3.4544405140625,3.4544405140625C4.1295725140625,2.7793096340625,5.0452444140625,2.400024414062501,6.0000245140625,2.4000244140625C6.0000245140625,2.4000244140625,12.0000248140625,2.4000244140625,12.0000248140625,2.4000244140625C12.3072243140625,2.4000244140625,12.6144244140625,2.5176244140625,12.8484244140625,2.7516244340625002C12.8484244140625,2.7516244340625002,21.2484244140625,11.1516247140625,21.2484244140625,11.1516247140625C21.2484244140625,11.1516247140625,21.2484244140625,11.1516247140625,21.2484244140625,11.1516247140625ZM6.0000245140625,7.2000246140625C6.318288614062499,7.2000246140625,6.6235089140625,7.0735926140625,6.8485565140625,6.8485565140625C7.0735926140625,6.6235089140625,7.2000246140625,6.318288614062499,7.2000246140625,6.0000245140625C7.2000246140625,5.6817605140625,7.0735926140625,5.3765404140625,6.8485565140625,5.1514926140625C6.6235089140625,4.9264564140625,6.318288614062499,4.8000245140625,6.0000245140625,4.8000245140625C5.6817605140625,4.8000245140625,5.3765404140625,4.9264564140625,5.1514926140625,5.1514926140625C4.9264564140625,5.3765404140625,4.8000245140625,5.6817605140625,4.8000245140625,6.0000245140625C4.8000245140625,6.318288614062499,4.9264564140625,6.6235089140625,5.1514926140625,6.8485565140625C5.3765404140625,7.0735926140625,5.6817605140625,7.2000246140625,6.0000245140625,7.2000246140625C6.0000245140625,7.2000246140625,6.0000245140625,7.2000246140625,6.0000245140625,7.2000246140625Z" fill-rule="evenodd" fill="#0A0A28" fill-opacity="1"/></g></svg>