<svg xmlns="http://www.w3.org/2000/svg" xmlns:xlink="http://www.w3.org/1999/xlink" fill="none" version="1.1" width="24" height="24" viewBox="0 0 24 24"><defs><clipPath id="master_svg0_3_1555"><rect x="0" y="0" width="24" height="24" rx="0"/></clipPath></defs><g clip-path="url(#master_svg0_3_1555)"><path d="M3.5999755859375,4.7999755859375C3.5999755859375,4.4817164559375,3.7264039959375,4.1764916159375,3.9514471859375,3.9514471859375C4.1764916159375,3.7264039959375,4.4817164559375,3.5999755859375004,4.7999755859375,3.5999755859375C4.7999755859375,3.5999755859375,19.1999755859375,3.5999755859375,19.1999755859375,3.5999755859375C19.518216585937502,3.5999755859375004,19.8234955859375,3.7264039959375,20.0484965859375,3.9514471859375C20.2734965859375,4.1764916159375,20.3999765859375,4.4817164559375,20.3999765859375,4.7999755859375C20.3999765859375,4.7999755859375,20.3999765859375,7.1999756859375,20.3999765859375,7.1999756859375C20.3999765859375,7.518239785937499,20.2734965859375,7.8234600859375,20.0484965859375,8.048507685937501C19.8234955859375,8.2735437859375,19.518216585937502,8.3999757859375,19.1999755859375,8.3999757859375C19.1999755859375,8.3999757859375,4.7999755859375,8.3999757859375,4.7999755859375,8.3999757859375C4.4817164559375,8.3999757859375,4.1764916159375,8.2735437859375,3.9514471859375,8.048507685937501C3.7264039959375,7.8234600859375,3.5999755859375004,7.518239785937499,3.5999755859375,7.1999756859375C3.5999755859375,7.1999756859375,3.5999755859375,4.7999755859375,3.5999755859375,4.7999755859375C3.5999755859375,4.7999755859375,3.5999755859375,4.7999755859375,3.5999755859375,4.7999755859375ZM3.5999755859375,11.9999761859375C3.5999755859375,11.6817121859375,3.7264039959375,11.3764919859375,3.9514471859375,11.151443985937501C4.1764916159375,10.9264077859375,4.4817164559375,10.7999758859375,4.7999755859375,10.7999758859375C4.7999755859375,10.7999758859375,11.9999761859375,10.7999758859375,11.9999761859375,10.7999758859375C12.3182401859375,10.7999758859375,12.6234597859375,10.9264077859375,12.8485078859375,11.151443985937501C13.0735435859375,11.3764919859375,13.1999759859375,11.6817121859375,13.1999759859375,11.9999761859375C13.1999759859375,11.9999761859375,13.1999759859375,19.1999755859375,13.1999759859375,19.1999755859375C13.1999759859375,19.518216585937502,13.0735435859375,19.8234955859375,12.8485078859375,20.0484965859375C12.6234597859375,20.2734965859375,12.3182401859375,20.3999765859375,11.9999761859375,20.3999765859375C11.9999761859375,20.3999765859375,4.7999755859375,20.3999765859375,4.7999755859375,20.3999765859375C4.4817164559375,20.3999765859375,4.1764916159375,20.2734965859375,3.9514471859375,20.0484965859375C3.7264039959375,19.8234955859375,3.5999755859375004,19.518216585937502,3.5999755859375,19.1999755859375C3.5999755859375,19.1999755859375,3.5999755859375,11.9999761859375,3.5999755859375,11.9999761859375C3.5999755859375,11.9999761859375,3.5999755859375,11.9999761859375,3.5999755859375,11.9999761859375ZM16.7999765859375,10.7999758859375C16.481736585937497,10.7999758859375,16.1764565859375,10.9264077859375,15.9514555859375,11.151443985937501C15.7264565859375,11.3764919859375,15.5999755859375,11.6817121859375,15.5999755859375,11.9999761859375C15.5999755859375,11.9999761859375,15.5999755859375,19.1999755859375,15.5999755859375,19.1999755859375C15.5999755859375,19.518216585937502,15.7264565859375,19.8234955859375,15.9514555859375,20.0484965859375C16.1764565859375,20.2734965859375,16.481736585937497,20.3999765859375,16.7999765859375,20.3999765859375C16.7999765859375,20.3999765859375,19.1999755859375,20.3999765859375,19.1999755859375,20.3999765859375C19.518216585937502,20.3999765859375,19.8234955859375,20.2734965859375,20.0484965859375,20.0484965859375C20.2734965859375,19.8234955859375,20.3999765859375,19.518216585937502,20.3999765859375,19.1999755859375C20.3999765859375,19.1999755859375,20.3999765859375,11.9999761859375,20.3999765859375,11.9999761859375C20.3999765859375,11.6817121859375,20.2734965859375,11.3764919859375,20.0484965859375,11.151443985937501C19.8234955859375,10.9264077859375,19.518216585937502,10.7999758859375,19.1999755859375,10.7999758859375C19.1999755859375,10.7999758859375,16.7999765859375,10.7999758859375,16.7999765859375,10.7999758859375C16.7999765859375,10.7999758859375,16.7999765859375,10.7999758859375,16.7999765859375,10.7999758859375Z" fill="#0A0A28" fill-opacity="1"/></g></svg>