<svg xmlns="http://www.w3.org/2000/svg" xmlns:xlink="http://www.w3.org/1999/xlink" fill="none" version="1.1" width="24" height="24" viewBox="0 0 24 24"><defs><clipPath id="master_svg0_3_2216"><rect x="0" y="0" width="24" height="24" rx="0"/></clipPath></defs><g clip-path="url(#master_svg0_3_2216)"><path d="M5,4C5,4,5,5,5,5C5,5,5,4,5,4C5,4,5,4,5,4ZM5,5C5,5,5,5,5,5C5,5,3.585787,3.585787,3.585787,3.585787C3.21071398,3.9608589,3,4.4695659899999995,3,5C3,5,5,5,5,5C5,5,5,5,5,5ZM5,5C5,5,5,5,5,5C5,5,5,3,5,3C4.4695659899999995,3,3.9608589,3.21071398,3.585787,3.585787C3.585787,3.585787,5,5,5,5C5,5,5,5,5,5ZM5,5C5,5,19,5,19,5C19,5,19,3,19,3C19,3,5,3,5,3C5,3,5,5,5,5C5,5,5,5,5,5ZM19,5C19,5,19,5,19,5C19,5,20.4142,3.585787,20.4142,3.585787C20.039101,3.21071398,19.5304,3,19,3C19,3,19,5,19,5C19,5,19,5,19,5ZM19,5C19,5,19,5,19,5C19,5,21,5,21,5C21,4.469569,20.789301,3.960860599,20.4142,3.585787C20.4142,3.585787,19,5,19,5C19,5,19,5,19,5ZM19,5C19,5,19,7,19,7C19,7,21,7,21,7C21,7,21,5,21,5C21,5,19,5,19,5C19,5,19,5,19,5ZM19,7C19,7,19,7,19,7C19,7,20.4142,8.4142098,20.4142,8.4142098C20.789301,8.0391402,21,7.5304301,21,7C21,7,19,7,19,7C19,7,19,7,19,7ZM19,7C19,7,19,7,19,7C19,7,19,9,19,9C19.5304,9,20.039101,8.789290000000001,20.4142,8.4142098C20.4142,8.4142098,19,7,19,7C19,7,19,7,19,7ZM19,7C19,7,5,7,5,7C5,7,5,9,5,9C5,9,19,9,19,9C19,9,19,7,19,7C19,7,19,7,19,7ZM5,7C5,7,5,7,5,7C5,7,3.585787,8.4142098,3.585787,8.4142098C3.9608589,8.789290000000001,4.4695659899999995,9,5,9C5,9,5,7,5,7C5,7,5,7,5,7ZM5,7C5,7,5,7,5,7C5,7,3,7,3,7C3,7.5304301,3.21071398,8.0391402,3.585787,8.4142098C3.585787,8.4142098,5,7,5,7C5,7,5,7,5,7ZM5,7C5,7,5,5,5,5C5,5,3,5,3,5C3,5,3,7,3,7C3,7,5,7,5,7C5,7,5,7,5,7ZM5,13C5,13,5,13,5,13C5,13,3.585787,11.5857902,3.585787,11.5857902C3.21071398,11.9608598,3,12.4695702,3,13C3,13,5,13,5,13C5,13,5,13,5,13ZM5,13C5,13,5,13,5,13C5,13,5,11,5,11C4.4695659899999995,11,3.9608589,11.210709999999999,3.585787,11.5857902C3.585787,11.5857902,5,13,5,13C5,13,5,13,5,13ZM5,13C5,13,11,13,11,13C11,13,11,11,11,11C11,11,5,11,5,11C5,11,5,13,5,13C5,13,5,13,5,13ZM11,13C11,13,11,13,11,13C11,13,12.4142103,11.5857902,12.4142103,11.5857902C12.0391397,11.210709999999999,11.5304298,11,11,11C11,11,11,13,11,13C11,13,11,13,11,13ZM11,13C11,13,11,13,11,13C11,13,13,13,13,13C13,12.4695702,12.7892904,11.9608598,12.4142103,11.5857902C12.4142103,11.5857902,11,13,11,13C11,13,11,13,11,13ZM11,13C11,13,11,19,11,19C11,19,13,19,13,19C13,19,13,13,13,13C13,13,11,13,11,13C11,13,11,13,11,13ZM11,19C11,19,11,19,11,19C11,19,12.4142103,20.4142,12.4142103,20.4142C12.7892904,20.039101,13,19.5304,13,19C13,19,11,19,11,19C11,19,11,19,11,19ZM11,19C11,19,11,19,11,19C11,19,11,21,11,21C11.5304298,21,12.0391397,20.789301,12.4142103,20.4142C12.4142103,20.4142,11,19,11,19C11,19,11,19,11,19ZM11,19C11,19,5,19,5,19C5,19,5,21,5,21C5,21,11,21,11,21C11,21,11,19,11,19C11,19,11,19,11,19ZM5,19C5,19,5,19,5,19C5,19,3.585787,20.4142,3.585787,20.4142C3.960860599,20.789301,4.469569,21,5,21C5,21,5,19,5,19C5,19,5,19,5,19ZM5,19C5,19,5,19,5,19C5,19,3,19,3,19C3,19.5304,3.21071398,20.039101,3.585787,20.4142C3.585787,20.4142,5,19,5,19C5,19,5,19,5,19ZM5,19C5,19,5,13,5,13C5,13,3,13,3,13C3,13,3,19,3,19C3,19,5,19,5,19C5,19,5,19,5,19ZM17,13C17,13,17,13,17,13C17,13,15.5858,11.5857902,15.5858,11.5857902C15.2107,11.9608598,15,12.4695702,15,13C15,13,17,13,17,13C17,13,17,13,17,13ZM17,13C17,13,17,13,17,13C17,13,17,11,17,11C16.4696,11,15.9609,11.210709999999999,15.5858,11.5857902C15.5858,11.5857902,17,13,17,13C17,13,17,13,17,13ZM17,13C17,13,19,13,19,13C19,13,19,11,19,11C19,11,17,11,17,11C17,11,17,13,17,13C17,13,17,13,17,13ZM19,13C19,13,19,13,19,13C19,13,20.4142,11.5857902,20.4142,11.5857902C20.039101,11.210709999999999,19.5304,11,19,11C19,11,19,13,19,13C19,13,19,13,19,13ZM19,13C19,13,19,13,19,13C19,13,21,13,21,13C21,12.4695702,20.789301,11.9608598,20.4142,11.5857902C20.4142,11.5857902,19,13,19,13C19,13,19,13,19,13ZM19,13C19,13,19,19,19,19C19,19,21,19,21,19C21,19,21,13,21,13C21,13,19,13,19,13C19,13,19,13,19,13ZM19,19C19,19,19,19,19,19C19,19,20.4142,20.4142,20.4142,20.4142C20.789301,20.039101,21,19.5304,21,19C21,19,19,19,19,19C19,19,19,19,19,19ZM19,19C19,19,19,19,19,19C19,19,19,21,19,21C19.5304,21,20.039101,20.789301,20.4142,20.4142C20.4142,20.4142,19,19,19,19C19,19,19,19,19,19ZM19,19C19,19,17,19,17,19C17,19,17,21,17,21C17,21,19,21,19,21C19,21,19,19,19,19C19,19,19,19,19,19ZM17,19C17,19,17,19,17,19C17,19,15.5858,20.4142,15.5858,20.4142C15.9609,20.789301,16.4696,21,17,21C17,21,17,19,17,19C17,19,17,19,17,19ZM17,19C17,19,17,19,17,19C17,19,15,19,15,19C15,19.5304,15.2107,20.039101,15.5858,20.4142C15.5858,20.4142,17,19,17,19C17,19,17,19,17,19ZM17,19C17,19,17,13,17,13C17,13,15,13,15,13C15,13,15,19,15,19C15,19,17,19,17,19C17,19,17,19,17,19Z" fill="#0A0A28" fill-opacity="1"/></g></svg>