<svg xmlns="http://www.w3.org/2000/svg" xmlns:xlink="http://www.w3.org/1999/xlink" fill="none" version="1.1" width="24" height="24" viewBox="0 0 24 24"><defs><clipPath id="master_svg0_3_1648"><rect x="0" y="0" width="24" height="24" rx="0"/></clipPath></defs><g clip-path="url(#master_svg0_3_1648)"><path d="M2.4000244140625,5.9999756859375C2.4000244140624996,5.3634596859375,2.6528812340625,4.7530064859375,3.1029676240625,4.3029187959375C3.5530553140625,3.8528324059375,4.1635085140625,3.5999755859375004,4.8000245140625,3.5999755859375C4.8000245140625,3.5999755859375,19.2000254140625,3.5999755859375,19.2000254140625,3.5999755859375C19.8365054140625,3.5999755859375004,20.4469454140625,3.8528324059375,20.8970644140625,4.3029187959375C21.3471854140625,4.7530064859375,21.6000254140625,5.3634596859375,21.6000254140625,5.9999756859375C21.6000254140625,5.9999756859375,21.6000254140625,17.9999765859375,21.6000254140625,17.9999765859375C21.6000254140625,18.636456585937502,21.3471854140625,19.2468955859375,20.8970644140625,19.6970155859375C20.4469454140625,20.1471365859375,19.8365054140625,20.3999765859375,19.2000254140625,20.3999765859375C19.2000254140625,20.3999765859375,4.8000245140625,20.3999765859375,4.8000245140625,20.3999765859375C4.1635085140625,20.3999765859375,3.5530553140625,20.1471365859375,3.1029676240625,19.6970155859375C2.6528812340625,19.2468955859375,2.4000244140625004,18.636456585937502,2.4000244140625,17.9999765859375C2.4000244140625,17.9999765859375,2.4000244140625,5.9999756859375,2.4000244140625,5.9999756859375C2.4000244140625,5.9999756859375,2.4000244140625,5.9999756859375,2.4000244140625,5.9999756859375ZM6.3516245140625,7.5515756859375C6.5766606140625,7.3266117859375,6.8818326140625,7.2002277859375,7.2000246140625,7.2002277859375C7.5182166140625,7.2002277859375,7.8233890140625,7.3266117859375,8.0484242140625,7.5515756859375C8.0484242140625,7.5515756859375,11.6484241140625,11.1515760859375,11.6484241140625,11.1515760859375C11.8733892140625,11.376611685937501,11.9997730140625,11.6817836859375,11.9997730140625,11.9999761859375C11.9997730140625,12.3181676859375,11.8733892140625,12.6233405859375,11.6484241140625,12.8483752859375C11.6484241140625,12.8483752859375,8.0484242140625,16.448375585937498,8.0484242140625,16.448375585937498C7.8221049140625,16.6670155859375,7.5189848140625,16.7879765859375,7.2043447140625,16.785216585937498C6.8897047140625,16.7824565859375,6.5887327140625,16.6562165859375,6.3662407140625,16.433736585937503C6.1437485140625,16.211256585937498,6.0175445140625,15.9102965859375,6.0148206140625,15.5956555859375C6.0120847140625,15.2810155859375,6.1330325140625,14.9778955859375,6.3516245140625,14.7515765859375C6.3516245140625,14.7515765859375,9.103224714062499,11.9999761859375,9.103224714062499,11.9999761859375C9.103224714062499,11.9999761859375,6.3516245140625,9.2483753859375,6.3516245140625,9.2483753859375C6.1266606140625,9.0233401859375,6.0002766140625,8.7181677859375,6.0002766140625,8.3999757859375C6.0002766140625,8.0817837859375,6.1266606140625,7.7766117859375,6.3516245140625,7.5515756859375C6.3516245140625,7.5515756859375,6.3516245140625,7.5515756859375,6.3516245140625,7.5515756859375C6.3516245140625,7.5515756859375,6.3516245140625,7.5515756859375,6.3516245140625,7.5515756859375ZM13.2000244140625,14.3999755859375C12.8817614140625,14.3999755859375,12.5765404140625,14.5264085859375,12.3514919140625,14.7514435859375C12.1264572140625,14.9764915859375,12.0000248140625,15.2817125859375,12.0000248140625,15.5999755859375C12.0000248140625,15.9182155859375,12.1264572140625,16.2234965859375,12.3514919140625,16.4484955859375C12.5765404140625,16.6734965859375,12.8817614140625,16.7999765859375,13.2000244140625,16.7999765859375C13.2000244140625,16.7999765859375,16.8000254140625,16.7999765859375,16.8000254140625,16.7999765859375C17.1182644140625,16.7999765859375,17.423544414062498,16.6734965859375,17.6485454140625,16.4484955859375C17.8735444140625,16.2234965859375,18.0000244140625,15.9182155859375,18.0000244140625,15.5999755859375C18.0000244140625,15.2817125859375,17.8735444140625,14.9764915859375,17.6485454140625,14.7514435859375C17.423544414062498,14.5264085859375,17.1182644140625,14.3999755859375,16.8000254140625,14.3999755859375C16.8000254140625,14.3999755859375,13.2000244140625,14.3999755859375,13.2000244140625,14.3999755859375C13.2000244140625,14.3999755859375,13.2000244140625,14.3999755859375,13.2000244140625,14.3999755859375Z" fill-rule="evenodd" fill="#0A0A28" fill-opacity="1"/></g></svg>