<svg xmlns="http://www.w3.org/2000/svg" xmlns:xlink="http://www.w3.org/1999/xlink" fill="none" version="1.1" width="24" height="24" viewBox="0 0 24 24"><defs><clipPath id="master_svg0_3_1975"><rect x="0" y="0" width="24" height="24" rx="0"/></clipPath></defs><g clip-path="url(#master_svg0_3_1975)"><path d="M8.707109899999999,8.292890100000001C8.3165798,7.9023699999999995,7.6834202,7.9023699999999995,7.2928901,8.292890100000001C6.9023699999999995,8.6834202,6.9023699999999995,9.3165798,7.2928901,9.707109899999999C7.2928901,9.707109899999999,8.707109899999999,8.292890100000001,8.707109899999999,8.292890100000001C8.707109899999999,8.292890100000001,8.707109899999999,8.292890100000001,8.707109899999999,8.292890100000001ZM11,12C11,12,11.7071104,12.7071104,11.7071104,12.7071104C12.0976295,12.3165798,12.0976295,11.6834202,11.7071104,11.292890100000001C11.7071104,11.292890100000001,11,12,11,12C11,12,11,12,11,12ZM7.2928901,14.2929C6.9023699999999995,14.6834,6.9023699999999995,15.3166,7.2928901,15.7071C7.6834202,16.0976,8.3165798,16.0976,8.707109899999999,15.7071C8.707109899999999,15.7071,7.2928901,14.2929,7.2928901,14.2929C7.2928901,14.2929,7.2928901,14.2929,7.2928901,14.2929ZM13,14C12.44771,14,12,14.4477,12,15C12,15.5523,12.44771,16,13,16C13,16,13,14,13,14C13,14,13,14,13,14ZM16,16C16.552300000000002,16,17,15.5523,17,15C17,14.4477,16.552300000000002,14,16,14C16,14,16,16,16,16C16,16,16,16,16,16ZM19,4C19,4,19,3,19,3C19,3,19,4,19,4C19,4,19,4,19,4ZM5,4C5,4,5,3,5,3C5,3,5,4,5,4C5,4,5,4,5,4ZM3,6C3,6,2,6,2,6C2,6,3,6,3,6C3,6,3,6,3,6ZM3,18C3,18,2,18,2,18C2,18,3,18,3,18C3,18,3,18,3,18ZM7.2928901,9.707109899999999C7.2928901,9.707109899999999,10.292890100000001,12.7071104,10.292890100000001,12.7071104C10.292890100000001,12.7071104,11.7071104,11.292890100000001,11.7071104,11.292890100000001C11.7071104,11.292890100000001,8.707109899999999,8.292890100000001,8.707109899999999,8.292890100000001C8.707109899999999,8.292890100000001,7.2928901,9.707109899999999,7.2928901,9.707109899999999C7.2928901,9.707109899999999,7.2928901,9.707109899999999,7.2928901,9.707109899999999ZM10.292890100000001,11.292890100000001C10.292890100000001,11.292890100000001,7.2928901,14.2929,7.2928901,14.2929C7.2928901,14.2929,8.707109899999999,15.7071,8.707109899999999,15.7071C8.707109899999999,15.7071,11.7071104,12.7071104,11.7071104,12.7071104C11.7071104,12.7071104,10.292890100000001,11.292890100000001,10.292890100000001,11.292890100000001C10.292890100000001,11.292890100000001,10.292890100000001,11.292890100000001,10.292890100000001,11.292890100000001ZM13,16C13,16,16,16,16,16C16,16,16,14,16,14C16,14,13,14,13,14C13,14,13,16,13,16C13,16,13,16,13,16ZM5,21C5,21,19,21,19,21C19,21,19,19,19,19C19,19,5,19,5,19C5,19,5,21,5,21C5,21,5,21,5,21ZM19,21C19.7957,21,20.558701,20.683901,21.1213,20.1213C21.1213,20.1213,19.7071,18.7071,19.7071,18.7071C19.5196,18.8946,19.2652,19,19,19C19,19,19,21,19,21C19,21,19,21,19,21ZM21.1213,20.1213C21.683901,19.5587,22,18.7957,22,18C22,18,20,18,20,18C20,18.2652,19.8946,18.5196,19.7071,18.7071C19.7071,18.7071,21.1213,20.1213,21.1213,20.1213C21.1213,20.1213,21.1213,20.1213,21.1213,20.1213ZM22,18C22,18,22,6,22,6C22,6,20,6,20,6C20,6,20,18,20,18C20,18,22,18,22,18C22,18,22,18,22,18ZM22,6C22,5.20435,21.683901,4.44128799,21.1213,3.87868C21.1213,3.87868,19.7071,5.29289,19.7071,5.29289C19.8946,5.48043,20,5.73478,20,6C20,6,22,6,22,6C22,6,22,6,22,6ZM21.1213,3.87868C20.558701,3.3160700199999997,19.7957,3,19,3C19,3,19,5,19,5C19.2652,5,19.5196,5.10536,19.7071,5.29289C19.7071,5.29289,21.1213,3.87868,21.1213,3.87868C21.1213,3.87868,21.1213,3.87868,21.1213,3.87868ZM19,3C19,3,5,3,5,3C5,3,5,5,5,5C5,5,19,5,19,5C19,5,19,3,19,3C19,3,19,3,19,3ZM5,3C4.20435,3,3.44128901,3.3160700199999997,2.87868,3.87868C2.87868,3.87868,4.29289,5.29289,4.29289,5.29289C4.48043,5.10536,4.73478,5,5,5C5,5,5,3,5,3C5,3,5,3,5,3ZM2.87868,3.87868C2.3160700199999997,4.44128901,2,5.20435,2,6C2,6,4,6,4,6C4,5.73478,4.10536,5.48043,4.29289,5.29289C4.29289,5.29289,2.87868,3.87868,2.87868,3.87868C2.87868,3.87868,2.87868,3.87868,2.87868,3.87868ZM2,6C2,6,2,18,2,18C2,18,4,18,4,18C4,18,4,6,4,6C4,6,2,6,2,6C2,6,2,6,2,6ZM2,18C2,18.7956,2.3160700199999997,19.5587,2.87868,20.1213C2.87868,20.1213,4.29289,18.7071,4.29289,18.7071C4.10536,18.5196,4,18.2652,4,18C4,18,2,18,2,18C2,18,2,18,2,18ZM2.87868,20.1213C3.44128799,20.683901,4.20435,21,5,21C5,21,5,19,5,19C4.73478,19,4.48043,18.8946,4.29289,18.7071C4.29289,18.7071,2.87868,20.1213,2.87868,20.1213C2.87868,20.1213,2.87868,20.1213,2.87868,20.1213Z" fill="#0A0A28" fill-opacity="1"/></g></svg>