<svg xmlns="http://www.w3.org/2000/svg" xmlns:xlink="http://www.w3.org/1999/xlink" fill="none" version="1.1" width="24" height="24" viewBox="0 0 24 24"><defs><clipPath id="master_svg0_3_2143"><rect x="0" y="0" width="24" height="24" rx="0"/></clipPath></defs><g clip-path="url(#master_svg0_3_2143)"><path d="M18.764,10C18.764,10,18.764,9,18.764,9C18.764,9,18.764,9,18.764,9C18.764,9,18.764,10,18.764,10C18.764,10,18.764,10,18.764,10ZM20.552999,12.8940001C20.552999,12.8940001,21.447399,13.3412,21.447399,13.3412C21.447399,13.3412,21.4475,13.341,21.4475,13.341C21.4475,13.341,20.552999,12.8940001,20.552999,12.8940001C20.552999,12.8940001,20.552999,12.8940001,20.552999,12.8940001ZM17.053,19.893999C17.053,19.893999,16.1586,19.4468,16.1586,19.4468C16.1586,19.4468,16.1585,19.447001,16.1585,19.447001C16.1585,19.447001,17.053,19.893999,17.053,19.893999C17.053,19.893999,17.053,19.893999,17.053,19.893999ZM15.263,21C15.263,21,15.2635,20,15.2635,20C15.2635,20,15.263,20,15.263,20C15.263,20,15.263,21,15.263,21C15.263,21,15.263,21,15.263,21ZM10.7610002,20.940001C10.7610002,20.940001,11.0049696,19.9702,11.0049696,19.9702C11.0049696,19.9702,11.00348,19.969801,11.00348,19.969801C11.00348,19.969801,10.7610002,20.940001,10.7610002,20.940001C10.7610002,20.940001,10.7610002,20.940001,10.7610002,20.940001ZM12,3C12,3,12,2,12,2C12,2,12,3,12,3C12,3,12,3,12,3ZM10.3920002,5.911C10.3920002,5.911,9.5605998,5.35533,9.5605998,5.35533C9.5605998,5.35533,9.5598998,5.35637,9.5598998,5.35637C9.5598998,5.35637,10.3920002,5.911,10.3920002,5.911C10.3920002,5.911,10.3920002,5.911,10.3920002,5.911ZM7,11C7,11,6.167900100000001,10.445380199999999,6.167900100000001,10.445380199999999C6.0584199000000005,10.6096301,6,10.8026099,6,11C6,11,7,11,7,11C7,11,7,11,7,11ZM12,9C11.44771,9,11,9.4477201,11,10C11,10.5522799,11.44771,11,12,11C12,11,12,9,12,9C12,9,12,9,12,9ZM3,18C3,18,2,18,2,18C2,18,3,18,3,18C3,18,3,18,3,18ZM5,10C5,10,5,11,5,11C5,11,5,10,5,10C5,10,5,10,5,10ZM7.5,11C8.0522799,11,8.5,10.5522799,8.5,10C8.5,9.4477201,8.0522799,9,7.5,9C7.5,9,7.5,11,7.5,11C7.5,11,7.5,11,7.5,11ZM14,11C14,11,18.764,11,18.764,11C18.764,11,18.764,9,18.764,9C18.764,9,14,9,14,9C14,9,14,11,14,11C14,11,14,11,14,11ZM18.764,11C18.9344,11.0000095,19.101999,11.0435696,19.2509,11.1265602C19.2509,11.1265602,20.224701,9.3796802,20.224701,9.3796802C19.778099,9.1307201,19.275299,9.00002,18.764,9C18.764,9,18.764,11,18.764,11C18.764,11,18.764,11,18.764,11ZM19.2509,11.1265602C19.3997,11.2095499,19.5249,11.3292103,19.6145,11.4741802C19.6145,11.4741802,21.315701,10.4225402,21.315701,10.4225402C21.0469,9.9876299,20.671301,9.6286502,20.224701,9.3796802C20.224701,9.3796802,19.2509,11.1265602,19.2509,11.1265602C19.2509,11.1265602,19.2509,11.1265602,19.2509,11.1265602ZM19.6145,11.4741802C19.7041,11.6191502,19.755199,11.7846203,19.762899,11.9548798C19.762899,11.9548798,21.7609,11.8646402,21.7609,11.8646402C21.737801,11.3538599,21.5846,10.85745,21.315701,10.4225402C21.315701,10.4225402,19.6145,11.4741802,19.6145,11.4741802C19.6145,11.4741802,19.6145,11.4741802,19.6145,11.4741802ZM19.762899,11.9548798C19.770599,12.1251402,19.7346,12.2945404,19.658501,12.4469995C19.658501,12.4469995,21.4475,13.341,21.4475,13.341C21.6761,12.8836298,21.783899,12.3754301,21.7609,11.8646402C21.7609,11.8646402,19.762899,11.9548798,19.762899,11.9548798C19.762899,11.9548798,19.762899,11.9548798,19.762899,11.9548798ZM19.6586,12.4467897C19.6586,12.4467897,16.1586,19.4468,16.1586,19.4468C16.1586,19.4468,17.947400000000002,20.3412,17.947400000000002,20.3412C17.947400000000002,20.3412,21.447399,13.3412,21.447399,13.3412C21.447399,13.3412,19.6586,12.4467897,19.6586,12.4467897C19.6586,12.4467897,19.6586,12.4467897,19.6586,12.4467897ZM16.1585,19.447001C16.075400000000002,19.613199,15.9477,19.753,15.7896,19.8507C15.7896,19.8507,16.8408,21.552099,16.8408,21.552099C17.3151,21.2591,17.6983,20.839701,17.947499999999998,20.341C17.947499999999998,20.341,16.1585,19.447001,16.1585,19.447001C16.1585,19.447001,16.1585,19.447001,16.1585,19.447001ZM15.7896,19.8507C15.6315,19.9484,15.4493,20.000099,15.2635,20C15.2635,20,15.2625,22,15.2625,22C15.82,22.000299,16.3666,21.8452,16.8408,21.552099C16.8408,21.552099,15.7896,19.8507,15.7896,19.8507C15.7896,19.8507,15.7896,19.8507,15.7896,19.8507ZM15.263,20C15.263,20,11.2460003,20,11.2460003,20C11.2460003,20,11.2460003,22,11.2460003,22C11.2460003,22,15.263,22,15.263,22C15.263,22,15.263,20,15.263,20C15.263,20,15.263,20,15.263,20ZM11.2460003,20C11.1647196,20,11.0836802,19.99,11.0049696,19.9702C11.0049696,19.9702,10.5170298,21.9098,10.5170298,21.9098C10.75631,21.969999,11.0012798,22,11.2460003,22C11.2460003,22,11.2460003,20,11.2460003,20C11.2460003,20,11.2460003,20,11.2460003,20ZM11.00348,19.969801C11.00348,19.969801,7.2424798,19.0298,7.2424798,19.0298C7.2424798,19.0298,6.7575199999999995,20.9702,6.7575199999999995,20.9702C6.7575199999999995,20.9702,10.518519900000001,21.9102,10.518519900000001,21.9102C10.518519900000001,21.9102,11.00348,19.969801,11.00348,19.969801C11.00348,19.969801,11.00348,19.969801,11.00348,19.969801ZM15,10C15,10,15,5,15,5C15,5,13,5,13,5C13,5,13,10,13,10C13,10,15,10,15,10C15,10,15,10,15,10ZM15,5C15,4.20435,14.6839,3.44128799,14.1213,2.87868C14.1213,2.87868,12.7071104,4.29289,12.7071104,4.29289C12.89464,4.48043,13,4.73478,13,5C13,5,15,5,15,5C15,5,15,5,15,5ZM14.1213,2.87868C13.5587,2.3160700199999997,12.7956495,2,12,2C12,2,12,4,12,4C12.2652197,4,12.5195704,4.10536,12.7071104,4.29289C12.7071104,4.29289,14.1213,2.87868,14.1213,2.87868C14.1213,2.87868,14.1213,2.87868,14.1213,2.87868ZM12,2C12,2,11.9049997,2,11.9049997,2C11.9049997,2,11.9049997,4,11.9049997,4C11.9049997,4,12,4,12,4C12,4,12,2,12,2C12,2,12,2,12,2ZM11.9049997,2C10.8527098,2,10,2.852716,10,3.90499997C10,3.90499997,12,3.90499997,12,3.90499997C12,3.9572839699999998,11.9572802,4,11.9049997,4C11.9049997,4,11.9049997,2,11.9049997,2C11.9049997,2,11.9049997,2,11.9049997,2ZM10,3.90499997C10,4.42185,9.8473001,4.92636,9.5605998,5.35533C9.5605998,5.35533,11.2234001,6.466670000000001,11.2234001,6.466670000000001C11.7306995,5.7076399,12,4.81615,12,3.90499997C12,3.90499997,10,3.90499997,10,3.90499997C10,3.90499997,10,3.90499997,10,3.90499997ZM9.5598998,5.35637C9.5598998,5.35637,6.167900100000001,10.445380199999999,6.167900100000001,10.445380199999999C6.167900100000001,10.445380199999999,7.8320999,11.5546198,7.8320999,11.5546198C7.8320999,11.5546198,11.2241001,6.4656199999999995,11.2241001,6.4656199999999995C11.2241001,6.4656199999999995,9.5598998,5.35637,9.5598998,5.35637C9.5598998,5.35637,9.5598998,5.35637,9.5598998,5.35637ZM6,11C6,11,6,20,6,20C6,20,8,20,8,20C8,20,8,11,8,11C8,11,6,11,6,11C6,11,6,11,6,11ZM14,9C14,9,12,9,12,9C12,9,12,11,12,11C12,11,14,11,14,11C14,11,14,9,14,9C14,9,14,9,14,9ZM7,19C7,19,5,19,5,19C5,19,5,21,5,21C5,21,7,21,7,21C7,21,7,19,7,19C7,19,7,19,7,19ZM5,19C4.73478,19,4.48043,18.8946,4.29289,18.7071C4.29289,18.7071,2.87868,20.1213,2.87868,20.1213C3.44128799,20.683901,4.20435,21,5,21C5,21,5,19,5,19C5,19,5,19,5,19ZM4.29289,18.7071C4.10536,18.5196,4,18.2652,4,18C4,18,2,18,2,18C2,18.7956,2.3160700199999997,19.558701,2.87868,20.1213C2.87868,20.1213,4.29289,18.7071,4.29289,18.7071C4.29289,18.7071,4.29289,18.7071,4.29289,18.7071ZM4,18C4,18,4,12,4,12C4,12,2,12,2,12C2,12,2,18,2,18C2,18,4,18,4,18C4,18,4,18,4,18ZM4,12C4,11.7347803,4.10536,11.4804296,4.29289,11.2928896C4.29289,11.2928896,2.87868,9.8786802,2.87868,9.8786802C2.3160700199999997,10.441289900000001,2,11.2043505,2,12C2,12,4,12,4,12C4,12,4,12,4,12ZM4.29289,11.2928896C4.48043,11.10536,4.73478,11,5,11C5,11,5,9,5,9C4.20435,9,3.44128799,9.316070100000001,2.87868,9.8786802C2.87868,9.8786802,4.29289,11.2928896,4.29289,11.2928896C4.29289,11.2928896,4.29289,11.2928896,4.29289,11.2928896ZM5,11C5,11,7.5,11,7.5,11C7.5,11,7.5,9,7.5,9C7.5,9,5,9,5,9C5,9,5,11,5,11C5,11,5,11,5,11Z" fill="#0A0A28" fill-opacity="1"/></g></svg>