<svg xmlns="http://www.w3.org/2000/svg" xmlns:xlink="http://www.w3.org/1999/xlink" fill="none" version="1.1" width="24" height="24" viewBox="0 0 24 24"><defs><clipPath id="master_svg0_3_1451"><rect x="0" y="0" width="24" height="24" rx="0"/></clipPath></defs><g clip-path="url(#master_svg0_3_1451)"><path d="M21.60002298828125,11.4000244140625C21.60002298828125,11.8774204140625,21.41042298828125,12.3352566140625,21.07286498828125,12.6728174140625C20.73518398828125,13.0103774140625,20.27738398828125,13.2000244140625,19.80002398828125,13.2000244140625C19.32266398828125,13.2000244140625,18.86474298828125,13.0103774140625,18.52718398828125,12.6728174140625C18.18962298828125,12.3352566140625,18.000022988281252,11.8774204140625,18.000022988281252,11.4000244140625C18.000022988281252,11.4000244140625,18.000022988281252,4.2000245140625,18.000022988281252,4.2000245140625C18.000022988281252,3.7226405140625003,18.18962298828125,3.2647984640625,18.52718398828125,2.9272324440625C18.86474298828125,2.5896676140625,19.32266398828125,2.40002486176093,19.80002398828125,2.40002486176093C20.27738398828125,2.40002486176093,20.73518398828125,2.5896676140625,21.07286498828125,2.9272324440625C21.41042298828125,3.2647984640625,21.60002298828125,3.7226405140625003,21.60002298828125,4.2000245140625C21.60002298828125,4.2000245140625,21.60002298828125,11.4000244140625,21.60002298828125,11.4000244140625C21.60002298828125,11.4000244140625,21.60002298828125,11.4000244140625,21.60002298828125,11.4000244140625ZM16.80002298828125,11.6004248140625C16.80002298828125,11.6004248140625,16.80002298828125,5.0844245140624995,16.80002298828125,5.0844245140624995C16.80038398828125,4.6385524140625005,16.67642298828125,4.2014165140625,16.44218398828125,3.8220125140625C16.20806398828125,3.4426085140625,15.87278398828125,3.1359520540625,15.47402398828125,2.9364244340625C15.47402398828125,2.9364244340625,15.41402298828125,2.9064244040625002,15.41402298828125,2.9064244040625002C14.74706398828125,2.5730848140625,14.01163098828125,2.3997028572525,13.26601198828125,2.40002486176093C13.26601198828125,2.40002486176093,6.76801108828125,2.40002486176093,6.76801108828125,2.40002486176093C6.21297528828125,2.3998050192625,5.67502688828125,2.5919668240625002,5.24575118828125,2.9437924040625C4.81646298828125,3.2956180540625,4.52240308828125,3.7853525140624997,4.41361108828125,4.3296245140625C4.41361108828125,4.3296245140625,2.97361363128125,11.5296249140625,2.97361363128125,11.5296249140625C2.90400594828125,11.8778772140625,2.91255378828125,12.2372417140625,2.99864047028125,12.5817854140625C3.08472738828125,12.9263404140625,3.24620660828125,13.2474844140625,3.47143339828125,13.5220814140625C3.69666021828125,13.7966654140625,3.9800185882812498,14.0178494140625,4.3010749882812505,14.1696604140625C4.62212298828125,14.3214854140625,4.97287108828125,14.4001454140625,5.32801128828125,14.4000244140625C5.32801128828125,14.4000244140625,9.60001138828125,14.4000244140625,9.60001138828125,14.4000244140625C9.60001138828125,14.4000244140625,9.60001138828125,19.2000254140625,9.60001138828125,19.2000254140625C9.60001138828125,19.8365054140625,9.85287518828125,20.4469454140625,10.30295948828125,20.8970644140625C10.75304318828125,21.3471854140625,11.36349578828125,21.6000254140625,12.00001148828125,21.6000254140625C12.31827548828125,21.6000254140625,12.62349608828125,21.4735454140625,12.84854408828125,21.2485444140625C13.07357998828125,21.0235444140625,13.20001098828125,20.7182654140625,13.20001098828125,20.4000244140625C13.20001098828125,20.4000244140625,13.20001098828125,19.5996244140625,13.20001098828125,19.5996244140625C13.20001098828125,18.5610254140625,13.53686298828125,17.5505044140625,14.16001098828125,16.7196244140625C14.16001098828125,16.7196244140625,15.84002398828125,14.4804254140625,15.84002398828125,14.4804254140625C16.46318298828125,13.6495694140625,16.80002298828125,12.6390004140625,16.80002298828125,11.6004248140625C16.80002298828125,11.6004248140625,16.80002298828125,11.6004248140625,16.80002298828125,11.6004248140625C16.80002298828125,11.6004248140625,16.80002298828125,11.6004248140625,16.80002298828125,11.6004248140625Z" fill="#0A0A28" fill-opacity="1"/></g></svg>