<svg xmlns="http://www.w3.org/2000/svg" xmlns:xlink="http://www.w3.org/1999/xlink" fill="none" version="1.1" width="24" height="24" viewBox="0 0 24 24"><defs><clipPath id="master_svg0_3_1481"><rect x="0" y="0" width="24" height="24" rx="0"/></clipPath></defs><g clip-path="url(#master_svg0_3_1481)"><path d="M2.3999938964843754,12.6000254140625C2.399993892962051,12.3636484140625,2.446552339484375,12.1295767140625,2.537011106484375,11.9111891140625C2.627469506484375,11.6928129140625,2.760056286484375,11.4943809140625,2.927201926484375,11.3272333140625C3.094347536484375,11.1600847140625,3.292777116484375,11.0274963140625,3.511163996484375,10.9370413140625C3.729545996484375,10.8465843140625,3.963617896484375,10.8000250140625,4.199993996484375,10.8000250140625C4.436369896484376,10.8000250140625,4.670442096484376,10.8465843140625,4.888829996484375,10.9370413140625C5.107206096484375,11.0274963140625,5.305638096484374,11.1600847140625,5.472785996484375,11.3272333140625C5.6399340964843745,11.4943809140625,5.772522196484375,11.6928129140625,5.862977996484375,11.9111891140625C5.9534339964843745,12.1295767140625,5.999993996484375,12.3636484140625,5.999993996484375,12.6000254140625C5.999993996484375,12.6000254140625,5.999993996484375,19.8000264140625,5.999993996484375,19.8000264140625C5.999993996484375,20.2773854140625,5.810345896484375,20.7353054140625,5.472785996484375,21.0728664140625C5.135225996484375,21.4104254140625,4.677377896484375,21.6000254140625,4.199993996484375,21.6000254140625C3.7226099964843753,21.6000254140625,3.264766756484375,21.4104254140625,2.927201926484375,21.0728664140625C2.589635896484375,20.7353054140625,2.3999939035980353,20.2773854140625,2.3999938964843754,19.8000264140625C2.3999938964843754,19.8000264140625,2.3999938964843754,12.6000254140625,2.3999938964843754,12.6000254140625C2.3999938964843754,12.6000254140625,2.3999938964843754,12.6000254140625,2.3999938964843754,12.6000254140625ZM7.199994096484375,12.3996248140625C7.199994096484375,12.3996248140625,7.199994096484375,18.9156244140625,7.199994096484375,18.9156244140625C7.199789996484375,19.3616654140625,7.323858296484375,19.7988244140625,7.558290496484375,20.1782644140625C7.792721796484375,20.5577054140625,8.128230096484375,20.8643054140625,8.527193996484375,21.0636254140625C8.527193996484375,21.0636254140625,8.587194396484374,21.0936264140625,8.587194396484374,21.0936264140625C9.253061796484374,21.4263854140625,9.987198396484375,21.5997844140625,10.731594096484375,21.6000254140625C10.731594096484375,21.6000254140625,17.230794896484376,21.6000254140625,17.230794896484376,21.6000254140625C17.785793896484375,21.6002654140625,18.323753896484376,21.4080254140625,18.753114896484377,21.0563054140625C19.182353896484376,20.7044654140625,19.476354896484374,20.2147444140625,19.585195896484375,19.6704254140625C19.585195896484375,19.6704254140625,21.025193896484375,12.4704244140625,21.025193896484375,12.4704244140625C21.094794896484373,12.1222687140625,21.086274896484376,11.7630129140625,21.000234896484375,11.4185524140625C20.914193896484374,11.0740929140625,20.752793896484373,10.7530088140625,20.527793896484376,10.4784365140625C20.302672896484374,10.203877014062499,20.019475896484376,9.9826689140625,19.698594896484376,9.830772414062501C19.377593896484374,9.678864914062501,19.027074896484375,9.6000609140625,18.671994896484374,9.6000247140625C18.671994896484374,9.6000247140625,14.399993896484375,9.6000247140625,14.399993896484375,9.6000247140625C14.399993896484375,9.6000247140625,14.399993896484375,4.8000245140625,14.399993896484375,4.8000245140625C14.399993896484375,4.1635085140625,14.147142896484375,3.5530553140625,13.697045896484376,3.1029676240625C13.246961896484375,2.6528812340625,12.636509896484375,2.4000244140625004,11.999994296484376,2.4000244140625C11.681730296484375,2.4000244140625004,11.376510596484374,2.5264528240625,11.151462596484375,2.7514960140625C10.926425896484375,2.9765404440625,10.799994496484375,3.2817652840625,10.799994496484375,3.6000244140625C10.799994496484375,3.6000244140625,10.799994496484375,4.4004245140625,10.799994496484375,4.4004245140625C10.799994496484375,5.4390006140625005,10.463142396484375,6.4495687140625,9.839993996484374,7.2804246140625C9.839993996484374,7.2804246140625,8.159994096484375,9.5196247140625,8.159994096484375,9.5196247140625C7.536846196484375,10.3504805140625,7.199994096484375,11.3610487140625,7.199994096484375,12.3996248140625C7.199994096484375,12.3996248140625,7.199994096484375,12.3996248140625,7.199994096484375,12.3996248140625C7.199994096484375,12.3996248140625,7.199994096484375,12.3996248140625,7.199994096484375,12.3996248140625Z" fill="#0A0A28" fill-opacity="1"/></g></svg>