<svg xmlns="http://www.w3.org/2000/svg" xmlns:xlink="http://www.w3.org/1999/xlink" fill="none" version="1.1" width="24" height="24" viewBox="0 0 24 24"><defs><clipPath id="master_svg0_3_2226"><rect x="0" y="0" width="24" height="24" rx="0"/></clipPath></defs><g clip-path="url(#master_svg0_3_2226)"><path d="M5.235997533493042,14C5.235997533493042,14,5.235967533493042,15,5.235967533493042,15C5.235967533493042,15,5.235997533493042,15,5.235997533493042,15C5.235997533493042,15,5.235997533493042,14,5.235997533493042,14C5.235997533493042,14,5.235997533493042,14,5.235997533493042,14ZM3.446999533493042,11.1059999C3.446999533493042,11.1059999,2.552572543493042,10.658790100000001,2.552572543493042,10.658790100000001C2.552572543493042,10.658790100000001,2.5524665134930418,10.658999900000001,2.5524665134930418,10.658999900000001C2.5524665134930418,10.658999900000001,3.446999533493042,11.1059999,3.446999533493042,11.1059999C3.446999533493042,11.1059999,3.446999533493042,11.1059999,3.446999533493042,11.1059999ZM6.946997633493043,4.1059999000000005C6.946997633493043,4.1059999000000005,7.841427533493042,4.55321,7.841427533493042,4.55321C7.841427533493042,4.55321,7.841537733493042,4.553,7.841537733493042,4.553C7.841537733493042,4.553,6.946997633493043,4.1059999000000005,6.946997633493043,4.1059999000000005C6.946997633493043,4.1059999000000005,6.946997633493043,4.1059999000000005,6.946997633493043,4.1059999000000005ZM8.735997433493042,3C8.735997433493042,3,8.735997433493042,2,8.735997433493042,2C8.735997433493042,2,8.735967433493041,2,8.735967433493041,2C8.735967433493041,2,8.735997433493042,3,8.735997433493042,3C8.735997433493042,3,8.735997433493042,3,8.735997433493042,3ZM12.753997533493042,3C12.753997533493042,3,12.754607933493041,2,12.754607933493041,2C12.754607933493041,2,12.753997533493042,2,12.753997533493042,2C12.753997533493042,2,12.753997533493042,3,12.753997533493042,3C12.753997533493042,3,12.753997533493042,3,12.753997533493042,3ZM13.238967533493042,3.059999902C13.238967533493042,3.059999902,12.995898033493042,4.03,12.995898033493042,4.03C12.995898033493042,4.03,12.996467333493042,4.03014,12.996467333493042,4.03014C12.996467333493042,4.03014,13.238967533493042,3.059999902,13.238967533493042,3.059999902C13.238967533493042,3.059999902,13.238967533493042,3.059999902,13.238967533493042,3.059999902ZM10.998997433493042,14C10.998997433493042,13.4477,10.55128743349304,13,9.998997433493042,13C9.446717533493043,13,8.998997433493042,13.4477,8.998997433493042,14C8.998997433493042,14,10.998997433493042,14,10.998997433493042,14C10.998997433493042,14,10.998997433493042,14,10.998997433493042,14ZM13.607967533493042,18.088C13.607967533493042,18.088,14.439867533493041,18.643,14.439867533493041,18.643C14.439867533493041,18.643,14.440067533493043,18.642699999999998,14.440067533493043,18.642699999999998C14.440067533493043,18.642699999999998,13.607967533493042,18.088,13.607967533493042,18.088C13.607967533493042,18.088,13.607967533493042,18.088,13.607967533493042,18.088ZM16.99996753349304,13C16.99996753349304,13,17.832067533493042,13.5547,17.832067533493042,13.5547C17.941567533493043,13.3904,18.00006753349304,13.1974,17.99996753349304,12.9998903C17.99996753349304,12.9998903,16.99996753349304,13,16.99996753349304,13C16.99996753349304,13,16.99996753349304,13,16.99996753349304,13ZM11.999997833493042,15C12.552287833493041,15,12.999997833493042,14.5523,12.999997833493042,14C12.999997833493042,13.4477,12.552287833493041,13,11.999997833493042,13C11.999997833493042,13,11.999997833493042,15,11.999997833493042,15C11.999997833493042,15,11.999997833493042,15,11.999997833493042,15ZM18.99996753349304,4C18.99996753349304,4,18.99996753349304,3,18.99996753349304,3C18.99996753349304,3,18.99996753349304,4,18.99996753349304,4C18.99996753349304,4,18.99996753349304,4,18.99996753349304,4ZM16.49996753349304,13C15.947667533493043,13,15.499967533493042,13.4477,15.499967533493042,14C15.499967533493042,14.5523,15.947667533493043,15,16.49996753349304,15C16.49996753349304,15,16.49996753349304,13,16.49996753349304,13C16.49996753349304,13,16.49996753349304,13,16.49996753349304,13ZM9.999997333493042,13C9.999997333493042,13,5.235997533493042,13,5.235997533493042,13C5.235997533493042,13,5.235997533493042,15,5.235997533493042,15C5.235997533493042,15,9.999997333493042,15,9.999997333493042,15C9.999997333493042,15,9.999997333493042,13,9.999997333493042,13C9.999997333493042,13,9.999997333493042,13,9.999997333493042,13ZM5.236037533493042,13C5.065597533493042,12.9999905,4.897997533493042,12.9564304,4.749137533493042,12.8734398C4.749137533493042,12.8734398,3.775263543493042,14.6203,3.775263543493042,14.6203C4.221853553493042,14.8693,4.724667533493042,15,5.235967533493042,15C5.235967533493042,15,5.236037533493042,13,5.236037533493042,13C5.236037533493042,13,5.236037533493042,13,5.236037533493042,13ZM4.749137533493042,12.8734398C4.600267533493042,12.7904501,4.475087533493042,12.6707897,4.385467533493042,12.5258198C4.385467533493042,12.5258198,2.684276523493042,13.5775,2.684276523493042,13.5775C2.953128543493042,14.0124,3.328674532493042,14.3713,3.775263543493042,14.6203C3.775263543493042,14.6203,4.749137533493042,12.8734398,4.749137533493042,12.8734398C4.749137533493042,12.8734398,4.749137533493042,12.8734398,4.749137533493042,12.8734398ZM4.385467533493042,12.5258198C4.295857533493042,12.3808498,4.244777533493042,12.2153797,4.2370875334930425,12.0451202C4.2370875334930425,12.0451202,2.239122513493042,12.1353598,2.239122513493042,12.1353598C2.262192543493042,12.6461401,2.415425543493042,13.1425,2.684276523493042,13.5775C2.684276523493042,13.5775,4.385467533493042,12.5258198,4.385467533493042,12.5258198C4.385467533493042,12.5258198,4.385467533493042,12.5258198,4.385467533493042,12.5258198ZM4.2370875334930425,12.0451202C4.229396523493042,11.8748598,4.265347433493042,11.7054596,4.341537433493042,11.5530005C4.341537433493042,11.5530005,2.5524665134930418,10.658999900000001,2.5524665134930418,10.658999900000001C2.323914523493042,11.1163797,2.216057533493042,11.6245804,2.239122513493042,12.1353598C2.239122513493042,12.1353598,4.2370875334930425,12.0451202,4.2370875334930425,12.0451202C4.2370875334930425,12.0451202,4.2370875334930425,12.0451202,4.2370875334930425,12.0451202ZM4.341427533493042,11.5532103C4.341427533493042,11.5532103,7.841427533493042,4.55321,7.841427533493042,4.55321C7.841427533493042,4.55321,6.052577533493042,3.658786,6.052577533493042,3.658786C6.052577533493042,3.658786,2.552572543493042,10.658790100000001,2.552572543493042,10.658790100000001C2.552572543493042,10.658790100000001,4.341427533493042,11.5532103,4.341427533493042,11.5532103C4.341427533493042,11.5532103,4.341427533493042,11.5532103,4.341427533493042,11.5532103ZM7.841537733493042,4.553C7.924567433493042,4.38684,8.05222773349304,4.2471,8.210217733493042,4.14942C8.210217733493042,4.14942,7.158527633493042,2.44826299,7.158527633493042,2.44826299C6.684547433493043,2.74128601,6.301547533493042,3.16053,6.052467633493042,3.65899998C6.052467633493042,3.65899998,7.841537733493042,4.553,7.841537733493042,4.553C7.841537733493042,4.553,7.841537733493042,4.553,7.841537733493042,4.553ZM8.210217733493042,4.14942C8.368217733493042,4.0517499,8.55028753349304,4.00001,8.736037533493043,4C8.736037533493043,4,8.735967433493041,2,8.735967433493041,2C8.17872743349304,2.00001901,7.632507533493042,2.15523899,7.158527633493042,2.44826299C7.158527633493042,2.44826299,8.210217733493042,4.14942,8.210217733493042,4.14942C8.210217733493042,4.14942,8.210217733493042,4.14942,8.210217733493042,4.14942ZM8.735997433493042,4C8.735997433493042,4,12.753997533493042,4,12.753997533493042,4C12.753997533493042,4,12.753997533493042,2,12.753997533493042,2C12.753997533493042,2,8.735997433493042,2,8.735997433493042,2C8.735997433493042,2,8.735997433493042,4,8.735997433493042,4C8.735997433493042,4,8.735997433493042,4,8.735997433493042,4ZM12.753397733493042,4C12.835147633493042,4.0000499000000005,12.916587633493043,4.01012,12.995898033493042,4.03C12.995898033493042,4.03,13.482067533493042,2.08999997,13.482067533493042,2.08999997C13.244167533493043,2.03037399,12.999867233493042,2.00014901,12.754607933493041,2C12.754607933493041,2,12.753397733493042,4,12.753397733493042,4C12.753397733493042,4,12.753397733493042,4,12.753397733493042,4ZM12.996467333493042,4.03014C12.996467333493042,4.03014,16.756467533493044,4.97014,16.756467533493044,4.97014C16.756467533493044,4.97014,17.24156753349304,3.0298575,17.24156753349304,3.0298575C17.24156753349304,3.0298575,13.481567533493042,2.08985698,13.481567533493042,2.08985698C13.481567533493042,2.08985698,12.996467333493042,4.03014,12.996467333493042,4.03014C12.996467333493042,4.03014,12.996467333493042,4.03014,12.996467333493042,4.03014ZM8.998997433493042,14C8.998997433493042,14,8.998997433493042,19,8.998997433493042,19C8.998997433493042,19,10.998997433493042,19,10.998997433493042,19C10.998997433493042,19,10.998997433493042,14,10.998997433493042,14C10.998997433493042,14,8.998997433493042,14,8.998997433493042,14C8.998997433493042,14,8.998997433493042,14,8.998997433493042,14ZM8.998997433493042,19C8.998997433493042,19.7957,9.315067533493043,20.558701,9.877677633493043,21.1213C9.877677633493043,21.1213,11.291897533493042,19.7071,11.291897533493042,19.7071C11.104357433493043,19.5196,10.998997433493042,19.2652,10.998997433493042,19C10.998997433493042,19,8.998997433493042,19,8.998997433493042,19C8.998997433493042,19,8.998997433493042,19,8.998997433493042,19ZM9.877677633493043,21.1213C10.440287333493043,21.683901,11.203347433493043,22,11.998997433493042,22C11.998997433493042,22,11.998997433493042,20,11.998997433493042,20C11.733787333493042,20,11.479427133493042,19.8946,11.291897533493042,19.7071C11.291897533493042,19.7071,9.877677633493043,21.1213,9.877677633493043,21.1213C9.877677633493043,21.1213,9.877677633493043,21.1213,9.877677633493043,21.1213ZM11.998997433493042,22C11.998997433493042,22,12.094997133493042,22,12.094997133493042,22C12.094997133493042,22,12.094997133493042,20,12.094997133493042,20C12.094997133493042,20,11.998997433493042,20,11.998997433493042,20C11.998997433493042,20,11.998997433493042,22,11.998997433493042,22C11.998997433493042,22,11.998997433493042,22,11.998997433493042,22ZM12.094997133493042,22C13.146567133493042,22,13.999967533493042,21.148001,13.999967533493042,20.096001C13.999967533493042,20.096001,11.999997833493042,20.096001,11.999997833493042,20.096001C11.999997833493042,20.042,12.043437733493041,20,12.094997133493042,20C12.094997133493042,20,12.094997133493042,22,12.094997133493042,22C12.094997133493042,22,12.094997133493042,22,12.094997133493042,22ZM13.999967533493042,20.096001C13.999967533493042,19.5781,14.152667533493043,19.073299,14.439867533493041,18.643C14.439867533493041,18.643,12.776167633493042,17.533,12.776167633493042,17.533C12.269287833493042,18.2927,11.999997833493042,19.183901,11.999997833493042,20.096001C11.999997833493042,20.096001,13.999967533493042,20.096001,13.999967533493042,20.096001C13.999967533493042,20.096001,13.999967533493042,20.096001,13.999967533493042,20.096001ZM14.440067533493043,18.642699999999998C14.440067533493043,18.642699999999998,17.832067533493042,13.5547,17.832067533493042,13.5547C17.832067533493042,13.5547,16.16796753349304,12.4453001,16.16796753349304,12.4453001C16.16796753349304,12.4453001,12.775947333493042,17.5333,12.775947333493042,17.5333C12.775947333493042,17.5333,14.440067533493043,18.642699999999998,14.440067533493043,18.642699999999998C14.440067533493043,18.642699999999998,14.440067533493043,18.642699999999998,14.440067533493043,18.642699999999998ZM17.99996753349304,12.9998903C17.99996753349304,12.9998903,17.998967533493044,3.99988902,17.998967533493044,3.99988902C17.998967533493044,3.99988902,15.998967533493042,4.00011,15.998967533493042,4.00011C15.998967533493042,4.00011,15.999967533493042,13.0001,15.999967533493042,13.0001C15.999967533493042,13.0001,17.99996753349304,12.9998903,17.99996753349304,12.9998903C17.99996753349304,12.9998903,17.99996753349304,12.9998903,17.99996753349304,12.9998903ZM9.999997333493042,15C9.999997333493042,15,11.999997833493042,15,11.999997833493042,15C11.999997833493042,15,11.999997833493042,13,11.999997833493042,13C11.999997833493042,13,9.999997333493042,13,9.999997333493042,13C9.999997333493042,13,9.999997333493042,15,9.999997333493042,15C9.999997333493042,15,9.999997333493042,15,9.999997333493042,15ZM16.998967533493044,5C16.998967533493044,5,18.99996753349304,5,18.99996753349304,5C18.99996753349304,5,18.99996753349304,3,18.99996753349304,3C18.99996753349304,3,16.998967533493044,3,16.998967533493044,3C16.998967533493044,3,16.998967533493044,5,16.998967533493044,5C16.998967533493044,5,16.998967533493044,5,16.998967533493044,5ZM18.99996753349304,5C19.26526753349304,5,19.519568533493043,5.10536,19.707068533493043,5.2928901C19.707068533493043,5.2928901,21.121367533493043,3.87867999,21.121367533493043,3.87867999C20.558666533493042,3.31606999,19.795668533493043,3.0000000000000013,18.99996753349304,3C18.99996753349304,3,18.99996753349304,5,18.99996753349304,5C18.99996753349304,5,18.99996753349304,5,18.99996753349304,5ZM19.707068533493043,5.2928901C19.894667533493042,5.4804299,19.999968533493043,5.7347801,19.999968533493043,6C19.999968533493043,6,21.999968533493043,6,21.999968533493043,6C21.999968533493043,5.20435,21.683968533493044,4.44129,21.121367533493043,3.87867999C21.121367533493043,3.87867999,19.707068533493043,5.2928901,19.707068533493043,5.2928901C19.707068533493043,5.2928901,19.707068533493043,5.2928901,19.707068533493043,5.2928901ZM19.999968533493043,6C19.999968533493043,6,19.999968533493043,12,19.999968533493043,12C19.999968533493043,12,21.999968533493043,12,21.999968533493043,12C21.999968533493043,12,21.999968533493043,6,21.999968533493043,6C21.999968533493043,6,19.999968533493043,6,19.999968533493043,6C19.999968533493043,6,19.999968533493043,6,19.999968533493043,6ZM19.999968533493043,12C19.999968533493043,12.2652197,19.894667533493042,12.5195704,19.707068533493043,12.7071104C19.707068533493043,12.7071104,21.121367533493043,14.1213,21.121367533493043,14.1213C21.683968533493044,13.5587,21.999968533493043,12.7956495,21.999968533493043,12C21.999968533493043,12,19.999968533493043,12,19.999968533493043,12C19.999968533493043,12,19.999968533493043,12,19.999968533493043,12ZM19.707068533493043,12.7071104C19.519568533493043,12.89464,19.26516753349304,13,18.99996753349304,13C18.99996753349304,13,18.99996753349304,15,18.99996753349304,15C19.795668533493043,15,20.558666533493042,14.6839,21.121367533493043,14.1213C21.121367533493043,14.1213,19.707068533493043,12.7071104,19.707068533493043,12.7071104C19.707068533493043,12.7071104,19.707068533493043,12.7071104,19.707068533493043,12.7071104ZM18.99996753349304,13C18.99996753349304,13,16.49996753349304,13,16.49996753349304,13C16.49996753349304,13,16.49996753349304,15,16.49996753349304,15C16.49996753349304,15,18.99996753349304,15,18.99996753349304,15C18.99996753349304,15,18.99996753349304,13,18.99996753349304,13C18.99996753349304,13,18.99996753349304,13,18.99996753349304,13Z" fill="#0A0A28" fill-opacity="1"/></g></svg>