<svg xmlns="http://www.w3.org/2000/svg" xmlns:xlink="http://www.w3.org/1999/xlink" fill="none" version="1.1" width="24" height="24" viewBox="0 0 24 24"><defs><clipPath id="master_svg0_3_2285"><rect x="0" y="0" width="24" height="24" rx="0"/></clipPath></defs><g clip-path="url(#master_svg0_3_2285)"><path d="M16,5C16,4.44771498,15.5523,4,15,4C14.4477,4,14,4.44771498,14,5C14,5,16,5,16,5C16,5,16,5,16,5ZM14,7C14,7.5522799,14.4477,8,15,8C15.5523,8,16,7.5522799,16,7C16,7,14,7,14,7C14,7,14,7,14,7ZM16,11C16,10.4477201,15.5523,10,15,10C14.4477,10,14,10.4477201,14,11C14,11,16,11,16,11C16,11,16,11,16,11ZM14,13C14,13.55229,14.4477,14,15,14C15.5523,14,16,13.55229,16,13C16,13,14,13,14,13C14,13,14,13,14,13ZM16,17C16,16.447699999999998,15.5523,16,15,16C14.4477,16,14,16.447699999999998,14,17C14,17,16,17,16,17C16,17,16,17,16,17ZM14,19C14,19.552300000000002,14.4477,20,15,20C15.5523,20,16,19.552300000000002,16,19C16,19,14,19,14,19C14,19,14,19,14,19ZM5,5C5,5,5,4,5,4C5,4,5,5,5,5C5,5,5,5,5,5ZM3,7C3,7,2,7,2,7C2,7,3,7,3,7C3,7,3,7,3,7ZM3,10C3,10,2,10,2,10C2,10.5522799,2.4477149799999998,11,3.0000000000000004,11C3.0000000000000004,11,3,10,3,10C3,10,3,10,3,10ZM5,12C5,12,6,12,6,12C6,12,5,12,5,12C5,12,5,12,5,12ZM3,14C3,14,3,13,3,13C2.4477149799999998,13,2,13.44771,2,14C2,14,3,14,3,14C3,14,3,14,3,14ZM3,17C3,17,2,17,2,17C2,17,3,17,3,17C3,17,3,17,3,17ZM21,14C21,14,22,14,22,14C22,13.44771,21.552299,13,21,13C21,13,21,14,21,14C21,14,21,14,21,14ZM21,10C21,10,21,11,21,11C21.2652,11,21.5196,10.894639999999999,21.7071,10.707109899999999C21.8946,10.5195699,22,10.2652202,22,10C22,10,21,10,21,10C21,10,21,10,21,10ZM19,5C19,5,19,4,19,4C19,4,19,5,19,5C19,5,19,5,19,5ZM14,5C14,5,14,7,14,7C14,7,16,7,16,7C16,7,16,5,16,5C16,5,14,5,14,5C14,5,14,5,14,5ZM14,11C14,11,14,13,14,13C14,13,16,13,16,13C16,13,16,11,16,11C16,11,14,11,14,11C14,11,14,11,14,11ZM14,17C14,17,14,19,14,19C14,19,16,19,16,19C16,19,16,17,16,17C16,17,14,17,14,17C14,17,14,17,14,17ZM5,4C4.20435,4,3.44128901,4.31607002,2.87868,4.87868C2.87868,4.87868,4.29289,6.29289,4.29289,6.29289C4.48043,6.10536,4.73478,6,5,6C5,6,5,4,5,4C5,4,5,4,5,4ZM2.87868,4.87868C2.3160700199999997,5.44128901,2,6.20435,2,7C2,7,4,7,4,7C4,6.73478,4.10536,6.48043,4.29289,6.29289C4.29289,6.29289,2.87868,4.87868,2.87868,4.87868C2.87868,4.87868,2.87868,4.87868,2.87868,4.87868ZM2,7C2,7,2,10,2,10C2,10,4,10,4,10C4,10,4,7,4,7C4,7,2,7,2,7C2,7,2,7,2,7ZM3,11C3.26521599,11,3.51956999,11.105360000000001,3.70710701,11.292890100000001C3.70710701,11.292890100000001,5.12132,9.8786802,5.12132,9.8786802C4.55871,9.316070100000001,3.79565001,9,3,9C3,9,3,11,3,11C3,11,3,11,3,11ZM3.70710701,11.292890100000001C3.8946430100000002,11.4804301,4,11.7347798,4,12C4,12,6,12,6,12C6,11.20435,5.6839299,10.441289900000001,5.12132,9.8786802C5.12132,9.8786802,3.70710701,11.292890100000001,3.70710701,11.292890100000001C3.70710701,11.292890100000001,3.70710701,11.292890100000001,3.70710701,11.292890100000001ZM4,12C4,12.2652202,3.8946430100000002,12.5195699,3.70710701,12.707109899999999C3.70710701,12.707109899999999,5.12132,14.1213198,5.12132,14.1213198C5.6839299,13.5587101,6,12.79565,6,12C6,12,4,12,4,12C4,12,4,12,4,12ZM3.70710701,12.707109899999999C3.51956999,12.894639999999999,3.26521599,13,3,13C3,13,3,15,3,15C3.79565001,15,4.55871,14.6839304,5.12132,14.1213198C5.12132,14.1213198,3.70710701,12.707109899999999,3.70710701,12.707109899999999C3.70710701,12.707109899999999,3.70710701,12.707109899999999,3.70710701,12.707109899999999ZM2,14C2,14,2,17,2,17C2,17,4,17,4,17C4,17,4,14,4,14C4,14,2,14,2,14C2,14,2,14,2,14ZM2,17C2,17.7956,2.3160700199999997,18.5587,2.87868,19.121299999999998C2.87868,19.121299999999998,4.29289,17.7071,4.29289,17.7071C4.10536,17.5196,4,17.2652,4,17C4,17,2,17,2,17C2,17,2,17,2,17ZM2.87868,19.121299999999998C3.44128799,19.6839,4.20435,20,5,20C5,20,5,18,5,18C4.73478,18,4.48043,17.8946,4.29289,17.7071C4.29289,17.7071,2.87868,19.121299999999998,2.87868,19.121299999999998C2.87868,19.121299999999998,2.87868,19.121299999999998,2.87868,19.121299999999998ZM5,20C5,20,19,20,19,20C19,20,19,18,19,18C19,18,5,18,5,18C5,18,5,20,5,20C5,20,5,20,5,20ZM19,20C19.7957,20,20.558701,19.6839,21.1213,19.121299999999998C21.1213,19.121299999999998,19.7071,17.7071,19.7071,17.7071C19.5196,17.8946,19.2652,18,19,18C19,18,19,20,19,20C19,20,19,20,19,20ZM21.1213,19.121299999999998C21.683901,18.5587,22,17.7957,22,17C22,17,20,17,20,17C20,17.2652,19.8946,17.5196,19.7071,17.7071C19.7071,17.7071,21.1213,19.121299999999998,21.1213,19.121299999999998C21.1213,19.121299999999998,21.1213,19.121299999999998,21.1213,19.121299999999998ZM22,17C22,17,22,14,22,14C22,14,20,14,20,14C20,14,20,17,20,17C20,17,22,17,22,17C22,17,22,17,22,17ZM21,13C20.7348,13,20.4804,12.894639999999999,20.2929,12.707109899999999C20.2929,12.707109899999999,18.878700000000002,14.1213198,18.878700000000002,14.1213198C19.441299,14.6839304,20.2043,15,21,15C21,15,21,13,21,13C21,13,21,13,21,13ZM20.2929,12.707109899999999C20.1054,12.5195699,20,12.2652202,20,12C20,12,18,12,18,12C18,12.79565,18.3161,13.5587101,18.878700000000002,14.1213198C18.878700000000002,14.1213198,20.2929,12.707109899999999,20.2929,12.707109899999999C20.2929,12.707109899999999,20.2929,12.707109899999999,20.2929,12.707109899999999ZM20,12C20,11.7347798,20.1054,11.4804301,20.2929,11.292890100000001C20.2929,11.292890100000001,18.878700000000002,9.8786802,18.878700000000002,9.8786802C18.3161,10.441289900000001,18,11.20435,18,12C18,12,20,12,20,12C20,12,20,12,20,12ZM20.2929,11.292890100000001C20.4804,11.105360000000001,20.7348,11,21,11C21,11,21,9,21,9C20.2043,9,19.441299,9.316070100000001,18.878700000000002,9.8786802C18.878700000000002,9.8786802,20.2929,11.292890100000001,20.2929,11.292890100000001C20.2929,11.292890100000001,20.2929,11.292890100000001,20.2929,11.292890100000001ZM22,10C22,10,22,7,22,7C22,7,20,7,20,7C20,7,20,10,20,10C20,10,22,10,22,10C22,10,22,10,22,10ZM22,7C22,6.20435,21.683901,5.44128799,21.1213,4.87868C21.1213,4.87868,19.7071,6.29289,19.7071,6.29289C19.8946,6.48043,20,6.73478,20,7C20,7,22,7,22,7C22,7,22,7,22,7ZM21.1213,4.87868C20.558701,4.31607002,19.7957,4,19,4C19,4,19,6,19,6C19.2652,6,19.5196,6.10536,19.7071,6.29289C19.7071,6.29289,21.1213,4.87868,21.1213,4.87868C21.1213,4.87868,21.1213,4.87868,21.1213,4.87868ZM19,4C19,4,5,4,5,4C5,4,5,6,5,6C5,6,19,6,19,6C19,6,19,4,19,4C19,4,19,4,19,4Z" fill="#0A0A28" fill-opacity="1"/></g></svg>