<svg xmlns="http://www.w3.org/2000/svg" xmlns:xlink="http://www.w3.org/1999/xlink" fill="none" version="1.1" width="24" height="24" viewBox="0 0 24 24"><defs><clipPath id="master_svg0_3_1490"><rect x="0" y="0" width="24" height="24" rx="0"/></clipPath></defs><g clip-path="url(#master_svg0_3_1490)"><path d="M2.399993896484375,7.200048928125C2.3999938964843746,6.563532928125,2.652850716484375,5.953079728125,3.102937106484375,5.502992038125C3.553024796484375,5.052905648125,4.163477996484375,4.800048828125001,4.799993996484375,4.800048828125C4.799993996484375,4.800048828125,19.199994896484377,4.800048828125,19.199994896484377,4.800048828125C19.836474896484376,4.800048828125001,20.446914896484376,5.052905648125,20.897033896484373,5.502992038125C21.347154896484376,5.953079728125,21.599994896484375,6.563532928125,21.599994896484375,7.200048928125C21.599994896484375,7.200048928125,21.599994896484375,9.600049028125,21.599994896484375,9.600049028125C20.963513896484375,9.600049028125,20.353074896484376,9.852901028125,19.902953896484377,10.302997128125C19.452834896484376,10.753080828125,19.199994896484377,11.363533528125,19.199994896484377,12.000049128125C19.199994896484377,12.636564728125,19.452834896484376,13.247017828125,19.902953896484377,13.697100628125C20.353074896484376,14.147196728125,20.963513896484375,14.400049228125,21.599994896484375,14.400049228125C21.599994896484375,14.400049228125,21.599994896484375,16.800048828125,21.599994896484375,16.800048828125C21.599994896484375,17.436529828125,21.347154896484376,18.046969828125,20.897033896484373,18.497089828125C20.446914896484376,18.947209828125,19.836474896484376,19.200049828125,19.199994896484377,19.200049828125C19.199994896484377,19.200049828125,4.799993996484375,19.200049828125,4.799993996484375,19.200049828125C4.163477996484375,19.200049828125,3.553024796484375,18.947209828125,3.102937106484375,18.497089828125C2.652850716484375,18.046969828125,2.3999938964843754,17.436529828125,2.399993896484375,16.800048828125C2.399993896484375,16.800048828125,2.399993896484375,14.400049228125,2.399993896484375,14.400049228125C3.036513506484375,14.400049228125,3.646961896484375,14.147196728125,4.097045896484375,13.697100628125C4.547141996484375,13.247017828125,4.799993996484375,12.636564728125,4.799993996484375,12.000049128125C4.799993996484375,11.363533528125,4.547141996484375,10.753080828125,4.097045896484375,10.302997128125C3.646961896484375,9.852901028125,3.036513506484375,9.600049028125,2.399993896484375,9.600049028125C2.399993896484375,9.600049028125,2.399993896484375,7.200048928125,2.399993896484375,7.200048928125C2.399993896484375,7.200048928125,2.399993896484375,7.200048928125,2.399993896484375,7.200048928125Z" fill="#0A0A28" fill-opacity="1"/></g></svg>