<svg xmlns="http://www.w3.org/2000/svg" xmlns:xlink="http://www.w3.org/1999/xlink" fill="none" version="1.1" width="24" height="24" viewBox="0 0 24 24"><defs><clipPath id="master_svg0_3_1903"><rect x="0" y="0" width="24" height="24" rx="0"/></clipPath></defs><g clip-path="url(#master_svg0_3_1903)"><path d="M3,4C2.4477149799999998,4,2,4.4477201,2,5C2,5.5522799,2.4477149799999998,6,3,6C3,6,3,4,3,4C3,4,3,4,3,4ZM15,6C15.5523,6,16,5.5522799,16,5C16,4.4477201,15.5523,4,15,4C15,4,15,6,15,6C15,6,15,6,15,6ZM10,3C10,2.4477149799999998,9.5522799,2,9,2C8.4477201,2,8,2.4477149799999998,8,3C8,3,10,3,10,3C10,3,10,3,10,3ZM8,5C8,5.5522799,8.4477201,6,9,6C9.5522799,6,10,5.5522799,10,5C10,5,8,5,8,5C8,5,8,5,8,5ZM9.3287601,15.1948C9.7124701,15.592,10.34554,15.6029,10.7427602,15.2192C11.1399899,14.8355,11.1509504,14.2025,10.767240000000001,13.8052C10.767240000000001,13.8052,9.3287601,15.1948,9.3287601,15.1948C9.3287601,15.1948,9.3287601,15.1948,9.3287601,15.1948ZM7.3329902,8.6104202C7.1178298,8.1017699,6.53107,7.8638501,6.0224199,8.07901C5.5137701,8.2941699,5.2758500999999995,8.8809299,5.49101,9.3895798C5.49101,9.3895798,7.3329902,8.6104202,7.3329902,8.6104202C7.3329902,8.6104202,7.3329902,8.6104202,7.3329902,8.6104202ZM12.5,17C11.94771,17,11.5,17.447699999999998,11.5,18C11.5,18.552300000000002,11.94771,19,12.5,19C12.5,19,12.5,17,12.5,17C12.5,17,12.5,17,12.5,17ZM19.5,19C20.052299,19,20.5,18.552300000000002,20.5,18C20.5,17.447699999999998,20.052299,17,19.5,17C19.5,17,19.5,19,19.5,19C19.5,19,19.5,19,19.5,19ZM10.1055698,20.552799C9.858580100000001,21.046801,10.0588102,21.6474,10.5527902,21.8944C11.0467701,22.141399,11.64744,21.9412,11.8944302,21.447201C11.8944302,21.447201,10.1055698,20.552799,10.1055698,20.552799C10.1055698,20.552799,10.1055698,20.552799,10.1055698,20.552799ZM16,11C16,11,16.894399999999997,10.5527902,16.894399999999997,10.5527902C16.725,10.214000200000001,16.3788,10,16,10C15.6212,10,15.275,10.214000200000001,15.1056,10.5527902C15.1056,10.5527902,16,11,16,11C16,11,16,11,16,11ZM20.1056,21.447201C20.3526,21.9412,20.953199,22.141399,21.447201,21.8944C21.9412,21.6474,22.141399,21.046801,21.8944,20.552799C21.8944,20.552799,20.1056,21.447201,20.1056,21.447201C20.1056,21.447201,20.1056,21.447201,20.1056,21.447201ZM13.7372,5.1654501C13.8286,4.62078,13.4611,4.10516,12.9164495,4.01378C12.3717804,3.922405,11.8561602,4.2898700000000005,11.76478,4.83455C11.76478,4.83455,13.7372,5.1654501,13.7372,5.1654501C13.7372,5.1654501,13.7372,5.1654501,13.7372,5.1654501ZM2.555049,17.2334C2.06044799,17.4792,1.8587101,18.0793,2.1044449800000002,18.573999999999998C2.35018498,19.0686,2.950349901,19.2703,3.444951,19.024599C3.444951,19.024599,2.555049,17.2334,2.555049,17.2334C2.555049,17.2334,2.555049,17.2334,2.555049,17.2334ZM3,6C3,6,15,6,15,6C15,6,15,4,15,4C15,4,3,4,3,4C3,4,3,6,3,6C3,6,3,6,3,6ZM8,3C8,3,8,5,8,5C8,5,10,5,10,5C10,5,10,3,10,3C10,3,8,3,8,3C8,3,8,3,8,3ZM10.767240000000001,13.8052C9.3127899,12.2995396,8.14856,10.5384698,7.3329902,8.6104202C7.3329902,8.6104202,5.49101,9.3895798,5.49101,9.3895798C6.4024,11.5441704,7.7034202,13.5122,9.3287601,15.1948C9.3287601,15.1948,10.767240000000001,13.8052,10.767240000000001,13.8052C10.767240000000001,13.8052,10.767240000000001,13.8052,10.767240000000001,13.8052ZM12.5,19C12.5,19,19.5,19,19.5,19C19.5,19,19.5,17,19.5,17C19.5,17,12.5,17,12.5,17C12.5,17,12.5,19,12.5,19C12.5,19,12.5,19,12.5,19ZM11.8944302,21.447201C11.8944302,21.447201,16.894399999999997,11.4472103,16.894399999999997,11.4472103C16.894399999999997,11.4472103,15.1056,10.5527902,15.1056,10.5527902C15.1056,10.5527902,10.1055698,20.552799,10.1055698,20.552799C10.1055698,20.552799,11.8944302,21.447201,11.8944302,21.447201C11.8944302,21.447201,11.8944302,21.447201,11.8944302,21.447201ZM15.1056,11.4472103C15.1056,11.4472103,20.1056,21.447201,20.1056,21.447201C20.1056,21.447201,21.8944,20.552799,21.8944,20.552799C21.8944,20.552799,16.894399999999997,10.5527902,16.894399999999997,10.5527902C16.894399999999997,10.5527902,15.1056,11.4472103,15.1056,11.4472103C15.1056,11.4472103,15.1056,11.4472103,15.1056,11.4472103ZM11.76478,4.83455C10.8510599,10.2810202,7.3449402,14.8536,2.555049,17.2334C2.555049,17.2334,3.444951,19.024599,3.444951,19.024599C8.7950602,16.3664,12.7149401,11.2589798,13.7372,5.1654501C13.7372,5.1654501,11.76478,4.83455,11.76478,4.83455C11.76478,4.83455,11.76478,4.83455,11.76478,4.83455Z" fill="#0A0A28" fill-opacity="1"/></g></svg>