<svg xmlns="http://www.w3.org/2000/svg" xmlns:xlink="http://www.w3.org/1999/xlink" fill="none" version="1.1" width="24" height="24" viewBox="0 0 24 24"><defs><clipPath id="master_svg0_3_2301"><rect x="0" y="0" width="24" height="24" rx="0"/></clipPath></defs><g clip-path="url(#master_svg0_3_2301)"><path d="M8.399993896484375,2.4000244140625C8.718258396484375,2.4000244140625004,9.023477996484374,2.5264528240625,9.248526096484376,2.7514960140625C9.473562196484375,2.9765404440625,9.599994196484374,3.2817652840625,9.599994196484374,3.6000244140625C9.599994196484374,3.6000244140625,9.599994196484374,4.8000245140625,9.599994196484374,4.8000245140625C9.599994196484374,4.8000245140625,13.199993896484376,4.8000245140625,13.199993896484376,4.8000245140625C13.518257896484375,4.8000245140625,13.823478896484374,4.9264564140625,14.048526896484375,5.1514926140625C14.273562896484375,5.3765404140625,14.399993896484375,5.6817605140625,14.399993896484375,6.0000245140625C14.399993896484375,6.318288614062499,14.273562896484375,6.6235089140625,14.048526896484375,6.8485565140625C13.823478896484374,7.0735926140625,13.518257896484375,7.2000246140625,13.199993896484376,7.2000246140625C13.199993896484376,7.2000246140625,11.493594196484375,7.2000246140625,11.493594196484375,7.2000246140625C11.065757796484375,9.1965489140625,10.369854496484376,11.1260404140625,9.424794196484374,12.9360244140625C9.772794296484374,13.3608244140625,10.139994096484376,13.7712254140625,10.521594096484375,14.1672244140625C10.631033896484375,14.2806844140625,10.717061996484375,14.4145454140625,10.774758296484375,14.5613054140625C10.832442296484375,14.7080644140625,10.860678696484374,14.8646654140625,10.857834796484376,15.0222254140625C10.854989996484376,15.1799054140625,10.821138396484375,15.3354254140625,10.758197796484374,15.4799054140625C10.695246696484375,15.6245054140625,10.604453996484375,15.7551854140625,10.490994496484374,15.8646254140625C10.377534396484375,15.9740644140625,10.243626096484375,16.060105414062498,10.096914296484375,16.1178254140625C9.950214396484375,16.175424414062498,9.793578596484375,16.2037454140625,9.635958196484374,16.2008644140625C9.478338196484376,16.1979844140625,9.322818296484375,16.1641454140625,9.178290396484375,16.1012654140625C9.033762496484375,16.0382654140625,8.903034196484375,15.9475454140625,8.793594396484375,15.8340244140625C8.567994096484375,15.5988244140625,8.345993996484374,15.3588244140625,8.128794196484375,15.1140254140625C7.068186296484375,16.6898654140625,5.815781796484375,18.1277044140625,4.400393996484375,19.3944244140625C4.162769896484375,19.6032254140625,3.8523059964843753,19.7097854140625,3.536541596484375,19.6908264140625C3.220775906484375,19.6719854140625,2.9252495164843753,19.5290664140625,2.714246306484375,19.2933844140625C2.503243816484375,19.0577054140625,2.393834416284375,18.7483444140625,2.409817505584375,18.4323844140625C2.425800617484375,18.116425414062498,2.565883096484375,17.8195444140625,2.799593926484375,17.6064254140625C4.259117996484375,16.3002254140625,5.523966096484375,14.7917054140625,6.555593996484375,13.1268254140625C5.8852979964843755,12.1762199140625,5.288753996484375,11.1756964140625,4.771193996484374,10.1340251140625C4.695245996484375,9.9924006140625,4.648518096484375,9.8369770140625,4.6337818964843756,9.6769442140625C4.619045996484375,9.516924414062501,4.636601896484375,9.3555727140625,4.685405996484375,9.2024650140625C4.734209996484375,9.0493569140625,4.813265996484375,8.9076123140625,4.917893896484375,8.7856326140625C5.022521996484375,8.663664314062501,5.1505739964843755,8.5639448140625,5.294477896484375,8.4924006140625C5.438369996484375,8.4208450140625,5.595162196484376,8.3789406140625,5.755565896484375,8.3691363140625C5.915970096484375,8.3593449140625,6.076698096484375,8.3818564140625,6.228234096484375,8.4353647140625C6.3797699964843755,8.4888606140625,6.519005796484375,8.5722484140625,6.637698196484375,8.680584414062501C6.756390096484375,8.788920914062501,6.852114196484375,8.9199967140625,6.919194196484375,9.0660243140625C7.199994096484375,9.6300249140625,7.505994296484375,10.1796245140625,7.835994196484375,10.7124252140625C8.336394296484375,9.591624714062501,8.738394296484376,8.416824814062501,9.032393896484376,7.2000246140625C9.032393896484376,7.2000246140625,3.599993896484375,7.2000246140625,3.599993896484375,7.2000246140625C3.281734766484375,7.2000246140625,2.976509926484375,7.0735926140625,2.751465496484375,6.8485565140625C2.526422306484375,6.6235089140625,2.399993896484376,6.318288614062499,2.399993896484375,6.0000245140625C2.3999938964843754,5.6817605140625,2.526422306484375,5.3765404140625,2.751465496484375,5.1514926140625C2.976509926484375,4.9264564140625,3.281734766484375,4.8000245140625,3.599993896484375,4.8000245140625C3.599993896484375,4.8000245140625,7.199994096484375,4.8000245140625,7.199994096484375,4.8000245140625C7.199994096484375,4.8000245140625,7.199994096484375,3.6000244140625,7.199994096484375,3.6000244140625C7.199994096484375,3.2817652840625,7.326425996484375,2.9765404440625,7.551462196484375,2.7514960140625C7.776510196484375,2.5264528240625,8.081729896484376,2.4000244140625004,8.399993896484375,2.4000244140625C8.399993896484375,2.4000244140625,8.399993896484375,2.4000244140625,8.399993896484375,2.4000244140625ZM15.599994896484375,9.6000247140625C15.822834896484375,9.6001448140625,16.041114896484373,9.6622805140625,16.230594896484376,9.7794847140625C16.420074896484373,9.8966889140625,16.573194896484374,10.064328714062501,16.672793896484375,10.2636247140625C16.672793896484375,10.2636247140625,20.261994896484374,17.4420254140625,20.261994896484374,17.4420254140625C20.270394896484376,17.4566654140625,20.278314896484375,17.4714254140625,20.285993896484374,17.486424414062498C20.285993896484374,17.486424414062498,21.473994896484374,19.8624244140625,21.473994896484374,19.8624244140625C21.616435896484376,20.1473044140625,21.639833896484376,20.4770664140625,21.539153896484375,20.7791044140625C21.438474896484376,21.0812664140625,21.221873896484375,21.3309844140625,20.936994896484375,21.4734244140625C20.652114896484374,21.6158654140625,20.322354896484374,21.6392654140625,20.020314896484376,21.5385854140625C19.718154896484375,21.4379044140625,19.468432896484376,21.2213044140625,19.325994896484374,20.9364244140625C19.325994896484374,20.9364244140625,18.459594896484376,19.2000254140625,18.459594896484376,19.2000254140625C18.459594896484376,19.2000254140625,12.742794896484375,19.2000254140625,12.742794896484375,19.2000254140625C12.742794896484375,19.2000254140625,11.873993896484375,20.9364244140625,11.873993896484375,20.9364244140625C11.806602496484375,21.0823444140625,11.710590396484376,21.2131444140625,11.591658596484375,21.3212664140625C11.472714396484376,21.4293844140625,11.333286296484374,21.5124244140625,11.181630096484374,21.5655864140625C11.029973996484374,21.6187454140625,10.869186396484375,21.6409454140625,10.708793596484375,21.6307454140625C10.548414196484375,21.6206664140625,10.391694096484375,21.5784264140625,10.247958196484376,21.5065464140625C10.104209896484374,21.4346654140625,9.976374196484375,21.3345854140625,9.872022196484375,21.2124254140625C9.767658196484376,21.0901454140625,9.688914296484375,20.9483054140625,9.640458096484375,20.7950654140625C9.592002396484375,20.6418244140625,9.574818096484375,20.4804244140625,9.589926196484374,20.3203454140625C9.605021996484375,20.1603854140625,9.652121996484375,20.0051064140625,9.728393996484375,19.8636264140625C9.728393996484375,19.8636264140625,10.916394196484376,17.4876254140625,10.916394196484376,17.4876254140625C10.916394196484376,17.4876254140625,10.939194696484375,17.4420254140625,10.939194696484375,17.4420254140625C10.939194696484375,17.4420254140625,14.527193896484375,10.2636247140625,14.527193896484375,10.2636247140625C14.626794896484375,10.064328714062501,14.779913896484375,9.8966889140625,14.969393896484375,9.7794847140625C15.158873896484375,9.6622805140625,15.377153896484375,9.6001448140625,15.599994896484375,9.6000247140625C15.599994896484375,9.6000247140625,15.599994896484375,9.6000247140625,15.599994896484375,9.6000247140625C15.599994896484375,9.6000247140625,15.599994896484375,9.6000247140625,15.599994896484375,9.6000247140625ZM13.941593896484376,16.8000254140625C13.941593896484376,16.8000254140625,17.258393896484375,16.8000254140625,17.258393896484375,16.8000254140625C17.258393896484375,16.8000254140625,15.599994896484375,13.4832244140625,15.599994896484375,13.4832244140625C15.599994896484375,13.4832244140625,13.941593896484376,16.8000254140625,13.941593896484376,16.8000254140625C13.941593896484376,16.8000254140625,13.941593896484376,16.8000254140625,13.941593896484376,16.8000254140625Z" fill-rule="evenodd" fill="#0A0A28" fill-opacity="1"/></g></svg>