<svg xmlns="http://www.w3.org/2000/svg" xmlns:xlink="http://www.w3.org/1999/xlink" fill="none" version="1.1" width="24" height="24" viewBox="0 0 24 24"><defs><clipPath id="master_svg0_3_1625"><rect x="0" y="0" width="24" height="24" rx="0"/></clipPath></defs><g clip-path="url(#master_svg0_3_1625)"><path d="M10.7999758859375,2.4000244140625C10.5771841859375,2.4001433923925,10.358819985937501,2.4622841370625,10.169340085937499,2.5794868140625C9.979871785937501,2.6966908240625,9.8267640859375,2.8643272240625,9.7271756859375,3.0636243840625C9.7271756859375,3.0636243840625,8.8583755859375,4.8000245140625,8.8583755859375,4.8000245140625C8.8583755859375,4.8000245140625,4.7999755859375,4.8000245140625,4.7999755859375,4.8000245140625C4.4817164559375,4.8000245140625,4.1764916159375,4.9264564140625,3.9514471859375,5.1514926140625C3.7264039959375,5.3765404140625,3.599975585937501,5.6817605140625,3.5999755859375,6.0000245140625C3.5999755859375004,6.318288614062499,3.7264039959375,6.6235089140625,3.9514471859375,6.8485565140625C4.1764916159375,7.0735926140625,4.4817164559375,7.2000246140625,4.7999755859375,7.2000246140625C4.7999755859375,7.2000246140625,4.7999755859375,19.2000254140625,4.7999755859375,19.2000254140625C4.7999755859375,19.8365054140625,5.0528276859375,20.4469454140625,5.5029236859375,20.8970644140625C5.9530076859375,21.3471854140625,6.563459585937499,21.6000254140625,7.1999756859375,21.6000254140625C7.1999756859375,21.6000254140625,16.7999765859375,21.6000254140625,16.7999765859375,21.6000254140625C17.4364565859375,21.6000254140625,18.0468955859375,21.3471854140625,18.4970155859375,20.8970644140625C18.947135585937502,20.4469454140625,19.1999755859375,19.8365054140625,19.1999755859375,19.2000254140625C19.1999755859375,19.2000254140625,19.1999755859375,7.2000246140625,19.1999755859375,7.2000246140625C19.518216585937502,7.2000246140625,19.8234955859375,7.0735926140625,20.0484965859375,6.8485565140625C20.2734965859375,6.6235089140625,20.3999765859375,6.318288614062499,20.3999765859375,6.0000245140625C20.3999765859375,5.6817605140625,20.2734965859375,5.3765404140625,20.0484965859375,5.1514926140625C19.8234955859375,4.9264564140625,19.518216585937502,4.8000245140625,19.1999755859375,4.8000245140625C19.1999755859375,4.8000245140625,15.1415755859375,4.8000245140625,15.1415755859375,4.8000245140625C15.1415755859375,4.8000245140625,14.2727755859375,3.0636243840625,14.2727755859375,3.0636243840625C14.1731885859375,2.8643272240625,14.0200805859375,2.6966908240625,13.8306125859375,2.5794868140625C13.6411325859375,2.4622841370625,13.4227685859375,2.4001433923925,13.1999759859375,2.4000244140625C13.1999759859375,2.4000244140625,10.7999758859375,2.4000244140625,10.7999758859375,2.4000244140625C10.7999758859375,2.4000244140625,10.7999758859375,2.4000244140625,10.7999758859375,2.4000244140625ZM8.3999757859375,9.6000247140625C8.3999757859375,9.2817607140625,8.5264076859375,8.9765410140625,8.751443885937501,8.7514930140625C8.976491885937499,8.526456814062499,9.2817115859375,8.4000244140625,9.5999755859375,8.4000244140625C9.9182400859375,8.4000244140625,10.223459685937499,8.526456814062499,10.448507785937501,8.7514930140625C10.6735438859375,8.9765410140625,10.7999758859375,9.2817607140625,10.7999758859375,9.6000247140625C10.7999758859375,9.6000247140625,10.7999758859375,16.8000254140625,10.7999758859375,16.8000254140625C10.7999758859375,17.1182644140625,10.6735438859375,17.423544414062498,10.448507785937501,17.6485454140625C10.223459685937499,17.8735444140625,9.9182400859375,18.0000244140625,9.5999755859375,18.0000244140625C9.2817115859375,18.0000244140625,8.976491885937499,17.8735444140625,8.751443885937501,17.6485454140625C8.5264076859375,17.423544414062498,8.3999757859375,17.1182644140625,8.3999757859375,16.8000254140625C8.3999757859375,16.8000254140625,8.3999757859375,9.6000247140625,8.3999757859375,9.6000247140625C8.3999757859375,9.6000247140625,8.3999757859375,9.6000247140625,8.3999757859375,9.6000247140625ZM14.3999755859375,8.4000244140625C14.0817125859375,8.4000244140625,13.7764915859375,8.526456814062499,13.5514430859375,8.7514930140625C13.3264083859375,8.9765410140625,13.1999759859375,9.2817607140625,13.1999759859375,9.6000247140625C13.1999759859375,9.6000247140625,13.1999759859375,16.8000254140625,13.1999759859375,16.8000254140625C13.1999759859375,17.1182644140625,13.3264083859375,17.423544414062498,13.5514430859375,17.6485454140625C13.7764915859375,17.8735444140625,14.0817125859375,18.0000244140625,14.3999755859375,18.0000244140625C14.7182395859375,18.0000244140625,15.0234605859375,17.8735444140625,15.2485085859375,17.6485454140625C15.4735445859375,17.423544414062498,15.5999755859375,17.1182644140625,15.5999755859375,16.8000254140625C15.5999755859375,16.8000254140625,15.5999755859375,9.6000247140625,15.5999755859375,9.6000247140625C15.5999755859375,9.2817607140625,15.4735445859375,8.9765410140625,15.2485085859375,8.7514930140625C15.0234605859375,8.526456814062499,14.7182395859375,8.4000244140625,14.3999755859375,8.4000244140625C14.3999755859375,8.4000244140625,14.3999755859375,8.4000244140625,14.3999755859375,8.4000244140625Z" fill-rule="evenodd" fill="#0A0A28" fill-opacity="1"/></g></svg>