<svg xmlns="http://www.w3.org/2000/svg" xmlns:xlink="http://www.w3.org/1999/xlink" fill="none" version="1.1" width="24" height="24" viewBox="0 0 24 24"><defs><clipPath id="master_svg0_3_2240"><rect x="0" y="0" width="24" height="24" rx="0"/></clipPath></defs><g clip-path="url(#master_svg0_3_2240)"><path d="M19,7C19,7,19.997500000000002,7.0712199,19.997500000000002,7.0712199C20.0172,6.794339900000001,19.921,6.5216899,19.7319,6.3185401C19.5427,6.11538,19.2776,6,19,6C19,6,19,7,19,7C19,7,19,7,19,7ZM18.133,19.142C18.133,19.142,17.1355,19.070801,17.1355,19.070801C17.1355,19.070801,17.1355,19.070999,17.1355,19.070999C17.1355,19.070999,18.133,19.142,18.133,19.142C18.133,19.142,18.133,19.142,18.133,19.142ZM16.137999999999998,21C16.137999999999998,21,16.137999999999998,20,16.137999999999998,20C16.137999999999998,20,16.137999999999998,20,16.137999999999998,20C16.137999999999998,20,16.137999999999998,21,16.137999999999998,21C16.137999999999998,21,16.137999999999998,21,16.137999999999998,21ZM7.862,21C7.862,21,7.862,20,7.862,20C7.862,20,7.86198,20,7.86198,20C7.86198,20,7.862,21,7.862,21C7.862,21,7.862,21,7.862,21ZM5.867,19.142C5.867,19.142,6.86448,19.070999,6.86448,19.070999C6.86448,19.070999,6.864459999999999,19.070801,6.864459999999999,19.070801C6.864459999999999,19.070801,5.867,19.142,5.867,19.142C5.867,19.142,5.867,19.142,5.867,19.142ZM5,7C5,7,5,6,5,6C4.72241098,6,4.457311,6.11538,4.26814499,6.3185401C4.078978702,6.5216899,3.9827687,6.794339900000001,4.00253963,7.0712199C4.00253963,7.0712199,5,7,5,7C5,7,5,7,5,7ZM11,11C11,10.4477201,10.5522799,10,10,10C9.4477201,10,9,10.4477201,9,11C9,11,11,11,11,11C11,11,11,11,11,11ZM9,17C9,17.552300000000002,9.4477201,18,10,18C10.5522799,18,11,17.552300000000002,11,17C11,17,9,17,9,17C9,17,9,17,9,17ZM15,11C15,10.4477201,14.5523,10,14,10C13.44771,10,13,10.4477201,13,11C13,11,15,11,15,11C15,11,15,11,15,11ZM13,17C13,17.552300000000002,13.44771,18,14,18C14.5523,18,15,17.552300000000002,15,17C15,17,13,17,13,17C13,17,13,17,13,17ZM15,7C15,7,15,8,15,8C15.5523,8,16,7.5522799,16,7C16,7,15,7,15,7C15,7,15,7,15,7ZM14,3C14,3,14,2,14,2C14,2,14,3,14,3C14,3,14,3,14,3ZM10,3C10,3,10,2,10,2C10,2,10,3,10,3C10,3,10,3,10,3ZM9,7C9,7,8,7,8,7C8,7.5522799,8.4477201,8,9,8C9,8,9,7,9,7C9,7,9,7,9,7ZM4,6C3.4477149799999998,6,3,6.4477201,3,7C3,7.5522799,3.4477149799999998,8,4,8C4,8,4,6,4,6C4,6,4,6,4,6ZM20,8C20.552299,8,21,7.5522799,21,7C21,6.4477201,20.552299,6,20,6C20,6,20,8,20,8C20,8,20,8,20,8ZM18.002499999999998,6.9287801C18.002499999999998,6.9287801,17.1355,19.070801,17.1355,19.070801C17.1355,19.070801,19.130499999999998,19.2132,19.130499999999998,19.2132C19.130499999999998,19.2132,19.997500000000002,7.0712199,19.997500000000002,7.0712199C19.997500000000002,7.0712199,18.002499999999998,6.9287801,18.002499999999998,6.9287801C18.002499999999998,6.9287801,18.002499999999998,6.9287801,18.002499999999998,6.9287801ZM17.1355,19.070999C17.1176,19.323299,17.0047,19.559401,16.8196,19.7318C16.8196,19.7318,18.1826,21.1954,18.1826,21.1954C18.7379,20.6782,19.0766,19.9699,19.130499999999998,19.212999C19.130499999999998,19.212999,17.1355,19.070999,17.1355,19.070999C17.1355,19.070999,17.1355,19.070999,17.1355,19.070999ZM16.8196,19.7318C16.6345,19.9042,16.391,20,16.137999999999998,20C16.137999999999998,20,16.137999999999998,22,16.137999999999998,22C16.8968,22,17.6274,21.7125,18.1826,21.1954C18.1826,21.1954,16.8196,19.7318,16.8196,19.7318C16.8196,19.7318,16.8196,19.7318,16.8196,19.7318ZM16.137999999999998,20C16.137999999999998,20,7.862,20,7.862,20C7.862,20,7.862,22,7.862,22C7.862,22,16.137999999999998,22,16.137999999999998,22C16.137999999999998,22,16.137999999999998,20,16.137999999999998,20C16.137999999999998,20,16.137999999999998,20,16.137999999999998,20ZM7.86198,20C7.60905,20,7.3655100000000004,19.9042,7.1804199,19.7318C7.1804199,19.7318,5.81735,21.1954,5.81735,21.1954C6.3726201,21.7125,7.10323,22,7.862019999999999,22C7.862019999999999,22,7.86198,20,7.86198,20C7.86198,20,7.86198,20,7.86198,20ZM7.1804199,19.7318C6.9953301,19.559401,6.8824301000000006,19.323299,6.86448,19.070999C6.86448,19.070999,4.869524,19.212999,4.869524,19.212999C4.9233980200000005,19.9699,5.26208,20.6782,5.81735,21.1954C5.81735,21.1954,7.1804199,19.7318,7.1804199,19.7318C7.1804199,19.7318,7.1804199,19.7318,7.1804199,19.7318ZM6.864459999999999,19.070801C6.864459999999999,19.070801,5.99746,6.9287801,5.99746,6.9287801C5.99746,6.9287801,4.00253963,7.0712199,4.00253963,7.0712199C4.00253963,7.0712199,4.86953998,19.2132,4.86953998,19.2132C4.86953998,19.2132,6.864459999999999,19.070801,6.864459999999999,19.070801C6.864459999999999,19.070801,6.864459999999999,19.070801,6.864459999999999,19.070801ZM5,8C5,8,19,8,19,8C19,8,19,6,19,6C19,6,5,6,5,6C5,6,5,8,5,8C5,8,5,8,5,8ZM9,11C9,11,9,17,9,17C9,17,11,17,11,17C11,17,11,11,11,11C11,11,9,11,9,11C9,11,9,11,9,11ZM13,11C13,11,13,17,13,17C13,17,15,17,15,17C15,17,15,11,15,11C15,11,13,11,13,11C13,11,13,11,13,11ZM16,7C16,7,16,4,16,4C16,4,14,4,14,4C14,4,14,7,14,7C14,7,16,7,16,7C16,7,16,7,16,7ZM16,4C16,3.469567,15.7893,2.9608588,15.4142,2.58578601C15.4142,2.58578601,14,4,14,4C14,4,14,4,14,4C14,4,16,4,16,4C16,4,16,4,16,4ZM15.4142,2.58578601C15.0391,2.21071398,14.5304,2,14,2C14,2,14,4,14,4C14,4,14,4,14,4C14,4,15.4142,2.58578601,15.4142,2.58578601C15.4142,2.58578601,15.4142,2.58578601,15.4142,2.58578601ZM14,2C14,2,10,2,10,2C10,2,10,4,10,4C10,4,14,4,14,4C14,4,14,2,14,2C14,2,14,2,14,2ZM10,2C9.4695702,2,8.9608598,2.21071398,8.5857902,2.58578601C8.5857902,2.58578601,10,4,10,4C10,4,10,4,10,4C10,4,10,2,10,2C10,2,10,2,10,2ZM8.5857902,2.58578601C8.210709999999999,2.9608588,8,3.469567,8,4C8,4,10,4,10,4C10,4,10,4,10,4C10,4,8.5857902,2.58578601,8.5857902,2.58578601C8.5857902,2.58578601,8.5857902,2.58578601,8.5857902,2.58578601ZM8,4C8,4,8,7,8,7C8,7,10,7,10,7C10,7,10,4,10,4C10,4,8,4,8,4C8,4,8,4,8,4ZM9,8C9,8,15,8,15,8C15,8,15,6,15,6C15,6,9,6,9,6C9,6,9,8,9,8C9,8,9,8,9,8ZM4,8C4,8,20,8,20,8C20,8,20,6,20,6C20,6,4,6,4,6C4,6,4,8,4,8C4,8,4,8,4,8Z" fill="#0A0A28" fill-opacity="1"/></g></svg>