<svg xmlns="http://www.w3.org/2000/svg" xmlns:xlink="http://www.w3.org/1999/xlink" fill="none" version="1.1" width="24" height="24" viewBox="0 0 24 24"><defs><clipPath id="master_svg0_3_1486"><rect x="0" y="0" width="24" height="24" rx="0"/></clipPath></defs><g clip-path="url(#master_svg0_3_1486)"><path d="M14.39998588671875,15.6000233078125C14.08173388671875,15.6000233078125,13.77650188671875,15.7264547078125,13.55146588671875,15.9515028078125C13.32641788671875,16.176538507812502,13.19998688671875,16.4817705078125,13.19998688671875,16.8000235078125C13.19998688671875,17.1182865078125,13.32641788671875,17.423507507812502,13.55146588671875,17.6485555078125C13.77650188671875,17.8735905078125,14.08173388671875,18.0000225078125,14.39998588671875,18.0000225078125C14.39998588671875,18.0000225078125,20.39997488671875,18.0000225078125,20.39997488671875,18.0000225078125C20.71821388671875,18.0000225078125,21.02349488671875,17.8735905078125,21.24849488671875,17.6485555078125C21.47361388671875,17.423507507812502,21.59997588671875,17.1182865078125,21.59997588671875,16.8000235078125C21.59997588671875,16.8000235078125,21.59997588671875,10.800022607812501,21.59997588671875,10.800022607812501C21.59997588671875,10.481771007812501,21.47361388671875,10.1765385078125,21.24849488671875,9.9515028078125C21.02349488671875,9.7264547078125,20.71821388671875,9.6000225078125,20.39997488671875,9.6000225078125C20.08173388671875,9.6000225078125,19.77645488671875,9.7264547078125,19.55145488671875,9.9515028078125C19.32645388671875,10.1765385078125,19.19997588671875,10.481771007812501,19.19997588671875,10.800022607812501C19.19997588671875,10.800022607812501,19.19997588671875,13.9032226078125,19.19997588671875,13.9032226078125C19.19997588671875,13.9032226078125,14.04838588671875,8.7516227078125,14.04838588671875,8.7516227078125C13.82335088671875,8.526658507812499,13.51818988671875,8.4002867078125,13.19998688671875,8.4002867078125C12.88179488671875,8.4002867078125,12.57662188671875,8.526658507812499,12.35158638671875,8.7516227078125C12.35158638671875,8.7516227078125,9.59998608671875,11.503222507812499,9.59998608671875,11.503222507812499C9.59998608671875,11.503222507812499,4.448385986718749,6.3516249378125,4.448385986718749,6.3516249378125C4.22206588671875,6.1330355578125,3.91894588671875,6.0120817637125,3.60430598671875,6.0148158708145C3.28967070671875,6.0175499718125,2.98869508671875,6.1437525178125,2.76620548671875,6.3662433278125C2.54371589671875,6.5887329578125,2.41751335071875,6.8897073278125,2.41477924984075,7.2043438078125C2.41204514261875,7.5189825078125,2.53299832671875,7.8221025078125,2.75158831671875,8.0484226078125C2.75158831671875,8.0484226078125,8.75158648671875,14.0484228078125,8.75158648671875,14.0484228078125C8.97662208671875,14.2733869078125,9.281794086718751,14.3997707078125,9.59998608671875,14.3997707078125C9.91819048671875,14.3997707078125,10.22335048671875,14.2733869078125,10.44838618671875,14.0484228078125C10.44838618671875,14.0484228078125,13.19998688671875,11.2968225078125,13.19998688671875,11.2968225078125C13.19998688671875,11.2968225078125,17.50317488671875,15.6000233078125,17.50317488671875,15.6000233078125C17.50317488671875,15.6000233078125,14.39998588671875,15.6000233078125,14.39998588671875,15.6000233078125C14.39998588671875,15.6000233078125,14.39998588671875,15.6000233078125,14.39998588671875,15.6000233078125Z" fill-rule="evenodd" fill="#0A0A28" fill-opacity="1"/></g></svg>