<svg xmlns="http://www.w3.org/2000/svg" xmlns:xlink="http://www.w3.org/1999/xlink" fill="none" version="1.1" width="24" height="24" viewBox="0 0 24 24"><defs><clipPath id="master_svg0_3_1926"><rect x="0" y="0" width="24" height="24" rx="0"/></clipPath></defs><g clip-path="url(#master_svg0_3_1926)"><path d="M13,16C12.44771,16,12,16.44771,12,17C12,17.552300000000002,12.44771,18,13,18C13,18,13,16,13,16C13,16,13,16,13,16ZM21,17C21,17,21,18,21,18C21.552299,18,22,17.552300000000002,22,17C22,17,21,17,21,17C21,17,21,17,21,17ZM22,9C22,8.4477201,21.552299,8,21,8C20.447701,8,20,8.4477201,20,9C20,9,22,9,22,9C22,9,22,9,22,9ZM13,9C13,9,13.7071,8.29289,13.7071,8.29289C13.3166,7.90236902,12.6834202,7.90236902,12.2928896,8.29289C12.2928896,8.29289,13,9,13,9C13,9,13,9,13,9ZM9,13C9,13,8.292890100000001,13.707109899999999,8.292890100000001,13.707109899999999C8.6834202,14.097629999999999,9.3165798,14.097629999999999,9.707109899999999,13.707109899999999C9.707109899999999,13.707109899999999,9,13,9,13C9,13,9,13,9,13ZM3.70710701,6.29289299C3.31658301,5.9023699999999995,2.68341699,5.9023699999999995,2.29289299,6.29289299C1.90237,6.68341699,1.90237,7.31658301,2.29289299,7.70710701C2.29289299,7.70710701,3.70710701,6.29289299,3.70710701,6.29289299C3.70710701,6.29289299,3.70710701,6.29289299,3.70710701,6.29289299ZM13,18C13,18,21,18,21,18C21,18,21,16,21,16C21,16,13,16,13,16C13,16,13,18,13,18C13,18,13,18,13,18ZM22,17C22,17,22,9,22,9C22,9,20,9,20,9C20,9,20,17,20,17C20,17,22,17,22,17C22,17,22,17,22,17ZM21.7071,16.292889600000002C21.7071,16.292889600000002,13.7071,8.29289,13.7071,8.29289C13.7071,8.29289,12.2928896,9.707109899999999,12.2928896,9.707109899999999C12.2928896,9.707109899999999,20.2929,17.7071,20.2929,17.7071C20.2929,17.7071,21.7071,16.292889600000002,21.7071,16.292889600000002C21.7071,16.292889600000002,21.7071,16.292889600000002,21.7071,16.292889600000002ZM12.2928896,8.29289C12.2928896,8.29289,8.292890100000001,12.292890100000001,8.292890100000001,12.292890100000001C8.292890100000001,12.292890100000001,9.707109899999999,13.707109899999999,9.707109899999999,13.707109899999999C9.707109899999999,13.707109899999999,13.7071,9.707109899999999,13.7071,9.707109899999999C13.7071,9.707109899999999,12.2928896,8.29289,12.2928896,8.29289C12.2928896,8.29289,12.2928896,8.29289,12.2928896,8.29289ZM9.707109899999999,12.292890100000001C9.707109899999999,12.292890100000001,3.70710701,6.29289299,3.70710701,6.29289299C3.70710701,6.29289299,2.29289299,7.70710701,2.29289299,7.70710701C2.29289299,7.70710701,8.292890100000001,13.707109899999999,8.292890100000001,13.707109899999999C8.292890100000001,13.707109899999999,9.707109899999999,12.292890100000001,9.707109899999999,12.292890100000001C9.707109899999999,12.292890100000001,9.707109899999999,12.292890100000001,9.707109899999999,12.292890100000001Z" fill="#0A0A28" fill-opacity="1"/></g></svg>