<svg xmlns="http://www.w3.org/2000/svg" xmlns:xlink="http://www.w3.org/1999/xlink" fill="none" version="1.1" width="24" height="24" viewBox="0 0 24 24"><defs><clipPath id="master_svg0_3_1690"><rect x="0" y="0" width="24" height="24" rx="0"/></clipPath></defs><g clip-path="url(#master_svg0_3_1690)"><path d="M14.39998588671875,8.4000001C14.08173388671875,8.4000001,13.77650188671875,8.2735682,13.55146588671875,8.0485322C13.32641788671875,7.8234841,13.19998688671875,7.5182642,13.19998688671875,7.2C13.19998688671875,6.88174087,13.32641788671875,6.57651603,13.55146588671875,6.3514716C13.77650188671875,6.12642841,14.08173388671875,6,14.39998588671875,6.000000000000001C14.39998588671875,6.000000000000001,20.39997488671875,6.000000000000001,20.39997488671875,6.000000000000001C20.71821388671875,6.000000000000001,21.02349488671875,6.12642841,21.24849488671875,6.3514716C21.47361388671875,6.57651603,21.59997588671875,6.88174087,21.59997588671875,7.2C21.59997588671875,7.2,21.59997588671875,13.2000003,21.59997588671875,13.2000003C21.59997588671875,13.5182643,21.47361388671875,13.8234839,21.24849488671875,14.0485325C21.02349488671875,14.2735682,20.71821388671875,14.4000006,20.39997488671875,14.4000006C20.08173388671875,14.4000006,19.77645488671875,14.2735682,19.55145488671875,14.0485325C19.32645388671875,13.8234839,19.19997588671875,13.5182643,19.19997588671875,13.2000003C19.19997588671875,13.2000003,19.19997588671875,10.0968003,19.19997588671875,10.0968003C19.19997588671875,10.0968003,14.04838588671875,15.2483997,14.04838588671875,15.2483997C13.82335088671875,15.4733648,13.51818988671875,15.5997486,13.19998688671875,15.5997486C12.88179488671875,15.5997486,12.57662188671875,15.4733648,12.35158638671875,15.2483997C12.35158638671875,15.2483997,9.59998608671875,12.4968004,9.59998608671875,12.4968004C9.59998608671875,12.4968004,4.448385986718749,17.648400000000002,4.448385986718749,17.648400000000002C4.22206588671875,17.866993,3.91894588671875,17.987941,3.60430598671875,17.985205C3.28967070671875,17.982481,2.98869508671875,17.856277,2.76620548671875,17.633785C2.54371589671875,17.411292,2.41751335071875,17.110321,2.41477924984075,16.79568C2.41204514261875,16.48104,2.53299832671875,16.17792,2.75158831671875,15.951601C2.75158831671875,15.951601,8.75158648671875,9.9516001,8.75158648671875,9.9516001C8.97662208671875,9.7266362,9.281794086718751,9.6002522,9.59998608671875,9.6002522C9.91819048671875,9.6002522,10.22335048671875,9.7266362,10.44838618671875,9.9516001C10.44838618671875,9.9516001,13.19998688671875,12.703200299999999,13.19998688671875,12.703200299999999C13.19998688671875,12.703200299999999,17.50317488671875,8.4000001,17.50317488671875,8.4000001C17.50317488671875,8.4000001,14.39998588671875,8.4000001,14.39998588671875,8.4000001C14.39998588671875,8.4000001,14.39998588671875,8.4000001,14.39998588671875,8.4000001Z" fill-rule="evenodd" fill="#0A0A28" fill-opacity="1"/></g></svg>