<svg xmlns="http://www.w3.org/2000/svg" xmlns:xlink="http://www.w3.org/1999/xlink" fill="none" version="1.1" width="24" height="24" viewBox="0 0 24 24"><defs><clipPath id="master_svg0_3_1740"><rect x="0" y="0" width="24" height="24" rx="0"/></clipPath></defs><g clip-path="url(#master_svg0_3_1740)"><path d="M13,6C12.44771,6,12,6.44771498,12,7C12,7.55228502,12.44771,8,13,8C13,8,13,6,13,6C13,6,13,6,13,6ZM21,7C21,7,22,7,22,7C22,6.44771498,21.552299,6,21,6C21,6,21,7,21,7C21,7,21,7,21,7ZM20,15C20,15.55229,20.447701,16,21,16C21.552299,16,22,15.55229,22,15C22,15,20,15,20,15C20,15,20,15,20,15ZM13,15C13,15,12.2928896,15.7071104,12.2928896,15.7071104C12.6834202,16.0976295,13.3166,16.0976295,13.7071,15.7071104C13.7071,15.7071104,13,15,13,15C13,15,13,15,13,15ZM9,11C9,11,9.707109899999999,10.292890100000001,9.707109899999999,10.292890100000001C9.3165798,9.90237,8.6834202,9.90237,8.292890100000001,10.292890100000001C8.292890100000001,10.292890100000001,9,11,9,11C9,11,9,11,9,11ZM2.29289299,16.292889600000002C1.90237,16.6834202,1.90237,17.3166,2.29289299,17.7071C2.68341699,18.0976,3.31658301,18.0976,3.70710701,17.7071C3.70710701,17.7071,2.29289299,16.292889600000002,2.29289299,16.292889600000002C2.29289299,16.292889600000002,2.29289299,16.292889600000002,2.29289299,16.292889600000002ZM13,8C13,8,21,8,21,8C21,8,21,6,21,6C21,6,13,6,13,6C13,6,13,8,13,8C13,8,13,8,13,8ZM20,7C20,7,20,15,20,15C20,15,22,15,22,15C22,15,22,7,22,7C22,7,20,7,20,7C20,7,20,7,20,7ZM20.2929,6.29289299C20.2929,6.29289299,12.2928896,14.292890100000001,12.2928896,14.292890100000001C12.2928896,14.292890100000001,13.7071,15.7071104,13.7071,15.7071104C13.7071,15.7071104,21.7071,7.70710701,21.7071,7.70710701C21.7071,7.70710701,20.2929,6.29289299,20.2929,6.29289299C20.2929,6.29289299,20.2929,6.29289299,20.2929,6.29289299ZM13.7071,14.292890100000001C13.7071,14.292890100000001,9.707109899999999,10.292890100000001,9.707109899999999,10.292890100000001C9.707109899999999,10.292890100000001,8.292890100000001,11.707109899999999,8.292890100000001,11.707109899999999C8.292890100000001,11.707109899999999,12.2928896,15.7071104,12.2928896,15.7071104C12.2928896,15.7071104,13.7071,14.292890100000001,13.7071,14.292890100000001C13.7071,14.292890100000001,13.7071,14.292890100000001,13.7071,14.292890100000001ZM8.292890100000001,10.292890100000001C8.292890100000001,10.292890100000001,2.29289299,16.292889600000002,2.29289299,16.292889600000002C2.29289299,16.292889600000002,3.70710701,17.7071,3.70710701,17.7071C3.70710701,17.7071,9.707109899999999,11.707109899999999,9.707109899999999,11.707109899999999C9.707109899999999,11.707109899999999,8.292890100000001,10.292890100000001,8.292890100000001,10.292890100000001C8.292890100000001,10.292890100000001,8.292890100000001,10.292890100000001,8.292890100000001,10.292890100000001Z" fill="#0A0A28" fill-opacity="1"/></g></svg>