<svg xmlns="http://www.w3.org/2000/svg" xmlns:xlink="http://www.w3.org/1999/xlink" fill="none" version="1.1" width="24" height="24" viewBox="0 0 24 24"><defs><clipPath id="master_svg0_3_1951"><rect x="0" y="0" width="24" height="24" rx="0"/></clipPath></defs><g clip-path="url(#master_svg0_3_1951)"><path d="M9,17C9,17,8.5,17,8.5,17C8.5,17,9,17,9,17C9,17,9,17,9,17ZM5,17C5,17,4.5,17,4.5,17C4.5,17,5,17,5,17C5,17,5,17,5,17ZM7,15C7,15,7,15.5,7,15.5C7,15.5,7,15,7,15C7,15,7,15,7,15ZM17,15C17,15,17,15.5,17,15.5C17,15.5,17,15,17,15C17,15,17,15,17,15ZM8.5,17C8.5,17.39782,8.34196,17.779360099999998,8.060659900000001,18.0606599C8.060659900000001,18.0606599,8.7677701,18.7677701,8.7677701,18.7677701C9.236609900000001,18.2989299,9.5,17.6630399,9.5,17C9.5,17,8.5,17,8.5,17C8.5,17,8.5,17,8.5,17ZM8.060659900000001,18.0606599C7.7793601,18.34196,7.397819999999999,18.5,7,18.5C7,18.5,7,19.5,7,19.5C7.663039899999999,19.5,8.298929900000001,19.2366099,8.7677701,18.7677701C8.7677701,18.7677701,8.060659900000001,18.0606599,8.060659900000001,18.0606599C8.060659900000001,18.0606599,8.060659900000001,18.0606599,8.060659900000001,18.0606599ZM7,18.5C6.60218,18.5,6.2206399,18.34196,5.93934,18.0606599C5.93934,18.0606599,5.232233,18.7677701,5.232233,18.7677701C5.701074,19.2366099,6.3369599999999995,19.5,7,19.5C7,19.5,7,18.5,7,18.5C7,18.5,7,18.5,7,18.5ZM5.93934,18.0606599C5.65803498,17.779360099999998,5.5,17.39782,5.5,17C5.5,17,4.5,17,4.5,17C4.5,17.6630399,4.763392,18.2989299,5.232233,18.7677701C5.232233,18.7677701,5.93934,18.0606599,5.93934,18.0606599C5.93934,18.0606599,5.93934,18.0606599,5.93934,18.0606599ZM5.5,17C5.5,16.60218,5.65803498,16.220639900000002,5.93934,15.93934C5.93934,15.93934,5.232233,15.232233,5.232233,15.232233C4.763392,15.701074,4.5,16.33696,4.5,17C4.5,17,5.5,17,5.5,17C5.5,17,5.5,17,5.5,17ZM5.93934,15.93934C6.2206399,15.65803599,6.60218,15.5,7,15.5C7,15.5,7,14.5,7,14.5C6.3369599999999995,14.5,5.701074,14.763393,5.232233,15.232233C5.232233,15.232233,5.93934,15.93934,5.93934,15.93934C5.93934,15.93934,5.93934,15.93934,5.93934,15.93934ZM7,15.5C7.397819999999999,15.5,7.7793601,15.65803498,8.060659900000001,15.93934C8.060659900000001,15.93934,8.7677701,15.232233,8.7677701,15.232233C8.298929900000001,14.763393,7.663039899999999,14.5,7,14.5C7,14.5,7,15.5,7,15.5C7,15.5,7,15.5,7,15.5ZM8.060659900000001,15.93934C8.34196,16.22065,8.5,16.60218,8.5,17C8.5,17,9.5,17,9.5,17C9.5,16.33696,9.236609900000001,15.701074,8.7677701,15.232233C8.7677701,15.232233,8.060659900000001,15.93934,8.060659900000001,15.93934C8.060659900000001,15.93934,8.060659900000001,15.93934,8.060659900000001,15.93934ZM18.5,17C18.5,17.39782,18.342,17.779360099999998,18.0607,18.0606599C18.0607,18.0606599,18.7678,18.7677701,18.7678,18.7677701C19.2366,18.2989299,19.5,17.6630399,19.5,17C19.5,17,18.5,17,18.5,17C18.5,17,18.5,17,18.5,17ZM18.0607,18.0606599C17.779400000000003,18.34196,17.3978,18.5,17,18.5C17,18.5,17,19.5,17,19.5C17.663,19.5,18.2989,19.2366099,18.7678,18.7677701C18.7678,18.7677701,18.0607,18.0606599,18.0607,18.0606599C18.0607,18.0606599,18.0607,18.0606599,18.0607,18.0606599ZM17,18.5C16.6022,18.5,16.220599999999997,18.34196,15.9393,18.0606599C15.9393,18.0606599,15.2322,18.7677701,15.2322,18.7677701C15.7011,19.2366099,16.337,19.5,17,19.5C17,19.5,17,18.5,17,18.5C17,18.5,17,18.5,17,18.5ZM15.9393,18.0606599C15.658,17.779360099999998,15.5,17.39782,15.5,17C15.5,17,14.5,17,14.5,17C14.5,17.6630399,14.7633896,18.2989299,15.2322,18.7677701C15.2322,18.7677701,15.9393,18.0606599,15.9393,18.0606599C15.9393,18.0606599,15.9393,18.0606599,15.9393,18.0606599ZM15.5,17C15.5,16.60218,15.658,16.22065,15.9393,15.93934C15.9393,15.93934,15.2322,15.232233,15.2322,15.232233C14.7633896,15.701074,14.5,16.33696,14.5,17C14.5,17,15.5,17,15.5,17C15.5,17,15.5,17,15.5,17ZM15.9393,15.93934C16.220599999999997,15.65803498,16.6022,15.5,17,15.5C17,15.5,17,14.5,17,14.5C16.337,14.5,15.7011,14.763393,15.2322,15.232233C15.2322,15.232233,15.9393,15.93934,15.9393,15.93934C15.9393,15.93934,15.9393,15.93934,15.9393,15.93934ZM17,15.5C17.3978,15.5,17.779400000000003,15.65803498,18.0607,15.93934C18.0607,15.93934,18.7678,15.232233,18.7678,15.232233C18.2989,14.763393,17.663,14.5,17,14.5C17,14.5,17,15.5,17,15.5C17,15.5,17,15.5,17,15.5ZM18.0607,15.93934C18.342,16.22065,18.5,16.60218,18.5,17C18.5,17,19.5,17,19.5,17C19.5,16.33696,19.2366,15.701074,18.7678,15.232233C18.7678,15.232233,18.0607,15.93934,18.0607,15.93934C18.0607,15.93934,18.0607,15.93934,18.0607,15.93934Z" fill="#0A0A28" fill-opacity="1"/><path d="M3,6C3,6,2,6,2,6C2,6,3,6,3,6C3,6,3,6,3,6ZM3,16C3,16,2,16,2,16C2,16,3,16,3,16C3,16,3,16,3,16ZM9,17C9,17,8,17,8,17C8,17,9,17,9,17C9,17,9,17,9,17ZM14,7C14,7,14,8,14,8C14,8,14,7,14,7C14,7,14,7,14,7ZM16.586,7C16.586,7,16.586199999999998,6,16.586199999999998,6C16.586199999999998,6,16.586,6,16.586,6C16.586,6,16.586,7,16.586,7C16.586,7,16.586,7,16.586,7ZM17.293,7.293C17.293,7.293,16.5858,8,16.5858,8C16.5858,8,16.585900000000002,8.0001099,16.585900000000002,8.0001099C16.585900000000002,8.0001099,17.293,7.293,17.293,7.293C17.293,7.293,17.293,7.293,17.293,7.293ZM20.707001,10.7069998C20.707001,10.7069998,19.999901,11.4141102,19.999901,11.4141102C19.999901,11.4141102,20,11.4142098,20,11.4142098C20,11.4142098,20.707001,10.7069998,20.707001,10.7069998C20.707001,10.7069998,20.707001,10.7069998,20.707001,10.7069998ZM21,11.414C21,11.414,22,11.414,22,11.414C22,11.414,22,11.413790200000001,22,11.413790200000001C22,11.413790200000001,21,11.414,21,11.414C21,11.414,21,11.414,21,11.414ZM7,15C7,15,7,16,7,16C7,16,7,15,7,15C7,15,7,15,7,15ZM17,15C17,15,17,16,17,16C17,16,17,15,17,15C17,15,17,15,17,15ZM14,16C14,16,14,6,14,6C14,6,12,6,12,6C12,6,12,16,12,16C12,16,14,16,14,16C14,16,14,16,14,16ZM14,6C14,5.4695659899999995,13.7893,4.9608589,13.4142,4.585787C13.4142,4.585787,12,6,12,6C12,6,12,6,12,6C12,6,14,6,14,6C14,6,14,6,14,6ZM13.4142,4.585787C13.0391,4.2107139799999995,12.5304298,4,12,4C12,4,12,6,12,6C12,6,12,6,12,6C12,6,13.4142,4.585787,13.4142,4.585787C13.4142,4.585787,13.4142,4.585787,13.4142,4.585787ZM12,4C12,4,4,4,4,4C4,4,4,6,4,6C4,6,12,6,12,6C12,6,12,4,12,4C12,4,12,4,12,4ZM4,4C3.469567,4,2.9608588,4.2107139799999995,2.58578601,4.585787C2.58578601,4.585787,4,6,4,6C4,6,4,6,4,6C4,6,4,4,4,4C4,4,4,4,4,4ZM2.58578601,4.585787C2.21071398,4.960859299,2,5.469567,2,6C2,6,4,6,4,6C4,6,4,6,4,6C4,6,2.58578601,4.585787,2.58578601,4.585787C2.58578601,4.585787,2.58578601,4.585787,2.58578601,4.585787ZM2,6C2,6,2,16,2,16C2,16,4,16,4,16C4,16,4,6,4,6C4,6,2,6,2,6C2,6,2,6,2,6ZM2,16C2,16.5304,2.21071303,17.039099999999998,2.58578601,17.4142C2.58578601,17.4142,4,16,4,16C4,16,4,16,4,16C4,16,2,16,2,16C2,16,2,16,2,16ZM2.58578601,17.4142C2.960860599,17.7893,3.469569,18,4,18C4,18,4,16,4,16C4,16,4,16,4,16C4,16,2.58578601,17.4142,2.58578601,17.4142C2.58578601,17.4142,2.58578601,17.4142,2.58578601,17.4142ZM4,18C4,18,5,18,5,18C5,18,5,16,5,16C5,16,4,16,4,16C4,16,4,18,4,18C4,18,4,18,4,18ZM12,16C12,16,12,16,12,16C12,16,13.4142,17.4142,13.4142,17.4142C13.7893,17.039099999999998,14,16.5304,14,16C14,16,12,16,12,16C12,16,12,16,12,16ZM12,16C12,16,12,16,12,16C12,16,12,18,12,18C12.5304298,18,13.0391,17.7893,13.4142,17.4142C13.4142,17.4142,12,16,12,16C12,16,12,16,12,16ZM12,16C12,16,9,16,9,16C9,16,9,18,9,18C9,18,12,18,12,18C12,18,12,16,12,16C12,16,12,16,12,16ZM14,16C14,16,14,8,14,8C14,8,12,8,12,8C12,8,12,16,12,16C12,16,14,16,14,16C14,16,14,16,14,16ZM14,8C14,8,14,8,14,8C14,8,12.5857897,6.58579,12.5857897,6.58579C12.2107096,6.96086,12,7.4695699,12,8C12,8,14,8,14,8C14,8,14,8,14,8ZM14,8C14,8,14,8,14,8C14,8,14,6,14,6C13.4696,6,12.9608603,6.21071,12.5857897,6.58579C12.5857897,6.58579,14,8,14,8C14,8,14,8,14,8ZM14,8C14,8,16.586,8,16.586,8C16.586,8,16.586,6,16.586,6C16.586,6,14,6,14,6C14,6,14,8,14,8C14,8,14,8,14,8ZM16.5858,8C16.5858,8,16.5858,8,16.5858,8C16.5858,8,18.0002,6.586,18.0002,6.586C17.6252,6.2108999,17.1166,6.00011,16.586199999999998,6C16.586199999999998,6,16.5858,8,16.5858,8C16.5858,8,16.5858,8,16.5858,8ZM16.585900000000002,8.0001099C16.585900000000002,8.0001099,19.999901,11.4141102,19.999901,11.4141102C19.999901,11.4141102,21.414101,9.9998899,21.414101,9.9998899C21.414101,9.9998899,18.0001,6.5858901,18.0001,6.5858901C18.0001,6.5858901,16.585900000000002,8.0001099,16.585900000000002,8.0001099C16.585900000000002,8.0001099,16.585900000000002,8.0001099,16.585900000000002,8.0001099ZM20,11.4142098C20,11.4142098,20,11.4142098,20,11.4142098C20,11.4142098,22,11.413790200000001,22,11.413790200000001C21.999901,10.8834,21.789101,10.3747702,21.414,9.9997902C21.414,9.9997902,20,11.4142098,20,11.4142098C20,11.4142098,20,11.4142098,20,11.4142098ZM20,11.414C20,11.414,20,16,20,16C20,16,22,16,22,16C22,16,22,11.414,22,11.414C22,11.414,20,11.414,20,11.414C20,11.414,20,11.414,20,11.414ZM20,16C20,16,20,16,20,16C20,16,21.4142,17.4142,21.4142,17.4142C21.789301,17.039099999999998,22,16.5304,22,16C22,16,20,16,20,16C20,16,20,16,20,16ZM20,16C20,16,20,16,20,16C20,16,20,18,20,18C20.530399,18,21.039101,17.7893,21.4142,17.4142C21.4142,17.4142,20,16,20,16C20,16,20,16,20,16ZM20,16C20,16,19,16,19,16C19,16,19,18,19,18C19,18,20,18,20,18C20,18,20,16,20,16C20,16,20,16,20,16ZM12,16C12,16.5304,12.2107096,17.039099999999998,12.5857897,17.4142C12.5857897,17.4142,14,16,14,16C14,16,14,16,14,16C14,16,12,16,12,16C12,16,12,16,12,16ZM12.5857897,17.4142C12.9608603,17.7893,13.4696,18,14,18C14,18,14,16,14,16C14,16,14,16,14,16C14,16,12.5857897,17.4142,12.5857897,17.4142C12.5857897,17.4142,12.5857897,17.4142,12.5857897,17.4142ZM14,18C14,18,15,18,15,18C15,18,15,16,15,16C15,16,14,16,14,16C14,16,14,18,14,18C14,18,14,18,14,18ZM4,17C4,17.7956,4.31607,18.5587,4.87868,19.121299999999998C4.87868,19.121299999999998,6.2928901,17.7071,6.2928901,17.7071C6.10536,17.5196,6,17.2652,6,17C6,17,4,17,4,17C4,17,4,17,4,17ZM4.87868,19.121299999999998C5.4412899,19.6839,6.20435,20,7,20C7,20,7,18,7,18C6.7347801,18,6.4804299,17.8946,6.2928901,17.7071C6.2928901,17.7071,4.87868,19.121299999999998,4.87868,19.121299999999998C4.87868,19.121299999999998,4.87868,19.121299999999998,4.87868,19.121299999999998ZM7,20C7.79565,20,8.558710099999999,19.6839,9.1213198,19.121299999999998C9.1213198,19.121299999999998,7.7071099,17.7071,7.7071099,17.7071C7.5195699,17.8946,7.2652202,18,7,18C7,18,7,20,7,20C7,20,7,20,7,20ZM9.1213198,19.121299999999998C9.683929899999999,18.5587,10,17.7957,10,17C10,17,8,17,8,17C8,17.2652,7.89464,17.5196,7.7071099,17.7071C7.7071099,17.7071,9.1213198,19.121299999999998,9.1213198,19.121299999999998C9.1213198,19.121299999999998,9.1213198,19.121299999999998,9.1213198,19.121299999999998ZM6,17C6,16.7348,6.10536,16.4804,6.2928901,16.2929C6.2928901,16.2929,4.87868,14.8786802,4.87868,14.8786802C4.31607,15.4413,4,16.2044,4,17C4,17,6,17,6,17C6,17,6,17,6,17ZM6.2928901,16.2929C6.4804299,16.1054,6.7347801,16,7,16C7,16,7,14,7,14C6.20435,14,5.4412899,14.3160696,4.87868,14.8786802C4.87868,14.8786802,6.2928901,16.2929,6.2928901,16.2929C6.2928901,16.2929,6.2928901,16.2929,6.2928901,16.2929ZM7,16C7.2652202,16,7.5195699,16.1054,7.7071099,16.2929C7.7071099,16.2929,9.1213198,14.8786802,9.1213198,14.8786802C8.558710099999999,14.3160696,7.79565,14,7,14C7,14,7,16,7,16C7,16,7,16,7,16ZM7.7071099,16.2929C7.89464,16.4804,8,16.7348,8,17C8,17,10,17,10,17C10,16.2043,9.683929899999999,15.4413,9.1213198,14.8786802C9.1213198,14.8786802,7.7071099,16.2929,7.7071099,16.2929C7.7071099,16.2929,7.7071099,16.2929,7.7071099,16.2929ZM14,17C14,17.7957,14.3161,18.5587,14.8787,19.121299999999998C14.8787,19.121299999999998,16.2929,17.7071,16.2929,17.7071C16.1054,17.5196,16,17.2652,16,17C16,17,14,17,14,17C14,17,14,17,14,17ZM14.8787,19.121299999999998C15.4413,19.6839,16.2043,20,17,20C17,20,17,18,17,18C16.7348,18,16.4804,17.8946,16.2929,17.7071C16.2929,17.7071,14.8787,19.121299999999998,14.8787,19.121299999999998C14.8787,19.121299999999998,14.8787,19.121299999999998,14.8787,19.121299999999998ZM17,20C17.7957,20,18.5587,19.6839,19.1213,19.121299999999998C19.1213,19.121299999999998,17.7071,17.7071,17.7071,17.7071C17.5196,17.8946,17.2652,18,17,18C17,18,17,20,17,20C17,20,17,20,17,20ZM19.1213,19.121299999999998C19.683901,18.5587,20,17.7957,20,17C20,17,18,17,18,17C18,17.2652,17.8946,17.5196,17.7071,17.7071C17.7071,17.7071,19.1213,19.121299999999998,19.1213,19.121299999999998C19.1213,19.121299999999998,19.1213,19.121299999999998,19.1213,19.121299999999998ZM16,17C16,16.7348,16.1054,16.4804,16.2929,16.2929C16.2929,16.2929,14.8787,14.8786802,14.8787,14.8786802C14.3161,15.4413,14,16.2043,14,17C14,17,16,17,16,17C16,17,16,17,16,17ZM16.2929,16.2929C16.4804,16.1054,16.7348,16,17,16C17,16,17,14,17,14C16.2043,14,15.4413,14.3160696,14.8787,14.8786802C14.8787,14.8786802,16.2929,16.2929,16.2929,16.2929C16.2929,16.2929,16.2929,16.2929,16.2929,16.2929ZM17,16C17.2652,16,17.5196,16.1054,17.7071,16.2929C17.7071,16.2929,19.1213,14.8786802,19.1213,14.8786802C18.5587,14.3160696,17.7957,14,17,14C17,14,17,16,17,16C17,16,17,16,17,16ZM17.7071,16.2929C17.8946,16.4804,18,16.7348,18,17C18,17,20,17,20,17C20,16.2043,19.683901,15.4413,19.1213,14.8786802C19.1213,14.8786802,17.7071,16.2929,17.7071,16.2929C17.7071,16.2929,17.7071,16.2929,17.7071,16.2929Z" fill="#0A0A28" fill-opacity="1"/></g></svg>