<svg xmlns="http://www.w3.org/2000/svg" xmlns:xlink="http://www.w3.org/1999/xlink" fill="none" version="1.1" width="24" height="24" viewBox="0 0 24 24"><defs><clipPath id="master_svg0_3_1754"><rect x="0" y="0" width="24" height="24" rx="0"/></clipPath></defs><g clip-path="url(#master_svg0_3_1754)"><path d="M9.600000099999999,19.8000001C9.600000099999999,20.277384,9.410352,20.7352202,9.072792100000001,21.0727921C8.735232100000001,21.410352,8.277384,21.6000001,7.8000001,21.6000001C7.3226161,21.6000001,6.86477286,21.410352,6.52720803,21.0727921C6.189642,20.7352202,6,20.277384,6,19.8000001C6,19.3226161,6.189642,18.86477286,6.52720803,18.52720803C6.86477286,18.189642,7.3226161,18.000000000000004,7.8000001,18C8.277384,18.000000000000004,8.735232100000001,18.189642,9.072792100000001,18.52720803C9.410352,18.86477286,9.600000099999999,19.3226161,9.600000099999999,19.8000001C9.600000099999999,19.8000001,9.600000099999999,19.8000001,9.600000099999999,19.8000001ZM18,19.8000001C18,20.277384,17.810352,20.7352202,17.472793,21.0727921C17.135232000000002,21.410352,16.677385,21.6000001,16.200001,21.6000001C15.7226162,21.6000001,15.2647686,21.410352,14.9272089,21.0727921C14.5896482,20.7352202,14.4000006,20.277384,14.4000006,19.8000001C14.4000006,19.3226161,14.5896482,18.86477286,14.9272089,18.52720803C15.2647686,18.189642,15.7226162,18.000000000000004,16.200001,18C16.677385,18.000000000000004,17.135232000000002,18.189642,17.472793,18.52720803C17.810352,18.86477286,18,19.3226161,18,19.8000001C18,19.8000001,18,19.8000001,18,19.8000001Z" fill="#0A0A28" fill-opacity="1"/><path d="M3.6000244140625,4.800048828125C3.2817652840625,4.800048828125,2.9765404440625,4.926477238125,2.7514960140625,5.151520428125C2.5264528240625,5.376564858125,2.400024414062501,5.681789698125,2.4000244140625,6.000048828125C2.4000244140625,6.000048828125,2.4000244140625,18.000049828125,2.4000244140625,18.000049828125C2.4000244140625004,18.318288828125,2.5264528240625,18.623569828125,2.7514960140625,18.848568828125C2.9765404440625,19.073568828124998,3.2817652840625,19.200049828125,3.6000244140625,19.200049828125C3.6000244140625,19.200049828125,4.8600244140625,19.200049828125,4.8600244140625,19.200049828125C4.9977367140624995,18.521929828125,5.365656414062499,17.912209828125,5.9014685140625005,17.474209828124998C6.4372806140625,17.036329828124998,7.1080088140625,16.797036828125,7.8000245140625,16.797036828125C8.4920411140625,16.797036828125,9.162768814062499,17.036329828124998,9.698580714062501,17.474209828124998C10.2343926140625,17.912209828125,10.6023130140625,18.521929828125,10.7400246140625,19.200049828125C10.7400246140625,19.200049828125,12.0000248140625,19.200049828125,12.0000248140625,19.200049828125C12.3182888140625,19.200049828125,12.6235094140625,19.073568828124998,12.8485574140625,18.848568828125C13.0735934140625,18.623569828125,13.2000244140625,18.318288828125,13.2000244140625,18.000049828125C13.2000244140625,18.000049828125,13.2000244140625,6.000048828125,13.2000244140625,6.000048828125C13.2000244140625,5.681789698125,13.0735934140625,5.376564858125,12.8485574140625,5.151520428125C12.6235094140625,4.926477238125,12.3182888140625,4.800048828125001,12.0000248140625,4.800048828125C12.0000248140625,4.800048828125,3.6000244140625,4.800048828125,3.6000244140625,4.800048828125C3.6000244140625,4.800048828125,3.6000244140625,4.800048828125,3.6000244140625,4.800048828125ZM16.8000254140625,8.400048928124999C16.4817854140625,8.400048928124999,16.1765054140625,8.526480928125,15.9515044140625,8.751517028125C15.7265054140625,8.976564928125,15.6000254140625,9.281785028125,15.6000254140625,9.600049028125C15.6000254140625,9.600049028125,15.6000254140625,16.860048828125002,15.6000254140625,16.860048828125002C15.9860644140625,16.781173828125,16.3839854140625,16.779132828125,16.7708654140625,16.854049828125C17.1577454140625,16.928929828125,17.526024414062498,17.079408828125,17.8548254140625,17.296729828125002C18.183505414062502,17.513929828125,18.4662244140625,17.793889828125,18.6867844140625,18.120528828125C18.9072244140625,18.447049828125,19.0613064140625,18.813889828125,19.1400244140625,19.200049828125C19.1400244140625,19.200049828125,20.4000244140625,19.200049828125,20.4000244140625,19.200049828125C20.7182654140625,19.200049828125,21.0235444140625,19.073568828124998,21.2485444140625,18.848568828125C21.4735454140625,18.623569828125,21.6000254140625,18.318288828125,21.6000254140625,18.000049828125C21.6000254140625,18.000049828125,21.6000254140625,12.000049128125,21.6000254140625,12.000049128125C21.5999054140625,11.681820828125,21.4735454140625,11.376637428125001,21.2484244140625,11.151649428125001C21.2484244140625,11.151649428125001,18.8484244140625,8.751648928125,18.8484244140625,8.751648928125C18.6234244140625,8.526588928125,18.318265414062502,8.400120928125,18.0000244140625,8.400048928124999C18.0000244140625,8.400048928124999,16.8000254140625,8.400048928124999,16.8000254140625,8.400048928124999C16.8000254140625,8.400048928124999,16.8000254140625,8.400048928124999,16.8000254140625,8.400048928124999Z" fill="#0A0A28" fill-opacity="1"/></g></svg>