<svg xmlns="http://www.w3.org/2000/svg" xmlns:xlink="http://www.w3.org/1999/xlink" fill="none" version="1.1" width="24" height="24" viewBox="0 0 24 24"><path d="M3.49250007,6.5C2.95521528,6.5,2.5,6.0447848,2.5,5.49250007C2.5,4.95521528,2.95521528,4.5,3.5075000999999997,4.5C4.0447848,4.5,4.5,4.95521528,4.5,5.5075001C4.5,6.0447848,4.0447848,6.5,3.49250007,6.5M20.500929,6.5C17.774072,6.5,10.2259288,6.5,7.4990721,6.5C6.9467864,6.4999998,6.5,6.0447848,6.5,5.49250007C6.5,4.95521528,6.9467864,4.5,7.4990711,4.5C10.2259283,4.5,17.774071,4.5,20.500929,4.5C21.053213,4.5,21.500002,4.95521528,21.500002,5.5075001C21.500002,6.0447848,21.053213,6.4999998,20.500929,6.4999998M3.49250007,13C2.95521528,13,2.5,12.5447855,2.5,11.9925003C2.5,11.455215500000001,2.95521528,11,3.5075000999999997,11C4.0447848,11,4.5,11.455215500000001,4.5,12.007500199999999C4.5,12.5447855,4.0447848,13,3.49250007,13M20.500929,13C17.774072,13,10.2259288,13,7.4990721,13C6.9467864,13,6.5,12.5447855,6.5,11.9925003C6.5,11.455215500000001,6.9467864,11,7.4990711,11C10.2259283,11,17.774071,11,20.500929,11C21.053213,11,21.500002,11.455215500000001,21.500002,12.007500199999999C21.500002,12.5447855,21.053213,13,20.500929,13M3.49250007,19.5C2.95521528,19.500000999999997,2.5,19.044784999999997,2.5,18.4925C2.5,17.955215000000003,2.95521528,17.5,3.5075000999999997,17.5C4.0447848,17.5,4.5,17.955215000000003,4.5,18.507500999999998C4.5,19.044784999999997,4.0447848,19.500000999999997,3.49250007,19.500000999999997M20.500929,19.5C17.774072,19.5,10.2259288,19.5,7.4990721,19.5C6.9467864,19.499999000000003,6.5,19.044784999999997,6.5,18.4925C6.5,17.955215000000003,6.9467864,17.5,7.4990711,17.5C10.2259283,17.5,17.774071,17.5,20.500929,17.5C21.053213,17.5,21.500002,17.955215000000003,21.500002,18.507500999999998C21.500002,19.044784999999997,21.053213,19.499999000000003,20.500929,19.499999000000003" fill-rule="evenodd" fill="#0A0A28" fill-opacity="1"/></svg>