<svg xmlns="http://www.w3.org/2000/svg" xmlns:xlink="http://www.w3.org/1999/xlink" fill="none" version="1.1" width="24" height="24" viewBox="0 0 24 24"><defs><clipPath id="master_svg0_3_1930"><rect x="0" y="0" width="24" height="24" rx="0"/></clipPath></defs><g clip-path="url(#master_svg0_3_1930)"><path d="M3.5999755859375,20.4000285546875C3.5999755859375,20.0817885546875,3.7264039959375,19.7765085546875,3.9514471859375,19.5515095546875C4.1764916159375,19.3263895546875,4.4817164559375,19.2000295546875,4.7999755859375,19.2000295546875C4.7999755859375,19.2000295546875,19.1999755859375,19.2000295546875,19.1999755859375,19.2000295546875C19.518216585937502,19.2000295546875,19.8234955859375,19.3263895546875,20.0484965859375,19.5515095546875C20.2734965859375,19.7765085546875,20.3999765859375,20.0817885546875,20.3999765859375,20.4000285546875C20.3999765859375,20.7182695546875,20.2734965859375,21.0235485546875,20.0484965859375,21.2485485546875C19.8234955859375,21.4735485546875,19.518216585937502,21.6000285546875,19.1999755859375,21.6000285546875C19.1999755859375,21.6000285546875,4.7999755859375,21.6000285546875,4.7999755859375,21.6000285546875C4.4817164559375,21.6000285546875,4.1764916159375,21.4735485546875,3.9514471859375,21.2485485546875C3.7264039959375,21.0235485546875,3.5999755859375004,20.7182695546875,3.5999755859375,20.4000285546875C3.5999755859375,20.4000285546875,3.5999755859375,20.4000285546875,3.5999755859375,20.4000285546875ZM7.5515756859375,8.0484166546875C7.3266117859375,7.8233804546875,7.2002277859375,7.5182084546875,7.2002277859375,7.2000164546875C7.2002277859375,6.8818130546875,7.3266117859375,6.5766406546875,7.5515756859375,6.351616654687501C7.5515756859375,6.351616654687501,11.1515760859375,2.7516117646875,11.1515760859375,2.7516117646875C11.376611685937501,2.5266465546875,11.6817836859375,2.4002685546875004,11.9999761859375,2.4002685546875C12.3181676859375,2.4002685546875,12.6233405859375,2.5266465546875,12.8483752859375,2.7516117646875C12.8483752859375,2.7516117646875,16.448375585937498,6.351616654687501,16.448375585937498,6.351616654687501C16.6670155859375,6.5779366546875,16.7879765859375,6.8810567546875,16.785216585937498,7.1956968546875C16.7824565859375,7.5103244546875,16.6562165859375,7.8113088546875,16.433736585937503,8.0337886546875C16.211256585937498,8.2562808546875,15.9102965859375,8.3824844546875,15.5956555859375,8.385220954687501C15.2810155859375,8.3879566546875,14.9778955859375,8.2669963546875,14.7515765859375,8.0484166546875C14.7515765859375,8.0484166546875,13.1999759859375,6.4968166546875,13.1999759859375,6.4968166546875C13.1999759859375,6.4968166546875,13.1999759859375,15.6000285546875,13.1999759859375,15.6000285546875C13.1999759859375,15.9182695546875,13.0735435859375,16.2235485546875,12.8485078859375,16.4485485546875C12.6234597859375,16.6735485546875,12.3182401859375,16.8000285546875,11.9999761859375,16.8000285546875C11.6817121859375,16.8000285546875,11.3764919859375,16.6735485546875,11.151443985937501,16.4485485546875C10.9264077859375,16.2235485546875,10.7999758859375,15.9182695546875,10.7999758859375,15.6000285546875C10.7999758859375,15.6000285546875,10.7999758859375,6.4968166546875,10.7999758859375,6.4968166546875C10.7999758859375,6.4968166546875,9.2483753859375,8.0484166546875,9.2483753859375,8.0484166546875C9.0233401859375,8.2733807546875,8.7181677859375,8.3997526546875,8.3999757859375,8.3997526546875C8.0817837859375,8.3997526546875,7.7766117859375,8.2733807546875,7.5515756859375,8.0484166546875C7.5515756859375,8.0484166546875,7.5515756859375,8.0484166546875,7.5515756859375,8.0484166546875C7.5515756859375,8.0484166546875,7.5515756859375,8.0484166546875,7.5515756859375,8.0484166546875Z" fill-rule="evenodd" fill="#0A0A28" fill-opacity="1"/></g></svg>