<svg xmlns="http://www.w3.org/2000/svg" xmlns:xlink="http://www.w3.org/1999/xlink" fill="none" version="1.1" width="24" height="24" viewBox="0 0 24 24"><defs><clipPath id="master_svg0_3_1907"><rect x="0" y="0" width="24" height="24" rx="0"/></clipPath></defs><g clip-path="url(#master_svg0_3_1907)"><path d="M16,7C16,7,17,7,17,7C17,7,16,7,16,7C16,7,16,7,16,7ZM12,11C12,11,12,12,12,12C12,12,12,11,12,11C12,11,12,11,12,11ZM8,7C8,7,7,7,7,7C7,7,8,7,8,7C8,7,8,7,8,7ZM12,3C12,3,12,2,12,2C12,2,12,3,12,3C12,3,12,3,12,3ZM12,14C12,14,12,13,12,13C12,13,12,14,12,14C12,14,12,14,12,14ZM5,21C5,21,4,21,4,21C4,21.2652,4.10535699,21.5196,4.29289299,21.7071C4.48043001,21.8946,4.73478401,22,5,22C5,22,5,21,5,21C5,21,5,21,5,21ZM19,21C19,21,19,22,19,22C19.552300000000002,22,20,21.552299,20,21C20,21,19,21,19,21C19,21,19,21,19,21ZM15,7C15,7.79565,14.6839304,8.558710099999999,14.1213198,9.1213198C14.1213198,9.1213198,15.5355,10.535530099999999,15.5355,10.535530099999999C16.4732,9.597849799999999,17,8.326079799999999,17,7C17,7,15,7,15,7C15,7,15,7,15,7ZM14.1213198,9.1213198C13.5587101,9.683929899999999,12.79565,10,12,10C12,10,12,12,12,12C13.3260803,12,14.5978498,11.4732199,15.5355,10.535530099999999C15.5355,10.535530099999999,14.1213198,9.1213198,14.1213198,9.1213198C14.1213198,9.1213198,14.1213198,9.1213198,14.1213198,9.1213198ZM12,10C11.20435,10,10.441289900000001,9.683929899999999,9.8786802,9.1213198C9.8786802,9.1213198,8.464469900000001,10.535530099999999,8.464469900000001,10.535530099999999C9.402150200000001,11.4732199,10.673920200000001,12,12,12C12,12,12,10,12,10C12,10,12,10,12,10ZM9.8786802,9.1213198C9.316070100000001,8.558710099999999,9,7.79565,9,7C9,7,7,7,7,7C7,8.326079799999999,7.5267799,9.597849799999999,8.464469900000001,10.535530099999999C8.464469900000001,10.535530099999999,9.8786802,9.1213198,9.8786802,9.1213198C9.8786802,9.1213198,9.8786802,9.1213198,9.8786802,9.1213198ZM9,7C9,6.20435,9.316070100000001,5.4412899,9.8786802,4.87868C9.8786802,4.87868,8.464469900000001,3.4644660099999998,8.464469900000001,3.4644660099999998C7.5267799,4.40215,7,5.6739199,7,7C7,7,9,7,9,7C9,7,9,7,9,7ZM9.8786802,4.87868C10.441289900000001,4.31607,11.20435,4,12,4C12,4,12,2,12,2C10.673920200000001,2,9.402150200000001,2.526784,8.464469900000001,3.4644660099999998C8.464469900000001,3.4644660099999998,9.8786802,4.87868,9.8786802,4.87868C9.8786802,4.87868,9.8786802,4.87868,9.8786802,4.87868ZM12,4C12.79565,4,13.5587101,4.31607,14.1213198,4.87868C14.1213198,4.87868,15.5355,3.4644660099999998,15.5355,3.4644660099999998C14.5978498,2.526784,13.3260803,2,12,2C12,2,12,4,12,4C12,4,12,4,12,4ZM14.1213198,4.87868C14.6839304,5.4412899,15,6.20435,15,7C15,7,17,7,17,7C17,5.6739199,16.4732,4.40215,15.5355,3.4644660099999998C15.5355,3.4644660099999998,14.1213198,4.87868,14.1213198,4.87868C14.1213198,4.87868,14.1213198,4.87868,14.1213198,4.87868ZM12,13C9.8782701,13,7.8434401000000005,13.8429,6.34315,15.3431C6.34315,15.3431,7.75736,16.7574,7.75736,16.7574C8.88258,15.6321,10.4087,15,12,15C12,15,12,13,12,13C12,13,12,13,12,13ZM6.34315,15.3431C4.84285501,16.843400000000003,4,18.8783,4,21C4,21,6,21,6,21C6,19.408701,6.63214,17.8826,7.75736,16.7574C7.75736,16.7574,6.34315,15.3431,6.34315,15.3431C6.34315,15.3431,6.34315,15.3431,6.34315,15.3431ZM5,22C5,22,19,22,19,22C19,22,19,20,19,20C19,20,5,20,5,20C5,20,5,22,5,22C5,22,5,22,5,22ZM20,21C20,18.8783,19.1571,16.843400000000003,17.6569,15.3431C17.6569,15.3431,16.2426,16.7574,16.2426,16.7574C17.3679,17.8826,18,19.408701,18,21C18,21,20,21,20,21C20,21,20,21,20,21ZM17.6569,15.3431C16.156599999999997,13.8429,14.1217299,13,12,13C12,13,12,15,12,15C13.5913,15,15.1174,15.6321,16.2426,16.7574C16.2426,16.7574,17.6569,15.3431,17.6569,15.3431C17.6569,15.3431,17.6569,15.3431,17.6569,15.3431Z" fill="#0A0A28" fill-opacity="1"/></g></svg>