<svg xmlns="http://www.w3.org/2000/svg" xmlns:xlink="http://www.w3.org/1999/xlink" fill="none" version="1.1" width="24" height="24" viewBox="0 0 24 24"><defs><clipPath id="master_svg0_3_1971"><rect x="0" y="0" width="24" height="24" rx="0"/></clipPath></defs><g clip-path="url(#master_svg0_3_1971)"><path d="M9.6000247140625,10.7999758859375C10.5548048140625,10.7999758859375,11.4704771140625,10.4206919859375,12.1456089140625,9.7455596859375C12.8207414140625,9.0704278859375,13.2000244140625,8.154755585937501,13.2000244140625,7.1999756859375C13.2000244140625,6.2451955859375,12.8207414140625,5.3295236859375,12.1456089140625,4.6543916859375C11.4704771140625,3.9792608059375,10.5548048140625,3.5999755859375004,9.6000247140625,3.5999755859375C8.6452446140625,3.599975585937501,7.7295723140625,3.9792608059375,7.0544405140625,4.6543916859375C6.3793087140625,5.3295236859375,6.0000245140625,6.2451955859375,6.0000245140625,7.1999756859375C6.0000245140625,8.154755585937501,6.3793087140625,9.0704278859375,7.0544405140625,9.7455596859375C7.7295723140625,10.4206919859375,8.6452446140625,10.7999758859375,9.6000247140625,10.7999758859375C9.6000247140625,10.7999758859375,9.6000247140625,10.7999758859375,9.6000247140625,10.7999758859375C9.6000247140625,10.7999758859375,9.6000247140625,10.7999758859375,9.6000247140625,10.7999758859375ZM9.6000247140625,13.1999759859375C11.5095844140625,13.1999759859375,13.3409294140625,13.9585435859375,14.6911454140625,15.3088085859375C16.0415044140625,16.6590955859375,16.8000254140625,18.4904165859375,16.8000254140625,20.3999765859375C16.8000254140625,20.3999765859375,2.4000244140625,20.3999765859375,2.4000244140625,20.3999765859375C2.4000244140625004,18.4904165859375,3.1585936540625,16.6590955859375,4.5088565140625,15.3088085859375C5.859120614062499,13.9585435859375,7.6904645140625,13.1999759859375,9.6000247140625,13.1999759859375C9.6000247140625,13.1999759859375,9.6000247140625,13.1999759859375,9.6000247140625,13.1999759859375C9.6000247140625,13.1999759859375,9.6000247140625,13.1999759859375,9.6000247140625,13.1999759859375ZM19.2000254140625,8.3999757859375C19.2000254140625,8.0817117859375,19.0735454140625,7.7764916859375,18.8485454140625,7.5514437859375C18.6235444140625,7.3264076859375,18.318265414062502,7.1999756859375,18.0000244140625,7.1999756859375C17.6817854140625,7.1999756859375,17.376504414062502,7.3264076859375,17.1515054140625,7.5514437859375C16.9265054140625,7.7764916859375,16.8000254140625,8.0817117859375,16.8000254140625,8.3999757859375C16.8000254140625,8.3999757859375,16.8000254140625,9.5999755859375,16.8000254140625,9.5999755859375C16.8000254140625,9.5999755859375,15.6000254140625,9.5999755859375,15.6000254140625,9.5999755859375C15.2817854140625,9.5999755859375,14.9765054140625,9.726407985937499,14.7515044140625,9.9514441859375C14.5265054140625,10.1764921859375,14.4000244140625,10.4817118859375,14.4000244140625,10.7999758859375C14.4000244140625,11.1182398859375,14.5265054140625,11.4234594859375,14.7515044140625,11.6485080859375C14.9765054140625,11.8735437859375,15.2817854140625,11.9999761859375,15.6000254140625,11.9999761859375C15.6000254140625,11.9999761859375,16.8000254140625,11.9999761859375,16.8000254140625,11.9999761859375C16.8000254140625,11.9999761859375,16.8000254140625,13.1999759859375,16.8000254140625,13.1999759859375C16.8000254140625,13.5182399859375,16.9265054140625,13.8234605859375,17.1515054140625,14.0485085859375C17.376504414062502,14.2735445859375,17.6817854140625,14.3999755859375,18.0000244140625,14.3999755859375C18.318265414062502,14.3999755859375,18.6235444140625,14.2735445859375,18.8485454140625,14.0485085859375C19.0735454140625,13.8234605859375,19.2000254140625,13.5182399859375,19.2000254140625,13.1999759859375C19.2000254140625,13.1999759859375,19.2000254140625,11.9999761859375,19.2000254140625,11.9999761859375C19.2000254140625,11.9999761859375,20.4000244140625,11.9999761859375,20.4000244140625,11.9999761859375C20.7182654140625,11.9999761859375,21.0235444140625,11.8735437859375,21.2485444140625,11.6485080859375C21.4735454140625,11.4234594859375,21.6000254140625,11.1182398859375,21.6000254140625,10.7999758859375C21.6000254140625,10.4817118859375,21.4735454140625,10.1764921859375,21.2485444140625,9.9514441859375C21.0235444140625,9.726407985937499,20.7182654140625,9.5999755859375,20.4000244140625,9.5999755859375C20.4000244140625,9.5999755859375,19.2000254140625,9.5999755859375,19.2000254140625,9.5999755859375C19.2000254140625,9.5999755859375,19.2000254140625,8.3999757859375,19.2000254140625,8.3999757859375C19.2000254140625,8.3999757859375,19.2000254140625,8.3999757859375,19.2000254140625,8.3999757859375Z" fill="#0A0A28" fill-opacity="1"/></g></svg>