<svg xmlns="http://www.w3.org/2000/svg" xmlns:xlink="http://www.w3.org/1999/xlink" fill="none" version="1.1" width="24" height="24" viewBox="0 0 24 24"><defs><clipPath id="master_svg0_3_2366"><rect x="0" y="0" width="24" height="24" rx="0"/></clipPath></defs><g clip-path="url(#master_svg0_3_2366)"><path d="M10.80001260703125,7.1999756859375C10.80001260703125,8.154755585937501,10.42072870703125,9.0704278859375,9.74559590703125,9.7455596859375C9.07046460703125,10.4206919859375,8.15479230703125,10.7999758859375,7.20001220703125,10.7999758859375C6.24523260703125,10.7999758859375,5.32956030703125,10.4206919859375,4.65442820703125,9.7455596859375C3.97929640703125,9.0704278859375,3.60001230703125,8.154755585937501,3.60001230703125,7.1999756859375C3.60001230703125,6.2451955859375,3.97929640703125,5.3295236859375,4.65442820703125,4.6543916859375C5.32956030703125,3.9792608059375,6.24523260703125,3.599975585937501,7.20001220703125,3.5999755859375C8.15479230703125,3.5999755859375004,9.07046460703125,3.9792608059375,9.74559590703125,4.6543916859375C10.42072870703125,5.3295236859375,10.80001260703125,6.2451955859375,10.80001260703125,7.1999756859375C10.80001260703125,7.1999756859375,10.80001260703125,7.1999756859375,10.80001260703125,7.1999756859375C10.80001260703125,7.1999756859375,10.80001260703125,7.1999756859375,10.80001260703125,7.1999756859375ZM20.40001320703125,7.1999756859375C20.40001320703125,7.6727399859375,20.30689420703125,8.1408595859375,20.12593220703125,8.577635785937499C19.94509320703125,9.0144118859375,19.67989320703125,9.411263985937499,19.34557320703125,9.7455596859375C19.01125320703125,10.0798558859375,18.61441220703125,10.345019785937499,18.17773220703125,10.5259437859375C17.74093220703125,10.706855785937499,17.27281420703125,10.7999758859375,16.80001220703125,10.7999758859375C16.327212207031252,10.7999758859375,15.85909320703125,10.706855785937499,15.42229320703125,10.5259437859375C14.98561320703125,10.345019785937499,14.58877320703125,10.0798558859375,14.25445220703125,9.7455596859375C13.92013220703125,9.411263985937499,13.65493320703125,9.0144118859375,13.47409320703125,8.577635785937499C13.29313220703125,8.1408595859375,13.20001220703125,7.6727399859375,13.20001220703125,7.1999756859375C13.20001220703125,6.2451955859375,13.57933320703125,5.3295236859375,14.25445220703125,4.6543916859375C14.92957320703125,3.9792608059375,15.84529320703125,3.599975585937501,16.80001220703125,3.5999755859375C17.75473220703125,3.5999755859375004,18.67045220703125,3.9792608059375,19.34557320703125,4.6543916859375C20.02069320703125,5.3295236859375,20.40001320703125,6.2451955859375,20.40001320703125,7.1999756859375C20.40001320703125,7.1999756859375,20.40001320703125,7.1999756859375,20.40001320703125,7.1999756859375C20.40001320703125,7.1999756859375,20.40001320703125,7.1999756859375,20.40001320703125,7.1999756859375ZM15.51601320703125,20.3999765859375C15.57121320703125,20.0075755859375,15.60001320703125,19.6079765859375,15.60001320703125,19.1999755859375C15.60277320703125,17.3146565859375,14.96845220703125,15.4835995859375,13.80001220703125,14.0039755859375C14.71213320703125,13.4773683859375,15.74677320703125,13.2001313859375,16.80001220703125,13.2001313859375C17.85313220703125,13.2001199859375,18.88789220703125,13.4773444859375,19.79989220703125,14.0039395859375C20.71201320703125,14.5305355859375,21.46945220703125,15.2879395859375,21.99613220703125,16.1999755859375C22.52269320703125,17.1120965859375,22.80001220703125,18.1467365859375,22.80001220703125,19.1999755859375C22.80001220703125,19.1999755859375,22.80001220703125,20.3999765859375,22.80001220703125,20.3999765859375C22.80001220703125,20.3999765859375,15.51601320703125,20.3999765859375,15.51601320703125,20.3999765859375C15.51601320703125,20.3999765859375,15.51601320703125,20.3999765859375,15.51601320703125,20.3999765859375ZM7.20001220703125,13.1999759859375C8.79130840703125,13.1999759859375,10.31743240703125,13.8321125859375,11.44264920703125,14.9573405859375C12.56787720703125,16.0824955859375,13.20001220703125,17.6086555859375,13.20001220703125,19.1999755859375C13.20001220703125,19.1999755859375,13.20001220703125,20.3999765859375,13.20001220703125,20.3999765859375C13.20001220703125,20.3999765859375,1.20001220703125,20.3999765859375,1.20001220703125,20.3999765859375C1.20001220703125,20.3999765859375,1.20001220703125,19.1999755859375,1.20001220703125,19.1999755859375C1.2000122070312502,17.6086555859375,1.83215302703125,16.0824955859375,2.95737640703125,14.9573405859375C4.08259220703125,13.8321125859375,5.60871650703125,13.1999759859375,7.20001220703125,13.1999759859375C7.20001220703125,13.1999759859375,7.20001220703125,13.1999759859375,7.20001220703125,13.1999759859375C7.20001220703125,13.1999759859375,7.20001220703125,13.1999759859375,7.20001220703125,13.1999759859375Z" fill="#0A0A28" fill-opacity="1"/></g></svg>