<svg xmlns="http://www.w3.org/2000/svg" xmlns:xlink="http://www.w3.org/1999/xlink" fill="none" version="1.1" width="24" height="24" viewBox="0 0 24 24"><defs><clipPath id="master_svg0_3_1643"><rect x="0" y="0" width="24" height="24" rx="0"/></clipPath></defs><g clip-path="url(#master_svg0_3_1643)"><path d="M15.60001320703125,7.1999756859375C15.60001320703125,8.154755585937501,15.22069220703125,9.0704278859375,14.54557220703125,9.7455596859375C13.87045220703125,10.4206919859375,12.95479220703125,10.7999758859375,12.00001220703125,10.7999758859375C11.04523280703125,10.7999758859375,10.12956050703125,10.4206919859375,9.45442870703125,9.7455596859375C8.77929640703125,9.0704278859375,8.40001250703125,8.154755585937501,8.40001250703125,7.1999756859375C8.40001250703125,6.2451955859375,8.77929640703125,5.3295236859375,9.45442870703125,4.6543916859375C10.12956050703125,3.9792608059375,11.04523280703125,3.599975585937501,12.00001220703125,3.5999755859375C12.95479220703125,3.5999755859375004,13.87045220703125,3.9792608059375,14.54557220703125,4.6543916859375C15.22069220703125,5.3295236859375,15.60001320703125,6.2451955859375,15.60001320703125,7.1999756859375C15.60001320703125,7.1999756859375,15.60001320703125,7.1999756859375,15.60001320703125,7.1999756859375C15.60001320703125,7.1999756859375,15.60001320703125,7.1999756859375,15.60001320703125,7.1999756859375ZM21.60001420703125,9.5999755859375C21.60001420703125,10.2364916859375,21.34717320703125,10.8469442859375,20.89705320703125,11.2970275859375C20.44693420703125,11.7471236859375,19.83649220703125,11.9999761859375,19.20001220703125,11.9999761859375C18.56353220703125,11.9999761859375,17.95309220703125,11.7471236859375,17.50297320703125,11.2970275859375C17.05285220703125,10.8469442859375,16.80001220703125,10.2364916859375,16.80001220703125,9.5999755859375C16.80001220703125,8.9634599859375,17.05285220703125,8.3530077859375,17.50297320703125,7.9029235859375C17.95309220703125,7.4528276859375,18.56353220703125,7.1999756859375,19.20001220703125,7.1999756859375C19.83649220703125,7.1999756859375,20.44693420703125,7.4528276859375,20.89705320703125,7.9029235859375C21.34717320703125,8.3530077859375,21.60001420703125,8.9634599859375,21.60001420703125,9.5999755859375C21.60001420703125,9.5999755859375,21.60001420703125,9.5999755859375,21.60001420703125,9.5999755859375C21.60001420703125,9.5999755859375,21.60001420703125,9.5999755859375,21.60001420703125,9.5999755859375ZM16.80001220703125,17.9999765859375C16.80001220703125,16.7268965859375,16.29433220703125,15.5060395859375,15.39409220703125,14.6058595859375C14.49397420703125,13.7056915859375,13.27309220703125,13.1999759859375,12.00001220703125,13.1999759859375C10.72696880703125,13.1999759859375,9.50607680703125,13.7056915859375,8.60589650703125,14.6058595859375C7.70572850703125,15.5060395859375,7.20001220703125,16.7268965859375,7.20001220703125,17.9999765859375C7.20001220703125,17.9999765859375,7.20001220703125,21.5999755859375,7.20001220703125,21.5999755859375C7.20001220703125,21.5999755859375,16.80001220703125,21.5999755859375,16.80001220703125,21.5999755859375C16.80001220703125,21.5999755859375,16.80001220703125,17.9999765859375,16.80001220703125,17.9999765859375C16.80001220703125,17.9999765859375,16.80001220703125,17.9999765859375,16.80001220703125,17.9999765859375ZM7.20001220703125,9.5999755859375C7.20001220703125,10.2364916859375,6.94716020703125,10.8469442859375,6.49706410703125,11.2970275859375C6.04698090703125,11.7471236859375,5.43652870703125,11.9999761859375,4.80001230703125,11.9999761859375C4.163496207031249,11.9999761859375,3.55304430703125,11.7471236859375,3.1029603070312497,11.2970275859375C2.6528643070312503,10.8469442859375,2.40001220703125,10.2364916859375,2.40001220703125,9.5999755859375C2.40001220703125,8.9634599859375,2.6528643070312503,8.3530077859375,3.1029603070312497,7.9029235859375C3.55304430703125,7.4528276859375,4.163496207031249,7.1999756859375,4.80001230703125,7.1999756859375C5.43652870703125,7.1999756859375,6.04698090703125,7.4528276859375,6.49706410703125,7.9029235859375C6.94716020703125,8.3530077859375,7.20001220703125,8.9634599859375,7.20001220703125,9.5999755859375C7.20001220703125,9.5999755859375,7.20001220703125,9.5999755859375,7.20001220703125,9.5999755859375C7.20001220703125,9.5999755859375,7.20001220703125,9.5999755859375,7.20001220703125,9.5999755859375ZM19.20001220703125,21.5999755859375C19.20001220703125,21.5999755859375,19.20001220703125,17.9999765859375,19.20001220703125,17.9999765859375C19.20169220703125,16.7799365859375,18.89197320703125,15.5796125859375,18.30001220703125,14.5127755859375C18.83197420703125,14.3766245859375,19.38817420703125,14.3637835859375,19.92589420703125,14.4752405859375C20.46361120703125,14.5866845859375,20.96881520703125,14.8194845859375,21.40285120703125,15.1558685859375C21.83689120703125,15.4922515859375,22.18837120703125,15.9233755859375,22.43053420703125,16.4162155859375C22.67269320703125,16.9091755859375,22.79905320703125,17.4508565859375,22.80001220703125,17.9999765859375C22.80001220703125,17.9999765859375,22.80001220703125,21.5999755859375,22.80001220703125,21.5999755859375C22.80001220703125,21.5999755859375,19.20001220703125,21.5999755859375,19.20001220703125,21.5999755859375C19.20001220703125,21.5999755859375,19.20001220703125,21.5999755859375,19.20001220703125,21.5999755859375ZM5.70001220703125,14.5127755859375C5.10811260703125,15.5796365859375,4.79833240703125,16.7799365859375,4.80001230703125,17.9999765859375C4.80001230703125,17.9999765859375,4.80001230703125,21.5999755859375,4.80001230703125,21.5999755859375C4.80001230703125,21.5999755859375,1.20001252589526,21.5999755859375,1.20001252589526,21.5999755859375C1.20001252589526,21.5999755859375,1.20001252589526,17.9999765859375,1.20001252589526,17.9999765859375C1.19978124542125,17.4503755859375,1.3253678270312501,16.9080965859375,1.56714862703125,16.4146555859375C1.80892938703125,15.9210955859375,2.16048502703125,15.4894925859375,2.59486820703125,15.1528805859375C3.02925620703125,14.8162555859375,3.53494830703125,14.5835515859375,4.07318420703125,14.4725995859375C4.61142040703125,14.3616475859375,5.16790840703125,14.3753885859375,5.70001220703125,14.5127755859375C5.70001220703125,14.5127755859375,5.70001220703125,14.5127755859375,5.70001220703125,14.5127755859375C5.70001220703125,14.5127755859375,5.70001220703125,14.5127755859375,5.70001220703125,14.5127755859375Z" fill="#0A0A28" fill-opacity="1"/></g></svg>