<svg xmlns="http://www.w3.org/2000/svg" xmlns:xlink="http://www.w3.org/1999/xlink" fill="none" version="1.1" width="24" height="24" viewBox="0 0 24 24"><defs><clipPath id="master_svg0_3_2015"><rect x="0" y="0" width="24" height="24" rx="0"/></clipPath></defs><g clip-path="url(#master_svg0_3_2015)"><path d="M13,7C13,7,14,7,14,7C14,7,13,7,13,7C13,7,13,7,13,7ZM9,11C9,11,9,12,9,12C9,12,9,11,9,11C9,11,9,11,9,11ZM5,7C5,7,4,7,4,7C4,7,5,7,5,7C5,7,5,7,5,7ZM9,3C9,3,9,2,9,2C9,2,9,3,9,3C9,3,9,3,9,3ZM3,20C3,20,2,20,2,20C2,20,3,20,3,20C3,20,3,20,3,20ZM3,21C3,21,2,21,2,21C2,21.552299,2.4477149799999998,22,3.0000000000000004,22C3.0000000000000004,22,3,21,3,21C3,21,3,21,3,21ZM15,21C15,21,15,22,15,22C15.5523,22,16,21.552299,16,21C16,21,15,21,15,21C15,21,15,21,15,21ZM21,13C21.552299,13,22,12.55229,22,12C22,11.44771,21.552299,11,21,11C21,11,21,13,21,13C21,13,21,13,21,13ZM15,11C14.4477,11,14,11.44771,14,12C14,12.55229,14.4477,13,15,13C15,13,15,11,15,11C15,11,15,11,15,11ZM12,7C12,7.79565,11.6839304,8.558710099999999,11.1213198,9.1213198C11.1213198,9.1213198,12.5355301,10.535530099999999,12.5355301,10.535530099999999C13.4732,9.597849799999999,14,8.326079799999999,14,7C14,7,12,7,12,7C12,7,12,7,12,7ZM11.1213198,9.1213198C10.558710099999999,9.683929899999999,9.79565,10,9,10C9,10,9,12,9,12C10.326079799999999,12,11.5978498,11.4732199,12.5355301,10.535530099999999C12.5355301,10.535530099999999,11.1213198,9.1213198,11.1213198,9.1213198C11.1213198,9.1213198,11.1213198,9.1213198,11.1213198,9.1213198ZM9,10C8.20435,10,7.4412899,9.683929899999999,6.87868,9.1213198C6.87868,9.1213198,5.4644699,10.535530099999999,5.4644699,10.535530099999999C6.4021498999999995,11.4732199,7.6739202,12,9,12C9,12,9,10,9,10C9,10,9,10,9,10ZM6.87868,9.1213198C6.3160701,8.558710099999999,6,7.79565,6,7C6,7,4,7,4,7C4,8.326079799999999,4.5267800000000005,9.597849799999999,5.4644699,10.535530099999999C5.4644699,10.535530099999999,6.87868,9.1213198,6.87868,9.1213198C6.87868,9.1213198,6.87868,9.1213198,6.87868,9.1213198ZM6,7C6,6.20435,6.3160701,5.4412899,6.87868,4.87868C6.87868,4.87868,5.4644699,3.4644660099999998,5.4644699,3.4644660099999998C4.5267800000000005,4.40215,4,5.6739199,4,7C4,7,6,7,6,7C6,7,6,7,6,7ZM6.87868,4.87868C7.4412899,4.31607,8.20435,4,9,4C9,4,9,2,9,2C7.6739202,2,6.4021498999999995,2.526784,5.4644699,3.4644660099999998C5.4644699,3.4644660099999998,6.87868,4.87868,6.87868,4.87868C6.87868,4.87868,6.87868,4.87868,6.87868,4.87868ZM9,4C9.79565,4,10.558710099999999,4.31607,11.1213198,4.87868C11.1213198,4.87868,12.5355301,3.4644660099999998,12.5355301,3.4644660099999998C11.5978498,2.526784,10.326079799999999,2,9,2C9,2,9,4,9,4C9,4,9,4,9,4ZM11.1213198,4.87868C11.6839304,5.4412899,12,6.20435,12,7C12,7,14,7,14,7C14,5.6739199,13.4732,4.40215,12.5355301,3.4644660099999998C12.5355301,3.4644660099999998,11.1213198,4.87868,11.1213198,4.87868C11.1213198,4.87868,11.1213198,4.87868,11.1213198,4.87868ZM9,13C7.1434798,13,5.3630099,13.7375,4.0502500999999995,15.0503C4.0502500999999995,15.0503,5.4644699,16.4645,5.4644699,16.4645C6.4021498999999995,15.5268,7.6739202,15,9,15C9,15,9,13,9,13C9,13,9,13,9,13ZM4.0502500999999995,15.0503C2.73749799,16.363,2,18.1435,2,20C2,20,4,20,4,20C4,18.6739,4.5267800000000005,17.4021,5.4644699,16.4645C5.4644699,16.4645,4.0502500999999995,15.0503,4.0502500999999995,15.0503C4.0502500999999995,15.0503,4.0502500999999995,15.0503,4.0502500999999995,15.0503ZM2,20C2,20,2,21,2,21C2,21,4,21,4,21C4,21,4,20,4,20C4,20,2,20,2,20C2,20,2,20,2,20ZM3,22C3,22,15,22,15,22C15,22,15,20,15,20C15,20,3,20,3,20C3,20,3,22,3,22C3,22,3,22,3,22ZM16,21C16,21,16,20,16,20C16,20,14,20,14,20C14,20,14,21,14,21C14,21,16,21,16,21C16,21,16,21,16,21ZM16,20C16,18.1435,15.2625,16.363,13.9497,15.0503C13.9497,15.0503,12.5355301,16.4645,12.5355301,16.4645C13.4732,17.4021,14,18.6739,14,20C14,20,16,20,16,20C16,20,16,20,16,20ZM13.9497,15.0503C12.6369896,13.7375,10.8565202,13,9,13C9,13,9,15,9,15C10.326079799999999,15,11.5978498,15.5268,12.5355301,16.4645C12.5355301,16.4645,13.9497,15.0503,13.9497,15.0503C13.9497,15.0503,13.9497,15.0503,13.9497,15.0503ZM21,11C21,11,15,11,15,11C15,11,15,13,15,13C15,13,21,13,21,13C21,13,21,11,21,11C21,11,21,11,21,11Z" fill="#0A0A28" fill-opacity="1"/></g></svg>