<svg xmlns="http://www.w3.org/2000/svg" xmlns:xlink="http://www.w3.org/1999/xlink" fill="none" version="1.1" width="24" height="24" viewBox="0 0 24 24"><defs><clipPath id="master_svg0_3_1705"><rect x="0" y="0" width="24" height="24" rx="0"/></clipPath></defs><g clip-path="url(#master_svg0_3_1705)"><path d="M12.000006703515625,10.7999758859375C12.954786303515625,10.7999758859375,13.870458103515626,10.4206919859375,14.545590103515625,9.7455596859375C15.220723103515626,9.0704278859375,15.600006103515625,8.154755585937501,15.600006103515625,7.1999756859375C15.600006103515625,6.2451955859375,15.220723103515626,5.3295236859375,14.545590103515625,4.6543916859375C13.870458103515626,3.9792608059375,12.954786303515625,3.5999755859375004,12.000006703515625,3.5999755859375C11.045226603515625,3.599975585937501,10.129554303515626,3.9792608059375,9.454422503515625,4.6543916859375C8.779290203515625,5.3295236859375,8.400006303515624,6.2451955859375,8.400006303515624,7.1999756859375C8.400006303515624,8.154755585937501,8.779290203515625,9.0704278859375,9.454422503515625,9.7455596859375C10.129554303515626,10.4206919859375,11.045226603515625,10.7999758859375,12.000006703515625,10.7999758859375C12.000006703515625,10.7999758859375,12.000006703515625,10.7999758859375,12.000006703515625,10.7999758859375C12.000006703515625,10.7999758859375,12.000006703515625,10.7999758859375,12.000006703515625,10.7999758859375ZM3.600006103515626,21.5999755859375C3.600006087078144,20.4968165859375,3.817278113515625,19.404576585937498,4.239417733515625,18.3854165859375C4.661557303515625,17.366255585937502,5.280294103515625,16.4403365859375,6.060306303515625,15.6603355859375C6.840318203515626,14.8802645859375,7.766334503515625,14.2615315859375,8.785470003515625,13.8393835859375C9.804606003515625,13.4172477859375,10.896906403515626,13.1999759859375,12.000006703515625,13.1999759859375C13.103106503515624,13.1999759859375,14.195407103515626,13.4172477859375,15.214542103515624,13.8393835859375C16.233726103515625,14.2615315859375,17.159646103515627,14.8802645859375,17.939647103515625,15.6603355859375C18.719767103515625,16.4403365859375,19.338487103515625,17.366255585937502,19.760647103515623,18.3854165859375C20.182688103515623,19.404576585937498,20.400007103515627,20.4968165859375,20.400007103515627,21.5999755859375C20.400007103515627,21.5999755859375,3.600006103515626,21.5999755859375,3.600006103515626,21.5999755859375C3.600006103515626,21.5999755859375,3.600006103515626,21.5999755859375,3.600006103515626,21.5999755859375Z" fill-rule="evenodd" fill="#0A0A28" fill-opacity="1"/></g></svg>