<svg xmlns="http://www.w3.org/2000/svg" xmlns:xlink="http://www.w3.org/1999/xlink" fill="none" version="1.1" width="24" height="24" viewBox="0 0 24 24"><defs><clipPath id="master_svg0_3_1943"><rect x="0" y="0" width="24" height="24" rx="0"/></clipPath></defs><g clip-path="url(#master_svg0_3_1943)"><path d="M22,20C22,20,22,21,22,21C22.552299,21,23,20.552299,23,20C23,20,22,20,22,20C22,20,22,20,22,20ZM22,18C22,18,23,18,23,18C23,18,23,17.9999,23,17.9999C23,17.9999,22,18,22,18C22,18,22,18,22,18ZM16.644,16.143C16.644,16.143,15.7156,16.514499999999998,15.7156,16.514499999999998C15.7156,16.514499999999998,15.7157,16.5149,15.7157,16.5149C15.7157,16.5149,16.644,16.143,16.644,16.143C16.644,16.143,16.644,16.143,16.644,16.143ZM2,20C2,20,1,20,1,20C1,20.552299,1.44771498,21,2.0000000000000004,21C2.0000000000000004,21,2,20,2,20C2,20,2,20,2,20ZM2,18C2,18,1,17.9999,1,17.9999C1,17.9999,1,18,1,18C1,18,2,18,2,18C2,18,2,18,2,18ZM7.3559999,16.143C7.3559999,16.143,8.284249800000001,16.5149,8.284249800000001,16.5149C8.284249800000001,16.5149,8.28443,16.514499999999998,8.28443,16.514499999999998C8.28443,16.514499999999998,7.3559999,16.143,7.3559999,16.143C7.3559999,16.143,7.3559999,16.143,7.3559999,16.143ZM15,7C15,7,16,7,16,7C16,7,15,7,15,7C15,7,15,7,15,7ZM12,4C12,4,12,3,12,3C12,3,12,4,12,4C12,4,12,4,12,4ZM19,8C19,8,19,9,19,9C19,9,19,8,19,8C19,8,19,8,19,8ZM7,10C7,10,8,10,8,10C8,10,7,10,7,10C7,10,7,10,7,10ZM3,10C3,10,2,10,2,10C2,10,3,10,3,10C3,10,3,10,3,10ZM5,8C5,8,5,9,5,9C5,9,5,8,5,8C5,8,5,8,5,8ZM17,21C17,21,22,21,22,21C22,21,22,19,22,19C22,19,17,19,17,19C17,19,17,21,17,21C17,21,17,21,17,21ZM23,20C23,20,23,18,23,18C23,18,21,18,21,18C21,18,21,20,21,20C21,20,23,20,23,20C23,20,23,20,23,20ZM23,17.9999C22.999901,17.168599999999998,22.7409,16.358,22.2589,15.6808C22.2589,15.6808,20.6294,16.8405,20.6294,16.8405C20.870399,17.1791,21,17.584400000000002,21,18.0001C21,18.0001,23,17.9999,23,17.9999C23,17.9999,23,17.9999,23,17.9999ZM22.2589,15.6808C21.7768,15.0035,21.0958,14.4932,20.310301,14.2209C20.310301,14.2209,19.655199,16.110599999999998,19.655199,16.110599999999998C20.047899,16.2467,20.388399,16.5019,20.6294,16.8405C20.6294,16.8405,22.2589,15.6808,22.2589,15.6808C22.2589,15.6808,22.2589,15.6808,22.2589,15.6808ZM20.310301,14.2209C19.5249,13.9486103,18.6742,13.9277697,17.8763,14.1613C17.8763,14.1613,18.4382,16.0808,18.4382,16.0808C18.837099,15.964,19.262501,15.9744,19.655199,16.110599999999998C19.655199,16.110599999999998,20.310301,14.2209,20.310301,14.2209C20.310301,14.2209,20.310301,14.2209,20.310301,14.2209ZM17.8763,14.1613C17.0785,14.3948,16.3733,14.8711,15.8587,15.5239C15.8587,15.5239,17.429299999999998,16.7621,17.429299999999998,16.7621C17.6866,16.4357,18.039301,16.197499999999998,18.4382,16.0808C18.4382,16.0808,17.8763,14.1613,17.8763,14.1613C17.8763,14.1613,17.8763,14.1613,17.8763,14.1613ZM17,19C17,19,7,19,7,19C7,19,7,21,7,21C7,21,17,21,17,21C17,21,17,19,17,19C17,19,17,19,17,19ZM18,20C18,20,18,18,18,18C18,18,16,18,16,18C16,18,16,20,16,20C16,20,18,20,18,20C18,20,18,20,18,20ZM18,18C18,17.2151,17.8491,16.4619,17.5723,15.7711C17.5723,15.7711,15.7157,16.5149,15.7157,16.5149C15.8989,16.972099999999998,16,17.4729,16,18C16,18,18,18,18,18C18,18,18,18,18,18ZM7,19C7,19,2,19,2,19C2,19,2,21,2,21C2,21,7,21,7,21C7,21,7,19,7,19C7,19,7,19,7,19ZM3,20C3,20,3,18,3,18C3,18,1,18,1,18C1,18,1,20,1,20C1,20,3,20,3,20C3,20,3,20,3,20ZM3,18.0001C3.0000299999999998,17.584400000000002,3.1295599999999997,17.1791,3.3705699,16.8405C3.3705699,16.8405,1.74114901,15.6808,1.74114901,15.6808C1.25911403,16.358,1.00006098,17.168599999999998,1,17.9999C1,17.9999,3,18.0001,3,18.0001C3,18.0001,3,18.0001,3,18.0001ZM3.3705699,16.8405C3.61159,16.5019,3.9521199,16.2467,4.34483,16.110599999999998C4.34483,16.110599999999998,3.68967,14.2209,3.68967,14.2209C2.904248,14.4932,2.22318301,15.0035,1.74114901,15.6808C1.74114901,15.6808,3.3705699,16.8405,3.3705699,16.8405C3.3705699,16.8405,3.3705699,16.8405,3.3705699,16.8405ZM4.34483,16.110599999999998C4.73754,15.9744,5.16292,15.964,5.5618300000000005,16.0808C5.5618300000000005,16.0808,6.1236501,14.1613,6.1236501,14.1613C5.3258399999999995,13.9277697,4.47509,13.9486103,3.68967,14.2209C3.68967,14.2209,4.34483,16.110599999999998,4.34483,16.110599999999998C4.34483,16.110599999999998,4.34483,16.110599999999998,4.34483,16.110599999999998ZM5.5618300000000005,16.0808C5.9607301,16.197499999999998,6.3133502,16.4357,6.5706701,16.7621C6.5706701,16.7621,8.141329800000001,15.5239,8.141329800000001,15.5239C7.6267099,14.8711,6.9214702,14.3948,6.1236501,14.1613C6.1236501,14.1613,5.5618300000000005,16.0808,5.5618300000000005,16.0808C5.5618300000000005,16.0808,5.5618300000000005,16.0808,5.5618300000000005,16.0808ZM8,20C8,20,8,18,8,18C8,18,6,18,6,18C6,18,6,20,6,20C6,20,8,20,8,20C8,20,8,20,8,20ZM8,18C8,17.4729,8.10109,16.972099999999998,8.284249800000001,16.5149C8.284249800000001,16.5149,6.4277501,15.7711,6.4277501,15.7711C6.1509099,16.4619,6,17.2151,6,18C6,18,8,18,8,18C8,18,8,18,8,18ZM8.28443,16.514499999999998C8.5815401,15.772,9.094309800000001,15.1355,9.7565799,14.6872C9.7565799,14.6872,8.6354299,13.0310202,8.6354299,13.0310202C7.64218,13.7033796,6.8731699,14.6579,6.4275699,15.7715C6.4275699,15.7715,8.28443,16.514499999999998,8.28443,16.514499999999998C8.28443,16.514499999999998,8.28443,16.514499999999998,8.28443,16.514499999999998ZM9.7565799,14.6872C10.4188499,14.2389,11.2002497,13.9993,12,13.9993C12,13.9993,12,11.9993,12,11.9993C10.80058,11.9993,9.6286702,12.3586502,8.6354299,13.0310202C8.6354299,13.0310202,9.7565799,14.6872,9.7565799,14.6872C9.7565799,14.6872,9.7565799,14.6872,9.7565799,14.6872ZM12,13.9993C12.7997,13.9993,13.5811,14.2389,14.2434,14.6872C14.2434,14.6872,15.3646,13.0310202,15.3646,13.0310202C14.3713,12.3586502,13.1994,11.9993,12,11.9993C12,11.9993,12,13.9993,12,13.9993C12,13.9993,12,13.9993,12,13.9993ZM14.2434,14.6872C14.9057,15.1355,15.4185,15.772,15.7156,16.514499999999998C15.7156,16.514499999999998,17.572400000000002,15.7715,17.572400000000002,15.7715C17.1268,14.6579,16.357799999999997,13.7033796,15.3646,13.0310202C15.3646,13.0310202,14.2434,14.6872,14.2434,14.6872C14.2434,14.6872,14.2434,14.6872,14.2434,14.6872ZM14,7C14,7.5304301,13.7893,8.0391402,13.4142,8.4142098C13.4142,8.4142098,14.8284,9.8284302,14.8284,9.8284302C15.5786,9.07828,16,8.0608702,16,7C16,7,14,7,14,7C14,7,14,7,14,7ZM13.4142,8.4142098C13.0391,8.789290000000001,12.5304,9,12,9C12,9,12,11,12,11C13.0609,11,14.0783,10.5785699,14.8284,9.8284302C14.8284,9.8284302,13.4142,8.4142098,13.4142,8.4142098C13.4142,8.4142098,13.4142,8.4142098,13.4142,8.4142098ZM12,9C11.4695702,9,10.9608603,8.789290000000001,10.5857897,8.4142098C10.5857897,8.4142098,9.1715698,9.8284302,9.1715698,9.8284302C9.92172,10.5785699,10.9391298,11,12,11C12,11,12,9,12,9C12,9,12,9,12,9ZM10.5857897,8.4142098C10.2107096,8.0391402,10,7.5304301,10,7C10,7,8,7,8,7C8,8.0608702,8.4214301,9.07828,9.1715698,9.8284302C9.1715698,9.8284302,10.5857897,8.4142098,10.5857897,8.4142098C10.5857897,8.4142098,10.5857897,8.4142098,10.5857897,8.4142098ZM10,7C10,6.4695699,10.2107096,5.96086,10.5857897,5.58579C10.5857897,5.58579,9.1715698,4.171573,9.1715698,4.171573C8.4214301,4.92171901,8,5.9391299,8,7C8,7,10,7,10,7C10,7,10,7,10,7ZM10.5857897,5.58579C10.9608603,5.21071,11.4695702,5,12,5C12,5,12,3,12,3C10.9391298,3,9.92172,3.42142701,9.1715698,4.171573C9.1715698,4.171573,10.5857897,5.58579,10.5857897,5.58579C10.5857897,5.58579,10.5857897,5.58579,10.5857897,5.58579ZM12,5C12.5304,5,13.0391,5.21071,13.4142,5.58579C13.4142,5.58579,14.8284,4.171573,14.8284,4.171573C14.0783,3.42142701,13.0609,3,12,3C12,3,12,5,12,5C12,5,12,5,12,5ZM13.4142,5.58579C13.7893,5.96086,14,6.4695699,14,7C14,7,16,7,16,7C16,5.9391299,15.5786,4.92171901,14.8284,4.171573C14.8284,4.171573,13.4142,5.58579,13.4142,5.58579C13.4142,5.58579,13.4142,5.58579,13.4142,5.58579ZM20,10C20,10.2652202,19.8946,10.5195699,19.7071,10.707109899999999C19.7071,10.707109899999999,21.1213,12.1213198,21.1213,12.1213198C21.683901,11.558710099999999,22,10.79565,22,10C22,10,20,10,20,10C20,10,20,10,20,10ZM19.7071,10.707109899999999C19.5196,10.894639999999999,19.2652,11,19,11C19,11,19,13,19,13C19.7957,13,20.558701,12.6839304,21.1213,12.1213198C21.1213,12.1213198,19.7071,10.707109899999999,19.7071,10.707109899999999C19.7071,10.707109899999999,19.7071,10.707109899999999,19.7071,10.707109899999999ZM19,11C18.7348,11,18.4804,10.894639999999999,18.2929,10.707109899999999C18.2929,10.707109899999999,16.878700000000002,12.1213198,16.878700000000002,12.1213198C17.4413,12.6839304,18.2043,13,19,13C19,13,19,11,19,11C19,11,19,11,19,11ZM18.2929,10.707109899999999C18.1054,10.5195699,18,10.2652202,18,10C18,10,16,10,16,10C16,10.79565,16.3161,11.558710099999999,16.878700000000002,12.1213198C16.878700000000002,12.1213198,18.2929,10.707109899999999,18.2929,10.707109899999999C18.2929,10.707109899999999,18.2929,10.707109899999999,18.2929,10.707109899999999ZM18,10C18,9.7347798,18.1054,9.4804301,18.2929,9.292890100000001C18.2929,9.292890100000001,16.878700000000002,7.87868,16.878700000000002,7.87868C16.3161,8.441289900000001,16,9.20435,16,10C16,10,18,10,18,10C18,10,18,10,18,10ZM18.2929,9.292890100000001C18.4804,9.105360000000001,18.7348,9,19,9C19,9,19,7,19,7C18.2043,7,17.4413,7.3160701,16.878700000000002,7.87868C16.878700000000002,7.87868,18.2929,9.292890100000001,18.2929,9.292890100000001C18.2929,9.292890100000001,18.2929,9.292890100000001,18.2929,9.292890100000001ZM19,9C19.2652,9,19.5196,9.105360000000001,19.7071,9.292890100000001C19.7071,9.292890100000001,21.1213,7.87868,21.1213,7.87868C20.558701,7.3160701,19.7957,7,19,7C19,7,19,9,19,9C19,9,19,9,19,9ZM19.7071,9.292890100000001C19.8946,9.4804301,20,9.7347798,20,10C20,10,22,10,22,10C22,9.20435,21.683901,8.441289900000001,21.1213,7.87868C21.1213,7.87868,19.7071,9.292890100000001,19.7071,9.292890100000001C19.7071,9.292890100000001,19.7071,9.292890100000001,19.7071,9.292890100000001ZM6,10C6,10.2652202,5.89464,10.5195699,5.7071099,10.707109899999999C5.7071099,10.707109899999999,7.1213198,12.1213198,7.1213198,12.1213198C7.6839299,11.558710099999999,8,10.79565,8,10C8,10,6,10,6,10C6,10,6,10,6,10ZM5.7071099,10.707109899999999C5.5195701,10.894639999999999,5.2652199,11,5,11C5,11,5,13,5,13C5.79565,13,6.5587101,12.6839304,7.1213198,12.1213198C7.1213198,12.1213198,5.7071099,10.707109899999999,5.7071099,10.707109899999999C5.7071099,10.707109899999999,5.7071099,10.707109899999999,5.7071099,10.707109899999999ZM5,11C4.7347801,11,4.4804299,10.894639999999999,4.2928901,10.707109899999999C4.2928901,10.707109899999999,2.87867999,12.1213198,2.87867999,12.1213198C3.44129,12.6839304,4.20435,13,5,13C5,13,5,11,5,11C5,11,5,11,5,11ZM4.2928901,10.707109899999999C4.10536,10.5195699,4,10.2652202,4,10C4,10,2,10,2,10C2.000000000000001,10.79565,2.31606999,11.558710099999999,2.87867999,12.1213198C2.87867999,12.1213198,4.2928901,10.707109899999999,4.2928901,10.707109899999999C4.2928901,10.707109899999999,4.2928901,10.707109899999999,4.2928901,10.707109899999999ZM4,10C4,9.7347798,4.10536,9.4804301,4.2928901,9.292890100000001C4.2928901,9.292890100000001,2.87867999,7.87868,2.87867999,7.87868C2.31606999,8.441289900000001,2,9.20435,2,10C2,10,4,10,4,10C4,10,4,10,4,10ZM4.2928901,9.292890100000001C4.4804299,9.105360000000001,4.7347801,9,5,9C5,9,5,7,5,7C4.20435,7,3.44129,7.3160701,2.87867999,7.87868C2.87867999,7.87868,4.2928901,9.292890100000001,4.2928901,9.292890100000001C4.2928901,9.292890100000001,4.2928901,9.292890100000001,4.2928901,9.292890100000001ZM5,9C5.2652199,9,5.5195701,9.105360000000001,5.7071099,9.292890100000001C5.7071099,9.292890100000001,7.1213198,7.87868,7.1213198,7.87868C6.5587101,7.3160701,5.79565,7,5,7C5,7,5,9,5,9C5,9,5,9,5,9ZM5.7071099,9.292890100000001C5.89464,9.4804301,6,9.7347798,6,10C6,10,8,10,8,10C8,9.20435,7.6839299,8.441289900000001,7.1213198,7.87868C7.1213198,7.87868,5.7071099,9.292890100000001,5.7071099,9.292890100000001C5.7071099,9.292890100000001,5.7071099,9.292890100000001,5.7071099,9.292890100000001Z" fill="#0A0A28" fill-opacity="1"/></g></svg>