<svg xmlns="http://www.w3.org/2000/svg" xmlns:xlink="http://www.w3.org/1999/xlink" fill="none" version="1.1" width="24" height="24" viewBox="0 0 24 24"><defs><clipPath id="master_svg0_3_2269"><rect x="0" y="0" width="24" height="24" rx="0"/></clipPath></defs><g clip-path="url(#master_svg0_3_2269)"><path d="M11.2500496,3.6925002947442627C10.8847198,4.106679284744263,10.9243202,4.738609284744262,11.3385,5.103949284744263C11.7526798,5.469279284744262,12.3846102,5.429679384744263,12.7499504,5.015499384744263C12.7499504,5.015499384744263,11.2500496,3.6925002947442627,11.2500496,3.6925002947442627C11.2500496,3.6925002947442627,11.2500496,3.6925002947442627,11.2500496,3.6925002947442627ZM18.9998,6.999999284744263C18.9998,6.999999284744263,19.9998,6.999999284744263,19.9998,6.999999284744263C19.9998,6.999999284744263,18.9998,6.999999284744263,18.9998,6.999999284744263C18.9998,6.999999284744263,18.9998,6.999999284744263,18.9998,6.999999284744263ZM12.7499504,8.984499184744262C12.3846102,8.570319384744263,11.7526798,8.530719484744264,11.3385,8.896059284744263C10.9243202,9.261389484744264,10.8847198,9.893319384744263,11.2500496,10.307499184744263C11.2500496,10.307499184744263,12.7499504,8.984499184744262,12.7499504,8.984499184744262C12.7499504,8.984499184744262,12.7499504,8.984499184744262,12.7499504,8.984499184744262ZM3,20.999999284744263C3,20.999999284744263,2,20.999999284744263,2,20.999999284744263C2,21.552298284744264,2.4477149799999998,21.999999284744263,3.0000000000000004,21.999999284744263C3.0000000000000004,21.999999284744263,3,20.999999284744263,3,20.999999284744263C3,20.999999284744263,3,20.999999284744263,3,20.999999284744263ZM3,19.999999284744263C3,19.999999284744263,2,19.999999284744263,2,19.999999284744263C2,19.999999284744263,3,19.999999284744263,3,19.999999284744263C3,19.999999284744263,3,19.999999284744263,3,19.999999284744263ZM9,13.999999284744263C9,13.999999284744263,9,12.999999284744263,9,12.999999284744263C9,12.999999284744263,9,13.999999284744263,9,13.999999284744263C9,13.999999284744263,9,13.999999284744263,9,13.999999284744263ZM15,19.999999284744263C15,19.999999284744263,16,19.999999284744263,16,19.999999284744263C16,19.999999284744263,15,19.999999284744263,15,19.999999284744263C15,19.999999284744263,15,19.999999284744263,15,19.999999284744263ZM21,20.999999284744263C21,20.999999284744263,21,21.999999284744263,21,21.999999284744263C21.552299,21.999999284744263,22,21.552298284744264,22,20.999999284744263C22,20.999999284744263,21,20.999999284744263,21,20.999999284744263C21,20.999999284744263,21,20.999999284744263,21,20.999999284744263ZM21,19.999999284744263C21,19.999999284744263,20,19.999900284744264,20,19.999900284744264C20,19.999900284744264,20,19.999999284744263,20,19.999999284744263C20,19.999999284744263,21,19.999999284744263,21,19.999999284744263C21,19.999999284744263,21,19.999999284744263,21,19.999999284744263ZM11.5,13.936999284744262C11.0217104,14.213099284744263,10.85783,14.824699284744263,11.1339798,15.302999284744264C11.41012,15.781299284744263,12.0217104,15.945199284744263,12.5,15.668999284744263C12.5,15.668999284744263,11.5,13.936999284744262,11.5,13.936999284744262C11.5,13.936999284744262,11.5,13.936999284744262,11.5,13.936999284744262ZM13,6.999999284744263C13,6.999999284744263,14,6.999999284744263,14,6.999999284744263C14,6.999999284744263,13,6.999999284744263,13,6.999999284744263C13,6.999999284744263,13,6.999999284744263,13,6.999999284744263ZM9,10.999999284744263C9,10.999999284744263,9,11.999999284744263,9,11.999999284744263C9,11.999999284744263,9,10.999999284744263,9,10.999999284744263C9,10.999999284744263,9,10.999999284744263,9,10.999999284744263ZM5,6.999999284744263C5,6.999999284744263,4,6.999999284744263,4,6.999999284744263C4,6.999999284744263,5,6.999999284744263,5,6.999999284744263C5,6.999999284744263,5,6.999999284744263,5,6.999999284744263ZM9,3.0000001124652727C9,3.0000001124652727,9,2.0000002947442628,9,2.0000002947442628C9,2.0000002947442628,9,3.0000001124652727,9,3.0000001124652727C9,3.0000001124652727,9,3.0000001124652727,9,3.0000001124652727ZM12.7499504,5.015499384744263C13.153,4.558529284744263,13.6857,4.2351292847442625,14.2771,4.088349384744262C14.2771,4.088349384744262,13.7953,2.147241294744263,13.7953,2.147241294744263C12.8096504,2.3918842647442626,11.9218502,2.930877282744263,11.2500496,3.6925002947442627C11.2500496,3.6925002947442627,12.7499504,5.015499384744263,12.7499504,5.015499384744263C12.7499504,5.015499384744263,12.7499504,5.015499384744263,12.7499504,5.015499384744263ZM14.2771,4.088349384744262C14.8685,3.941558304744263,15.4906,3.978342294744263,16.0606,4.193799284744262C16.0606,4.193799284744262,16.767699999999998,2.3230012647442626,16.767699999999998,2.3230012647442626C15.8178,1.9638992847442627,14.781,1.9025992847442628,13.7953,2.147241294744263C13.7953,2.147241294744263,14.2771,4.088349384744262,14.2771,4.088349384744262C14.2771,4.088349384744262,14.2771,4.088349384744262,14.2771,4.088349384744262ZM16.0606,4.193799284744262C16.630499999999998,4.409259284744262,17.1214,4.793179284744262,17.4678,5.2944693847442625C17.4678,5.2944693847442625,19.113199,4.157449284744263,19.113199,4.157449284744263C18.535800000000002,3.321962294744263,17.7177,2.682100294744263,16.767699999999998,2.3230012647442626C16.767699999999998,2.3230012647442626,16.0606,4.193799284744262,16.0606,4.193799284744262C16.0606,4.193799284744262,16.0606,4.193799284744262,16.0606,4.193799284744262ZM17.4678,5.2944693847442625C17.8142,5.795759184744263,17.9998,6.390659284744263,17.9998,6.999999284744263C17.9998,6.999999284744263,19.9998,6.999999284744263,19.9998,6.999999284744263C19.9998,5.984429384744263,19.6905,4.992939184744262,19.113199,4.157449284744263C19.113199,4.157449284744263,17.4678,5.2944693847442625,17.4678,5.2944693847442625C17.4678,5.2944693847442625,17.4678,5.2944693847442625,17.4678,5.2944693847442625ZM17.9998,6.999999284744263C17.9998,7.609339484744263,17.8142,8.204239084744263,17.4678,8.705529484744263C17.4678,8.705529484744263,19.113199,9.842549084744263,19.113199,9.842549084744263C19.6905,9.007069384744263,19.9998,8.015569484744262,19.9998,6.999999284744263C19.9998,6.999999284744263,17.9998,6.999999284744263,17.9998,6.999999284744263C17.9998,6.999999284744263,17.9998,6.999999284744263,17.9998,6.999999284744263ZM17.4678,8.705529484744263C17.1214,9.206819284744263,16.630499999999998,9.590739484744262,16.0606,9.806199284744263C16.0606,9.806199284744263,16.767699999999998,11.676999284744262,16.767699999999998,11.676999284744262C17.7177,11.317898984744263,18.535800000000002,10.678039284744262,19.113199,9.842549084744263C19.113199,9.842549084744263,17.4678,8.705529484744263,17.4678,8.705529484744263C17.4678,8.705529484744263,17.4678,8.705529484744263,17.4678,8.705529484744263ZM16.0606,9.806199284744263C15.4906,10.021659184744262,14.8685,10.058439484744262,14.2771,9.911659484744263C14.2771,9.911659484744263,13.7953,11.852759584744263,13.7953,11.852759584744263C14.781,12.097398984744263,15.8178,12.036099684744263,16.767699999999998,11.676999284744262C16.767699999999998,11.676999284744262,16.0606,9.806199284744263,16.0606,9.806199284744263C16.0606,9.806199284744263,16.0606,9.806199284744263,16.0606,9.806199284744263ZM14.2771,9.911659484744263C13.6857,9.764869484744263,13.153,9.441469384744263,12.7499504,8.984499184744262C12.7499504,8.984499184744262,11.2500496,10.307499184744263,11.2500496,10.307499184744263C11.9218597,11.069119684744262,12.8096504,11.608119284744262,13.7953,11.852759584744263C13.7953,11.852759584744263,14.2771,9.911659484744263,14.2771,9.911659484744263C14.2771,9.911659484744263,14.2771,9.911659484744263,14.2771,9.911659484744263ZM15,19.999999284744263C15,19.999999284744263,3,19.999999284744263,3,19.999999284744263C3,19.999999284744263,3,21.999999284744263,3,21.999999284744263C3,21.999999284744263,15,21.999999284744263,15,21.999999284744263C15,21.999999284744263,15,19.999999284744263,15,19.999999284744263C15,19.999999284744263,15,19.999999284744263,15,19.999999284744263ZM4,20.999999284744263C4,20.999999284744263,4,19.999999284744263,4,19.999999284744263C4,19.999999284744263,2,19.999999284744263,2,19.999999284744263C2,19.999999284744263,2,20.999999284744263,2,20.999999284744263C2,20.999999284744263,4,20.999999284744263,4,20.999999284744263C4,20.999999284744263,4,20.999999284744263,4,20.999999284744263ZM4,19.999999284744263C4,18.673899284744262,4.5267800000000005,17.402099284744263,5.4644699,16.464499284744264C5.4644699,16.464499284744264,4.0502500999999995,15.050299284744263,4.0502500999999995,15.050299284744263C2.73749799,16.362999284744262,2,18.143499284744262,2,19.999999284744263C2,19.999999284744263,4,19.999999284744263,4,19.999999284744263C4,19.999999284744263,4,19.999999284744263,4,19.999999284744263ZM5.4644699,16.464499284744264C6.4021498999999995,15.526799284744262,7.6739202,14.999999284744263,9,14.999999284744263C9,14.999999284744263,9,12.999999284744263,9,12.999999284744263C7.1434798,12.999999284744263,5.3630099,13.737499284744263,4.0502500999999995,15.050299284744263C4.0502500999999995,15.050299284744263,5.4644699,16.464499284744264,5.4644699,16.464499284744264C5.4644699,16.464499284744264,5.4644699,16.464499284744264,5.4644699,16.464499284744264ZM9,14.999999284744263C10.326079799999999,14.999999284744263,11.5978498,15.526799284744262,12.5355301,16.464499284744264C12.5355301,16.464499284744264,13.9497,15.050299284744263,13.9497,15.050299284744263C12.6369896,13.737499284744263,10.8565202,12.999999284744263,9,12.999999284744263C9,12.999999284744263,9,14.999999284744263,9,14.999999284744263C9,14.999999284744263,9,14.999999284744263,9,14.999999284744263ZM12.5355301,16.464499284744264C13.4732,17.402099284744263,14,18.673899284744262,14,19.999999284744263C14,19.999999284744263,16,19.999999284744263,16,19.999999284744263C16,18.143499284744262,15.2625,16.362999284744262,13.9497,15.050299284744263C13.9497,15.050299284744263,12.5355301,16.464499284744264,12.5355301,16.464499284744264C12.5355301,16.464499284744264,12.5355301,16.464499284744264,12.5355301,16.464499284744264ZM14,19.999999284744263C14,19.999999284744263,14,20.999999284744263,14,20.999999284744263C14,20.999999284744263,16,20.999999284744263,16,20.999999284744263C16,20.999999284744263,16,19.999999284744263,16,19.999999284744263C16,19.999999284744263,14,19.999999284744263,14,19.999999284744263C14,19.999999284744263,14,19.999999284744263,14,19.999999284744263ZM15,21.999999284744263C15,21.999999284744263,21,21.999999284744263,21,21.999999284744263C21,21.999999284744263,21,19.999999284744263,21,19.999999284744263C21,19.999999284744263,15,19.999999284744263,15,19.999999284744263C15,19.999999284744263,15,21.999999284744263,15,21.999999284744263C15,21.999999284744263,15,21.999999284744263,15,21.999999284744263ZM22,20.999999284744263C22,20.999999284744263,22,19.999999284744263,22,19.999999284744263C22,19.999999284744263,20,19.999999284744263,20,19.999999284744263C20,19.999999284744263,20,20.999999284744263,20,20.999999284744263C20,20.999999284744263,22,20.999999284744263,22,20.999999284744263C22,20.999999284744263,22,20.999999284744263,22,20.999999284744263ZM22,20.00009828474426C22.0002,18.771299284744263,21.676901,17.564099284744263,21.0625,16.499799284744263C21.0625,16.499799284744263,19.3304,17.499599284744264,19.3304,17.499599284744264C19.769199,18.25979928474426,20.000099,19.122100284744263,20,19.999900284744264C20,19.999900284744264,22,20.00009828474426,22,20.00009828474426C22,20.00009828474426,22,20.00009828474426,22,20.00009828474426ZM21.0625,16.499799284744263C20.4482,15.435499284744262,19.5646,14.551699284744263,18.5004,13.937199284744263C18.5004,13.937199284744263,17.5003,15.669199284744263,17.5003,15.669199284744263C18.2604,16.108099284744263,18.8916,16.739399284744263,19.3304,17.499599284744264C19.3304,17.499599284744264,21.0625,16.499799284744263,21.0625,16.499799284744263C21.0625,16.499799284744263,21.0625,16.499799284744263,21.0625,16.499799284744263ZM18.5004,13.937199284744263C17.4363,13.322699284744262,16.229100000000003,12.999199184744263,15.0002,12.999149584744263C15.0002,12.999149584744263,15.0002,14.999199284744263,15.0002,14.999199284744263C15.8779,14.999199284744263,16.7402,15.230299284744262,17.5003,15.669199284744263C17.5003,15.669199284744263,18.5004,13.937199284744263,18.5004,13.937199284744263C18.5004,13.937199284744263,18.5004,13.937199284744263,18.5004,13.937199284744263ZM15.0002,12.999149584744263C13.7714,12.999109484744263,12.5642099,13.322599284744262,11.5,13.936999284744262C11.5,13.936999284744262,12.5,15.668999284744263,12.5,15.668999284744263C13.2601,15.230199284744263,14.1224,14.999099284744263,15.0002,14.999199284744263C15.0002,14.999199284744263,15.0002,12.999149584744263,15.0002,12.999149584744263C15.0002,12.999149584744263,15.0002,12.999149584744263,15.0002,12.999149584744263ZM12,6.999999284744263C12,7.795649284744263,11.6839304,8.558709384744262,11.1213198,9.121319084744263C11.1213198,9.121319084744263,12.5355301,10.535529384744262,12.5355301,10.535529384744262C13.4732,9.597849084744261,14,8.326079084744261,14,6.999999284744263C14,6.999999284744263,12,6.999999284744263,12,6.999999284744263C12,6.999999284744263,12,6.999999284744263,12,6.999999284744263ZM11.1213198,9.121319084744263C10.558710099999999,9.683929184744262,9.79565,9.999999284744263,9,9.999999284744263C9,9.999999284744263,9,11.999999284744263,9,11.999999284744263C10.326079799999999,11.999999284744263,11.5978498,11.473219184744263,12.5355301,10.535529384744262C12.5355301,10.535529384744262,11.1213198,9.121319084744263,11.1213198,9.121319084744263C11.1213198,9.121319084744263,11.1213198,9.121319084744263,11.1213198,9.121319084744263ZM9,9.999999284744263C8.20435,9.999999284744263,7.4412899,9.683929184744262,6.87868,9.121319084744263C6.87868,9.121319084744263,5.4644699,10.535529384744262,5.4644699,10.535529384744262C6.4021498999999995,11.473219184744263,7.6739202,11.999999284744263,9,11.999999284744263C9,11.999999284744263,9,9.999999284744263,9,9.999999284744263C9,9.999999284744263,9,9.999999284744263,9,9.999999284744263ZM6.87868,9.121319084744263C6.3160701,8.558709384744262,6,7.795649284744263,6,6.999999284744263C6,6.999999284744263,4,6.999999284744263,4,6.999999284744263C4,8.326079084744261,4.5267800000000005,9.597849084744261,5.4644699,10.535529384744262C5.4644699,10.535529384744262,6.87868,9.121319084744263,6.87868,9.121319084744263C6.87868,9.121319084744263,6.87868,9.121319084744263,6.87868,9.121319084744263ZM6,6.999999284744263C6,6.2043492847442625,6.3160701,5.441289184744263,6.87868,4.878679284744263C6.87868,4.878679284744263,5.4644699,3.4644662747442627,5.4644699,3.4644662747442627C4.5267800000000005,4.4021492847442625,4,5.673919184744262,4,6.999999284744263C4,6.999999284744263,6,6.999999284744263,6,6.999999284744263C6,6.999999284744263,6,6.999999284744263,6,6.999999284744263ZM6.87868,4.878679284744263C7.4412899,4.3160692847442625,8.20435,3.9999992847442627,9,3.9999992847442627C9,3.9999992847442627,9,2.0000002947442628,9,2.0000002947442628C7.6739202,2.0000002947442628,6.4021498999999995,2.5267842747442626,5.4644699,3.4644662747442627C5.4644699,3.4644662747442627,6.87868,4.878679284744263,6.87868,4.878679284744263C6.87868,4.878679284744263,6.87868,4.878679284744263,6.87868,4.878679284744263ZM9,3.9999992847442627C9.79565,3.9999992847442627,10.558710099999999,4.3160692847442625,11.1213198,4.878679284744263C11.1213198,4.878679284744263,12.5355301,3.4644662747442627,12.5355301,3.4644662747442627C11.5978498,2.5267842747442626,10.326079799999999,2.0000002947442628,9,2.0000002947442628C9,2.0000002947442628,9,3.9999992847442627,9,3.9999992847442627C9,3.9999992847442627,9,3.9999992847442627,9,3.9999992847442627ZM11.1213198,4.878679284744263C11.6839304,5.441289184744263,12,6.2043492847442625,12,6.999999284744263C12,6.999999284744263,14,6.999999284744263,14,6.999999284744263C14,5.673919184744262,13.4732,4.4021492847442625,12.5355301,3.4644662747442627C12.5355301,3.4644662747442627,11.1213198,4.878679284744263,11.1213198,4.878679284744263C11.1213198,4.878679284744263,11.1213198,4.878679284744263,11.1213198,4.878679284744263Z" fill="#0A0A28" fill-opacity="1"/></g></svg>