<svg xmlns="http://www.w3.org/2000/svg" xmlns:xlink="http://www.w3.org/1999/xlink" fill="none" version="1.1" width="24" height="24" viewBox="0 0 24 24"><defs><clipPath id="master_svg0_3_1727"><rect x="0" y="0" width="24" height="24" rx="0"/></clipPath></defs><g clip-path="url(#master_svg0_3_1727)"><path d="M13.199993896484376,7.1999756859375C13.199993896484376,8.154755585937501,12.820710896484375,9.0704278859375,12.145578396484375,9.7455596859375C11.470446596484376,10.4206919859375,10.554774296484375,10.7999758859375,9.599994196484374,10.7999758859375C8.645214096484375,10.7999758859375,7.729541796484375,10.4206919859375,7.054409996484375,9.7455596859375C6.379278196484375,9.0704278859375,5.999993996484375,8.154755585937501,5.999993996484375,7.1999756859375C5.999993996484375,6.2451955859375,6.379278196484375,5.3295236859375,7.054409996484375,4.6543916859375C7.729541796484375,3.9792608059375,8.645214096484375,3.599975585937501,9.599994196484374,3.5999755859375C10.554774296484375,3.5999755859375004,11.470446596484376,3.9792608059375,12.145578396484375,4.6543916859375C12.820710896484375,5.3295236859375,13.199993896484376,6.2451955859375,13.199993896484376,7.1999756859375C13.199993896484376,7.1999756859375,13.199993896484376,7.1999756859375,13.199993896484376,7.1999756859375C13.199993896484376,7.1999756859375,13.199993896484376,7.1999756859375,13.199993896484376,7.1999756859375ZM16.799994896484375,20.3999765859375C16.799994896484375,18.4904165859375,16.041473896484376,16.6590955859375,14.691114896484375,15.3088085859375C13.340898896484376,13.9585435859375,11.509553896484375,13.1999759859375,9.599994196484374,13.1999759859375C7.690433996484375,13.1999759859375,5.859090096484374,13.9585435859375,4.508825996484375,15.3088085859375C3.158563136484375,16.6590955859375,2.399993924939016,18.4904165859375,2.399993896484375,20.3999765859375C2.399993896484375,20.3999765859375,16.799994896484375,20.3999765859375,16.799994896484375,20.3999765859375C16.799994896484375,20.3999765859375,16.799994896484375,20.3999765859375,16.799994896484375,20.3999765859375ZM15.599994896484375,9.5999755859375C15.281754896484374,9.5999755859375,14.976474896484374,9.726407985937499,14.751473896484375,9.9514441859375C14.526474896484375,10.1764921859375,14.399993896484375,10.4817118859375,14.399993896484375,10.7999758859375C14.399993896484375,11.1182398859375,14.526474896484375,11.4234594859375,14.751473896484375,11.6485080859375C14.976474896484374,11.8735437859375,15.281754896484374,11.9999761859375,15.599994896484375,11.9999761859375C15.599994896484375,11.9999761859375,20.399993896484375,11.9999761859375,20.399993896484375,11.9999761859375C20.718234896484375,11.9999761859375,21.023513896484374,11.8735437859375,21.248513896484376,11.6485080859375C21.473514896484375,11.4234594859375,21.599994896484375,11.1182398859375,21.599994896484375,10.7999758859375C21.599994896484375,10.4817118859375,21.473514896484375,10.1764921859375,21.248513896484376,9.9514441859375C21.023513896484374,9.726407985937499,20.718234896484375,9.5999755859375,20.399993896484375,9.5999755859375C20.399993896484375,9.5999755859375,15.599994896484375,9.5999755859375,15.599994896484375,9.5999755859375C15.599994896484375,9.5999755859375,15.599994896484375,9.5999755859375,15.599994896484375,9.5999755859375Z" fill="#0A0A28" fill-opacity="1"/></g></svg>