<svg xmlns="http://www.w3.org/2000/svg" xmlns:xlink="http://www.w3.org/1999/xlink" fill="none" version="1.1" width="24" height="24" viewBox="0 0 24 24"><defs><clipPath id="master_svg0_3_1744"><rect x="0" y="0" width="24" height="24" rx="0"/></clipPath></defs><g clip-path="url(#master_svg0_3_1744)"><path d="M21.599994896484375,12.0000248140625C21.599994896484375,14.5460654140625,20.588513896484375,16.9879444140625,18.788274896484374,18.7883054140625C16.987913896484375,20.5885444140625,14.546034896484375,21.6000254140625,11.999994296484376,21.6000254140625C9.453918496484375,21.6000254140625,7.012122196484375,20.5885444140625,5.211773896484376,18.7883054140625C3.411419896484375,16.9879444140625,2.3999938964843768,14.5460654140625,2.399993896484375,12.0000248140625C2.3999938964843754,9.4539490140625,3.411419896484375,7.0121527140625,5.211773896484376,5.211804414062501C7.012122196484375,3.4114504140625,9.453918496484375,2.4000244140625027,11.999994296484376,2.4000244140625C14.546034896484375,2.4000244140625018,16.987913896484375,3.4114504140625,18.788274896484374,5.211804414062501C20.588513896484375,7.0121527140625,21.599994896484375,9.4539490140625,21.599994896484375,12.0000248140625C21.599994896484375,12.0000248140625,21.599994896484375,12.0000248140625,21.599994896484375,12.0000248140625C21.599994896484375,12.0000248140625,21.599994896484375,12.0000248140625,21.599994896484375,12.0000248140625ZM14.399993896484375,8.4000244140625C14.399993896484375,9.0365405140625,14.147142896484375,9.6469931140625,13.697045896484376,10.0970764140625C13.246961896484375,10.5471725140625,12.636509896484375,10.8000250140625,11.999994296484376,10.8000250140625C11.363478696484375,10.8000250140625,10.753025996484375,10.5471725140625,10.302942296484375,10.0970764140625C9.852846096484374,9.6469931140625,9.599994196484374,9.0365405140625,9.599994196484374,8.4000244140625C9.599994196484374,7.7635088140625,9.852846096484374,7.1530566140625,10.302942296484375,6.7029724140625C10.753025996484375,6.2528765140625,11.363478696484375,6.0000245140625,11.999994296484376,6.0000245140625C12.636509896484375,6.0000245140625,13.246961896484375,6.2528765140625,13.697045896484376,6.7029724140625C14.147142896484375,7.1530566140625,14.399993896484375,7.7635088140625,14.399993896484375,8.4000244140625C14.399993896484375,8.4000244140625,14.399993896484375,8.4000244140625,14.399993896484375,8.4000244140625C14.399993896484375,8.4000244140625,14.399993896484375,8.4000244140625,14.399993896484375,8.4000244140625ZM11.999994296484376,13.2000244140625C10.851114296484376,13.1997964140625,9.726330296484374,13.5294134140625,8.759297896484375,14.1497054140625C7.792265896484375,14.7699854140625,7.023642096484375,15.6548654140625,6.544794096484375,16.6992254140625C7.220009796484375,17.4847444140625,8.057118396484375,18.114985414062502,8.998722096484375,18.5466254140625C9.940338096484375,18.9782654140625,10.964165696484375,19.2011054140625,11.999994296484376,19.2000254140625C13.035821896484375,19.2011054140625,14.059650896484374,18.9782654140625,15.001313896484374,18.5466254140625C15.942833896484375,18.114985414062502,16.779954896484377,17.4847444140625,17.455193896484374,16.6992254140625C16.976394896484376,15.6548654140625,16.207674896484377,14.7699854140625,15.240713896484374,14.1497054140625C14.273658896484376,13.5294134140625,13.148873896484375,13.1997964140625,11.999994296484376,13.2000244140625C11.999994296484376,13.2000244140625,11.999994296484376,13.2000244140625,11.999994296484376,13.2000244140625C11.999994296484376,13.2000244140625,11.999994296484376,13.2000244140625,11.999994296484376,13.2000244140625Z" fill-rule="evenodd" fill="#0A0A28" fill-opacity="1"/></g></svg>