<svg xmlns="http://www.w3.org/2000/svg" xmlns:xlink="http://www.w3.org/1999/xlink" fill="none" version="1.1" width="24" height="24" viewBox="0 0 24 24"><defs><clipPath id="master_svg0_3_1824"><rect x="0" y="0" width="24" height="24" rx="0"/></clipPath></defs><g clip-path="url(#master_svg0_3_1824)"><path d="M4.62894,16.933400238418578C4.14814,17.205200238418577,3.9786810299999997,17.81530023841858,4.25044,18.29610023841858C4.5222,18.776900238418577,5.1322700999999995,18.94630023841858,5.61306,18.674600238418577C5.61306,18.674600238418577,4.62894,16.933400238418578,4.62894,16.933400238418578C4.62894,16.933400238418578,4.62894,16.933400238418578,4.62894,16.933400238418578ZM12,16.00000023841858C12,16.00000023841858,11.9984903,17.00000023841858,11.9984903,17.00000023841858C11.9984903,17.00000023841858,12,17.00000023841858,12,17.00000023841858C12,17.00000023841858,12,16.00000023841858,12,16.00000023841858C12,16.00000023841858,12,16.00000023841858,12,16.00000023841858ZM18.3868,18.67450023841858C18.8675,18.94630023841858,19.4776,18.77700023841858,19.7495,18.296200238418578C20.021299,17.81550023841858,19.851999,17.205400238418576,19.371201,16.93350023841858C19.371201,16.93350023841858,18.3868,18.67450023841858,18.3868,18.67450023841858C18.3868,18.67450023841858,18.3868,18.67450023841858,18.3868,18.67450023841858ZM15,10.000000238418579C15,10.000000238418579,16,10.000000238418579,16,10.000000238418579C16,10.000000238418579,15,10.000000238418579,15,10.000000238418579C15,10.000000238418579,15,10.000000238418579,15,10.000000238418579ZM12,7.000000238418579C12,7.000000238418579,12,6.000000238418579,12,6.000000238418579C12,6.000000238418579,12,7.000000238418579,12,7.000000238418579C12,7.000000238418579,12,7.000000238418579,12,7.000000238418579ZM12,3.000000238418579C12,3.000000238418579,12,4.000000238418579,12,4.000000238418579C12,4.000000238418579,12,3.000000238418579,12,3.000000238418579C12,3.000000238418579,12,3.000000238418579,12,3.000000238418579ZM5.61306,18.674600238418577C7.5609198,17.573600238418578,9.7610202,16.99660023841858,11.9984903,17.00000023841858C11.9984903,17.00000023841858,12.0015097,15.000000238418579,12.0015097,15.000000238418579C9.4181399,14.99610023841858,6.8779199,15.66230023841858,4.62894,16.933400238418578C4.62894,16.933400238418578,5.61306,18.674600238418577,5.61306,18.674600238418577C5.61306,18.674600238418577,5.61306,18.674600238418577,5.61306,18.674600238418577ZM12,17.00000023841858C14.3232,17.00000023841858,16.5011,17.60820023841858,18.3868,18.67450023841858C18.3868,18.67450023841858,19.371201,16.93350023841858,19.371201,16.93350023841858C17.1929,15.70180023841858,14.6768,15.000000238418579,12,15.000000238418579C12,15.000000238418579,12,17.00000023841858,12,17.00000023841858C12,17.00000023841858,12,17.00000023841858,12,17.00000023841858ZM14,10.000000238418579C14,10.53043003841858,13.7893,11.039139938418579,13.4142,11.41421053841858C13.4142,11.41421053841858,14.8284,12.828430438418579,14.8284,12.828430438418579C15.5786,12.07828063841858,16,11.06087043841858,16,10.000000238418579C16,10.000000238418579,14,10.000000238418579,14,10.000000238418579C14,10.000000238418579,14,10.000000238418579,14,10.000000238418579ZM13.4142,11.41421053841858C13.0391,11.78929063841858,12.5304298,12.000000238418579,12,12.000000238418579C12,12.000000238418579,12,14.000000238418579,12,14.000000238418579C13.0609,14.000000238418579,14.0783,13.578600238418579,14.8284,12.828430438418579C14.8284,12.828430438418579,13.4142,11.41421053841858,13.4142,11.41421053841858C13.4142,11.41421053841858,13.4142,11.41421053841858,13.4142,11.41421053841858ZM12,12.000000238418579C11.4695702,12.000000238418579,10.9608598,11.78929063841858,10.5857902,11.41421053841858C10.5857902,11.41421053841858,9.1715698,12.828430438418579,9.1715698,12.828430438418579C9.92172,13.578600238418579,10.9391298,14.000000238418579,12,14.000000238418579C12,14.000000238418579,12,12.000000238418579,12,12.000000238418579C12,12.000000238418579,12,12.000000238418579,12,12.000000238418579ZM10.5857902,11.41421053841858C10.210709999999999,11.039139938418579,10,10.53043003841858,10,10.000000238418579C10,10.000000238418579,8,10.000000238418579,8,10.000000238418579C8,11.06087043841858,8.4214301,12.07828063841858,9.1715698,12.828430438418579C9.1715698,12.828430438418579,10.5857902,11.41421053841858,10.5857902,11.41421053841858C10.5857902,11.41421053841858,10.5857902,11.41421053841858,10.5857902,11.41421053841858ZM10,10.000000238418579C10,9.469570438418579,10.210709999999999,8.960860038418579,10.5857902,8.585790438418579C10.5857902,8.585790438418579,9.1715698,7.171570038418579,9.1715698,7.171570038418579C8.4214301,7.921720238418579,8,8.939130038418579,8,10.000000238418579C8,10.000000238418579,10,10.000000238418579,10,10.000000238418579C10,10.000000238418579,10,10.000000238418579,10,10.000000238418579ZM10.5857902,8.585790438418579C10.9608598,8.210710238418578,11.4695702,8.000000238418579,12,8.000000238418579C12,8.000000238418579,12,6.000000238418579,12,6.000000238418579C10.9391298,6.000000238418579,9.92172,6.421430338418579,9.1715698,7.171570038418579C9.1715698,7.171570038418579,10.5857902,8.585790438418579,10.5857902,8.585790438418579C10.5857902,8.585790438418579,10.5857902,8.585790438418579,10.5857902,8.585790438418579ZM12,8.000000238418579C12.5304298,8.000000238418579,13.0391,8.210710238418578,13.4142,8.585790438418579C13.4142,8.585790438418579,14.8284,7.171570038418579,14.8284,7.171570038418579C14.0783,6.421430338418579,13.0609,6.000000238418579,12,6.000000238418579C12,6.000000238418579,12,8.000000238418579,12,8.000000238418579C12,8.000000238418579,12,8.000000238418579,12,8.000000238418579ZM13.4142,8.585790438418579C13.7893,8.960860038418579,14,9.469570438418579,14,10.000000238418579C14,10.000000238418579,16,10.000000238418579,16,10.000000238418579C16,8.939130038418579,15.5786,7.921720238418579,14.8284,7.171570038418579C14.8284,7.171570038418579,13.4142,8.585790438418579,13.4142,8.585790438418579C13.4142,8.585790438418579,13.4142,8.585790438418579,13.4142,8.585790438418579ZM20,12.000000238418579C20,13.050600238418578,19.7931,14.090900238418579,19.391001,15.06150023841858C19.391001,15.06150023841858,21.2388,15.82680023841858,21.2388,15.82680023841858C21.741301,14.613600238418579,22,13.31320023841858,22,12.000000238418579C22,12.000000238418579,20,12.000000238418579,20,12.000000238418579C20,12.000000238418579,20,12.000000238418579,20,12.000000238418579ZM19.391001,15.06150023841858C18.989,16.03210023841858,18.3997,16.91400023841858,17.6569,17.65690023841858C17.6569,17.65690023841858,19.0711,19.07110023841858,19.0711,19.07110023841858C19.999701,18.142500238418577,20.7362,17.04010023841858,21.2388,15.82680023841858C21.2388,15.82680023841858,19.391001,15.06150023841858,19.391001,15.06150023841858C19.391001,15.06150023841858,19.391001,15.06150023841858,19.391001,15.06150023841858ZM17.6569,17.65690023841858C16.914,18.39970023841858,16.0321,18.98900023841858,15.0615,19.39100123841858C15.0615,19.39100123841858,15.8268,21.23880023841858,15.8268,21.23880023841858C17.040100000000002,20.73620023841858,18.1425,19.99970123841858,19.0711,19.07110023841858C19.0711,19.07110023841858,17.6569,17.65690023841858,17.6569,17.65690023841858C17.6569,17.65690023841858,17.6569,17.65690023841858,17.6569,17.65690023841858ZM15.0615,19.39100123841858C14.0909,19.793100238418578,13.0506,20.00000023841858,12,20.00000023841858C12,20.00000023841858,12,22.00000023841858,12,22.00000023841858C13.3132,22.00000023841858,14.6136,21.74130123841858,15.8268,21.23880023841858C15.8268,21.23880023841858,15.0615,19.39100123841858,15.0615,19.39100123841858C15.0615,19.39100123841858,15.0615,19.39100123841858,15.0615,19.39100123841858ZM12,20.00000023841858C10.94942,20.00000023841858,9.9091401,19.793100238418578,8.93853,19.39100123841858C8.93853,19.39100123841858,8.1731701,21.23880023841858,8.1731701,21.23880023841858C9.386419799999999,21.74130123841858,10.686779999999999,22.00000023841858,12,22.00000023841858C12,22.00000023841858,12,20.00000023841858,12,20.00000023841858C12,20.00000023841858,12,20.00000023841858,12,20.00000023841858ZM8.93853,19.39100123841858C7.9679298,18.98900023841858,7.08601,18.39970023841858,6.3431499,17.65690023841858C6.3431499,17.65690023841858,4.92893,19.07110023841858,4.92893,19.07110023841858C5.8575201,19.99970123841858,6.9599098999999995,20.73620023841858,8.1731701,21.23880023841858C8.1731701,21.23880023841858,8.93853,19.39100123841858,8.93853,19.39100123841858C8.93853,19.39100123841858,8.93853,19.39100123841858,8.93853,19.39100123841858ZM6.3431499,17.65690023841858C5.60028,16.91400023841858,5.0109999,16.03210023841858,4.60896,15.06150023841858C4.60896,15.06150023841858,2.761205,15.82680023841858,2.761205,15.82680023841858C3.26375201,17.04010023841858,4.00035,18.142500238418577,4.92893,19.07110023841858C4.92893,19.07110023841858,6.3431499,17.65690023841858,6.3431499,17.65690023841858C6.3431499,17.65690023841858,6.3431499,17.65690023841858,6.3431499,17.65690023841858ZM4.60896,15.06150023841858C4.20693,14.090900238418579,4,13.050600238418578,4,12.000000238418579C4,12.000000238418579,2,12.000000238418579,2,12.000000238418579C2,13.31320023841858,2.25865799,14.613600238418579,2.761205,15.82680023841858C2.761205,15.82680023841858,4.60896,15.06150023841858,4.60896,15.06150023841858C4.60896,15.06150023841858,4.60896,15.06150023841858,4.60896,15.06150023841858ZM4,12.000000238418579C4,9.878270338418579,4.84285,7.843440338418579,6.3431499,6.343150138418579C6.3431499,6.343150138418579,4.92893,4.928930238418579,4.92893,4.928930238418579C3.053568199,6.804300338418579,2,9.347840038418578,2,12.000000238418579C2,12.000000238418579,4,12.000000238418579,4,12.000000238418579C4,12.000000238418579,4,12.000000238418579,4,12.000000238418579ZM6.3431499,6.343150138418579C7.8434401,4.842850238418579,9.8782701,4.000000238418579,12,4.000000238418579C12,4.000000238418579,12,2.000000238418579,12,2.000000238418579C9.3478398,2.000000238418579,6.8043001,3.053568739418579,4.92893,4.928930238418579C4.92893,4.928930238418579,6.3431499,6.343150138418579,6.3431499,6.343150138418579C6.3431499,6.343150138418579,6.3431499,6.343150138418579,6.3431499,6.343150138418579ZM12,4.000000238418579C14.1217,4.000000238418579,16.156599999999997,4.842850238418579,17.6569,6.343150138418579C17.6569,6.343150138418579,19.0711,4.928930238418579,19.0711,4.928930238418579C17.195700000000002,3.053568840418579,14.6522,2.000000238418579,12,2.000000238418579C12,2.000000238418579,12,4.000000238418579,12,4.000000238418579C12,4.000000238418579,12,4.000000238418579,12,4.000000238418579ZM17.6569,6.343150138418579C19.157101,7.843440338418579,20,9.878270338418579,20,12.000000238418579C20,12.000000238418579,22,12.000000238418579,22,12.000000238418579C22,9.347840038418578,20.9464,6.804300338418579,19.0711,4.928930238418579C19.0711,4.928930238418579,17.6569,6.343150138418579,17.6569,6.343150138418579C17.6569,6.343150138418579,17.6569,6.343150138418579,17.6569,6.343150138418579Z" fill="#0A0A28" fill-opacity="1"/></g></svg>