<svg xmlns="http://www.w3.org/2000/svg" xmlns:xlink="http://www.w3.org/1999/xlink" fill="none" version="1.1" width="24" height="24" viewBox="0 0 24 24"><defs><clipPath id="master_svg0_3_2287"><rect x="0" y="0" width="24" height="24" rx="0"/></clipPath></defs><g clip-path="url(#master_svg0_3_2287)"><path d="M5.766620588095092,4.44480899C6.012290688095092,3.9501689,5.810450788095093,3.35003603,5.315810688095093,3.104375C4.821170688095092,2.8587100999999997,4.221040688095092,3.06055099,3.975374698095093,3.55519101C3.975374698095093,3.55519101,5.766620588095092,4.44480899,5.766620588095092,4.44480899C5.766620588095092,4.44480899,5.766620588095092,4.44480899,5.766620588095092,4.44480899ZM3.000000059796093,12C3.000000059796093,12,4.000000688095093,12,4.000000688095093,12C4.000000688095093,12,4.000000688095093,11.998529900000001,4.000000688095093,11.998529900000001C4.000000688095093,11.998529900000001,3.000000059796093,12,3.000000059796093,12C3.000000059796093,12,3.000000059796093,12,3.000000059796093,12ZM3.9755346780950926,20.445101C4.221370688095092,20.939699,4.821580688095093,21.1413,5.316130688095093,20.8955C5.810680588095092,20.649599,6.012300688095093,20.0494,5.766460688095092,19.5549C5.766460688095092,19.5549,3.9755346780950926,20.445101,3.9755346780950926,20.445101C3.9755346780950926,20.445101,3.9755346780950926,20.445101,3.9755346780950926,20.445101ZM18.105280688095093,19.555300000000003C17.859680688095093,20.049999,18.061680688095095,20.650101,18.556280688095093,20.8957C19.050981688095092,21.1413,19.651080688095092,20.9394,19.896680688095092,20.4447C19.896680688095092,20.4447,18.105280688095093,19.555300000000003,18.105280688095093,19.555300000000003C18.105280688095093,19.555300000000003,18.105280688095093,19.555300000000003,18.105280688095093,19.555300000000003ZM20.87098068809509,12C20.87098068809509,12,19.87098068809509,12,19.87098068809509,12C19.87098068809509,12,19.87098068809509,12.0015802,19.87098068809509,12.0015802C19.87098068809509,12.0015802,20.87098068809509,12,20.87098068809509,12C20.87098068809509,12,20.87098068809509,12,20.87098068809509,12ZM19.896581688095093,3.5551660099999998C19.65097968809509,3.06053299,19.05078068809509,2.8587100999999997,18.556180688095093,3.10438699C18.06158068809509,3.3500620100000003,17.859680688095093,3.950200099,18.105380688095092,4.44483399C18.105380688095092,4.44483399,19.896581688095093,3.5551660099999998,19.896581688095093,3.5551660099999998C19.896581688095093,3.5551660099999998,19.896581688095093,3.5551660099999998,19.896581688095093,3.5551660099999998ZM9.000000688095092,8C8.447710788095094,8,8.000000688095092,8.4477201,8.000000688095092,9C8.000000688095092,9.5522799,8.447710788095094,10,9.000000688095092,10C9.000000688095092,10,9.000000688095092,8,9.000000688095092,8C9.000000688095092,8,9.000000688095092,8,9.000000688095092,8ZM10.246000488095092,9C10.246000488095092,9,10.246440688095092,8,10.246440688095092,8C10.246440688095092,8,10.246000488095092,8,10.246000488095092,8C10.246000488095092,8,10.246000488095092,9,10.246000488095092,9C10.246000488095092,9,10.246000488095092,9,10.246000488095092,9ZM11.207000488095092,9.7249999C11.207000488095092,9.7249999,12.168511188095092,9.450230099999999,12.168511188095092,9.450230099999999C12.168511188095092,9.450230099999999,12.168440588095093,9.4499998,12.168440588095093,9.4499998C12.168440588095093,9.4499998,11.207000488095092,9.7249999,11.207000488095092,9.7249999C11.207000488095092,9.7249999,11.207000488095092,9.7249999,11.207000488095092,9.7249999ZM12.793000888095094,15.275C12.793000888095094,15.275,11.831490288095093,15.5498,11.831490288095093,15.5498C11.831490288095093,15.5498,11.831560888095092,15.55,11.831560888095092,15.55C11.831560888095092,15.55,12.793000888095094,15.275,12.793000888095094,15.275C12.793000888095094,15.275,12.793000888095094,15.275,12.793000888095094,15.275ZM13.753980688095092,16C13.753980688095092,16,13.753580688095093,17,13.753580688095093,17C13.753580688095093,17,13.753980688095092,17,13.753980688095092,17C13.753980688095092,17,13.753980688095092,16,13.753980688095092,16C13.753980688095092,16,13.753980688095092,16,13.753980688095092,16ZM14.999980688095093,17C15.552280688095093,17,15.999980688095093,16.552300000000002,15.999980688095093,16C15.999980688095093,15.4477,15.552280688095093,15,14.999980688095093,15C14.999980688095093,15,14.999980688095093,17,14.999980688095093,17C14.999980688095093,17,14.999980688095093,17,14.999980688095093,17ZM15.999980688095093,10C16.552280688095095,10,16.999980688095093,9.5522799,16.999980688095093,9C16.999980688095093,8.4477201,16.552280688095095,8,15.999980688095093,8C15.999980688095093,8,15.999980688095093,10,15.999980688095093,10C15.999980688095093,10,15.999980688095093,10,15.999980688095093,10ZM15.919980688095093,9C15.919980688095093,9,15.919580688095094,10,15.919580688095094,10C15.919580688095094,10,15.919980688095093,10,15.919980688095093,10C15.919980688095093,10,15.919980688095093,9,15.919980688095093,9C15.919980688095093,9,15.919980688095093,9,15.919980688095093,9ZM14.400980688095093,9.698C14.400980688095093,9.698,13.641880688095092,9.0469999,13.641880688095092,9.0469999C13.641880688095092,9.0469999,13.641580688095093,9.0474,13.641580688095093,9.0474C13.641580688095093,9.0474,14.400980688095093,9.698,14.400980688095093,9.698C14.400980688095093,9.698,14.400980688095093,9.698,14.400980688095093,9.698ZM9.600000588095092,15.302C9.600000588095092,15.302,10.359080588095093,15.953,10.359080588095093,15.953C10.359080588095093,15.953,10.359420488095093,15.9526,10.359420488095093,15.9526C10.359420488095093,15.9526,9.600000588095092,15.302,9.600000588095092,15.302C9.600000588095092,15.302,9.600000588095092,15.302,9.600000588095092,15.302ZM8.080000688095094,16C8.080000688095094,16,8.080920488095092,15,8.080920488095092,15C8.080920488095092,15,8.080000688095094,15,8.080000688095094,15C8.080000688095094,15,8.080000688095094,16,8.080000688095094,16C8.080000688095094,16,8.080000688095094,16,8.080000688095094,16ZM8.000000688095092,15C7.447710788095093,15,7.000000688095093,15.4477,7.000000688095093,16C7.000000688095093,16.552300000000002,7.447710788095093,17,8.000000688095092,17C8.000000688095092,17,8.000000688095092,15,8.000000688095092,15C8.000000688095092,15,8.000000688095092,15,8.000000688095092,15ZM3.975374698095093,3.55519101C2.6719096880950928,6.1797199,1.9956906880950929,9.0710802,2.0000007180950927,12.0014696C2.0000007180950927,12.0014696,4.000000688095093,11.998529900000001,4.000000688095093,11.998529900000001C3.9961466780950925,9.37781,4.600900688095093,6.79199,5.766620588095092,4.44480899C5.766620588095092,4.44480899,3.975374698095093,3.55519101,3.975374698095093,3.55519101C3.975374698095093,3.55519101,3.975374698095093,3.55519101,3.975374698095093,3.55519101ZM1.9999996980950927,12C1.9999996980950927,15.0318,2.710266678095093,17.8998,3.9755346780950926,20.445101C3.9755346780950926,20.445101,5.766460688095092,19.5549,5.766460688095092,19.5549C4.635730788095093,17.2802,4.000000688095093,14.7162,4.000000688095093,12C4.000000688095093,12,1.9999996980950927,12,1.9999996980950927,12C1.9999996980950927,12,1.9999996980950927,12,1.9999996980950927,12ZM19.896680688095092,20.4447C21.199780688095093,17.8201,21.87568068809509,14.9287,21.87098068809509,11.9984198C21.87098068809509,11.9984198,19.87098068809509,12.0015802,19.87098068809509,12.0015802C19.875180688095092,14.6222,19.270680688095094,17.208,18.105280688095093,19.555300000000003C18.105280688095093,19.555300000000003,19.896680688095092,20.4447,19.896680688095092,20.4447C19.896680688095092,20.4447,19.896680688095092,20.4447,19.896680688095092,20.4447ZM21.87098068809509,12C21.87098068809509,8.9682398,21.160781688095092,6.1003101,19.896581688095093,3.5551660099999998C19.896581688095093,3.5551660099999998,18.105380688095092,4.44483399,18.105380688095092,4.44483399C19.23528068809509,6.7196901,19.87098068809509,9.2837601,19.87098068809509,12C19.87098068809509,12,21.87098068809509,12,21.87098068809509,12C21.87098068809509,12,21.87098068809509,12,21.87098068809509,12ZM9.000000688095092,10C9.000000688095092,10,10.246000488095092,10,10.246000488095092,10C10.246000488095092,10,10.246000488095092,8,10.246000488095092,8C10.246000488095092,8,9.000000688095092,8,9.000000688095092,8C9.000000688095092,8,9.000000688095092,10,9.000000688095092,10C9.000000688095092,10,9.000000688095092,10,9.000000688095092,10ZM10.245560888095092,10C10.245560888095092,10,10.245550888095092,10,10.245550888095092,10C10.245550888095092,10,11.450071088095093,8.4033999,11.450071088095093,8.4033999C11.103310388095093,8.1417899,10.680810688095093,8.000189800000001,10.246440688095092,8C10.246440688095092,8,10.245560888095092,10,10.245560888095092,10C10.245560888095092,10,10.245560888095092,10,10.245560888095092,10ZM10.245550888095092,10C10.245550888095092,10,10.245550888095092,10,10.245550888095092,10C10.245550888095092,10,12.168440588095093,9.4499998,12.168440588095093,9.4499998C12.048990988095094,9.032380100000001,11.796830888095093,8.665,11.450071088095093,8.4033999C11.450071088095093,8.4033999,10.245550888095092,10,10.245550888095092,10C10.245550888095092,10,10.245550888095092,10,10.245550888095092,10ZM10.245490788095093,9.9997702C10.245490788095093,9.9997702,11.831490288095093,15.5498,11.831490288095093,15.5498C11.831490288095093,15.5498,13.754480688095093,15.0002,13.754480688095093,15.0002C13.754480688095093,15.0002,12.168511188095092,9.450230099999999,12.168511188095092,9.450230099999999C12.168511188095092,9.450230099999999,10.245490788095093,9.9997702,10.245490788095093,9.9997702C10.245490788095093,9.9997702,10.245490788095093,9.9997702,10.245490788095093,9.9997702ZM11.831560888095092,15.55C11.951010488095093,15.9676,12.203170488095093,16.335,12.549930288095092,16.596600000000002C12.549930288095092,16.596600000000002,13.754480688095093,15,13.754480688095093,15C13.754480688095093,15,13.754480688095093,15,13.754480688095093,15C13.754480688095093,15,11.831560888095092,15.55,11.831560888095092,15.55C11.831560888095092,15.55,11.831560888095092,15.55,11.831560888095092,15.55ZM12.549930288095092,16.596600000000002C12.896691088095093,16.8582,13.319180688095093,16.9998,13.753580688095093,17C13.753580688095093,17,13.754480688095093,15,13.754480688095093,15C13.754480688095093,15,13.754480688095093,15,13.754480688095093,15C13.754480688095093,15,12.549930288095092,16.596600000000002,12.549930288095092,16.596600000000002C12.549930288095092,16.596600000000002,12.549930288095092,16.596600000000002,12.549930288095092,16.596600000000002ZM13.753980688095092,17C13.753980688095092,17,14.999980688095093,17,14.999980688095093,17C14.999980688095093,17,14.999980688095093,15,14.999980688095093,15C14.999980688095093,15,13.753980688095092,15,13.753980688095092,15C13.753980688095092,15,13.753980688095092,17,13.753980688095092,17C13.753980688095092,17,13.753980688095092,17,13.753980688095092,17ZM15.999980688095093,8C15.999980688095093,8,15.919980688095093,8,15.919980688095093,8C15.919980688095093,8,15.919980688095093,10,15.919980688095093,10C15.919980688095093,10,15.999980688095093,10,15.999980688095093,10C15.999980688095093,10,15.999980688095093,8,15.999980688095093,8C15.999980688095093,8,15.999980688095093,8,15.999980688095093,8ZM15.920380688095094,8C15.487580688095093,7.99982,15.059880688095094,8.0932999,14.666580688095094,8.274020199999999C14.666580688095094,8.274020199999999,15.501580688095093,10.0913401,15.501580688095093,10.0913401C15.632680688095093,10.0310998,15.775280688095092,9.999939900000001,15.919580688095094,10C15.919580688095094,10,15.920380688095094,8,15.920380688095094,8C15.920380688095094,8,15.920380688095094,8,15.920380688095094,8ZM14.666580688095094,8.274020199999999C14.273280688095094,8.4547501,13.923680688095093,8.718440099999999,13.641880688095092,9.0469999C13.641880688095092,9.0469999,15.160080688095093,10.349,15.160080688095093,10.349C15.253980688095092,10.23948,15.370480688095093,10.1515799,15.501580688095093,10.0913401C15.501580688095093,10.0913401,14.666580688095094,8.274020199999999,14.666580688095094,8.274020199999999C14.666580688095094,8.274020199999999,14.666580688095094,8.274020199999999,14.666580688095094,8.274020199999999ZM13.641580688095093,9.0474C13.641580688095093,9.0474,8.840580688095093,14.6514,8.840580688095093,14.6514C8.840580688095093,14.6514,10.359420488095093,15.9526,10.359420488095093,15.9526C10.359420488095093,15.9526,15.160380688095092,10.3485999,15.160380688095092,10.3485999C15.160380688095092,10.3485999,13.641580688095093,9.0474,13.641580688095093,9.0474C13.641580688095093,9.0474,13.641580688095093,9.0474,13.641580688095093,9.0474ZM8.840920688095093,14.651C8.746940888095093,14.7606,8.630350788095093,14.8485,8.499160488095093,14.9088C8.499160488095093,14.9088,9.333780488095094,16.726300000000002,9.333780488095094,16.726300000000002C9.727360488095092,16.5456,10.077140588095093,16.2817,10.359080588095093,15.953C10.359080588095093,15.953,8.840920688095093,14.651,8.840920688095093,14.651C8.840920688095093,14.651,8.840920688095093,14.651,8.840920688095093,14.651ZM8.499160488095093,14.9088C8.367960688095092,14.969,8.225280488095093,15.0001,8.080920488095092,15C8.080920488095092,15,8.079080788095093,17,8.079080788095093,17C8.512170588095092,17.0004,8.940210588095093,16.907,9.333780488095094,16.726300000000002C9.333780488095094,16.726300000000002,8.499160488095093,14.9088,8.499160488095093,14.9088C8.499160488095093,14.9088,8.499160488095093,14.9088,8.499160488095093,14.9088ZM8.080000688095094,15C8.080000688095094,15,8.000000688095092,15,8.000000688095092,15C8.000000688095092,15,8.000000688095092,17,8.000000688095092,17C8.000000688095092,17,8.080000688095094,17,8.080000688095094,17C8.080000688095094,17,8.080000688095094,15,8.080000688095094,15C8.080000688095094,15,8.080000688095094,15,8.080000688095094,15Z" fill="#0A0A28" fill-opacity="1"/></g></svg>