<svg xmlns="http://www.w3.org/2000/svg" xmlns:xlink="http://www.w3.org/1999/xlink" fill="none" version="1.1" width="24" height="24" viewBox="0 0 24 24"><defs><clipPath id="master_svg0_3_1960"><rect x="0" y="0" width="24" height="24" rx="0"/></clipPath></defs><g clip-path="url(#master_svg0_3_1960)"><path d="M5.578836414062501,3.7008361768749998C5.8698366140625,3.828706626875,6.098208714062499,4.066803486875,6.2138405140625,4.362871106875C6.329484414062501,4.658938796875,6.3229325140625,4.988789996875,6.1956365140625,5.280042096875C5.2713005140625,7.399602196875,4.7961125140625,9.687690696875,4.8000364140625,12.000042896875C4.8000364140625,14.391643796875,5.2992363140625,16.663183796875,6.1968367140625,18.719983796875C6.3128044140625,19.009543796875,6.3115084140625,19.332823796874997,6.1932125140625,19.621423796875C6.0749166140625,19.910024796875,5.8489206140625,20.141143796875,5.5631046140625,20.265943796875C5.2773006140625,20.390742796875,4.9541166140624995,20.399383796875,4.6620486140625,20.290063796875C4.3699806140625,20.180623796875,4.1319724140625,19.961864796875,3.9984366140625003,19.679984796875C2.9411152040625,17.257903796875,2.3968864497625,14.642934796875,2.4000380238635,12.000042896875C2.4000380238635,9.271242596875,2.9700376440625,6.672042396875,3.9984366140625003,4.320035876875C4.0615325140625,4.175589496875,4.1524565140625,4.044986276875,4.2660364140625,3.935687836875C4.3796044140625,3.826390626875,4.5135965140625,3.740539016875,4.6603684140625,3.683038368875C4.8071284140625,3.625537240875,4.9637766140625,3.597513252675,5.1213727140625,3.600567042905C5.278968614062499,3.603620833275,5.4344165140625,3.637692641875,5.578836414062501,3.7008361768749998C5.578836414062501,3.7008361768749998,5.578836414062501,3.7008361768749998,5.578836414062501,3.7008361768749998C5.578836414062501,3.7008361768749998,5.578836414062501,3.7008361768749998,5.578836414062501,3.7008361768749998ZM15.5520244140625,8.400042496874999C15.0122644140625,8.400162696875,14.4794654140625,8.521662196874999,13.9929494140625,8.755554696875C13.5064684140625,8.989434696875,13.0788254140625,9.329730496875001,12.7416364140625,9.751242596874999C12.7416364140625,9.751242596874999,12.3480377140625,10.243242696875,12.3480377140625,10.243242696875C12.3480377140625,10.243242696875,12.2148371140625,9.908442996875,12.2148371140625,9.908442996875C12.0367327140625,9.463314496875,11.7293882140625,9.081738496875001,11.3324165140625,8.812890496875C10.9354572140625,8.544042596875,10.4670725140625,8.400246096875,9.987636614062499,8.400042496874999C9.987636614062499,8.400042496874999,9.6000366140625,8.400042496874999,9.6000366140625,8.400042496874999C9.281784514062501,8.400042496874999,8.9765529140625,8.526462596875,8.751504914062501,8.751510596875C8.5264687140625,8.976558196875,8.4000368140625,9.281778296875,8.4000368140625,9.600042796875C8.4000368140625,9.918294396875,8.5264687140625,10.223526996875,8.751504914062501,10.448562596875C8.9765529140625,10.673610696875,9.281784514062501,10.800043096875001,9.6000366140625,10.800043096875001C9.6000366140625,10.800043096875001,9.987636614062499,10.800043096875001,9.987636614062499,10.800043096875001C9.987636614062499,10.800043096875001,10.6260366140625,12.396042796875,10.6260366140625,12.396042796875C10.6260366140625,12.396042796875,9.3840370140625,13.950043796875,9.3840370140625,13.950043796875C9.2715611140625,14.090514796875,9.128928614062499,14.203902796875,8.966700514062499,14.281795796875C8.8044724140625,14.359698796875,8.6268010140625,14.400102796875,8.4468369140625,14.400043796875C8.4468369140625,14.400043796875,8.4000368140625,14.400043796875,8.4000368140625,14.400043796875C8.0817842140625,14.400043796875,7.7765527140625,14.526462796875,7.5515046140625,14.751510796875C7.3264685140625,14.976558796875,7.2000365140625,15.281779796875,7.2000365140625,15.600042796875C7.2000365140625,15.918343796875,7.3264685140625,16.223503796875,7.5515046140625,16.448622796875C7.7765527140625,16.673622796875,8.0817842140625,16.799982796875,8.4000368140625,16.799982796875C8.4000368140625,16.799982796875,8.4468369140625,16.799982796875,8.4468369140625,16.799982796875C8.986620914062499,16.799863796875,9.5194564140625,16.678423796875002,10.005937114062501,16.444542796874998C10.4924049140625,16.210663796875,10.9200611140625,15.870343796875,11.2572365140625,15.448831796875C11.2572365140625,15.448831796875,11.6508369140625,14.956843796875,11.6508369140625,14.956843796875C11.6508369140625,14.956843796875,11.7840366140625,15.291643796875,11.7840366140625,15.291643796875C11.9622249140625,15.736902796875,12.2697487140625,16.118623796875,12.6669484140625,16.387543796875C13.0641484140625,16.656343796875,13.5327964140625,16.800102796875002,14.0124354140625,16.799982796875C14.0124354140625,16.799982796875,14.4000244140625,16.799982796875,14.4000244140625,16.799982796875C14.7182644140625,16.799982796875,15.0235454140625,16.673622796875,15.2485444140625,16.448622796875C15.4736654140625,16.223503796875,15.6000254140625,15.918343796875,15.6000254140625,15.600042796875C15.6000254140625,15.281779796875,15.4736654140625,14.976558796875,15.2485444140625,14.751510796875C15.0235454140625,14.526462796875,14.7182644140625,14.400043796875,14.4000244140625,14.400043796875C14.4000244140625,14.400043796875,14.0124354140625,14.400043796875,14.0124354140625,14.400043796875C14.0124354140625,14.400043796875,13.3740364140625,12.804043796875,13.3740364140625,12.804043796875C13.3740364140625,12.804043796875,14.6160254140625,11.250042896875,14.6160254140625,11.250042896875C14.7284654140625,11.109558596875,14.8711454140625,10.996170496875,15.0333844140625,10.918278696875C15.1956254140625,10.840374896875,15.3732254140625,10.799970596875,15.5532254140625,10.800043096875001C15.5532254140625,10.800043096875001,15.6000254140625,10.800043096875001,15.6000254140625,10.800043096875001C15.9182644140625,10.800043096875001,16.2235454140625,10.673610696875,16.4485444140625,10.448562596875C16.673665414062498,10.223526996875,16.8000254140625,9.918294396875,16.8000254140625,9.600042796875C16.8000254140625,9.281778296875,16.673665414062498,8.976558196875,16.4485444140625,8.751510596875C16.2235454140625,8.526462596875,15.9182644140625,8.400042496874999,15.6000254140625,8.400042496874999C15.6000254140625,8.400042496874999,15.5532254140625,8.400042496874999,15.5532254140625,8.400042496874999C15.5532254140625,8.400042496874999,15.5520244140625,8.400042496874999,15.5520244140625,8.400042496874999C15.5520244140625,8.400042496874999,15.5520244140625,8.400042496874999,15.5520244140625,8.400042496874999ZM17.8008244140625,5.280042096875C17.6755444140625,4.988681996875,17.6706244140625,4.659566296875,17.7872644140625,4.364618356875C17.9037844140625,4.069669066875,18.1325054140625,3.832881436875,18.4231454140625,3.706014286875C18.7139054140625,3.579146673875,19.0429444140625,3.572517873875,19.3385044140625,3.687576524875C19.6340654140625,3.802635416875,19.8720264140625,4.030023456875,20.0004254140625,4.320035876875C21.0582254140625,6.742134296875,21.6027854140625,9.357054196875,21.6000254140625,12.000042896875C21.6000254140625,14.728843796875,21.0300254140625,17.327983796875,20.0016254140625,19.679984796875C19.9418664140625,19.829263796875,19.8528254140625,19.964864796875,19.7396664140625,20.078983796875C19.6265044140625,20.192983796875,19.4915044140625,20.283223796875,19.3428254140625,20.344184796875C19.1941454140625,20.405143796875,19.0347844140625,20.435622796875,18.8741054140625,20.433704796875C18.7134244140625,20.431903796875,18.5546644140625,20.397823796875,18.4074254140625,20.333503796875C18.2601844140625,20.269183796875,18.1273454140625,20.176063796875,18.016824414062498,20.059425796875C17.9063044140625,19.942783796875,17.8202644140625,19.805143796875,17.7638644140625,19.654664796875C17.7075854140625,19.504183796874997,17.6820254140625,19.343864796875,17.688744414062498,19.183303796875002C17.6954644140625,19.022864796874998,17.7344644140625,18.865303796875,17.8032254140625,18.719983796875C18.7280654140625,16.600542796875,19.2036244140625,14.312467796875,19.2000254140625,12.000042896875C19.2000254140625,9.608442796875,18.7008244140625,7.336842296875,17.8020244140625,5.280042096875C17.8020244140625,5.280042096875,17.8008244140625,5.280042096875,17.8008244140625,5.280042096875C17.8008244140625,5.280042096875,17.8008244140625,5.280042096875,17.8008244140625,5.280042096875Z" fill-rule="evenodd" fill="#0A0A28" fill-opacity="1"/></g></svg>