<svg xmlns="http://www.w3.org/2000/svg" xmlns:xlink="http://www.w3.org/1999/xlink" fill="none" version="1.1" width="24" height="24" viewBox="0 0 24 24"><defs><clipPath id="master_svg0_3_2184"><rect x="0" y="0" width="24" height="24" rx="0"/></clipPath></defs><g clip-path="url(#master_svg0_3_2184)"><path d="M2.4000244140625,7.200048928125C2.4000244140624996,6.563532928125,2.6528812340625,5.953079728125,3.1029676240625,5.502992038125C3.5530553140625,5.052905648125,4.1635085140625,4.800048828125001,4.8000245140625,4.800048828125C4.8000245140625,4.800048828125,12.0000248140625,4.800048828125,12.0000248140625,4.800048828125C12.6365404140625,4.800048828125001,13.2469924140625,5.052905648125,13.6970764140625,5.502992038125C14.1471734140625,5.953079728125,14.4000244140625,6.563532928125,14.4000244140625,7.200048928125C14.4000244140625,7.200048928125,14.4000244140625,16.800048828125,14.4000244140625,16.800048828125C14.4000244140625,17.436529828125,14.1471734140625,18.046969828125,13.6970764140625,18.497089828125C13.2469924140625,18.947209828125,12.6365404140625,19.200049828125,12.0000248140625,19.200049828125C12.0000248140625,19.200049828125,4.8000245140625,19.200049828125,4.8000245140625,19.200049828125C4.1635085140625,19.200049828125,3.5530553140625,18.947209828125,3.1029676240625,18.497089828125C2.6528812340625,18.046969828125,2.4000244140625004,17.436529828125,2.4000244140625,16.800048828125C2.4000244140625,16.800048828125,2.4000244140625,7.200048928125,2.4000244140625,7.200048928125C2.4000244140625,7.200048928125,2.4000244140625,7.200048928125,2.4000244140625,7.200048928125ZM17.4636254140625,8.527248828125C17.2643054140625,8.626837028125,17.0966654140625,8.779945128125,16.979544414062502,8.969412828125C16.8623044140625,9.158893128125001,16.8001454140625,9.377257328125001,16.8000254140625,9.600049028125C16.8000254140625,9.600049028125,16.8000254140625,14.400049228125,16.8000254140625,14.400049228125C16.8001454140625,14.622841828125,16.8623044140625,14.841205828125,16.979544414062502,15.030685828125C17.0966654140625,15.220153828125,17.2643054140625,15.373261828125,17.4636254140625,15.472848828125C17.4636254140625,15.472848828125,19.8636264140625,16.672849828125003,19.8636264140625,16.672849828125003C20.0465054140625,16.764253828125,20.2497844140625,16.807368828125,20.4540254140625,16.798188828125C20.6582664140625,16.788997828124998,20.8567444140625,16.727748828125,21.0307464140625,16.620277828124998C21.2047444140625,16.512817828125,21.3482644140625,16.362672828125,21.4479844140625,16.184124828125C21.5475844140625,16.005564828125,21.5999054140625,15.804517828125,21.6000254140625,15.600048828125C21.6000254140625,15.600048828125,21.6000254140625,8.400048928124999,21.6000254140625,8.400048928124999C21.5999054140625,8.195581228125,21.5475844140625,7.994533028125,21.4479844140625,7.815972828125C21.3482644140625,7.637424928125,21.2047444140625,7.487281128125,21.0307464140625,7.379821028125C20.8567444140625,7.272348928125,20.6582664140625,7.211101028125,20.4540254140625,7.201908828125C20.2497844140625,7.192704928125,20.0465054140625,7.235844828125,19.8636264140625,7.327248828125001C19.8636264140625,7.327248828125001,17.4636254140625,8.527248828125,17.4636254140625,8.527248828125C17.4636254140625,8.527248828125,17.4636254140625,8.527248828125,17.4636254140625,8.527248828125Z" fill="#0A0A28" fill-opacity="1"/></g></svg>