<svg xmlns="http://www.w3.org/2000/svg" xmlns:xlink="http://www.w3.org/1999/xlink" fill="none" version="1.1" width="24" height="24" viewBox="0 0 24 24"><defs><clipPath id="master_svg0_3_1880"><rect x="0" y="0" width="24" height="24" rx="0"/></clipPath></defs><g clip-path="url(#master_svg0_3_1880)"><path d="M15,10C15,10,14.5529,9.10553,14.5529,9.10553C14.214,9.27491,14,9.6212001,14,10C14,10,15,10,15,10C15,10,15,10,15,10ZM19.552999,7.724C19.552999,7.724,19.106001,6.82946599,19.106001,6.82946599C19.106001,6.82946599,19.1059,6.82953399,19.1059,6.82953399C19.1059,6.82953399,19.552999,7.724,19.552999,7.724C19.552999,7.724,19.552999,7.724,19.552999,7.724ZM21,8.618C21,8.618,22,8.618,22,8.618C22,8.618,22,8.61747,22,8.61747C22,8.61747,21,8.618,21,8.618C21,8.618,21,8.618,21,8.618ZM21,15.382C21,15.382,22,15.3825302,22,15.3825302C22,15.3825302,22,15.382,22,15.382C22,15.382,21,15.382,21,15.382C21,15.382,21,15.382,21,15.382ZM19.552999,16.276C19.552999,16.276,19.1059,17.1705,19.1059,17.1705C19.1059,17.1705,19.106001,17.1705,19.106001,17.1705C19.106001,17.1705,19.552999,16.276,19.552999,16.276C19.552999,16.276,19.552999,16.276,19.552999,16.276ZM15,14C15,14,14,14,14,14C14,14.3788004,14.214,14.72509,14.5529,14.8944702C14.5529,14.8944702,15,14,15,14C15,14,15,14,15,14ZM13,6C13,6,13,5,13,5C13,5,13,6,13,6C13,6,13,6,13,6ZM5,6C5,6,5,5,5,5C5,5,5,6,5,6C5,6,5,6,5,6ZM3,8C3,8,2,8,2,8C2,8,3,8,3,8C3,8,3,8,3,8ZM3,16C3,16,2,16,2,16C2,16,3,16,3,16C3,16,3,16,3,16ZM15.4471,10.8944702C15.4471,10.8944702,20.000099,8.61847,20.000099,8.61847C20.000099,8.61847,19.1059,6.82953399,19.1059,6.82953399C19.1059,6.82953399,14.5529,9.10553,14.5529,9.10553C14.5529,9.10553,15.4471,10.8944702,15.4471,10.8944702C15.4471,10.8944702,15.4471,10.8944702,15.4471,10.8944702ZM20,8.61853C20,8.61853,20,8.61853,20,8.61853C20,8.61853,20.09,6.62055898,20.09,6.62055898C19.749599,6.60522598,19.410801,6.677136,19.106001,6.82946599C19.106001,6.82946599,20,8.61853,20,8.61853C20,8.61853,20,8.61853,20,8.61853ZM20,8.61853C20,8.61853,20,8.61853,20,8.61853C20,8.61853,21.051201,6.917077,21.051201,6.917077C20.761299,6.73796099,20.430401,6.63589197,20.09,6.62055898C20.09,6.62055898,20,8.61853,20,8.61853C20,8.61853,20,8.61853,20,8.61853ZM20,8.61853C20,8.61853,20,8.61853,20,8.61853C20,8.61853,21.7465,7.6440099,21.7465,7.6440099C21.5805,7.34642,21.341101,7.09619,21.051201,6.917077C21.051201,6.917077,20,8.61853,20,8.61853C20,8.61853,20,8.61853,20,8.61853ZM20,8.61853C20,8.61853,20,8.61853,20,8.61853C20,8.61853,22,8.61747,22,8.61747C21.9998,8.27669,21.9126,7.9416,21.7465,7.6440099C21.7465,7.6440099,20,8.61853,20,8.61853C20,8.61853,20,8.61853,20,8.61853ZM20,8.618C20,8.618,20,15.382,20,15.382C20,15.382,22,15.382,22,15.382C22,15.382,22,8.618,22,8.618C22,8.618,20,8.618,20,8.618C20,8.618,20,8.618,20,8.618ZM20,15.3814697C20,15.3814697,20,15.3814697,20,15.3814697C20,15.3814697,21.7465,16.356,21.7465,16.356C21.9126,16.0584,21.9998,15.7233105,22,15.3825302C22,15.3825302,20,15.3814697,20,15.3814697C20,15.3814697,20,15.3814697,20,15.3814697ZM20,15.3814697C20,15.3814697,20,15.3814697,20,15.3814697C20,15.3814697,21.051201,17.082900000000002,21.051201,17.082900000000002C21.341101,16.9038,21.5805,16.6536,21.7465,16.356C21.7465,16.356,20,15.3814697,20,15.3814697C20,15.3814697,20,15.3814697,20,15.3814697ZM20,15.3814697C20,15.3814697,20,15.3814697,20,15.3814697C20,15.3814697,20.09,17.3794,20.09,17.3794C20.430401,17.3641,20.761299,17.262,21.051201,17.082900000000002C21.051201,17.082900000000002,20,15.3814697,20,15.3814697C20,15.3814697,20,15.3814697,20,15.3814697ZM20,15.3814697C20,15.3814697,20,15.3814602,20,15.3814602C20,15.3814602,19.106001,17.1705,19.106001,17.1705C19.410801,17.3229,19.7495,17.3948,20.09,17.3794C20.09,17.3794,20,15.3814697,20,15.3814697C20,15.3814697,20,15.3814697,20,15.3814697ZM20.000099,15.3815298C20.000099,15.3815298,15.4471,13.1055298,15.4471,13.1055298C15.4471,13.1055298,14.5529,14.8944702,14.5529,14.8944702C14.5529,14.8944702,19.1059,17.1705,19.1059,17.1705C19.1059,17.1705,20.000099,15.3815298,20.000099,15.3815298C20.000099,15.3815298,20.000099,15.3815298,20.000099,15.3815298ZM16,14C16,14,16,10,16,10C16,10,14,10,14,10C14,10,14,14,14,14C14,14,16,14,16,14C16,14,16,14,16,14ZM5,19C5,19,13,19,13,19C13,19,13,17,13,17C13,17,5,17,5,17C5,17,5,19,5,19C5,19,5,19,5,19ZM13,19C13.7957,19,14.5587,18.6839,15.1213,18.121299999999998C15.1213,18.121299999999998,13.7071,16.7071,13.7071,16.7071C13.5196,16.8946,13.2652,17,13,17C13,17,13,19,13,19C13,19,13,19,13,19ZM15.1213,18.121299999999998C15.6839,17.5587,16,16.7957,16,16C16,16,14,16,14,16C14,16.2652,13.8946,16.5196,13.7071,16.7071C13.7071,16.7071,15.1213,18.121299999999998,15.1213,18.121299999999998C15.1213,18.121299999999998,15.1213,18.121299999999998,15.1213,18.121299999999998ZM16,16C16,16,16,8,16,8C16,8,14,8,14,8C14,8,14,16,14,16C14,16,16,16,16,16C16,16,16,16,16,16ZM16,8C16,7.20435,15.6839,6.44128799,15.1213,5.87868C15.1213,5.87868,13.7071,7.29289,13.7071,7.29289C13.8946,7.48043,14,7.73478,14,8C14,8,16,8,16,8C16,8,16,8,16,8ZM15.1213,5.87868C14.5587,5.31607002,13.7956,5,13,5C13,5,13,7,13,7C13.2652,7,13.5196,7.10536,13.7071,7.29289C13.7071,7.29289,15.1213,5.87868,15.1213,5.87868C15.1213,5.87868,15.1213,5.87868,15.1213,5.87868ZM13,5C13,5,5,5,5,5C5,5,5,7,5,7C5,7,13,7,13,7C13,7,13,5,13,5C13,5,13,5,13,5ZM5,5C4.20435,5,3.44128901,5.31607002,2.87868,5.87868C2.87868,5.87868,4.29289,7.29289,4.29289,7.29289C4.48043,7.10536,4.73478,7,5,7C5,7,5,5,5,5C5,5,5,5,5,5ZM2.87868,5.87868C2.3160700199999997,6.44128901,2,7.20435,2,8C2,8,4,8,4,8C4,7.73478,4.10536,7.48043,4.29289,7.29289C4.29289,7.29289,2.87868,5.87868,2.87868,5.87868C2.87868,5.87868,2.87868,5.87868,2.87868,5.87868ZM2,8C2,8,2,16,2,16C2,16,4,16,4,16C4,16,4,8,4,8C4,8,2,8,2,8C2,8,2,8,2,8ZM2,16C2,16.7956,2.3160700199999997,17.5587,2.87868,18.121299999999998C2.87868,18.121299999999998,4.29289,16.7071,4.29289,16.7071C4.10536,16.5196,4,16.2652,4,16C4,16,2,16,2,16C2,16,2,16,2,16ZM2.87868,18.121299999999998C3.44128799,18.6839,4.20435,19,5,19C5,19,5,17,5,17C4.73478,17,4.48043,16.8946,4.29289,16.7071C4.29289,16.7071,2.87868,18.121299999999998,2.87868,18.121299999999998C2.87868,18.121299999999998,2.87868,18.121299999999998,2.87868,18.121299999999998Z" fill="#0A0A28" fill-opacity="1"/></g></svg>