<svg xmlns="http://www.w3.org/2000/svg" xmlns:xlink="http://www.w3.org/1999/xlink" fill="none" version="1.1" width="24" height="24" viewBox="0 0 24 24"><defs><clipPath id="master_svg0_3_1701"><rect x="0" y="0" width="24" height="24" rx="0"/></clipPath></defs><g clip-path="url(#master_svg0_3_1701)"><path d="M6,4C6,4,6,3,6,3C6,3,6,4,6,4C6,4,6,4,6,4ZM8,4C8,4,8,3,8,3C8,3,8,4,8,4C8,4,8,4,8,4ZM4,8C4,8,3,8,3,8C3,8,4,8,4,8C4,8,4,8,4,8ZM16,4C16,4,16,3,16,3C16,3,16,4,16,4C16,4,16,4,16,4ZM18,4C18,4,18,3,18,3C18,3,18,4,18,4C18,4,18,4,18,4ZM6,14C6,14,6,15,6,15C6,15,6,14,6,14C6,14,6,14,6,14ZM4,18C4,18,3,18,3,18C3,18,4,18,4,18C4,18,4,18,4,18ZM16,14C16,14,16,15,16,15C16,15,16,14,16,14C16,14,16,14,16,14ZM5,6C5,5.73478,5.10536,5.48043,5.29289,5.29289C5.29289,5.29289,3.87868,3.87868,3.87868,3.87868C3.3160700199999997,4.44128901,3,5.20435,3,6C3,6,5,6,5,6C5,6,5,6,5,6ZM5.29289,5.29289C5.48043,5.10536,5.73478,5,6,5C6,5,6,3,6,3C5.20435,3,4.44128901,3.3160700199999997,3.87868,3.87868C3.87868,3.87868,5.29289,5.29289,5.29289,5.29289C5.29289,5.29289,5.29289,5.29289,5.29289,5.29289ZM6,5C6,5,8,5,8,5C8,5,8,3,8,3C8,3,6,3,6,3C6,3,6,5,6,5C6,5,6,5,6,5ZM8,5C8.2652202,5,8.5195699,5.10536,8.707109899999999,5.29289C8.707109899999999,5.29289,10.1213198,3.87868,10.1213198,3.87868C9.558710099999999,3.3160700199999997,8.79565,3,8,3C8,3,8,5,8,5C8,5,8,5,8,5ZM8.707109899999999,5.29289C8.894639999999999,5.48043,9,5.73478,9,6C9,6,11,6,11,6C11,5.20435,10.683929899999999,4.44128799,10.1213198,3.87868C10.1213198,3.87868,8.707109899999999,5.29289,8.707109899999999,5.29289C8.707109899999999,5.29289,8.707109899999999,5.29289,8.707109899999999,5.29289ZM9,6C9,6,9,8,9,8C9,8,11,8,11,8C11,8,11,6,11,6C11,6,9,6,9,6C9,6,9,6,9,6ZM9,8C9,8.2652202,8.894639999999999,8.5195699,8.707109899999999,8.707109899999999C8.707109899999999,8.707109899999999,10.1213198,10.1213198,10.1213198,10.1213198C10.683929899999999,9.558710099999999,11,8.79565,11,8C11,8,9,8,9,8C9,8,9,8,9,8ZM8.707109899999999,8.707109899999999C8.5195699,8.894639999999999,8.2652202,9,8,9C8,9,8,11,8,11C8.79565,11,9.558710099999999,10.683929899999999,10.1213198,10.1213198C10.1213198,10.1213198,8.707109899999999,8.707109899999999,8.707109899999999,8.707109899999999C8.707109899999999,8.707109899999999,8.707109899999999,8.707109899999999,8.707109899999999,8.707109899999999ZM8,9C8,9,6,9,6,9C6,9,6,11,6,11C6,11,8,11,8,11C8,11,8,9,8,9C8,9,8,9,8,9ZM6,9C5.73478,9,5.48043,8.894639999999999,5.29289,8.707109899999999C5.29289,8.707109899999999,3.87868,10.1213198,3.87868,10.1213198C4.44128799,10.683929899999999,5.20435,11,6,11C6,11,6,9,6,9C6,9,6,9,6,9ZM5.29289,8.707109899999999C5.10536,8.5195699,5,8.2652202,5,8C5,8,3,8,3,8C3,8.79565,3.3160700199999997,9.558710099999999,3.87868,10.1213198C3.87868,10.1213198,5.29289,8.707109899999999,5.29289,8.707109899999999C5.29289,8.707109899999999,5.29289,8.707109899999999,5.29289,8.707109899999999ZM5,8C5,8,5,6,5,6C5,6,3,6,3,6C3,6,3,8,3,8C3,8,5,8,5,8C5,8,5,8,5,8ZM15,6C15,5.73478,15.1054,5.48043,15.2929,5.29289C15.2929,5.29289,13.8786802,3.87868,13.8786802,3.87868C13.3160696,4.44128799,13,5.20435,13,6C13,6,15,6,15,6C15,6,15,6,15,6ZM15.2929,5.29289C15.4804,5.10536,15.7348,5,16,5C16,5,16,3,16,3C15.2044,3,14.4413,3.3160700199999997,13.8786802,3.87868C13.8786802,3.87868,15.2929,5.29289,15.2929,5.29289C15.2929,5.29289,15.2929,5.29289,15.2929,5.29289ZM16,5C16,5,18,5,18,5C18,5,18,3,18,3C18,3,16,3,16,3C16,3,16,5,16,5C16,5,16,5,16,5ZM18,5C18.2652,5,18.5196,5.10536,18.7071,5.29289C18.7071,5.29289,20.1213,3.87868,20.1213,3.87868C19.5587,3.3160700199999997,18.7956,3,18,3C18,3,18,5,18,5C18,5,18,5,18,5ZM18.7071,5.29289C18.8946,5.48043,19,5.73478,19,6C19,6,21,6,21,6C21,5.20435,20.683901,4.44128799,20.1213,3.87868C20.1213,3.87868,18.7071,5.29289,18.7071,5.29289C18.7071,5.29289,18.7071,5.29289,18.7071,5.29289ZM19,6C19,6,19,8,19,8C19,8,21,8,21,8C21,8,21,6,21,6C21,6,19,6,19,6C19,6,19,6,19,6ZM19,8C19,8.2652202,18.8946,8.5195699,18.7071,8.707109899999999C18.7071,8.707109899999999,20.1213,10.1213198,20.1213,10.1213198C20.683901,9.558710099999999,21,8.79565,21,8C21,8,19,8,19,8C19,8,19,8,19,8ZM18.7071,8.707109899999999C18.5196,8.894639999999999,18.2652,9,18,9C18,9,18,11,18,11C18.7957,11,19.5587,10.683929899999999,20.1213,10.1213198C20.1213,10.1213198,18.7071,8.707109899999999,18.7071,8.707109899999999C18.7071,8.707109899999999,18.7071,8.707109899999999,18.7071,8.707109899999999ZM18,9C18,9,16,9,16,9C16,9,16,11,16,11C16,11,18,11,18,11C18,11,18,9,18,9C18,9,18,9,18,9ZM16,9C15.7348,9,15.4804,8.894639999999999,15.2929,8.707109899999999C15.2929,8.707109899999999,13.8786802,10.1213198,13.8786802,10.1213198C14.4413,10.683929899999999,15.2043,11,16,11C16,11,16,9,16,9C16,9,16,9,16,9ZM15.2929,8.707109899999999C15.1054,8.5195699,15,8.2652202,15,8C15,8,13,8,13,8C13,8.79565,13.3160696,9.558710099999999,13.8786802,10.1213198C13.8786802,10.1213198,15.2929,8.707109899999999,15.2929,8.707109899999999C15.2929,8.707109899999999,15.2929,8.707109899999999,15.2929,8.707109899999999ZM15,8C15,8,15,6,15,6C15,6,13,6,13,6C13,6,13,8,13,8C13,8,15,8,15,8C15,8,15,8,15,8ZM5,16C5,15.7348,5.10536,15.4804,5.29289,15.2929C5.29289,15.2929,3.87868,13.8786802,3.87868,13.8786802C3.3160700199999997,14.4413,3,15.2044,3,16C3,16,5,16,5,16C5,16,5,16,5,16ZM5.29289,15.2929C5.48043,15.1054,5.73478,15,6,15C6,15,6,13,6,13C5.20435,13,4.44128799,13.3160696,3.87868,13.8786802C3.87868,13.8786802,5.29289,15.2929,5.29289,15.2929C5.29289,15.2929,5.29289,15.2929,5.29289,15.2929ZM6,15C6,15,8,15,8,15C8,15,8,13,8,13C8,13,6,13,6,13C6,13,6,15,6,15C6,15,6,15,6,15ZM8,15C8.2652202,15,8.5195699,15.1054,8.707109899999999,15.2929C8.707109899999999,15.2929,10.1213198,13.8786802,10.1213198,13.8786802C9.558710099999999,13.3160696,8.79565,13,8,13C8,13,8,15,8,15C8,15,8,15,8,15ZM8.707109899999999,15.2929C8.894639999999999,15.4804,9,15.7348,9,16C9,16,11,16,11,16C11,15.2043,10.683929899999999,14.4413,10.1213198,13.8786802C10.1213198,13.8786802,8.707109899999999,15.2929,8.707109899999999,15.2929C8.707109899999999,15.2929,8.707109899999999,15.2929,8.707109899999999,15.2929ZM9,16C9,16,9,18,9,18C9,18,11,18,11,18C11,18,11,16,11,16C11,16,9,16,9,16C9,16,9,16,9,16ZM9,18C9,18.2652,8.894639999999999,18.5196,8.707109899999999,18.7071C8.707109899999999,18.7071,10.1213198,20.1213,10.1213198,20.1213C10.683929899999999,19.5587,11,18.7957,11,18C11,18,9,18,9,18C9,18,9,18,9,18ZM8.707109899999999,18.7071C8.5195699,18.8946,8.2652202,19,8,19C8,19,8,21,8,21C8.79565,21,9.558710099999999,20.683901,10.1213198,20.1213C10.1213198,20.1213,8.707109899999999,18.7071,8.707109899999999,18.7071C8.707109899999999,18.7071,8.707109899999999,18.7071,8.707109899999999,18.7071ZM8,19C8,19,6,19,6,19C6,19,6,21,6,21C6,21,8,21,8,21C8,21,8,19,8,19C8,19,8,19,8,19ZM6,19C5.73478,19,5.48043,18.8946,5.29289,18.7071C5.29289,18.7071,3.87868,20.1213,3.87868,20.1213C4.44128799,20.683901,5.20435,21,6,21C6,21,6,19,6,19C6,19,6,19,6,19ZM5.29289,18.7071C5.10536,18.5196,5,18.2652,5,18C5,18,3,18,3,18C3,18.7956,3.3160700199999997,19.5587,3.87868,20.1213C3.87868,20.1213,5.29289,18.7071,5.29289,18.7071C5.29289,18.7071,5.29289,18.7071,5.29289,18.7071ZM5,18C5,18,5,16,5,16C5,16,3,16,3,16C3,16,3,18,3,18C3,18,5,18,5,18C5,18,5,18,5,18ZM15,16C15,15.7348,15.1054,15.4804,15.2929,15.2929C15.2929,15.2929,13.8786802,13.8786802,13.8786802,13.8786802C13.3160696,14.4413,13,15.2043,13,16C13,16,15,16,15,16C15,16,15,16,15,16ZM15.2929,15.2929C15.4804,15.1054,15.7348,15,16,15C16,15,16,13,16,13C15.2043,13,14.4413,13.3160696,13.8786802,13.8786802C13.8786802,13.8786802,15.2929,15.2929,15.2929,15.2929C15.2929,15.2929,15.2929,15.2929,15.2929,15.2929ZM16,15C16,15,18,15,18,15C18,15,18,13,18,13C18,13,16,13,16,13C16,13,16,15,16,15C16,15,16,15,16,15ZM18,15C18.2652,15,18.5196,15.1054,18.7071,15.2929C18.7071,15.2929,20.1213,13.8786802,20.1213,13.8786802C19.5587,13.3160696,18.7957,13,18,13C18,13,18,15,18,15C18,15,18,15,18,15ZM18.7071,15.2929C18.8946,15.4804,19,15.7348,19,16C19,16,21,16,21,16C21,15.2043,20.683901,14.4413,20.1213,13.8786802C20.1213,13.8786802,18.7071,15.2929,18.7071,15.2929C18.7071,15.2929,18.7071,15.2929,18.7071,15.2929ZM19,16C19,16,19,18,19,18C19,18,21,18,21,18C21,18,21,16,21,16C21,16,19,16,19,16C19,16,19,16,19,16ZM19,18C19,18.2652,18.8946,18.5196,18.7071,18.7071C18.7071,18.7071,20.1213,20.1213,20.1213,20.1213C20.683901,19.5587,21,18.7957,21,18C21,18,19,18,19,18C19,18,19,18,19,18ZM18.7071,18.7071C18.5196,18.8946,18.2652,19,18,19C18,19,18,21,18,21C18.7957,21,19.5587,20.683901,20.1213,20.1213C20.1213,20.1213,18.7071,18.7071,18.7071,18.7071C18.7071,18.7071,18.7071,18.7071,18.7071,18.7071ZM18,19C18,19,16,19,16,19C16,19,16,21,16,21C16,21,18,21,18,21C18,21,18,19,18,19C18,19,18,19,18,19ZM16,19C15.7348,19,15.4804,18.8946,15.2929,18.7071C15.2929,18.7071,13.8786802,20.1213,13.8786802,20.1213C14.4413,20.683901,15.2043,21,16,21C16,21,16,19,16,19C16,19,16,19,16,19ZM15.2929,18.7071C15.1054,18.5196,15,18.2652,15,18C15,18,13,18,13,18C13,18.7957,13.3160696,19.5587,13.8786802,20.1213C13.8786802,20.1213,15.2929,18.7071,15.2929,18.7071C15.2929,18.7071,15.2929,18.7071,15.2929,18.7071ZM15,18C15,18,15,16,15,16C15,16,13,16,13,16C13,16,13,18,13,18C13,18,15,18,15,18C15,18,15,18,15,18Z" fill="#0A0A28" fill-opacity="1"/></g></svg>