<svg xmlns="http://www.w3.org/2000/svg" xmlns:xlink="http://www.w3.org/1999/xlink" fill="none" version="1.1" width="24" height="24" viewBox="0 0 24 24"><defs><clipPath id="master_svg0_3_2289"><rect x="0" y="0" width="24" height="24" rx="0"/></clipPath></defs><g clip-path="url(#master_svg0_3_2289)"><path d="M3,17C3,17,2,17,2,17C2,17,3,17,3,17C3,17,3,17,3,17ZM5,5C5,5,5,4,5,4C5,4,5,5,5,5C5,5,5,5,5,5ZM7,5C7,5,7,4,7,4C7,4,7,5,7,5C7,5,7,5,7,5ZM11,5C11,5,11,4,11,4C11,4,11,5,11,5C11,5,11,5,11,5ZM13,5C13,5,13,4,13,4C13,4,13,5,13,5C13,5,13,5,13,5ZM19,5C19,5,19,4,19,4C19,4,19,5,19,5C19,5,19,5,19,5ZM17,5C17,5,17,4,17,4C17,4,17,5,17,5C17,5,17,5,17,5ZM10,17C10,17,10,7,10,7C10,7,8,7,8,7C8,7,8,17,8,17C8,17,10,17,10,17C10,17,10,17,10,17ZM8,17C8,17.2652,7.89464,17.5196,7.7071099,17.7071C7.7071099,17.7071,9.1213198,19.121299999999998,9.1213198,19.121299999999998C9.683929899999999,18.5587,10,17.7957,10,17C10,17,8,17,8,17C8,17,8,17,8,17ZM7.7071099,17.7071C7.5195699,17.8946,7.2652202,18,7,18C7,18,7,20,7,20C7.79565,20,8.558710099999999,19.6839,9.1213198,19.121299999999998C9.1213198,19.121299999999998,7.7071099,17.7071,7.7071099,17.7071C7.7071099,17.7071,7.7071099,17.7071,7.7071099,17.7071ZM7,18C7,18,5,18,5,18C5,18,5,20,5,20C5,20,7,20,7,20C7,20,7,18,7,18C7,18,7,18,7,18ZM5,18C4.73478,18,4.48043,17.8946,4.29289,17.7071C4.29289,17.7071,2.87868,19.121299999999998,2.87868,19.121299999999998C3.44128799,19.6839,4.20435,20,5,20C5,20,5,18,5,18C5,18,5,18,5,18ZM4.29289,17.7071C4.10536,17.5196,4,17.2652,4,17C4,17,2,17,2,17C2,17.7956,2.3160700199999997,18.5587,2.87868,19.121299999999998C2.87868,19.121299999999998,4.29289,17.7071,4.29289,17.7071C4.29289,17.7071,4.29289,17.7071,4.29289,17.7071ZM4,17C4,17,4,7,4,7C4,7,2,7,2,7C2,7,2,17,2,17C2,17,4,17,4,17C4,17,4,17,4,17ZM4,7C4,6.73478,4.10536,6.48043,4.29289,6.29289C4.29289,6.29289,2.87868,4.87868,2.87868,4.87868C2.3160700199999997,5.44128901,2,6.20435,2,7C2,7,4,7,4,7C4,7,4,7,4,7ZM4.29289,6.29289C4.48043,6.10536,4.73478,6,5,6C5,6,5,4,5,4C4.20435,4,3.44128901,4.31607002,2.87868,4.87868C2.87868,4.87868,4.29289,6.29289,4.29289,6.29289C4.29289,6.29289,4.29289,6.29289,4.29289,6.29289ZM5,6C5,6,7,6,7,6C7,6,7,4,7,4C7,4,5,4,5,4C5,4,5,6,5,6C5,6,5,6,5,6ZM7,6C7.2652202,6,7.5195699,6.10536,7.7071099,6.29289C7.7071099,6.29289,9.1213198,4.87868,9.1213198,4.87868C8.558710099999999,4.31607002,7.79565,4,7,4C7,4,7,6,7,6C7,6,7,6,7,6ZM7.7071099,6.29289C7.89464,6.48043,8,6.73478,8,7C8,7,10,7,10,7C10,6.20435,9.683929899999999,5.44128799,9.1213198,4.87868C9.1213198,4.87868,7.7071099,6.29289,7.7071099,6.29289C7.7071099,6.29289,7.7071099,6.29289,7.7071099,6.29289ZM8,17C8,17.7957,8.316070100000001,18.5587,8.8786802,19.121299999999998C8.8786802,19.121299999999998,10.292890100000001,17.7071,10.292890100000001,17.7071C10.105360000000001,17.5196,10,17.2652,10,17C10,17,8,17,8,17C8,17,8,17,8,17ZM8.8786802,19.121299999999998C9.441289900000001,19.6839,10.20435,20,11,20C11,20,11,18,11,18C10.7347798,18,10.4804301,17.8946,10.292890100000001,17.7071C10.292890100000001,17.7071,8.8786802,19.121299999999998,8.8786802,19.121299999999998C8.8786802,19.121299999999998,8.8786802,19.121299999999998,8.8786802,19.121299999999998ZM11,20C11,20,13,20,13,20C13,20,13,18,13,18C13,18,11,18,11,18C11,18,11,20,11,20C11,20,11,20,11,20ZM13,20C13.7957,20,14.5587,19.6839,15.1213,19.121299999999998C15.1213,19.121299999999998,13.7071,17.7071,13.7071,17.7071C13.5196,17.8946,13.2652,18,13,18C13,18,13,20,13,20C13,20,13,20,13,20ZM15.1213,19.121299999999998C15.6839,18.5587,16,17.7957,16,17C16,17,14,17,14,17C14,17.2652,13.8946,17.5196,13.7071,17.7071C13.7071,17.7071,15.1213,19.121299999999998,15.1213,19.121299999999998C15.1213,19.121299999999998,15.1213,19.121299999999998,15.1213,19.121299999999998ZM10,7C10,6.73478,10.105360000000001,6.48043,10.292890100000001,6.29289C10.292890100000001,6.29289,8.8786802,4.87868,8.8786802,4.87868C8.316070100000001,5.44128799,8,6.20435,8,7C8,7,10,7,10,7C10,7,10,7,10,7ZM10.292890100000001,6.29289C10.4804301,6.10536,10.7347798,6,11,6C11,6,11,4,11,4C10.20435,4,9.441289900000001,4.31607002,8.8786802,4.87868C8.8786802,4.87868,10.292890100000001,6.29289,10.292890100000001,6.29289C10.292890100000001,6.29289,10.292890100000001,6.29289,10.292890100000001,6.29289ZM11,6C11,6,13,6,13,6C13,6,13,4,13,4C13,4,11,4,11,4C11,4,11,6,11,6C11,6,11,6,11,6ZM13,6C13.2652,6,13.5196,6.10536,13.7071,6.29289C13.7071,6.29289,15.1213,4.87868,15.1213,4.87868C14.5587,4.31607002,13.7956,4,13,4C13,4,13,6,13,6C13,6,13,6,13,6ZM13.7071,6.29289C13.8946,6.48043,14,6.73478,14,7C14,7,16,7,16,7C16,6.20435,15.6839,5.44128799,15.1213,4.87868C15.1213,4.87868,13.7071,6.29289,13.7071,6.29289C13.7071,6.29289,13.7071,6.29289,13.7071,6.29289ZM16,17C16,17,16,7,16,7C16,7,14,7,14,7C14,7,14,17,14,17C14,17,16,17,16,17C16,17,16,17,16,17ZM14,17C14,17.7957,14.3161,18.5587,14.8787,19.121299999999998C14.8787,19.121299999999998,16.2929,17.7071,16.2929,17.7071C16.1054,17.5196,16,17.2652,16,17C16,17,14,17,14,17C14,17,14,17,14,17ZM14.8787,19.121299999999998C15.4413,19.6839,16.2043,20,17,20C17,20,17,18,17,18C16.7348,18,16.4804,17.8946,16.2929,17.7071C16.2929,17.7071,14.8787,19.121299999999998,14.8787,19.121299999999998C14.8787,19.121299999999998,14.8787,19.121299999999998,14.8787,19.121299999999998ZM17,20C17,20,19,20,19,20C19,20,19,18,19,18C19,18,17,18,17,18C17,18,17,20,17,20C17,20,17,20,17,20ZM19,20C19.7957,20,20.558701,19.6839,21.1213,19.121299999999998C21.1213,19.121299999999998,19.7071,17.7071,19.7071,17.7071C19.5196,17.8946,19.2652,18,19,18C19,18,19,20,19,20C19,20,19,20,19,20ZM21.1213,19.121299999999998C21.683901,18.5587,22,17.7957,22,17C22,17,20,17,20,17C20,17.2652,19.8946,17.5196,19.7071,17.7071C19.7071,17.7071,21.1213,19.121299999999998,21.1213,19.121299999999998C21.1213,19.121299999999998,21.1213,19.121299999999998,21.1213,19.121299999999998ZM22,17C22,17,22,7,22,7C22,7,20,7,20,7C20,7,20,17,20,17C20,17,22,17,22,17C22,17,22,17,22,17ZM22,7C22,6.20435,21.683901,5.44128799,21.1213,4.87868C21.1213,4.87868,19.7071,6.29289,19.7071,6.29289C19.8946,6.48043,20,6.73478,20,7C20,7,22,7,22,7C22,7,22,7,22,7ZM21.1213,4.87868C20.558701,4.31607002,19.7957,4,19,4C19,4,19,6,19,6C19.2652,6,19.5196,6.10536,19.7071,6.29289C19.7071,6.29289,21.1213,4.87868,21.1213,4.87868C21.1213,4.87868,21.1213,4.87868,21.1213,4.87868ZM19,4C19,4,17,4,17,4C17,4,17,6,17,6C17,6,19,6,19,6C19,6,19,4,19,4C19,4,19,4,19,4ZM17,4C16.2044,4,15.4413,4.31607002,14.8787,4.87868C14.8787,4.87868,16.2929,6.29289,16.2929,6.29289C16.4804,6.10536,16.7348,6,17,6C17,6,17,4,17,4C17,4,17,4,17,4ZM14.8787,4.87868C14.3161,5.44128799,14,6.20435,14,7C14,7,16,7,16,7C16,6.73478,16.1054,6.48043,16.2929,6.29289C16.2929,6.29289,14.8787,4.87868,14.8787,4.87868C14.8787,4.87868,14.8787,4.87868,14.8787,4.87868Z" fill="#0A0A28" fill-opacity="1"/></g></svg>