<svg xmlns="http://www.w3.org/2000/svg" xmlns:xlink="http://www.w3.org/1999/xlink" fill="none" version="1.1" width="24" height="24" viewBox="0 0 24 24"><defs><clipPath id="master_svg0_3_1463"><rect x="0" y="0" width="24" height="24" rx="0"/></clipPath></defs><g clip-path="url(#master_svg0_3_1463)"><path d="M3.600006103515625,4.7999755859375C3.600006103515625,4.4817164559375,3.726434513515625,4.1764916159375,3.951477703515625,3.9514471859375C4.176522133515625,3.7264039959375,4.481746973515625,3.5999755859375004,4.800006103515625,3.5999755859375C4.800006103515625,3.5999755859375,19.200006103515626,3.5999755859375,19.200006103515626,3.5999755859375C19.518247103515627,3.5999755859375004,19.823526103515626,3.7264039959375,20.048527103515625,3.9514471859375C20.273527103515626,4.1764916159375,20.400007103515627,4.4817164559375,20.400007103515627,4.7999755859375C20.400007103515627,5.1182397859375,20.273527103515626,5.4234596859375,20.048527103515625,5.6485077859375C19.823526103515626,5.8735437859375,19.518247103515627,5.9999756859375,19.200006103515626,5.9999756859375C19.200006103515626,5.9999756859375,4.800006103515625,5.9999756859375,4.800006103515625,5.9999756859375C4.481746973515625,5.9999756859375,4.176522133515625,5.8735437859375,3.951477703515625,5.6485077859375C3.726434513515625,5.4234596859375,3.6000061035156254,5.1182397859375,3.600006103515625,4.7999755859375C3.600006103515625,4.7999755859375,3.600006103515625,4.7999755859375,3.600006103515625,4.7999755859375ZM3.600006103515625,9.5999755859375C3.600006103515625,9.2817115859375,3.726434513515625,8.976491885937499,3.951477703515625,8.751443885937501C4.176522133515625,8.5264076859375,4.481746973515625,8.3999757859375,4.800006103515625,8.3999757859375C4.800006103515625,8.3999757859375,19.200006103515626,8.3999757859375,19.200006103515626,8.3999757859375C19.518247103515627,8.3999757859375,19.823526103515626,8.5264076859375,20.048527103515625,8.751443885937501C20.273527103515626,8.976491885937499,20.400007103515627,9.2817115859375,20.400007103515627,9.5999755859375C20.400007103515627,9.9182400859375,20.273527103515626,10.223459685937499,20.048527103515625,10.448507785937501C19.823526103515626,10.6735438859375,19.518247103515627,10.7999758859375,19.200006103515626,10.7999758859375C19.200006103515626,10.7999758859375,4.800006103515625,10.7999758859375,4.800006103515625,10.7999758859375C4.481746973515625,10.7999758859375,4.176522133515625,10.6735438859375,3.951477703515625,10.448507785937501C3.726434513515625,10.223459685937499,3.6000061035156254,9.9182400859375,3.600006103515625,9.5999755859375C3.600006103515625,9.5999755859375,3.600006103515625,9.5999755859375,3.600006103515625,9.5999755859375C3.600006103515625,9.5999755859375,3.600006103515625,9.5999755859375,3.600006103515625,9.5999755859375ZM3.600006103515625,14.3999755859375C3.600006103515625,14.0817125859375,3.726434513515625,13.7764915859375,3.951477703515625,13.5514430859375C4.176522133515625,13.3264083859375,4.481746973515625,13.1999759859375,4.800006103515625,13.1999759859375C4.800006103515625,13.1999759859375,19.200006103515626,13.1999759859375,19.200006103515626,13.1999759859375C19.518247103515627,13.1999759859375,19.823526103515626,13.3264083859375,20.048527103515625,13.5514430859375C20.273527103515626,13.7764915859375,20.400007103515627,14.0817125859375,20.400007103515627,14.3999755859375C20.400007103515627,14.7182395859375,20.273527103515626,15.0234605859375,20.048527103515625,15.2485085859375C19.823526103515626,15.4735445859375,19.518247103515627,15.5999755859375,19.200006103515626,15.5999755859375C19.200006103515626,15.5999755859375,4.800006103515625,15.5999755859375,4.800006103515625,15.5999755859375C4.481746973515625,15.5999755859375,4.176522133515625,15.4735445859375,3.951477703515625,15.2485085859375C3.726434513515625,15.0234605859375,3.6000061035156254,14.7182395859375,3.600006103515625,14.3999755859375C3.600006103515625,14.3999755859375,3.600006103515625,14.3999755859375,3.600006103515625,14.3999755859375ZM3.600006103515625,19.1999755859375C3.600006103515625,18.8817365859375,3.726434513515625,18.576455585937502,3.951477703515625,18.3514565859375C4.176522133515625,18.1264565859375,4.481746973515625,17.9999765859375,4.800006103515625,17.9999765859375C4.800006103515625,17.9999765859375,19.200006103515626,17.9999765859375,19.200006103515626,17.9999765859375C19.518247103515627,17.9999765859375,19.823526103515626,18.1264565859375,20.048527103515625,18.3514565859375C20.273527103515626,18.576455585937502,20.400007103515627,18.8817365859375,20.400007103515627,19.1999755859375C20.400007103515627,19.518216585937502,20.273527103515626,19.8234955859375,20.048527103515625,20.0484965859375C19.823526103515626,20.2734965859375,19.518247103515627,20.3999765859375,19.200006103515626,20.3999765859375C19.200006103515626,20.3999765859375,4.800006103515625,20.3999765859375,4.800006103515625,20.3999765859375C4.481746973515625,20.3999765859375,4.176522133515625,20.2734965859375,3.951477703515625,20.0484965859375C3.726434513515625,19.8234955859375,3.6000061035156254,19.518216585937502,3.600006103515625,19.1999755859375C3.600006103515625,19.1999755859375,3.600006103515625,19.1999755859375,3.600006103515625,19.1999755859375Z" fill-rule="evenodd" fill="#0A0A28" fill-opacity="1"/></g></svg>