<svg xmlns="http://www.w3.org/2000/svg" xmlns:xlink="http://www.w3.org/1999/xlink" fill="none" version="1.1" width="24" height="24" viewBox="0 0 24 24"><defs><clipPath id="master_svg0_3_2043"><rect x="0" y="0" width="24" height="24" rx="0"/></clipPath></defs><g clip-path="url(#master_svg0_3_2043)"><path d="M18,14C18,13.44771,17.552300000000002,13,17,13C16.447699999999998,13,16,13.44771,16,14C16,14,18,14,18,14C18,14,18,14,18,14ZM16,20C16,20.552299,16.447699999999998,21,17,21C17.552300000000002,21,18,20.552299,18,20C18,20,16,20,16,20C16,20,16,20,16,20ZM14,16C13.44771,16,13,16.447699999999998,13,17C13,17.552300000000002,13.44771,18,14,18C14,18,14,16,14,16C14,16,14,16,14,16ZM20,18C20.552299,18,21,17.552300000000002,21,17C21,16.447699999999998,20.552299,16,20,16C20,16,20,18,20,18C20,18,20,18,20,18ZM8,4C8,4,8,3,8,3C8,3,8,4,8,4C8,4,8,4,8,4ZM6,4C6,4,6,3,6,3C6,3,6,4,6,4C6,4,6,4,6,4ZM4,6C4,6,3,6,3,6C3,6,4,6,4,6C4,6,4,6,4,6ZM4,8C4,8,3,8,3,8C3,8,4,8,4,8C4,8,4,8,4,8ZM18,4C18,4,18,3,18,3C18,3,18,4,18,4C18,4,18,4,18,4ZM16,4C16,4,16,3,16,3C16,3,16,4,16,4C16,4,16,4,16,4ZM4,16C4,16,3,16,3,16C3,16,4,16,4,16C4,16,4,16,4,16ZM4,18C4,18,3,18,3,18C3,18,4,18,4,18C4,18,4,18,4,18ZM16,14C16,14,16,20,16,20C16,20,18,20,18,20C18,20,18,14,18,14C18,14,16,14,16,14C16,14,16,14,16,14ZM14,18C14,18,20,18,20,18C20,18,20,16,20,16C20,16,14,16,14,16C14,16,14,18,14,18C14,18,14,18,14,18ZM6,11C6,11,8,11,8,11C8,11,8,9,8,9C8,9,6,9,6,9C6,9,6,11,6,11C6,11,6,11,6,11ZM8,11C8.79565,11,9.558710099999999,10.683929899999999,10.1213198,10.1213198C10.1213198,10.1213198,8.707109899999999,8.707109899999999,8.707109899999999,8.707109899999999C8.5195699,8.894639999999999,8.2652202,9,8,9C8,9,8,11,8,11C8,11,8,11,8,11ZM10.1213198,10.1213198C10.683929899999999,9.558710099999999,11,8.79565,11,8C11,8,9,8,9,8C9,8.2652202,8.894639999999999,8.5195699,8.707109899999999,8.707109899999999C8.707109899999999,8.707109899999999,10.1213198,10.1213198,10.1213198,10.1213198C10.1213198,10.1213198,10.1213198,10.1213198,10.1213198,10.1213198ZM11,8C11,8,11,6,11,6C11,6,9,6,9,6C9,6,9,8,9,8C9,8,11,8,11,8C11,8,11,8,11,8ZM11,6C11,5.20435,10.683929899999999,4.44128799,10.1213198,3.87868C10.1213198,3.87868,8.707109899999999,5.29289,8.707109899999999,5.29289C8.894639999999999,5.48043,9,5.73478,9,6C9,6,11,6,11,6C11,6,11,6,11,6ZM10.1213198,3.87868C9.558710099999999,3.3160700199999997,8.79565,3,8,3C8,3,8,5,8,5C8.2652202,5,8.5195699,5.10536,8.707109899999999,5.29289C8.707109899999999,5.29289,10.1213198,3.87868,10.1213198,3.87868C10.1213198,3.87868,10.1213198,3.87868,10.1213198,3.87868ZM8,3C8,3,6,3,6,3C6,3,6,5,6,5C6,5,8,5,8,5C8,5,8,3,8,3C8,3,8,3,8,3ZM6,3C5.20435,3,4.44128901,3.3160700199999997,3.87868,3.87868C3.87868,3.87868,5.29289,5.29289,5.29289,5.29289C5.48043,5.10536,5.73478,5,6,5C6,5,6,3,6,3C6,3,6,3,6,3ZM3.87868,3.87868C3.3160700199999997,4.44128901,3,5.20435,3,6C3,6,5,6,5,6C5,5.73478,5.10536,5.48043,5.29289,5.29289C5.29289,5.29289,3.87868,3.87868,3.87868,3.87868C3.87868,3.87868,3.87868,3.87868,3.87868,3.87868ZM3,6C3,6,3,8,3,8C3,8,5,8,5,8C5,8,5,6,5,6C5,6,3,6,3,6C3,6,3,6,3,6ZM3,8C3,8.79565,3.3160700199999997,9.558710099999999,3.87868,10.1213198C3.87868,10.1213198,5.29289,8.707109899999999,5.29289,8.707109899999999C5.10536,8.5195699,5,8.2652202,5,8C5,8,3,8,3,8C3,8,3,8,3,8ZM3.87868,10.1213198C4.44128799,10.683929899999999,5.20435,11,6,11C6,11,6,9,6,9C5.73478,9,5.48043,8.894639999999999,5.29289,8.707109899999999C5.29289,8.707109899999999,3.87868,10.1213198,3.87868,10.1213198C3.87868,10.1213198,3.87868,10.1213198,3.87868,10.1213198ZM16,11C16,11,18,11,18,11C18,11,18,9,18,9C18,9,16,9,16,9C16,9,16,11,16,11C16,11,16,11,16,11ZM18,11C18.7957,11,19.5587,10.683929899999999,20.1213,10.1213198C20.1213,10.1213198,18.7071,8.707109899999999,18.7071,8.707109899999999C18.5196,8.894639999999999,18.2652,9,18,9C18,9,18,11,18,11C18,11,18,11,18,11ZM20.1213,10.1213198C20.683901,9.558710099999999,21,8.79565,21,8C21,8,19,8,19,8C19,8.2652202,18.8946,8.5195699,18.7071,8.707109899999999C18.7071,8.707109899999999,20.1213,10.1213198,20.1213,10.1213198C20.1213,10.1213198,20.1213,10.1213198,20.1213,10.1213198ZM21,8C21,8,21,6,21,6C21,6,19,6,19,6C19,6,19,8,19,8C19,8,21,8,21,8C21,8,21,8,21,8ZM21,6C21,5.20435,20.683901,4.44128799,20.1213,3.87868C20.1213,3.87868,18.7071,5.29289,18.7071,5.29289C18.8946,5.48043,19,5.73478,19,6C19,6,21,6,21,6C21,6,21,6,21,6ZM20.1213,3.87868C19.5587,3.3160700199999997,18.7956,3,18,3C18,3,18,5,18,5C18.2652,5,18.5196,5.10536,18.7071,5.29289C18.7071,5.29289,20.1213,3.87868,20.1213,3.87868C20.1213,3.87868,20.1213,3.87868,20.1213,3.87868ZM18,3C18,3,16,3,16,3C16,3,16,5,16,5C16,5,18,5,18,5C18,5,18,3,18,3C18,3,18,3,18,3ZM16,3C15.2044,3,14.4413,3.3160700199999997,13.8786802,3.87868C13.8786802,3.87868,15.2929,5.29289,15.2929,5.29289C15.4804,5.10536,15.7348,5,16,5C16,5,16,3,16,3C16,3,16,3,16,3ZM13.8786802,3.87868C13.3160696,4.44128799,13,5.20435,13,6C13,6,15,6,15,6C15,5.73478,15.1054,5.48043,15.2929,5.29289C15.2929,5.29289,13.8786802,3.87868,13.8786802,3.87868C13.8786802,3.87868,13.8786802,3.87868,13.8786802,3.87868ZM13,6C13,6,13,8,13,8C13,8,15,8,15,8C15,8,15,6,15,6C15,6,13,6,13,6C13,6,13,6,13,6ZM13,8C13,8.79565,13.3160696,9.558710099999999,13.8786802,10.1213198C13.8786802,10.1213198,15.2929,8.707109899999999,15.2929,8.707109899999999C15.1054,8.5195699,15,8.2652202,15,8C15,8,13,8,13,8C13,8,13,8,13,8ZM13.8786802,10.1213198C14.4413,10.683929899999999,15.2043,11,16,11C16,11,16,9,16,9C15.7348,9,15.4804,8.894639999999999,15.2929,8.707109899999999C15.2929,8.707109899999999,13.8786802,10.1213198,13.8786802,10.1213198C13.8786802,10.1213198,13.8786802,10.1213198,13.8786802,10.1213198ZM6,21C6,21,8,21,8,21C8,21,8,19,8,19C8,19,6,19,6,19C6,19,6,21,6,21C6,21,6,21,6,21ZM8,21C8.79565,21,9.558710099999999,20.683901,10.1213198,20.1213C10.1213198,20.1213,8.707109899999999,18.7071,8.707109899999999,18.7071C8.5195699,18.8946,8.2652202,19,8,19C8,19,8,21,8,21C8,21,8,21,8,21ZM10.1213198,20.1213C10.683929899999999,19.5587,11,18.7957,11,18C11,18,9,18,9,18C9,18.2652,8.894639999999999,18.5196,8.707109899999999,18.7071C8.707109899999999,18.7071,10.1213198,20.1213,10.1213198,20.1213C10.1213198,20.1213,10.1213198,20.1213,10.1213198,20.1213ZM11,18C11,18,11,16,11,16C11,16,9,16,9,16C9,16,9,18,9,18C9,18,11,18,11,18C11,18,11,18,11,18ZM11,16C11,15.2043,10.683929899999999,14.4413,10.1213198,13.8786802C10.1213198,13.8786802,8.707109899999999,15.2929,8.707109899999999,15.2929C8.894639999999999,15.4804,9,15.7348,9,16C9,16,11,16,11,16C11,16,11,16,11,16ZM10.1213198,13.8786802C9.558710099999999,13.3160696,8.79565,13,8,13C8,13,8,15,8,15C8.2652202,15,8.5195699,15.1054,8.707109899999999,15.2929C8.707109899999999,15.2929,10.1213198,13.8786802,10.1213198,13.8786802C10.1213198,13.8786802,10.1213198,13.8786802,10.1213198,13.8786802ZM8,13C8,13,6,13,6,13C6,13,6,15,6,15C6,15,8,15,8,15C8,15,8,13,8,13C8,13,8,13,8,13ZM6,13C5.20435,13,4.44128799,13.3160696,3.87868,13.8786802C3.87868,13.8786802,5.29289,15.2929,5.29289,15.2929C5.48043,15.1054,5.73478,15,6,15C6,15,6,13,6,13C6,13,6,13,6,13ZM3.87868,13.8786802C3.3160700199999997,14.4413,3,15.2044,3,16C3,16,5,16,5,16C5,15.7348,5.10536,15.4804,5.29289,15.2929C5.29289,15.2929,3.87868,13.8786802,3.87868,13.8786802C3.87868,13.8786802,3.87868,13.8786802,3.87868,13.8786802ZM3,16C3,16,3,18,3,18C3,18,5,18,5,18C5,18,5,16,5,16C5,16,3,16,3,16C3,16,3,16,3,16ZM3,18C3,18.7956,3.3160700199999997,19.5587,3.87868,20.1213C3.87868,20.1213,5.29289,18.7071,5.29289,18.7071C5.10536,18.5196,5,18.2652,5,18C5,18,3,18,3,18C3,18,3,18,3,18ZM3.87868,20.1213C4.44128799,20.683901,5.20435,21,6,21C6,21,6,19,6,19C5.73478,19,5.48043,18.8946,5.29289,18.7071C5.29289,18.7071,3.87868,20.1213,3.87868,20.1213C3.87868,20.1213,3.87868,20.1213,3.87868,20.1213Z" fill="#0A0A28" fill-opacity="1"/></g></svg>