<svg xmlns="http://www.w3.org/2000/svg" xmlns:xlink="http://www.w3.org/1999/xlink" fill="none" version="1.1" width="24" height="24" viewBox="0 0 24 24"><defs><clipPath id="master_svg0_3_1465"><rect x="0" y="0" width="24" height="24" rx="0"/></clipPath></defs><g clip-path="url(#master_svg0_3_1465)"><path d="M5.9999756859375,3.5999755859375C5.3634596859375,3.5999755859375004,4.7530064859375,3.8528324059375,4.3029187959375,4.3029187959375C3.8528324059375,4.7530064859375,3.5999755859375004,5.3634596859375,3.5999755859375,5.9999756859375C3.5999755859375,5.9999756859375,3.5999755859375,8.3999757859375,3.5999755859375,8.3999757859375C3.5999755859375004,9.036491385937499,3.8528324059375,9.6469440859375,4.3029187959375,10.097027785937499C4.7530064859375,10.5471238859375,5.3634596859375,10.7999758859375,5.9999756859375,10.7999758859375C5.9999756859375,10.7999758859375,8.3999757859375,10.7999758859375,8.3999757859375,10.7999758859375C9.036491385937499,10.7999758859375,9.6469440859375,10.5471238859375,10.097027785937499,10.097027785937499C10.5471238859375,9.6469440859375,10.7999758859375,9.036491385937499,10.7999758859375,8.3999757859375C10.7999758859375,8.3999757859375,10.7999758859375,5.9999756859375,10.7999758859375,5.9999756859375C10.7999758859375,5.3634596859375,10.5471238859375,4.7530064859375,10.097027785937499,4.3029187959375C9.6469440859375,3.8528324059375,9.036491385937499,3.5999755859375004,8.3999757859375,3.5999755859375C8.3999757859375,3.5999755859375,5.9999756859375,3.5999755859375,5.9999756859375,3.5999755859375C5.9999756859375,3.5999755859375,5.9999756859375,3.5999755859375,5.9999756859375,3.5999755859375ZM5.9999756859375,13.1999759859375C5.3634596859375,13.1999759859375,4.7530064859375,13.4528274859375,4.3029187959375,13.9029235859375C3.8528324059375,14.3530085859375,3.5999755859375004,14.9634595859375,3.5999755859375,15.5999755859375C3.5999755859375,15.5999755859375,3.5999755859375,17.9999765859375,3.5999755859375,17.9999765859375C3.5999755859375004,18.636456585937502,3.8528324059375,19.2468955859375,4.3029187959375,19.6970155859375C4.7530064859375,20.1471365859375,5.3634596859375,20.3999765859375,5.9999756859375,20.3999765859375C5.9999756859375,20.3999765859375,8.3999757859375,20.3999765859375,8.3999757859375,20.3999765859375C9.036491385937499,20.3999765859375,9.6469440859375,20.1471365859375,10.097027785937499,19.6970155859375C10.5471238859375,19.2468955859375,10.7999758859375,18.636456585937502,10.7999758859375,17.9999765859375C10.7999758859375,17.9999765859375,10.7999758859375,15.5999755859375,10.7999758859375,15.5999755859375C10.7999758859375,14.9634595859375,10.5471238859375,14.3530085859375,10.097027785937499,13.9029235859375C9.6469440859375,13.4528274859375,9.036491385937499,13.1999759859375,8.3999757859375,13.1999759859375C8.3999757859375,13.1999759859375,5.9999756859375,13.1999759859375,5.9999756859375,13.1999759859375C5.9999756859375,13.1999759859375,5.9999756859375,13.1999759859375,5.9999756859375,13.1999759859375ZM13.1999759859375,5.9999756859375C13.1999759859375,5.3634596859375,13.4528274859375,4.7530064859375,13.9029235859375,4.3029187959375C14.3530085859375,3.8528324059375,14.9634595859375,3.5999755859375004,15.5999755859375,3.5999755859375C15.5999755859375,3.5999755859375,17.9999765859375,3.5999755859375,17.9999765859375,3.5999755859375C18.636456585937502,3.5999755859375004,19.2468955859375,3.8528324059375,19.6970155859375,4.3029187959375C20.1471365859375,4.7530064859375,20.3999765859375,5.3634596859375,20.3999765859375,5.9999756859375C20.3999765859375,5.9999756859375,20.3999765859375,8.3999757859375,20.3999765859375,8.3999757859375C20.3999765859375,9.036491385937499,20.1471365859375,9.6469440859375,19.6970155859375,10.097027785937499C19.2468955859375,10.5471238859375,18.636456585937502,10.7999758859375,17.9999765859375,10.7999758859375C17.9999765859375,10.7999758859375,15.5999755859375,10.7999758859375,15.5999755859375,10.7999758859375C14.9634595859375,10.7999758859375,14.3530085859375,10.5471238859375,13.9029235859375,10.097027785937499C13.4528274859375,9.6469440859375,13.1999759859375,9.036491385937499,13.1999759859375,8.3999757859375C13.1999759859375,8.3999757859375,13.1999759859375,5.9999756859375,13.1999759859375,5.9999756859375C13.1999759859375,5.9999756859375,13.1999759859375,5.9999756859375,13.1999759859375,5.9999756859375ZM13.1999759859375,15.5999755859375C13.1999759859375,14.9634595859375,13.4528274859375,14.3530085859375,13.9029235859375,13.9029235859375C14.3530085859375,13.4528274859375,14.9634595859375,13.1999759859375,15.5999755859375,13.1999759859375C15.5999755859375,13.1999759859375,17.9999765859375,13.1999759859375,17.9999765859375,13.1999759859375C18.636456585937502,13.1999759859375,19.2468955859375,13.4528274859375,19.6970155859375,13.9029235859375C20.1471365859375,14.3530085859375,20.3999765859375,14.9634595859375,20.3999765859375,15.5999755859375C20.3999765859375,15.5999755859375,20.3999765859375,17.9999765859375,20.3999765859375,17.9999765859375C20.3999765859375,18.636456585937502,20.1471365859375,19.2468955859375,19.6970155859375,19.6970155859375C19.2468955859375,20.1471365859375,18.636456585937502,20.3999765859375,17.9999765859375,20.3999765859375C17.9999765859375,20.3999765859375,15.5999755859375,20.3999765859375,15.5999755859375,20.3999765859375C14.9634595859375,20.3999765859375,14.3530085859375,20.1471365859375,13.9029235859375,19.6970155859375C13.4528274859375,19.2468955859375,13.1999759859375,18.636456585937502,13.1999759859375,17.9999765859375C13.1999759859375,17.9999765859375,13.1999759859375,15.5999755859375,13.1999759859375,15.5999755859375C13.1999759859375,15.5999755859375,13.1999759859375,15.5999755859375,13.1999759859375,15.5999755859375Z" fill="#0A0A28" fill-opacity="1"/></g></svg>