<svg xmlns="http://www.w3.org/2000/svg" xmlns:xlink="http://www.w3.org/1999/xlink" fill="none" version="1.1" width="24" height="24" viewBox="0 0 24 24"><defs><clipPath id="master_svg0_3_1680"><rect x="0" y="0" width="24" height="24" rx="0"/></clipPath></defs><g clip-path="url(#master_svg0_3_1680)"><path d="M2.4000244140625,4.7999755859375C2.4000244140625,4.4817164559375,2.5264528240625,4.1764916159375,2.7514960140625,3.9514471859375C2.9765404440625,3.7264039959375,3.2817652840625,3.5999755859375004,3.6000244140625,3.5999755859375C3.6000244140625,3.5999755859375,6.0000245140625,3.5999755859375,6.0000245140625,3.5999755859375C6.318288614062499,3.5999755859375004,6.6235089140625,3.7264039959375,6.8485565140625,3.9514471859375C7.0735926140625,4.1764916159375,7.2000246140625,4.4817164559375,7.2000246140625,4.7999755859375C7.2000246140625,4.7999755859375,7.2000246140625,19.1999755859375,7.2000246140625,19.1999755859375C7.2000246140625,19.518216585937502,7.0735926140625,19.8234955859375,6.8485565140625,20.0484965859375C6.6235089140625,20.2734965859375,6.318288614062499,20.3999765859375,6.0000245140625,20.3999765859375C6.0000245140625,20.3999765859375,3.6000244140625,20.3999765859375,3.6000244140625,20.3999765859375C3.2817652840625,20.3999765859375,2.9765404440625,20.2734965859375,2.7514960140625,20.0484965859375C2.5264528240625,19.8234955859375,2.400024414062501,19.518216585937502,2.4000244140625,19.1999755859375C2.4000244140625,19.1999755859375,2.4000244140625,4.7999755859375,2.4000244140625,4.7999755859375C2.4000244140625,4.7999755859375,2.4000244140625,4.7999755859375,2.4000244140625,4.7999755859375ZM9.6000247140625,4.7999755859375C9.6000247140625,4.4817164559375,9.7264566140625,4.1764916159375,9.951492814062501,3.9514471859375C10.1765408140625,3.7264039959375,10.4817610140625,3.5999755859375004,10.8000250140625,3.5999755859375C10.8000250140625,3.5999755859375,13.2000244140625,3.5999755859375,13.2000244140625,3.5999755859375C13.5182884140625,3.5999755859375004,13.8235094140625,3.7264039959375,14.0485574140625,3.9514471859375C14.2735934140625,4.1764916159375,14.4000244140625,4.4817164559375,14.4000244140625,4.7999755859375C14.4000244140625,4.7999755859375,14.4000244140625,19.1999755859375,14.4000244140625,19.1999755859375C14.4000244140625,19.518216585937502,14.2735934140625,19.8234955859375,14.0485574140625,20.0484965859375C13.8235094140625,20.2734965859375,13.5182884140625,20.3999765859375,13.2000244140625,20.3999765859375C13.2000244140625,20.3999765859375,10.8000250140625,20.3999765859375,10.8000250140625,20.3999765859375C10.4817610140625,20.3999765859375,10.1765408140625,20.2734965859375,9.951492814062501,20.0484965859375C9.7264566140625,19.8234955859375,9.6000247140625,19.518216585937502,9.6000247140625,19.1999755859375C9.6000247140625,19.1999755859375,9.6000247140625,4.7999755859375,9.6000247140625,4.7999755859375C9.6000247140625,4.7999755859375,9.6000247140625,4.7999755859375,9.6000247140625,4.7999755859375ZM18.0000244140625,3.5999755859375C17.6817854140625,3.5999755859375004,17.376504414062502,3.7264039959375,17.1515054140625,3.9514471859375C16.9265054140625,4.1764916159375,16.8000254140625,4.4817164559375,16.8000254140625,4.7999755859375C16.8000254140625,4.7999755859375,16.8000254140625,19.1999755859375,16.8000254140625,19.1999755859375C16.8000254140625,19.518216585937502,16.9265054140625,19.8234955859375,17.1515054140625,20.0484965859375C17.376504414062502,20.2734965859375,17.6817854140625,20.3999765859375,18.0000244140625,20.3999765859375C18.0000244140625,20.3999765859375,20.4000244140625,20.3999765859375,20.4000244140625,20.3999765859375C20.7182654140625,20.3999765859375,21.0235444140625,20.2734965859375,21.2485444140625,20.0484965859375C21.4735454140625,19.8234955859375,21.6000254140625,19.518216585937502,21.6000254140625,19.1999755859375C21.6000254140625,19.1999755859375,21.6000254140625,4.7999755859375,21.6000254140625,4.7999755859375C21.6000254140625,4.4817164559375,21.4735454140625,4.1764916159375,21.2485444140625,3.9514471859375C21.0235444140625,3.7264039959375,20.7182654140625,3.599975585937501,20.4000244140625,3.5999755859375C20.4000244140625,3.5999755859375,18.0000244140625,3.5999755859375,18.0000244140625,3.5999755859375C18.0000244140625,3.5999755859375,18.0000244140625,3.5999755859375,18.0000244140625,3.5999755859375Z" fill="#0A0A28" fill-opacity="1"/></g></svg>