<svg xmlns="http://www.w3.org/2000/svg" xmlns:xlink="http://www.w3.org/1999/xlink" fill="none" version="1.1" width="24" height="24" viewBox="0 0 24 24"><defs><clipPath id="master_svg0_3_2203"><rect x="0" y="0" width="24" height="24" rx="0"/></clipPath></defs><g clip-path="url(#master_svg0_3_2203)"><path d="M5.586,15.000040199279786C5.586,15.000040199279786,6.2931099,14.292940199279785,6.2931099,14.292940199279785C6.1055701,14.105340199279786,5.8512199,14.000040199279786,5.586,14.000040199279786C5.586,14.000040199279786,5.586,15.000040199279786,5.586,15.000040199279786C5.586,15.000040199279786,5.586,15.000040199279786,5.586,15.000040199279786ZM3,14.000040199279786C3,14.000040199279786,2,14.000040199279786,2,14.000040199279786C2,14.000040199279786,3,14.000040199279786,3,14.000040199279786C3,14.000040199279786,3,14.000040199279786,3,14.000040199279786ZM5.586,8.999999999279785C5.586,8.999999999279785,5.586,9.999999999279785,5.586,9.999999999279785C5.8512199,9.999999999279785,6.1055701,9.894639999279786,6.2931099,9.707110399279784C6.2931099,9.707110399279784,5.586,8.999999999279785,5.586,8.999999999279785C5.586,8.999999999279785,5.586,8.999999999279785,5.586,8.999999999279785ZM10.2930002,4.293000189279785C10.2930002,4.293000189279785,11.0001097,5.000110199279785,11.0001097,5.000110199279785C11.0001097,5.000110199279785,11.0001097,5.000110199279785,11.0001097,5.000110199279785C11.0001097,5.000110199279785,10.2930002,4.293000189279785,10.2930002,4.293000189279785C10.2930002,4.293000189279785,10.2930002,4.293000189279785,10.2930002,4.293000189279785ZM10.2930002,19.707040199279785C10.2930002,19.707040199279785,9.5858898,20.414140199279785,9.5858898,20.414140199279785C9.5858898,20.414140199279785,9.5858898,20.414140199279785,9.5858898,20.414140199279785C9.5858898,20.414140199279785,10.2930002,19.707040199279785,10.2930002,19.707040199279785C10.2930002,19.707040199279785,10.2930002,19.707040199279785,10.2930002,19.707040199279785ZM5.586,14.000040199279786C5.586,14.000040199279786,4,14.000040199279786,4,14.000040199279786C4,14.000040199279786,4,16.000040199279788,4,16.000040199279788C4,16.000040199279788,5.586,16.000040199279788,5.586,16.000040199279788C5.586,16.000040199279788,5.586,14.000040199279786,5.586,14.000040199279786C5.586,14.000040199279786,5.586,14.000040199279786,5.586,14.000040199279786ZM4,14.000040199279786C4,14.000040199279786,4,14.000040199279786,4,14.000040199279786C4,14.000040199279786,2.58578601,15.414240199279785,2.58578601,15.414240199279785C2.9608588,15.789240199279785,3.469567,16.000040199279788,4,16.000040199279788C4,16.000040199279788,4,14.000040199279786,4,14.000040199279786C4,14.000040199279786,4,14.000040199279786,4,14.000040199279786ZM4,14.000040199279786C4,14.000040199279786,4,14.000040199279786,4,14.000040199279786C4,14.000040199279786,2,14.000040199279786,2,14.000040199279786C2,14.530440199279786,2.21071398,15.039140199279785,2.58578601,15.414240199279785C2.58578601,15.414240199279785,4,14.000040199279786,4,14.000040199279786C4,14.000040199279786,4,14.000040199279786,4,14.000040199279786ZM4,14.000040199279786C4,14.000040199279786,4,9.999999999279785,4,9.999999999279785C4,9.999999999279785,2,9.999999999279785,2,9.999999999279785C2,9.999999999279785,2,14.000040199279786,2,14.000040199279786C2,14.000040199279786,4,14.000040199279786,4,14.000040199279786C4,14.000040199279786,4,14.000040199279786,4,14.000040199279786ZM4,9.999999999279785C4,9.999999999279785,4,9.999999999279785,4,9.999999999279785C4,9.999999999279785,2.58578601,8.585790199279785,2.58578601,8.585790199279785C2.21071398,8.960860299279785,2,9.469570199279785,2,9.999999999279785C2,9.999999999279785,4,9.999999999279785,4,9.999999999279785C4,9.999999999279785,4,9.999999999279785,4,9.999999999279785ZM4,9.999999999279785C4,9.999999999279785,4,9.999999999279785,4,9.999999999279785C4,9.999999999279785,4,7.999999999279785,4,7.999999999279785C3.469567,7.999999999279785,2.9608588,8.210709999279786,2.58578601,8.585790199279785C2.58578601,8.585790199279785,4,9.999999999279785,4,9.999999999279785C4,9.999999999279785,4,9.999999999279785,4,9.999999999279785ZM4,9.999999999279785C4,9.999999999279785,5.586,9.999999999279785,5.586,9.999999999279785C5.586,9.999999999279785,5.586,7.999999999279785,5.586,7.999999999279785C5.586,7.999999999279785,4,7.999999999279785,4,7.999999999279785C4,7.999999999279785,4,9.999999999279785,4,9.999999999279785C4,9.999999999279785,4,9.999999999279785,4,9.999999999279785ZM6.2931099,9.707110399279784C6.2931099,9.707110399279784,11.0001097,5.000110199279785,11.0001097,5.000110199279785C11.0001097,5.000110199279785,9.5858898,3.585893209279785,9.5858898,3.585893209279785C9.5858898,3.585893209279785,4.87889,8.292890099279784,4.87889,8.292890099279784C4.87889,8.292890099279784,6.2931099,9.707110399279784,6.2931099,9.707110399279784C6.2931099,9.707110399279784,6.2931099,9.707110399279784,6.2931099,9.707110399279784ZM11.0001097,5.000110199279785C11.0001097,5.000110199279785,11,5.000000199279786,11,5.000000199279786C11,5.000000199279786,13,5.000000199279786,13,5.000000199279786C13,3.2179132092797853,10.8457298,2.326060199279785,9.5858898,3.585893209279785C9.5858898,3.585893209279785,11.0001097,5.000110199279785,11.0001097,5.000110199279785C11.0001097,5.000110199279785,11.0001097,5.000110199279785,11.0001097,5.000110199279785ZM11,5.000000199279786C11,5.000000199279786,11,19.000040199279788,11,19.000040199279788C11,19.000040199279788,13,19.000040199279788,13,19.000040199279788C13,19.000040199279788,13,5.000000199279786,13,5.000000199279786C13,5.000000199279786,11,5.000000199279786,11,5.000000199279786C11,5.000000199279786,11,5.000000199279786,11,5.000000199279786ZM11,19.000040199279788C11,19.000040199279788,11.0001097,18.999940199279784,11.0001097,18.999940199279784C11.0001097,18.999940199279784,9.5858898,20.414140199279785,9.5858898,20.414140199279785C10.8457298,21.673940199279784,13,20.782040199279784,13,19.000040199279788C13,19.000040199279788,11,19.000040199279788,11,19.000040199279788C11,19.000040199279788,11,19.000040199279788,11,19.000040199279788ZM11.0001097,18.999940199279784C11.0001097,18.999940199279784,6.2931099,14.292940199279785,6.2931099,14.292940199279785C6.2931099,14.292940199279785,4.87889,15.707140199279785,4.87889,15.707140199279785C4.87889,15.707140199279785,9.5858898,20.414140199279785,9.5858898,20.414140199279785C9.5858898,20.414140199279785,11.0001097,18.999940199279784,11.0001097,18.999940199279784C11.0001097,18.999940199279784,11.0001097,18.999940199279784,11.0001097,18.999940199279784Z" fill="#0A0A28" fill-opacity="1"/><path d="M16.29289299,13.292890100000001C15.90237,13.6834199,15.90237,14.3165798,16.29289299,14.707109899999999C16.68341699,15.097629999999999,17.31658301,15.097629999999999,17.70710701,14.707109899999999C17.70710701,14.707109899999999,16.29289299,13.292890100000001,16.29289299,13.292890100000001C16.29289299,13.292890100000001,16.29289299,13.292890100000001,16.29289299,13.292890100000001ZM19.7071099,12.707109899999999C20.09763,12.3165801,20.09763,11.6834199,19.7071099,11.29289C19.3165801,10.90236902,18.6834199,10.90236902,18.29289,11.29289C18.29289,11.29289,19.7071099,12.707109899999999,19.7071099,12.707109899999999C19.7071099,12.707109899999999,19.7071099,12.707109899999999,19.7071099,12.707109899999999ZM18.29289,11.29289C17.90236902,11.6834199,17.90236902,12.3165801,18.29289,12.707109899999999C18.6834199,13.09763,19.3165801,13.09763,19.7071099,12.707109899999999C19.7071099,12.707109899999999,18.29289,11.29289,18.29289,11.29289C18.29289,11.29289,18.29289,11.29289,18.29289,11.29289ZM21.7071099,10.70710701C22.09763,10.31658301,22.09763,9.68341699,21.7071099,9.29289299C21.3165798,8.90237,20.6834199,8.90237,20.2928901,9.29289299C20.2928901,9.29289299,21.7071099,10.70710701,21.7071099,10.70710701C21.7071099,10.70710701,21.7071099,10.70710701,21.7071099,10.70710701ZM18.29289,12.707109899999999C18.6834199,13.09763,19.3165801,13.09763,19.7071099,12.707109899999999C20.09763,12.3165801,20.09763,11.6834199,19.7071099,11.29289C19.7071099,11.29289,18.29289,12.707109899999999,18.29289,12.707109899999999C18.29289,12.707109899999999,18.29289,12.707109899999999,18.29289,12.707109899999999ZM17.70710701,9.29289299C17.31658301,8.90237,16.68341699,8.90237,16.29289299,9.29289299C15.90237,9.68341699,15.90237,10.31658301,16.29289299,10.70710701C16.29289299,10.70710701,17.70710701,9.29289299,17.70710701,9.29289299C17.70710701,9.29289299,17.70710701,9.29289299,17.70710701,9.29289299ZM19.7071099,11.29289C19.3165801,10.90236902,18.6834199,10.90236902,18.29289,11.29289C17.90236902,11.6834199,17.90236902,12.3165801,18.29289,12.707109899999999C18.29289,12.707109899999999,19.7071099,11.29289,19.7071099,11.29289C19.7071099,11.29289,19.7071099,11.29289,19.7071099,11.29289ZM20.2928901,14.707109899999999C20.6834199,15.097629999999999,21.3165798,15.097629999999999,21.7071099,14.707109899999999C22.09763,14.3165798,22.09763,13.6834199,21.7071099,13.292890100000001C21.7071099,13.292890100000001,20.2928901,14.707109899999999,20.2928901,14.707109899999999C20.2928901,14.707109899999999,20.2928901,14.707109899999999,20.2928901,14.707109899999999ZM17.70710701,14.707109899999999C17.70710701,14.707109899999999,19.7071099,12.707109899999999,19.7071099,12.707109899999999C19.7071099,12.707109899999999,18.29289,11.29289,18.29289,11.29289C18.29289,11.29289,16.29289299,13.292890100000001,16.29289299,13.292890100000001C16.29289299,13.292890100000001,17.70710701,14.707109899999999,17.70710701,14.707109899999999C17.70710701,14.707109899999999,17.70710701,14.707109899999999,17.70710701,14.707109899999999ZM18.29289,11.29289C18.29289,11.29289,16.29289299,13.292890100000001,16.29289299,13.292890100000001C16.29289299,13.292890100000001,17.70710701,14.707109899999999,17.70710701,14.707109899999999C17.70710701,14.707109899999999,19.7071099,12.707109899999999,19.7071099,12.707109899999999C19.7071099,12.707109899999999,18.29289,11.29289,18.29289,11.29289C18.29289,11.29289,18.29289,11.29289,18.29289,11.29289ZM19.7071099,12.707109899999999C19.7071099,12.707109899999999,21.7071099,10.70710701,21.7071099,10.70710701C21.7071099,10.70710701,20.2928901,9.29289299,20.2928901,9.29289299C20.2928901,9.29289299,18.29289,11.29289,18.29289,11.29289C18.29289,11.29289,19.7071099,12.707109899999999,19.7071099,12.707109899999999C19.7071099,12.707109899999999,19.7071099,12.707109899999999,19.7071099,12.707109899999999ZM20.2928901,9.29289299C20.2928901,9.29289299,18.29289,11.29289,18.29289,11.29289C18.29289,11.29289,19.7071099,12.707109899999999,19.7071099,12.707109899999999C19.7071099,12.707109899999999,21.7071099,10.70710701,21.7071099,10.70710701C21.7071099,10.70710701,20.2928901,9.29289299,20.2928901,9.29289299C20.2928901,9.29289299,20.2928901,9.29289299,20.2928901,9.29289299ZM19.7071099,11.29289C19.7071099,11.29289,17.70710701,9.29289299,17.70710701,9.29289299C17.70710701,9.29289299,16.29289299,10.70710701,16.29289299,10.70710701C16.29289299,10.70710701,18.29289,12.707109899999999,18.29289,12.707109899999999C18.29289,12.707109899999999,19.7071099,11.29289,19.7071099,11.29289C19.7071099,11.29289,19.7071099,11.29289,19.7071099,11.29289ZM16.29289299,10.70710701C16.29289299,10.70710701,18.29289,12.707109899999999,18.29289,12.707109899999999C18.29289,12.707109899999999,19.7071099,11.29289,19.7071099,11.29289C19.7071099,11.29289,17.70710701,9.29289299,17.70710701,9.29289299C17.70710701,9.29289299,16.29289299,10.70710701,16.29289299,10.70710701C16.29289299,10.70710701,16.29289299,10.70710701,16.29289299,10.70710701ZM18.29289,12.707109899999999C18.29289,12.707109899999999,20.2928901,14.707109899999999,20.2928901,14.707109899999999C20.2928901,14.707109899999999,21.7071099,13.292890100000001,21.7071099,13.292890100000001C21.7071099,13.292890100000001,19.7071099,11.29289,19.7071099,11.29289C19.7071099,11.29289,18.29289,12.707109899999999,18.29289,12.707109899999999C18.29289,12.707109899999999,18.29289,12.707109899999999,18.29289,12.707109899999999Z" fill="#0A0A28" fill-opacity="1"/></g></svg>