<svg xmlns="http://www.w3.org/2000/svg" xmlns:xlink="http://www.w3.org/1999/xlink" fill="none" version="1.1" width="24" height="24" viewBox="0 0 24 24"><defs><clipPath id="master_svg0_3_2328"><rect x="0" y="0" width="24" height="24" rx="0"/></clipPath></defs><g clip-path="url(#master_svg0_3_2328)"><path d="M11.25961320703125,3.691192604625C11.47884120703125,3.782085535625,11.66618520703125,3.935939965625,11.79796820703125,4.133302805625C11.92976420703125,4.330665585625,12.00007220703125,4.562673625625,12.00001220703125,4.799997715625C12.00001220703125,4.799997715625,12.00001220703125,19.199975515625,12.00001220703125,19.199975515625C11.99996520703125,19.437335515625,11.92956020703125,19.669296515625,11.79769220703125,19.866575515625C11.66583720703125,20.063856515625,11.47843120703125,20.217575515625,11.25919320703125,20.308416515625C11.03995320703125,20.399255515625,10.79871650703125,20.423015515625,10.56597610703125,20.376695515625C10.33323670703125,20.330375515625,10.11943240703125,20.216135515625,9.95161250703125,20.048376515625C9.95161250703125,20.048376515625,5.50321240703125,15.599975515625,5.50321240703125,15.599975515625C5.50321240703125,15.599975515625,2.40001220703125,15.599975515625,2.40001220703125,15.599975515625C2.08175307703125,15.599975515625,1.77652823703125,15.473566515625,1.55148380703125,15.248518515625C1.32644061703125,15.023482515625,1.2000122070312502,14.718251515625,1.20001220703125,14.399999515625C1.20001220703125,14.399999515625,1.20001220703125,9.599998515625,1.20001220703125,9.599998515625C1.2000122070312498,9.281734515625,1.32644061703125,8.976513815625001,1.55148380703125,8.751466715625C1.77652823703125,8.526418215625,2.08175307703125,8.399998215625,2.40001220703125,8.399998215625C2.40001220703125,8.399998215625,5.50321240703125,8.399998215625,5.50321240703125,8.399998215625C5.50321240703125,8.399998215625,9.95161250703125,3.951592775625,9.95161250703125,3.951592775625C10.11943240703125,3.783673135625,10.33327290703125,3.669302441625,10.56610870703125,3.622950037625C10.79893300703125,3.576597630625,11.04028800703125,3.600346818855,11.25961320703125,3.691192604625C11.25961320703125,3.691192604625,11.25961320703125,3.691192604625,11.25961320703125,3.691192604625C11.25961320703125,3.691192604625,11.25961320703125,3.691192604625,11.25961320703125,3.691192604625ZM14.75161220703125,8.751598315625C14.97661320703125,8.526634215625,15.28177320703125,8.400249915625,15.60001320703125,8.400249915625C15.91825220703125,8.400249915625,16.223412207031252,8.526634215625,16.44841320703125,8.751598315625C16.44841320703125,8.751598315625,18.00001320703125,10.303198815624999,18.00001320703125,10.303198815624999C18.00001320703125,10.303198815624999,19.55161320703125,8.751598315625,19.55161320703125,8.751598315625C19.66225220703125,8.636986215625,19.79473320703125,8.545558015625,19.94113320703125,8.482666015625C20.08753420703125,8.419786415625001,20.24497220703125,8.386678215625,20.40433120703125,8.385298215625C20.56369420703125,8.383906315625001,20.72173320703125,8.414266115625,20.86921320703125,8.474602215625C21.01657320703125,8.534949815625,21.15061220703125,8.624050115625,21.26329420703125,8.736718615625C21.37597320703125,8.849386215625,21.46501320703125,8.983378415625001,21.52537120703125,9.130846015625C21.58573320703125,9.278326015625,21.61609220703125,9.436342215625,21.61477320703125,9.595678315625001C21.61333420703125,9.755014415625,21.58021120703125,9.912478415625,21.51733420703125,10.058878415625C21.45445220703125,10.205278415625,21.36301220703125,10.337698415624999,21.24841320703125,10.448398615624999C21.24841320703125,10.448398615624999,19.69681120703125,11.999999015625,19.69681120703125,11.999999015625C19.69681120703125,11.999999015625,21.24841320703125,13.551599515625,21.24841320703125,13.551599515625C21.46705220703125,13.777918515625,21.58801220703125,14.081038515625,21.58525320703125,14.395679515625C21.58249320703125,14.710307515625,21.45625320703125,15.011291515625,21.23377220703125,15.233771515625C21.01129120703125,15.456262515625,20.71033320703125,15.582467515625,20.39569320703125,15.585203515625C20.08105320703125,15.587939515625,19.77793320703125,15.466979515625,19.55161320703125,15.248398515625C19.55161320703125,15.248398515625,18.00001320703125,13.696798515625,18.00001320703125,13.696798515625C18.00001320703125,13.696798515625,16.44841320703125,15.248398515625,16.44841320703125,15.248398515625C16.222092207031253,15.466979515625,15.91897320703125,15.587939515625,15.60433320703125,15.585203515625C15.28969320703125,15.582467515625,14.98873220703125,15.456262515625,14.76625220703125,15.233771515625C14.54377220703125,15.011291515625,14.41753320703125,14.710307515625,14.41477220703125,14.395679515625C14.41201320703125,14.081038515625,14.53297220703125,13.777918515625,14.75161220703125,13.551599515625C14.75161220703125,13.551599515625,16.30321320703125,11.999999015625,16.30321320703125,11.999999015625C16.30321320703125,11.999999015625,14.75161220703125,10.448398615624999,14.75161220703125,10.448398615624999C14.52661320703125,10.223362415625001,14.40025320703125,9.918190015625001,14.40025320703125,9.599998515625C14.40025320703125,9.281794515625,14.52661320703125,8.976622115625,14.75161220703125,8.751598315625C14.75161220703125,8.751598315625,14.75161220703125,8.751598315625,14.75161220703125,8.751598315625C14.75161220703125,8.751598315625,14.75161220703125,8.751598315625,14.75161220703125,8.751598315625Z" fill-rule="evenodd" fill="#0A0A28" fill-opacity="1"/></g></svg>