<svg xmlns="http://www.w3.org/2000/svg" xmlns:xlink="http://www.w3.org/1999/xlink" fill="none" version="1.1" width="24" height="24" viewBox="0 0 24 24"><defs><clipPath id="master_svg0_3_2334"><rect x="0" y="0" width="24" height="24" rx="0"/></clipPath></defs><g clip-path="url(#master_svg0_3_2334)"><path d="M11.25961320703125,3.6911953684375C11.47884120703125,3.7820893484375,11.66618520703125,3.9359437784375,11.79796820703125,4.1333065584375C11.92976420703125,4.3306682484375,12.00007220703125,4.5626761484375,12.00001220703125,4.8000003484375C12.00001220703125,4.8000003484375,12.00001220703125,19.2000121484375,12.00001220703125,19.2000121484375C11.99996520703125,19.4372521484375,11.92956020703125,19.6692121484375,11.79769220703125,19.8664931484375C11.66583720703125,20.0638921484375,11.47843120703125,20.2176131484375,11.25919320703125,20.3084521484375C11.03995320703125,20.3991741484375,10.79871650703125,20.4229331484375,10.56597610703125,20.3767341484375C10.33323670703125,20.3304141484375,10.11943240703125,20.2161731484375,9.95161250703125,20.0484121484375C9.95161250703125,20.0484121484375,5.50321240703125,15.6000131484375,5.50321240703125,15.6000131484375C5.50321240703125,15.6000131484375,2.40001220703125,15.6000131484375,2.40001220703125,15.6000131484375C2.08175307703125,15.6000131484375,1.77652823703125,15.4735331484375,1.55148380703125,15.2485321484375C1.32644061703125,15.0234841484375,1.2000122070312502,14.7182521484375,1.20001220703125,14.3999991484375C1.20001220703125,14.3999991484375,1.20001220703125,9.6000003484375,1.20001220703125,9.6000003484375C1.2000122070312498,9.2817363484375,1.32644061703125,8.9765167484375,1.55148380703125,8.7514686484375C1.77652823703125,8.5264205484375,2.08175307703125,8.4000005484375,2.40001220703125,8.4000005484375C2.40001220703125,8.4000005484375,5.50321240703125,8.4000005484375,5.50321240703125,8.4000005484375C5.50321240703125,8.4000005484375,9.95161250703125,3.9515954284375,9.95161250703125,3.9515954284375C10.11943240703125,3.7836769784374997,10.33327290703125,3.6693061584375,10.56610870703125,3.6229537684375C10.79893300703125,3.5766013584375,11.04028800703125,3.6003505884375,11.25961320703125,3.6911953684375C11.25961320703125,3.6911953684375,11.25961320703125,3.6911953684375,11.25961320703125,3.6911953684375C11.25961320703125,3.6911953684375,11.25961320703125,3.6911953684375,11.25961320703125,3.6911953684375ZM17.58841320703125,3.5147953584375C17.81341220703125,3.2898301484375,18.11857220703125,3.1634521484375,18.43681320703125,3.1634521484375C18.75505220703125,3.1634521484375,19.06021320703125,3.2898301484375,19.28521320703125,3.5147953584375C20.40097220703125,4.6279802484375,21.28585220703125,5.950620148437499,21.88909320703125,7.4067721484375C22.49221220703125,8.8629121484375,22.80181120703125,10.4238724484375,22.80001220703125,12.0000009484375C22.80181120703125,13.5761281484375,22.49221220703125,15.1370761484375,21.88909320703125,16.5932521484375C21.28585220703125,18.0493321484375,20.40097220703125,19.3719731484375,19.28521320703125,20.4852121484375C19.05889320703125,20.7037331484375,18.75577320703125,20.8246941484375,18.44113320703125,20.8220521484375C18.12649320703125,20.8192921484375,17.82553320703125,20.6930521484375,17.60305220703125,20.4705731484375C17.38057320703125,20.2480931484375,17.25433320703125,19.9471321484375,17.25157320703125,19.6324941484375C17.24881220703125,19.3178521484375,17.36977420703125,19.0147331484375,17.58841320703125,18.7884121484375C18.48133320703125,17.8980131484375,19.18945320703125,16.8399731484375,19.67197220703125,15.6748921484375C20.15461320703125,14.5099201484375,20.40193320703125,13.2609841484375,20.40001320703125,12.0000009484375C20.40001320703125,9.3480005484375,19.32721320703125,6.950400348437499,17.58841320703125,5.2116003484375C17.36341320703125,4.9865642484374995,17.23705320703125,4.6813923484375,17.23705320703125,4.3631954484375C17.23705320703125,4.0449985884375,17.36341320703125,3.7398289484375002,17.58841320703125,3.5147953584375C17.58841320703125,3.5147953584375,17.58841320703125,3.5147953584375,17.58841320703125,3.5147953584375C17.58841320703125,3.5147953584375,17.58841320703125,3.5147953584375,17.58841320703125,3.5147953584375ZM14.19361320703125,6.9084002484375C14.30509320703125,6.7968244484374996,14.43745320703125,6.7083122484375,14.58313320703125,6.6479282484375C14.72881320703125,6.587532248437499,14.88493320703125,6.5564525484375,15.04261220703125,6.5564525484375C15.20029220703125,6.5564525484375,15.35641320703125,6.587532248437499,15.50209220703125,6.6479282484375C15.64777320703125,6.7083122484375,15.78013220703125,6.7968244484374996,15.89161320703125,6.9084002484375C16.56109320703125,7.5763921484375,17.091973207031252,8.3700723484375,17.45377320703125,9.243852148437501C17.81557320703125,10.1176199484375,18.00121320703125,11.0542683484375,18.00001320703125,12.0000009484375C18.00121320703125,12.9457092484375,17.81557320703125,13.8823451484375,17.45365320703125,14.7561131484375C17.09185320703125,15.6298921484375,16.56097320703125,16.423573148437498,15.89161320703125,17.0916131484375C15.66649220703125,17.3167331484375,15.36109320703125,17.4432131484375,15.04261220703125,17.4432131484375C14.72413220703125,17.4432131484375,14.41873220703125,17.3167331484375,14.19361320703125,17.0916131484375C13.96849220703125,16.8663721484375,13.84189220703125,16.560973148437498,13.84189220703125,16.2426121484375C13.84189220703125,15.9241321484375,13.96849220703125,15.6187331484375,14.19361320703125,15.3936131484375C14.64025320703125,14.9486041484375,14.99437320703125,14.4196801484375,15.23581220703125,13.8372721484375C15.47713320703125,13.2548521484375,15.60097320703125,12.6304445484375,15.60001320703125,12.0000009484375C15.60097320703125,11.3695325484375,15.47725320703125,10.7451124484375,15.23581220703125,10.1626920484375C14.99449320703125,9.5802607484375,14.64025320703125,9.051348248437499,14.19361320703125,8.606400448437501C14.08201220703125,8.4949445484375,13.99357220703125,8.3625965484375,13.93309320703125,8.216928048437499C13.87273320703125,8.0712480484375,13.84165320703125,7.9150924484375,13.84165320703125,7.7574005484375C13.84165320703125,7.5996966484375,13.87273320703125,7.4435405484375,13.93309320703125,7.2978720484375C13.99357220703125,7.1521923484375005,14.08201220703125,7.0198442484375,14.19361320703125,6.9084002484375C14.19361320703125,6.9084002484375,14.19361320703125,6.9084002484375,14.19361320703125,6.9084002484375C14.19361320703125,6.9084002484375,14.19361320703125,6.9084002484375,14.19361320703125,6.9084002484375Z" fill-rule="evenodd" fill="#0A0A28" fill-opacity="1"/></g></svg>