<svg xmlns="http://www.w3.org/2000/svg" xmlns:xlink="http://www.w3.org/1999/xlink" fill="none" version="1.1" width="24" height="24" viewBox="0 0 24 24"><defs><clipPath id="master_svg0_3_1834"><rect x="0" y="0" width="24" height="24" rx="0"/></clipPath></defs><g clip-path="url(#master_svg0_3_1834)"><path d="M16.243000000000002,7.756800199279786C15.8524,7.366330099279786,15.2193,7.366410299279785,14.8288,7.756990199279786C14.4383,8.147560099279785,14.4384,8.780730199279784,14.829,9.171200299279786C14.829,9.171200299279786,16.243000000000002,7.756800199279786,16.243000000000002,7.756800199279786C16.243000000000002,7.756800199279786,16.243000000000002,7.756800199279786,16.243000000000002,7.756800199279786ZM14.829,14.828840199279785C14.4384,15.219240199279785,14.4383,15.852440199279785,14.8288,16.243040199279783C15.2193,16.633540199279786,15.8524,16.633640199279785,16.243000000000002,16.243240199279786C16.243000000000002,16.243240199279786,14.829,14.828840199279785,14.829,14.828840199279785C14.829,14.828840199279785,14.829,14.828840199279785,14.829,14.828840199279785ZM19.0711,4.928889219279785C18.6806,4.5383672092797855,18.0474,4.538371209279785,17.6569,4.928898219279785C17.2664,5.319420199279785,17.2664,5.952590199279785,17.6569,6.3431100992797855C17.6569,6.3431100992797855,19.0711,4.928889219279785,19.0711,4.928889219279785C19.0711,4.928889219279785,19.0711,4.928889219279785,19.0711,4.928889219279785ZM21.000099,11.999999999279785C21.000099,11.999999999279785,20.000099,11.999999999279785,20.000099,11.999999999279785C20.000099,11.999999999279785,21.000099,11.999999999279785,21.000099,11.999999999279785C21.000099,11.999999999279785,21.000099,11.999999999279785,21.000099,11.999999999279785ZM17.6569,17.656840199279785C17.2664,18.047440199279784,17.2664,18.680540199279783,17.6569,19.071140199279785C18.0474,19.461640199279785,18.6806,19.461640199279785,19.0711,19.071140199279785C19.0711,19.071140199279785,17.6569,17.656840199279785,17.6569,17.656840199279785C17.6569,17.656840199279785,17.6569,17.656840199279785,17.6569,17.656840199279785ZM5.586,15.000040199279786C5.586,15.000040199279786,6.2931099,14.292940199279785,6.2931099,14.292940199279785C6.1055701,14.105340199279786,5.8512199,14.000040199279786,5.586,14.000040199279786C5.586,14.000040199279786,5.586,15.000040199279786,5.586,15.000040199279786C5.586,15.000040199279786,5.586,15.000040199279786,5.586,15.000040199279786ZM3,14.000040199279786C3,14.000040199279786,2,14.000040199279786,2,14.000040199279786C2,14.000040199279786,3,14.000040199279786,3,14.000040199279786C3,14.000040199279786,3,14.000040199279786,3,14.000040199279786ZM5.586,8.999999999279785C5.586,8.999999999279785,5.586,9.999999999279785,5.586,9.999999999279785C5.8512199,9.999999999279785,6.1055701,9.894639999279786,6.2931099,9.707110399279784C6.2931099,9.707110399279784,5.586,8.999999999279785,5.586,8.999999999279785C5.586,8.999999999279785,5.586,8.999999999279785,5.586,8.999999999279785ZM10.2930002,4.293000189279785C10.2930002,4.293000189279785,11.0001097,5.000110199279785,11.0001097,5.000110199279785C11.0001097,5.000110199279785,11.0001097,5.000110199279785,11.0001097,5.000110199279785C11.0001097,5.000110199279785,10.2930002,4.293000189279785,10.2930002,4.293000189279785C10.2930002,4.293000189279785,10.2930002,4.293000189279785,10.2930002,4.293000189279785ZM10.2930002,19.707040199279785C10.2930002,19.707040199279785,9.5858898,20.414140199279785,9.5858898,20.414140199279785C9.5858898,20.414140199279785,9.5858898,20.414140199279785,9.5858898,20.414140199279785C9.5858898,20.414140199279785,10.2930002,19.707040199279785,10.2930002,19.707040199279785C10.2930002,19.707040199279785,10.2930002,19.707040199279785,10.2930002,19.707040199279785ZM14.829,9.171200299279786C15.2005,9.542650199279784,15.4953,9.983650199279786,15.6963,10.469020399279785C15.6963,10.469020399279785,17.5441,9.703530299279784,17.5441,9.703530299279784C17.2424,8.975480099279785,16.8003,8.313970099279786,16.243000000000002,7.756800199279786C16.243000000000002,7.756800199279786,14.829,9.171200299279786,14.829,9.171200299279786C14.829,9.171200299279786,14.829,9.171200299279786,14.829,9.171200299279786ZM15.6963,10.469020399279785C15.8974,10.954389999279785,16.0009,11.474620299279785,16.0009,11.999999999279785C16.0009,11.999999999279785,18.0009,11.999999999279785,18.0009,11.999999999279785C18.0009,11.211930299279786,17.8457,10.431590099279784,17.5441,9.703530299279784C17.5441,9.703530299279784,15.6963,10.469020399279785,15.6963,10.469020399279785C15.6963,10.469020399279785,15.6963,10.469020399279785,15.6963,10.469020399279785ZM16.0009,11.999999999279785C16.0009,12.525380099279785,15.8974,13.045610399279784,15.6963,13.530980099279786C15.6963,13.530980099279786,17.5441,14.296440199279786,17.5441,14.296440199279786C17.8457,13.568409899279786,18.0009,12.788069699279784,18.0009,11.999999999279785C18.0009,11.999999999279785,16.0009,11.999999999279785,16.0009,11.999999999279785C16.0009,11.999999999279785,16.0009,11.999999999279785,16.0009,11.999999999279785ZM15.6963,13.530980099279786C15.4953,14.016340199279785,15.2005,14.457340199279786,14.829,14.828840199279785C14.829,14.828840199279785,16.243000000000002,16.243240199279786,16.243000000000002,16.243240199279786C16.8003,15.686040199279786,17.2424,15.024540199279786,17.5441,14.296440199279786C17.5441,14.296440199279786,15.6963,13.530980099279786,15.6963,13.530980099279786C15.6963,13.530980099279786,15.6963,13.530980099279786,15.6963,13.530980099279786ZM17.6569,6.3431100992797855C18.3998,7.085980199279785,18.9891,7.967900299279785,19.3911,8.938510399279785C19.3911,8.938510399279785,21.238899,8.173139999279785,21.238899,8.173139999279785C20.7363,6.959870099279785,19.999701,5.857480199279785,19.0711,4.928889219279785C19.0711,4.928889219279785,17.6569,6.3431100992797855,17.6569,6.3431100992797855C17.6569,6.3431100992797855,17.6569,6.3431100992797855,17.6569,6.3431100992797855ZM19.3911,8.938510399279785C19.7931,9.909120099279786,20.000099,10.949419999279785,20.000099,11.999999999279785C20.000099,11.999999999279785,22.000099,11.999999999279785,22.000099,11.999999999279785C22.000099,10.686769999279786,21.7414,9.386400199279784,21.238899,8.173139999279785C21.238899,8.173139999279785,19.3911,8.938510399279785,19.3911,8.938510399279785C19.3911,8.938510399279785,19.3911,8.938510399279785,19.3911,8.938510399279785ZM20.000099,11.999999999279785C20.000099,13.050579999279785,19.7931,14.090840199279786,19.3911,15.061440199279785C19.3911,15.061440199279785,21.238899,15.826840199279784,21.238899,15.826840199279784C21.7414,14.613640199279786,22.000099,13.313230499279785,22.000099,11.999999999279785C22.000099,11.999999999279785,20.000099,11.999999999279785,20.000099,11.999999999279785C20.000099,11.999999999279785,20.000099,11.999999999279785,20.000099,11.999999999279785ZM19.3911,15.061440199279785C18.9891,16.032140199279787,18.3998,16.914040199279786,17.6569,17.656840199279785C17.6569,17.656840199279785,19.0711,19.071140199279785,19.0711,19.071140199279785C19.999701,18.142540199279786,20.7363,17.040140199279783,21.238899,15.826840199279784C21.238899,15.826840199279784,19.3911,15.061440199279785,19.3911,15.061440199279785C19.3911,15.061440199279785,19.3911,15.061440199279785,19.3911,15.061440199279785ZM5.586,14.000040199279786C5.586,14.000040199279786,4,14.000040199279786,4,14.000040199279786C4,14.000040199279786,4,16.000040199279788,4,16.000040199279788C4,16.000040199279788,5.586,16.000040199279788,5.586,16.000040199279788C5.586,16.000040199279788,5.586,14.000040199279786,5.586,14.000040199279786C5.586,14.000040199279786,5.586,14.000040199279786,5.586,14.000040199279786ZM4,14.000040199279786C4,14.000040199279786,4,14.000040199279786,4,14.000040199279786C4,14.000040199279786,2.58578601,15.414240199279785,2.58578601,15.414240199279785C2.9608588,15.789240199279785,3.469567,16.000040199279788,4,16.000040199279788C4,16.000040199279788,4,14.000040199279786,4,14.000040199279786C4,14.000040199279786,4,14.000040199279786,4,14.000040199279786ZM4,14.000040199279786C4,14.000040199279786,4,14.000040199279786,4,14.000040199279786C4,14.000040199279786,2,14.000040199279786,2,14.000040199279786C2,14.530440199279786,2.21071398,15.039140199279785,2.58578601,15.414240199279785C2.58578601,15.414240199279785,4,14.000040199279786,4,14.000040199279786C4,14.000040199279786,4,14.000040199279786,4,14.000040199279786ZM4,14.000040199279786C4,14.000040199279786,4,9.999999999279785,4,9.999999999279785C4,9.999999999279785,2,9.999999999279785,2,9.999999999279785C2,9.999999999279785,2,14.000040199279786,2,14.000040199279786C2,14.000040199279786,4,14.000040199279786,4,14.000040199279786C4,14.000040199279786,4,14.000040199279786,4,14.000040199279786ZM4,9.999999999279785C4,9.999999999279785,4,9.999999999279785,4,9.999999999279785C4,9.999999999279785,2.58578601,8.585790199279785,2.58578601,8.585790199279785C2.21071398,8.960860299279785,2,9.469570199279785,2,9.999999999279785C2,9.999999999279785,4,9.999999999279785,4,9.999999999279785C4,9.999999999279785,4,9.999999999279785,4,9.999999999279785ZM4,9.999999999279785C4,9.999999999279785,4,9.999999999279785,4,9.999999999279785C4,9.999999999279785,4,7.999999999279785,4,7.999999999279785C3.469567,7.999999999279785,2.9608588,8.210709999279786,2.58578601,8.585790199279785C2.58578601,8.585790199279785,4,9.999999999279785,4,9.999999999279785C4,9.999999999279785,4,9.999999999279785,4,9.999999999279785ZM4,9.999999999279785C4,9.999999999279785,5.586,9.999999999279785,5.586,9.999999999279785C5.586,9.999999999279785,5.586,7.999999999279785,5.586,7.999999999279785C5.586,7.999999999279785,4,7.999999999279785,4,7.999999999279785C4,7.999999999279785,4,9.999999999279785,4,9.999999999279785C4,9.999999999279785,4,9.999999999279785,4,9.999999999279785ZM6.2931099,9.707110399279784C6.2931099,9.707110399279784,11.0001097,5.000110199279785,11.0001097,5.000110199279785C11.0001097,5.000110199279785,9.5858898,3.585893209279785,9.5858898,3.585893209279785C9.5858898,3.585893209279785,4.87889,8.292890099279784,4.87889,8.292890099279784C4.87889,8.292890099279784,6.2931099,9.707110399279784,6.2931099,9.707110399279784C6.2931099,9.707110399279784,6.2931099,9.707110399279784,6.2931099,9.707110399279784ZM11.0001097,5.000110199279785C11.0001097,5.000110199279785,11,5.000000199279786,11,5.000000199279786C11,5.000000199279786,13,5.000000199279786,13,5.000000199279786C13,3.2179132092797853,10.8457298,2.326060199279785,9.5858898,3.585893209279785C9.5858898,3.585893209279785,11.0001097,5.000110199279785,11.0001097,5.000110199279785C11.0001097,5.000110199279785,11.0001097,5.000110199279785,11.0001097,5.000110199279785ZM11,5.000000199279786C11,5.000000199279786,11,19.000040199279788,11,19.000040199279788C11,19.000040199279788,13,19.000040199279788,13,19.000040199279788C13,19.000040199279788,13,5.000000199279786,13,5.000000199279786C13,5.000000199279786,11,5.000000199279786,11,5.000000199279786C11,5.000000199279786,11,5.000000199279786,11,5.000000199279786ZM11,19.000040199279788C11,19.000040199279788,11.0001097,18.999940199279784,11.0001097,18.999940199279784C11.0001097,18.999940199279784,9.5858898,20.414140199279785,9.5858898,20.414140199279785C10.8457298,21.673940199279784,13,20.782040199279784,13,19.000040199279788C13,19.000040199279788,11,19.000040199279788,11,19.000040199279788C11,19.000040199279788,11,19.000040199279788,11,19.000040199279788ZM11.0001097,18.999940199279784C11.0001097,18.999940199279784,6.2931099,14.292940199279785,6.2931099,14.292940199279785C6.2931099,14.292940199279785,4.87889,15.707140199279785,4.87889,15.707140199279785C4.87889,15.707140199279785,9.5858898,20.414140199279785,9.5858898,20.414140199279785C9.5858898,20.414140199279785,11.0001097,18.999940199279784,11.0001097,18.999940199279784C11.0001097,18.999940199279784,11.0001097,18.999940199279784,11.0001097,18.999940199279784Z" fill="#0A0A28" fill-opacity="1"/></g></svg>