<svg xmlns="http://www.w3.org/2000/svg" xmlns:xlink="http://www.w3.org/1999/xlink" fill="none" version="1.1" width="24" height="24" viewBox="0 0 24 24"><defs><clipPath id="master_svg0_3_2299"><rect x="0" y="0" width="24" height="24" rx="0"/></clipPath></defs><g clip-path="url(#master_svg0_3_2299)"><path d="M7.403910153405762,15.696849862670899C7.013380053405761,16.087349862670898,7.013360053405762,16.7205498626709,7.403880153405762,17.111049862670896C7.794390153405762,17.5016498626709,8.42755985340576,17.5016498626709,8.818089953405762,17.1111498626709C8.818089953405762,17.1111498626709,7.403910153405762,15.696849862670899,7.403910153405762,15.696849862670899C7.403910153405762,15.696849862670899,7.403910153405762,15.696849862670899,7.403910153405762,15.696849862670899ZM15.181900053405762,17.1111498626709C15.572400053405762,17.5016498626709,16.20560005340576,17.5016498626709,16.596100053405763,17.111049862670896C16.98660005340576,16.7205498626709,16.98660005340576,16.087349862670898,16.596100053405763,15.696849862670899C16.596100053405763,15.696849862670899,15.181900053405762,17.1111498626709,15.181900053405762,17.1111498626709C15.181900053405762,17.1111498626709,15.181900053405762,17.1111498626709,15.181900053405762,17.1111498626709ZM12.000000053405762,19.0000498626709C11.447700053405761,19.0000498626709,10.999999953405762,19.447749862670896,10.999999953405762,20.0000498626709C10.999999953405762,20.552249862670898,11.447700053405761,21.0000498626709,12.000000053405762,21.0000498626709C12.000000053405762,21.0000498626709,12.000000053405762,19.0000498626709,12.000000053405762,19.0000498626709C12.000000053405762,19.0000498626709,12.000000053405762,19.0000498626709,12.000000053405762,19.0000498626709ZM12.010000053405761,21.0000498626709C12.562300053405762,21.0000498626709,13.010000053405761,20.552249862670898,13.010000053405761,20.0000498626709C13.010000053405761,19.447749862670896,12.562300053405762,19.0000498626709,12.010000053405761,19.0000498626709C12.010000053405761,19.0000498626709,12.010000053405761,21.0000498626709,12.010000053405761,21.0000498626709C12.010000053405761,21.0000498626709,12.010000053405761,21.0000498626709,12.010000053405761,21.0000498626709ZM4.222800053405762,12.221980062670898C3.8323299534057615,12.612559762670898,3.832410053405762,13.245719862670898,4.222980053405761,13.636199962670899C4.613559953405762,14.026669462670899,5.246720053405761,14.026589362670899,5.637199853405762,13.636019662670899C5.637199853405762,13.636019662670899,4.222800053405762,12.221980062670898,4.222800053405762,12.221980062670898C4.222800053405762,12.221980062670898,4.222800053405762,12.221980062670898,4.222800053405762,12.221980062670898ZM18.36390005340576,13.636110262670899C18.754399053405763,14.026629462670899,19.387601053405763,14.026629462670899,19.778100053405762,13.636110262670899C20.16859905340576,13.245579762670898,20.16859905340576,12.6124200626709,19.778100053405762,12.221889962670899C19.778100053405762,12.221889962670899,18.36390005340576,13.636110262670899,18.36390005340576,13.636110262670899C18.36390005340576,13.636110262670899,18.36390005340576,13.636110262670899,18.36390005340576,13.636110262670899ZM0.6868930434057617,8.685889962670899C0.2963700534057616,9.0764198626709,0.2963700534057616,9.709579962670897,0.6868930434057617,10.100110062670899C1.0774170434057617,10.490629662670898,1.7105830634057617,10.490629662670898,2.101107063405762,10.100110062670899C2.101107063405762,10.100110062670899,0.6868930434057617,8.685889962670899,0.6868930434057617,8.685889962670899C0.6868930434057617,8.685889962670899,0.6868930434057617,8.685889962670899,0.6868930434057617,8.685889962670899ZM21.900001053405763,10.100169662670899C22.29050005340576,10.490659762670898,22.923699053405763,10.490599662670899,23.314200053405763,10.100049962670898C23.70469905340576,9.7094898626709,23.704600053405763,9.076319662670898,23.314000053405763,8.685829862670898C23.314000053405763,8.685829862670898,21.900001053405763,10.100169662670899,21.900001053405763,10.100169662670899C21.900001053405763,10.100169662670899,21.900001053405763,10.100169662670899,21.900001053405763,10.100169662670899ZM8.818089953405762,17.1111498626709C9.661999653405761,16.267249862670898,10.806560553405761,15.793149862670898,12.000000053405762,15.793149862670898C12.000000053405762,15.793149862670898,12.000000053405762,13.793169962670898,12.000000053405762,13.793169962670898C10.276140253405762,13.793169962670898,8.622889953405762,14.477950062670898,7.403910153405762,15.696849862670899C7.403910153405762,15.696849862670899,8.818089953405762,17.1111498626709,8.818089953405762,17.1111498626709C8.818089953405762,17.1111498626709,8.818089953405762,17.1111498626709,8.818089953405762,17.1111498626709ZM12.000000053405762,15.793149862670898C13.193400053405762,15.793149862670898,14.338000053405763,16.267249862670898,15.181900053405762,17.1111498626709C15.181900053405762,17.1111498626709,16.596100053405763,15.696849862670899,16.596100053405763,15.696849862670899C15.377100053405762,14.477950062670898,13.723900053405762,13.793169962670898,12.000000053405762,13.793169962670898C12.000000053405762,13.793169962670898,12.000000053405762,15.793149862670898,12.000000053405762,15.793149862670898C12.000000053405762,15.793149862670898,12.000000053405762,15.793149862670898,12.000000053405762,15.793149862670898ZM12.000000053405762,21.0000498626709C12.000000053405762,21.0000498626709,12.010000053405761,21.0000498626709,12.010000053405761,21.0000498626709C12.010000053405761,21.0000498626709,12.010000053405761,19.0000498626709,12.010000053405761,19.0000498626709C12.010000053405761,19.0000498626709,12.000000053405762,19.0000498626709,12.000000053405762,19.0000498626709C12.000000053405762,19.0000498626709,12.000000053405762,21.0000498626709,12.000000053405762,21.0000498626709C12.000000053405762,21.0000498626709,12.000000053405762,21.0000498626709,12.000000053405762,21.0000498626709ZM5.637199853405762,13.636019662670899C9.150599953405763,10.121709862670897,14.84940005340576,10.121579662670898,18.36390005340576,13.636110262670899C18.36390005340576,13.636110262670899,19.778100053405762,12.221889962670899,19.778100053405762,12.221889962670899C15.482600053405761,7.926419962670899,8.51740025340576,7.926289762670899,4.222800053405762,12.221980062670898C4.222800053405762,12.221980062670898,5.637199853405762,13.636019662670899,5.637199853405762,13.636019662670899C5.637199853405762,13.636019662670899,5.637199853405762,13.636019662670899,5.637199853405762,13.636019662670899ZM2.101107063405762,10.100110062670899C7.567550153405762,4.633663862670899,16.43240005340576,4.633577852670898,21.900001053405763,10.100169662670899C21.900001053405763,10.100169662670899,23.314000053405763,8.685829862670898,23.314000053405763,8.685829862670898C17.06560005340576,2.4384198626708984,6.934450153405762,2.4383399626708986,0.6868930434057617,8.685889962670899C0.6868930434057617,8.685889962670899,2.101107063405762,10.100110062670899,2.101107063405762,10.100110062670899C2.101107063405762,10.100110062670899,2.101107063405762,10.100110062670899,2.101107063405762,10.100110062670899Z" fill="#0A0A28" fill-opacity="1"/></g></svg>