<svg xmlns="http://www.w3.org/2000/svg" xmlns:xlink="http://www.w3.org/1999/xlink" fill="none" version="1.1" width="24" height="24" viewBox="0 0 24 24"><defs><clipPath id="master_svg0_3_1551"><rect x="0" y="0" width="24" height="24" rx="0"/></clipPath></defs><g clip-path="url(#master_svg0_3_1551)"><path d="M21.33359146484375,9.866442196875C16.17839246484375,4.711241996875,7.82160326484375,4.711241996875,2.66640356484375,9.866442196875C2.4400834648437497,10.085034896875001,2.13696346484375,10.205983196875,1.82232476484375,10.203246596875001C1.5076882848437498,10.200522896875,1.2067126648437498,10.074318396875,0.98422306484375,9.851826696875001C0.76173347484375,9.629334496875,0.63553092884375,9.328362496875,0.63279682796575,9.013722396875C0.63006272074375,8.699082396875,0.75101602484375,8.395962696875,0.96960589484375,8.169642496875C7.06080386484375,2.0772414968749997,16.93919146484375,2.0772414968749997,23.03039146484375,8.169642496875C23.24903346484375,8.395962696875,23.36999346484375,8.699082396875,23.36723346484375,9.013722396875C23.36447146484375,9.328362496875,23.23823146484375,9.629334496875,23.01575246484375,9.851826696875001C22.79327246484375,10.074318396875,22.49231146484375,10.200522896875,22.17767146484375,10.203246596875001C21.86303346484375,10.205983196875,21.55991346484375,10.085034896875001,21.33359146484375,9.866442196875C21.33359146484375,9.866442196875,21.33359146484375,9.866442196875,21.33359146484375,9.866442196875ZM17.93999246484375,13.260043096875C17.15999246484375,12.479934696875,16.23395246484375,11.861118296875,15.21479246484375,11.438934796875C14.19551246484375,11.016738396874999,13.10315246484375,10.799430896875,12.00000346484375,10.799430896875C10.89683146484375,10.799430896875,9.80445956484375,11.016738396874999,8.78526406484375,11.438934796875C7.76607946484375,11.861118296875,6.84002776484375,12.479934696875,6.06000326484375,13.260043096875C5.83368346484375,13.478634796875,5.53056386484375,13.599582696875,5.21592376484375,13.596846596875C4.90128376484375,13.594122896875,4.60031156484375,13.467918396875,4.37781956484375,13.245427096875C4.15533946484375,13.022934896875,4.029135464843749,12.721962896875,4.0263993648437495,12.407322896875C4.0236635648437495,12.092682796875,4.14461156484375,11.789563196875,4.36320376484375,11.563242896875C5.36607936484375,10.560355196875001,6.55667206484375,9.764826796874999,7.86700006484375,9.222066896874999C9.17731566484375,8.679306496875,10.58172316484375,8.399946696875,12.00000346484375,8.399946696875C13.41827246484375,8.399946696875,14.82275246484375,8.679306496875,16.13303146484375,9.222066896874999C17.44331146484375,9.764826796874999,18.63395346484375,10.560355196875001,19.63679346484375,11.563242896875C19.85543246484375,11.789563196875,19.97639046484375,12.092682796875,19.97363046484375,12.407322896875C19.97087246484375,12.721962896875,19.84463146484375,13.022934896875,19.62215246484375,13.245427096875C19.39967146484375,13.467918396875,19.09871246484375,13.594122896875,18.78407146484375,13.596846596875C18.46943246484375,13.599582696875,18.16631346484375,13.478634796875,17.93999246484375,13.260043096875C17.93999246484375,13.260043096875,17.93999246484375,13.260043096875,17.93999246484375,13.260043096875C17.93999246484375,13.260043096875,17.93999246484375,13.260043096875,17.93999246484375,13.260043096875ZM14.54399246484375,16.656102796875C13.86887146484375,15.981102796875,12.95339346484375,15.602022796875,11.99880446484375,15.602022796875C11.04421646484375,15.602022796875,10.12870026484375,15.981102796875,9.45360376484375,16.656102796875C9.22843646484375,16.881223796875,8.92304806484375,17.007703796875,8.60460376484375,17.007703796875C8.28617186484375,17.007703796875,7.98077206484375,16.881223796875,7.75560376484375,16.656102796875C7.53043556484375,16.430863796875002,7.40394406484375,16.125463796875,7.40394406484375,15.806983796875C7.40394406484375,15.488610796875,7.53043556484375,15.183210796875,7.75560376484375,14.958043796875C8.31277606484375,14.400727796875,8.97428796484375,13.958622796875,9.70234016484375,13.657003796875C10.43039126484375,13.355371496875,11.21074046484375,13.200127596875,11.99880446484375,13.200127596875C12.78683146484375,13.200127596875,13.56719246484375,13.355371496875,14.29523146484375,13.657003796875C15.02327146484375,13.958622796875,15.68483146484375,14.400727796875,16.24199246484375,14.958043796875C16.46723246484375,15.183210796875,16.593712464843748,15.488610796875,16.593712464843748,15.806983796875C16.593712464843748,16.125463796875,16.46723246484375,16.430863796875002,16.24199246484375,16.656102796875C16.01687146484375,16.881223796875,15.71147246484375,17.007703796875,15.39299346484375,17.007703796875C15.07451146484375,17.007703796875,14.76923246484375,16.881223796875,14.54399246484375,16.656102796875C14.54399246484375,16.656102796875,14.54399246484375,16.656102796875,14.54399246484375,16.656102796875C14.54399246484375,16.656102796875,14.54399246484375,16.656102796875,14.54399246484375,16.656102796875ZM10.80000346484375,19.200103796875C10.80000346484375,18.881743796875,10.92643546484375,18.576583796875,11.15147246484375,18.351463796875002C11.37652046484375,18.126463796875,11.68173946484375,18.000102796874998,12.00000346484375,18.000102796874998C12.00000346484375,18.000102796874998,12.01200346484375,18.000102796874998,12.01200346484375,18.000102796874998C12.33026646484375,18.000102796874998,12.63551246484375,18.126463796875,12.86051246484375,18.351463796875002C13.08563246484375,18.576583796875,13.21199246484375,18.881743796875,13.21199246484375,19.200103796875C13.21199246484375,19.518344796875,13.08563246484375,19.823505796875,12.86051246484375,20.048623796875C12.63551246484375,20.273624796875,12.33026646484375,20.400104796875,12.01200346484375,20.400104796875C12.01200346484375,20.400104796875,12.00000346484375,20.400104796875,12.00000346484375,20.400104796875C11.68173946484375,20.400104796875,11.37652046484375,20.273624796875,11.15147246484375,20.048623796875C10.92643546484375,19.823505796875,10.80000346484375,19.518344796875,10.80000346484375,19.200103796875C10.80000346484375,19.200103796875,10.80000346484375,19.200103796875,10.80000346484375,19.200103796875Z" fill-rule="evenodd" fill="#0A0A28" fill-opacity="1"/></g></svg>