<svg xmlns="http://www.w3.org/2000/svg" xmlns:xlink="http://www.w3.org/1999/xlink" fill="none" version="1.1" width="24" height="24" viewBox="0 0 24 24"><defs><clipPath id="master_svg0_3_1597"><rect x="0" y="0" width="24" height="24" rx="0"/></clipPath></defs><g clip-path="url(#master_svg0_3_1597)"><path d="M5.29289299,17.2929C4.9023699999999995,17.6834,4.9023699999999995,18.3166,5.29289299,18.7071C5.68341699,19.0976,6.31658301,19.0976,6.70710701,18.7071C6.70710701,18.7071,5.29289299,17.2929,5.29289299,17.2929C5.29289299,17.2929,5.29289299,17.2929,5.29289299,17.2929ZM18.7071,6.70710701C19.0976,6.31658301,19.0976,5.68341699,18.7071,5.29289299C18.3166,4.9023699999999995,17.6834,4.9023699999999995,17.2929,5.29289299C17.2929,5.29289299,18.7071,6.70710701,18.7071,6.70710701C18.7071,6.70710701,18.7071,6.70710701,18.7071,6.70710701ZM6.70710701,5.29289299C6.31658301,4.9023699999999995,5.68341699,4.9023699999999995,5.29289299,5.29289299C4.9023699999999995,5.68341699,4.9023699999999995,6.31658301,5.29289299,6.70710701C5.29289299,6.70710701,6.70710701,5.29289299,6.70710701,5.29289299C6.70710701,5.29289299,6.70710701,5.29289299,6.70710701,5.29289299ZM17.2929,18.7071C17.6834,19.0976,18.3166,19.0976,18.7071,18.7071C19.0976,18.3166,19.0976,17.6834,18.7071,17.2929C18.7071,17.2929,17.2929,18.7071,17.2929,18.7071C17.2929,18.7071,17.2929,18.7071,17.2929,18.7071ZM6.70710701,18.7071C6.70710701,18.7071,18.7071,6.70710701,18.7071,6.70710701C18.7071,6.70710701,17.2929,5.29289299,17.2929,5.29289299C17.2929,5.29289299,5.29289299,17.2929,5.29289299,17.2929C5.29289299,17.2929,6.70710701,18.7071,6.70710701,18.7071C6.70710701,18.7071,6.70710701,18.7071,6.70710701,18.7071ZM17.2929,5.29289299C17.2929,5.29289299,5.29289299,17.2929,5.29289299,17.2929C5.29289299,17.2929,6.70710701,18.7071,6.70710701,18.7071C6.70710701,18.7071,18.7071,6.70710701,18.7071,6.70710701C18.7071,6.70710701,17.2929,5.29289299,17.2929,5.29289299C17.2929,5.29289299,17.2929,5.29289299,17.2929,5.29289299ZM5.29289299,6.70710701C5.29289299,6.70710701,17.2929,18.7071,17.2929,18.7071C17.2929,18.7071,18.7071,17.2929,18.7071,17.2929C18.7071,17.2929,6.70710701,5.29289299,6.70710701,5.29289299C6.70710701,5.29289299,5.29289299,6.70710701,5.29289299,6.70710701C5.29289299,6.70710701,5.29289299,6.70710701,5.29289299,6.70710701Z" fill="#0A0A28" fill-opacity="1"/></g></svg>