<svg xmlns="http://www.w3.org/2000/svg" xmlns:xlink="http://www.w3.org/1999/xlink" fill="none" version="1.1" width="24" height="24" viewBox="0 0 24 24"><defs><clipPath id="master_svg0_3_1735"><rect x="0" y="0" width="24" height="24" rx="0"/></clipPath></defs><g clip-path="url(#master_svg0_3_1735)"><path d="M12.0000248140625,21.6000254140625C14.5460654140625,21.6000254140625,16.9879444140625,20.5885444140625,18.7883054140625,18.7883054140625C20.5885444140625,16.9879444140625,21.6000254140625,14.5460654140625,21.6000254140625,12.0000248140625C21.6000254140625,9.4539490140625,20.5885444140625,7.0121527140625,18.7883054140625,5.211804414062501C16.9879444140625,3.4114504140625,14.5460654140625,2.4000244140625013,12.0000248140625,2.4000244140625C9.4539490140625,2.4000244140625018,7.0121527140625,3.4114504140625,5.211804414062501,5.211804414062501C3.4114504140625,7.0121527140625,2.400024414062502,9.4539490140625,2.4000244140625,12.0000248140625C2.4000244140625018,14.5460654140625,3.4114504140625,16.9879444140625,5.211804414062501,18.7883054140625C7.0121527140625,20.5885444140625,9.4539490140625,21.6000254140625,12.0000248140625,21.6000254140625C12.0000248140625,21.6000254140625,12.0000248140625,21.6000254140625,12.0000248140625,21.6000254140625C12.0000248140625,21.6000254140625,12.0000248140625,21.6000254140625,12.0000248140625,21.6000254140625ZM10.4484243140625,8.751625014062501C10.2221050140625,8.5330324140625,9.9189849140625,8.4120846140625,9.6043448140625,8.4148207140625C9.2897043140625,8.417544414062501,8.9887328140625,8.5437488140625,8.7662406140625,8.7662406140625C8.5437488140625,8.9887328140625,8.417544414062501,9.2897043140625,8.4148207140625,9.6043448140625C8.4120846140625,9.9189849140625,8.5330324140625,10.2221050140625,8.751625014062501,10.4484243140625C8.751625014062501,10.4484243140625,10.3032245140625,12.0000248140625,10.3032245140625,12.0000248140625C10.3032245140625,12.0000248140625,8.751625014062501,13.5516254140625,8.751625014062501,13.5516254140625C8.637012914062499,13.6623244140625,8.545597114062499,13.7947334140625,8.4827046140625,13.9411454140625C8.4198127140625,14.0875454140625,8.3867049140625,14.2450084140625,8.3853245140625,14.4043454140625C8.383944514062499,14.5637054140625,8.4143047140625,14.7217444140625,8.4746408140625,14.8692244140625C8.5349769140625,15.0167044140625,8.6240764140625,15.1506244140625,8.7367449140625,15.2633054140625C8.8494243140625,15.3759854140625,8.9834046140625,15.4650254140625,9.1308846140625,15.5253854140625C9.278352214062501,15.5857444140625,9.4363685140625,15.6161054140625,9.5957045140625,15.6147844140625C9.7550406140625,15.6133454140625,9.9125047140625,15.5802244140625,10.058904614062499,15.5173444140625C10.205316514062499,15.4544644140625,10.3377247140625,15.3630244140625,10.4484243140625,15.2484244140625C10.4484243140625,15.2484244140625,12.0000248140625,13.6968244140625,12.0000248140625,13.6968244140625C12.0000248140625,13.6968244140625,13.5516254140625,15.2484244140625,13.5516254140625,15.2484244140625C13.7779444140625,15.4670644140625,14.0810644140625,15.5880254140625,14.3957044140625,15.5852654140625C14.7103454140625,15.5825054140625,15.0113054140625,15.4562654140625,15.2337854140625,15.2337854140625C15.4562654140625,15.0113054140625,15.5825054140625,14.7103454140625,15.5852654140625,14.3957044140625C15.5880254140625,14.0810644140625,15.4670644140625,13.7779444140625,15.2484244140625,13.5516254140625C15.2484244140625,13.5516254140625,13.6968244140625,12.0000248140625,13.6968244140625,12.0000248140625C13.6968244140625,12.0000248140625,15.2484244140625,10.4484243140625,15.2484244140625,10.4484243140625C15.4670644140625,10.2221050140625,15.5880254140625,9.9189849140625,15.5852654140625,9.6043448140625C15.5825054140625,9.2897043140625,15.4562654140625,8.9887328140625,15.2337854140625,8.7662406140625C15.0113054140625,8.5437488140625,14.7103454140625,8.417544414062501,14.3957044140625,8.4148207140625C14.0810644140625,8.4120846140625,13.7779444140625,8.5330324140625,13.5516254140625,8.751625014062501C13.5516254140625,8.751625014062501,12.0000248140625,10.3032245140625,12.0000248140625,10.3032245140625C12.0000248140625,10.3032245140625,10.4484243140625,8.751625014062501,10.4484243140625,8.751625014062501C10.4484243140625,8.751625014062501,10.4484243140625,8.751625014062501,10.4484243140625,8.751625014062501Z" fill-rule="evenodd" fill="#0A0A28" fill-opacity="1"/></g></svg>