<svg xmlns="http://www.w3.org/2000/svg" xmlns:xlink="http://www.w3.org/1999/xlink" fill="none" version="1.1" width="24" height="24" viewBox="0 0 24 24"><defs><clipPath id="master_svg0_3_2045"><rect x="0" y="0" width="24" height="24" rx="0"/></clipPath></defs><g clip-path="url(#master_svg0_3_2045)"><path d="M5.15163737875,5.15150183C5.37666976875,4.92653665,5.68183940875,4.800158411,6.00003626875,4.800158411C6.31823316875,4.800158411,6.6234050687499995,4.92653665,6.84844116875,5.15150183C6.84844116875,5.15150183,12.00004146875,10.30310445,12.00004146875,10.30310445C12.00004146875,10.30310445,17.15165296875,5.15150183,17.15165296875,5.15150183C17.26229396875,5.03688985,17.394773968750002,4.94547147,17.54117396875,4.882580534C17.68757296875,4.819689732,17.84501396875,4.786586134,18.004373968750002,4.785201558523C18.16373396875,4.783816978,18.32165396875,4.814178731,18.46913396875,4.874515817C18.616613968750002,4.93485266,18.75065396875,5.02395625,18.86333396875,5.13662785C18.97601296875,5.2492995,19.065052968750003,5.38328189,19.12541396875,5.53075707C19.18577296875,5.67823344,19.21613296875,5.83624825,19.214693968749998,5.99558425C19.21337296875,6.15492025,19.18025396875,6.31238435,19.11737296875,6.45878435C19.054493968750002,6.60519635,18.96305396875,6.73760435,18.848454968749998,6.84830425C18.848454968749998,6.84830425,13.69684126875,11.999904650000001,13.69684126875,11.999904650000001C13.69684126875,11.999904650000001,18.848454968749998,17.151517249999998,18.848454968749998,17.151517249999998C19.06697396875,17.37783725,19.187933968750002,17.68095725,19.185293968750003,17.99559725C19.18253296875,18.31023725,19.056293968749998,18.61119625,18.83381396875,18.83367625C18.61133396875,19.05615725,18.310372968750002,19.18239725,17.995732968749998,19.18515725C17.681093968749998,19.187796249999998,17.37797296875,19.06683625,17.15165296875,18.84831725C17.15165296875,18.84831725,12.00004146875,13.69670485,12.00004146875,13.69670485C12.00004146875,13.69670485,6.84844116875,18.84831725,6.84844116875,18.84831725C6.6221090687499995,19.06683625,6.31898916875,19.187796249999998,6.00436086875,19.18515725C5.68971860875,19.18239725,5.38874417875,19.05615725,5.16625457875,18.83367625C4.94376498875,18.61119625,4.81756168975,18.31023725,4.81482748875,17.99559725C4.81209343275,17.68095725,4.93304776875,17.37783725,5.15163737875,17.151517249999998C5.15163737875,17.151517249999998,10.30324126875,11.999904650000001,10.30324126875,11.999904650000001C10.30324126875,11.999904650000001,5.15163737875,6.84830425,5.15163737875,6.84830425C4.92667217875,6.62326825,4.80029296875,6.31809625,4.80029296875,5.99990425C4.80029296875,5.68170512,4.92667217875,5.37653548,5.15163737875,5.15150183C5.15163737875,5.15150183,5.15163737875,5.15150183,5.15163737875,5.15150183C5.15163737875,5.15150183,5.15163737875,5.15150183,5.15163737875,5.15150183Z" fill-rule="evenodd" fill="#0A0A28" fill-opacity="1"/></g></svg>