<svg xmlns="http://www.w3.org/2000/svg" xmlns:xlink="http://www.w3.org/1999/xlink" fill="none" version="1.1" width="24" height="24" viewBox="0 0 24 24"><defs><clipPath id="master_svg0_3_1568"><rect x="0" y="0" width="24" height="24" rx="0"/></clipPath></defs><g clip-path="url(#master_svg0_3_1568)"><path d="M20.2929,21.7071C20.683399,22.097601,21.316601,22.097601,21.7071,21.7071C22.097601,21.316601,22.097601,20.683399,21.7071,20.2929C21.7071,20.2929,20.2929,21.7071,20.2929,21.7071C20.2929,21.7071,20.2929,21.7071,20.2929,21.7071ZM15.7071,14.2929C15.3166,13.9024,14.6834,13.9024,14.2929,14.2929C13.9024,14.6834,13.9024,15.3166,14.2929,15.7071C14.2929,15.7071,15.7071,14.2929,15.7071,14.2929C15.7071,14.2929,15.7071,14.2929,15.7071,14.2929ZM10,17C10,17,10,18,10,18C10,18,10,17,10,17C10,17,10,17,10,17ZM3.000000000000001,10C3.000000000000001,10,2,10,2,10C2,10,3.000000000000001,10,3.000000000000001,10C3.000000000000001,10,3.000000000000001,10,3.000000000000001,10ZM10,3C10,3,10,4,10,4C10,4,10,3,10,3C10,3,10,3,10,3ZM11,7C11,6.4477201,10.5522799,6,10,6C9.4477201,6,9,6.4477201,9,7C9,7,11,7,11,7C11,7,11,7,11,7ZM9,10C9,10.5522799,9.4477201,11,10,11C10.5522799,11,11,10.5522799,11,10C11,10,9,10,9,10C9,10,9,10,9,10ZM11,10C11,9.4477201,10.5522799,9,10,9C9.4477201,9,9,9.4477201,9,10C9,10,11,10,11,10C11,10,11,10,11,10ZM9,13C9,13.5523,9.4477201,14,10,14C10.5522799,14,11,13.5523,11,13C11,13,9,13,9,13C9,13,9,13,9,13ZM10,9C9.4477201,9,9,9.4477201,9,10C9,10.5522799,9.4477201,11,10,11C10,11,10,9,10,9C10,9,10,9,10,9ZM13,11C13.5523,11,14,10.5522799,14,10C14,9.4477201,13.5523,9,13,9C13,9,13,11,13,11C13,11,13,11,13,11ZM10,11C10.5522799,11,11,10.5522799,11,10C11,9.4477201,10.5522799,9,10,9C10,9,10,11,10,11C10,11,10,11,10,11ZM7,9C6.4477201,9,6,9.4477201,6,10C6,10.5522799,6.4477201,11,7,11C7,11,7,9,7,9C7,9,7,9,7,9ZM21.7071,20.2929C21.7071,20.2929,15.7071,14.2929,15.7071,14.2929C15.7071,14.2929,14.2929,15.7071,14.2929,15.7071C14.2929,15.7071,20.2929,21.7071,20.2929,21.7071C20.2929,21.7071,21.7071,20.2929,21.7071,20.2929C21.7071,20.2929,21.7071,20.2929,21.7071,20.2929ZM14.2929,15.7071C14.2929,15.7071,20.2929,21.7071,20.2929,21.7071C20.2929,21.7071,21.7071,20.2929,21.7071,20.2929C21.7071,20.2929,15.7071,14.2929,15.7071,14.2929C15.7071,14.2929,14.2929,15.7071,14.2929,15.7071C14.2929,15.7071,14.2929,15.7071,14.2929,15.7071ZM16,10C16,10.78793,15.8448,11.5681496,15.5433,12.2960997C15.5433,12.2960997,17.391,13.0615,17.391,13.0615C17.793100000000003,12.0908604,18,11.0505695,18,10C18,10,16,10,16,10C16,10,16,10,16,10ZM15.5433,12.2960997C15.2417,13.0241,14.7998,13.6855,14.2426,14.2426C14.2426,14.2426,15.6569,15.6569,15.6569,15.6569C16.3997,14.914,16.989,14.0321,17.391,13.0615C17.391,13.0615,15.5433,12.2960997,15.5433,12.2960997C15.5433,12.2960997,15.5433,12.2960997,15.5433,12.2960997ZM14.2426,14.2426C13.6855,14.7998,13.0241,15.2417,12.2960997,15.5433C12.2960997,15.5433,13.0615,17.391,13.0615,17.391C14.0321,16.989,14.914,16.3997,15.6569,15.6569C15.6569,15.6569,14.2426,14.2426,14.2426,14.2426C14.2426,14.2426,14.2426,14.2426,14.2426,14.2426ZM12.2960997,15.5433C11.5681496,15.8448,10.78793,16,10,16C10,16,10,18,10,18C11.0505695,18,12.0908604,17.793100000000003,13.0615,17.391C13.0615,17.391,12.2960997,15.5433,12.2960997,15.5433C12.2960997,15.5433,12.2960997,15.5433,12.2960997,15.5433ZM10,16C9.21207,16,8.43185,15.8448,7.7038999,15.5433C7.7038999,15.5433,6.93853,17.391,6.93853,17.391C7.9091401,17.793100000000003,8.94943,18,10,18C10,18,10,16,10,16C10,16,10,16,10,16ZM7.7038999,15.5433C6.97595,15.2417,6.3145101,14.7998,5.75736,14.2426C5.75736,14.2426,4.34315,15.6569,4.34315,15.6569C5.08601,16.3997,5.9679301,16.989,6.93853,17.391C6.93853,17.391,7.7038999,15.5433,7.7038999,15.5433C7.7038999,15.5433,7.7038999,15.5433,7.7038999,15.5433ZM5.75736,14.2426C5.2002101,13.6855,4.75825,13.0241,4.45672,12.2960997C4.45672,12.2960997,2.608964,13.0615,2.608964,13.0615C3.0110015,14.0321,3.60027701,14.914,4.34315,15.6569C4.34315,15.6569,5.75736,14.2426,5.75736,14.2426C5.75736,14.2426,5.75736,14.2426,5.75736,14.2426ZM4.45672,12.2960997C4.15519,11.5681496,4,10.78793,4,10C4,10,2,10,2,10C2,11.05058,2.2069259900000002,12.0908604,2.608964,13.0615C2.608964,13.0615,4.45672,12.2960997,4.45672,12.2960997C4.45672,12.2960997,4.45672,12.2960997,4.45672,12.2960997ZM4,10C4,8.4087,4.63214,6.88258,5.75736,5.75736C5.75736,5.75736,4.34315,4.34315,4.34315,4.34315C2.84285501,5.8434401000000005,2,7.8782701,2,10C2,10,4,10,4,10C4,10,4,10,4,10ZM5.75736,5.75736C6.88258,4.63214,8.4087,4,10,4C10,4,10,2,10,2C7.8782701,2,5.8434401000000005,2.84285501,4.34315,4.34315C4.34315,4.34315,5.75736,5.75736,5.75736,5.75736C5.75736,5.75736,5.75736,5.75736,5.75736,5.75736ZM10,4C11.5913,4,13.1174,4.63214,14.2426,5.75736C14.2426,5.75736,15.6569,4.34315,15.6569,4.34315C14.1566,2.84285501,12.1217299,2,10,2C10,2,10,4,10,4C10,4,10,4,10,4ZM14.2426,5.75736C15.3679,6.88258,16,8.4087,16,10C16,10,18,10,18,10C18,7.8782701,17.1571,5.8434401000000005,15.6569,4.34315C15.6569,4.34315,14.2426,5.75736,14.2426,5.75736C14.2426,5.75736,14.2426,5.75736,14.2426,5.75736ZM9,7C9,7,9,10,9,10C9,10,11,10,11,10C11,10,11,7,11,7C11,7,9,7,9,7C9,7,9,7,9,7ZM11,10C11,10,11,7,11,7C11,7,9,7,9,7C9,7,9,10,9,10C9,10,11,10,11,10C11,10,11,10,11,10ZM9,10C9,10,9,13,9,13C9,13,11,13,11,13C11,13,11,10,11,10C11,10,9,10,9,10C9,10,9,10,9,10ZM11,13C11,13,11,10,11,10C11,10,9,10,9,10C9,10,9,13,9,13C9,13,11,13,11,13C11,13,11,13,11,13ZM10,11C10,11,13,11,13,11C13,11,13,9,13,9C13,9,10,9,10,9C10,9,10,11,10,11C10,11,10,11,10,11ZM13,9C13,9,10,9,10,9C10,9,10,11,10,11C10,11,13,11,13,11C13,11,13,9,13,9C13,9,13,9,13,9ZM10,9C10,9,7,9,7,9C7,9,7,11,7,11C7,11,10,11,10,11C10,11,10,9,10,9C10,9,10,9,10,9Z" fill="#0A0A28" fill-opacity="1"/></g></svg>